<svg version="1.1" id="圖層_1" xmlns="http://www.w3.org/2000/svg" x="0" y="0" viewBox="0 0 19.2 16" xml:space="preserve"><path d="M1.7 10.9l.8 1.4c1.1 2 5.2 1.8 9.1-.4s6.1-5.6 5-7.6L15.8 3" fill="#f9cd53" stroke="#7c2e47" stroke-linecap="round" stroke-linejoin="round" stroke-miterlimit="10"/><ellipse transform="rotate(-29.565 8.811 6.988)" cx="8.8" cy="7" rx="8.1" ry="3" fill="#f9cd53"/><path d="M2.2 11.4s.3-3.7 7.4-6.8c6.7-2.9 5.9-.1 5.9-.1s.6-1.2.2-1.8c-.4-.5-5.3-1.4-11.6 3.9 0 .1-3.6 3-1.9 4.8z" opacity=".7" fill="#fff"/><ellipse transform="rotate(-29.565 8.811 6.988)" cx="8.8" cy="7" rx="8.1" ry="3" fill="none" stroke="#7c2e47" stroke-miterlimit="10"/><path d="M13.9 7c.3.5.6 1 .9 1.6 0 .1.1.1.1.2.2.3.6.4.8.2.3-.2.4-.5.3-.8-.3-.5-.6-1-.9-1.6 0-.1-.1-.1-.1-.2-.2-.3-.6-.4-.8-.2-.4.1-.5.5-.3.8zM3.3 12.3c.2.4.5.9.7 1.3 0 .1.1.1.1.2.2.1.3.2.4.2.1 0 .3 0 .5-.1.3-.2.4-.5.2-.8-.2-.4-.5-.9-.7-1.3 0-.1-.1-.1-.1-.2-.1-.1-.2-.2-.4-.3-.1 0-.3 0-.5.1-.2.2-.3.6-.2.9zm2.1-.4c.3.5.6 1.1.9 1.6 0 .1.1.2.1.2.2.3.6.4.9.2.3-.2.4-.5.2-.8-.3-.5-.6-1.1-.9-1.6 0-.1-.1-.2-.1-.2-.2-.3-.6-.4-.9-.3-.2.2-.3.6-.2.9zm9.8-6.5c.3.4.5.9.8 1.3 0 .1 0 .2.1.3.2.3.6.4.8.2.3-.2.4-.5.2-.8-.3-.4-.5-.9-.8-1.3 0-.1-.1-.1-.1-.2-.2-.3-.6-.4-.8-.2-.2.1-.3.4-.2.7zm-3.8 3.7c.3.5.6 1.1.9 1.6 0 .1.1.2.1.2.2.3.6.4.8.2.3-.2.4-.5.2-.8-.3-.5-.6-1.1-.9-1.6 0-.1-.1-.2-.1-.2-.2-.3-.6-.4-.8-.2-.2.2-.3.5-.2.8z" fill="#7c2e47"/></svg>