<svg version="1.1" id="圖層_1" xmlns="http://www.w3.org/2000/svg" x="0" y="0" viewBox="0 0 35.6 36.3" xml:space="preserve"><style>.st0{fill:#282828}.st2{opacity:.8}.st3{fill:#b58f43}</style><path class="st0" d="M12.6 6.3c.6.2 1.2.5 1.7.7.1 0 .2.1.2.1.1.1.3 0 .5-.1.1-.1.2-.2.3-.4 0-.2 0-.3-.1-.5-.1-.1-.2-.1-.3-.2-.6-.2-1.2-.5-1.7-.7-.1 0-.2-.1-.2-.1-.1-.1-.3 0-.5.1-.1.1-.2.2-.3.4 0 .2 0 .3.1.5 0 0 .1.1.3.2z"/><path d="M30.7 23.1c-2.4 5.9-8.6 9.2-14.6 8.3-.4-.1-.7-.1-1.1-.2l-1.8-.6C6.3 27.7 2.9 19.8 5.7 12.9 8.4 6.2 16 2.8 22.8 5.3c.1 0 .2.1.4.1h.1s.1 0 .1.1c1.7.7 3.2 1.8 4.5 3 3.6 3.8 4.9 9.4 2.8 14.6z" fill="#f9cd53"/><g class="st2"><path class="st3" d="M16.1 31.3c-1-.2-2-.4-2.9-.8-6.9-2.8-10.3-10.7-7.5-17.6C8.4 6.2 16 2.8 22.8 5.3c.1 0 .2.1.4.1-3.4-.3-9.6.1-13 4.7-4.9 6.5-3.9 16.6 5.9 21.2z"/></g><path d="M27.9 8.6C13.8 2 7.2 18 7.2 18s-.1-6.1 5.9-10.5c3.3-2.4 7.4-2.4 10.4-2 1.7.8 3.2 1.8 4.4 3.1z" opacity=".7" fill="#fff"/><path class="st0" d="M30.2 22.9c-2.2 5.1-7.5 8.4-13 7.9S7 26.2 5.7 20.9c-1.2-5.2 1-10.8 5.5-13.7 4.4-2.9 10.3-2.8 14.6.3 4.8 3.5 6.5 9.9 4.4 15.4-.3.7.9 1 1.2.3 2.1-5.4.7-11.7-3.6-15.6C23.5 3.7 17.2 2.8 12 5.4 6.7 8 3.5 13.8 4.2 19.7c.7 5.9 5.1 10.8 10.9 12.1 6.8 1.5 13.6-2.2 16.2-8.5.3-.8-.8-1.1-1.1-.4z"/><path class="st0" d="M30.2 22.9c-2 4.8-6.8 8-12 8-4.9 0-8.9-4.7-10-9.2-1.2-5 .7-10.4 4.8-13.4 1.9-1.4 4.3-2.3 6.7-2.5 1.1-.1 2.4-.1 3.5.3 1.3.5 2.5 1.3 3.5 2.2 4.2 3.6 5.5 9.5 3.5 14.6-.3.7.9 1 1.2.3 2-5.1.9-11-3-15-1.8-1.8-4.2-3.4-6.8-3.6-2.7-.2-5.5.5-7.9 1.8-4.9 2.8-7.7 8.5-7 14.2.4 2.6 1.4 5 3.1 7 1.5 1.9 4 4 6.5 4.4 6.4 1.1 12.6-2.9 15.1-8.7.2-.8-.9-1.1-1.2-.4z"/><g class="st2"><path class="st3" d="M20.1 26.4l-.1 1.3-2.1-.3.2-1.3c-1.7-.7-2.6-2.3-2.3-4.3l.1-.6 2.4.1-.1.6c-.2 1.2.3 2 1.3 2.1 1 .1 1.7-.4 1.8-1.3.2-1.1-.8-2.3-1.9-3.5-1.3-1.4-2.6-3.1-2.3-5.2.3-2 1.5-3.3 3.2-3.5l.2-1.3 2.1.3-.2 1.3c1.7.6 2.4 2.2 2.1 4.3l-.1.4-2.4-.1.1-.5c.2-1.2-.2-2-1.1-2.1-.9-.1-1.4.3-1.6 1.4-.2 1.1.8 2.2 1.9 3.5 1.3 1.5 2.6 3.1 2.3 5.2-.2 2-1.6 3.4-3.5 3.5z"/></g><path class="st0" d="M11.3 7.1c.5.2 1 .3 1.5.5.1 0 .1 0 .2.1.3.1.7-.1.7-.4.1-.3-.1-.6-.4-.7-.5-.2-1-.3-1.5-.5-.1 0-.1 0-.2-.1-.3-.1-.7.1-.7.4-.1.2 0 .5.4.7zm2.4-1.2c.7.1 1.3.3 1.9.5.1 0 .2.1.3.1.3.1.7-.1.7-.4.1-.3-.1-.6-.4-.7-.6-.2-1.2-.4-1.9-.6-.1 0-.2-.1-.3-.1-.3-.1-.7.1-.7.4 0 .3.1.7.4.8zm5.9 20.4c-.1.4-.1.8-.2 1.3.2-.1.5-.3.7-.4l-2.1-.3c.1.2.3.5.4.7.1-.4.1-.8.2-1.3 0-.2 0-.6-.3-.7-1.8-.8-2.2-2.4-2-4.2-.2.1-.4.3-.6.4.8 0 1.6.1 2.4.1-.2-.3-.4-.5-.6-.8-.2 1.4-.2 3 1.4 3.4 1.7.5 3.1-.9 2.7-2.6-.4-2.2-2.8-3.5-3.7-5.5-.9-2-.2-4.9 2.2-5.3.2 0 .5-.2.6-.4.1-.4.1-.8.2-1.3-.2.1-.5.3-.7.4l2.1.3c0-.1-.2-.4-.3-.6-.1.4-.1.8-.2 1.3 0 .2 0 .6.3.7 1.7.7 2.1 2.3 1.8 4 .2-.1.4-.3.6-.4-.8 0-1.6-.1-2.4-.1.2.3.4.5.6.8.2-1.3.2-3-1.4-3.3-1.8-.3-2.7 1.6-2.2 3.1.7 2.2 3.1 3.5 3.8 5.7.7 2.1-.4 4.4-2.7 4.7-.8.1-.8 1.3 0 1.2 3.2-.4 5-3.7 3.7-6.6-.8-1.8-2.4-3-3.4-4.7-.3-.5-.5-1-.4-1.5.1-.5.5-.8 1-.6.7.2.5 1.2.4 1.8-.1.4.2.7.6.8.8 0 1.6.1 2.4.1.2 0 .5-.2.6-.4.3-2.2-.1-4.4-2.4-5.4.1.2.2.5.3.7.1-.4.1-.8.2-1.3 0-.3-.1-.7-.4-.7-.8-.4-1.5-.5-2.1-.6-.3 0-.7.1-.7.4-.1.4-.1.8-.2 1.3.2-.1.4-.3.6-.4-3.4.4-4.7 4.2-3.3 7.1.4.8.9 1.5 1.5 2.2.7.8 1.6 1.6 2 2.7.3.9-.4 2-1.4 1.4-.6-.4-.4-1.3-.3-1.8.1-.4-.2-.7-.6-.8-.8 0-1.6-.1-2.4-.1-.2 0-.5.2-.6.4-.3 2.3.2 4.5 2.5 5.5-.1-.2-.2-.5-.3-.7-.1.4-.1.8-.2 1.3 0 .3.1.7.4.7l2.1.3c.3 0 .7-.1.7-.4.1-.4.1-.8.2-1.3.1-.8-1-1.1-1.1-.3zm-12.3.5c.8.3 1.6.6 2.4.8.1 0 .2.1.3.1.3.1.7-.1.7-.4.1-.3-.1-.6-.4-.7-.8-.3-1.5-.6-2.3-.9-.1 0-.2-.1-.3-.1-.4-.1-.7.1-.8.4-.1.4.1.6.4.8zM6 24.1c.6.2 1.2.4 1.8.5.1 0 .2.1.3.1.3.1.7-.1.7-.4.1-.3-.1-.6-.4-.7-.6-.2-1.2-.4-1.8-.5-.1 0-.2-.1-.3-.1-.3-.1-.7.1-.7.4-.1.3.1.6.4.7zM5 21c.6.2 1.2.4 1.8.5.1 0 .2.1.3.1.3.1.7-.1.7-.4.1-.3-.1-.6-.4-.7-.6-.2-1.2-.4-1.8-.5-.1 0-.2-.1-.3-.1-.3-.1-.7.1-.7.4-.1.3.1.6.4.7zm-.1-5c.6.2 1.2.4 1.8.5.1 0 .2.1.3.1.3.1.7-.1.7-.4.1-.3-.1-.6-.4-.7-.6-.2-1.2-.4-1.8-.5-.1 0-.2-.1-.3-.1-.3-.1-.7.1-.7.4 0 .2.1.6.4.7zm4-7.3c.6.2 1.1.3 1.7.5.1 0 .2 0 .3.1.3.1.7-.1.7-.4.1-.3-.1-.6-.4-.7-.6-.3-1.2-.4-1.7-.6-.1 0-.2 0-.3-.1-.3 0-.7.1-.7.5-.1.3.1.6.4.7z"/></svg>