<svg version="1.1" id="圖層_1" xmlns="http://www.w3.org/2000/svg" x="0" y="0" viewBox="0 0 28.5 27.5" xml:space="preserve"><style>.st2{fill:#282828}</style><path d="M23.6 8.2c2.5 4.6 1.4 10.2-2.3 13.5h-.1c-.3.2-.6.5-.9.7-.3.2-.7.5-1.1.7-5.3 2.9-12 1-14.9-4.3-2.7-5.2-1-11.5 3.8-14.6.1-.1.2-.1.3-.2.1 0 .2-.1.3-.2l.6-.3c5.2-2.4 11.5-.5 14.3 4.7z" fill="#f9cd53"/><path d="M16.3 23.2s-5.5-.7-8-4.5c-3.1-4.8-3-9.9.8-15 0 0-3.5 2-4.6 7.8-1 5.8 4.7 12 11.8 11.7z" opacity=".7" fill="#fff"/><path class="st2" d="M23.2 8.4c2.2 4.2 1.4 9.5-2.1 12.7-3.2 3-8.1 3.7-12 1.7-3.8-2-6-6.1-5.6-10.4.4-4.3 3.6-8 7.8-9.1 4.7-1.3 9.5.9 11.9 5.1.3.5 1.1.1.8-.5-2.3-4.1-6.9-6.5-11.6-5.8-4.5.7-8.4 4.1-9.5 8.6-1.1 4.6.7 9.5 4.6 12.2 3.9 2.7 9.2 2.7 13-.1 4.7-3.3 6.2-9.7 3.4-14.8-.2-.6-1-.1-.7.4z"/><path class="st2" d="M23.1 8.5c2 3.8 1.6 8.5-1.3 11.8-2.5 2.9-7.4 2.9-10.7 1.3-3.7-1.8-6-5.6-5.8-9.7.1-2.1.8-4.1 2-5.7.6-.8 1.3-1.5 2.2-2 .9-.4 1.8-.7 2.8-.9 4.3-.8 8.6 1.4 10.8 5.2.4.7 1.4.1 1-.6-2.1-3.8-6.3-6.2-10.7-6-2 .1-4.5.7-5.9 2.2-1.6 1.6-2.8 3.8-3.2 6.1-.8 4.6 1.2 9.3 5.1 11.8 1.8 1.2 3.9 1.8 6 1.9 2 0 4.5-.4 6.2-1.6 2-1.4 3.3-4.2 3.8-6.5.5-2.7.1-5.4-1.2-7.8-.5-.8-1.5-.2-1.1.5z"/><path class="st2" d="M8 3.6C6.1 5 4.9 7.3 4.4 9.5c-.6 2.2-.2 4.6.6 6.7 1.7 4.8 6.5 8 11.6 7.5 1.7-.2 3.4-.7 5-1.5-.2-.3-.5-.6-.7-.9-4.6 3.9-11.7 3.2-15.2-1.7s-2-11.7 3-14.9c.5-.5-.1-1.5-.7-1.1-4.2 2.7-6.4 7.9-5.2 12.8C4 21.3 8.5 24.8 13.5 25c3 .1 5.9-1 8.2-2.9.5-.5-.1-1.2-.7-.9-1.5.8-3.2 1.3-4.9 1.4-3.1.2-6.1-1.2-8.1-3.5-1.6-1.9-2.6-4.7-2.6-7.2-.2-2.6 1.1-5.7 3.2-7.3.6-.4 0-1.4-.6-1z"/><path d="M17.9 18.1l.3.9-1.5.5-.3-.9c-1.4.1-2.6-.7-3.1-2.1l-.1-.4 1.7-.8.2.4c.3.9.9 1.2 1.6 1 .7-.2 1-.8.8-1.5-.3-.8-1.3-1.3-2.5-1.7-1.4-.5-2.9-1.2-3.4-2.7-.5-1.5-.2-2.8 1-3.5L12 6.2l1.5-.5.3.9c1.4-.2 2.5.7 3 2.2l.2.3-1.7.8-.1-.3c-.3-.9-.8-1.3-1.5-1.1-.6.2-.9.7-.6 1.5.3.8 1.3 1.3 2.5 1.7 1.4.5 2.9 1.2 3.4 2.7.6 1.5.1 2.9-1.1 3.7z" fill="#b58f43" opacity=".8"/><path class="st2" d="M17.5 18.2l.3.9.3-.6c-.5.2-1 .4-1.5.5l.6.3-.3-.9c-.1-.2-.2-.3-.4-.3-1.5.1-2.4-.9-2.8-2.2-.1.2-.1.3-.2.5.6-.3 1.1-.5 1.7-.8-.2-.1-.4-.2-.7-.3.3 1 .9 2.1 2.2 1.8 1.4-.3 1.7-2 .7-3-1.1-1.1-2.9-1.2-4.2-2.2-1.4-1-2-3.4-.4-4.5.2-.1.3-.3.2-.5l-.3-.9-.3.6c.5-.2 1-.4 1.5-.5l-.6-.3.3.9c.1.2.2.3.4.3 1.4 0 2.1 1 2.6 2.2.1-.2.1-.3.2-.5-.6.3-1.1.5-1.7.8.2.1.4.2.7.3-.4-1-1-2.2-2.3-1.6-1.3.6-1 2.1-.1 2.9 1.2 1 2.9 1.2 4.2 2.1 1.5 1.1 1.8 3.4.1 4.5-.5.3 0 1.1.5.8 2.3-1.5 1.9-4.6-.2-6.1-1.1-.8-2.5-1-3.7-1.8-.4-.3-1.3-1.4-.3-1.6.6-.1.8.7 1 1.1.1.3.4.4.7.3.6-.3 1.1-.5 1.7-.8.2-.1.3-.3.2-.5-.6-1.6-1.7-3-3.5-2.8.1.1.3.2.4.3l-.3-.9c-.1-.2-.3-.4-.6-.3-.5.2-1 .4-1.5.5-.2.1-.4.3-.3.6l.3.9c.1-.2.1-.3.2-.5-2.3 1.6-1.5 4.8.6 6.2 1.2.8 2.8.9 3.8 1.9.6.5.5 1.7-.4 1.5-.6-.1-.7-.7-.9-1.2-.1-.3-.4-.4-.7-.3-.6.3-1.1.5-1.7.8-.2.1-.3.3-.2.5.6 1.7 1.8 3 3.7 2.9-.1-.1-.3-.2-.4-.3l.3.9c.1.2.3.4.6.3.5-.2 1-.4 1.5-.5.2-.1.4-.3.3-.6l-.3-.9c-.4-.7-1.2-.5-1 .1z"/></svg>