<svg version="1.1" id="圖層_1" xmlns="http://www.w3.org/2000/svg" x="0" y="0" viewBox="0 0 25 23.9" xml:space="preserve"><g opacity=".4"><path d="M7.1 3.4L5.7 4.7c-2.1 1.8-.8 6.6 2.8 10.5s8.1 5.7 10.2 3.9l1.3-1.2" fill="#f9cd53" stroke="#7c2e47" stroke-linecap="round" stroke-linejoin="round" stroke-miterlimit="10"/><ellipse transform="rotate(-41.875 13.444 10.698)" cx="13.4" cy="10.7" rx="3.5" ry="9.7" fill="#f9cd53"/><path d="M6.6 4.1s4.4-.6 9.8 6.9c5.1 7.1 1.6 6.9 1.6 6.9s1.6.4 2.1-.2.3-6.5-7.6-12.6c0 0-4.2-3.5-5.9-1z" opacity=".7" fill="#fff"/><ellipse transform="rotate(-41.875 13.444 10.698)" cx="13.4" cy="10.7" rx="3.5" ry="9.7" fill="none" stroke="#7c2e47" stroke-miterlimit="10"/><path d="M14.8 16.8c-.5.5-1.1 1-1.6 1.4-.1.1-.2.1-.2.2-.2.2-.2.6 0 .8.3.2.6.2.8 0 .5-.5 1.1-1 1.6-1.4.1-.1.2-.1.2-.2.2-.2.2-.6 0-.8-.2-.3-.5-.3-.8 0zM5.9 5.7c-.4.4-.9.8-1.3 1.2l-.2.2c-.2.2-.2.6 0 .9.3.2.6.2.9 0 .4-.4.9-.8 1.3-1.2l.2-.2c.2-.2.2-.7 0-.9-.3-.2-.6-.2-.9 0zm1 2.4c-.6.5-1.1 1-1.7 1.5l-.2.2c-.2.2-.2.6 0 .8.3.2.6.2.8 0 .6-.5 1.1-1 1.7-1.5.1 0 .2-.1.3-.2.2-.2.2-.6 0-.8-.3-.3-.6-.3-.9 0zM17 17.9c-.5.4-.9.8-1.4 1.2l-.2.2c-.2.2-.2.6 0 .8.3.2.6.2.8 0 .5-.4.9-.8 1.4-1.2l.2-.2c.2-.2.2-.6 0-.8-.2-.2-.6-.2-.8 0zm-5.3-3.5c-.6.5-1.1 1-1.7 1.5-.1.1-.2.1-.2.2-.2.2-.2.6 0 .8.3.2.6.2.8 0 .6-.5 1.1-1 1.7-1.5.1-.1.2-.1.2-.2.2-.2.2-.6 0-.8-.2-.2-.6-.2-.8 0z" fill="#7c2e47"/></g></svg>