<svg version="1.1" id="圖層_1" xmlns="http://www.w3.org/2000/svg" x="0" y="0" viewBox="0 0 27.2 31" xml:space="preserve"><path d="M7 1.8L4.6 3C1.1 4.7 1 11.5 4.3 18.2s8.8 10.8 12.2 9.1l2.2-1.1" fill="#f9cd53" stroke="#7c2e47" stroke-linecap="round" stroke-linejoin="round" stroke-miterlimit="10"/><ellipse transform="rotate(-26.276 12.833 14.049)" cx="12.8" cy="14.1" rx="4.9" ry="13.5" fill="#f9cd53"/><path d="M6.1 2.5s6.2.9 10.6 13c4.2 11.5-.5 9.9-.5 9.9s2 1.2 3 .5 2.9-8.7-5.4-19.8c-.1 0-4.5-6.2-7.7-3.6z" opacity=".7" fill="#fff"/><ellipse transform="rotate(-26.276 12.833 14.049)" cx="12.8" cy="14.1" rx="4.9" ry="13.5" fill="none" stroke="#7c2e47" stroke-miterlimit="10"/><path d="M12.5 22.9c-.9.4-1.8.9-2.7 1.3-.1.1-.3.1-.4.2-.3.2-.4.6-.2.9.2.3.5.4.8.2.9-.4 1.8-.9 2.7-1.3.1-.1.3-.1.4-.2.3-.1.4-.6.2-.8-.2-.3-.5-.4-.8-.3zM4.7 4.8c-.7.3-1.5.7-2.2 1.1-.2 0-.3.1-.4.1-.2.2-.3.6-.2.9.2.3.5.4.8.2.8-.4 1.5-.8 2.3-1.1.1-.1.2-.1.3-.2.3-.1.4-.6.2-.8-.2-.3-.5-.4-.8-.2zm.5 3.5c-1 .4-1.9.9-2.8 1.4-.2 0-.3.1-.4.2-.3.1-.4.6-.2.8.1.3.5.3.8.2.9-.5 1.9-.9 2.8-1.4.1-.1.3-.1.4-.2.3-.1.4-.5.2-.8-.2-.3-.5-.4-.8-.2zm9.8 17c-.8.4-1.5.8-2.3 1.1-.1.1-.2.1-.3.2-.3.1-.4.6-.2.8.2.3.5.4.8.2.8-.4 1.5-.8 2.3-1.1.1-.1.2-.1.3-.2.3-.1.4-.6.2-.8-.2-.3-.5-.4-.8-.2zm-5.8-6.7c-.9.5-1.9.9-2.8 1.4-.1.1-.3.1-.4.2-.3.1-.4.6-.2.8.2.3.5.4.8.2.9-.5 1.9-.9 2.8-1.4.1-.1.3-.1.4-.2.3-.1.4-.6.2-.8-.2-.3-.5-.4-.8-.2z" fill="#7c2e47"/></svg>