<svg version="1.1" id="圖層_1" xmlns="http://www.w3.org/2000/svg" x="0" y="0" viewBox="0 0 32.5 33.7" xml:space="preserve"><style>.st1{opacity:.8}.st2{fill:#b58f43}.st4{fill:#282828}</style><path d="M3.7 12.6c-1.8 6.2 1 12.6 6.4 15.5.3.2.6.3 1 .5.6.3 1.2.5 1.8.7 7.2 2.1 14.7-2.1 16.7-9.2 2-7-1.9-14.3-8.8-16.6-.1 0-.2-.1-.4-.1h-.2c-1.8-.5-3.6-.6-5.4-.4-5.1.6-9.6 4.3-11.1 9.6z" fill="#f9cd53"/><g class="st1"><path class="st2" d="M10.1 28.1c.9.5 1.8.9 2.8 1.2 7.2 2.1 14.7-2.1 16.7-9.2 2-7-1.9-14.3-8.8-16.6-.1 0-.2-.1-.4-.1 2.9 1.9 7.4 6 7.3 11.7 0 8.1-7 15.4-17.6 13z"/></g><path d="M14.9 2.9c15.2 3.6 10.5 20.2 10.5 20.2s3.9-4.8 1.9-11.9c-1.1-4-4.3-6.5-6.9-8-1.9-.4-3.8-.5-5.5-.3z" opacity=".7" fill="#fff"/><path class="st4" d="M3.1 12.4c-1.6 5.9.6 12.3 5.8 15.7 5 3.3 11.7 3 16.4-.7 4.6-3.6 6.6-9.9 4.8-15.5-1.8-5.5-6.8-9.4-12.6-9.8C10.9 1.8 5 6.2 3.1 12.4c-.2.7.9 1.1 1.2.3 1.5-5.1 6-8.9 11.4-9.3 5.2-.4 10.1 2.4 12.5 7 2.4 4.8 1.6 10.7-2 14.6s-9.4 5.2-14.3 3.2C5.7 25.8 2.5 19 4.3 12.7c.2-.7-1-1-1.2-.3z"/><path class="st4" d="M3.1 12.4c-1.5 5.5.3 11.5 4.9 15.1 4.3 3.3 10.9 2.2 14.9-1 4.4-3.4 6.5-9.3 5-14.7-.7-2.7-2.2-5.2-4.3-7-.9-.8-1.9-1.6-3.1-1.9-1.4-.4-2.8-.6-4.2-.6-6.1.1-11.4 4.3-13.2 10.1-.2.7.9 1.1 1.2.3C5.7 8 9.6 4.4 14.5 3.6c2.3-.4 5.1-.3 7 1 2.1 1.4 3.8 3.5 4.8 5.8 2 4.8.8 10.4-2.8 14-3.2 3.2-8.6 4.9-13 3.2-2.6-1-4.8-3.9-5.8-6.4-1.1-2.7-1.2-5.7-.5-8.5.3-.7-.9-1-1.1-.3z"/><path class="st4" d="M20.2 28.8c-.8-.3-1.6-.5-2.4-.8-.1 0-.2-.1-.3-.1-.3-.1-.7.1-.7.4-.1.3.1.6.4.7.8.3 1.6.5 2.4.8.1 0 .2.1.3.1.3.1.7-.1.7-.4.1-.3-.1-.6-.4-.7zm2.4-.9c-.7-.3-1.4-.5-2-.8-.1 0-.2-.1-.3-.1-.3-.1-.7.1-.7.4-.1.3.1.6.4.7.7.3 1.4.5 2 .8.1 0 .2.1.3.1.3.1.7-.1.7-.4.1-.3-.1-.6-.4-.7zm2.9-1.8c-.7-.3-1.4-.5-2-.8-.1 0-.2-.1-.3-.1-.3-.1-.7.1-.7.4-.1.3.1.6.4.7.7.3 1.4.5 2 .8.1 0 .2.1.3.1.3.1.7-.1.7-.4.1-.3 0-.6-.4-.7zm4.8-10.8c-.6-.2-1.2-.3-1.8-.5-.1 0-.2-.1-.3-.1-.3-.1-.7.1-.7.4-.1.3.1.6.4.7.6.2 1.2.3 1.8.5.1 0 .2.1.3.1.3.1.7-.1.7-.4 0-.3-.1-.6-.4-.7zm-.9-4.1c-.5-.2-1-.4-1.6-.5-.1 0-.1-.1-.2-.1-.3-.1-.7.1-.7.4-.1.3.1.6.4.7.5.2 1 .4 1.6.5.1 0 .1.1.2.1.3.1.7-.1.7-.4.1-.3-.1-.6-.4-.7zm-1.3-2.7c-.5-.2-1.1-.4-1.6-.7-.1 0-.2-.1-.2-.1-.1-.1-.3 0-.5.1-.1.1-.2.2-.3.4 0 .2 0 .3.1.5.1.1.2.2.4.3.5.2 1.1.4 1.6.7.1 0 .2.1.2.1.1.1.3 0 .5-.1.1-.1.2-.2.3-.4 0-.2 0-.3-.1-.5-.2-.1-.3-.2-.4-.3z"/><g class="st1"><path class="st2" d="M12.6 22.7l-.5 1-1.7-.9.5-1c-1.2-1.1-1.5-2.7-.7-4.3l.2-.5 2 .8-.3.5c-.5.9-.3 1.8.5 2.2.8.4 1.5.2 1.9-.6.5-.9 0-2.1-.5-3.5-.7-1.6-1.2-3.4-.4-5s2.2-2.3 3.7-2l.5-1 1.7.9-.5 1c1.2 1 1.4 2.6.5 4.2l-.2.3-2-.8.2-.4c.5-1 .4-1.7-.3-2.1-.7-.4-1.3-.1-1.7.7-.5.9 0 2.1.5 3.5.6 1.6 1.2 3.4.4 5-.6 1.7-2.2 2.4-3.8 2z"/></g><path class="st4" d="M12.2 22.4c-.2.3-.4.7-.5 1 .2-.1.5-.1.7-.2-.6-.3-1.1-.6-1.7-.9.1.2.1.5.2.7.2-.3.4-.7.5-1 .1-.2.1-.5-.1-.6-1.3-1.2-1.1-2.7-.4-4.1-.2.1-.4.2-.6.2.7.3 1.3.5 2 .8-.1-.3-.2-.5-.3-.8-.6 1.1-1 2.4.2 3.3 1.4.9 2.9 0 3.1-1.6.1-2-1.4-3.7-1.5-5.7-.1-1.9 1.4-4.1 3.5-3.6.2 0 .3 0 .4-.2.2-.3.4-.7.5-1-.2.1-.3.1-.5.2.6.3 1.1.6 1.7.9-.1-.2-.1-.5-.2-.7-.2.3-.4.8-.5 1.1-.1.2-.1.4.1.5 1.2 1.1 1 2.6.3 3.9.2-.1.4-.2.6-.2-.7-.3-1.3-.5-2-.8.1.3.2.5.3.8.5-1 1-2.4-.3-3.2-1.4-.8-2.7.5-2.7 1.9-.1 2 1.4 3.7 1.5 5.7.1 2.1-1.6 3.8-3.7 3.4-.7-.1-.9.9-.3 1 3 .7 5.4-1.9 5-4.9-.2-1.6-1.2-3-1.4-4.7-.1-.4-.1-.9.2-1.3.3-.4.7-.5 1.1-.2.4.4-.1 1.2-.3 1.6-.2.3 0 .6.3.8.7.3 1.3.5 2 .8.2.1.5-.1.6-.2.9-1.8 1.2-3.7-.5-5.2 0 .2.1.4.1.6.2-.3.4-.7.5-1 .1-.2.1-.6-.2-.7-.6-.3-1.1-.6-1.7-.9-.2-.1-.6-.1-.7.2-.2.3-.4.7-.5 1 .2-.1.4-.2.6-.2-3-.6-5.2 2.3-4.8 5.1.1.8.4 1.6.7 2.3.3.8.8 1.7.8 2.6 0 .4-.1.9-.5 1.2-.4.2-1 0-1.2-.4-.3-.5.1-1.1.4-1.6.2-.3 0-.6-.3-.8-.7-.3-1.3-.5-2-.8-.2-.1-.5.1-.6.2-1 1.9-1.1 3.8.5 5.4 0-.2-.1-.4-.1-.6-.2.3-.4.7-.5 1-.1.2-.1.6.2.7.6.3 1.1.6 1.7.9.2.1.6.1.7-.2.2-.3.4-.7.5-1 .3-.6-.6-1.1-.9-.5z"/></svg>