<svg version="1.1" id="圖層_1" xmlns="http://www.w3.org/2000/svg" x="0" y="0" viewBox="0 0 55.1 50.9" xml:space="preserve"><style>.st1{opacity:.8}.st2{fill:#b58f43}.st4{fill:#282828}</style><path d="M5.7 19.4c-3.1 10.7 1.8 21.8 11.1 27h.1c.6.3 1.1.6 1.7.9 1 .5 2.1.8 3.2 1.2 12.5 3.6 25.5-3.6 29.1-16 3.5-12.2-3.3-24.9-15.2-28.8-.2-.1-.4-.1-.6-.2-.1 0-.1 0-.2-.1-.1 0-.2 0-.2-.1-3.1-.9-6.3-1.1-9.4-.7-9.1 1.2-17 7.5-19.6 16.8z" fill="#f9cd53"/><g class="st1"><path class="st2" d="M16.8 46.4c1.6.9 3.2 1.6 4.9 2.1 12.5 3.6 25.5-3.6 29.1-16 3.5-12.2-3.3-24.9-15.2-28.8-.2-.1-.4-.1-.6-.2 5 3.3 12.9 10.4 12.7 20.4-.4 14-12.5 26.6-30.9 22.5z"/></g><path d="M25.1 2.6c26.4 6.2 18.2 35.1 18.2 35.1s6.7-8.3 3.2-20.6c-1.9-6.9-7.5-11.3-12-13.8-3.2-.9-6.3-1.1-9.4-.7z" opacity=".7" fill="#fff"/><path class="st4" d="M28.2 50.2c-4.8 0-9.4-1.4-13.3-4C6 40.4 1.9 29.5 4.8 19.1 7.8 8.8 17.5 1.6 28.2 1.6h1.3c10.1.5 18.9 7.3 22 17 3 9.5-.4 20.5-8.4 26.6-4.3 3.2-9.6 5-14.9 5zM6.5 19.6c-3 10.9 2.5 22.5 12.6 27 2.8 1.2 5.7 1.8 8.8 1.8 6.2 0 12.2-2.5 16.5-7 6.5-6.7 8.1-16.9 4-25.4C44.8 8.3 36.8 3.3 28.1 3.3c-.7 0-1.4 0-2.1.1-9 .9-16.8 7.4-19.5 16.2l-.3-.1.3.1z"/><path class="st4" d="M5.1 19.2C2.3 29.3 6.2 40.2 15 46c8.5 5.6 19.8 5.1 27.9-1 7.9-6.1 11.3-16.8 8.3-26.3S39.4 2.4 29.5 1.9C18.3 1.3 8.2 8.6 5.1 19.2c-.2.8.9 1.1 1.1.3C8.9 10.6 16.7 4 26 3.1c9.5-.9 18.7 4.3 22.8 12.9 4.1 8.5 2.5 18.9-4.1 25.7s-17 9-25.7 5.2C8.6 42.3 3.2 30.5 6.2 19.5c.2-.7-.9-1-1.1-.3z"/><path class="st4" d="M24.1 48.5c-1.4 0-2.8-.1-4.3-.4-1.5-.3-2.7-.6-3.6-1-.9-.4-1.9-1.1-3-1.9-7.7-6-11.2-16.4-8.5-26C7.8 9 17.1 1.8 27.5 1.5c2.6 0 4.8.3 6.8.8 2.6.6 4.6 2.3 6.3 3.8 3.5 3.1 6.1 7.4 7.3 12 2.3 9.3-1.2 19.4-8.8 25.3-3.6 2.7-7.8 4.4-12.1 4.9-1 .1-2 .2-2.9.2zM6.3 20c-1.3 4.8-1 9.8.9 14.4 1.9 4.7 5.6 8.9 9.7 11 2.1 1.1 5.1 1.3 6.7 1.3h.8c1.6 0 3.4-.2 5.3-.7 4.1-1 7.7-3.1 10.6-6 6.2-6.2 8.2-16 4.8-24.3-1.7-4.2-4.7-7.9-8.3-10.3-2.1-1.4-4.9-2.2-8.2-2.2-1.5 0-3 .1-4.5.4-8.4 1.7-15.1 7.8-17.6 16-.1.1-.1.3-.2.4z"/><path class="st4" d="M5.1 19.2c-2.6 9.4.6 19.7 8.4 25.7.9.7 1.9 1.4 2.9 1.9 1.1.5 2.4.8 3.5 1 2.3.4 4.6.5 7 .2 4.3-.5 8.5-2.2 12-4.8 7.5-5.8 11-15.8 8.7-25-1.2-4.6-3.7-8.8-7.2-11.9-1.8-1.6-3.8-3.1-6.2-3.7-2.2-.6-4.4-.8-6.7-.8C17.1 2.1 8 9.3 5.1 19.2c-.2.8.9 1.1 1.1.3C8.7 11.3 15.5 5 24 3.4c4.2-.8 9.3-.7 12.9 1.8 3.8 2.5 6.7 6.2 8.4 10.4 3.4 8.4 1.5 18.2-4.9 24.6-2.9 3-6.6 5.1-10.7 6.1-2 .5-4.1.8-6.2.7-2.2 0-4.9-.3-6.8-1.3-4.4-2.3-8-6.7-9.8-11.2-1.9-4.8-2.2-10-.8-15 .3-.7-.8-1-1-.3z"/><g class="st1"><path class="st2" d="M21.4 38.1l-1 1.9-3.1-1.6 1-1.9c-2.2-2-2.8-5-1.3-7.9l.4-.9 3.7 1.4-.4.9c-.9 1.7-.6 3.3.9 4 1.4.7 2.8.3 3.5-1.1.9-1.7.1-3.9-1-6.4-1.2-2.9-2.3-6.2-.7-9.3 1.5-3 4.1-4.3 6.9-3.6l1-1.9 3.1 1.6-1 1.9c2.2 1.9 2.6 4.8 1 7.8l-.4.7-3.7-1.4.4-.7c1-1.8.7-3.2-.5-3.8-1.3-.7-2.4-.2-3.2 1.3-.9 1.7 0 3.9 1 6.4 1.2 3 2.3 6.2.7 9.3-1.5 2.7-4.4 4-7.3 3.3z"/></g><path class="st4" d="M34.2 49.4h-.3c-.1-.1-.2-.1-.3-.1-.1 0-.2-.1-.4-.1-.7-.2-1.3-.5-2-.7-.7-.2-1.4-.5-2.1-.7-.2-.1-.4-.2-.5-.5-.1-.2-.1-.4 0-.6 0-.3.4-.6.8-.6h.3c.1.1.2.1.3.1.1 0 .2.1.4.1.7.2 1.3.5 2 .7.7.2 1.4.5 2.1.7.5.2.7.6.6 1.1 0 .1-.1.3-.3.5-.2.1-.4.1-.6.1z"/><path class="st4" d="M34.3 48c-1.4-.5-2.7-.9-4.1-1.4-.2-.1-.4-.1-.6-.2-.3-.1-.7.1-.7.4-.1.3.1.6.4.7 1.4.5 2.7.9 4.1 1.4.2.1.4.1.6.2.3.1.7-.1.7-.4.1-.3-.1-.6-.4-.7zm4-.3H38c-.1-.1-.2-.1-.3-.1-.1 0-.2-.1-.3-.1-.6-.3-1.3-.5-2-.8l-1.5-.6c-.2-.1-.4-.2-.5-.5-.1-.2-.1-.4 0-.6 0-.3.4-.6.8-.6h.3c.1.1.2.1.2.1.1 0 .2.1.3.1.6.3 1.3.5 2 .8l1.5.6c.2.2.8.5.6 1.1 0 .1-.1.3-.3.5-.1.1-.3.1-.5.1z"/><path class="st4" d="M38.4 46.3c-1.2-.5-2.4-.9-3.5-1.4-.2-.1-.3-.1-.5-.2-.3-.1-.7.1-.7.4-.1.3.1.6.4.7 1.2.5 2.4.9 3.5 1.4.2.1.3.1.5.2.3.1.7-.1.7-.4.1-.3-.1-.5-.4-.7zm5-1.7h-.3c-.1-.1-.2-.1-.2-.1-.1 0-.2-.1-.3-.1-.6-.3-1.3-.5-2-.8l-1.5-.6c-.5-.2-.7-.6-.6-1.1 0-.3.4-.6.8-.6h.3c.1.1.2.1.3.1.1 0 .2.1.3.1.6.3 1.3.5 2 .8l1.5.6c.5.2.7.6.6 1.1 0 .1-.1.3-.3.5-.2.1-.4.1-.6.1z"/><path class="st4" d="M43.5 43.2c-1.2-.5-2.4-.9-3.5-1.4-.2-.1-.3-.1-.5-.2-.3-.1-.7.1-.7.4-.1.3.1.6.4.7 1.2.5 2.4.9 3.5 1.4.2.1.3.1.5.2.3.1.7-.1.7-.4.1-.3-.1-.6-.4-.7zM51.6 26h-.3c-.1 0-.1 0-.2-.1h-.2c-.6-.2-1.1-.3-1.6-.5-.5-.1-1-.3-1.5-.4-.2-.1-.4-.3-.6-.5-.1-.2-.1-.4 0-.6 0-.3.4-.6.8-.6h.3c.1 0 .1 0 .2.1h.2c.6.2 1.1.3 1.6.5s1.1.3 1.6.5c.2.1.4.3.6.5.1.2.1.4 0 .6 0 .1-.1.3-.3.5h-.6z"/><path class="st4" d="M51.7 24.6c-1-.3-2.1-.6-3.1-.9-.2 0-.3-.1-.5-.1-.3-.1-.7.1-.7.4-.1.3.1.6.4.7 1 .3 2.1.6 3.1.9.2 0 .3.1.5.1.3.1.7-.1.7-.4.1-.3-.1-.6-.4-.7zm-1.6-5.9h-.3s-.1 0-.2-.1h-.1l-2.8-.9c-.2-.1-.4-.2-.5-.5-.1-.2-.1-.4 0-.6 0-.3.4-.6.8-.6h.3s.1 0 .2.1h.1l2.8.9c.3.1.5.3.5.4.1.2.1.4 0 .7 0 .1-.1.3-.3.4-.1.2-.3.2-.5.2z"/><path class="st4" d="M50.2 17.3l-2.7-.9c-.1 0-.3-.1-.4-.1-.3-.1-.7.1-.7.4-.1.3.1.6.4.7l2.7.9c.1 0 .3.1.4.1.3.1.7-.1.7-.4.1-.3 0-.6-.4-.7zm-2.4-3.1h-.4l-.1-.1c-.1 0-.2-.1-.3-.1-.8-.3-1.8-.7-2.8-1.1-.5-.1-.7-.6-.6-1.1 0-.3.4-.6.8-.6h.4l.1.1c.1 0 .2.1.3.1.8.3 1.8.7 2.8 1.1.2.1.4.2.5.5.1.2.1.4 0 .6 0 .1-.1.3-.3.5 0 .1-.2.1-.4.1z"/><path class="st4" d="M47.9 12.8c-.9-.4-1.9-.8-2.8-1.1-.1-.1-.3-.1-.4-.2-.3-.1-.7.1-.7.4-.1.3.1.6.4.7.9.4 1.9.8 2.8 1.1.1.1.3.1.4.2.3.1.7-.1.7-.4.1-.3-.1-.6-.4-.7zM20.4 41.1c-.1 0-.3 0-.4-.1-.7-.3-1.3-.7-2-1l-1.2-.6c-.2-.1-.4-.3-.4-.5 0-.3 0-.5.1-.6.2-.5.4-.9.6-1.2l.1-.1c-1.2-1.4-1.9-3-1.9-4.7 0-1.6.7-3.1 1.4-4.6.1-.3.5-.5.8-.5.1 0 .2 0 .3.1 1.3.4 2.5.9 3.7 1.4.3.1.5.3.6.5.1.2.1.4 0 .8h-.2c-.5.9-1 2-.5 2.8.3.5.8.8 1.3.8.8 0 1.8-.8 1.8-2 .1-1.5-.6-3-1.1-4.4-.6-1.6-1.2-3.1-1.6-4.7-.4-2.6.4-5.4 2-7.4 1.3-1.6 3.2-2.4 5.1-2.4h.8l.3-.6c.1-.2.3-.5.4-.7.1-.3.4-.4.7-.4.1 0 .3 0 .4.1.7.3 1.3.7 2 1l1.2.6c.4.1.5.6.4 1.2-.2.5-.4.9-.6 1.2l-.1.1c2.7 2.8 1.7 6.4.4 9-.1.3-.5.5-.8.5-.1 0-.2 0-.3-.1-1.3-.4-2.5-.9-3.7-1.4-.3-.1-.5-.3-.6-.5-.1-.2-.1-.4 0-.8l.2-.3c.5-.9 1-2 .4-2.7-.3-.3-.6-.5-.9-.5-.8 0-1.6 1.3-1.6 2.3 0 1.4.6 3 1.3 4.5.6 1.5 1.2 3 1.4 4.7.4 2.5-.3 5-1.9 6.8-1.4 1.6-3.4 2.5-5.5 2.5-.3 0-.6 0-1-.1-.1.3-.3.6-.4.8-.1.2-.3.5-.4.7.1.3-.2.5-.6.5zM18.5 38c.4.2.8.4 1.1.6l.4.2c.1-.1.2-.3.2-.4.1-.2.3-.5.4-.7.1-.3.3-.4.6-.5h.4c.4.1.9.1 1.3.1 3.1 0 5.6-2.7 5.6-6.1 0-1.9-.7-3.6-1.4-5.3-.6-1.6-1.3-3.2-1.4-5-.1-1.3.4-2.6 1.3-3.4.6-.6 1.3-1 2.1-1 .4 0 .9.1 1.3.3 1.7.8 2.1 2.4 1.1 4.8.7.2 1.4.5 2 .8 1.2-2.8.9-4.9-.9-6.6-.3-.3-.3-.8-.2-1.1.2-.4.4-.7.5-1.1-.4-.2-.8-.4-1.1-.6h-.2c-.1.1-.2.3-.2.4-.1.2-.3.5-.4.7-.1.3-.4.5-.7.5-.1 0-.2 0-.3-.1-.3-.1-.7-.1-1.1-.1-3.2 0-5.4 3.3-5.4 6.2 0 1.9.7 3.6 1.4 5.3.7 1.6 1.4 3.3 1.5 5.2 0 2.3-1.6 4.1-3.5 4.1-.6 0-1.1-.2-1.7-.5-1.8-1-2.2-2.7-1.2-5.1-.7-.2-1.4-.5-2-.8-1.3 2.8-.9 5.1 1 6.9.3.3.3.8.2 1.1-.3.5-.5.9-.7 1.2z"/><path class="st4" d="M20.9 37.8c-.3.6-.7 1.2-1 1.9.3-.1.5-.1.8-.2-1-.5-2-1.1-3.1-1.6.1.3.1.5.2.8.3-.6.7-1.2 1-1.9.1-.2.1-.5-.1-.7-2.5-2.3-2.2-5.2-.7-8-.2.1-.5.2-.7.3 1.2.5 2.4 1 3.7 1.4-.1-.3-.2-.6-.4-.9-1 1.9-1.8 4.4.6 5.7 2.5 1.4 4.8-.8 4.8-3.4-.1-3.7-2.9-6.7-2.9-10.5 0-3.7 3.1-7.3 6.9-6.4.3.1.6 0 .7-.3.3-.6.7-1.2 1-1.9-.3.1-.5.1-.8.2 1 .5 2 1.1 3.1 1.6-.1-.3-.1-.5-.2-.8-.3.6-.7 1.2-1 1.9-.1.2-.1.5.1.7 2.4 2.2 2 5 .6 7.7.2-.1.5-.2.7-.3-1.2-.5-2.4-1-3.7-1.4.1.3.2.6.4.9.9-1.8 1.8-4.3-.5-5.4-2.5-1.2-4.4 1.5-4.3 3.8.2 3.6 2.8 6.6 2.8 10.3 0 4-3.4 7.1-7.3 6.2-.8-.2-1.1 1-.3 1.2 5.4 1.2 9.5-3.6 8.7-8.8-.2-1.6-.8-3.1-1.4-4.6-.6-1.4-1.3-3.1-1.3-4.6s1.6-3.6 3-2c.9 1 0 2.4-.5 3.4-.2.4 0 .7.4.9 1.2.5 2.4 1 3.7 1.4.2.1.6-.1.7-.3 1.6-3.1 2.1-6.6-.8-9.1 0 .2.1.5.1.7.3-.6.7-1.2 1-1.9.1-.3.1-.7-.2-.8-1-.5-2-1.1-3.1-1.6-.3-.1-.7-.1-.8.2-.3.6-.7 1.2-1 1.9.2-.1.5-.2.7-.3-5.4-1.2-9.1 4.3-8.3 9.3.3 1.6.9 3.1 1.5 4.6.6 1.4 1.3 3 1.2 4.6-.1 2-2.5 3.2-3.7 1.3-.7-1.1.1-2.4.6-3.4.2-.4 0-.7-.4-.9-1.2-.5-2.4-1-3.7-1.4-.2-.1-.6.1-.7.3-.7 1.4-1.4 2.9-1.4 4.5 0 1.9.9 3.7 2.3 5 0-.2-.1-.5-.1-.7-.3.6-.7 1.2-1 1.9-.1.3-.1.7.2.8 1 .5 2 1.1 3.1 1.6.3.1.7.1.8-.2.3-.6.7-1.2 1-1.9.4-.9-.7-1.5-1-.8z"/></svg>