<svg version="1.1" id="圖層_1" xmlns="http://www.w3.org/2000/svg" x="0" y="0" viewBox="0 0 27.7 27" xml:space="preserve"><style>.st3{fill:#282828}</style><path d="M10.9 3c4.9-1.8 10.3.2 13 4.4v.1c.2.3.4.7.6 1 .2.4.3.8.5 1.2 2.1 5.7-.9 12.1-6.7 14.1-5.5 2-11.6-.7-13.9-6 0-.1-.1-.2-.1-.3-.1-.1-.1-.2-.1-.4-.1-.2-.1-.4-.2-.6C2.4 11 5.3 5 10.9 3z" fill="#f9cd53"/><path d="M18.8 8.3l.9-.6.9 1.4-.9.6c.5 1.4 0 2.8-1.3 3.7l-.4.3-1.2-1.5.4-.3c.8-.5 1-1.2.6-1.9s-1.1-.8-1.7-.4c-.8.5-.9 1.7-1.1 3-.2 1.5-.5 3.2-1.9 4.1-1.4.9-2.7.9-3.8-.1l-.9.6-.9-1.4.9-.6c-.5-1.3 0-2.6 1.4-3.5l.3-.2 1.2 1.5-.3.1c-.8.6-1.1 1.2-.7 1.7.4.6 1 .7 1.6.2.8-.5.9-1.7 1.1-3 .2-1.5.5-3.2 1.9-4.1 1.4-.7 2.9-.6 3.9.4z" fill="#b58f43" opacity=".8"/><path class="st3" d="M19.3 8.7l.9-.6c-.3-.1-.5-.1-.8-.2.3.5.6.9.9 1.4.1-.3.1-.5.2-.8l-.9.6c-.2.1-.4.4-.3.7.5 1.4-.3 2.5-1.4 3.2.2 0 .5.1.7.1l-1.2-1.5c0 .3-.1.6-.1.9 1-.7 2-1.7 1.2-3-.9-1.4-2.7-1-3.4.3-.7 1.4-.5 3.1-1 4.6-.6 1.6-2.7 2.9-4.2 1.6-.2-.2-.5-.2-.7-.1l-.9.6c.3.1.5.1.8.2-.3-.5-.6-.9-.9-1.4-.1.3-.1.5-.2.8l.9-.6c.2-.1.4-.4.3-.7-.5-1.4.3-2.3 1.4-3.1-.2 0-.5-.1-.7-.1l1.2 1.5c0-.3.1-.6.1-.9-1 .7-2.1 1.9-1 3s2.6.2 3.2-1c.6-1.4.4-3.1 1-4.5.7-1.7 2.8-2.5 4.2-1.2.6.5 1.4-.3.8-.8-2.3-2-5.4-.7-6.3 2-.4 1.3-.3 2.7-.8 4-.1.4-.8 1.4-1.3.7-.3-.5.4-.9.8-1.1.3-.2.4-.6.1-.9l-1.2-1.5c-.2-.2-.5-.2-.7-.1-1.5 1-2.6 2.5-2 4.4.1-.2.2-.5.3-.7-.3.3-.6.5-.9.6-.2.2-.4.6-.2.9.3.5.6.9.9 1.4.2.3.5.4.8.2l.9-.6c-.2 0-.5-.1-.7-.1 1.1.9 2.5 1.1 3.8.5 1.3-.6 2.1-1.7 2.5-3 .4-1.3.2-2.8.8-4 .3-.6 1.3-1 1.4 0 .1.5-.5.8-.9 1-.3.2-.4.6-.1.9l1.2 1.5c.2.2.5.2.7.1 1.6-1.1 2.6-2.6 2-4.6-.1.2-.2.5-.3.7l.9-.6c.3-.2.4-.5.2-.8-.3-.5-.6-.9-.9-1.4-.2-.3-.5-.4-.8-.2l-.9.6c-.6.5 0 1.5.6 1.1z"/><path d="M24.7 12.6s-1.6 5.4-5.8 7.2c-5.3 2.3-10.4 1.5-14.8-3.1 0 0 1.5 3.8 7.1 5.8 5.6 1.9 12.6-2.7 13.5-9.9z" opacity=".7" fill="#fff"/><path class="st3" d="M11 3.4c4.4-1.5 9.4-.1 12.2 3.7 2.6 3.6 2.7 8.6.1 12.2-2.5 3.6-7.1 5.3-11.3 4.2-4.2-1.1-7.4-4.7-7.9-9.1-.6-4.6 2.4-9.3 6.9-11 .5-.2.3-1.1-.2-.9-4.4 1.7-7.5 5.7-7.7 10.4-.2 4.7 2.6 9.2 7 11 4.3 1.9 9.5.8 12.8-2.6 3.3-3.4 4.1-8.6 2.1-12.9-2.5-5.3-8.7-7.8-14.2-5.9-.6.3-.3 1.1.2.9z"/><path class="st3" d="M11 3.6c4-1.4 8.5-.3 11.4 2.9 2.6 3 1.9 7.9-.2 10.9-2.3 3.4-6.5 5.1-10.5 4.4-2-.4-3.9-1.3-5.4-2.8-.7-.7-1.4-1.4-1.7-2.4-.3-1-.5-2-.5-3.1 0-4.3 2.8-8.4 6.9-9.9.7-.3.4-1.4-.3-1.2C6.6 4 3.6 7.6 3 12.1c-.2 2 0 4.6 1.2 6.3 1.4 1.9 3.2 3.3 5.4 4.1 4.4 1.7 9.5.4 12.7-3.1 1.5-1.6 2.5-3.7 2.9-5.8.3-2 .3-4.5-.7-6.4-1.1-2.2-3.6-3.9-5.8-4.7-2.6-1-5.4-.9-7.9-.1-.8.3-.5 1.4.2 1.2z"/><path class="st3" d="M3.9 17.9C5 20 7.2 21.6 9.4 22.4c2.2.9 4.6.8 6.9.3 5-1.1 8.8-5.5 8.9-10.6 0-1.6-.2-3.3-.7-4.8-.4.2-.7.3-1.1.5 3.1 5.1 1.4 12-4 14.8-5.4 2.9-12 .2-14.4-5.3-.3-.7-1.4-.1-1.1.6 2.1 4.7 7 7.7 12.1 7 4.9-.6 9.1-4.5 10-9.4.5-2.9 0-5.9-1.6-8.4-.3-.6-1.3-.2-1.1.5 1.5 4.5.3 9.6-3.7 12.4-4.5 3-12 2.4-14.7-2.8-.3-.6-1.3 0-1 .7z"/></svg>