<svg version="1.1" id="圖層_1" xmlns="http://www.w3.org/2000/svg" x="0" y="0" viewBox="0 0 31.2 27.9" xml:space="preserve"><g opacity=".4"><path d="M3.8 21.6l1.8 2.2c2.6 3.2 9.7 1.7 16-3.3s9.2-11.7 6.6-14.9l-1.7-2.1" fill="#f9cd53" stroke="#7c2e47" stroke-linecap="round" stroke-linejoin="round" stroke-miterlimit="10"/><ellipse transform="rotate(-38.822 15.183 12.65)" cx="15.2" cy="12.6" rx="14.5" ry="5.3" fill="#f9cd53"/><path d="M4.7 22.3s-.5-6.6 11.1-14.1c11-7.1 10.5-1.8 10.5-1.8s.8-2.4-.2-3.2c-.9-.8-9.7-1-19.4 10.3 0 0-5.5 6.2-2 8.8z" opacity=".7" fill="#fff"/><ellipse transform="rotate(-38.822 15.183 12.65)" cx="15.2" cy="12.6" rx="14.5" ry="5.3" fill="none" stroke="#7c2e47" stroke-miterlimit="10"/><path d="M24.6 10.9c.7.8 1.4 1.7 2 2.5.1.1.2.2.3.4.2.2.6.2.8 0 .2-.3.2-.6 0-.8-.7-.8-1.4-1.7-2-2.5-.1-.1-.2-.2-.3-.4-.2-.2-.6-.2-.8 0-.3.2-.2.6 0 .8zM7.4 23.3c.6.7 1.1 1.4 1.7 2.1.1.1.2.2.2.3.1.1.3.2.4.2.1 0 .3-.1.4-.2.1-.1.2-.3.2-.4 0-.2-.1-.3-.2-.4-.6-.7-1.1-1.4-1.7-2.1-.1-.1-.2-.2-.2-.3-.1-.1-.3-.2-.4-.2-.1 0-.3.1-.4.2-.1.1-.2.3-.2.4.1.1.1.2.2.4zM11 22c.7.9 1.4 1.7 2.1 2.6.1.1.2.2.3.4.2.2.6.2.8 0 .2-.3.2-.6 0-.8-.7-.9-1.4-1.7-2.1-2.6-.1-.1-.2-.2-.3-.4-.2-.2-.6-.2-.8 0-.2.2-.2.5 0 .8zM26.5 7.8c.6.7 1.1 1.4 1.7 2.1.1.1.2.2.2.3.2.2.6.2.8 0 .1-.1.2-.3.2-.4 0-.2-.1-.3-.2-.4-.6-.7-1.1-1.4-1.7-2.1-.1-.1-.2-.2-.2-.3-.2-.2-.6-.2-.8 0-.1.1-.2.3-.2.4 0 .2.1.3.2.4zm-5.7 7.6c.7.9 1.4 1.8 2.1 2.6.1.1.2.2.3.4.2.2.6.2.8 0 .2-.3.2-.6 0-.8-.7-.9-1.4-1.8-2.1-2.6-.1-.1-.2-.2-.3-.4-.2-.2-.6-.2-.8 0-.2.2-.2.6 0 .8z" fill="#7c2e47"/></g></svg>