<svg version="1.1" id="圖層_1" xmlns="http://www.w3.org/2000/svg" x="0" y="0" viewBox="0 0 25 23.9" xml:space="preserve"><style>.st3{opacity:.8;fill:#b58f43}.st5{fill:#7c2e47}</style><g opacity=".6"><path d="M12.5 1.8c.3.4.6.7.9 1.1 0 .1.1.1.1.2.1.1.3.2.4.2.1 0 .3-.1.4-.2.1-.1.2-.3.2-.4 0-.2-.1-.3-.2-.4-.3-.4-.6-.7-.9-1.1 0-.1-.1-.1-.1-.2-.1-.1-.3-.2-.4-.2-.1 0-.3.1-.4.2-.1.1-.2.3-.2.4.1.2.1.3.2.4z" fill="#282828"/><path d="M19 19.1c-3.6 3.1-8.8 3.2-12.5.5-.2-.2-.4-.3-.6-.5-.4-.3-.7-.7-1-1-3.6-4.2-3.2-10.6 1-14.2C10 .3 16.2.7 19.8 4.6l.2.2.1.1s0 .1.1.1c.8 1 1.5 2.2 1.8 3.5 1.2 3.7.1 7.9-3 10.6z" fill="#f9cd53"/><path class="st3" d="M6.5 19.6c-.6-.5-1.2-1-1.7-1.5-3.6-4.2-3.2-10.6 1-14.2C9.9.3 16.1.7 19.7 4.6l.2.2c-2.2-1.3-6.4-3.2-10.2-1.3-5.4 2.7-8.1 9.7-3.2 16.1z"/><path d="M22 8.5C14.9-.7 5.1 7.7 5.1 7.7s2-4.1 7.4-5c3-.5 5.7.9 7.6 2.2C21 6 21.7 7.2 22 8.5z" opacity=".7" fill="#fff"/><path class="st5" d="M18.7 18.8c-3.2 2.7-7.9 3.1-11.4.8-3.5-2.2-5.2-6.5-4.2-10.5 1-3.8 4.3-6.8 8.2-7.2 4-.4 7.8 1.6 9.7 5.1 2 4 1 8.8-2.3 11.8-.4.4.2 1 .6.6 3.2-2.8 4.5-7.5 3-11.5S16.9 1.1 12.6 1C8.2.9 4.2 3.6 2.6 7.7c-1.6 4-.4 8.8 2.9 11.7 4 3.4 9.8 3.4 13.8 0 .5-.4-.2-1-.6-.6z"/><path class="st5" d="M18.7 18.8c-3 2.6-7.4 3.1-10.9 1.2-3.2-1.7-4.1-6.2-3.3-9.5.9-3.7 4-6.5 7.7-7.2 1.9-.3 3.9-.1 5.6.7.8.4 1.6.8 2.2 1.6.6.8 1.1 1.6 1.4 2.5 1.4 3.7.3 8-2.7 10.7-.4.4.2 1 .6.6 3-2.7 4.3-6.8 3.2-10.7-.5-1.8-1.5-3.8-3.1-4.8-1.8-1.1-3.9-1.7-6-1.6C9.3 2.4 5.5 5.1 4 9c-.7 1.8-.8 3.8-.5 5.7.3 1.8 1.2 3.9 2.6 5.2 1.7 1.5 4.4 2.1 6.6 2.1 2.4-.1 4.7-1 6.6-2.6.5-.4-.2-1-.6-.6z"/><path class="st3" d="M10.9 17.7l-.6.8-1.3-.9.6-.8c-.9-1-.9-2.4-.1-3.6l.3-.4 1.6.9-.4.3c-.5.7-.5 1.4.1 1.8.6.4 1.2.3 1.6-.3.5-.7.3-1.8-.1-2.9-.4-1.4-.7-2.9.2-4.2.9-1.2 2.1-1.7 3.3-1.2l.6-.8 1.3.9-.6.8c.9 1 .9 2.3 0 3.6v.3l-1.6-.9.2-.3c.5-.8.5-1.4 0-1.7-.5-.4-1.1-.3-1.5.4-.5.7-.2 1.8.1 2.9.4 1.4.7 2.9-.2 4.2-.9 1.2-2.3 1.6-3.5 1.1z"/><path class="st5" d="M11.5 1.8l.8.8.1.1c.1.1.2.1.3.1.1 0 .2 0 .3-.1.1-.1.1-.2.1-.3 0-.1 0-.2-.1-.3l-.8-.8-.1-.1c-.1-.1-.2-.1-.3-.1-.1 0-.2 0-.3.1-.1.1-.1.2-.1.3 0 .1 0 .2.1.3zm2.1.1c.4.3.7.7 1.1 1 .1 0 .1.1.2.1.2.2.5.2.6 0 .2-.2.2-.5 0-.6-.4-.3-.7-.7-1.1-1-.1 0-.1-.1-.2-.1-.2-.2-.5-.2-.6 0-.2.1-.2.4 0 .6zm-3.1 15.6c-.2.3-.4.5-.6.8.2-.1.4-.1.6-.2-.4-.3-.9-.6-1.3-.9.1.2.1.4.2.6.2-.3.4-.5.6-.8.1-.2 0-.4-.1-.5-.9-1.2-.5-2.4.2-3.5-.2.1-.4.1-.6.2.5.3 1 .6 1.6.9-.1-.2-.1-.4-.2-.6-.7.9-1.1 2.2.1 2.9 1.2.7 2.4-.3 2.5-1.6.1-1.5-.8-3-.7-4.5.1-1.7 1.6-3.2 3.3-2.6.2.1.4-.1.5-.2.2-.3.4-.5.6-.8-.2.1-.4.1-.6.2.4.3.9.6 1.3.9-.1-.2-.1-.4-.2-.6-.2.3-.4.5-.6.8-.1.2-.1.4.1.5.9 1.1.4 2.3-.3 3.3.2-.1.4-.1.6-.2-.5-.3-1-.6-1.6-.9.1.2.1.4.2.6.6-.9 1.1-2.2-.2-2.8-1.3-.6-2.2.8-2.2 1.9 0 1.5.8 3 .7 4.5-.2 1.7-1.8 2.9-3.5 2.2-.5-.2-.8.7-.2.9 2.5.9 4.7-1.2 4.6-3.7 0-1.3-.6-2.6-.7-3.9 0-.5.5-1.8 1.1-1.1.4.4-.1 1-.4 1.4-.1.2 0 .5.2.6.5.3 1 .6 1.6.9.2.1.5 0 .6-.2 1-1.4 1.3-3 .1-4.4 0 .2 0 .4.1.5.2-.3.4-.5.6-.8.1-.2 0-.5-.2-.6-.4-.3-.9-.6-1.3-.9-.2-.1-.5 0-.6.2-.2.3-.4.5-.6.8.2-.1.3-.1.5-.2-2.5-.9-4.6 1.6-4.5 4 .1 1.3.7 2.6.7 3.9 0 .3-.1.7-.4.9-.3.2-.8 0-1-.3-.3-.5.2-1 .5-1.4.1-.2 0-.5-.2-.6-.5-.3-1-.6-1.6-.9-.2-.1-.5 0-.6.2-1 1.5-1.3 3.1-.1 4.5 0-.2 0-.4-.1-.5-.2.3-.4.5-.6.8-.1.2 0 .5.2.6.4.3.9.6 1.3.9.2.1.5 0 .6-.2.2-.3.4-.5.6-.8.5-.2-.3-.7-.6-.2zm-8.3-3.9l1.3 1.3.2.2c.2.2.5.2.6 0 .2-.2.2-.5 0-.6-.4-.5-.8-.9-1.3-1.4l-.2-.2c-.2-.2-.5-.2-.6 0-.2.2-.2.5 0 .7zm0-2.2l1 1 .1.1c.2.2.5.2.6 0 .2-.2.2-.5 0-.6l-1-1-.1-.1c-.2-.2-.5-.2-.6 0-.1.1-.1.4 0 .6zM2.6 9l1 1 .1.1c.2.2.5.2.6 0 .2-.2.2-.5 0-.6l-1-1-.1-.1c-.2-.2-.5-.2-.6 0-.1.1-.1.4 0 .6zm1.7-3.4l1 1 .1.1c.2.2.5.2.6 0 .2-.2.2-.5 0-.6l-1-1C5 5 5 5 4.9 5c-.1-.2-.4-.2-.6 0-.2.1-.2.4 0 .6zm5.1-3.5c.3.3.7.6 1 .9l.1.1c.1.1.2.1.3.1.1 0 .2 0 .3-.1.1-.1.1-.2.1-.3 0-.1 0-.2-.1-.3-.3-.3-.7-.6-1-.9l-.1-.1c-.1-.1-.2-.2-.3-.2-.1 0-.2 0-.3.1-.1.2-.2.3-.2.4 0 .1.1.2.2.3z"/></g></svg>