<svg version="1.1" id="圖層_1" xmlns="http://www.w3.org/2000/svg" x="0" y="0" viewBox="0 0 299.7 242" xml:space="preserve"><style>.st2{fill:#ffeadc}.st3{opacity:.8;fill:#e2bfaf;enable-background:new}.st4{fill:#282828}</style><path d="M228.3 197.3s16-4.8 19.8-1.3l6.2 8.7c2.9 6.6 7.5 11.4 12.1 16.9 1.5 1.7 2.9 4.4 1.4 6.1-.7.8-1.7 1-2.7 1.2-4.8.8-9.8-.7-13.4-3.9-3.7-3.3-5.6-8-7.9-12.4s-6.2-9.5-15.5-15.3z" fill="#ddb79e"/><path d="M256.2 207.3l-2.3-4.6-5.7-6.8c-3.8-3.5-19.8 1.3-19.8 1.3 9.2 5.8 13.3 10.9 15.6 15.3 2.2 4.1 4 8.5 7.2 11.7l2.1 1.8c-5-8.2 2.9-18.7 2.9-18.7z" opacity=".4" fill="#c49a82"/><path class="st2" d="M245.6 184.2c1.2.2 2.3.5 3.4.9 1.2.4 2.5.8 3.7 1.4 3 1.4 5.6 3.5 8.2 5.4 9.9 7.2 20.7 13.1 32.2 17.5.8.3 1.7.6 2.2 1.3.8 1 1.5 4.2.6 5.2s-2 1.5-3.3 1.9c-10.3 3.3-22.6-2.3-31.6-8.2-2.6-1.7-5.1-3.6-7.9-5.1-3.7-1.9-7.7-2.8-11.7-3.7-4.6-1.1-9.2-2.1-13.8-3.2-2.9-.3-5.9-.1-8.8.8-2.8.9-5.4 3.3-5.5 6.2v-.2c3.6 5.4 7.6 8.5 12.8 16.6 1.4 2.1 2.6 4.3 3 6.8s-.5 5.2-2.6 6.6c-2.2 1.4-5.1.9-7.3-.4s-3.9-3.3-5.7-5.1c-4.9-4.9-10.8-8.7-17.3-11-3.9-1.4-11.9-6.4-15.5-8.5-6.7-3.8-4.5-2.3-9.2-8.5C144.4 164.5 26.7 81.1 1.2 66.4L22.8 4.8C35 15.4 153.3 117.4 165.9 127.4c4.1 3.3 8.4 6.6 13.2 8.8 8.1 3.8 17.1 4.6 26 5.6 4.5.5 9.2 1.2 13.1 3.5 2.7 1.6 4.9 3.9 7.6 5.5 2.5 1.6 5.3 2.7 7.6 4.6 5.1 4.4 5.9 11.8 6.3 18.5h-.2c1.7 1.1 3.4 2.3 4.4 4.1 1.1 1.9 1 3.1 1.7 5.5"/><path class="st3" d="M223.4 157.4s0-1.7 2.4 0 11.9 9.6 14 9.4c0 0 4.2 12.4-3.9 4.5s-11.5-10.3-12.5-13.9zm-2.9 15.7s.7-1.4 3.2.3 20.2 11.9 20.9 4.5l1.7 6c0 .1-28.4-2.9-25.8-10.8zm16.7 25.5s-21.3-6.6-26.6-12-6.2 7.4 2.7 16.9l2.2 2.6c0 .1-5.5-15 21.7-7.5z"/><path class="st4" d="M215 204c.2-2.4 2.1-4.1 4.2-5 2.9-1.1 6.1-1.2 9.1-.9 1 .1 1-1.4 0-1.5-5.4-.5-14.4.4-14.8 7.4-.1.9 1.4.9 1.5 0zm10-43.7c3.1 4.6 7.2 8.4 11.5 11.7 1.8 1.4 3.9 2.6 5.6 4.2 1.1.9 2 2.1 2.5 3.5.4 1.3.6 2.6 1 3.9.3.9 1.7.5 1.4-.4-.7-2.5-.9-5-2.8-7-1.7-1.8-3.9-3.1-5.9-4.6-4.5-3.4-8.9-7.4-12.1-12.1-.5-.8-1.8 0-1.2.8z"/><path class="st4" d="M228.3 198.1c1.9.7 3.4 1.9 4.9 3.2 1.9 1.7 3.7 3.5 5.4 5.4 1.5 1.7 2.9 3.4 4.1 5.3 1.5 2.4 2.6 5 4 7.5 3 5.2 7.5 9.3 13.7 10.1 2.3.3 5.7.5 7.7-1.1 2.1-1.7 1.1-4.6-.2-6.5-2-2.9-4.6-5.5-6.8-8.3-2.3-3-4.4-5.9-5.9-9.4-.4-.9-1.7-.1-1.3.8 2.4 5.5 6.2 9.9 10.1 14.4 1.3 1.5 5.9 5.8 3.1 7.9-1.1.8-2.8.8-4.1.8-1.5 0-3-.2-4.4-.6-6-1.7-9.3-6.6-12-11.9-1-2-1.9-4-3.2-5.8-1.2-1.7-2.5-3.3-3.9-4.9-1.8-1.9-3.6-3.8-5.7-5.5-1.5-1.3-3-2.2-4.9-2.8-1.1-.1-1.7 1-.8 1.3l.2.1z"/><path class="st4" d="M223.2 196.8c6.1 1.4 12.2 2.8 18.2 4.2 2.8.7 5.7 1.3 8.4 2.2 2.8 1 5.3 2.4 7.8 4 8.5 5.7 17.8 11.6 28.3 11.8 2.4.1 4.8-.2 7.1-.9 1.8-.5 3.9-1.4 4.6-3.3 1.9-5.2-4.4-6.8-7.9-8.3-10.6-4.4-20.4-10.3-29.7-17.1-2.6-1.9-5.2-3.7-8.2-4.8-2.9-1.1-6-1.7-9.1-2.3-6.7-1.2-13.2-2.8-19.5-5.5-.9-.4-1.6.9-.8 1.3 5.1 2.2 10.4 3.9 15.8 5 5.4 1 10.9 1.6 15.8 4.2 4.7 2.6 8.8 6.2 13.3 9.1 4.5 2.9 9.2 5.6 14 8 2.3 1.2 4.7 2.2 7.1 3.3 1.1.5 2.2.9 3.3 1.3 1.4.5 2.9 1 3.9 2.2.7.8.8 1.8.6 2.8-.3 1.2-1.3 1.8-2.3 2.3-2.2.9-4.7 1.3-7.1 1.3-10.1.1-19.4-5.4-27.5-10.9-2.4-1.7-4.9-3.2-7.6-4.3-2.8-1.1-5.8-1.9-8.7-2.6-6.5-1.5-13.1-3-19.6-4.5-.7-.1-1.1 1.3-.2 1.5z"/><path class="st4" d="M253.1 192l-.6 1.8c-.1.2 0 .4.1.6.1.2.3.3.4.3.4.1.8-.1.9-.5l.6-1.8c.1-.2 0-.4-.1-.6-.1-.2-.3-.3-.4-.3-.4-.1-.7.1-.9.5zm2.4.9c-.5.8-.9 1.7-1.4 2.5-.2.3-.1.8.3 1 .3.2.8.1 1-.3.5-.8.9-1.7 1.4-2.5.2-.3.1-.8-.3-1-.3-.2-.8-.1-1 .3zm-39.7 36.5c1.3-2.3 2.9-4.5 5-6.2 0 0 .2-.2.3-.2l.2.2c.2.2.5.4.7.7.4.4.7.9 1 1.5.6 1.1.8 2.3.8 3.6 0 1 1.5 1 1.5 0 .1-1.6-.3-3.1-1-4.5-.4-.7-.8-1.3-1.3-1.8-.5-.6-1.2-1.3-2.1-1.1-.8.1-1.4.9-1.9 1.4-.6.5-1.1 1.1-1.6 1.7-1.1 1.2-2 2.6-2.8 4-.6.8.7 1.5 1.2.7z"/><path class="st2" d="M214.1 204.3v-.3.3z"/><path class="st3" d="M173.5 201.6c-.2-6.8-22.1-27.6-20.4-33 1.3-4.3 7.8-27.6 15.7-27.7 9.4-.1 10.9-4.8 10.9-4.8l-15.6-1-21.9 25.6L95.3 111 13.9 32.1l-12 34.1c25.6 14.7 143.2 98.2 170.4 134.4.3.5.7.9.9 1.3.2-.1.4-.2.3-.3z"/><path class="st4" d="M1.5 66.8c5.1 3 10.1 6.2 15 9.5 7.6 5 15 10.1 22.5 15.3 9.1 6.4 18.2 12.9 27.2 19.5 9.8 7.2 19.5 14.4 29.1 21.8 9.6 7.4 19.1 14.9 28.5 22.6 8.4 6.9 16.8 14 24.8 21.4 6.5 5.9 12.8 12 18.6 18.6 2.6 3 5 6.2 7.3 9.4 1 1.4 2.2 2.3 3.7 3.2 2.5 1.5 5.1 3 7.6 4.5 2.9 1.7 5.7 3.4 8.7 4.8 3.3 1.6 6.8 2.7 10 4.6 3.7 2.2 7 4.8 9.9 7.9 2.6 2.7 5.5 5.7 9.5 5.8 3.5.1 6.1-2.5 6.5-5.8.6-4-1.8-7.7-3.9-10.8-3.6-5.3-8.3-9.8-11.8-15.1-2-3-3.5-6.2-4.8-9.5-.3-.9-1.8-.5-1.4.4 1.3 3.3 2.8 6.5 4.7 9.5 1.5 2.3 3.4 4.5 5.2 6.6 2.2 2.6 4.4 5.2 6.3 8 2.3 3.3 5.3 7.4 4.1 11.6-1.4 5-6.9 4.1-10.1 1.5-1.5-1.3-2.8-2.8-4.3-4.2-1.4-1.4-3-2.8-4.6-4-3.2-2.4-6.6-4.4-10.3-6-2.9-1.2-5.8-2.4-8.6-4s-5.5-3.2-8.2-4.8c-1.9-1.1-4.3-2.1-5.9-3.6-1.6-1.4-2.7-3.5-3.9-5.2-1-1.3-2-2.6-3-3.8-5.3-6.3-11.2-12.1-17.3-17.7-7.7-7.2-15.7-14.1-23.8-20.8-9-7.5-18.2-14.8-27.5-22-9.5-7.4-19.1-14.6-28.7-21.7-9-6.7-18.2-13.3-27.3-19.8-7.8-5.8-15.6-11.2-23.5-16.5-5.5-3.7-11.1-7.4-16.8-10.8-.9-.6-1.8-1.1-2.8-1.6-.8-.6-1.6.7-.7 1.2zm239.6 107c-.4-6.5-1.1-14.1-6.2-18.8-3-2.7-6.9-4-10-6.4-3.2-2.4-6.1-4.8-10-6s-7.9-1.6-11.9-2c-4.3-.5-8.6-1-12.8-1.9-4.1-.9-8.2-2.2-11.9-4.3-3.9-2.1-7.4-4.8-10.8-7.5-3.1-2.4-6-5-9-7.5-5.3-4.5-10.7-9-16-13.6l-20.7-17.7c-7.8-6.7-15.5-13.3-23.3-20-7.9-6.7-15.7-13.5-23.6-20.3-7.2-6.2-14.3-12.3-21.5-18.5-5.8-5-11.5-9.9-17.3-14.9-3.6-3.1-7.1-6.1-10.7-9.2-.4-.4-.9-.8-1.3-1.2-.7-.6-1.8.4-1.1 1.1l8.7 7.5c5.2 4.5 10.5 9 15.7 13.6C54.2 32.1 61.1 38 68 43.9l23.1 19.8 23.4 20.1c7.2 6.2 14.4 12.3 21.6 18.5 5.8 4.9 11.6 9.9 17.4 14.8 3.7 3.1 7.3 6.2 11.1 9.3 3.3 2.7 6.7 5.5 10.4 7.8 7.1 4.5 15.1 6.3 23.4 7.3 4.2.6 8.5.9 12.7 1.7s7.7 2.5 11.1 5.1c1.6 1.2 3.1 2.5 4.8 3.5s3.5 1.8 5.2 2.9c3.2 2.1 5.1 5.2 6.1 8.8 1 3.3 1.2 6.8 1.5 10.3-.2 1 1.3 1 1.3 0zm44.5 33.8c-.4.8-.8 1.6-1.2 2.3-.3.6-.9 1.4-.6 2.1.2.7.9 1 1.5 1.3s1.3.6 2 .8c2.7.8 5.7.5 8.3-.7.9-.4.1-1.7-.8-1.3-2 1-4.3 1.3-6.5.8-.5-.1-1-.3-1.5-.5s-1.1-.4-1.5-.8c-.1-.1 0 0 0-.1s.2-.3.2-.4c.2-.3.3-.6.5-.9.3-.6.6-1.2 1-1.9.4-.8-.9-1.5-1.4-.7zm-3 .5c-.5 1-.8 2-1 3.1 0 .2.1.4.2.5s.3.2.5.2.4-.1.5-.2c.1-.2.2-.3.2-.5 0 .2 0 0 0 0v-.1c0-.1 0-.2.1-.3.1-.2.1-.5.2-.7 0-.1.1-.2.1-.3s0-.1.1-.2c0 0 .1-.2 0-.1s0-.1 0-.1c0-.1 0-.1.1-.2s.1-.2.2-.3c.2-.3.1-.8-.3-1-.3-.3-.7-.2-.9.2z"/><path d="M169.1 135.2s-11 0-24.9 36l-14.9-8.8s4.4-21.1 27.1-39.2l12.7 12z" fill="#595959"/><path class="st4" d="M169.1 134.4c-1.8 0-3.6 1.3-5 2.3-5.2 3.9-8.9 9.7-11.9 15.2-3.4 6.1-6.2 12.6-8.7 19.1.4-.1.7-.3 1.1-.4-5-2.9-10-5.9-14.9-8.8.1.3.2.6.3.8.6-2.8 1.7-5.5 2.8-8.1 2.9-6.8 7-13.1 11.7-18.7 3.7-4.4 7.9-8.4 12.4-12h-1.1c4.3 4 8.6 7.9 12.8 11.9.7.7 1.8-.4 1.1-1.1-4.3-4-8.6-7.9-12.8-11.9-.3-.3-.7-.3-1.1 0-11.8 9.4-21.8 22.1-26.4 36.6-.3.9-.6 1.9-.8 2.9-.1.3 0 .7.3.8 5 2.9 10 5.9 14.9 8.8.5.3.9 0 1.1-.4 3.7-9.6 8-19.5 14.3-27.6 2.2-2.9 5.3-6.2 8.6-7.5.4-.1.7-.3 1.1-.3.3-.1-.1 0 .2 0 1-.1 1-1.6 0-1.6z"/><path d="M143.9 171.8c.4-.7.3-1.5-.2-1.8l-.2-.1c-4.8-2-9.2-5-12.8-8.7l-.1-.1c-.6-.4-1.5 0-2 .8-.4.7-.3 1.6.2 2 3.7 3.7 8.1 6.6 12.9 8.5l.4.2c.5.3 1.4 0 1.8-.8z" fill="#b5b5b5"/><path class="st4" d="M144.6 172.2c.3-.6.5-1.3.2-2s-.8-.9-1.4-1.1c-1.5-.7-3-1.4-4.4-2.2s-2.8-1.8-4.1-2.8-2.5-2.2-3.7-3.3c-1-.8-2.3-.4-3 .6-.4.5-.6 1.2-.6 1.8.1.7.5 1.2 1 1.6 2.4 2.3 5 4.3 7.9 6 1.6.9 3.3 1.8 5.1 2.5.5.2.9.4 1.4.3.6-.3 1.2-.8 1.6-1.4.5-.8-.8-1.6-1.3-.8-.3.5-.5.6-1 .4-.4-.1-.8-.3-1.2-.5-1.2-.5-2.3-1.1-3.4-1.7-2.3-1.3-4.4-2.7-6.3-4.4-.5-.4-1-.9-1.5-1.3-.3-.3-.9-.7-.9-1.2 0-.4.4-1.1.9-1.1.4 0 .9.7 1.2 1 1.8 1.7 3.8 3.3 6 4.7 1.2.8 2.4 1.5 3.7 2.1.6.3 1.2.6 1.9.9.2.1.6.2.8.3s-.1 0-.1 0c.1.3.1.5-.1.8-.4.9.9 1.7 1.3.8zm2.5-36.5c-5.4 6.5-10.7 13.8-12.9 22.1-.3.9 1.2 1.3 1.4.4 2.2-8 7.3-15.1 12.5-21.4.7-.7-.4-1.8-1-1.1zm7.1-7.7c-1.7 1.6-3.3 3.4-4.9 5.2-.3.3-.3.8 0 1.1s.8.3 1.1 0c1.6-1.8 3.2-3.5 4.9-5.2.3-.3.3-.8 0-1.1s-.8-.3-1.1 0zm-9.1 27.5c-1.3 2.5-2.4 5-3.5 7.5-.2.4.2.8.5.9.4.1.8-.1.9-.5 1-2.4 2.1-4.8 3.3-7.2.6-.8-.7-1.6-1.2-.7zm13-18c-4.6 4.4-8.3 9.6-11.5 15.1-.5.8.8 1.6 1.3.8 3.1-5.4 6.7-10.5 11.2-14.8.8-.7-.3-1.8-1-1.1z"/><path d="M162.6 135.2c-8.6-3.7-13.8-11.2-11.7-16.8 2.1-5.6 10.8-7.2 19.4-3.6 8.6 3.7 13.8 11.2 11.7 16.8-2.1 5.6-10.8 7.2-19.4 3.6z" fill="#939393"/><path class="st4" d="M163 134.5c-4.9-2.1-10.1-6-11.5-11.4-.6-2.2-.3-4.6 1.3-6.4 1.6-1.9 4.2-2.8 6.7-3.1 6.2-.7 12.9 2 17.4 6.1 3.3 3 6.6 8.3 3.9 12.7-1.5 2.4-4.5 3.5-7.2 3.8-3.7.4-7.3-.4-10.7-1.8-.9-.4-1.3 1.1-.4 1.4 5.5 2.3 13.7 3.5 18.5-1.2 4.1-4.1 2.2-10.1-1-14-4.4-5.3-11.7-8.7-18.6-8.7-5.4 0-11.4 2.7-11.5 8.9-.1 7 6.7 12.4 12.5 14.9.7.5 1.5-.8.6-1.2z"/><path d="M157.2 133.9c-1-.6-1.5-1.6-1.1-2.3s1.5-.7 2.4-.1c1 .6 1.5 1.6 1.1 2.3-.3.7-1.4.7-2.4.1z" fill="#828282"/><path class="st4" d="M157.5 133.5c-.2-.1-.3-.2-.4-.3-.1-.1-.2-.3-.3-.3-.1-.1-.2-.2-.2-.4v-.6s0-.1 0 0v-.1s.1-.1 0 0l.1-.1c.1-.1 0 0 0 0s.1 0 .1-.1h.6c.3 0 .7.1 1 .3s.6.4.8.7c.2.2.3.4.3.7 0 .1 0 0 0 0v.2c0 .1 0-.1 0 0v.2c0-.1-.1.2 0 .1l-.1.1c-.1.1 0 0 0 0h-.2c-.1 0-.2 0-.2.1h-.2c-.6-.1-1-.3-1.3-.5-.5-.3-.9.5-.5.8.8.5 1.9.8 2.7.2.7-.5.7-1.5.3-2.2-.5-.8-1.4-1.4-2.4-1.6-.8-.1-1.8.3-1.9 1.2-.2 1 .6 1.9 1.4 2.4.4.3.9-.5.4-.8z"/><path d="M156.6 135.1c-1-.6-1.5-1.6-1.1-2.3s1.5-.7 2.4-.1c1 .6 1.5 1.6 1.1 2.3s-1.4.7-2.4.1z" fill="#cccbca"/><path class="st4" d="M156.8 134.7c-.2-.1-.3-.2-.4-.3-.1-.1-.2-.3-.3-.3-.1-.1-.2-.2-.2-.4v-.6s0-.1 0 0v-.1s.1-.1 0 0l.1-.1c.1-.1 0 0 0 0s.1 0 .1-.1h.6c.3 0 .7.1 1 .3s.6.4.8.7c.2.2.3.4.3.7 0 .1 0 0 0 0v.2c0 .1 0-.1 0 0v.2c0-.1-.1.2 0 .1l-.1.1c-.1.1 0 0 0 0h-.2c-.1 0-.2 0-.2.1h-.2c-.6-.1-1-.3-1.3-.5-.5-.3-.9.5-.5.8.8.5 1.9.8 2.7.2.7-.5.7-1.5.3-2.2-.5-.8-1.4-1.4-2.4-1.6-.8-.1-1.8.3-1.9 1.2-.2 1 .6 1.9 1.4 2.4.4.3.9-.5.4-.8z"/><path d="M163.6 131.9c-8.6-3.7-13.8-11.2-11.7-16.8 2.1-5.6 10.8-7.2 19.4-3.6 8.6 3.7 13.8 11.2 11.7 16.8-2.1 5.7-10.8 7.3-19.4 3.6z" fill="#dbdad1"/><path class="st4" d="M164 131.3c-4.9-2.1-10.1-6-11.5-11.4-.6-2.2-.3-4.6 1.3-6.4 1.6-1.9 4.2-2.8 6.7-3.1 6.2-.7 12.9 2 17.4 6.1 3.3 3 6.6 8.3 3.9 12.7-1.5 2.4-4.5 3.5-7.2 3.8-3.7.4-7.3-.4-10.7-1.8-.9-.4-1.3 1.1-.4 1.4 5.5 2.3 13.7 3.5 18.5-1.2 4.1-4.1 2.2-10.1-1-14-4.4-5.3-11.7-8.7-18.6-8.7-5.4 0-11.4 2.7-11.5 8.9-.1 7 6.7 12.4 12.5 14.9.7.4 1.5-.8.6-1.2z"/><ellipse transform="rotate(-63.583 167.961 121.79)" cx="168" cy="121.8" rx="8.8" ry="14.6" fill="#fff"/><path class="st4" d="M179.2 126.7c-.6-.3-1.2-.5-1.7-.8-.1 0-.2-.1-.2-.1-.2-.1-.5-.1-.6.2-.1.2-.1.5.2.6.6.3 1.2.5 1.7.8.1 0 .2.1.2.1.2.1.5.1.6-.2 0-.2 0-.5-.2-.6zm-.3-4.2c-.6-.1-1.1-.1-1.7-.2h-.2c-.2 0-.5.2-.4.5 0 .3.2.4.4.4.6.1 1.1.1 1.7.2h.2c.2 0 .5-.2.4-.4 0-.3-.2-.5-.4-.5zm-3.2-4.5c-.4.2-.8.3-1.2.5-.1 0-.1 0-.2.1-.1 0-.2.1-.3.2s-.1.2 0 .3c0 .1.1.2.2.3.1.1.2.1.3 0 .4-.2.8-.3 1.2-.5.1 0 .1 0 .2-.1.1 0 .2-.1.3-.2s.1-.2 0-.3c0-.1-.1-.2-.2-.3h-.3zm-5.6-3.2c-.1.4-.3.7-.4 1.1 0 0 0 .1-.1.1v.3c.1.1.2.2.3.2h.3s.1 0 .1-.1c.1-.1.1-.1.1-.2.1-.4.3-.7.4-1.1 0 0 0-.1.1-.1v-.3c-.1-.1-.2-.2-.3-.2h-.3s-.1 0-.1.1c0 0-.1.1-.1.2zm-6-1.5c.2.4.3.9.5 1.3 0 .1 0 .1.1.2 0 .1.1.2.2.3.1.1.2.1.3 0 .2-.1.4-.3.3-.6-.2-.4-.3-.9-.5-1.3 0-.1 0-.1-.1-.2 0-.1-.1-.2-.2-.3-.1-.1-.2-.1-.3 0-.2.1-.4.4-.3.6zm-5.1.8c.4.4.8.8 1.3 1.2l.2.2c.2.2.5.2.6 0 .2-.2.2-.5 0-.6-.4-.4-.8-.8-1.3-1.2l-.2-.2c-.2-.2-.5-.2-.6 0-.1.1-.2.4 0 .6zm-2.8 2.8c.6.3 1.2.5 1.7.8.1 0 .2.1.2.1.2.1.5.1.6-.2.1-.2.1-.5-.2-.6-.6-.3-1.2-.5-1.7-.8-.1 0-.2-.1-.2-.1-.2-.1-.5-.1-.6.2-.1.1-.1.5.2.6zm.2 4.2c.6.1 1.1.1 1.7.2h.2c.2 0 .5-.2.4-.5 0-.3-.2-.4-.4-.4-.6-.1-1.1-.1-1.7-.2h-.2c-.2 0-.5.2-.4.5 0 .2.2.3.4.4zm3.2 4.4c.4-.2.8-.3 1.2-.5.1 0 .1 0 .2-.1.1 0 .2-.1.3-.2s.1-.2 0-.3c0-.1-.1-.2-.2-.3-.1-.1-.2-.1-.3 0-.4.2-.8.3-1.2.5-.1 0-.1 0-.2.1-.1 0-.2.1-.3.2s-.1.2 0 .3c0 .1.1.2.2.3h.3zm5.6 3.3c.1-.4.3-.7.4-1.1 0 0 0-.1.1-.1v-.3c-.1-.1-.2-.2-.3-.2h-.3s-.1 0-.1.1c-.1.1-.1.1-.1.2-.1.4-.3.7-.4 1.1 0 0 0 .1-.1.1v.3c.1.1.2.2.3.2h.3s.1 0 .1-.1.1-.2.1-.2zm6 1.4c-.2-.4-.3-.9-.5-1.3 0-.1 0-.1-.1-.2 0-.1-.1-.2-.2-.3-.1-.1-.2-.1-.3 0-.2.1-.4.3-.3.6.2.4.3.9.5 1.3 0 .1 0 .1.1.2 0 .1.1.2.2.3.1.1.2.1.3 0 .2-.1.4-.3.3-.6zm5.1-.7c-.4-.4-.8-.8-1.3-1.2l-.2-.2c-.2-.2-.5-.2-.6 0-.2.2-.2.5 0 .6.4.4.8.8 1.3 1.2l.2.2c.2.2.5.2.6 0 .2-.2.2-.5 0-.6zm-7.6-11.4c-.8 1-1.7 1.9-2.5 2.9-.1.1-.2.4-.1.5 1.4 2 2.7 4.1 4.1 6.1.3.5 1.1 0 .8-.5-1.4-2-2.7-4.1-4.1-6.1 0 .2 0 .4-.1.5.8-1 1.7-1.9 2.5-2.9.5-.3-.2-.9-.6-.5z"/></svg>