<svg version="1.1" id="圖層_1" xmlns="http://www.w3.org/2000/svg" x="0" y="0" viewBox="0 0 25.9 23.5" xml:space="preserve"><path fill="#ff3670" d="M21.7 2.7L9.3 19.4l-.2-4.9-6.1 6 7.9-11.4.3 3.8L21.7 2.7"/><path d="M21.1 2.3c-3.6 4.9-7.2 9.7-10.8 14.6-.5.7-1 1.4-1.6 2.1.5.1.9.3 1.4.4-.1-1.6-.1-3.2-.2-4.9 0-.6-.8-1-1.3-.5-2.1 2-4.1 4-6.2 6l1.2.9c2.7-3.8 5.3-7.6 8-11.4-.5-.1-.9-.3-1.4-.4.1 1.3.2 2.5.3 3.8 0 .6.8 1 1.3.5L22.3 3.2c.7-.7-.4-1.7-1.1-1.1L10.7 12.3c.4.2.9.4 1.3.5-.1-1.3-.2-2.5-.3-3.8-.1-.8-1-1-1.4-.4-2.7 3.8-5.3 7.6-8 11.4-.5.7.6 1.5 1.2.9 2.1-2 4.1-4 6.2-6-.4-.2-.9-.4-1.3-.5.1 1.6.1 3.2.2 4.9 0 .8 1 1 1.4.4 3.6-4.9 7.2-9.7 10.8-14.6.5-.7 1-1.4 1.6-2.1.5-.7-.8-1.4-1.3-.7z" fill="#282828"/></svg>