<svg version="1.1" id="圖層_1" xmlns="http://www.w3.org/2000/svg" x="0" y="0" viewBox="0 0 25.9 43.4" xml:space="preserve"><path fill="#ff3670" d="M2 1.8L11.4 33l4.2-9.5 7.5 16.8-6.8-29.2-3.6 7.4L2 1.8"/><path d="M1.3 2C4 11.1 6.8 20.3 9.5 29.4c.4 1.3.8 2.6 1.2 3.8.2.6 1.1.8 1.4.2l4.2-9.6H15c2.5 5.6 5 11.2 7.6 16.8.4.8 1.6.2 1.4-.6l-6-25.5c-.3-1.2-.6-2.5-.9-3.7-.1-.6-1.1-.8-1.4-.2-1.2 2.5-2.4 4.9-3.6 7.4h1.3C9.8 12.6 6.2 7 2.6 1.4c-.5-.8-1.8 0-1.3.8C4.9 7.8 8.5 13.3 12 18.9c.3.4 1 .5 1.3 0 1.2-2.5 2.4-4.9 3.6-7.4-.5-.1-.9-.1-1.4-.2l6 25.5c.3 1.2.6 2.5.9 3.7.5-.2.9-.4 1.4-.6-2.5-5.6-5-11.2-7.6-16.8-.2-.5-1.1-.5-1.3 0l-4.2 9.6c.5.1.9.1 1.4.2-2.7-9.2-5.5-18.3-8.2-27.4L2.7 1.6C2.4.7 1 1.1 1.3 2z" fill="#282828"/></svg>