<svg version="1.1" id="圖層_1" xmlns="http://www.w3.org/2000/svg" x="0" y="0" viewBox="0 0 275.8 101.3" xml:space="preserve"><style>.st2{fill:#282828}</style><path d="M87.1 83.2c1 1.5 1.6 3.7 3.4 3.7.8 0 1.6-.6 2.1-1.2 2-2.2 2.4-5.5 1.9-8.4-.5-2.9-1.9-5.6-3.3-8.3l-9-29.3-18.1-7.2-3.4 5.4c-.7 5.9-1.4 11.7-2 17.6-.2 1.8-.4 3.7.3 5.4.8 2.1 2.6 3.6 4.3 5.2 6.4 6.1 10.3 14.3 15.8 21.2.4.5.8 1 1.4 1.1.6.2 1.2 0 1.8-.3 2.5-1.4 3.4-4.8 2.8-7.6-.6-2.8-2.4-5.3-4.2-7.5" fill="#bf9d8c"/><path d="M60.9 41.5s7 2.2 7 9c.1 6.8 8.7 32.3 8.7 32.3l3.8 5.5s5 1 4.1-9.7c0 0 8.9 3 9.6 4.7 0 0 2.5-11.8-1.5-18.6S78.2 36.9 78.2 36.9L62 33.5l-1.1 8z" opacity=".3" fill="#aa8879"/><path class="st2" d="M59.9 37.8c-.8 6.3-1.7 12.6-2.1 19-.2 2.8.4 5.1 2.3 7.2 1.7 1.9 3.8 3.6 5.5 5.6 3.6 4.2 6.4 9 9.6 13.6.7 1 1.5 2.1 2.2 3.1.7.9 1.4 2.1 2.5 2.6 1.9.9 3.9-.8 4.9-2.3 3.2-4.9-.3-10.4-3.4-14.3-.6-.8-1.6.3-1.1 1.1 2.6 3.3 5.8 7.9 3.3 12.2-.5.8-1.3 1.8-2.3 2-1.3.3-2.5-1.8-3.2-2.7-1.3-1.8-2.6-3.7-3.8-5.5-2.5-3.8-5.1-7.7-8.1-11.2-1.5-1.7-3.2-3.1-4.8-4.8-2-2.1-2.3-4.4-2.1-7.2.6-6.1 1.3-12.2 2.1-18.3.2-1.1-1.3-1-1.5-.1z"/><path class="st2" d="M90.6 69.3c2.3 4.5 5.2 10.4 2 15.2-.5.7-1.5 1.9-2.5 1.5-.7-.3-1.2-1-1.7-1.6-1-1.2-2-2.7-2.7-4.2-.4-.9-1.8-.5-1.4.4.6 1.5 1.5 2.8 2.4 4.1.8 1.1 1.9 2.6 3.4 2.9 2.1.4 3.9-2.1 4.6-3.7.9-2.1 1-4.5.6-6.8-.5-3-2-5.8-3.4-8.5-.4-.9-1.7-.1-1.3.7z"/><path d="M255.6 99.5c-18.2-6.2-83.1-30-101.4-35.9-3.4-1.1-7-2.2-10.6-2-3.1.2-6 1.3-8.8 2.3-6.3 2.4-12.6 4.7-18.9 7.1-6.6 2.5-13.5 5-20.4 4-2.8-.4-5.4-1.4-8.2-1.6-2.6-.3-5.2 0-7.7.5-9.2 1.7-18 5.5-25.5 11.1-.8.6-1.7 1.3-2.7 1.5-1.7.3-3.5-.9-4.3-2.5-.7-1.6-.6-3.5 0-5.2 1.7-5.3 2.6-7.4 7.5-10s14.2-6.1 17.9-10.2c3.9-4.2 5.6-9.1 2.6-13.6-5.1-6.3-10.2-6.7-10.2-6.7-4.8-.8-9.9-1.7-14.3-3.7-3.5-1.6-6.1-4.5-9.8-5.4-13.3-3.3-21.5-6.5-31.3-12.9-2.4-1.6-5-5-6.2-7.6-.9-1.7.3-3.2.9-4.8.5-1.6 2.3-2.2 3.8-1.4 9 4.8 18.8 9 28.7 11.1 10.8 2.3 12 3.6 26.7 5.2l5.5.9c3.8-1.9 7.5-2.8 11.8-3.1 2.1-.2 4.3-.1 6.4-.6 2.2-.5 4.3-1.5 6.5-2.2 10.9-3.4 22.2 2.2 32.7 6.7 33.9 14.4 110.4 12.5 147 15.7" fill="#f9dfca"/><path d="M83.4 16.6s3.3 2 8.4 3.3c5.1 1.2 6.8 5.4 5.7 6.2-1.2.7-4.5-5.2-19.3-5.9-19.9-1 5.2-3.6 5.2-3.6zm7.8-1.9s10.2 2.8 11.9 4c1.7 1.2-3.1-5.8-4.7-5.7-1.6.1-7.2 1.7-7.2 1.7zm63 48.9c18.3 5.9 83.2 29.7 101.4 35.9l4.2-14.8c-33.2-10.1-101.4-30.6-107.1-29.4-7.7 1.7-18 8.7-18 8.7 2.9-1.1 5.8-2.2 8.8-2.3 3.7-.3 7.2.8 10.7 1.9zM81.7 45.5C71.5 34.6 63.6 38 63.5 38c.4.1.8.1 1.3.2 0 0 5.2.4 10.2 6.7 3 4.5 1.3 9.4-2.6 13.6-.7.8-1.7 1.6-2.8 2.3h.1c4.9-2.9 17.9-9.1 12-15.3z" fill="#eac4ac"/><path class="st2" d="M69.4 20.3c4-2 8.2-2.8 12.6-3.1 2.1-.1 4.3-.2 6.3-.7 2.1-.6 4.1-1.6 6.3-2.2 8.7-2.4 17.8 1 25.8 4.3 5.5 2.3 10.9 4.6 16.6 6.2 5.6 1.6 11.3 2.7 17 3.7 13.1 2.2 26.4 3.5 39.7 4.4 13.7.9 27.4 1.5 41.2 2 11.7.5 23.4.8 35.1 1.7 1.2.1 2.4.2 3.5.3 1 .1 1-1.4 0-1.5-11.3-1-22.7-1.4-34.1-1.8-13.7-.5-27.5-1.1-41.2-1.9-13.6-.9-27.2-2-40.6-4.1-11.4-1.8-22.6-4.3-33.2-8.9-7.8-3.3-16.1-7.1-24.7-6.7-2 .1-4.1.4-6 1-2.2.7-4.3 1.7-6.5 2.2-2.2.5-4.6.4-6.9.6-2 .2-4 .5-6 1-1.9.5-3.7 1.3-5.5 2.1-1.1.5-.3 1.8.6 1.4zM5.8 4.9c1.3 2 3.1 3.7 5.2 4.9.5.3 1.1.7 1.7.7.7.1 1.2-.3 1.7-.6 1.3-.8 2.5-1.5 3.8-2.3.8-.5.1-1.8-.8-1.3-1 .6-2.1 1.3-3.1 1.9-.3.2-.5.3-.8.5-.3 0-.5.3-.8.3-.4 0-1.1-.5-1.4-.7C9.6 7.2 8.2 5.8 7 4.1c-.5-.8-1.8 0-1.2.8zM41.3 21c.1-.3.2-.7.3-1 0 .1-.1.1-.1.2.1-.3.2-.5.4-.8.1-.1.2-.2.2-.3.1-.1-.1.1 0 0 0 0 0-.1.1-.1 0-.1.1-.1.1-.2.3-.3.3-.8 0-1.1-.3-.3-.8-.3-1.1 0-.7.8-1.2 1.7-1.4 2.8 0 .2 0 .4.1.6.1.2.3.3.4.3.4.2.9 0 1-.4zm1.4.7c0-.1.1-.1.1-.2v-.1c.1-.1.2-.2.2-.3.2-.2.3-.4.5-.5.3-.4.7-.7 1.1-1 .1-.1.2-.1.3-.2l.1-.1s.2-.1.1-.1l.1-.1c.1 0 .1-.1.2-.1.1-.1.2-.1.3-.2.4-.3.8-.5 1.3-.8.3-.2.5-.7.3-1-.2-.4-.7-.5-1-.3-1.9 1-3.5 2.5-4.8 4.2-.2.3-.1.9.3 1 .2.3.6.2.9-.2z"/><path class="st2" d="M91.4 23.2c1 .5 1.9 1.1 2.9 1.6.3.2.8.1 1-.3.2-.4.1-.8-.3-1-1-.5-1.9-1.1-2.9-1.6-.3-.2-.8-.1-1 .3-.1.3 0 .8.3 1z"/><path class="st2" d="M87.6 20.4c-6.4-1-12.9-1-19.4-1.5-5.1-.4-10.3-1.2-15.3-2.2-3.3-.6-6.4-2.3-9.8-2.7-1-.1-1.5 0-2.3-.2-.9-.2-1.8-.5-2.7-.8-6.6-2-13.1-4.2-19.5-6.6-3.2-1.2-6.3-2.4-9.4-3.7C7.7 2 6.3 1.4 4.7 2c-1.6.6-2.8 2-2.9 3.7-.2 3.7 3.3 7.3 5.7 9.6 3.3 3.2 7.1 5.8 11.3 7.8 5.8 2.8 11.9 4.2 18.2 5.6 1.8.4 3.3 1.5 4.8 2.4 3.1 1.8 6.3 3.4 9.6 4.7 4.4 1.7 8.8 2.6 13.4 3.2 2.1.3 4.8 1.8 6.6 3.3 2.1 1.8 4.1 3.9 4.3 6.7.2 2.6-.9 5-2.3 7-2.7 3.8-6.9 6-11 8-3.7 1.8-7.6 3.3-11 5.7-2.9 2.1-5 5.3-5.7 8.8-.7 3.5.8 9.4 5.5 8.7 2.2-.3 4.1-2.4 6-3.6 2.1-1.4 4.4-2.7 6.7-3.8 4.7-2.3 9.8-4 14.9-5 3-.6 6.1-1 9.1-.5 2.7.4 5.2 1.3 7.9 1.6 5.6.7 11.3-.9 16.5-2.7 5.6-2 11.1-4.1 16.6-6.2 5.2-1.9 10.8-4.8 16.4-4.5 3.8.2 7.6 1.6 11.2 2.8 5 1.7 10 3.4 15 5.2 13.8 4.8 27.5 9.8 41.3 14.7 12.3 4.4 24.6 8.9 36.9 13.2 1.9.7 3.7 1.3 5.6 1.9.9.3 1.3-1.1.4-1.4-10.6-3.6-21.1-7.4-31.6-11.2-13.9-5-27.8-10-41.7-14.9-5.9-2.1-11.9-4.2-17.8-6.3-5.2-1.8-10.5-3.9-15.9-5-2.5-.5-5-.7-7.6-.2-2.7.5-5.2 1.5-7.7 2.4-5.5 2.1-11 4.1-16.5 6.2-5.3 2-10.7 4.2-16.4 4.6-3 .2-5.8-.2-8.6-.9-2.6-.6-5.2-1.1-7.9-1-5 .2-10.2 1.6-15 3.4-4.8 1.8-9.3 4.1-13.5 7-1.8 1.3-4.1 3.7-6.4 2.1-2.1-1.4-2.3-4.8-1.6-6.9 1.1-3.9 3.4-6.5 6.9-8.5 7.2-4.2 16.2-6.2 20.9-13.6 2.4-3.8 2.9-8.7-.1-12.3-2.3-2.7-5.4-5.1-8.9-6.1-.8-.2-1.5-.3-2.3-.4-2.5-.3-5.1-.8-7.5-1.5-3.9-1.1-7.6-2.7-11.1-4.6-2.1-1.1-4.2-2.5-6.4-3.5-1.6-.7-3.4-.9-5.1-1.2-7.5-1.6-15-4.3-21.2-8.8-3.4-2.5-7.3-5.9-8.9-10-.8-1.9-.2-4.1 2-4.4 1.5-.2 3.2.9 4.6 1.5 6.5 2.7 13.2 5.1 19.9 7.3 2.7.9 5.5 1.8 8.2 2.6.8.2 1.6.5 2.3.6 1 .2 2.1.1 3.1.3 2 .4 3.9 1.3 5.9 1.9 1.1.3 2.2.5 3.4.7 3.1.6 6.3 1 9.5 1.4 1.8.2 3.7.6 5.5.7 2.2.2 4.4.2 6.6.3 4.1.2 8.3.5 12.4 1.2.9.2 1.3-1.3.4-1.4z"/><path class="st2" d="M59.7 81.2c-.8-1.1-1.5-2.2-2.3-3.3-.4-.5-.7-1.1-1.1-1.6-.4-.5-.9-.8-1.5-.8-2 .2-3.6 1.8-4.3 3.5-.4 1-.5 2.1-.2 3.2.2.9 1.7.5 1.4-.4-.4-1.7.6-3.6 2.1-4.5.2-.1.4-.2.6-.2.2-.1.5-.2.7-.1-.1 0 0 .1 0 .1.1.1.2.2.2.4l.6.9c.8 1.2 1.6 2.4 2.4 3.5.2.3.7.5 1 .3.5-.2.7-.7.4-1zm28.7-64.7c2-.4 4.1-.5 6.1 0 1.5.4 2.8 1.1 4.3 1.6.9.3 1.3-1.1.4-1.4-1.5-.5-2.9-1.3-4.5-1.7-2.2-.5-4.4-.3-6.6.1-1.1.2-.7 1.6.3 1.4zM72.9 49.6c-.2.9-.2 1.8-.3 2.8-.1 1.4-.1 3 .6 4.4.2.4.7.5 1 .3.4-.2.4-.7.3-1 0 0 0-.1-.1-.1 0 .1 0 .1 0 0s-.1-.1-.1-.2-.1-.3-.1-.4c-.1-.4-.1-.5-.1-.9-.1-.7-.1-1.4 0-2.1 0-.6.1-1.2.2-1.7v-.1c0-.2 0 .2 0 0v-.4c.1-.4-.1-.8-.5-.9-.4-.3-.9-.1-.9.3z"/></svg>