<?xml version="1.0" encoding="utf-8"?>
<!-- Generator: Adobe Illustrator 25.2.1, SVG Export Plug-In . SVG Version: 6.00 Build 0)  -->
<svg version="1.1" id="圖層_1" xmlns="http://www.w3.org/2000/svg" xmlns:xlink="http://www.w3.org/1999/xlink" x="0px" y="0px"
	 viewBox="0 0 32 32" style="enable-background:new 0 0 32 32;" xml:space="preserve">
<style type="text/css">
	.st0{fill:#040000;}
</style>
<path class="st0" d="M25.2,14.4h-7.6V6.8c0-0.5-0.5-1.1-1.1-1.1h-0.9c-0.5,0-1.1,0.5-1.1,1.1v7.6H6.8c-0.5,0-1.1,0.5-1.1,1.1v0.9
	c0,0.5,0.5,1.1,1.1,1.1h7.6v7.6c0,0.5,0.5,1.1,1.1,1.1h0.9c0.5,0,1.1-0.5,1.1-1.1v-7.6h7.6c0.5,0,1.1-0.5,1.1-1.1v-0.9
	C26.3,14.9,25.7,14.4,25.2,14.4z"/>
</svg>
