<?xml version="1.0" encoding="utf-8"?>
<!-- Generator: Adobe Illustrator 25.2.1, SVG Export Plug-In . SVG Version: 6.00 Build 0)  -->
<svg version="1.1" id="圖層_1" xmlns="http://www.w3.org/2000/svg" xmlns:xlink="http://www.w3.org/1999/xlink" x="0px" y="0px"
	 viewBox="0 0 32 32" style="enable-background:new 0 0 32 32;" xml:space="preserve">
<style type="text/css">
	.st0{fill:#040000;}
</style>
<g id="Onboarding-_x2F_-歡迎頁">
	<g id="Onboarding_親子" transform="translate(-294.000000, -572.000000)">
		<g id="Group-2" transform="translate(275.000000, 551.000000)">
			
				<g id="back" transform="translate(40.430769, 39.569231) scale(-1, 1) translate(-40.430769, -39.569231) translate(17.169231, 16.307692)">
				<path id="Path" class="st0" d="M43.5,18.9H21.7c-0.6,0-0.9-0.7-0.4-1.1l6.3-6.3c0.4-0.4,0.4-1,0-1.4l-1.5-1.5
					c-0.4-0.4-1-0.4-1.4,0L13.2,20.2c-0.4,0.4-0.4,1,0,1.4L24.7,33c0.4,0.4,1,0.4,1.4,0l1.4-1.4c0.4-0.4,0.4-1,0-1.4L21.2,24
					c-0.4-0.4-0.1-1.1,0.4-1.1h21.7c0.5,0,1-0.4,1-1v-2C44.4,19.3,44,18.9,43.5,18.9L43.5,18.9z"/>
			</g>
		</g>
	</g>
</g>
</svg>
