<?xml version="1.0" encoding="utf-8"?>
<!-- Generator: Adobe Illustrator 25.2.1, SVG Export Plug-In . SVG Version: 6.00 Build 0)  -->
<svg version="1.1" id="圖層_1" xmlns="http://www.w3.org/2000/svg" xmlns:xlink="http://www.w3.org/1999/xlink" x="0px" y="0px"
	 viewBox="0 0 32 32" style="enable-background:new 0 0 32 32;" xml:space="preserve">
<path d="M24.9,22.3L18.6,16l6.3-6.3c0.5-0.5,0.5-1.4,0-1.8L24,7.1c-0.5-0.5-1.4-0.5-1.8,0L16,13.4L9.7,7.1C9.2,6.6,8.4,6.6,8,7.1
	L7.1,8c-0.5,0.5-0.5,1.4,0,1.8l6.3,6.3l-6.3,6.3c-0.5,0.5-0.5,1.4,0,1.8L8,24.9c0.5,0.5,1.4,0.5,1.8,0l6.3-6.3l6.3,6.3
	c0.5,0.5,1.4,0.5,1.8,0l0.8-0.8C25.4,23.6,25.4,22.8,24.9,22.3z"/>
</svg>
