<svg xmlns="http://www.w3.org/2000/svg" width="24" height="24" viewBox="0 0 24 24">
    <g fill="none" fill-rule="evenodd">
        <g>
            <g fill="#FF625E" fill-rule="nonzero">
                <path d="M10.687 5.04v.47l-.001 3.861V12.901l-.001.308-.001 3.285v.196l-.001 2.274V19c-1.952-.002-7.563-5.644-9.149-8.307C-.05 8.03-.927 4.278 1.54 1.833c2.467-2.446 6.464-2.443 8.928.005l.22.218.22-.218c2.464-2.448 6.461-2.45 8.928-.006 2.467 2.446 1.59 6.198.005 8.86-1.585 2.664-7.196 8.306-9.148 8.308l-.001-.902v-.125l-.001-3.08v-.26l-.001-3.397v-.357l-.001-3.573V3.584l-.001-.501z" transform="translate(1.312 3)"/>
            </g>
        </g>
    </g>
</svg>
