<?xml version="1.0" encoding="utf-8"?>
<!-- Generator: Adobe Illustrator 25.2.1, SVG Export Plug-In . SVG Version: 6.00 Build 0)  -->
<svg version="1.1" id="圖層_1" xmlns="http://www.w3.org/2000/svg" xmlns:xlink="http://www.w3.org/1999/xlink" x="0px" y="0px"
	 viewBox="0 0 32 32" style="enable-background:new 0 0 32 32;" xml:space="preserve">
<style type="text/css">
	.st0{fill:#231815;}
</style>
<g>
	<path class="st0" d="M2.6,11.9c0.7,0,1.2-0.6,1.2-1.2V3.8h6.8c0.7,0,1.2-0.6,1.2-1.2s-0.6-1.2-1.2-1.2H2.6c-0.7,0-1.2,0.6-1.2,1.2
		v8.1C1.3,11.3,1.9,11.9,2.6,11.9z"/>
	<path class="st0" d="M29.4,1.3h-8.1c-0.7,0-1.2,0.6-1.2,1.2s0.6,1.2,1.2,1.2h6.8v6.8c0,0.7,0.6,1.2,1.2,1.2s1.2-0.6,1.2-1.2V2.6
		C30.7,1.9,30.1,1.3,29.4,1.3z"/>
	<path class="st0" d="M29.4,20.1c-0.7,0-1.2,0.6-1.2,1.2v6.8h-6.8c-0.7,0-1.2,0.6-1.2,1.2s0.6,1.2,1.2,1.2h8.1
		c0.7,0,1.2-0.6,1.2-1.2v-8.1C30.7,20.7,30.1,20.1,29.4,20.1z"/>
	<path class="st0" d="M10.6,28.2H3.8v-6.8c0-0.7-0.6-1.2-1.2-1.2s-1.2,0.6-1.2,1.2v8.1c0,0.7,0.6,1.2,1.2,1.2h8.1
		c0.7,0,1.2-0.6,1.2-1.2S11.3,28.2,10.6,28.2z"/>
	<rect x="11.3" y="15.1" class="st0" width="1.9" height="1.9"/>
	<path class="st0" d="M12.3,18.8H8.5c-0.6,0-0.9,0.4-0.9,0.9v3.7c0,0.6,0.4,0.9,0.9,0.9h3.7c0.6,0,0.9-0.4,0.9-0.9v-3.7
		C13.2,19.2,12.8,18.8,12.3,18.8z M11.3,22.5H9.5v-1.9h1.9v1.9H11.3z"/>
	<path class="st0" d="M12.3,7.6H8.5C7.9,7.6,7.6,8,7.6,8.5v3.7c0,0.6,0.4,0.9,0.9,0.9h3.7c0.6,0,0.9-0.4,0.9-0.9V8.5
		C13.2,8,12.8,7.6,12.3,7.6z M11.3,11.3H9.5V9.5h1.9v1.8H11.3z"/>
	<rect x="15.1" y="7.6" class="st0" width="1.9" height="1.9"/>
	<rect x="7.6" y="15.1" class="st0" width="1.9" height="1.9"/>
	<path class="st0" d="M19.7,13.2h3.7c0.6,0,0.9-0.4,0.9-0.9V8.5c0-0.6-0.4-0.9-0.9-0.9h-3.7c-0.6,0-0.9,0.4-0.9,0.9v3.7
		C18.8,12.8,19.2,13.2,19.7,13.2z M20.7,9.5h1.9v1.9h-1.9V9.5z"/>
	<rect x="15.1" y="11.3" class="st0" width="1.9" height="1.9"/>
	<rect x="16.9" y="20.7" class="st0" width="1.9" height="1.9"/>
	<rect x="15.1" y="22.5" class="st0" width="1.9" height="1.9"/>
	<rect x="20.7" y="16.9" class="st0" width="1.9" height="1.9"/>
	<rect x="20.7" y="20.7" class="st0" width="1.9" height="1.9"/>
	<rect x="18.8" y="18.8" class="st0" width="1.9" height="1.9"/>
	<rect x="16.9" y="16.9" class="st0" width="1.9" height="1.9"/>
	<rect x="18.8" y="22.5" class="st0" width="1.9" height="1.9"/>
	<rect x="22.5" y="22.5" class="st0" width="1.9" height="1.9"/>
	<rect x="15.1" y="18.8" class="st0" width="1.9" height="1.9"/>
	<rect x="22.5" y="18.8" class="st0" width="1.9" height="1.9"/>
	<rect x="15.1" y="15.1" class="st0" width="1.9" height="1.9"/>
	<rect x="22.5" y="15.1" class="st0" width="1.9" height="1.9"/>
	<rect x="18.8" y="15.1" class="st0" width="1.9" height="1.9"/>
</g>
</svg>
