<svg version="1.1" id="圖層_2" xmlns="http://www.w3.org/2000/svg" x="0" y="0" viewBox="0 0 29.6 33.3" xml:space="preserve"><style>.st3{fill:#282828}</style><path d="M14.8 3.3c-5.4-.5-10.2 3.5-10.7 9-.5 5.2 7.3 17 7.6 17.5.3.4.8.5 1.2.3.1 0 .1-.1.2-.1.4-.4 10.2-10.6 10.7-15.8.4-5.6-3.6-10.4-9-10.9zm-1.1 12.5c-2-.2-3.4-1.9-3.3-3.9s1.9-3.4 3.9-3.3 3.4 1.9 3.3 3.9-2 3.5-3.9 3.3z" fill="#ff7b85"/><path d="M10.6 4.5S2 6.8 13.5 28.1c.3.5-.9 1.9-1.2 1.5C5.4 21.5 0 9.8 10.6 4.5z" opacity=".7" fill="#e03653"/><path d="M14.2 3.7s8.5 2.9 6.4 11.4c-2 7.7-8 14.3-8 14.3l.3.6s9.5-10.5 10.7-15.3-1.8-11.8-9.4-11z" fill="#ffcad2"/><path class="st3" d="M14.8 2.5C8.9 2.1 2.9 6.9 3.3 13.1c.1 2.4 1.1 4.8 2.1 7 1.1 2.4 2.4 4.7 3.7 7 .6 1 1.4 2.9 2.5 3.6 1.5.8 2.6-.9 3.5-1.9 3.3-3.7 7-7.8 8.8-12.5 2.5-6.4-2.6-13.1-9.1-13.8-1-.1-1 1.4 0 1.5 5.3.6 9.7 6.1 7.8 11.5-1.5 4.1-4.7 7.8-7.6 11.1-.5.6-1 1.1-1.5 1.7-.2.2-.7.9-.9 1-.6.2-1.5-1.8-1.7-2.3-2.3-3.7-4.6-7.7-5.7-11.9C3.6 9 8.7 3.6 14.8 4c1 .1 1-1.4 0-1.5z"/><path class="st3" d="M13.7 15.1c-1.2-.1-2.1-1-2.4-2.1-.3-1.1.2-2.4 1.2-3.1 1-.7 2.3-.6 3.3.1.9.7 1.3 1.9 1 3.1-.5 1.3-1.8 2.1-3.1 2-.4 0-.8.4-.8.8s.3.7.8.8c1.7.1 3.5-.9 4.2-2.5.8-1.7.5-3.7-.9-5-1.3-1.3-3.3-1.6-5-.8-1.6.8-2.6 2.6-2.4 4.3.2 2.1 1.9 3.7 4 3.9.4 0 .8-.4.8-.8s-.3-.7-.7-.7z"/></svg>