<svg version="1.1" id="圖層_1" xmlns="http://www.w3.org/2000/svg" x="0" y="0" viewBox="0 0 363.4 574.4" xml:space="preserve"><style>.st0{fill:#fff}.st2{fill:#ffc727}.st3{opacity:.5;fill:#fff;enable-background:new}.st4{fill:#0ff}</style><g id="圖層_2_1_"><circle transform="matrix(.9993 -.03838 .03838 .9993 -19.25 2.29)" class="st0" cx="50" cy="502.6" r="1.7"/><circle class="st0" cx="312.2" cy="375.8" r="1.2"/><circle cx="56.1" cy="284.4" r="1.2" opacity=".8" fill="#ffc727"/><circle class="st0" cx="4.7" cy="464.3" r="1.6"/><circle class="st2" cx="68.9" cy="521" r="2.4"/><circle class="st3" cx="18.4" cy="163" r="1.2"/><circle class="st4" cx="218" cy="157.8" r="3"/><circle class="st3" cx="196.7" cy="183.3" r="1.2"/><circle cx="284.1" cy="143.4" r="1.2" opacity=".25" fill="#fff"/><circle class="st3" cx="359" cy="215" r="1.2"/><circle cx="288.9" cy="566.2" r="3.3" opacity=".3" fill="#0ff"/><circle class="st0" cx="255.7" cy="402.4" r="1.2"/><circle class="st4" cx="254.8" cy="509.7" r="1.2"/><circle cx="333" cy="227.8" r="3" fill="#ff5cb5"/><circle class="st0" cx="298.5" cy="236.6" r="1.6"/><g opacity=".8"><circle class="st0" cx="285.7" cy="209.4" r="1.3"/><circle class="st0" cx="284.9" cy="184.2" r="1.3"/><circle class="st0" cx="298.6" cy="205.9" r="1.3"/><circle class="st0" cx="270.5" cy="218.3" r="1.3"/><path class="st0" d="M284.8 184.2l.5 12.4.4 8.6.1 2.9c.1.4.1.9 0 1.3.1-.2 0-.1-.2 0s-.6.4-.9.5l-3 1.7-7.7 4.5-2.8 1.6c-.2.2-.5.3-.7.4-.3.1 0 .1-.1.1-.5-.2-1-.6-1.5-.9l-3-1.9-13.1-8.2c-.1 0-.2 0-.2.1s0 .2.1.2l17.7 11.1h.2l15.5-9 .1-.1-.9-22.1-.1-3.1c-.1-.3-.4-.3-.4-.1z"/><path class="st0" d="M286 209.5l10.2-3.1 1.8-.6h.1c.2.1.4.1.5.2l5.4 2.4 4.7 2.1c.2.1.3-.2.2-.2l-9.9-4.5c-.9-.4-1.1-.3-2.1 0l-6.2 1.9-4.8 1.4c-.1 0-.1.1-.1.2 0 .2.1.3.2.2z"/></g><circle class="st0" cx="331.9" cy="3.5" r="1.2"/><circle class="st2" cx="21.8" cy="12.1" r="1.2"/></g></svg>