<svg version="1.1" id="圖層_2" xmlns="http://www.w3.org/2000/svg" x="0" y="0" viewBox="0 0 97 32.6" xml:space="preserve"><style>.st0{fill:#40ad9d}.st1{fill:#282828}</style><path class="st0" d="M26.4 15.6L1.7 20.8l54.9 9c2.9.5 5.8-.3 8-2.1L95.4 2.6s-20 4-25.7 2.8c-4.5-1-43.3 10.2-43.3 10.2z"/><path class="st1" d="M62 14.7c2.8.8 4.9 2.5 6.9 4.5s4.1 4 6.6 5.3c.9.4 1.6-.8.8-1.3-2.6-1.4-4.6-3.4-6.7-5.5-2.1-2-4.4-3.7-7.2-4.5-1-.2-1.4 1.3-.4 1.5z"/><path class="st1" d="M67.1 17.6c3.2.6 6.3 1.2 9.5 1.8.9.2 1.3-1.3.4-1.4-3.2-.6-6.3-1.2-9.5-1.8-.9-.2-1.3 1.2-.4 1.4z"/><path class="st0" d="M94.5 1.9c-7.8 2-8.6 3.2-18.7 4-1.9.2-4.6-.5-6.5-.7-1.5-.1-3 0-4.4.4l-3.2.9c-6.6 2.7-8.3 2.3-15 .1-2.2-.7-4.7-3.7-7-3.9-3.6-.3-7.6 1.5-11.2 1.3-1.7-.1-4 3.8-6 3.5-7-1.1-9.4 1.5-11.6 5.9s-4.4 5.9-9.2 7.3"/><path class="st1" d="M94.3 1.2c-6.3 1.6-12.5 4-19.1 4-2 0-4-.6-6-.7-1.7-.1-3.3.1-4.9.5-1 .3-2 .5-2.9.8-1.8.7-3.6 1.5-5.6 1.7-1.7.2-3.3-.1-4.9-.5-1.9-.5-4-1-5.6-2.1-1.4-1-2.8-2.2-4.5-2.8-1.8-.6-4-.1-5.8.2-2.2.4-4.3.8-6.6.9-1.3.1-2.3 1.1-3.2 2-.6.5-1.1 1.1-1.8 1.4-.8.4-1.9 0-2.8-.1-1.5-.1-3.1 0-4.6.5-3 1.1-4.5 3.8-6 6.5-.8 1.6-1.9 3.1-3.3 4.2-1.5 1.1-3.3 1.8-5.1 2.3-.9.3-.5 1.7.4 1.4 3-.9 5.7-2.1 7.7-4.6 1.8-2.3 2.6-5.5 5-7.4 1.2-.9 2.6-1.3 4-1.5.9-.1 1.8 0 2.6.1s1.5.3 2.3 0C25 7.6 26 6.4 27 5.5c.6-.5 1.1-.8 1.9-.8 1 0 2.1-.1 3.1-.3 2.3-.4 4.6-1.1 6.9-1.1 2 0 3.5 1.3 5 2.4C45.5 7 47.2 7.5 49 8.1c1.6.5 3.3.9 5 1 3.2.2 5.9-1.3 8.8-2.1 1.2-.3 2.4-.7 3.6-.9 2.2-.3 4.4.2 6.6.5 2.3.3 4.6 0 6.9-.3 1.7-.2 3.4-.5 5.1-.9 3.2-.8 6.4-1.9 9.6-2.7 1-.3.6-1.7-.3-1.5z"/></svg>