<svg version="1.1" id="圖層_1" xmlns="http://www.w3.org/2000/svg" x="0" y="0" viewBox="0 0 117 78" xml:space="preserve"><style>.st2{fill:#c0e6ff}.st5{fill:#424996}</style><path d="M23.7 29.4c-6.3-4.8-8-8-7.4-9.4.5-1.2 2.8-1.9 6.4-1.9 2 0 3.9.2 5.9.4-2.3 3.4-3.9 7-4.9 10.9zM101.9 55c-.5 1.2-2.8 1.9-6.4 1.9-1.8 0-3.7-.1-5.5-.4 2-3.5 3.4-7.2 4.2-11.2 6.6 5 8.3 8.3 7.7 9.7z" fill="none"/><g opacity=".45"><path class="st2" d="M93.8 39.5c0 .5 0 1.1-.1 1.6-.1.8-.2 1.6-.3 2.5 6.8 4.9 10.5 9.2 9.4 11.8s-6.5 3.1-14.5 1.9c-8.8-1.3-20.7-4.8-33.3-10s-23.5-11-30.7-16.2c-6.6-4.8-10-8.9-9-11.5s6.7-3.1 14.9-1.8c.5-.7 1-1.3 1.5-1.9.3-.4.7-.8 1.1-1.2-16.4-3.9-28.4-3.9-30.4.8s5 14.4 19.5 23.2c9.4 5.6 19.3 10.5 29.4 14.6C61.5 57.5 72 61 82.8 63.6c16.4 3.9 29.9 2.7 31.9-2.1s-6.4-13.2-20.9-22z"/><path d="M19 17.6s6-1.3 10.3.2l3.6-3.1s-9.3-2.6-12.1-2.5-7.8 4.5-5.3 9.6c0-.1-1.2-4 3.5-4.2z" fill="#7cbcd8"/><circle cx="58.7" cy="38.5" r="35.2" fill="#f9d93d"/><path class="st5" d="M24.3 40.9c-1.3-19 13-35.4 31.9-36.7S91.6 17.1 93 36.1 80 71.5 61.1 72.8c-16.8 1.2-32-10-35.9-26.4-.4-1.8-.7-3.7-.9-5.5-.1-1-1.6-1-1.5 0C24.1 60.7 41.3 75.6 61 74.3s34.7-18.5 33.4-38.2c-.4-6.5-2.7-12.8-6.4-18.2C76.7 1.7 54.3-2.3 38.1 9.1 27.8 16.3 22 28.4 22.8 40.9c.1 1 1.6 1 1.5 0z"/><path class="st5" d="M31 53.5c1.2 2.7 3 5.1 5.2 7 .3.3.8.3 1.1 0s.3-.7 0-1c-2.2-1.8-3.9-4.1-5-6.7-.2-.3-.6-.5-1-.3-.3.2-.4.6-.3 1zm5.3 2.2c1.8 3.1 4.4 5.6 7.7 7.1.4.2.8 0 1-.4.1-.3 0-.7-.2-.9-3-1.4-5.5-3.7-7.1-6.5-.2-.3-.7-.4-1-.2-.5.2-.6.6-.4.9zm-3.3-33c-6.3 7.7-7.2 18.7-3.4 27.8.4.9 1.7.1 1.3-.8-3.5-8.4-2.7-18.8 3.1-25.9.7-.8-.3-1.9-1-1.1z"/><path class="st2" d="M2.4 15.5c-2 4.7 5 14.4 19.5 23.2 9.4 5.6 19.3 10.5 29.4 14.6C61.5 57.5 72 61 82.8 63.6c16.4 3.9 29.9 2.7 31.9-2.1s-6.4-13.2-20.9-22c0 .5 0 1.1-.1 1.6-.1.8-.2 1.6-.3 2.5 6.8 4.9 10.5 9.2 9.4 11.8s-6.5 3.1-14.5 1.9c-8.8-1.3-20.7-4.8-33.3-10s-23.5-11-30.7-16.2c-6.6-4.8-10-8.9-9-11.5"/><path class="st5" d="M77.1 62c-1.9 1.7-4.2 2.8-6.7 3.1-.4 0-.7.3-.8.8 0 .4.3.8.8.8 1.5-.2 2.9-.6 4.2-1.1 1.3-.6 2.5-1.4 3.6-2.4.7-.8-.4-1.9-1.1-1.2zm-31-49.6C49.4 10 53.4 8.8 57.5 9c1 0 1-1.5 0-1.5-4.3-.2-8.6 1.1-12.2 3.6-.8.5 0 1.8.8 1.3z"/><path class="st5" d="M114.3 55.5c-3.5-5.5-9.3-9.5-14.5-13-1.7-1.1-3.5-2.3-5.3-3.4-.2-.3-.5-.4-.9-.3-.2.1-.4.2-.5.5-.1.1-.1.3 0 .4 0 1.2-.2 2.4-.3 3.6-.1.3.1.7.3.8 2.1 1.4 4 3 5.8 4.8 1.3 1.1 2.4 2.5 3.1 4.1 1.2 2.9-1.9 3.8-4.2 4-4.3.3-8.5-.1-12.7-1.1-4.4-.9-8.7-2-13-3.3-10.1-3.1-20-7-29.5-11.8-8-3.9-16.4-8.3-22.9-14.5-1.5-1.4-5.8-5.5-2.8-7.5 1.5-.8 3.3-1.2 5-1.1 2.7 0 5.5.2 8.2.7.3.1.7-.1.8-.3.8-1 1.6-2 2.5-3 .3-.3.3-.8 0-1.1-.1-.1-.2-.2-.3-.2-7.2-1.7-14.7-3.2-22.1-2.8-3.4.3-8.5 1-9.4 5-1 4.2 2.5 8.5 5.1 11.4 5.1 5.7 11.5 10 18.1 13.7 15.1 8.6 31 15.4 47.6 20.4 7.8 2.5 15.8 4.2 24 5 3.4.3 6.8.2 10.1-.2 2.4-.2 4.6-.9 6.7-2 3.5-2.1 3.1-5.8 1.1-8.8zM31.5 14.9c-.6.7-1.1 1.3-1.6 2-4-.7-8.8-1.4-12.7.1-.6.2-1.1.5-1.6.9.2-.8.5-1.7 1.1-2.4 1.4-1.6 3.5-2.5 5.6-2.4 1.5.2 2.9.5 4.4.8 1.6.3 3.2.7 4.8 1zm81.9 47.4c-1.5 1.2-3.3 2-5.2 2.3-2.9.6-5.9.8-8.9.6-7.6-.4-15.1-1.7-22.4-3.9-15.7-4.4-30.8-10.4-45.2-18-6.7-3.5-13.2-7.2-19-12.1C9 28 4.5 23.9 3.2 19c-.5-1.3-.3-2.8.4-4 1-1.3 2.9-1.8 4.5-2.2 3.4-.7 7-.6 10.6-.2-1.1.5-2.1 1.2-2.9 2.2-1.1 1.5-1.8 2.9-1.9 4.6 0 1.2.3 2.5.9 3.5.9 1.6 2.3 3.1 3.2 4-1-.7-7.1-5.2-7.1-8.7.1-.8.6-1.6 1.2-2.1.5-.6-.3-1.5-.8-.9-1.2 1.1-1.7 2.7-1.4 4.3 2.3 6.8 11.2 11 14.8 12.7 3.9 2.8 7.9 5.3 12.2 7.4 10.4 5.5 21.2 10.1 32.4 13.6 4.9 1.6 9.9 2.9 15 4 4.5.9 9.4 1.8 14 1.2 2.8-.3 6.1-1.7 5.3-5.1-.6-1.8-1.6-3.4-2.9-4.7-2-2-4.2-3.9-6.5-5.5.1-.8.2-1.5.2-2.3 5.7 3.5 11.4 7.3 16 12.2 2 2.1 5.8 6.5 3 9.3z"/></g></svg>