<svg version="1.1" id="圖層_1" xmlns="http://www.w3.org/2000/svg" xmlns:xlink="http://www.w3.org/1999/xlink" x="0" y="0" viewBox="0 0 213 190" xml:space="preserve"><style>.st4{opacity:.6}.st5,.st6{fill:#424996}.st6{opacity:.2;enable-background:new}</style><g id="圖層_7"><defs><path id="SVGID_1_" d="M107.8 189c-26.2 0-51.1-9.2-70-25.9S7.9 123.8 7 99.7c-.9-23.2 7.7-45.8 24.1-63.4C49.5 16.6 76.2 4.8 104.4 3.9c1.2 0 2.4-.1 3.6-.1 26.2 0 51.1 9.2 70 25.9s30 39.3 30.9 63.5c.9 23.2-7.7 45.8-24.1 63.4-18.3 19.7-45 31.5-73.2 32.4h-3.8z"/></defs><clipPath id="SVGID_2_"><use xlink:href="#SVGID_1_" overflow="visible"/></clipPath><g clip-path="url(#SVGID_2_)"><circle cx="140.1" cy="-10.1" r="1.2" fill="#fff"/><g opacity=".75"><linearGradient id="SVGID_3_" gradientUnits="userSpaceOnUse" x1="118.218" y1="174.03" x2="99.638" y2="43.96" gradientTransform="matrix(1 0 0 -1 0 198)"><stop offset="0" stop-color="#e9bdd4"/><stop offset="1" stop-color="#cfecff"/></linearGradient><ellipse cx="107.9" cy="96.4" rx="100" ry="91.6" fill="url(#SVGID_3_)"/><g class="st4"><path class="st5" d="M8.9 102.8c-1.3-19 3.7-37.8 14.2-53.6 10.9-16 26.3-28.5 44.2-35.7 19.3-7.8 40.5-9.9 60.9-6 19.3 3.6 37.2 12.8 51.5 26.3 13.8 13.1 23 30.4 26.2 49.2 3 18.9-.4 38.3-9.9 55-9.5 16.6-23.9 30-41.1 38.5-18.6 9.1-39.5 12.7-60.1 10.2A103.5 103.5 0 0141 163.8c-14.5-12.1-25.4-28.5-30-46.9-1-4.8-1.8-9.4-2.1-14.1-.1-1-1.6-1-1.5 0 1.6 19.4 9.5 37.7 22.5 52.2 13.4 14.7 30.7 25.3 50 30.3 20.4 5.4 41.9 4.7 62-1.8 18.9-6.1 35.6-17.7 47.9-33.3 24.8-31.2 25.1-75.3.5-106.8-12.2-15.6-28.6-27.3-47.3-33.6-20.1-6.8-41.7-7.6-62.2-2.4C61.5 12.2 44 22.6 30.5 37.3c-13 14.1-21.1 32.1-23 51.2-.5 4.7-.5 9.5-.2 14.3.1.9 1.7.9 1.6 0z"/></g><g class="st4"><path class="st5" d="M156.1 22.9c7.2 3.6 13.6 9.1 19.2 14.9 8.3 8.4 14.7 18.3 19 29.3 2.7 7.1 4.2 14.6 4.5 22.2 0 1 1.5 1 1.5 0-.6-13.2-4.7-26-11.8-37.1-5.7-9.1-13-17.2-21.5-23.9-3.1-2.6-6.5-4.8-10.1-6.7-.9-.5-1.7.8-.8 1.3z"/></g><g class="st4"><path class="st5" d="M115.7 9.8c-15.6-1.2-31.3 2.2-45.1 9.6-.8.5-.1 1.8.8 1.3 13.6-7.3 29-10.6 44.3-9.5 1 .1 1-1.4 0-1.4z"/></g><ellipse class="st6" cx="147.1" cy="47.3" rx="4.4" ry="4.5"/><g class="st4"><path class="st5" d="M143.2 45.4c-1.1 2.4-.1 5.3 2.4 6.5.5.2 1.1.4 1.6.4 1.7 0 3.2-.8 4.2-2.1 1.1-1.3 1.3-3.2.7-4.8-.7-1.8-2.2-3.2-4.1-3.6-1-.2-1.4 1.3-.4 1.5 2.4.5 4.2 3.3 2.9 5.5-.6 1-1.6 1.8-2.8 1.9-1.1.1-2.2-.3-2.8-1.2-.8-1-1-2.3-.5-3.4.5-.8-.8-1.6-1.2-.7z"/></g><g class="st4"><path class="st5" d="M141 51.6c1.2 2.2 3.5 3.5 6 3.4.4 0 .8-.3.8-.8s-.3-.8-.8-.8c-1.9 0-3.7-1-4.7-2.7-.2-.3-.6-.5-1-.3-.3.3-.4.8-.3 1.2z"/></g><path class="st6" d="M111.1 55.1c1.9 6.6-2.6 13.7-10 15.8s-13.5.1-15.4-6.5 1-15.2 8.5-17.3 14.9 1.4 16.9 8z"/><g class="st4"><path class="st5" d="M85.1 58.9c-.9 4.1.7 8.4 4.1 10.8 3.7 2.8 8.6 3.5 13 1.9 8-3 13.7-12.8 7.4-20.1-3.5-3.9-8.7-5.8-13.9-5.1-1 .1-1 1.6 0 1.5 4.1-.5 8.1.6 11.4 3.1 3 2.3 4.4 6.1 3.6 9.7-1.9 7.8-11.6 12.7-18.8 8.9-3.8-2-6.4-6-5.3-10.4.1-.4-.1-.8-.5-.9-.4-.1-.9.2-1 .6z"/></g><g class="st4"><path class="st5" d="M106 60.3c-.3 3.9-3.7 6.8-7.6 6.5-.4 0-.8.3-.8.8s.3.8.8.8c4.7.3 8.8-3.3 9.1-8 0-1.1-1.5-1.1-1.5-.1z"/></g><path class="st6" d="M159.4 118.1c2.8 5.3 0 12.2-6.2 15.5s-11.9 2.5-14.6-2.8-1.6-13.3 4.6-16.5 13.5-1.5 16.2 3.8z"/><g class="st4"><path class="st5" d="M137.1 126.1c-.3 4 2.4 7.3 5.9 8.8 3.8 1.6 8.1 1.2 11.6-1 6.3-3.9 9.9-13.5 3.1-18.7-3.8-2.8-8.8-3.5-13.2-1.9-.9.3-.5 1.8.4 1.4 3.4-1.2 7.2-.9 10.4.7 2.9 1.4 4.8 4.3 4.7 7.6-.3 7-8 12.9-14.8 11.1-3.7-.9-6.8-4-6.5-8 0-1-1.5-1-1.6 0z"/></g><g class="st4"><path class="st5" d="M145.8 117.8c-3.7 1-5.9 4.8-4.9 8.5.4 1.4 1.2 2.6 2.3 3.6.7.6 1.8-.4 1.1-1.1-2.4-1.9-2.8-5.3-.9-7.7.7-.9 1.8-1.6 2.9-1.9.4-.1.6-.5.5-.9-.2-.4-.6-.7-1-.5z"/></g><g class="st4"><path class="st5" d="M160.4 115.1c1.5.8 2.6 2.2 3 3.8.5 2.3.1 4.7-1.2 6.7-.5.8.8 1.6 1.3.8 1.5-2.3 2-5.1 1.4-7.8-.5-2-1.8-3.8-3.7-4.7-.9-.5-1.6.8-.8 1.2z"/></g></g><image width="1122" height="1120" xlink:href="776AA2ED28C51217.png" transform="translate(-260.058 -641.28) scale(.9184)" overflow="visible" opacity=".2"/><path d="M107.8 189c-26.2 0-51.1-9.2-70-25.9S7.9 123.8 7 99.7c-.9-23.2 7.7-45.8 24.1-63.4C49.5 16.6 76.2 4.8 104.4 3.9c1.2 0 2.4-.1 3.6-.1 26.2 0 51.1 9.2 70 25.9s30 39.3 30.9 63.5c.9 23.2-7.7 45.8-24.1 63.4-18.3 19.7-45 31.5-73.2 32.4h-3.8z" fill="none"/></g></g></svg>