<?xml version="1.0" encoding="utf-8"?>
<!-- Generator: Adobe Illustrator 25.2.3, SVG Export Plug-In . SVG Version: 6.00 Build 0)  -->
<svg version="1.1" id="圖層_1" xmlns="http://www.w3.org/2000/svg" xmlns:xlink="http://www.w3.org/1999/xlink" x="0px" y="0px"
	 viewBox="0 0 240 240" style="enable-background:new 0 0 240 240;" xml:space="preserve">
<style type="text/css">
	.st0{fill:none;}
	.st1{fill:#FD414A;}
</style>
<path class="st0" d="M0,0h240v240H0V0z"/>
<g>
	<path class="st1" d="M85,109v0.5l0,3.9v3.5l0,0.3l0,3.3v0.2l0,2.3v0c-2,0-7.6-5.6-9.1-8.3c-1.6-2.7-2.5-6.4,0-8.9
		c2.5-2.4,6.5-2.4,8.9,0l0.2,0.2l0.2-0.2c2.5-2.4,6.5-2.4,8.9,0c2.5,2.4,1.6,6.2,0,8.9c-1.6,2.7-7.2,8.3-9.1,8.3l0-0.9V122l0-3.1
		v-0.3l0-3.4v-0.4l0-3.6v-3.7l0-0.5L85,109z"/>
</g>
<g>
	<path class="st1" d="M155,109v0.5l0,3.9v3.5l0,0.3l0,3.3v0.2l0,2.3v0c-2,0-7.6-5.6-9.1-8.3c-1.6-2.7-2.5-6.4,0-8.9
		c2.5-2.4,6.5-2.4,8.9,0l0.2,0.2l0.2-0.2c2.5-2.4,6.5-2.4,8.9,0c2.5,2.4,1.6,6.2,0,8.9c-1.6,2.7-7.2,8.3-9.1,8.3l0-0.9V122l0-3.1
		v-0.3l0-3.4v-0.4l0-3.6v-3.7l0-0.5L155,109z"/>
</g>
</svg>
