<svg xmlns="http://www.w3.org/2000/svg" width="240" height="240" viewBox="0 0 240 240">
    <g fill="none" fill-rule="evenodd">
        <g>
            <g>
                <path d="M0 0H240V240H0z" transform="translate(-835 -2078) translate(835 2078)"/>
                <path stroke="#324148" stroke-linejoin="round" stroke-width="5.677" d="M79.061 97L86 107 75 104.887" transform="translate(-835 -2078) translate(835 2078) rotate(-15 80.5 102)"/>
                <g fill="#FF918E">
                    <path d="M11.39 0L14 .541 2.61 15 0 14.459zM23.39 0L26 .541 14.61 15 12 14.459zM36.39 0L39 .541 27.61 15 25 14.459zM48.39 0L51 .541 39.61 15 37 14.459z" transform="translate(-835 -2078) translate(835 2078) translate(49 112)"/>
                </g>
                <g fill="#FF918E">
                    <path d="M11.39 0L14 .541 2.61 15 0 14.459zM23.39 0L26 .541 14.61 15 12 14.459zM36.39 0L39 .541 27.61 15 25 14.459zM48.39 0L51 .541 39.61 15 37 14.459z" transform="translate(-835 -2078) translate(835 2078) translate(140 112)"/>
                </g>
                <path stroke="#324148" stroke-linejoin="round" stroke-width="5.677" d="M157.972 97.39L164.912 107.39 153.912 105.277" transform="translate(-835 -2078) translate(835 2078) scale(-1 1) rotate(-17 0 1169.037)"/>
            </g>
        </g>
    </g>
</svg>
