<svg xmlns="http://www.w3.org/2000/svg" width="102" height="59" viewBox="0 0 102 59">
    <g fill="none" fill-rule="evenodd">
        <g>
            <g>
                <path fill="#FF625E" fill-rule="nonzero" d="M12 17L12 44 5 44 5 17z" transform="translate(-133 -60) translate(133 60)"/>
                <path fill="#FEC602" d="M8.5 59c5.667-2.57 8.5-5.44 8.5-8.611 0-4.756-3.806-8.611-8.5-8.611S0 45.633 0 50.388C0 53.56 2.833 56.43 8.5 59z" transform="translate(-133 -60) translate(133 60)"/>
                <path fill="#324148" d="M25.786 23.587V52.06C37.976 56.686 47.214 59 53.5 59c6.286 0 15.524-2.314 27.714-6.941V23.587l-24.656 7.6c-.994.308-2.03.46-3.058.46-1.029 0-2.064-.152-3.058-.46l-24.656-7.6z" transform="translate(-133 -60) translate(133 60)"/>
                <path fill="#415863" fill-rule="nonzero" d="M53.493 0c-.344.001-.686.054-1.015.156L7.443 14.038c-1.45.451-2.437 1.795-2.437 3.315s.987 2.864 2.437 3.315L52.478 34.55c.666.206 1.378.206 2.044 0l45.035-13.882c1.45-.451 2.437-1.795 2.437-3.315s-.987-2.864-2.437-3.315L54.522.156C54.189.052 53.842 0 53.493 0z" transform="translate(-133 -60) translate(133 60)"/>
            </g>
        </g>
    </g>
</svg>
