<svg xmlns="http://www.w3.org/2000/svg" width="223" height="166" viewBox="0 0 223 166">
    <g fill="none" fill-rule="evenodd">
        <g>
            <g>
                <g>
                    <g transform="translate(-39 -216) translate(20 166) translate(10) translate(9 50)">
                        <path fill="#ADC3CD" d="M54.683 152.291c0-8.284 6.716-15 15-15h7.045v-16.564h23.205V158.5c0 4.142-3.358 7.5-7.5 7.5h-30.25c-4.142 0-7.5-3.358-7.5-7.5v-6.209z"/>
                        <path fill="#ADC3CD" d="M124.067 152.291c0-8.284 6.716-15 15-15h7.045v-16.564h23.205V158.5c0 4.142-3.358 7.5-7.5 7.5h-30.25c-4.142 0-7.5-3.358-7.5-7.5v-6.209z" transform="matrix(-1 0 0 1 293.384 0)"/>
                        <path fill="#ADC3CD" d="M3.663 84.029l46.582.19c5.002.021 9.04 4.093 9.02 9.095v.023l-.07 10.48c-.032 5.002-4.114 9.03-9.116 8.997h-.02l-46.584-.407.188-28.378z" transform="scale(-1 1) rotate(30 0 -18.725)"/>
                        <path fill="#ADC3CD" d="M162.864 82.905l46.592.189c5 .02 9.036 4.089 9.016 9.088v.024l-.07 10.492c-.034 4.999-4.113 9.024-9.113 8.991h-.018l-46.596-.405.19-28.379z" transform="rotate(30 190.604 97.337)"/>
                        <rect width="140" height="140" x="41" fill="#ADC3CD" rx="6.036"/>
                        <g>
                            <path stroke="#FFF" stroke-width="6" d="M24 17.455c7.18 0 13 2.725 13-4.455S31.18 0 24 0 11 5.82 11 13s5.82 4.455 13 4.455z" transform="translate(87 46)"/>
                            <path fill="#FFF" d="M39 14c4.97 0 9 4.03 9 9v23c0 4.97-4.03 9-9 9H9c-4.97 0-9-4.03-9-9V23c0-4.97 4.03-9 9-9h30zm-15 8c-2.21 0-4 1.79-4 4 0 1.866 1.278 3.434 3.008 3.875-.005.041-.008.083-.008.125v5c0 .552.448 1 1 1s1-.448 1-1v-5c0-.042-.003-.084-.007-.124C26.722 29.434 28 27.866 28 26c0-2.21-1.79-4-4-4z" transform="translate(87 46)"/>
                        </g>
                    </g>
                </g>
            </g>
        </g>
    </g>
</svg>
