<svg xmlns="http://www.w3.org/2000/svg" width="218" height="164" viewBox="0 0 218 164">
    <g fill="none" fill-rule="evenodd">
        <g>
            <g>
                <g>
                    <g>
                        <g>
                            <g>
                                <g>
                                    <g transform="translate(-362 -283) translate(341 233) translate(10) translate(11 50)">
                                        <g fill="#ADC3CD">
                                            <path d="M44.647 36v1.326c0 4.088-3.314 7.401-7.401 7.401H7.4c-4.088 0-7.401-3.313-7.401-7.4V36h44.647zm0-36v36H0v-4.835c0-8.174 6.627-14.801 14.802-14.801l6.949-.001V0h22.896z" transform="translate(52.001 119.273)"/>
                                            <path d="M113.105 36v1.326c0 4.088-3.313 7.401-7.4 7.401H75.858c-4.087 0-7.4-3.313-7.4-7.4V36h44.646zm0-36v36H68.458v-4.835c0-8.174 6.627-14.801 14.802-14.801l6.95-.001V0h22.895z" transform="translate(52.001 119.273) matrix(-1 0 0 1 181.564 0)"/>
                                        </g>
                                        <g fill="#ADC3CD">
                                            <path d="M3.613 11.867l45.998.212c4.933.023 8.913 4.04 8.89 8.973v.013l-.063 10.378c-.03 4.933-4.053 8.908-8.986 8.878h-.028l-45.982-.427.171-28.027z" transform="translate(0 70.029) scale(-1 1) rotate(30 0 -89.555)"/>
                                            <path d="M158.723 11.867l45.998.212c4.933.023 8.913 4.04 8.89 8.973v.013l-.063 10.378c-.03 4.933-4.053 8.908-8.986 8.878h-.028l-45.982-.427.17-28.027z" transform="translate(0 70.029) rotate(30 186.109 26.135)"/>
                                        </g>
                                        <circle cx="108.054" cy="74" r="74" fill="#ADC3CD"/>
                                        <g>
                                            <path stroke="#FFF" stroke-width="6" d="M24 17.455c7.18 0 13 2.725 13-4.455S31.18 0 24 0 11 5.82 11 13s5.82 4.455 13 4.455z" transform="translate(84 45)"/>
                                            <path fill="#FFF" d="M39 14c4.97 0 9 4.03 9 9v23c0 4.97-4.03 9-9 9H9c-4.97 0-9-4.03-9-9V23c0-4.97 4.03-9 9-9h30zm-15 8c-2.21 0-4 1.79-4 4 0 1.866 1.278 3.434 3.008 3.875-.005.041-.008.083-.008.125v5c0 .552.448 1 1 1s1-.448 1-1v-5c0-.042-.003-.084-.007-.124C26.722 29.434 28 27.866 28 26c0-2.21-1.79-4-4-4z" transform="translate(84 45)"/>
                                        </g>
                                    </g>
                                </g>
                            </g>
                        </g>
                    </g>
                </g>
            </g>
        </g>
    </g>
</svg>
