<svg xmlns="http://www.w3.org/2000/svg" width="65" height="37" viewBox="0 0 65 37">
    <g fill="none" fill-rule="evenodd">
        <g>
            <g>
                <g>
                    <g>
                        <g>
                            <path fill="#FF625E" fill-rule="nonzero" d="M7.573 10.661L7.573 27.593 3.155 27.593 3.155 10.661z" transform="translate(-894 -274) translate(776 215) translate(118 59)"/>
                            <path fill="#FA0" d="M5.364 37c3.576-1.612 5.364-3.412 5.364-5.4 0-2.983-2.401-5.4-5.364-5.4C2.402 26.2 0 28.617 0 31.6c0 1.988 1.788 3.788 5.364 5.4z" transform="translate(-894 -274) translate(776 215) translate(118 59)"/>
                            <path fill="#075D5E" d="M16.273 14.792v17.855C23.965 35.55 29.795 37 33.763 37c3.966 0 9.796-1.451 17.489-4.353V14.792l-15.56 4.765c-.627.194-1.28.29-1.93.29-.65 0-1.302-.096-1.93-.29l-15.56-4.765z" transform="translate(-894 -274) translate(776 215) translate(118 59)"/>
                            <path fill="#107778" fill-rule="nonzero" d="M33.758 0c-.217 0-.433.034-.64.098L4.696 8.804c-.915.282-1.538 1.125-1.538 2.078 0 .954.623 1.796 1.538 2.08l28.42 8.705c.42.129.87.129 1.29 0l28.42-8.706c.915-.283 1.538-1.125 1.538-2.079 0-.953-.623-1.796-1.538-2.078L34.407.098c-.21-.065-.43-.098-.65-.098z" transform="translate(-894 -274) translate(776 215) translate(118 59)"/>
                        </g>
                    </g>
                </g>
            </g>
        </g>
    </g>
</svg>
