<svg xmlns="http://www.w3.org/2000/svg" width="240" height="240" viewBox="0 0 240 240">
    <g fill="none" fill-rule="evenodd">
        <g>
            <g>
                <path d="M0 0H240V240H0z" transform="translate(-1311 -3478) translate(1311 3478)"/>
                <g transform="translate(-1311 -3478) translate(1311 3478) translate(50 29)">
                    <path fill="#884517" d="M40.092 63.995c.045-18.273.916-29.488 2.611-33.645 2.65-6.5 2.925-27.081-12.151-27.085-15.076-.003-18.92 12.31-15.528 27.079 2.173 9.456 9.967 20.905 23.383 34.345.385.386 1.01.387 1.395.002.185-.185.29-.435.29-.696z" transform="rotate(-20 28.988 34.811)"/>
                    <path fill="#884517" d="M119.995 64.98c.046-18.272.916-29.487 2.611-33.644 2.65-6.5 2.926-27.082-12.15-27.085-15.077-.003-18.922 12.31-15.528 27.079 2.172 9.456 9.967 20.905 23.382 34.345.385.386 1.01.386 1.395.001.185-.184.29-.434.29-.695z" transform="scale(-1 1) rotate(-20 0 653.348)"/>
                    <rect width="140" height="140" y="21" fill="#F2C55F" rx="6.036"/>
                    <path fill="#884517" d="M78.8 28.592c.06-6.19.372-10.034.934-11.532.952-2.54 1.054-10.58-4.359-10.578-5.413 0-6.795 4.811-5.579 10.58.717 3.399 3.142 7.456 7.276 12.17.36.41.983.451 1.393.092.21-.185.333-.451.336-.732z" transform="scale(-1 1) rotate(17 0 -481.768)"/>
                    <path fill="#884517" d="M68.856 29.68c-.002-4.304.174-6.93.53-7.878.534-1.422.591-5.925-2.44-5.924-3.03 0-3.804 2.695-3.124 5.926.453 2.154 2.132 4.78 5.034 7.876z" transform="scale(-1 1) rotate(38 0 -170.728)"/>
                    <circle cx="70" cy="101" r="21" fill="#C60016"/>
                    <path stroke="#FFF" stroke-linecap="round" stroke-width="6.906" d="M35 112c3.53 6.667 9.9 8.334 19.11 5M104.417 112c-3.53 6.667-9.9 8.334-19.11 5"/>
                    <ellipse cx="61.872" cy="103.348" fill="#750312" rx="5.872" ry="7.348"/>
                    <ellipse cx="78.083" cy="103.348" fill="#750312" rx="5.872" ry="7.348"/>
                </g>
            </g>
        </g>
    </g>
</svg>
