<svg xmlns="http://www.w3.org/2000/svg" xmlns:xlink="http://www.w3.org/1999/xlink" width="240" height="240" viewBox="0 0 240 240">
    <defs>
        <path id="2c8n3r4kya" d="M0 19.462C3.258 7.004 21.503.526 54.734.027c33.232-.5 51.71 5.979 55.436 19.435l-1.96 61.477c-.914 28.681-24.429 51.459-53.125 51.459S2.875 109.62 1.96 80.939L0 19.462z"/>
    </defs>
    <g fill="none" fill-rule="evenodd">
        <g>
            <g>
                <g fill="#324148">
                    <path d="M4.07 206.436c-4.07-14.82 2.688-31.963 2.328-57.078C6.038 124.243 0 113.908 0 100.824c0-22.026.287-46.115 12.2-64.557C24.91 16.587 33.32 7.027 58.121 1.587 71.006-1.24 83.162-.18 91.384 3.89c8.104 0 22.373 6.8 30.307 13.04C143.95 34.396 145 79.193 145 99.46c0 20.267-6.17 32.746-6.17 49.897 0 17.15 6.17 25.427 6.17 57.078-12.761 0-2.542.538-67.052.091-36.892-.255-55.973-.091-73.878-.091z" transform="translate(-1738.000000, -676.000000) translate(1738.000000, 676.000000) translate(47.954693, 19.486924)"/>
                </g>
                <path fill="#324148" d="M64.726 99.535h112.347l4.417-34.814c-28.37-14.07-48.577-21.064-60.62-20.979-12.043.085-31.753 8.508-59.13 25.27l2.986 30.523z" transform="translate(-1738.000000, -676.000000) translate(1738.000000, 676.000000)"/>
                <g>
                    <path fill="#FFB7A2" d="M41.178 157.493H116.667V224.15699999999998H41.178z" transform="translate(-1738.000000, -676.000000) translate(1738.000000, 676.000000) translate(41.000000, 1.800000)"/>
                    <g>
                        <g>
                            <path fill="#FFD8CD" d="M0 48.851c7.055 0 12.773 5.719 12.773 12.774V72.04c0 7.055-5.718 12.774-12.773 12.774V48.85z" transform="translate(-1738.000000, -676.000000) translate(1738.000000, 676.000000) translate(41.000000, 1.800000) translate(14.352831, 52.983328) translate(6.386695, 66.832842) scale(-1, 1) translate(-6.386695, -66.832842)"/>
                            <path fill="#FFB7A2" d="M116.557 48.851c7.055 0 12.774 5.719 12.774 12.774V72.04c0 7.055-5.72 12.774-12.774 12.774V48.85z" transform="translate(-1738.000000, -676.000000) translate(1738.000000, 676.000000) translate(41.000000, 1.800000) translate(14.352831, 52.983328)"/>
                            <g transform="translate(-1738.000000, -676.000000) translate(1738.000000, 676.000000) translate(41.000000, 1.800000) translate(14.352831, 52.983328) translate(9.373576, 0.000000)">
                                <mask id="eavtolu4ub" fill="#fff">
                                    <use xlink:href="#2c8n3r4kya"/>
                                </mask>
                                <use fill="#FFD8CD" xlink:href="#2c8n3r4kya"/>
                                <path fill="#FFB7A2" d="M110.17.736v131.662H55.617V96.476l-13.131-6.09c-.066-.031-.13-.063-.193-.097l-.188-.106c-1.886-1.137-2.494-3.588-1.357-5.474 1.9-3.15 4.016-6.539 6.35-10.166 3.31-5.14 6.18-9.803 8.614-13.986l-.096.163V.736h54.554z" mask="url(#eavtolu4ub)"/>
                            </g>
                        </g>
                        <path fill="#324148" d="M101.372 61.717c14.31 17.537 22.444 28.673 24.398 33.407.275.665 8.127 15.469 6.404 30.96.84.03 1.578.03 1.723 0 1.52-11.986 1.52-22.306 0-30.96l6.593-33.407C112.77 51.32 92.644 46.124 80.113 46.124c-12.53 0-31.326 5.197-56.387 15.593-2.022 19.802-2.61 31.209-1.763 34.219.336 1.196-2.848 16.142 0 30.148 0 0 1.555-.023 1.763 0 1.14-28.35 5.143-26.51 5.143-26.51s36.598 1.938 45.823-7.188c6.15-6.084 10.359-13.296 12.625-21.636-1.863 9.032-4.698 17.427-8.505 25.186 2.701 2.426 10.22-8.98 22.56-34.22z" transform="translate(-1738.000000, -676.000000) translate(1738.000000, 676.000000) translate(41.000000, 1.800000)"/>
                    </g>
                </g>
            </g>
        </g>
    </g>
</svg>
