<svg xmlns="http://www.w3.org/2000/svg" xmlns:xlink="http://www.w3.org/1999/xlink" width="240" height="240" viewBox="0 0 240 240">
    <defs>
        <path id="uhtnduwina" d="M0 14.353C3.258 5.307 21.503.535 54.734.035c33.232-.499 51.71 4.274 55.436 14.318l-1.96 61.478c-.914 28.68-24.429 51.458-53.125 51.458S2.875 104.512 1.96 75.831L0 14.353z"/>
    </defs>
    <g fill="none" fill-rule="evenodd">
        <g>
            <g>
                <path fill="#324148" d="M139.103 24.887c7.73 0 21.344 6.795 28.913 13.03 21.237 17.45 28.59 61.088 23.37 116.232-2.885 17.073-4.277 23.047-5.51 27.88l-.11.43-.326 1.27-.109.421c-.417 1.619-.839 3.278-1.319 5.38h-.697c-2.551.005-3.724.031-4.804.063l-.28.009c-1.776.054-3.605.12-11.287.126h-1.932c-7.279-.003-19.033-.055-38.728-.198-31.387-.227-56.198 2.71-73.315 3.349l-4.318-25.292 2.398 25.355c-1.377.037-2.7.058-3.969.058-1.854-10.478-4.834-36.498-1.737-69.03 3.097-32.53 5.899-47.7 17.263-66.126C74.734 38.18 83.71 28.021 107.37 22.584c12.293-2.823 23.89-1.763 31.734 2.303z" transform="translate(-1358.000000, -676.000000) translate(1358.000000, 676.000000)"/>
                <g>
                    <path fill="#FFB7A2" d="M41.178 157.493H116.667V224.15699999999998H41.178z" transform="translate(-1358.000000, -676.000000) translate(1358.000000, 676.000000) translate(41.000000, 1.800000)"/>
                    <g>
                        <g>
                            <path fill="#FFD8CD" d="M0 43.743c7.055 0 12.773 5.718 12.773 12.773v10.417c0 7.054-5.718 12.773-12.773 12.773V43.743z" transform="translate(-1358.000000, -676.000000) translate(1358.000000, 676.000000) translate(41.000000, 1.800000) translate(14.352831, 58.091833) translate(6.386695, 61.724337) scale(-1, 1) translate(-6.386695, -61.724337)"/>
                            <path fill="#FFB7A2" d="M116.557 43.743c7.055 0 12.774 5.718 12.774 12.773v10.417c0 7.054-5.72 12.773-12.774 12.773V43.743z" transform="translate(-1358.000000, -676.000000) translate(1358.000000, 676.000000) translate(41.000000, 1.800000) translate(14.352831, 58.091833)"/>
                            <g transform="translate(-1358.000000, -676.000000) translate(1358.000000, 676.000000) translate(41.000000, 1.800000) translate(14.352831, 58.091833) translate(9.373576, -0.000000)">
                                <mask id="ydabtljh6b" fill="#fff">
                                    <use xlink:href="#uhtnduwina"/>
                                </mask>
                                <use fill="#FFD8CD" xlink:href="#uhtnduwina"/>
                                <path fill="#FFB7A2" d="M110.17-4.372v131.661H55.617V91.368l-13.131-6.091c-.066-.03-.13-.063-.193-.096l-.188-.107c-1.886-1.137-2.494-3.587-1.357-5.474 1.9-3.15 4.016-6.538 6.35-10.165 3.31-5.141 6.18-9.803 8.614-13.986l-.096.163V-4.372h54.554z" mask="url(#ydabtljh6b)"/>
                            </g>
                        </g>
                    </g>
                </g>
                <path fill="#324148" d="M50.761 151.304c10.89-7.596 14.025-35.096 38.516-54.936 16.327-13.228 31.337-25.386 45.03-36.476 21.667 13.367 34.957 27.948 39.87 43.742l2.385-44.544H64.117c-21.064 57.505-25.516 88.243-13.356 92.214z" transform="translate(-1358.000000, -676.000000) translate(1358.000000, 676.000000)"/>
            </g>
        </g>
    </g>
</svg>
