<svg xmlns="http://www.w3.org/2000/svg" xmlns:xlink="http://www.w3.org/1999/xlink" width="240" height="240" viewBox="0 0 240 240">
    <defs>
        <path id="z0m7vpdjxa" d="M0 14.353C3.258 5.307 21.503.535 54.734.035c33.232-.499 51.71 4.274 55.436 14.318l-1.96 61.478c-.914 28.68-24.429 51.458-53.125 51.458S2.875 104.512 1.96 75.831L0 14.353z"/>
    </defs>
    <g fill="none" fill-rule="evenodd">
        <g>
            <g>
                <path fill="#324148" d="M43.092 201.38c0-49.198-16.242-181.488 76.832-181.488 93.075 0 77.969 133.037 77.969 181.487 0 48.45-154.8 49.198-154.8 0z" transform="translate(-218.000000, -676.000000) translate(218.000000, 676.000000)"/>
                <g>
                    <path fill="#FFB7A2" d="M41.178 157.493H116.667V224.15699999999998H41.178z" transform="translate(-218.000000, -676.000000) translate(218.000000, 676.000000) translate(41.000000, 1.800000)"/>
                    <g>
                        <g>
                            <path fill="#FFD8CD" d="M0 43.743c7.055 0 12.773 5.718 12.773 12.773v10.417c0 7.054-5.718 12.773-12.773 12.773V43.743z" transform="translate(-218.000000, -676.000000) translate(218.000000, 676.000000) translate(41.000000, 1.800000) translate(14.352831, 58.091833) translate(6.386695, 61.724337) scale(-1, 1) translate(-6.386695, -61.724337)"/>
                            <path fill="#FFB7A2" d="M116.557 43.743c7.055 0 12.774 5.718 12.774 12.773v10.417c0 7.054-5.72 12.773-12.774 12.773V43.743z" transform="translate(-218.000000, -676.000000) translate(218.000000, 676.000000) translate(41.000000, 1.800000) translate(14.352831, 58.091833)"/>
                            <g transform="translate(-218.000000, -676.000000) translate(218.000000, 676.000000) translate(41.000000, 1.800000) translate(14.352831, 58.091833) translate(9.373576, -0.000000)">
                                <mask id="j578a88z0b" fill="#fff">
                                    <use xlink:href="#z0m7vpdjxa"/>
                                </mask>
                                <use fill="#FFD8CD" xlink:href="#z0m7vpdjxa"/>
                                <path fill="#FFB7A2" d="M110.17-4.372v131.661H55.617V91.368l-13.131-6.091c-.066-.03-.13-.063-.193-.096l-.188-.107c-1.886-1.137-2.494-3.587-1.357-5.474 1.9-3.15 4.016-6.538 6.35-10.165 3.31-5.141 6.18-9.803 8.614-13.986l-.096.163V-4.372h54.554z" mask="url(#j578a88z0b)"/>
                            </g>
                        </g>
                    </g>
                </g>
                <path fill="#324148" d="M65.999 101.99c-.263-8.235.707-19.175 2.91-32.82l1.055 21.976h100.639l.915-21.501c1.834 6.412 2.751 16.302 2.751 29.67 0 13.367 1.477-.041 4.43-40.225H64.116c1.517 36.835 2.144 51.135 1.882 42.9z" transform="translate(-218.000000, -676.000000) translate(218.000000, 676.000000)"/>
            </g>
        </g>
    </g>
</svg>
