<svg xmlns="http://www.w3.org/2000/svg" xmlns:xlink="http://www.w3.org/1999/xlink" width="240" height="240" viewBox="0 0 240 240">
    <defs>
        <path id="ivnmn0570a" d="M0 14.419C3.255 5.332 21.481.537 54.68.036c33.197-.502 51.657 4.292 55.38 14.383l-1.968 62.046c-.908 28.65-24.397 51.407-53.062 51.407-28.666 0-52.155-22.756-53.063-51.407L0 14.419z"/>
        <path id="qeyjtdtnsc" d="M6.701 100.546c1.53-1.173 5.46-8.51 5.397-12.164 18.92 0 37.505-17.248 38.036-16.209.53 1.039-10.037 10.55-14.909 12.861 1.071 3.348 44.944-3.697 55.924-23.223.066-.066-4.144 10.014-11.869 17.202 2.506 4.514 21.82-5.163 26.313-14.69.266-.217 4.887 34.607 8.729 36.223.394-.867 1.23-4.265 2.508-10.195.567.188 1.432.51 2.596.967 2.324-12.922 4.298-29.235 4.31-29.507C124.942 46.56 116.83 22.5 98.3 15.513c-1.495-.564 1.538-2.103.037-2.809-3.843-1.807-8.598-2.842-14.481-2.842-1.953.476-10.06-8.086-23.69-9.85-1.874-.243 1.329 3.476 1.226 4.928-.078 1.094-3.165 0-5.372 0-5.952 0-11.466.417-16.54 1.253-3.215.53 1.377 3.84-1.626 5.22-1.648.756-12.994 2.689-14.975 4.1-.824.586 2.566 1.58 1.648 2.032C5.094 27.12 0 54.19 0 59.995c.815 11.07 2.631 22.84 3.416 31.86.928-.498 1.738-.87 2.431-1.117.338 4.186.623 7.455.854 9.808z"/>
    </defs>
    <g fill="none" fill-rule="evenodd">
        <g>
            <g>
                <path fill="#FFB7A2" d="M82.042 158.758H157.5V225.726H82.042z" transform="translate(-3258.000000, -676.000000) translate(3258.000000, 676.000000)"/>
                <g>
                    <g>
                        <path fill="#FFD8CD" d="M0 43.943c7.047 0 12.76 5.713 12.76 12.76V67.31c0 7.048-5.713 12.76-12.76 12.76V43.944z" transform="translate(-3258.000000, -676.000000) translate(3258.000000, 676.000000) translate(55.000000, 12.993130) translate(0.000000, 46.038342) translate(6.380247, 62.006674) scale(-1, 1) translate(-6.380247, -62.006674)"/>
                        <path fill="#FFB7A2" d="M116.44 43.943c7.047 0 12.76 5.713 12.76 12.76V67.31c0 7.048-5.713 12.76-12.76 12.76V43.944z" transform="translate(-3258.000000, -676.000000) translate(3258.000000, 676.000000) translate(55.000000, 12.993130) translate(0.000000, 46.038342)"/>
                        <g transform="translate(-3258.000000, -676.000000) translate(3258.000000, 676.000000) translate(55.000000, 12.993130) translate(0.000000, 46.038342) translate(9.364112, -0.000000)">
                            <mask id="wg9jkhxkkb" fill="#fff">
                                <use xlink:href="#ivnmn0570a"/>
                            </mask>
                            <use fill="#FFD8CD" xlink:href="#ivnmn0570a"/>
                            <path fill="#FFB7A2" d="M110.06-4.392v132.264h-54.5V91.786l-13.136-6.128c-.062-.03-.124-.06-.184-.092l-.18-.101c-1.889-1.132-2.503-3.582-1.37-5.47 1.9-3.174 4.021-6.588 6.36-10.243 3.306-5.164 6.175-9.847 8.606-14.05l-.096.164V-4.392h54.5z" mask="url(#wg9jkhxkkb)"/>
                        </g>
                    </g>
                    <g transform="translate(-3258.000000, -676.000000) translate(3258.000000, 676.000000) translate(55.000000, 12.993130) translate(2.662826, 0.000000)">
                        <use fill="#324148" xlink:href="#qeyjtdtnsc"/>
                    </g>
                </g>
            </g>
        </g>
    </g>
</svg>
