<svg xmlns="http://www.w3.org/2000/svg" xmlns:xlink="http://www.w3.org/1999/xlink" width="240" height="240" viewBox="0 0 240 240">
    <defs>
        <path id="2wtnb3g5oa" d="M0 14.353C3.258 5.307 21.503.535 54.734.035c33.232-.499 51.71 4.274 55.436 14.318l-1.96 61.478c-.914 28.68-24.429 51.458-53.125 51.458S2.875 104.512 1.96 75.831L0 14.353z"/>
    </defs>
    <g fill="none" fill-rule="evenodd">
        <g>
            <g>
                <g>
                    <path fill="#324148" d="M18.979 104.43c-1.982-35.09-.364-46.021 7.44-56.758C34.734 36.23 45.214 24.515 60.7 19.918c15.485-4.598 22.46 1.647 31.11 1.647 3.086 0 9.759-.067 16.199 1.56 12.981 3.279 21.165 11.796 28.289 24.547 7.123 12.751 4.826 40.35.998 56.757 0 0-115.189.408-118.318 0z" transform="translate(-3638.000000, -676.000000) translate(3638.000000, 676.000000) translate(41.000000, 1.800000)"/>
                    <g>
                        <path fill="#FFB7A2" d="M41.178 157.493H116.667V224.15699999999998H41.178z" transform="translate(-3638.000000, -676.000000) translate(3638.000000, 676.000000) translate(41.000000, 1.800000)"/>
                        <g>
                            <g>
                                <path fill="#FFD8CD" d="M0 43.743c7.055 0 12.773 5.718 12.773 12.773v10.417c0 7.054-5.718 12.773-12.773 12.773V43.743z" transform="translate(-3638.000000, -676.000000) translate(3638.000000, 676.000000) translate(41.000000, 1.800000) translate(14.352831, 58.091833) translate(6.386695, 61.724337) scale(-1, 1) translate(-6.386695, -61.724337)"/>
                                <path fill="#FFB7A2" d="M116.557 43.743c7.055 0 12.774 5.718 12.774 12.773v10.417c0 7.054-5.72 12.773-12.774 12.773V43.743z" transform="translate(-3638.000000, -676.000000) translate(3638.000000, 676.000000) translate(41.000000, 1.800000) translate(14.352831, 58.091833)"/>
                                <g transform="translate(-3638.000000, -676.000000) translate(3638.000000, 676.000000) translate(41.000000, 1.800000) translate(14.352831, 58.091833) translate(9.373576, -0.000000)">
                                    <mask id="24htedqdwb" fill="#fff">
                                        <use xlink:href="#2wtnb3g5oa"/>
                                    </mask>
                                    <use fill="#FFD8CD" xlink:href="#2wtnb3g5oa"/>
                                    <path fill="#FFB7A2" d="M110.17-4.372v131.661H55.617V91.368l-13.131-6.091c-.066-.03-.13-.063-.193-.096l-.188-.107c-1.886-1.137-2.494-3.587-1.357-5.474 1.9-3.15 4.016-6.538 6.35-10.165 3.31-5.141 6.18-9.803 8.614-13.986l-.096.163V-4.372h54.554z" mask="url(#24htedqdwb)"/>
                                </g>
                            </g>
                        </g>
                    </g>
                </g>
                <path fill="#324148" d="M133.935 63.569c23.029-3.677 28.924 8.871 32.808 20.317 2.468 7.272.812 23.015 2.271 23.015 4.12-6.545 2.37-13.963 3.62-14.54.105 11.273.833 11.273 1.295 11.47 5.426-2.48 7.946-14.83 7.561-37.045-15.194-15.45-35.545-23.174-61.052-23.174-25.506 0-45.073 6.652-58.698 19.957 2.014 20.376 3.3 33.797 3.858 40.262 6.652-3.681 4.533-10.572 6.257-10.572 0 10.3-2.998 10.572-3.729 13.642 11.814 2.153 17.037-9.542 21.15-21.48 2.454-7.12 3.139-14.453 8.388-18.635 8.653-6.894 24.003-8.885 36.271-3.217z" transform="translate(-3638.000000, -676.000000) translate(3638.000000, 676.000000)"/>
            </g>
        </g>
    </g>
</svg>
