<svg xmlns="http://www.w3.org/2000/svg" xmlns:xlink="http://www.w3.org/1999/xlink" width="240" height="240" viewBox="0 0 240 240">
    <defs>
        <path id="sv3r7wloba" d="M0 14.336C3.252 5.3 21.464.534 54.637.036c33.172-.5 51.618 4.267 55.337 14.3l-1.957 61.43c-.912 28.63-24.385 51.366-53.03 51.366S2.869 104.395 1.957 75.765L0 14.335z"/>
        <path id="mph0ycshqc" d="M9.549 111.248l2.903-36.238c12.93-6.177 30.029-9.266 51.298-9.266 21.268 0 37.64 3.089 49.113 9.266l2.72 37.574c7.231-30.939 10.853-46.552 10.866-46.84 0-6.566-2.43-13.186-8.805-25.35-4.25-8.11-14.024-20.251-29.322-36.427l-1.757 4.296L80.114 0 59.255 10.356v-5.01c-26.128 14.288-42.792 25.97-49.99 35.048-7.2 9.078-10.203 17.528-9.01 25.35l9.294 45.504z"/>
    </defs>
    <g fill="none" fill-rule="evenodd">
        <g>
            <g>
                <path fill="#FFB7A2" d="M82.021 159.219H157.421V225.8H82.021z" transform="translate(-2878.000000, -676.000000) translate(2878.000000, 676.000000)"/>
                <g>
                    <g>
                        <path fill="#FFD8CD" d="M0 43.689c7.042 0 12.75 5.708 12.75 12.75v10.418c0 7.042-5.708 12.75-12.75 12.75V43.69z" transform="translate(-2878.000000, -676.000000) translate(2878.000000, 676.000000) translate(55.000000, 5.800000) translate(0.000000, 54.279579) translate(6.375309, 61.648113) scale(-1, 1) translate(-6.375309, -61.648113)"/>
                        <path fill="#FFB7A2" d="M116.35 43.689c7.041 0 12.75 5.708 12.75 12.75v10.418c0 7.042-5.709 12.75-12.75 12.75V43.69z" transform="translate(-2878.000000, -676.000000) translate(2878.000000, 676.000000) translate(55.000000, 5.800000) translate(0.000000, 54.279579)"/>
                        <g transform="translate(-2878.000000, -676.000000) translate(2878.000000, 676.000000) translate(55.000000, 5.800000) translate(0.000000, 54.279579) translate(9.356865, -0.000000)">
                            <mask id="angh3fya6b" fill="#fff">
                                <use xlink:href="#sv3r7wloba"/>
                            </mask>
                            <use fill="#FFD8CD" xlink:href="#sv3r7wloba"/>
                            <path fill="#FFB7A2" d="M109.974-4.367v131.5H55.518l-.001-35.879-13.102-6.08c-.065-.03-.13-.062-.192-.096l-.187-.106c-1.887-1.136-2.495-3.587-1.358-5.474 1.895-3.145 4.007-6.528 6.336-10.15 3.303-5.134 6.17-9.79 8.599-13.968l-.096.164V-4.367h54.457z" mask="url(#angh3fya6b)"/>
                        </g>
                    </g>
                    <g transform="translate(-2878.000000, -676.000000) translate(2878.000000, 676.000000) translate(55.000000, 5.800000) translate(1.892701, 0.000000)">
                        <use fill="#324148" xlink:href="#mph0ycshqc"/>
                    </g>
                </g>
            </g>
        </g>
    </g>
</svg>
