<svg xmlns="http://www.w3.org/2000/svg" xmlns:xlink="http://www.w3.org/1999/xlink" width="240" height="240" viewBox="0 0 240 240">
    <defs>
        <path id="sk2d7xc17a" d="M0 14.419C3.255 5.332 21.481.537 54.68.036c33.197-.502 51.657 4.292 55.38 14.383l-1.968 62.046c-.908 28.65-24.397 51.407-53.062 51.407-28.666 0-52.155-22.756-53.063-51.407L0 14.419z"/>
        <path id="5dwgqsf3rc" d="M5.136 81.274l3.386-21.315 7.058-7.48c.88 4.84 1.386 7.176 1.516 7.01 4.626 0 10.408-1.825 17.346-5.473l-.79 5.93c9.355-.02 17.322-2.51 23.902-7.467l1.192 7.48c7.86.665 17.368-2.318 28.521-8.948.045-.044.35 2.312.918 7.068 5.29-.154 10.393-1.901 15.306-5.24.178-.145 1.997 2.25 5.457 7.183l3.532 21.613c4.06-20.264 6.098-30.541 6.11-30.83 0-18.694-1.34-44.332-30.612-44.332C85.554 7.064 86.547 0 60.143 0 22.925 0 2.878 16.33 0 48.988l5.136 32.286z"/>
    </defs>
    <g fill="none" fill-rule="evenodd">
        <g>
            <g>
                <path fill="#FFB7A2" d="M82.042 158.758H157.5V225.726H82.042z" transform="translate(-2498.000000, -676.000000) translate(2498.000000, 676.000000)"/>
                <g>
                    <g>
                        <path fill="#FFD8CD" d="M0 43.943c7.047 0 12.76 5.713 12.76 12.76V67.31c0 7.048-5.713 12.76-12.76 12.76V43.944z" transform="translate(-2498.000000, -676.000000) translate(2498.000000, 676.000000) translate(55.000000, 24.000000) translate(0.000000, 35.031472) translate(6.380247, 62.006674) scale(-1, 1) translate(-6.380247, -62.006674)"/>
                        <path fill="#FFB7A2" d="M116.44 43.943c7.047 0 12.76 5.713 12.76 12.76V67.31c0 7.048-5.713 12.76-12.76 12.76V43.944z" transform="translate(-2498.000000, -676.000000) translate(2498.000000, 676.000000) translate(55.000000, 24.000000) translate(0.000000, 35.031472)"/>
                        <g transform="translate(-2498.000000, -676.000000) translate(2498.000000, 676.000000) translate(55.000000, 24.000000) translate(0.000000, 35.031472) translate(9.364112, -0.000000)">
                            <mask id="duvu332cvb" fill="#fff">
                                <use xlink:href="#sk2d7xc17a"/>
                            </mask>
                            <use fill="#FFD8CD" xlink:href="#sk2d7xc17a"/>
                            <path fill="#FFB7A2" d="M110.06-4.392v132.264h-54.5V91.786l-13.136-6.128c-.062-.03-.124-.06-.184-.092l-.18-.101c-1.889-1.132-2.503-3.582-1.37-5.47 1.9-3.174 4.021-6.588 6.36-10.243 3.306-5.164 6.175-9.847 8.606-14.05l-.096.164V-4.392h54.5z" mask="url(#duvu332cvb)"/>
                        </g>
                    </g>
                    <g transform="translate(-2498.000000, -676.000000) translate(2498.000000, 676.000000) translate(55.000000, 24.000000) translate(5.833690, 0.000000)">
                        <use fill="#324148" xlink:href="#5dwgqsf3rc"/>
                    </g>
                </g>
            </g>
        </g>
    </g>
</svg>
