<svg xmlns="http://www.w3.org/2000/svg" xmlns:xlink="http://www.w3.org/1999/xlink" width="240" height="240" viewBox="0 0 240 240">
    <defs>
        <path id="9ygyoi25sa" d="M9.537 38.736c3.253-9.01 21.469-13.763 54.647-14.26 33.178-.498 51.627 4.255 55.347 14.26l-1.953 61.108c-.915 28.636-24.393 51.376-53.044 51.376-28.65 0-52.129-22.74-53.044-51.376L9.537 38.736z"/>
        <path id="avuttw9gbc" d="M10.358 76.246c2.553-6.472 4.113-12.228 4.682-17.267.463-4.103.494-10.748.092-19.935-.055-1.26.686-2.418 1.852-2.895 8.345-3.416 24.303-5.123 47.873-5.123 19.922-.016 35.192 1.215 45.812 3.692 1.407.328 2.377 1.617 2.304 3.06-.501 9.911-.683 16.75-.546 20.518.23 6.3 1.693 12.73 4.39 19.29C128.458 27.766 111.968 1.905 67.346 0 18.29-.183-.707 25.232 10.357 76.246z"/>
        <linearGradient id="ias0qsdh8d" x1="50%" x2="50%" y1="20.676%" y2="83.818%">
            <stop offset="0%" stop-color="#647780" stop-opacity="0"/>
            <stop offset="100%" stop-color="#9E9997"/>
        </linearGradient>
    </defs>
    <g fill="none" fill-rule="evenodd">
        <g>
            <g>
                <path fill="#FFB7A2" d="M84.882 154.817H160.29500000000002V225.817H84.882z" transform="translate(-2118.000000, -676.000000) translate(2118.000000, 676.000000)"/>
                <g transform="translate(-2118.000000, -676.000000) translate(2118.000000, 676.000000) translate(55.413333, 36.000000)">
                    <mask id="8mdw4r86ab" fill="#fff">
                        <use xlink:href="#9ygyoi25sa"/>
                    </mask>
                    <use fill="#FFD8CD" xlink:href="#9ygyoi25sa"/>
                    <path fill="#FFB7A2" d="M119.53 20.085V151.22H65.063v-35.778l-14.106-6.528c-.048-.022-.096-.046-.143-.07l-.138-.079c-1.415-.848-1.875-2.682-1.027-4.097 2.04-3.402 4.343-7.093 6.91-11.071 3.303-5.12 6.17-9.764 8.6-13.93l-.096.162V20.085h54.467z" mask="url(#8mdw4r86ab)"/>
                    <path fill="#FFD8CD" d="M0 72.332c7.043 0 12.753 5.71 12.753 12.753v10.314c0 7.043-5.71 12.752-12.753 12.752v-35.82z" transform="translate(6.376442, 90.241627) scale(-1, 1) translate(-6.376442, -90.241627)"/>
                    <path fill="#FFB7A2" d="M116.37 72.332c7.043 0 12.753 5.71 12.753 12.753v10.314c0 7.043-5.71 12.752-12.753 12.752v-35.82z"/>
                    <g>
                        <use fill="#324148" xlink:href="#avuttw9gbc"/>
                        <use fill="url(#ias0qsdh8d)" xlink:href="#avuttw9gbc"/>
                    </g>
                </g>
            </g>
        </g>
    </g>
</svg>
