<svg xmlns="http://www.w3.org/2000/svg" xmlns:xlink="http://www.w3.org/1999/xlink" width="240" height="240" viewBox="0 0 240 240">
    <defs>
        <path id="xdttqngqna" d="M0 14.353C3.258 5.307 21.503.535 54.734.035c33.232-.499 51.71 4.274 55.436 14.318l-1.96 61.478c-.914 28.68-24.429 51.458-53.125 51.458S2.875 104.512 1.96 75.831L0 14.353z"/>
    </defs>
    <g fill="none" fill-rule="evenodd">
        <g>
            <g>
                <g>
                    <path fill="#324148" d="M2.647 188.825c0-16.494 10.127-29.333 3.013-33.332-7.114-3.999-10.227-21.111 7.28-52.063 7.019-12.41 2.205-18.706 8.073-33.16 5.869-14.455 7.262-11.861 15.066-22.598 8.317-11.443 13.609-21.51 29.094-26.107 15.486-4.598 14.648 0 23.299 0 3.085 0 5.737-3.496 12.585-3.496 19.426 0 41.162 27.851 47.836 37.254 2.935 6.23 5.645 14.684 7.853 27.95 2.969 17.84 10.714 27.925 10.714 33.99 0 6.063-4.176 16.926-5.261 22.816-2.323 12.608-2.323 12.608 0 23.161 2.322 10.554 11.345 27.585 1.386 60.917-.8 2.678-3.146 6.187-7.037 10.525H12.94c-1.923-4.792-2.884-11.594-2.884-20.406 0-8.692-7.409-11.1-7.409-25.451z" transform="translate(-978.000000, -676.000000) translate(978.000000, 676.000000) translate(31.339618, 1.800000)"/>
                    <g>
                        <path fill="#FFB7A2" d="M41.178 157.493H116.667V224.15699999999998H41.178z" transform="translate(-978.000000, -676.000000) translate(978.000000, 676.000000) translate(31.339618, 1.800000) translate(9.660382, 0.000000)"/>
                        <g>
                            <g>
                                <path fill="#FFD8CD" d="M0 43.743c7.055 0 12.773 5.718 12.773 12.773v10.417c0 7.054-5.718 12.773-12.773 12.773V43.743z" transform="translate(-978.000000, -676.000000) translate(978.000000, 676.000000) translate(31.339618, 1.800000) translate(9.660382, 0.000000) translate(14.352831, 58.091833) translate(6.386695, 61.724337) scale(-1, 1) translate(-6.386695, -61.724337)"/>
                                <path fill="#FFB7A2" d="M116.557 43.743c7.055 0 12.774 5.718 12.774 12.773v10.417c0 7.054-5.72 12.773-12.774 12.773V43.743z" transform="translate(-978.000000, -676.000000) translate(978.000000, 676.000000) translate(31.339618, 1.800000) translate(9.660382, 0.000000) translate(14.352831, 58.091833)"/>
                                <g transform="translate(-978.000000, -676.000000) translate(978.000000, 676.000000) translate(31.339618, 1.800000) translate(9.660382, 0.000000) translate(14.352831, 58.091833) translate(9.373576, -0.000000)">
                                    <mask id="nob24jhmpb" fill="#fff">
                                        <use xlink:href="#xdttqngqna"/>
                                    </mask>
                                    <use fill="#FFD8CD" xlink:href="#xdttqngqna"/>
                                    <path fill="#FFB7A2" d="M110.17-4.372v131.661H55.617V91.368l-13.131-6.091c-.066-.03-.13-.063-.193-.096l-.188-.107c-1.886-1.137-2.494-3.587-1.357-5.474 1.9-3.15 4.016-6.538 6.35-10.165 3.31-5.141 6.18-9.803 8.614-13.986l-.096.163V-4.372h54.554z" mask="url(#nob24jhmpb)"/>
                                </g>
                            </g>
                        </g>
                    </g>
                </g>
                <path fill="#324148" d="M120.735 63.569c15.99-1.458 33.177 9.99 38.932 21.14 7.218 13.983 15.23 24.23 30.09 30.632 5.425-2.481 2.67-18.666-8.267-48.555-15.194-15.45-35.545-23.174-61.052-23.174-25.506 0-45.073 6.652-58.698 19.957-10.122 58.445-10.122 84.918 0 79.418-1.183-14.516-1.107-17.467 6.386-21.37 29.538-15.388 17.226-43.844 31.83-54.831 6.212-4.675 18.822-3.039 20.78-3.217z" transform="translate(-978.000000, -676.000000) translate(978.000000, 676.000000)"/>
                <path stroke="#324148" stroke-width="2" d="M112.693 62.36c-5.148-1.476-15.65 3.451-17.795 10.93-2.144 7.48.813 28.588-21.3 28.835M182.716 76.474c4.02 10.47 7.75 17.479 11.187 21.026 5.156 5.322 12.594 18.87-2.461 26.771M39.738 152.048c-1.675 10.799-3.326 18.046-4.95 21.742-2.438 5.543-5.745 19.556 2.212 27.384" transform="translate(-978.000000, -676.000000) translate(978.000000, 676.000000)"/>
            </g>
        </g>
    </g>
</svg>
