<svg width="160" height="160" viewBox="0 0 160 160" fill="none" xmlns="http://www.w3.org/2000/svg">
<path d="M0 0H160V160H0V0Z" fill="#F3E7DF"/>
<path d="M78.9735 62.2935L37.4219 71.7781L76.2636 89.3924L125.493 70.4231L78.9735 62.2935Z" fill="#DDB295"/>
<path d="M74.1311 114.471C73.8329 114.471 73.5347 114.322 73.3359 114.074L71.646 111.837L69.7574 114.123C69.4095 114.521 68.7633 114.62 68.3657 114.272C67.9681 113.925 67.8687 113.278 68.2166 112.881L70.9005 109.65C71.0993 109.402 71.3478 109.302 71.6957 109.302C71.994 109.302 72.2922 109.451 72.4413 109.7L74.8767 112.93C75.2246 113.378 75.1252 113.974 74.6778 114.322C74.5784 114.422 74.3796 114.471 74.1311 114.471Z" fill="#EC8822"/>
<path d="M91.9749 114.471C91.6767 114.471 91.3785 114.322 91.1796 114.074L89.4898 111.837L87.6011 114.123C87.2532 114.521 86.6071 114.62 86.2095 114.272C85.8118 113.925 85.7124 113.278 86.0604 112.881L88.7442 109.65C88.943 109.402 89.1916 109.302 89.5395 109.302C89.8377 109.302 90.1359 109.451 90.285 109.7L92.7204 112.93C93.0683 113.378 92.9689 113.974 92.5216 114.322C92.4222 114.422 92.2234 114.471 91.9749 114.471Z" fill="#EC8822"/>
<path d="M80.0961 43.8447C63.2472 43.8447 49.6289 57.3139 49.6289 73.8646C49.6289 91.2603 57.3327 103.885 68.3168 109.103C70.6528 110.197 73.3367 109.998 75.5733 108.805C76.9152 108.06 78.456 107.662 80.0961 107.662C81.7363 107.662 83.2771 108.06 84.619 108.805C86.8556 110.048 89.5892 110.197 91.8755 109.103C102.86 103.885 110.563 91.2603 110.563 73.8646C110.613 57.3139 96.9451 43.8447 80.0961 43.8447Z" fill="#E7E4E2"/>
<path d="M93.5651 51.1014C90.583 50.9026 87.7003 51.5487 85.2649 52.7913C82.084 54.4314 78.3563 54.4314 75.1754 52.7913C72.6903 51.5487 69.8573 50.9026 66.8752 51.1014C59.0223 51.6481 52.6605 58.01 52.1138 65.8629C51.4676 75.1571 58.8235 82.9106 67.9687 82.9106C70.6028 82.9106 73.0879 82.2645 75.2748 81.1213C78.3563 79.5309 82.084 79.5309 85.1655 81.1213C87.3524 82.2645 89.8375 82.9106 92.4717 82.9106C101.617 82.9106 108.973 75.1571 108.327 65.8629C107.78 57.9603 101.418 51.5984 93.5651 51.1014Z" fill="white"/>
<path d="M68.5656 99.6594C67.1739 99.1624 66.2296 98.0193 65.8817 96.7271C65.2853 98.566 66.2296 100.504 68.0189 101.15C69.8081 101.797 71.7962 100.902 72.5417 99.1127C71.3986 99.908 69.9572 100.156 68.5656 99.6594Z" fill="#989899"/>
<path d="M81.4381 101.598C79.9968 101.548 78.7045 100.753 77.959 99.6099C77.959 101.499 79.45 103.089 81.3884 103.188C83.2771 103.288 84.9172 101.797 85.0663 99.9081C84.2214 101.002 82.9292 101.648 81.4381 101.598Z" fill="#989899"/>
<path d="M93.0191 99.262C94.4108 98.765 95.3551 97.6218 95.703 96.3296C96.2994 98.1686 95.3551 100.107 93.5658 100.753C91.7766 101.399 89.7885 100.505 89.043 98.7153C90.1861 99.5105 91.6772 99.759 93.0191 99.262Z" fill="#989899"/>
<path d="M72.691 92.7014C71.2496 92.4032 70.1065 91.4589 69.5598 90.2163C69.2615 92.105 70.5041 93.8943 72.3928 94.2919C74.2814 94.6398 76.0707 93.4469 76.5677 91.608C75.524 92.5026 74.1323 92.9996 72.691 92.7014Z" fill="#989899"/>
<path d="M87.5525 92.7014C88.9939 92.4032 90.137 91.4589 90.6837 90.2163C90.982 92.105 89.7394 93.8943 87.8507 94.2919C85.9621 94.6398 84.1728 93.4469 83.6758 91.608C84.7195 92.5026 86.1609 92.9996 87.5525 92.7014Z" fill="#989899"/>
<path d="M66.6261 72.326C69.975 72.326 72.6897 69.6112 72.6897 66.2624C72.6897 62.9135 69.975 60.1987 66.6261 60.1987C63.2773 60.1987 60.5625 62.9135 60.5625 66.2624C60.5625 69.6112 63.2773 72.326 66.6261 72.326Z" fill="white" stroke="#D9DADB" stroke-miterlimit="10"/>
<path d="M93.9132 72.2742C97.2621 72.2742 99.9769 69.5595 99.9769 66.2106C99.9769 62.8618 97.2621 60.147 93.9132 60.147C90.5644 60.147 87.8496 62.8618 87.8496 66.2106C87.8496 69.5595 90.5644 72.2742 93.9132 72.2742Z" fill="white" stroke="#D9DADB" stroke-miterlimit="10"/>
<path d="M66.4777 70.8827C69.0305 70.8827 71.1 68.8133 71.1 66.2605C71.1 63.7077 69.0305 61.6382 66.4777 61.6382C63.9249 61.6382 61.8555 63.7077 61.8555 66.2605C61.8555 68.8133 63.9249 70.8827 66.4777 70.8827Z" fill="#231F20"/>
<path d="M65.3355 66.7076C66.2413 66.7076 66.9756 65.9733 66.9756 65.0674C66.9756 64.1616 66.2413 63.4272 65.3355 63.4272C64.4296 63.4272 63.6953 64.1616 63.6953 65.0674C63.6953 65.9733 64.4296 66.7076 65.3355 66.7076Z" fill="white"/>
<path d="M93.9133 70.8827C96.4661 70.8827 98.5355 68.8133 98.5355 66.2605C98.5355 63.7077 96.4661 61.6382 93.9133 61.6382C91.3605 61.6382 89.291 63.7077 89.291 66.2605C89.291 68.8133 91.3605 70.8827 93.9133 70.8827Z" fill="#231F20"/>
<path d="M92.771 66.7076C93.6769 66.7076 94.4112 65.9733 94.4112 65.0674C94.4112 64.1616 93.6769 63.4272 92.771 63.4272C91.8652 63.4272 91.1309 64.1616 91.1309 65.0674C91.1309 65.9733 91.8652 66.7076 92.771 66.7076Z" fill="white"/>
<path d="M77.709 68.2485L80.3929 72.9702L82.7289 68.2485C82.6792 68.2485 80.2438 66.8072 77.709 68.2485Z" fill="#EC8822"/>
<path d="M37.4219 111.83V71.7778L77.1669 79.4646V124.169L37.4219 111.83Z" fill="#FFE4D1"/>
<path d="M125.493 70.4229L76.2637 79.5708V124.169L125.493 112.221V70.4229Z" fill="#FFDBC4"/>
<path d="M55.1217 97.2576C52.98 111.681 58.6911 116.971 62.2606 120.204C60.1189 119.396 56.5495 118.237 53.6939 117.582C51.5522 114.348 46.5549 110.37 49.4105 96.602C50.86 89.6135 47.2688 82.8636 40.8438 77.2046C47.9827 79.6299 57.1436 83.6403 55.1217 97.2576Z" fill="#F3C7A9"/>
<path d="M22.9973 85.2886L18 84.4802C20.5929 82.0945 37.2752 72.3437 47.9836 80.2111C39.4169 75.0371 25.3769 86.3665 21.5695 92.5645L22.9973 85.2886Z" fill="#FFF8F3"/>
<path d="M104.755 99.3108C104.025 89.0869 106.946 81.0538 113.518 73.751C108.406 85.4355 110.11 91.5176 112.058 99.3108C114.249 108.074 112.058 110.995 110.597 116.107L101.104 118.298C104.268 113.43 105.339 107.49 104.755 99.3108Z" fill="#F3C7A9"/>
<path d="M135.428 72.6306C133.237 71.17 121.139 65.3278 113.105 74.0912C118.363 71.1701 127.882 76.7688 131.777 79.9333L128.856 74.0911C129.829 74.0911 132.507 73.799 135.428 72.6306Z" fill="#FFF8F3"/>
<path d="M75.8422 46.7267C74.3434 38.8095 66.4347 28.325 61.4468 27.1818C65.2176 26.2042 68.3794 25.0279 68.3794 25.0279C68.3794 25.0279 75.8685 23.2374 79.4217 47.9129L75.8422 46.7267Z" fill="#F5DAC8"/>
<path d="M58.7133 26.2081C64.402 24.7586 66.8728 24.9407 69.2412 25.0276C51.0241 29.2219 66.3207 43.6836 79.7826 47.8448C48.7997 47.3067 49.8626 29.9622 58.7133 26.2081Z" fill="#FFF8F3"/>
<path d="M83.7318 46.5677C85.9221 38.8134 94.7236 29.0661 99.7928 28.3667C96.1227 27.0608 93.0769 25.6106 93.0769 25.6106C93.0769 25.6106 85.7745 23.1674 80.0617 47.434L83.7318 46.5677Z" fill="#F5DAC8"/>
<path d="M102.603 27.6375C97.0642 25.6926 94.587 25.6564 92.2202 25.5343C109.997 31.3169 93.4861 44.375 79.71 47.3344C110.62 49.5273 111.089 32.1566 102.603 27.6375Z" fill="#FFF8F3"/>
<path d="M82.2168 49.4283C82.2168 49.4283 84.5528 46.6947 87.8828 45.8497C90.7158 45.1042 89.5727 43.1161 86.9882 44.5575C84.851 45.7503 82.2168 49.4283 82.2168 49.4283Z" fill="#989899"/>
<path d="M80.5267 48.6829C80.5267 48.6829 80.0296 45.502 77.8925 43.7127C76.3517 42.4205 77.296 41.1282 78.0416 41.0785C79.4829 40.8797 80.6758 43.0169 80.5267 48.6829Z" fill="#989899"/>
<path d="M79.0354 48.2358C79.0354 48.2358 74.5125 42.9177 71.6795 44.3094C69.6914 45.2537 75.9042 46.198 79.0354 48.2358Z" fill="#989899"/>
</svg>
