<svg width="40" height="40" viewBox="0 0 40 40" fill="none" xmlns="http://www.w3.org/2000/svg">
<g clip-path="url(#clip0_353_4106)">
<path fill-rule="evenodd" clip-rule="evenodd" d="M23.5894 2.56135C22.4499 2.28667 21.2549 2.70072 20.5296 3.62145L3.02241 25.8473C1.97109 27.182 2.2369 29.1226 3.60841 30.1254L11.1834 35.6641C12.4871 36.6173 14.3115 36.3674 15.3108 35.0987L32.855 12.8259C33.6287 11.8436 33.7121 10.4845 33.0643 9.41512L30.4703 5.1331C30.0558 4.44886 29.3852 3.95851 28.6074 3.77103L23.5894 2.56135ZM27.7594 9.28954C28.3915 9.26552 28.8845 8.73362 28.8605 8.1015C28.8364 7.46939 28.3045 6.97643 27.6724 7.00045C27.0403 7.02447 26.5473 7.55637 26.5714 8.18848C26.5954 8.82059 27.1273 9.31355 27.7594 9.28954Z" fill="#009891"/>
<mask id="mask0_353_4106" style="mask-type:alpha" maskUnits="userSpaceOnUse" x="2" y="2" width="32" height="35">
<path fill-rule="evenodd" clip-rule="evenodd" d="M23.5894 2.56135C22.4499 2.28667 21.2549 2.70072 20.5296 3.62145L3.02241 25.8473C1.97109 27.182 2.2369 29.1226 3.60841 30.1254L11.1834 35.6641C12.4871 36.6173 14.3115 36.3674 15.3108 35.0987L32.855 12.8259C33.6287 11.8436 33.7121 10.4845 33.0643 9.41512L30.4703 5.1331C30.0558 4.44886 29.3852 3.95851 28.6074 3.77103L23.5894 2.56135ZM28.4663 8.39497C29.0444 8.373 29.4953 7.88654 29.4733 7.30842C29.4514 6.73031 28.9649 6.27946 28.3868 6.30143C27.8087 6.32339 27.3578 6.80986 27.3798 7.38797C27.4018 7.96608 27.8882 8.41693 28.4663 8.39497Z" fill="#009891"/>
</mask>
<g mask="url(#mask0_353_4106)">
<path d="M39.0757 23.3207C40.9725 30.1252 36.9941 37.179 30.1896 39.0758C23.3851 40.9726 16.3313 36.9942 14.4345 30.1897C14.2947 29.6882 14.1868 29.1854 14.1096 28.6833C13.9833 27.8614 13.9391 27.0416 13.9719 26.2335C14.0059 25.3981 14.122 24.5751 14.3144 23.775C15.3646 19.4085 18.6875 15.7262 23.3206 14.4346C30.1251 12.5378 37.1789 16.5162 39.0757 23.3207Z" fill="#00827B"/>
</g>
<path d="M25.1178 17.7854C25.9183 16.7382 27.4952 16.7382 28.2957 17.7854L28.9576 18.6513C29.3931 19.2211 30.1004 19.514 30.8112 19.4191L31.8916 19.2749C33.1981 19.1004 34.3131 20.2154 34.1387 21.5219L33.9944 22.6023C33.8995 23.3131 34.1925 24.0204 34.7622 24.4559L35.6281 25.1178C36.6753 25.9183 36.6753 27.4952 35.6281 28.2957L34.7622 28.9576C34.1925 29.3931 33.8995 30.1004 33.9944 30.8112L34.1387 31.8916C34.3131 33.1981 33.1981 34.3131 31.8916 34.1387L30.8112 33.9944C30.1004 33.8995 29.3931 34.1925 28.9576 34.7622L28.2957 35.6281C27.4952 36.6753 25.9183 36.6753 25.1178 35.6281L24.4559 34.7622C24.0204 34.1925 23.3131 33.8995 22.6023 33.9944L21.5219 34.1387C20.2154 34.3131 19.1004 33.1981 19.2749 31.8916L19.4191 30.8112C19.514 30.1004 19.2211 29.3931 18.6513 28.9576L17.7854 28.2957C16.7382 27.4952 16.7382 25.9183 17.7854 25.1178L18.6513 24.4559C19.2211 24.0204 19.514 23.3131 19.4191 22.6023L19.2749 21.522C19.1004 20.2154 20.2154 19.1004 21.5219 19.2749L22.6023 19.4191C23.3131 19.514 24.0204 19.2211 24.4559 18.6513L25.1178 17.7854Z" fill="#FA5669"/>
<path fill-rule="evenodd" clip-rule="evenodd" d="M29.9986 21.9898C29.5938 21.68 29.0144 21.7571 28.7046 22.162L22.6153 30.1199C22.3055 30.5248 22.3826 31.1041 22.7875 31.4139C23.1923 31.7237 23.7717 31.6466 24.0815 31.2418L30.1708 23.2838C30.4806 22.879 30.4035 22.2996 29.9986 21.9898ZM24.7103 22.6859C25.52 23.3055 25.6741 24.4642 25.0545 25.2739C24.4349 26.0836 23.2763 26.2378 22.4665 25.6182C21.6568 24.9986 21.5027 23.8399 22.1223 23.0302C22.7419 22.2204 23.9005 22.0663 24.7103 22.6859ZM31.1717 27.3011C31.9814 27.9207 32.1355 29.0794 31.5159 29.8891C30.8964 30.6989 29.7377 30.853 28.9279 30.2334C28.1182 29.6138 27.9641 28.4551 28.5837 27.6454C29.2033 26.8357 30.3619 26.6815 31.1717 27.3011Z" fill="white"/>
</g>
<defs>
<clipPath id="clip0_353_4106">
<rect width="40" height="40" fill="white"/>
</clipPath>
</defs>
</svg>
