<svg width="100" height="82" viewBox="0 0 100 82" fill="none" xmlns="http://www.w3.org/2000/svg">
<g clip-path="url(#clip0_20111_86430)">
<path d="M36.9343 73.7431C25.2885 62.1324 23.3475 44.3386 16.0571 47.4537C10.5656 49.8136 20.4124 64.8227 20.4124 64.8227C20.4124 64.8227 17.6667 58.4509 13.8794 60.4332C9.76078 62.6043 18.7081 70.8169 21.88 73.2712C21.88 73.2712 16.1044 68.2682 15.631 69.5897C14.1635 73.5544 21.1698 81.8141 29.1704 80.1149C34.2832 79.0294 40.6268 77.4246 36.9343 73.7431Z" fill="#989899"/>
<path d="M76.2274 66.7579C90.0982 75.7728 99.8977 75.2064 99.519 80.587C99.1402 86.2036 88.1572 80.3038 88.1572 80.3038C88.1572 80.3038 92.6072 83.2773 91.329 85.354C89.3881 88.5163 84.9854 84.6932 81.9556 82.3805C81.9556 82.3805 85.1274 84.2685 84.2753 86.2508C82.9971 89.2243 72.3928 83.9381 71.9194 76.1976C71.588 71.1946 72.0614 64.0204 76.2274 66.7579Z" fill="#989899"/>
<path d="M77.5049 69.401C77.5049 69.401 77.5049 69.401 77.4576 69.4482C75.5166 56.8935 64.5336 47.3122 51.2309 47.3122C36.5553 47.3122 24.6729 58.9702 24.6729 73.3656C24.6729 88.4691 31.3952 99.4191 40.9107 103.95C42.4256 104.658 44.0825 104.752 45.6921 104.328C46.5442 104.139 47.8224 103.431 50.3314 100.41C52.9825 97.2008 62.0719 97.2951 64.1549 97.7199C67.2794 98.2863 71.3033 100.646 75.0905 97.012C78.357 93.8497 79.0198 77.6607 77.5049 69.401Z" fill="#E7E4E2"/>
<path d="M62.8767 53.5896C60.273 53.4008 57.8113 53.9672 55.6336 55.0055C52.8405 56.3743 49.6213 56.3743 46.8283 55.0055C44.6979 53.9672 42.1889 53.448 39.5851 53.5896C32.7681 54.0144 27.2293 59.3478 26.7559 65.9083C26.1878 73.696 32.5787 80.1622 40.5793 80.1622C42.8516 80.1622 45.0293 79.643 46.9229 78.699C49.6213 77.3775 52.8405 77.3775 55.5389 78.699C57.4325 79.643 59.6102 80.1622 61.8825 80.1622C69.8358 80.1622 76.2741 73.696 75.706 65.9083C75.2799 59.395 69.6937 54.0616 62.8767 53.5896Z" fill="white"/>
<path d="M39.2534 66.8996C41.4758 66.8996 43.2774 65.1034 43.2774 62.8877C43.2774 60.672 41.4758 58.8758 39.2534 58.8758C37.0311 58.8758 35.2295 60.672 35.2295 62.8877C35.2295 65.1034 37.0311 66.8996 39.2534 66.8996Z" fill="#231F20"/>
<path d="M38.2591 63.2652C39.0434 63.2652 39.6793 62.6313 39.6793 61.8492C39.6793 61.0672 39.0434 60.4332 38.2591 60.4332C37.4747 60.4332 36.8389 61.0672 36.8389 61.8492C36.8389 62.6313 37.4747 63.2652 38.2591 63.2652Z" fill="white"/>
<path d="M63.1607 66.8995C65.383 66.8995 67.1846 65.1033 67.1846 62.8876C67.1846 60.672 65.383 58.8758 63.1607 58.8758C60.9383 58.8758 59.1367 60.672 59.1367 62.8876C59.1367 65.1033 60.9383 66.8995 63.1607 66.8995Z" fill="#231F20"/>
<path d="M62.1194 63.2652C62.9038 63.2652 63.5396 62.6312 63.5396 61.8492C63.5396 61.0672 62.9038 60.4333 62.1194 60.4333C61.3351 60.4333 60.6992 61.0672 60.6992 61.8492C60.6992 62.6312 61.3351 63.2652 62.1194 63.2652Z" fill="white"/>
<path d="M50.8518 66.6635C50.8518 66.6635 50.047 69.165 50.4731 69.401C50.7098 69.5898 52.7454 68.7874 53.2662 65.3891L50.8518 66.6635Z" fill="#EC8822"/>
<path d="M49.9053 63.454C49.9053 63.454 50.7574 66.7578 50.7101 68.2682C50.7101 68.6457 51.2782 68.6457 51.5622 68.3626C52.5563 67.4658 53.3138 66.569 53.2191 64.4923L50.7101 62.9348L49.9053 63.454Z" fill="#D32E2E"/>
<path d="M50.0472 61.7076C50.0472 61.7076 49.1477 61.6132 47.6328 63.5956C47.6328 63.5956 50.0472 62.7932 53.3137 64.4923C53.2663 64.4923 52.3195 61.7548 50.0472 61.7076Z" fill="#EC8822"/>
<path d="M51.9883 49.7665C51.9883 49.7665 54.0239 47.4538 56.9117 46.7458C59.3734 46.1322 58.4266 44.4331 56.1542 45.6602C54.2606 46.6514 51.9883 49.7665 51.9883 49.7665Z" fill="#989899"/>
<path d="M50.4738 49.1057C50.4738 49.1057 50.0477 46.4154 48.1541 44.9051C46.8285 43.8195 47.6333 42.734 48.2961 42.6396C49.5743 42.498 50.6158 44.3387 50.4738 49.1057Z" fill="#989899"/>
<path d="M49.1951 48.7753C49.1951 48.7753 45.2658 44.2914 42.7568 45.4242C41.0525 46.2266 46.4494 47.029 49.1951 48.7753Z" fill="#989899"/>
<path d="M21.7973 40.5064L20.0762 40.1823L13.3282 75.7999L15.0493 76.124L21.7973 40.5064Z" fill="white"/>
<path d="M20.1759 30.1792L24.7206 25.2234C25.052 24.8458 25.6674 25.0346 25.7621 25.5066L26.9456 32.1143L33.0525 34.8519C33.5259 35.0406 33.5259 35.7014 33.0999 35.9374L27.1823 39.0997L26.4248 45.7546C26.3775 46.2738 25.7621 46.4626 25.3833 46.1322L20.5073 41.5068L13.9269 42.8756C13.4062 42.97 13.0274 42.4508 13.2642 42.026L16.1993 35.9846L12.8854 30.1792C12.6487 29.7544 12.9801 29.188 13.5009 29.2824L20.1759 30.1792Z" fill="#FFDD55"/>
<path d="M11.8911 46.085C11.8911 46.085 -0.370128 51.6072 0.0085963 58.1206C0.387321 64.6339 14.8735 72.1857 33.4784 73.1297C33.4784 73.1297 13.0746 71.4305 3.55914 60.1029C-2.16907 53.2119 11.8911 46.085 11.8911 46.085Z" fill="url(#paint0_linear_20111_86430)"/>
<path d="M78.5468 67.3714C78.5468 67.3714 95.2107 67.8906 97.9091 75.3007C100.608 82.7109 62.6404 93.4721 40.8164 90.8762C40.8164 90.8762 56.1548 92.9057 81.8607 83.2301C110.928 72.3273 78.5468 67.3714 78.5468 67.3714Z" fill="url(#paint1_linear_20111_86430)"/>
</g>
<path d="M53.0971 1.454L54.2529 4.88887C50.9165 4.13129 48.438 4.96529 46.2383 7.58571L45.0825 4.15085C47.2822 1.53043 49.7607 0.696433 53.0971 1.454Z" fill="#FF685F"/>
<path d="M68.1652 24.991L71.5076 24.5028C72.3109 28.3603 72.365 28.2968 76.2755 28.7799L74.9894 31.2748C71.0789 30.7917 68.9685 28.8485 68.1652 24.991Z" fill="#5179FF"/>
<rect x="8.55859" y="8" width="4.9049" height="4.9049" transform="rotate(18.5288 8.55859 8)" fill="#FF8E0A"/>
<defs>
<linearGradient id="paint0_linear_20111_86430" x1="0.0136144" y1="59.5837" x2="33.4885" y2="59.5837" gradientUnits="userSpaceOnUse">
<stop stop-color="#FFF480"/>
<stop offset="1" stop-color="#FFFFA3" stop-opacity="0"/>
</linearGradient>
<linearGradient id="paint1_linear_20111_86430" x1="41.2524" y1="78.5515" x2="97.9026" y2="80.5372" gradientUnits="userSpaceOnUse">
<stop stop-color="#FFF480"/>
<stop offset="1" stop-color="#FFFFA3" stop-opacity="0"/>
</linearGradient>
<clipPath id="clip0_20111_86430">
<rect width="100" height="57" fill="white" transform="translate(0 25.0002)"/>
</clipPath>
</defs>
</svg>
