<svg width="100" height="57" viewBox="0 0 100 57" fill="none" xmlns="http://www.w3.org/2000/svg">
<g clip-path="url(#clip0)">
<path d="M36.9352 48.7429C25.2895 37.1321 23.3485 19.3383 16.0581 22.4534C10.5665 24.8133 20.4134 39.8224 20.4134 39.8224C20.4134 39.8224 17.6676 33.4506 13.8804 35.433C9.76176 37.6041 18.7091 45.8166 21.8809 48.2709C21.8809 48.2709 16.1054 43.2679 15.632 44.5894C14.1644 48.5541 21.1708 56.8138 29.1714 55.1147C34.2842 54.0291 40.6278 52.4244 36.9352 48.7429Z" fill="#989899"/>
<path d="M76.2274 41.758C90.0982 50.7729 99.8977 50.2065 99.519 55.5871C99.1402 61.2037 88.1572 55.3039 88.1572 55.3039C88.1572 55.3039 92.6072 58.2774 91.329 60.3541C89.3881 63.5164 84.9854 59.6933 81.9556 57.3806C81.9556 57.3806 85.1274 59.2686 84.2753 61.2509C82.9971 64.2244 72.3928 58.9382 71.9194 51.1977C71.588 46.1947 72.0614 39.0205 76.2274 41.758Z" fill="#989899"/>
<path d="M77.5059 44.4008C77.5059 44.4008 77.5059 44.4008 77.4585 44.448C75.5176 31.8933 64.5346 22.312 51.2319 22.312C36.5563 22.312 24.6738 33.97 24.6738 48.3654C24.6738 63.4689 31.3962 74.4189 40.9116 78.9499C42.4265 79.6579 44.0835 79.7523 45.693 79.3275C46.5452 79.1387 47.8234 78.4308 50.3324 75.4101C52.9835 72.2006 62.0729 72.2949 64.1559 72.7197C67.2803 73.2861 71.3043 75.646 75.0915 72.0118C78.358 68.8495 79.0208 52.6605 77.5059 44.4008Z" fill="#E7E4E2"/>
<path d="M62.8767 28.5897C60.273 28.4009 57.8113 28.9673 55.6336 30.0056C52.8405 31.3744 49.6213 31.3744 46.8283 30.0056C44.6979 28.9673 42.1889 28.4481 39.5851 28.5897C32.7681 29.0145 27.2293 34.3479 26.7559 40.9084C26.1878 48.6961 32.5787 55.1623 40.5793 55.1623C42.8516 55.1623 45.0293 54.6431 46.9229 53.6991C49.6213 52.3776 52.8405 52.3776 55.5389 53.6991C57.4325 54.6431 59.6102 55.1623 61.8825 55.1623C69.8358 55.1623 76.2741 48.6961 75.706 40.9084C75.2799 34.3951 69.6937 29.0617 62.8767 28.5897Z" fill="white"/>
<path d="M39.2544 41.8997C41.4768 41.8997 43.2784 40.1035 43.2784 37.8878C43.2784 35.6722 41.4768 33.876 39.2544 33.876C37.0321 33.876 35.2305 35.6722 35.2305 37.8878C35.2305 40.1035 37.0321 41.8997 39.2544 41.8997Z" fill="#231F20"/>
<path d="M38.2601 38.2656C39.0444 38.2656 39.6803 37.6316 39.6803 36.8496C39.6803 36.0676 39.0444 35.4336 38.2601 35.4336C37.4757 35.4336 36.8398 36.0676 36.8398 36.8496C36.8398 37.6316 37.4757 38.2656 38.2601 38.2656Z" fill="white"/>
<path d="M63.1607 41.8997C65.383 41.8997 67.1846 40.1035 67.1846 37.8878C67.1846 35.6721 65.383 33.876 63.1607 33.876C60.9383 33.876 59.1367 35.6721 59.1367 37.8878C59.1367 40.1035 60.9383 41.8997 63.1607 41.8997Z" fill="#231F20"/>
<path d="M62.1194 38.2655C62.9038 38.2655 63.5396 37.6316 63.5396 36.8495C63.5396 36.0675 62.9038 35.4336 62.1194 35.4336C61.3351 35.4336 60.6992 36.0675 60.6992 36.8495C60.6992 37.6316 61.3351 38.2655 62.1194 38.2655Z" fill="white"/>
<path d="M50.8547 41.6635C50.8547 41.6635 50.0499 44.165 50.476 44.401C50.7127 44.5898 52.7484 43.7875 53.2691 40.3892L50.8547 41.6635Z" fill="#EC8822"/>
<path d="M49.9062 38.4542C49.9062 38.4542 50.7584 41.7581 50.711 43.2684C50.711 43.646 51.2791 43.646 51.5632 43.3628C52.5573 42.466 53.3148 41.5693 53.2201 39.4926L50.711 37.9351L49.9062 38.4542Z" fill="#D32E2E"/>
<path d="M50.0491 36.7077C50.0491 36.7077 49.1497 36.6133 47.6348 38.5957C47.6348 38.5957 50.0491 37.7933 53.3156 39.4924C53.2683 39.4924 52.3215 36.7549 50.0491 36.7077Z" fill="#EC8822"/>
<path d="M51.9883 24.7663C51.9883 24.7663 54.0239 22.4536 56.9117 21.7456C59.3734 21.132 58.4266 19.4329 56.1542 20.66C54.2606 21.6512 51.9883 24.7663 51.9883 24.7663Z" fill="#989899"/>
<path d="M50.4747 24.1055C50.4747 24.1055 50.0487 21.4152 48.1551 19.9049C46.8295 18.8193 47.6343 17.7338 48.2971 17.6394C49.5753 17.4978 50.6168 19.3385 50.4747 24.1055Z" fill="#989899"/>
<path d="M49.1961 23.7753C49.1961 23.7753 45.2668 19.2914 42.7578 20.4242C41.0535 21.2265 46.4503 22.029 49.1961 23.7753Z" fill="#989899"/>
<path d="M21.7953 15.5062L20.0742 15.1821L13.3263 50.7997L15.0474 51.1238L21.7953 15.5062Z" fill="white"/>
<path d="M20.1749 5.17914L24.7196 0.22333C25.051 -0.154256 25.6664 0.0345254 25.7611 0.506508L26.9446 7.11426L33.0515 9.85178C33.5249 10.0406 33.5249 10.7013 33.0989 10.9373L27.1813 14.0996L26.4239 20.7546C26.3765 21.2737 25.7611 21.4625 25.3824 21.1321L20.5063 16.5067L13.9259 17.8755C13.4052 17.9699 13.0265 17.4507 13.2632 17.0259L16.1983 10.9845L12.8844 5.17914C12.6477 4.75436 12.9791 4.18797 13.4999 4.28237L20.1749 5.17914Z" fill="#FFDD55"/>
<path d="M11.8911 21.085C11.8911 21.085 -0.370128 26.6072 0.0085963 33.1206C0.387321 39.6339 14.8735 47.1857 33.4784 48.1296C33.4784 48.1296 13.0746 46.4305 3.55914 35.1029C-2.16907 28.2119 11.8911 21.085 11.8911 21.085Z" fill="url(#paint0_linear)"/>
<path d="M78.5468 42.3711C78.5468 42.3711 95.2107 42.8903 97.9091 50.3004C100.608 57.7106 62.6404 68.4718 40.8164 65.8759C40.8164 65.8759 56.1548 67.9054 81.8607 58.2298C110.928 47.3269 78.5468 42.3711 78.5468 42.3711Z" fill="url(#paint1_linear)"/>
</g>
<defs>
<linearGradient id="paint0_linear" x1="0.0136144" y1="34.5837" x2="33.4885" y2="34.5837" gradientUnits="userSpaceOnUse">
<stop stop-color="#FFF480"/>
<stop offset="1" stop-color="#FFFFA3" stop-opacity="0"/>
</linearGradient>
<linearGradient id="paint1_linear" x1="41.2524" y1="53.5512" x2="97.9026" y2="55.5369" gradientUnits="userSpaceOnUse">
<stop stop-color="#FFF480"/>
<stop offset="1" stop-color="#FFFFA3" stop-opacity="0"/>
</linearGradient>
<clipPath id="clip0">
<rect width="100" height="57" fill="white"/>
</clipPath>
</defs>
</svg>
