<svg xmlns="http://www.w3.org/2000/svg" width="24" height="24" viewBox="0 0 24 24">
    <g fill="none" fill-rule="evenodd">
        <g>
            <g>
                <g fill="#00CDC3">
                    <circle cx="12" cy="12" r="12"/>
                </g>
                <g fill="#107778" fill-rule="nonzero">
                    <g>
                        <path d="M3.56 14.966c.183.048.364.045.541-.01.178-.054.336-.15.473-.29.138-.138.224-.305.258-.498.035-.181.049-.387.043-.617-.005-.23-.008-.185-.008-.354.435-.109.848-.254 1.238-.435s.757-.43 1.101-.744c.23-.205.41-.468.542-.789.132-.32.212-.655.24-1.006.03-.35.004-.695-.077-1.034-.08-.338-.218-.628-.413-.87-.355-.436-.754-.768-1.195-.998-.442-.23-.915-.447-1.42-.653.012-.399.018-.828.018-1.287V4.093c.138.049.272.103.404.163.132.06.264.118.396.173.132.054.267.093.404.118.138.024.281.024.43 0 .252-.049.439-.143.56-.282.12-.139.186-.293.197-.462.012-.17-.026-.348-.112-.535-.086-.187-.209-.354-.37-.499-.252-.242-.55-.423-.894-.544-.344-.12-.677-.223-.998-.308-.034-.673-.086-1.098-.154-1.275C4.694.472 4.6.336 4.48.234 4.36.13 4.23.06 4.093.025c-.138-.036-.281-.033-.43.01-.15.041-.281.135-.396.28-.103.121-.18.26-.232.417-.052.158-.086.32-.103.49-.012.113-.02.32-.026.622-.424.073-.849.245-1.273.517-.424.272-.78.605-1.067.998C.28 3.752.1 4.18.025 4.646c-.075.466.02.934.283 1.406.287.508.666.913 1.136 1.215.47.302.952.574 1.445.816 0 .423-.003.88-.009 1.37l-.004.36c-.003.355-.005.691-.005 1.008-.057-.024-.126-.057-.206-.1-.08-.042-.15-.08-.206-.117-.104-.073-.204-.157-.301-.254-.098-.097-.198-.194-.301-.29-.104-.097-.21-.182-.319-.254-.109-.073-.232-.115-.37-.127-.252-.036-.458-.003-.619.1-.16.102-.28.241-.361.417-.08.175-.112.369-.095.58.018.212.078.408.181.59.333.423.717.785 1.153 1.088.435.302.911.52 1.427.653 0 .278-.003.335-.008.662-.006.326.077.61.249.852.126.182.281.297.464.345zm-.671-9.132c-.207-.145-.37-.269-.49-.372-.121-.102-.216-.196-.284-.28-.07-.085-.209-.332-.18-.519.028-.186.148-.292.291-.425.144-.133.364-.2.663-.2v1.796zm1.978 5.26c0-.315.003-.66.008-1.034l.004-.276c.003-.27.005-.522.005-.758.264.145.487.296.67.453.184.158.305.32.362.49.057.17.034.339-.069.508-.103.17-.32.332-.653.49-.058.024-.112.045-.164.063-.051.018-.106.04-.163.063z" transform="translate(8 4.5)"/>
                    </g>
                </g>
            </g>
        </g>
    </g>
</svg>
