<?xml version="1.0" encoding="utf-8"?>
<!-- Generator: Adobe Illustrator 25.2.3, SVG Export Plug-In . SVG Version: 6.00 Build 0)  -->
<svg version="1.1" id="圖層_1" xmlns="http://www.w3.org/2000/svg" xmlns:xlink="http://www.w3.org/1999/xlink" x="0px" y="0px"
	 viewBox="0 0 375 280" style="enable-background:new 0 0 375 280;" xml:space="preserve">
<style type="text/css">
	.st0{fill-rule:evenodd;clip-rule:evenodd;fill:#FEC602;}
	.st1{fill-rule:evenodd;clip-rule:evenodd;fill:#107778;}
	.st2{fill-rule:evenodd;clip-rule:evenodd;fill:#FF625E;}
</style>
<g>
	<circle class="st0" cx="326.2" cy="135.5" r="4.5"/>
	<circle class="st0" cx="165.2" cy="185.5" r="4.5"/>
	<circle class="st0" cx="85.2" cy="83.5" r="4.5"/>
	<circle class="st0" cx="52.2" cy="141.5" r="4.5"/>
	<circle class="st0" cx="298.2" cy="197.5" r="4.5"/>
	<circle class="st0" cx="289.2" cy="168.5" r="4.5"/>
	<circle class="st0" cx="308.2" cy="48.5" r="4.5"/>
	<path class="st1" d="M312.6,64.2l9.1,2.4c1.5,5.4,1.7,9.9,0.6,13.5c-1.2,3.6-3.6,7.4-7.2,11.4l-9.1-2.4c4.5-4.1,7.3-8,8.3-11.8
		C315.3,73.5,314.7,69.2,312.6,64.2L312.6,64.2z"/>
	<path class="st1" d="M142.6,51l8.7,3.7c0.8,5.6,0.3,10.1-1.3,13.5c-1.6,3.4-4.6,6.8-8.8,10.3l-8.7-3.7c5-3.4,8.3-7,9.8-10.6
		C143.9,60.6,143.9,56.2,142.6,51L142.6,51z"/>
	<path class="st1" d="M74.1,207.2l-2,9.2c-5.4,1.8-9.8,2.3-13.5,1.3c-3.6-1-7.5-3.2-11.8-6.6l2-9.2c4.3,4.3,8.4,6.8,12.2,7.6
		C64.9,210.3,69.3,209.6,74.1,207.2z"/>
	<path class="st1" d="M210.2,128.4l8.2-4.7c4.9,2.8,8.3,5.8,10,9.1c1.7,3.3,2.7,7.7,3,13.2l-8.2,4.7c0.3-6.1-0.6-10.8-2.5-14.2
		C218.6,133.1,215.1,130.4,210.2,128.4L210.2,128.4z"/>
	<path class="st1" d="M345.2,167.7l6.7,6.7c-1.4,5.5-3.5,9.5-6.3,12c-2.8,2.5-6.8,4.6-12,6.3l-6.7-6.7c6-1.3,10.3-3.3,13.1-6.1
		C342.9,177.1,344.6,173,345.2,167.7L345.2,167.7z"/>
	<path class="st1" d="M45.6,87.4l-8.2,4.7c-4.9-2.8-8.3-5.8-10-9.1c-1.7-3.3-2.7-7.7-3-13.2l8.2-4.7c-0.3,6.1,0.6,10.8,2.5,14.2
		C37.2,82.7,40.6,85.4,45.6,87.4L45.6,87.4z"/>
	<circle class="st2" cx="124.2" cy="26.5" r="7.5"/>
	<circle class="st2" cx="92.2" cy="163.5" r="7.5"/>
	<circle class="st2" cx="265.2" cy="51.5" r="7.5"/>
	<circle class="st2" cx="313.2" cy="233.5" r="7.5"/>
	<circle class="st2" cx="82.2" cy="254.5" r="7.5"/>
</g>
</svg>
