<svg xmlns="http://www.w3.org/2000/svg" width="180" height="180" viewBox="0 0 180 180">
    <g fill="none" fill-rule="evenodd">
        <g>
            <path fill="#BCE9E7" d="M79.625 159.996c33.819 0 61.234 0 61.234-9s-27.415-9-61.234-9-61.234 0-61.234 9 27.415 9 61.234 9z" transform="translate(12.61 10.004)"/>
            <g fill="#DCF2F1">
                <g transform="translate(12.61 10.004) translate(13.526 43.996)">
                    <g>
                        <path d="M0 20.714c0-5.434 4.405-9.838 9.838-9.838l4.588-.001V0h15.187v24.808c0 2.717-2.203 4.92-4.92 4.92H4.92C2.202 29.727 0 27.524 0 24.807v-4.094z" transform="translate(28.355 79.273)"/>
                        <path d="M45.406 20.714c0-5.434 4.405-9.838 9.838-9.838l4.588-.001V0H75.02v24.808c0 2.717-2.203 4.92-4.92 4.92H50.326c-2.717 0-4.919-2.203-4.919-4.92v-4.094z" transform="translate(28.355 79.273) matrix(-1 0 0 1 120.425 0)"/>
                    </g>
                    <g>
                        <path d="M.243 41.058l30.524.168c3.278.02 5.921 2.692 5.906 5.97l-.036 6.885c-.017 3.279-2.688 5.923-5.967 5.906h-.03l-30.493-.31.096-18.619z" transform="translate(0 22.361) scale(-1 1) rotate(54 0 14.391)"/>
                        <path d="M102.122 8.058l30.524.168c3.278.02 5.92 2.692 5.906 5.97l-.036 6.885c-.017 3.279-2.689 5.923-5.967 5.906h-.03l-30.494-.31.097-18.619z" transform="translate(0 22.361) rotate(-31 120.304 17.553)"/>
                    </g>
                    <ellipse cx="65.533" cy="49.183" rx="49.082" ry="49.183"/>
                </g>
            </g>
            <g>
                <path fill="#BCE9E7" fill-rule="nonzero" d="M12 17L12 44 5 44 5 17z" transform="translate(12.61 10.004) rotate(-19 99.216 16.603)"/>
                <path fill="#BCE9E7" d="M8.5 59c5.667-2.57 8.5-5.44 8.5-8.611 0-4.756-3.806-8.611-8.5-8.611S0 45.633 0 50.388C0 53.56 2.833 56.43 8.5 59zM25.786 23.587v19.296c12.19 3.136 21.428 4.704 27.714 4.704 6.286 0 15.524-1.568 27.714-4.704V23.587l-24.656 5.15c-.994.21-2.03.313-3.058.313-1.029 0-2.064-.103-3.058-.313l-24.656-5.15z" transform="translate(12.61 10.004) rotate(-19 99.216 16.603)"/>
                <path fill="#DCF2F1" fill-rule="nonzero" d="M53.493 0c-.344.001-.686.054-1.015.156L7.443 14.038c-1.45.451-2.437 1.795-2.437 3.315s.987 2.864 2.437 3.315L52.478 34.55c.666.206 1.378.206 2.044 0l45.035-13.882c1.45-.451 2.437-1.795 2.437-3.315s-.987-2.864-2.437-3.315L54.522.156C54.189.052 53.842 0 53.493 0z" transform="translate(12.61 10.004) rotate(-19 99.216 16.603)"/>
            </g>
        </g>
    </g>
</svg>
