<svg xmlns="http://www.w3.org/2000/svg" xmlns:xlink="http://www.w3.org/1999/xlink" width="375" height="812" viewBox="0 0 375 812">
    <defs>
        <path id="kgnjrn8dca" d="M0 0H375V812H0z"/>
    </defs>
    <g fill="none" fill-rule="evenodd">
        <g>
            <g>
                <g>
                    <mask id="aqa05blasb" fill="#fff">
                        <use xlink:href="#kgnjrn8dca"/>
                    </mask>
                    <use fill="#DCF2F1" xlink:href="#kgnjrn8dca"/>
                    <path fill="#FA0" d="M13.19 45.341c28.442 0 51.5 23.058 51.5 51.5v87c0 28.443-23.058 51.5-51.5 51.5-28.444 0-51.5-23.057-51.5-51.5v-87c0-28.442 23.056-51.5 51.5-51.5z" mask="url(#aqa05blasb)" transform="rotate(45 13.19 140.341)"/>
                    <path fill="#FEC602" d="M1.42 613.111c28.442 0 51.5 23.057 51.5 51.5v191c0 28.443-23.058 51.5-51.5 51.5-28.443 0-51.5-23.057-51.5-51.5v-191c0-28.443 23.057-51.5 51.5-51.5z" mask="url(#aqa05blasb)" transform="rotate(45 1.42 760.111)"/>
                    <circle cx="240.413" cy="-63.5" r="123.5" fill="#29DAA1" mask="url(#aqa05blasb)"/>
                    <path fill="#FA7048" d="M478.327 205.173c14.69 14.69 24.484 31.262 29.38 48.46 4.897 17.198 4.897 35.024 0 52.222-4.896 17.198-14.69 33.77-29.38 48.46l-126.63 126.63c-14.69 14.69-31.261 24.483-48.46 29.38-17.198 4.897-35.023 4.897-52.222 0-17.198-4.897-33.77-14.69-48.46-29.38-14.69-14.69-24.483-31.262-29.38-48.46-4.897-17.199-4.897-35.024 0-52.222 4.897-17.199 14.69-33.77 29.38-48.46l126.63-126.63c14.69-14.69 31.262-24.484 48.46-29.38 17.198-4.897 35.024-4.897 52.222 0 17.198 4.896 33.77 14.69 48.46 29.38z" mask="url(#aqa05blasb)"/>
                </g>
            </g>
        </g>
    </g>
</svg>
