<svg xmlns="http://www.w3.org/2000/svg" xmlns:xlink="http://www.w3.org/1999/xlink" width="64" height="64" viewBox="0 0 64 64">
    <defs>
        <filter id="x6l75ywbge" width="100%" height="100%" x="0%" y="0%" filterUnits="objectBoundingBox">
            <feGaussianBlur in="SourceGraphic"/>
        </filter>
        <filter id="60nsc9t95f" width="100%" height="100%" x="0%" y="0%" filterUnits="objectBoundingBox">
            <feGaussianBlur in="SourceGraphic"/>
        </filter>
        <path id="h1ewqsctpa" d="M20.259 7.823c1.875 0 3.172-1.706 3.172-2.238 0-.535-1.3-2.238-3.172-2.238-1.862 0-3.175 1.703-3.175 2.238 0 .532 1.323 2.238 3.175 2.238z"/>
        <path id="48cwlwly4c" d="M6.21 7.634c1.876 0 3.173-1.706 3.173-2.238 0-.534-1.3-2.238-3.173-2.238-1.861 0-3.174 1.704-3.174 2.238 0 .532 1.322 2.238 3.174 2.238z"/>
    </defs>
    <g fill="none" fill-rule="evenodd">
        <g>
            <g>
                <g transform="translate(-416 -1586) translate(416 1586) translate(18.6 24)">
                    <mask id="w9l8mupb9b" fill="#fff">
                        <use xlink:href="#h1ewqsctpa"/>
                    </mask>
                    <use fill="#FFF" fill-rule="nonzero" transform="rotate(3 20.258 5.585)" xlink:href="#h1ewqsctpa"/>
                    <ellipse cx="20.088" cy="4.822" fill="#324148" mask="url(#w9l8mupb9b)" rx="2.165" ry="2.399"/>
                    <mask id="ycwsn16qhd" fill="#fff">
                        <use xlink:href="#48cwlwly4c"/>
                    </mask>
                    <use fill="#FFF" fill-rule="nonzero" transform="rotate(3 6.21 5.396)" xlink:href="#48cwlwly4c"/>
                    <ellipse cx="6.474" cy="4.62" fill="#324148" mask="url(#ycwsn16qhd)" rx="2.165" ry="2.399"/>
                    <path stroke="#FF625E" stroke-width="1.199" d="M13.459 19.935s4.364 0 6.025-.873c.413-.217 1.157-.744 1.342-1.067"/>
                    <ellipse cx="1.998" cy="9.768" fill="#FF918E" filter="url(#x6l75ywbge)" rx="1.998" ry="2.197"/>
                    <ellipse cx="24.771" cy="9.768" fill="#FF918E" filter="url(#60nsc9t95f)" rx="1.998" ry="2.197"/>
                    <path stroke="#324148" stroke-width=".999" d="M17.093 1.569c1.842-.961 3.704-1.117 5.586-.467M10.09 1.57C8.246.61 6.385.455 4.503 1.105" opacity=".8"/>
                    <g stroke="#647780" stroke-width=".576">
                        <path d="M2.88 0h5.29c1.59 0 2.88 1.266 2.88 2.829 0 .226-.028.451-.082.671l-.076.303c-.222.895-.468 1.415-.812 1.86-.345.447-.778.78-1.3 1.003C8.256 6.89 7.683 7 6.745 7H4.305c-.938 0-1.51-.111-2.034-.334-.522-.222-.956-.556-1.3-1.002-.344-.446-.59-.966-.813-1.86L.083 3.5C-.295 1.982.652.452 2.197.08c.224-.053.454-.08.684-.08zM17.83 0h5.29C24.71 0 26 1.266 26 2.829c0 .226-.028.451-.082.671l-.076.303c-.222.895-.468 1.415-.812 1.86-.345.447-.778.78-1.3 1.003-.523.223-1.096.334-2.034.334h-2.441c-.938 0-1.51-.111-2.034-.334-.522-.222-.956-.556-1.3-1.002-.344-.446-.59-.966-.813-1.86l-.075-.304c-.378-1.518.569-3.048 2.114-3.42.224-.053.454-.08.684-.08z" transform="translate(.323 1.995)"/>
                        <path d="M.158 3.5l-.075-.279C-.295 1.824.652.416 2.197.074 2.421.025 2.651 0 2.881 0H8.17c1.59 0 2.88 1.165 2.88 2.603 0 .208-.028.416-.082.618l-.076.279M15.108 3.5l-.075-.279c-.378-1.397.569-2.805 2.114-3.147.224-.049.454-.074.684-.074h5.289C24.71 0 26 1.165 26 2.603c0 .208-.028.416-.082.618l-.076.279M11.05 3.5c.555-.457 1.205-.69 1.95-.7.745-.01 1.395.208 1.95.653" transform="translate(.323 1.995)"/>
                    </g>
                </g>
            </g>
        </g>
    </g>
</svg>
