<svg xmlns="http://www.w3.org/2000/svg" xmlns:xlink="http://www.w3.org/1999/xlink" width="64" height="64" viewBox="0 0 64 64">
    <defs>
        <filter id="qka5oldy0e" width="100%" height="100%" x="0%" y="0%" filterUnits="objectBoundingBox">
            <feGaussianBlur in="SourceGraphic"/>
        </filter>
        <filter id="oivzvrucdf" width="100%" height="100%" x="0%" y="0%" filterUnits="objectBoundingBox">
            <feGaussianBlur in="SourceGraphic"/>
        </filter>
        <path id="ffp1k3kyaa" d="M20.216 8.081c1.876 0 3.092-.531 3.092-1.063 0-.535-1.287-2.004-3.16-2.004-1.862 0-3.187 1.47-3.187 2.004 0 .532 1.404 1.063 3.255 1.063z"/>
        <path id="bzj9j7d6yc" d="M7.167 7.92c1.876 0 3.087-.559 3.087-1.09 0-.535-1.278-1.816-3.15-1.816-1.862 0-3.198 1.28-3.198 1.815 0 .532 1.41 1.09 3.261 1.09z"/>
    </defs>
    <g fill="none" fill-rule="evenodd">
        <g>
            <g>
                <g transform="translate(-1308 -917) translate(1308 917) translate(18.6 24)">
                    <path stroke="#FF625E" stroke-width="1.199" d="M13.433 20.286s5.17.257 6.831-.616c.413-.218.682-.558.974-.858"/>
                    <mask id="67jtzwknfb" fill="#fff">
                        <use xlink:href="#ffp1k3kyaa"/>
                    </mask>
                    <use fill="#FFF" fill-rule="nonzero" transform="rotate(3 20.134 6.548)" xlink:href="#ffp1k3kyaa"/>
                    <ellipse cx="21.531" cy="7.08" fill="#324148" mask="url(#67jtzwknfb)" rx="2.02" ry="2.238"/>
                    <mask id="mz4deb9bgd" fill="#fff">
                        <use xlink:href="#bzj9j7d6yc"/>
                    </mask>
                    <use fill="#FFF" fill-rule="nonzero" transform="rotate(3 7.08 6.467)" xlink:href="#bzj9j7d6yc"/>
                    <ellipse cx="8.482" cy="6.891" fill="#324148" mask="url(#mz4deb9bgd)" rx="2.02" ry="2.238"/>
                    <ellipse cx="1.998" cy="10.119" fill="#FF918E" filter="url(#qka5oldy0e)" rx="1.998" ry="2.197"/>
                    <ellipse cx="24.771" cy="10.119" fill="#FF918E" filter="url(#oivzvrucdf)" rx="1.998" ry="2.197"/>
                    <path stroke="#324148" stroke-width=".999" d="M17.093 1.92C18.96.33 20.822.175 22.68 1.453M10.09 3.922c-1.843-.961-3.704-1.117-5.586-.467" opacity=".8"/>
                    <g>
                        <path fill="#D19786" d="M2.557 7.435C2 7.419 1.377 7.641.69 8.103c-1.032.694-.597 1.732-.603 2.172-.009.75 1.262 5.741 2.917 6.767.209.13.401-1.027.578-3.47-.735-1.066-1.096-1.975-1.083-2.727l.016-.931.043-2.479z" transform="scale(-1 1) rotate(-1 968.455 2558.03)"/>
                        <path fill="#FFC4B2" d="M2.821 6.499c.327-.094.707-.163 1.139-.206.063-.006.398.955.538.956.165.001.112-.883.377-1.096.236-.19 1.265-.629 2.07-.445.059.013.314.214.374.2.044-.01.15-.64.174-.691.065-.14 1.526-.706 2.416-.462.103.028.645.757.715.745.047-.008.411-.55.511-.57.196-.042.728-.129 1.595-.262.546-.083 1.056.291 1.14.837l.006.045c.265 2.463.41 4.397.435 5.802.016.95-.228 2.898-.732 5.842-.146.855-.828 1.519-1.687 1.642l-6.59.946c-.89.128-1.756-.355-2.116-1.179-1.065-2.435-1.633-4.166-1.706-5.193-.076-1.088-.111-2.753-.104-4.995.002-.89.591-1.67 1.445-1.916z" transform="scale(-1 1) rotate(-1 968.455 2558.03) matrix(-1 0 0 1 15.686 0)"/>
                        <path fill="#FFC4B2" d="M13.298.234c.597.086 1.01.64.923 1.237l-.005.029c-.176 1.02-.28 1.864-.313 2.532-.033.664.18 1.723.635 3.175.295.937-.207 1.94-1.134 2.265-.78.274-1.633-.136-1.906-.915-.032-.091-.055-.184-.07-.28-.317-2.174-.484-3.668-.498-4.48-.014-.76.213-1.643.682-2.651.298-.644.984-1.015 1.686-.912z" transform="scale(-1 1) rotate(-1 968.455 2558.03) scale(-1 1) rotate(-2 0 750.857)"/>
                        <path fill="#FFC4B2" d="M4.246 15.24l6.421-.077c1.105-.014 2.01.87 2.024 1.975v.003l.039 3.672c.011 1.103-.873 2.007-1.977 2.02l-5.597.066c-.936.01-1.755-.63-1.97-1.541l-.863-3.659c-.253-1.075.413-2.152 1.488-2.405.143-.034.288-.052.435-.053z" transform="scale(-1 1) rotate(-1 968.455 2558.03)"/>
                    </g>
                </g>
            </g>
        </g>
    </g>
</svg>
