<svg xmlns="http://www.w3.org/2000/svg" xmlns:xlink="http://www.w3.org/1999/xlink" width="64" height="64" viewBox="0 0 64 64">
    <defs>
        <filter id="ad4rp8d2sc" width="100%" height="100%" x="0%" y="0%" filterUnits="objectBoundingBox">
            <feGaussianBlur in="SourceGraphic"/>
        </filter>
        <filter id="fcninyy01d" width="100%" height="100%" x="0%" y="0%" filterUnits="objectBoundingBox">
            <feGaussianBlur in="SourceGraphic"/>
        </filter>
        <path id="65364zpwda" d="M0 0H64V64H0z"/>
    </defs>
    <g fill="none" fill-rule="evenodd">
        <g>
            <g transform="translate(-423 -917) translate(423 917)">
                <mask id="1nazjot52b" fill="#fff">
                    <use xlink:href="#65364zpwda"/>
                </mask>
                <g mask="url(#1nazjot52b)">
                    <g transform="translate(-2)">
                        <path fill="#FF625E" stroke="#FF625E" stroke-width="1.199" d="M34.71 46.613c5.044.697 7.566-.281 7.566-2.933 0-3.978-1.65-1.56-3.56-1.045-1.908.514-4.005.561-4.005.561v3.417z"/>
                        <ellipse cx="22.679" cy="33.791" fill="#FF918E" filter="url(#ad4rp8d2sc)" rx="1.998" ry="2.197"/>
                        <ellipse cx="45.453" cy="33.791" fill="#FF918E" filter="url(#fcninyy01d)" rx="1.998" ry="2.197"/>
                        <g>
                            <path stroke="#324148" stroke-width=".999" d="M16.603 1.569c1.842-.961 3.704-1.117 5.586-.467M8.6 1.57C6.758.61 4.896.455 3.014 1.105" opacity=".8" transform="translate(21.604 23.018)"/>
                            <g transform="translate(21.604 23.018) translate(0 3)">
                                <circle cx="5" cy="5" r="5" fill="#FFF"/>
                                <circle cx="5" cy="5" r="3.75" fill="#324148"/>
                                <path fill="#FFF" d="M5.338 7.144c.868 0 1.548-.621 1.72-1.333.185-.769.13-1.667-.764-1.667s-.267.72-.996 1.272C4.57 5.97 3.983 5.291 3.821 6c-.163.71.65 1.144 1.517 1.144z"/>
                                <circle cx="3.813" cy="3.688" r="1" fill="#FFF"/>
                            </g>
                            <g transform="translate(21.604 23.018) translate(15 3)">
                                <circle cx="5" cy="5" r="5" fill="#FFF"/>
                                <circle cx="5" cy="5" r="3.75" fill="#324148"/>
                                <path fill="#FFF" d="M5.538 7c.868 0 1.548-.622 1.72-1.333C7.442 4.898 7.387 4 6.493 4s-.267.72-.996 1.272c-.728.553-1.315-.126-1.477.584C3.858 6.565 4.67 7 5.538 7z"/>
                                <circle cx="3.813" cy="3.688" r="1" fill="#FFF"/>
                            </g>
                        </g>
                        <path fill="#FA0" d="M49.02 2.9c3.1 2.535 5.434 3.803 7 3.803 1.567 0 3.408-.72 5.522-2.16-1.532 2.014-2.298 3.8-2.298 5.356 0 1.557 1.259 3.89 3.777 7-3.111-2.452-5.445-3.678-7-3.678-1.556 0-3.396.679-5.521 2.036 1.595-2.02 2.393-3.809 2.393-5.366 0-1.558-1.291-3.888-3.872-6.992z" transform="rotate(45 56.02 9.9)"/>
                        <path fill="#FA0" d="M9.02 42.9c2.215 1.81 3.882 2.716 5 2.716 1.12 0 2.434-.514 3.944-1.543-1.094 1.439-1.64 2.714-1.64 3.826 0 1.113.898 2.78 2.697 5-2.222-1.751-3.89-2.627-5-2.627-1.111 0-2.426.485-3.944 1.454 1.14-1.443 1.71-2.72 1.71-3.833 0-1.112-.922-2.777-2.766-4.994z" transform="rotate(45 14.02 47.9)"/>
                        <path fill="#FA0" d="M4.35 4.52c4.65 3.804 8.15 5.706 10.5 5.706 2.35 0 5.11-1.08 8.28-3.241-2.297 3.022-3.446 5.7-3.446 8.036 0 2.335 1.888 5.835 5.665 10.5-4.666-3.679-8.166-5.518-10.5-5.518-2.333 0-5.094 1.018-8.281 3.054 2.393-3.03 3.589-5.713 3.589-8.05 0-2.336-1.936-5.831-5.808-10.486z" transform="rotate(45 14.85 15.02)"/>
                        <path fill="#FA0" d="M42.35 38.52c4.65 3.804 8.15 5.706 10.5 5.706 2.35 0 5.11-1.08 8.28-3.241-2.297 3.022-3.446 5.7-3.446 8.036 0 2.335 1.888 5.835 5.665 10.5-4.666-3.679-8.166-5.518-10.5-5.518-2.333 0-5.094 1.018-8.281 3.054 2.393-3.03 3.589-5.713 3.589-8.05 0-2.336-1.936-5.831-5.808-10.486z" transform="rotate(45 52.85 49.02)"/>
                    </g>
                </g>
            </g>
        </g>
    </g>
</svg>
