<svg xmlns="http://www.w3.org/2000/svg" width="84" height="84" viewBox="0 0 84 84">
    <g fill="none" fill-rule="evenodd">
        <g>
            <g>
                <g>
                    <g>
                        <g>
                            <path fill="#9E1A36" d="M36.65 67h7l-.84 4.196c-.093.468-.503.804-.98.804h-3.36c-.477 0-.887-.336-.98-.804L36.65 67z" transform="translate(-416 -1450) translate(416 1450) translate(-9.65)"/>
                            <path fill="#9E1A36" d="M36.15 71.67h8L42.421 83.15c-.074.49-.494.851-.989.851h-2.564c-.495 0-.915-.362-.989-.851L36.15 71.67z" transform="translate(-416 -1450) translate(416 1450) translate(-9.65) matrix(1 0 0 -1 0 155.67)"/>
                            <path fill="#FFF" d="M50.613 59.483L40.314 67.11 43.681 71.825 53.17 62.472z" transform="translate(-416 -1450) translate(416 1450) translate(-9.65)"/>
                            <path fill="#FFF" d="M37.951 59.483L28.077 67.11 31.444 71.825 40.31 62.472z" transform="translate(-416 -1450) translate(416 1450) translate(-9.65) matrix(-1 0 0 1 68.387 0)"/>
                            <path fill="#324148" d="M51.499 60.066L42 84h38.774c.459-10.023-1.74-15.76-6.599-17.213-4.858-1.452-10.77-2.696-17.736-3.732l-4.94-2.989z" transform="translate(-416 -1450) translate(416 1450) translate(-9.65)"/>
                            <path fill="#FA0" d="M63.423 38.848c1.993 1.63 3.493 2.445 4.5 2.445 1.007 0 2.507-.815 4.5-2.445-1.619 1.999-2.428 3.499-2.428 4.5 0 1 .81 2.5 2.428 4.5-2-1.577-3.5-2.365-4.5-2.365s-2.5.788-4.5 2.365c1.66-2.003 2.489-3.505 2.489-4.506 0-1.001-.83-2.5-2.489-4.494z" transform="translate(-416 -1450) translate(416 1450) translate(-9.65) rotate(48 67.923 43.348)"/>
                            <path fill="#FA0" d="M15.423 9.848c1.993 1.63 3.493 2.445 4.5 2.445 1.007 0 2.507-.815 4.5-2.445-1.619 1.999-2.428 3.499-2.428 4.5 0 1 .81 2.5 2.428 4.5-2-1.577-3.5-2.365-4.5-2.365s-2.5.788-4.5 2.365c1.66-2.003 2.489-3.505 2.489-4.506 0-1.001-.83-2.5-2.489-4.494z" transform="translate(-416 -1450) translate(416 1450) translate(-9.65) rotate(48 19.923 14.348)"/>
                            <path fill="#242D32" d="M51.499 60.066L42 84 46.742 84 55.277 73.537 52.763 70.996 57.039 70.996 56.439 63.055z" transform="translate(-416 -1450) translate(416 1450) translate(-9.65)"/>
                            <g>
                                <path fill="#324148" d="M9.499 0L0 23.934h38.774c.459-10.024-1.74-15.761-6.599-17.213-4.858-1.452-10.77-2.696-17.736-3.732L9.499 0z" transform="translate(-416 -1450) translate(416 1450) translate(-9.65) matrix(-1 0 0 1 38.833 60.066)"/>
                                <path fill="#242D32" d="M9.499 0L0 23.934 4.742 23.934 13.277 13.47 10.763 10.929 15.039 10.929 14.439 2.989z" transform="translate(-416 -1450) translate(416 1450) translate(-9.65) matrix(-1 0 0 1 38.833 60.066)"/>
                            </g>
                        </g>
                    </g>
                </g>
            </g>
        </g>
    </g>
</svg>
