<svg xmlns="http://www.w3.org/2000/svg" xmlns:xlink="http://www.w3.org/1999/xlink" width="84" height="84" viewBox="0 0 84 84">
    <defs>
        <linearGradient id="vlgpixy6pc" x1="121.638%" x2="-12.782%" y1="66.388%" y2="26.924%">
            <stop offset="0%" stop-color="#DDB113"/>
            <stop offset="51.208%" stop-color="#FFE66C"/>
            <stop offset="100%" stop-color="#DDB113"/>
        </linearGradient>
        <path id="n89nv8icza" d="M47.385 62.035c-1.954 3.864-5.362 5.796-10.226 5.796-4.864 0-8.273-1.932-10.226-5.796L0 67.83v89.718h81l-4.672-82.794c-.23-4.08-3.182-7.49-7.187-8.303l-21.756-4.417z"/>
    </defs>
    <g fill="none" fill-rule="evenodd">
        <g>
            <g>
                <g transform="translate(-41.000000, -1450.000000) translate(41.000000, 1450.000000) translate(-6.000000, -0.000000)">
                    <g fill="#324148" fill-rule="nonzero">
                        <path d="M11.353 7.708c-.954-.383-2.042-.157-2.77.574-.728.73-.96 1.828-.588 2.796.371.967 1.274 1.62 2.3 1.663 1.477.045 2.7-1.09 2.7-2.564.01-3.31 0-6.623 0-9.935 0-.074-.012-.149-.019-.242-.08.018-.143.03-.203.047-2.86.83-5.708 1.665-8.57 2.485-.26.075-.254.225-.254.428v7.177c-.203-.078-.312-.14-.443-.186-1.037-.364-1.966-.16-2.748.608-.739.735-.961 1.85-.562 2.818.47 1.16 1.689 1.82 2.904 1.57 1.216-.249 2.085-1.336 2.07-2.59.013-2.217.013-4.434 0-6.65-.002-.29.09-.403.359-.478 1.402-.384 2.799-.795 4.197-1.201l2.017-.586v4.432c-.174-.07-.276-.117-.39-.166z" transform="translate(68.500000, 29.500000) rotate(-6.000000) translate(-68.500000, -29.500000) translate(62.000000, 22.000000)"/>
                    </g>
                    <mask id="312lafampb" fill="#fff">
                        <use xlink:href="#n89nv8icza"/>
                    </mask>
                    <use fill="#EEF8F7" xlink:href="#n89nv8icza"/>
                    <path fill="#DCF2F1" d="M54.278 64L45 99 80.404 99 80.404 69.271z" mask="url(#312lafampb)"/>
                    <g fill="url(#vlgpixy6pc)" mask="url(#312lafampb)">
                        <path d="M28.717 2.75c.4 0 .723-.322.723-.719V.72c0-.397-.324-.719-.723-.719h-2.89c-.4 0-.723.322-.723.719V2.03c0 .397.324.719.723.719h.723v1.438h-.723c-.4 0-.723.321-.723.718V9.22c0 .397.324.719.723.719h.723v1.861l-.21-.216c-.284-.28-.742-.28-1.026 0l-2.89 2.875c-.282.283-.282.739 0 1.021l.339.338-1.272.755v-.166c0-.397-.323-.718-.722-.718h-4.336c-.4 0-.723.321-.723.718v.719h-1.98v-.719c0-.397-.324-.718-.723-.718H8.671c-.399 0-.722.321-.722.718v.166l-1.272-.755.34-.338c.281-.282.281-.738 0-1.02l-2.89-2.876c-.285-.28-.743-.28-1.027 0l-.21.216V9.938h.723c.4 0 .723-.322.723-.72V4.907c0-.397-.324-.718-.723-.718H2.89V2.75h.723c.4 0 .723-.322.723-.719V.72C4.336.322 4.012 0 3.613 0H.723C.323 0 0 .322 0 .719V2.03c0 .397.324.719.723.719h.722v1.438H.723c-.4 0-.723.321-.723.718V9.22c0 .397.324.719.723.719h.722v3.299l-.513.503c-.282.282-.282.738 0 1.02l2.89 2.875c.286.278.742.278 1.027 0l.773-.776 2.327 1.394v1.028c0 .397.323.719.722.719h4.336c.4 0 .723-.322.723-.719v-.718h1.98v.718c0 .397.324.719.723.719h4.336c.399 0 .722-.322.722-.719v-1.028l2.327-1.394.773.776c.285.278.741.278 1.026 0l2.89-2.875c.283-.282.283-.738 0-1.02l-.512-.503v-3.3h.722c.4 0 .723-.321.723-.718V4.906c0-.397-.324-.718-.723-.718h-.722V2.75h.722z" transform="translate(22.660000, 61.000000)"/>
                    </g>
                </g>
            </g>
        </g>
    </g>
</svg>
