<svg xmlns="http://www.w3.org/2000/svg" xmlns:xlink="http://www.w3.org/1999/xlink" width="64" height="64" viewBox="0 0 64 64">
    <defs>
        <filter id="y9exx05qoe" width="100%" height="100%" x="0%" y="0%" filterUnits="objectBoundingBox">
            <feGaussianBlur in="SourceGraphic"/>
        </filter>
        <filter id="ezkwmh5kcf" width="100%" height="100%" x="0%" y="0%" filterUnits="objectBoundingBox">
            <feGaussianBlur in="SourceGraphic"/>
        </filter>
        <path id="6fwwpear3a" d="M38.188 31.909c1.875 0 3.172-1.706 3.172-2.238 0-.535-1.299-2.238-3.172-2.238-1.861 0-3.175 1.703-3.175 2.238 0 .532 1.323 2.238 3.175 2.238z"/>
        <path id="2d4m1o7i8c" d="M25.14 31.72c1.875 0 3.172-1.706 3.172-2.238 0-.534-1.3-2.238-3.173-2.238-1.86 0-3.174 1.704-3.174 2.238 0 .532 1.323 2.239 3.174 2.239z"/>
    </defs>
    <g fill="none" fill-rule="evenodd">
        <g>
            <g>
                <g transform="translate(-1308 -1203) translate(1308 1203) translate(.5 1)">
                    <path fill="#FF625E" stroke="#FF625E" stroke-width="1.199" d="M32.104 42c4.745.023 7.149.417 7.212 1.183.094 1.148-1.976 1.686-3.885 1.172-1.91-.515-3.327-.168-3.327-.168V42z"/>
                    <mask id="74jrw2xxrb" fill="#fff">
                        <use xlink:href="#6fwwpear3a"/>
                    </mask>
                    <use fill="#FFF" fill-rule="nonzero" transform="rotate(3 38.187 29.67)" xlink:href="#6fwwpear3a"/>
                    <ellipse cx="38.608" cy="28.733" fill="#324148" mask="url(#74jrw2xxrb)" rx="2.02" ry="2.238"/>
                    <mask id="46orpqdthd" fill="#fff">
                        <use xlink:href="#2d4m1o7i8c"/>
                    </mask>
                    <use fill="#FFF" fill-rule="nonzero" transform="rotate(3 25.138 29.482)" xlink:href="#2d4m1o7i8c"/>
                    <ellipse cx="24.56" cy="30.545" fill="#324148" mask="url(#46orpqdthd)" rx="2.02" ry="2.238"/>
                    <ellipse cx="20.075" cy="32.773" fill="#FF918E" filter="url(#y9exx05qoe)" rx="1.998" ry="2.197"/>
                    <ellipse cx="42.849" cy="32.773" fill="#FF918E" filter="url(#ezkwmh5kcf)" rx="1.998" ry="2.197"/>
                    <path stroke="#324148" stroke-width=".999" d="M35.17 25.573c1.842-.96 3.704-1.116 5.586-.466M28.167 25.575c-1.842-.96-3.704-1.116-5.586-.466" opacity=".8"/>
                    <path stroke="#FA0" stroke-linecap="round" stroke-width="1.5" d="M42.5 10.5L51.5 2.5M38.5 7.5L43.5 1.5M30.5 6.5L30.5.5M23.5 7.5L20.5 1.5M17.5 10.5L10.5 2.5M14.5 15.5L2.5 9.5M13.5 22.5L.5 20.5M13.5 30.5L.5 31.5M17.5 38.5L.5 44.5M19.5 44.5L9.5 51.5M25.5 47.5L23.5 55.5"/>
                    <path stroke="#FA0" stroke-linecap="round" stroke-width="1.5" d="M59.5 15.5L47.5 9.5" transform="matrix(-1 0 0 1 107 0)"/>
                    <path stroke="#FA0" stroke-linecap="round" stroke-width="1.5" d="M62.5 22.5L49.5 20.5" transform="matrix(-1 0 0 1 112 0)"/>
                    <path stroke="#FA0" stroke-linecap="round" stroke-width="1.5" d="M62.5 30.5L49.5 31.5" transform="matrix(-1 0 0 1 112 0)"/>
                    <path stroke="#FA0" stroke-linecap="round" stroke-width="1.5" d="M62.5 38.5L45.5 44.5" transform="matrix(-1 0 0 1 108 0)"/>
                    <path stroke="#FA0" stroke-linecap="round" stroke-width="1.5" d="M51.5 46.5L41.5 53.5" transform="matrix(-1 0 0 1 93 0)"/>
                    <path stroke="#FA0" stroke-linecap="round" stroke-width="1.5" d="M36.5 47.5L34.5 55.5" transform="matrix(-1 0 0 1 71 0)"/>
                </g>
            </g>
        </g>
    </g>
</svg>
