<svg xmlns="http://www.w3.org/2000/svg" width="64" height="64" viewBox="0 0 64 64">
    <defs>
        <filter id="bax3z0ey0a" width="100%" height="100%" x="0%" y="0%" filterUnits="objectBoundingBox">
            <feGaussianBlur in="SourceGraphic"/>
        </filter>
        <filter id="xlfws9pwzb" width="100%" height="100%" x="0%" y="0%" filterUnits="objectBoundingBox">
            <feGaussianBlur in="SourceGraphic"/>
        </filter>
    </defs>
    <g fill="none" fill-rule="evenodd">
        <g>
            <g>
                <g transform="translate(-41 -1586) translate(41 1586) translate(14.6 24)">
                    <path stroke="#FF625E" stroke-width="1.199" d="M17.34 19.935s4.365 0 6.026-.873c.413-.217 1.157-.744 1.342-1.067"/>
                    <ellipse cx="5.88" cy="9.768" fill="#FF918E" filter="url(#bax3z0ey0a)" rx="1.998" ry="2.197"/>
                    <ellipse cx="28.653" cy="9.768" fill="#FF918E" filter="url(#xlfws9pwzb)" rx="1.998" ry="2.197"/>
                    <path stroke="#324148" stroke-width=".999" d="M20.975 1.569c1.842-.961 3.704-1.117 5.586-.467M13.971 1.57C12.13.61 10.267.455 8.386 1.105" opacity=".8"/>
                    <g>
                        <path fill="#324148" d="M16 3.636h-1.28v1.455h-1.28v1.454h-1.28V8H3.84V6.545H2.56V5.091H1.28V3.635H0V0h16v3.636zM35 3.636h-1.28v1.455h-1.28v1.454h-1.28V8h-8.32V6.545h-1.28V5.091h-1.28V3.636H19V0h16v3.636z" transform="translate(0 1.995)"/>
                        <g fill="#FFF">
                            <path d="M0 0H1.2V1.333H0zM2.4 0H3.5999999999999996V1.333H2.4zM1.2 1.333H2.4V2.666H1.2zM3.6 1.333H4.8V2.666H3.6zM2.4 2.667H3.5999999999999996V4H2.4zM4.8 2.667H6V4H4.8z" transform="translate(0 1.995) translate(3 2)"/>
                        </g>
                        <g fill="#FFF">
                            <path d="M0 0H1.2V1.333H0zM2.4 0H3.5999999999999996V1.333H2.4zM1.2 1.333H2.4V2.666H1.2zM3.6 1.333H4.8V2.666H3.6zM2.4 2.667H3.5999999999999996V4H2.4zM4.8 2.667H6V4H4.8z" transform="translate(0 1.995) translate(22 2)"/>
                        </g>
                        <path fill="#324148" d="M16 0H20V2H16z" transform="translate(0 1.995)"/>
                    </g>
                </g>
            </g>
        </g>
    </g>
</svg>
