<svg xmlns="http://www.w3.org/2000/svg" xmlns:xlink="http://www.w3.org/1999/xlink" width="64" height="64" viewBox="0 0 64 64">
    <defs>
        <filter id="75dxq2h7se" width="100%" height="100%" x="0%" y="0%" filterUnits="objectBoundingBox">
            <feGaussianBlur in="SourceGraphic"/>
        </filter>
        <filter id="wwxnukdd6f" width="100%" height="100%" x="0%" y="0%" filterUnits="objectBoundingBox">
            <feGaussianBlur in="SourceGraphic"/>
        </filter>
        <path id="b0j3nki7sa" d="M38.774 32.586c1.875 0 3.172-1.706 3.172-2.238 0-.535-1.3-2.238-3.172-2.238-1.862 0-3.175 1.703-3.175 2.238 0 .532 1.323 2.238 3.175 2.238z"/>
        <path id="eqh21ecwgc" d="M25.725 32.398c1.876 0 3.173-1.707 3.173-2.238 0-.535-1.3-2.238-3.173-2.238-1.861 0-3.175 1.703-3.175 2.238 0 .531 1.323 2.238 3.175 2.238z"/>
    </defs>
    <g fill="none" fill-rule="evenodd">
        <g>
            <g>
                <g transform="translate(-40 -1203) translate(40 1203) translate(0 1)">
                    <path stroke="#FF625E" stroke-width="1.199" d="M32.161 42.623c2.397 0 4.804.234 7.221.7"/>
                    <mask id="00vcnua2pb" fill="#fff">
                        <use xlink:href="#b0j3nki7sa"/>
                    </mask>
                    <use fill="#FFF" fill-rule="nonzero" transform="rotate(3 38.773 30.348)" xlink:href="#b0j3nki7sa"/>
                    <ellipse cx="40.194" cy="30.41" fill="#324148" mask="url(#00vcnua2pb)" rx="2.02" ry="2.238"/>
                    <mask id="4ulbgq5fyd" fill="#fff">
                        <use xlink:href="#eqh21ecwgc"/>
                    </mask>
                    <use fill="#FFF" fill-rule="nonzero" transform="rotate(3 25.724 30.16)" xlink:href="#eqh21ecwgc"/>
                    <ellipse cx="27.145" cy="30.222" fill="#324148" mask="url(#4ulbgq5fyd)" rx="2.02" ry="2.238"/>
                    <ellipse cx="20.661" cy="33.45" fill="#FF918E" filter="url(#75dxq2h7se)" rx="1.998" ry="2.197"/>
                    <ellipse cx="43.434" cy="33.45" fill="#FF918E" filter="url(#wwxnukdd6f)" rx="1.998" ry="2.197"/>
                    <path stroke="#324148" stroke-width=".999" d="M35.756 26.25c1.842-.96 3.704-1.116 5.586-.466M28.752 26.252c-1.842-.96-3.703-1.116-5.585-.466" opacity=".8"/>
                    <path fill="#57A3F6" fill-rule="nonzero" d="M12.278 1.025c-1.027-1.367-2.904-1.367-3.931 0C5.355 5.005 0 12.908 0 18.48 0 24.898 4.567 30 10.313 30c5.745 0 10.312-5.102 10.312-11.52 0-5.572-5.355-13.475-8.347-17.455zM25.34 2.894c-.418-.547-1.182-.547-1.6 0-1.22 1.592-3.4 4.753-3.4 6.982 0 2.567 1.86 4.608 4.2 4.608s4.2-2.041 4.2-4.608c0-2.23-2.181-5.39-3.4-6.982z"/>
                </g>
            </g>
        </g>
    </g>
</svg>
