<svg xmlns="http://www.w3.org/2000/svg" width="64" height="64" viewBox="0 0 64 64">
    <defs>
        <linearGradient id="nphgksm8oa" x1="50%" x2="50%" y1="0%" y2="100%">
            <stop offset="0%"/>
            <stop offset="100%" stop-color="#002A2A" stop-opacity="0"/>
        </linearGradient>
    </defs>
    <g fill="none" fill-rule="evenodd">
        <g>
            <g>
                <g>
                    <path fill="#57A3F6" d="M3.165 2.979h3C4.788 4.248 4.1 5.587 4.1 6.997c0 2.115 1.01 2.845 1.38 5.13.369 2.284-.148 2.568-.223 3.842-.042.707.16 1.753.61 3.138.089.277-3.516-1.57-3.596-2.413-.023-.238-.028-.455-.016-.653.083-1.346.602-1.613.23-3.92C2.112 9.814 1.1 9.11 1.1 6.966c0-1.43.688-2.759 2.065-3.987z" transform="translate(-1292 -1586) translate(1292 1586) translate(19 28) rotate(8 3.632 11.057)"/>
                    <path fill="#57A3F6" d="M21.524 2.979h3c-1.376 1.269-2.065 2.608-2.065 4.018 0 2.115 1.01 2.845 1.38 5.13.37 2.284-.147 2.568-.223 3.842-.042.707.161 1.753.61 3.138.09.277-3.515-1.57-3.595-2.413-.023-.238-.028-.455-.016-.653.083-1.346.602-1.613.23-3.92-.374-2.307-1.386-3.01-1.386-5.155 0-1.43.689-2.759 2.065-3.987z" transform="translate(-1292 -1586) translate(1292 1586) translate(19 28) scale(-1 1) rotate(8 0 -303.44)"/>
                    <path fill="url(#nphgksm8oa)" d="M2.162 0h20.885c.552 0 1 .448 1 1 0 .224-.076.442-.214.618L22.747 3c-1.489 1.894-3.764 3-6.173 3h-7.94C6.227 6 3.95 4.894 2.463 3L1.376 1.618C1.034 1.184 1.11.555 1.544.214 1.72.075 1.938 0 2.162 0z" opacity=".275" transform="translate(-1292 -1586) translate(1292 1586) translate(19 28)"/>
                </g>
            </g>
        </g>
    </g>
</svg>
