<svg xmlns="http://www.w3.org/2000/svg" xmlns:xlink="http://www.w3.org/1999/xlink" width="60" height="60" viewBox="0 0 60 60">
    <defs>
        <path id="vstj3vl1ka" d="M0 0L52.5 0 52.5 41.25 0 41.25z"/>
    </defs>
    <g fill="none" fill-rule="evenodd">
        <g>
            <g>
                <g>
                    <g transform="translate(-474.000000, -370.000000) translate(474.000000, 370.000000) translate(3.750000, 9.375000)">
                        <path fill="#FEC602" d="M38.72 12.891c-1.387 0-2.51 1.104-2.51 2.464 0 1.362 1.123 2.465 2.51 2.465 1.385 0 2.507-1.103 2.507-2.465 0-1.36-1.122-2.464-2.507-2.464zm6.022 5.914c-1.387 0-2.51 1.105-2.51 2.465 0 1.36 1.123 2.464 2.51 2.464 1.385 0 2.51-1.104 2.51-2.464 0-1.36-1.125-2.465-2.51-2.465zm-12.045 0c-1.386 0-2.51 1.105-2.51 2.465 0 1.36 1.124 2.464 2.51 2.464 1.385 0 2.51-1.104 2.51-2.464 0-1.36-1.125-2.465-2.51-2.465zm6.023 5.915c-1.387 0-2.51 1.103-2.51 2.463 0 1.363 1.123 2.466 2.51 2.466 1.385 0 2.507-1.103 2.507-2.466 0-1.36-1.122-2.463-2.507-2.463zM18.374 12.89h-6.562l-.001 5.155-5.25.002v6.445h5.25l.001 5.156h6.562v-5.156h5.25v-6.445l-5.25-.002V12.89zM20.625 0h11.602c11.39 0 20.625 9.234 20.625 20.625 0 11.39-9.235 20.625-20.625 20.625H20.625C9.235 41.25 0 32.016 0 20.625 0 9.235 9.234 0 20.625 0z"/>
                    </g>
                    <path fill="#196CC7" d="M38.72 12.891c1.385 0 2.507 1.104 2.507 2.464 0 1.362-1.122 2.465-2.507 2.465-1.387 0-2.51-1.103-2.51-2.465 0-1.36 1.123-2.464 2.51-2.464" transform="translate(-474.000000, -370.000000) translate(474.000000, 370.000000) translate(3.750000, 9.375000)"/>
                    <path fill="#FFED0F" d="M38.72 24.72c1.385 0 2.507 1.103 2.507 2.464 0 1.362-1.122 2.465-2.507 2.465-1.387 0-2.51-1.103-2.51-2.465 0-1.36 1.123-2.464 2.51-2.464" transform="translate(-474.000000, -370.000000) translate(474.000000, 370.000000) translate(3.750000, 9.375000)"/>
                    <path fill="#00CDC3" d="M32.697 18.805c1.385 0 2.509 1.104 2.509 2.466 0 1.36-1.124 2.463-2.51 2.463-1.384 0-2.509-1.103-2.509-2.463 0-1.362 1.125-2.466 2.51-2.466" transform="translate(-474.000000, -370.000000) translate(474.000000, 370.000000) translate(3.750000, 9.375000)"/>
                    <path fill="#FF625E" d="M44.741 18.805c1.385 0 2.51 1.104 2.51 2.466 0 1.36-1.125 2.463-2.51 2.463-1.385 0-2.509-1.103-2.509-2.463 0-1.362 1.124-2.466 2.51-2.466" transform="translate(-474.000000, -370.000000) translate(474.000000, 370.000000) translate(3.750000, 9.375000)"/>
                    <path fill="#107778" d="M18.374 12.891L18.374 18.046 23.625 18.048 23.625 24.493 18.374 24.493 18.374 29.649 11.813 29.649 11.811 24.493 6.562 24.493 6.562 18.048 11.811 18.046 11.813 12.891z" transform="translate(-474.000000, -370.000000) translate(474.000000, 370.000000) translate(3.750000, 9.375000)"/>
                </g>
            </g>
        </g>
    </g>
</svg>
