<svg xmlns="http://www.w3.org/2000/svg" xmlns:xlink="http://www.w3.org/1999/xlink" width="60" height="60" viewBox="0 0 60 60">
    <defs>
        <path id="umr0p4s02a" d="M0 0L52.42 0 52.42 51.005 0 51.005z"/>
    </defs>
    <g fill="none" fill-rule="evenodd">
        <g>
            <g>
                <g>
                    <g transform="translate(-542.000000, -370.000000) translate(542.000000, 370.000000) translate(3.750000, 5.103662)">
                        <mask id="nl52s6ej5b" fill="#fff">
                            <use xlink:href="#umr0p4s02a"/>
                        </mask>
                        <path fill="#FF9779" d="M52.42 27.482c0 .834-.692 1.513-1.547 1.513h-6.486c-.854 0-1.544.676-1.544 1.51v18.988c0 .835-.694 1.512-1.547 1.512H11.124c-.852 0-1.546-.677-1.546-1.512V30.505c0-.834-.691-1.51-1.545-1.51H1.547C.692 28.995 0 28.316 0 27.482l1.402-16.175c0-.478.23-.928.625-1.212l8.456-6.13.048-.033.004-.003 3.598-2.427.417-.281L16.288.107c.17-.11.382-.131.57-.06l.752.289 2.14.817 4.59 1.752 1.87.697 2.073-.706 5.022-1.92L34.996.33l.76-.29c.064-.024.131-.04.198-.04h.02c.114.001.224.038.32.1l1.729 1.106.341.22 3.662 2.6 8.367 6.069c.395.284.626.734.626 1.212l1.4 16.175z" mask="url(#nl52s6ej5b)"/>
                    </g>
                    <path fill="#0E7CF4" d="M28.866 18.96c0 .086-.005.171-.013.254l-.015.124-.022.123c-.014.07-.033.14-.053.21-.01.033-.02.066-.032.1l-.037.1-.04.098c-.389.868-1.26 1.475-2.273 1.475-1.371 0-2.483-1.112-2.483-2.484 0-1.285.977-2.344 2.23-2.471.082-.008.167-.013.253-.013.084 0 .166.005.248.013.041.004.083.009.125.016.067.01.134.023.199.038s.129.033.191.054c.032.009.063.02.096.032.681.25 1.223.791 1.472 1.473.012.033.024.064.033.095.02.063.038.127.053.192s.028.131.039.199c.007.04.012.082.016.125.008.081.013.164.013.247" transform="translate(-542.000000, -370.000000) translate(542.000000, 370.000000) translate(3.750000, 5.103662)"/>
                    <path fill="#FFED0F" d="M28.866 26.992c0 .086-.005.171-.013.254-.007.074-.019.146-.031.217l-.01.053c-.008.028-.014.055-.02.083l-.042.146c-.01.035-.022.068-.035.1-.028.078-.06.153-.094.225l-.055.106c-.019.035-.038.068-.06.102-.014.026-.03.051-.048.077l-.037.055c-.016.024-.033.046-.049.068-.024.032-.049.064-.074.094-.028.035-.058.068-.089.1-.033.038-.07.074-.105.109-.028.028-.057.055-.086.08-.034.03-.068.058-.103.086-.422.332-.955.53-1.534.53-1.371 0-2.483-1.113-2.483-2.485 0-1.372 1.112-2.483 2.483-2.483.66 0 1.26.257 1.705.677.015.013.03.027.044.042.03.03.06.06.089.092v.002c.075.082.145.17.209.261.14.204.25.429.326.67.036.117.064.237.083.36.02.125.029.25.029.38" transform="translate(-542.000000, -370.000000) translate(542.000000, 370.000000) translate(3.750000, 5.103662)"/>
                    <path fill="#29DAA1" d="M28.866 35.02c0 .085-.005.17-.013.253-.007.073-.018.145-.031.216l-.003.012-.01.05c-.006.024-.01.048-.018.072l-.023.087-.022.07c-.007.023-.014.047-.023.07-.066.187-.153.363-.261.526-.014.023-.03.046-.046.069-.017.025-.036.05-.054.074l-.06.075c-.026.033-.054.064-.082.096l-.083.086c-.055.055-.115.109-.176.16l-.083.065c-.415.315-.935.502-1.497.502-1.371 0-2.483-1.112-2.483-2.484 0-1.371 1.112-2.484 2.483-2.484.765 0 1.45.346 1.906.89.035.043.069.086.101.13.033.044.063.09.093.136.03.047.057.094.084.142l.001.003c.057.106.107.215.149.329.017.048.033.097.048.148.03.101.054.205.07.31.022.13.033.262.033.396" transform="translate(-542.000000, -370.000000) translate(542.000000, 370.000000) translate(3.750000, 5.103662)"/>
                    <path fill="#FD414A" d="M42.026 4.027c-.225-.163-.53-.16-.752.006l-10.3 7.69c-.227.168-.537.168-.762-.002L26.68 9.049c-.227-.172-.54-.172-.766 0l-3.533 2.672c-.225.17-.535.17-.762.002L11.234 3.97c-.204-.153-.48-.167-.7-.04l3.6-2.427c-.278.262-.265.727.057.966l7.415 5.536c.227.17.537.168.762-.002l2.1-1.588c.158-.119.251-.304.252-.502l.014-2.267h.014v-.147c0-.263-.162-.499-.408-.593l1.87.697 2.073-.706c-.247.093-.41.33-.41.593l.004 2.423c0 .199.094.384.252.505l2.096 1.585c.225.17.536.171.762.002l7.415-5.536c.355-.266.335-.804-.038-1.043l3.662 2.602z" transform="translate(-542.000000, -370.000000) translate(542.000000, 370.000000) translate(3.750000, 5.103662)"/>
                </g>
            </g>
        </g>
    </g>
</svg>
