<svg xmlns="http://www.w3.org/2000/svg" xmlns:xlink="http://www.w3.org/1999/xlink" width="60" height="60" viewBox="0 0 60 60">
    <defs>
        <path id="oyvgpipbza" d="M2.79 3.008C9.617 1.003 16.451 0 23.291 0c6.841 0 13.683 1.003 20.524 3.01 1.655.485 2.791 2.002 2.791 3.726v24.846c0 2.376-1.583 4.461-3.871 5.1-6.426 1.796-12.882 2.693-19.367 2.693-6.496 0-12.992-.9-19.487-2.7C1.588 36.038 0 33.95 0 31.57V6.735C0 5.01 1.136 3.494 2.79 3.008z"/>
    </defs>
    <g fill="none" fill-rule="evenodd">
        <g>
            <g>
                <path d="M0 0H60V60H0z" transform="translate(-950.000000, -370.000000) translate(950.000000, 370.000000)"/>
                <g transform="translate(-950.000000, -370.000000) translate(950.000000, 370.000000) translate(2.812500, 10.312500)">
                    <ellipse cx="6.797" cy="20.034" stroke="#8DCBC7" stroke-width="3.531" rx="6.797" ry="6.678"/>
                    <ellipse cx="47.578" cy="20.034" stroke="#8DCBC7" stroke-width="3.531" rx="6.797" ry="6.678"/>
                    <g transform="translate(3.883929, 0.000000)">
                        <mask id="zq9s74bjub" fill="#fff">
                            <use xlink:href="#oyvgpipbza"/>
                        </mask>
                        <use fill="#00F5B3" xlink:href="#oyvgpipbza"/>
                        <path fill="#00C1B3" d="M2.214 8.285c7.067-2.115 14.12-3.172 21.16-3.172 7.03 0 14.04 1.054 21.031 3.163 2.46.742 4.144 3.008 4.144 5.577v20.28c0 2.684-2.009 4.944-4.675 5.26-6.803.802-13.636 1.204-20.5 1.204-6.879 0-13.757-.403-20.636-1.21-2.669-.313-4.68-2.574-4.68-5.26v-20.26c0-2.575 1.69-4.844 4.156-5.582z" mask="url(#zq9s74bjub)"/>
                        <g fill="#00F5B3" mask="url(#zq9s74bjub)">
                            <g transform="translate(5.825893, 14.310297)">
                                <path d="M.954 0h33.047c.527 0 .954.427.954.954 0 .527-.427.954-.954.954H.954C.427 1.908 0 1.481 0 .954 0 .427.427 0 .954 0z"/>
                                <rect width="34.955" height="1.908" y="6.678" rx=".954"/>
                                <rect width="34.955" height="1.908" y="13.356" rx=".954"/>
                            </g>
                        </g>
                    </g>
                </g>
            </g>
        </g>
    </g>
</svg>
