<svg xmlns="http://www.w3.org/2000/svg" width="60" height="60" viewBox="0 0 60 60">
    <g fill="none" fill-rule="evenodd">
        <g>
            <g>
                <g>
                    <path fill="#0E7CF4" d="M16.595 18.994l5.094 2.088c.328-.238.69-.445 1.072-.612l.388-.157.678-5.666c-2.969.41-5.551 2.032-7.232 4.347zm10.23-4.343l.65 5.662c.397.143.773.326 1.122.542l.339.227 5.094-2.088c-1.676-2.308-4.248-3.926-7.204-4.343zm8.602 6.965l-4.354 2.927c.04.251.079.508.079.768 0 .174-.019.345-.041.516l-.038.253 4.354 2.926c.42-1.153.651-2.396.651-3.695 0-1.298-.23-2.543-.651-3.695zM14.548 25.31c0 1.3.23 2.542.65 3.695l4.354-2.926c-.038-.251-.077-.508-.077-.77 0-.174.017-.345.04-.514l.037-.253-4.354-2.927c-.42 1.152-.65 2.397-.65 3.695zm7.141 4.229l-5.094 2.09c1.676 2.308 4.248 3.925 7.204 4.34l-.65-5.661c-.393-.144-.772-.325-1.121-.542l-.339-.227zm7.247 0c-.328.239-.69.444-1.072.612l-.388.157-.678 5.665c2.969-.41 5.551-2.03 7.232-4.345l-5.094-2.09zM25.313 0C39.29 0 50.624 11.332 50.624 25.31c0 13.981-11.334 25.313-25.313 25.313C11.335 50.623 0 39.291 0 25.311S11.334 0 25.313 0z" transform="translate(-338.000000, -370.000000) translate(338.000000, 370.000000) translate(4.687500, 4.687500)"/>
                    <path fill="#107678" d="M25.091 12.434c-6.98 0-12.656 5.678-12.656 12.656 0 6.98 5.677 12.656 12.656 12.656 6.978 0 12.657-5.677 12.657-12.656 0-6.978-5.679-12.656-12.657-12.656m0 29.31c-9.183 0-16.654-7.47-16.654-16.654 0-9.182 7.471-16.652 16.654-16.652 9.182 0 16.653 7.47 16.653 16.652 0 9.183-7.47 16.654-16.653 16.654" transform="translate(-338.000000, -370.000000) translate(338.000000, 370.000000) translate(4.687500, 4.687500)"/>
                    <path fill="#006C6D" d="M25.309 22.725c1.427 0 2.583 1.158 2.583 2.584 0 1.427-1.156 2.585-2.583 2.585-1.428 0-2.584-1.158-2.584-2.585 0-1.426 1.156-2.584 2.584-2.584" transform="translate(-338.000000, -370.000000) translate(338.000000, 370.000000) translate(4.687500, 4.687500)"/>
                </g>
            </g>
        </g>
    </g>
</svg>
