<svg xmlns="http://www.w3.org/2000/svg" width="60" height="60" viewBox="0 0 60 60">
    <g fill="none" fill-rule="evenodd">
        <g fill-rule="nonzero">
            <g>
                <g>
                    <g transform="translate(-678.000000, -370.000000) translate(678.000000, 370.000000) translate(7.500000, 11.250000) translate(0.000000, 0.000000)">
                        <g stroke="#F72F2A" stroke-width="4.737">
                            <path d="M2.008-2.368c2.68.298 5.798 4.046 7.714 7.95.537 1.094 1.006 2.255 1.376 3.404-1.154.114-2.416.121-3.724-.002-2.102-.198-4.025-.702-5.533-1.376-2.016-.902-3.304-2.16-3.831-3.36-.264-.685-.588-1.613-.211-2.937.182-.642.55-1.429 1.355-2.324C.5-2.289 1.434-2.368 2.008-2.368z" transform="translate(11.515909, 0.000000)"/>
                            <path d="M16.316-2.368c2.68.298 5.798 4.046 7.714 7.95.537 1.094 1.006 2.255 1.376 3.404-1.154.114-2.416.121-3.724-.002-2.102-.198-4.025-.702-5.533-1.376-2.016-.902-3.304-2.16-3.832-3.36-.263-.685-.587-1.613-.21-2.937.182-.642.55-1.429 1.355-2.324 1.345-1.276 2.28-1.355 2.854-1.355z" transform="translate(11.515909, 0.000000) translate(18.105909, 3.313089) scale(-1, 1) translate(-18.105909, -3.313089)"/>
                        </g>
                        <path fill="#E06088" d="M1.642 19.647H3.45V41.58c0 .927.657 1.545 1.642 1.545H39.91c.985 0 1.642-.618 1.642-1.545V19.647h1.807c.985 0 1.642-.618 1.642-1.545V10.38c0-.927-.657-1.545-1.642-1.545h-8.54H1.642C.657 8.835 0 9.453 0 10.38v7.722c0 .927.657 1.545 1.642 1.545z"/>
                        <path fill="#E06088" d="M6.734 19.647L16.752 19.647 16.752 40.036 6.734 40.036z"/>
                        <path fill="#FD414A" d="M20.036 40.036L20.036 19.647 24.964 19.647 24.964 40.036z"/>
                        <path fill="#E06088" d="M38.266 40.036L28.248 40.036 28.248 19.647 38.266 19.647z"/>
                        <path fill="#00CDC3" d="M3.285 12.079L16.752 12.079 16.752 16.712 5.091 16.712 3.285 16.712z"/>
                        <rect width="45" height="13.252" y="7.785" fill="#FF99B9" rx="2.368"/>
                        <path fill="#F72F2A" d="M24.972 7.614L24.972 43.114 20.045 43.114 20.045 7.614z"/>
                    </g>
                </g>
            </g>
        </g>
    </g>
</svg>
