<svg xmlns="http://www.w3.org/2000/svg" xmlns:xlink="http://www.w3.org/1999/xlink" width="60" height="60" viewBox="0 0 60 60">
    <defs>
        <path id="4zx806y1na" d="M0 0L46.875 0 46.875 46.712 0 46.712z"/>
    </defs>
    <g fill="none" fill-rule="evenodd">
        <g>
            <g>
                <g>
                    <g transform="translate(-406.000000, -370.000000) translate(406.000000, 370.000000) translate(6.562500, 7.500000)">
                        <mask id="wpiklmbfdb" fill="#fff">
                            <use xlink:href="#4zx806y1na"/>
                        </mask>
                        <path fill="#00F5B3" d="M23.437 5.2L43.683.078C45.06-.27 46.455.577 46.8 1.97c.05.205.076.418.076.63v36.153c0 1.192-.804 2.233-1.946 2.521l-21.492 5.438-21.492-5.438C.802 40.986 0 39.945 0 38.754V2.6C0 1.165 1.15 0 2.568 0c.21 0 .42.027.623.078L23.437 5.2z" mask="url(#wpiklmbfdb)"/>
                    </g>
                    <path fill="#27E5A8" d="M23.438 46.837c1.33 0 2.407-1.077 2.407-2.407V6.87c0-1.33-1.078-2.407-2.407-2.407-1.33 0-2.408 1.077-2.408 2.407v37.56c0 1.33 1.078 2.407 2.408 2.407z" transform="translate(-406.000000, -370.000000) translate(406.000000, 370.000000) translate(6.562500, 7.500000)"/>
                    <path fill="#24A09A" d="M31.617 10.828l10.275-2.797c.341-.092.694.114.787.46.015.055.021.111.021.17v4.42c0 .293-.195.551-.475.627l-10.274 2.797c-.342.092-.695-.113-.786-.46-.014-.055-.023-.111-.023-.169v-4.42c0-.293.196-.552.475-.628" transform="translate(-406.000000, -370.000000) translate(406.000000, 370.000000) translate(6.562500, 7.500000)"/>
                </g>
            </g>
        </g>
    </g>
</svg>
