<svg xmlns="http://www.w3.org/2000/svg" xmlns:xlink="http://www.w3.org/1999/xlink" width="60" height="60" viewBox="0 0 60 60">
    <defs>
        <path id="jgofdf4gka" d="M0 0L21.215 0 21.215 21.181 0 21.181z"/>
        <path id="jkzo73fpfc" d="M0 0L48.749 0 48.749 27.569 0 27.569z"/>
    </defs>
    <g fill="none" fill-rule="evenodd">
        <g>
            <g>
                <g>
                    <path fill="#51638C" d="M10.665 3.23L0 21.181 0 24.216 48.75 24.216 48.75 21.181 39.611 3.911 35.812 3.23z" transform="translate(-746.000000, -370.000000) translate(746.000000, 370.000000) translate(5.625000, 5.625000)"/>
                    <g>
                        <path fill="#196CC7" d="M23.688 5.178v14.056c0 1.074-.868 1.947-1.94 1.947H0L8.952 4.263c.337-.636.996-1.033 1.713-1.033h11.083c1.072 0 1.94.872 1.94 1.948" transform="translate(-746.000000, -370.000000) translate(746.000000, 370.000000) translate(5.625000, 5.625000) translate(0.000013, 0.000000)"/>
                        <g transform="translate(-746.000000, -370.000000) translate(746.000000, 370.000000) translate(5.625000, 5.625000) translate(0.000013, 0.000000) translate(27.534426, 0.000000)">
                            <mask id="gew377barb" fill="#fff">
                                <use xlink:href="#jgofdf4gka"/>
                            </mask>
                            <path fill="#00CDC3" d="M21.216 21.181L1.58 17.48C.665 17.305 0 16.501 0 15.564V1.95C0 .615 1.306-.325 2.565.106l8.423 2.876c.467.16.857.492 1.088.93l9.14 17.27z" mask="url(#gew377barb)"/>
                        </g>
                        <g transform="translate(-746.000000, -370.000000) translate(746.000000, 370.000000) translate(5.625000, 5.625000) translate(0.000013, 0.000000) translate(0.000217, 21.181057)">
                            <mask id="yzna9m5xed" fill="#fff">
                                <use xlink:href="#jkzo73fpfc"/>
                            </mask>
                            <path fill="#6A80CE" d="M48.75 0v24.847c0 1.504-1.214 2.722-2.71 2.722H2.71c-1.497 0-2.71-1.218-2.71-2.722V0h48.75z" mask="url(#yzna9m5xed)"/>
                        </g>
                        <path fill="#51638C" d="M25.43 38.475c0 .085-.007.169-.022.252-.117.63-.67 1.11-1.332 1.11H6.861c-.662 0-1.214-.48-1.333-1.11-.015-.083-.023-.167-.023-.252 0-.11.013-.215.037-.316.142-.6.68-1.047 1.32-1.047h17.214c.64 0 1.176.446 1.318 1.047.024.1.037.206.037.316M19.318 33.806c0 .086-.008.17-.024.252-.117.632-.668 1.11-1.332 1.11h-11.1c-.663 0-1.215-.478-1.334-1.11-.015-.082-.023-.166-.023-.252 0-.109.013-.215.037-.316.142-.6.68-1.046 1.32-1.046h11.1c.64 0 1.177.446 1.318 1.046.026.101.038.207.038.316" transform="translate(-746.000000, -370.000000) translate(746.000000, 370.000000) translate(5.625000, 5.625000) translate(0.000013, 0.000000)"/>
                    </g>
                </g>
            </g>
        </g>
    </g>
</svg>
