<svg xmlns="http://www.w3.org/2000/svg" xmlns:xlink="http://www.w3.org/1999/xlink" width="60" height="60" viewBox="0 0 60 60">
    <defs>
        <path id="dshdk00ipa" d="M0 0L50.625 0 50.625 50.625 0 50.625z"/>
    </defs>
    <g fill="none" fill-rule="evenodd">
        <g>
            <g>
                <g>
                    <g transform="translate(-270.000000, -370.000000) translate(270.000000, 370.000000) translate(4.687500, 4.687500)">
                        <mask id="4b98bfe04b" fill="#fff">
                            <use xlink:href="#dshdk00ipa"/>
                        </mask>
                        <path fill="#FF625E" d="M24.37 3.517l-2.379.865 1.732 4.758 2.38-.866-1.732-4.757zm11.486 2.642l-1.821 1.759 3.517 3.641 1.82-1.758-3.516-3.642zM15.16 6.03l-2.219 4.552 2.275 1.108 2.22-4.55-2.276-1.11zm18.497 4.641l-4.814 1.564.78 2.408 4.815-1.564-.781-2.408zm-14.102 2.364l-4.661 1.978.989 2.329 4.66-1.976-.988-2.33zm-12.13.979l-1.377 2.123 4.246 2.757 1.378-2.123-4.247-2.757zm31.536.89l-1.816 4.726 2.364.906 1.814-4.726-2.362-.907zm8.437 5.725l-4.66 1.978.988 2.328 4.661-1.976-.989-2.33zM9.776 22.245l-4.933 1.137.569 2.467 4.932-1.137-.568-2.467zm15.536-4.526c-4.193 0-7.593 3.4-7.593 7.593 0 4.194 3.4 7.594 7.593 7.594 4.194 0 7.594-3.4 7.594-7.593 0-4.194-3.4-7.594-7.594-7.594zm0-17.719c13.98 0 25.313 11.333 25.313 25.313 0 13.979-11.333 25.312-25.313 25.312C11.333 50.625 0 39.292 0 25.312 0 11.334 11.333 0 25.312 0z" mask="url(#4b98bfe04b)"/>
                    </g>
                    <path fill="#FF84FE" d="M33.657 10.67L34.438 13.078 29.624 14.643 28.842 12.235zM15.159 6.03L17.434 7.138 15.215 11.69 12.94 10.579z" transform="translate(-270.000000, -370.000000) translate(270.000000, 370.000000) translate(4.687500, 4.687500)"/>
                    <path fill="#00CDC3" d="M47.398 20.627L48.387 22.958 43.726 24.936 42.737 22.605zM19.555 13.034L20.543 15.364 15.883 17.342 14.894 15.011z" transform="translate(-270.000000, -370.000000) translate(270.000000, 370.000000) translate(4.687500, 4.687500)"/>
                    <path fill="#FF84FE" d="M5.412 25.85L4.843 23.383 9.776 22.244 10.344 24.711z" transform="translate(-270.000000, -370.000000) translate(270.000000, 370.000000) translate(4.687500, 4.687500)"/>
                    <path fill="#00CDC3" d="M39.372 9.801L37.551 11.56 34.034 7.918 35.855 6.16z" transform="translate(-270.000000, -370.000000) translate(270.000000, 370.000000) translate(4.687500, 4.687500)"/>
                    <path fill="#FFED0F" d="M38.96 14.902L41.322 15.809 39.508 20.535 37.146 19.629zM6.047 16.136L7.426 14.013 11.672 16.77 10.293 18.893zM26.102 8.273L23.723 9.139 21.991 4.382 24.371 3.516z" transform="translate(-270.000000, -370.000000) translate(270.000000, 370.000000) translate(4.687500, 4.687500)"/>
                </g>
            </g>
        </g>
    </g>
</svg>
