<svg xmlns="http://www.w3.org/2000/svg" xmlns:xlink="http://www.w3.org/1999/xlink" width="60" height="60" viewBox="0 0 60 60">
    <defs>
        <path id="0t99r8v62a" d="M0 0L50.621 0 50.621 32.847 0 32.847z"/>
    </defs>
    <g fill="none" fill-rule="evenodd">
        <g>
            <g>
                <g>
                    <g transform="translate(-814.000000, -370.000000) translate(814.000000, 370.000000) translate(4.687500, 6.918792) translate(0.000000, 13.195545)">
                        <mask id="fj8sigswbb" fill="#fff">
                            <use xlink:href="#0t99r8v62a"/>
                        </mask>
                        <path fill="#FF99B9" d="M50.621 4.612l-4.326 23.622c0 2.538-2.075 4.613-4.611 4.613H8.939c-2.537 0-4.613-2.075-4.613-4.613L0 4.612C0 2.076 2.076 0 4.612 0H46.01c2.536 0 4.611 2.076 4.611 4.612" mask="url(#fj8sigswbb)"/>
                    </g>
                    <path fill="#107778" d="M22.698.843l.135-.116-.045.041-.09.075M26.735.727l.135.116-.09-.075-.045-.041M37.158 17.152l-.135.116.046-.04.09-.076" transform="translate(-814.000000, -370.000000) translate(814.000000, 370.000000) translate(4.687500, 6.918792)"/>
                    <path fill="#FF625E" d="M22.833.727l-.045.041-.09.075.135-.116zm3.902 0l.134.116-.09-.075c-.014-.015-.03-.028-.044-.041zm10.59 11.942l-10.09-11.57C26.588.357 25.67-.016 24.751 0c-.919-.017-1.838.355-2.486 1.098l-10.09 11.57c-1.156 1.326-1.028 3.35.282 4.519 1.143.95 2.77.976 3.938.14l.001-.002c.2-.14.384-.307.549-.497L24.75 7.88l7.804 8.949c.167.19.351.357.55.497v.002c1.17.836 2.796.81 3.94-.14 1.31-1.17 1.437-3.193.281-4.52z" transform="translate(-814.000000, -370.000000) translate(814.000000, 370.000000) translate(4.687500, 6.918792)"/>
                    <path fill="#107778" d="M12.499 17.227l.045.041-.135-.116.09.075M22.698.843l.135-.116-.045.041-.09.075M26.87.843l-.09-.075-.046-.041.135.116z" transform="translate(-814.000000, -370.000000) translate(814.000000, 370.000000) translate(4.687500, 6.918792)"/>
                    <path fill="#C082E8" d="M12.926 17.569c-.19-.131-.357-.281-.525-.43l.675.58c-.057-.037-.094-.094-.15-.15m0 0c-.19-.131-.357-.281-.525-.43l.675.58c-.057-.037-.094-.094-.15-.15m0 0c-.19-.131-.357-.281-.525-.43l.675.58c-.057-.037-.094-.094-.15-.15" transform="translate(-814.000000, -370.000000) translate(814.000000, 370.000000) translate(4.687500, 6.918792)"/>
                    <path fill="#00CDC3" d="M20.985 38.446c0 2.208-1.79 3.997-3.998 3.997s-3.998-1.79-3.998-3.997c0-2.208 1.79-3.998 3.998-3.998s3.998 1.79 3.998 3.998" transform="translate(-814.000000, -370.000000) translate(814.000000, 370.000000) translate(4.687500, 6.918792)"/>
                    <path fill="#FFED0F" d="M26.987 39.855c0 1.204-.976 2.18-2.18 2.18-1.203 0-2.179-.976-2.179-2.18 0-1.203.976-2.18 2.18-2.18 1.203 0 2.18.977 2.18 2.18" transform="translate(-814.000000, -370.000000) translate(814.000000, 370.000000) translate(4.687500, 6.918792)"/>
                    <path fill="#196CC7" d="M38.197 36.713c0 2.94-2.383 5.322-5.322 5.322-2.94 0-5.322-2.383-5.322-5.322 0-2.94 2.383-5.322 5.322-5.322 2.94 0 5.322 2.383 5.322 5.322" transform="translate(-814.000000, -370.000000) translate(814.000000, 370.000000) translate(4.687500, 6.918792)"/>
                </g>
            </g>
        </g>
    </g>
</svg>
