<svg xmlns="http://www.w3.org/2000/svg" xmlns:xlink="http://www.w3.org/1999/xlink" width="60" height="60" viewBox="0 0 60 60">
    <defs>
        <path id="akhv6g11ma" d="M0 0L48.75 0 48.75 35.691 0 35.691z"/>
    </defs>
    <g fill="none" fill-rule="evenodd">
        <g>
            <g>
                <g>
                    <g transform="translate(-882.000000, -370.000000) translate(882.000000, 370.000000) translate(5.625000, 5.625000) translate(0.000000, 13.059177)">
                        <mask id="c092414djb" fill="#fff">
                            <use xlink:href="#akhv6g11ma"/>
                        </mask>
                        <path fill="#6AD0EF" d="M48.75 30.678c0 2.758-2.22 5.013-4.93 5.013H4.931C2.218 35.69 0 33.436 0 30.678L1.818 5.011C1.818 2.255 4.038 0 6.75 0h35.248c2.712 0 4.932 2.255 4.932 5.01l1.819 25.668z" mask="url(#c092414djb)"/>
                    </g>
                    <path fill="#6A80CE" d="M31.335 19.644c0 3.9-3.121 7.071-6.96 7.071-3.838 0-6.96-3.172-6.96-7.07 0-.58.462-1.048 1.032-1.048.568 0 1.03.469 1.03 1.047 0 2.744 2.197 4.976 4.898 4.976 2.7 0 4.897-2.232 4.897-4.976 0-.578.462-1.047 1.031-1.047.57 0 1.032.469 1.032 1.047" transform="translate(-882.000000, -370.000000) translate(882.000000, 370.000000) translate(5.625000, 5.625000)"/>
                    <path fill="#00CDC3" d="M33.288 9.819c-.553.381-1.182.563-1.803.563-1.034 0-2.049-.503-2.671-1.438-1-1.5-2.66-2.395-4.44-2.395-1.778 0-3.438.895-4.438 2.395-.998 1.497-3 1.89-4.474.875-1.475-1.014-1.86-3.05-.861-4.547C16.8 1.972 20.454 0 24.374 0c3.922 0 7.575 1.971 9.775 5.272 1 1.497.614 3.533-.86 4.547" transform="translate(-882.000000, -370.000000) translate(882.000000, 370.000000) translate(5.625000, 5.625000)"/>
                </g>
            </g>
        </g>
    </g>
</svg>
