<svg xmlns="http://www.w3.org/2000/svg" xmlns:xlink="http://www.w3.org/1999/xlink" width="60" height="60" viewBox="0 0 60 60">
    <defs>
        <path id="ebncgrzola" d="M0 0L7.917 0 7.917 14.52 0 14.52z"/>
        <path id="tu6806wtoc" d="M0 0L38.484 0 38.484 31.213 0 31.213z"/>
        <path id="jlp1bmyu1e" d="M0 0L50.625 0 50.625 19.427 0 19.427z"/>
    </defs>
    <g fill="none" fill-rule="evenodd">
        <g>
            <g>
                <g>
                    <g transform="translate(-1018.000000, -370.000000) translate(1018.000000, 370.000000) translate(4.687500, 4.687500) translate(31.542018, 0.000000)">
                        <mask id="z4us9hy7mb" fill="#fff">
                            <use xlink:href="#ebncgrzola"/>
                        </mask>
                        <path fill="#0E7CF4" d="M7.917 2.678v9.164c0 .21-.024.415-.073.612-.281 1.183-1.356 2.066-2.63 2.066H2.703C1.216 14.52 0 13.315 0 11.842V2.678C0 1.205 1.216 0 2.703 0h2.511c1.487 0 2.703 1.205 2.703 2.678" mask="url(#z4us9hy7mb)"/>
                    </g>
                    <g transform="translate(-1018.000000, -370.000000) translate(1018.000000, 370.000000) translate(4.687500, 4.687500) translate(6.032774, 19.411654)">
                        <mask id="oox79j5u5d" fill="#fff">
                            <use xlink:href="#tu6806wtoc"/>
                        </mask>
                        <path fill="#196CC7" d="M38.484 2.752v25.71c0 1.513-1.25 2.751-2.778 2.751H2.778C1.25 31.213 0 29.975 0 28.461V2.752C0 1.238 1.251 0 2.778 0h32.928c1.528 0 2.778 1.238 2.778 2.752" mask="url(#oox79j5u5d)"/>
                    </g>
                    <g transform="translate(-1018.000000, -370.000000) translate(1018.000000, 370.000000) translate(4.687500, 4.687500) translate(0.000000, 3.673716)">
                        <mask id="pzq2ao1dpf" fill="#fff">
                            <use xlink:href="#jlp1bmyu1e"/>
                        </mask>
                        <path fill="#065F7E" d="M48.455 19.427H2.17c-2.148 0-2.986-2.763-1.193-3.936L24.12.355c.723-.473 1.662-.473 2.385 0l1.653 1.083 3.384 2.213 7.845 5.13-.114.36c.046-.116.084-.237.114-.36l4.137 2.707 6.124 4.003c1.793 1.173.955 3.936-1.193 3.936" mask="url(#pzq2ao1dpf)"/>
                    </g>
                    <path fill="#29DAA1" d="M33.166 30.25v4.072h-4.528v-1.11c0-1.634 1.34-2.962 2.989-2.962h1.539z" transform="translate(-1018.000000, -370.000000) translate(1018.000000, 370.000000) translate(4.687500, 4.687500)"/>
                    <path fill="#57A3F6" d="M39.236 33.212v1.11H34.71V30.25h1.538c1.649 0 2.99 1.328 2.99 2.962" transform="translate(-1018.000000, -370.000000) translate(1018.000000, 370.000000) translate(4.687500, 4.687500)"/>
                    <path fill="#FF625E" d="M33.166 35.852v4.071h-1.54c-1.647 0-2.988-1.328-2.988-2.962v-1.109h4.528z" transform="translate(-1018.000000, -370.000000) translate(1018.000000, 370.000000) translate(4.687500, 4.687500)"/>
                    <path fill="#FFED0F" d="M39.236 35.852v1.11c0 1.633-1.34 2.961-2.989 2.961h-1.538v-4.07h4.527z" transform="translate(-1018.000000, -370.000000) translate(1018.000000, 370.000000) translate(4.687500, 4.687500)"/>
                </g>
            </g>
        </g>
    </g>
</svg>
