<svg xmlns="http://www.w3.org/2000/svg" width="60" height="60" viewBox="0 0 60 60">
    <g fill="none" fill-rule="evenodd">
        <g>
            <g>
                <path d="M0 0H60V60H0z" transform="translate(-1086.000000, -370.000000) translate(1086.000000, 370.000000)"/>
                <g>
                    <path fill="#107778" d="M3.606 0h7.211v10.848H0V3.606C0 1.614 1.614 0 3.606 0z" transform="translate(-1086.000000, -370.000000) translate(1086.000000, 370.000000) translate(7.500000, 5.625000)"/>
                    <g transform="translate(-1086.000000, -370.000000) translate(1086.000000, 370.000000) translate(7.500000, 5.625000) translate(3.605769, 0.000000)">
                        <path fill="#28E8D9" d="M0 0h39.663c1.992 0 3.606 1.614 3.606 3.606v46.08c0 .2-.161.361-.36.361-.102 0-.2-.043-.268-.119l-3.6-3.992c-.334-.37-.904-.4-1.274-.066l-.06.06-3.654 3.973c-.337.366-.908.39-1.274.053-.019-.017-.037-.035-.054-.054l-3.647-3.977c-.337-.367-.907-.391-1.274-.055-.02.018-.037.036-.055.055l-3.645 3.973c-.336.367-.907.392-1.274.055-.02-.018-.038-.037-.057-.057l-3.611-3.965c-.336-.368-.906-.394-1.274-.059-.02.019-.04.038-.058.059l-3.624 3.966c-.335.368-.906.394-1.273.058-.02-.018-.039-.037-.057-.057l-3.637-3.971c-.336-.367-.906-.392-1.274-.056-.019.018-.038.036-.055.056L4.232 49.94c-.134.147-.362.157-.51.022-.074-.068-.116-.164-.116-.265V3.7C3.606 1.234 2.404 0 0 0z"/>
                        <rect width="28.846" height="3.616" x="9.014" y="26.669" fill="#107778" rx="1.803"/>
                        <rect width="19.832" height="3.616" x="9.014" y="33.901" fill="#107778" rx="1.803"/>
                        <g fill="#107778">
                            <path d="M7.764 8.954c0 .22 0 .449-.63.449-.498 0-.994-.211-1.61-.685l-.339-.263-1.314 2.043.25.228c.642.59 1.505.926 2.204 1.067v2.671C2.76 14.023 0 10.953 0 7.232 0 3.512 2.76.442 6.325 0v2.472c-1.259.382-2 1.412-2 2.811 0 1.614 1.348 2.308 2.334 2.815.541.279 1.105.567 1.105.856" transform="translate(9.014423, 5.424107)"/>
                            <path d="M14.423 7.232c0 3.593-2.573 6.58-5.96 7.178v-2.72c1.29-.405 2.046-1.463 2.046-2.886 0-1.736-1.403-2.408-2.427-2.9-.479-.23-1.023-.49-1.023-.714 0-.225 0-.402.536-.402.396 0 .718.154 1.15.548l.301.274 1.507-1.764-.238-.263c-.541-.596-1.151-.975-1.852-1.15V.055c3.387.597 5.96 3.584 5.96 7.177" transform="translate(9.014423, 5.424107)"/>
                        </g>
                    </g>
                </g>
            </g>
        </g>
    </g>
</svg>
