<svg xmlns="http://www.w3.org/2000/svg" xmlns:xlink="http://www.w3.org/1999/xlink" width="60" height="60" viewBox="0 0 60 60">
    <defs>
        <path id="6clxbdxp9a" d="M0 0L7.463 0 7.463 4.499 0 4.499z"/>
        <path id="nmhx21eo6c" d="M0 0L7.463 0 7.463 4.499 0 4.499z"/>
        <path id="g7rirwyoae" d="M0 0L18.196 0 18.196 6.481 0 6.481z"/>
        <path id="coptzjph9g" d="M0 0L37.5 0 37.5 43.396 0 43.396z"/>
    </defs>
    <g fill="none" fill-rule="evenodd">
        <g>
            <g>
                <g>
                    <g transform="translate(-610.000000, -370.000000) translate(610.000000, 370.000000) translate(11.250000, 2.812500) translate(23.258470, 49.876153)">
                        <mask id="ruujts4bab" fill="#fff">
                            <use xlink:href="#6clxbdxp9a"/>
                        </mask>
                        <path fill="#7C5BCE" d="M7.463.836c0 2.022-1.671 3.663-3.733 3.663C1.67 4.499 0 2.859 0 .836 0 .549.034.268.098 0h7.267c.065.268.098.549.098.836" mask="url(#ruujts4bab)"/>
                    </g>
                    <g transform="translate(-610.000000, -370.000000) translate(610.000000, 370.000000) translate(11.250000, 2.812500) translate(6.779105, 49.876153)">
                        <mask id="jvcwg03jld" fill="#fff">
                            <use xlink:href="#nmhx21eo6c"/>
                        </mask>
                        <path fill="#7C5BCE" d="M7.463.836c0 2.022-1.67 3.663-3.732 3.663C1.671 4.499 0 2.859 0 .836 0 .549.035.268.1 0h7.266c.064.268.097.549.097.836" mask="url(#jvcwg03jld)"/>
                    </g>
                    <g transform="translate(-610.000000, -370.000000) translate(610.000000, 370.000000) translate(11.250000, 2.812500) translate(9.652847, 0.000000)">
                        <mask id="uru2kzqgif" fill="#fff">
                            <use xlink:href="#g7rirwyoae"/>
                        </mask>
                        <path fill="#7C5BCE" d="M18.196 2.073v4.408h-3V2.947l-.133-.002H3.13l-.133.002v3.534H0V2.073C0 .815 1.23 0 3.13 0h11.933c1.903 0 3.133.815 3.133 2.073" mask="url(#uru2kzqgif)"/>
                    </g>
                    <g transform="translate(-610.000000, -370.000000) translate(610.000000, 370.000000) translate(11.250000, 2.812500) translate(0.000000, 6.480643)">
                        <mask id="91dtruo1uh" fill="#fff">
                            <use xlink:href="#coptzjph9g"/>
                        </mask>
                        <path fill="#C082E8" d="M37.5 3.953v35.489c0 2.175-1.813 3.954-4.029 3.954H4.027C1.813 43.396 0 41.616 0 39.442V3.953C0 1.78 1.813 0 4.027 0h29.444C35.687 0 37.5 1.779 37.5 3.953" mask="url(#91dtruo1uh)"/>
                    </g>
                    <path fill="#7C5BCE" d="M32.706 24.682c0 .118-.011.233-.033.345-.165.865-.937 1.52-1.866 1.52H6.693c-.929 0-1.702-.655-1.867-1.52-.022-.112-.033-.227-.033-.345 0-1.03.851-1.865 1.9-1.865h24.114c1.049 0 1.899.834 1.899 1.865M32.706 17.97c0 .117-.011.232-.033.344-.165.866-.937 1.52-1.866 1.52H6.693c-.929 0-1.702-.654-1.867-1.52-.022-.112-.033-.227-.033-.345 0-.15.018-.294.053-.432.198-.823.95-1.433 1.847-1.433h24.114c.897 0 1.648.61 1.846 1.433.035.138.053.283.053.432" transform="translate(-610.000000, -370.000000) translate(610.000000, 370.000000) translate(11.250000, 2.812500)"/>
                </g>
            </g>
        </g>
    </g>
</svg>
