<svg xmlns="http://www.w3.org/2000/svg" xmlns:xlink="http://www.w3.org/1999/xlink" width="60" height="60" viewBox="0 0 60 60">
    <defs>
        <path id="1fu5nhj7ra" d="M0 0L52.5 0 52.5 39.375 0 39.375z"/>
    </defs>
    <g fill="none" fill-rule="evenodd">
        <g>
            <g>
                <g>
                    <g transform="translate(-1222.000000, -370.000000) translate(1222.000000, 370.000000) translate(3.750000, 10.312500)">
                        <mask id="rodstdcx1b" fill="#fff">
                            <use xlink:href="#1fu5nhj7ra"/>
                        </mask>
                        <path fill="#FF6628" d="M52.5 12.669v14.037c0 6.968-5.678 12.669-12.618 12.669H12.618C5.678 39.375 0 33.675 0 26.706V12.67C0 5.7 5.678-.001 12.618-.001h27.264C46.822 0 52.5 5.702 52.5 12.67" mask="url(#rodstdcx1b)"/>
                    </g>
                    <path fill="#FFB7A2" d="M19.959 23.225c0 2.102-1.697 3.805-3.79 3.805s-3.79-1.703-3.79-3.805c0-2.101 1.697-3.805 3.79-3.805s3.79 1.704 3.79 3.805" transform="translate(-1222.000000, -370.000000) translate(1222.000000, 370.000000) translate(3.750000, 10.312500)"/>
                    <path fill="#0E7CF4" d="M28.802 14.578c0 2.466-1.99 4.464-4.445 4.464-2.456 0-4.447-1.998-4.447-4.464 0-2.465 1.991-4.463 4.447-4.463 2.455 0 4.445 1.998 4.445 4.463" transform="translate(-1222.000000, -370.000000) translate(1222.000000, 370.000000) translate(3.750000, 10.312500)"/>
                    <path fill="#107778" d="M28.147 24.34c0 1.486-1.2 2.69-2.68 2.69-1.48 0-2.68-1.204-2.68-2.69s1.2-2.691 2.68-2.691c1.48 0 2.68 1.205 2.68 2.69" transform="translate(-1222.000000, -370.000000) translate(1222.000000, 370.000000) translate(3.750000, 10.312500)"/>
                    <path fill="#FFED0F" d="M40.398 22.07c0 2.74-2.212 4.96-4.94 4.96s-4.94-2.22-4.94-4.96c0-2.74 2.212-4.96 4.94-4.96s4.94 2.22 4.94 4.96" transform="translate(-1222.000000, -370.000000) translate(1222.000000, 370.000000) translate(3.750000, 10.312500)"/>
                </g>
            </g>
        </g>
    </g>
</svg>
