<svg xmlns="http://www.w3.org/2000/svg" xmlns:xlink="http://www.w3.org/1999/xlink" width="60" height="60" viewBox="0 0 60 60">
    <defs>
        <path id="9ofrx7ksna" d="M0 0L50.514 0 50.514 39.37 0 39.37z"/>
    </defs>
    <g fill="none" fill-rule="evenodd">
        <g>
            <g>
                <g>
                    <g transform="translate(-1154.000000, -370.000000) translate(1154.000000, 370.000000) translate(4.687500, 3.243837) translate(0.000000, 14.130652)">
                        <mask id="t9joij2fnb" fill="#fff">
                            <use xlink:href="#9ofrx7ksna"/>
                        </mask>
                        <path fill="#FFA300" d="M31.22 39.37H19.294c-13.14 0-22.43-10.677-18.305-21.04L11.684 4.586C13.666 1.931 15.854 0 19.326 0h11.862c3.471 0 5.357 1.697 7.641 4.585l10.695 13.746C53.65 28.693 44.36 39.37 31.22 39.37" mask="url(#t9joij2fnb)"/>
                    </g>
                    <path fill="#E8CC23" d="M24.285 45.136c.319.05.643.077.973.077h-.973v-.077zM25.258 45.221c.467 0 .924-.052 1.37-.153v.153h-1.37z" transform="translate(-1154.000000, -370.000000) translate(1154.000000, 370.000000) translate(4.687500, 3.243837)"/>
                    <path fill="#FFA300" d="M37.088 3.83l-3.547 4.56c-1.323 1.487-2.546 2.798-4.664 2.798h-7.24c-2.119 0-3.236-1.218-4.664-2.799L13.425 3.83C12.14 2.178 13.568 0 15.936 0h18.642c2.368 0 3.796 2.178 2.51 3.83" transform="translate(-1154.000000, -370.000000) translate(1154.000000, 370.000000) translate(4.687500, 3.243837)"/>
                    <path fill="#107778" d="M26.035 39.682c0 .307 0 .625-.887.625-.7 0-1.4-.294-2.266-.954l-.478-.366-1.85 2.846.352.318c.903.821 2.12 1.29 3.103 1.487v3.721c-5.02-.615-8.905-4.892-8.905-10.077 0-5.184 3.885-9.462 8.905-10.077v3.445c-1.772.531-2.817 1.966-2.817 3.916 0 2.25 1.898 3.216 3.287 3.923.762.388 1.556.79 1.556 1.193" transform="translate(-1154.000000, -370.000000) translate(1154.000000, 370.000000) translate(4.687500, 3.243837)"/>
                    <path fill="#107778" d="M35.41 37.282c0 5.006-3.624 9.168-8.392 10.001v-3.788c1.816-.565 2.881-2.04 2.881-4.023 0-2.418-1.976-3.355-3.416-4.041-.675-.32-1.44-.683-1.44-.995 0-.312 0-.56.754-.56.557 0 1.011.215 1.619.765l.424.38 2.12-2.457-.334-.366c-.762-.831-1.62-1.359-2.608-1.602V27.28c4.768.833 8.391 4.995 8.391 10.001" transform="translate(-1154.000000, -370.000000) translate(1154.000000, 370.000000) translate(4.687500, 3.243837)"/>
                    <path fill="#E8CC23" d="M24.285 46.6h.973c-.33 0-.654-.261-.973-.767v.767zm.973 0h1.37v-1.536c-.446 1.013-.903 1.536-1.37 1.536z" transform="translate(-1154.000000, -370.000000) translate(1154.000000, 370.000000) translate(4.687500, 3.243837)"/>
                </g>
            </g>
        </g>
    </g>
</svg>
