<?xml version="1.0" encoding="utf-8"?>
<!-- Generator: Adobe Illustrator 26.0.0, SVG Export Plug-In . SVG Version: 6.00 Build 0)  -->
<svg version="1.1" id="圖層_1" xmlns="http://www.w3.org/2000/svg" xmlns:xlink="http://www.w3.org/1999/xlink" x="0px" y="0px"
	 viewBox="0 0 85 134" style="enable-background:new 0 0 85 134;" xml:space="preserve">
<style type="text/css">
	.st0{fill:#84D3CC;}
	.st1{fill:#CDEDEB;}
	.st2{fill-rule:evenodd;clip-rule:evenodd;fill:#99E5DF;}
	.st3{fill:#78C6C2;}
	.st4{fill-rule:evenodd;clip-rule:evenodd;fill:#EFFFFE;}
	.st5{fill-rule:evenodd;clip-rule:evenodd;fill:url(#SVGID_1_);}
	
		.st6{clip-path:url(#SVGID_00000133521799196588880390000003735419977653524129_);fill-rule:evenodd;clip-rule:evenodd;fill:#989899;}
	.st7{opacity:0.1978;}
	.st8{fill-rule:evenodd;clip-rule:evenodd;fill:url(#SVGID_00000031201257006379794310000004932082938399925393_);}
	.st9{fill-rule:evenodd;clip-rule:evenodd;fill:url(#SVGID_00000146491783493373736810000010038910325172663456_);}
	.st10{opacity:0.398;}
	.st11{fill-rule:evenodd;clip-rule:evenodd;fill:url(#SVGID_00000013158317998678520210000008202434079287141261_);}
	
		.st12{fill-rule:evenodd;clip-rule:evenodd;fill:url(#SVGID_00000091693655952981972940000002377772386679971987_);fill-opacity:0.48;}
	.st13{fill:#F5FFFE;}
	.st14{fill-rule:evenodd;clip-rule:evenodd;fill:#84D3CC;}
	.st15{clip-path:url(#SVGID_00000111161545653441346990000009241524516394406826_);}
	.st16{fill:#FFFFFF;}
	.st17{fill-rule:evenodd;clip-rule:evenodd;fill:url(#SVGID_00000104702616744923262730000014430009432872461713_);}
	.st18{fill-rule:evenodd;clip-rule:evenodd;fill:url(#SVGID_00000094581515094674988560000006875572884609001902_);}
	.st19{fill-rule:evenodd;clip-rule:evenodd;fill:#231F20;}
	.st20{fill-rule:evenodd;clip-rule:evenodd;fill:#FFFFFF;}
	.st21{fill-rule:evenodd;clip-rule:evenodd;fill:#EC8822;}
	.st22{fill-rule:evenodd;clip-rule:evenodd;fill:#6B6B6B;}
	.st23{fill-rule:evenodd;clip-rule:evenodd;fill:#007C7D;}
	.st24{fill:#F6FFFE;}
	.st25{fill-rule:evenodd;clip-rule:evenodd;fill:#99E6DF;}
	.st26{fill:#EEFFFE;}
	.st27{fill:#F7FFFE;}
	.st28{fill-rule:evenodd;clip-rule:evenodd;fill:#CCECEA;}
	.st29{fill:#E1E7E9;}
	.st30{fill-rule:evenodd;clip-rule:evenodd;fill:#989899;}
	.st31{fill-rule:evenodd;clip-rule:evenodd;fill:#AA8165;}
</style>
<path class="st0" d="M7.1,21c0-6.6,5.4-12,12-12H73c6.6,0,12,5.4,12,12v113H7.1V21z"/>
<path class="st1" d="M8.1,23.9c0-6.6,5.4-12,12-12h46.2c6.6,0,12,5.4,12,12v49.1V134H8.1V72.9V23.9z"/>
<path class="st2" d="M8,24.6C8,17.1,13.6,11,20.5,11h46.1C73.4,11,79,17.1,79,24.6v119.9c0,0.3-0.2,0.5-0.5,0.5h-70
	c-0.3,0-0.5-0.2-0.5-0.5V24.6z M20.5,12.1C14.1,12.1,9,17.7,9,24.6v119.3h69V24.6c0-6.9-5.1-12.5-11.5-12.5H20.5z"/>
<path class="st3" d="M37.4,66c0-3,2.4-5.4,5.4-5.4h25.5c3,0,5.4,2.4,5.4,5.4l0,0c0,3-2.4,5.4-5.4,5.4H42.8
	C39.8,71.4,37.4,69,37.4,66L37.4,66z"/>
<path class="st4" d="M68.3,61.7H42.8c-2.4,0-4.4,2-4.4,4.4c0,2.4,2,4.4,4.4,4.4h25.5c2.4,0,4.4-2,4.4-4.4
	C72.7,63.6,70.7,61.7,68.3,61.7z M42.8,60.7c-3,0-5.4,2.4-5.4,5.4c0,3,2.4,5.4,5.4,5.4h25.5c3,0,5.4-2.4,5.4-5.4
	c0-3-2.4-5.4-5.4-5.4H42.8z"/>
<g>
	
		<linearGradient id="SVGID_1_" gradientUnits="userSpaceOnUse" x1="56.55" y1="70.8842" x2="48.7335" y2="42.2753" gradientTransform="matrix(1 0 0 -1 0 136)">
		<stop  offset="0" style="stop-color:#E6E6E6"/>
		<stop  offset="0.1562" style="stop-color:#EFEFEF"/>
		<stop  offset="0.401" style="stop-color:#F3F3F3"/>
		<stop  offset="1" style="stop-color:#FFFFFF"/>
	</linearGradient>
	<path class="st5" d="M39.2,60.4l33.4,9.1c0,0-0.5,6.4-2.6,14.2c-2,7.8-4.7,15.6-4.7,15.6l-34-9.3c0,0,3.1-10,4.6-15.7
		C37.6,68.6,39.2,60.4,39.2,60.4z"/>
</g>
<g>
	<defs>
		<path id="SVGID_00000065065527161724092380000004546697586098773906_" d="M60.2,70.1c0,0-12.9,3.3-11.5,2c1.4-1.3,0.7-6.4,0.7-6.4
			l5-2.6l2-0.7h12.9c1.7,0,3.1,1.4,3,3.1l-0.2,4.6l-8.4-3.4L60.2,70.1z"/>
	</defs>
	<clipPath id="SVGID_00000034806580548878630790000002885046753492030090_">
		<use xlink:href="#SVGID_00000065065527161724092380000004546697586098773906_"  style="overflow:visible;"/>
	</clipPath>
	
		<path style="clip-path:url(#SVGID_00000034806580548878630790000002885046753492030090_);fill-rule:evenodd;clip-rule:evenodd;fill:#989899;" d="
		M52.8,69.3c-1-1.7,2-3.7,2.2-3.9c0,0,0,0,0,0l13.8-14.9c9.5,10.7,2.6,16.8,1.9,16.6c-0.7-0.1-1-1.1-1-1.1c-3.3,6.5-7.5,7.6-8.7,6.4
		c-1.1-1.2,0.4-3.6,0.4-3.6C57.9,71.3,53.8,71,52.8,69.3z"/>
</g>
<g class="st7">
	
		<linearGradient id="SVGID_00000019659329349677829980000014573870395796778175_" gradientUnits="userSpaceOnUse" x1="47.1461" y1="48.3224" x2="46.1857" y2="45.2906" gradientTransform="matrix(1 0 0 -1 0 136)">
		<stop  offset="0" style="stop-color:#AFBFC5"/>
		<stop  offset="0.3173" style="stop-color:#8DA6B0"/>
		<stop  offset="1" style="stop-color:#4F7283"/>
	</linearGradient>
	<path style="fill-rule:evenodd;clip-rule:evenodd;fill:url(#SVGID_00000019659329349677829980000014573870395796778175_);" d="
		M36,85.6c0-0.1,0.1-0.2,0.2-0.1l21.4,5.8c0.1,0,0.2,0.1,0.1,0.2l-0.3,1.1c0,0.1-0.1,0.2-0.2,0.1L35.7,87c-0.1,0-0.2-0.1-0.1-0.2
		L36,85.6z"/>
</g>
<g class="st7">
	
		<linearGradient id="SVGID_00000119075835059921877750000009118930001183725961_" gradientUnits="userSpaceOnUse" x1="42.148" y1="52.918" x2="41.0384" y2="49.9504" gradientTransform="matrix(1 0 0 -1 0 136)">
		<stop  offset="0" style="stop-color:#AFBFC5"/>
		<stop  offset="0.3173" style="stop-color:#8DA6B0"/>
		<stop  offset="1" style="stop-color:#4F7283"/>
	</linearGradient>
	<path style="fill-rule:evenodd;clip-rule:evenodd;fill:url(#SVGID_00000119075835059921877750000009118930001183725961_);" d="
		M36.9,82.7c0-0.1,0.1-0.2,0.2-0.1l9.3,2.5c0.1,0,0.2,0.1,0.1,0.2l-0.3,1.1c0,0.1-0.1,0.2-0.2,0.1L36.7,84c-0.1,0-0.2-0.1-0.1-0.2
		L36.9,82.7z"/>
</g>
<g class="st10">
	
		<linearGradient id="SVGID_00000075868724056427607990000014361613167084576921_" gradientUnits="userSpaceOnUse" x1="57.1695" y1="68.0948" x2="50.0502" y2="50.0297" gradientTransform="matrix(1 0 0 -1 0 136)">
		<stop  offset="0" style="stop-color:#AFBFC5"/>
		<stop  offset="0.3173" style="stop-color:#8DA6B0"/>
		<stop  offset="1" style="stop-color:#4F7283"/>
	</linearGradient>
	<path style="fill-rule:evenodd;clip-rule:evenodd;fill:url(#SVGID_00000075868724056427607990000014361613167084576921_);" d="
		M45.9,72.7c0-0.6,0.5-1,1.2-1h13.1c0.7,0,1.2,0.5,1.2,1v2.7c-0.7,0.2-1.2,0.8-1.2,1.4c0,0.7,0.5,1.2,1.2,1.4v2.7c0,0.6-0.5,1-1.2,1
		H47.1c-0.7,0-1.2-0.5-1.2-1v-2.7c0.7-0.2,1.2-0.8,1.2-1.4c0-0.7-0.5-1.2-1.2-1.4V72.7z M52.1,73.8c0.2,0,0.4,0,0.6,0.1
		c0.2,0.1,0.3,0.2,0.5,0.3c0.1,0.1,0.2,0.3,0.3,0.5c0.1,0.2,0.1,0.4,0.1,0.6c0,0.2,0,0.4-0.1,0.6c-0.1,0.2-0.2,0.3-0.3,0.5
		c-0.1,0.1-0.3,0.2-0.5,0.3c-0.2,0.1-0.4,0.1-0.6,0.1c-0.2,0-0.4,0-0.6-0.1c-0.2-0.1-0.3-0.2-0.5-0.3c-0.1-0.1-0.2-0.3-0.3-0.5
		c-0.1-0.2-0.1-0.4-0.1-0.6c0-0.2,0-0.4,0.1-0.6c0.1-0.2,0.2-0.3,0.3-0.5c0.1-0.1,0.3-0.2,0.5-0.3C51.6,73.8,51.8,73.8,52.1,73.8z
		 M51.8,79.7l4.9-5.9h-1l-4.9,5.9H51.8z M56.2,76.6c-0.2-0.1-0.4-0.1-0.6-0.1c-0.2,0-0.4,0-0.6,0.1c-0.2,0.1-0.3,0.2-0.5,0.3
		c-0.1,0.1-0.2,0.3-0.3,0.5c-0.1,0.2-0.1,0.4-0.1,0.6c0,0.2,0,0.4,0.1,0.6c0.1,0.2,0.2,0.3,0.3,0.5c0.1,0.1,0.3,0.2,0.5,0.3
		c0.2,0.1,0.4,0.1,0.6,0.1c0.2,0,0.4,0,0.6-0.1c0.2-0.1,0.3-0.2,0.5-0.3c0.1-0.1,0.2-0.3,0.3-0.5c0.1-0.2,0.1-0.4,0.1-0.6
		c0-0.2,0-0.4-0.1-0.6c-0.1-0.2-0.2-0.3-0.3-0.5C56.5,76.8,56.3,76.7,56.2,76.6z M55.1,77.5c0.1-0.1,0.3-0.2,0.5-0.2
		c0.2,0,0.4,0.1,0.5,0.2c0.1,0.1,0.2,0.3,0.2,0.5c0,0.2-0.1,0.4-0.2,0.5c-0.1,0.1-0.3,0.2-0.5,0.2c-0.2,0-0.4-0.1-0.5-0.2
		c-0.1-0.1-0.2-0.3-0.2-0.5C54.9,77.8,55,77.6,55.1,77.5z M51.5,74.7c0.1-0.1,0.3-0.2,0.5-0.2c0.2,0,0.4,0.1,0.5,0.2
		c0.1,0.1,0.2,0.3,0.2,0.5c0,0.2-0.1,0.4-0.2,0.5C52.4,75.9,52.2,76,52,76c-0.2,0-0.4-0.1-0.5-0.2c-0.1-0.1-0.2-0.3-0.2-0.5
		C51.3,75,51.3,74.9,51.5,74.7z"/>
	
		<linearGradient id="SVGID_00000076575472475760805630000008579021780797925033_" gradientUnits="userSpaceOnUse" x1="53.6495" y1="64.3008" x2="53.6495" y2="54.0252" gradientTransform="matrix(1 0 0 -1 0 136)">
		<stop  offset="0" style="stop-color:#FFFFFF;stop-opacity:1.000000e-02"/>
		<stop  offset="0.3854" style="stop-color:#FFFFFF;stop-opacity:0.665"/>
		<stop  offset="1" style="stop-color:#FFFFFF;stop-opacity:1.000000e-02"/>
	</linearGradient>
	
		<path style="fill-rule:evenodd;clip-rule:evenodd;fill:url(#SVGID_00000076575472475760805630000008579021780797925033_);fill-opacity:0.48;" d="
		M45.9,72.7c0-0.6,0.5-1,1.2-1h13.1c0.7,0,1.2,0.5,1.2,1v2.7c-0.7,0.2-1.2,0.8-1.2,1.4c0,0.7,0.5,1.2,1.2,1.4v2.7c0,0.6-0.5,1-1.2,1
		H47.1c-0.7,0-1.2-0.5-1.2-1v-2.7c0.7-0.2,1.2-0.8,1.2-1.4c0-0.7-0.5-1.2-1.2-1.4V72.7z M52.1,73.8c0.2,0,0.4,0,0.6,0.1
		c0.2,0.1,0.3,0.2,0.5,0.3c0.1,0.1,0.2,0.3,0.3,0.5c0.1,0.2,0.1,0.4,0.1,0.6c0,0.2,0,0.4-0.1,0.6c-0.1,0.2-0.2,0.3-0.3,0.5
		c-0.1,0.1-0.3,0.2-0.5,0.3c-0.2,0.1-0.4,0.1-0.6,0.1c-0.2,0-0.4,0-0.6-0.1c-0.2-0.1-0.3-0.2-0.5-0.3c-0.1-0.1-0.2-0.3-0.3-0.5
		c-0.1-0.2-0.1-0.4-0.1-0.6c0-0.2,0-0.4,0.1-0.6c0.1-0.2,0.2-0.3,0.3-0.5c0.1-0.1,0.3-0.2,0.5-0.3C51.6,73.8,51.8,73.8,52.1,73.8z
		 M51.8,79.7l4.9-5.9h-1l-4.9,5.9H51.8z M56.2,76.6c-0.2-0.1-0.4-0.1-0.6-0.1c-0.2,0-0.4,0-0.6,0.1c-0.2,0.1-0.3,0.2-0.5,0.3
		c-0.1,0.1-0.2,0.3-0.3,0.5c-0.1,0.2-0.1,0.4-0.1,0.6c0,0.2,0,0.4,0.1,0.6c0.1,0.2,0.2,0.3,0.3,0.5c0.1,0.1,0.3,0.2,0.5,0.3
		c0.2,0.1,0.4,0.1,0.6,0.1c0.2,0,0.4,0,0.6-0.1c0.2-0.1,0.3-0.2,0.5-0.3c0.1-0.1,0.2-0.3,0.3-0.5c0.1-0.2,0.1-0.4,0.1-0.6
		c0-0.2,0-0.4-0.1-0.6c-0.1-0.2-0.2-0.3-0.3-0.5C56.5,76.8,56.3,76.7,56.2,76.6z M55.1,77.5c0.1-0.1,0.3-0.2,0.5-0.2
		c0.2,0,0.4,0.1,0.5,0.2c0.1,0.1,0.2,0.3,0.2,0.5c0,0.2-0.1,0.4-0.2,0.5c-0.1,0.1-0.3,0.2-0.5,0.2c-0.2,0-0.4-0.1-0.5-0.2
		c-0.1-0.1-0.2-0.3-0.2-0.5C54.9,77.8,55,77.6,55.1,77.5z M51.5,74.7c0.1-0.1,0.3-0.2,0.5-0.2c0.2,0,0.4,0.1,0.5,0.2
		c0.1,0.1,0.2,0.3,0.2,0.5c0,0.2-0.1,0.4-0.2,0.5C52.4,75.9,52.2,76,52,76c-0.2,0-0.4-0.1-0.5-0.2c-0.1-0.1-0.2-0.3-0.2-0.5
		C51.3,75,51.3,74.9,51.5,74.7z"/>
</g>
<path class="st13" d="M11.9,28.7c0-5.5,4.5-10,10-10h40.9c5.5,0,10,4.5,10,10V45c0,5.5-4.5,10-10,10H21.9c-5.5,0-10-4.5-10-10V28.7z
	"/>
<path class="st14" d="M21.9,17.7h40.9c6.1,0,11,4.9,11,11V45c0,6.1-4.9,11-11,11H21.9c-6.1,0-11-4.9-11-11V28.7
	C10.9,22.6,15.8,17.7,21.9,17.7z M21.9,18.7c-5.5,0-10,4.5-10,10V45c0,5.5,4.5,10,10,10h40.9c5.5,0,10-4.5,10-10V28.7
	c0-5.5-4.5-10-10-10H21.9z"/>
<g>
	<defs>
		<rect id="SVGID_00000080910376815897326360000016994520961798662555_" x="11.9" y="18.7" width="60.9" height="36.3"/>
	</defs>
	<clipPath id="SVGID_00000158735075631847592900000007683471129084474023_">
		<use xlink:href="#SVGID_00000080910376815897326360000016994520961798662555_"  style="overflow:visible;"/>
	</clipPath>
	<g style="clip-path:url(#SVGID_00000158735075631847592900000007683471129084474023_);">
		<path class="st16" d="M11.9,28.7c0-5.5,4.5-10,10-10h40.9c5.5,0,10,4.5,10,10V45c0,5.5-4.5,10-10,10H21.9c-5.5,0-10-4.5-10-10
			V28.7z"/>
		
			<linearGradient id="SVGID_00000037691267510230993920000018246427107418542240_" gradientUnits="userSpaceOnUse" x1="41.593" y1="110.0612" x2="41.593" y2="58.7881" gradientTransform="matrix(1 0 0 -1 0 136)">
			<stop  offset="0" style="stop-color:#E8E3E0"/>
			<stop  offset="1" style="stop-color:#C0B1A8"/>
		</linearGradient>
		<path style="fill-rule:evenodd;clip-rule:evenodd;fill:url(#SVGID_00000037691267510230993920000018246427107418542240_);" d="
			M41.6,25.9c-12.9,0-23.4,10.4-23.4,23.3c0,13.5,5.9,23.3,14.3,27.4c1.8,0.9,3.8,0.7,5.6-0.2c1-0.6,2.2-0.9,3.5-0.9
			c1.3,0,2.4,0.3,3.5,0.9c1.7,1,3.8,1.1,5.6,0.2c8.4-4,14.3-13.8,14.3-27.4C65,36.4,54.5,25.9,41.6,25.9"/>
		
			<linearGradient id="SVGID_00000150811578481178473110000010390932898652558015_" gradientUnits="userSpaceOnUse" x1="41.5893" y1="102.6709" x2="41.5893" y2="79.7505" gradientTransform="matrix(1 0 0 -1 0 136)">
			<stop  offset="0" style="stop-color:#FFFFFF"/>
			<stop  offset="1" style="stop-color:#F6F6F6"/>
		</linearGradient>
		<path style="fill-rule:evenodd;clip-rule:evenodd;fill:url(#SVGID_00000150811578481178473110000010390932898652558015_);" d="
			M51.8,31.6c-2.3-0.2-4.5,0.3-6.4,1.3c-2.4,1.3-5.3,1.3-7.7,0c-1.9-1-4.1-1.5-6.4-1.3C25.3,32,20.4,36.9,20,43
			c-0.5,7.2,5.1,13.2,12.2,13.2c2,0,3.9-0.5,5.6-1.4c2.4-1.2,5.2-1.2,7.6,0c1.7,0.9,3.6,1.4,5.6,1.4c7,0,12.7-6,12.2-13.2
			C62.7,36.9,57.9,32,51.8,31.6"/>
		<path class="st19" d="M34.6,43.3c0,2-1.6,3.6-3.6,3.6c-2,0-3.6-1.6-3.6-3.6c0-2,1.6-3.6,3.6-3.6C33,39.7,34.6,41.3,34.6,43.3"/>
		<path class="st20" d="M31.4,42.4c0,0.7-0.6,1.3-1.3,1.3c-0.7,0-1.3-0.6-1.3-1.3c0-0.7,0.6-1.3,1.3-1.3
			C30.8,41.1,31.4,41.7,31.4,42.4"/>
		<path class="st19" d="M55.6,43.3c0,2-1.6,3.6-3.6,3.6c-2,0-3.6-1.6-3.6-3.6c0-2,1.6-3.6,3.6-3.6C54,39.7,55.6,41.3,55.6,43.3"/>
		<path class="st20" d="M52.4,42.4c0,0.7-0.6,1.3-1.3,1.3s-1.3-0.6-1.3-1.3c0-0.7,0.6-1.3,1.3-1.3S52.4,41.7,52.4,42.4"/>
		<path class="st21" d="M39.7,44.9l2,3.7l1.8-3.7C43.5,44.9,41.6,43.8,39.7,44.9"/>
		<path class="st22" d="M42.2,28.9c0,0,1.8-2.1,4.3-2.8c2.2-0.6,1.3-2.1-0.7-1C44.3,26,42.2,28.9,42.2,28.9"/>
		<path class="st22" d="M40.9,28.3c0,0-0.4-2.5-2-3.9c-1.2-1-0.5-2,0.1-2.1C40.1,22.2,41,23.9,40.9,28.3"/>
		<path class="st22" d="M39.8,28c0,0-3.5-4.1-5.7-3.1C32.6,25.6,37.4,26.4,39.8,28"/>
	</g>
</g>
<path class="st23" d="M60.9,26.5l0.7,0l-1.7-3.9c0,0,0,0,0,0c0-0.1-0.1-0.2-0.1-0.3c-0.1-0.1-0.2-0.1-0.3-0.1c-0.1,0-0.2,0-0.3,0.1
	c-0.1,0.1-0.1,0.2-0.2,0.3l-1.7,3.9h0.7l1.4-3.2l0.6,1.4h-0.9L59,25.3h1.4L60.9,26.5z M66.5,26.6c-0.1,0-0.2-0.1-0.3-0.3l-1-2.6
	l-0.4,2.8l-0.7,0c0,0,0.6-3.5,0.6-3.8c0-0.2,0.1-0.3,0.1-0.4c0.1-0.1,0.2-0.1,0.3-0.1c0.2,0,0.2,0.2,0.3,0.4l1.1,2.8l0,0.3l0-0.3
	l1.1-2.8c0.1-0.3,0.2-0.4,0.3-0.4c0.1,0,0.2,0,0.3,0.1c0.1,0.1,0.1,0.2,0.1,0.4c0.1,0.3,0.6,3.8,0.6,3.8l-0.7,0l-0.4-2.8l-1,2.6
	C66.7,26.5,66.6,26.6,66.5,26.6L66.5,26.6z M62.9,23h1.2v-0.7h-3V23h1.2v3.5h0.7V23z"/>
<path class="st0" d="M24.7,75c0-2.8-2.2-5-5-5h-11c-2.8,0-5,2.2-5,5v25.9c0,2.8,2.2,5,5,5h11c2.8,0,5-2.2,5-5V75z"/>
<path class="st24" d="M22.6,75.2c0-2.8-2.2-5-5-5h-11c-2.8,0-5,2.2-5,5v25.9c0,2.8,2.2,5,5,5h11c2.8,0,5-2.2,5-5V75.2z"/>
<path class="st25" d="M6.5,71.2h11c2.2,0,4,1.8,4,4v25.9c0,2.2-1.8,4-4,4h-11c-2.2,0-4-1.8-4-4V75.2C2.5,73,4.3,71.2,6.5,71.2z
	 M17.6,70.2c2.8,0,5,2.2,5,5v25.9c0,2.8-2.2,5-5,5h-11c-2.8,0-5-2.2-5-5V75.2c0-2.8,2.2-5,5-5H17.6z"/>
<path class="st26" d="M22.6,75.2c0-2.8-2.2-5-5-5h-11c-2.8,0-5,2.2-5,5v25.9c0,2.8,2.2,5,5,5h11c2.8,0,5-2.2,5-5V75.2z"/>
<path class="st25" d="M6.5,71.2h11c2.2,0,4,1.8,4,4v25.9c0,2.2-1.8,4-4,4h-11c-2.2,0-4-1.8-4-4V75.2C2.5,73,4.3,71.2,6.5,71.2z
	 M17.6,70.2c2.8,0,5,2.2,5,5v25.9c0,2.8-2.2,5-5,5h-11c-2.8,0-5-2.2-5-5V75.2c0-2.8,2.2-5,5-5H17.6z"/>
<path class="st27" d="M20.5,74.6c0-0.6-0.4-1-1-1H4.6c-0.6,0-1,0.4-1,1V97c0,0.6,0.4,1,1,1l14.8,0c0.6,0,1-0.4,1-1V74.6z"/>
<path class="st28" d="M4.6,74.6h14.8V97L4.6,97V74.6z M19.5,73.6c0.6,0,1,0.4,1,1V97c0,0.6-0.4,1-1,1L4.6,98c-0.6,0-1-0.4-1-1V74.6
	c0-0.6,0.4-1,1-1H19.5z"/>
<path class="st0" d="M9.9,101.2c0,1.1,0.8,1.9,1.9,1.9s1.9-0.9,1.9-1.9c0-1.1-0.8-1.9-1.9-1.9S9.9,100.1,9.9,101.2z"/>
<path class="st29" d="M17.9,77.9h-7.2v1.3h7.2V77.9z"/>
<path class="st29" d="M17.9,88.2h-7.2v1.3h7.2V88.2z"/>
<path class="st29" d="M17.9,81.3H6.6v1.3h11.4V81.3z"/>
<path class="st29" d="M17.9,84.7H6.6V86h11.4V84.7z"/>
<path class="st30" d="M8.5,53.6c6.3-6.5,22.2,0.8,22.5,3.6c0.4,3.2-9.7-0.1-9.7-0.1s2.2,0.4,3.3,2.7c1.1,2.3-4.5,1.1-6.4,0.4
	c0,0,1.7,0.4,1.4,1.9c-0.3,1.3-4.6,1.6-9-0.5C6.4,59.4,6.2,56,8.5,53.6"/>
<path class="st31" d="M8.2,4.2C5.9,2.8,3.3,2.3,1.2,3.4L0.8,2.6c2.5-1.4,5.6-0.7,7.9,0.8c1.2,0.7,2.3,1.6,3,2.6C12.5,6.9,13,8,13,9
	h-1c0-0.7-0.4-1.6-1.1-2.5C10.3,5.7,9.3,4.8,8.2,4.2z"/>
</svg>
