<svg width="56" height="45" viewBox="0 0 56 45" fill="none" xmlns="http://www.w3.org/2000/svg">
<rect width="56" height="45" rx="6" fill="#F4F4F4"/>
<mask id="mask0_1375_28892" style="mask-type:alpha" maskUnits="userSpaceOnUse" x="0" y="0" width="56" height="45">
<rect width="56" height="45" rx="6" fill="#DEDEDE"/>
</mask>
<g mask="url(#mask0_1375_28892)">
<path d="M16.614 45.4533C16.614 45.4533 9.00058 48 10.0007 45.4533C11.0009 42.9067 15.0005 36.5 15.0005 36.5L16.614 45.4533Z" fill="#838383"/>
<path d="M63.125 35.8589C63.125 35.8589 66.0187 37.2463 66.2565 43.1922C66.534 49.8517 60.588 55.0049 54.2061 56.749L63.125 35.8589Z" fill="#989899"/>
<path d="M38.7474 11.1235C25.3095 11.1235 14.4482 21.8659 14.4482 35.0659C14.4482 47.9092 20.5924 57.8191 29.3528 61.9813C31.2158 62.8534 33.3564 62.2984 35.1402 61.3471C36.2104 60.7525 37.4393 60.4353 38.7474 60.4353C40.0555 60.4353 41.2843 60.7525 42.3546 61.3471C44.1384 62.338 46.3186 62.457 48.142 61.5849C56.9024 57.4227 63.0465 48.9398 63.0465 35.0659C63.0465 21.8659 52.1852 11.1235 38.7474 11.1235Z" fill="#E7E4E2"/>
<path d="M49.4104 16.9111C47.032 16.7526 44.7329 17.2679 42.7906 18.2589C40.2536 19.567 37.2807 19.567 34.7437 18.2589C32.7617 17.2679 30.5023 16.7526 28.1239 16.9111C21.8608 17.3472 16.7869 22.421 16.3509 28.6841C15.8356 36.0967 21.7022 42.2805 28.996 42.2805C31.0969 42.2805 33.0788 41.7652 34.823 40.8535C37.2807 39.585 40.2536 39.585 42.7113 40.8535C44.4554 41.7652 46.4374 42.2805 48.5383 42.2805C55.832 42.2805 61.6987 36.0967 61.1834 28.6841C60.7474 22.3814 55.6735 17.3075 49.4104 16.9111Z" fill="white"/>
<path d="M23.3669 47.3153C22.257 46.9189 21.5039 46.0072 21.2264 44.9766C20.7507 46.4432 21.5039 47.9892 22.9309 48.5045C24.358 49.0198 25.9435 48.3063 26.5381 46.8793C25.6661 47.5135 24.4769 47.7117 23.3669 47.3153Z" fill="#989899"/>
<path d="M54.0081 47.3148C55.118 46.9184 55.8712 46.0067 56.1486 44.9761C56.6243 46.4427 55.8712 47.9887 54.4441 48.504C53.0171 49.0193 51.4315 48.3058 50.8369 46.8788C51.709 47.513 52.8982 47.7112 54.0081 47.3148Z" fill="#989899"/>
<path d="M39.4219 14.1361C39.4219 14.1361 41.285 11.9559 43.9408 11.282C46.2003 10.6874 45.2885 9.10184 43.2273 10.2514C41.5228 11.2027 39.4219 14.1361 39.4219 14.1361Z" fill="#989899"/>
<path d="M38.0337 13.5417C38.0337 13.5417 37.6373 11.0048 35.9328 9.57776C34.704 8.54712 35.4572 7.51649 36.0518 7.47685C37.2409 7.31829 38.1923 9.0228 38.0337 13.5417Z" fill="#989899"/>
<path d="M36.8842 13.1849C36.8842 13.1849 33.277 8.94345 31.0176 10.0534C29.432 10.8065 34.3473 11.5597 36.8842 13.1849Z" fill="#989899"/>
<path d="M27.6875 32.4501C29.7235 32.4501 31.374 30.7996 31.374 28.7636C31.374 26.7276 29.7235 25.0771 27.6875 25.0771C25.6515 25.0771 24.001 26.7276 24.001 28.7636C24.001 30.7996 25.6515 32.4501 27.6875 32.4501Z" fill="#231F20"/>
<path d="M26.2211 27.8914C26.6809 27.8914 27.0535 27.5187 27.0535 27.059C27.0535 26.5993 26.6809 26.2266 26.2211 26.2266C25.7614 26.2266 25.3887 26.5993 25.3887 27.059C25.3887 27.5187 25.7614 27.8914 26.2211 27.8914Z" fill="white"/>
<path d="M36.6855 29.1999L38.7865 32.926L40.6099 29.1999C40.6099 29.1999 38.7072 28.0503 36.6855 29.1999Z" fill="#EC8822"/>
<path d="M47.9828 27.8914C48.4426 27.8914 48.8153 27.5187 48.8153 27.059C48.8153 26.5993 48.4426 26.2266 47.9828 26.2266C47.5231 26.2266 47.1504 26.5993 47.1504 27.059C47.1504 27.5187 47.5231 27.8914 47.9828 27.8914Z" fill="white"/>
<path d="M44.3369 33.4806C44.3369 33.4806 49.1729 28.0896 56.2685 29.6356L52.4234 36.3743L44.3369 33.4806Z" fill="white"/>
<path d="M32.8017 33.4811C32.8017 33.4811 27.9656 28.0901 20.8701 29.6361L24.7152 36.3748L32.8017 33.4811Z" fill="white"/>
<path d="M32.8017 33.4808C32.8017 33.4808 29.0359 27.6538 20.8701 29.6358C20.8701 29.5962 27.4899 28.7637 32.8017 33.4808Z" fill="#F3EEEC"/>
<path d="M44.733 24.8394C44.733 24.8394 43.9799 26.9006 42.9492 27.1781L43.3456 25.2754C43.3853 25.1168 43.5042 24.9979 43.6627 24.9583L44.733 24.8394Z" fill="#E7E4E2"/>
<path d="M32.6826 24.8394C32.6826 24.8394 33.4358 26.9006 34.4664 27.1781L34.07 25.2754C34.0304 25.1168 33.9115 24.9979 33.7529 24.9583L32.6826 24.8394Z" fill="#E7E4E2"/>
<mask id="mask1_1375_28892" style="mask-type:alpha" maskUnits="userSpaceOnUse" x="5" y="8" width="29" height="29">
<circle cx="19.2267" cy="22.7731" r="14.1867" fill="#C4C4C4"/>
</mask>
<g mask="url(#mask1_1375_28892)">
<path d="M0.13745 31.0723C0.13745 31.0723 -3.46116 32.7976 -3.75693 40.192C-4.10201 48.4737 3.29238 54.8822 11.229 57.0512L0.13745 31.0723Z" fill="#989899"/>
<path d="M30.2574 0.312012C13.5461 0.312012 0.0390625 13.6712 0.0390625 30.0867C0.0390625 46.0586 7.67991 58.3825 18.5743 63.5586C20.8912 64.6431 23.5532 63.953 25.7715 62.7699C27.1025 62.0304 28.6307 61.6361 30.2574 61.6361C31.8842 61.6361 33.4124 62.0304 34.7434 62.7699C36.9617 64.0023 39.6729 64.1501 41.9405 63.0656C52.8349 57.8896 60.4758 47.3403 60.4758 30.0867C60.4758 13.6712 46.9687 0.312012 30.2574 0.312012Z" fill="#E7E4E2"/>
<path d="M43.5172 7.50933C40.5595 7.31215 37.7003 7.95299 35.2848 9.18539C32.1299 10.8121 28.4327 10.8121 25.2777 9.18539C22.813 7.95299 20.0031 7.31215 17.0453 7.50933C9.25659 8.05158 2.94671 14.3614 2.40446 22.1502C1.76361 31.3685 9.05941 39.0587 18.1298 39.0587C20.7425 39.0587 23.2073 38.4178 25.3763 37.284C28.4327 35.7066 32.1299 35.7066 35.1862 37.284C37.3552 38.4178 39.82 39.0587 42.4327 39.0587C51.5031 39.0587 58.7989 31.3685 58.1581 22.1502C57.6158 14.3122 51.306 8.00229 43.5172 7.50933Z" fill="white"/>
<path d="M16.5025 26.8331C19.0345 26.8331 21.087 24.7805 21.087 22.2486C21.087 19.7166 19.0345 17.6641 16.5025 17.6641C13.9706 17.6641 11.918 19.7166 11.918 22.2486C11.918 24.7805 13.9706 26.8331 16.5025 26.8331Z" fill="#231F20"/>
<path d="M14.6788 21.1642C15.2505 21.1642 15.714 20.7007 15.714 20.129C15.714 19.5572 15.2505 19.0938 14.6788 19.0938C14.1071 19.0938 13.6436 19.5572 13.6436 20.129C13.6436 20.7007 14.1071 21.1642 14.6788 21.1642Z" fill="white"/>
<path d="M27.6934 22.7906L30.3061 27.4244L32.5737 22.7906C32.5737 22.7906 30.2074 21.3611 27.6934 22.7906Z" fill="#EC8822"/>
<path d="M22.8625 28.115C22.8625 28.115 16.8484 21.4108 8.02441 23.3333L12.8061 31.7136L22.8625 28.115Z" fill="white"/>
<path d="M22.8634 28.1148C22.8634 28.1148 18.1803 20.8683 8.02539 23.3331C8.02539 23.2838 16.2578 22.2486 22.8634 28.1148Z" fill="#F3EEEC"/>
<path d="M22.7139 17.3682C22.7139 17.3682 23.6505 19.9315 24.9322 20.2766L24.4392 17.9104C24.3899 17.7132 24.242 17.5653 24.0449 17.516L22.7139 17.3682Z" fill="#E7E4E2"/>
</g>
<path fill-rule="evenodd" clip-rule="evenodd" d="M28.4005 11.5408C22.1644 6.44196 12.9757 7.36388 7.87693 13.5999C2.77812 19.836 3.70005 29.0247 9.9361 34.1235C16.1722 39.2223 25.3609 38.3004 30.4597 32.0643C35.5585 25.8283 34.6366 16.6396 28.4005 11.5408ZM5.13122 11.355C11.4699 3.60249 22.893 2.45638 30.6455 8.79505C38.398 15.1337 39.5441 26.5568 33.2054 34.3093C26.8667 42.0618 15.4436 43.2079 7.69112 36.8692C-0.0613453 30.5305 -1.20745 19.1074 5.13122 11.355Z" fill="#C0C0C0"/>
<path fill-rule="evenodd" clip-rule="evenodd" d="M26.8076 13.4892C21.6476 9.27024 14.0444 10.0331 9.82542 15.1931C5.60642 20.3531 6.36927 27.9563 11.5293 32.1753C16.6893 36.3943 24.2925 35.6315 28.5115 30.4714C32.7305 25.3114 31.9676 17.7082 26.8076 13.4892ZM7.07972 12.9481C12.5386 6.27169 22.3762 5.28466 29.0526 10.7435C35.729 16.2024 36.7161 26.04 31.2572 32.7164C25.7983 39.3928 15.9607 40.3799 9.28431 34.921C2.60788 29.4621 1.62085 19.6245 7.07972 12.9481Z" fill="#B9B9B9"/>
<path fill-rule="evenodd" clip-rule="evenodd" d="M26.8076 13.4892C21.6476 9.27024 14.0444 10.0331 9.82542 15.1931C5.60642 20.3531 6.36927 27.9563 11.5293 32.1753C16.6893 36.3943 24.2925 35.6315 28.5115 30.4714C32.7305 25.3114 31.9676 17.7082 26.8076 13.4892ZM7.07972 12.9481C12.5386 6.27169 22.3762 5.28466 29.0526 10.7435C35.729 16.2024 36.7161 26.04 31.2572 32.7164C25.7983 39.3928 15.9607 40.3799 9.28431 34.921C2.60788 29.4621 1.62085 19.6245 7.07972 12.9481Z" fill="#E3E3E3"/>
<path d="M12.8927 38.9273L5.04199 32.5083L5.11113 36.8674L8.49208 39.6318L12.8927 38.9273Z" fill="#C0C0C0"/>
<rect x="5.11035" y="36.8672" width="4.44124" height="12.2874" transform="rotate(39.2706 5.11035 36.8672)" fill="#E3E3E3"/>
<path d="M-0.796805 42.9234C-0.319248 42.3393 0.346051 41.9389 1.08574 41.7903C1.08574 41.7903 0.706549 42.2541 2.42568 43.6597C4.1448 45.0653 4.52399 44.6015 4.52399 44.6015C4.52536 45.356 4.26509 46.0876 3.78753 46.6717L-4.09064 56.307C-5.1257 57.5729 -6.99103 57.7601 -8.25696 56.725C-9.52289 55.6899 -9.71004 53.8246 -8.67498 52.5587L-0.796805 42.9234Z" fill="#70B0AA"/>
<path d="M4.29621 38.2524C4.46278 35.2559 -1.20054 37.753 -7.28027 42.8304V48.9066H5.54547C7.54429 46.7758 3.04695 46.465 0.548427 46.576C1.79769 46.4096 4.7626 45.6771 6.62816 44.0789C8.49372 42.4808 4.29621 42.5807 1.96426 42.8304C2.68605 42.3032 4.16295 40.6496 4.29621 38.2524Z" fill="#838383"/>
</g>
<path d="M53.7598 28.6543C53.7598 28.6543 52.5465 26.0891 50.26 25.9492C47.9734 25.8559 45.3135 28.4677 44.8002 30.0534C44.7535 30.0534 48.8134 25.0164 53.7598 28.6543Z" fill="#231F20"/>
<rect width="56" height="45" rx="6" fill="#FAFAFA" fill-opacity="0.4"/>
</svg>
