<svg xmlns="http://www.w3.org/2000/svg" width="360" height="360" viewBox="0 0 360 360">
    <defs>
        <filter id="53ighmqb7a" width="100%" height="100%" x="0%" y="0%" filterUnits="objectBoundingBox">
            <feGaussianBlur in="SourceGraphic"/>
        </filter>
        <filter id="bmyd3xualb" width="100%" height="100%" x="0%" y="0%" filterUnits="objectBoundingBox">
            <feGaussianBlur in="SourceGraphic"/>
        </filter>
    </defs>
    <g fill="none" fill-rule="evenodd">
        <g>
            <g>
                <g transform="translate(-4 -40) translate(-83 40) translate(87)">
                    <path stroke="#FF625E" stroke-width="6.72" d="M184.305 247.56c15.85-.433 28.916-7.106 39.195-20.019"/>
                    <ellipse cx="119.828" cy="190.907" fill="#FF918E" filter="url(#53ighmqb7a)" rx="11.2" ry="12.314"/>
                    <ellipse cx="247.508" cy="190.907" fill="#FF918E" filter="url(#bmyd3xualb)" rx="11.2" ry="12.314"/>
                    <path stroke="#324148" stroke-width="5.6" d="M204.46 150.563c10.327-5.386 20.765-6.258 31.315-2.616M165.193 150.574c-10.327-5.386-20.765-6.258-31.315-2.616" opacity=".8"/>
                    <g>
                        <g fill="#FF625E" fill-rule="nonzero">
                            <path d="M14.544 2.45c3.285-3.264 8.615-3.267 11.904-.007 3.29 3.26 2.121 8.264.007 11.814-2.114 3.55-9.595 11.074-12.198 11.076l-.001-1.28v-.132l-.001-2.97v-3.305l-.001-.317-.001-3.522v-3.718l-.001-.444-.001-3.791V5.35l-.001-1.025v3.945l-.001.464v3.484l-.001.406v3.372l-.001.343v3.345l-.001.266V23l-.001.17-.001 2.136v.028c-2.603-.002-10.085-7.525-12.199-11.076-2.114-3.55-3.282-8.554.008-11.814s8.619-3.257 11.904.007l.293.291.294-.29z" transform="translate(134 159) translate(1.75 4)"/>
                        </g>
                    </g>
                    <g>
                        <g fill="#FF625E" fill-rule="nonzero">
                            <path d="M14.544 2.45c3.285-3.264 8.615-3.267 11.904-.007 3.29 3.26 2.121 8.264.007 11.814-2.114 3.55-9.595 11.074-12.198 11.076l-.001-1.28v-.132l-.001-2.97v-3.305l-.001-.317-.001-3.522v-3.718l-.001-.444-.001-3.791V5.35l-.001-1.025v3.945l-.001.464v3.484l-.001.406v3.372l-.001.343v3.345l-.001.266V23l-.001.17-.001 2.136v.028c-2.603-.002-10.085-7.525-12.199-11.076-2.114-3.55-3.282-8.554.008-11.814s8.619-3.257 11.904.007l.293.291.294-.29z" transform="translate(203 159) translate(1.75 4)"/>
                        </g>
                    </g>
                </g>
            </g>
        </g>
    </g>
</svg>
