<svg xmlns="http://www.w3.org/2000/svg" xmlns:xlink="http://www.w3.org/1999/xlink" width="360" height="360" viewBox="0 0 360 360">
    <defs>
        <filter id="83czocxl1e" width="100%" height="100%" x="0%" y="0%" filterUnits="objectBoundingBox">
            <feGaussianBlur in="SourceGraphic"/>
        </filter>
        <filter id="t101q6n9gf" width="100%" height="100%" x="0%" y="0%" filterUnits="objectBoundingBox">
            <feGaussianBlur in="SourceGraphic"/>
        </filter>
        <path id="gkueenf15a" d="M216.027 184.73c10.514 0 17.786-9.562 17.786-12.543 0-2.995-7.285-12.54-17.786-12.54-10.436 0-17.8 9.545-17.8 12.54 0 2.981 7.417 12.542 17.8 12.542z"/>
        <path id="7yokpc6xnc" d="M143.776 184.73c10.514 0 17.787-9.562 17.787-12.543 0-2.995-7.286-12.54-17.787-12.54-10.436 0-17.8 9.545-17.8 12.54 0 2.981 7.417 12.542 17.8 12.542z"/>
    </defs>
    <g fill="none" fill-rule="evenodd">
        <g>
            <g>
                <g transform="translate(-8 -40) translate(-83 40) translate(91)">
                    <path stroke="#FF625E" stroke-width="6.72" d="M180.305 247.56c15.85-.433 28.916-7.106 39.195-20.019"/>
                    <mask id="264na6f8ub" fill="#fff">
                        <use xlink:href="#gkueenf15a"/>
                    </mask>
                    <use fill="#FFF" fill-rule="nonzero" transform="rotate(-3 216.02 172.188)" xlink:href="#gkueenf15a"/>
                    <ellipse cx="215.91" cy="176.285" fill="#324148" mask="url(#264na6f8ub)" rx="11.323" ry="12.541"/>
                    <mask id="xodnjdwutd" fill="#fff">
                        <use xlink:href="#7yokpc6xnc"/>
                    </mask>
                    <use fill="#FFF" fill-rule="nonzero" transform="rotate(3 143.77 172.188)" xlink:href="#7yokpc6xnc"/>
                    <ellipse cx="144.738" cy="176.285" fill="#324148" mask="url(#xodnjdwutd)" rx="11.323" ry="12.541"/>
                    <ellipse cx="115.828" cy="190.907" fill="#FF918E" filter="url(#83czocxl1e)" rx="11.2" ry="12.314"/>
                    <ellipse cx="243.508" cy="190.907" fill="#FF918E" filter="url(#t101q6n9gf)" rx="11.2" ry="12.314"/>
                    <path stroke="#324148" stroke-width="5.6" d="M200.46 150.563c10.327-5.386 20.765-6.258 31.315-2.616M161.193 150.574c-10.327-5.386-20.765-6.258-31.315-2.616" opacity=".8"/>
                </g>
            </g>
        </g>
    </g>
</svg>
