<svg xmlns="http://www.w3.org/2000/svg" width="360" height="360" viewBox="0 0 360 360">
    <defs>
        <filter id="ziqefwn4ta" width="100%" height="100%" x="0%" y="0%" filterUnits="objectBoundingBox">
            <feGaussianBlur in="SourceGraphic"/>
        </filter>
        <filter id="w7xyrg6w2b" width="100%" height="100%" x="0%" y="0%" filterUnits="objectBoundingBox">
            <feGaussianBlur in="SourceGraphic"/>
        </filter>
    </defs>
    <g fill="none" fill-rule="evenodd">
        <g>
            <g>
                <g transform="translate(-8.000000, -40.000000) translate(-83.000000, 40.000000) translate(91.000000, 0.000000)">
                    <path stroke="#FF625E" stroke-width="6.72" d="M179.805 246.404c15.85-.434 28.916-7.115 39.195-20.042"/>
                    <path fill="#324148" fill-rule="nonzero" d="M145.001 190.307c.656 0 1.094-.416 1.094-1.138V186.5c6.3-.371 10.828-3.718 10.828-9.253 0-4.79-3.128-7.197-9.122-8.553l-1.706-.372v-7.7c2.1.285 3.478 1.357 4.331 3.15.7 1.27 1.64 1.903 2.997 1.903 1.663 0 2.756-.94 2.756-2.384 0-.46-.087-.897-.218-1.334-1.05-3.37-4.66-5.928-9.866-6.278v-2.735c0-.722-.438-1.137-1.094-1.137-.656 0-1.094.415-1.094 1.137v2.735c-6.103.306-10.478 3.718-10.478 8.99 0 4.725 3.129 7.285 8.86 8.575l1.619.372v7.963c-2.757-.241-4.135-1.488-4.835-3.194-.612-1.269-1.531-1.969-2.887-1.969-1.794 0-2.866 1.072-2.866 2.647 0 .416.088.875.263 1.378 1.071 3.194 4.703 5.797 10.325 6.06v2.668c0 .722.437 1.138 1.093 1.138zm-1.094-22.488c-3.062-.787-4.353-1.947-4.353-3.719 0-1.771 1.488-3.237 4.353-3.5v7.22zm2.188 13.76v-7.46c3.5.875 4.725 1.86 4.725 3.806 0 2.013-1.575 3.413-4.725 3.654zM216.681 190.307c.656 0 1.094-.416 1.094-1.138V186.5c6.3-.371 10.828-3.718 10.828-9.253 0-4.79-3.128-7.197-9.122-8.553l-1.706-.372v-7.7c2.1.285 3.478 1.357 4.331 3.15.7 1.27 1.64 1.903 2.997 1.903 1.663 0 2.756-.94 2.756-2.384 0-.46-.087-.897-.218-1.334-1.05-3.37-4.66-5.928-9.866-6.278v-2.735c0-.722-.438-1.137-1.094-1.137-.656 0-1.094.415-1.094 1.137v2.735c-6.103.306-10.478 3.718-10.478 8.99 0 4.725 3.129 7.285 8.86 8.575l1.619.372v7.963c-2.757-.241-4.135-1.488-4.835-3.194-.612-1.269-1.531-1.969-2.887-1.969-1.794 0-2.866 1.072-2.866 2.647 0 .416.088.875.262 1.378 1.072 3.194 4.704 5.797 10.326 6.06v2.668c0 .722.437 1.138 1.093 1.138zm-1.094-22.488c-3.062-.787-4.353-1.947-4.353-3.719 0-1.771 1.488-3.237 4.353-3.5v7.22zm2.188 13.76v-7.46c3.5.875 4.725 1.86 4.725 3.806 0 2.013-1.575 3.413-4.725 3.654z" opacity=".8"/>
                    <ellipse cx="115.328" cy="187.443" fill="#FF918E" filter="url(#ziqefwn4ta)" rx="11.2" ry="12.328"/>
                    <ellipse cx="242.967" cy="186.375" fill="#FF918E" filter="url(#w7xyrg6w2b)" rx="11.2" ry="12.328"/>
                    <path stroke="#324148" stroke-width="5.6" d="M199.96 147.052c10.327-5.392 20.765-6.265 31.315-2.62M160.693 147.063c-10.327-5.392-20.765-6.265-31.315-2.62" opacity=".8"/>
                </g>
            </g>
        </g>
    </g>
</svg>
