<!-- Generated by IcoMoon.io -->
<svg version="1.1" xmlns="http://www.w3.org/2000/svg" width="32" height="32" viewBox="0 0 32 32">
<title>calendar</title>
<path d="M25.143 6.857h-2.286v-2.286h-2.286v2.286h-9.143v-2.286h-2.286v2.286h-2.286c-0.686 0-1.143 0.457-1.143 1.143v2.286c0 0.686 0.457 1.143 1.143 1.143h18.286c0.686 0 1.143-0.457 1.143-1.143v-2.286c0-0.686-0.457-1.143-1.143-1.143z"></path>
<path d="M25.143 13.714h-18.286c-0.686 0-1.143 0.457-1.143 1.143v10.286c0 0.686 0.457 1.143 1.143 1.143h18.286c0.686 0 1.143-0.457 1.143-1.143v-10.286c0-0.686-0.457-1.143-1.143-1.143z"></path>
</svg>
