<!-- Generated by IcoMoon.io -->
<svg version="1.1" xmlns="http://www.w3.org/2000/svg" width="32" height="32" viewBox="0 0 32 32">
<title>delete</title>
<path d="M10.171 25.486c0.229 1.143 1.143 1.943 2.286 1.943h7.2c1.143 0 2.057-0.8 2.286-1.943l2.057-12.914h-16l2.171 12.914z"></path>
<path d="M24 6.857h-6.286v-1.143c0-0.686-0.457-1.143-1.143-1.143h-1.143c-0.686 0-1.143 0.457-1.143 1.143v1.143h-6.286c-0.686 0-1.143 0.457-1.143 1.143v1.143c0 0.686 0.457 1.143 1.143 1.143h16c0.686 0 1.143-0.457 1.143-1.143v-1.143c0-0.686-0.457-1.143-1.143-1.143z"></path>
</svg>
