<!-- Generated by IcoMoon.io -->
<svg version="1.1" xmlns="http://www.w3.org/2000/svg" width="32" height="32" viewBox="0 0 32 32">
<title>divided</title>
<path d="M16 13.371v0c0.571 0 1.029-0.229 1.371-0.571s0.457-0.8 0.457-1.486c0-0.686-0.114-1.143-0.457-1.486s-0.8-0.571-1.371-0.571c-0.571 0-1.029 0.229-1.371 0.571s-0.457 0.8-0.457 1.486c0 0.686 0.114 1.143 0.457 1.486s0.8 0.571 1.371 0.571z"></path>
<path d="M9.371 14.514h13.257v2.971h-13.257v-2.971z"></path>
<path d="M16 18.629c-0.571 0-1.029 0.114-1.371 0.457s-0.457 0.8-0.457 1.486c0 0.686 0.114 1.143 0.457 1.486s0.8 0.571 1.371 0.571 1.029-0.229 1.371-0.571c0.343-0.343 0.457-0.914 0.457-1.486 0-0.686-0.114-1.143-0.457-1.486s-0.8-0.457-1.371-0.457z"></path>
</svg>
