<svg xmlns="http://www.w3.org/2000/svg" width="28" height="28" viewBox="0 0 28 28">
    <g fill="none" fill-rule="evenodd">
        <g>
            <g>
                <g>
                    <g fill="#324148" fill-rule="nonzero">
                        <g>
                            <path d="M4 0C2.3 0 1 1.3 1 3v1c-.6 0-1 .4-1 1v4c0 .6.4 1 1 1h6c.6 0 1-.4 1-1V5c0-.6-.4-1-1-1V3c0-1.7-1.3-3-3-3zm0 1.5c.8 0 1.5.7 1.5 1.5v1h-3V3c0-.8.7-1.5 1.5-1.5z" transform="translate(-36.000000, -474.000000) translate(20.000000, 456.000000) translate(16.000000, 18.000000) translate(1.022222, 4.022222) translate(16.977778, 10.977778)"/>
                        </g>
                        <path d="M20.978 0c1.586 0 2.882 1.24 2.973 2.803l.005.175v6.331c0 .54-.438.978-.978.978-.502 0-.915-.377-.971-.864L22 9.31V6.547l-8.709 4.281c-.764.376-1.65.405-2.433.087l-.194-.087-8.709-4.281v8.43c0 .528.4.962.911 1.017l.112.006h12.018c.54 0 .977.438.977.978 0 .501-.377.914-.863.971l-.114.007H2.978c-1.586 0-2.882-1.24-2.973-2.803L0 14.978v-12C0 1.392 1.24.096 2.803.005L2.978 0h18zm0 1.956h-18c-.527 0-.96.398-1.016.91l-.006.112-.001 1.39 9.572 4.705c.244.12.523.137.777.051l.125-.051L22 4.368v-1.39c0-.527-.399-.96-.91-1.016l-.112-.006z" transform="translate(-36.000000, -474.000000) translate(20.000000, 456.000000) translate(16.000000, 18.000000) translate(1.022222, 4.022222)"/>
                    </g>
                </g>
            </g>
        </g>
    </g>
</svg>
