<!-- Generated by IcoMoon.io -->
<svg version="1.1" xmlns="http://www.w3.org/2000/svg" width="32" height="32" viewBox="0 0 32 32">
<title>eye-close</title>
<path d="M28.571 17.829l-2.4-1.943c0.571-0.8 1.029-1.714 1.6-2.629 0.114-0.229 0-0.343-0.114-0.457l-2.629-1.371c-0.229-0.114-0.571 0-0.686 0.229-1.943 4-4.686 5.829-8.457 5.829-3.657 0-6.4-1.829-8.343-5.714-0.114-0.343-0.457-0.457-0.8-0.229l-2.286 1.143c-0.229 0.114-0.343 0.457-0.229 0.686 0.457 0.914 1.029 1.714 1.486 2.514l-2.286 1.943 1.143 1.486 2.4-1.943c0.8 0.914 1.6 1.6 2.4 2.057l-1.143 2.286 1.714 0.914 1.143-2.286c1.143 0.457 2.4 0.8 3.771 0.914v2.743h1.943v-2.743c1.371-0.114 2.629-0.343 3.771-0.914l1.143 2.286 1.714-0.914-1.143-2.286c0.914-0.571 1.714-1.257 2.4-2.057l2.514 1.943 1.371-1.486z"></path>
</svg>
