<!-- Generated by IcoMoon.io -->
<svg version="1.1" xmlns="http://www.w3.org/2000/svg" width="32" height="32" viewBox="0 0 32 32">
<title>filter</title>
<path d="M27.4 22.3h-2.5c-0.6-1.7-2.3-3-4.2-3s-3.5 1.3-4.2 3h-11.9c-0.7 0-1.1 0.6-1.1 1.1v0.2c0 0.7 0.6 1.1 1.1 1.1h11.8c0.5 2.1 2.2 3.5 4.5 3.5s4-1.5 4.5-3.5h2.3c0.7 0 1.1-0.6 1.1-1.1v-0.2c-0.2-0.7-0.8-1.1-1.4-1.1v0z"></path>
<path d="M27.4 14.5h-11.7c-0.6-1.8-2.3-3.1-4.2-3.1-2.1 0-3.7 1.3-4.2 3.1h-2.7c-0.7 0-1.1 0.6-1.1 1.1v0.2c-0.1 0.8 0.5 1.2 1.1 1.2h2.4c0.5 1.9 2.2 3.4 4.3 3.4s3.9-1.5 4.3-3.4h11.8c0.7 0 1.1-0.6 1.1-1.1v-0.2c0.1-0.6-0.5-1.2-1.1-1.2v0z"></path>
<path d="M27.4 6.6h-2.5c-0.7-1.7-2.3-2.9-4.2-2.9s-3.5 1.1-4.2 2.9h-11.9c-0.7 0-1.1 0.6-1.1 1.1v0.3c0 0.7 0.6 1.1 1.1 1.1h11.8c0.3 2.1 2.2 3.5 4.5 3.5s4-1.5 4.5-3.5h2.3c0.7 0 1.1-0.6 1.1-1.1v-0.2c-0.2-0.7-0.8-1.2-1.4-1.2v0z"></path>
</svg>
