<!-- Generated by IcoMoon.io -->
<svg version="1.1" xmlns="http://www.w3.org/2000/svg" width="32" height="32" viewBox="0 0 32 32">
<title>graduation</title>
<path d="M4.914 20.914v-4.914h-2.286v4.914c-0.686 0.457-1.143 1.143-1.143 2.057s0.8 1.6 2.286 2.4c1.486-0.686 2.286-1.486 2.286-2.4s-0.457-1.714-1.143-2.057z"></path>
<path d="M16.229 20.571c-0.343 0-0.686 0-0.914-0.114l-7.543-2.743v6.629c3.771 1.714 6.514 2.514 8.457 2.514s4.8-0.8 8.457-2.514v-6.629l-7.543 2.743c-0.229 0.114-0.571 0.114-0.914 0.114z"></path>
<path d="M29.371 11.429l-13.029-4.571c-0.114 0-0.229 0-0.343 0s-0.229 0-0.343 0l-12.914 4.571c-0.457 0.114-0.686 0.571-0.686 1.143s0.229 0.914 0.686 1.143l13.029 4.571c0.229 0.114 0.343 0.114 0.571 0l13.029-4.571c0.457-0.114 0.686-0.571 0.686-1.143s-0.343-0.914-0.686-1.143z"></path>
</svg>
