<!-- Generated by IcoMoon.io -->
<svg version="1.1" xmlns="http://www.w3.org/2000/svg" width="32" height="32" viewBox="0 0 32 32">
<title>heart</title>
<path d="M15.999 10.72v0.627l-0.001 5.148v4.707l-0.001 0.411-0.001 4.38v0.261l-0.001 3.032v0.048c-2.603-0.003-10.084-7.525-12.199-11.076-2.112-3.551-3.281-8.553 0.008-11.813 3.289-3.261 8.619-3.257 11.904 0.007l0.293 0.291 0.293-0.291c3.285-3.264 8.615-3.267 11.904-0.008 3.289 3.261 2.12 8.264 0.007 11.813-2.113 3.552-9.595 11.075-12.197 11.077l-0.001-1.203v-0.167l-0.001-4.107v-0.347l-0.001-4.529v-0.476l-0.001-4.764v-4.963l-0.001-0.668z"></path>
</svg>
