<!-- Generated by IcoMoon.io -->
<svg version="1.1" xmlns="http://www.w3.org/2000/svg" width="32" height="32" viewBox="0 0 32 32">
<title>home-off</title>
<path d="M17.333 16.609h-2.665c-6.217 0-11.239 4.999-11.239 11.154 0 1.067 0.888 1.951 1.96 1.951h21.223c1.072 0 1.96-0.883 1.96-1.951-0.031-6.155-5.053-11.154-11.239-11.154zM5.879 27.277c0.245-4.571 4.073-8.229 8.759-8.229h2.663c4.686 0 8.514 3.657 8.79 8.229h-20.211zM10.472 7.771v2.438c0 3.017 2.48 5.486 5.513 5.486 3.031 0 5.512-2.469 5.512-5.486v-2.438c0-3.017-2.48-5.486-5.512-5.486s-5.513 2.469-5.513 5.486zM19.047 7.771v2.438c0 1.677-1.378 3.048-3.063 3.048-1.683 0-3.063-1.371-3.063-3.048v-2.438c0-1.677 1.379-3.048 3.063-3.048 1.685 0 3.063 1.371 3.063 3.048z"></path>
</svg>
