<svg xmlns="http://www.w3.org/2000/svg" width="28" height="28" viewBox="0 0 28 28">
    <g fill="none" fill-rule="evenodd">
        <g fill="#324148" fill-rule="nonzero">
            <g>
                <g>
                    <g>
                        <path d="M22.978 15.518c.501 0 .914.377.971.864l.007.114v6.482c0 .501-.378.914-.864.971l-.114.007h-6.482c-.54 0-.978-.438-.978-.978 0-.502.377-.915.864-.971l.114-.007H22v-5.504c0-.502.377-.915.864-.972l.114-.006zm-21.607 0c.501 0 .914.377.97.864l.007.114V22h5.505c.501 0 .914.377.971.864l.007.114c0 .501-.378.914-.864.971l-.114.007H1.37c-.502 0-.915-.378-.972-.864l-.006-.114v-6.482c0-.54.438-.978.978-.978zm16.096.056c.362.354.368.934.014 1.296-.757.774-1.352 1.258-1.856 1.473-1.3.554-2.397.668-3.105.587-.503-.058-.864-.513-.806-1.015.053-.468.45-.812.908-.813l.107.006c.025.003.064.006.114.006l.185-.004.252-.02c.5-.051 1.048-.187 1.626-.433.073-.031.172-.093.293-.183l.197-.157c.071-.06.148-.127.23-.2l.258-.244.286-.285c.354-.362.935-.368 1.297-.014zm-4.824-7.069c.402.24.554.737.372 1.155l-.053.102-2.464 4.141h1.676c.506 0 .917.41.917.917 0 .47-.354.858-.81.91l-.107.007h-1.676c-.33 0-.654-.09-.938-.258-.824-.49-1.124-1.526-.713-2.374l.075-.139 2.464-4.141c.26-.436.822-.578 1.257-.32zm-6.319-.832c.748 0 1.353.697 1.353 1.558 0 .86-.605 1.558-1.353 1.558-.747 0-1.352-.698-1.352-1.558 0-.86.605-1.558 1.352-1.558zm11.7 0c.747 0 1.353.697 1.353 1.558 0 .86-.606 1.558-1.353 1.558S16.67 10.09 16.67 9.23c0-.86.606-1.558 1.353-1.558zm4.954-7.28c.501 0 .914.377.971.864l.007.114v6.482c0 .54-.438.978-.978.978-.502 0-.915-.378-.971-.864L22 7.853V2.348h-5.504c-.502 0-.915-.377-.972-.863l-.006-.114c0-.502.377-.915.864-.972l.114-.006h6.482zM7.853 0c.54 0 .978.438.978.978 0 .501-.378.914-.864.971l-.114.007-5.898-.001v5.898c0 .501-.377.914-.863.971l-.114.007c-.502 0-.915-.378-.971-.864L0 7.853V.978C0 .476.377.063.864.007L.978 0h6.875z" transform="translate(-36.000000, -312.000000) translate(20.000000, 294.000000) translate(16.000000, 18.000000) translate(2.022222, 2.022222)"/>
                    </g>
                </g>
            </g>
        </g>
    </g>
</svg>
