<!-- Generated by IcoMoon.io -->
<svg version="1.1" xmlns="http://www.w3.org/2000/svg" width="32" height="32" viewBox="0 0 32 32">
<title>info</title>
<path d="M15.6 20.267c1.067 0 1.6-0.533 1.867-1.333 0.133-1.067 0.667-2.4 2.533-3.467 1.467-0.8 2.667-2.4 2.667-4.267 0-2.667-2.4-5.2-6.533-5.2-3.2 0-5.467 1.333-6.4 3.067-0.267 0.4-0.4 0.933-0.4 1.467 0 0.933 0.667 1.6 1.867 1.6 0.933 0 1.467-0.267 1.867-1.2 0.533-0.8 1.467-1.6 2.933-1.6 1.6 0 2.667 0.667 2.667 2 0 1.2-0.4 1.867-2.267 2.8-1.733 0.933-2.8 2.667-2.8 4.133v0.133c0 1.2 0.8 1.867 2 1.867zM15.467 26c1.2 0 2.133-0.8 2.133-2s-0.933-2-2.133-2c-1.2 0-2 0.8-2 2s0.933 2 2 2v0z"></path>
</svg>
