<!-- Generated by IcoMoon.io -->
<svg version="1.1" xmlns="http://www.w3.org/2000/svg" width="32" height="32" viewBox="0 0 32 32">
<title>qrcode</title>
<path d="M2.6 11.9c0.7 0 1.2-0.6 1.2-1.2v-6.9h6.8c0.7 0 1.2-0.6 1.2-1.2s-0.6-1.2-1.2-1.2h-8c-0.7 0-1.2 0.6-1.2 1.2v8.1c-0.1 0.6 0.5 1.2 1.2 1.2z"></path>
<path d="M29.4 1.3h-8.1c-0.7 0-1.2 0.6-1.2 1.2s0.6 1.2 1.2 1.2h6.8v6.8c0 0.7 0.6 1.2 1.2 1.2s1.2-0.6 1.2-1.2v-7.9c0.2-0.7-0.4-1.3-1.1-1.3z"></path>
<path d="M29.4 20.1c-0.7 0-1.2 0.6-1.2 1.2v6.8h-6.8c-0.7 0-1.2 0.6-1.2 1.2s0.6 1.2 1.2 1.2h8.1c0.7 0 1.2-0.6 1.2-1.2v-8.1c0-0.5-0.6-1.1-1.3-1.1z"></path>
<path d="M10.6 28.2h-6.8v-6.8c0-0.7-0.6-1.2-1.2-1.2s-1.2 0.6-1.2 1.2v8.1c0 0.7 0.6 1.2 1.2 1.2h8.1c0.7 0 1.2-0.6 1.2-1.2s-0.6-1.3-1.3-1.3z"></path>
<path d="M11.3 15.1h1.9v1.9h-1.9v-1.9z"></path>
<path d="M12.3 18.8h-3.8c-0.6 0-0.9 0.4-0.9 0.9v3.7c0 0.6 0.4 0.9 0.9 0.9h3.7c0.6 0 0.9-0.4 0.9-0.9v-3.7c0.1-0.5-0.3-0.9-0.8-0.9zM11.3 22.5h-1.8v-1.9h1.9v1.9h-0.1z"></path>
<path d="M12.3 7.6h-3.8c-0.6 0-0.9 0.4-0.9 0.9v3.7c0 0.6 0.4 0.9 0.9 0.9h3.7c0.6 0 0.9-0.4 0.9-0.9v-3.7c0.1-0.5-0.3-0.9-0.8-0.9zM11.3 11.3h-1.8v-1.8h1.9v1.8h-0.1z"></path>
<path d="M15.1 7.6h1.9v1.9h-1.9v-1.9z"></path>
<path d="M7.6 15.1h1.9v1.9h-1.9v-1.9z"></path>
<path d="M19.7 13.2h3.7c0.6 0 0.9-0.4 0.9-0.9v-3.8c0-0.6-0.4-0.9-0.9-0.9h-3.7c-0.6 0-0.9 0.4-0.9 0.9v3.7c0 0.6 0.4 1 0.9 1zM20.7 9.5h1.9v1.9h-1.9v-1.9z"></path>
<path d="M15.1 11.3h1.9v1.9h-1.9v-1.9z"></path>
<path d="M16.9 20.7h1.9v1.9h-1.9v-1.9z"></path>
<path d="M15.1 22.5h1.9v1.9h-1.9v-1.9z"></path>
<path d="M20.7 16.9h1.9v1.9h-1.9v-1.9z"></path>
<path d="M20.7 20.7h1.9v1.9h-1.9v-1.9z"></path>
<path d="M18.8 18.8h1.9v1.9h-1.9v-1.9z"></path>
<path d="M16.9 16.9h1.9v1.9h-1.9v-1.9z"></path>
<path d="M18.8 22.5h1.9v1.9h-1.9v-1.9z"></path>
<path d="M22.5 22.5h1.9v1.9h-1.9v-1.9z"></path>
<path d="M15.1 18.8h1.9v1.9h-1.9v-1.9z"></path>
<path d="M22.5 18.8h1.9v1.9h-1.9v-1.9z"></path>
<path d="M15.1 15.1h1.9v1.9h-1.9v-1.9z"></path>
<path d="M22.5 15.1h1.9v1.9h-1.9v-1.9z"></path>
<path d="M18.8 15.1h1.9v1.9h-1.9v-1.9z"></path>
</svg>
