<!-- Generated by IcoMoon.io -->
<svg version="1.1" xmlns="http://www.w3.org/2000/svg" width="32" height="32" viewBox="0 0 32 32">
<title>search</title>
<path d="M29.506 27.002l-7.663-7.592c1.543-2.169 2.344-4.91 1.944-7.821-0.686-4.91-4.689-8.791-9.665-9.248-6.747-0.686-12.465 5.024-11.779 11.817 0.457 4.909 4.346 8.962 9.265 9.647 2.917 0.4 5.662-0.4 7.834-1.941l7.606 7.592c0.343 0.343 0.858 0.343 1.201 0l1.201-1.199c0.343-0.343 0.343-0.913 0.057-1.256zM5.715 13.074c0-4.054 3.318-7.365 7.378-7.365s7.377 3.311 7.377 7.365c0 4.053-3.318 7.363-7.377 7.363-4.061 0-7.379-3.254-7.379-7.363z"></path>
</svg>
