<!-- Generated by IcoMoon.io -->
<svg version="1.1" xmlns="http://www.w3.org/2000/svg" width="32" height="32" viewBox="0 0 32 32">
<title>settings-off</title>
<path d="M25.171 4.355c0.98 0.566 1.449 1.71 1.167 2.789l-0.054 0.18-0.582 1.694 0.213 0.294c0.283 0.406 0.541 0.827 0.77 1.261l0.22 0.437 0.139 0.307 1.762 0.344c1.041 0.206 1.824 1.040 1.986 2.060l0.023 0.193 0.008 0.197 0.005 4.143c0.001 1.128-0.753 2.107-1.826 2.403l-0.192 0.045-1.76 0.338-0.069 0.161-0.165 0.354-0.173 0.342-0.183 0.331c-0.126 0.218-0.261 0.433-0.406 0.646l-0.224 0.319-0.104 0.138 0.586 1.695c0.347 1.003 0.017 2.098-0.787 2.747l-0.156 0.117-0.167 0.106-3.594 2.069c-0.977 0.56-2.198 0.395-2.992-0.384l-0.135-0.144-1.178-1.352-0.34 0.035c-0.488 0.038-0.98 0.047-1.473 0.024l-0.494-0.032-0.358-0.038-1.177 1.353c-0.7 0.802-1.817 1.062-2.784 0.685l-0.18-0.077-0.164-0.088-3.6-2.078c-0.98-0.566-1.45-1.71-1.167-2.789l0.053-0.179 0.581-1.697-0.212-0.291c-0.283-0.408-0.541-0.828-0.769-1.262l-0.221-0.436-0.14-0.311-1.761-0.344c-1.040-0.205-1.825-1.038-1.986-2.057l-0.023-0.194-0.008-0.197-0.006-4.142c-0-1.129 0.755-2.107 1.827-2.403l0.193-0.046 1.759-0.34 0.069-0.158 0.165-0.354 0.174-0.342 0.184-0.332c0.126-0.218 0.26-0.432 0.404-0.645l0.224-0.319 0.104-0.141-0.586-1.692c-0.348-1.004-0.017-2.1 0.788-2.752l0.156-0.116 0.167-0.106 3.594-2.066c0.976-0.558 2.198-0.394 2.992 0.384l0.135 0.144 1.177 1.35 0.34-0.032c0.488-0.039 0.98-0.047 1.473-0.026l0.494 0.032 0.358 0.036 1.179-1.352c0.7-0.801 1.816-1.060 2.783-0.684l0.179 0.078 0.165 0.087 3.6 2.078zM24.051 6.295l-3.6-2.078c-0.086-0.050-0.188-0.045-0.266 0.005l-0.053 0.047-1.984 2.278-0.617-0.102c-0.945-0.156-1.889-0.18-2.807-0.068l-0.392 0.055-0.615 0.101-1.982-2.275c-0.065-0.075-0.165-0.105-0.256-0.082l-0.066 0.025-3.589 2.066c-0.083 0.048-0.13 0.139-0.126 0.231l0.014 0.067 0.99 2.861-0.396 0.484c-0.367 0.449-0.668 0.873-0.918 1.306-0.2 0.346-0.379 0.718-0.547 1.13l-0.125 0.317-0.221 0.585-2.973 0.573c-0.094 0.018-0.167 0.088-0.192 0.177l-0.010 0.070 0.005 4.143c0 0.098 0.057 0.185 0.141 0.229l0.068 0.024 2.96 0.578 0.222 0.583c0.325 0.861 0.783 1.682 1.358 2.441l0.254 0.322 0.396 0.484-0.98 2.856c-0.032 0.092-0.008 0.19 0.058 0.258l0.056 0.045 3.6 2.078c0.085 0.049 0.187 0.044 0.265-0.006l0.054-0.048 1.985-2.276 0.616 0.101c0.945 0.156 1.889 0.179 2.808 0.068l0.392-0.056 0.615-0.1 1.982 2.274c0.065 0.076 0.164 0.105 0.256 0.083l0.066-0.027 3.591-2.068c0.084-0.048 0.13-0.136 0.125-0.228l-0.013-0.068-0.99-2.86 0.396-0.484c0.368-0.45 0.667-0.875 0.917-1.307 0.2-0.346 0.38-0.718 0.548-1.13l0.125-0.317 0.221-0.585 2.971-0.573c0.094-0.018 0.167-0.088 0.193-0.176l0.010-0.071-0.006-4.142c-0-0.098-0.056-0.186-0.14-0.229l-0.068-0.024-2.961-0.58-0.221-0.583c-0.325-0.861-0.783-1.681-1.359-2.441l-0.254-0.322-0.395-0.483 0.98-2.856c0.031-0.093 0.008-0.192-0.058-0.259l-0.056-0.044zM19.256 10.442c3.168 1.829 4.26 5.874 2.436 9.034s-5.873 4.237-9.041 2.408c-3.167-1.829-4.26-5.874-2.436-9.034s5.873-4.237 9.041-2.408zM18.136 12.381c-2.098-1.211-4.776-0.498-5.98 1.588s-0.483 4.762 1.615 5.973 4.776 0.5 5.982-1.588c1.205-2.086 0.482-4.763-1.616-5.974z"></path>
</svg>
