<!-- Generated by IcoMoon.io -->
<svg version="1.1" xmlns="http://www.w3.org/2000/svg" width="32" height="32" viewBox="0 0 32 32">
<title>setting</title>
<path d="M27.2 12l-1.5-0.3c-0.3-0.7-0.7-1.4-1.2-2l0.5-1.5c0.3-1-0.1-2.1-1-2.6l-3.1-1.8c-0.9-0.5-2.1-0.3-2.7 0.5l-1 1.2c-0.8-0.1-1.6-0.1-2.3 0l-1-1.2c-0.7-0.8-1.8-1-2.7-0.5l-3.3 1.8c-0.9 0.6-1.3 1.7-0.9 2.6l0.5 1.5c-0.2 0.3-0.5 0.6-0.6 1-0.2 0.3-0.4 0.7-0.5 1l-1.6 0.3c-1 0.2-1.8 1.1-1.8 2.1v3.6c0 1 0.7 1.9 1.8 2.1l1.5 0.3c0.3 0.7 0.7 1.4 1.2 2l-0.5 1.7c-0.3 1 0.1 2.1 1 2.6l3.1 1.8c0.3 0.2 0.7 0.3 1.1 0.3 0.6 0 1.2-0.3 1.6-0.7l1-1.2c0.8 0.1 1.6 0.1 2.3 0l1 1.2c0.7 0.8 1.8 1 2.7 0.5l3.1-1.8c0.9-0.5 1.3-1.6 1-2.6l-0.5-1.5c0.2-0.3 0.5-0.6 0.6-1 0.2-0.3 0.4-0.7 0.5-1l1.5-0.3c1-0.2 1.8-1.1 1.8-2.1v-3.6c0.2-1.3-0.5-2.2-1.6-2.4zM19.3 17.9c-1.1 1.8-3.4 2.5-5.2 1.4s-2.5-3.4-1.4-5.2c0.5-0.9 1.3-1.5 2.3-1.8 0.3-0.1 0.7-0.1 1-0.1 0.7 0 1.3 0.2 1.9 0.5 0.9 0.5 1.5 1.3 1.8 2.3s0.1 2-0.4 2.9z"></path>
</svg>
