<!-- Generated by IcoMoon.io -->
<svg version="1.1" xmlns="http://www.w3.org/2000/svg" width="32" height="32" viewBox="0 0 32 32">
<title>share</title>
<path d="M22.286 20.114c-1.143 0-2.171 0.457-2.971 1.143l-6.857-4.114c0.114-0.457 0.229-0.914 0.229-1.371s-0.114-0.8-0.229-1.257l6.857-4.114c0.8 0.686 1.829 1.029 2.857 1.029 2.514 0 4.571-1.943 4.571-4.571s-1.943-4.571-4.571-4.571-4.571 1.943-4.571 4.571c0 0.457 0.114 0.914 0.229 1.257l-6.743 4.114c-0.8-0.686-1.829-1.143-2.971-1.143-2.514 0-4.571 1.943-4.571 4.571 0 2.514 1.943 4.571 4.571 4.571 1.143 0 2.057-0.343 2.857-1.029l6.857 4.114c-0.114 0.343-0.114 0.686-0.114 1.143 0 2.514 1.943 4.571 4.571 4.571s4.571-1.943 4.571-4.571-2.057-4.343-4.571-4.343z"></path>
</svg>
