<!-- Generated by IcoMoon.io -->
<svg version="1.1" xmlns="http://www.w3.org/2000/svg" width="32" height="32" viewBox="0 0 32 32">
<title>transfer-on</title>
<path d="M21.714 3.007c3.283 1.615 5.822 4.393 7.189 7.847l0.152 0.401c0.246 0.571-0.023 1.198-0.598 1.406-0.567 0.208-1.169-0.088-1.379-0.669-1.131-3.109-3.351-5.597-6.246-7-5.963-2.933-12.999-0.371-15.705 5.717-0.395 0.894-0.679 1.829-0.855 2.801l-0.080 0.49-0.021 0.163 0.307-0.317c0.354-0.366 0.907-0.407 1.326-0.142l0.11 0.080c0.669-3.443 3.013-6.432 6.471-7.69 5.315-1.935 11.241 0.952 13.239 6.441 0.411 1.129 0.631 2.298 0.658 3.472l1.641-1.749c0.168-0.286 0.457-0.477 0.791-0.507 0.277-0.026 0.549 0.057 0.773 0.234l0.109 0.097 2.095 2.434c0.366 0.422 0.37 1.055-0.015 1.479l-0.096 0.094-0.082 0.057c-0.098 0.065-0.154 0.096-0.23 0.123-0.366 0.134-0.766 0.053-1.069-0.21l-0.109-0.107-0.163-0.189-0.024 0.265c-0.129 1.145-0.392 2.265-0.784 3.331l-0.176 0.454-0.192 0.448c-1.545 3.546-4.341 6.166-7.809 7.427-3.451 1.257-7.278 1.061-10.737-0.619-3.409-1.677-6.016-4.609-7.346-8.263-0.21-0.581 0.061-1.194 0.629-1.4 0.567-0.207 1.168 0.089 1.379 0.669 1.131 3.111 3.351 5.597 6.246 7 5.962 2.933 12.999 0.371 15.705-5.715 0.448-1.015 0.755-2.085 0.917-3.178l0.061-0.471 0.011-0.137-0.33 0.354c-0.057 0.062-0.117 0.114-0.183 0.158l-0.105 0.061-0.115 0.050c-0.317 0.114-0.667 0.072-0.945-0.114-0.585 3.398-2.774 6.282-5.909 7.657l-0.318 0.134-0.278 0.106c-5.315 1.934-11.241-0.952-13.239-6.441-0.461-1.265-0.672-2.558-0.661-3.822l-1.918 1.939c-0.305 0.309-0.743 0.391-1.145 0.221-0.255-0.107-0.462-0.297-0.546-0.478l-0.032-0.089-1.802-2.206c-0.397-0.478-0.343-1.168 0.119-1.529 0.389-0.341 0.938-0.346 1.339-0.018l0.097 0.089 0.19 0.232 0.035-0.281c0.139-0.994 0.381-1.97 0.719-2.91l0.177-0.465 0.193-0.461c3.179-7.201 11.498-10.23 18.565-6.755zM15.897 8.96c-0.535-0.007-0.939 0.4-0.933 0.939l0.006 0.446c-1.51 0.233-2.659 1.551-2.639 3.138 0.019 1.493 1.046 2.777 2.469 3.177l1.962 0.503c0.601 0.167 0.986 0.68 0.994 1.283 0.009 0.73-0.583 1.326-1.307 1.315l-0.946-0.013c-0.662-0.009-1.205-0.557-1.214-1.223-0.007-0.539-0.423-0.958-0.958-0.966-0.537-0.007-0.941 0.4-0.934 0.941 0.021 1.587 1.205 2.905 2.72 3.117l0.006 0.411c0.007 0.541 0.423 0.96 0.959 0.967s0.939-0.4 0.933-0.941l-0.006-0.445c1.511-0.233 2.659-1.551 2.639-3.139-0.021-1.525-1.046-2.808-2.469-3.177l-1.962-0.503c-0.601-0.166-0.985-0.679-0.994-1.282-0.009-0.731 0.583-1.326 1.307-1.317l0.946 0.014c0.663 0.008 1.205 0.555 1.214 1.223 0.007 0.539 0.423 0.958 0.959 0.965 0.536 0.008 0.941-0.4 0.933-0.939-0.021-1.589-1.205-2.905-2.72-3.117l-0.006-0.413c-0.007-0.541-0.423-0.959-0.958-0.966z"></path>
</svg>
