<!-- Generated by IcoMoon.io -->
<svg version="1.1" xmlns="http://www.w3.org/2000/svg" width="32" height="32" viewBox="0 0 32 32">
<title>transfer</title>
<path d="M3.9 17.6l2.2-2.2c0.2-0.2 0.3-0.4 0.3-0.7s-0.1-0.5-0.3-0.7c-0.4-0.4-1-0.4-1.3 0l-0.5 0.5c0.2-1.3 0.5-2.5 1-3.6 2.7-5.8 9.8-8.3 15.6-5.6 2.9 1.3 5 3.7 6.1 6.6 0.2 0.5 0.7 0.7 1.2 0.6 0.2-0.1 0.4-0.3 0.5-0.5s0.1-0.5 0-0.7c-1.3-3.4-3.8-6.2-7.1-7.7v0c-6.8-3.2-15-0.2-18.2 6.6-0.6 1.3-1 2.7-1.2 4.2l-0.3-0.3c-0.2-0.2-0.4-0.3-0.6-0.4-0.3 0-0.5 0.1-0.7 0.2-0.2 0.2-0.3 0.4-0.4 0.6 0 0.3 0.1 0.5 0.2 0.7l1.7 2.1c0.1 0.2 0.3 0.4 0.5 0.5 0.1 0 0.2 0.1 0.4 0.1 0.5 0 0.7-0.1 0.9-0.3z"></path>
<path d="M31.3 16.3l-1.9-2.2c-0.2-0.3-0.5-0.4-0.9-0.4-0.3 0-0.5 0.2-0.7 0.4l-2 2.1c-0.4 0.4-0.4 1 0 1.3 0.2 0.3 0.6 0.3 1 0.2 0.1-0.1 0.3-0.1 0.4-0.2l0.6-0.6c-0.1 1.4-0.5 2.7-1.1 3.9-2.8 5.9-9.8 8.4-15.7 5.7-2.9-1.1-5-3.5-6.1-6.5-0.1-0.2-0.3-0.4-0.5-0.5s-0.5-0.1-0.7 0c-0.2 0.1-0.4 0.3-0.5 0.5s-0.1 0.5 0 0.7c1.3 3.4 3.8 6.2 7.1 7.7 1.8 0.8 3.8 1.3 5.8 1.3 1.6 0 3.2-0.3 4.7-0.8 3.4-1.2 6.2-3.8 7.7-7.1 0.7-1.4 1.1-2.9 1.2-4.5l0.3 0.4c0.3 0.3 0.7 0.4 1 0.3 0.1 0 0.2-0.1 0.3-0.2 0.2-0.2 0.3-0.4 0.3-0.6 0-0.4-0.1-0.7-0.3-0.9z"></path>
<path d="M15.6 12.6h0.9c0.6 0 1 0.4 1 1 0 0.3 0.1 0.6 0.3 0.8s0.5 0.3 0.8 0.3c0.6 0 1.1-0.5 1.1-1.1 0-1.5-1.1-2.8-2.6-3.1v-0.2c0-0.3-0.1-0.6-0.3-0.8s-0.5-0.3-0.8-0.3c-0.6 0-1.1 0.5-1.1 1.1v0.3c-1.5 0.3-2.6 1.7-2.6 3.2s1 2.8 2.5 3.2l1.9 0.5c0.5 0.1 0.8 0.5 0.8 1 0 0.3-0.1 0.6-0.3 0.8s-0.5 0.3-0.8 0.3h-0.9c-0.6 0-1-0.4-1-1 0-0.3-0.1-0.6-0.3-0.8-0.4-0.4-1.2-0.4-1.6 0-0.2 0.2-0.3 0.5-0.3 0.8 0 1.5 1.1 2.8 2.6 3.1v0.2c0 0.3 0.1 0.6 0.3 0.8s0.5 0.3 0.8 0.3c0.6 0 1.1-0.5 1.1-1.1v-0.3c1.5-0.3 2.6-1.7 2.6-3.2s-1-2.8-2.5-3.2l-1.9-0.5c-0.5-0.1-0.8-0.5-0.8-1 0-0.3 0.1-0.6 0.3-0.8 0.2-0.1 0.5-0.3 0.8-0.3z"></path>
</svg>
