<!-- Generated by IcoMoon.io -->
<svg version="1.1" xmlns="http://www.w3.org/2000/svg" width="32" height="32" viewBox="0 0 32 32">
<title>transfer-off</title>
<path d="M3.486 19.408c0.568-0.207 1.169 0.089 1.381 0.669 1.131 3.111 3.351 5.597 6.246 7 5.962 2.933 12.999 0.371 15.705-5.715 0.448-1.015 0.755-2.085 0.917-3.178l0.061-0.471 0.011-0.137-0.33 0.354c-0.057 0.062-0.117 0.114-0.183 0.158l-0.105 0.061-0.115 0.050c-0.389 0.141-0.83 0.046-1.123-0.263-0.386-0.399-0.433-1.016-0.118-1.44l0.086-0.101 2.007-2.135c0.168-0.286 0.457-0.477 0.791-0.507 0.277-0.026 0.549 0.057 0.773 0.234l0.109 0.097 2.095 2.434c0.366 0.422 0.37 1.055-0.015 1.479l-0.096 0.094-0.082 0.057c-0.098 0.065-0.154 0.096-0.23 0.123-0.366 0.134-0.766 0.053-1.069-0.21l-0.109-0.107-0.163-0.189-0.024 0.265c-0.129 1.145-0.392 2.265-0.784 3.331l-0.176 0.454-0.192 0.448c-1.545 3.546-4.341 6.166-7.809 7.427-3.451 1.257-7.278 1.061-10.737-0.619-3.409-1.677-6.016-4.609-7.346-8.263-0.21-0.581 0.061-1.194 0.629-1.4zM15.906 8.665c0.59 0.008 1.075 0.403 1.214 0.971l0.026 0.145 0.010 0.139v0.171l0.16 0.037c1.333 0.358 2.341 1.502 2.533 2.888l0.023 0.221 0.010 0.214c0.009 0.705-0.53 1.248-1.232 1.238-0.59-0.008-1.075-0.402-1.214-0.971l-0.026-0.145-0.010-0.139c-0.006-0.427-0.302-0.795-0.689-0.901l-0.119-0.023-0.114-0.008-0.946-0.014c-0.559-0.007-1.015 0.453-1.008 1.017 0.006 0.389 0.206 0.722 0.522 0.901l0.126 0.058 0.125 0.043 1.962 0.503c1.565 0.405 2.669 1.814 2.689 3.458 0.021 1.566-1.009 2.925-2.48 3.345l-0.154 0.039 0.002 0.2c0.008 0.611-0.397 1.101-0.961 1.214l-0.134 0.019-0.137 0.006c-0.59-0.008-1.075-0.403-1.214-0.971l-0.026-0.146-0.010-0.139-0.002-0.171-0.158-0.037c-1.333-0.357-2.341-1.502-2.533-2.887l-0.023-0.221-0.010-0.214c-0.009-0.705 0.53-1.248 1.232-1.239 0.59 0.008 1.075 0.403 1.214 0.971l0.026 0.146 0.010 0.139c0.005 0.427 0.302 0.795 0.689 0.899l0.119 0.023 0.114 0.009 0.946 0.013c0.559 0.008 1.015-0.451 1.008-1.017-0.006-0.387-0.206-0.722-0.523-0.899l-0.123-0.059-0.126-0.042-1.968-0.505c-1.561-0.439-2.663-1.845-2.683-3.456-0.021-1.566 1.009-2.926 2.48-3.345l0.154-0.040-0.002-0.199c-0.009-0.705 0.53-1.248 1.232-1.239zM21.714 3.008c3.283 1.614 5.822 4.392 7.189 7.846l0.152 0.401c0.246 0.571-0.023 1.198-0.598 1.406-0.567 0.208-1.169-0.088-1.379-0.669-1.131-3.109-3.351-5.597-6.246-7-5.963-2.933-12.999-0.371-15.705 5.717-0.395 0.894-0.679 1.829-0.855 2.801l-0.080 0.49-0.021 0.163 0.307-0.317c0.354-0.366 0.907-0.407 1.326-0.142l0.11 0.080 0.095 0.087c0.384 0.397 0.414 1.022 0.091 1.451l-0.089 0.103-2.206 2.232c-0.304 0.309-0.741 0.391-1.144 0.221-0.255-0.107-0.462-0.297-0.546-0.478l-0.032-0.089-1.802-2.206c-0.397-0.478-0.343-1.168 0.119-1.529 0.389-0.341 0.938-0.346 1.339-0.018l0.097 0.089 0.19 0.232 0.035-0.281c0.139-0.994 0.381-1.97 0.719-2.91l0.177-0.465 0.193-0.461c3.178-7.202 11.497-10.231 18.563-6.757z"></path>
</svg>
