<!-- Generated by IcoMoon.io -->
<svg version="1.1" xmlns="http://www.w3.org/2000/svg" width="32" height="32" viewBox="0 0 32 32">
<title>user</title>
<path d="M17.1 17.1h-2.2c-5.2 0-9.5 4.2-9.5 9.4 0 0.9 0.7 1.6 1.6 1.6h17.8c0.9 0 1.6-0.7 1.6-1.6 0.1-5.2-4.1-9.4-9.3-9.4zM7.5 26.1v0c0.2-3.9 3.4-7 7.4-7h2.2c3.9 0 7.2 3.1 7.4 7h-17z"></path>
<path d="M16 16.3c2.5 0 4.6-2.1 4.6-4.6v-2.1c0-2.5-2.1-4.6-4.6-4.6s-4.6 2.1-4.6 4.6v0 2.1c0 2.5 2 4.6 4.6 4.6zM13.4 9.6c0-1.4 1.2-2.6 2.6-2.6s2.6 1.2 2.6 2.6v2.1c0 1.4-1.2 2.6-2.6 2.6s-2.6-1.2-2.6-2.6v-2.1z"></path>
</svg>
