<svg width="135" height="140" viewBox="0 0 135 140" fill="none" xmlns="http://www.w3.org/2000/svg">
<g clip-path="url(#clip0)">
<path d="M-12 0H135V128C135 134.627 129.627 140 123 140H-12V0Z" fill="#F6F6F6"/>
<mask id="mask0" style="mask-type:alpha" maskUnits="userSpaceOnUse" x="-12" y="0" width="147" height="140">
<path d="M-12 0H135V128C135 134.627 129.627 140 123 140H-12V0Z" fill="#F6F6F6"/>
</mask>
<g mask="url(#mask0)">
<path d="M43.5723 113.454C43.5723 113.454 38.2955 117.974 41.1262 130.529C44.2733 144.596 59.5961 152.027 73.9229 152.094L43.5723 113.454Z" fill="#B2B2B2"/>
<path d="M145.241 86.2116C145.241 86.2116 152.071 87.4878 155.896 99.7754C160.204 113.531 150.65 127.629 138.276 134.85L145.241 86.2116Z" fill="#B2B2B2"/>
<path d="M79.2853 44.0677C51.1744 51.5999 34.4664 80.1284 41.8549 107.703C49.6206 136.685 68.1094 154.274 88.7651 158.058C93.1506 158.835 97.5397 157.304 100.739 154.317C102.645 152.475 105.038 151.124 107.774 150.39C110.511 149.657 113.259 149.631 115.831 150.273C120.117 151.343 124.744 150.37 128.071 147.526C144.067 133.921 151.284 109.444 143.518 80.462C136.108 52.8049 107.313 36.5576 79.2853 44.0677Z" fill="#EEEDEB"/>
<path d="M104.725 50.1186C99.6605 51.1205 95.1394 53.4857 91.6309 56.6446C87.056 60.7992 80.8368 62.4656 74.7976 61.1551C70.0967 60.1959 65.0817 60.3859 60.1951 62.0503C47.3373 66.4718 39.5632 79.915 42.1567 93.2428C45.2278 109.016 60.9618 118.646 76.2196 114.557C80.6145 113.38 84.4722 111.192 87.6105 108.31C92.0417 104.283 98.2609 102.616 104.112 103.888C108.271 104.815 112.706 104.781 117.101 103.603C132.358 99.515 141.17 83.3088 135.943 68.1129C131.608 55.2518 118.071 47.5189 104.725 50.1186Z" fill="white"/>
<path fill-rule="evenodd" clip-rule="evenodd" d="M67.8078 129.947C65.2641 129.741 63.1782 128.258 62.0209 126.261C61.8468 129.591 64.2876 132.399 67.5613 132.675C70.835 132.952 73.7525 130.573 74.1976 127.258C72.6453 129.094 70.3515 130.153 67.8078 129.947ZM84.7103 142.281C82.1666 142.075 80.0807 140.592 78.9234 138.595C78.7492 141.925 81.1901 144.733 84.4638 145.009C87.7374 145.286 90.655 142.907 91.1001 139.592C89.5479 141.428 87.254 142.487 84.7103 142.281ZM100.444 137.976C102.198 139.548 104.709 140.295 107.136 139.733C109.563 139.172 111.514 137.495 112.435 135.296C113.03 138.509 110.959 141.727 107.763 142.405C104.485 143.106 101.287 141.123 100.444 137.976ZM125.415 130.664C127.515 129.214 128.581 126.887 128.584 124.578C130.4 127.375 129.69 131.027 126.993 132.904C124.296 134.78 120.58 134.178 118.538 131.53C120.8 132.344 123.316 132.114 125.415 130.664ZM82.152 126.103C83.6188 127.929 85.9476 128.991 88.4855 128.843C91.0012 128.613 93.2063 127.223 94.4653 125.289C94.4571 128.575 92.0043 131.362 88.6979 131.626C85.3694 131.808 82.4976 129.383 82.152 126.103ZM131.826 112.794C133.926 111.344 134.991 109.017 134.995 106.709C136.811 109.506 136.1 113.158 133.404 115.034C130.707 116.91 126.991 116.309 124.948 113.661C127.21 114.475 129.726 114.244 131.826 112.794ZM117.476 116.639C117.118 118.954 115.633 121.038 113.361 122.179C111.067 123.238 108.463 123.137 106.405 122.091C108.055 124.932 111.573 126.12 114.569 124.696C117.542 123.189 118.817 119.653 117.476 116.639Z" fill="#D8D8D8"/>
<path d="M82.3665 49.9842C82.3665 49.9842 85.0436 44.3855 90.2222 41.4891C94.616 38.9805 91.8213 36.1793 88.1527 39.7361C85.1196 42.6789 82.3665 49.9842 82.3665 49.9842Z" fill="#BFBFC0"/>
<path d="M79.1363 49.5189C79.1363 49.5189 76.8871 44.4415 72.5227 42.416C69.3752 40.9518 70.3738 38.3767 71.5955 37.9606C73.9115 36.9851 76.8557 40.0124 79.1363 49.5189Z" fill="#BFBFC0"/>
<path d="M76.5326 49.4183C76.5326 49.4183 66.6125 42.58 62.5072 46.1651C59.6118 48.6271 70.3158 47.4453 76.5326 49.4183Z" fill="#BFBFC0"/>
<path d="M125.952 104.573C127.868 111.723 116.477 120.987 100.509 125.265C84.5414 129.544 70.044 127.216 68.1283 120.067C67.8079 118.871 66.972 115.752 66.972 115.752C66.972 115.752 80.2738 102.937 93.5715 99.3742C107.559 95.6262 125.027 101.121 125.027 101.121C125.027 101.121 125.715 103.686 125.952 104.573Z" fill="url(#paint0_linear)"/>
<path d="M125.004 100.718C126.991 108.134 115.639 117.619 99.6491 121.903C83.659 126.188 69.0858 123.65 67.0987 116.234C65.1117 108.818 76.4634 99.3334 92.4534 95.0488C108.443 90.7643 123.017 93.3026 125.004 100.718Z" fill="#FCEF86"/>
<path d="M125.004 100.718C126.991 108.134 115.639 117.619 99.6491 121.903C83.659 126.188 69.0858 123.65 67.0987 116.234C65.1117 108.818 76.4634 99.3334 92.4534 95.0488C108.443 90.7643 123.017 93.3026 125.004 100.718Z" fill="#ECECEC"/>
<ellipse cx="96.0496" cy="108.475" rx="21.1179" ry="9.79383" transform="rotate(-15 96.0496 108.475)" fill="url(#paint1_linear)"/>
<g filter="url(#filter0_d)">
<path d="M95.1794 102.644C97.6016 101.995 96.5823 103.722 96.9285 103.651C97.9933 103.433 98.8434 103.376 99.4787 103.48C100.318 103.608 100.807 103.931 100.946 104.45C101.064 104.889 100.89 105.293 100.426 105.664C99.9805 106.029 99.2695 106.342 98.2931 106.604C98.0303 106.674 97.8479 106.707 97.746 106.702C97.6441 106.698 97.5825 106.655 97.5611 106.576C97.537 106.486 97.4915 106.391 97.4246 106.291C97.3737 106.177 97.2786 106.085 97.1392 106.015C97.016 105.931 96.8323 105.884 96.5883 105.874C96.363 105.86 96.0533 105.905 95.659 106.011C95.1332 106.152 94.7295 106.335 94.4477 106.56C94.1632 106.775 94.0477 106.983 94.1012 107.182C94.1573 107.391 94.3623 107.518 94.7162 107.562C95.0863 107.591 95.5301 107.595 96.0477 107.574C96.584 107.548 97.1593 107.517 97.7734 107.481C98.3849 107.434 98.9601 107.441 99.499 107.499C100.057 107.553 100.534 107.682 100.931 107.885C101.343 108.074 101.61 108.393 101.73 108.841C101.923 109.56 101.602 110.276 100.767 110.992C100.199 111.478 99.3811 111.918 98.3131 112.311C97.8113 112.496 99.3405 113.554 96.9465 114.196C94.5525 114.837 95.4994 113.114 94.7913 113.25C94.1047 113.391 93.4395 113.5 92.7958 113.576C92.1495 113.643 91.589 113.654 91.1144 113.61C90.6586 113.561 90.3986 113.417 90.3345 113.178C90.3104 113.088 90.3092 112.971 90.3308 112.826C90.3711 112.676 90.441 112.524 90.5404 112.369C90.6585 112.209 90.8008 112.064 90.9672 111.934C91.1497 111.789 91.3817 111.679 91.6634 111.603C91.8887 111.543 92.1032 111.517 92.307 111.527C92.5108 111.536 92.7441 111.543 93.0069 111.548C93.2858 111.537 93.6211 111.511 94.0126 111.471C94.4042 111.43 94.9098 111.326 95.5294 111.16C95.9988 111.035 96.4039 110.894 96.7446 110.739C97.1041 110.578 97.2558 110.393 97.1997 110.184C97.1489 109.994 96.9586 109.885 96.6288 109.856C96.2963 109.817 95.882 109.81 95.3858 109.836C94.9085 109.857 94.3829 109.886 93.8089 109.922C93.2511 109.943 92.7121 109.922 92.192 109.858C91.6906 109.789 91.2509 109.651 90.873 109.442C90.4924 109.223 90.2393 108.879 90.1137 108.411C89.9774 107.902 90.0503 107.423 90.3323 106.973C90.6304 106.509 91.0505 106.086 91.5925 105.706C92.1533 105.32 92.8066 104.98 93.5524 104.683C94.2955 104.377 93.1516 103.188 95.1794 102.644Z" fill="url(#paint2_linear)"/>
</g>
<path d="M114.047 82.5905C118.306 81.4493 120.835 77.0763 119.695 72.8231C118.555 68.57 114.179 66.0473 109.92 67.1885C105.661 68.3297 103.132 72.7027 104.271 76.9559C105.411 81.2091 109.787 83.7318 114.047 82.5905Z" fill="#797677"/>
<path d="M110.216 76.2515C111.727 75.8466 112.625 74.2949 112.22 72.7857C111.816 71.2765 110.263 70.3813 108.752 70.7863C107.24 71.1913 106.343 72.743 106.747 74.2522C107.152 75.7613 108.705 76.6565 110.216 76.2515Z" fill="white"/>
<path d="M58.9518 91.5837C58.9518 91.5837 60.1584 86.468 64.2216 85.3792C68.2849 84.2905 74.0718 87.9761 75.6554 90.5693C75.6554 90.5693 66.4536 83.0949 58.9518 91.5837Z" fill="#797677"/>
<path d="M86.4063 90.8823L92.7036 96.4728L94.7815 88.6382C94.6986 88.6604 90.1028 87.7617 86.4063 90.8823Z" fill="#F1B578"/>
</g>
</g>
<defs>
<filter id="filter0_d" x="88.0256" y="101.324" width="15.0889" height="15.4571" filterUnits="userSpaceOnUse" color-interpolation-filters="sRGB">
<feFlood flood-opacity="0" result="BackgroundImageFix"/>
<feColorMatrix in="SourceAlpha" type="matrix" values="0 0 0 0 0 0 0 0 0 0 0 0 0 0 0 0 0 0 127 0" result="hardAlpha"/>
<feOffset dy="1"/>
<feComposite in2="hardAlpha" operator="out"/>
<feColorMatrix type="matrix" values="0 0 0 0 0.72549 0 0 0 0 0.72549 0 0 0 0 0.72549 0 0 0 0.5 0"/>
<feBlend mode="normal" in2="BackgroundImageFix" result="effect1_dropShadow"/>
<feBlend mode="normal" in="SourceGraphic" in2="effect1_dropShadow" result="shape"/>
</filter>
<linearGradient id="paint0_linear" x1="120.341" y1="100.716" x2="120.173" y2="125.399" gradientUnits="userSpaceOnUse">
<stop stop-color="#D7D7D7"/>
<stop offset="1" stop-color="#B1B1B1"/>
</linearGradient>
<linearGradient id="paint1_linear" x1="88.8967" y1="99.0764" x2="95.1863" y2="120.836" gradientUnits="userSpaceOnUse">
<stop stop-color="#D1D1D1"/>
<stop offset="0.993809" stop-color="white"/>
</linearGradient>
<linearGradient id="paint2_linear" x1="92.2081" y1="105.525" x2="95.9899" y2="113.654" gradientUnits="userSpaceOnUse">
<stop stop-color="white"/>
<stop offset="0.0001" stop-color="white"/>
<stop offset="1" stop-color="#F1F1F1"/>
</linearGradient>
<clipPath id="clip0">
<rect width="135" height="140" fill="white"/>
</clipPath>
</defs>
</svg>
