<svg width="60" height="70" viewBox="0 0 60 70" fill="none" xmlns="http://www.w3.org/2000/svg">
<path d="M35.5986 65.0391C50.1445 65.0391 59.8564 55.8545 59.8564 42.4072C59.8564 29.9707 51.3311 21.1377 39.29 21.1377C33.0059 21.1377 28.5234 23.4668 25.8428 27.334H25.0518L26.458 11.0303H56.0332V0H16.1748L13.0107 36.7822H24.876C27.0732 33.2227 30.8086 31.0693 35.7305 31.0693C42.4541 31.0693 47.2002 35.7275 47.2002 42.7148C47.2002 49.6143 42.498 54.1846 35.6865 54.1846C29.666 54.1846 25.0078 50.6689 24.2607 45.3955H12C12.3955 56.7334 21.7998 65.0391 35.5986 65.0391Z" fill="#FEE6CA"/>
</svg>
