<svg width="60" height="70" viewBox="0 0 60 70" fill="none" xmlns="http://www.w3.org/2000/svg">
<g clip-path="url(#clip0)">
<path d="M27.275 37.1549H35.1063C42.1938 37.1549 46.525 40.5484 46.525 46.0303C46.525 51.3817 41.9313 55.0798 35.325 55.0798C28.5438 55.0798 24.0375 51.7297 23.6438 46.4219H11C11.5688 58.2558 21.1063 66 35.1938 66C49.5875 66 60 58.0382 60 47.031C60 38.7647 54.575 33.0218 45.9125 32.0646V31.2815C52.9563 29.8457 57.55 24.1898 57.55 16.9242C57.55 7.04812 48.2313 0 35.2813 0C21.5 0 12.6188 7.48319 12.1813 19.3606H24.3875C24.7375 13.9222 28.8063 10.4852 34.9313 10.4852C41.1 10.4852 45.0375 13.7047 45.0375 18.7515C45.0375 23.8853 40.9688 27.3659 34.975 27.3659H27.275V37.1549Z" fill="#FEE6CA"/>
</g>
<defs>
<clipPath id="clip0">
<rect width="60" height="70" fill="white"/>
</clipPath>
</defs>
</svg>
