<svg width="188" height="100" viewBox="0 0 188 100" fill="none" xmlns="http://www.w3.org/2000/svg">
<ellipse cx="122" cy="93" rx="26" ry="3" fill="#FDEEDC"/>
<path d="M91.7103 50.7868C91.7103 50.7868 87.8949 51.9112 86.4262 59.1393C84.7677 67.2327 91.0222 74.7156 98.4855 78.1137L91.7103 50.7868Z" fill="#B2B2B2"/>
<path d="M151.173 60.4125C151.173 60.4125 154.439 62.6832 153.553 70.0056C152.573 78.2089 144.277 83.3364 136.123 84.2064L151.173 60.4125Z" fill="#B2B2B2"/>
<path d="M109.563 90.8577C109.272 90.8105 109.004 90.6179 108.85 90.344L107.554 87.8945L105.35 89.8272C104.947 90.1603 104.301 90.1552 103.968 89.7529C103.635 89.3506 103.64 88.7043 104.042 88.3713L107.172 85.6426C107.405 85.4315 107.663 85.3738 108.003 85.4288C108.294 85.4759 108.561 85.6685 108.667 85.9346L110.534 89.4719C110.803 89.9634 110.611 90.5297 110.12 90.7985C109.966 90.8235 109.757 90.8891 109.563 90.8577Z" fill="#E08425"/>
<path d="M126.975 93.6763C126.684 93.6291 126.417 93.4365 126.262 93.1626L124.966 90.7131L122.762 92.6458C122.36 92.9789 121.713 92.9738 121.38 92.5715C121.047 92.1692 121.052 91.5229 121.455 91.1899L124.584 88.4612C124.817 88.2501 125.076 88.1924 125.415 88.2474C125.706 88.2945 125.974 88.4871 126.08 88.7532L127.946 92.2905C128.215 92.782 128.024 93.3483 127.532 93.6171C127.379 93.6421 127.169 93.7077 126.975 93.6763Z" fill="#EC8822"/>
<path d="M126.636 22.8942C110.194 20.2326 94.777 31.2253 92.1626 47.3763C89.4146 64.3519 94.9381 77.8884 104.833 84.7162C106.939 86.1522 109.59 86.3822 111.961 85.5715C113.388 85.0559 114.955 84.9113 116.555 85.1704C118.156 85.4295 119.597 86.0609 120.788 87.0004C122.775 88.5663 125.419 89.1436 127.822 88.4377C139.366 85.0802 148.878 73.9777 151.626 57.0021C154.248 40.8025 143.03 25.5479 126.636 22.8942Z" fill="#EEEDEB"/>
<path d="M138.497 32.0313C135.618 31.3662 132.703 31.5413 130.13 32.3691C126.767 33.4672 123.129 32.8784 120.284 30.7753C118.055 29.1702 115.393 28.0922 112.451 27.8151C104.702 27.1081 97.4884 32.3114 95.7143 39.8883C93.6156 48.856 99.5691 57.5843 108.493 59.029C111.064 59.4451 113.591 59.2071 115.906 58.437C119.164 57.3717 122.802 57.9606 125.558 59.9994C127.511 61.4604 129.834 62.4835 132.405 62.8997C141.329 64.3443 149.732 57.94 150.57 48.7681C151.325 41.0264 146.074 33.8053 138.497 32.0313Z" fill="white"/>
<path fill-rule="evenodd" clip-rule="evenodd" d="M137.935 71.1615C139.372 70.8963 140.474 69.9299 141.017 68.7239C141.309 70.6126 140.081 72.355 138.233 72.7029C136.385 73.0508 134.586 71.8637 134.141 69.9999C135.131 70.9565 136.498 71.4267 137.935 71.1615ZM100.492 65.1012C99.2128 64.3964 98.4719 63.1316 98.3365 61.8156C97.464 63.516 98.0793 65.5567 99.7233 66.4699C101.367 67.3831 103.449 66.8241 104.459 65.1958C103.218 65.7913 101.772 65.8061 100.492 65.1012ZM106.422 75.5171C105.142 74.8123 104.401 73.5476 104.266 72.2316C103.393 73.9319 104.009 75.9727 105.653 76.8858C107.297 77.799 109.378 77.24 110.388 75.6117C109.147 76.2072 107.701 76.222 106.422 75.5171ZM115.645 76.9604C116.192 78.1937 117.327 79.1738 118.726 79.45C120.125 79.7262 121.536 79.3077 122.533 78.3741C122.09 80.1936 120.254 81.3895 118.426 80.9942C116.55 80.591 115.346 78.8034 115.645 76.9604ZM130.396 79.0002C131.832 78.735 132.935 77.7686 133.478 76.5625C133.77 78.4513 132.542 80.1937 130.694 80.5416C128.846 80.8895 127.047 79.7024 126.602 77.8386C127.592 78.7952 128.959 79.2654 130.396 79.0002ZM108.883 66.4583C109.221 67.7572 110.187 68.8594 111.546 69.3781C112.914 69.8483 114.391 69.6394 115.502 68.9234C114.727 70.6395 112.792 71.5209 111.004 70.883C109.224 70.1966 108.294 68.2543 108.883 66.4583ZM129.545 69.803C128.815 70.9292 127.551 71.6701 126.097 71.7334C124.651 71.7483 123.315 71.0841 122.487 70.054C122.681 71.9271 124.239 73.3738 126.137 73.3326C128.043 73.2429 129.538 71.6932 129.545 69.803Z" fill="#D8D8D8"/>
<path d="M126.863 26.713C126.863 26.713 129.575 24.4144 132.958 24.1159C135.84 23.8359 135.039 21.7153 132.289 22.7136C130.015 23.54 126.863 26.713 126.863 26.713Z" fill="#BFBFC0"/>
<path d="M125.284 25.7108C125.284 25.7108 125.301 22.5282 123.499 20.4445C122.199 18.9401 123.325 17.8282 124.06 17.8975C125.498 17.9312 126.325 20.2052 125.284 25.7108Z" fill="#BFBFC0"/>
<path d="M123.948 25.0469C123.948 25.0469 120.375 19.1427 117.39 20.0532C115.301 20.6607 121.166 22.5558 123.948 25.0469Z" fill="#BFBFC0"/>
<path d="M137.086 63.6914C136.409 67.8732 128.289 70.0377 118.95 68.5258C109.61 67.014 102.588 62.3983 103.265 58.2165C103.378 57.5172 103.673 55.6925 103.673 55.6925C103.673 55.6925 113.623 52.1229 121.401 53.382C129.582 54.7063 137.413 61.6722 137.413 61.6722C137.413 61.6722 137.17 63.1727 137.086 63.6914Z" fill="url(#paint0_linear)"/>
<path d="M137.497 61.4562C136.795 65.7936 128.644 68.0825 119.291 66.5685C109.939 65.0546 102.926 60.3111 103.628 55.9736C104.33 51.6362 112.481 49.3473 121.834 50.8613C131.186 52.3753 138.199 57.1188 137.497 61.4562Z" fill="#FCEF86"/>
<path d="M137.497 61.4562C136.795 65.7936 128.644 68.0825 119.291 66.5685C109.939 65.0546 102.926 60.3111 103.628 55.9736C104.33 51.6362 112.481 49.3473 121.834 50.8613C131.186 52.3753 138.199 57.1188 137.497 61.4562Z" fill="#ECECEC"/>
<ellipse cx="120.562" cy="58.7148" rx="12.0863" ry="5.60526" transform="rotate(9.19511 120.562 58.7148)" fill="url(#paint1_linear)"/>
<g filter="url(#filter0_d)">
<path d="M121.472 55.4659C122.889 55.6952 121.952 56.3578 122.149 56.402C122.756 56.5379 123.213 56.7076 123.521 56.9109C123.929 57.1745 124.108 57.458 124.059 57.7613C124.018 58.0179 123.832 58.1885 123.503 58.2729C123.185 58.359 122.74 58.3559 122.169 58.2634C122.015 58.2385 121.912 58.2129 121.86 58.1865C121.808 58.1601 121.786 58.1236 121.793 58.0769C121.802 58.0244 121.8 57.9643 121.789 57.8966C121.789 57.8248 121.761 57.7544 121.705 57.6854C121.66 57.6124 121.575 57.5448 121.45 57.4826C121.336 57.4222 121.164 57.3734 120.933 57.336C120.625 57.2863 120.372 57.2871 120.172 57.3385C119.973 57.3841 119.864 57.4653 119.845 57.5819C119.825 57.7044 119.902 57.8187 120.077 57.9248C120.263 58.0268 120.494 58.133 120.769 58.2433C121.055 58.3555 121.363 58.4741 121.692 58.5993C122.022 58.7185 122.321 58.8567 122.589 59.0138C122.867 59.1726 123.086 59.3517 123.245 59.5511C123.417 59.7464 123.481 59.9753 123.439 60.2378C123.371 60.6578 123.035 60.9566 122.431 61.1343C122.021 61.2552 121.49 61.2929 120.841 61.2476C120.535 61.2264 121.085 62.1376 119.685 61.9109C118.285 61.6843 119.184 61.0066 118.782 60.9117C118.39 60.8244 118.018 60.7251 117.664 60.6139C117.311 60.4969 117.015 60.3713 116.778 60.2371C116.551 60.1047 116.45 59.9685 116.472 59.8285C116.481 59.776 116.508 59.7145 116.553 59.644C116.609 59.5752 116.681 59.5121 116.769 59.4545C116.869 59.3988 116.977 59.3564 117.094 59.3276C117.224 59.2946 117.371 59.2915 117.535 59.3181C117.667 59.3395 117.785 59.3765 117.889 59.4293C117.993 59.4821 118.114 59.5404 118.25 59.6044C118.398 59.6643 118.579 59.7295 118.793 59.8C119.007 59.8706 119.295 59.9352 119.657 59.9939C119.932 60.0383 120.176 60.0599 120.391 60.0587C120.616 60.0593 120.739 59.9983 120.758 59.8758C120.776 59.765 120.703 59.6633 120.537 59.5706C120.373 59.4722 120.158 59.3716 119.893 59.2688C119.639 59.1678 119.358 59.0595 119.05 58.9437C118.754 58.824 118.477 58.6864 118.221 58.5312C117.975 58.3777 117.778 58.2021 117.63 58.0045C117.482 57.8011 117.431 57.5623 117.475 57.2881C117.523 56.9906 117.674 56.7576 117.926 56.589C118.191 56.4163 118.509 56.2942 118.882 56.2228C119.265 56.1531 119.686 56.1285 120.145 56.1489C120.604 56.1634 120.286 55.2739 121.472 55.4659Z" fill="url(#paint2_linear)"/>
</g>
<path d="M135.743 51.1957C138.234 51.599 140.58 49.9064 140.984 47.4152C141.387 44.924 139.694 42.5777 137.203 42.1744C134.712 41.7711 132.366 43.4637 131.962 45.9549C131.559 48.446 133.252 50.7924 135.743 51.1957Z" fill="#797677"/>
<path d="M135.232 46.9802C136.116 47.1233 136.948 46.5227 137.091 45.6388C137.235 44.7548 136.634 43.9222 135.75 43.7791C134.866 43.636 134.033 44.2366 133.89 45.1206C133.747 46.0045 134.348 46.8371 135.232 46.9802Z" fill="white"/>
<path d="M104.873 42.9625C104.873 42.9625 106.703 40.5711 109.08 40.9558C111.456 41.3405 113.612 44.6261 113.83 46.3536C113.83 46.3536 110.781 40.2855 104.873 42.9625Z" fill="#797677"/>
<path d="M119.368 49.0425L121.343 53.4436L124.266 49.8355C124.218 49.8276 122.03 48.2789 119.368 49.0425Z" fill="#F1B578"/>
<path d="M126.636 22.8939C110.194 20.2323 94.777 31.225 92.1625 47.3761C89.4145 64.3517 94.9381 77.8881 104.833 84.7159C106.939 86.152 109.59 86.382 111.961 85.5712C113.388 85.0557 114.955 84.911 116.555 85.1701C118.156 85.4292 119.596 86.0607 120.788 87.0002C122.775 88.566 125.419 89.1433 127.822 88.4375C139.366 85.0799 148.878 73.9774 151.626 57.0018C154.248 40.8022 143.03 25.5477 126.636 22.8939Z" fill="url(#paint3_linear)"/>
<rect x="26" y="4.06738" width="74.427" height="89.9326" rx="3" fill="url(#paint4_linear)"/>
<rect x="31.1685" y="6.13489" width="64.0899" height="83.7303" rx="2" fill="#BFBFBF"/>
<path d="M31.2351 8.19937C31.1987 7.07012 32.1043 6.13489 33.2341 6.13489H93.3219C94.4014 6.13489 95.2861 6.9915 95.3209 8.07041L97.8094 85.215C97.8276 85.7796 97.3748 86.2472 96.8099 86.2472H34.7211C34.1813 86.2472 33.739 85.8189 33.7216 85.2795L31.2351 8.19937Z" fill="#E1E1E1"/>
<path d="M32.2771 8.16491C32.2332 7.03507 33.1393 6.13489 34.27 6.13489H94.3512C95.4325 6.13489 96.3182 6.96599 96.3585 8.04646C96.7078 17.422 98.5398 58.9737 104.226 80.8599C104.392 81.4995 103.919 82.1124 103.258 82.1124C94.8085 82.1124 65.3702 82.1124 41.1185 82.1124C40.7233 82.1124 40.378 81.9076 40.2308 81.5409C34.8739 68.1868 32.6907 18.8079 32.2771 8.16491Z" fill="white"/>
<path d="M50.809 4.03369C50.809 3.48141 51.2567 3.03369 51.809 3.03369H74.618C75.1703 3.03369 75.618 3.48141 75.618 4.03369V8.23594C75.618 8.78822 75.1703 9.23594 74.618 9.23594H51.809C51.2567 9.23594 50.809 8.78822 50.809 8.23594V4.03369Z" fill="#B2B2B2"/>
<path d="M55.9776 3C55.9776 2.44771 56.4253 2 56.9776 2H69.4495C70.0018 2 70.4495 2.44772 70.4495 3V4.06742H55.9776V3Z" fill="#B2B2B2"/>
<circle cx="56.4944" cy="6.13477" r="0.516854" fill="white"/>
<circle cx="69.9326" cy="6.13477" r="0.516854" fill="white"/>
<path d="M42.8412 16.4719C42.5435 16.7944 42.1713 17.0797 41.7248 17.3526C41.2782 17.6007 40.8689 17.7744 40.4719 17.8736V19.2133C41.2906 18.9776 41.9729 18.6055 42.5063 18.0969V25.3287H43.8584V16.4719H42.8412Z" fill="#E1E1E1"/>
<path d="M44.4528 33.876C43.5134 33.9546 42.7728 34.3278 42.258 35.0181C41.7514 35.658 41.5333 36.473 41.6037 37.4629L42.9511 37.3501C42.9158 36.6311 43.0197 36.0872 43.2853 35.6915C43.5375 35.2845 43.9423 35.0639 44.4986 35.0174C45.0177 34.9739 45.436 35.0634 45.7286 35.2878C46.0213 35.5123 46.1883 35.8718 46.2297 36.3662C46.2731 36.8854 46.1033 37.3851 45.745 37.8632C45.5195 38.1435 45.1271 38.5124 44.569 38.9823C43.6256 39.7584 43.0026 40.3458 42.7133 40.7558C42.1758 41.473 41.9556 42.2632 42.0291 43.1409L48.1109 42.6319L48.0115 41.4452L43.5986 41.8145C43.7436 41.3169 44.2657 40.7131 45.1648 40.003C45.9928 39.3362 46.5591 38.8158 46.8753 38.4283C47.3911 37.7503 47.6299 37.0332 47.5657 36.2668C47.5005 35.4881 47.1758 34.8804 46.6029 34.4305C46.0176 33.9815 45.2934 33.8056 44.4528 33.876Z" fill="#E1E1E1"/>
<path d="M46.2219 51.4758C45.3616 51.5938 44.6931 51.9234 44.2198 52.4891C43.7096 53.0599 43.4828 53.7796 43.5287 54.6623L44.8437 54.482C44.8187 53.9345 44.9474 53.5037 45.2053 53.1929C45.4631 52.882 45.8624 52.6895 46.3909 52.6171C46.9071 52.5463 47.3278 52.6013 47.6318 52.81C47.9097 53.0098 48.0903 53.3231 48.151 53.7655C48.2117 54.2079 48.1114 54.5722 47.8731 54.8428C47.6347 55.1134 47.246 55.2919 46.7053 55.3661L46.0785 55.452L46.2167 56.4597L46.8558 56.3721C47.4334 56.2929 47.8927 56.3551 48.2213 56.5605C48.5745 56.7624 48.7865 57.1215 48.8573 57.6376C48.918 58.0801 48.8071 58.4584 48.5526 58.7938C48.2523 59.1605 47.8212 59.3949 47.2559 59.4724C46.7397 59.5432 46.3017 59.453 45.9417 59.2019C45.5292 58.9329 45.2825 58.5035 45.177 57.917L43.8252 58.1024C44.0337 59.0754 44.4807 59.7779 45.1659 60.2098C45.769 60.5903 46.5261 60.7244 47.4232 60.6014C48.3572 60.4733 49.0944 60.0967 49.6135 59.4997C50.0958 58.9077 50.2874 58.2053 50.1762 57.3942C50.1054 56.878 49.8989 56.4681 49.5585 56.1768C49.2443 55.8943 48.8173 55.7024 48.2792 55.6135C49.194 55.1625 49.5963 54.4437 49.4648 53.4852C49.362 52.7355 49.0107 52.1827 48.4356 51.8233C47.8359 51.4674 47.1067 51.3545 46.2219 51.4758Z" fill="#E1E1E1"/>
<rect x="50.809" y="18.5391" width="34.1124" height="1.03371" fill="#EEEDEB"/>
<rect x="51" y="22" width="21" height="1" fill="#EEEDEB"/>
<rect x="53.1235" y="39.8535" width="26" height="1" fill="#EEEDEB"/>
<rect x="53" y="36" width="34.1124" height="1.03371" fill="#EEEDEB"/>
<rect x="54" y="53" width="34.1124" height="1.03371" fill="#EEEDEB"/>
<rect x="54" y="56" width="28" height="1" fill="#EEEDEB"/>
<defs>
<filter id="filter0_d" x="116.226" y="54.7886" width="8.12943" height="8.7063" filterUnits="userSpaceOnUse" color-interpolation-filters="sRGB">
<feFlood flood-opacity="0" result="BackgroundImageFix"/>
<feColorMatrix in="SourceAlpha" type="matrix" values="0 0 0 0 0 0 0 0 0 0 0 0 0 0 0 0 0 0 127 0" result="hardAlpha"/>
<feOffset dy="1"/>
<feComposite in2="hardAlpha" operator="out"/>
<feColorMatrix type="matrix" values="0 0 0 0 0.72549 0 0 0 0 0.72549 0 0 0 0 0.72549 0 0 0 0.5 0"/>
<feBlend mode="normal" in2="BackgroundImageFix" result="effect1_dropShadow"/>
<feBlend mode="normal" in="SourceGraphic" in2="effect1_dropShadow" result="shape"/>
</filter>
<linearGradient id="paint0_linear" x1="135.061" y1="60.3614" x2="129.184" y2="73.2082" gradientUnits="userSpaceOnUse">
<stop stop-color="#D7D7D7"/>
<stop offset="1" stop-color="#B1B1B1"/>
</linearGradient>
<linearGradient id="paint1_linear" x1="116.469" y1="53.3356" x2="120.068" y2="65.7892" gradientUnits="userSpaceOnUse">
<stop stop-color="#D1D1D1"/>
<stop offset="0.993809" stop-color="white"/>
</linearGradient>
<linearGradient id="paint2_linear" x1="119.245" y1="56.2727" x2="119.313" y2="61.4039" gradientUnits="userSpaceOnUse">
<stop stop-color="white"/>
<stop offset="0.0001" stop-color="white"/>
<stop offset="1" stop-color="#F1F1F1"/>
</linearGradient>
<linearGradient id="paint3_linear" x1="92" y1="55" x2="111.5" y2="55" gradientUnits="userSpaceOnUse">
<stop stop-opacity="0.14"/>
<stop offset="1" stop-opacity="0"/>
</linearGradient>
<linearGradient id="paint4_linear" x1="100.5" y1="47" x2="26" y2="49" gradientUnits="userSpaceOnUse">
<stop stop-color="#DEDEDE"/>
<stop offset="1" stop-color="#EEEDEB"/>
</linearGradient>
</defs>
</svg>
