<svg width="200" height="125" viewBox="0 0 200 125" fill="none" xmlns="http://www.w3.org/2000/svg">
<mask id="mask0" style="mask-type:alpha" maskUnits="userSpaceOnUse" x="0" y="0" width="200" height="125">
<path d="M0 12C0 5.37258 5.37258 0 12 0H200V125H0V12Z" fill="#F5F5F5"/>
</mask>
<g mask="url(#mask0)">
<rect width="200" height="134" fill="#F6F6F6"/>
<path d="M33.283 91.3298C33.283 91.3298 25.301 95.1568 24.6449 111.558C23.8795 129.928 40.2809 144.143 57.8851 148.954L33.283 91.3298Z" fill="#B2B2B2"/>
<path d="M167.337 91.3298C167.337 91.3298 175.319 95.1568 175.976 111.558C176.741 129.928 160.34 144.143 142.735 148.954L167.337 91.3298Z" fill="#B2B2B2"/>
<path d="M100.091 17.6328C63.0238 17.6328 33.0638 47.2647 33.0638 83.6759C33.0638 121.946 50.012 149.719 74.1768 161.2C79.3159 163.606 85.2204 163.168 90.1408 160.544C93.0931 158.904 96.4827 158.029 100.091 158.029C103.699 158.029 107.089 158.904 110.041 160.544C114.962 163.278 120.976 163.606 126.005 161.2C150.17 149.719 167.118 121.946 167.118 83.6759C167.118 47.1554 137.049 17.6328 100.091 17.6328Z" fill="#EEEDEB"/>
<path d="M129.396 33.4878C122.835 33.0504 116.493 34.4718 111.135 37.2054C104.137 40.8137 95.9367 40.8137 88.9388 37.2054C83.4716 34.4718 77.239 33.0504 70.6785 33.4878C53.4023 34.6906 39.4064 48.6865 38.2036 65.9627C36.7821 86.4098 52.9649 103.467 73.084 103.467C78.8792 103.467 84.3464 102.046 89.1575 99.5309C95.9367 96.0319 104.137 96.0319 110.917 99.5309C115.728 102.046 121.195 103.467 126.99 103.467C147.109 103.467 163.292 86.4098 161.871 65.9627C160.777 48.6865 146.672 34.6906 129.396 33.4878Z" fill="white"/>
<path fill-rule="evenodd" clip-rule="evenodd" d="M142.077 119.65C145.139 118.556 147.217 116.041 147.982 113.198C149.294 117.244 147.217 121.508 143.28 122.93C139.344 124.351 134.97 122.383 133.33 118.447C135.845 120.196 139.016 120.743 142.077 119.65ZM57.6664 119.65C54.6048 118.557 52.5273 116.042 51.7619 113.199C50.4498 117.245 52.5273 121.509 56.4636 122.93C60.4 124.352 64.7737 122.384 66.4138 118.447C63.8989 120.197 60.728 120.744 57.6664 119.65ZM74.3966 140.425C71.335 139.331 69.2574 136.816 68.492 133.973C67.1799 138.019 69.2574 142.284 73.1938 143.705C77.1301 145.127 81.5039 143.158 83.144 139.222C80.6291 140.971 77.4582 141.518 74.3966 140.425ZM95.1712 140.315C96.8114 142.83 99.6543 144.579 102.825 144.689C105.996 144.798 108.948 143.377 110.807 140.971C110.479 145.126 106.871 148.406 102.716 148.188C98.4515 147.969 95.1712 144.47 95.1712 140.315ZM128.302 139.55C131.364 138.457 133.442 135.942 134.207 133.099C135.519 137.145 133.442 141.409 129.505 142.831C125.569 144.252 121.195 142.284 119.555 138.348C122.07 140.097 125.241 140.644 128.302 139.55ZM76.583 119.649C77.7858 122.383 80.3007 124.46 83.4716 125.116C86.6426 125.663 89.8135 124.679 92.0004 122.711C90.9069 126.757 86.9706 129.381 82.8155 128.615C78.6605 127.741 75.927 123.804 76.583 119.649ZM123.163 119.649C121.96 122.383 119.445 124.46 116.274 125.116C113.103 125.663 109.932 124.679 107.745 122.711C108.839 126.757 112.775 129.381 116.93 128.615C121.085 127.741 123.819 123.804 123.163 119.649Z" fill="#D8D8D8"/>
<path d="M101.948 25.9423C101.948 25.9423 107.087 19.9284 114.413 18.0696C120.646 16.4295 118.131 12.0558 112.445 15.2267C107.743 17.8509 101.948 25.9423 101.948 25.9423Z" fill="#BFBFC0"/>
<path d="M98.1218 24.3026C98.1218 24.3026 97.0284 17.3046 92.3267 13.3683C88.937 10.5254 91.0145 7.68247 92.6547 7.57313C95.8256 7.13576 98.4499 11.8375 98.1218 24.3026Z" fill="#BFBFC0"/>
<path d="M94.9515 23.319C94.9515 23.319 85.0013 11.6192 78.7688 14.6808C74.395 16.7584 87.9536 18.8359 94.9515 23.319Z" fill="#BFBFC0"/>
<path d="M137.556 103.541C137.556 112.969 120.487 120.611 99.4322 120.611C78.3771 120.611 61.3086 112.969 61.3086 103.541C61.3086 101.965 61.3086 97.8509 61.3086 97.8509C61.3086 97.8509 81.8977 86.4708 99.4322 86.4708C117.876 86.4708 137.556 98.989 137.556 98.989C137.556 98.989 137.556 102.372 137.556 103.541Z" fill="url(#paint0_linear)"/>
<path d="M137.663 98.4866C137.663 108.265 120.571 116.192 99.486 116.192C78.4014 116.192 61.3089 108.265 61.3089 98.4866C61.3089 88.7082 78.4014 80.7812 99.486 80.7812C120.571 80.7812 137.663 88.7082 137.663 98.4866Z" fill="#FCEF86"/>
<path d="M137.663 98.4866C137.663 108.265 120.571 116.192 99.486 116.192C78.4014 116.192 61.3089 108.265 61.3089 98.4866C61.3089 88.7082 78.4014 80.7812 99.486 80.7812C120.571 80.7812 137.663 88.7082 137.663 98.4866Z" fill="#ECECEC"/>
<ellipse cx="99.4858" cy="98.4863" rx="26.8975" ry="12.4742" fill="url(#paint1_linear)"/>
<g filter="url(#filter0_d)">
<path d="M100.33 91.0232C103.524 91.0232 101.7 92.812 102.149 92.8389C103.531 92.9217 104.596 93.1318 105.343 93.4692C106.334 93.9031 106.829 94.462 106.829 95.1459C106.829 95.7245 106.482 96.165 105.789 96.4675C105.121 96.7699 104.143 96.9212 102.855 96.9212C102.508 96.9212 102.273 96.9014 102.149 96.862C102.026 96.8225 101.964 96.7502 101.964 96.645C101.964 96.5267 101.939 96.3951 101.89 96.2505C101.865 96.0927 101.778 95.948 101.63 95.8165C101.506 95.6719 101.295 95.5535 100.998 95.4615C100.726 95.3694 100.33 95.3234 99.8098 95.3234C99.1165 95.3234 98.5595 95.4154 98.1386 95.5995C97.7177 95.7705 97.5072 95.9875 97.5072 96.2505C97.5072 96.5267 97.7177 96.7502 98.1386 96.9212C98.5842 97.079 99.1289 97.2302 99.7726 97.3749C100.441 97.5195 101.159 97.6707 101.927 97.8285C102.694 97.9732 103.4 98.1705 104.044 98.4203C104.712 98.6702 105.257 98.9858 105.678 99.3671C106.123 99.7354 106.346 100.215 106.346 100.807C106.346 101.754 105.715 102.53 104.452 103.135C103.593 103.546 102.442 103.818 100.998 103.949C100.32 104.011 101.852 105.817 98.6956 105.817C95.5389 105.817 97.272 104.009 96.3559 103.943C95.4646 103.891 94.6104 103.805 93.7934 103.687C92.9764 103.556 92.2831 103.385 91.7137 103.174C91.169 102.964 90.8966 102.701 90.8966 102.385C90.8966 102.267 90.9338 102.122 91.0081 101.951C91.1071 101.78 91.2433 101.616 91.4166 101.458C91.6146 101.3 91.8375 101.169 92.0851 101.064C92.3574 100.945 92.6793 100.886 93.0506 100.886C93.3478 100.886 93.6201 100.925 93.8677 101.004C94.1153 101.083 94.4 101.169 94.7219 101.261C95.0685 101.34 95.4894 101.419 95.9846 101.498C96.4797 101.576 97.1358 101.616 97.9529 101.616C98.5718 101.616 99.1165 101.576 99.587 101.498C100.082 101.419 100.33 101.241 100.33 100.965C100.33 100.715 100.132 100.518 99.7355 100.373C99.3394 100.215 98.8318 100.071 98.2128 99.9392C97.6186 99.8077 96.9625 99.6696 96.2445 99.525C95.5513 99.3671 94.8952 99.1633 94.2762 98.9135C93.682 98.6636 93.1868 98.348 92.7907 97.9666C92.3945 97.5721 92.1965 97.0658 92.1965 96.4477C92.1965 95.7771 92.4441 95.2116 92.9392 94.7513C93.4592 94.2779 94.1153 93.8966 94.9076 93.6073C95.7246 93.3179 96.6407 93.1141 97.6558 92.9958C98.6709 92.8643 97.6558 91.0232 100.33 91.0232Z" fill="url(#paint2_linear)"/>
</g>
<path d="M130.161 76.5685C135.777 76.5685 140.33 72.0157 140.33 66.3996C140.33 60.7835 135.777 56.2307 130.161 56.2307C124.545 56.2307 119.992 60.7835 119.992 66.3996C119.992 72.0157 124.545 76.5685 130.161 76.5685Z" fill="#797677"/>
<path d="M127.539 67.4926C129.532 67.4926 131.147 65.8772 131.147 63.8843C131.147 61.8915 129.532 60.276 127.539 60.276C125.546 60.276 123.931 61.8915 123.931 63.8843C123.931 65.8772 125.546 67.4926 127.539 67.4926Z" fill="white"/>
<path d="M59.416 69.4615C59.416 69.4615 62.5869 63.557 67.9448 63.557C73.3026 63.557 79.2071 70.0083 80.3005 73.7259C80.3005 73.7259 71.4437 61.4795 59.416 69.4615Z" fill="#797677"/>
<path d="M93.4216 77.6619L99.3261 86.6281L104.465 77.6619C104.356 77.6619 98.9981 75.0377 93.4216 77.6619Z" fill="#F1B578"/>
</g>
<defs>
<filter id="filter0_d" x="90.8966" y="91.0232" width="15.9323" height="15.7942" filterUnits="userSpaceOnUse" color-interpolation-filters="sRGB">
<feFlood flood-opacity="0" result="BackgroundImageFix"/>
<feColorMatrix in="SourceAlpha" type="matrix" values="0 0 0 0 0 0 0 0 0 0 0 0 0 0 0 0 0 0 127 0" result="hardAlpha"/>
<feOffset dy="1"/>
<feComposite in2="hardAlpha" operator="out"/>
<feColorMatrix type="matrix" values="0 0 0 0 0.72549 0 0 0 0 0.72549 0 0 0 0 0.72549 0 0 0 0.5 0"/>
<feBlend mode="normal" in2="BackgroundImageFix" result="effect1_dropShadow"/>
<feBlend mode="normal" in="SourceGraphic" in2="effect1_dropShadow" result="shape"/>
</filter>
<linearGradient id="paint0_linear" x1="131.924" y1="96.9457" x2="123.58" y2="127.258" gradientUnits="userSpaceOnUse">
<stop stop-color="#D7D7D7"/>
<stop offset="1" stop-color="#B1B1B1"/>
</linearGradient>
<linearGradient id="paint1_linear" x1="90.3754" y1="86.5151" x2="98.3862" y2="114.23" gradientUnits="userSpaceOnUse">
<stop stop-color="#D1D1D1"/>
<stop offset="0.993809" stop-color="white"/>
</linearGradient>
<linearGradient id="paint2_linear" x1="95.7246" y1="93.5875" x2="97.6973" y2="104.836" gradientUnits="userSpaceOnUse">
<stop stop-color="white"/>
<stop offset="0.0001" stop-color="white"/>
<stop offset="1" stop-color="#F1F1F1"/>
</linearGradient>
</defs>
</svg>
