<svg width="139" height="84" viewBox="0 0 139 84" fill="none" xmlns="http://www.w3.org/2000/svg">
<g filter="url(#filter0_d_297_31231)">
<rect x="1" width="135" height="80" rx="6" fill="url(#paint0_linear_297_31231)"/>
</g>
<path d="M34.101 18.6922V16.7024H36.0688V18.6922H34.101ZM31.0448 18.6922V16.7024H33.0039V18.6922H31.0448ZM34.101 15.6196V14.0185H33.0039V15.6196H30V20.284H31.0448V19.775H33.0039V22.6625H34.101V19.775H36.0688V20.2377H37.1572V15.6196H34.101Z" fill="#535353"/>
<path d="M40.2394 16.0268H41.2495V15.5085H43.2521V16.0268H44.2621V15.5085H46.1341V14.5368H44.2621V14.0278H43.2521V14.5368H41.2495V14.0278H40.2394V14.5368H38.4197V15.5085H40.2394V16.0268ZM43.7135 19.1919H42.7558V18.6089H43.7135V19.1919ZM40.8402 19.1919V18.6089H41.737V19.1919H40.8402ZM40.8402 17.1374H41.737V17.6927H40.8402V17.1374ZM43.7135 17.6927H42.7558V17.1374H43.7135V17.6927ZM46.2125 18.6089V17.6927H44.6713V17.1374H45.6117V16.2397H38.9943V17.1374H39.8737V17.6927H38.3326V18.6089H39.8737V19.1919H38.9073V20.0897H41.737V20.6264H38.4545V21.5704H41.737V22.6625H42.7558V21.5704H46.1341V20.6264H42.7558V20.0897H45.7249V19.1919H44.6713V18.6089H46.2125Z" fill="#535353"/>
<path d="M49.0248 18.396V17.4798H50.9229C50.9491 17.7945 50.9839 18.0999 51.0274 18.396H49.0248ZM53.2042 15.4623V16.4618H49.0248V15.4623H53.2042ZM54.8759 19.4233V18.396H52.1071C52.0549 18.0999 52.02 17.7945 51.9939 17.4798H54.2577V14.435H47.9626V21.2558C47.6317 21.302 47.3182 21.3298 47.0483 21.3576L47.2573 22.5052C48.3892 22.3478 49.9303 22.135 51.367 21.9221L51.3322 20.83C50.566 20.9318 49.7649 21.0336 49.0248 21.1354V19.4233H51.2364C51.7153 21.2928 52.6382 22.6625 53.7701 22.6717C54.5538 22.6717 54.9195 22.3293 55.0675 20.7745C54.7976 20.6912 54.4058 20.4691 54.1707 20.247C54.1271 21.1817 54.0313 21.5704 53.8311 21.5704C53.3261 21.5797 52.7253 20.682 52.3509 19.4233H54.8759Z" fill="#535353"/>
<path d="M58.7418 18.6737H58.1585V18.0814H58.7418V18.6737ZM59.4384 17.4983H57.4967V19.2567H59.4384V17.4983ZM56.9569 21.3205V15.4067H61.1537L60.7532 15.8324C60.9795 15.962 61.2408 16.1564 61.4236 16.323H60.4832C60.4658 16.0638 60.4571 15.8047 60.4484 15.5363H59.5951C59.6125 15.8047 59.6212 16.0638 59.6387 16.323H57.2791V17.1004H59.6996C59.778 18.0166 59.8912 18.8588 60.074 19.5251C59.9347 19.6917 59.7954 19.849 59.6387 19.9971L59.6212 19.5251C58.7157 19.6547 57.8102 19.775 57.1746 19.8398L57.2704 20.6449C57.845 20.5431 58.5329 20.4413 59.2294 20.3303C59.1337 20.3951 59.0379 20.4598 58.9421 20.5154C59.1162 20.6635 59.3949 21.0151 59.5081 21.1817C59.8389 20.9596 60.135 20.6912 60.4136 20.3951C60.5877 20.7005 60.8054 20.9133 61.0666 21.0059C61.6413 21.2835 62.094 20.9318 62.2333 19.7935C62.0592 19.6917 61.7458 19.4418 61.589 19.2752C61.5542 19.812 61.4845 20.1729 61.3801 20.1452C61.232 20.1082 61.1014 19.9323 60.9882 19.6454C61.3801 19.0439 61.6935 18.3312 61.9025 17.5261L61.1101 17.3595C61.0057 17.776 60.8751 18.1647 60.7009 18.5163C60.6313 18.0999 60.579 17.6186 60.5355 17.1004H62.094V16.323H61.6761L62.0244 15.9343C61.8677 15.7584 61.5803 15.5548 61.3104 15.4067H62.3727V21.3205H56.9569ZM55.973 14.4165V22.6903H56.9569V22.3016H62.3727V22.6903H63.4001V14.4165H55.973Z" fill="#535353"/>
<path d="M66.8219 18.5256H69.8433V18.6922C69.7388 18.7847 69.6343 18.8865 69.5211 18.9791C68.5982 19.0346 67.6752 19.0901 66.8219 19.1364V18.5256ZM69.8433 15.8417V16.3785H66.8219V15.8417H69.8433ZM69.8433 17.7204H66.8219V17.1651H69.8433V17.7204ZM71.3583 16.7857C71.219 17.0171 71.071 17.2484 70.9142 17.4613V14.8977H68.7462C68.8768 14.6571 69.0161 14.398 69.138 14.1296L67.8668 14C67.8058 14.2591 67.7014 14.5831 67.5882 14.8977H65.7858V19.1919C65.3069 19.2105 64.8803 19.229 64.5059 19.2475L64.6452 20.3395C65.5855 20.2748 66.7784 20.1729 68.0322 20.0619C66.9438 20.719 65.7074 21.228 64.384 21.5797C64.5842 21.8296 64.9325 22.3201 65.0805 22.5885C66.8306 22.0332 68.4589 21.228 69.8433 20.1267V21.3113C69.8433 21.4686 69.7823 21.5241 69.6082 21.5241C69.434 21.5334 68.8158 21.5427 68.276 21.5056C68.424 21.8203 68.5982 22.3386 68.6417 22.6625C69.4776 22.6717 70.0348 22.644 70.4179 22.4589C70.801 22.283 70.9142 21.9499 70.9142 21.3205V19.1642C71.4541 18.5996 71.9417 17.9888 72.3596 17.304L71.3583 16.7857Z" fill="#535353"/>
<path d="M77.7144 14.5553C78.1933 15.527 78.8463 16.5451 79.5342 17.3965H74.8324C75.5202 16.5636 76.1297 15.5456 76.5564 14.4812L75.4419 14.1388C74.9195 15.5456 73.9617 16.8227 72.8733 17.6001C73.1258 17.7945 73.5699 18.2387 73.7614 18.4886C73.9965 18.2942 74.2316 18.0721 74.458 17.8222V18.4701H75.9295C75.7553 19.8213 75.3026 21.0336 73.3348 21.7092C73.5873 21.9591 73.892 22.4126 74.0226 22.7273C76.2778 21.8296 76.8437 20.247 77.0614 18.4701H78.7767C78.6983 20.4043 78.6025 21.228 78.4284 21.4223C78.3326 21.5334 78.2368 21.5519 78.0801 21.5519C77.8624 21.5519 77.4097 21.5427 76.9308 21.5056C77.1136 21.8203 77.2529 22.283 77.2704 22.6162C77.7841 22.6347 78.2891 22.6347 78.5851 22.5885C78.9247 22.5422 79.1598 22.4496 79.3774 22.1535C79.6822 21.7648 79.7867 20.6727 79.8825 17.8778V17.813C80.074 18.0258 80.2569 18.2294 80.4397 18.4053C80.64 18.0906 81.0405 17.6464 81.3191 17.415C80.37 16.6376 79.2817 15.2957 78.7331 14.1203L77.7144 14.5553Z" fill="#535353"/>
<path d="M84.5233 14.3054H82.1811V15.1383H84.5233V14.3054ZM84.828 15.5456H81.7458V16.4155H84.828V15.5456ZM84.5407 18.0999H82.1289V18.9236H84.5407V18.0999ZM83.7048 20.2377V21.302H82.9473V20.2377H83.7048ZM84.5581 19.377H82.1027V22.5329H82.9473V22.1627H84.5581V19.377ZM88.0409 21.4131H86.4998L86.9874 21.265C86.9264 20.9226 86.7697 20.4321 86.5869 20.0434H87.919C87.832 20.4228 87.6578 20.9318 87.5272 21.2835L88.0409 21.4131ZM86.2908 18.5996H88.1802V19.2104H86.2908V18.5996ZM86.1515 17.3595H88.2934V16.8875C88.5285 17.2299 88.8071 17.5168 89.1206 17.7574H85.4549C85.7074 17.5446 85.9425 17.2947 86.1515 17.0171V17.3595ZM89.1815 17.8037C89.2338 17.8407 89.2947 17.8778 89.347 17.9148C89.4863 17.6556 89.7736 17.2669 90 17.0726C89.6604 16.8875 89.3731 16.6284 89.1206 16.323C89.3557 16.1749 89.6169 16.0083 89.8868 15.8417L89.3296 15.2031C89.1815 15.3605 88.9552 15.5733 88.7462 15.7584C88.6591 15.6196 88.5895 15.4715 88.5198 15.3142C88.7723 15.1661 89.0509 14.981 89.347 14.7959L88.8246 14.2036C88.694 14.3424 88.485 14.5368 88.2847 14.7034C88.2151 14.4812 88.1541 14.2591 88.1019 14.0278L87.2225 14.2036C87.414 15.0736 87.6839 15.8602 88.0496 16.508H86.4911C86.8219 15.9343 87.0744 15.2587 87.2312 14.4998L86.7349 14.3147V14.3054H86.7175L86.6478 14.2776L86.4998 14.3054H85.0022V15.1476H86.1341C86.0644 15.3327 85.9861 15.5085 85.899 15.6844C85.7336 15.5456 85.5507 15.4067 85.3853 15.3049L84.8367 15.9343C85.0283 16.0731 85.2373 16.2489 85.4114 16.434C85.1589 16.7487 84.8629 17.0171 84.5407 17.2114V16.832H82.1289V17.6742H84.5407V17.3873C84.7061 17.5909 84.9064 17.887 85.0022 18.0906C85.1241 18.0166 85.246 17.9333 85.3592 17.8407V20.0434H86.3256L85.6813 20.2285C85.8468 20.5894 85.9948 21.0614 86.0557 21.4131H84.8542V22.3571H89.7301V21.4131H88.4153C88.5633 21.0892 88.7375 20.6542 88.9029 20.21L88.2064 20.0434H89.1815V17.8037Z" fill="#535353"/>
<path d="M23.8384 10H14.703C12.741 10 11.1504 11.6072 11.1504 13.5897V22.8205C11.1504 24.8031 12.741 26.4103 14.703 26.4103H23.8384C25.8004 26.4103 27.391 24.8031 27.391 22.8205V13.5897C27.391 11.6072 25.8004 10 23.8384 10Z" fill="#FF4B55"/>
<path d="M23.8384 10H14.703C12.741 10 11.1504 11.6072 11.1504 13.5897V22.8205C11.1504 24.8031 12.741 26.4103 14.703 26.4103H23.8384C25.8004 26.4103 27.391 24.8031 27.391 22.8205V13.5897C27.391 11.6072 25.8004 10 23.8384 10Z" fill="#DE2910"/>
<path d="M11.2743 18.547H19.3075C19.4741 18.547 19.609 18.4106 19.609 18.2424V10.1252C19.609 10.0561 19.5536 10 19.4851 10H14.5338C12.49 10 11.1504 11.6741 11.1504 13.7393V18.4218C11.1504 18.491 11.2059 18.547 11.2743 18.547Z" fill="#00008B"/>
<path d="M14.0672 14.2735C14.0672 13.9075 14.2139 13.5762 14.4512 13.3363L13.3518 13.0185C13.2879 13 13.2422 13.0801 13.2899 13.1267L14.1126 13.9305L13.0024 14.211C12.938 14.2272 12.938 14.3197 13.0024 14.336L14.1126 14.6164L13.2899 15.4202C13.2422 15.4668 13.288 15.5469 13.3518 15.5284L14.4512 15.2107C14.2139 14.9708 14.0672 14.6395 14.0672 14.2735Z" fill="#F5F5F5"/>
<path d="M14.452 13.3357C14.6894 13.096 15.0173 12.9477 15.3795 12.9477C15.7417 12.9477 16.0696 13.096 16.3071 13.3357L16.6215 12.2248C16.6398 12.1603 16.5605 12.1141 16.5144 12.1623L15.7189 12.9936L15.4414 11.8718C15.4253 11.8067 15.3337 11.8067 15.3177 11.8718L15.0401 12.9936L14.2446 12.1623C14.1985 12.1141 14.1192 12.1603 14.1374 12.2248L14.452 13.3357Z" fill="#F5F5F5"/>
<path d="M16.307 15.2113C16.0696 15.4511 15.7417 15.5994 15.3795 15.5994C15.0173 15.5994 14.6894 15.4511 14.4519 15.2113L14.1375 16.3222C14.1192 16.3867 14.1984 16.433 14.2446 16.3847L15.0401 15.5534L15.3176 16.6753C15.3337 16.7404 15.4252 16.7404 15.4413 16.6753L15.7189 15.5534L16.5144 16.3847C16.5605 16.433 16.6398 16.3867 16.6215 16.3222L16.307 15.2113Z" fill="#F5F5F5"/>
<path d="M17.7564 14.211L16.6462 13.9305L17.4689 13.1268C17.5166 13.0802 17.4708 13.0001 17.407 13.0185L16.3076 13.3363C16.5449 13.5762 16.6917 13.9075 16.6917 14.2735C16.6917 14.6395 16.5449 14.9708 16.3076 15.2108L17.407 15.5285C17.4709 15.547 17.5166 15.4669 17.4689 15.4203L16.6462 14.6165L17.7564 14.3361C17.8208 14.3197 17.8208 14.2273 17.7564 14.211Z" fill="#F5F5F5"/>
<path d="M15.3788 15.3292C15.9558 15.3292 16.4236 14.8566 16.4236 14.2735C16.4236 13.6904 15.9558 13.2178 15.3788 13.2178C14.8018 13.2178 14.334 13.6904 14.334 14.2735C14.334 14.8566 14.8018 15.3292 15.3788 15.3292Z" fill="#F5F5F5"/>
<rect x="93.8672" y="10.7564" width="37.5714" height="41.0513" rx="1.5" fill="white" stroke="#F9F9F9"/>
<mask id="mask0_297_31231" style="mask-type:alpha" maskUnits="userSpaceOnUse" x="93" y="10" width="39" height="43">
<rect x="93.8672" y="10.7564" width="37.5714" height="41.0513" rx="1.5" fill="white" stroke="#ECECEC"/>
</mask>
<g mask="url(#mask0_297_31231)">
<path d="M95.7376 40C95.7376 40 93.5163 41.4783 93.3762 45.0926C93.1895 49.1407 96.7152 52.2731 100.474 53.3333L95.7376 40Z" fill="#989899"/>
<path d="M129.563 40C129.563 40 131.755 41.0217 131.935 45.4007C132.145 50.3051 127.641 54.1001 122.807 55.3846L129.563 40Z" fill="#989899"/>
<path d="M112.148 20.5128C102.325 20.5128 94.3848 28.4381 94.3848 38.242C94.3848 48.5155 98.8763 55.9711 105.28 59.0532C106.642 59.6989 108.207 59.5815 109.511 58.877C110.293 58.4367 111.192 58.2019 112.148 58.2019C113.104 58.2019 114.002 58.4367 114.785 58.877C116.089 59.6109 117.683 59.6989 119.016 59.0532C125.42 55.9711 129.911 48.5155 129.911 38.242C129.911 28.4381 121.971 20.5128 112.148 20.5128Z" fill="#E7E4E2"/>
<path d="M119.146 24.636C117.585 24.5206 116.077 24.8957 114.802 25.6172C113.138 26.5696 111.187 26.5696 109.522 25.6172C108.222 24.8957 106.739 24.5206 105.179 24.636C101.069 24.9534 97.7397 28.6474 97.4536 33.2071C97.0894 38.6038 100.939 43.0769 105.725 43.0769C107.103 43.0769 108.404 42.7018 109.548 42.038C111.161 41.1145 113.112 41.1145 114.724 42.038C115.869 42.7018 117.169 43.0769 118.548 43.0769C123.334 43.0769 127.183 38.5749 126.845 33.1783C126.585 28.6474 123.256 24.9534 119.146 24.636Z" fill="white"/>
<path d="M105.549 35.8974C107.231 35.8974 108.594 34.5199 108.594 32.8205C108.594 31.1212 107.231 29.7436 105.549 29.7436C103.867 29.7436 102.504 31.1212 102.504 32.8205C102.504 34.5199 103.867 35.8974 105.549 35.8974Z" fill="#231F20"/>
<path d="M104.55 32.8461C105.111 32.8461 105.565 32.3869 105.565 31.8205C105.565 31.2541 105.111 30.7949 104.55 30.7949C103.99 30.7949 103.535 31.2541 103.535 31.8205C103.535 32.3869 103.99 32.8461 104.55 32.8461Z" fill="white"/>
<path d="M119.759 35.8974C121.441 35.8974 122.804 34.5199 122.804 32.8205C122.804 31.1212 121.441 29.7436 119.759 29.7436C118.077 29.7436 116.714 31.1212 116.714 32.8205C116.714 34.5199 118.077 35.8974 119.759 35.8974Z" fill="#231F20"/>
<path d="M118.745 32.8461C119.305 32.8461 119.76 32.3869 119.76 31.8205C119.76 31.2541 119.305 30.7949 118.745 30.7949C118.184 30.7949 117.729 31.2541 117.729 31.8205C117.729 32.3869 118.184 32.8461 118.745 32.8461Z" fill="white"/>
<path d="M111.639 34.2137L113.267 36.9231L114.684 34.2137C114.654 34.2137 113.176 33.3867 111.639 34.2137Z" fill="#EC8822"/>
<path d="M101.158 48.1013C100.332 47.7713 99.7716 47.0121 99.565 46.1539C99.2109 47.3752 99.7716 48.6625 100.834 49.0916C101.896 49.5207 103.077 48.9266 103.519 47.7383C102.84 48.2994 101.985 48.4314 101.158 48.1013Z" fill="#989899"/>
<path d="M120.089 53.2295C120.915 52.8994 121.476 52.1403 121.683 51.282C122.037 52.5033 121.476 53.7907 120.414 54.2198C119.351 54.6489 118.171 54.0547 117.729 52.8664C118.407 53.3946 119.263 53.5596 120.089 53.2295Z" fill="#989899"/>
<path d="M107.377 50.0539C106.547 49.8321 105.889 49.1295 105.574 48.2051C105.403 49.6102 106.118 50.9414 107.205 51.2372C108.293 51.496 109.323 50.6086 109.609 49.2405C109.008 49.906 108.207 50.2388 107.377 50.0539Z" fill="#989899"/>
<path d="M123.133 48.1013C123.959 47.7712 124.52 47.012 124.727 46.1538C125.081 47.3751 124.52 48.6625 123.458 49.0916C122.395 49.5207 121.215 48.9265 120.772 47.7382C121.451 48.2994 122.336 48.4314 123.133 48.1013Z" fill="#989899"/>
<path d="M116.916 50.0539C117.745 49.8321 118.404 49.1295 118.718 48.2051C118.89 49.6102 118.175 50.9414 117.087 51.2372C116 51.496 114.97 50.6086 114.684 49.2405C115.285 49.906 116.086 50.2388 116.916 50.0539Z" fill="#989899"/>
<path d="M112.654 21.5385C112.654 21.5385 113.95 19.9757 115.797 19.4926C117.368 19.0664 116.734 17.9297 115.301 18.7538C114.115 19.4358 112.654 21.5385 112.654 21.5385Z" fill="#989899"/>
<path d="M110.62 21.5385C110.62 21.5385 110.475 19.8252 109.852 18.8615C109.403 18.1655 109.678 17.4695 109.895 17.4427C110.33 17.3356 110.678 18.4867 110.62 21.5385Z" fill="#989899"/>
<path d="M110 21C110 21 107.663 19.7212 106.2 20.0558C105.173 20.2829 108.357 20.51 110 21Z" fill="#989899"/>
</g>
<ellipse cx="14.703" cy="42.5641" rx="3.55263" ry="3.58974" fill="#EBDCD6"/>
<ellipse cx="30.9442" cy="42.5641" rx="3.55263" ry="3.58974" fill="#EBDCD6"/>
<ellipse cx="47.1835" cy="42.5641" rx="3.55263" ry="3.58974" fill="#EBDCD6"/>
<rect x="11.1504" y="55.3846" width="53.797" height="4.10256" rx="2" fill="#EBDCD6"/>
<rect x="11.1504" y="64.6154" width="68.0075" height="4.10256" rx="2" fill="#EBDCD6"/>
<rect x="91.3389" y="64.6154" width="38.5714" height="4.10256" rx="2" fill="#EBDCD6"/>
<defs>
<filter id="filter0_d_297_31231" x="0" y="0" width="139" height="84" filterUnits="userSpaceOnUse" color-interpolation-filters="sRGB">
<feFlood flood-opacity="0" result="BackgroundImageFix"/>
<feColorMatrix in="SourceAlpha" type="matrix" values="0 0 0 0 0 0 0 0 0 0 0 0 0 0 0 0 0 0 127 0" result="hardAlpha"/>
<feOffset dx="1" dy="2"/>
<feGaussianBlur stdDeviation="1"/>
<feComposite in2="hardAlpha" operator="out"/>
<feColorMatrix type="matrix" values="0 0 0 0 0.716667 0 0 0 0 0.716667 0 0 0 0 0.716667 0 0 0 0.24 0"/>
<feBlend mode="normal" in2="BackgroundImageFix" result="effect1_dropShadow_297_31231"/>
<feBlend mode="normal" in="SourceGraphic" in2="effect1_dropShadow_297_31231" result="shape"/>
</filter>
<linearGradient id="paint0_linear_297_31231" x1="1" y1="39.2453" x2="135.999" y2="39.5733" gradientUnits="userSpaceOnUse">
<stop stop-color="#FFE7E7"/>
<stop offset="0.489583" stop-color="#FFFDEC"/>
<stop offset="1" stop-color="#FFE7E7"/>
</linearGradient>
</defs>
</svg>
