<svg width="140" height="84" viewBox="0 0 140 84" fill="none" xmlns="http://www.w3.org/2000/svg">
<g filter="url(#filter0_d_297_31199)">
<rect width="135" height="80" rx="6" transform="matrix(1 0 0.00161481 0.999999 1 0)" fill="url(#paint0_linear_297_31199)"/>
</g>
<rect width="19.2858" height="4.10249" rx="2" transform="matrix(1 0 0.00161481 0.999999 12.8379 9.45364)" fill="#ECD7D5"/>
<rect width="49.7371" height="4.10249" rx="2" transform="matrix(1 0 0.00161481 0.999999 43.7109 9.48279)" fill="#ECD7D5"/>
<rect width="19.2857" height="4.10256" rx="2" transform="matrix(1 0 0.00161481 0.999999 13.4912 25.9785)" fill="#ECD7D5"/>
<rect width="49.7368" height="4.10256" rx="2" transform="matrix(1 0 0.00161481 0.999999 44.3623 26.0076)" fill="#ECD7D5"/>
<rect width="19.2856" height="4.1025" rx="2" transform="matrix(1 0 0.00161481 0.999999 13.1416 42.6709)" fill="#ECD7D5"/>
<rect width="49.7366" height="4.1025" rx="2" transform="matrix(1 0 0.00161481 0.999999 44.0146 42.7001)" fill="#ECD7D5"/>
<line y1="-0.5" x2="11.2819" y2="-0.5" transform="matrix(0.00161477 0.999999 -1 -4.41021e-08 14.293 62.1982)" stroke="black"/>
<line y1="-0.25" x2="11.2819" y2="-0.25" transform="matrix(0.00161477 0.999999 -1 -4.44371e-08 17.2979 62.1982)" stroke="black" stroke-width="0.5"/>
<line y1="-0.25" x2="11.2819" y2="-0.25" transform="matrix(0.00161477 0.999999 -1 -4.44371e-08 19.4668 62.1982)" stroke="black" stroke-width="0.5"/>
<line y1="-0.5" x2="11.2819" y2="-0.5" transform="matrix(0.00161477 0.999999 -1 -4.44371e-08 20.4678 62.1982)" stroke="black"/>
<line y1="-0.5" x2="11.2819" y2="-0.5" transform="matrix(0.00161477 0.999999 -1 -4.44371e-08 23.4707 62.1982)" stroke="black"/>
<line y1="-0.25" x2="11.2819" y2="-0.25" transform="matrix(0.00161477 0.999999 -1 -4.44371e-08 26.6416 62.1982)" stroke="black" stroke-width="0.5"/>
<line y1="-0.25" x2="11.2819" y2="-0.25" transform="matrix(0.00161477 0.999999 -1 -4.44371e-08 28.6445 62.1982)" stroke="black" stroke-width="0.5"/>
<line y1="-0.25" x2="11.2819" y2="-0.25" transform="matrix(0.00161477 0.999999 -1 -4.44371e-08 25.6396 62.1982)" stroke="black" stroke-width="0.5"/>
<line y1="-0.5" x2="11.2819" y2="-0.5" transform="matrix(0.00161477 0.999999 -1 -4.44371e-08 29.6455 62.1982)" stroke="black"/>
<line y1="-0.5" x2="11.2819" y2="-0.5" transform="matrix(0.00161477 0.999999 -1 -4.44371e-08 32.8154 62.1982)" stroke="black"/>
<line y1="-0.25" x2="11.2819" y2="-0.25" transform="matrix(0.00161477 0.999999 -1 -4.44371e-08 35.8203 62.1982)" stroke="black" stroke-width="0.5"/>
<line y1="-0.5" x2="11.2819" y2="-0.5" transform="matrix(0.00161477 0.999999 -1 -4.44371e-08 38.9902 62.1982)" stroke="black"/>
<line y1="-0.25" x2="11.2819" y2="-0.25" transform="matrix(0.00161477 0.999999 -1 -4.44371e-08 41.9941 62.1982)" stroke="black" stroke-width="0.5"/>
<line y1="-0.25" x2="11.2819" y2="-0.25" transform="matrix(0.00161477 0.999999 -1 -4.44371e-08 44.1631 62.1982)" stroke="black" stroke-width="0.5"/>
<line y1="-0.5" x2="11.2819" y2="-0.5" transform="matrix(0.00161477 0.999999 -1 -4.44371e-08 45.1641 62.1982)" stroke="black"/>
<path d="M94.7169 65.6782C94.1754 65.6782 93.7568 65.9201 93.461 66.4108C93.191 66.86 93.0566 67.4682 93.0579 68.2423C93.0591 69.0094 93.1954 69.6176 93.4669 70.0738C93.7642 70.5576 94.1837 70.8064 94.7252 70.8064C95.2667 70.8064 95.6853 70.5576 95.981 70.0738C96.251 69.6176 96.3854 69.0025 96.3842 68.2423C96.383 67.4751 96.2466 66.8669 95.9751 66.4108C95.6778 65.9201 95.2584 65.6782 94.7169 65.6782ZM94.7179 66.314C95.0918 66.314 95.3629 66.5352 95.5183 66.9844C95.6284 67.2885 95.6871 67.7101 95.688 68.2423C95.6888 68.7675 95.6315 69.1891 95.5224 69.5001C95.3684 69.9424 95.098 70.1705 94.7241 70.1705C94.3438 70.1705 94.0791 69.9424 93.9237 69.5001C93.8072 69.1891 93.7549 68.7675 93.7541 68.2423C93.7532 67.7101 93.8041 67.2885 93.9196 66.9844C94.0736 66.5352 94.3376 66.314 94.7179 66.314Z" fill="#72AD5D"/>
<path d="M98.5822 65.6782C98.0407 65.6782 97.6221 65.9201 97.3263 66.4108C97.0563 66.86 96.9219 67.4682 96.9232 68.2423C96.9244 69.0094 97.0608 69.6176 97.3323 70.0738C97.6296 70.5576 98.049 70.8064 98.5905 70.8064C99.132 70.8064 99.5506 70.5576 99.8464 70.0738C100.116 69.6176 100.251 69.0025 100.25 68.2423C100.248 67.4751 100.112 66.8669 99.8404 66.4108C99.5431 65.9201 99.1237 65.6782 98.5822 65.6782ZM98.5832 66.314C98.9571 66.314 99.2282 66.5352 99.3837 66.9844C99.4938 67.2885 99.5525 67.7101 99.5533 68.2423C99.5542 68.7675 99.4968 69.1891 99.3877 69.5001C99.2337 69.9424 98.9634 70.1705 98.5895 70.1705C98.2091 70.1705 97.9445 69.9424 97.789 69.5001C97.6725 69.1891 97.6202 68.7675 97.6194 68.2423C97.6185 67.7101 97.6694 67.2885 97.785 66.9844C97.939 66.5352 98.2029 66.314 98.5832 66.314Z" fill="#72AD5D"/>
<path d="M102.448 65.6782C101.906 65.6782 101.487 65.9201 101.192 66.4108C100.922 66.86 100.787 67.4682 100.789 68.2423C100.79 69.0094 100.926 69.6176 101.198 70.0738C101.495 70.5576 101.914 70.8064 102.456 70.8064C102.997 70.8064 103.416 70.5576 103.712 70.0738C103.982 69.6176 104.116 69.0025 104.115 68.2423C104.114 67.4751 103.977 66.8669 103.706 66.4108C103.408 65.9201 102.989 65.6782 102.448 65.6782ZM102.449 66.314C102.822 66.314 103.094 66.5352 103.249 66.9844C103.359 67.2885 103.418 67.7101 103.419 68.2423C103.419 68.7675 103.362 69.1891 103.253 69.5001C103.099 69.9424 102.829 70.1705 102.455 70.1705C102.074 70.1705 101.81 69.9424 101.654 69.5001C101.538 69.1891 101.486 68.7675 101.485 68.2423C101.484 67.7101 101.535 67.2885 101.65 66.9844C101.804 66.5352 102.068 66.314 102.449 66.314Z" fill="#72AD5D"/>
<path d="M106.313 65.6782C105.771 65.6782 105.353 65.9201 105.057 66.4108C104.787 66.86 104.653 67.4682 104.654 68.2423C104.655 69.0094 104.791 69.6176 105.063 70.0738C105.36 70.5576 105.78 70.8064 106.321 70.8064C106.863 70.8064 107.281 70.5576 107.577 70.0738C107.847 69.6176 107.981 69.0025 107.98 68.2423C107.979 67.4751 107.843 66.8669 107.571 66.4108C107.274 65.9201 106.854 65.6782 106.313 65.6782ZM106.314 66.314C106.688 66.314 106.959 66.5352 107.114 66.9844C107.224 67.2885 107.283 67.7101 107.284 68.2423C107.285 68.7675 107.227 69.1891 107.118 69.5001C106.964 69.9424 106.694 70.1705 106.32 70.1705C105.94 70.1705 105.675 69.9424 105.52 69.5001C105.403 69.1891 105.351 68.7675 105.35 68.2423C105.349 67.7101 105.4 67.2885 105.516 66.9844C105.67 66.5352 105.934 66.314 106.314 66.314Z" fill="#72AD5D"/>
<path d="M110.178 65.6782C109.637 65.6782 109.218 65.9201 108.922 66.4108C108.652 66.86 108.518 67.4682 108.519 68.2423C108.52 69.0094 108.657 69.6176 108.928 70.0738C109.226 70.5576 109.645 70.8064 110.186 70.8064C110.728 70.8064 111.147 70.5576 111.442 70.0738C111.712 69.6176 111.847 69.0025 111.845 68.2423C111.844 67.4751 111.708 66.8669 111.436 66.4108C111.139 65.9201 110.72 65.6782 110.178 65.6782ZM110.179 66.314C110.553 66.314 110.824 66.5352 110.98 66.9844C111.09 67.2885 111.148 67.7101 111.149 68.2423C111.15 68.7675 111.093 69.1891 110.984 69.5001C110.83 69.9424 110.559 70.1705 110.185 70.1705C109.805 70.1705 109.54 69.9424 109.385 69.5001C109.268 69.1891 109.216 68.7675 109.215 68.2423C109.215 67.7101 109.265 67.2885 109.381 66.9844C109.535 66.5352 109.799 66.314 110.179 66.314Z" fill="#72AD5D"/>
<path d="M114.044 65.6782C113.502 65.6782 113.083 65.9201 112.788 66.4108C112.518 66.86 112.383 67.4682 112.384 68.2423C112.386 69.0094 112.522 69.6176 112.794 70.0738C113.091 70.5576 113.51 70.8064 114.052 70.8064C114.593 70.8064 115.012 70.5576 115.308 70.0738C115.578 69.6176 115.712 69.0025 115.711 68.2423C115.71 67.4751 115.573 66.8669 115.302 66.4108C115.004 65.9201 114.585 65.6782 114.044 65.6782ZM114.045 66.314C114.418 66.314 114.69 66.5352 114.845 66.9844C114.955 67.2885 115.014 67.7101 115.015 68.2423C115.015 68.7675 114.958 69.1891 114.849 69.5001C114.695 69.9424 114.425 70.1705 114.051 70.1705C113.67 70.1705 113.406 69.9424 113.25 69.5001C113.134 69.1891 113.082 68.7675 113.081 68.2423C113.08 67.7101 113.131 67.2885 113.246 66.9844C113.4 66.5352 113.664 66.314 114.045 66.314Z" fill="#72AD5D"/>
<path d="M117.909 65.6782C117.367 65.6782 116.949 65.9201 116.653 66.4108C116.383 66.86 116.249 67.4682 116.25 68.2423C116.251 69.0094 116.387 69.6176 116.659 70.0738C116.956 70.5576 117.376 70.8064 117.917 70.8064C118.459 70.8064 118.877 70.5576 119.173 70.0738C119.443 69.6176 119.577 69.0025 119.576 68.2423C119.575 67.4751 119.439 66.8669 119.167 66.4108C118.87 65.9201 118.45 65.6782 117.909 65.6782ZM117.91 66.314C118.284 66.314 118.555 66.5352 118.71 66.9844C118.82 67.2885 118.879 67.7101 118.88 68.2423C118.881 68.7675 118.823 69.1891 118.714 69.5001C118.56 69.9424 118.29 70.1705 117.916 70.1705C117.536 70.1705 117.271 69.9424 117.116 69.5001C116.999 69.1891 116.947 68.7675 116.946 68.2423C116.945 67.7101 116.996 67.2885 117.112 66.9844C117.266 66.5352 117.53 66.314 117.91 66.314Z" fill="#72AD5D"/>
<path d="M121.774 65.6782C121.233 65.6782 120.814 65.9201 120.518 66.4108C120.248 66.86 120.114 67.4682 120.115 68.2423C120.116 69.0094 120.253 69.6176 120.524 70.0738C120.822 70.5576 121.241 70.8064 121.782 70.8064C122.324 70.8064 122.743 70.5576 123.038 70.0738C123.308 69.6176 123.443 69.0025 123.441 68.2423C123.44 67.4751 123.304 66.8669 123.032 66.4108C122.735 65.9201 122.316 65.6782 121.774 65.6782ZM121.775 66.314C122.149 66.314 122.42 66.5352 122.576 66.9844C122.686 67.2885 122.744 67.7101 122.745 68.2423C122.746 68.7675 122.689 69.1891 122.58 69.5001C122.426 69.9424 122.155 70.1705 121.781 70.1705C121.401 70.1705 121.136 69.9424 120.981 69.5001C120.864 69.1891 120.812 68.7675 120.811 68.2423C120.81 67.7101 120.861 67.2885 120.977 66.9844C121.131 66.5352 121.395 66.314 121.775 66.314Z" fill="#72AD5D"/>
<path d="M125.639 65.6782C125.098 65.6782 124.679 65.9201 124.384 66.4108C124.114 66.86 123.979 67.4682 123.98 68.2423C123.982 69.0094 124.118 69.6176 124.39 70.0738C124.687 70.5576 125.106 70.8064 125.648 70.8064C126.189 70.8064 126.608 70.5576 126.904 70.0738C127.174 69.6176 127.308 69.0025 127.307 68.2423C127.306 67.4751 127.169 66.8669 126.898 66.4108C126.6 65.9201 126.181 65.6782 125.639 65.6782ZM125.641 66.314C126.014 66.314 126.286 66.5352 126.441 66.9844C126.551 67.2885 126.61 67.7101 126.611 68.2423C126.611 68.7675 126.554 69.1891 126.445 69.5001C126.291 69.9424 126.021 70.1705 125.647 70.1705C125.266 70.1705 125.002 69.9424 124.846 69.5001C124.73 69.1891 124.678 68.7675 124.677 68.2423C124.676 67.7101 124.727 67.2885 124.842 66.9844C124.996 66.5352 125.26 66.314 125.641 66.314Z" fill="#72AD5D"/>
<path d="M129.067 65.7749C128.912 65.9546 128.719 66.1136 128.487 66.2656C128.255 66.4039 128.043 66.5006 127.837 66.5559L127.838 67.3023C128.263 67.171 128.617 66.9637 128.894 66.6803L128.901 70.7096H129.603L129.595 65.7749H129.067Z" fill="#72AD5D"/>
<line y1="-0.5" x2="121.805" y2="-0.5" transform="matrix(1 0 0.00161481 0.999999 8.32422 19.5662)" stroke="#F2D7D4" stroke-dasharray="1 2"/>
<line y1="-0.5" x2="121.805" y2="-0.5" transform="matrix(1 0 0.00161481 0.999999 7.97559 36.2587)" stroke="#F2D7D4" stroke-dasharray="1 2"/>
<line y1="-0.5" x2="121.805" y2="-0.5" transform="matrix(1 0 0.00161481 0.999999 8.62695 52.7835)" stroke="#F2D7D4" stroke-dasharray="1 2"/>
<defs>
<filter id="filter0_d_297_31199" x="0.00976562" y="0" width="139.109" height="83.9999" filterUnits="userSpaceOnUse" color-interpolation-filters="sRGB">
<feFlood flood-opacity="0" result="BackgroundImageFix"/>
<feColorMatrix in="SourceAlpha" type="matrix" values="0 0 0 0 0 0 0 0 0 0 0 0 0 0 0 0 0 0 127 0" result="hardAlpha"/>
<feOffset dx="1" dy="2"/>
<feGaussianBlur stdDeviation="1"/>
<feComposite in2="hardAlpha" operator="out"/>
<feColorMatrix type="matrix" values="0 0 0 0 0.716667 0 0 0 0 0.716667 0 0 0 0 0.716667 0 0 0 0.24 0"/>
<feBlend mode="normal" in2="BackgroundImageFix" result="effect1_dropShadow_297_31199"/>
<feBlend mode="normal" in="SourceGraphic" in2="effect1_dropShadow_297_31199" result="shape"/>
</filter>
<linearGradient id="paint0_linear_297_31199" x1="1.61784e-08" y1="39.2453" x2="134.999" y2="39.5733" gradientUnits="userSpaceOnUse">
<stop stop-color="#FEF4E6"/>
<stop offset="0.489583" stop-color="#FFE7E7"/>
<stop offset="1" stop-color="#FEF4E8"/>
</linearGradient>
</defs>
</svg>
