<svg width="139" height="84" viewBox="0 0 139 84" fill="none" xmlns="http://www.w3.org/2000/svg">
<g filter="url(#filter0_d_297_31140)">
<rect x="2" width="135" height="80" rx="6" fill="url(#paint0_linear_297_31140)"/>
</g>
<rect x="89.5967" y="28.1365" width="38.1935" height="41.1818" rx="1.5" fill="white" stroke="#F9F9F9"/>
<mask id="mask0_297_31140" style="mask-type:alpha" maskUnits="userSpaceOnUse" x="89" y="27" width="40" height="43">
<rect x="89.5967" y="28.1365" width="38.1935" height="41.1818" rx="1.5" fill="white" stroke="#ECECEC"/>
</mask>
<g mask="url(#mask0_297_31140)">
<path d="M93.5484 53.8181C93.5484 53.8181 90.7147 55.3928 90.5548 59.2471C90.3682 63.5638 93.5157 67.9603 97.8065 69.0908L93.5484 53.8181Z" fill="#989899"/>
<path d="M124.725 55.2208C124.725 55.2208 126.671 56.1201 126.831 59.9743C127.017 64.291 123.019 67.6313 118.729 68.7619L124.725 55.2208Z" fill="#989899"/>
<path d="M108.596 37.6171C99.2546 37.6171 91.7041 44.8028 91.7041 53.6325C91.7041 62.9129 95.9754 69.6478 102.065 72.4319C103.361 73.0153 104.849 72.9092 106.089 72.2728C106.833 71.8751 107.687 71.663 108.596 71.663C109.506 71.663 110.36 71.8751 111.104 72.2728C112.344 72.9357 113.86 73.0153 115.127 72.4319C121.217 69.6478 125.489 62.9129 125.489 53.6325C125.489 44.8028 117.938 37.6171 108.596 37.6171Z" fill="#E7E4E2"/>
<path d="M115.965 41.6992C114.318 41.5893 112.727 41.9465 111.382 42.6334C109.626 43.54 107.567 43.54 105.811 42.6334C104.439 41.9465 102.875 41.5893 101.228 41.6992C96.8921 42.0014 93.3794 45.5182 93.0775 49.8592C92.7207 54.997 96.7823 59.283 101.832 59.283C103.286 59.283 104.658 58.9259 105.866 58.294C107.567 57.4148 109.626 57.4148 111.327 58.294C112.535 58.9259 113.907 59.283 115.361 59.283C120.411 59.283 124.472 54.997 124.116 49.8592C123.814 45.5182 120.301 42.0014 115.965 41.6992Z" fill="white"/>
<path d="M97.4538 62.3515C96.6288 62.061 96.0689 61.3928 95.8627 60.6374C95.5091 61.7124 96.069 62.8454 97.1297 63.2231C98.1904 63.6008 99.369 63.0779 99.811 62.032C99.1628 62.4968 98.2788 62.6421 97.4538 62.3515Z" fill="#989899"/>
<path d="M101.507 67.7678C100.682 67.4773 100.122 66.8091 99.9154 66.0537C99.5619 67.1287 100.122 68.2617 101.182 68.6394C102.243 69.0171 103.422 68.4941 103.864 67.4482C103.215 67.9131 102.332 68.0583 101.507 67.7678Z" fill="#989899"/>
<path d="M108.553 68.1591C107.731 68.1403 106.994 67.8398 106.568 67.4078C106.568 68.1215 107.419 68.7225 108.525 68.7601C109.602 68.7977 110.537 68.2342 110.623 67.5205C110.141 67.9149 109.375 68.1778 108.553 68.1591Z" fill="#989899"/>
<path d="M115.682 66.4134C116.507 66.1229 117.067 65.4547 117.273 64.6993C117.627 65.7742 117.067 66.9073 116.006 67.285C114.946 67.6627 113.767 67.1397 113.325 66.0938C114.003 66.5587 114.857 66.7039 115.682 66.4134Z" fill="#989899"/>
<path d="M104.338 63.6185C103.51 63.4232 102.852 62.8049 102.538 61.9912C102.367 63.2279 103.081 64.3996 104.167 64.66C105.252 64.8878 106.281 64.1067 106.567 62.9025C105.967 63.5209 105.167 63.8138 104.338 63.6185Z" fill="#989899"/>
<path d="M118.385 62.3513C119.21 62.0608 119.769 61.3926 119.976 60.6372C120.329 61.7121 119.769 62.8452 118.709 63.2229C117.648 63.6006 116.469 63.0776 116.027 62.0317C116.705 62.4966 117.589 62.6418 118.385 62.3513Z" fill="#989899"/>
<path d="M111.5 63.6185C112.329 63.4232 112.986 62.8049 113.3 61.9912C113.472 63.2279 112.757 64.3996 111.672 64.66C110.586 64.8878 109.557 64.1067 109.271 62.9025C109.872 63.5209 110.672 63.8138 111.5 63.6185Z" fill="#989899"/>
<path d="M107.92 38.9712C107.92 38.9712 109.214 37.5956 111.058 37.1705C112.627 36.7953 111.994 35.7949 110.562 36.5202C109.379 37.1204 107.92 38.9712 107.92 38.9712Z" fill="#989899"/>
<path d="M106.561 38.9712C106.561 38.9712 106.368 37.2748 105.539 36.3205C104.941 35.6313 105.308 34.9421 105.597 34.9156C106.175 34.8096 106.638 35.9494 106.561 38.9712Z" fill="#989899"/>
<path d="M106.569 38.9711C106.569 38.9711 104.201 37.2395 102.717 37.6926C101.676 38.0001 104.903 38.3076 106.569 38.9711Z" fill="#989899"/>
<path opacity="0.6" d="M96.4339 56.5748C99.0462 56.5748 101.164 55.0591 101.164 53.1895C101.164 51.3199 99.0462 49.8042 96.4339 49.8042C93.8217 49.8042 91.7041 51.3199 91.7041 53.1895C91.7041 55.0591 93.8217 56.5748 96.4339 56.5748Z" fill="url(#paint1_radial_297_31140)"/>
<path opacity="0.6" d="M118.054 55.2207C120.666 55.2207 122.784 53.7051 122.784 51.8354C122.784 49.9658 120.666 48.4502 118.054 48.4502C115.442 48.4502 113.324 49.9658 113.324 51.8354C113.324 53.7051 115.442 55.2207 118.054 55.2207Z" fill="url(#paint2_radial_297_31140)"/>
<path d="M99.8121 52.5123C101.305 52.5123 102.515 51.2998 102.515 49.8041C102.515 48.3084 101.305 47.0958 99.8121 47.0958C98.3194 47.0958 97.1094 48.3084 97.1094 49.8041C97.1094 51.2998 98.3194 52.5123 99.8121 52.5123Z" fill="#231F20"/>
<path d="M99.1347 49.8043C99.5078 49.8043 99.8104 49.5012 99.8104 49.1273C99.8104 48.7534 99.5078 48.4502 99.1347 48.4502C98.7615 48.4502 98.459 48.7534 98.459 49.1273C98.459 49.5012 98.7615 49.8043 99.1347 49.8043Z" fill="white"/>
<path opacity="0.3" d="M100.488 51.1584C100.861 51.1584 101.164 50.8552 101.164 50.4813C101.164 50.1074 100.861 49.8043 100.488 49.8043C100.115 49.8043 99.8125 50.1074 99.8125 50.4813C99.8125 50.8552 100.115 51.1584 100.488 51.1584Z" fill="white"/>
<path d="M114.677 52.5123C116.17 52.5123 117.38 51.2998 117.38 49.8041C117.38 48.3084 116.17 47.0958 114.677 47.0958C113.185 47.0958 111.975 48.3084 111.975 49.8041C111.975 51.2998 113.185 52.5123 114.677 52.5123Z" fill="#231F20"/>
<path d="M114.004 49.8043C114.377 49.8043 114.68 49.5012 114.68 49.1273C114.68 48.7534 114.377 48.4502 114.004 48.4502C113.631 48.4502 113.328 48.7534 113.328 49.1273C113.328 49.5012 113.631 49.8043 114.004 49.8043Z" fill="white"/>
<path opacity="0.3" d="M115.352 51.1584C115.726 51.1584 116.028 50.8552 116.028 50.4813C116.028 50.1074 115.726 49.8043 115.352 49.8043C114.979 49.8043 114.677 50.1074 114.677 50.4813C114.677 50.8552 114.979 51.1584 115.352 51.1584Z" fill="white"/>
<path d="M106.568 50.0837L108.001 52.5125L109.271 50.0837C109.271 50.0837 107.947 49.4549 106.568 50.0837Z" fill="#EC8822"/>
</g>
<ellipse cx="39.0167" cy="44.3638" rx="3.62903" ry="3.63636" fill="#C7DEC7"/>
<ellipse cx="54.9825" cy="44.3638" rx="3.62903" ry="3.63636" fill="#C7DEC7"/>
<ellipse cx="72.4034" cy="44.3638" rx="3.62903" ry="3.63636" fill="#C7DEC7"/>
<rect x="12.1621" y="66.9093" width="53.7097" height="4.36364" rx="2" fill="#DBEEDB"/>
<rect x="89.5967" y="28.1365" width="38.1935" height="41.1818" rx="1.5" stroke="#F9F9F9"/>
<path d="M37.4975 16.2032C38.4815 15.5237 39.3235 14.7295 39.8628 14.0148C40.4115 14.7295 41.3198 15.5325 42.3037 16.2032H37.4975ZM40.4588 19.0622H43.1079V18.1445H40.4588V17.1297H42.6727V16.4414C43.0133 16.662 43.3539 16.8562 43.6945 17.0326C43.9026 16.7062 44.1486 16.3708 44.4419 16.0885C42.9471 15.4972 41.4049 14.3413 40.3926 13H39.2289C38.5288 14.0766 37.0055 15.4355 35.3877 16.1944C35.6431 16.415 35.9554 16.7944 36.0973 17.0415C36.4568 16.8562 36.8069 16.6532 37.1475 16.4326V17.1297H39.2856V18.1445H36.6649V19.0622H39.2856V20.1123H35.9081V21.0564H43.9594V20.1123H40.4588V19.0622Z" fill="#39716D"/>
<path d="M47.2329 17.2003V16.3267H49.2954C49.3238 16.6267 49.3617 16.9179 49.409 17.2003H47.2329ZM51.7742 14.4031V15.3561H47.2329V14.4031H51.7742ZM53.5907 18.1798V17.2003H50.5821C50.5254 16.9179 50.4875 16.6267 50.4591 16.3267H52.919V13.4236H46.0787V19.927C45.7192 19.9711 45.3786 19.9976 45.0853 20.024L45.3123 21.1182C46.5423 20.9682 48.2169 20.7653 49.7779 20.5623L49.7401 19.521C48.9075 19.6181 48.0371 19.7152 47.2329 19.8122V18.1798H49.636C50.1564 19.9623 51.1593 21.2682 52.3892 21.2771C53.2407 21.2771 53.6381 20.9506 53.7989 19.4681C53.5056 19.3887 53.0799 19.1769 52.8244 18.9651C52.7771 19.8564 52.673 20.227 52.4554 20.227C51.9067 20.2358 51.2539 19.3799 50.847 18.1798H53.5907Z" fill="#39716D"/>
<path d="M61.8597 14.5001V14.8884H61.2069V14.5001H61.8597ZM61.8597 16.0708H61.2069V15.6561H61.8597V16.0708ZM60.1946 14.8884H58.397V15.6561H60.1946V16.0708H59.0119V16.8297H60.1946V17.2444H58.8984V18.0033H60.1946V18.4357H58.6619V19.1946H60.1946V19.9976H61.2069V19.1946H63.0896V18.4357H61.2069V18.0033H62.8626V17.2444H61.2069V16.8297H62.8058V15.6561H63.2694V14.8884H62.8058V13.7412H61.2069V13.0883H60.1946V13.7412H59.0119V14.5001H60.1946V14.8884ZM56.2588 14.959C56.4007 14.659 56.5331 14.3589 56.6561 14.0501V14.5795H57.413C57.1008 15.3296 56.6751 16.3002 56.3061 17.0679L57.2238 17.2621L57.3941 16.9003H57.8482C57.7725 17.465 57.6685 17.9856 57.5171 18.4622C57.3941 18.171 57.29 17.8356 57.2049 17.4474L56.3534 17.6768C56.5331 18.4445 56.7697 19.0445 57.044 19.521C56.8264 19.8917 56.5615 20.1917 56.2588 20.4035V14.959ZM58.2645 16.1238L58.0942 16.1414H57.7441C58.1037 15.3472 58.4537 14.5266 58.7092 13.8648L58.0091 13.6971L57.8482 13.7324H56.7791C56.8264 13.6001 56.8737 13.4677 56.921 13.3353L55.9182 13.053C55.5492 14.2619 54.9248 15.4619 54.2246 16.2473C54.3949 16.5208 54.6409 17.1297 54.7166 17.3856C54.9058 17.1738 55.0951 16.9268 55.2748 16.6709V21.2506H56.2588V20.5446C56.4574 20.7476 56.6845 21.0476 56.7886 21.2506C57.1386 20.9947 57.4414 20.6858 57.6968 20.3152C58.4253 20.9594 59.3904 21.1447 60.6298 21.1447H62.995C63.0423 20.8711 63.1937 20.4299 63.3451 20.2005C62.8153 20.2182 61.1217 20.2182 60.6865 20.2182C59.6458 20.2093 58.7943 20.0505 58.1699 19.4505C58.5389 18.5945 58.7565 17.5268 58.8511 16.2208L58.2645 16.1238Z" fill="#39716D"/>
<path d="M69.4664 16.9621H70.772V17.3944H69.4664V16.9621ZM69.4664 15.8237H70.772V16.2296H69.4664V15.8237ZM71.8411 18.0915V16.9621H72.6831V16.2296H71.8411V15.1266H69.4664V14.6942H72.5791V13.7765H69.1636V13.0353H67.9905V13.7765H64.6129V16.3355C64.6129 17.6327 64.5561 19.4681 63.7803 20.73C64.0263 20.8358 64.4993 21.127 64.6886 21.3035C65.5401 19.9358 65.682 17.765 65.682 16.3355V14.6942H68.3784V15.1266H66.401V15.8237H68.3784V16.2296H65.8617V16.9621H68.3784V17.3944H66.2969V18.0915H66.4294L65.8523 18.621C66.3159 18.8592 66.893 19.221 67.1863 19.4681L67.8296 18.8504C67.5363 18.6122 66.9687 18.3033 66.5145 18.0915H68.3784V20.227C68.3784 20.3682 68.3311 20.4123 68.1608 20.4123C68.0378 20.4211 67.6499 20.4211 67.2525 20.4035C67.5363 20.2799 67.8296 20.1564 68.1135 20.024L67.9148 19.274C67.0065 19.6005 66.0793 19.927 65.4549 20.1034L65.9753 20.9417C66.2969 20.8182 66.647 20.6682 67.0065 20.5094C67.1295 20.7564 67.2525 21.0564 67.2903 21.2771C68.0662 21.2771 68.6054 21.2682 68.965 21.127C69.3339 20.9859 69.4664 20.7564 69.4664 20.2358V19.3799C70.034 20.2005 70.8193 20.8182 71.8506 21.1712C72.0019 20.9064 72.3047 20.527 72.5318 20.324C71.8884 20.1564 71.3397 19.8828 70.8855 19.5299C71.3397 19.3093 71.8506 19.0269 72.3142 18.7445L71.4911 18.1268C71.1788 18.3739 70.7152 18.7004 70.28 18.9475C70.0624 18.6828 69.8827 18.4004 69.7408 18.0915H71.8411Z" fill="#39716D"/>
<path d="M75.4363 13.0441C74.9443 14.2972 74.0834 15.5502 73.2035 16.3444C73.3927 16.6003 73.7049 17.165 73.809 17.4209C74.055 17.1827 74.2915 16.9179 74.528 16.6356V21.2506H75.5971V15.1002C75.9377 14.5354 76.231 13.9354 76.477 13.3618L75.4363 13.0441ZM77.7353 14.3325H80.5074V15.5149H77.7353V14.3325ZM82.0969 18.1886V17.2356H79.6559V16.4414H81.6333V13.4059H76.6662V16.4414H78.5206V17.2356H76.0418V18.1886H77.9813C77.3947 18.9651 76.5527 19.6799 75.7012 20.0946C75.9567 20.2976 76.3067 20.677 76.477 20.9329C77.2244 20.4829 77.9435 19.8122 78.5206 19.0357V21.2682H79.6559V18.9916C80.1952 19.7769 80.8859 20.4917 81.5765 20.9506C81.7563 20.6858 82.1158 20.3152 82.3713 20.1123C81.5765 19.6799 80.7629 18.9563 80.2047 18.1886H82.0969Z" fill="#39716D"/>
<path d="M87.6884 14.9854C88.0668 14.659 88.3885 14.306 88.6156 13.9795C88.8615 14.3148 89.1927 14.659 89.5806 14.9854H87.6884ZM87.2437 15.762H90.0252V15.3384C90.3848 15.6031 90.7727 15.8414 91.1322 16.0179C91.2836 15.709 91.5106 15.3208 91.7377 15.056C90.7443 14.7031 89.7603 13.9089 89.0981 13.0353H88.0479C87.5843 13.7942 86.6571 14.6501 85.6542 15.1002C85.8056 14.6413 85.957 14.1648 86.0895 13.7589L85.3515 13.3618L85.1906 13.4059H83.1754V21.2682H84.1499V14.3413H84.8595C84.7176 14.9413 84.5189 15.709 84.3391 16.2649C84.8595 16.8562 84.9636 17.4033 84.9636 17.8092C84.9636 18.0562 84.9257 18.2327 84.8217 18.3033C84.7554 18.3563 84.6703 18.3827 84.5662 18.3827C84.4527 18.3827 84.3297 18.3827 84.1689 18.3739C84.3202 18.621 84.4054 19.0181 84.4148 19.2651C84.6324 19.274 84.85 19.2651 85.0109 19.2475C85.219 19.2122 85.3988 19.1593 85.5407 19.071C85.834 18.8681 85.957 18.4974 85.957 17.9415C85.957 17.4209 85.8435 16.8297 85.2853 16.1591C85.3988 15.8767 85.5123 15.5414 85.6259 15.206C85.8056 15.4443 86.0043 15.7973 86.1084 16.0355C86.4963 15.8502 86.8842 15.612 87.2437 15.3472V15.762ZM89.6468 16.9356H90.2712V17.765H89.6468V16.9356ZM88.8332 18.4533H91.1416V16.2473H88.8332V18.4533ZM87.0166 16.9356H87.6032V17.765H87.0166V16.9356ZM86.2124 18.4533H88.4452V16.2473H86.2124V18.4533ZM88.4831 20.0858C88.3128 19.8828 88.0006 19.5828 87.6978 19.3446C87.7735 19.1593 87.8397 18.9651 87.8965 18.771L86.922 18.5945C86.695 19.4416 86.1841 20.174 85.465 20.6241C85.6732 20.7829 86.0421 21.1094 86.1935 21.2771C86.6193 20.977 86.9882 20.5799 87.291 20.1123C87.5086 20.324 87.7167 20.5358 87.8208 20.7035L88.4831 20.0858ZM89.4292 18.5857C89.2684 19.4593 88.8521 20.174 88.1425 20.6152C88.3601 20.7653 88.7196 21.1094 88.871 21.2771C89.2589 21.0123 89.5806 20.6594 89.836 20.2535C90.2523 20.5976 90.6591 20.9682 90.8862 21.2329L91.5958 20.5711C91.3119 20.2446 90.7254 19.7858 90.2334 19.4152C90.3185 19.1946 90.3753 18.9651 90.4321 18.7181L89.4292 18.5857Z" fill="#39716D"/>
<path d="M31.4851 16.9091C31.4851 22.3836 27.0566 26.8182 21.598 26.8182C16.1394 26.8182 11.7109 22.3836 11.7109 16.9091C11.7109 11.4345 16.1394 7 21.598 7C27.0566 7 31.4851 11.4345 31.4851 16.9091Z" stroke="#4497C6" stroke-width="2"/>
<ellipse cx="18.694" cy="14.0001" rx="2.17742" ry="2.18182" fill="#74B46A"/>
<path d="M16.5166 18.3592C16.5166 17.1566 17.4915 16.1818 18.694 16.1818C19.8966 16.1818 20.8714 17.1566 20.8714 18.3592V22H16.5166V18.3592Z" fill="#74B46A"/>
<ellipse cx="24.4987" cy="13.9999" rx="2.17742" ry="2.18182" fill="#74B46A"/>
<path d="M22.3213 18.359C22.3213 17.1565 23.2962 16.1816 24.4987 16.1816C25.7013 16.1816 26.6761 17.1565 26.6761 18.359V21.9998H22.3213V18.359Z" fill="#74B46A"/>
<rect x="19.4199" y="17.6363" width="4.35484" height="1.45455" fill="#74B46A"/>
<rect x="13.6123" y="42.1819" width="11.6129" height="11.6364" rx="1" fill="#FFD873"/>
<path fill-rule="evenodd" clip-rule="evenodd" d="M20.8714 45.673H17.9682C17.5674 45.673 17.2424 45.9334 17.2424 46.2548V49.7457C17.2424 50.067 17.5674 50.3275 17.9682 50.3275H20.8714C21.2723 50.3275 21.5972 50.067 21.5972 49.7457V46.2548C21.5972 45.9334 21.2723 45.673 20.8714 45.673ZM17.9682 45.0911C17.1665 45.0911 16.5166 45.6121 16.5166 46.2548V49.7457C16.5166 50.3883 17.1665 50.9093 17.9682 50.9093H20.8714C21.6731 50.9093 22.3231 50.3883 22.3231 49.7457V46.2548C22.3231 45.6121 21.6731 45.0911 20.8714 45.0911H17.9682Z" fill="#F0C965"/>
<path fill-rule="evenodd" clip-rule="evenodd" d="M15.0654 45.3336C15.0654 44.3963 15.8237 43.6366 16.759 43.6366H23.5332C24.4685 43.6366 25.2267 44.3963 25.2267 45.3336V52.1214C25.2267 53.0586 24.4685 53.8184 23.5332 53.8184H16.759C15.8237 53.8184 15.0654 53.0586 15.0654 52.1214V45.3336ZM16.759 44.3154C16.1978 44.3154 15.7428 44.7712 15.7428 45.3336V52.1214C15.7428 52.6838 16.1978 53.1396 16.759 53.1396H23.5332C24.0944 53.1396 24.5493 52.6838 24.5493 52.1214V45.3336C24.5493 44.7712 24.0944 44.3154 23.5332 44.3154H16.759Z" fill="#F0C965"/>
<path fill-rule="evenodd" clip-rule="evenodd" d="M25.2252 47.1921H13.6123V46.5457H25.2252V47.1921Z" fill="#F0C965"/>
<path fill-rule="evenodd" clip-rule="evenodd" d="M25.2252 48.6466H13.6123V48.0002H25.2252V48.6466Z" fill="#F0C965"/>
<defs>
<filter id="filter0_d_297_31140" x="0" y="0" width="139" height="84" filterUnits="userSpaceOnUse" color-interpolation-filters="sRGB">
<feFlood flood-opacity="0" result="BackgroundImageFix"/>
<feColorMatrix in="SourceAlpha" type="matrix" values="0 0 0 0 0 0 0 0 0 0 0 0 0 0 0 0 0 0 127 0" result="hardAlpha"/>
<feOffset dy="2"/>
<feGaussianBlur stdDeviation="1"/>
<feComposite in2="hardAlpha" operator="out"/>
<feColorMatrix type="matrix" values="0 0 0 0 0.704687 0 0 0 0 0.825 0 0 0 0 0.814974 0 0 0 0.26 0"/>
<feBlend mode="normal" in2="BackgroundImageFix" result="effect1_dropShadow_297_31140"/>
<feBlend mode="normal" in="SourceGraphic" in2="effect1_dropShadow_297_31140" result="shape"/>
</filter>
<linearGradient id="paint0_linear_297_31140" x1="69.5" y1="0" x2="69.5" y2="80" gradientUnits="userSpaceOnUse">
<stop stop-color="#D5EFD1"/>
<stop offset="1" stop-color="#E8F8E6"/>
</linearGradient>
<radialGradient id="paint1_radial_297_31140" cx="0" cy="0" r="1" gradientUnits="userSpaceOnUse" gradientTransform="translate(96.422 53.189) scale(6.06648 4.92889)">
<stop stop-color="#EF7F91" stop-opacity="0.7"/>
<stop offset="1" stop-color="white" stop-opacity="0"/>
</radialGradient>
<radialGradient id="paint2_radial_297_31140" cx="0" cy="0" r="1" gradientUnits="userSpaceOnUse" gradientTransform="translate(118.042 51.8473) scale(6.06648 4.92889)">
<stop stop-color="#EF7F91" stop-opacity="0.7"/>
<stop offset="1" stop-color="white" stop-opacity="0"/>
</radialGradient>
</defs>
</svg>
