<svg width="139" height="84" viewBox="0 0 139 84" fill="none" xmlns="http://www.w3.org/2000/svg">
<g filter="url(#filter0_d_297_31075)">
<rect x="1" width="135" height="80" rx="6" fill="url(#paint0_linear_297_31075)"/>
</g>
<mask id="mask0_297_31075" style="mask-type:alpha" maskUnits="userSpaceOnUse" x="92" y="4" width="36" height="40">
<rect x="92.9512" y="4.8636" width="33.8387" height="38.2727" fill="white" stroke="#ECECEC"/>
</mask>
<g mask="url(#mask0_297_31075)">
<path d="M93.2684 31.9999C93.2684 31.9999 91.1785 32.9659 91.0067 37.106C90.8064 41.7429 95.1006 45.331 99.7097 46.5454L93.2684 31.9999Z" fill="#989899"/>
<path d="M125.471 30.977C125.471 30.977 128.562 32.966 128.734 37.106C128.935 41.7429 124.64 45.331 120.031 46.5454L125.471 30.977Z" fill="#989899"/>
<path d="M109.144 13.0909C99.9119 13.0909 92.4502 20.5127 92.4502 29.6324C92.4502 39.2178 96.6712 46.174 102.69 49.0496C103.97 49.6521 105.44 49.5425 106.666 48.8853C107.401 48.4744 108.245 48.2554 109.144 48.2554C110.042 48.2554 110.887 48.4744 111.622 48.8853C112.847 49.5699 114.345 49.6521 115.598 49.0496C121.616 46.174 125.837 39.2178 125.837 29.6324C125.837 20.5127 118.376 13.0909 109.144 13.0909Z" fill="#E7E4E2"/>
<path d="M116.372 17.474C114.757 17.365 113.196 17.7191 111.877 18.4002C110.155 19.2992 108.136 19.2992 106.413 18.4002C105.068 17.7191 103.533 17.365 101.919 17.474C97.6659 17.7736 94.2208 21.2606 93.9247 25.5649C93.5748 30.6592 97.5583 34.909 102.511 34.909C103.937 34.909 105.283 34.5549 106.467 33.9283C108.136 33.0566 110.155 33.0566 111.823 33.9283C113.008 34.5549 114.353 34.909 115.78 34.909C120.732 34.909 124.716 30.6592 124.366 25.5649C124.07 21.2606 120.625 17.7736 116.372 17.474Z" fill="white"/>
<path d="M100.08 39.6594C99.1934 39.3474 98.5921 38.6296 98.3705 37.8182C97.9907 38.9729 98.5921 40.19 99.7315 40.5957C100.871 41.0014 102.137 40.4396 102.612 39.3162C101.915 39.8155 100.966 39.9715 100.08 39.6594Z" fill="#989899"/>
<path d="M104.436 45.4776C103.55 45.1655 102.949 44.4477 102.727 43.6363C102.347 44.791 102.949 46.0081 104.088 46.4138C105.227 46.8195 106.493 46.2577 106.968 45.1343C106.272 45.6336 105.322 45.7896 104.436 45.4776Z" fill="#989899"/>
<path d="M118.21 44.023C119.096 43.711 119.697 42.9932 119.919 42.1818C120.299 43.3365 119.697 44.5536 118.558 44.9593C117.418 45.365 116.152 44.8032 115.678 43.6798C116.406 44.1791 117.324 44.3351 118.21 44.023Z" fill="#989899"/>
<path d="M106.024 41.0207C105.134 40.8109 104.428 40.1467 104.091 39.2727C103.907 40.6012 104.674 41.8597 105.84 42.1394C107.006 42.3841 108.111 41.5451 108.418 40.2516C107.774 40.9158 106.914 41.2304 106.024 41.0207Z" fill="#989899"/>
<path d="M121.111 39.6595C121.997 39.3474 122.599 38.6296 122.82 37.8182C123.2 38.9729 122.599 40.19 121.459 40.5957C120.32 41.0014 119.054 40.4397 118.579 39.3162C119.307 39.8155 120.257 39.9716 121.111 39.6595Z" fill="#989899"/>
<path d="M115.167 41.0207C116.057 40.8109 116.763 40.1467 117.101 39.2727C117.285 40.6012 116.518 41.8597 115.352 42.1394C114.185 42.3841 113.08 41.5451 112.773 40.2516C113.418 40.9158 114.277 41.2304 115.167 41.0207Z" fill="#989899"/>
<path d="M109.868 14.5454C109.868 14.5454 111.258 13.0678 113.239 12.6111C114.924 12.2081 114.244 11.1335 112.707 11.9126C111.435 12.5573 109.868 14.5454 109.868 14.5454Z" fill="#989899"/>
<path d="M108.407 14.5453C108.407 14.5453 108.2 12.723 107.31 11.698C106.668 10.9577 107.061 10.2174 107.372 10.1889C107.993 10.075 108.49 11.2993 108.407 14.5453Z" fill="#989899"/>
<path d="M108.417 13.0908C108.417 13.0908 105.874 11.2308 104.28 11.7175C103.162 12.0478 106.628 12.3781 108.417 13.0908Z" fill="#989899"/>
<path opacity="0.6" d="M98.984 31.9999C101.79 31.9999 104.065 30.3719 104.065 28.3636C104.065 26.3553 101.79 24.7272 98.984 24.7272C96.178 24.7272 93.9033 26.3553 93.9033 28.3636C93.9033 30.3719 96.178 31.9999 98.984 31.9999Z" fill="url(#paint1_radial_297_31075)"/>
<path opacity="0.6" d="M120.759 31.9999C123.565 31.9999 125.84 30.3719 125.84 28.3636C125.84 26.3553 123.565 24.7272 120.759 24.7272C117.953 24.7272 115.679 26.3553 115.679 28.3636C115.679 30.3719 117.953 31.9999 120.759 31.9999Z" fill="url(#paint2_radial_297_31075)"/>
<path d="M102.613 27.6363C104.217 27.6363 105.516 26.3339 105.516 24.7272C105.516 23.1206 104.217 21.8181 102.613 21.8181C101.01 21.8181 99.71 23.1206 99.71 24.7272C99.71 26.3339 101.01 27.6363 102.613 27.6363Z" fill="#231F20"/>
<path d="M101.888 24.7272C102.289 24.7272 102.614 24.4016 102.614 24C102.614 23.5983 102.289 23.2727 101.888 23.2727C101.487 23.2727 101.162 23.5983 101.162 24C101.162 24.4016 101.487 24.7272 101.888 24.7272Z" fill="white"/>
<path opacity="0.3" d="M103.339 26.1818C103.74 26.1818 104.065 25.8562 104.065 25.4545C104.065 25.0528 103.74 24.7272 103.339 24.7272C102.938 24.7272 102.613 25.0528 102.613 25.4545C102.613 25.8562 102.938 26.1818 103.339 26.1818Z" fill="white"/>
<path d="M117.13 27.6363C118.733 27.6363 120.033 26.3339 120.033 24.7272C120.033 23.1206 118.733 21.8181 117.13 21.8181C115.526 21.8181 114.227 23.1206 114.227 24.7272C114.227 26.3339 115.526 27.6363 117.13 27.6363Z" fill="#231F20"/>
<path d="M116.405 24.7272C116.805 24.7272 117.13 24.4016 117.13 24C117.13 23.5983 116.805 23.2727 116.405 23.2727C116.004 23.2727 115.679 23.5983 115.679 24C115.679 24.4016 116.004 24.7272 116.405 24.7272Z" fill="white"/>
<path opacity="0.3" d="M117.854 26.1818C118.255 26.1818 118.58 25.8562 118.58 25.4545C118.58 25.0528 118.255 24.7272 117.854 24.7272C117.453 24.7272 117.128 25.0528 117.128 25.4545C117.128 25.8562 117.453 26.1818 117.854 26.1818Z" fill="white"/>
<path d="M108.42 26.482L109.959 29.0909L111.323 26.482C111.323 26.482 109.901 25.8065 108.42 26.482Z" fill="#EC8822"/>
</g>
<rect x="40.1914" y="8.72714" width="23.2258" height="21.8182" rx="1" fill="#FF5441" fill-opacity="0.2"/>
<path d="M34.9422 15.5561V13.8873H36.6013V15.5561H34.9422ZM32.3653 15.5561V13.8873H34.0171V15.5561H32.3653ZM34.9422 12.9792V11.6364H34.0171V12.9792H31.4844V16.8911H32.3653V16.4642H34.0171V18.8858H34.9422V16.4642H36.6013V16.8523H37.519V12.9792H34.9422Z" fill="#535353"/>
<path d="M43.3113 13.3207H44.1629V12.886H45.8514V13.3207H46.703V12.886H48.2814V12.0711H46.703V11.6442H45.8514V12.0711H44.1629V11.6442H43.3113V12.0711H41.777V12.886H43.3113V13.3207ZM46.2405 15.9752H45.433V15.4862H46.2405V15.9752ZM43.8179 15.9752V15.4862H44.574V15.9752H43.8179ZM43.8179 14.2521H44.574V14.7178H43.8179V14.2521ZM46.2405 14.7178H45.433V14.2521H46.2405V14.7178ZM48.3475 15.4862V14.7178H47.0481V14.2521H47.8409V13.4992H42.2615V14.2521H43.003V14.7178H41.7036V15.4862H43.003V15.9752H42.1881V16.7281H44.574V17.1783H41.8063V17.97H44.574V18.8858H45.433V17.97H48.2814V17.1783H45.433V16.7281H47.9364V15.9752H47.0481V15.4862H48.3475Z" fill="#535353"/>
<path d="M53.9122 15.3077V14.5393H55.5127C55.5347 14.8032 55.564 15.0593 55.6007 15.3077H53.9122ZM57.4361 12.8472V13.6855H53.9122V12.8472H57.4361ZM58.8456 16.1692V15.3077H56.5111C56.467 15.0593 56.4377 14.8032 56.4156 14.5393H58.3244V11.9857H53.0166V17.7061C52.7376 17.7449 52.4733 17.7682 52.2457 17.7914L52.4219 18.7539C53.3763 18.6219 54.6757 18.4434 55.8871 18.2649L55.8577 17.349C55.2117 17.4344 54.5363 17.5198 53.9122 17.6052V16.1692H55.7769C56.1807 17.7371 56.9589 18.8858 57.9133 18.8936C58.574 18.8936 58.8823 18.6064 59.0071 17.3025C58.7796 17.2326 58.4492 17.0463 58.251 16.86C58.2143 17.644 58.1335 17.97 57.9647 17.97C57.5389 17.9777 57.0323 17.2248 56.7166 16.1692H58.8456Z" fill="#535353"/>
<path d="M65.2987 15.5405H64.8068V15.0438H65.2987V15.5405ZM65.886 14.5548H64.2489V16.0295H65.886V14.5548ZM63.7937 17.7604V12.8007H67.3322L66.9945 13.1577C67.1854 13.2664 67.4057 13.4294 67.5598 13.5691H66.767C66.7523 13.3517 66.7449 13.1344 66.7376 12.9093H66.0181C66.0328 13.1344 66.0402 13.3517 66.0548 13.5691H64.0653V14.2211H66.1062C66.1723 14.9895 66.2677 15.6958 66.4219 16.2546C66.3045 16.3943 66.187 16.5263 66.0548 16.6505L66.0402 16.2546C65.2767 16.3633 64.5132 16.4642 63.9772 16.5185L64.058 17.1938C64.5425 17.1084 65.1225 17.023 65.7098 16.9299C65.629 16.9842 65.5483 17.0386 65.4675 17.0851C65.6144 17.2093 65.8493 17.5043 65.9447 17.644C66.2237 17.4577 66.4733 17.2326 66.7082 16.9842C66.8551 17.2404 67.0386 17.4189 67.2588 17.4965C67.7434 17.7293 68.1251 17.4344 68.2426 16.4797C68.0957 16.3943 67.8315 16.1848 67.6993 16.0451C67.6699 16.4952 67.6112 16.7979 67.5231 16.7747C67.3983 16.7436 67.2882 16.5961 67.1928 16.3555C67.5231 15.851 67.7874 15.2534 67.9636 14.5781L67.2955 14.4384C67.2074 14.7877 67.0973 15.1136 66.9505 15.4086C66.8918 15.0593 66.8477 14.6557 66.811 14.2211H68.1251V13.5691H67.7727L68.0664 13.2431C67.9342 13.0956 67.692 12.9248 67.4644 12.8007H68.36V17.7604H63.7937ZM62.9641 11.9702V18.9091H63.7937V18.5831H68.36V18.9091H69.2263V11.9702H62.9641Z" fill="#535353"/>
<path d="M22.5522 24.1012H20.0445V23.2728H19.5817V24.1012H17.1054V24.5565H22.5522V24.1012ZM20.5635 25.0119C21.1576 25.4293 21.8705 26.0364 22.202 26.4475L22.6084 26.1249C22.252 25.7075 21.5203 25.1257 20.9325 24.7273L20.5635 25.0119ZM18.7 24.7526C18.3185 25.2838 17.6682 25.8087 17.0553 26.1376C17.1741 26.2198 17.3492 26.4095 17.4368 26.5107C18.0371 26.1312 18.7375 25.5368 19.169 24.936L18.7 24.7526ZM20.7261 25.834C20.5198 26.4032 20.2196 26.8712 19.8381 27.2569C19.4567 26.8648 19.1565 26.4032 18.9501 25.8656L18.5061 26.0048C18.75 26.6182 19.0752 27.1368 19.4817 27.5731C18.8313 28.0854 17.9808 28.4206 16.9678 28.6356C17.0678 28.7431 17.2179 28.9644 17.2617 29.0783C18.2748 28.819 19.1377 28.4522 19.8256 27.902C20.4885 28.4648 21.3452 28.8506 22.4021 29.053C22.4646 28.9265 22.6022 28.7115 22.7085 28.6103C21.6767 28.4395 20.8324 28.0917 20.1883 27.5731C20.6198 27.1431 20.9638 26.6182 21.2077 25.9731L20.7261 25.834Z" fill="#535353"/>
<path d="M26.717 25.2206V25.7771H25.6664V25.2206H26.717ZM28.2241 25.7771H27.136V25.2206H28.2241V25.7771ZM27.136 26.7004V26.1249H28.2241V26.7004H27.136ZM25.6664 26.7004V26.1249H26.717V26.7004H25.6664ZM25.6664 27.0609H26.717V28.0854H27.136V27.0609H28.2241V27.6364C28.2241 27.7186 28.1991 27.7439 28.1178 27.7439C28.0427 27.7439 27.7738 27.7502 27.4799 27.7376C27.5362 27.8451 27.5925 28.0095 27.6112 28.1233C28.0302 28.1233 28.2929 28.117 28.4555 28.0538C28.6181 27.9842 28.6681 27.8704 28.6681 27.6427V24.8601H27.8801C27.7426 24.7842 27.58 24.6957 27.3986 24.6071C27.8614 24.3731 28.3304 24.0569 28.6618 23.7407L28.3742 23.5194L28.2866 23.5447H25.2349V23.9178H27.8426C27.5925 24.1012 27.2861 24.2846 26.9859 24.4174C26.692 24.2909 26.3856 24.1645 26.1167 24.0696L25.8227 24.3352C26.198 24.4743 26.642 24.6767 27.0109 24.8601H25.2287V28.1107H25.6664V27.0609ZM24.7221 24.4427C24.522 24.1328 24.0593 23.7091 23.6653 23.4245L23.3401 23.7154C23.7341 24.0127 24.1843 24.4554 24.3782 24.7652L24.7221 24.4427ZM24.5845 25.7581H23.2338V26.2008H24.1343V27.8261C23.8154 28.0854 23.4589 28.351 23.1587 28.5407L23.3839 28.9961C23.7403 28.7305 24.0718 28.4585 24.3907 28.1803C24.7722 28.6799 25.335 28.9012 26.1542 28.9328C26.8421 28.9644 28.1678 28.9518 28.862 28.9202C28.887 28.781 28.9558 28.566 29.0058 28.4585C28.2616 28.5091 26.8358 28.5281 26.1542 28.4965C25.4225 28.4712 24.8847 28.2625 24.5845 27.7882V25.7581Z" fill="#535353"/>
<path d="M32.6141 23.9811H31.3446V23.3044H30.9006V23.9811H29.6499V24.3921H32.6141V23.9811ZM31.8449 25.6569C31.9762 25.3787 32.1263 24.9613 32.2576 24.5945L31.8199 24.487C31.7448 24.8032 31.5885 25.2712 31.4697 25.5621L31.8449 25.6569ZM30.7067 25.5431C30.6755 25.2712 30.5629 24.8411 30.4191 24.5312L30.0314 24.6135C30.1627 24.936 30.2752 25.3597 30.3065 25.638L30.7067 25.5431ZM31.9012 27.1115V28.2751H30.3378V27.1115H31.9012ZM29.9063 29.0593H30.3378V28.6862H31.9012V29.0214H32.3514V26.6941H29.9063V29.0593ZM29.4873 26.1439H32.7016V25.7139H29.4873V26.1439ZM34.8653 23.6332L34.7903 23.6522H32.9517V29.053H33.402V24.0949H34.5839C34.3901 24.6008 34.1149 25.2838 33.8585 25.815C34.4901 26.3652 34.6652 26.8332 34.6652 27.2316C34.6652 27.4593 34.6277 27.649 34.4964 27.7312C34.4213 27.7755 34.3213 27.7945 34.2275 27.8008C34.0961 27.8071 33.9273 27.8071 33.7334 27.7882C33.8147 27.921 33.8585 28.1233 33.8648 28.2561C34.0461 28.2625 34.2525 28.2625 34.4088 28.2435C34.5714 28.2245 34.7027 28.1803 34.8153 28.1044C35.0342 27.9589 35.1217 27.668 35.1217 27.2822C35.1155 26.8332 34.9591 26.3336 34.3338 25.7518C34.6277 25.1763 34.9466 24.449 35.203 23.8546L34.8653 23.6332Z" fill="#535353"/>
<path d="M41.1126 23.3423H40.6873V25.9605C40.6873 26.0364 40.6561 26.0617 40.5748 26.068C40.4747 26.0743 40.1746 26.0743 39.8369 26.0617C39.8994 26.1755 39.9619 26.3336 39.9807 26.4538C40.4184 26.4538 40.7061 26.4538 40.8812 26.3842C41.0626 26.3146 41.1126 26.2008 41.1126 25.9605V23.3423ZM39.6868 23.5257H39.2678V25.638H39.6868V23.5257ZM37.2041 25.1257H36.1098V26.302H36.485V25.4419H37.2041V26.4664H37.6044V25.4419H38.3673V25.8909C38.3673 25.9415 38.3548 25.9605 38.2985 25.9605C38.2422 25.9668 38.0859 25.9668 37.8795 25.9605C37.9233 26.049 37.9858 26.1692 38.0046 26.2641C38.2797 26.2641 38.4673 26.2641 38.5924 26.2071C38.73 26.1565 38.7488 26.068 38.7488 25.8909V25.1257H37.6044V24.7905H38.9364V24.449H37.6044V24.0569H38.7175V23.7281H37.6044V23.2791H37.2041V23.7281H36.6288C36.6726 23.6143 36.7226 23.5067 36.7601 23.3929L36.3912 23.3044C36.2849 23.6522 36.1098 24.0063 35.8972 24.2593C35.9847 24.3036 36.1535 24.3858 36.2286 24.4427C36.3099 24.3352 36.3912 24.2024 36.4662 24.0569H37.2041V24.449H35.8033V24.7905H37.2041V25.1257ZM40.7061 27.1494C40.4184 27.3644 39.9369 27.6427 39.5492 27.8324C39.3241 27.6174 39.1365 27.3771 38.9864 27.0988H41.3502V26.7067H38.8175V26.3336H38.3548V26.7067H35.8284V27.0988H37.9983C37.3917 27.472 36.5037 27.7692 35.7221 27.9146C35.8096 28.0032 35.9284 28.155 35.9784 28.2625C36.3787 28.1739 36.8102 28.0475 37.2229 27.883V28.5218C36.9853 28.5597 36.7726 28.5913 36.585 28.6166L36.6601 29.0087L39.124 28.604L39.0989 28.2245C38.6112 28.3004 38.1171 28.3826 37.6669 28.4522V27.687C38.0046 27.5226 38.3173 27.3392 38.5737 27.1431C39.0489 28.1613 39.9182 28.8063 41.1876 29.0656C41.2439 28.9518 41.3565 28.7747 41.4503 28.6862C40.8124 28.5787 40.2746 28.37 39.8494 28.0664C40.2371 27.8894 40.6873 27.6427 41.0438 27.3961L40.7061 27.1494Z" fill="#535353"/>
<path d="M42.8448 27.1747C42.8823 26.985 42.9198 26.7826 42.9574 26.5866H43.8891V26.7004H44.3081V25.189H43.3451C43.9016 24.8095 44.3832 24.3036 44.6583 23.6775L44.3707 23.5257L44.2894 23.5447H42.5947V23.9305H44.0455C43.8891 24.1708 43.6828 24.3984 43.4514 24.5945C43.2638 24.4174 42.9574 24.1897 42.701 24.0316L42.4321 24.2973C42.6697 24.4427 42.9574 24.6577 43.1325 24.8411C42.7573 25.1004 42.3258 25.3091 41.913 25.4356C41.9943 25.5178 42.1069 25.6759 42.1632 25.7834C42.3758 25.7075 42.5884 25.619 42.7948 25.5115V25.5684H43.8891V26.2198H42.6322C42.5571 26.6814 42.4321 27.2696 42.332 27.649L42.7197 27.7186L42.7635 27.5415H43.8704C43.8016 28.2182 43.7391 28.5091 43.639 28.604C43.589 28.6546 43.5202 28.6609 43.4076 28.6609C43.2825 28.6609 42.9449 28.6546 42.6009 28.6229C42.676 28.7305 42.7322 28.9012 42.7385 29.0214C43.0824 29.0403 43.4076 29.0403 43.5702 29.034C43.7641 29.0214 43.8766 28.9897 43.9829 28.8822C44.1455 28.7178 44.2268 28.3257 44.3081 27.3644C44.3206 27.3075 44.3269 27.1747 44.3269 27.1747H42.8448ZM46.5344 27.3265C46.3843 27.6174 46.1717 27.8577 45.9153 28.0538C45.6401 27.8514 45.4212 27.6048 45.2837 27.3265H46.5344ZM46.822 26.966L46.747 26.985H44.6771V27.3265H45.1586L44.9022 27.4024C45.0585 27.7439 45.2837 28.0348 45.5651 28.2814C45.1961 28.4838 44.7709 28.6229 44.3206 28.7115C44.3957 28.8 44.4895 28.9581 44.527 29.0593C45.0273 28.9455 45.4963 28.7747 45.8965 28.5281C46.2842 28.7747 46.747 28.9518 47.2785 29.053C47.3411 28.9392 47.4536 28.7558 47.5537 28.6672C47.0659 28.5977 46.6282 28.4585 46.2592 28.2688C46.6157 27.9652 46.9033 27.5731 47.0784 27.0735L46.822 26.966ZM47.191 23.9558C46.9846 24.1708 46.6407 24.4743 46.353 24.6767C46.1904 24.5629 46.0403 24.4364 45.8965 24.2973C46.1779 24.1012 46.5281 23.8293 46.797 23.57L46.4531 23.3233C46.253 23.5384 45.934 23.8356 45.6651 24.0443C45.465 23.8103 45.3024 23.5573 45.1774 23.2791L44.8084 23.3992C45.1336 24.1265 45.6589 24.7273 46.3155 25.1637H44.9085V25.6506C44.9085 25.9605 44.8209 26.302 44.3269 26.5739C44.4082 26.6309 44.5645 26.7826 44.6271 26.8648C45.1774 26.5423 45.3024 26.0743 45.3024 25.6633V25.5431H46.1529V26.1123C46.1529 26.4095 46.1842 26.5107 46.2592 26.5866C46.3468 26.6562 46.4843 26.6814 46.6032 26.6814H46.9096C46.9971 26.6814 47.1222 26.6688 47.1847 26.6498C47.266 26.6182 47.3348 26.5739 47.3723 26.5044C47.4099 26.4348 47.4286 26.2451 47.4411 26.087C47.3286 26.0554 47.1785 25.9795 47.1034 25.9099C47.0972 26.068 47.0909 26.1882 47.0784 26.2388C47.0597 26.283 47.0284 26.3146 47.0034 26.3273C46.9784 26.3399 46.9221 26.3399 46.8658 26.3399H46.6845C46.6344 26.3399 46.6032 26.3336 46.5781 26.3146C46.5531 26.2957 46.5469 26.2324 46.5469 26.1502V25.3028C46.8283 25.4672 47.1222 25.5937 47.4411 25.6949C47.5099 25.5811 47.6287 25.4166 47.7288 25.3218C47.3473 25.2206 46.9909 25.0688 46.6657 24.8791C46.9471 24.6957 47.2785 24.4364 47.5349 24.1961L47.191 23.9558Z" fill="#535353"/>
<path d="M53.9385 24.4427V24.0253H51.0369C51.1244 23.8229 51.212 23.6079 51.287 23.3992L50.8493 23.2854C50.6179 23.9874 50.2177 24.6641 49.7549 25.1067C49.8612 25.17 50.0488 25.3154 50.1301 25.3977C50.374 25.1384 50.6117 24.8095 50.818 24.4427H53.9385ZM53.3945 25.3407V24.9423H50.6242V25.3407H53.3945ZM49.9113 24.0696C49.6799 23.8672 49.2109 23.589 48.8544 23.4119L48.5918 23.7534C48.9482 23.9431 49.411 24.2403 49.6361 24.449L49.9113 24.0696ZM49.5611 25.7075C49.3172 25.5305 48.8294 25.2775 48.4667 25.1257L48.2228 25.4735C48.5855 25.6506 49.067 25.9162 49.3047 26.0933L49.5611 25.7075ZM48.8169 28.9265C49.1421 28.3637 49.5173 27.6174 49.805 26.9913L49.4548 26.6878C49.1296 27.3644 48.7043 28.155 48.4104 28.6166L48.8169 28.9265ZM50.0551 25.8656V26.2894H52.7691C52.7941 27.9589 52.8754 29.0656 53.5321 29.072C53.876 29.0656 53.9573 28.7874 53.9948 28.0411C53.901 27.9779 53.7822 27.8704 53.7009 27.7692C53.6884 28.2625 53.6571 28.6293 53.5696 28.6293C53.2569 28.6293 53.2194 27.4277 53.2131 25.8656H50.0551Z" fill="#535353"/>
<path d="M55.6645 26.8079V26.1565H57.0965V26.8079H55.6645ZM55.6645 25.1384H57.0965V25.7834H55.6645V25.1384ZM59.0289 25.1384V25.7834H57.5656V25.1384H59.0289ZM59.0289 26.8079H57.5656V26.1565H59.0289V26.8079ZM60.1483 27.7123H57.5656V27.1937H59.4916V24.7463H57.5656V24.2846H59.9356V23.8546H57.5656V23.2854H57.0965V23.8546H54.7577V24.2846H57.0965V24.7463H55.2205V27.1937H57.0965V27.7123H54.5701V28.136H57.0965V29.072H57.5656V28.136H60.1483V27.7123Z" fill="#535353"/>
<path d="M65.7264 24.7526H64.4257V23.9747H65.7264V24.7526ZM66.1829 23.6016H63.9942V25.1257H66.1829V23.6016ZM63.1875 24.1075C63.1437 24.5502 63.0999 24.7399 63.0499 24.8032C63.0061 24.8475 62.9561 24.8538 62.881 24.8538C62.7998 24.8538 62.5996 24.8475 62.387 24.8285C62.4433 24.9297 62.4808 25.0814 62.4933 25.189C62.7247 25.2016 62.9561 25.2016 63.0687 25.1953C63.2125 25.1826 63.3125 25.151 63.3938 25.0625C63.5127 24.936 63.5752 24.6324 63.6252 23.9115C63.6377 23.8482 63.6377 23.7344 63.6377 23.7344H62.3495C62.3745 23.589 62.3933 23.4435 62.4058 23.2854H61.968C61.9555 23.4435 61.9368 23.589 61.9055 23.7344H60.9174V24.1075H61.8117C61.6554 24.5818 61.3552 24.9423 60.7423 25.1637C60.8362 25.2395 60.9425 25.3913 60.9925 25.4862C61.7367 25.1953 62.0869 24.7273 62.262 24.1075H63.1875ZM61.1613 29.053C61.4177 28.7684 61.6866 28.37 61.893 28.0791L61.5178 27.8704C61.3364 28.155 61.0488 28.566 60.7736 28.819L61.1613 29.053ZM62.3057 28.0601C62.3933 28.3447 62.4746 28.7178 62.4871 28.9581L62.9061 28.8822C62.8811 28.6419 62.7935 28.2688 62.6934 27.9905L62.3057 28.0601ZM63.3313 28.0664C63.4814 28.3131 63.6377 28.6546 63.7003 28.8822L64.0817 28.7494C64.0129 28.5344 63.8441 28.2056 63.6878 27.9526L63.3313 28.0664ZM63.6127 25.7645V26.1312H62.0743V25.7645H63.6127ZM63.6127 26.7763H62.0743V26.4222H63.6127V26.7763ZM63.6127 27.434H62.0743V27.0672H63.6127V27.434ZM64.063 27.434V27.0672H65.5638V26.7763H64.063V26.4222H65.5513V26.1312H64.063V25.7645H65.8014V25.4356H61.6178V27.7692H61.918V27.7755H65.7452C65.6826 28.3384 65.6138 28.585 65.5325 28.6609C65.4888 28.7115 65.4387 28.7178 65.3449 28.7178C65.2636 28.7178 65.0385 28.7115 64.7884 28.6862C64.8509 28.7937 64.8884 28.9455 64.8947 29.0593C65.1636 29.0783 65.42 29.0783 65.5513 29.0656C65.7014 29.0593 65.8014 29.0214 65.889 28.9265C66.0328 28.7874 66.1141 28.4395 66.1954 27.6111C66.2079 27.5542 66.2142 27.434 66.2142 27.434H64.063ZM65.1261 28.4585C65.0385 28.2814 64.8384 28.0411 64.6508 27.8641L64.3319 28.0095C64.507 28.1992 64.7071 28.4522 64.7884 28.6293L65.1261 28.4585Z" fill="#535353"/>
<path d="M67.2773 28.6862C67.3898 28.3004 67.4711 27.6807 67.5212 27.2633L67.246 27.1684C67.196 27.5858 67.0959 28.2056 66.9834 28.566L67.2773 28.6862ZM67.6963 27.2569C67.7588 27.6301 67.7963 28.1044 67.7838 28.4206L68.0402 28.3826C68.0464 28.0728 68.0089 27.5984 67.9401 27.2316L67.6963 27.2569ZM67.69 25.853H68.3216V26.4411H67.69V25.853ZM68.3216 23.9368V24.4996H67.69V23.9368H68.3216ZM68.3216 25.4799H67.69V24.8791H68.3216V25.4799ZM68.7093 26.4411V25.853H69.391V25.4799H68.7093V24.8791H69.391V24.4996H68.7093V23.9368H69.5223V23.5384H67.2898V26.8269H69.1658C69.1408 27.2063 69.1221 27.5099 69.097 27.7565C69.0345 27.5415 68.8969 27.2506 68.7719 27.0229L68.553 27.0988C68.6968 27.3581 68.8344 27.6996 68.8907 27.9273L69.0908 27.8451C69.0533 28.3194 68.997 28.5407 68.9344 28.6229C68.8844 28.6799 68.8344 28.6925 68.7531 28.6862C68.6655 28.6862 68.4592 28.6862 68.2278 28.6609C68.2903 28.7747 68.3279 28.9265 68.3404 29.0467C68.5655 29.0593 68.7969 29.0593 68.9157 29.0467C69.0658 29.034 69.1658 28.9897 69.2659 28.8822C69.416 28.6925 69.491 28.155 69.5661 26.6372C69.5723 26.5739 69.5786 26.4411 69.5786 26.4411H68.7093ZM68.6155 28.1613C68.5905 27.8957 68.4904 27.4783 68.3654 27.1558L68.134 27.2063C68.2466 27.5289 68.3466 27.9526 68.3716 28.2245L68.6155 28.1613ZM70.1289 24.683H70.9106V25.9668H70.1289V24.683ZM72.1675 24.683V25.9668H71.3483V24.683H72.1675ZM72.599 26.3779V24.2783H71.3483V23.3107H70.9106V24.2783H69.7161V26.3779H70.9106C70.8981 26.789 70.8543 27.2127 70.7042 27.5921C70.4603 27.3075 70.279 26.9724 70.1539 26.5929L69.7662 26.6814C69.935 27.1937 70.1664 27.6301 70.4791 27.9779C70.2664 28.2814 69.935 28.5281 69.4472 28.6988C69.541 28.7874 69.6724 28.9644 69.7286 29.0593C70.2102 28.8633 70.5479 28.5913 70.7917 28.2814C71.2357 28.6609 71.8111 28.9202 72.5052 29.0656C72.5677 28.9455 72.6866 28.7621 72.7804 28.6672C72.055 28.5344 71.4734 28.2878 71.0231 27.9083C71.2545 27.4467 71.3295 26.9028 71.342 26.3779H72.599Z" fill="#535353"/>
<path d="M77.2203 24.5123V23.2854H76.7889V24.5123H75.9384V24.936H74.8753V24.3352H75.7883V23.9305H74.8753V23.2791H74.4375V23.9305H73.4995V24.3352H74.4375V24.936H73.2619V25.3344H75.2818C75.213 25.6063 75.0754 26.0048 74.9628 26.2451L75.1629 26.3083H74.1311L74.35 26.2388C74.3187 25.9984 74.1874 25.619 74.0436 25.3344L73.6934 25.4293C73.8184 25.7075 73.9248 26.068 73.9685 26.3083H73.3494V26.7194H74.4375V27.3771H73.4182V27.7755H74.4375V29.0403H74.8753V27.7755H75.8508V27.3771H74.8753V26.7194H75.9509V26.3083H75.3255C75.4444 26.068 75.5694 25.7392 75.682 25.4293L75.3318 25.3344H76.0384V24.955H76.7889V25.1763C76.7889 25.5178 76.7763 25.8783 76.7263 26.2451C76.5262 26.0996 76.3261 25.9605 76.1322 25.8403L75.8821 26.1629C76.1322 26.321 76.3949 26.517 76.645 26.7194C76.4762 27.4593 76.1072 28.1929 75.338 28.7747C75.4569 28.8443 75.6257 28.9834 75.6945 29.0656C76.4387 28.4901 76.8201 27.7755 77.0202 27.0356C77.2516 27.2506 77.458 27.4593 77.5893 27.6364L77.8645 27.2633C77.6956 27.0482 77.4267 26.7953 77.1265 26.5486C77.2016 26.0807 77.2203 25.6127 77.2203 25.1763V24.955H77.952C77.9395 27.1874 77.9082 28.8316 78.5336 29.0403C78.8463 29.1605 79.0339 28.9202 79.0714 27.7945C79.0026 27.7502 78.865 27.6111 78.7775 27.5036C78.7712 28.0854 78.7274 28.5977 78.6899 28.585C78.3272 28.4901 78.3647 26.77 78.396 24.5123H77.2203Z" fill="#535353"/>
<path d="M81.2101 23.9747V25.0751H80.2721V23.9747H81.2101ZM80.2721 26.7257V25.4925H81.2101V26.7257H80.2721ZM80.2721 27.1494H81.6416V23.551H79.8343V27.472H80.2721V27.1494ZM79.9656 29.0909C80.2533 28.7305 80.566 28.1866 80.7786 27.7186L80.3408 27.5921C80.1282 28.0538 79.803 28.566 79.5216 28.8886L79.9656 29.0909ZM81.3664 27.7755C81.4477 28.1866 81.4977 28.7178 81.4977 29.034L81.9543 28.9644C81.948 28.6546 81.8792 28.1297 81.7979 27.7249L81.3664 27.7755ZM84.5245 23.9621C84.4807 24.5565 84.4306 24.8032 84.3556 24.8854C84.3181 24.9297 84.2555 24.9423 84.1617 24.9423C84.0679 24.9423 83.8115 24.936 83.5364 24.9107C83.6052 25.0182 83.649 25.1826 83.6615 25.2965C83.9429 25.3154 84.218 25.3154 84.3619 25.3028C84.5244 25.2965 84.6308 25.2585 84.7246 25.1573C84.8621 25.0119 84.9184 24.6388 84.9747 23.7281C84.981 23.6648 84.9872 23.5447 84.9872 23.5447H81.9167V23.9621H82.9548C82.8298 24.5502 82.5358 24.9486 81.7229 25.17C81.8104 25.2522 81.9292 25.4229 81.973 25.5241C82.9298 25.2332 83.2675 24.7273 83.4113 23.9621H84.5245ZM84.3556 26.9597H82.5358V25.9984H84.3556V26.9597ZM84.8121 25.6127H82.0981V27.3518H84.8121V25.6127ZM82.6984 27.7565C82.861 28.155 83.0174 28.6988 83.0799 29.0214L83.5364 28.9139C83.4739 28.585 83.2988 28.0664 83.1299 27.668L82.6984 27.7565ZM83.9679 27.7186C84.2618 28.136 84.6057 28.7178 84.7496 29.0656L85.1936 28.8633C85.031 28.5091 84.6808 27.9526 84.3806 27.5415L83.9679 27.7186Z" fill="#535353"/>
<rect x="7.05566" y="4.6136" width="121.435" height="70.7727" rx="0.75" stroke="#EFE2D1" stroke-width="0.5"/>
<line x1="91.25" y1="4.3636" x2="91.25" y2="45.0909" stroke="#EFE2D1" stroke-width="0.5"/>
<line x1="8.25781" y1="44.8409" x2="128.742" y2="44.8409" stroke="#EFE2D1" stroke-width="0.5"/>
<line x1="8.25781" y1="55.0227" x2="128.742" y2="55.0227" stroke="#EFE2D1" stroke-width="0.5"/>
<line x1="8.25781" y1="65.2045" x2="128.742" y2="65.2045" stroke="#EFE2D1" stroke-width="0.5"/>
<line x1="8.25781" y1="34.6591" x2="90.9997" y2="34.6591" stroke="#EFE2D1" stroke-width="0.5"/>
<line x1="24.4766" y1="34.9091" x2="24.4766" y2="55.2727" stroke="#EFE2D1" stroke-width="0.5"/>
<line x1="24.4766" y1="65.4545" x2="24.4766" y2="75.6364" stroke="#EFE2D1" stroke-width="0.5"/>
<line x1="60.7666" y1="34.9091" x2="60.7666" y2="55.2727" stroke="#EFE2D1" stroke-width="0.5"/>
<line x1="60.7666" y1="65.4545" x2="60.7666" y2="75.6364" stroke="#EFE2D1" stroke-width="0.5"/>
<ellipse cx="14.0659" cy="40.7272" rx="1.45161" ry="1.45455" fill="#C4C4C4"/>
<ellipse cx="66.3227" cy="40.7272" rx="1.45161" ry="1.45455" fill="#C4C4C4"/>
<ellipse cx="66.3227" cy="49.4545" rx="1.45161" ry="1.45455" fill="#C4C4C4"/>
<ellipse cx="66.3227" cy="69.8182" rx="1.45161" ry="1.45455" fill="#C4C4C4"/>
<ellipse cx="14.0659" cy="50.9091" rx="1.45161" ry="1.45455" fill="#C4C4C4"/>
<ellipse cx="14.0659" cy="61.0909" rx="1.45161" ry="1.45455" fill="#C4C4C4"/>
<ellipse cx="14.0659" cy="69.8182" rx="1.45161" ry="1.45455" fill="#C4C4C4"/>
<ellipse cx="19.8715" cy="40.7272" rx="1.45161" ry="1.45455" fill="#C4C4C4"/>
<ellipse cx="72.1284" cy="40.7272" rx="1.45161" ry="1.45455" fill="#C4C4C4"/>
<ellipse cx="72.1284" cy="49.4545" rx="1.45161" ry="1.45455" fill="#C4C4C4"/>
<ellipse cx="72.1284" cy="69.8182" rx="1.45161" ry="1.45455" fill="#C4C4C4"/>
<ellipse cx="19.8715" cy="50.9091" rx="1.45161" ry="1.45455" fill="#C4C4C4"/>
<ellipse cx="19.8715" cy="61.0909" rx="1.45161" ry="1.45455" fill="#C4C4C4"/>
<ellipse cx="19.8715" cy="69.8182" rx="1.45161" ry="1.45455" fill="#C4C4C4"/>
<defs>
<filter id="filter0_d_297_31075" x="0" y="0" width="139" height="84" filterUnits="userSpaceOnUse" color-interpolation-filters="sRGB">
<feFlood flood-opacity="0" result="BackgroundImageFix"/>
<feColorMatrix in="SourceAlpha" type="matrix" values="0 0 0 0 0 0 0 0 0 0 0 0 0 0 0 0 0 0 127 0" result="hardAlpha"/>
<feOffset dx="1" dy="2"/>
<feGaussianBlur stdDeviation="1"/>
<feComposite in2="hardAlpha" operator="out"/>
<feColorMatrix type="matrix" values="0 0 0 0 0.716667 0 0 0 0 0.716667 0 0 0 0 0.716667 0 0 0 0.24 0"/>
<feBlend mode="normal" in2="BackgroundImageFix" result="effect1_dropShadow_297_31075"/>
<feBlend mode="normal" in="SourceGraphic" in2="effect1_dropShadow_297_31075" result="shape"/>
</filter>
<linearGradient id="paint0_linear_297_31075" x1="68.5" y1="0" x2="68.5" y2="80" gradientUnits="userSpaceOnUse">
<stop stop-color="#FFF7ED"/>
<stop offset="1" stop-color="#FFF4E6"/>
</linearGradient>
<radialGradient id="paint1_radial_297_31075" cx="0" cy="0" r="1" gradientUnits="userSpaceOnUse" gradientTransform="translate(98.9712 28.363) scale(6.51642 5.29447)">
<stop stop-color="#EF7F91" stop-opacity="0.7"/>
<stop offset="1" stop-color="white" stop-opacity="0"/>
</radialGradient>
<radialGradient id="paint2_radial_297_31075" cx="0" cy="0" r="1" gradientUnits="userSpaceOnUse" gradientTransform="translate(120.746 28.3763) scale(6.51642 5.29447)">
<stop stop-color="#EF7F91" stop-opacity="0.7"/>
<stop offset="1" stop-color="white" stop-opacity="0"/>
</radialGradient>
</defs>
</svg>
