<svg width="94" height="56" viewBox="0 0 94 56" fill="none" xmlns="http://www.w3.org/2000/svg">
<g filter="url(#filter0_d_303_11638)">
<rect x="1" width="90" height="52" rx="6" fill="url(#paint0_linear_303_11638)"/>
</g>
<path d="M23.0673 12.1498V10.8564H24.3792V12.1498H23.0673ZM21.0299 12.1498V10.8564H22.3359V12.1498H21.0299ZM23.0673 10.1526V9.11188H22.3359V10.1526H20.3333V13.1845H21.0299V12.8536H22.3359V14.7305H23.0673V12.8536H24.3792V13.1544H25.1048V10.1526H23.0673Z" fill="#535353"/>
<path d="M27.1596 10.4173H27.8329V10.0804H29.168V10.4173H29.8414V10.0804H31.0894V9.44876H29.8414V9.1179H29.168V9.44876H27.8329V9.1179H27.1596V9.44876H25.9464V10.0804H27.1596V10.4173ZM29.4757 12.4746H28.8372V12.0956H29.4757V12.4746ZM27.5601 12.4746V12.0956H28.158V12.4746H27.5601ZM27.5601 11.1391H28.158V11.5001H27.5601V11.1391ZM29.4757 11.5001H28.8372V11.1391H29.4757V11.5001ZM31.1416 12.0956V11.5001H30.1142V11.1391H30.7411V10.5556H26.3295V11.1391H26.9158V11.5001H25.8884V12.0956H26.9158V12.4746H26.2715V13.0581H28.158V13.407H25.9696V14.0206H28.158V14.7305H28.8372V14.0206H31.0894V13.407H28.8372V13.0581H30.8166V12.4746H30.1142V12.0956H31.1416Z" fill="#535353"/>
<path d="M33.0165 11.9573V11.3617H34.2819C34.2994 11.5663 34.3226 11.7648 34.3516 11.9573H33.0165ZM35.8028 10.0503V10.7H33.0165V10.0503H35.8028ZM36.9173 12.625V11.9573H35.0714C35.0365 11.7648 35.0133 11.5663 34.9959 11.3617H36.5051V9.38259H32.3084V13.8161C32.0878 13.8462 31.8788 13.8642 31.6989 13.8823L31.8382 14.6282C32.5928 14.5259 33.6202 14.3876 34.578 14.2492L34.5548 13.5394C34.044 13.6056 33.5099 13.6717 33.0165 13.7379V12.625H34.4909C34.8102 13.8402 35.4255 14.7305 36.1801 14.7365C36.7025 14.7365 36.9463 14.5139 37.045 13.5033C36.865 13.4491 36.6038 13.3048 36.4471 13.1604C36.4181 13.768 36.3542 14.0206 36.2207 14.0206C35.884 14.0266 35.4835 13.4431 35.2339 12.625H36.9173Z" fill="#535353"/>
<path d="M39.4945 12.1377H39.1056V11.7527H39.4945V12.1377ZM39.9589 11.3738H38.6645V12.5167H39.9589V11.3738ZM38.3046 13.8582V10.0142H41.1024L40.8354 10.2909C40.9863 10.3752 41.1605 10.5015 41.2824 10.6098H40.6555C40.6439 10.4413 40.6381 10.2729 40.6323 10.0984H40.0634C40.075 10.2729 40.0808 10.4413 40.0924 10.6098H38.5194V11.1151H40.1331C40.1853 11.7106 40.2608 12.2581 40.3827 12.6912C40.2898 12.7995 40.1969 12.9017 40.0924 12.998L40.0808 12.6912C39.4771 12.7754 38.8734 12.8536 38.4497 12.8957L38.5135 13.4191C38.8967 13.3529 39.3552 13.2867 39.8196 13.2145C39.7557 13.2566 39.6919 13.2988 39.628 13.3348C39.7441 13.4311 39.9299 13.6597 40.0054 13.768C40.2259 13.6236 40.4233 13.4491 40.609 13.2566C40.7251 13.4552 40.8702 13.5935 41.0444 13.6537C41.4275 13.8341 41.7293 13.6056 41.8222 12.8656C41.7061 12.7995 41.4972 12.637 41.3927 12.5288C41.3694 12.8777 41.323 13.1123 41.2534 13.0942C41.1547 13.0702 41.0676 12.9559 40.9921 12.7694C41.2534 12.3784 41.4623 11.9152 41.6016 11.3918L41.0734 11.2835C41.0038 11.5542 40.9167 11.8069 40.8006 12.0355C40.7542 11.7648 40.7193 11.452 40.6903 11.1151H41.7293V10.6098H41.4507L41.6829 10.3571C41.5784 10.2428 41.3869 10.1105 41.2069 10.0142H41.9151V13.8582H38.3046ZM37.6487 9.37056V14.7485H38.3046V14.4959H41.9151V14.7485H42.6V9.37056H37.6487Z" fill="#535353"/>
<path d="M44.8813 12.0415H46.8955V12.1498C46.8258 12.2099 46.7562 12.2761 46.6807 12.3363C46.0654 12.3723 45.4501 12.4084 44.8813 12.4385V12.0415ZM46.8955 10.297V10.6459H44.8813V10.297H46.8955ZM46.8955 11.5181H44.8813V11.1572H46.8955V11.5181ZM47.9055 10.9106C47.8126 11.0609 47.714 11.2113 47.6095 11.3497V9.68337H46.1641C46.2512 9.52696 46.3441 9.35852 46.4253 9.18407L45.5778 9.09985C45.5372 9.26829 45.4675 9.47884 45.3921 9.68337H44.1905V12.4746C43.8713 12.4866 43.5868 12.4987 43.3372 12.5107L43.4301 13.2206C44.057 13.1784 44.8523 13.1123 45.6881 13.0401C44.9625 13.4672 44.1383 13.7981 43.256 14.0266C43.3895 14.1891 43.6217 14.5079 43.7203 14.6823C44.8871 14.3214 45.9726 13.7981 46.8955 13.0822V13.8522C46.8955 13.9545 46.8549 13.9906 46.7388 13.9906C46.6227 13.9966 46.2105 14.0026 45.8507 13.9785C45.9493 14.1831 46.0654 14.5199 46.0944 14.7305C46.6517 14.7365 47.0232 14.7184 47.2786 14.5981C47.534 14.4838 47.6095 14.2673 47.6095 13.8582V12.4566C47.9694 12.0896 48.2944 11.6926 48.573 11.2474L47.9055 10.9106Z" fill="#535353"/>
<path d="M52.1429 9.46079C52.4622 10.0924 52.8975 10.7541 53.3561 11.3076H50.2216C50.6801 10.7662 51.0865 10.1045 51.3709 9.41267L50.6279 9.19009C50.2796 10.1045 49.6411 10.9346 48.9155 11.4399C49.0839 11.5663 49.3799 11.855 49.5076 12.0174C49.6643 11.8911 49.8211 11.7467 49.972 11.5843V12.0054H50.953C50.8369 12.8837 50.535 13.6717 49.2232 14.1109C49.3915 14.2733 49.5947 14.568 49.6817 14.7726C51.1851 14.1891 51.5625 13.1604 51.7076 12.0054H52.8511C52.7988 13.2627 52.735 13.7981 52.6189 13.9244C52.555 13.9966 52.4912 14.0086 52.3867 14.0086C52.2416 14.0086 51.9398 14.0026 51.6205 13.9785C51.7424 14.1831 51.8353 14.4838 51.8469 14.7004C52.1894 14.7124 52.526 14.7124 52.7234 14.6823C52.9498 14.6523 53.1065 14.5921 53.2516 14.3996C53.4548 14.147 53.5244 13.4371 53.5883 11.6204V11.5783C53.716 11.7166 53.8379 11.849 53.9598 11.9633C54.0933 11.7588 54.3603 11.47 54.5461 11.3196C53.9133 10.8143 53.1878 9.94204 52.8221 9.17806L52.1429 9.46079Z" fill="#535353"/>
<path d="M56.6822 9.29837H55.1207V9.83977H56.6822V9.29837ZM56.8853 10.1045H54.8305V10.6699H56.8853V10.1045ZM56.6938 11.7648H55.0859V12.3002H56.6938V11.7648ZM56.1365 13.1544V13.8462H55.6315V13.1544H56.1365ZM56.7054 12.5949H55.0685V14.6463H55.6315V14.4056H56.7054V12.5949ZM59.0273 13.9184H57.9998L58.3249 13.8221C58.2843 13.5995 58.1798 13.2807 58.0579 13.0281H58.946C58.8879 13.2747 58.7719 13.6056 58.6848 13.8341L59.0273 13.9184ZM57.8605 12.0896H59.1201V12.4866H57.8605V12.0896ZM57.7676 11.2835H59.1956V10.9767C59.3523 11.1993 59.5381 11.3858 59.747 11.5422H57.3033C57.4716 11.4038 57.6283 11.2414 57.7676 11.0609V11.2835ZM59.7877 11.5723C59.8225 11.5963 59.8631 11.6204 59.898 11.6445C59.9908 11.476 60.1824 11.2234 60.3333 11.097C60.1069 10.9767 59.9154 10.8083 59.747 10.6098C59.9038 10.5135 60.0779 10.4052 60.2579 10.297L59.8864 9.88188C59.7877 9.98415 59.6367 10.1225 59.4974 10.2428C59.4394 10.1526 59.393 10.0563 59.3465 9.95407C59.5149 9.85782 59.7006 9.73751 59.898 9.6172L59.5497 9.2322C59.4626 9.32243 59.3233 9.44876 59.1898 9.55704C59.1434 9.41267 59.1027 9.26829 59.0679 9.1179L58.4816 9.2322C58.6093 9.79767 58.7893 10.309 59.0331 10.7301H57.994C58.2146 10.3571 58.3829 9.91798 58.4874 9.4247L58.1566 9.30438V9.29837H58.145L58.0985 9.28032L57.9998 9.29837H57.0014V9.84579H57.756C57.7096 9.9661 57.6574 10.0804 57.5993 10.1947C57.489 10.1045 57.3671 10.0142 57.2568 9.94806L56.8911 10.3571C57.0188 10.4474 57.1582 10.5616 57.2743 10.682C57.1059 10.8865 56.9086 11.0609 56.6938 11.1873V10.9406H55.0859V11.4881H56.6938V11.3016C56.8041 11.4339 56.9376 11.6264 57.0014 11.7588C57.0827 11.7106 57.164 11.6565 57.2394 11.5963V13.0281H57.8837L57.4542 13.1484C57.5645 13.383 57.6632 13.6898 57.7038 13.9184H56.9027V14.532H60.1534V13.9184H59.2769C59.3755 13.7078 59.4916 13.4251 59.6019 13.1363L59.1376 13.0281H59.7877V11.5723Z" fill="#535353"/>
<path d="M16.2256 6.5H10.1353C8.82728 6.5 7.76691 7.54467 7.76691 8.83333V14.8333C7.76691 16.122 8.82728 17.1667 10.1353 17.1667H16.2256C17.5336 17.1667 18.594 16.122 18.594 14.8333V8.83333C18.594 7.54467 17.5336 6.5 16.2256 6.5Z" fill="#FF4B55"/>
<path d="M16.2256 6.5H10.1353C8.82728 6.5 7.76691 7.54467 7.76691 8.83333V14.8333C7.76691 16.122 8.82728 17.1667 10.1353 17.1667H16.2256C17.5336 17.1667 18.594 16.122 18.594 14.8333V8.83333C18.594 7.54467 17.5336 6.5 16.2256 6.5Z" fill="#DE2910"/>
<path d="M7.84951 12.0556H13.205C13.316 12.0556 13.406 11.9669 13.406 11.8575V6.58138C13.406 6.53644 13.369 6.5 13.3234 6.5H10.0225C8.66 6.5 7.76691 7.58819 7.76691 8.93056V11.9742C7.76691 12.0191 7.80389 12.0556 7.84951 12.0556Z" fill="#00008B"/>
<path d="M9.71152 9.27773C9.71152 9.03983 9.80937 8.82447 9.96755 8.66852L9.2346 8.46197C9.19205 8.44997 9.16156 8.50203 9.19337 8.53233L9.74184 9.05479L9.00168 9.23708C8.95875 9.24765 8.95875 9.30776 9.00168 9.31833L9.74184 9.50062L9.19337 10.0231C9.16156 10.0534 9.19207 10.1054 9.2346 10.0934L9.96755 9.88688C9.80937 9.73098 9.71152 9.51562 9.71152 9.27773Z" fill="#F5F5F5"/>
<path d="M9.968 8.6681C10.1263 8.51226 10.3449 8.41586 10.5864 8.41586C10.8278 8.41586 11.0464 8.51226 11.2047 8.6681L11.4144 7.94601C11.4266 7.90408 11.3737 7.87405 11.3429 7.90538L10.8126 8.44572L10.6276 7.71654C10.6169 7.67424 10.5559 7.67424 10.5451 7.71654L10.3601 8.44572L9.82975 7.90536C9.799 7.87402 9.74616 7.90408 9.75832 7.94599L9.968 8.6681Z" fill="#F5F5F5"/>
<path d="M11.2047 9.88721C11.0464 10.043 10.8278 10.1394 10.5863 10.1394C10.3449 10.1394 10.1263 10.043 9.96798 9.88721L9.75832 10.6093C9.74614 10.6512 9.79898 10.6813 9.82976 10.6499L10.3601 10.1096L10.5451 10.8388C10.5558 10.8811 10.6169 10.8811 10.6276 10.8388L10.8126 10.1096L11.3429 10.6499C11.3737 10.6813 11.4265 10.6512 11.4144 10.6093L11.2047 9.88721Z" fill="#F5F5F5"/>
<path d="M12.171 9.23708L11.4309 9.05479L11.9793 8.53233C12.0111 8.50203 11.9806 8.44997 11.9381 8.46197L11.2051 8.66852C11.3633 8.82447 11.4612 9.03983 11.4612 9.27772C11.4612 9.51559 11.3633 9.73098 11.2051 9.88693L11.9381 10.0935C11.9806 10.1055 12.0111 10.0534 11.9793 10.0231L11.4309 9.50066L12.171 9.31837C12.2139 9.30776 12.2139 9.24765 12.171 9.23708Z" fill="#F5F5F5"/>
<path d="M10.5863 9.96399C10.971 9.96399 11.2828 9.65676 11.2828 9.27777C11.2828 8.89878 10.971 8.59155 10.5863 8.59155C10.2016 8.59155 9.88977 8.89878 9.88977 9.27777C9.88977 9.65676 10.2016 9.96399 10.5863 9.96399Z" fill="#F5F5F5"/>
<rect x="63.0781" y="7.16675" width="24.7143" height="26.3333" rx="1.5" fill="white" stroke="#F9F9F9"/>
<mask id="mask0_303_11638" style="mask-type:alpha" maskUnits="userSpaceOnUse" x="62" y="6" width="27" height="28">
<rect x="63.0781" y="7.16675" width="24.7143" height="26.3333" rx="1.5" fill="white" stroke="#ECECEC"/>
</mask>
<g mask="url(#mask0_303_11638)">
<path d="M64.1584 26C64.1584 26 62.6776 26.9609 62.5842 29.3102C62.4596 31.9414 64.8101 33.9775 67.3163 34.6667L64.1584 26Z" fill="#989899"/>
<path d="M86.7085 26C86.7085 26 88.1698 26.6641 88.2899 29.5104C88.4301 32.6983 85.4274 35.1651 82.2044 36L86.7085 26Z" fill="#989899"/>
<path d="M75.0986 13.3333C68.5497 13.3333 63.2565 18.4847 63.2565 24.8572C63.2565 31.535 66.2508 36.3811 70.5202 38.3845C71.4281 38.8042 72.4713 38.7279 73.3406 38.27C73.8622 37.9838 74.4611 37.8312 75.0986 37.8312C75.7361 37.8312 76.335 37.9838 76.8566 38.27C77.7259 38.747 78.7884 38.8042 79.677 38.3845C83.9464 36.3811 86.9407 31.535 86.9407 24.8572C86.9407 18.4847 81.6475 13.3333 75.0986 13.3333Z" fill="#E7E4E2"/>
<path d="M79.7641 16.0134C78.7236 15.9384 77.7179 16.1822 76.8683 16.6512C75.7585 17.2702 74.458 17.2702 73.3482 16.6512C72.4812 16.1822 71.4928 15.9384 70.4524 16.0134C67.7127 16.2197 65.4931 18.6208 65.3024 21.5846C65.0596 25.0925 67.626 28 70.8165 28C71.7356 28 72.6026 27.7561 73.3655 27.3247C74.4406 26.7244 75.7411 26.7244 76.8162 27.3247C77.5792 27.7561 78.4462 28 79.3652 28C82.5558 28 85.1222 25.0737 84.8967 21.5659C84.7233 18.6208 82.5038 16.2197 79.7641 16.0134Z" fill="white"/>
<path d="M70.6994 23.3333C71.8205 23.3333 72.7294 22.4378 72.7294 21.3333C72.7294 20.2287 71.8205 19.3333 70.6994 19.3333C69.5782 19.3333 68.6693 20.2287 68.6693 21.3333C68.6693 22.4378 69.5782 23.3333 70.6994 23.3333Z" fill="#231F20"/>
<path d="M70.7001 21.9998C71.0739 21.9998 71.3768 21.7014 71.3768 21.3332C71.3768 20.965 71.0739 20.6665 70.7001 20.6665C70.3264 20.6665 70.0234 20.965 70.0234 21.3332C70.0234 21.7014 70.3264 21.9998 70.7001 21.9998Z" fill="white"/>
<path d="M80.1729 23.3333C81.294 23.3333 82.2029 22.4378 82.2029 21.3333C82.2029 20.2287 81.294 19.3333 80.1729 19.3333C79.0517 19.3333 78.1428 20.2287 78.1428 21.3333C78.1428 22.4378 79.0517 23.3333 80.1729 23.3333Z" fill="#231F20"/>
<path d="M79.4965 21.9998C79.8703 21.9998 80.1732 21.7014 80.1732 21.3332C80.1732 20.965 79.8703 20.6665 79.4965 20.6665C79.1228 20.6665 78.8199 20.965 78.8199 21.3332C78.8199 21.7014 79.1228 21.9998 79.4965 21.9998Z" fill="white"/>
<path d="M74.7591 22.2387L75.8445 23.9998L76.7892 22.2387C76.7691 22.2387 75.7842 21.7011 74.7591 22.2387Z" fill="#EC8822"/>
<path d="M67.7723 31.2659C67.2215 31.0513 66.8477 30.5578 66.71 30C66.4739 30.7938 66.8477 31.6306 67.5559 31.9095C68.2641 32.1884 69.051 31.8022 69.3461 31.0299C68.8936 31.3946 68.3231 31.4804 67.7723 31.2659Z" fill="#989899"/>
<path d="M80.3928 34.5991C80.9436 34.3846 81.3174 33.8911 81.4551 33.3333C81.6912 34.1271 81.3174 34.9639 80.6092 35.2428C79.901 35.5217 79.1141 35.1355 78.819 34.3631C79.2715 34.7064 79.842 34.8137 80.3928 34.5991Z" fill="#989899"/>
<path d="M71.918 32.535C71.3648 32.3908 70.926 31.9341 70.7162 31.3333C70.6017 32.2466 71.0786 33.1118 71.8035 33.3041C72.5285 33.4723 73.2152 32.8955 73.406 32.0062C73.0054 32.4389 72.4712 32.6552 71.918 32.535Z" fill="#989899"/>
<path d="M82.4223 31.2659C82.9732 31.0513 83.3469 30.5578 83.4846 30C83.7207 30.7938 83.3469 31.6306 82.6387 31.9095C81.9305 32.1884 81.1436 31.8022 80.8485 31.0299C81.301 31.3946 81.8912 31.4804 82.4223 31.2659Z" fill="#989899"/>
<path d="M78.2771 32.535C78.8303 32.3908 79.269 31.9341 79.4789 31.3333C79.5933 32.2466 79.1164 33.1118 78.3915 33.3041C77.6666 33.4723 76.9798 32.8955 76.7891 32.0062C77.1897 32.4389 77.7238 32.6552 78.2771 32.535Z" fill="#989899"/>
<path d="M75.4364 14C75.4364 14 76.3001 12.9841 77.5315 12.6702C78.5791 12.3931 78.1564 11.6543 77.2007 12.1899C76.4104 12.6332 75.4364 14 75.4364 14Z" fill="#989899"/>
<path d="M74.0803 13.9999C74.0803 13.9999 73.9837 12.8863 73.5682 12.2599C73.2687 11.8075 73.4523 11.3551 73.5972 11.3377C73.8871 11.2681 74.119 12.0163 74.0803 13.9999Z" fill="#989899"/>
<path d="M74.0839 12.6667C74.0839 12.6667 72.5028 11.8141 71.5124 12.0372C70.8174 12.1886 72.9719 12.34 74.0839 12.6667Z" fill="#989899"/>
</g>
<ellipse cx="10.1353" cy="27.6666" rx="2.36842" ry="2.33333" fill="#EBDCD6"/>
<ellipse cx="20.9628" cy="27.6666" rx="2.36842" ry="2.33333" fill="#EBDCD6"/>
<ellipse cx="31.789" cy="27.6666" rx="2.36842" ry="2.33333" fill="#EBDCD6"/>
<rect x="7.76691" y="36" width="35.8647" height="2.66667" rx="1.33333" fill="#EBDCD6"/>
<rect x="7.76691" y="42" width="45.3383" height="2.66667" rx="1.33333" fill="#EBDCD6"/>
<rect x="61.2259" y="42" width="25.7143" height="2.66667" rx="1.33333" fill="#EBDCD6"/>
<defs>
<filter id="filter0_d_303_11638" x="0" y="0" width="94" height="56" filterUnits="userSpaceOnUse" color-interpolation-filters="sRGB">
<feFlood flood-opacity="0" result="BackgroundImageFix"/>
<feColorMatrix in="SourceAlpha" type="matrix" values="0 0 0 0 0 0 0 0 0 0 0 0 0 0 0 0 0 0 127 0" result="hardAlpha"/>
<feOffset dx="1" dy="2"/>
<feGaussianBlur stdDeviation="1"/>
<feComposite in2="hardAlpha" operator="out"/>
<feColorMatrix type="matrix" values="0 0 0 0 0.716667 0 0 0 0 0.716667 0 0 0 0 0.716667 0 0 0 0.24 0"/>
<feBlend mode="normal" in2="BackgroundImageFix" result="effect1_dropShadow_303_11638"/>
<feBlend mode="normal" in="SourceGraphic" in2="effect1_dropShadow_303_11638" result="shape"/>
</filter>
<linearGradient id="paint0_linear_303_11638" x1="1" y1="25.5094" x2="90.9994" y2="25.7337" gradientUnits="userSpaceOnUse">
<stop stop-color="#FCF0FB"/>
<stop offset="0.489583" stop-color="#FFFDEC"/>
<stop offset="1" stop-color="#FCF0FB"/>
</linearGradient>
</defs>
</svg>
