<svg width="94" height="74" viewBox="0 0 94 74" fill="none" xmlns="http://www.w3.org/2000/svg">
<g filter="url(#filter0_d_201_12669)">
<rect x="1" width="82.9706" height="49.0686" rx="6" fill="url(#paint0_linear_201_12669)"/>
</g>
<mask id="mask0_201_12669" style="mask-type:alpha" maskUnits="userSpaceOnUse" x="57" y="2" width="22" height="25">
<rect x="57.7059" y="3.17651" width="20.4118" height="23.0882" fill="white" stroke="#ECECEC"/>
</mask>
<g mask="url(#mask0_201_12669)">
<path d="M57.7078 19.6274C57.7078 19.6274 56.4234 20.22 56.3179 22.7593C56.1947 25.6034 58.8339 27.8041 61.6667 28.549L57.7078 19.6274Z" fill="#989899"/>
<path d="M77.5 19C77.5 19 79.4001 20.22 79.5057 22.7593C79.6288 25.6034 76.9896 27.8041 74.1569 28.549L77.5 19Z" fill="#989899"/>
<path d="M67.4657 8.0293C61.7918 8.0293 57.2059 12.5815 57.2059 18.1752C57.2059 24.0544 59.8001 28.3211 63.499 30.0848C64.2856 30.4544 65.1894 30.3872 65.9426 29.9841C66.3945 29.7321 66.9134 29.5977 67.4657 29.5977C68.018 29.5977 68.5368 29.7321 68.9887 29.9841C69.7419 30.404 70.6624 30.4544 71.4323 30.0848C75.1312 28.3211 77.7255 24.0544 77.7255 18.1752C77.7255 12.5815 73.1395 8.0293 67.4657 8.0293Z" fill="#E7E4E2"/>
<path d="M71.9072 10.7177C70.9147 10.6509 69.9553 10.8681 69.1447 11.2859C68.086 11.8373 66.8454 11.8373 65.7867 11.2859C64.9596 10.8681 64.0167 10.6509 63.0242 10.7177C60.4105 10.9015 58.2932 13.0403 58.1112 15.6804C57.8962 18.805 60.3444 21.4117 63.3881 21.4117C64.2648 21.4117 65.0919 21.1945 65.8198 20.8102C66.8454 20.2755 68.086 20.2755 69.1116 20.8102C69.8395 21.1945 70.6666 21.4117 71.5433 21.4117C74.587 21.4117 77.0352 18.805 76.8202 15.6804C76.6382 13.0403 74.5208 10.9015 71.9072 10.7177Z" fill="white"/>
<path d="M61.8948 24.3254C61.3501 24.134 60.9806 23.6937 60.8444 23.196C60.611 23.9043 60.9806 24.6508 61.6808 24.8996C62.3811 25.1485 63.1592 24.8039 63.451 24.1148C63.023 24.4211 62.4395 24.5168 61.8948 24.3254Z" fill="#989899"/>
<path d="M73.0365 27.0019C73.5812 26.8105 73.9508 26.3702 74.0869 25.8726C74.3204 26.5808 73.9508 27.3273 73.2505 27.5761C72.5502 27.825 71.7721 27.4804 71.4803 26.7914C71.9277 27.0976 72.4919 27.1933 73.0365 27.0019Z" fill="#989899"/>
<path d="M65.5482 25.1603C65.0012 25.0316 64.5674 24.6242 64.3599 24.0881C64.2467 24.903 64.7183 25.6749 65.4351 25.8464C66.1519 25.9965 66.8309 25.4819 67.0196 24.6885C66.6235 25.0959 66.0953 25.2889 65.5482 25.1603Z" fill="#989899"/>
<path d="M74.8208 24.3254C75.3655 24.134 75.7351 23.6937 75.8713 23.196C76.1047 23.9043 75.7351 24.6508 75.0348 24.8996C74.3345 25.1485 73.5565 24.8039 73.2647 24.1148C73.7121 24.4211 74.2956 24.5168 74.8208 24.3254Z" fill="#989899"/>
<path d="M71.1674 25.1603C71.7144 25.0316 72.1483 24.6242 72.3558 24.0881C72.4689 24.903 71.9974 25.6749 71.2806 25.8464C70.5638 25.9965 69.8847 25.4819 69.696 24.6885C70.0922 25.0959 70.6203 25.2889 71.1674 25.1603Z" fill="#989899"/>
<path d="M67.9118 8.92152C67.9118 8.92152 68.7659 8.01522 69.9834 7.73509C71.0193 7.48792 70.6013 6.82879 69.6563 7.30666C68.8749 7.70214 67.9118 8.92152 67.9118 8.92152Z" fill="#989899"/>
<path d="M67.014 8.92159C67.014 8.92159 66.8868 7.80387 66.3395 7.17515C65.9449 6.72108 66.1867 6.26701 66.3777 6.24954C66.7595 6.17969 67.0649 6.93065 67.014 8.92159Z" fill="#989899"/>
<path d="M67.0196 8.02936C67.0196 8.02936 65.4562 6.88847 64.4769 7.18702C63.7897 7.38961 65.9201 7.5922 67.0196 8.02936Z" fill="#989899"/>
<path opacity="0.6" d="M61.2206 19.6275C62.9451 19.6275 64.3432 18.6289 64.3432 17.3971C64.3432 16.1653 62.9451 15.1667 61.2206 15.1667C59.4961 15.1667 58.0981 16.1653 58.0981 17.3971C58.0981 18.6289 59.4961 19.6275 61.2206 19.6275Z" fill="url(#paint1_radial_201_12669)"/>
<path opacity="0.6" d="M74.603 19.6275C76.3275 19.6275 77.7255 18.629 77.7255 17.3971C77.7255 16.1653 76.3275 15.1667 74.603 15.1667C72.8784 15.1667 71.4804 16.1653 71.4804 17.3971C71.4804 18.629 72.8784 19.6275 74.603 19.6275Z" fill="url(#paint2_radial_201_12669)"/>
<path d="M63.451 16.951C64.4364 16.951 65.2353 16.1521 65.2353 15.1666C65.2353 14.1812 64.4364 13.3823 63.451 13.3823C62.4655 13.3823 61.6667 14.1812 61.6667 15.1666C61.6667 16.1521 62.4655 16.951 63.451 16.951Z" fill="#231F20"/>
<path d="M63.0049 15.1666C63.2513 15.1666 63.451 14.9669 63.451 14.7205C63.451 14.4741 63.2513 14.2744 63.0049 14.2744C62.7586 14.2744 62.5589 14.4741 62.5589 14.7205C62.5589 14.9669 62.7586 15.1666 63.0049 15.1666Z" fill="white"/>
<path opacity="0.3" d="M63.8971 16.0589C64.1435 16.0589 64.3432 15.8592 64.3432 15.6128C64.3432 15.3665 64.1435 15.1667 63.8971 15.1667C63.6507 15.1667 63.451 15.3665 63.451 15.6128C63.451 15.8592 63.6507 16.0589 63.8971 16.0589Z" fill="white"/>
<path d="M72.3725 16.951C73.358 16.951 74.1569 16.1521 74.1569 15.1666C74.1569 14.1812 73.358 13.3823 72.3725 13.3823C71.3871 13.3823 70.5882 14.1812 70.5882 15.1666C70.5882 16.1521 71.3871 16.951 72.3725 16.951Z" fill="#231F20"/>
<path d="M71.9264 15.1666C72.1728 15.1666 72.3725 14.9669 72.3725 14.7205C72.3725 14.4741 72.1728 14.2744 71.9264 14.2744C71.6801 14.2744 71.4803 14.4741 71.4803 14.7205C71.4803 14.9669 71.6801 15.1666 71.9264 15.1666Z" fill="white"/>
<path opacity="0.3" d="M72.8186 16.0589C73.065 16.0589 73.2647 15.8592 73.2647 15.6128C73.2647 15.3665 73.065 15.1667 72.8186 15.1667C72.5722 15.1667 72.3725 15.3665 72.3725 15.6128C72.3725 15.8592 72.5722 16.0589 72.8186 16.0589Z" fill="white"/>
<path d="M67.0196 16.243L67.9653 17.8432L68.8039 16.243C68.8039 16.243 67.9296 15.8287 67.0196 16.243Z" fill="#EC8822"/>
</g>
<rect x="25.0883" y="5.35303" width="14.2745" height="13.3824" rx="1" fill="#FF5441" fill-opacity="0.2"/>
<path d="M21.8604 9.54137V8.51781H22.8801V9.54137H21.8604ZM20.2767 9.54137V8.51781H21.2919V9.54137H20.2767ZM21.8604 7.96081V7.13721H21.2919V7.96081H19.7353V10.3602H20.2767V10.0984H21.2919V11.5837H21.8604V10.0984H22.8801V10.3364H23.4441V7.96081H21.8604Z" fill="#535353"/>
<path d="M27.0041 8.17028H27.5275V7.90368H28.5652V8.17028H29.0886V7.90368H30.0587V7.40381H29.0886V7.14197H28.5652V7.40381H27.5275V7.14197H27.0041V7.40381H26.0611V7.90368H27.0041V8.17028ZM28.8044 9.79844H28.308V9.49852H28.8044V9.79844ZM27.3154 9.79844V9.49852H27.7801V9.79844H27.3154ZM27.3154 8.74157H27.7801V9.02721H27.3154V8.74157ZM28.8044 9.02721H28.308V8.74157H28.8044V9.02721ZM30.0993 9.49852V9.02721H29.3007V8.74157H29.788V8.27978H26.3589V8.74157H26.8146V9.02721H26.016V9.49852H26.8146V9.79844H26.3138V10.2602H27.7801V10.5364H26.0791V11.0219H27.7801V11.5837H28.308V11.0219H30.0587V10.5364H28.308V10.2602H29.8466V9.79844H29.3007V9.49852H30.0993Z" fill="#535353"/>
<path d="M33.5194 9.38902V8.91771H34.503C34.5165 9.07958 34.5346 9.23668 34.5571 9.38902H33.5194ZM35.6851 7.87988V8.39403H33.5194V7.87988H35.6851ZM36.5514 9.91746V9.38902H35.1166C35.0896 9.23668 35.0715 9.07958 35.058 8.91771H36.2311V7.35144H32.9689V10.8601C32.7975 10.8839 32.635 10.8982 32.4952 10.9124L32.6035 11.5028C33.19 11.4218 33.9886 11.3123 34.7331 11.2029L34.7151 10.6411C34.318 10.6935 33.9029 10.7458 33.5194 10.7982V9.91746H34.6654C34.9136 10.8791 35.3919 11.5837 35.9784 11.5885C36.3845 11.5885 36.574 11.4123 36.6507 10.6125C36.5108 10.5697 36.3078 10.4554 36.186 10.3412C36.1634 10.822 36.1138 11.0219 36.01 11.0219C35.7483 11.0267 35.437 10.5649 35.243 9.91746H36.5514Z" fill="#535353"/>
<path d="M40.5175 9.53184H40.2152V9.22716H40.5175V9.53184ZM40.8784 8.92723H39.8722V9.83177H40.8784V8.92723ZM39.5925 10.8934V7.85131H41.7673L41.5597 8.07031C41.677 8.13696 41.8124 8.23693 41.9072 8.32262H41.4199C41.4108 8.18932 41.4063 8.05602 41.4018 7.91796H40.9596C40.9687 8.05602 40.9732 8.18932 40.9822 8.32262H39.7594V8.72252H41.0138C41.0544 9.19383 41.113 9.62706 41.2078 9.96983C41.1356 10.0555 41.0634 10.1365 40.9822 10.2126L40.9732 9.96983C40.5039 10.0365 40.0347 10.0984 39.7053 10.1317L39.7549 10.5459C40.0527 10.4935 40.4092 10.4411 40.7701 10.384C40.7205 10.4173 40.6709 10.4507 40.6212 10.4792C40.7115 10.5554 40.8559 10.7363 40.9145 10.822C41.086 10.7077 41.2394 10.5697 41.3838 10.4173C41.474 10.5744 41.5868 10.6839 41.7222 10.7315C42.02 10.8744 42.2546 10.6935 42.3268 10.1079C42.2365 10.0555 42.0741 9.92698 41.9929 9.84129C41.9748 10.1174 41.9387 10.3031 41.8846 10.2888C41.8079 10.2698 41.7402 10.1793 41.6816 10.0317C41.8846 9.72227 42.047 9.3557 42.1553 8.94152L41.7447 8.85582C41.6906 9.07006 41.6229 9.27 41.5327 9.45091C41.4966 9.23668 41.4695 8.98912 41.4469 8.72252H42.2546V8.32262H42.038L42.2185 8.12267C42.1373 8.03222 41.9884 7.92748 41.8485 7.85131H42.399V10.8934H39.5925ZM39.0827 7.34192V11.598H39.5925V11.398H42.399V11.598H42.9314V7.34192H39.0827Z" fill="#535353"/>
<path d="M14.2459 14.7826H12.7047V14.2744H12.4203V14.7826H10.8983V15.0618H14.2459V14.7826ZM13.0237 15.3411C13.3888 15.5971 13.8269 15.9695 14.0306 16.2216L14.2805 16.0238C14.0614 15.7678 13.6117 15.4109 13.2504 15.1666L13.0237 15.3411ZM11.8783 15.1821C11.6439 15.5079 11.2442 15.8299 10.8675 16.0316C10.9406 16.082 11.0482 16.1984 11.102 16.2604C11.4709 16.0277 11.9014 15.6631 12.1666 15.2946L11.8783 15.1821ZM13.1236 15.8454C12.9968 16.1945 12.8123 16.4815 12.5778 16.7181C12.3434 16.4777 12.1589 16.1945 12.0321 15.8648L11.7592 15.9501C11.9091 16.3264 12.1089 16.6444 12.3588 16.9121C11.9591 17.2263 11.4363 17.4319 10.8137 17.5638C10.8752 17.6297 10.9675 17.7655 10.9944 17.8353C11.617 17.6762 12.1474 17.4513 12.5701 17.1138C12.9775 17.459 13.5041 17.6956 14.1536 17.8198C14.1921 17.7422 14.2766 17.6103 14.342 17.5482C13.7078 17.4435 13.1889 17.2302 12.7931 16.9121C13.0583 16.6483 13.2696 16.3264 13.4195 15.9307L13.1236 15.8454Z" fill="#535353"/>
<path d="M16.8056 15.4691V15.8105H16.1599V15.4691H16.8056ZM17.7318 15.8105H17.0631V15.4691H17.7318V15.8105ZM17.0631 16.3768V16.0238H17.7318V16.3768H17.0631ZM16.1599 16.3768V16.0238H16.8056V16.3768H16.1599ZM16.1599 16.5979H16.8056V17.2263H17.0631V16.5979H17.7318V16.9509C17.7318 17.0013 17.7164 17.0168 17.6665 17.0168C17.6204 17.0168 17.4551 17.0207 17.2745 17.0129C17.309 17.0789 17.3436 17.1797 17.3552 17.2496C17.6127 17.2496 17.7741 17.2457 17.874 17.2069C17.974 17.1642 18.0047 17.0944 18.0047 16.9548V15.248H17.5204C17.4359 15.2015 17.336 15.1472 17.2245 15.0929C17.5089 14.9494 17.7972 14.7554 18.0009 14.5615L17.8241 14.4257L17.7703 14.4412H15.8947V14.6701H17.4974C17.3436 14.7826 17.1553 14.895 16.9708 14.9765C16.7902 14.8989 16.6019 14.8213 16.4366 14.7632L16.256 14.9261C16.4866 15.0114 16.7594 15.1355 16.9862 15.248H15.8908V17.2418H16.1599V16.5979ZM15.5795 14.992C15.4565 14.802 15.1721 14.5421 14.93 14.3675L14.7301 14.5459C14.9723 14.7283 15.249 14.9998 15.3681 15.1898L15.5795 14.992ZM15.495 15.7988H14.6648V16.0704H15.2182V17.0673C15.0222 17.2263 14.8032 17.3892 14.6187 17.5056L14.757 17.7849C14.9761 17.6219 15.1798 17.4551 15.3758 17.2845C15.6103 17.5909 15.9562 17.7267 16.4597 17.7461C16.8824 17.7655 17.6972 17.7577 18.1238 17.7383C18.1392 17.653 18.1815 17.5211 18.2122 17.4551C17.7549 17.4862 16.8786 17.4978 16.4597 17.4784C16.01 17.4629 15.6795 17.3349 15.495 17.044V15.7988Z" fill="#535353"/>
<path d="M20.4299 14.7089H19.6497V14.2938H19.3768V14.7089H18.6081V14.961H20.4299V14.7089ZM19.9571 15.7368C20.0379 15.5661 20.1301 15.3101 20.2108 15.0851L19.9418 15.0192C19.8956 15.2131 19.7996 15.5002 19.7265 15.6786L19.9571 15.7368ZM19.2576 15.667C19.2384 15.5002 19.1692 15.2364 19.0809 15.0463L18.8426 15.0968C18.9233 15.2946 18.9925 15.5545 19.0117 15.7251L19.2576 15.667ZM19.9917 16.6289V17.3427H19.0309V16.6289H19.9917ZM18.7657 17.8236H19.0309V17.5948H19.9917V17.8004H20.2685V16.3729H18.7657V17.8236ZM18.5082 16.0355H20.4837V15.7717H18.5082V16.0355ZM21.8135 14.4955L21.7674 14.5072H20.6374V17.8198H20.9141V14.7787H21.6405C21.5214 15.089 21.3523 15.5079 21.1947 15.8337C21.5829 16.1712 21.6905 16.4583 21.6905 16.7026C21.6905 16.8423 21.6675 16.9586 21.5867 17.0091C21.5406 17.0362 21.4791 17.0479 21.4215 17.0517C21.3408 17.0556 21.237 17.0556 21.1178 17.044C21.1678 17.1254 21.1947 17.2496 21.1986 17.331C21.31 17.3349 21.4368 17.3349 21.5329 17.3233C21.6329 17.3116 21.7136 17.2845 21.7828 17.2379C21.9173 17.1487 21.9711 16.9703 21.9711 16.7337C21.9672 16.4583 21.8712 16.1518 21.4868 15.795C21.6675 15.442 21.8635 14.9959 22.021 14.6313L21.8135 14.4955Z" fill="#535353"/>
<path d="M25.653 14.3171H25.3917V15.923C25.3917 15.9695 25.3725 15.985 25.3225 15.9889C25.261 15.9928 25.0765 15.9928 24.869 15.985C24.9074 16.0548 24.9459 16.1518 24.9574 16.2255C25.2264 16.2255 25.4032 16.2255 25.5108 16.1829C25.6223 16.1402 25.653 16.0704 25.653 15.923V14.3171ZM24.7768 14.4296H24.5192V15.7251H24.7768V14.4296ZM23.2509 15.4109H22.5783V16.1324H22.8089V15.6049H23.2509V16.2333H23.4969V15.6049H23.9658V15.8803C23.9658 15.9113 23.9581 15.923 23.9235 15.923C23.8889 15.9268 23.7928 15.9268 23.666 15.923C23.6929 15.9773 23.7314 16.051 23.7429 16.1092C23.912 16.1092 24.0273 16.1092 24.1042 16.0742C24.1887 16.0432 24.2002 15.9889 24.2002 15.8803V15.4109H23.4969V15.2054H24.3155V14.9959H23.4969V14.7554H24.181V14.5537H23.4969V14.2783H23.2509V14.5537H22.8973C22.9242 14.4839 22.955 14.4179 22.978 14.3481L22.7513 14.2938C22.6859 14.5072 22.5783 14.7244 22.4477 14.8795C22.5015 14.9067 22.6052 14.9571 22.6514 14.992C22.7013 14.9261 22.7513 14.8446 22.7974 14.7554H23.2509V14.9959H22.39V15.2054H23.2509V15.4109ZM25.4032 16.6522C25.2264 16.7841 24.9305 16.9548 24.6922 17.0711C24.5538 16.9392 24.4385 16.7918 24.3463 16.6212H25.7991V16.3807H24.2425V16.1518H23.9581V16.3807H22.4054V16.6212H23.739C23.3662 16.85 22.8205 17.0323 22.34 17.1216C22.3939 17.1759 22.4669 17.269 22.4976 17.3349C22.7436 17.2806 23.0088 17.203 23.2625 17.1022V17.4939C23.1164 17.5172 22.9857 17.5366 22.8704 17.5521L22.9166 17.7926L24.4308 17.5444L24.4155 17.3116C24.1157 17.3582 23.8121 17.4086 23.5353 17.4513V16.9819C23.7429 16.8811 23.9351 16.7686 24.0926 16.6483C24.3847 17.2728 24.919 17.6685 25.6992 17.8275C25.7338 17.7577 25.8029 17.6491 25.8606 17.5948C25.4686 17.5288 25.138 17.4008 24.8767 17.2147C25.115 17.106 25.3917 16.9548 25.6108 16.8035L25.4032 16.6522Z" fill="#535353"/>
<path d="M26.7177 16.6677C26.7407 16.5514 26.7638 16.4272 26.7868 16.307H27.3595V16.3768H27.617V15.4497H27.0251C27.3672 15.217 27.6631 14.9067 27.8322 14.5227L27.6555 14.4296L27.6055 14.4412H26.5639V14.6778H27.4556C27.3595 14.8252 27.2327 14.9649 27.0905 15.0851C26.9752 14.9765 26.7868 14.8369 26.6293 14.7399L26.464 14.9028C26.6101 14.992 26.7868 15.1239 26.8945 15.2364C26.6639 15.3954 26.3987 15.5234 26.145 15.601C26.195 15.6514 26.2641 15.7484 26.2987 15.8144C26.4294 15.7678 26.5601 15.7135 26.6869 15.6476V15.6825H27.3595V16.082H26.587C26.5409 16.3652 26.464 16.7259 26.4025 16.9586L26.6408 17.0013L26.6677 16.8927H27.348C27.3057 17.3077 27.2673 17.4862 27.2058 17.5444C27.175 17.5754 27.1327 17.5793 27.0636 17.5793C26.9867 17.5793 26.7792 17.5754 26.5678 17.556C26.6139 17.6219 26.6485 17.7267 26.6523 17.8004C26.8637 17.812 27.0636 17.812 27.1635 17.8081C27.2826 17.8004 27.3518 17.781 27.4172 17.715C27.5171 17.6142 27.5671 17.3737 27.617 16.7841C27.6247 16.7492 27.6285 16.6677 27.6285 16.6677H26.7177ZM28.9853 16.7608C28.893 16.9392 28.7623 17.0866 28.6048 17.2069C28.4357 17.0828 28.3011 16.9315 28.2166 16.7608H28.9853ZM29.1621 16.5397L29.1159 16.5514H27.8438V16.7608H28.1397L27.9821 16.8074C28.0782 17.0168 28.2166 17.1953 28.3895 17.3465C28.1628 17.4707 27.9014 17.556 27.6247 17.6103C27.6708 17.6646 27.7285 17.7616 27.7515 17.8236C28.059 17.7538 28.3473 17.6491 28.5932 17.4978C28.8315 17.6491 29.1159 17.7577 29.4426 17.8198C29.4811 17.7499 29.5502 17.6375 29.6117 17.5832C29.312 17.5405 29.0429 17.4551 28.8162 17.3388C29.0352 17.1526 29.212 16.9121 29.3196 16.6057L29.1621 16.5397ZM29.3888 14.6933C29.262 14.8252 29.0506 15.0114 28.8738 15.1355C28.7739 15.0657 28.6816 14.9881 28.5932 14.9028C28.7662 14.7826 28.9814 14.6158 29.1467 14.4567L28.9353 14.3054C28.8123 14.4373 28.6163 14.6196 28.451 14.7476C28.328 14.6041 28.2281 14.449 28.1512 14.2783L27.9245 14.352C28.1243 14.7981 28.4472 15.1666 28.8507 15.4342H27.986V15.7329C27.986 15.923 27.9322 16.1324 27.6285 16.2992C27.6785 16.3341 27.7746 16.4272 27.813 16.4777C28.1512 16.2798 28.2281 15.9928 28.2281 15.7407V15.667H28.7508V16.0161C28.7508 16.1984 28.77 16.2604 28.8162 16.307C28.87 16.3496 28.9545 16.3652 29.0275 16.3652H29.2159C29.2697 16.3652 29.3465 16.3574 29.385 16.3458C29.4349 16.3264 29.4772 16.2992 29.5003 16.2566C29.5233 16.2139 29.5349 16.0975 29.5426 16.0005C29.4734 15.9811 29.3811 15.9346 29.335 15.8919C29.3312 15.9889 29.3273 16.0626 29.3196 16.0936C29.3081 16.1208 29.2889 16.1402 29.2735 16.1479C29.2581 16.1557 29.2236 16.1557 29.189 16.1557H29.0775C29.0468 16.1557 29.0275 16.1518 29.0122 16.1402C28.9968 16.1285 28.993 16.0898 28.993 16.0393V15.5196C29.1659 15.6204 29.3465 15.698 29.5426 15.76C29.5848 15.6902 29.6579 15.5894 29.7194 15.5312C29.4849 15.4691 29.2658 15.376 29.066 15.2597C29.2389 15.1472 29.4426 14.9881 29.6002 14.8407L29.3888 14.6933Z" fill="#535353"/>
<path d="M33.5358 14.992V14.736H31.7525C31.8063 14.6119 31.8601 14.48 31.9062 14.352L31.6372 14.2822C31.495 14.7127 31.249 15.1278 30.9646 15.3993C31.0299 15.4381 31.1452 15.5273 31.1952 15.5777C31.3451 15.4187 31.4912 15.217 31.618 14.992H33.5358ZM33.2015 15.5428V15.2985H31.4988V15.5428H33.2015ZM31.0607 14.7632C30.9185 14.639 30.6302 14.4684 30.4112 14.3598L30.2497 14.5692C30.4688 14.6856 30.7532 14.8679 30.8916 14.9959L31.0607 14.7632ZM30.8455 15.7678C30.6956 15.6592 30.3958 15.504 30.1729 15.4109L30.023 15.6243C30.2459 15.7329 30.5418 15.8958 30.6879 16.0044L30.8455 15.7678ZM30.3881 17.7422C30.588 17.397 30.8186 16.9392 30.9954 16.5552L30.7801 16.369C30.5803 16.7841 30.3189 17.269 30.1383 17.5521L30.3881 17.7422ZM31.1491 15.8648V16.1247H32.8171C32.8325 17.1487 32.8825 17.8275 33.286 17.8314C33.4974 17.8275 33.5474 17.6569 33.5704 17.1991C33.5128 17.1603 33.4398 17.0944 33.3898 17.0323C33.3821 17.3349 33.3629 17.5599 33.3091 17.5599C33.1169 17.5599 33.0938 16.8229 33.09 15.8648H31.1491Z" fill="#535353"/>
<path d="M34.5966 16.4427V16.0432H35.4767V16.4427H34.5966ZM34.5966 15.4187H35.4767V15.8144H34.5966V15.4187ZM36.6644 15.4187V15.8144H35.765V15.4187H36.6644ZM36.6644 16.4427H35.765V16.0432H36.6644V16.4427ZM37.3523 16.9974H35.765V16.6794H36.9488V15.1782H35.765V14.895H37.2216V14.6313H35.765V14.2822H35.4767V14.6313H34.0393V14.895H35.4767V15.1782H34.3237V16.6794H35.4767V16.9974H33.924V17.2573H35.4767V17.8314H35.765V17.2573H37.3523V16.9974Z" fill="#535353"/>
<path d="M40.7806 15.1821H39.9812V14.705H40.7806V15.1821ZM41.0612 14.4761H39.716V15.4109H41.0612V14.4761ZM39.2202 14.7864C39.1933 15.058 39.1664 15.1743 39.1357 15.2131C39.1088 15.2403 39.078 15.2442 39.0319 15.2442C38.9819 15.2442 38.8589 15.2403 38.7283 15.2286C38.7628 15.2907 38.7859 15.3838 38.7936 15.4497C38.9358 15.4575 39.078 15.4575 39.1472 15.4536C39.2356 15.4459 39.2971 15.4265 39.347 15.3722C39.4201 15.2946 39.4585 15.1084 39.4892 14.6662C39.4969 14.6274 39.4969 14.5576 39.4969 14.5576H38.7052C38.7206 14.4684 38.7321 14.3791 38.7398 14.2822H38.4707C38.4631 14.3791 38.4515 14.4684 38.4323 14.5576H37.8251V14.7864H38.3747C38.2786 15.0774 38.0941 15.2985 37.7174 15.4342C37.7751 15.4808 37.8404 15.5739 37.8712 15.632C38.3285 15.4536 38.5438 15.1666 38.6514 14.7864H39.2202ZM37.975 17.8198C38.1325 17.6452 38.2978 17.4008 38.4246 17.2224L38.194 17.0944C38.0826 17.269 37.9058 17.5211 37.7367 17.6762L37.975 17.8198ZM38.6783 17.2108C38.7321 17.3853 38.7821 17.6142 38.7898 17.7616L39.0473 17.715C39.0319 17.5676 38.9781 17.3388 38.9166 17.1681L38.6783 17.2108ZM39.3086 17.2147C39.4008 17.3659 39.4969 17.5754 39.5354 17.715L39.7698 17.6336C39.7275 17.5017 39.6238 17.3 39.5277 17.1448L39.3086 17.2147ZM39.4816 15.8027V16.0277H38.5361V15.8027H39.4816ZM39.4816 16.4233H38.5361V16.2061H39.4816V16.4233ZM39.4816 16.8268H38.5361V16.6018H39.4816V16.8268ZM39.7583 16.8268V16.6018H40.6807V16.4233H39.7583V16.2061H40.673V16.0277H39.7583V15.8027H40.8267V15.601H38.2555V17.0323H38.44V17.0362H40.7922C40.7537 17.3814 40.7114 17.5327 40.6615 17.5793C40.6346 17.6103 40.6038 17.6142 40.5462 17.6142C40.4962 17.6142 40.3579 17.6103 40.2041 17.5948C40.2426 17.6607 40.2656 17.7538 40.2695 17.8236C40.4347 17.8353 40.5923 17.8353 40.673 17.8275C40.7653 17.8236 40.8267 17.8004 40.8806 17.7422C40.969 17.6569 41.0189 17.4435 41.0689 16.9354C41.0766 16.9005 41.0804 16.8268 41.0804 16.8268H39.7583ZM40.4117 17.4551C40.3579 17.3465 40.2349 17.1991 40.1196 17.0905L39.9235 17.1797C40.0312 17.2961 40.1542 17.4513 40.2041 17.5599L40.4117 17.4551Z" fill="#535353"/>
<path d="M41.7338 17.5948C41.803 17.3582 41.8529 16.978 41.8837 16.722L41.7146 16.6638C41.6838 16.9199 41.6223 17.3 41.5531 17.5211L41.7338 17.5948ZM41.9913 16.7181C42.0297 16.947 42.0528 17.2379 42.0451 17.4319L42.2027 17.4086C42.2065 17.2185 42.1835 16.9276 42.1412 16.7026L41.9913 16.7181ZM41.9874 15.857H42.3756V16.2178H41.9874V15.857ZM42.3756 14.6817V15.0269H41.9874V14.6817H42.3756ZM42.3756 15.6282H41.9874V15.2597H42.3756V15.6282ZM42.6139 16.2178V15.857H43.0329V15.6282H42.6139V15.2597H43.0329V15.0269H42.6139V14.6817H43.1136V14.4373H41.7415V16.4544H42.8945C42.8791 16.6871 42.8676 16.8733 42.8522 17.0246C42.8138 16.8927 42.7292 16.7143 42.6524 16.5746L42.5178 16.6212C42.6062 16.7802 42.6908 16.9897 42.7254 17.1293L42.8484 17.0789C42.8253 17.3698 42.7907 17.5056 42.7523 17.556C42.7215 17.5909 42.6908 17.5987 42.6408 17.5948C42.587 17.5948 42.4602 17.5948 42.318 17.5793C42.3564 17.6491 42.3795 17.7422 42.3872 17.8159C42.5255 17.8236 42.6677 17.8236 42.7408 17.8159C42.833 17.8081 42.8945 17.781 42.956 17.715C43.0482 17.5987 43.0943 17.269 43.1405 16.338C43.1443 16.2992 43.1482 16.2178 43.1482 16.2178H42.6139ZM42.5563 17.2728C42.5409 17.1099 42.4794 16.8539 42.4025 16.6561L42.2603 16.6871C42.3295 16.8849 42.391 17.1448 42.4064 17.3116L42.5563 17.2728ZM43.4864 15.1394H43.9668V15.9268H43.4864V15.1394ZM44.7393 15.1394V15.9268H44.2358V15.1394H44.7393ZM45.0045 16.179V14.8912H44.2358V14.2977H43.9668V14.8912H43.2327V16.179H43.9668C43.9591 16.4311 43.9322 16.691 43.84 16.9237C43.6901 16.7492 43.5786 16.5436 43.5017 16.3109L43.2635 16.3652C43.3672 16.6794 43.5094 16.947 43.7016 17.1603C43.5709 17.3465 43.3672 17.4978 43.0674 17.6025C43.1251 17.6569 43.2058 17.7655 43.2404 17.8236C43.5363 17.7034 43.7439 17.5366 43.8938 17.3465C44.1667 17.5793 44.5202 17.7383 44.9469 17.8275C44.9853 17.7538 45.0583 17.6413 45.116 17.5832C44.6701 17.5017 44.3127 17.3504 44.036 17.1177C44.1782 16.8345 44.2243 16.5009 44.232 16.179H45.0045Z" fill="#535353"/>
<path d="M47.8448 15.0347V14.2822H47.5796V15.0347H47.0569V15.2946H46.4035V14.9261H46.9646V14.6778H46.4035V14.2783H46.1345V14.6778H45.558V14.9261H46.1345V15.2946H45.4119V15.5389H46.6533C46.611 15.7057 46.5265 15.9501 46.4573 16.0975L46.5803 16.1363H45.9461L46.0807 16.0936C46.0614 15.9462 45.9807 15.7135 45.8923 15.5389L45.6771 15.5971C45.754 15.7678 45.8193 15.9889 45.8462 16.1363H45.4657V16.3884H46.1345V16.7918H45.508V17.0362H46.1345V17.812H46.4035V17.0362H47.0031V16.7918H46.4035V16.3884H47.0646V16.1363H46.6802C46.7533 15.9889 46.8301 15.7872 46.8993 15.5971L46.6841 15.5389H47.1184V15.3062H47.5796V15.442C47.5796 15.6514 47.5719 15.8725 47.5411 16.0975C47.4182 16.0083 47.2952 15.923 47.176 15.8493L47.0223 16.0471C47.176 16.1441 47.3374 16.2643 47.4912 16.3884C47.3874 16.8423 47.1607 17.2922 46.6879 17.6491C46.7609 17.6918 46.8647 17.7771 46.907 17.8275C47.3643 17.4745 47.5988 17.0362 47.7218 16.5824C47.864 16.7143 47.9908 16.8423 48.0715 16.9509L48.2406 16.722C48.1369 16.5901 47.9716 16.435 47.7871 16.2837C47.8332 15.9967 47.8448 15.7096 47.8448 15.442V15.3062H48.2944C48.2868 16.6755 48.2675 17.684 48.6519 17.812C48.8441 17.8857 48.9594 17.7383 48.9824 17.0479C48.9401 17.0207 48.8556 16.9354 48.8018 16.8694C48.7979 17.2263 48.771 17.5405 48.748 17.5327C48.5251 17.4745 48.5481 16.4195 48.5673 15.0347H47.8448Z" fill="#535353"/>
<path d="M50.2969 14.705V15.3799H49.7204V14.705H50.2969ZM49.7204 16.3923V15.6359H50.2969V16.3923H49.7204ZM49.7204 16.6522H50.562V14.4451H49.4513V16.85H49.7204V16.6522ZM49.532 17.843C49.7088 17.6219 49.901 17.2884 50.0317 17.0013L49.7626 16.9237C49.632 17.2069 49.4321 17.5211 49.2591 17.7189L49.532 17.843ZM50.3929 17.0362C50.4429 17.2884 50.4737 17.6142 50.4737 17.8081L50.7542 17.7655C50.7504 17.5754 50.7081 17.2534 50.6581 17.0052L50.3929 17.0362ZM52.3339 14.6972C52.3069 15.0618 52.2762 15.2131 52.2301 15.2635C52.207 15.2907 52.1686 15.2985 52.1109 15.2985C52.0533 15.2985 51.8957 15.2946 51.7266 15.2791C51.7689 15.345 51.7958 15.4459 51.8035 15.5157C51.9764 15.5273 52.1455 15.5273 52.2339 15.5196C52.3339 15.5157 52.3992 15.4924 52.4568 15.4303C52.5414 15.3411 52.576 15.1123 52.6106 14.5537C52.6144 14.5149 52.6183 14.4412 52.6183 14.4412H50.7312V14.6972H51.3692C51.2923 15.058 51.1117 15.3023 50.612 15.4381C50.6658 15.4885 50.7388 15.5933 50.7658 15.6553C51.3538 15.4769 51.5613 15.1666 51.6497 14.6972H52.3339ZM52.2301 16.5358H51.1117V15.9462H52.2301V16.5358ZM52.5107 15.7096H50.8426V16.7763H52.5107V15.7096ZM51.2116 17.0246C51.3115 17.269 51.4076 17.6025 51.446 17.8004L51.7266 17.7344C51.6882 17.5327 51.5806 17.2147 51.4768 16.9703L51.2116 17.0246ZM51.9918 17.0013C52.1724 17.2573 52.3838 17.6142 52.4722 17.8275L52.7451 17.7034C52.6452 17.4862 52.4299 17.1448 52.2455 16.8927L51.9918 17.0013Z" fill="#535353"/>
<rect x="4.8186" y="2.92651" width="74.4412" height="43.2157" rx="0.75" stroke="#EFE2D1" stroke-width="0.5"/>
<line x1="56.5637" y1="2.67651" x2="56.5637" y2="27.6569" stroke="#EFE2D1" stroke-width="0.5"/>
<line x1="5.46075" y1="27.407" x2="79.5098" y2="27.407" stroke="#EFE2D1" stroke-width="0.5"/>
<line x1="5.46075" y1="33.6519" x2="79.5098" y2="33.6519" stroke="#EFE2D1" stroke-width="0.5"/>
<line x1="5.46075" y1="39.897" x2="79.5098" y2="39.897" stroke="#EFE2D1" stroke-width="0.5"/>
<line x1="5.46075" y1="21.1619" x2="56.3137" y2="21.1619" stroke="#EFE2D1" stroke-width="0.5"/>
<line x1="15.5245" y1="21.4119" x2="15.5245" y2="33.9021" stroke="#EFE2D1" stroke-width="0.5"/>
<line x1="15.5245" y1="40.147" x2="15.5245" y2="46.3921" stroke="#EFE2D1" stroke-width="0.5"/>
<line x1="37.8284" y1="21.4119" x2="37.8284" y2="33.9021" stroke="#EFE2D1" stroke-width="0.5"/>
<line x1="37.8284" y1="40.147" x2="37.8284" y2="46.3921" stroke="#EFE2D1" stroke-width="0.5"/>
<circle cx="9.02942" cy="24.9803" r="0.892157" fill="#C4C4C4"/>
<circle cx="41.147" cy="24.9803" r="0.892157" fill="#C4C4C4"/>
<circle cx="41.147" cy="30.3333" r="0.892157" fill="#C4C4C4"/>
<circle cx="41.147" cy="42.8236" r="0.892157" fill="#C4C4C4"/>
<circle cx="9.02942" cy="31.2254" r="0.892157" fill="#C4C4C4"/>
<circle cx="9.02942" cy="37.4705" r="0.892157" fill="#C4C4C4"/>
<circle cx="9.02942" cy="42.8236" r="0.892157" fill="#C4C4C4"/>
<circle cx="12.598" cy="24.9803" r="0.892157" fill="#C4C4C4"/>
<circle cx="44.7157" cy="24.9803" r="0.892157" fill="#C4C4C4"/>
<circle cx="44.7157" cy="30.3333" r="0.892157" fill="#C4C4C4"/>
<circle cx="44.7157" cy="42.8236" r="0.892157" fill="#C4C4C4"/>
<circle cx="12.598" cy="31.2254" r="0.892157" fill="#C4C4C4"/>
<circle cx="12.598" cy="37.4705" r="0.892157" fill="#C4C4C4"/>
<circle cx="12.598" cy="42.8236" r="0.892157" fill="#C4C4C4"/>
<g filter="url(#filter1_d_201_12669)">
<rect x="9.02942" y="20.5195" width="82.9706" height="49.0686" rx="6" fill="url(#paint3_linear_201_12669)"/>
</g>
<rect x="63.0588" y="37.9707" width="23.0882" height="24.8725" rx="1.5" fill="white" stroke="#F9F9F9"/>
<mask id="mask1_201_12669" style="mask-type:alpha" maskUnits="userSpaceOnUse" x="62" y="37" width="25" height="27">
<rect x="63.0588" y="37.9707" width="23.0882" height="24.8725" rx="1.5" fill="white" stroke="#ECECEC"/>
</mask>
<g mask="url(#mask1_201_12669)">
<path d="M65.2948 53.5293C65.2948 53.5293 63.5532 54.4952 63.4549 56.8592C63.3403 59.5069 65.2747 62.2035 67.9118 62.8969L65.2948 53.5293Z" fill="#989899"/>
<path d="M84.4571 54.3896C84.4571 54.3896 85.6528 54.9413 85.7511 57.3053C85.8658 59.953 83.4088 62.0018 80.7716 62.6952L84.4571 54.3896Z" fill="#989899"/>
<path d="M74.5425 43.5923C68.8011 43.5923 64.1606 47.9997 64.1606 53.4154C64.1606 59.1077 66.7857 63.2386 70.5286 64.9462C71.3246 65.304 72.2392 65.239 73.0013 64.8487C73.4586 64.6047 73.9836 64.4746 74.5425 64.4746C75.1014 64.4746 75.6264 64.6047 76.0837 64.8487C76.8458 65.2552 77.7773 65.304 78.5564 64.9462C82.2993 63.2386 84.9244 59.1077 84.9244 53.4154C84.9244 47.9997 80.2839 43.5923 74.5425 43.5923Z" fill="#E7E4E2"/>
<path d="M79.0711 46.0963C78.0591 46.0289 77.0809 46.2479 76.2544 46.6692C75.175 47.2253 73.91 47.2253 72.8305 46.6692C71.9872 46.2479 71.0258 46.0289 70.0138 46.0963C67.3489 46.2816 65.19 48.4387 65.0045 51.1013C64.7852 54.2526 67.2815 56.8814 70.3849 56.8814C71.2788 56.8814 72.1221 56.6624 72.8643 56.2748C73.91 55.7355 75.175 55.7355 76.2207 56.2748C76.9628 56.6624 77.8061 56.8814 78.7 56.8814C81.8035 56.8814 84.2997 54.2526 84.0804 51.1013C83.8949 48.4387 81.736 46.2816 79.0711 46.0963Z" fill="white"/>
<path d="M67.6952 58.7635C67.1881 58.5853 66.844 58.1755 66.7173 57.7122C66.5 58.3715 66.844 59.0665 67.496 59.2981C68.1479 59.5298 68.8723 59.209 69.1439 58.5675C68.7455 58.8526 68.2022 58.9417 67.6952 58.7635Z" fill="#989899"/>
<path d="M70.1868 62.0855C69.6797 61.9073 69.3357 61.4975 69.2089 61.0342C68.9916 61.6935 69.3357 62.3885 69.9876 62.6201C70.6395 62.8518 71.3639 62.531 71.6355 61.8895C71.2371 62.1746 70.6938 62.2637 70.1868 62.0855Z" fill="#989899"/>
<path d="M74.5164 62.3256C74.0111 62.314 73.5581 62.1297 73.2967 61.8647C73.2967 62.3025 73.8194 62.6712 74.499 62.6942C75.1611 62.7173 75.7361 62.3716 75.7884 61.9339C75.4922 62.1758 75.0217 62.3371 74.5164 62.3256Z" fill="#989899"/>
<path d="M78.8982 61.2547C79.4053 61.0765 79.7494 60.6667 79.8761 60.2034C80.0934 60.8627 79.7494 61.5577 79.0974 61.7893C78.4455 62.021 77.7212 61.7002 77.4495 61.0587C77.866 61.3438 78.3912 61.4329 78.8982 61.2547Z" fill="#989899"/>
<path d="M71.9269 59.5406C71.4176 59.4208 71.0137 59.0415 70.8206 58.5425C70.7152 59.301 71.1542 60.0197 71.8215 60.1794C72.4888 60.3191 73.121 59.84 73.2966 59.1014C72.9279 59.4807 72.4361 59.6604 71.9269 59.5406Z" fill="#989899"/>
<path d="M80.5593 58.7633C81.0663 58.5851 81.4104 58.1752 81.5372 57.7119C81.7545 58.3712 81.4104 59.0662 80.7585 59.2979C80.1066 59.5295 79.3822 59.2088 79.1106 58.5673C79.5271 58.8524 80.0703 58.9415 80.5593 58.7633Z" fill="#989899"/>
<path d="M76.3275 59.5406C76.8368 59.4208 77.2407 59.0415 77.4338 58.5425C77.5392 59.301 77.1002 60.0197 76.4329 60.1794C75.7656 60.3191 75.1334 59.84 74.9578 59.1014C75.3265 59.4807 75.8182 59.6604 76.3275 59.5406Z" fill="#989899"/>
<path d="M74.1272 44.4231C74.1272 44.4231 74.9224 43.5794 76.0559 43.3186C77.0202 43.0885 76.6311 42.4748 75.7513 42.9197C75.0239 43.2879 74.1272 44.4231 74.1272 44.4231Z" fill="#989899"/>
<path d="M73.2915 44.4231C73.2915 44.4231 73.173 43.3825 72.6635 42.7972C72.2962 42.3745 72.5213 41.9518 72.699 41.9355C73.0545 41.8705 73.3389 42.5696 73.2915 44.4231Z" fill="#989899"/>
<path d="M73.2966 44.4228C73.2966 44.4228 71.8411 43.3607 70.9294 43.6387C70.2897 43.8273 72.273 44.0159 73.2966 44.4228Z" fill="#989899"/>
<path opacity="0.6" d="M67.0675 55.2202C68.673 55.2202 69.9744 54.2905 69.9744 53.1438C69.9744 51.997 68.673 51.0674 67.0675 51.0674C65.462 51.0674 64.1606 51.997 64.1606 53.1438C64.1606 54.2905 65.462 55.2202 67.0675 55.2202Z" fill="url(#paint4_radial_201_12669)"/>
<path opacity="0.6" d="M80.3564 54.3898C81.9619 54.3898 83.2633 53.4602 83.2633 52.3134C83.2633 51.1667 81.9619 50.2371 80.3564 50.2371C78.7509 50.2371 77.4495 51.1667 77.4495 52.3134C77.4495 53.4602 78.7509 54.3898 80.3564 54.3898Z" fill="url(#paint5_radial_201_12669)"/>
<path d="M69.144 52.7285C70.0614 52.7285 70.8051 51.9848 70.8051 51.0674C70.8051 50.15 70.0614 49.4062 69.144 49.4062C68.2266 49.4062 67.4828 50.15 67.4828 51.0674C67.4828 51.9848 68.2266 52.7285 69.144 52.7285Z" fill="#231F20"/>
<path d="M68.7286 51.0676C68.958 51.0676 69.1439 50.8817 69.1439 50.6523C69.1439 50.423 68.958 50.2371 68.7286 50.2371C68.4993 50.2371 68.3134 50.423 68.3134 50.6523C68.3134 50.8817 68.4993 51.0676 68.7286 51.0676Z" fill="white"/>
<path opacity="0.3" d="M69.5592 51.8979C69.7885 51.8979 69.9744 51.712 69.9744 51.4827C69.9744 51.2533 69.7885 51.0674 69.5592 51.0674C69.3298 51.0674 69.1439 51.2533 69.1439 51.4827C69.1439 51.712 69.3298 51.8979 69.5592 51.8979Z" fill="white"/>
<path d="M78.2799 52.7285C79.1974 52.7285 79.9411 51.9848 79.9411 51.0674C79.9411 50.15 79.1974 49.4062 78.2799 49.4062C77.3625 49.4062 76.6188 50.15 76.6188 51.0674C76.6188 51.9848 77.3625 52.7285 78.2799 52.7285Z" fill="#231F20"/>
<path d="M77.8647 51.0676C78.0941 51.0676 78.28 50.8817 78.28 50.6523C78.28 50.423 78.0941 50.2371 77.8647 50.2371C77.6354 50.2371 77.4495 50.423 77.4495 50.6523C77.4495 50.8817 77.6354 51.0676 77.8647 51.0676Z" fill="white"/>
<path opacity="0.3" d="M78.6953 51.8979C78.9246 51.8979 79.1106 51.712 79.1106 51.4827C79.1106 51.2533 78.9246 51.0674 78.6953 51.0674C78.4659 51.0674 78.28 51.2533 78.28 51.4827C78.28 51.712 78.4659 51.8979 78.6953 51.8979Z" fill="white"/>
<path d="M73.2967 51.2388L74.1771 52.7285L74.9578 51.2388C74.9578 51.2388 74.1439 50.8531 73.2967 51.2388Z" fill="#EC8822"/>
</g>
<circle cx="31.7794" cy="47.7304" r="2.23039" fill="#C7DEC7"/>
<circle cx="41.5931" cy="47.7304" r="2.23039" fill="#C7DEC7"/>
<circle cx="52.299" cy="47.7304" r="2.23039" fill="#C7DEC7"/>
<rect x="15.2745" y="61.5588" width="33.0098" height="2.67647" rx="1.33824" fill="#DBEEDB"/>
<rect x="63.0588" y="37.9707" width="23.0882" height="24.8725" rx="1.5" stroke="#F9F9F9"/>
<path d="M30.6847 30.2699C31.2144 29.9048 31.6677 29.4782 31.958 29.0942C32.2533 29.4782 32.7423 29.9096 33.2719 30.2699H30.6847ZM32.2788 31.8058H33.7048V31.3128H32.2788V30.7676H33.4705V30.3979C33.6539 30.5164 33.8372 30.6207 34.0206 30.7155C34.1326 30.5401 34.265 30.3599 34.4229 30.2082C33.6182 29.8906 32.7881 29.2696 32.2432 28.5491H31.6167C31.2399 29.1274 30.4199 29.8574 29.549 30.2651C29.6865 30.3836 29.8546 30.5875 29.931 30.7202C30.1245 30.6207 30.3129 30.5116 30.4963 30.3931V30.7676H31.6473V31.3128H30.2366V31.8058H31.6473V32.3699H29.8291V32.8771H34.1632V32.3699H32.2788V31.8058Z" fill="#3F7C79"/>
<path d="M35.9253 30.8055V30.3362H37.0356C37.0509 30.4974 37.0712 30.6538 37.0967 30.8055H35.9253ZM38.3699 29.3028V29.8148H35.9253V29.3028H38.3699ZM39.3478 31.3317V30.8055H37.7282C37.6977 30.6538 37.6773 30.4974 37.662 30.3362H38.9862V28.7766H35.304V32.2703C35.1105 32.294 34.9271 32.3083 34.7692 32.3225L34.8915 32.9103C35.5535 32.8297 36.455 32.7207 37.2953 32.6117L37.2749 32.0523C36.8268 32.1044 36.3582 32.1566 35.9253 32.2087V31.3317H37.2189C37.499 32.2893 38.0389 32.9909 38.701 32.9956C39.1593 32.9956 39.3732 32.8202 39.4598 32.0238C39.3019 31.9812 39.0727 31.8674 38.9352 31.7536C38.9098 32.2324 38.8537 32.4315 38.7366 32.4315C38.4412 32.4363 38.0898 31.9764 37.8708 31.3317H39.3478Z" fill="#3F7C79"/>
<path d="M43.799 29.355V29.5635H43.4475V29.355H43.799ZM43.799 30.1988H43.4475V29.976H43.799V30.1988ZM42.9026 29.5635H41.935V29.976H42.9026V30.1988H42.266V30.6064H42.9026V30.8292H42.2049V31.2369H42.9026V31.4692H42.0776V31.8769H42.9026V32.3083H43.4475V31.8769H44.461V31.4692H43.4475V31.2369H44.3388V30.8292H43.4475V30.6064H44.3082V29.976H44.5578V29.5635H44.3082V28.9473H43.4475V28.5965H42.9026V28.9473H42.266V29.355H42.9026V29.5635ZM40.784 29.6015C40.8603 29.4403 40.9316 29.2791 40.9979 29.1132V29.3976H41.4053C41.2372 29.8006 41.008 30.322 40.8094 30.7344L41.3034 30.8387L41.3951 30.6444H41.6396C41.5988 30.9478 41.5428 31.2274 41.4613 31.4834C41.3951 31.327 41.3391 31.1469 41.2932 30.9383L40.8349 31.0615C40.9317 31.4739 41.059 31.7963 41.2067 32.0523C41.0895 32.2514 40.9469 32.4126 40.784 32.5263V29.6015ZM41.8637 30.2272L41.772 30.2367H41.5835C41.7771 29.81 41.9655 29.3692 42.103 29.0136L41.7261 28.9236L41.6396 28.9425H41.0641C41.0895 28.8714 41.115 28.8003 41.1405 28.7292L40.6006 28.5775C40.402 29.227 40.0659 29.8717 39.689 30.2936C39.7807 30.4405 39.9131 30.7676 39.9538 30.9051C40.0557 30.7913 40.1575 30.6586 40.2543 30.5211V32.9814H40.784V32.6022C40.8909 32.7112 41.0131 32.8724 41.0692 32.9814C41.2576 32.8439 41.4206 32.678 41.5581 32.4789C41.9502 32.825 42.4697 32.9245 43.1369 32.9245H44.4101C44.4356 32.7776 44.5171 32.5405 44.5985 32.4173C44.3133 32.4268 43.4017 32.4268 43.1674 32.4268C42.6072 32.422 42.1489 32.3367 41.8127 32.0144C42.0113 31.5545 42.1285 30.9809 42.1794 30.2793L41.8637 30.2272Z" fill="#3F7C79"/>
<path d="M47.8936 30.6775H48.5965V30.9098H47.8936V30.6775ZM47.8936 30.066H48.5965V30.2841H47.8936V30.066ZM49.172 31.2843V30.6775H49.6252V30.2841H49.172V29.6915H47.8936V29.4592H49.5692V28.9662H47.7307V28.568H47.0992V28.9662H45.281V30.341C45.281 31.0378 45.2504 32.0238 44.8328 32.7017C44.9652 32.7586 45.2199 32.915 45.3217 33.0099C45.7801 32.2751 45.8565 31.1089 45.8565 30.341V29.4592H47.308V29.6915H46.2435V30.066H47.308V30.2841H45.9533V30.6775H47.308V30.9098H46.1875V31.2843H46.2588L45.9482 31.5688C46.1977 31.6967 46.5084 31.8911 46.6663 32.0238L47.0126 31.692C46.8547 31.564 46.5491 31.3981 46.3047 31.2843H47.308V32.4315C47.308 32.5074 47.2825 32.5311 47.1908 32.5311C47.1246 32.5358 46.9158 32.5358 46.7019 32.5263C46.8547 32.46 47.0126 32.3936 47.1654 32.3225L47.0584 31.9195C46.5695 32.0949 46.0704 32.2703 45.7343 32.3652L46.0144 32.8155C46.1875 32.7491 46.376 32.6685 46.5695 32.5832C46.6357 32.7159 46.7019 32.8771 46.7223 32.9956C47.1399 32.9956 47.4302 32.9909 47.6237 32.915C47.8223 32.8392 47.8936 32.7159 47.8936 32.4363V31.9764C48.1992 32.4173 48.6219 32.7491 49.1771 32.9387C49.2585 32.7965 49.4215 32.5927 49.5437 32.4837C49.1974 32.3936 48.902 32.2466 48.6576 32.057C48.902 31.9385 49.1771 31.7868 49.4266 31.6351L48.9835 31.3033C48.8155 31.436 48.5659 31.6114 48.3316 31.7442C48.2145 31.6019 48.1177 31.4502 48.0413 31.2843H49.172Z" fill="#3F7C79"/>
<path d="M51.1073 28.5728C50.8424 29.2459 50.379 29.9191 49.9053 30.3457C50.0072 30.4832 50.1753 30.7866 50.2313 30.924C50.3637 30.7961 50.491 30.6538 50.6184 30.5021V32.9814H51.1938V29.6773C51.3772 29.3739 51.5351 29.0516 51.6675 28.7434L51.1073 28.5728ZM52.3448 29.2649H53.8371V29.9001H52.3448V29.2649ZM54.6927 31.3365V30.8245H53.3787V30.3979H54.4431V28.7671H51.7693V30.3979H52.7676V30.8245H51.4332V31.3365H52.4773C52.1615 31.7536 51.7082 32.1376 51.2499 32.3604C51.3874 32.4694 51.5758 32.6733 51.6675 32.8108C52.0698 32.569 52.4569 32.2087 52.7676 31.7916V32.9909H53.3787V31.7679C53.669 32.1898 54.0408 32.5737 54.4126 32.8202C54.5093 32.678 54.7029 32.4789 54.8404 32.3699C54.4126 32.1376 53.9746 31.7489 53.6741 31.3365H54.6927Z" fill="#3F7C79"/>
<path d="M57.7026 29.6157C57.9063 29.4403 58.0795 29.2507 58.2017 29.0753C58.3341 29.2554 58.5124 29.4403 58.7212 29.6157H57.7026ZM57.4632 30.0328H58.9605V29.8053C59.1541 29.9475 59.3629 30.0755 59.5564 30.1703C59.6379 30.0044 59.7601 29.7958 59.8823 29.6536C59.3476 29.464 58.8179 29.0373 58.4614 28.568H57.8961C57.6466 28.9757 57.1475 29.4355 56.6076 29.6773C56.6891 29.4308 56.7706 29.1748 56.8419 28.9568L56.4446 28.7434L56.3581 28.7671H55.2733V32.9909H55.7978V29.2696H56.1798C56.1034 29.592 55.9965 30.0044 55.8997 30.303C56.1798 30.6207 56.2358 30.9146 56.2358 31.1326C56.2358 31.2654 56.2155 31.3602 56.1594 31.3981C56.1238 31.4265 56.0779 31.4408 56.0219 31.4408C55.9608 31.4408 55.8946 31.4408 55.808 31.436C55.8895 31.5688 55.9353 31.7821 55.9404 31.9148C56.0576 31.9195 56.1747 31.9148 56.2613 31.9053C56.3733 31.8864 56.4701 31.8579 56.5465 31.8105C56.7044 31.7015 56.7706 31.5024 56.7706 31.2037C56.7706 30.924 56.7095 30.6064 56.409 30.2462C56.4701 30.0945 56.5312 29.9143 56.5923 29.7342C56.6891 29.8622 56.796 30.0518 56.8521 30.1798C57.0609 30.0802 57.2697 29.9523 57.4632 29.81V30.0328ZM58.7568 30.6633H59.0929V31.1089H58.7568V30.6633ZM58.3188 31.4787H59.5615V30.2936H58.3188V31.4787ZM57.341 30.6633H57.6567V31.1089H57.341V30.6633ZM56.9081 31.4787H58.11V30.2936H56.9081V31.4787ZM58.1304 32.3557C58.0387 32.2466 57.8706 32.0855 57.7077 31.9575C57.7484 31.8579 57.7841 31.7536 57.8146 31.6493L57.2901 31.5545C57.1678 32.0096 56.8928 32.4031 56.5057 32.6448C56.6178 32.7302 56.8164 32.9056 56.8979 32.9956C57.1271 32.8345 57.3257 32.6211 57.4887 32.3699C57.6058 32.4837 57.7179 32.5974 57.7739 32.6875L58.1304 32.3557ZM58.6397 31.5498C58.5531 32.0191 58.329 32.4031 57.947 32.6401C58.0642 32.7207 58.2577 32.9056 58.3392 32.9956C58.548 32.8534 58.7212 32.6638 58.8587 32.4457C59.0828 32.6306 59.3018 32.8297 59.424 32.9719L59.8059 32.6164C59.6532 32.441 59.3374 32.1945 59.0726 31.9954C59.1184 31.8769 59.149 31.7536 59.1795 31.6209L58.6397 31.5498Z" fill="#3F7C79"/>
<circle cx="21.0735" cy="30.7793" r="5.69118" stroke="#4497C6" stroke-width="2"/>
<circle cx="19.2892" cy="28.995" r="1.33824" fill="#74B46A"/>
<path d="M17.951 31.6712C17.951 30.9322 18.5502 30.333 19.2893 30.333C20.0284 30.333 20.6275 30.9322 20.6275 31.6712V33.9016H17.951V31.6712Z" fill="#74B46A"/>
<circle cx="22.8579" cy="28.995" r="1.33824" fill="#74B46A"/>
<path d="M21.5196 31.6712C21.5196 30.9322 22.1187 30.333 22.8578 30.333C23.5969 30.333 24.1961 30.9322 24.1961 31.6712V33.9016H21.5196V31.6712Z" fill="#74B46A"/>
<rect x="19.7354" y="31.2253" width="2.67647" height="0.892157" fill="#74B46A"/>
<rect x="16.1667" y="46.3921" width="7.13725" height="7.13725" rx="1" fill="#FFD873"/>
<path fill-rule="evenodd" clip-rule="evenodd" d="M20.6275 48.5334H18.8432C18.5968 48.5334 18.3971 48.6931 18.3971 48.8902V51.0314C18.3971 51.2285 18.5968 51.3883 18.8432 51.3883H20.6275C20.8739 51.3883 21.0736 51.2285 21.0736 51.0314V48.8902C21.0736 48.6931 20.8739 48.5334 20.6275 48.5334ZM18.8432 48.1765C18.3505 48.1765 17.951 48.4961 17.951 48.8902V51.0314C17.951 51.4256 18.3505 51.7451 18.8432 51.7451H20.6275C21.1202 51.7451 21.5197 51.4256 21.5197 51.0314V48.8902C21.5197 48.4961 21.1202 48.1765 20.6275 48.1765H18.8432Z" fill="#F0C965"/>
<path fill-rule="evenodd" clip-rule="evenodd" d="M17.0589 48.3253C17.0589 47.7504 17.5249 47.2844 18.0997 47.2844H22.2631C22.838 47.2844 23.304 47.7504 23.304 48.3253V52.4887C23.304 53.0635 22.838 53.5295 22.2631 53.5295H18.0997C17.5249 53.5295 17.0589 53.0635 17.0589 52.4887V48.3253ZM18.0997 47.7008C17.7548 47.7008 17.4752 47.9804 17.4752 48.3253V52.4887C17.4752 52.8336 17.7548 53.1132 18.0997 53.1132H22.2631C22.6081 53.1132 22.8877 52.8336 22.8877 52.4887V48.3253C22.8877 47.9804 22.6081 47.7008 22.2631 47.7008H18.0997Z" fill="#F0C965"/>
<path fill-rule="evenodd" clip-rule="evenodd" d="M23.304 49.4651H16.1667V49.0686H23.304V49.4651Z" fill="#F0C965"/>
<path fill-rule="evenodd" clip-rule="evenodd" d="M23.304 50.3572H16.1667V49.9607H23.304V50.3572Z" fill="#F0C965"/>
<defs>
<filter id="filter0_d_201_12669" x="0" y="0" width="86.9706" height="53.0686" filterUnits="userSpaceOnUse" color-interpolation-filters="sRGB">
<feFlood flood-opacity="0" result="BackgroundImageFix"/>
<feColorMatrix in="SourceAlpha" type="matrix" values="0 0 0 0 0 0 0 0 0 0 0 0 0 0 0 0 0 0 127 0" result="hardAlpha"/>
<feOffset dx="1" dy="2"/>
<feGaussianBlur stdDeviation="1"/>
<feComposite in2="hardAlpha" operator="out"/>
<feColorMatrix type="matrix" values="0 0 0 0 0.716667 0 0 0 0 0.716667 0 0 0 0 0.716667 0 0 0 0.24 0"/>
<feBlend mode="normal" in2="BackgroundImageFix" result="effect1_dropShadow_201_12669"/>
<feBlend mode="normal" in="SourceGraphic" in2="effect1_dropShadow_201_12669" result="shape"/>
</filter>
<filter id="filter1_d_201_12669" x="7.02942" y="20.5195" width="86.9706" height="53.0686" filterUnits="userSpaceOnUse" color-interpolation-filters="sRGB">
<feFlood flood-opacity="0" result="BackgroundImageFix"/>
<feColorMatrix in="SourceAlpha" type="matrix" values="0 0 0 0 0 0 0 0 0 0 0 0 0 0 0 0 0 0 127 0" result="hardAlpha"/>
<feOffset dy="2"/>
<feGaussianBlur stdDeviation="1"/>
<feComposite in2="hardAlpha" operator="out"/>
<feColorMatrix type="matrix" values="0 0 0 0 0.704687 0 0 0 0 0.825 0 0 0 0 0.814974 0 0 0 0.26 0"/>
<feBlend mode="normal" in2="BackgroundImageFix" result="effect1_dropShadow_201_12669"/>
<feBlend mode="normal" in="SourceGraphic" in2="effect1_dropShadow_201_12669" result="shape"/>
</filter>
<linearGradient id="paint0_linear_201_12669" x1="42.4853" y1="0" x2="42.4853" y2="49.0686" gradientUnits="userSpaceOnUse">
<stop stop-color="#FFF7ED"/>
<stop offset="1" stop-color="#FFF4E6"/>
</linearGradient>
<radialGradient id="paint1_radial_201_12669" cx="0" cy="0" r="1" gradientUnits="userSpaceOnUse" gradientTransform="translate(61.2127 17.3968) scale(4.00497 3.2474)">
<stop stop-color="#EF7F91" stop-opacity="0.7"/>
<stop offset="1" stop-color="white" stop-opacity="0"/>
</radialGradient>
<radialGradient id="paint2_radial_201_12669" cx="0" cy="0" r="1" gradientUnits="userSpaceOnUse" gradientTransform="translate(74.595 17.405) scale(4.00497 3.2474)">
<stop stop-color="#EF7F91" stop-opacity="0.7"/>
<stop offset="1" stop-color="white" stop-opacity="0"/>
</radialGradient>
<linearGradient id="paint3_linear_201_12669" x1="50.5147" y1="20.5195" x2="50.5147" y2="69.5882" gradientUnits="userSpaceOnUse">
<stop stop-color="#F7FFF5"/>
<stop offset="1" stop-color="#E8F8E6"/>
</linearGradient>
<radialGradient id="paint4_radial_201_12669" cx="0" cy="0" r="1" gradientUnits="userSpaceOnUse" gradientTransform="translate(67.0602 53.1435) scale(3.72844 3.02317)">
<stop stop-color="#EF7F91" stop-opacity="0.7"/>
<stop offset="1" stop-color="white" stop-opacity="0"/>
</radialGradient>
<radialGradient id="paint5_radial_201_12669" cx="0" cy="0" r="1" gradientUnits="userSpaceOnUse" gradientTransform="translate(80.349 52.3207) scale(3.72844 3.02317)">
<stop stop-color="#EF7F91" stop-opacity="0.7"/>
<stop offset="1" stop-color="white" stop-opacity="0"/>
</radialGradient>
</defs>
</svg>
