<svg width="120" height="64" viewBox="0 0 120 64" fill="none" xmlns="http://www.w3.org/2000/svg">
<g clip-path="url(#clip0_309_4122)">
<path d="M87.248 10.0516C72.3766 9.86684 60.4149 21.0435 60.461 35.1297C60.5072 51.0172 69.7903 62.7481 74.1316 65.8886C79.0272 69.491 79.9971 65.1497 82.5372 65.242C85.0312 65.3806 85.5854 66.2581 89.3263 68.1055C90.7119 68.7982 93.1135 68.8444 95.1918 67.9669C105.214 63.9027 112.372 52.4027 112.511 36.6077C112.696 21.5053 101.334 10.1901 87.248 10.0516Z" fill="#E7E4E2"/>
<path d="M68.081 49.4009C67.1111 49.0315 66.4645 48.2001 66.1874 47.1841C65.818 48.6158 66.5107 50.1399 67.7577 50.6017C69.0047 51.0636 70.344 50.3246 70.8521 48.9391C70.0207 49.5395 69.0047 49.7242 68.081 49.4009Z" fill="#989899"/>
<path d="M72.5152 56.4209C71.5915 56.1438 70.8526 55.4048 70.5293 54.5273C70.2984 55.8205 71.0835 57.1137 72.2843 57.4832C73.5313 57.8526 74.7321 57.1599 75.1016 55.8667C74.4088 56.4671 73.4389 56.698 72.5152 56.4209Z" fill="#989899"/>
<path d="M79.3965 58.3608C78.1495 58.1299 77.1335 57.2986 76.5792 56.2363C76.4407 57.8528 77.5953 59.3769 79.2117 59.7002C80.8282 60.0235 82.3523 59.0074 82.6294 57.3909C81.8443 58.2223 80.6435 58.6379 79.3965 58.3608Z" fill="#989899"/>
<path d="M86.6937 57.6219C87.6635 57.2986 88.4025 56.5596 88.6334 55.6821C89.0491 56.9291 88.3563 58.2685 87.0631 58.6379C85.77 59.0074 84.3845 58.3608 83.8764 57.16C84.6616 57.7143 85.6776 57.9452 86.6937 57.6219Z" fill="#989899"/>
<path d="M75.24 51.5254C74.0853 51.1097 73.2078 50.1861 72.8384 49.0776C72.4689 50.6479 73.3464 52.2644 74.8705 52.8186C76.3946 53.3266 78.011 52.5415 78.519 51.0174C77.6415 51.664 76.3946 51.8949 75.24 51.5254Z" fill="#989899"/>
<path d="M91.7738 51.8036C92.7899 51.4341 93.4365 50.6028 93.6674 49.5405C94.2216 50.9722 93.6212 52.4963 92.2818 52.9582C90.9425 53.42 89.4184 52.6811 88.7718 51.2955C89.6493 51.9421 90.7577 52.1731 91.7738 51.8036Z" fill="#989899"/>
<path d="M83.6455 53.0031C84.9387 52.9108 86.0471 52.218 86.6475 51.1558C86.7399 52.8646 85.4929 54.2963 83.7841 54.3887C82.0753 54.481 80.5974 53.2341 80.3202 51.5714C81.1054 52.5413 82.3524 53.0955 83.6455 53.0031Z" fill="#989899"/>
<path d="M90.9886 12.0376C90.9886 12.0376 93.7135 10.1902 96.9003 10.2364C99.6252 10.2826 99.1171 8.20431 96.4384 8.85089C94.2678 9.4051 90.9886 12.0376 90.9886 12.0376Z" fill="#989899"/>
<path d="M89.3724 11.4833C89.3724 11.4833 89.6957 8.52747 88.2178 6.40299C87.1556 4.8789 88.3102 3.95521 89.0492 4.09376C90.3885 4.2785 90.9427 6.44917 89.3724 11.4833Z" fill="#989899"/>
<path d="M88.0332 11.4369C88.0332 11.4369 85.3083 5.5715 82.4449 6.07953C80.4127 6.44901 85.6778 8.85059 88.0332 11.4369Z" fill="#989899"/>
<path d="M62.5393 28.2019C62.955 20.9971 68.2662 15.4088 74.5011 15.7321C76.8565 15.8707 78.981 16.7944 80.6898 18.3184C82.1677 19.6116 84.246 19.8425 86.0934 19.1498C87.756 18.5032 89.5572 18.1337 91.497 18.0875C99.9949 17.8566 106.876 24.1839 106.969 32.1738C107.061 40.1637 100.364 46.5834 91.9126 46.491C87.9869 46.4448 84.4769 45.0593 81.7982 42.7962C80.3665 41.5954 78.5191 41.1336 76.7641 41.6878C75.5171 42.1034 74.224 42.242 72.8846 42.1496C66.6959 41.5954 62.1236 35.4067 62.5393 28.2019Z" fill="white"/>
<path d="M92.513 35.5918C90.1408 35.5918 88.2178 33.6688 88.2178 31.2966C88.2178 28.9245 90.1408 27.0015 92.513 27.0015C94.8851 27.0015 96.8081 28.9245 96.8081 31.2966C96.8081 33.6688 94.8851 35.5918 92.513 35.5918Z" fill="#231F20"/>
<path d="M91.2196 31.0197C90.4289 31.0197 89.7879 30.3787 89.7879 29.588C89.7879 28.7972 90.4289 28.1562 91.2196 28.1562C92.0103 28.1562 92.6514 28.7972 92.6514 29.588C92.6514 30.3787 92.0103 31.0197 91.2196 31.0197Z" fill="white"/>
<path d="M78.842 34.1137C78.842 34.1137 78.7497 35.5454 78.1493 36.4691C78.1493 36.4691 80.7818 35.9611 81.7979 32.3125L78.842 34.1137Z" fill="#EC8822"/>
<path d="M78.4266 31.3433C78.4266 31.3433 78.9346 33.3292 78.7037 34.9919C78.6575 35.4075 79.3041 35.4537 79.6274 35.2228C80.782 34.3453 82.2599 32.9598 81.8904 31.02L78.4266 31.3433Z" fill="#D32E2E"/>
<path d="M77.6871 28.987C77.6871 28.987 76.671 29.1718 75.655 31.7119C75.655 31.7119 77.9642 31.2039 81.936 30.973C81.936 31.0192 80.0886 28.3866 77.6871 28.987Z" fill="#EC8822"/>
<path d="M67.0191 24.8307C67.0191 24.8307 68.7279 22.7986 70.8524 23.2143C72.9307 23.6761 74.7318 26.6781 74.8242 28.2484C74.8242 28.2484 72.4226 22.7524 67.0191 24.8307Z" fill="#231F20"/>
<path d="M110.987 42.5193C110.987 42.5193 105.86 41.4109 103.551 47.8305C101.334 53.9731 105.491 57.1598 101.473 64.457C101.473 64.457 109.647 62.1939 112.603 56.5594C116.067 50.0474 114.589 44.1358 110.987 42.5193Z" fill="#989899"/>
<path d="M62.0774 36.5151L65.1718 51.3865C65.6336 53.6958 63.8786 56.1436 61.2923 56.7901C58.5674 57.4829 56.1196 55.8664 56.0273 53.3725L55.5192 38.732L62.0774 36.5151Z" fill="#FCB316"/>
<path d="M66.3265 26.5854L72.3305 28.8485C72.3305 28.8485 74.4088 35.5914 69.8365 41.2259C69.8365 41.2259 63.2783 40.1175 62.7703 40.2561C62.2623 40.4408 66.3265 26.5854 66.3265 26.5854Z" fill="#F78C1F"/>
<path d="M27.4392 23.6758C25.4071 38.501 30.7183 50.001 37.3688 50.8323C44.8045 51.8022 51.7322 42.7038 54.2723 27.971C56.6278 14.4389 51.7784 3.03135 44.2965 2.06148C37.5074 1.23016 29.4251 8.85059 27.4392 23.6758Z" fill="#FEF59F"/>
<path d="M59.3987 20.7204L59.6758 31.8046L55.7501 41.5496L42.957 35.7765L46.8365 20.5356L59.3987 20.7204Z" fill="#FFD54F"/>
<path d="M43.6722 36.0519C41.1912 35.5822 39.8453 31.6868 40.6661 27.3514C41.4869 23.0159 44.1635 19.882 46.6445 20.3517C49.1255 20.8214 50.4714 24.7167 49.6506 29.0522C48.8298 33.3877 46.1532 36.5216 43.6722 36.0519Z" fill="#FFFEF8"/>
<path d="M54.2724 27.9708C55.4732 19.1496 53.2563 11.3906 50.5776 6.0332C55.196 12.4067 59.6298 19.0572 70.0675 27.3704C70.0675 27.3704 72.3305 35.8222 67.2502 41.0872C67.2502 41.0872 59.7683 41.4567 42.5877 49.7699C47.8989 46.1213 52.933 37.6234 54.2724 27.9708Z" fill="#FBBF1F"/>
<path d="M56.5354 37.8083C58.429 35.3606 60.3225 33.9751 61.8466 35.8686C62.9551 38.3164 59.1679 42.5654 59.1679 42.5654C59.1679 42.5654 61.8928 40.718 62.7242 42.2882C63.5555 43.8585 62.5856 46.6296 58.8908 47.9689C58.8908 47.9689 60.8767 47.23 61.6619 48.8464C62.7241 51.1095 56.4892 55.2661 55.8427 54.5733C53.164 51.5252 54.1338 41.3646 56.5354 37.8083Z" fill="#989899"/>
<path d="M11 10L22 19" stroke="#98CECA" stroke-width="2" stroke-linecap="round" stroke-linejoin="round"/>
<path d="M5 42L20 36" stroke="#98CECA" stroke-width="2" stroke-linecap="round" stroke-linejoin="round"/>
</g>
<defs>
<clipPath id="clip0_309_4122">
<rect width="120" height="64" fill="white"/>
</clipPath>
</defs>
</svg>
