<svg width="24" height="24" viewBox="0 0 24 24" fill="none" xmlns="http://www.w3.org/2000/svg">
<circle cx="11.9974" cy="11.9974" r="9.99964" transform="rotate(-11.6714 11.9974 11.9974)" fill="#EFFFFE" stroke="#009891" stroke-width="2"/>
<path d="M12.9958 21.3603C10.8264 20.3631 9.3201 18.1709 9.3201 15.6269C9.3201 12.1438 12.1437 9.32017 15.6268 9.32017C18.1709 9.32017 20.3631 10.8265 21.3602 12.9959C20.7869 19.6403 15.0535 20.7869 12.9958 21.3603Z" fill="#C9EBE9"/>
<circle cx="11.9974" cy="11.9974" r="9.99964" transform="rotate(-11.6714 11.9974 11.9974)" stroke="#009891" stroke-width="2"/>
<path d="M13.9068 9.46012C13.3335 7.53257 10.5485 7.86904 10.5485 10.0108C10.5485 12.1526 13.8247 11.4386 13.8247 13.2235C13.8247 15.8854 10.4668 15.2429 10.4668 13.9579" stroke="#009891" stroke-width="2" stroke-linecap="round"/>
<line x1="12.3671" y1="6.88014" x2="12.3671" y2="7.63384" stroke="#009891" stroke-width="2" stroke-linecap="round"/>
<line x1="12.3671" y1="15.1413" x2="12.3671" y2="15.895" stroke="#009891" stroke-width="2" stroke-linecap="round"/>
</svg>
