<svg width="25" height="24" viewBox="0 0 25 24" fill="none" xmlns="http://www.w3.org/2000/svg">
<path d="M18.1554 5.07148L16.7114 6.57143C16.0204 7.28928 16.0204 8.425 16.7114 9.14286C17.4025 9.86071 17.4025 10.9964 16.7114 11.7143L12.891 15.6829C12.2485 16.3503 11.2056 16.4248 10.4748 15.8554C9.78561 15.3185 8.81131 15.3505 8.15885 15.9314L6.31297 17.5749C5.54219 18.2612 5.4201 19.4252 6.13836 20.1662C6.83934 20.8895 7.76411 21.6883 8.66628 22C13.3122 23.6053 23.4074 12.0731 22.9 7.85714C22.7514 6.62214 21.4688 5.49314 20.452 4.78012C19.7292 4.27321 18.7677 4.43545 18.1554 5.07148Z" fill="#EFFFFE" stroke="#009891" stroke-width="2" stroke-linecap="round"/>
<mask id="mask0_2288_150594" style="mask-type:alpha" maskUnits="userSpaceOnUse" x="4" y="3" width="20" height="21">
<path d="M18.1554 5.07148L16.7114 6.57143C16.0204 7.28928 16.0204 8.425 16.7114 9.14286C17.4025 9.86071 17.4025 10.9964 16.7114 11.7143L12.891 15.6829C12.2485 16.3503 11.2056 16.4248 10.4748 15.8554C9.78561 15.3185 8.81131 15.3505 8.15885 15.9314L6.31297 17.5749C5.54219 18.2612 5.4201 19.4252 6.13836 20.1662C6.83934 20.8895 7.76411 21.6883 8.66628 22C13.3122 23.6053 23.4074 12.0731 22.9 7.85714C22.7514 6.62214 21.4688 5.49314 20.452 4.78012C19.7292 4.27321 18.7677 4.43545 18.1554 5.07148Z" fill="#EFFFFE" stroke="#009891" stroke-width="2" stroke-linecap="round"/>
</mask>
<g mask="url(#mask0_2288_150594)">
<ellipse cx="13.4281" cy="21.5" rx="5.48378" ry="5.5" fill="#C9EBE9"/>
<path d="M18.1554 5.07148L16.7114 6.57143C16.0204 7.28928 16.0204 8.425 16.7114 9.14286C17.4025 9.86071 17.4025 10.9964 16.7114 11.7143L12.891 15.6829C12.2485 16.3503 11.2056 16.4248 10.4748 15.8554C9.78561 15.3185 8.81131 15.3505 8.15885 15.9314L6.31297 17.5749C5.54219 18.2612 5.4201 19.4252 6.13836 20.1662C6.83934 20.8895 7.76411 21.6883 8.66628 22C13.3122 23.6053 23.4074 12.0731 22.9 7.85714C22.7514 6.62214 21.4688 5.49314 20.452 4.78012C19.7292 4.27321 18.7677 4.43545 18.1554 5.07148Z" stroke="#009891" stroke-width="2" stroke-linecap="round"/>
</g>
<path d="M8.44277 11.9999C7.94456 9.49984 11.4344 7.49988 12.9647 7.77426" stroke="#009891" stroke-width="2" stroke-linecap="round"/>
<path d="M3.99073 10.7744C3.4922 7.77443 8.47783 2.77441 11.9671 4.27443" stroke="#009891" stroke-width="2" stroke-linecap="round"/>
</svg>
