<svg width="24" height="24" viewBox="0 0 24 24" fill="none" xmlns="http://www.w3.org/2000/svg">
<circle cx="12" cy="12" r="10" fill="#EFFFFE"/>
<path d="M14.1458 21.5C13.4333 20.7039 13 19.6525 13 18.5C13 16.0147 15.0147 14 17.5 14C19.0602 14 20.435 14.794 21.2422 16C20 20 17.5 20.5 14.1458 21.5Z" fill="#C9EBE9"/>
<ellipse cx="15.7776" cy="11.8715" rx="1.29177" ry="1.2221" fill="#009891"/>
<ellipse cx="8.28152" cy="11.8715" rx="1.29177" ry="1.2221" fill="#009891"/>
<path d="M12.0294 18.3892C14.0359 18.3892 15.7497 17.2078 16.4386 15.5376H15.0004C14.4062 16.5071 13.3039 17.1671 12.0294 17.1671C10.7548 17.1671 9.66112 16.5071 9.05829 15.5376H7.62012C8.30906 17.2078 10.0228 18.3892 12.0294 18.3892Z" fill="#009891"/>
<path fill-rule="evenodd" clip-rule="evenodd" d="M19 8.73496V9.01987H14.7257L13.9329 7.55334L13.222 9.01987H9.90814L9.16472 7.55334L8.3393 9.01987H4.96826V8.73408C6.28051 6.29044 8.9296 4.62012 11.9839 4.62012C15.0386 4.62012 17.6879 6.29084 19 8.73496Z" fill="#009891"/>
<path d="M2.45455 15.13C2.15918 14.1758 2 13.1608 2 12.1081C2 6.52555 6.47715 2 12 2C17.5228 2 22 6.52555 22 12.1081C22 14.5329 21.1553 16.7583 19.7472 18.5C17 21.898 14 21 14 21" stroke="#009891" stroke-width="2" stroke-linecap="round"/>
</svg>
