<svg width="24" height="24" viewBox="0 0 24 24" fill="none" xmlns="http://www.w3.org/2000/svg">
<path d="M19 10.5C19 13.7469 17.1795 16.5686 14.5036 18C13.93 16.5713 11.7248 10.4952 10.5 10C8.5 9.5 9.21442 13.4291 10.5 19C5.80558 19 2 15.1944 2 10.5C2 5.80558 5.80558 2 10.5 2C15.1944 2 19 5.80558 19 10.5Z" fill="#EFFFFE"/>
<circle cx="12.5" cy="11.5" r="6.5" fill="#C9EBE9"/>
<path d="M19 10.5065C19 5.80849 15.1944 2 10.5 2C5.80558 2 2 5.80849 2 10.5065C2 13.7466 3.81018 16.5637 6.47368 18" stroke="#009891" stroke-width="2" stroke-linecap="round"/>
<path d="M21.6975 15.6232L21.0811 14.3387C20.668 13.0559 16.1975 13.1232 18.1975 17.1232C17.1975 13.1232 13.2172 14.3387 13.9749 16.6232M14.6974 18.6233C14.6974 18.6233 13.9139 16.798 13.9749 16.6232M14.6974 18.6233L13.9749 16.6232M14.6974 18.6233L12.1266 11.0506C11.1974 9.12326 8.12384 9.62326 8.6975 12.1232L11.6975 20.1233L10.17 19.0456C7.62347 17.1233 5.19762 19.6233 7.62382 21.2715L8.69754 22.1232" stroke="#009891" stroke-width="2" stroke-linecap="round" stroke-linejoin="round"/>
</svg>
