<svg xmlns="http://www.w3.org/2000/svg" width="32" height="40" viewBox="0 0 32 40">
    <g fill="none" fill-rule="evenodd" stroke-width="2" transform="translate(3 2)">
        <path fill="#007979" stroke="#F5FBFA" d="M13 19.597c-3.607 0-6.54-2.942-6.54-6.56 0-3.616 2.934-6.559 6.54-6.559s6.54 2.943 6.54 6.56c0 3.617-2.934 6.56-6.54 6.56M13 0C5.832 0 0 5.849 0 13.038c0 8.922 11.634 22.02 12.129 22.573.465.52 1.278.518 1.742 0C14.366 35.057 26 21.96 26 13.038 26 5.848 20.168 0 13 0"/>
        <circle cx="13" cy="13" r="7" fill="#F5FBFA" stroke="#007979"/>
    </g>
</svg>
