<?xml version="1.0" encoding="utf-8"?>
<!-- Generator: Adobe Illustrator 24.1.0, SVG Export Plug-In . SVG Version: 6.00 Build 0)  -->
<svg version="1.1" id="piggy_baby" xmlns="http://www.w3.org/2000/svg" xmlns:xlink="http://www.w3.org/1999/xlink" x="0px" y="0px"
	 viewBox="0 0 210 180" style="enable-background:new 0 0 210 180;" xml:space="preserve">
<style type="text/css">
	.ani-tail-swing {
		-webkit-animation: swing 8s infinite linear;
		transform-origin: 50% 50%;
		transform-box: fill-box;
	}
	@-webkit-keyframes swing {
		0%   {}
		56%  { transform: rotate(0deg);}
		60%  { transform: rotate(16deg);}
		64%  { transform: rotate(-2deg);}
		66%  { transform: rotate(-8deg);}
		68%  { transform: rotate(0deg);}
		100% {}
	}
	.eye-bling {
		-webkit-animation: bling .8s infinite linear;
		transform-box: fill-box;
		transform-origin: center;
	}
	.delay-ani {
		animation-delay: .7s;
		transform: skewY(7deg);
	}
	@-webkit-keyframes bling {
		0% {
			opacity: 1;
		}
		60% {
			opacity: .7;
			transform: scale(1.15) skewY(-7deg) rotate(360deg);
		}
		100% {
			opacity: 1;
		}
	}
	.ani-head-swing {
        -webkit-animation: head_swing 8s infinite linear;
        transform-origin: 50% 50%;
        transform-box: fill-box;
	}
	@-webkit-keyframes head_swing {
		0%   {}
		5%   { transform: rotate(0);}
		10%  { transform: rotate(6deg); }
		20%  { transform: rotate(6deg); }
		25%  { transform: rotate(0);}
		35%  { transform: rotate(0);}
		40%  { transform: rotate(6deg); }
		50%  { transform: rotate(6deg); }
		55%  { transform: rotate(0);}
		100% {}
	}
	.ani-eyebrow-show {
        -webkit-animation: show 8s infinite linear;
		opacity: 0;
	}
	@-webkit-keyframes show {
		0%   { opacity: 0;}
		5%   { opacity: 0;}
		10%  { opacity: 1;}
		20%  { opacity: 1;}
		25%  { opacity: 0;}
		35%  { opacity: 0;}
		40%  { opacity: 1;}
		50%  { opacity: 1;}
		55%  { opacity: 0;}
		100% { opacity: 0;}
	}
	.ani-mouth-hide {
        -webkit-animation: hide 8s infinite linear;
		opacity: 1;
	}
	@-webkit-keyframes hide {
		0%   {}
		8%   { opacity: 1;}
		9%   { opacity: 0;}
		19%  { opacity: 0;}
		20%  { opacity: 1;}
		38%  { opacity: 1;}
		39%  { opacity: 0;}
		49%  { opacity: 0;}
		50%  { opacity: 1;}
		100% {}
	}
	.ani-nose {
        -webkit-animation: nose-move 8s infinite linear;
	}
	@-webkit-keyframes nose-move {
		0%   {}
		8%  { transform: translate(0, 0);}
		10%  { transform: translate(0, -1px);}
		20%  { transform: translate(0, -1px);}
		22%  { transform: translate(0, 0);}
		36%  { transform: translate(0, 0);}
		38%  { transform: translate(0, -1px);}
		50%  { transform: translate(0, -1px);}
		52%  { transform: translate(0, 0);}
		100% {}
	}
	.st0{opacity:0.3;}
	.st1{fill-rule:evenodd;clip-rule:evenodd;fill:url(#SVGID_1_);}
	.st2{fill:#095450;}
	.st3{fill:#053A36;}
	.st4{fill:#F4BD29;}
	.st5{fill:#FAE737;}
	.st6{fill:#FAD537;}
	.st7{opacity:0.2;fill:#AFAFAF;enable-background:new    ;}
	.st8{fill:#059393;}
	.st9{fill:#00888A;}
	.st10{fill:#AD761E;}
	.st11{fill:#915D00;}
	.st12{fill:#FCCB5E;}
	.st13{fill:#E8B652;}
	.st14{fill:#FFD97B;}
	.st15{opacity:0.5;fill:url(#SVGID_2_);}
	.st16{opacity:0.5;fill:url(#SVGID_3_);}
	.st17{fill:#834918;}
	.st18{fill:#231F20;}
	.st19{clip-path:url(#SVGID_5_);fill:#F995AB;}
	.st20{fill:#C01018;}
	.st21{fill:#60040F;}
	.st22{fill:#FFFFFF;}
	.st23{opacity:0.5;fill:#FFFFFF;}
	.st24{fill:none;stroke:#ABC6C6;}
	.st25{fill:#ABC6C6;}
	.st26{fill:#DDAC54;}
</style>
<g class="st0">
	
		<linearGradient id="SVGID_1_" gradientUnits="userSpaceOnUse" x1="100.2123" y1="639.507" x2="96.7598" y2="660.2874" gradientTransform="matrix(1 0 0 1 0 -490.4305)">
		<stop  offset="0" style="stop-color:#C7E8E8"/>
		<stop  offset="1" style="stop-color:#99C9C9"/>
	</linearGradient>
	<path class="st1" d="M190.6,160.95c0,5.45-32.62,9.87-72.86,9.87c-10.66,0-20.79-0.31-29.92-0.87c-8.2,2.91-21.73,4.82-37.04,4.82
		c-25.01,0-45.29-5.08-45.29-11.35s20.28-11.35,45.29-11.35c7.47,0,14.51,0.45,20.72,1.25c12.58-1.4,28.68-2.24,46.24-2.24
		C157.98,151.08,190.6,155.5,190.6,160.95z"/>
</g>
<g>
	<path class="st2" d="M82.86,145.34c0,4.05-16.6,8.21-37.04,8.21s-37-4.16-37-8.21S25.39,138,45.84,138S82.86,141.29,82.86,145.34z"
		/>
	<path class="st3" d="M45.93,146.76c-12.52,0-23.59,1.23-30.29,3.12c6.7,2.13,17.71,3.67,30.17,3.67c12.52,0,23.59-1.56,30.3-3.7
		C69.4,147.98,58.39,146.76,45.93,146.76z"/>
	<g>
		<path class="st4" d="M18.54,153.01c1.36-2.47,6.23-4.16,12.01-3.97c5.73,0.19,10.54,2.18,11.92,4.69l0.37,0.01l0.03,1.41
			c0.06,3.17-5.36,5.61-12.18,5.44c-6.88-0.17-12.51-2.94-12.53-6.16L18.15,153L18.54,153.01z"/>
		<path class="st5" d="M18.16,152.65c0.01,3.22,5.64,5.98,12.51,6.16c6.81,0.18,12.23-2.25,12.17-5.41
			c-0.06-3.15-5.55-5.88-12.31-6.11C23.71,147.06,18.14,149.45,18.16,152.65"/>
		<path class="st6" d="M25.77,149.76c0.48-0.16,1.04-0.24,1.68-0.22c0.41,0.01,0.82,0.06,1.22,0.15c0.36,0.09,0.71,0.23,1.05,0.42
			c0.31,0.2,0.61,0.45,0.87,0.76c0.26,0.32,0.46,0.71,0.67,1.16c0.81-0.01,1.6-0.04,2.35-0.06c0.73-0.02,1.47-0.04,2.22-0.09
			l0.18-0.01c0.02-0.1,0.05-0.21,0.05-0.32v-0.31c0-0.12-0.03-0.26-0.03-0.4C36,150.72,36,150.58,36,150.45
			c0-0.1,0.07-0.18,0.22-0.25c0.15-0.06,0.32-0.09,0.58-0.08c0.25,0.01,0.48,0.06,0.63,0.14s0.25,0.18,0.33,0.29
			c0.05,0.13,0.1,0.24,0.13,0.36l0.01,0.82l0.9-0.06c0.25-0.02,0.43-0.02,0.53-0.02c0.2,0.01,0.4,0.06,0.55,0.15
			c0.15,0.1,0.23,0.2,0.23,0.31c0,0.2-0.19,0.31-0.6,0.38c-0.1,0.02-0.3,0.04-0.6,0.06c-0.3,0.03-0.7,0.05-1.18,0.07
			c-0.1,0.29-0.19,0.57-0.31,0.86c-0.15,0.29-0.37,0.54-0.62,0.77c-0.32,0.31-0.77,0.55-1.33,0.7c-0.61,0.16-1.31,0.22-2.12,0.2
			c-0.46-0.01-0.91-0.08-1.37-0.2c-0.51-0.13-0.87-0.27-1.1-0.45c-0.31-0.21-0.56-0.46-0.75-0.74c-0.18-0.28-0.34-0.56-0.44-0.86
			c-0.81,0.03-1.6,0.03-2.32,0.03c-0.77,0.01-1.43,0.02-2.04,0.01c0.05,0.31,0.21,0.62,0.42,0.9c0.18,0.29,0.49,0.59,0.9,0.9
			c0.08,0.06,0.13,0.12,0.18,0.15c0.05,0.05,0.08,0.09,0.08,0.13c0,0.11-0.1,0.2-0.28,0.27c-0.21,0.07-0.43,0.1-0.69,0.09
			c-0.28-0.01-0.54-0.09-0.8-0.25c-0.28-0.16-0.57-0.38-0.83-0.66c-0.21-0.22-0.39-0.46-0.52-0.73c-0.16-0.25-0.26-0.53-0.34-0.82
			c-0.2,0.01-0.38,0-0.54,0l-0.38-0.01c-0.26-0.01-0.44-0.05-0.59-0.14c-0.16-0.08-0.23-0.18-0.23-0.31c0-0.12,0.08-0.22,0.23-0.32
			c0.15-0.07,0.33-0.11,0.59-0.11l0.33,0.01c0.13,0,0.31,0.01,0.51,0c0-0.26,0.1-0.54,0.3-0.85c0.2-0.29,0.46-0.57,0.81-0.83
			C24.85,150.13,25.26,149.92,25.77,149.76 M35.51,153.11c0.07-0.12,0.15-0.24,0.25-0.39l-1.94,0.08c-0.71,0.03-1.42,0.06-2.18,0.07
			c0.21,0.4,0.49,0.75,0.8,1.02c0.28,0.27,0.61,0.4,0.97,0.41c0.38,0.01,0.73-0.07,1.06-0.23c0.3-0.16,0.58-0.35,0.8-0.6
			C35.36,153.36,35.43,153.24,35.51,153.11 M28.27,150.68c-0.28-0.14-0.56-0.23-0.84-0.24c-0.36-0.01-0.64,0.04-0.89,0.13
			c-0.28,0.09-0.51,0.22-0.69,0.38c-0.2,0.15-0.33,0.32-0.43,0.52s-0.15,0.39-0.15,0.59c0.59,0.01,1.23,0,1.94,0l2.17-0.01
			c-0.08-0.16-0.15-0.33-0.21-0.48c-0.08-0.14-0.18-0.28-0.28-0.41C28.74,150.99,28.53,150.84,28.27,150.68"/>
		<g>
			<g>
				<path class="st4" d="M55.32,150.92c1.19-2.67,5.46-4.58,10.52-4.48c5.02,0.1,9.24,2.13,10.45,4.81l0.33,0.01l0.03,1.51
					c0.06,3.4-4.7,6.12-10.67,6.06c-6.03-0.06-10.97-2.92-10.98-6.37l-0.01-1.54H55.32z"/>
				<path class="st5" d="M54.97,151.35c0.02,3.01,4.95,5.51,10.98,5.57c5.97,0.07,10.72-2.29,10.65-5.25
					c-0.06-2.95-4.88-5.42-10.8-5.53C59.82,146.03,54.95,148.36,54.97,151.35"/>
				<path class="st6" d="M61.7,148.57c0.36-0.15,0.78-0.24,1.26-0.23c0.31,0.01,0.61,0.05,0.92,0.12c0.27,0.07,0.54,0.2,0.79,0.37
					c0.23,0.17,0.46,0.41,0.66,0.68c0.19,0.29,0.35,0.64,0.51,1.06c0.61-0.02,1.2-0.06,1.77-0.1c0.55-0.03,1.1-0.06,1.67-0.12
					l0.13-0.01c0.02-0.09,0.04-0.19,0.04-0.29v-0.28c0-0.11-0.02-0.24-0.03-0.36c-0.02-0.11-0.02-0.24-0.02-0.36
					c0-0.09,0.06-0.17,0.17-0.24c0.11-0.05,0.24-0.09,0.43-0.08c0.19,0,0.36,0.05,0.48,0.12c0.12,0.07,0.19,0.16,0.25,0.26
					c0.04,0.11,0.08,0.22,0.1,0.33l0.01,0.76l0.68-0.07c0.19-0.02,0.32-0.03,0.4-0.03c0.15,0,0.3,0.05,0.42,0.13
					c0.12,0.09,0.17,0.18,0.17,0.29c0,0.18-0.15,0.29-0.45,0.36c-0.08,0.02-0.23,0.04-0.45,0.06c-0.23,0.03-0.53,0.06-0.89,0.09
					c-0.07,0.27-0.14,0.53-0.24,0.79c-0.11,0.27-0.28,0.51-0.47,0.72c-0.24,0.29-0.58,0.52-1,0.67c-0.46,0.15-0.99,0.23-1.6,0.22
					c-0.34,0-0.69-0.06-1.03-0.16c-0.38-0.11-0.65-0.24-0.83-0.4c-0.23-0.19-0.42-0.42-0.56-0.67s-0.25-0.51-0.33-0.78
					c-0.61,0.04-1.21,0.05-1.74,0.06c-0.58,0.03-1.08,0.04-1.54,0.05c0.04,0.29,0.16,0.56,0.31,0.82c0.14,0.27,0.37,0.53,0.68,0.81
					c0.06,0.06,0.1,0.1,0.14,0.14c0.04,0.05,0.06,0.08,0.06,0.12c0,0.1-0.08,0.18-0.21,0.25c-0.15,0.07-0.33,0.1-0.52,0.1
					c-0.21,0-0.41-0.07-0.6-0.21c-0.21-0.14-0.43-0.34-0.62-0.59c-0.15-0.2-0.29-0.42-0.39-0.66c-0.12-0.23-0.2-0.48-0.26-0.75
					c-0.15,0.01-0.29,0.01-0.4,0h-0.29c-0.19,0-0.33-0.04-0.44-0.12c-0.12-0.07-0.18-0.16-0.18-0.28c0-0.11,0.06-0.2,0.17-0.3
					c0.11-0.07,0.25-0.11,0.44-0.11h0.25c0.1,0,0.23,0,0.38-0.01c0-0.24,0.07-0.5,0.23-0.79c0.15-0.27,0.34-0.53,0.61-0.78
					C61.01,148.93,61.32,148.73,61.7,148.57 M69.02,151.5c0.06-0.11,0.11-0.23,0.19-0.36l-1.46,0.1c-0.53,0.04-1.07,0.07-1.64,0.1
					c0.16,0.37,0.37,0.68,0.6,0.92c0.21,0.24,0.46,0.36,0.73,0.36c0.29,0,0.55-0.07,0.8-0.23c0.23-0.16,0.43-0.34,0.6-0.56
					C68.91,151.73,68.97,151.62,69.02,151.5 M63.58,149.38c-0.21-0.13-0.42-0.2-0.63-0.2c-0.27,0-0.48,0.05-0.67,0.14
					c-0.21,0.09-0.38,0.21-0.51,0.36c-0.15,0.15-0.25,0.3-0.32,0.48c-0.08,0.18-0.11,0.36-0.11,0.55c0.44,0,0.92-0.02,1.46-0.03
					l1.63-0.04c-0.06-0.15-0.12-0.3-0.16-0.44c-0.06-0.13-0.14-0.25-0.21-0.37C63.93,149.66,63.78,149.52,63.58,149.38"/>
				<path class="st7" d="M63.87,146.32c0,0,3.88,1.87,3.12,4.65c-1.34,4.91-14.46,4.84-14.46,4.84s-4.05-0.21-7.07-2.68
					c-2.4-1.96-3.69-5.09-3.7-5.71C41.75,146.04,63.87,146.32,63.87,146.32z"/>
				<path class="st4" d="M42.31,145.41c1.56-2.67,6.27-4.21,11.57-3.58c5.26,0.63,9.46,3.2,10.42,6.11l0.34,0.04l-0.15,1.58
					c-0.33,3.56-5.65,5.9-11.92,5.21c-6.33-0.69-11.18-4.19-10.8-7.8l0.17-1.6L42.31,145.41z"/>
				<path class="st5" d="M41.89,145.92c-0.33,3.09,4.57,6.18,10.89,6.87c6.26,0.69,11.52-1.23,11.79-4.28
					c0.27-3.03-4.5-6.07-10.71-6.81C47.6,140.96,42.22,142.84,41.89,145.92"/>
				<path class="st6" d="M49.74,143.86c0.38-0.12,0.81-0.16,1.29-0.1c0.31,0.04,0.61,0.11,0.91,0.21c0.26,0.1,0.52,0.26,0.75,0.44
					c0.21,0.2,0.42,0.45,0.58,0.74c0.16,0.31,0.28,0.67,0.39,1.1c0.61,0.04,1.21,0.06,1.78,0.08c0.55,0.03,1.11,0.05,1.69,0.05h0.13
					c0.03-0.09,0.06-0.19,0.07-0.29l0.03-0.28c0.01-0.11,0-0.24,0.02-0.36c-0.01-0.12,0-0.24,0.02-0.36
					c0.01-0.09,0.07-0.16,0.19-0.22c0.12-0.04,0.25-0.06,0.44-0.04s0.35,0.09,0.46,0.17s0.17,0.18,0.22,0.29
					c0.03,0.12,0.05,0.22,0.06,0.34l-0.07,0.76h0.69c0.19,0,0.32,0,0.4,0.01c0.15,0.02,0.3,0.08,0.4,0.17
					c0.11,0.1,0.15,0.2,0.14,0.3c-0.02,0.18-0.18,0.28-0.49,0.31c-0.08,0.01-0.23,0.02-0.46,0.02c-0.23,0.01-0.54,0.01-0.9,0
					c-0.1,0.26-0.2,0.51-0.32,0.76c-0.14,0.26-0.34,0.48-0.54,0.67c-0.28,0.27-0.64,0.46-1.07,0.57c-0.47,0.11-1.01,0.13-1.62,0.06
					c-0.34-0.04-0.68-0.12-1.01-0.27c-0.37-0.15-0.63-0.3-0.78-0.48c-0.21-0.21-0.38-0.46-0.49-0.72c-0.11-0.27-0.2-0.53-0.25-0.81
					c-0.62-0.02-1.21-0.07-1.75-0.11c-0.58-0.03-1.08-0.07-1.54-0.11c0.01,0.29,0.1,0.58,0.22,0.84c0.11,0.28,0.31,0.57,0.59,0.87
					c0.05,0.06,0.08,0.11,0.12,0.15c0.03,0.05,0.05,0.09,0.05,0.12c-0.01,0.1-0.1,0.17-0.24,0.23c-0.16,0.05-0.34,0.07-0.53,0.04
					c-0.21-0.02-0.4-0.11-0.58-0.27c-0.2-0.16-0.39-0.38-0.56-0.65c-0.13-0.21-0.25-0.44-0.32-0.69c-0.09-0.24-0.14-0.5-0.17-0.77
					c-0.15-0.01-0.29-0.02-0.41-0.04l-0.29-0.03c-0.19-0.02-0.32-0.07-0.43-0.16c-0.11-0.08-0.16-0.18-0.15-0.29s0.08-0.2,0.21-0.28
					c0.12-0.05,0.26-0.08,0.45-0.06l0.25,0.03c0.1,0.01,0.23,0.03,0.38,0.03c0.02-0.24,0.13-0.49,0.31-0.76
					c0.18-0.25,0.4-0.49,0.7-0.71C49.01,144.14,49.34,143.98,49.74,143.86 M56.75,147.5c0.07-0.11,0.14-0.21,0.23-0.34l-1.48-0.04
					c-0.54-0.02-1.07-0.03-1.65-0.06c0.12,0.38,0.29,0.71,0.5,0.98c0.19,0.26,0.42,0.4,0.69,0.44c0.29,0.03,0.56-0.02,0.82-0.15
					c0.24-0.13,0.47-0.29,0.66-0.5C56.61,147.72,56.68,147.61,56.75,147.5 M51.54,144.85c-0.2-0.15-0.4-0.24-0.61-0.27
					c-0.27-0.03-0.48,0-0.69,0.07c-0.22,0.07-0.4,0.17-0.55,0.3c-0.17,0.13-0.28,0.28-0.38,0.45c-0.1,0.17-0.15,0.35-0.17,0.53
					c0.44,0.04,0.92,0.07,1.46,0.11l1.63,0.12c-0.04-0.15-0.08-0.31-0.11-0.45c-0.04-0.13-0.11-0.27-0.17-0.39
					C51.85,145.16,51.71,145.01,51.54,144.85"/>
			</g>
		</g>
	</g>
	<path class="st8" d="M86.18,163.57l-0.01-0.07c-0.01-0.11-0.03-0.23-0.06-0.34l-3.25-17.61h-0.03c-0.57,3.95-16.91,7.92-36.99,7.92
		c-20.09,0-36.42-3.97-36.99-7.92H8.82l-3.25,17.61c-0.04,0.11-0.05,0.22-0.06,0.34l-0.01,0.07l0,0c0,0.01,0,0.02,0,0.02
		c0,4.05,18.06,8.14,40.35,8.14c22.28,0,40.35-4.09,40.35-8.14C86.18,163.59,86.18,163.58,86.18,163.57L86.18,163.57z"/>
	<path class="st9" d="M86.18,163.6c0-0.01,0-0.02,0-0.02l0,0l-0.01-0.07c-0.01-0.11-0.03-0.23-0.06-0.34l-3.25-17.61h-0.03
		c-0.4,2.76-8.5,5.53-20.2,6.95l-0.78,0.42c0,0,9.75,4.47-2.38,5.46s-15.68-0.44-16.45,3.42c-0.77,3.85,2.41,5.97-13.55,5.69
		c-14.33-0.25-20.93-4.07-23.27-7.72l-0.63,3.4c-0.04,0.11-0.05,0.22-0.06,0.34l-0.01,0.07l0,0c0,0.01,0,0.02,0,0.02
		c0,4.05,18.06,8.14,40.35,8.14C68.12,171.73,86.18,167.65,86.18,163.6z"/>
</g>
<g>
	<g>
		<g class="ani-tail-swing">
			<path class="st12" d="M171.63,132c0,0,8.15-1.08,10.41-4.75l2.13,3.38c0,0-1.3,3.37-9.68,5.21L171.63,132z"/>
			<path class="st10" d="M185.28,132.15c3.63-0.44,11.14-7.88,10.59-11c-0.55-3.12-4.28-0.05-4.28-0.05s0.29-3.07-1.24-3.8
				c-2.07-0.99-4.14,2.34-4.14,2.34s-0.97-3.85-3.59-2.58C179.98,118.33,176.04,133.26,185.28,132.15z"/>
			<path class="st11" d="M188.96,121.6c-1.54-0.84-3.49,2.93-3.49,2.93s-0.14-2.65-0.98-4.33s-3.49-0.56-3.49-0.56l-0.27,0.17
				c-1.87,4.62-2.53,13.19,4.54,12.33c0.79-0.1,1.76-0.53,2.79-1.17C191.06,127.32,190.32,122.34,188.96,121.6z"/>
		</g>
	</g>
	<g>
		<path class="st13" d="M96.77,130.7c0,0,1.44,21.16,10.28,28.84h11.94c0,0,2.32-12.6,2.32-22.88S96.77,130.7,96.77,130.7z"/>
		<path class="st11" d="M110.2,163.64h2.98l0.66-1l1.49,0.9h2.98l0.66-4.39h-11.94C107.05,159.16,106.22,160.75,110.2,163.64z"/>
		<path class="st13" d="M168.12,130.7c0,0-0.76,20.68-10.28,28.84h-11.94c0,0-2.32-12.6-2.32-22.88S168.12,130.7,168.12,130.7z"/>
		<path class="st11" d="M154.7,163.64h-2.98l-0.66-1l-1.49,0.9h-2.98l-0.66-4.39h11.94C157.84,159.16,158.67,160.75,154.7,163.64z"
			/>
	</g>
	<g>
		<path class="st12" d="M106.22,136.61c0,0,3.1,23.38,10.28,28.84h11.94c0,0,2.32-12.6,2.32-22.88S106.22,136.61,106.22,136.61z"/>
		<path class="st11" d="M119.65,169.56h2.98l0.66-1l1.49,0.9h2.98l0.66-4.39H116.5C116.5,165.07,115.67,166.67,119.65,169.56z"/>
		<path class="st12" d="M158.48,136.61c0,0-1.51,22.75-10.28,28.84h-11.94c0,0-2.32-12.6-2.32-22.88S158.48,136.61,158.48,136.61z"
			/>
		<path class="st11" d="M145.05,169.56h-2.98l-0.66-1l-1.49,0.9h-2.98l-0.66-4.39h11.94C148.2,165.07,149.03,166.67,145.05,169.56z"
			/>
	</g>
	<g class="head ani-head-swing">
		<g class="ear">
			<g>
				<path class="st10" d="M125.31,84.48c0,0-8.85-1.34-16.92-9.61c-8.98-9.2-19.15-2.11-13.92,10.75
					c4.87,11.98,30.04,5.05,30.04,5.05L125.31,84.48z"/>
			</g>
			<g>
				<path class="st11" d="M125.75,86.27c0,0-7.91-0.28-15.75-8.33c-8.72-8.95-19.29-3.06-14.22,9.46
					c4.72,11.66,29.19,4.89,29.19,4.89L125.75,86.27z"/>
			</g>
		</g>
		<g class="ear">
			<g>
				<path class="st10" d="M140.83,84c0,0,8.85-1.34,16.92-9.61c8.98-9.2,19.15-2.11,13.92,10.75c-4.87,11.98-30.04,5.05-30.04,5.05
					L140.83,84z"/>
			</g>
			<g>
				<path class="st11" d="M140.39,85.79c0,0,7.91-0.28,15.75-8.33c8.72-8.95,19.29-3.06,14.22,9.46
					c-4.72,11.66-29.19,4.89-29.19,4.89L140.39,85.79z"/>
			</g>
		</g>
		<path class="st14" d="M178.52,126.69c0,18.95-14.19,26.37-46.17,26.37c-24.92,0-46.17-4.27-46.17-26.37s17.68-53.66,46.17-53.66
		C168.46,73.03,178.52,104.59,178.52,126.69z"/>
		<path class="st12" d="M175.63,126.79c0,17.37-13.38,24.18-43.53,24.18c-23.5,0-43.53-3.92-43.53-24.18S105.24,77.6,132.1,77.6
		C166.15,77.6,175.63,106.53,175.63,126.79z"/>
		<radialGradient id="SVGID_2_" cx="153.4775" cy="149.5495" r="22.8953" gradientTransform="matrix(0.7524 -0.0165 0.018 0.8189 -16.0621 7.8129)" gradientUnits="userSpaceOnUse">
			<stop  offset="0" style="stop-color:#EFA258;stop-opacity:0.5"/>
			<stop  offset="0.1146" style="stop-color:#F0A55E;stop-opacity:0.4387"/>
			<stop  offset="0.2665" style="stop-color:#F1AF6F;stop-opacity:0.3574"/>
			<stop  offset="0.4393" style="stop-color:#F4BE8A;stop-opacity:0.2649"/>
			<stop  offset="0.6275" style="stop-color:#F7D3B1;stop-opacity:0.1641"/>
			<stop  offset="0.8261" style="stop-color:#FCEEE1;stop-opacity:0.0578"/>
			<stop  offset="0.9342" style="stop-color:#FFFFFF;stop-opacity:0"/>
		</radialGradient>
		<path class="st15" d="M115.53,127.45c0.16,7.12-5.73,13.02-13.14,13.18c-7.41,0.16-13.55-5.47-13.7-12.59
			c-0.16-7.12,5.73-13.02,13.14-13.18C109.24,114.69,115.37,120.33,115.53,127.45z"/>
		
		<radialGradient id="SVGID_3_" cx="233.1234" cy="151.313" r="22.8953" gradientTransform="matrix(0.7524 -0.0165 0.018 0.8189 -16.0544 8.1618)" gradientUnits="userSpaceOnUse">
			<stop  offset="0" style="stop-color:#EFA258;stop-opacity:0.5"/>
			<stop  offset="0.1146" style="stop-color:#F0A55E;stop-opacity:0.4387"/>
			<stop  offset="0.2665" style="stop-color:#F1AF6F;stop-opacity:0.3574"/>
			<stop  offset="0.4393" style="stop-color:#F4BE8A;stop-opacity:0.2649"/>
			<stop  offset="0.6275" style="stop-color:#F7D3B1;stop-opacity:0.1641"/>
			<stop  offset="0.8261" style="stop-color:#FCEEE1;stop-opacity:0.0578"/>
			<stop  offset="0.9342" style="stop-color:#FFFFFF;stop-opacity:0"/>
		</radialGradient>
		<path class="st16" d="M175.5,127.92c0.16,7.12-5.73,13.02-13.14,13.18c-7.41,0.16-13.55-5.47-13.7-12.59
			c-0.16-7.12,5.73-13.02,13.14-13.18C169.21,115.17,175.34,120.81,175.5,127.92z"/>
		<g>
			<path class="st17" d="M135.98,80.28c0,0,0.31-7.4-3.7-12.46c-2.87-3.62-0.2-6.08,1.62-5.93
				C137.27,62.18,138.99,67.58,135.98,80.28z"/>
			<path class="st17" d="M135.4,80.1c0,0-2.38-12.83-9.47-11.06C121.03,70.26,129.19,73.99,135.4,80.1z"/>
		</g>
		<g class="eyebrow ani-eyebrow-show">
			<path class="st26" d="M140.35,96.6c0,0,3.8,4.87,7.93,7.53c0,0-7.4-1.62-8.17-3.15C139.84,100.43,140.35,96.6,140.35,96.6z"/>
			<path class="st26" d="M121.31,96.6c0,0-3.8,4.87-7.93,7.53c0,0,7.4-1.62,8.17-3.15C121.82,100.43,121.31,96.6,121.31,96.6z"/>
		</g>>
		<g>
			<g>
				<g class="ani-mouth-hide">
					<defs>
						<path id="SVGID_4_" d="M122.92,124.56c0,0-0.3,12.24,9.69,11.79c8.61-0.38,7.73-12.33,7.73-12.33L122.92,124.56z"/>
					</defs>
					<clipPath id="SVGID_5_">
						<use xlink:href="#SVGID_4_"  style="overflow:visible;"/>
					</clipPath>
					<path class="st18" d="M122.92,124.56c0,0-0.3,12.24,9.69,11.79c8.61-0.38,7.73-12.33,7.73-12.33L122.92,124.56z"/>
					<path class="st19" d="M124.04,132.76c0,0,7.35-4.98,16.17,0l-4.52,8.14l-11.65-1.47V132.76z"/>
				</g>
				<g class="ani-nose">
					<path class="st20" d="M147.38,121.59c0.77,4.57-2.71,7.66-6.25,8.38c-4.25,0.86-9.35-1.7-9.35-1.7s-6.48,3.34-11.25,1.51
					c-2.82-1.08-5.58-3.87-5.45-7.14c0.31-7.65,7.11-13.67,16.02-14.05C139.67,108.21,145.92,112.99,147.38,121.59z"/>
					<ellipse transform="matrix(0.9995 -0.0325 0.0325 0.9995 -3.862 4.1073)" class="st21" cx="124.5" cy="120.94" rx="2.88" ry="4.06"/>
					<ellipse transform="matrix(0.9995 -0.0325 0.0325 0.9995 -3.8412 4.5341)" class="st21" cx="137.65" cy="120.51" rx="2.88" ry="4.06"/>
				</g>
			</g>
			<g>
				<path class="st22" d="M113.01,121.75c-0.67-0.66-1.78-0.04-1.57,0.87c0.54,2.41,2.55,6.88,4.2,7.73
					c2.81,1.45,4.95-0.51,5.34-1.15s0.24-2.45-1.09-2.57c-1.33-0.12-1.5,0.98-3.21-0.11C115.93,126.05,113.93,122.65,113.01,121.75z"
					/>
				<path class="st22" d="M150.25,121.75c0.67-0.66,1.78-0.04,1.57,0.87c-0.54,2.41-2.55,6.88-4.2,7.73
					c-2.81,1.45-4.95-0.51-5.34-1.15s-0.24-2.45,1.09-2.57c1.33-0.12,1.5,0.98,3.21-0.11C147.34,126.05,149.34,122.65,150.25,121.75z
					"/>
			</g>
		</g>
		<g>
			<circle class="st18" cx="104.99" cy="117.37" r="6.43"/>
			<circle class="st22 eye-bling" cx="103.9" cy="115.7" r="2.98"/>
			<circle class="st23 eye-bling delay-ani" cx="107.44" cy="119.6" r="1.77"/>
		</g>
		<g>
			<circle class="st18" cx="158.06" cy="117.5" r="6.43"/>
			<circle class="st22 eye-bling" cx="156.97" cy="115.83" r="2.98"/>
			<circle class="st23 eye-bling delay-ani" cx="160.52" cy="119.73" r="1.77"/>
		</g>
	</g>
	
</g>
<g>
	<path class="st24" d="M185.44,40.5l-6,12"/>
	<path class="st24" d="M81.44,41.5l6,12"/>
	<path class="st25" d="M108.13,42.19c-0.51-0.75-1.63-1.87-2.54-2.66l-0.91,0.62c0.93,0.82,2.02,1.97,2.5,2.72L108.13,42.19z
		 M106.71,45.68c-0.54,1.02-1.25,2-2.1,2.91c-0.27-1.06-0.5-2.29-0.66-3.65h4.58v-1.14h-4.7c-0.13-1.42-0.19-2.96-0.19-4.56h-1.22
		c0.02,1.57,0.08,3.1,0.22,4.56h-3.66v-2.78c0.98-0.21,1.9-0.46,2.67-0.74l-0.85-0.98c-1.5,0.56-4.08,1.1-6.32,1.44
		c0.16,0.29,0.32,0.7,0.38,0.99c0.94-0.13,1.95-0.29,2.94-0.48v2.54h-3.42v1.14h3.42v2.8c-1.39,0.29-2.69,0.56-3.65,0.72l0.34,1.2
		c0.96-0.21,2.11-0.48,3.31-0.74v3.25c0,0.29-0.1,0.37-0.38,0.37c-0.27,0.02-1.22,0.03-2.24-0.02c0.18,0.34,0.38,0.88,0.45,1.2
		c1.3,0,2.16-0.03,2.66-0.22c0.5-0.19,0.69-0.54,0.69-1.31v-3.55c0.98-0.22,1.97-0.45,2.94-0.69l-0.08-1.07
		c-0.94,0.21-1.92,0.42-2.86,0.62v-2.56h3.76c0.21,1.73,0.51,3.31,0.9,4.64c-1.14,1.06-2.45,1.94-3.79,2.59
		c0.3,0.26,0.64,0.66,0.82,0.94c1.2-0.62,2.34-1.42,3.38-2.35c0.74,1.87,1.7,2.99,2.96,2.99c1.2,0,1.62-0.77,1.84-3.41
		c-0.34-0.11-0.75-0.38-1.01-0.64c-0.1,2.05-0.29,2.86-0.72,2.86c-0.8,0-1.52-1.02-2.13-2.7c1.12-1.14,2.06-2.4,2.78-3.76
		L106.71,45.68z M122.63,41.84h-1.66v-1.49h1.66V41.84z M120.02,41.84h-1.65v-1.49h1.65V41.84z M117.41,41.84h-1.58v-1.49h1.58
		V41.84z M123.7,39.58h-8.9v3.02h8.9V39.58z M124.55,43.36h-10.61v0.9h10.61V43.36z M116.4,45.74h5.65v1.36h-5.65V45.74z
		 M119.6,47.87l0.02-0.02h3.28c-0.5,0.46-1.15,1.01-1.71,1.41c-0.64-0.4-1.18-0.85-1.58-1.33V47.87z M119.6,51.81V49.2
		c1.12,1.02,2.66,1.84,4.22,2.24c0.16-0.27,0.45-0.69,0.69-0.91c-0.88-0.18-1.76-0.46-2.54-0.85c0.69-0.43,1.47-1.02,2.14-1.6
		l-0.85-0.58l-0.05,0.05v-2.56h-7.92v2.86h2.93c-1.07,0.96-2.59,1.78-4.05,2.32c0.22,0.21,0.56,0.66,0.72,0.88
		c1.22-0.51,2.5-1.26,3.58-2.14v2.9H119.6z M113.88,42.11c-0.5-0.78-1.6-1.87-2.58-2.61l-0.91,0.67c0.98,0.77,2.05,1.87,2.53,2.67
		L113.88,42.11z M113.4,45.38h-3.15v1.12h2.03v4.1c-0.72,0.67-1.54,1.34-2.21,1.84l0.62,1.14c0.78-0.69,1.52-1.36,2.22-2.05
		c0.99,1.25,2.43,1.81,4.53,1.89c1.79,0.08,5.17,0.05,6.96-0.03c0.05-0.35,0.24-0.9,0.38-1.17c-1.92,0.13-5.6,0.18-7.36,0.1
		c-1.87-0.06-3.28-0.61-4.03-1.79V45.38z M137.4,46.83h-6.67v-1.62h6.67V46.83z M130.72,49.54v-1.68h6.67v1.68H130.72z
		 M140.44,42.29v-1.12h-8.14c0.24-0.58,0.43-1.18,0.62-1.78l-1.18-0.29c-0.19,0.69-0.43,1.38-0.7,2.06h-4.51v1.12h4.02
		c-1.02,2.11-2.48,4.03-4.4,5.33c0.24,0.22,0.61,0.66,0.77,0.91c1.01-0.7,1.89-1.57,2.66-2.51v7.7h1.17v-3.15h6.67v1.66
		c0,0.24-0.1,0.32-0.37,0.34c-0.29,0-1.25,0.02-2.3-0.03c0.16,0.34,0.34,0.82,0.38,1.17c1.36,0,2.26-0.02,2.78-0.21
		c0.51-0.19,0.67-0.54,0.67-1.26v-8.08h-7.71c0.35-0.59,0.67-1.23,0.98-1.86H140.44z M146.98,43.89c0.27-0.64,0.58-1.66,0.86-2.5
		l-0.7-0.26c-0.14,0.74-0.45,1.86-0.69,2.54L146.98,43.89z M143.89,41.34c0.27,0.77,0.46,1.78,0.5,2.43l0.64-0.18
		c-0.05-0.64-0.26-1.65-0.54-2.42L143.89,41.34z M143.67,40.56h1.73v3.84h-1.73V40.56z M148.05,44.4h-1.84v-3.84h1.84V44.4z
		 M142.34,49.73c1.84-0.1,4.45-0.26,6.99-0.45l0.03-0.96c-1.02,0.06-2.05,0.13-3.02,0.18v-1.18h2.77v-0.94h-2.77v-1.1h2.67V39.7
		h-6.27v5.57h2.53v1.1h-2.64v0.94h2.64v1.25c-1.14,0.05-2.16,0.11-2.99,0.14L142.34,49.73z M142.82,53.71
		c0.7-0.7,0.94-1.94,1.1-3.12l-0.85-0.22c-0.13,1.1-0.43,2.26-1.06,2.91L142.82,53.71z M144.44,50.42c0.22,0.9,0.38,2.03,0.38,2.78
		l0.82-0.11c0-0.74-0.18-1.89-0.43-2.75L144.44,50.42z M145.96,50.34c0.35,0.82,0.69,1.87,0.77,2.58l0.82-0.18
		c-0.11-0.7-0.46-1.76-0.83-2.56L145.96,50.34z M147.48,50.13c0.53,0.74,1.09,1.76,1.31,2.43l0.8-0.35
		c-0.24-0.66-0.82-1.65-1.38-2.38L147.48,50.13z M155.01,51.87h-4.03v-4.11h4.03V51.87z M156.77,43.7v-1.12h-3.41v-3.44h-1.17v7.52
		h-2.3v7.04h1.09v-0.75h4.03v0.69h1.12v-6.98h-2.77V43.7H156.77z M172.47,42.53c-0.22-0.75-0.83-1.94-1.42-2.82l-0.85,0.35
		c0.58,0.9,1.17,2.08,1.39,2.85L172.47,42.53z M162.74,44.21v1.25h-2.62v-1.25H162.74z M160.12,47.58V46.3h2.62v1.28H160.12z
		 M171.51,45.73c-0.29,1.14-0.67,2.22-1.17,3.22c-0.16-1.15-0.29-2.54-0.37-4.1h2.66v-1.04h-2.72c-0.05-1.42-0.1-2.96-0.1-4.56
		h-1.01c0.03,1.6,0.06,3.14,0.13,4.56h-1.95v-3.07c0.58-0.18,1.12-0.38,1.58-0.59l-0.83-0.88c-0.88,0.46-2.42,0.96-3.74,1.28
		c0.13,0.27,0.29,0.64,0.35,0.9c0.51-0.11,1.04-0.24,1.58-0.4v2.77h-1.78v1.04h1.78v2.94c-0.77,0.26-1.46,0.46-2.02,0.64l0.34,1.04
		l1.68-0.58v3.47c0,0.21-0.06,0.26-0.22,0.26c-0.18,0-0.69,0.02-1.26,0c-0.29-0.96-1.07-2.43-1.84-3.55l-0.9,0.4
		c0.29,0.43,0.58,0.94,0.85,1.44c-0.83,0.21-1.66,0.42-2.43,0.61v-3.04h3.63v-5.15h-1.71v-1.54h-0.98v1.54h-1.92
		c1.04-1.07,1.82-2.24,2.4-3.18c0.82,0.8,1.66,1.9,2.1,2.61l0.75-0.75c-0.51-0.82-1.62-2.02-2.53-2.88h-1.06
		c-0.59,1.23-1.65,2.85-3.09,4.06c0.24,0.16,0.59,0.51,0.77,0.77c0.21-0.19,0.42-0.38,0.61-0.58v8.38c-0.35,0.1-0.69,0.16-0.98,0.22
		l0.37,1.09c1.28-0.34,2.91-0.8,4.5-1.26c0.22,0.46,0.4,0.9,0.5,1.26l0.91-0.42c0.13,0.3,0.27,0.75,0.3,1.04
		c0.9,0,1.44-0.03,1.81-0.21c0.35-0.19,0.48-0.53,0.48-1.12v-3.84l1.7-0.58l-0.18-0.99c-0.51,0.18-1.02,0.34-1.52,0.5v-2.61h2
		c0.11,2.14,0.3,4,0.59,5.46c-0.69,1.04-1.49,1.89-2.38,2.45c0.21,0.19,0.54,0.54,0.7,0.78c0.74-0.51,1.39-1.18,1.98-1.97
		c0.4,1.33,0.98,2.1,1.76,2.13c0.53,0.02,1.07-0.59,1.36-2.91c-0.18-0.1-0.62-0.35-0.8-0.56c-0.1,1.38-0.27,2.19-0.54,2.19
		c-0.42-0.03-0.77-0.75-1.04-1.97c0.77-1.3,1.36-2.83,1.78-4.5L171.51,45.73z"/>
</g>
</svg>
