<svg width="36" height="36" viewBox="0 0 36 36" fill="none" xmlns="http://www.w3.org/2000/svg">
<circle cx="18" cy="18" r="18" fill="#4E4E4E" fill-opacity="0.4"/>
<path d="M10.8021 15.2789V20.4639H17.0411V15.2789H10.8021ZM15.8341 19.3589H12.0261V16.4179H15.8341V19.3589ZM17.5681 21.4329C15.1201 22.1299 12.5871 22.6399 9.93506 22.9799L10.2411 24.1869C12.8591 23.7619 15.3071 23.2349 17.5681 22.6229V21.4329ZM23.2971 25.6489C24.1471 25.6489 24.8101 24.4589 25.2691 22.1129L24.2151 21.4159C23.9261 23.3539 23.5691 24.3229 23.1611 24.3229C22.6851 24.3229 22.1581 23.8809 21.5631 22.9969C21.3761 22.6909 21.2061 22.3339 21.0361 21.9429C22.2261 20.2089 23.2121 18.0669 24.0111 15.4999L22.9401 14.9219C22.2941 17.0639 21.4951 18.9169 20.5431 20.4809C20.4071 20.0219 20.3051 19.5289 20.2031 19.0019C19.9141 17.4039 19.7611 15.5679 19.7271 13.4939H25.0481V12.3039H23.3991C23.1101 11.5899 22.8041 10.9609 22.4981 10.3999L21.2571 10.6039C21.5971 11.1139 21.9201 11.6919 22.2091 12.3039H19.7101V10.1279H18.4861V12.3039H9.93506V13.4939H18.4861C18.5031 15.8399 18.7071 17.8799 19.0981 19.6139C19.2681 20.3619 19.4551 21.0589 19.6931 21.7049C18.7411 22.9629 17.6531 23.9489 16.4461 24.6799L17.1091 25.7339C18.2481 25.0539 19.3021 24.1359 20.2541 22.9799C20.4241 23.3369 20.6281 23.6769 20.8661 23.9999C21.6481 25.0879 22.4471 25.6319 23.2971 25.6489Z" fill="white"/>
</svg>
