<svg xmlns="http://www.w3.org/2000/svg" xmlns:xlink="http://www.w3.org/1999/xlink" width="140" height="140" viewBox="0 0 140 140">
    <defs>
        <path id="omx0u4eo4a" d="M0 8.373C1.9 3.096 12.543.312 31.928.02c19.386-.292 30.165 2.492 32.338 8.352l-1.143 35.862c-.534 16.73-14.25 30.017-30.99 30.017S1.677 60.965 1.143 44.235L0 8.373z"/>
    </defs>
    <g fill="none" fill-rule="evenodd">
        <g>
            <g>
                <g>
                    <path fill="#324148" d="M11.07 60.917C9.916 40.45 10.86 34.072 15.41 27.81c4.852-6.676 10.965-13.508 19.999-16.19 9.033-2.682 13.101.96 18.148.96 1.8 0 5.692-.039 9.449.91 7.572 1.913 12.346 6.882 16.502 14.32 4.155 7.438 2.815 23.538.582 33.108 0 0-67.194.238-69.02 0z" transform="translate(-3688.000000, -1030.000000) translate(3688.000000, 1030.000000) translate(23.916667, 1.050000)"/>
                    <g>
                        <path fill="#FFB7A2" d="M24.021 91.871H68.056V130.75799999999998H24.021z" transform="translate(-3688.000000, -1030.000000) translate(3688.000000, 1030.000000) translate(23.916667, 1.050000)"/>
                        <g>
                            <g>
                                <path fill="#FFD8CD" d="M0 25.517c4.115 0 7.451 3.336 7.451 7.45v6.077c0 4.115-3.336 7.451-7.451 7.451V25.517z" transform="translate(-3688.000000, -1030.000000) translate(3688.000000, 1030.000000) translate(23.916667, 1.050000) translate(8.372485, 33.886903) translate(3.725572, 36.005863) scale(-1, 1) translate(-3.725572, -36.005863)"/>
                                <path fill="#FFB7A2" d="M67.992 25.517c4.115 0 7.45 3.336 7.45 7.45v6.077c0 4.115-3.335 7.451-7.45 7.451V25.517z" transform="translate(-3688.000000, -1030.000000) translate(3688.000000, 1030.000000) translate(23.916667, 1.050000) translate(8.372485, 33.886903)"/>
                                <g transform="translate(-3688.000000, -1030.000000) translate(3688.000000, 1030.000000) translate(23.916667, 1.050000) translate(8.372485, 33.886903) translate(5.467919, -0.000000)">
                                    <mask id="8n8d80rrqb" fill="#fff">
                                        <use xlink:href="#omx0u4eo4a"/>
                                    </mask>
                                    <use fill="#FFD8CD" xlink:href="#omx0u4eo4a"/>
                                    <path fill="#FFB7A2" d="M64.266-2.55v76.802H32.443V53.297l-7.66-3.552-.112-.056-.11-.062c-1.1-.664-1.454-2.093-.791-3.194 1.107-1.837 2.342-3.814 3.704-5.93 1.93-2.998 3.605-5.718 5.025-8.158l-.056.095V-2.55h31.823z" mask="url(#8n8d80rrqb)"/>
                                </g>
                            </g>
                        </g>
                    </g>
                </g>
                <path fill="#324148" d="M78.129 37.082C91.562 34.937 95 42.257 97.267 48.933c1.44 4.243.473 13.426 1.325 13.426 2.403-3.818 1.382-8.145 2.111-8.481.062 6.575.486 6.575.755 6.69 3.166-1.447 4.636-8.65 4.411-21.61-8.863-9.012-20.734-13.518-35.613-13.518-14.88 0-26.293 3.88-34.241 11.642 1.175 11.886 1.925 19.715 2.25 23.486 3.881-2.147 2.645-6.167 3.65-6.167 0 6.008-1.748 6.167-2.175 7.958 6.892 1.256 9.938-5.566 12.338-12.53 1.431-4.153 1.83-8.431 4.893-10.87 5.047-4.022 14.001-5.184 21.158-1.877z" transform="translate(-3688.000000, -1030.000000) translate(3688.000000, 1030.000000)"/>
            </g>
        </g>
    </g>
</svg>
