<svg xmlns="http://www.w3.org/2000/svg" xmlns:xlink="http://www.w3.org/1999/xlink" width="140" height="140" viewBox="0 0 140 140">
    <defs>
        <path id="2w7clquwwa" d="M0 8.373C1.9 3.096 12.543.312 31.928.02c19.386-.292 30.165 2.492 32.338 8.352l-1.143 35.862c-.534 16.73-14.25 30.017-30.99 30.017S1.677 60.965 1.143 44.235L0 8.373z"/>
    </defs>
    <g fill="none" fill-rule="evenodd">
        <g>
            <g>
                <g>
                    <path fill="#324148" d="M1.544 110.148c0-9.622 5.908-17.111 1.758-19.444-4.15-2.332-5.966-12.315 4.246-30.37 4.095-7.239 1.286-10.912 4.71-19.343 3.423-8.432 4.236-6.92 8.788-13.182 4.851-6.676 7.939-12.548 16.972-15.23 9.033-2.682 8.544 0 13.59 0 1.8 0 3.347-2.039 7.342-2.039 11.332 0 24.011 16.247 27.904 21.732 1.712 3.634 3.293 8.565 4.581 16.303 1.732 10.407 6.25 16.29 6.25 19.828 0 3.537-2.436 9.874-3.069 13.31-1.355 7.354-1.355 7.354 0 13.51 1.355 6.157 6.618 16.092.809 35.535-.467 1.563-1.836 3.61-4.105 6.14H7.548c-1.121-2.795-1.682-6.763-1.682-11.904 0-5.07-4.322-6.475-4.322-14.846z" transform="translate(-1028.000000, -1030.000000) translate(1028.000000, 1030.000000) translate(18.281444, 1.050000)"/>
                    <g>
                        <path fill="#FFB7A2" d="M24.021 91.871H68.056V130.75799999999998H24.021z" transform="translate(-1028.000000, -1030.000000) translate(1028.000000, 1030.000000) translate(18.281444, 1.050000) translate(5.635223, 0.000000)"/>
                        <g>
                            <g>
                                <path fill="#FFD8CD" d="M0 25.517c4.115 0 7.451 3.336 7.451 7.45v6.077c0 4.115-3.336 7.451-7.451 7.451V25.517z" transform="translate(-1028.000000, -1030.000000) translate(1028.000000, 1030.000000) translate(18.281444, 1.050000) translate(5.635223, 0.000000) translate(8.372485, 33.886903) translate(3.725572, 36.005863) scale(-1, 1) translate(-3.725572, -36.005863)"/>
                                <path fill="#FFB7A2" d="M67.992 25.517c4.115 0 7.45 3.336 7.45 7.45v6.077c0 4.115-3.335 7.451-7.45 7.451V25.517z" transform="translate(-1028.000000, -1030.000000) translate(1028.000000, 1030.000000) translate(18.281444, 1.050000) translate(5.635223, 0.000000) translate(8.372485, 33.886903)"/>
                                <g transform="translate(-1028.000000, -1030.000000) translate(1028.000000, 1030.000000) translate(18.281444, 1.050000) translate(5.635223, 0.000000) translate(8.372485, 33.886903) translate(5.467919, -0.000000)">
                                    <mask id="7ag3s40lbb" fill="#fff">
                                        <use xlink:href="#2w7clquwwa"/>
                                    </mask>
                                    <use fill="#FFD8CD" xlink:href="#2w7clquwwa"/>
                                    <path fill="#FFB7A2" d="M64.266-2.55v76.802H32.443V53.297l-7.66-3.552-.112-.056-.11-.062c-1.1-.664-1.454-2.093-.791-3.194 1.107-1.837 2.342-3.814 3.704-5.93 1.93-2.998 3.605-5.718 5.025-8.158l-.056.095V-2.55h31.823z" mask="url(#7ag3s40lbb)"/>
                                </g>
                            </g>
                        </g>
                    </g>
                </g>
                <path fill="#324148" d="M70.429 37.082c9.327-.85 19.353 5.828 22.71 12.332 4.21 8.156 8.884 14.134 17.552 17.868 3.165-1.447 1.558-10.888-4.822-28.324-8.863-9.012-20.734-13.518-35.613-13.518-14.88 0-26.293 3.88-34.241 11.642-5.904 34.093-5.904 49.535 0 46.327-.69-8.467-.646-10.19 3.725-12.466 17.23-8.976 10.048-25.575 18.567-31.985 3.624-2.727 10.98-1.772 12.122-1.876z" transform="translate(-1028.000000, -1030.000000) translate(1028.000000, 1030.000000)"/>
                <path stroke="#324148" stroke-width="1.167" d="M65.737 36.377c-3.003-.861-9.129 2.013-10.38 6.376-1.25 4.362.474 16.676-12.424 16.82M106.584 44.61c2.346 6.108 4.521 10.196 6.526 12.265 3.008 3.104 7.347 11.007-1.435 15.617M23.18 88.695c-.977 6.299-1.94 10.527-2.887 12.682-1.422 3.234-3.351 11.408 1.29 15.974" transform="translate(-1028.000000, -1030.000000) translate(1028.000000, 1030.000000)"/>
            </g>
        </g>
    </g>
</svg>
