<svg xmlns="http://www.w3.org/2000/svg" xmlns:xlink="http://www.w3.org/1999/xlink" width="140" height="140" viewBox="0 0 140 140">
    <defs>
        <path id="ww48k3f2ba" d="M5.563 22.596c1.898-5.256 12.524-8.029 31.878-8.319 19.354-.29 30.116 2.483 32.285 8.319l-1.139 35.646c-.534 16.705-14.23 29.97-30.942 29.97-16.713 0-30.409-13.265-30.942-29.97l-1.14-35.646z"/>
        <path id="ylmhbjedcc" d="M6.042 44.477c1.49-3.776 2.4-7.133 2.731-10.073.27-2.393.288-6.27.054-11.629-.032-.734.4-1.41 1.08-1.688 4.868-1.992 14.177-2.989 27.926-2.989 11.621-.009 20.529.71 26.724 2.154.82.192 1.386.943 1.344 1.785-.293 5.782-.399 9.771-.318 11.969.134 3.675.987 7.426 2.56 11.252C74.935 16.197 65.315 1.111 39.285.001 10.67-.107-.412 14.719 6.042 44.477z"/>
        <linearGradient id="24h3t8h9nd" x1="50%" x2="50%" y1="20.676%" y2="83.818%">
            <stop offset="0%" stop-color="#647780" stop-opacity="0"/>
            <stop offset="100%" stop-color="#9E9997"/>
        </linearGradient>
    </defs>
    <g fill="none" fill-rule="evenodd">
        <g>
            <g>
                <path fill="#FFB7A2" d="M49.514 90.31H93.505V131.727H49.514z" transform="translate(-2168.000000, -1030.000000) translate(2168.000000, 1030.000000)"/>
                <g transform="translate(-2168.000000, -1030.000000) translate(2168.000000, 1030.000000) translate(32.324444, 21.000000)">
                    <mask id="uggexyeh5b" fill="#fff">
                        <use xlink:href="#ww48k3f2ba"/>
                    </mask>
                    <use fill="#FFD8CD" xlink:href="#ww48k3f2ba"/>
                    <path fill="#FFB7A2" d="M69.726 11.716v76.496H37.954l-.001-20.872-8.228-3.807c-.028-.013-.056-.026-.083-.041l-.081-.046c-.825-.494-1.094-1.564-.599-2.39 1.19-1.984 2.533-4.137 4.03-6.458 1.928-2.987 3.6-5.695 5.017-8.126l-.056.095v-34.85h31.773z" mask="url(#uggexyeh5b)"/>
                    <path fill="#FFD8CD" d="M0 42.194c4.109 0 7.44 3.33 7.44 7.439v6.016c0 4.109-3.331 7.44-7.44 7.44V42.193z" transform="translate(3.719591, 52.640949) scale(-1, 1) translate(-3.719591, -52.640949)"/>
                    <path fill="#FFB7A2" d="M67.883 42.194c4.108 0 7.439 3.33 7.439 7.439v6.016c0 4.109-3.33 7.44-7.44 7.44V42.193z"/>
                    <g>
                        <use fill="#324148" xlink:href="#ylmhbjedcc"/>
                        <use fill="url(#24h3t8h9nd)" xlink:href="#ylmhbjedcc"/>
                    </g>
                </g>
            </g>
        </g>
    </g>
</svg>
