<svg xmlns="http://www.w3.org/2000/svg" xmlns:xlink="http://www.w3.org/1999/xlink" width="140" height="140" viewBox="0 0 140 140">
    <defs>
        <path id="e6gy5yylga" d="M0 8.362C1.897 3.092 12.52.312 31.872.021c19.35-.291 30.11 2.49 32.28 8.341L63.01 44.196C62.478 60.897 48.785 74.16 32.076 74.16c-16.71 0-30.402-13.263-30.934-29.964L0 8.362z"/>
        <path id="l9iuu8ow8c" d="M5.57 64.895l1.694-21.139c7.542-3.604 17.517-5.405 29.923-5.405 12.407 0 21.957 1.801 28.65 5.405l1.586 21.918c4.218-18.048 6.331-27.155 6.339-27.323 0-3.83-1.417-7.692-5.136-14.788-2.48-4.73-8.181-11.813-17.105-21.249L50.496 4.82 46.733 0 34.566 6.041V3.118C19.324 11.453 9.604 18.268 5.404 23.563 1.204 28.86-.547 33.788.148 38.351L5.57 64.895z"/>
    </defs>
    <g fill="none" fill-rule="evenodd">
        <g>
            <g>
                <path fill="#FFB7A2" d="M47.846 92.878H91.829V131.71699999999998H47.846z" transform="translate(-2928.000000, -1030.000000) translate(2928.000000, 1030.000000)"/>
                <g>
                    <g>
                        <path fill="#FFD8CD" d="M0 25.485c4.108 0 7.438 3.33 7.438 7.438V39c0 4.108-3.33 7.438-7.438 7.438V25.485z" transform="translate(-2928.000000, -1030.000000) translate(2928.000000, 1030.000000) translate(32.083333, 3.383333) translate(0.000000, 31.663088) translate(3.718930, 35.961399) scale(-1, 1) translate(-3.718930, -35.961399)"/>
                        <path fill="#FFB7A2" d="M67.87 25.485c4.108 0 7.438 3.33 7.438 7.438V39c0 4.108-3.33 7.438-7.438 7.438V25.485z" transform="translate(-2928.000000, -1030.000000) translate(2928.000000, 1030.000000) translate(32.083333, 3.383333) translate(0.000000, 31.663088)"/>
                        <g transform="translate(-2928.000000, -1030.000000) translate(2928.000000, 1030.000000) translate(32.083333, 3.383333) translate(0.000000, 31.663088) translate(5.458171, -0.000000)">
                            <mask id="owslwucbub" fill="#fff">
                                <use xlink:href="#e6gy5yylga"/>
                            </mask>
                            <use fill="#FFD8CD" xlink:href="#e6gy5yylga"/>
                            <path fill="#FFB7A2" d="M64.152-2.547V74.16H32.385V53.232l-7.643-3.547-.112-.056-.11-.062c-1.1-.663-1.454-2.092-.791-3.193 1.105-1.835 2.337-3.808 3.696-5.92 1.927-2.996 3.599-5.712 5.016-8.149l-.056.096V-2.547h31.767z" mask="url(#owslwucbub)"/>
                        </g>
                    </g>
                    <g transform="translate(-2928.000000, -1030.000000) translate(2928.000000, 1030.000000) translate(32.083333, 3.383333) translate(1.104076, 0.000000)">
                        <use fill="#324148" xlink:href="#l9iuu8ow8c"/>
                    </g>
                </g>
            </g>
        </g>
    </g>
</svg>
