<svg xmlns="http://www.w3.org/2000/svg" xmlns:xlink="http://www.w3.org/1999/xlink" width="140" height="140" viewBox="0 0 140 140">
    <defs>
        <path id="slyz4js5xa" d="M0 8.373C1.9 3.096 12.543.312 31.928.02c19.386-.292 30.165 2.492 32.338 8.352l-1.143 35.862c-.534 16.73-14.25 30.017-30.99 30.017S1.677 60.965 1.143 44.235L0 8.373z"/>
    </defs>
    <g fill="none" fill-rule="evenodd">
        <g>
            <g>
                <path fill="#324148" d="M81.143 14.518c4.51 0 12.45 3.963 16.866 7.6 12.389 10.18 16.678 35.635 13.633 67.802-1.56 9.227-2.37 12.896-3.053 15.628l-.076.3c-.387 1.532-.739 2.811-1.173 4.711h-.407c-1.358.003-2.046.016-2.636.032l-.166.005c-1.041.03-1.936.071-6.067.078H95.43c-4.294-.005-10.994-.037-21.764-.115-18.31-.132-32.782 1.581-42.767 1.954l-2.52-14.754 1.4 14.79c-.803.022-1.575.034-2.316.034-1.081-6.112-2.82-21.29-1.013-40.267 1.807-18.977 3.441-27.825 10.07-38.574 7.075-11.47 12.31-17.397 26.112-20.567 7.17-1.648 13.936-1.03 18.511 1.343z" transform="translate(-1408.000000, -1030.000000) translate(1408.000000, 1030.000000)"/>
                <g>
                    <path fill="#FFB7A2" d="M24.021 91.871H68.056V130.75799999999998H24.021z" transform="translate(-1408.000000, -1030.000000) translate(1408.000000, 1030.000000) translate(23.916667, 1.050000)"/>
                    <g>
                        <g>
                            <path fill="#FFD8CD" d="M0 25.517c4.115 0 7.451 3.336 7.451 7.45v6.077c0 4.115-3.336 7.451-7.451 7.451V25.517z" transform="translate(-1408.000000, -1030.000000) translate(1408.000000, 1030.000000) translate(23.916667, 1.050000) translate(8.372485, 33.886903) translate(3.725572, 36.005863) scale(-1, 1) translate(-3.725572, -36.005863)"/>
                            <path fill="#FFB7A2" d="M67.992 25.517c4.115 0 7.45 3.336 7.45 7.45v6.077c0 4.115-3.335 7.451-7.45 7.451V25.517z" transform="translate(-1408.000000, -1030.000000) translate(1408.000000, 1030.000000) translate(23.916667, 1.050000) translate(8.372485, 33.886903)"/>
                            <g transform="translate(-1408.000000, -1030.000000) translate(1408.000000, 1030.000000) translate(23.916667, 1.050000) translate(8.372485, 33.886903) translate(5.467919, -0.000000)">
                                <mask id="52blafizjb" fill="#fff">
                                    <use xlink:href="#slyz4js5xa"/>
                                </mask>
                                <use fill="#FFD8CD" xlink:href="#slyz4js5xa"/>
                                <path fill="#FFB7A2" d="M64.266-2.55v76.802H32.443V53.297l-7.66-3.552-.112-.056-.11-.062c-1.1-.664-1.454-2.093-.791-3.194 1.107-1.837 2.342-3.814 3.704-5.93 1.93-2.998 3.605-5.718 5.025-8.158l-.056.095V-2.55h31.823z" mask="url(#52blafizjb)"/>
                            </g>
                        </g>
                    </g>
                </g>
                <path fill="#324148" d="M29.61 88.26c6.353-4.43 8.182-20.472 22.468-32.046l26.268-21.277c12.64 7.797 20.392 16.303 23.257 25.516l1.392-25.984H37.402C25.114 68.014 22.517 85.944 29.61 88.261z" transform="translate(-1408.000000, -1030.000000) translate(1408.000000, 1030.000000)"/>
            </g>
        </g>
    </g>
</svg>
