<svg xmlns="http://www.w3.org/2000/svg" xmlns:xlink="http://www.w3.org/1999/xlink" width="140" height="140" viewBox="0 0 140 140">
    <defs>
        <path id="xtqpfh9rda" d="M0 8.411C1.898 3.111 12.53.313 31.896.021 51.262-.272 62.03 2.525 64.201 8.41l-1.147 36.193c-.53 16.713-14.232 29.988-30.953 29.988-16.722 0-30.424-13.275-30.954-29.988L0 8.411z"/>
        <path id="7f6cx46mgc" d="M2.996 47.41l1.975-12.434 4.118-4.363c.513 2.823.808 4.186.884 4.088 2.698 0 6.071-1.064 10.118-3.192l-.461 3.46c5.457-.012 10.105-1.464 13.943-4.356l.696 4.363c4.585.388 10.13-1.352 16.637-5.22.026-.025.204 1.35.535 4.124 3.086-.09 6.063-1.11 8.929-3.057.103-.085 1.164 1.312 3.183 4.19l2.06 12.608c2.37-11.821 3.557-17.816 3.565-17.985 0-10.904-.782-25.86-17.858-25.86C49.907 4.12 50.485 0 35.083 0 13.373 0 1.68 9.525 0 28.576L2.996 47.41z"/>
    </defs>
    <g fill="none" fill-rule="evenodd">
        <g>
            <g>
                <path fill="#FFB7A2" d="M47.858 92.609H91.875V131.67399999999998H47.858z" transform="translate(-2548.000000, -1030.000000) translate(2548.000000, 1030.000000)"/>
                <g>
                    <g>
                        <path fill="#FFD8CD" d="M0 25.633c4.111 0 7.444 3.333 7.444 7.444v6.187c0 4.111-3.333 7.444-7.444 7.444V25.633z" transform="translate(-2548.000000, -1030.000000) translate(2548.000000, 1030.000000) translate(32.083333, 14.000000) translate(0.000000, 20.435025) translate(3.721811, 36.170560) scale(-1, 1) translate(-3.721811, -36.170560)"/>
                        <path fill="#FFB7A2" d="M67.923 25.633c4.111 0 7.444 3.333 7.444 7.444v6.187c0 4.111-3.333 7.444-7.444 7.444V25.633z" transform="translate(-2548.000000, -1030.000000) translate(2548.000000, 1030.000000) translate(32.083333, 14.000000) translate(0.000000, 20.435025)"/>
                        <g transform="translate(-2548.000000, -1030.000000) translate(2548.000000, 1030.000000) translate(32.083333, 14.000000) translate(0.000000, 20.435025) translate(5.462399, -0.000000)">
                            <mask id="4wly6j84jb" fill="#fff">
                                <use xlink:href="#xtqpfh9rda"/>
                            </mask>
                            <use fill="#FFD8CD" xlink:href="#xtqpfh9rda"/>
                            <path fill="#FFB7A2" d="M64.201-2.562v77.154h-31.79V53.54l-7.664-3.574-.107-.053-.105-.06c-1.102-.66-1.46-2.089-.8-3.19 1.11-1.852 2.347-3.843 3.711-5.975 1.929-3.013 3.602-5.745 5.02-8.196l-.056.095v-35.15h31.791z" mask="url(#4wly6j84jb)"/>
                        </g>
                    </g>
                    <g transform="translate(-2548.000000, -1030.000000) translate(2548.000000, 1030.000000) translate(32.083333, 14.000000) translate(3.402986, 0.000000)">
                        <use fill="#324148" xlink:href="#7f6cx46mgc"/>
                    </g>
                </g>
            </g>
        </g>
    </g>
</svg>
