<svg xmlns="http://www.w3.org/2000/svg" xmlns:xlink="http://www.w3.org/1999/xlink" width="140" height="140" viewBox="0 0 140 140">
    <defs>
        <path id="2705f9hvha" d="M0 8.373C1.9 3.096 12.543.312 31.928.02c19.386-.292 30.165 2.492 32.338 8.352l-1.143 35.862c-.534 16.73-14.25 30.017-30.99 30.017S1.677 60.965 1.143 44.235L0 8.373z"/>
    </defs>
    <g fill="none" fill-rule="evenodd">
        <g>
            <g>
                <path fill="#324148" d="M29.22 92.921c-5.25-32.016-2.648-81.317 40.736-81.317s46.648 49.307 41.398 81.317c-.492 2.998-18.333 6.21-40.533 6.054-22.813-.16-40.995-2.364-41.6-6.054z" transform="translate(-648.000000, -1030.000000) translate(648.000000, 1030.000000)"/>
                <g>
                    <path fill="#FFB7A2" d="M24.021 91.871H68.056V130.75799999999998H24.021z" transform="translate(-648.000000, -1030.000000) translate(648.000000, 1030.000000) translate(23.916667, 1.050000)"/>
                    <g>
                        <g>
                            <path fill="#FFD8CD" d="M0 25.517c4.115 0 7.451 3.336 7.451 7.45v6.077c0 4.115-3.336 7.451-7.451 7.451V25.517z" transform="translate(-648.000000, -1030.000000) translate(648.000000, 1030.000000) translate(23.916667, 1.050000) translate(8.372485, 33.886903) translate(3.725572, 36.005863) scale(-1, 1) translate(-3.725572, -36.005863)"/>
                            <path fill="#FFB7A2" d="M67.992 25.517c4.115 0 7.45 3.336 7.45 7.45v6.077c0 4.115-3.335 7.451-7.45 7.451V25.517z" transform="translate(-648.000000, -1030.000000) translate(648.000000, 1030.000000) translate(23.916667, 1.050000) translate(8.372485, 33.886903)"/>
                            <g transform="translate(-648.000000, -1030.000000) translate(648.000000, 1030.000000) translate(23.916667, 1.050000) translate(8.372485, 33.886903) translate(5.467919, -0.000000)">
                                <mask id="sbnlfwl40b" fill="#fff">
                                    <use xlink:href="#2705f9hvha"/>
                                </mask>
                                <use fill="#FFD8CD" xlink:href="#2705f9hvha"/>
                                <path fill="#FFB7A2" d="M64.266-2.55v76.802H32.443V53.297l-7.66-3.552-.112-.056-.11-.062c-1.1-.664-1.454-2.093-.791-3.194 1.107-1.837 2.342-3.814 3.704-5.93 1.93-2.998 3.605-5.718 5.025-8.158l-.056.095V-2.55h31.823z" mask="url(#sbnlfwl40b)"/>
                            </g>
                        </g>
                    </g>
                </g>
                <path fill="#324148" d="M38.5 59.494c-.154-4.803.412-11.185 1.697-19.145l.615 12.82h58.706l.534-12.543c1.07 3.74 1.605 9.51 1.605 17.308 0 7.797.861-.024 2.584-23.465H37.4c.886 21.487 1.251 29.829 1.098 25.025z" transform="translate(-648.000000, -1030.000000) translate(648.000000, 1030.000000)"/>
            </g>
        </g>
    </g>
</svg>
