<svg xmlns="http://www.w3.org/2000/svg" xmlns:xlink="http://www.w3.org/1999/xlink" width="140" height="140" viewBox="0 0 140 140">
    <defs>
        <path id="zrq3xiqtva" d="M0 11.353C1.9 4.086 12.543.307 31.928.016c19.386-.292 30.165 3.487 32.338 11.337l-1.143 35.861c-.534 16.731-14.25 30.018-30.99 30.018S1.677 63.945 1.143 47.214L0 11.353z"/>
    </defs>
    <g fill="none" fill-rule="evenodd">
        <g>
            <g>
                <g fill="#324148">
                    <path d="M2.374 120.42C0 111.777 3.942 101.777 3.732 87.127 3.522 72.476 0 66.446 0 58.814c0-12.848.168-26.9 7.116-37.658C14.532 9.676 19.437 4.099 33.904.926 41.42-.725 48.512-.105 53.307 2.27c4.727 0 13.051 3.967 17.68 7.606 12.985 10.188 13.596 36.32 13.596 48.143 0 11.822-3.599 19.102-3.599 29.107 0 10.004 3.6 14.832 3.6 33.295-7.445 0-1.483.314-39.114.053-21.52-.149-32.651-.053-43.096-.053z" transform="translate(-1788.000000, -1030.000000) translate(1788.000000, 1030.000000) translate(27.973571, 11.367372)"/>
                </g>
                <path fill="#324148" d="M37.757 58.062h65.535l2.577-20.308C89.32 29.546 77.533 25.467 70.508 25.516c-7.026.05-18.523 4.963-34.493 14.741l1.742 17.805z" transform="translate(-1788.000000, -1030.000000) translate(1788.000000, 1030.000000)"/>
                <g>
                    <path fill="#FFB7A2" d="M24.021 91.871H68.056V130.75799999999998H24.021z" transform="translate(-1788.000000, -1030.000000) translate(1788.000000, 1030.000000) translate(23.916667, 1.050000)"/>
                    <g>
                        <g>
                            <path fill="#FFD8CD" d="M0 28.497c4.115 0 7.451 3.335 7.451 7.45v6.077c0 4.115-3.336 7.451-7.451 7.451V28.497z" transform="translate(-1788.000000, -1030.000000) translate(1788.000000, 1030.000000) translate(23.916667, 1.050000) translate(8.372485, 30.906941) translate(3.725572, 38.985825) scale(-1, 1) translate(-3.725572, -38.985825)"/>
                            <path fill="#FFB7A2" d="M67.992 28.497c4.115 0 7.45 3.335 7.45 7.45v6.077c0 4.115-3.335 7.451-7.45 7.451V28.497z" transform="translate(-1788.000000, -1030.000000) translate(1788.000000, 1030.000000) translate(23.916667, 1.050000) translate(8.372485, 30.906941)"/>
                            <g transform="translate(-1788.000000, -1030.000000) translate(1788.000000, 1030.000000) translate(23.916667, 1.050000) translate(8.372485, 30.906941) translate(5.467919, 0.000000)">
                                <mask id="wiha4usnyb" fill="#fff">
                                    <use xlink:href="#zrq3xiqtva"/>
                                </mask>
                                <use fill="#FFD8CD" xlink:href="#zrq3xiqtva"/>
                                <path fill="#FFB7A2" d="M64.266.43v76.802H32.443V56.277l-7.66-3.552-.112-.056-.11-.062c-1.1-.664-1.454-2.093-.791-3.194 1.107-1.837 2.342-3.814 3.704-5.93 1.93-2.998 3.605-5.718 5.025-8.158l-.056.095V.43h31.823z" mask="url(#wiha4usnyb)"/>
                            </g>
                        </g>
                        <path fill="#324148" d="M59.133 36.001c8.349 10.23 13.093 16.726 14.233 19.488.16.388 4.74 9.023 3.735 18.06.491.017.92.017 1.006 0 .886-6.992.886-13.012 0-18.06l3.846-19.488c-16.171-6.063-27.91-9.095-35.22-9.095-7.31 0-18.274 3.032-32.893 9.095-1.18 11.552-1.523 18.206-1.028 19.961.196.698-1.661 9.417 0 17.587 0 0 .907-.014 1.028 0 .665-16.537 3-15.464 3-15.464s21.35 1.13 26.73-4.193c3.588-3.549 6.043-7.756 7.365-12.621-1.087 5.268-2.74 10.166-4.962 14.691 1.576 1.416 5.963-5.238 13.16-19.96z" transform="translate(-1788.000000, -1030.000000) translate(1788.000000, 1030.000000) translate(23.916667, 1.050000)"/>
                    </g>
                </g>
            </g>
        </g>
    </g>
</svg>
