<svg xmlns="http://www.w3.org/2000/svg" xmlns:xlink="http://www.w3.org/1999/xlink" width="140" height="140" viewBox="0 0 140 140">
    <defs>
        <path id="xvsf8kqxga" d="M0 8.411C1.898 3.111 12.53.313 31.896.021 51.262-.272 62.03 2.525 64.201 8.41l-1.147 36.193c-.53 16.713-14.232 29.988-30.953 29.988-16.722 0-30.424-13.275-30.954-29.988L0 8.411z"/>
        <path id="3fl64z91gc" d="M3.91 58.652c.891-.684 3.184-4.965 3.147-7.096 11.037 0 21.878-10.061 22.188-9.455.31.606-5.855 6.154-8.697 7.502.625 1.953 26.217-2.156 32.622-13.547.039-.038-2.417 5.842-6.923 10.035 1.462 2.633 12.728-3.012 15.349-8.569.155-.127 2.851 20.187 5.092 21.13.23-.506.717-2.488 1.463-5.947.33.11.835.297 1.514.564 1.356-7.538 2.507-17.054 2.514-17.213.704-8.896-4.028-22.931-14.837-27.007-.872-.329.898-1.226.022-1.638-2.242-1.054-5.016-1.658-8.448-1.658-1.139.277-5.868-4.717-13.818-5.746-1.094-.142.774 2.028.714 2.874-.045.639-1.846 0-3.133 0-3.472 0-6.688.244-9.648.731-1.876.31.803 2.24-.949 3.045-.961.442-7.58 1.569-8.735 2.392-.48.342 1.496.922.96 1.186C2.972 15.82 0 31.61 0 34.997c.476 6.458 1.535 13.323 1.993 18.585.54-.29 1.014-.508 1.418-.651.197 2.441.363 4.348.498 5.72z"/>
    </defs>
    <g fill="none" fill-rule="evenodd">
        <g>
            <g>
                <path fill="#FFB7A2" d="M47.858 92.609H91.875V131.67399999999998H47.858z" transform="translate(-3308.000000, -1030.000000) translate(3308.000000, 1030.000000)"/>
                <g>
                    <g>
                        <path fill="#FFD8CD" d="M0 25.633c4.111 0 7.444 3.333 7.444 7.444v6.187c0 4.111-3.333 7.444-7.444 7.444V25.633z" transform="translate(-3308.000000, -1030.000000) translate(3308.000000, 1030.000000) translate(32.083333, 7.579326) translate(0.000000, 26.855700) translate(3.721811, 36.170560) scale(-1, 1) translate(-3.721811, -36.170560)"/>
                        <path fill="#FFB7A2" d="M67.923 25.633c4.111 0 7.444 3.333 7.444 7.444v6.187c0 4.111-3.333 7.444-7.444 7.444V25.633z" transform="translate(-3308.000000, -1030.000000) translate(3308.000000, 1030.000000) translate(32.083333, 7.579326) translate(0.000000, 26.855700)"/>
                        <g transform="translate(-3308.000000, -1030.000000) translate(3308.000000, 1030.000000) translate(32.083333, 7.579326) translate(0.000000, 26.855700) translate(5.462399, -0.000000)">
                            <mask id="ixjqrzry6b" fill="#fff">
                                <use xlink:href="#xvsf8kqxga"/>
                            </mask>
                            <use fill="#FFD8CD" xlink:href="#xvsf8kqxga"/>
                            <path fill="#FFB7A2" d="M64.201-2.562v77.154h-31.79V53.54l-7.664-3.574-.107-.053-.105-.06c-1.102-.66-1.46-2.089-.8-3.19 1.11-1.852 2.347-3.843 3.711-5.975 1.929-3.013 3.602-5.745 5.02-8.196l-.056.095v-35.15h31.791z" mask="url(#ixjqrzry6b)"/>
                        </g>
                    </g>
                    <g transform="translate(-3308.000000, -1030.000000) translate(3308.000000, 1030.000000) translate(32.083333, 7.579326) translate(1.553315, 0.000000)">
                        <use fill="#324148" xlink:href="#3fl64z91gc"/>
                    </g>
                </g>
            </g>
        </g>
    </g>
</svg>
