<svg xmlns="http://www.w3.org/2000/svg" xmlns:xlink="http://www.w3.org/1999/xlink" width="428" height="761" viewBox="0 0 428 761">
    <defs>
        <path id="se56omjj7a" d="M0 0H428V761H0z"/>
    </defs>
    <g fill="none" fill-rule="evenodd">
        <g>
            <g transform="translate(-941.000000, -1082.000000) translate(941.000000, 1082.000000)">
                <mask id="68zt96futb" fill="#fff">
                    <use xlink:href="#se56omjj7a"/>
                </mask>
                <g mask="url(#68zt96futb)">
                    <g>
                        <g>
                            <g fill="#FF815C" transform="translate(-51.360000, -58.187406) translate(457.444116, 345.838955) rotate(-37.000000) translate(-457.444116, -345.838955) translate(414.162547, 302.554769) translate(0.000000, 0.000000)">
                                <rect width="86.563" height="86.568" rx="3.683"/>
                            </g>
                            <g>
                                <g transform="translate(-51.360000, -58.187406) translate(457.444116, 345.838955) rotate(-37.000000) translate(-457.444116, -345.838955) translate(414.162547, 302.554769) translate(17.207284, 31.344496) translate(-0.000000, -0.000000)">
                                    <ellipse cx="3.681" cy="4.609" fill="#324148" rx="3.681" ry="4.609"/>
                                    <path stroke="#324148" stroke-width="4.107" d="M55.13 7.173c-4.976-4.99-9.936-5.024-14.88-.103"/>
                                </g>
                            </g>
                        </g>
                        <g>
                            <g fill="#FF815C" transform="translate(-51.360000, -58.187406) translate(468.857450, 60.606571) rotate(-37.000000) translate(-468.857450, -60.606571) translate(425.575880, 17.322385) translate(0.000000, 0.000000)">
                                <rect width="86.563" height="86.568" rx="3.683"/>
                            </g>
                            <g fill="#324148">
                                <g transform="translate(-51.360000, -58.187406) translate(468.857450, 60.606571) rotate(-37.000000) translate(-468.857450, -60.606571) translate(425.575880, 17.322385) translate(17.207284, 31.344496) translate(0.000000, -0.000000)">
                                    <ellipse cx="3.681" cy="4.609" rx="3.681" ry="4.609"/>
                                </g>
                            </g>
                        </g>
                        <g>
                            <g fill="#19B4B5" transform="translate(-51.360000, -58.187406) translate(449.279136, 462.974582) rotate(-10.000000) translate(-449.279136, -462.974582) translate(405.997567, 419.690397) translate(-0.000000, -0.000000)">
                                <rect width="86.563" height="86.568" rx="3.683"/>
                            </g>
                            <g>
                                <g transform="translate(-51.360000, -58.187406) translate(449.279136, 462.974582) rotate(-10.000000) translate(-449.279136, -462.974582) translate(405.997567, 419.690397) translate(17.801855, 27.434309) translate(-0.000000, -0.000000)">
                                    <ellipse cx="3.681" cy="5.149" fill="#324148" rx="3.681" ry="4.609"/>
                                    <path stroke="#324148" stroke-linejoin="round" stroke-width="4.858" d="M48.668 1.072L54.608 9.63 45.192 7.821" transform="translate(49.900271, 5.350860) scale(-1, 1) rotate(-15.000000) translate(-49.900271, -5.350860)"/>
                                </g>
                            </g>
                        </g>
                        <g transform="translate(-51.360000, -58.187406) translate(90.900470, 144.655242) rotate(-10.000000) translate(-90.900470, -144.655242) translate(47.618900, 101.371057)">
                            <rect width="86.563" height="86.568" fill="#19B4B5" rx="3.683"/>
                            <g>
                                <g transform="translate(17.207284, 30.805097) translate(-0.000000, -0.000000)">
                                    <ellipse cx="3.681" cy="5.149" fill="#324148" rx="3.681" ry="4.609"/>
                                    <path stroke="#324148" stroke-linejoin="round" stroke-width="4.858" d="M48.668 1.072L54.608 9.63 45.192 7.821" transform="translate(49.900271, 5.350860) scale(-1, 1) rotate(-15.000000) translate(-49.900271, -5.350860)"/>
                                </g>
                            </g>
                        </g>
                        <g>
                            <g fill="#19B4B5" transform="translate(-51.360000, -58.187406) translate(443.466283, 256.371683) rotate(-13.000000) translate(-443.466283, -256.371683) translate(400.184713, 213.087498) translate(-0.000000, -0.000000)">
                                <rect width="86.563" height="86.568" rx="3.683"/>
                            </g>
                            <g fill="#324148" transform="translate(-51.360000, -58.187406) translate(443.466283, 256.371683) rotate(-13.000000) translate(-443.466283, -256.371683) translate(400.184713, 213.087498) translate(17.207284, 31.344496)">
                                <ellipse cx="3.681" cy="4.609" rx="3.681" ry="4.609"/>
                                <ellipse cx="47.85" cy="4.609" rx="3.681" ry="4.609"/>
                            </g>
                        </g>
                        <g>
                            <g fill="#FF815C" transform="translate(-51.360000, -58.187406) translate(74.731049, 330.650357) rotate(11.000000) translate(-74.731049, -330.650357) translate(31.449480, 287.366171) translate(0.000000, -0.000000)">
                                <rect width="86.563" height="86.568" rx="3.683"/>
                            </g>
                            <g>
                                <g transform="translate(-51.360000, -58.187406) translate(74.731049, 330.650357) rotate(11.000000) translate(-74.731049, -330.650357) translate(31.449480, 287.366171) translate(17.207284, 30.805097) translate(0.000000, -0.000000)">
                                    <ellipse cx="3.681" cy="5.149" fill="#324148" rx="3.681" ry="4.609"/>
                                    <path stroke="#324148" stroke-linejoin="round" stroke-width="4.858" d="M48.14 1.072L54.08 9.63 44.664 7.821" transform="translate(49.372307, 5.350860) scale(-1, 1) rotate(-15.000000) translate(-49.372307, -5.350860)"/>
                                </g>
                            </g>
                        </g>
                        <g>
                            <g fill="#19B4B5" transform="translate(-51.360000, -58.187406) translate(74.453879, 447.949923) rotate(13.000000) translate(-74.453879, -447.949923) translate(36.183054, 409.478335) translate(0.000000, -0.000000)">
                                <rect width="76.542" height="76.943" rx="3.257"/>
                            </g>
                            <g fill="#324148">
                                <g transform="translate(-51.360000, -58.187406) translate(74.453879, 447.949923) rotate(13.000000) translate(-74.453879, -447.949923) translate(36.183054, 409.478335) translate(15.215182, 27.859425) translate(0.000000, -0.000000)">
                                    <ellipse cx="3.255" cy="4.097" rx="3.255" ry="4.097"/>
                                    <ellipse cx="42.31" cy="4.097" rx="3.255" ry="4.097"/>
                                </g>
                            </g>
                        </g>
                        <g>
                            <g fill="#19B4B5" transform="translate(-51.360000, -58.187406) translate(153.522593, 295.786717) rotate(-24.000000) translate(-153.522593, -295.786717) translate(110.241023, 252.502532) translate(0.000000, -0.000000)">
                                <rect width="86.563" height="86.568" rx="3.683"/>
                            </g>
                            <g>
                                <g transform="translate(-51.360000, -58.187406) translate(153.522593, 295.786717) rotate(-24.000000) translate(-153.522593, -295.786717) translate(110.241023, 252.502532) translate(17.644273, 31.344496) translate(0.000000, -0.000000)">
                                    <path stroke="#324148" stroke-width="4.107" d="M15.101 6.032C10.125 1.042 5.165 1.008.221 5.93"/>
                                    <ellipse cx="47.413" cy="4.609" fill="#324148" rx="3.681" ry="4.609"/>
                                </g>
                            </g>
                        </g>
                        <g>
                            <g fill="#FFE074" transform="translate(-51.360000, -58.187406) translate(405.098057, 394.880718) rotate(10.000000) translate(-405.098057, -394.880718) translate(361.139178, 351.121896)">
                                <ellipse cx="43.959" cy="43.759" rx="43.959" ry="43.759"/>
                            </g>
                            <g stroke="#324148" stroke-width="4.107">
                                <g>
                                    <path d="M14.97 4.813C10.352-.512 5.406-.892.131 3.67" transform="translate(-51.360000, -58.187406) translate(405.098057, 394.880718) rotate(10.000000) translate(-405.098057, -394.880718) translate(361.139178, 351.121896) translate(15.151898, 34.227886) translate(-0.000000, 0.000000) translate(7.550646, 2.662380) rotate(-4.000000) translate(-7.550646, -2.662380)"/>
                                    <path d="M57.199 4.813C52.583-.512 47.637-.892 42.36 3.67" transform="translate(-51.360000, -58.187406) translate(405.098057, 394.880718) rotate(10.000000) translate(-405.098057, -394.880718) translate(361.139178, 351.121896) translate(15.151898, 34.227886) translate(-0.000000, 0.000000) translate(49.780018, 2.662377) rotate(-4.000000) translate(-49.780018, -2.662377)"/>
                                </g>
                            </g>
                        </g>
                        <g>
                            <g fill="#19B4B5" transform="translate(-51.360000, -58.187406) translate(376.072266, 312.584744) rotate(26.000000) translate(-376.072266, -312.584744) translate(330.317464, 266.827177)">
                                <ellipse cx="45.755" cy="45.758" rx="45.755" ry="45.758"/>
                            </g>
                            <g stroke="#324148" stroke-width="4.107">
                                <g>
                                    <path d="M14.97 4.813C10.352-.512 5.406-.892.131 3.67" transform="translate(-51.360000, -58.187406) translate(376.072266, 312.584744) rotate(26.000000) translate(-376.072266, -312.584744) translate(330.317464, 266.827177) translate(16.169752, 37.347408) translate(0.000000, -0.000000) translate(7.550646, 2.662380) rotate(-4.000000) translate(-7.550646, -2.662380)"/>
                                    <path d="M57.199 4.813C52.583-.512 47.637-.892 42.36 3.67" transform="translate(-51.360000, -58.187406) translate(376.072266, 312.584744) rotate(26.000000) translate(-376.072266, -312.584744) translate(330.317464, 266.827177) translate(16.169752, 37.347408) translate(0.000000, -0.000000) translate(49.780018, 2.662377) rotate(-4.000000) translate(-49.780018, -2.662377)"/>
                                </g>
                            </g>
                        </g>
                        <g>
                            <g fill="#FF815C" transform="translate(-51.360000, -58.187406) translate(351.782000, 441.584934) rotate(10.000000) translate(-351.782000, -441.584934) translate(306.027198, 395.827367) translate(0.000000, -0.000000)">
                                <ellipse cx="45.755" cy="45.758" rx="45.755" ry="45.758"/>
                            </g>
                            <g transform="translate(-51.360000, -58.187406) translate(351.782000, 441.584934) rotate(10.000000) translate(-351.782000, -441.584934) translate(306.027198, 395.827367) translate(19.989671, 31.344496)">
                                <ellipse cx="3.681" cy="4.609" fill="#324148" rx="3.681" ry="4.609"/>
                                <path stroke="#324148" stroke-linejoin="round" stroke-width="4.858" d="M48.708 1.539L54.648 10.097 45.233 8.288" transform="translate(49.940504, 5.818325) scale(-1, 1) rotate(-15.000000) translate(-49.940504, -5.818325)"/>
                            </g>
                        </g>
                        <g>
                            <g fill="#FF815C" transform="translate(-51.360000, -58.187406) translate(180.582000, 141.520466) rotate(10.000000) translate(-180.582000, -141.520466) translate(134.827198, 95.762899) translate(0.000000, -0.000000)">
                                <ellipse cx="45.755" cy="45.758" rx="45.755" ry="45.758"/>
                            </g>
                            <g transform="translate(-51.360000, -58.187406) translate(180.582000, 141.520466) rotate(10.000000) translate(-180.582000, -141.520466) translate(134.827198, 95.762899) translate(19.989671, 31.344496)">
                                <ellipse cx="3.681" cy="4.609" fill="#324148" rx="3.681" ry="4.609"/>
                                <path stroke="#324148" stroke-linejoin="round" stroke-width="4.858" d="M48.708 1.539L54.648 10.097 45.233 8.288" transform="translate(49.940504, 5.818325) scale(-1, 1) rotate(-15.000000) translate(-49.940504, -5.818325)"/>
                            </g>
                        </g>
                        <g>
                            <g fill="#FFE074" transform="translate(-51.360000, -58.187406) translate(59.827178, 346.558178)">
                                <ellipse cx="43.959" cy="43.759" rx="43.959" ry="43.759"/>
                            </g>
                            <g fill="#324148" transform="translate(-51.360000, -58.187406) translate(59.827178, 346.558178) translate(19.502075, 29.975331)">
                                <ellipse cx="3.536" cy="4.408" rx="3.536" ry="4.408"/>
                                <ellipse cx="45.971" cy="4.408" rx="3.536" ry="4.408"/>
                            </g>
                        </g>
                        <g>
                            <g fill="#FFE074" transform="translate(-51.360000, -58.187406) translate(349.725844, 151.459228)">
                                <ellipse cx="43.959" cy="43.759" rx="43.959" ry="43.759"/>
                            </g>
                            <g fill="#324148" transform="translate(-51.360000, -58.187406) translate(349.725844, 151.459228) translate(19.502075, 29.975331)">
                                <ellipse cx="3.536" cy="4.408" rx="3.536" ry="4.408"/>
                                <ellipse cx="45.971" cy="4.408" rx="3.536" ry="4.408"/>
                            </g>
                        </g>
                        <g>
                            <g fill="#19B4B5" transform="translate(-51.360000, -58.187406) translate(161.353094, 428.616686) rotate(-33.000000) translate(-161.353094, -428.616686) translate(115.598292, 382.859118) translate(-0.000000, -0.000000)">
                                <ellipse cx="45.755" cy="45.758" rx="45.755" ry="45.758"/>
                            </g>
                            <g>
                                <g transform="translate(-51.360000, -58.187406) translate(161.353094, 428.616686) rotate(-33.000000) translate(-161.353094, -428.616686) translate(115.598292, 382.859118) translate(19.989671, 31.344496) translate(0.000000, 0.000000)">
                                    <ellipse cx="3.681" cy="4.609" fill="#324148" rx="3.681" ry="4.609"/>
                                    <path stroke="#324148" stroke-linejoin="round" stroke-width="4.858" d="M48.404 1.539L54.344 10.097 44.928 8.288" transform="translate(49.636289, 5.818325) scale(-1, 1) rotate(-15.000000) translate(-49.636289, -5.818325)"/>
                                </g>
                            </g>
                        </g>
                        <g>
                            <g fill="#19B4B5" transform="translate(-51.360000, -58.187406) translate(250.377094, 93.183402) rotate(-7.000000) translate(-250.377094, -93.183402) translate(204.622292, 47.425835) translate(-0.000000, -0.000000)">
                                <ellipse cx="45.755" cy="45.758" rx="45.755" ry="45.758"/>
                            </g>
                            <g>
                                <g transform="translate(-51.360000, -58.187406) translate(250.377094, 93.183402) rotate(-7.000000) translate(-250.377094, -93.183402) translate(204.622292, 47.425835) translate(19.989671, 31.344496) translate(-0.000000, -0.000000)">
                                    <ellipse cx="3.681" cy="4.609" fill="#324148" rx="3.681" ry="4.609"/>
                                    <path stroke="#324148" stroke-linejoin="round" stroke-width="4.858" d="M48.404 1.539L54.344 10.097 44.928 8.288" transform="translate(49.636289, 5.818325) scale(-1, 1) rotate(-15.000000) translate(-49.636289, -5.818325)"/>
                                </g>
                            </g>
                        </g>
                        <g>
                            <g fill="#FFE074" transform="translate(-51.360000, -58.187406) translate(96.349844, 164.009453)">
                                <ellipse cx="43.959" cy="43.759" rx="43.959" ry="43.759"/>
                            </g>
                            <g>
                                <g transform="translate(-51.360000, -58.187406) translate(96.349844, 164.009453) translate(19.502075, 28.523238) translate(0.000000, 0.000000)">
                                    <ellipse cx="3.536" cy="5.86" fill="#324148" rx="3.536" ry="4.408"/>
                                    <path stroke="#324148" stroke-linejoin="round" stroke-width="4.858" d="M43.443 1.072L49.383 9.63 39.968 7.821" transform="translate(44.675486, 5.350860) scale(-1, 1) rotate(-15.000000) translate(-44.675486, -5.350860)"/>
                                </g>
                            </g>
                        </g>
                        <g>
                            <g fill="#FFE074" transform="translate(-51.360000, -58.187406) translate(88.360511, 32.802556)">
                                <ellipse cx="43.959" cy="43.759" rx="43.959" ry="43.759"/>
                            </g>
                            <g>
                                <g transform="translate(-51.360000, -58.187406) translate(88.360511, 32.802556) translate(19.502075, 28.523238) translate(0.000000, 0.000000)">
                                    <ellipse cx="3.536" cy="5.86" fill="#324148" rx="3.536" ry="4.408"/>
                                    <path stroke="#324148" stroke-linejoin="round" stroke-width="4.858" d="M43.443 1.072L49.383 9.63 39.968 7.821" transform="translate(44.675486, 5.350860) scale(-1, 1) rotate(-15.000000) translate(-44.675486, -5.350860)"/>
                                </g>
                            </g>
                        </g>
                        <g>
                            <g fill="#FF815C" transform="translate(-51.360000, -58.187406) translate(63.528813, 230.707324) rotate(34.000000) translate(-63.528813, -230.707324) translate(17.774011, 184.949757)">
                                <ellipse cx="45.755" cy="45.758" rx="45.755" ry="45.758"/>
                            </g>
                            <g>
                                <g transform="translate(-51.360000, -58.187406) translate(63.528813, 230.707324) rotate(34.000000) translate(-63.528813, -230.707324) translate(17.774011, 184.949757) translate(20.212653, 31.344496) translate(-0.000000, -0.000000)">
                                    <path stroke="#324148" stroke-width="4.107" d="M15.101 7.04C10.125 2.05 5.165 2.014.221 6.935"/>
                                    <ellipse cx="47.503" cy="4.609" fill="#324148" rx="3.681" ry="4.609"/>
                                </g>
                            </g>
                        </g>
                        <g>
                            <g fill="#19B4B5" transform="translate(-51.360000, -58.187406) translate(437.704266, 133.458807) rotate(26.000000) translate(-437.704266, -133.458807) translate(391.949464, 87.701240)">
                                <ellipse cx="45.755" cy="45.758" rx="45.755" ry="45.758"/>
                            </g>
                            <g stroke="#324148" stroke-width="4.107">
                                <g>
                                    <path d="M14.97 4.813C10.352-.512 5.406-.892.131 3.67" transform="translate(-51.360000, -58.187406) translate(437.704266, 133.458807) rotate(26.000000) translate(-437.704266, -133.458807) translate(391.949464, 87.701240) translate(16.169752, 37.347408) translate(-0.000000, 0.000000) translate(7.550646, 2.662380) rotate(-4.000000) translate(-7.550646, -2.662380)"/>
                                    <path d="M57.199 4.813C52.583-.512 47.637-.892 42.36 3.67" transform="translate(-51.360000, -58.187406) translate(437.704266, 133.458807) rotate(26.000000) translate(-437.704266, -133.458807) translate(391.949464, 87.701240) translate(16.169752, 37.347408) translate(-0.000000, 0.000000) translate(49.780018, 2.662377) rotate(-4.000000) translate(-49.780018, -2.662377)"/>
                                </g>
                            </g>
                        </g>
                        <g>
                            <g fill="#19B4B5" transform="translate(-51.360000, -58.187406) translate(358.962593, 63.037092) rotate(-24.000000) translate(-358.962593, -63.037092) translate(315.681023, 19.752907) translate(0.000000, -0.000000)">
                                <rect width="86.563" height="86.568" rx="3.683"/>
                            </g>
                            <g stroke="#324148" stroke-width="4.107">
                                <g>
                                    <path d="M14.97 6.555C10.352 1.231 5.406.85.131 5.414" transform="translate(-51.360000, -58.187406) translate(358.962593, 63.037092) rotate(-24.000000) translate(-358.962593, -63.037092) translate(315.681023, 19.752907) translate(17.644273, 31.344496) translate(0.000000, -0.000000) translate(7.550646, 4.404840) rotate(-4.000000) translate(-7.550646, -4.404840)"/>
                                </g>
                            </g>
                        </g>
                        <g>
                            <g fill="#FF815C" transform="translate(-51.360000, -58.187406) translate(339.886783, 119.934907) rotate(-12.000000) translate(-339.886783, -119.934907) translate(296.605213, 76.650721) translate(0.000000, 0.000000)">
                                <rect width="86.563" height="86.568" rx="3.683"/>
                            </g>
                            <g>
                                <g transform="translate(-51.360000, -58.187406) translate(339.886783, 119.934907) rotate(-12.000000) translate(-339.886783, -119.934907) translate(296.605213, 76.650721) translate(17.207284, 31.344496) translate(0.000000, 0.000000)">
                                    <ellipse cx="3.681" cy="4.609" fill="#324148" rx="3.681" ry="4.609"/>
                                    <path stroke="#324148" stroke-width="4.107" d="M55.13 7.173c-4.976-4.99-9.936-5.024-14.88-.103"/>
                                </g>
                            </g>
                        </g>
                    </g>
                </g>
            </g>
        </g>
    </g>
</svg>
