<svg xmlns="http://www.w3.org/2000/svg" width="428" height="761" viewBox="0 0 428 761">
    <g fill="none" fill-rule="evenodd">
        <g>
            <g>
                <g>
                    <path stroke="#FFF3CA" stroke-width="13.696" d="M0 0H400.608V524.828H0z" transform="translate(-1384.000000, -185.000000) translate(1384.000000, 185.000000) translate(13.696000, 13.691154)"/>
                    <path fill="#FFF3CA" d="M0 344.561H400.608V358.25199999999995H0z" transform="translate(-1384.000000, -185.000000) translate(1384.000000, 185.000000) translate(13.696000, 13.691154)"/>
                    <path stroke="#FFF3CA" stroke-width="13.696" d="M25.11 0h350.389v59.328c-13.696 105.726-72.285 158.59-175.766 158.59-103.48 0-161.881-52.888-175.201-158.664L25.109 0z" transform="translate(-1384.000000, -185.000000) translate(1384.000000, 185.000000) translate(13.696000, 13.691154)"/>
                    <path fill="#FA0" stroke="#FFF3CA" stroke-width="13.696" d="M119.84 0L281.909 0 259.083 201.945 142.667 201.945z" transform="translate(-1384.000000, -185.000000) translate(1384.000000, 185.000000) translate(13.696000, 13.691154)"/>
                </g>
            </g>
        </g>
    </g>
</svg>
