<svg xmlns="http://www.w3.org/2000/svg" xmlns:xlink="http://www.w3.org/1999/xlink" width="428" height="761" viewBox="0 0 428 761">
    <defs>
        <path id="sd54elzpia" d="M0 0H428V761H0z"/>
    </defs>
    <g fill="none" fill-rule="evenodd">
        <g>
            <g transform="translate(-491.000000, -1082.000000) translate(491.000000, 1082.000000)">
                <mask id="d0o0kwv17b" fill="#fff">
                    <use xlink:href="#sd54elzpia"/>
                </mask>
                <g mask="url(#d0o0kwv17b)">
                    <g>
                        <g fill="#FEC602">
                            <path d="M103.717 8.392c-39.963.015-72.372 32.41-72.388 72.355-.015 39.944 32.368 72.313 72.331 72.298" transform="translate(-103.858437, -89.042470) translate(481.642060, 147.488329) rotate(40.000000) translate(-481.642060, -147.488329) translate(348.342476, 66.768048) translate(67.523034, 80.718252) rotate(-330.000000) translate(-67.523034, -80.718252)"/>
                            <path d="M235.27 8.392c-39.963.015-72.372 32.41-72.388 72.355-.015 39.944 32.368 72.313 72.331 72.298" transform="translate(-103.858437, -89.042470) translate(481.642060, 147.488329) rotate(40.000000) translate(-481.642060, -147.488329) translate(348.342476, 66.768048) translate(199.076134, 80.718252) scale(-1, 1) rotate(-330.000000) translate(-199.076134, -80.718252)"/>
                        </g>
                        <g fill="#FA7048">
                            <path d="M103.717 8.392c-39.963.015-72.372 32.41-72.388 72.355-.015 39.944 32.368 72.313 72.331 72.298" transform="translate(-103.858437, -89.042470) translate(154.017765, 147.488329) scale(-1, 1) rotate(40.000000) translate(-154.017765, -147.488329) translate(20.718181, 66.768048) translate(67.523034, 80.718252) rotate(-330.000000) translate(-67.523034, -80.718252)"/>
                            <path d="M235.27 8.392c-39.963.015-72.372 32.41-72.388 72.355-.015 39.944 32.368 72.313 72.331 72.298" transform="translate(-103.858437, -89.042470) translate(154.017765, 147.488329) scale(-1, 1) rotate(40.000000) translate(-154.017765, -147.488329) translate(20.718181, 66.768048) translate(199.076134, 80.718252) scale(-1, 1) rotate(-330.000000) translate(-199.076134, -80.718252)"/>
                        </g>
                        <g transform="translate(-103.858437, -89.042470) translate(79.152588, 120.309801)">
                            <ellipse cx="97.23" cy="272.657" fill="#FEC602" rx="9.131" ry="9.127"/>
                            <ellipse cx="187.9" cy="221.582" fill="#FEC602" rx="6.195" ry="6.189"/>
                            <ellipse cx="28.402" cy="161.256" fill="#FEC602" rx="9.131" ry="9.127"/>
                            <ellipse cx="388.79" cy="185.119" fill="#FEC602" rx="9.131" ry="9.127"/>
                            <ellipse cx="102.481" cy="111.914" fill="#FEC602" rx="9.131" ry="9.127"/>
                            <ellipse cx="394.566" cy="29.226" fill="#FEC602" rx="9.131" ry="9.127"/>
                            <path fill="#0E7CF4" d="M432.37 334.987l13.514.006c4.16 6.95 6.093 13.101 5.8 18.451-.291 5.35-2.219 11.5-5.782 18.447l-13.514-.006c4.713-7.344 7.068-13.81 7.065-19.4-.002-5.59-2.363-11.423-7.083-17.498z" transform="translate(442.042003, 353.438900) rotate(-345.000000) translate(-442.042003, -353.438900)"/>
                            <path fill="#29DAA1" d="M26.439 300.215l13.51.003c4.157 6.951 6.089 13.103 5.796 18.454-.293 5.352-2.221 11.502-5.785 18.452l-13.51-.003c4.712-7.346 7.068-13.815 7.067-19.406-.002-5.592-2.361-11.425-7.078-17.5z" transform="translate(36.106392, 318.669465) rotate(-505.000000) translate(-36.106392, -318.669465)"/>
                            <path fill="#0E7CF4" d="M67.527 175.853l13.51.003c4.157 6.952 6.089 13.103 5.796 18.455-.293 5.351-2.221 11.502-5.785 18.452l-13.51-.003c4.712-7.347 7.068-13.815 7.067-19.407-.002-5.59-2.361-11.424-7.078-17.5z" transform="translate(77.194392, 194.308146) rotate(-505.000000) translate(-77.194392, -194.308146)"/>
                            <path fill="#29DAA1" d="M108.654 43.553l13.503.011c4.158 6.959 6.093 13.115 5.803 18.469-.29 5.354-2.213 11.507-5.77 18.459l-13.504-.011c4.706-7.348 7.057-13.82 7.052-19.414-.005-5.594-2.366-11.432-7.084-17.514z" transform="translate(118.320935, 62.022591) rotate(-258.000000) translate(-118.320935, -62.022591)"/>
                            <path fill="#107778" d="M260.138 132.885l13.512.014c4.163 6.955 6.1 13.107 5.811 18.458-.289 5.35-2.212 11.5-5.77 18.446l-13.512-.014c4.707-7.342 7.058-13.809 7.052-19.4-.006-5.59-2.37-11.425-7.093-17.504z" transform="translate(269.813765, 151.344072) rotate(-30.000000) translate(-269.813765, -151.344072)"/>
                            <path fill="#29DAA1" d="M442.134 213.007l13.509.003c4.156 6.952 6.087 13.105 5.794 18.457-.293 5.352-2.222 11.504-5.785 18.455l-13.509-.003c4.713-7.347 7.069-13.817 7.067-19.41-.001-5.591-2.36-11.426-7.076-17.502z" transform="translate(451.799869, 231.464693) rotate(-315.000000) translate(-451.799869, -231.464693)"/>
                            <path fill="#0E7CF4" d="M359.71 42.726l13.511.014c4.163 6.954 6.1 13.107 5.811 18.457-.289 5.351-2.212 11.5-5.77 18.446l-13.513-.014c4.708-7.342 7.059-13.808 7.053-19.399-.006-5.59-2.37-11.425-7.093-17.504z" transform="translate(369.384689, 61.184603) rotate(-29.000000) translate(-369.384689, -61.184603)"/>
                            <ellipse cx="230.05" cy="15.973" fill="#FF625E" rx="15.979" ry="15.973"/>
                            <ellipse cx="455.806" cy="171.728" fill="#FF625E" rx="15.979" ry="15.973"/>
                            <ellipse cx="402.12" cy="281.408" fill="#FF625E" rx="15.979" ry="15.973"/>
                            <ellipse cx="44.883" cy="251.744" fill="#FF625E" rx="15.979" ry="15.973"/>
                        </g>
                    </g>
                </g>
            </g>
        </g>
    </g>
</svg>
