<svg xmlns="http://www.w3.org/2000/svg" xmlns:xlink="http://www.w3.org/1999/xlink" width="428" height="761" viewBox="0 0 428 761">
    <defs>
        <path id="eg6utt79na" d="M0 0H428V761H0z"/>
    </defs>
    <g fill="none" fill-rule="evenodd">
        <g>
            <g transform="translate(-2293.000000, -1082.000000) translate(2293.000000, 1082.000000)">
                <mask id="8m04gdyv4b" fill="#fff">
                    <use xlink:href="#eg6utt79na"/>
                </mask>
                <g mask="url(#8m04gdyv4b)">
                    <g>
                        <path fill="#FF625E" fill-rule="nonzero" d="M29.987 8.576v3.611l-.001.88-.001 3.421v3.27l-.001.794-.001 3.825v3.588l-.001.69v3.302l-.001.633v3.017l-.001.575-.001 3.251v3.36l-.001.442v2.828l-.001.366-.001 2.865v2.457l-.001.167-.001 1.368c-5.477 0-21.221-15.826-25.67-23.295-4.448-7.468-6.906-17.993.016-24.852 6.922-6.858 18.137-6.851 25.05.016l.618.612.617-.612c6.913-6.867 18.128-6.874 25.05-.016 6.922 6.859 4.464 17.384.016 24.852-4.449 7.469-20.193 23.295-25.67 23.3v-.005L30 51.918V49.565l-.001-.27-.001-2.866v-.366l-.001-2.828V39.94l-.001-.508-.001-3.25V32.59l-.001-.633-.001-3.302v-3.541l-.001-.737v-3.041l-.001-.784V17.32l-.001-.832v-3.421l-.001-.88-.001-3.611v-.927l-.001.927z" transform="translate(418.869333, 205.367316) translate(3.681978, 8.414355)"/>
                    </g>
                </g>
                <g mask="url(#8m04gdyv4b)">
                    <g>
                        <g>
                            <path fill="#FF625E" fill-rule="nonzero" d="M14.739 5.472v3.891l-.001.458v3.436l-.001.401-.001 3.664v.332l-.001 3.23v.256l-.001 2.919v.16l-.001 1.962v.013c-2.692-.002-10.43-7.782-12.617-11.453-2.187-3.67-3.395-8.844.007-12.215 3.402-3.371 8.915-3.368 12.313.008l.304.3.303-.3c3.398-3.376 8.91-3.379 12.313-.008 3.402 3.371 2.194 8.544.008 12.215-2.187 3.671-9.926 11.45-12.618 11.453v-.202-.054l-.001-2.4v-.187l-.001-2.997v-.275l-.001-3.44v-.35l-.001-3.44v-.413l-.001-3.537V4.957l-.001-.521z" transform="translate(350.389333, 282.950525) translate(1.809786, 4.135870)"/>
                        </g>
                    </g>
                </g>
                <g mask="url(#8m04gdyv4b)">
                    <g>
                        <g>
                            <path fill="#FF625E" fill-rule="nonzero" d="M48.285 10.05v3.759l-.001 1.476-.001 2.908-.001 4.247v2.755l-.001 1.354v2.663l-.001 1.309-.001 3.833V38.05l-.001 1.202v2.357l-.001 1.155v2.265l-.001 1.11v3.237l-.001 1.048v3.053l-.001.987-.001 2.87v.926l-.001 2.686v3.367l-.001.803-.001 3.06v2.817l-.001.666-.001 3.099V77.474l-.001.498-.001 2.663v2.41l-.001.283-.001 1.714v.766C39.443 85.8 14.093 60.316 6.93 48.29-.232 36.265-4.19 19.318 6.955 8.275 18.101-2.768 36.16-2.757 47.291 8.3l.994.986.994-.986C60.41-2.757 78.469-2.768 89.614 8.275c11.146 11.043 7.188 27.99.025 40.016-7.163 12.025-32.513 37.51-41.332 37.517v-.49l-.001-.13v-1.592l-.001-.268-.001-2.303v-2.571l-.001-.482v-2.64l-.001-.574v-2.449l-.001-.65v-2.755l-.001-.727-.001-3.061V61.81l-.001-.864V58.26l-.001-.926v-2.87l-.001-.987-.001-3.053v-3.191l-.001-1.094-.001-3.375V39.252l-.001-1.202v-2.448l-.001-1.248v-2.54l-.001-1.293v-2.633l-.001-1.339v-2.724l-.001-1.385v-2.816l-.001-1.431v-2.908l-.001-1.477-.001-3.758z" transform="translate(344.682667, 345.701649) translate(5.928609, 13.548538)"/>
                        </g>
                    </g>
                </g>
                <g mask="url(#8m04gdyv4b)">
                    <g>
                        <g>
                            <path fill="#FF625E" fill-rule="nonzero" d="M75.223 15.655v1.184l-.014 55.04-.001 3.386-.002 8.047v3.052l-.002 4.398v2.814l-.001 1.37-.001 2.671-.001 3.827v2.432l-.001 1.18v2.289l-.001 1.109v2.145l-.001 1.038v2.968l-.001.942v1.812l-.001.87v2.468l-.001.775v2.181l-.001.68v1.895l-.001.584v2.099l-.001.464v1.622l-.001.345v1.371l-.001.203-.001.751v.012c-13.74-.011-53.233-39.712-64.392-58.447-11.159-18.735-17.324-45.136.039-62.34 17.363-17.204 45.497-17.187 62.839.038l1.548 1.536 1.548-1.536c17.342-17.225 45.476-17.242 62.839-.038s11.198 43.605.039 62.34c-11.16 18.735-50.653 58.436-64.392 58.447l-.001-.43v-1.287l-.001-.298-.001-1.847v-.442l-.001-2.002v-2.385l-.001-.655v-2.11l-.001-.751v-2.397l-.001-.846v-1.764l-.001-.918v-2.897l-.001-1.013v-2.099l-.001-1.084v-2.242l-.001-1.156v-2.384l-.001-1.228v-2.527l-.002-3.97V92.18l-.001-1.419-.001-2.908-.002-7.69v-3.242l-.004-12.1-.001-3.672-.01-41.963-.001-3.532z" transform="translate(284.192000, -98.119940) translate(9.236149, 21.107196)"/>
                        </g>
                    </g>
                </g>
                <g mask="url(#8m04gdyv4b)">
                    <g>
                        <g>
                            <path fill="#FF625E" fill-rule="nonzero" d="M42.016 7.077c9.492-9.428 24.89-9.437 34.392-.021 9.503 9.415 6.129 23.865.021 34.118-6.107 10.254-27.722 31.982-35.241 31.988l-.001-.79v-.15l-.001-1.937v-.28l-.001-2.33v-.385l-.001-2.584v-3.053l-.001-.555-.001-2.968v-3.295l-.001-.698v-2.923l-.001-.764v-2.368l-.001-.815v-3.393l-.001-.881v-2.72l-.001-.934v-2.877l-.001-.985v-3.034l-.001-1.037v-3.191l-.001-1.09v-2.218l-.001-1.129v-3.464l-.001-1.181v-2.401l-.001-1.22-.001-3.739V9.216l-.001 1.285v2.532l-.001 1.246-.001 3.66v3.543l-.001 1.155-.001 3.386v3.269l-.001 1.063v3.112l-.001 1.012v2.955l-.001.96v2.798l-.001.907v2.643l-.001.854v3.289l-.001.79V52.7l-.001.725v2.766l-.001.659v2.505l-.001.594v2.773l-.001.515v2.819l-.001.424-.001 2.603v2.193l-.001.215-.001 1.507V73.162c-7.52-.006-29.134-21.734-35.242-31.988-6.107-10.253-9.481-24.703.021-34.118 9.503-9.416 24.9-9.407 34.392.02l.847.841.847-.84z" transform="translate(288.757333, 108.388306) translate(5.054919, 11.551912)"/>
                        </g>
                    </g>
                </g>
                <g mask="url(#8m04gdyv4b)">
                    <g>
                        <g>
                            <path fill="#FF625E" fill-rule="nonzero" d="M59.975 12.482v.943l-.001 3.726-.001 3.65-.002 8.792-.001 3.384-.002 8.126v3.118l-.001 1.53v3.004l-.002 4.362v2.814l-.001 1.378v2.7l-.001 1.32v2.586l-.001 1.264v2.471l-.001 1.207v2.358l-.001 1.15v2.243l-.001 1.093v3.165l-.001 1.017v1.977l-.001.96v2.766l-.001.884v2.538l-.001.807v2.31l-.001.732v2.737l-.001.637-.001 2.357v2.519l-.001.447v1.948l-.001.333v1.597l-.001.2-.001.94c-10.954 0-42.442-31.653-51.34-46.59C-.288 45.045-5.203 23.995 8.64 10.28c13.844-13.717 36.275-13.703 50.102.03l1.234 1.225 1.234-1.225c13.827-13.733 36.258-13.747 50.102-.03 13.843 13.716 8.927 34.766.03 49.703-8.897 14.937-40.385 46.59-51.339 46.6v-.77l-.001-.18-.001-1.797v-.333l-.001-1.948V99.13l-.001-.542v-2.357l-.001-.637-.001-2.737v-3.042l-.001-.807V86.47l-.001-.884-.001-2.766V79.883l-.001-1.017v-2.091L59.99 75.7v-3.336l-.001-1.15v-2.358l-.001-1.207V65.18l-.001-1.264V61.33l-.001-1.322V57.31l-.001-1.378-.001-2.814-.001-4.362V45.75l-.002-4.648V37.91l-.002-4.933v-3.384c-.002-2.851-.002-5.782-.003-8.792v-3.65l-.001-1.853-.001-2.816z" transform="translate(-58.208000, 70.737631) translate(7.363957, 16.828711)"/>
                        </g>
                    </g>
                </g>
                <g mask="url(#8m04gdyv4b)">
                    <g>
                        <g>
                            <path fill="#FF625E" fill-rule="nonzero" d="M20.33 6.436v3.596l-.001.576-.001 3.857v3.541l-.001.48-.001 3.609V25.66l-.001.364-.001 3.287v.293l-.001 3.016v.21l-.001 2.367V36.13c-3.714-.003-14.388-10.733-17.404-15.796-3.016-5.063-4.682-12.199.01-16.849 4.693-4.65 12.297-4.645 16.984.01l.419.416.418-.415c4.687-4.656 12.29-4.66 16.983-.01 4.693 4.65 3.027 11.785.01 16.848-3.015 5.063-13.689 15.793-17.402 15.796l-.001-.824v-.107l-.001-2.577v-3.016l-.001-.293-.001-3.287v-3.508l-.001-.422-.001-3.609v-.48l-.001-3.541v-.532l-.001-3.325v-.576l-.001-3.596v-.622l-.001.622z" transform="translate(44.512000, 223.622189) translate(2.496257, 5.704648)"/>
                        </g>
                    </g>
                </g>
                <g mask="url(#8m04gdyv4b)">
                    <g>
                        <g>
                            <path fill="#FF625E" fill-rule="nonzero" d="M28.53 4.805c6.444-6.401 16.9-6.408 23.352-.014 6.453 6.393 4.161 16.205.014 23.167-4.146 6.962-18.823 21.716-23.929 21.72v-.018l-.001-1.417v-.164l-.001-2.388v-.27l-.001-2.831V39.47l-.001-.429-.001-3.256v-.5l-.001-3.19V28.586l-.001-.616v-3.212l-.001-.669v-3.478l-.001-.722v-2.977l-.001-.766v-3.154l-.001-.811V8.849l-.001-.855V7.13l-.001.864v3.367l-.001.82v3.19l-.001.775-.001 3.743v3.522l-.001.678v3.256l-.001.625v2.99l-.001.572v3.243l-.001.51-.001 3.318V41.863l-.001.368-.001 2.91v2.583l-.001.182-.001 1.701V49.678c-5.106-.004-19.783-14.758-23.93-21.72-4.146-6.962-6.438-16.774.015-23.167 6.452-6.394 16.908-6.387 23.352.014l.576.571.575-.57z" transform="translate(86.741333, 14.832084) translate(3.432353, 7.843891)"/>
                        </g>
                    </g>
                </g>
            </g>
        </g>
    </g>
</svg>
