<svg xmlns="http://www.w3.org/2000/svg" xmlns:xlink="http://www.w3.org/1999/xlink" width="429" height="762" viewBox="0 0 429 762">
    <defs>
        <path id="fsy97vt3da" d="M0 0H428V761H0z"/>
        <path id="yge3iim06c" d="M2.438.19C-8.23 3.345 18.878 24.2 30.418 66.095c4.805 17.445 4.969 54.052 1.678 69.814-7.46 35.745 8.208 34.628 47.007-3.35C62.83 91.535 51.266 64.354 44.408 51.014 24.055 11.43 9.128-1.788 2.438.19z"/>
        <path id="w6obkdg25e" d="M207.403 7.013l-1.236-.256-2.447-.498-2.415-.479-1.195-.232-2.367-.45c-.783-.147-1.562-.291-2.334-.432l-2.303-.412-2.27-.393-2.239-.374-1.107-.18-2.19-.346c-1.087-.168-2.162-.328-3.225-.482l-2.11-.298c-1.396-.192-2.77-.372-4.124-.538l-2.014-.241c-1.664-.193-3.296-.366-4.893-.519L167.032.71l-.938-.08-1.853-.145c-1.531-.113-3.029-.206-4.493-.28l-1.74-.079c-15.236-.61-26.714 1.01-34.435 4.86-8.164 4.072-16.81 10.933-25.098 18.498l-1.46 1.342-1.45 1.354-1.44 1.364-1.43 1.37-1.419 1.376-1.406 1.377-1.393 1.376-2.06 2.058-2.025 2.042-1.985 2.018-8.057 8.252-1.714 1.743-1.11 1.119-1.08 1.081-1.05 1.041-1.02.999-.989.953-.956.905c-.157.147-.312.292-.466.434l-.905.83c-.296.267-.586.525-.87.775l-.671.58-1.362 1.149-1.227 1.012-1.35 1.095-1.86 1.485-2.05 1.615-1.78 1.386-2.395 1.848-2.054 1.572-4.476 3.394L40 76.153l-4.747 3.531-6.655 4.914-6.436 4.721-10.573 7.704-10.66 7.717c-1.002.724-1.228 2.122-.504 3.124.232.321.545.575.907.735 26.22 11.629 48.14 11.066 65.76-1.689l.972-2.998 1.077-3.236.783-2.302 1.011-2.906.77-2.161.96-2.619.65-1.727.49-1.27.49-1.238.486-1.198.321-.77.318-.746.313-.718.309-.687.303-.654.297-.618.29-.58c.095-.186.189-.365.281-.537l.274-.494c.403-.706.776-1.254 1.106-1.601l-.255 4.045-.229 3.3-.218 2.886-.247 2.99-.152 1.69-.118 1.236-.163 1.582-.169 1.477-.129 1.021-.13.933-.133.83-.089.492-.089.436-.09.378c-.03.116-.059.221-.089.316l.885-.345 1.02-.424.857-.373.723-.326 1.057-.497.564-.274.884-.442.612-.316.946-.506.974-.542.661-.381.334-.197.67-.406.676-.421.677-.437.338-.224.676-.46c3.148-2.181 6.184-4.859 8.148-7.96l-.14-1.746-.11-1.586-.092-1.574-.067-1.373-.043-1.071-.04-1.455-.017-1.09v-1.073l.016-1.04.023-.666.032-.64.042-.61.054-.574c.08-.74.191-1.372.342-1.849l6.9 10.898 6.116-5.46 7.384-6.63 5.369-4.85 5.042-4.583 4.715-4.317 3.168-2.92 4.155-3.858 3.828-3.592 2.04-1.932 2.402-2.293 2.66-2.572 1.24-1.213 1.935-1.911 1.08-1.082 1.347-1.366.94-.967.88-.918 1.08-1.148.74-.804.234-.257c4.173-4.613 10.732-8.868 19.675-12.764l1.264-.542c.426-.18.858-.358 1.294-.536l1.326-.532 1.356-.528c.229-.087.458-.175.69-.262l1.402-.52 1.434-.516 1.465-.51c.246-.086.494-.17.744-.255l1.51-.504 1.543-.499.783-.248 1.588-.492c.535-.164 1.075-.326 1.62-.488l1.65-.483c.555-.16 1.116-.32 1.681-.479l1.713-.473 1.743-.47 1.774-.464.899-.23z"/>
        <path id="8b4yz1ee4g" d="M259.922.463c-33.706-1.657-60.007 1.135-78.904 8.378-12.931 4.956-37.811 18.455-59.877 36.862-20.339 16.966-37.653 38.922-55.4 43.564-81.142 21.224-45.327 15.638-63.794 21.224-12.311 3.723 33.762 10.798 138.22 21.223L259.923.463z"/>
        <path id="hl9s73q1qi" d="M163.46 5.493l-.97-.2-1.92-.39-1.896-.376-1.87-.36-1.846-.345-1.82-.33-1.795-.316-1.77-.3-1.744-.286-1.72-.27c-.284-.045-.568-.088-.85-.13l-1.681-.249-1.657-.233-1.63-.219-1.607-.203-1.58-.189c-.262-.03-.522-.06-.781-.088L134.78.842l-1.518-.15-1.493-.137-1.467-.122-1.442-.106-.712-.048-1.404-.084-1.38-.069-.68-.029-1.34-.046c-.886-.027-1.755-.043-2.608-.05L119.471 0c-.21 0-.417.002-.624.005l-1.228.02c-2.633.06-5.089.226-7.367.497l-1.039.133c-1.026.14-2.015.302-2.966.487l-.938.192c-2.93.632-5.482 1.489-7.655 2.57-6.771 3.37-13.965 9.18-20.802 15.502l-1.363 1.27-1.352 1.282-1.34 1.288-.664.645-1.318 1.292-1.303 1.29-1.286 1.285-1.267 1.276-3.079 3.131-4.613 4.72-1.616 1.641-1.04 1.045-1.006 1.003-.49.484-.957.932-.92.88c-.901.854-1.747 1.626-2.531 2.3l-1.095.926-1.261 1.038-1.055.853-1.965 1.56-2.223 1.736-2.483 1.91-2.173 1.655c-.306.232-.463 1.135-.565 2.301l-.05.66-.044.697-.097 1.81-.043.712-.051.684c-.113 1.328-.29 2.394-.657 2.669-.33.248-.848-.296-1.43-1.102l-.297-.422-1.073-1.61-.303-.437-.296-.399c-.533-.689-1.01-1.116-1.338-.871l-3.424 2.536-6.577 4.824c-.286.208-.413.894-.505 1.7l-.14 1.397c-.1.924-.237 1.755-.58 2.006-.385.28-.976-.02-1.607-.411l-.575-.365c-.704-.444-1.396-.823-1.855-.489L.725 82.516c-.785.569-.96 1.667-.39 2.451.085.118.184.224.295.317 7.671 6.405 16.034 9.774 25.088 10.105l1.057-2.48 1.064-2.426.95-2.111.683-1.48.529-1.124.536-1.118.54-1.098.537-1.064.354-.682.35-.657.342-.625.334-.59c.11-.19.218-.374.325-.55l.313-.507c.41-.645.784-1.16 1.107-1.5l-.257 2.837-.215 2.138-.183 1.677-.204 1.704-.175 1.326-.137.944-.094.595-.095.562-.096.522-.049.244-.097.453c-.065.285-.131.535-.197.742l.722-.281.83-.345.622-.271.46-.207.491-.227.522-.247.548-.268.57-.287.592-.307.61-.327c.205-.112.413-.227.623-.345l.635-.365c.106-.062.213-.125.32-.19l.646-.392c3.026-1.875 6.174-4.352 8.06-7.325l-.073-1.524-.05-1.48-.02-.856-.014-.906-.005-.94.007-.953.02-.948.023-.62.03-.604.04-.582.048-.555c.035-.36.078-.697.128-1.005l.08-.44c.044-.207.092-.396.145-.564l5.058 7.708 4.939-3.382 5.93-4.08 6.763-4.677 5.34-3.717 5.07-3.552 4.803-3.387 4.533-3.222 2.59-1.854 2.494-1.795 2.397-1.735 3.046-2.222 2.171-1.597 2.075-1.537 2.615-1.958 2.443-1.852 1.72-1.32 1.622-1.26 1.526-1.202 1.43-1.141.898-.729.856-.701.813-.676.77-.649.727-.623.683-.596.641-.57.598-.543.555-.517.511-.491.24-.236.447-.45c.142-.147.277-.289.405-.426l.185-.202c4.353-4.802 12.009-9.107 22.97-12.917l1.417-.483c.717-.241 1.448-.48 2.193-.716l1.507-.47c1.016-.312 2.057-.62 3.121-.924l1.615-.454c.816-.226 1.646-.45 2.489-.671l1.704-.44z"/>
        <path id="2aftwmblsk" d="M204.038.363c-26.459-1.299-47.105.889-61.939 6.563-10.15 3.883-29.682 14.459-47.003 28.879-15.966 13.292-29.558 30.492-43.49 34.129-63.695 16.627-35.581 12.251-50.078 16.627-9.664 2.917 26.504 8.46 108.504 16.627L204.038.363z"/>
        <path id="fo08rh07gm" d="M134.91 4.535l-1.736-.357-1.711-.341-1.687-.327-1.662-.313-1.638-.298-1.613-.283-1.588-.27-1.564-.253c-.259-.042-.516-.082-.773-.122l-1.527-.232-1.502-.218-.742-.104-1.465-.196-1.441-.181c-.238-.03-.475-.058-.711-.085l-1.404-.16c-.464-.05-.924-.1-1.38-.145l-1.354-.13-1.33-.116-1.306-.102-.643-.045-1.269-.08-1.244-.064-1.219-.05c-1.006-.037-1.986-.057-2.94-.063h-1.134l-.557.006-1.097.023c-1.084.03-2.13.081-3.14.155l-.999.08-.973.096-.948.11c-4.058.507-7.422 1.425-10.094 2.753-3.568 1.774-7.278 4.366-10.964 7.365-.273.223.131.811.88 1.587l.37.37.2.194.43.403.699.636 2.518 2.221.718.648.446.414.41.396c.98.964 1.569 1.72 1.256 1.995-.276.242-1.128.176-2.296-.059l-.609-.13-.654-.155-.692-.175-.723-.191-1.51-.416-2.692-.754-1.11-.3-.358-.092-.692-.173-.653-.153c-1.473-.328-2.575-.456-2.89-.162l-1.09 1.026-1.08 1.031-1.07 1.036-1.06 1.036-1.565 1.552-1.533 1.54-1.99 2.019-4.651 4.75-1.708 1.727-1.216 1.21-.778.762-.38.367-.735.702c-.12.114-.24.226-.358.336l-.692.637-.662.59-.548.472-.746.628-.834.686-1.25 1.01-1.408 1.114-1.565 1.221-1.723 1.328-2.374 1.808c-.258.196-.388.971-.472 1.966l-.046.62-.13 2.334-.046.643c-.092 1.144-.24 2.073-.55 2.307-.283.211-.729-.273-1.229-.973l-.277-.4-.715-1.074-.283-.413c-.561-.798-1.08-1.384-1.412-1.137l-4.95 3.65-3.317 2.426c-.24.175-.345.756-.42 1.436l-.106 1.055c-.082.79-.195 1.51-.486 1.722-.327.238-.835-.03-1.373-.367l-.543-.344c-.543-.334-1.066-.59-1.42-.333L.725 67.888c-.786.57-.96 1.667-.392 2.452.089.122.193.233.31.328 6.253 5.118 13.06 7.812 20.418 8.081l.748-1.757.688-1.576.689-1.547.923-2.017.652-1.38.497-1.025.497-.997.329-.64.324-.617.318-.585.31-.551.3-.51c.443-.734.846-1.316 1.182-1.668l-.212 2.333-.17 1.692-.134 1.237-.188 1.58-.12.926-.127.886-.13.822-.089.502-.045.235-.09.433-.091.38c-.03.117-.06.224-.091.32l.48-.185.727-.3.367-.157.622-.278.697-.325.76-.371.536-.274.556-.293.571-.313.584-.333c.393-.228.792-.47 1.192-.723l.6-.39c2.2-1.464 4.371-3.302 5.74-5.456l-.065-1.367-.052-1.706-.016-1.135v-.886l.013-.892.018-.585.025-.571.035-.55.045-.522c.066-.674.16-1.256.294-1.673l4.18 6.363L56.856 54.1l6.451-4.465 5.47-3.816c.322-.227.465-.908.543-1.75l.043-.583.089-1.84c.063-1.098.179-2.048.557-2.316.37-.26 1.05.29 1.774.96l.728.681c.721.67 1.395 1.225 1.75.974l4.387-3.134 2.932-2.114 2.763-2.01 2.593-1.908 2.89-2.152 1.791-1.352 2.087-1.596 1.17-.909 1.468-1.153 1.029-.821.968-.784.907-.747.571-.477.807-.685.745-.648.684-.61.624-.573.562-.536.342-.336.314-.32.287-.303.134-.146c3.288-3.624 8.859-6.905 16.712-9.844l1.226-.45c1.037-.372 2.111-.739 3.223-1.1l1.353-.43 1.388-.426c.937-.282 1.899-.56 2.884-.834l1.497-.41 1.532-.403.78-.2z"/>
        <path id="tea3zzye0o" d="M168.44.3c-21.844-1.075-38.888.737-51.133 5.436-8.38 3.215-24.504 11.973-38.803 23.915-13.18 11.007-24.4 25.252-35.901 28.263C-9.98 71.684 13.229 68.06 1.262 71.684c-7.978 2.415 21.879 7.005 89.572 13.769L168.439.3z"/>
        <path id="z6e149t4yq" d="M207.403 7.013l-1.236-.256-2.447-.498-2.415-.479-1.195-.232-2.367-.45c-.783-.147-1.562-.291-2.334-.432l-2.303-.412-2.27-.393-2.239-.374-1.107-.18-2.19-.346c-1.087-.168-2.162-.328-3.225-.482l-2.11-.298c-1.396-.192-2.77-.372-4.124-.538l-2.014-.241c-1.664-.193-3.296-.366-4.893-.519L167.032.71l-.938-.08-1.853-.145c-1.531-.113-3.029-.206-4.493-.28l-1.74-.079c-15.236-.61-26.714 1.01-34.435 4.86-8.164 4.072-16.81 10.933-25.098 18.498l-1.46 1.342-1.45 1.354-1.44 1.364-1.43 1.37-1.419 1.376-1.406 1.377-1.393 1.376-2.06 2.058-2.025 2.042-1.985 2.018-8.057 8.252-1.714 1.743-1.11 1.119-1.08 1.081-1.05 1.041-1.02.999-.989.953-.956.905c-.157.147-.312.292-.466.434l-.905.83c-.296.267-.586.525-.87.775l-.671.58-1.362 1.149-1.227 1.012-1.35 1.095-1.86 1.485-2.05 1.615-1.78 1.386-2.395 1.848-2.054 1.572-4.476 3.394L40 76.153l-4.747 3.531-6.655 4.914-6.436 4.721-10.573 7.704-10.66 7.717c-1.002.724-1.228 2.122-.504 3.124.232.321.545.575.907.735 26.22 11.629 48.14 11.066 65.76-1.689l.972-2.998 1.077-3.236.783-2.302 1.011-2.906.77-2.161.96-2.619.65-1.727.49-1.27.49-1.238.486-1.198.321-.77.318-.746.313-.718.309-.687.303-.654.297-.618.29-.58c.095-.186.189-.365.281-.537l.274-.494c.403-.706.776-1.254 1.106-1.601l-.255 4.045-.229 3.3-.218 2.886-.247 2.99-.152 1.69-.118 1.236-.163 1.582-.169 1.477-.129 1.021-.13.933-.133.83-.089.492-.089.436-.09.378c-.03.116-.059.221-.089.316l.885-.345 1.02-.424.857-.373.723-.326 1.057-.497.564-.274.884-.442.612-.316.946-.506.974-.542.661-.381.334-.197.67-.406.676-.421.677-.437.338-.224.676-.46c3.148-2.181 6.184-4.859 8.148-7.96l-.14-1.746-.11-1.586-.092-1.574-.067-1.373-.043-1.071-.04-1.455-.017-1.09v-1.073l.016-1.04.023-.666.032-.64.042-.61.054-.574c.08-.74.191-1.372.342-1.849l6.9 10.898 6.116-5.46 7.384-6.63 5.369-4.85 5.042-4.583 4.715-4.317 3.168-2.92 4.155-3.858 3.828-3.592 2.04-1.932 2.402-2.293 2.66-2.572 1.24-1.213 1.935-1.911 1.08-1.082 1.347-1.366.94-.967.88-.918 1.08-1.148.74-.804.234-.257c4.173-4.613 10.732-8.868 19.675-12.764l1.264-.542c.426-.18.858-.358 1.294-.536l1.326-.532 1.356-.528c.229-.087.458-.175.69-.262l1.402-.52 1.434-.516 1.465-.51c.246-.086.494-.17.744-.255l1.51-.504 1.543-.499.783-.248 1.588-.492c.535-.164 1.075-.326 1.62-.488l1.65-.483c.555-.16 1.116-.32 1.681-.479l1.713-.473 1.743-.47 1.774-.464.899-.23z"/>
        <path id="gqs7sfr4is" d="M259.922.463c-33.706-1.657-60.007 1.135-78.904 8.378-12.931 4.956-37.811 18.455-59.877 36.862-20.339 16.966-37.653 38.922-55.4 43.564-81.142 21.224-45.327 15.638-63.794 21.224-12.311 3.723 33.762 10.798 138.22 21.223L259.923.463z"/>
        <path id="7nfhxoaupt" d="M163.46 5.493l-.97-.2-1.92-.39-1.896-.376-1.87-.36-1.846-.345-1.82-.33-1.795-.316-1.77-.3-1.744-.286-1.72-.27c-.284-.045-.568-.088-.85-.13l-1.681-.249-1.657-.233-1.63-.219-1.607-.203-1.58-.189c-.262-.03-.522-.06-.781-.088L134.78.842l-1.518-.15-1.493-.137-1.467-.122-1.442-.106-.712-.048-1.404-.084-1.38-.069-.68-.029-1.34-.046c-.886-.027-1.755-.043-2.608-.05L119.471 0c-.21 0-.417.002-.624.005l-1.228.02c-2.633.06-5.089.226-7.367.497l-1.039.133c-1.026.14-2.015.302-2.966.487l-.938.192c-2.93.632-5.482 1.489-7.655 2.57-6.771 3.37-13.965 9.18-20.802 15.502l-1.363 1.27-1.352 1.282-1.34 1.288-.664.645-1.318 1.292-1.303 1.29-1.286 1.285-1.267 1.276-3.079 3.131-4.613 4.72-1.616 1.641-1.04 1.045-1.006 1.003-.49.484-.957.932-.92.88c-.901.854-1.747 1.626-2.531 2.3l-1.095.926-1.261 1.038-1.055.853-1.965 1.56-2.223 1.736-2.483 1.91-2.173 1.655c-.306.232-.463 1.135-.565 2.301l-.05.66-.044.697-.097 1.81-.043.712-.051.684c-.113 1.328-.29 2.394-.657 2.669-.33.248-.848-.296-1.43-1.102l-.297-.422-1.073-1.61-.303-.437-.296-.399c-.533-.689-1.01-1.116-1.338-.871l-3.424 2.536-6.577 4.824c-.286.208-.413.894-.505 1.7l-.14 1.397c-.1.924-.237 1.755-.58 2.006-.385.28-.976-.02-1.607-.411l-.575-.365c-.704-.444-1.396-.823-1.855-.489L.725 82.516c-.785.569-.96 1.667-.39 2.451.085.118.184.224.295.317 7.671 6.405 16.034 9.774 25.088 10.105l1.057-2.48 1.064-2.426.95-2.111.683-1.48.529-1.124.536-1.118.54-1.098.537-1.064.354-.682.35-.657.342-.625.334-.59c.11-.19.218-.374.325-.55l.313-.507c.41-.645.784-1.16 1.107-1.5l-.257 2.837-.215 2.138-.183 1.677-.204 1.704-.175 1.326-.137.944-.094.595-.095.562-.096.522-.049.244-.097.453c-.065.285-.131.535-.197.742l.722-.281.83-.345.622-.271.46-.207.491-.227.522-.247.548-.268.57-.287.592-.307.61-.327c.205-.112.413-.227.623-.345l.635-.365c.106-.062.213-.125.32-.19l.646-.392c3.026-1.875 6.174-4.352 8.06-7.325l-.073-1.524-.05-1.48-.02-.856-.014-.906-.005-.94.007-.953.02-.948.023-.62.03-.604.04-.582.048-.555c.035-.36.078-.697.128-1.005l.08-.44c.044-.207.092-.396.145-.564l5.058 7.708 4.939-3.382 5.93-4.08 6.763-4.677 5.34-3.717 5.07-3.552 4.803-3.387 4.533-3.222 2.59-1.854 2.494-1.795 2.397-1.735 3.046-2.222 2.171-1.597 2.075-1.537 2.615-1.958 2.443-1.852 1.72-1.32 1.622-1.26 1.526-1.202 1.43-1.141.898-.729.856-.701.813-.676.77-.649.727-.623.683-.596.641-.57.598-.543.555-.517.511-.491.24-.236.447-.45c.142-.147.277-.289.405-.426l.185-.202c4.353-4.802 12.009-9.107 22.97-12.917l1.417-.483c.717-.241 1.448-.48 2.193-.716l1.507-.47c1.016-.312 2.057-.62 3.121-.924l1.615-.454c.816-.226 1.646-.45 2.489-.671l1.704-.44z"/>
        <path id="p3o20g9qtv" d="M204.038.363c-26.459-1.299-47.105.889-61.939 6.563-10.15 3.883-29.682 14.459-47.003 28.879-15.966 13.292-29.558 30.492-43.49 34.129-63.695 16.627-35.581 12.251-50.078 16.627-9.664 2.917 26.504 8.46 108.504 16.627L204.038.363z"/>
        <path id="41ryjtqrvw" d="M132.685 3.422c-.872-3.012-7.124-3.82-15.22-3.254l-1.228.096-1.253.115c-.632.062-1.273.132-1.92.208L111.76.75c-.219.028-.438.058-.658.088l-1.327.189-1.338.205c-.447.072-.897.146-1.347.222l-1.354.238c-.226.04-.452.082-.678.124l-1.358.26-1.358.274-1.356.287c-.45.098-.9.199-1.35.3l-1.341.313-1.331.324-1.317.335c-.437.113-.871.228-1.302.345l-1.282.355-1.261.364-1.238.373-1.21.38c-3.389 1.088-6.424 2.263-8.835 3.461-3.568 1.774-7.278 4.367-10.964 7.366-.315.257.271 1 1.25 1.957l.41.393.68.624.983.875 1.526 1.342.493.439.7.638.429.406c1.098 1.056 1.79 1.897 1.456 2.19-.276.242-1.128.176-2.296-.059l-.609-.13-.654-.155-.692-.175-.723-.191-1.51-.416-2.692-.754-.746-.203-.722-.19-.35-.088-.673-.163c-1.634-.382-2.875-.551-3.213-.236l-1.09 1.025-1.08 1.032-1.07 1.036-1.059 1.036-1.565 1.552-1.533 1.54-1.99 2.018-4.651 4.75-1.708 1.727-1.216 1.211-.778.762-.75.723-.723.681-.692.638-.662.59-.548.472-1.014.85-.864.707-1.637 1.31-1.1.866-2.465 1.912-2.325 1.775-.495.375c-.258.196-.388.971-.472 1.965l-.046.62-.13 2.335-.046.643c-.092 1.144-.24 2.073-.55 2.307-.283.211-.729-.273-1.229-.973l-.277-.4-.715-1.074-.283-.413c-.561-.798-1.08-1.385-1.412-1.137l-4.95 3.65-3.317 2.426c-.24.175-.345.756-.42 1.436l-.106 1.055c-.082.79-.195 1.51-.486 1.722-.29.211-.724.023-1.195-.258l-.721-.453c-.543-.334-1.066-.591-1.42-.333L.725 73.853c-.786.57-.96 1.667-.392 2.452.089.122.193.232.31.328 6.253 5.118 13.06 7.812 20.418 8.081l.652-1.532.784-1.801.689-1.547.923-2.017.652-1.38.497-1.025.332-.669.494-.969.324-.616.318-.585.31-.551.3-.511.29-.466c.329-.515.63-.927.892-1.201l-.212 2.333-.17 1.692-.134 1.237-.188 1.58-.12.926-.127.886-.13.821-.089.503-.045.235-.09.433c-.06.272-.121.508-.182.7l.602-.234.783-.327.595-.261.673-.31.487-.232.513-.253.536-.273.556-.293.571-.313.584-.333c.099-.057.197-.115.296-.174l.596-.362c2.494-1.546 5.085-3.586 6.64-6.033l-.065-1.367-.052-1.706-.016-1.135v-.886l.013-.892.018-.585.025-.571.035-.55.045-.522c.066-.674.16-1.256.294-1.673l4.18 6.363 17.115-11.8 6.148-4.283.572-.402c.323-.226.466-.908.544-1.75l.043-.582.089-1.841c.063-1.097.179-2.047.557-2.315.338-.238.94.205 1.594.795l.362.333.546.513c.721.67 1.395 1.225 1.75.973l1.746-1.229 1.142-.79 1.122-.769 1.104-.746 1.085-.725 1.59-1.047 1.546-1.001 1.006-.643 1.471-.929 1.89-1.173 2.246-1.369 2.114-1.266 6.472-3.83 1.187-.719 1.093-.68.758-.486.474-.314.666-.457.413-.295.389-.29c.125-.094.246-.189.363-.282l.339-.277.16-.137.3-.27c.143-.134.277-.266.401-.397l.122-.13c.753-.83 1.655-1.664 2.664-2.499l.619-.5c.105-.084.21-.168.318-.251l.653-.502c.222-.167.447-.334.675-.501l.694-.502.711-.501.727-.502.74-.502 1.513-1.003 1.545-1.002 3.896-2.498 1.533-.995.753-.496 1.108-.743.721-.494.705-.494.688-.492.667-.49.645-.49.622-.49c3.554-2.846 5.798-5.627 5.028-8.29z"/>
        <path id="d58onh0bhy" d="M168.44.3c-21.844-1.075-38.888.737-51.133 5.436-8.38 3.215-24.504 11.973-38.803 23.915-13.18 11.007-24.4 25.252-35.901 28.263C-9.98 71.684 13.229 68.06 1.262 71.684c-7.978 2.415 21.879 7.005 89.572 13.769L168.439.3z"/>
        <path id="0sskeqqsnz" d="M423.02 14.327C338.75-3.277 281.758-4.658 252.046 10.183c-21.393 10.686-44.407 30.775-65.41 51.24l-2.615 2.56-1.3 1.28-2.58 2.558-2.555 2.552-2.529 2.543-2.5 2.528-1.24 1.258-2.456 2.501-3.624 3.706-3.546 3.64-7.944 8.16-3.25 3.324-3.15 3.2-2.042 2.059-1.993 1.994c-4.92 4.9-9.371 9.158-13.242 12.497l-1.033.886-1.666 1.407-1.19.992-1.9 1.566-1.346 1.098-2.135 1.725-2.276 1.821-2.416 1.916-2.557 2.012-2.697 2.107-2.838 2.202-1.97 1.521-4.128 3.17-3.26 2.488-4.564 3.466-3.588 2.711-5.002 3.763-3.916 2.933-5.44 4.06-4.243 3.155-5.877 4.356-4.572 3.379-6.314 4.652-4.9 3.601-8.478 6.214-12.526 9.143-5.602 4.078-9.65 7.007-8 5.797-4.095 2.962c-2.043 1.478-2.501 4.33-1.023 6.373.472.652 1.108 1.168 1.845 1.496 53.482 23.76 98.193 22.613 134.135-3.444l1.446-4.487 1.43-4.352 1.323-3.958 1.238-3.65 1.34-3.895 1.135-3.243 1.178-3.315.602-1.674.916-2.516.929-2.51.623-1.663.626-1.649.94-2.436.626-1.592.624-1.562.62-1.527.617-1.487.306-.728.607-1.419.3-.69.595-1.34.586-1.283c1.837-3.963 3.513-6.98 4.85-8.39l-.344 5.574-.458 6.832-.265 3.695-.295 3.903-.32 4.015-.286 3.362-.238 2.66-.31 3.243-.192 1.88-.195 1.815-.198 1.739-.202 1.65-.204 1.551-.137.973-.138.919-.138.861-.14.802-.14.737-.14.67c-.117.528-.234.983-.351 1.354l1.041-.4 1.36-.547 1.177-.492 1.01-.434 1.111-.489 1.204-.544.85-.392.886-.417.918-.44.95-.464.977-.487.499-.252 1.015-.522 1.038-.544 1.058-.568 1.075-.59c.18-.1.362-.2.544-.303l1.097-.623 1.11-.646c8.541-5.032 17.907-11.995 23.302-20.53l-.225-2.76-.195-2.706-.164-2.554-.114-2.008-.106-2.125-.058-1.316-.067-1.788-.054-1.812-.038-1.817-.017-1.356-.004-1.343.003-.884.01-.873.017-.859.022-.843.048-1.23.041-.796.05-.771.057-.747.065-.719.075-.69c.066-.56.142-1.09.228-1.58l.108-.569c.095-.458.2-.875.318-1.246l14.074 22.262 7.21-6.441 8.706-7.801 8.366-7.523 8.026-7.244 4.652-4.214 7.481-6.799 7.142-6.52 5.468-5.017 3.958-3.645 6.325-5.854 3.632-3.378 4.652-4.348 3.346-3.145 2.163-2.04 3.142-2.978 3.02-2.877 2.897-2.778 2.775-2.677 2.652-2.576 2.53-2.477 1.618-1.596 1.564-1.55 2.244-2.243 1.428-1.44 1.374-1.395 1.959-2.01 1.237-1.283 1.183-1.24 1.673-1.775 1.047-1.128.993-1.083.476-.525c10.946-12.12 29.938-23.029 56.976-32.725l2.338-.828c.392-.138.787-.275 1.183-.412l2.396-.82c10.067-3.4 21.16-6.647 33.28-9.74z"/>
        <path id="8bmon74jnB" d="M530.126.946C461.38-2.44 407.738 3.265 369.198 18.06c-26.375 10.124-77.12 37.7-122.123 75.301-41.483 34.659-76.796 79.51-112.992 88.993C-31.41 225.709 41.635 214.3 3.971 225.709c-25.11 7.606 68.86 22.058 281.91 43.355L530.125.946z"/>
        <path id="azkbbb8ahD" d="M333.392 11.224C267.24-2.567 222.5-3.649 199.176 7.978c-15.743 7.848-32.606 22.171-48.237 37.142l-2.077 2-1.033 1-2.052 2.006-2.035 2.005-2.016 2.002-1.996 1.996-1.974 1.987-2.919 2.956-1.916 1.95-4.673 4.782-6.236 6.394-2.552 2.604-1.657 1.683-1.621 1.636-1.584 1.588-.778.775-1.525 1.508-1.484 1.451-.727.704-1.422 1.36c-1.866 1.772-3.616 3.372-5.237 4.767l-1.327 1.132-1.079.905-1.55 1.281-2.114 1.723-2.8 2.244-2.55 2.017-2.748 2.152-3.56 2.759-4.513 3.462-2.753 2.097c-.528.4-.838 1.784-1.047 3.643l-.079.769-.069.812-.062.848-.082 1.325-.223 4.127-.085 1.346-.065.867-.072.836-.082.797c-.234 2.066-.59 3.638-1.207 4.103-.629.472-1.587-.458-2.675-1.918l-.367-.505-.187-.264-.378-.55-.773-1.157-.976-1.478-.388-.577-.385-.56-.38-.533c-1.256-1.729-2.398-2.91-3.153-2.348l-3.93 2.923-7.054 5.206-7.954 5.837-1.46 1.07c-.56.41-.823 1.723-1.009 3.291l-.081.74-.187 1.914-.08.755c-.2 1.735-.488 3.246-1.142 3.723-.784.573-1.99-.039-3.277-.84l-1.302-.826c-1.392-.87-2.747-1.578-3.654-.917L1.476 168.57c-1.6 1.162-1.954 3.401-.791 5 .172.238.373.454.598.642 15.648 13.09 32.706 19.973 51.175 20.65l1.654-3.9 1.102-2.547 1.307-2.978 1.253-2.81 1.117-2.466 1.406-3.047.723-1.538.73-1.536.736-1.524.738-1.503.49-.986.49-.97.73-1.42.48-.918.476-.893.236-.436.467-.85.46-.819.45-.783.222-.377.437-.726c.071-.118.143-.234.214-.348l.42-.663c.758-1.173 1.455-2.117 2.062-2.757l-.37 4.182-.383 3.947-.344 3.3-.34 3.03-.316 2.61-.277 2.128-.23 1.64-.236 1.562-.18 1.107-.184 1.04-.123.654-.123.617-.125.578-.124.537-.063.252-.125.47c-.042.149-.084.29-.126.421l.818-.312.862-.346 1.129-.468.793-.34.872-.384 1.275-.577 1.033-.483 1.09-.524 1.143-.565.788-.4.806-.418.823-.435.837-.454.424-.233.856-.48.867-.497.874-.514.44-.263.883-.54c.296-.183.591-.368.887-.557l.89-.573.444-.293.888-.598.443-.306.883-.623.877-.639c4.37-3.235 8.458-7.072 11.22-11.432l-.11-2.174-.066-1.617-.074-2.285-.044-1.831-.024-1.55-.01-1.197-.003-1.217.012-1.635.013-.817.03-1.216.027-.8.053-1.18.043-.766.05-.749.058-.727.066-.702.036-.342.079-.66c.055-.431.115-.841.183-1.226l.105-.559c.093-.45.195-.857.309-1.216l10.315 15.746 7.587-5.202 7.39-5.081 9.546-6.587 6.93-4.798 4.51-3.13 6.6-4.597 4.29-2.997 6.27-4.393 6.075-4.273 5.876-4.151 3.808-2.7 5.547-3.95 3.588-2.565 5.218-3.747 5.02-3.626 3.238-2.35 3.15-2.296 4.56-3.343 4.362-3.222 2.8-2.08 2.71-2.027 2.623-1.972 2.536-1.919 2.447-1.865 2.36-1.81 2.272-1.758 2.185-1.703 2.096-1.65c.343-.27.681-.538 1.016-.804l1.965-1.568 1.877-1.514.906-.738 1.746-1.433c.567-.47 1.12-.929 1.658-1.38l1.57-1.326c.254-.216.505-.43.752-.643l1.438-1.245c3.255-2.842 5.792-5.244 7.613-7.206l.38-.414c5.155-5.697 12.585-11.052 22.288-16.066l1.402-.714c5.196-2.609 11.016-5.124 17.46-7.546l1.772-.658c1.49-.546 3.013-1.088 4.568-1.625l1.881-.642c.632-.213 1.27-.425 1.912-.637l1.943-.632.983-.315 1.99-.625 2.02-.621 1.022-.309 2.066-.614 2.098-.61 2.129-.604 1.076-.3 2.175-.598 2.206-.593 1.114-.295 2.253-.586 1.137-.29z"/>
        <path id="2bm8mgbngF" d="M416.148.741c-53.965-2.653-96.074 1.817-126.328 13.407-20.704 7.932-60.539 29.536-95.866 58.993-32.564 27.153-60.285 62.29-88.699 69.72-129.912 33.965-72.572 25.027-102.138 33.965-19.71 5.959 54.056 17.28 221.299 33.966L416.148.74z"/>
        <path id="8eb1vz2zyH" d="M275.164 9.266c-7.109-1.48-13.918-2.783-20.427-3.908l-2.984-.507c-41.962-7.002-71.137-6.424-87.523 1.735-7.278 3.624-14.845 8.92-22.362 15.047-.508.414.131 1.449 1.405 2.828l.423.447.462.467.496.487.528.504.843.784.894.81 1.249 1.114 3.553 3.13 1.25 1.116.893.815.844.788.528.508.497.49.463.473c1.552 1.617 2.395 2.857 1.838 3.346-.525.462-2.08.374-4.228-.032l-.737-.146-.777-.168-.815-.188-.847-.205-1.325-.337-.915-.24-2.368-.647-5.873-1.648-1.917-.527-1.847-.49-.89-.225-.86-.21-.83-.194-.403-.09-.776-.165c-2.52-.513-4.366-.662-4.94-.126l-1.462 1.375-1.454 1.38-1.446 1.387-1.437 1.389-1.428 1.391-1.417 1.392-2.802 2.778-1.384 1.384-2.05 2.065-3.35 3.399-4.53 4.631-4.92 5.035-2.916 2.967-2.24 2.255-1.621 1.613-.53.522-1.55 1.517-1.004.967-.978.931-.953.893-.927.854-.9.812-.872.77-.721.622-.934.792-1.358 1.132-1.88 1.54-2.084 1.676-1.814 1.44-2.449 1.923-2.652 2.061-3.45 2.654-3.099 2.363-.644.489c-.454.344-.713 1.567-.886 3.199l-.07.722-.087 1.16-.075 1.226-.159 2.96-.05.835-.055.815-.063.786-.072.75c-.192 1.82-.49 3.222-1.023 3.623-.547.41-1.397-.464-2.356-1.78l-.342-.481-.35-.51-1.434-2.16-.358-.528-.353-.508-.175-.243-.344-.46c-.905-1.177-1.717-1.91-2.273-1.495l-3.25 2.413-10.297 7.575-3.313 2.425c-.482.351-.697 1.507-.852 2.868l-.073.694-.138 1.425-.077.697c-.165 1.368-.405 2.541-.925 2.921-.632.461-1.595-.007-2.63-.643l-1.21-.766c-1.13-.703-2.228-1.26-2.966-.723L1.478 138.691c-1.6 1.161-1.957 3.4-.795 5 .18.248.39.472.627.666 12.757 10.46 26.641 15.964 41.653 16.514l.955-2.258 1.512-3.498 1.12-2.542 1.252-2.79.955-2.089.992-2.13 1.015-2.134.82-1.687.615-1.24.613-1.212.405-.787.602-1.145.396-.737.39-.711.384-.685.377-.656.37-.625.36-.59c.06-.096.118-.19.177-.282l.346-.536.335-.497.324-.455c.318-.433.617-.8.893-1.09l-.286 3.235-.184 1.937-.303 3-.218 2.027-.237 2.079-.202 1.663-.211 1.633-.164 1.188-.168 1.144-.171 1.088-.174 1.02-.177.94-.118.576-.06.272-.12.509-.12.46-.12.406.832-.32.973-.394 1.052-.445.476-.207 1.313-.59 1.164-.543.931-.45.975-.486 1.012-.52.693-.367.706-.381.717-.396.727-.412.734-.426.741-.442.746-.455.748-.47.375-.241.75-.492.748-.506c.125-.085.25-.171.374-.258l.744-.527.739-.541.367-.276.728-.561.718-.575.708-.589c2.574-2.183 4.896-4.634 6.604-7.328l-.097-1.969-.066-1.67-.06-2.016-.036-1.866-.013-1.569.001-1.2.013-1.207.027-1.2.026-.788.033-.775.042-.757.049-.737.028-.359.063-.697c.135-1.364.328-2.541.596-3.388l8.526 12.999 26.53-18.298 13.11-9.097 8.243-5.765.731-.514c.745-.525 1.021-2.236 1.165-4.27l.049-.775.058-1.198.07-1.608.042-.786.024-.384.058-.743c.15-1.69.424-3.047 1.05-3.49.677-.48 1.873.388 3.184 1.563l.702.646 1.18 1.111.466.427.454.402c1.12.966 2.107 1.6 2.683 1.191l5.006-3.572 4.801-3.447 4.598-3.32 3.53-2.568 2.563-1.872 3.302-2.426 3.944-2.92 2.268-1.693 2.91-2.185 3.453-2.62 2.615-2.005 2.485-1.925 1.778-1.391 2.255-1.785 1.606-1.286 2.028-1.644 1.434-1.18 1.36-1.136 1.288-1.09 1.214-1.045 1.14-1 1.067-.955.67-.612.944-.88.589-.561.556-.541.523-.522.49-.5.233-.244.442-.471.208-.228c3.382-3.733 7.948-7.288 13.697-10.666l1.092-.63c.369-.21.742-.42 1.12-.628l1.147-.623.585-.31 1.189-.616c1.002-.512 2.033-1.02 3.093-1.523l1.287-.602 1.313-.598c1.55-.695 3.155-1.382 4.817-2.06l1.44-.579.729-.288 1.48-.573 1.508-.569 1.536-.564c.258-.094.518-.187.778-.28l1.578-.559.799-.278 1.619-.552 1.647-.547.834-.273 1.688-.541.855-.27 1.73-.535 1.757-.531.89-.264 1.8-.525 1.826-.52.924-.26 1.869-.514 1.896-.51.959-.254 1.938-.504c.325-.084.652-.168.98-.25z"/>
        <path id="ysk9qm18tJ" d="M343.541.614c-44.55-2.197-79.312 1.504-104.287 11.103-17.092 6.568-49.976 24.46-79.14 48.853-26.883 22.486-49.767 51.585-73.223 57.736-107.246 28.128-59.91 20.726-84.318 28.128-16.271 4.935 44.624 14.311 182.688 28.128L343.541.614z"/>
        <path id="mwtsetduiK" d="M423.02 14.327C338.75-3.277 281.758-4.658 252.046 10.183c-21.393 10.686-44.407 30.775-65.41 51.24l-2.615 2.56-1.3 1.28-2.58 2.558-2.555 2.552-2.529 2.543-2.5 2.528-1.24 1.258-2.456 2.501-3.624 3.706-3.546 3.64-7.944 8.16-3.25 3.324-3.15 3.2-2.042 2.059-1.993 1.994c-4.92 4.9-9.371 9.158-13.242 12.497l-1.033.886-1.666 1.407-1.19.992-1.9 1.566-1.346 1.098-2.135 1.725-2.276 1.821-2.416 1.916-2.557 2.012-2.697 2.107-2.838 2.202-1.97 1.521-4.128 3.17-3.26 2.488-4.564 3.466-3.588 2.711-5.002 3.763-3.916 2.933-5.44 4.06-4.243 3.155-5.877 4.356-4.572 3.379-6.314 4.652-4.9 3.601-8.478 6.214-12.526 9.143-5.602 4.078-9.65 7.007-8 5.797-4.095 2.962c-2.043 1.478-2.501 4.33-1.023 6.373.472.652 1.108 1.168 1.845 1.496 53.482 23.76 98.193 22.613 134.135-3.444l1.446-4.487 1.43-4.352 1.323-3.958 1.238-3.65 1.34-3.895 1.135-3.243 1.178-3.315.602-1.674.916-2.516.929-2.51.623-1.663.626-1.649.94-2.436.626-1.592.624-1.562.62-1.527.617-1.487.306-.728.607-1.419.3-.69.595-1.34.586-1.283c1.837-3.963 3.513-6.98 4.85-8.39l-.344 5.574-.458 6.832-.265 3.695-.295 3.903-.32 4.015-.286 3.362-.238 2.66-.31 3.243-.192 1.88-.195 1.815-.198 1.739-.202 1.65-.204 1.551-.137.973-.138.919-.138.861-.14.802-.14.737-.14.67c-.117.528-.234.983-.351 1.354l1.041-.4 1.36-.547 1.177-.492 1.01-.434 1.111-.489 1.204-.544.85-.392.886-.417.918-.44.95-.464.977-.487.499-.252 1.015-.522 1.038-.544 1.058-.568 1.075-.59c.18-.1.362-.2.544-.303l1.097-.623 1.11-.646c8.541-5.032 17.907-11.995 23.302-20.53l-.225-2.76-.195-2.706-.164-2.554-.114-2.008-.106-2.125-.058-1.316-.067-1.788-.054-1.812-.038-1.817-.017-1.356-.004-1.343.003-.884.01-.873.017-.859.022-.843.048-1.23.041-.796.05-.771.057-.747.065-.719.075-.69c.066-.56.142-1.09.228-1.58l.108-.569c.095-.458.2-.875.318-1.246l14.074 22.262 7.21-6.441 8.706-7.801 8.366-7.523 8.026-7.244 4.652-4.214 7.481-6.799 7.142-6.52 5.468-5.017 3.958-3.645 6.325-5.854 3.632-3.378 4.652-4.348 3.346-3.145 2.163-2.04 3.142-2.978 3.02-2.877 2.897-2.778 2.775-2.677 2.652-2.576 2.53-2.477 1.618-1.596 1.564-1.55 2.244-2.243 1.428-1.44 1.374-1.395 1.959-2.01 1.237-1.283 1.183-1.24 1.673-1.775 1.047-1.128.993-1.083.476-.525c10.946-12.12 29.938-23.029 56.976-32.725l2.338-.828c.392-.138.787-.275 1.183-.412l2.396-.82c10.067-3.4 21.16-6.647 33.28-9.74z"/>
        <path id="94t8dq3ftM" d="M530.126.946C461.38-2.44 407.738 3.265 369.198 18.06c-26.375 10.124-77.12 37.7-122.123 75.301-41.483 34.659-76.796 79.51-112.992 88.993C-31.41 225.709 41.635 214.3 3.971 225.709c-25.11 7.606 68.86 22.058 281.91 43.355L530.125.946z"/>
        <path id="wc521xsuhN" d="M333.392 11.224C267.24-2.567 222.5-3.649 199.176 7.978c-15.743 7.848-32.606 22.171-48.237 37.142l-2.077 2-1.033 1-2.052 2.006-2.035 2.005-2.016 2.002-1.996 1.996-1.974 1.987-2.919 2.956-1.916 1.95-4.673 4.782-6.236 6.394-2.552 2.604-1.657 1.683-1.621 1.636-1.584 1.588-.778.775-1.525 1.508-1.484 1.451-.727.704-1.422 1.36c-1.866 1.772-3.616 3.372-5.237 4.767l-1.327 1.132-1.079.905-1.55 1.281-2.114 1.723-2.8 2.244-2.55 2.017-2.748 2.152-3.56 2.759-4.513 3.462-2.753 2.097c-.528.4-.838 1.784-1.047 3.643l-.079.769-.069.812-.062.848-.082 1.325-.223 4.127-.085 1.346-.065.867-.072.836-.082.797c-.234 2.066-.59 3.638-1.207 4.103-.629.472-1.587-.458-2.675-1.918l-.367-.505-.187-.264-.378-.55-.773-1.157-.976-1.478-.388-.577-.385-.56-.38-.533c-1.256-1.729-2.398-2.91-3.153-2.348l-3.93 2.923-7.054 5.206-7.954 5.837-1.46 1.07c-.56.41-.823 1.723-1.009 3.291l-.081.74-.187 1.914-.08.755c-.2 1.735-.488 3.246-1.142 3.723-.784.573-1.99-.039-3.277-.84l-1.302-.826c-1.392-.87-2.747-1.578-3.654-.917L1.476 168.57c-1.6 1.162-1.954 3.401-.791 5 .172.238.373.454.598.642 15.648 13.09 32.706 19.973 51.175 20.65l1.654-3.9 1.102-2.547 1.307-2.978 1.253-2.81 1.117-2.466 1.406-3.047.723-1.538.73-1.536.736-1.524.738-1.503.49-.986.49-.97.73-1.42.48-.918.476-.893.236-.436.467-.85.46-.819.45-.783.222-.377.437-.726c.071-.118.143-.234.214-.348l.42-.663c.758-1.173 1.455-2.117 2.062-2.757l-.37 4.182-.383 3.947-.344 3.3-.34 3.03-.316 2.61-.277 2.128-.23 1.64-.236 1.562-.18 1.107-.184 1.04-.123.654-.123.617-.125.578-.124.537-.063.252-.125.47c-.042.149-.084.29-.126.421l.818-.312.862-.346 1.129-.468.793-.34.872-.384 1.275-.577 1.033-.483 1.09-.524 1.143-.565.788-.4.806-.418.823-.435.837-.454.424-.233.856-.48.867-.497.874-.514.44-.263.883-.54c.296-.183.591-.368.887-.557l.89-.573.444-.293.888-.598.443-.306.883-.623.877-.639c4.37-3.235 8.458-7.072 11.22-11.432l-.11-2.174-.066-1.617-.074-2.285-.044-1.831-.024-1.55-.01-1.197-.003-1.217.012-1.635.013-.817.03-1.216.027-.8.053-1.18.043-.766.05-.749.058-.727.066-.702.036-.342.079-.66c.055-.431.115-.841.183-1.226l.105-.559c.093-.45.195-.857.309-1.216l10.315 15.746 7.587-5.202 7.39-5.081 9.546-6.587 6.93-4.798 4.51-3.13 6.6-4.597 4.29-2.997 6.27-4.393 6.075-4.273 5.876-4.151 3.808-2.7 5.547-3.95 3.588-2.565 5.218-3.747 5.02-3.626 3.238-2.35 3.15-2.296 4.56-3.343 4.362-3.222 2.8-2.08 2.71-2.027 2.623-1.972 2.536-1.919 2.447-1.865 2.36-1.81 2.272-1.758 2.185-1.703 2.096-1.65c.343-.27.681-.538 1.016-.804l1.965-1.568 1.877-1.514.906-.738 1.746-1.433c.567-.47 1.12-.929 1.658-1.38l1.57-1.326c.254-.216.505-.43.752-.643l1.438-1.245c3.255-2.842 5.792-5.244 7.613-7.206l.38-.414c5.155-5.697 12.585-11.052 22.288-16.066l1.402-.714c5.196-2.609 11.016-5.124 17.46-7.546l1.772-.658c1.49-.546 3.013-1.088 4.568-1.625l1.881-.642c.632-.213 1.27-.425 1.912-.637l1.943-.632.983-.315 1.99-.625 2.02-.621 1.022-.309 2.066-.614 2.098-.61 2.129-.604 1.076-.3 2.175-.598 2.206-.593 1.114-.295 2.253-.586 1.137-.29z"/>
        <path id="90vm67u7aP" d="M416.148.741c-53.965-2.653-96.074 1.817-126.328 13.407-20.704 7.932-60.539 29.536-95.866 58.993-32.564 27.153-60.285 62.29-88.699 69.72-129.912 33.965-72.572 25.027-102.138 33.965-19.71 5.959 54.056 17.28 221.299 33.966L416.148.74z"/>
        <path id="83pqqrx7bQ" d="M270.624 6.99C266.18-8.393 193.147 4.37 164.23 18.767c-7.278 3.624-14.845 8.92-22.362 15.047-.535.436.201 1.56 1.612 3.049l.442.457.48.477.512.496.543.512.568.526.894.81 1.249 1.114 3.87 3.411.932.835.894.815.844.788.528.508.497.49.463.472.216.229.403.44c1.145 1.288 1.697 2.259 1.22 2.678-.497.437-1.912.382-3.876.033l-.716-.135-.758-.158-.393-.086-.815-.188-.847-.205-.877-.22-1.363-.358-1.409-.381-1.443-.4-4.903-1.378-2.403-.662-1.847-.49-.89-.225-.86-.21-.83-.194-.403-.09-.776-.165c-2.52-.513-4.366-.662-4.94-.126l-1.462 1.374-1.454 1.382-1.446 1.386-1.437 1.389-1.428 1.391-1.417 1.392-2.106 2.085-2.08 2.077-2.05 2.065-3.35 3.399-4.53 4.631-5.513 5.64-2.323 2.362-2.24 2.254-1.086 1.084-1.064 1.052-1.551 1.516-1.004.968-.978.931-.953.893-.927.854-.453.411-.887.792-.432.38-.721.62-1.261 1.068-1.759 1.456-1.553 1.265-.826.665-2.205 1.758-2.915 2.292-3.207 2.49-3.499 2.686-3.139 2.39c-.454.345-.713 1.568-.886 3.2l-.07.722-.087 1.16-.075 1.226-.159 2.96-.05.835-.055.815-.063.786-.072.75c-.192 1.82-.49 3.222-1.023 3.623-.58.435-1.498-.571-2.526-2.017l-.346-.496-.71-1.059-.9-1.359-.358-.528-.353-.508-.175-.243-.344-.46c-.905-1.177-1.717-1.91-2.273-1.495l-5.115 3.792-4.787 3.524-6.958 5.097c-.482.351-.697 1.507-.852 2.868l-.073.694-.138 1.425-.077.697c-.165 1.368-.405 2.541-.925 2.921-.68.497-1.745-.085-2.87-.793l-.727-.463-.484-.3c-1.044-.63-2.04-1.075-2.725-.576L1.478 150.873c-1.6 1.161-1.957 3.4-.795 5 .18.248.39.472.627.666 12.757 10.46 26.641 15.964 41.653 16.514l.955-2.258 1.512-3.498 1.12-2.542 1.252-2.79.955-2.089.791-1.702.808-1.71.817-1.699 1.026-2.08.613-1.212.405-.787.602-1.146.396-.736.39-.711.384-.685.377-.656.37-.625.36-.59c.06-.096.118-.19.177-.282l.346-.536.335-.497.324-.455c.318-.433.617-.8.893-1.091l-.286 3.236-.184 1.937-.303 3-.218 2.027-.237 2.079-.202 1.663-.211 1.633-.164 1.188-.168 1.144-.171 1.088-.174 1.02-.177.94-.118.576-.06.272-.12.509-.12.46-.12.406.97-.375 1.029-.42.631-.266.952-.415.788-.353.846-.39 1.21-.577.96-.473.663-.336 1.024-.532.7-.373.712-.39.722-.403 1.098-.634.741-.442.746-.455.748-.47.75-.485c.25-.164.5-.33.75-.5l.747-.512.744-.527.739-.541.732-.555.723-.568c2.996-2.397 5.73-5.145 7.67-8.206l-.097-1.969-.066-1.671-.06-2.016-.036-1.865-.013-1.569.001-1.2.013-1.207.027-1.2.026-.788.033-.775.042-.757.049-.737.028-.359.063-.697c.135-1.364.328-2.541.596-3.388l8.526 12.999 26.53-18.298 15.965-11.089 6.12-4.287c.605-.426.9-1.636 1.067-3.166l.068-.726.03-.377.048-.776.058-1.198.07-1.608.042-.786.024-.384.058-.743c.15-1.69.424-3.048 1.05-3.49.677-.48 1.873.387 3.184 1.563l.702.646 1.414 1.327.232.211.454.402c1.12.966 2.107 1.6 2.683 1.19l1.018-.722 2.016-1.419 1.989-1.385 1.96-1.351 1.934-1.318 1.905-1.287 1.876-1.254 1.849-1.223 1.819-1.193 1.79-1.162 1.761-1.133 1.732-1.105 2.542-1.604 2.474-1.543 2.407-1.483 2.337-1.426 3.007-1.816 2.882-1.723 10.8-6.39 2.192-1.31 1.554-.942 1.476-.908 1.398-.876 1.318-.846.834-.549.798-.537.386-.265.744-.52.708-.511.671-.501c1.306-.993 2.39-1.933 3.247-2.84l.209-.227c3.5-3.863 8.563-7.755 14.23-11.645l1.491-1.014 1.516-1.015 1.535-1.014 1.55-1.013 2.349-1.52 7.864-5.05 1.552-1.006 1.535-1.005.76-.502 1.504-1.003 1.479-1c11.472-7.833 20.25-15.493 18.162-22.723z"/>
        <path id="m6si0u5w1S" d="M343.541.614c-44.55-2.197-79.312 1.504-104.287 11.103-17.092 6.568-49.976 24.46-79.14 48.853-26.883 22.486-49.767 51.585-73.223 57.736-107.246 28.128-59.91 20.726-84.318 28.128-16.271 4.935 44.624 14.311 182.688 28.128L343.541.614z"/>
        <path id="198a5qasdT" d="M4.972.389c-21.757 6.444 33.53 49.048 57.067 134.63 9.8 35.635 10.134 110.416 3.424 142.615-15.218 73.02 25.49 90.895 122.122 53.624-50.687-124.113-83.025-199.795-97.013-227.045C49.062 23.35 18.618-3.653 4.972.39z"/>
    </defs>
    <g fill="none" fill-rule="evenodd">
        <g>
            <g transform="translate(-2280.000000, -184.000000) translate(2280.000000, 185.000000)">
                <mask id="har7lgbbyb" fill="#fff">
                    <use xlink:href="#fsy97vt3da"/>
                </mask>
                <g mask="url(#har7lgbbyb)">
                    <g>
                        <g transform="translate(37.664000, 365.019547) scale(-1, 1) translate(-37.664000, -365.019547) translate(-171.336442, 214.909408) translate(197.241429, 138.314424)">
                            <mask id="ffyw95dh7d" fill="#fff">
                                <use xlink:href="#yge3iim06c"/>
                            </mask>
                            <use fill="#B397FF" xlink:href="#yge3iim06c"/>
                            <path fill="#BCA5FC" d="M2.212 32.726L37.42 15.587 41.835 24.623 6.628 41.762zM11.725 51.157L46.933 34.018 51.348 43.054 16.141 60.193zM-3.798 25.345L31.41 8.207 32.882 11.219-2.326 28.357zM20.825 77.287L56.032 60.149 57.504 63.161 22.297 80.299zM21.484 87.962L56.691 70.824 60.862 79.358 25.654 96.496z" mask="url(#ffyw95dh7d)"/>
                        </g>
                        <g>
                            <g transform="translate(37.664000, 365.019547) scale(-1, 1) translate(-37.664000, -365.019547) translate(-171.336442, 214.909408) translate(113.593945, 173.985588) rotate(12.000000) translate(-113.593945, -173.985588) translate(9.892494, 115.526547)">
                                <mask id="atyzsb4yrf" fill="#fff">
                                    <use xlink:href="#w6obkdg25e"/>
                                </mask>
                                <use fill="#B8C0FF" xlink:href="#w6obkdg25e"/>
                                <g mask="url(#atyzsb4yrf)">
                                    <g transform="translate(-24.271863, 6.544647)">
                                        <mask id="wixub5l4zh" fill="#fff">
                                            <use xlink:href="#8b4yz1ee4g"/>
                                        </mask>
                                        <use fill="#BCA5FC" xlink:href="#8b4yz1ee4g"/>
                                        <path fill="#B397FF" d="M103.794 60.783L16.497 97.086l28.178 34.628 54.699 6.702 4.42-77.633z" mask="url(#wixub5l4zh)"/>
                                    </g>
                                </g>
                            </g>
                            <g transform="translate(37.664000, 365.019547) scale(-1, 1) translate(-37.664000, -365.019547) translate(-171.336442, 214.909408) translate(131.029007, 115.663526) rotate(44.000000) translate(-131.029007, -115.663526) translate(49.298882, 67.968811)">
                                <mask id="fnl77e4csj" fill="#fff">
                                    <use xlink:href="#hl9s73q1qi"/>
                                </mask>
                                <use fill="#B8C0FF" xlink:href="#hl9s73q1qi"/>
                                <g mask="url(#fnl77e4csj)">
                                    <g transform="translate(-18.404292, 5.126209)">
                                        <mask id="sz5tr9woql" fill="#fff">
                                            <use xlink:href="#2aftwmblsk"/>
                                        </mask>
                                        <use fill="#BCA5FC" xlink:href="#2aftwmblsk"/>
                                        <path fill="#B397FF" d="M53.243 57.053L11.271 81.086l13.545 22.918 26.297 4.433 2.13-51.384z" mask="url(#sz5tr9woql)" transform="translate(32.257401, 82.745139) rotate(3.000000) translate(-32.257401, -82.745139)"/>
                                    </g>
                                </g>
                            </g>
                            <g transform="translate(37.664000, 365.019547) scale(-1, 1) translate(-37.664000, -365.019547) translate(-171.336442, 214.909408) translate(184.793072, 71.177764) rotate(96.000000) translate(-184.793072, -71.177764) translate(117.337810, 31.803187)">
                                <mask id="uipepbqdun" fill="#fff">
                                    <use xlink:href="#fo08rh07gm"/>
                                </mask>
                                <use fill="#B397FF" xlink:href="#fo08rh07gm"/>
                                <g mask="url(#uipepbqdun)">
                                    <g transform="translate(-14.662005, 4.198154)">
                                        <mask id="5xa1kz50cp" fill="#fff">
                                            <use xlink:href="#tea3zzye0o"/>
                                        </mask>
                                        <use fill="#B8C0FF" xlink:href="#tea3zzye0o"/>
                                        <path fill="#B397FF" d="M43.95 47.25L9.304 67.146 20.49 86.127l21.71 3.675L43.95 47.25z" mask="url(#5xa1kz50cp)" transform="translate(26.627334, 68.526084) rotate(3.000000) translate(-26.627334, -68.526084)"/>
                                    </g>
                                </g>
                            </g>
                        </g>
                        <g>
                            <g transform="translate(37.664000, 365.019547) scale(-1, 1) translate(-37.664000, -365.019547) translate(-171.336442, 214.909408) translate(304.364840, 132.982960) scale(-1, 1) translate(-304.364840, -132.982960) translate(190.728796, 13.245645) translate(113.593945, 160.739943) rotate(12.000000) translate(-113.593945, -160.739943) translate(9.892494, 102.280902)">
                                <mask id="wcfyqq0dir" fill="#fff">
                                    <use xlink:href="#z6e149t4yq"/>
                                </mask>
                                <use fill="#B8C0FF" xlink:href="#z6e149t4yq"/>
                                <g mask="url(#wcfyqq0dir)">
                                    <g transform="translate(-24.271863, 6.544647)">
                                        <use fill="#BCA5FC" xlink:href="#gqs7sfr4is"/>
                                    </g>
                                </g>
                            </g>
                            <g transform="translate(37.664000, 365.019547) scale(-1, 1) translate(-37.664000, -365.019547) translate(-171.336442, 214.909408) translate(304.364840, 132.982960) scale(-1, 1) translate(-304.364840, -132.982960) translate(190.728796, 13.245645) translate(129.350212, 104.651943) rotate(44.000000) translate(-129.350212, -104.651943) translate(47.620087, 56.957228)">
                                <mask id="zmb64wt4ou" fill="#fff">
                                    <use xlink:href="#7nfhxoaupt"/>
                                </mask>
                                <use fill="#BCA5FC" xlink:href="#7nfhxoaupt"/>
                                <g mask="url(#zmb64wt4ou)">
                                    <g transform="translate(-18.404292, 5.126209)">
                                        <use fill="#B397FF" xlink:href="#p3o20g9qtv"/>
                                    </g>
                                </g>
                            </g>
                            <g transform="translate(37.664000, 365.019547) scale(-1, 1) translate(-37.664000, -365.019547) translate(-171.336442, 214.909408) translate(304.364840, 132.982960) scale(-1, 1) translate(-304.364840, -132.982960) translate(190.728796, 13.245645) translate(177.121587, 71.061659) rotate(83.000000) translate(-177.121587, -71.061659) translate(110.703558, 28.704635)">
                                <mask id="rjvcbx4zqx" fill="#fff">
                                    <use xlink:href="#41ryjtqrvw"/>
                                </mask>
                                <use fill="#BCA5FC" xlink:href="#41ryjtqrvw"/>
                                <g mask="url(#rjvcbx4zqx)">
                                    <g transform="translate(-14.662005, 10.163047)">
                                        <use fill="#B397FF" xlink:href="#d58onh0bhy"/>
                                    </g>
                                </g>
                            </g>
                        </g>
                    </g>
                </g>
                <g mask="url(#har7lgbbyb)">
                    <g>
                        <g>
                            <g transform="translate(-118.549615, -134.976205) translate(231.725891, 355.204821) rotate(12.000000) translate(-231.725891, -355.204821) translate(20.215490, 235.785310)">
                                <mask id="f5d1t8fi4A" fill="#fff">
                                    <use xlink:href="#0sskeqqsnz"/>
                                </mask>
                                <use fill="#B8C0FF" xlink:href="#0sskeqqsnz"/>
                                <g mask="url(#f5d1t8fi4A)">
                                    <g transform="translate(-49.493291, 13.369335)">
                                        <mask id="znhmuk096C" fill="#fff">
                                            <use xlink:href="#8bmon74jnB"/>
                                        </mask>
                                        <use fill="#BCA5FC" xlink:href="#8bmon74jnB"/>
                                        <path fill="#B397FF" d="M211.694 124.166l-178.048 74.16 57.47 70.738 111.563 13.691 9.015-158.589z" mask="url(#znhmuk096C)"/>
                                    </g>
                                </g>
                            </g>
                            <g transform="translate(-118.549615, -134.976205) translate(267.289574, 236.063045) rotate(44.000000) translate(-267.289574, -236.063045) translate(100.593419, 138.631734)">
                                <mask id="mwjvhgc9aE" fill="#fff">
                                    <use xlink:href="#azkbbb8ahD"/>
                                </mask>
                                <use fill="#B8C0FF" xlink:href="#azkbbb8ahD"/>
                                <g mask="url(#mwjvhgc9aE)">
                                    <g transform="translate(-37.530949, 10.473871)">
                                        <mask id="ub71wtfqzG" fill="#fff">
                                            <use xlink:href="#2bm8mgbngF"/>
                                        </mask>
                                        <use fill="#BCA5FC" xlink:href="#2bm8mgbngF"/>
                                        <path fill="#B397FF" d="M111.277 118.863L23.224 163.402 48.366 211.603 101.453 223.458 101.453 223.458z" mask="url(#ub71wtfqzG)"/>
                                    </g>
                                </g>
                            </g>
                            <g transform="translate(-118.549615, -134.976205) translate(376.947657, 145.187496) rotate(96.000000) translate(-376.947657, -145.187496) translate(239.365867, 64.751964)">
                                <mask id="wbrg41jdyI" fill="#fff">
                                    <use xlink:href="#8eb1vz2zyH"/>
                                </mask>
                                <use fill="#B397FF" xlink:href="#8eb1vz2zyH"/>
                                <g mask="url(#wbrg41jdyI)">
                                    <g transform="translate(-29.898248, 8.579069)">
                                        <use fill="#B8C0FF" xlink:href="#ysk9qm18tJ"/>
                                    </g>
                                </g>
                            </g>
                        </g>
                        <g>
                            <g transform="translate(-118.549615, -134.976205) translate(620.776213, 271.514489) scale(-1, 1) translate(-620.776213, -271.514489) translate(388.916150, 27.054322) translate(231.725891, 328.150499) rotate(12.000000) translate(-231.725891, -328.150499) translate(20.215490, 208.730988)">
                                <mask id="dbkfemc7vL" fill="#fff">
                                    <use xlink:href="#mwtsetduiK"/>
                                </mask>
                                <use fill="#B8C0FF" xlink:href="#mwtsetduiK"/>
                                <g mask="url(#dbkfemc7vL)">
                                    <g transform="translate(-49.493291, 13.369335)">
                                        <use fill="#BCA5FC" xlink:href="#94t8dq3ftM"/>
                                    </g>
                                </g>
                            </g>
                            <g transform="translate(-118.549615, -134.976205) translate(620.776213, 271.514489) scale(-1, 1) translate(-620.776213, -271.514489) translate(388.916150, 27.054322) translate(263.865574, 213.572441) rotate(44.000000) translate(-263.865574, -213.572441) translate(97.169419, 116.141130)">
                                <mask id="tu8qqmopjO" fill="#fff">
                                    <use xlink:href="#wc521xsuhN"/>
                                </mask>
                                <use fill="#BCA5FC" xlink:href="#wc521xsuhN"/>
                                <g mask="url(#tu8qqmopjO)">
                                    <g transform="translate(-37.530949, 10.473871)">
                                        <use fill="#B397FF" xlink:href="#90vm67u7aP"/>
                                    </g>
                                </g>
                            </g>
                            <g transform="translate(-118.549615, -134.976205) translate(620.776213, 271.514489) scale(-1, 1) translate(-620.776213, -271.514489) translate(388.916150, 27.054322) translate(361.299017, 144.953904) rotate(83.000000) translate(-361.299017, -144.953904) translate(225.832723, 58.427424)">
                                <mask id="obasm81vuR" fill="#fff">
                                    <use xlink:href="#83pqqrx7bQ"/>
                                </mask>
                                <use fill="#BCA5FC" xlink:href="#83pqqrx7bQ"/>
                                <g mask="url(#obasm81vuR)">
                                    <g transform="translate(-29.898248, 20.760965)">
                                        <use fill="#B397FF" xlink:href="#m6si0u5w1S"/>
                                    </g>
                                </g>
                            </g>
                        </g>
                        <g transform="translate(-118.549615, -134.976205) translate(402.334949, 282.337975)">
                            <mask id="2ptvwmf6hU" fill="#fff">
                                <use xlink:href="#198a5qasdT"/>
                            </mask>
                            <use fill="#B397FF" xlink:href="#198a5qasdT"/>
                            <path fill="#BCA5FC" d="M4.512 66.852L76.32 31.842 85.325 50.3 13.518 85.31zM23.915 104.503L95.722 69.492 104.728 87.951 32.92 122.961zM-7.746 51.775L64.062 16.765 67.064 22.918-4.744 57.928zM42.473 157.882L114.281 122.871 117.283 129.024 45.475 164.035zM43.818 179.689L115.625 144.678 124.131 162.111 52.323 197.122z" mask="url(#2ptvwmf6hU)"/>
                        </g>
                    </g>
                </g>
            </g>
        </g>
    </g>
</svg>
