<svg xmlns="http://www.w3.org/2000/svg" xmlns:xlink="http://www.w3.org/1999/xlink" width="429" height="762" viewBox="0 0 429 762">
    <defs>
        <path id="oowmwv1yfa" d="M0 0H428V761H0z"/>
        <path id="cm43m918ue" d="M5.43 10.91C4.765 4.245 23.54.623 61.754.045c38.214-.577 59.165 4.469 62.852 15.137 1.02 30.126 1.357 52.215 1.012 66.268-.037 1.473-.085 3.032-.144 4.677-1.238 34.074-29.22 61.057-63.316 61.057-33.303 0-60.6-26.42-61.688-59.705C.09 75.76-.06 67.605.022 63.014.21 52.753 2.011 35.385 5.43 10.91z"/>
        <path id="dxe1kxbs3g" d="M125.5-4.965V144.65H63.338l-.001-40.82-16.1-7.448c-.055-.026-.109-.053-.163-.081l-.158-.09c-1.614-.967-2.138-3.06-1.17-4.674 2.327-3.882 4.955-8.092 7.885-12.631 3.77-5.842 7.043-11.14 9.815-15.893l-.11.185.002-68.164H125.5z"/>
        <path id="o1okbf61nh" d="M.878 100.948C3.79 87.428 5.572 77.794 6.22 72.044c.528-4.681.563-12.263.105-22.744-.063-1.437.783-2.758 2.114-3.303 9.524-3.897 27.737-5.845 54.64-5.845 22.737-.018 40.166 1.386 52.286 4.213 1.605.374 2.713 1.844 2.63 3.49-.573 11.309-.78 19.112-.624 23.41.263 7.188 1.933 17.592 5.01 31.212C133.758 34.343 114.938.184 65.92 0 16.903-.183-4.778 33.466.878 100.948z"/>
        <path id="b3wg1w3y8i" d="M68.275 70.738h116.07c28.133 0 51.884 20.906 55.453 48.812 10.574 82.658 15.86 136.975 15.86 162.95 0 29.864-24.21 54.074-54.073 54.074H60.488c-25.855 0-48.338-17.73-54.365-42.873C2.041 276.672 0 261.343 0 247.713c0-19.736 4.279-62.497 12.837-128.282 3.623-27.853 27.35-48.693 55.438-48.693z"/>
        <filter id="3ew80rz8qc" width="233.9%" height="233.9%" x="-66.9%" y="-68%" filterUnits="objectBoundingBox">
            <feMorphology in="SourceAlpha" operator="dilate" radius="8" result="shadowSpreadOuter1"/>
            <feOffset dy="-1" in="shadowSpreadOuter1" result="shadowOffsetOuter1"/>
            <feGaussianBlur in="shadowOffsetOuter1" result="shadowBlurOuter1" stdDeviation="14.5"/>
            <feColorMatrix in="shadowBlurOuter1" values="0 0 0 0 0.996078431 0 0 0 0 0.776470588 0 0 0 0 0.00784313725 0 0 0 0.594654003 0"/>
        </filter>
        <filter id="va3dw0jlbj" width="113.3%" height="112.8%" x="-6.6%" y="-6.4%" filterUnits="objectBoundingBox">
            <feOffset dx="34" dy="1" in="SourceAlpha" result="shadowOffsetInner1"/>
            <feComposite in="shadowOffsetInner1" in2="SourceAlpha" k2="-1" k3="1" operator="arithmetic" result="shadowInnerInner1"/>
            <feColorMatrix in="shadowInnerInner1" values="0 0 0 0 0 0 0 0 0 0 0 0 0 0 0 0 0 0 0.136384977 0"/>
        </filter>
        <ellipse id="e071mjsawd" cx="50.789" cy="50.771" rx="50.789" ry="50.771"/>
    </defs>
    <g fill="none" fill-rule="evenodd">
        <g>
            <g transform="translate(-4150.000000, -1083.000000) translate(4150.000000, 1082.000000)">
                <mask id="dblmioy4hb" fill="#fff">
                    <use xlink:href="#oowmwv1yfa"/>
                </mask>
                <g mask="url(#dblmioy4hb)">
                    <g>
                        <g>
                            <g transform="translate(265.973116, 139.875877) scale(-1, 1) translate(-265.973116, -139.875877) translate(215.183783, 89.104513)">
                                <use fill="#000" filter="url(#3ew80rz8qc)" xlink:href="#e071mjsawd"/>
                                <use fill="#FEC602" xlink:href="#e071mjsawd"/>
                            </g>
                            <path fill="#FFF" d="M41.813 41.395h17.953c1.865 0 3.377 1.512 3.377 3.377v16.572c0 1.866-1.512 3.378-3.377 3.378H41.813c-1.866 0-3.378-1.512-3.378-3.378V44.772c0-1.865 1.512-3.377 3.378-3.377z" opacity=".915" transform="translate(265.973116, 139.875877) scale(-1, 1) translate(-265.973116, -139.875877) translate(215.183783, 89.104513)"/>
                        </g>
                        <g stroke-linejoin="round" opacity=".744">
                            <g stroke="#324148" stroke-width="3.886">
                                <g>
                                    <path d="M3.546 0.86L8.31 7.721 0.76 6.271" transform="translate(265.973116, 139.875877) scale(-1, 1) translate(-265.973116, -139.875877) translate(215.183783, 89.104513) translate(20.059485, 29.557304) translate(-0.000000, -0.000000) translate(-0.000000, -0.000000) translate(4.534712, 4.290329) rotate(-15.000000) translate(-4.534712, -4.290329)"/>
                                    <path d="M57.706 1.127L62.469 7.988 54.92 6.538" transform="translate(265.973116, 139.875877) scale(-1, 1) translate(-265.973116, -139.875877) translate(215.183783, 89.104513) translate(20.059485, 29.557304) translate(-0.000000, -0.000000) translate(-0.000000, -0.000000) translate(58.694480, 4.557608) scale(-1, 1) rotate(-17.000000) translate(-58.694480, -4.557608)"/>
                                </g>
                            </g>
                        </g>
                    </g>
                </g>
                <g mask="url(#dblmioy4hb)">
                    <g>
                        <path fill="#085B5C" d="M214.093 136.477l217.55-.038c21.424-.018 38.795 17.347 38.798 38.77 0 .005 0 .01-.013.014l-.054 304.696c-.018 21.419-17.38 38.781-38.799 38.799l-217.55.038c-21.424.018-38.795-17.347-38.798-38.77 0-.006 0-.01.013-.015l.054-304.695c.018-21.42 17.38-38.781 38.799-38.799z" transform="translate(162.685331, 550.154220) scale(-1, 1) translate(-162.685331, -550.154220) translate(-386.912000, 0.751333) translate(322.834020, 327.597318) rotate(45.000000) translate(-322.834020, -327.597318)"/>
                        <path fill="#107778" d="M245.556 115.256l608.237-.107c21.424-.018 38.794 17.347 38.798 38.77 0 .005 0 .01-.014.014l-.14 790.818c-.017 21.419-17.38 38.781-38.798 38.799l-608.237.107c-21.424.018-38.795-17.347-38.798-38.77 0-.005 0-.01.013-.015l.14-790.817c.018-21.419 17.38-38.781 38.799-38.799z" transform="translate(162.685331, 550.154220) scale(-1, 1) translate(-162.685331, -550.154220) translate(-386.912000, 0.751333) translate(549.597331, 549.402887) rotate(45.000000) translate(-549.597331, -549.402887)"/>
                        <g fill="#324148" transform="translate(162.685331, 550.154220) scale(-1, 1) translate(-162.685331, -550.154220) translate(-386.912000, 0.751333) translate(646.729603, 699.296286) rotate(-12.000000) translate(-646.729603, -699.296286) translate(638.740269, 471.693310)">
                            <rect width="9.131" height="393.621" x="3.187" y="61.585" opacity=".821" rx="2.282"/>
                            <rect width="15.979" height="104.966" rx="2.282"/>
                        </g>
                        <g>
                            <g fill="#FFD8CD">
                                <g>
                                    <path d="M17.536 35.352l23.229-20.91c4.684-4.212 11.896-3.834 16.115.845l12.787 14.197c4.22 4.68 3.843 11.894-.84 16.111 0 .001-.001.002-.004 0L45.594 66.504c-4.685 4.212-11.897 3.834-16.115-.845L16.692 51.462c-4.22-4.68-3.843-11.894.839-16.11 0-.001.002-.002.005 0z" transform="translate(162.685331, 550.154220) scale(-1, 1) translate(-162.685331, -550.154220) translate(-386.912000, 0.751333) translate(557.332180, 467.112612) translate(0.000000, 0.000000) translate(50.033088, 48.881033) rotate(-13.000000) translate(-50.033088, -48.881033) translate(8.031239, 8.407688) translate(43.179353, 40.473345) rotate(13.000000) translate(-43.179353, -40.473345)"/>
                                    <path d="M23.892 15.242l-6.308 6.306c-6.622 6.62-6.624 17.356-.004 23.979l.104.102L35.39 63.04l12.177-12.172-13.025-13.02c-2.617-2.617-2.681-6.838-.147-9.533l1.25-1.329c3.124-3.32 3.044-8.52-.18-11.744-3.196-3.195-8.377-3.195-11.573 0z" transform="translate(162.685331, 550.154220) scale(-1, 1) translate(-162.685331, -550.154220) translate(-386.912000, 0.751333) translate(557.332180, 467.112612) translate(0.000000, 0.000000) translate(50.033088, 48.881033) rotate(-13.000000) translate(-50.033088, -48.881033) translate(8.031239, 8.407688) translate(26.528159, 36.248925) rotate(-13.000000) translate(-26.528159, -36.248925)"/>
                                </g>
                            </g>
                        </g>
                    </g>
                </g>
                <g mask="url(#dblmioy4hb)">
                    <g>
                        <g>
                            <path fill="#FFB7A2" d="M29.107 159.259H115.179V235.01299999999998H29.107z" transform="translate(203.770449, 352.469505) translate(75.760523, 0.000000)"/>
                            <g>
                                <g>
                                    <path fill="#FFD8CD" d="M0 54.645c8.039 0 14.555 6.516 14.555 14.555v11.757c0 8.039-6.516 14.555-14.555 14.555V54.645z" transform="translate(203.770449, 352.469505) translate(75.760523, 0.000000) translate(0.039228, 36.057012) translate(7.277645, 75.078563) scale(-1, 1) translate(-7.277645, -75.078563)"/>
                                    <path fill="#FFB7A2" d="M123.686 54.645c8.039 0 14.556 6.516 14.556 14.555v11.757c0 8.039-6.517 14.555-14.556 14.555V54.645z" transform="translate(203.770449, 352.469505) translate(75.760523, 0.000000) translate(0.039228, 36.057012)"/>
                                    <g transform="translate(203.770449, 352.469505) translate(75.760523, 0.000000) translate(0.039228, 36.057012) translate(6.356808, 0.000000)">
                                        <mask id="c4tbl74kuf" fill="#fff">
                                            <use xlink:href="#cm43m918ue"/>
                                        </mask>
                                        <use fill="#324148" xlink:href="#cm43m918ue"/>
                                        <g mask="url(#c4tbl74kuf)">
                                            <use fill="#FFB7A2" xlink:href="#dxe1kxbs3g"/>
                                            <use fill="#324148" xlink:href="#dxe1kxbs3g"/>
                                        </g>
                                    </g>
                                    <path stroke="#324148" stroke-width="4.259" d="M85.339 45.709c7.857-4.095 15.8-4.758 23.827-1.99M55.46 45.717c-7.857-4.095-15.799-4.758-23.826-1.99" opacity=".8" transform="translate(203.770449, 352.469505) translate(75.760523, 0.000000) translate(0.039228, 36.057012)"/>
                                </g>
                                <g transform="translate(203.770449, 352.469505) translate(75.760523, 0.000000) translate(6.418413, 0.000000)">
                                    <g fill="#324148">
                                        <use xlink:href="#o1okbf61nh"/>
                                        <use xlink:href="#o1okbf61nh"/>
                                    </g>
                                </g>
                            </g>
                        </g>
                        <path fill="#EEF8F7" d="M105.322 197.561c8.222 16.204 22.567 24.305 43.036 24.305 20.47 0 34.815-8.101 43.036-24.305l60.898 13.06c30.799 6.604 53.115 33.373 54.07 64.857l9.787 322.559L0 586.627l25.11-316.692c2.09-26.373 19.19-49.18 43.92-58.58l36.292-13.794z" transform="translate(203.770449, 352.469505)"/>
                    </g>
                </g>
                <path fill="#EEF8F7" d="M185.107 455.267l33.702 10.127c5.233 1.572 8.616 6.634 8.069 12.07l-4.272 42.407c-.59 5.847 1.504 11.646 5.693 15.768 33.082 32.557 52.562 53.062 58.442 61.516 13.882 19.958 12.661 46.744-2.977 65.357l-16.941 20.162c-11.733 13.964-32.564 15.773-46.528 4.04-4.311-3.621-7.624-8.285-9.625-13.548l-52.374-137.767c-1.962-5.16-2.318-10.793-1.022-16.159l13.46-55.725c1.479-6.125 7.643-9.89 13.768-8.411.203.049.405.103.605.163z" mask="url(#dblmioy4hb)" transform="translate(229.139229, 588.761921) rotate(-50.000000) translate(-229.139229, -588.761921)"/>
                <g mask="url(#dblmioy4hb)">
                    <g>
                        <g transform="translate(219.749116, 479.302414)">
                            <use fill="#0F4F95" xlink:href="#b3wg1w3y8i"/>
                            <use fill="#000" filter="url(#va3dw0jlbj)" xlink:href="#b3wg1w3y8i"/>
                        </g>
                        <path fill="#085B5C" d="M93.97 49.06h65.386c27.99 0 51.665 20.698 55.405 48.435 6.721 49.85 10.082 83.091 10.082 99.723 0 20.281-4.997 32.647-14.991 37.097-1.482.66-2.934 1.384-4.353 2.17-16.098 8.919-42.448 13.379-79.049 13.379-17.64 0-32.86-1.036-45.66-3.108-21.788-3.527-39.461-19.542-45.11-40.877-3.243-12.244-4.864-23.244-4.864-33 0-12.322 2.586-37.475 7.76-75.458C42.347 69.717 66.008 49.06 93.968 49.06z" opacity=".774" transform="translate(219.749116, 479.302414)"/>
                        <path fill="#AA5036" d="M22.288 4.196H41c9.588 1.977 16.85 2.966 21.787 2.966 4.937 0 12.094-.989 21.471-2.966C102.095 1.399 115.685 0 125.03 0c9.345 0 23.33 1.399 41.954 4.196 6.952 1.977 12.784 2.966 17.495 2.966 4.712 0 12.147-.989 22.305-2.966h28.337c8.822 0 15.973 7.151 15.973 15.973v52.85c0 8.822-7.151 15.974-15.973 15.974H22.262c-8.822 0-15.973-7.152-15.973-15.974 0-.511.024-1.023.073-1.532 1.193-12.378 1.79-20.765 1.79-25.162 0-4.362-.587-12.564-1.762-24.606-.856-8.78 5.568-16.592 14.348-17.448.515-.05 1.032-.075 1.55-.075z" transform="translate(219.749116, 479.302414)"/>
                        <path fill="#324148" d="M51.36 4.564H73.045V326.30600000000004H51.36z" transform="translate(219.749116, 479.302414)"/>
                        <path fill="#41525A" d="M46.795 117.516H77.611V155.167H46.795z" transform="translate(219.749116, 479.302414)"/>
                        <path fill="#324148" d="M173.483 5.705H195.168V344.561H173.483z" transform="translate(219.749116, 479.302414)"/>
                        <path fill="#41525A" d="M168.917 117.516H199.733V155.167H168.917z" transform="translate(219.749116, 479.302414)"/>
                    </g>
                </g>
                <path fill="#FF5928" d="M354.76 427.06c26.502 1.23 50.378 7.706 63.753 3.476 4.81-1.522 4.869-2.32 6.877-8.415 1.255-3.808 2.057-14.263 0-19.298-7.03-17.211-.482-23.671-2.727-39.004-2.4-16.386-25.795-33.414-48.391-33.414-16.543 0-53.152 5.947-67.197 30.056-2.433 4.177-7.642 13.389-7.642 18.579 0 4.881-13.69 10.018-14.011 17.184-.37 8.225-2.481 12.797 1.21 17.308 2.452 2.997 11.3 7.18 15.693 8.446 13.859 3.996 30.564 4.068 52.435 5.082z" mask="url(#dblmioy4hb)" transform="translate(355.567958, 381.178750) rotate(4.000000) translate(-355.567958, -381.178750)"/>
                <path fill="#FA7048" d="M298.468 388.304h2.283c.63 0 1.141.51 1.141 1.14l-.002 21.679c0 .63-.51 1.14-1.14 1.14h-2.284c-.63.001-1.141-.51-1.141-1.14l.002-21.678c0-.63.51-1.14 1.14-1.141z" mask="url(#dblmioy4hb)" transform="translate(299.608547, 400.283827) rotate(14.000000) translate(-299.608547, -400.283827)"/>
                <path fill="#FA7048" d="M288.647 387.078h2.283c.63 0 1.141.51 1.141 1.14v.001l-.001 15.973c0 .63-.511 1.141-1.141 1.141h-2.284c-.63 0-1.14-.51-1.14-1.14v-15.974c0-.63.512-1.14 1.142-1.14z" mask="url(#dblmioy4hb)" transform="translate(289.787596, 396.205847) rotate(14.000000) translate(-289.787596, -396.205847)"/>
                <path fill="#FA7048" d="M311.023 391.727h2.283c.63 0 1.14.51 1.14 1.14l-.001 21.679c0 .63-.511 1.14-1.141 1.14h-2.283c-.63.001-1.141-.51-1.141-1.14l.001-21.678c0-.63.511-1.141 1.142-1.141z" mask="url(#dblmioy4hb)" transform="translate(312.163213, 403.706616) rotate(14.000000) translate(-312.163213, -403.706616)"/>
                <path fill="#FA7048" d="M325.86 394.009h2.283c.63 0 1.141.51 1.141 1.14l-.002 21.678c0 .63-.51 1.141-1.14 1.141h-2.284c-.63 0-1.141-.51-1.141-1.14l.002-21.678c0-.63.51-1.141 1.14-1.141z" mask="url(#dblmioy4hb)" transform="translate(327.000547, 405.988475) rotate(14.000000) translate(-327.000547, -405.988475)"/>
                <path fill="#FA7048" d="M340.697 395.15h2.284c.63 0 1.14.51 1.14 1.14l-.001 21.678c0 .63-.511 1.141-1.141 1.141h-2.284c-.63 0-1.14-.51-1.14-1.14l.001-21.678c0-.63.511-1.141 1.141-1.142z" mask="url(#dblmioy4hb)" transform="translate(341.837880, 407.129404) rotate(14.000000) translate(-341.837880, -407.129404)"/>
                <path fill="#FA7048" d="M355.535 397.431h2.283c.63 0 1.14.51 1.14 1.14v.001l-.001 21.678c0 .63-.511 1.14-1.141 1.141h-2.283c-.63 0-1.141-.51-1.141-1.14l.001-21.679c0-.63.511-1.14 1.142-1.14z" mask="url(#dblmioy4hb)" transform="translate(356.675213, 409.411263) rotate(14.000000) translate(-356.675213, -409.411263)"/>
                <path fill="#FA7048" d="M371.513 400.854h2.284c.63 0 1.14.51 1.14 1.14l-.001 21.679c0 .63-.511 1.14-1.141 1.141h-2.284c-.63 0-1.14-.51-1.14-1.14l.001-21.679c0-.63.511-1.14 1.141-1.14z" mask="url(#dblmioy4hb)" transform="translate(372.653880, 412.834052) rotate(14.000000) translate(-372.653880, -412.834052)"/>
                <path fill="#FA7048" d="M387.492 405.418h2.283c.63 0 1.141.51 1.141 1.14l-.002 21.679c0 .63-.51 1.14-1.14 1.14h-2.284c-.63.001-1.141-.51-1.141-1.14l.002-21.678c0-.63.51-1.14 1.14-1.141z" mask="url(#dblmioy4hb)" transform="translate(388.632547, 417.397770) rotate(14.000000) translate(-388.632547, -417.397770)"/>
                <path fill="#FA7048" d="M402.33 408.84h2.283c.63 0 1.14.511 1.14 1.141l-.001 21.678c0 .63-.511 1.141-1.141 1.141h-2.284c-.63 0-1.14-.51-1.14-1.14l.001-21.678c0-.63.511-1.141 1.141-1.141z" mask="url(#dblmioy4hb)" transform="translate(403.469880, 420.820559) rotate(14.000000) translate(-403.469880, -420.820559)"/>
                <path fill="#FA7048" d="M417.167 408.84h2.283c.63 0 1.14.511 1.14 1.141l-.001 21.678c0 .63-.511 1.141-1.141 1.141h-2.283c-.63 0-1.141-.51-1.141-1.14l.001-21.678c0-.63.511-1.141 1.142-1.141z" mask="url(#dblmioy4hb)" transform="translate(418.307213, 420.820559) rotate(14.000000) translate(-418.307213, -420.820559)"/>
            </g>
        </g>
    </g>
</svg>
