<svg xmlns="http://www.w3.org/2000/svg" xmlns:xlink="http://www.w3.org/1999/xlink" width="428" height="761" viewBox="0 0 428 761">
    <defs>
        <path id="kdrfrl45sa" d="M0 0H428V761H0z"/>
    </defs>
    <g fill="none" fill-rule="evenodd">
        <g>
            <g transform="translate(-3643.000000, -1082.000000) translate(3643.000000, 1082.000000)">
                <mask id="pri6hu4g2b" fill="#fff">
                    <use xlink:href="#kdrfrl45sa"/>
                </mask>
                <g mask="url(#pri6hu4g2b)">
                    <g>
                        <g>
                            <g fill="#FF815C" transform="translate(-54.632522, -59.328336) translate(457.444116, 345.838955) rotate(-37.000000) translate(-457.444116, -345.838955) translate(414.162547, 302.554769) translate(0.000000, 0.000000)">
                                <rect width="86.563" height="86.568" rx="3.684"/>
                            </g>
                            <g>
                                <g transform="translate(-54.632522, -59.328336) translate(457.444116, 345.838955) rotate(-37.000000) translate(-457.444116, -345.838955) translate(414.162547, 302.554769) translate(17.207284, 31.344496) translate(-0.000000, -0.000000)">
                                    <ellipse cx="3.681" cy="4.609" fill="#324148" rx="3.681" ry="4.609"/>
                                    <path stroke="#324148" stroke-width="4.109" d="M55.13 3.918c-4.976 4.99-9.936 5.024-14.88.104"/>
                                </g>
                            </g>
                        </g>
                        <g>
                            <g fill="#FF815C" transform="translate(-54.632522, -59.328336) translate(468.857450, 60.606571) rotate(-37.000000) translate(-468.857450, -60.606571) translate(425.575880, 17.322385) translate(0.000000, 0.000000)">
                                <rect width="86.563" height="86.568" rx="3.684"/>
                            </g>
                            <g fill="#324148" transform="translate(-54.632522, -59.328336) translate(468.857450, 60.606571) rotate(-37.000000) translate(-468.857450, -60.606571) translate(425.575880, 17.322385) translate(17.207284, 31.344496)">
                                <ellipse cx="3.681" cy="4.609" rx="3.681" ry="4.609"/>
                            </g>
                        </g>
                        <g style="mix-blend-mode:darken">
                            <g fill="#19B4B5" transform="translate(-54.632522, -59.328336) translate(449.279136, 462.974582) rotate(-10.000000) translate(-449.279136, -462.974582) translate(405.997567, 419.690397) translate(-0.000000, -0.000000)">
                                <rect width="86.563" height="86.568" rx="3.684"/>
                            </g>
                            <g>
                                <g transform="translate(-54.632522, -59.328336) translate(449.279136, 462.974582) rotate(-10.000000) translate(-449.279136, -462.974582) translate(405.997567, 419.690397) translate(17.801855, 27.434309) translate(-0.000000, -0.000000)">
                                    <ellipse cx="3.681" cy="5.149" fill="#324148" rx="3.681" ry="4.609"/>
                                    <path stroke="#324148" stroke-linejoin="round" stroke-width="4.86" d="M48.668 1.072L54.608 9.63 45.192 7.821" transform="translate(49.900271, 5.350860) scale(-1, 1) rotate(-15.000000) translate(-49.900271, -5.350860)"/>
                                </g>
                            </g>
                        </g>
                        <g style="mix-blend-mode:darken">
                            <g fill="#19B4B5" transform="translate(-54.632522, -59.328336) translate(90.900470, 144.655242) rotate(-10.000000) translate(-90.900470, -144.655242) translate(47.618900, 101.371057) translate(-0.000000, -0.000000)">
                                <rect width="86.563" height="86.568" rx="3.684"/>
                            </g>
                            <g stroke="#324148" stroke-linejoin="round" stroke-width="4.86">
                                <g>
                                    <path d="M4.423 1.4L10.364 9.958 0.948 8.149" transform="translate(-54.632522, -59.328336) translate(90.900470, 144.655242) rotate(-10.000000) translate(-90.900470, -144.655242) translate(47.618900, 101.371057) translate(16.434082, 30.805097) translate(-0.000000, -0.000000) translate(5.655652, 5.679154) rotate(-15.000000) translate(-5.655652, -5.679154)"/>
                                    <path d="M49.441 1.072L55.381 9.63 45.966 7.821" transform="translate(-54.632522, -59.328336) translate(90.900470, 144.655242) rotate(-10.000000) translate(-90.900470, -144.655242) translate(47.618900, 101.371057) translate(16.434082, 30.805097) translate(-0.000000, -0.000000) translate(50.673472, 5.350860) scale(-1, 1) rotate(-15.000000) translate(-50.673472, -5.350860)"/>
                                </g>
                            </g>
                        </g>
                        <g>
                            <g fill="#19B4B5" transform="translate(-54.632522, -59.328336) translate(443.466283, 256.371683) rotate(-13.000000) translate(-443.466283, -256.371683) translate(400.184713, 213.087498) translate(-0.000000, -0.000000)">
                                <rect width="86.563" height="86.568" rx="3.684"/>
                            </g>
                            <g fill="#324148">
                                <g transform="translate(-54.632522, -59.328336) translate(443.466283, 256.371683) rotate(-13.000000) translate(-443.466283, -256.371683) translate(400.184713, 213.087498) translate(17.207284, 31.344496) translate(0.000000, 0.000000)">
                                    <ellipse cx="3.681" cy="4.609" rx="3.681" ry="4.609"/>
                                    <ellipse cx="47.85" cy="4.609" rx="3.681" ry="4.609"/>
                                </g>
                            </g>
                        </g>
                        <g>
                            <g fill="#FF815C" transform="translate(-54.632522, -59.328336) translate(74.731049, 330.650357) rotate(11.000000) translate(-74.731049, -330.650357) translate(31.449480, 287.366171) translate(0.000000, -0.000000)">
                                <rect width="86.563" height="86.568" rx="3.684"/>
                            </g>
                            <g stroke="#324148" stroke-linejoin="round" stroke-width="4.86">
                                <g>
                                    <path d="M4.423 1.072L10.364 9.63 0.948 7.821" transform="translate(-54.632522, -59.328336) translate(74.731049, 330.650357) rotate(11.000000) translate(-74.731049, -330.650357) translate(31.449480, 287.366171) translate(16.120069, 29.583736) translate(0.000000, 0.000000) translate(5.655652, 5.350860) rotate(-15.000000) translate(-5.655652, -5.350860)"/>
                                    <path d="M49.227 2.293L55.167 10.851 45.752 9.042" transform="translate(-54.632522, -59.328336) translate(74.731049, 330.650357) rotate(11.000000) translate(-74.731049, -330.650357) translate(31.449480, 287.366171) translate(16.120069, 29.583736) translate(0.000000, 0.000000) translate(50.459522, 6.572221) scale(-1, 1) rotate(-15.000000) translate(-50.459522, -6.572221)"/>
                                </g>
                            </g>
                        </g>
                        <g>
                            <g fill="#19B4B5" transform="translate(-54.632522, -59.328336) translate(74.453879, 447.949923) rotate(13.000000) translate(-74.453879, -447.949923) translate(36.183054, 409.478335) translate(0.000000, -0.000000)">
                                <rect width="76.542" height="76.943" rx="3.258"/>
                            </g>
                            <g fill="#324148">
                                <g transform="translate(-54.632522, -59.328336) translate(74.453879, 447.949923) rotate(13.000000) translate(-74.453879, -447.949923) translate(36.183054, 409.478335) translate(15.215182, 27.859425) translate(0.000000, 0.000000)">
                                    <ellipse cx="3.255" cy="4.097" rx="3.255" ry="4.097"/>
                                    <ellipse cx="42.31" cy="4.097" rx="3.255" ry="4.097"/>
                                </g>
                            </g>
                        </g>
                        <g>
                            <g fill="#19B4B5" transform="translate(-54.632522, -59.328336) translate(153.522593, 295.786717) rotate(-24.000000) translate(-153.522593, -295.786717) translate(110.241023, 252.502532) translate(0.000000, -0.000000)">
                                <rect width="86.563" height="86.568" rx="3.684"/>
                            </g>
                            <g>
                                <g transform="translate(-54.632522, -59.328336) translate(153.522593, 295.786717) rotate(-24.000000) translate(-153.522593, -295.786717) translate(110.241023, 252.502532) translate(17.644273, 31.344496) translate(0.000000, -0.000000)">
                                    <path stroke="#324148" stroke-width="4.109" d="M15.101 2.777c-4.976 4.99-9.936 5.024-14.88.104"/>
                                    <ellipse cx="47.413" cy="4.609" fill="#324148" rx="3.681" ry="4.609"/>
                                </g>
                            </g>
                        </g>
                        <g>
                            <g fill="#FFE074" transform="translate(-54.632522, -59.328336) translate(405.098057, 394.880718) rotate(10.000000) translate(-405.098057, -394.880718) translate(361.139178, 351.121896)">
                                <ellipse cx="43.959" cy="43.759" rx="43.959" ry="43.759"/>
                            </g>
                            <g stroke="#324148" stroke-width="4.109">
                                <g>
                                    <path d="M14.97 4.813C10.352-.512 5.406-.892.131 3.67" transform="translate(-54.632522, -59.328336) translate(405.098057, 394.880718) rotate(10.000000) translate(-405.098057, -394.880718) translate(361.139178, 351.121896) translate(15.151898, 34.227886) translate(-0.000000, -0.000000) translate(7.550711, 2.662210) scale(1, -1) rotate(-4.000000) translate(-7.550711, -2.662210)"/>
                                    <path d="M57.199 4.813C52.583-.512 47.637-.892 42.36 3.67" transform="translate(-54.632522, -59.328336) translate(405.098057, 394.880718) rotate(10.000000) translate(-405.098057, -394.880718) translate(361.139178, 351.121896) translate(15.151898, 34.227886) translate(-0.000000, -0.000000) translate(49.780045, 2.662210) scale(1, -1) rotate(-4.000000) translate(-49.780045, -2.662210)"/>
                                </g>
                            </g>
                        </g>
                        <g>
                            <g fill="#19B4B5" transform="translate(-54.632522, -59.328336) translate(376.072266, 312.584744) rotate(26.000000) translate(-376.072266, -312.584744) translate(330.317464, 266.827177)">
                                <ellipse cx="45.755" cy="45.758" rx="45.755" ry="45.758"/>
                            </g>
                            <g stroke="#324148" stroke-width="4.109">
                                <g>
                                    <path d="M14.97 4.813C10.352-.512 5.406-.892.131 3.67" transform="translate(-54.632522, -59.328336) translate(376.072266, 312.584744) rotate(26.000000) translate(-376.072266, -312.584744) translate(330.317464, 266.827177) translate(16.169752, 37.347408) translate(0.000000, 0.000000) translate(7.550711, 2.662210) scale(1, -1) rotate(-4.000000) translate(-7.550711, -2.662210)"/>
                                    <path d="M57.199 4.813C52.583-.512 47.637-.892 42.36 3.67" transform="translate(-54.632522, -59.328336) translate(376.072266, 312.584744) rotate(26.000000) translate(-376.072266, -312.584744) translate(330.317464, 266.827177) translate(16.169752, 37.347408) translate(0.000000, 0.000000) translate(49.780045, 2.662210) scale(1, -1) rotate(-4.000000) translate(-49.780045, -2.662210)"/>
                                </g>
                            </g>
                        </g>
                        <g>
                            <g fill="#FF815C" transform="translate(-54.632522, -59.328336) translate(351.782000, 441.584934) rotate(10.000000) translate(-351.782000, -441.584934) translate(306.027198, 395.827367) translate(0.000000, -0.000000)">
                                <ellipse cx="45.755" cy="45.758" rx="45.755" ry="45.758"/>
                            </g>
                            <g stroke="#324148" stroke-linejoin="round" stroke-width="4.86">
                                <g>
                                    <path d="M4.423 1.072L10.364 9.63 0.948 7.821" transform="translate(-54.632522, -59.328336) translate(351.782000, 441.584934) rotate(10.000000) translate(-351.782000, -441.584934) translate(306.027198, 395.827367) translate(18.867021, 30.311392) translate(-0.000000, -0.000000) translate(5.655652, 5.350860) rotate(-15.000000) translate(-5.655652, -5.350860)"/>
                                    <path d="M49.831 2.573L55.771 11.13 46.355 9.321" transform="translate(-54.632522, -59.328336) translate(351.782000, 441.584934) rotate(10.000000) translate(-351.782000, -441.584934) translate(306.027198, 395.827367) translate(18.867021, 30.311392) translate(-0.000000, -0.000000) translate(51.063154, 6.851429) scale(-1, 1) rotate(-15.000000) translate(-51.063154, -6.851429)"/>
                                </g>
                            </g>
                        </g>
                        <g>
                            <g fill="#FF815C" transform="translate(-54.632522, -59.328336) translate(180.582000, 141.520466) rotate(10.000000) translate(-180.582000, -141.520466) translate(134.827198, 95.762899) translate(0.000000, -0.000000)">
                                <ellipse cx="45.755" cy="45.758" rx="45.755" ry="45.758"/>
                            </g>
                            <g stroke="#324148" stroke-linejoin="round" stroke-width="4.86">
                                <g>
                                    <path d="M4.423 1.072L10.364 9.63 0.948 7.821" transform="translate(-54.632522, -59.328336) translate(180.582000, 141.520466) rotate(10.000000) translate(-180.582000, -141.520466) translate(134.827198, 95.762899) translate(18.867021, 30.311392) translate(-0.000000, -0.000000) translate(5.655652, 5.350860) rotate(-15.000000) translate(-5.655652, -5.350860)"/>
                                    <path d="M49.831 2.573L55.771 11.13 46.355 9.321" transform="translate(-54.632522, -59.328336) translate(180.582000, 141.520466) rotate(10.000000) translate(-180.582000, -141.520466) translate(134.827198, 95.762899) translate(18.867021, 30.311392) translate(-0.000000, -0.000000) translate(51.063154, 6.851429) scale(-1, 1) rotate(-15.000000) translate(-51.063154, -6.851429)"/>
                                </g>
                            </g>
                        </g>
                        <g>
                            <g fill="#FFE074" transform="translate(-54.632522, -59.328336) translate(59.827178, 346.558178)">
                                <ellipse cx="43.959" cy="43.759" rx="43.959" ry="43.759"/>
                            </g>
                            <g fill="#324148" transform="translate(-54.632522, -59.328336) translate(59.827178, 346.558178) translate(19.502075, 29.975331)">
                                <ellipse cx="3.536" cy="4.408" rx="3.536" ry="4.408"/>
                                <ellipse cx="45.971" cy="4.408" rx="3.536" ry="4.408"/>
                            </g>
                        </g>
                        <g>
                            <g fill="#FFE074" transform="translate(-54.632522, -59.328336) translate(349.725844, 151.459228)">
                                <ellipse cx="43.959" cy="43.759" rx="43.959" ry="43.759"/>
                            </g>
                            <g fill="#324148" transform="translate(-54.632522, -59.328336) translate(349.725844, 151.459228) translate(19.502075, 29.975331)">
                                <ellipse cx="3.536" cy="4.408" rx="3.536" ry="4.408"/>
                                <ellipse cx="45.971" cy="4.408" rx="3.536" ry="4.408"/>
                            </g>
                        </g>
                        <g>
                            <g fill="#19B4B5" transform="translate(-54.632522, -59.328336) translate(161.353094, 428.616686) rotate(-33.000000) translate(-161.353094, -428.616686) translate(115.598292, 382.859118) translate(-0.000000, -0.000000)">
                                <ellipse cx="45.755" cy="45.758" rx="45.755" ry="45.758"/>
                            </g>
                            <g stroke="#324148" stroke-linejoin="round" stroke-width="4.86">
                                <g>
                                    <path d="M4.423 1.081L10.364 9.638 0.948 7.829" transform="translate(-54.632522, -59.328336) translate(161.353094, 428.616686) rotate(-33.000000) translate(-161.353094, -428.616686) translate(115.598292, 382.859118) translate(18.697242, 31.811961) translate(0.000000, 0.000000) translate(5.655652, 5.359404) rotate(-15.000000) translate(-5.655652, -5.359404)"/>
                                    <path d="M49.696 1.072L55.637 9.63 46.221 7.821" transform="translate(-54.632522, -59.328336) translate(161.353094, 428.616686) rotate(-33.000000) translate(-161.353094, -428.616686) translate(115.598292, 382.859118) translate(18.697242, 31.811961) translate(0.000000, 0.000000) translate(50.928718, 5.350860) scale(-1, 1) rotate(-15.000000) translate(-50.928718, -5.350860)"/>
                                </g>
                            </g>
                        </g>
                        <g>
                            <g fill="#19B4B5" transform="translate(-54.632522, -59.328336) translate(250.377094, 93.183402) rotate(-7.000000) translate(-250.377094, -93.183402) translate(204.622292, 47.425835) translate(-0.000000, -0.000000)">
                                <ellipse cx="45.755" cy="45.758" rx="45.755" ry="45.758"/>
                            </g>
                            <g>
                                <g transform="translate(-54.632522, -59.328336) translate(250.377094, 93.183402) rotate(-7.000000) translate(-250.377094, -93.183402) translate(204.622292, 47.425835) translate(19.989671, 31.344496) translate(-0.000000, -0.000000)">
                                    <ellipse cx="3.681" cy="4.609" fill="#324148" rx="3.681" ry="4.609"/>
                                    <path stroke="#324148" stroke-linejoin="round" stroke-width="4.86" d="M48.404 1.539L54.344 10.097 44.928 8.288" transform="translate(49.636289, 5.818325) scale(-1, 1) rotate(-15.000000) translate(-49.636289, -5.818325)"/>
                                </g>
                            </g>
                        </g>
                        <g>
                            <g fill="#FFE074" transform="translate(-54.632522, -59.328336) translate(96.349844, 164.009453)">
                                <ellipse cx="43.959" cy="43.759" rx="43.959" ry="43.759"/>
                            </g>
                            <g stroke="#324148" stroke-linejoin="round" stroke-width="4.86">
                                <g>
                                    <path d="M4.423 2.497L10.364 11.055 0.948 9.246" transform="translate(-54.632522, -59.328336) translate(96.349844, 164.009453) translate(20.066156, 28.523238) translate(-0.000000, -0.000000) translate(5.655652, 6.776190) rotate(-15.000000) translate(-5.655652, -6.776190)"/>
                                    <path d="M42.879 1.072L48.819 9.63 39.403 7.821" transform="translate(-54.632522, -59.328336) translate(96.349844, 164.009453) translate(20.066156, 28.523238) translate(-0.000000, -0.000000) translate(44.111405, 5.350860) scale(-1, 1) rotate(-15.000000) translate(-44.111405, -5.350860)"/>
                                </g>
                            </g>
                        </g>
                        <g>
                            <g fill="#FFE074" transform="translate(-54.632522, -59.328336) translate(88.360511, 32.802556)">
                                <ellipse cx="43.959" cy="43.759" rx="43.959" ry="43.759"/>
                            </g>
                            <g>
                                <g transform="translate(-54.632522, -59.328336) translate(88.360511, 32.802556) translate(19.502075, 28.523238) translate(0.000000, 0.000000)">
                                    <ellipse cx="3.536" cy="5.86" fill="#324148" rx="3.536" ry="4.408"/>
                                    <path stroke="#324148" stroke-linejoin="round" stroke-width="4.86" d="M43.443 1.072L49.383 9.63 39.968 7.821" transform="translate(44.675486, 5.350860) scale(-1, 1) rotate(-15.000000) translate(-44.675486, -5.350860)"/>
                                </g>
                            </g>
                        </g>
                        <g>
                            <g fill="#FF815C" transform="translate(-54.632522, -59.328336) translate(63.528813, 230.707324) rotate(34.000000) translate(-63.528813, -230.707324) translate(17.774011, 184.949757)">
                                <ellipse cx="45.755" cy="45.758" rx="45.755" ry="45.758"/>
                            </g>
                            <g>
                                <g transform="translate(-54.632522, -59.328336) translate(63.528813, 230.707324) rotate(34.000000) translate(-63.528813, -230.707324) translate(17.774011, 184.949757) translate(20.212653, 31.344496) translate(-0.000000, 0.000000)">
                                    <path stroke="#324148" stroke-width="4.109" d="M15.101 3.784c-4.976 4.99-9.936 5.024-14.88.103"/>
                                    <ellipse cx="47.503" cy="4.609" fill="#324148" rx="3.681" ry="4.609"/>
                                </g>
                            </g>
                        </g>
                        <g>
                            <g fill="#19B4B5" transform="translate(-54.632522, -59.328336) translate(437.704266, 133.458807) rotate(26.000000) translate(-437.704266, -133.458807) translate(391.949464, 87.701240)">
                                <ellipse cx="45.755" cy="45.758" rx="45.755" ry="45.758"/>
                            </g>
                            <g stroke="#324148" stroke-width="4.109">
                                <g>
                                    <path d="M14.97 4.813C10.352-.512 5.406-.892.131 3.67" transform="translate(-54.632522, -59.328336) translate(437.704266, 133.458807) rotate(26.000000) translate(-437.704266, -133.458807) translate(391.949464, 87.701240) translate(16.169752, 37.347408) translate(-0.000000, 0.000000) translate(7.550711, 2.662210) scale(1, -1) rotate(-4.000000) translate(-7.550711, -2.662210)"/>
                                    <path d="M57.199 4.813C52.583-.512 47.637-.892 42.36 3.67" transform="translate(-54.632522, -59.328336) translate(437.704266, 133.458807) rotate(26.000000) translate(-437.704266, -133.458807) translate(391.949464, 87.701240) translate(16.169752, 37.347408) translate(-0.000000, 0.000000) translate(49.780045, 2.662210) scale(1, -1) rotate(-4.000000) translate(-49.780045, -2.662210)"/>
                                </g>
                            </g>
                        </g>
                        <g>
                            <g fill="#19B4B5" transform="translate(-54.632522, -59.328336) translate(358.962593, 63.037092) rotate(-24.000000) translate(-358.962593, -63.037092) translate(315.681023, 19.752907) translate(0.000000, -0.000000)">
                                <rect width="86.563" height="86.568" rx="3.684"/>
                            </g>
                            <g stroke="#324148" stroke-width="4.109">
                                <g>
                                    <path d="M14.97 6.555C10.352 1.231 5.406.85.131 5.414" transform="translate(-54.632522, -59.328336) translate(358.962593, 63.037092) rotate(-24.000000) translate(-358.962593, -63.037092) translate(315.681023, 19.752907) translate(17.644273, 31.344496) translate(-0.000000, -0.000000) translate(7.550611, 4.404843) rotate(-4.000000) translate(-7.550611, -4.404843)"/>
                                </g>
                            </g>
                        </g>
                        <g>
                            <g fill="#FF815C" transform="translate(-54.632522, -59.328336) translate(339.886783, 119.934907) rotate(-12.000000) translate(-339.886783, -119.934907) translate(296.605213, 76.650721) translate(0.000000, 0.000000)">
                                <rect width="86.563" height="86.568" rx="3.684"/>
                            </g>
                            <g>
                                <g transform="translate(-54.632522, -59.328336) translate(339.886783, 119.934907) rotate(-12.000000) translate(-339.886783, -119.934907) translate(296.605213, 76.650721) translate(17.207284, 31.344496) translate(0.000000, 0.000000)">
                                    <ellipse cx="3.681" cy="4.609" fill="#324148" rx="3.681" ry="4.609"/>
                                    <path stroke="#324148" stroke-width="4.109" d="M55.13 3.918c-4.976 4.99-9.936 5.024-14.88.104"/>
                                </g>
                            </g>
                        </g>
                    </g>
                </g>
            </g>
        </g>
    </g>
</svg>
