<svg xmlns="http://www.w3.org/2000/svg" xmlns:xlink="http://www.w3.org/1999/xlink" width="428" height="761" viewBox="0 0 428 761">
    <defs>
        <path id="taxk7pdpqa" d="M0 0H428V761H0z"/>
    </defs>
    <g fill="none" fill-rule="evenodd">
        <g>
            <g transform="translate(-1843.000000, -1082.000000) translate(1843.000000, 1082.000000)">
                <mask id="omf22vwj7b" fill="#fff">
                    <use xlink:href="#taxk7pdpqa"/>
                </mask>
                <g mask="url(#omf22vwj7b)">
                    <g>
                        <path fill="#FFC7C6" d="M354.28 0c-42.39 0-80.316 18.675-106.285 48.12C222.027 18.674 184.101 0 141.712 0 63.452 0 0 63.346 0 141.475c0 212.213 247.995 318.32 247.995 318.32s247.996-106.107 247.996-318.32C495.99 63.345 432.539 0 354.279 0z" transform="translate(-34.240000, 53.623688)"/>
                        <path fill="#FFA8A7" d="M324.916 76.442c-30.819 0-58.393 13.578-77.273 34.985-18.88-21.407-46.454-34.985-77.273-34.985-56.9 0-103.031 46.055-103.031 102.86 0 154.288 180.304 231.433 180.304 231.433S427.947 333.59 427.947 179.3c0-56.804-46.132-102.859-103.03-102.859z" transform="translate(-34.240000, 53.623688)"/>
                    </g>
                </g>
            </g>
        </g>
    </g>
</svg>
