<svg xmlns="http://www.w3.org/2000/svg" xmlns:xlink="http://www.w3.org/1999/xlink" width="428" height="761" viewBox="0 0 428 761">
    <defs>
        <path id="2by35ptuqa" d="M0 0H428V761H0z"/>
    </defs>
    <g fill="none" fill-rule="evenodd">
        <g>
            <g transform="translate(-936.000000, -185.000000) translate(936.000000, 185.000000)">
                <mask id="9k3wam1bxb" fill="#fff">
                    <use xlink:href="#2by35ptuqa"/>
                </mask>
                <g mask="url(#9k3wam1bxb)">
                    <g>
                        <g transform="translate(-15.978667, -47.108714) translate(77.610667, 204.556990) rotate(6.000000) translate(-77.610667, -204.556990) translate(70.762667, 150.933301)">
                            <rect width="11.413" height="14.832" x="1.141" fill="#67F9DA" rx="2.283"/>
                            <g>
                                <path fill="#00F5B3" d="M4.565 5.705H9.13V94.698H4.565z" transform="translate(0.000000, 12.550225)"/>
                                <path fill="#00CC95" d="M2.133 0h9.43c.63 0 1.141.511 1.141 1.141 0 .226-.066.446-.191.634L9.47 6.337c-.212.318-.568.509-.95.509H5.176c-.382 0-.738-.191-.95-.509L1.183 1.775C.833 1.25.975.542 1.5.192 1.687.067 1.908 0 2.133 0z" transform="translate(0.000000, 12.550225)"/>
                            </g>
                        </g>
                        <g transform="translate(-15.978667, -47.108714) translate(92.448000, 223.952792) rotate(24.000000) translate(-92.448000, -223.952792) translate(84.479636, 170.329104)">
                            <rect width="13.696" height="14.832" x="1.12" fill="#67F9DA" rx="2.283"/>
                            <g>
                                <path fill="#67F9DA" d="M5.686 5.922H10.251000000000001V94.91499999999999H5.686z" transform="translate(0.000000, 12.332525)"/>
                                <path fill="#00F5B3" d="M2.395.37L13.468.067c.63-.017 1.155.48 1.172 1.11.007.271-.082.536-.252.747l-3.794 4.714c-.217.269-.544.425-.89.425H6.21c-.333 0-.65-.145-.866-.398L1.56 2.254c-.41-.478-.355-1.199.123-1.61.199-.17.45-.267.712-.274z" transform="translate(0.000000, 12.332525)"/>
                            </g>
                        </g>
                        <g transform="translate(-15.978667, -47.108714) translate(53.642667, 212.543496) rotate(-8.000000) translate(-53.642667, -212.543496) translate(45.674303, 158.919808)">
                            <rect width="13.696" height="14.832" x="1.12" fill="#00CC95" rx="2.283"/>
                            <g>
                                <path fill="#00CC95" d="M5.686 5.922H10.251000000000001V94.91499999999999H5.686z" transform="translate(0.000000, 12.332525)"/>
                                <path fill="#00F5B3" d="M2.395.37L13.468.067c.63-.017 1.155.48 1.172 1.11.007.271-.082.536-.252.747l-3.794 4.714c-.217.269-.544.425-.89.425H6.21c-.333 0-.65-.145-.866-.398L1.56 2.254c-.41-.478-.355-1.199.123-1.61.199-.17.45-.267.712-.274z" transform="translate(0.000000, 12.332525)"/>
                            </g>
                        </g>
                        <g transform="translate(-15.978667, -47.108714)">
                            <path fill="#00CC95" d="M11.413 128.115H456.533V141.806H11.413z"/>
                            <path fill="#00CC95" d="M89.103 255.896L534.065 255.896 534.065 269.592 89.103 269.592z" transform="translate(311.584000, 262.744396) rotate(-90.000000) translate(-311.584000, -262.744396)"/>
                            <path fill="#00CC95" d="M11.413 311.804H456.533V325.49499999999995H11.413zM11.413 460.125H456.533V473.816H11.413z"/>
                            <rect width="27.392" height="125.502" x="327.563" y="186.302" fill="#00F5B3" rx="2.283"/>
                            <rect width="27.392" height="125.502" x="322.997" y="334.623" fill="#67F9DA" rx="2.283"/>
                            <rect width="27.392" height="125.502" x="151.797" y="2.612" fill="#67F9DA" rx="2.283"/>
                            <rect width="27.392" height="125.502" x="368.651" y="334.623" fill="#67F9DA" rx="2.283"/>
                            <rect width="27.392" height="125.502" x="197.451" y="2.612" fill="#67F9DA" rx="2.283"/>
                            <rect width="27.392" height="125.502" x="400.608" y="334.623" fill="#00CC95" rx="2.283"/>
                            <rect width="27.392" height="125.502" x="229.408" y="2.612" fill="#00CC95" rx="2.283"/>
                            <rect width="27.392" height="125.502" x="124.405" y="2.612" fill="#29DAA1" rx="2.283"/>
                            <rect width="13.696" height="125.502" x="350.389" y="334.623" fill="#00F5B3" rx="2.283"/>
                            <rect width="13.696" height="125.502" x="179.189" y="2.612" fill="#00F5B3" rx="2.283"/>
                            <rect width="13.696" height="125.502" x="111.851" y="2.612" fill="#00F5B3" rx="2.283"/>
                            <path fill="#00F5B3" d="M438.27 334.622h9.13c1.26 0 2.283 1.022 2.283 2.283l.005 120.938c0 1.26-1.022 2.283-2.283 2.283h-9.13c-1.26 0-2.283-1.022-2.283-2.283l-.005-120.938c0-1.26 1.022-2.283 2.282-2.283z" transform="translate(442.837333, 397.374081) rotate(-7.000000) translate(-442.837333, -397.374081)"/>
                            <path fill="#00F5B3" d="M267.07 2.612h9.13c1.26 0 2.283 1.022 2.283 2.283l.005 120.938c0 1.26-1.022 2.282-2.283 2.282h-9.13c-1.26 0-2.283-1.022-2.283-2.282l-.005-120.938c0-1.261 1.022-2.283 2.282-2.283z" transform="translate(271.637333, 65.363586) rotate(-7.000000) translate(-271.637333, -65.363586)"/>
                            <path fill="#00F5B3" d="M83.11 377.08h22.817c1.261 0 2.283 1.022 2.283 2.282v134.144c0 1.26-1.022 2.282-2.283 2.282H83.11c-1.26 0-2.282-1.022-2.282-2.282V379.362c0-1.26 1.022-2.282 2.282-2.282z" transform="translate(94.518968, 446.434051) rotate(-270.000000) translate(-94.518968, -446.434051)"/>
                            <g>
                                <path fill="#00F5B3" d="M70.556-5.462h22.817c1.26 0 2.282 1.022 2.282 2.282v134.144c0 1.26-1.022 2.282-2.282 2.282H70.556c-1.26 0-2.283-1.022-2.283-2.282V-3.18c0-1.26 1.022-2.282 2.283-2.282z" transform="translate(405.744000, 89.323107) scale(1, -1) translate(-405.744000, -89.323107) translate(327.562667, 50.531502) translate(81.964301, 63.892054) scale(-1, 1) rotate(-270.000000) translate(-81.964301, -63.892054)"/>
                                <path fill="#67F9DA" d="M57.946-32.845h22.817c1.26 0 2.283 1.022 2.283 2.283v134.143c0 1.261-1.022 2.283-2.283 2.283H57.946c-1.26 0-2.283-1.022-2.283-2.283V-30.562c0-1.26 1.022-2.283 2.283-2.283z" transform="translate(405.744000, 89.323107) scale(1, -1) translate(-405.744000, -89.323107) translate(327.562667, 50.531502) translate(69.354409, 36.509745) scale(-1, 1) rotate(-270.000000) translate(-69.354409, -36.509745)"/>
                                <path fill="#67F9DA" d="M73.618-62.509h9.126c1.26 0 2.283 1.022 2.283 2.283V73.917c0 1.261-1.022 2.283-2.283 2.283h-9.126c-1.26 0-2.282-1.022-2.282-2.283V-60.226c0-1.26 1.022-2.283 2.282-2.283z" transform="translate(405.744000, 89.323107) scale(1, -1) translate(-405.744000, -89.323107) translate(327.562667, 50.531502) translate(78.181333, 6.845577) scale(-1, 1) rotate(-270.000000) translate(-78.181333, -6.845577)"/>
                                <path fill="#00CC95" d="M83.225-48.818c1.26 0 2.282 1.022 2.282 2.282V87.61c0 1.26-1.021 2.282-2.282 2.282-1.26 0-2.282-1.021-2.282-2.282V-46.536c0-1.26 1.022-2.282 2.282-2.282z" transform="translate(405.744000, 89.323107) scale(1, -1) translate(-405.744000, -89.323107) translate(327.562667, 50.531502) translate(83.225290, 20.536732) scale(-1, 1) rotate(-270.000000) translate(-83.225290, -20.536732)"/>
                                <path fill="#00F5B3" d="M87.008-53.381c1.26 0 2.282 1.021 2.282 2.281V83.046c0 1.26-1.022 2.281-2.282 2.281s-2.282-1.021-2.282-2.281V-51.1c0-1.26 1.022-2.281 2.282-2.281z" transform="translate(405.744000, 89.323107) scale(1, -1) translate(-405.744000, -89.323107) translate(327.562667, 50.531502) translate(87.008258, 15.973013) scale(-1, 1) rotate(-270.000000) translate(-87.008258, -15.973013)"/>
                            </g>
                            <path fill="#67F9DA" d="M70.5 349.697h22.818c1.26 0 2.282 1.022 2.282 2.283v134.143c0 1.261-1.022 2.283-2.282 2.283H70.5c-1.261 0-2.283-1.022-2.283-2.283V351.98c0-1.26 1.022-2.283 2.283-2.283z" transform="translate(81.909075, 419.051742) rotate(-270.000000) translate(-81.909075, -419.051742)"/>
                            <path fill="#67F9DA" d="M86.173 320.033H95.3c1.26 0 2.283 1.022 2.283 2.283v134.143c0 1.261-1.022 2.283-2.283 2.283h-9.126c-1.26 0-2.283-1.022-2.283-2.283V322.316c0-1.26 1.022-2.283 2.283-2.283z" transform="translate(90.736000, 389.387574) rotate(-270.000000) translate(-90.736000, -389.387574)"/>
                            <path fill="#00CC95" d="M79.058 241.046h9.126c1.26 0 2.283 1.022 2.283 2.282v114.134c0 1.26-1.022 2.282-2.283 2.282h-9.126c-1.26 0-2.283-1.022-2.283-2.282V243.328c0-1.26 1.022-2.282 2.283-2.282z" transform="translate(83.621075, 300.395071) rotate(-270.000000) translate(-83.621075, -300.395071)"/>
                            <path fill="#00CC95" d="M95.78 333.724c1.26 0 2.282 1.022 2.282 2.282v134.145c0 1.26-1.022 2.282-2.282 2.282s-2.282-1.021-2.282-2.282V336.006c0-1.26 1.022-2.282 2.282-2.282z" transform="translate(95.779957, 403.078729) rotate(-270.000000) translate(-95.779957, -403.078729)"/>
                            <path fill="#00F5B3" d="M99.563 329.16c1.26 0 2.282 1.022 2.282 2.282v134.146c0 1.26-1.022 2.281-2.282 2.281s-2.282-1.021-2.282-2.281V331.442c0-1.26 1.022-2.281 2.282-2.281z" transform="translate(99.562925, 398.515011) rotate(-270.000000) translate(-99.562925, -398.515011)"/>
                            <path fill="#67F9DA" d="M79.893 250.173c1.26 0 2.282 1.022 2.282 2.282V366.59c0 1.26-1.021 2.282-2.282 2.282-1.26 0-2.282-1.022-2.282-2.282V252.455c0-1.26 1.022-2.282 2.282-2.282z" transform="translate(79.893333, 309.522507) rotate(-270.000000) translate(-79.893333, -309.522507)"/>
                            <path fill="#67F9DA" d="M406.308 186.299l9.13.001c1.26 0 2.282 1.022 2.283 2.283l.014 120.942c0 1.26-1.022 2.283-2.282 2.283l-9.13-.002c-1.261 0-2.283-1.022-2.284-2.282l-.014-120.943c0-1.26 1.022-2.282 2.282-2.283v.001z" transform="translate(410.880000, 249.053242) rotate(-20.000000) translate(-410.880000, -249.053242)"/>
                            <path fill="#67F9DA" d="M77.604 1.468l9.13.001c1.26.001 2.282 1.023 2.283 2.283l.014 120.942c0 1.261-1.022 2.283-2.282 2.283l-9.13-.001c-1.261 0-2.283-1.023-2.284-2.283L75.321 3.75c0-1.26 1.022-2.283 2.282-2.283z" transform="translate(82.176000, 64.222657) rotate(-20.000000) translate(-82.176000, -64.222657)"/>
                            <path fill="#00F5B3" d="M370.929 186.3l22.826.002c1.26 0 2.282 1.022 2.283 2.283l.01 120.939c0 1.26-1.022 2.283-2.283 2.283l-22.827-.002c-1.26 0-2.282-1.023-2.282-2.283l-.01-120.94c0-1.26 1.022-2.282 2.282-2.282z" transform="translate(382.346667, 249.053242) rotate(-13.000000) translate(-382.346667, -249.053242)"/>
                            <path fill="#00F5B3" d="M43.366 1.47l22.826.001c1.26 0 2.283 1.023 2.283 2.283l.01 120.94c0 1.26-1.022 2.282-2.283 2.282l-22.826-.002c-1.26 0-2.283-1.022-2.283-2.283l-.01-120.939c0-1.26 1.022-2.283 2.283-2.283z" transform="translate(54.784000, 64.222657) rotate(-13.000000) translate(-54.784000, -64.222657)"/>
                            <g transform="translate(53.472132, 228.866112) rotate(-26.000000) translate(-53.472132, -228.866112) translate(48.443259, 165.323661)">
                                <path fill="#67F9DA" d="M4.058 24.401C-2.029 17.556-1.268 9.95 6.341 1.583c3.994-4.393 2.482 1.292 2.282 5.704-.18 3.993 4.566 10.269-2.282 17.114H4.058zM2.917 31.247H7.482V127.085H2.917z"/>
                                <rect width="4.565" height="15.973" x="2.917" y="23.26" fill="#00F5B3" rx="1.141"/>
                            </g>
                            <g transform="translate(66.112844, 223.439972) rotate(7.000000) translate(-66.112844, -223.439972) translate(61.988142, 168.162535)">
                                <path fill="#00CC95" d="M3.89 16.999c-5.236-4.78-5.186-10.105.15-15.973 2.802-3.081 3.564 1.469 3.424 4.563-.127 2.8 2.83 6.608-1.973 11.41h-1.6z" transform="translate(4.124702, 8.499326) scale(-1, 1) translate(-4.124702, -8.499326)"/>
                                <path fill="#00CC95" d="M1.927 23.844H6.492000000000001V110.555H1.927z"/>
                                <rect width="4.565" height="15.973" x="1.927" y="15.858" fill="#00F5B3" rx="1.141"/>
                            </g>
                            <g transform="translate(95.917597, 220.549091) rotate(-3.000000) translate(-95.917597, -220.549091) translate(90.934385, 162.391541)">
                                <path fill="#00CC95" d="M4.7 22.819C-1.626 16.4-1.566 9.254 4.881 1.377 8.266-2.76 9.187 3.349 9.018 7.503c-.153 3.759 3.419 8.87-2.384 15.316H4.7z" transform="translate(4.983212, 11.409295) scale(-1, 1) translate(-4.983212, -11.409295)"/>
                                <path fill="#00CC95" d="M2.504 29.604H7.069000000000001V116.315H2.504z"/>
                                <rect width="4.565" height="15.973" x="2.504" y="21.618" fill="#00F5B3" rx="1.141"/>
                            </g>
                            <rect width="60.491" height="57.046" x="43.371" y="236.503" fill="#00F5B3" rx="4.565"/>
                            <rect width="27.392" height="125.502" y="1.472" fill="#00F5B3" rx="2.283"/>
                        </g>
                    </g>
                </g>
            </g>
        </g>
    </g>
</svg>
