<svg xmlns="http://www.w3.org/2000/svg" xmlns:xlink="http://www.w3.org/1999/xlink" width="428" height="761" viewBox="0 0 428 761">
    <defs>
        <path id="4eayttj7ua" d="M0 0H428V761H0z"/>
        <path id="v5zx49rilc" d="M170.393 3.385c-.147-.293-.539-.567-1.174-.823l-.31-.116c-.055-.02-.11-.038-.168-.057l-.363-.113-.194-.055-.415-.108-.449-.106-.237-.052-.501-.101-.817-.147-.587-.095-.947-.137-1.024-.131-1.102-.125-.779-.08-1.232-.115-1.31-.109-.917-.069-1.937-.13-1.544-.09-1.623-.084-2.284-.103-2.422-.092-2.561-.082-2.7-.07-2.838-.06-2.977-.048-3.916-.046-4.133-.029-4.35-.012h-.895L93.448.716l-28.992.722-13.698.361-14.191.397-11.385.348-6.517.222-4.485.174-2.507.112-1.928.102-.878.056-.67.053-.33.033-.238.031c-.127.02-.193.04-.197.058-10.777 52.28-10.206 99.025 4.161 99.025 4.187 0 7.956.245 11.496.651l1.24.15 1.223.162.606.086 1.2.18c.2.03.398.062.595.094l1.183.195 1.172.205.583.106 1.74.328 1.73.344 2.3.479 7.012 1.506 1.811.379 1.846.374 1.254.246 1.274.242 1.297.236 1.32.231 1.346.225.684.11 1.388.213 1.42.204.72.1 1.469.19c.495.061.996.121 1.503.18l1.54.168c1.819.19 3.717.354 5.707.488l1.729.107c3.212.183 6.66.285 10.397.285 21.652 0 42.527-4.9 62.626-14.7 1.133-.553 2.5-.083 3.053 1.05.098.202.166.417.202.639l6.046 37.66c.147.916-.276 1.83-1.07 2.312-2.19 1.33-2.644 2.466-1.362 3.411l.14.097c1.287.856 2.086 2.198 2.398 4.026.186 1.097 1.137 1.899 2.25 1.899h10.618c1.093 0 1.979-.886 1.979-1.979 0-.345-.09-.684-.262-.983l-1.445-2.52c-.167-.292-.267-.616-.295-.95L161.17 90.33c-.071-.882.374-1.726 1.143-2.165 5.581-3.189 9.69-6.622 12.326-10.3 1.061-1.481 1.433-6.665 1.366-13.661l-.024-1.713-.018-.88-.048-1.807-.063-1.861-.077-1.91-.09-1.955-.103-1.991-.114-2.024-.126-2.05-.207-3.11-.15-2.088-.158-2.095-.166-2.094-.26-3.13-.274-3.095-.188-2.036-.288-2.997-.294-2.912-.198-1.884-.198-1.832-.297-2.637-.197-1.675-.194-1.603-.191-1.524-.188-1.44-.273-1.988-.26-1.766-.165-1.044c-.026-.165-.053-.324-.08-.48l-.153-.871c-.024-.136-.049-.266-.073-.39l-.14-.687c-.135-.622-.255-1.047-.357-1.25z"/>
        <path id="e7duld980e" d="M62.263 0c15.821 0 17.135 9.355 23.068 9.355s14.832-.985 16.81-2.955c1.978-1.97 10.877-6.894 19.776 0 5.933 4.596 8.57 7.879 7.911 9.849-6.592 8.535-11.866 12.803-15.821 12.803-5.933 0-13.844-6.894-17.799-6.894s0 9.849 0 15.758c0 5.91-14.832 38.41-17.799 39.396-2.966.985-7.91 3.94-14.832 3.94-6.922 0-16.81-.986-20.766-3.94-3.955-2.955-12.854-30.532-12.854-39.396s3.955-15.758 1.977-15.758c-1.977 0-6.225 10.738-13.146 10.738-4.615 0-10.877-4.268-18.788-12.803C7.251 10.9 13.514 6.304 18.788 6.304c7.91 0 6.225 6.005 18.09 3.05C48.744 6.4 46.442 0 62.263 0z"/>
    </defs>
    <g fill="none" fill-rule="evenodd">
        <g>
            <g transform="translate(-6312.000000, -185.000000) translate(6312.000000, 185.000000)">
                <mask id="kn3ju28wsb" fill="#fff">
                    <use xlink:href="#4eayttj7ua"/>
                </mask>
                <g mask="url(#kn3ju28wsb)">
                    <g>
                        <g>
                            <path fill="#FF4008" d="M130.154 86.71c38.766 0 69.85-10.006 69.85-32.363C200.005 31.991 167.91 0 129.145 0S59.621 31.99 59.621 54.347c0 22.357 31.767 32.364 70.533 32.364z" transform="translate(-306.305883, -118.725372) translate(669.366560, 204.804082) rotate(36.000000) translate(-669.366560, -204.804082) translate(538.683893, 129.038925)"/>
                            <path fill="#FF8857" d="M132.39 146.385c71.232 0 128.975-15.847 128.975-42.784 0-26.938-23.061-59.9-129.828-59.9S0 80.087 0 107.024c0 26.938 61.16 39.362 132.39 39.362z" transform="translate(-306.305883, -118.725372) translate(669.366560, 204.804082) rotate(36.000000) translate(-669.366560, -204.804082) translate(538.683893, 129.038925)"/>
                            <path fill="#FF4008" d="M130.213 146.744c71.229 0 128.345-12.135 128.345-39.248s-58.194-37.194-129.423-37.194C57.907 70.302.616 80.383.616 107.496c0 27.113 58.368 39.248 129.597 39.248z" transform="translate(-306.305883, -118.725372) translate(669.366560, 204.804082) rotate(36.000000) translate(-669.366560, -204.804082) translate(538.683893, 129.038925)"/>
                            <path fill="#FF6628" d="M130.013 151.53c47.129 0 75.715-4.391 83.641-13.044 6.828-7.454 11.949-12.216 11.949-16.772 0-12.23-25.164-26.09-95.59-26.09-70.425 0-97.296 13.86-97.296 26.09 0 4.281 8.535 13.045 13.656 18.635 8.233 8.988 34.826 11.181 83.64 11.181z" transform="translate(-306.305883, -118.725372) translate(669.366560, 204.804082) rotate(36.000000) translate(-669.366560, -204.804082) translate(538.683893, 129.038925)"/>
                            <path fill="#FF8857" d="M129.77 151.183c47.59 0 85.085-1.93 85.085-17.952 0-16.023-38.882-21.98-86.473-21.98-47.59 0-85.869 5.957-85.869 21.98 0 16.022 39.666 17.952 87.257 17.952z" transform="translate(-306.305883, -118.725372) translate(669.366560, 204.804082) rotate(36.000000) translate(-669.366560, -204.804082) translate(538.683893, 129.038925)"/>
                            <path fill="#FF9779" d="M107.583 6.369c3.767 0 6.82 3.052 6.821 6.82v6.827c-.001 3.769-3.056 6.823-6.824 6.824-3.767 0-6.821-3.053-6.822-6.82v-.002l.001-6.826c0-3.768 3.055-6.823 6.824-6.823z" transform="translate(-306.305883, -118.725372) translate(669.366560, 204.804082) rotate(36.000000) translate(-669.366560, -204.804082) translate(538.683893, 129.038925) translate(107.581158, 16.604322) rotate(61.000000) translate(-107.581158, -16.604322)"/>
                            <path fill="#FF9779" d="M86.296 23.477H88c3.296 0 5.969 2.671 5.97 5.967v.002c-.001 3.298-2.674 5.971-5.972 5.972h-1.704c-3.297 0-5.97-2.671-5.97-5.967v-.002c0-3.298 2.674-5.971 5.972-5.972z" transform="translate(-306.305883, -118.725372) translate(669.366560, 204.804082) rotate(36.000000) translate(-669.366560, -204.804082) translate(538.683893, 129.038925) translate(87.146715, 29.447438) rotate(54.000000) translate(-87.146715, -29.447438)"/>
                        </g>
                        <path fill="#FF8857" d="M437.786 182.449L542.091 182.413 848.531 685.794 73.53 622.644z" transform="translate(-306.305883, -118.725372) translate(461.030536, 434.103696) rotate(37.000000) translate(-461.030536, -434.103696)"/>
                        <g>
                            <g>
                                <path fill="#FF4008" d="M115.17 102.714l-1.672 47.146c-.012.351-.106.696-.274 1.005l-2.993 5.527c-.6 1.108-.188 2.493.92 3.093.334.18.708.275 1.087.275h11.231c1.074 0 1.945-.87 1.945-1.943 0-.208-.033-.414-.099-.61l-.16-.483c-.343-1.04.1-2.176 1.056-2.71.912-.508 1.177-1.147.795-1.917-.437-.88-1.045-1.762-1.822-2.643-.448-.509-.647-1.19-.543-1.86l6.592-42.326-16.063-2.554z" transform="translate(-306.305883, -118.725372) translate(379.361174, 453.002602) scale(-1, 1) rotate(-23.000000) translate(-379.361174, -453.002602) translate(240.615033, 354.117588) translate(138.746142, 98.885014) scale(-1, 1) rotate(9.000000) translate(-138.746142, -98.885014) translate(10.926769, 19.004823)"/>
                                <g>
                                    <g transform="translate(-306.305883, -118.725372) translate(379.361174, 453.002602) scale(-1, 1) rotate(-23.000000) translate(-379.361174, -453.002602) translate(240.615033, 354.117588) translate(138.746142, 98.885014) scale(-1, 1) rotate(9.000000) translate(-138.746142, -98.885014) translate(10.926769, 19.004823) translate(127.819373, 79.309726) scale(-1, 1) translate(-127.819373, -79.309726) translate(0.000000, 0.000000) translate(0.000000, 11.351493)">
                                        <mask id="s4j1ciw6pd" fill="#fff">
                                            <use xlink:href="#v5zx49rilc"/>
                                        </mask>
                                        <use fill="#FF6628" xlink:href="#v5zx49rilc"/>
                                        <path fill="#FF4008" d="M11.593 0C2.253 36.394 26.88 58.4 49.807 38.087l1.344-1.184.65-.566 1.254-1.08 1.197-1.014c.779-.654 1.521-1.266 2.23-1.836l1.039-.826c7.267-5.706 10.831-6.87 14.54-6.588l.518.048c.174.02.348.041.523.066l.53.08.538.093.83.161 2.716.572 1.008.2.35.065.722.128.755.122.789.115c1.883.258 4.065.44 6.68.44 18.683 0 22.93-18.62 8.684-33.465C82.458-21.228 20.934-36.394 11.594 0z" mask="url(#s4j1ciw6pd)"/>
                                        <path fill="#FF4008" d="M42.895 99.605C31.512 55.774 60.892 29.433 88.463 53.99l6.75 6.008 3.192 2.824 2.293 2.011 1.579 1.37 1.465 1.257 1.358 1.146.85.706.806.659.767.615.728.571c.236.183.467.36.691.53l.657.487.625.449.594.41c.194.13.382.254.566.372l.54.336.515.3c2.35 1.327 3.967 1.55 5.77 1.22l.389-.078.397-.095.406-.108.419-.122.654-.206 2.489-.828.57-.183c2.275-.72 4.177-1.878 5.913-3.19l.573-.442.562-.452.553-.458 1.355-1.16 1.069-.925.534-.454.536-.445.54-.435.545-.422c3.293-2.487 6.972-4.142 12.686-2.697 12.222 3.09 12.512 28.38-3.526 45.174-16.983 17.783-90.594 35.7-101.978-8.13zM25.404 88.49c8.873-18.666-2.102-33.118-16.615-24.552l-.885.518-.841.485-1.184.666-.74.404-.702.374-.986.506-.615.3c-.2.097-.394.188-.583.275l-.552.247-.524.22c-.17.07-.335.136-.497.197l-.47.172c-.154.054-.303.103-.448.15l-.426.126c-.345.096-.67.17-.976.224l-.361.055c-.353.046-.684.064-1 .059l-.31-.014c-.308-.02-.602-.064-.892-.127l-.288-.068-.287-.08-.286-.09-.288-.1-.44-.167-.762-.315-.998-.422-.546-.222-.79-.3-.424-.152-.22-.075-.459-.149-.483-.146-.509-.144-.264-.07-.552-.137-.582-.132c-.199-.043-.403-.084-.613-.125-10.084-1.954-14.335 7.652-8.21 17.154 6.127 9.502 37.736 24.12 46.608 5.455zM102.277-5.006c-7.643 4.157-9.341 18.704 0 24.246 9.34 5.542 8.309 22.878 17.65 27.034 7.218 3.212 10.793 9.908 34.655-5.909 9.274-6.147 16.373 4.958 24.122-10.041 5.71-11.051 25.672-24.572 14.885-30.287-21.109-11.184-86.254-7.794-91.312-5.043z" mask="url(#s4j1ciw6pd)"/>
                                    </g>
                                    <g transform="translate(-306.305883, -118.725372) translate(379.361174, 453.002602) scale(-1, 1) rotate(-23.000000) translate(-379.361174, -453.002602) translate(240.615033, 354.117588) translate(138.746142, 98.885014) scale(-1, 1) rotate(9.000000) translate(-138.746142, -98.885014) translate(10.926769, 19.004823) translate(127.819373, 79.309726) scale(-1, 1) translate(-127.819373, -79.309726) translate(0.000000, 0.000000) translate(184.803966, 52.263937) rotate(-9.000000) translate(-184.803966, -52.263937) translate(119.840518, 9.634083)">
                                        <g>
                                            <mask id="en2j6r9v8f" fill="#fff">
                                                <use xlink:href="#e7duld980e"/>
                                            </mask>
                                            <use fill="#FF6628" xlink:href="#e7duld980e"/>
                                            <path fill="#FF4008" d="M37.045 87.019c8.028 0 14.992-7.239 18.448-17.832l.287-.916c1.255-4.158 1.978-8.8 2.028-13.7v-1.753l-.006-1.18-.014-1.151-.011-.566-.03-1.112-.043-1.086c-.25-5.37-1.077-9.817-3.756-13.793-.81-1.2-2.607-2.616-4.529-3.977l-.828-.58-2.802-1.908-.71-.492c-.678-.476-1.254-.904-1.66-1.261l-.59-.525-1.43-1.29-.563-.494-.563-.475c-1.785-1.467-3.611-2.56-5.919-2.56-1.288 0-2.216 1.279-3.043 2.877l-.273.544-.267.56-.658 1.415-.265.552c-.579 1.18-1.187 2.22-1.924 2.76l-.614.46c-.71.54-1.398 1.103-2.06 1.694l-.562.512c-4.997 4.679-8.408 11.113-8.408 22.283 0 18.222 9.297 32.994 20.765 32.994zM87.309 88.145c11.468 0 20.765-14.771 20.765-32.993s-7.002-31.234-18.47-31.234c-1.943 0-3.754 1.49-5.475 3.261l-.513.539-.508.548-1.249 1.367-.491.525c-.49.515-.973.996-1.451 1.41l-.521.44-.529.429-.267.21-.538.41-.542.403-.82.59-.824.578-1.642 1.144-.542.384-.536.386-.53.392-.523.398-.514.406c-.17.137-.338.276-.505.416l-.493.428c-.162.144-.323.29-.48.44l-.468.454c-2.762 2.773-4.731 6.406-4.731 12.411 0 18.222 10.928 36.258 22.397 36.258z" mask="url(#en2j6r9v8f)"/>
                                        </g>
                                        <ellipse cx="60.841" cy="74.68" fill="#FF6628" rx="19.531" ry="10.58"/>
                                        <path fill="#FF4008" d="M67.684 79.558c2.718 0 3.397-2.908 3.397-4.965s-.68-4.345-3.397-4.345c-2.717 0-3.397 2.288-3.397 4.345s.68 4.965 3.397 4.965zM55.676 79.377c2.718 0 3.397-2.909 3.397-4.966 0-2.056-.68-4.344-3.397-4.344-2.717 0-3.397 2.288-3.397 4.344 0 2.057.68 4.966 3.397 4.966z"/>
                                    </g>
                                </g>
                            </g>
                            <path stroke="#FF6628" stroke-linecap="round" stroke-linejoin="round" stroke-width="4.565" d="M208.5 58.968L201.51 65.956 211.496 66.954" transform="translate(-306.305883, -118.725372) translate(379.361174, 453.002602) scale(-1, 1) rotate(-23.000000) translate(-379.361174, -453.002602) translate(240.615033, 354.117588)"/>
                            <path stroke="#FF6628" stroke-linecap="round" stroke-linejoin="round" stroke-width="4.565" d="M174.261 68.094L167.27 75.084 177.256 76.081" transform="translate(-306.305883, -118.725372) translate(379.361174, 453.002602) scale(-1, 1) rotate(-23.000000) translate(-379.361174, -453.002602) translate(240.615033, 354.117588) translate(172.263045, 72.087562) scale(-1, 1) rotate(30.000000) translate(-172.263045, -72.087562)"/>
                        </g>
                    </g>
                </g>
            </g>
        </g>
    </g>
</svg>
