<svg xmlns="http://www.w3.org/2000/svg" xmlns:xlink="http://www.w3.org/1999/xlink" width="428" height="761" viewBox="0 0 428 761">
    <defs>
        <path id="4ciassiiea" d="M0 0H428V761H0z"/>
    </defs>
    <g fill="none" fill-rule="evenodd">
        <g>
            <g transform="translate(-3193.000000, -1082.000000) translate(3193.000000, 1082.000000)">
                <mask id="k3ux8o93qb" fill="#fff">
                    <use xlink:href="#4ciassiiea"/>
                </mask>
                <g mask="url(#k3ux8o93qb)">
                    <g>
                        <path stroke="#324148" stroke-width="5.931" d="M460.455 139.585l-.342 2.533c-.85 6.35-8.172 4.912-8.998 10.786-.826 5.874 4.784 7.478 3.883 13.89-.902 6.411-7.165 5.36-8.187 11.118M264.982 34.298c-.891.931-1.48 1.547-1.766 1.848-4.422 4.637-9.5-.828-13.622 3.439s-.526 8.86-5.026 13.518c-4.499 4.657-8.948.126-13.16 4.185M459.7 340.997l2.527.387c6.337.96 4.77 8.253 10.632 9.181 5.86.928 7.563-4.651 13.96-3.638 6.397 1.013 5.236 7.255 10.977 8.377M198.537 252.768c.707 1.078 1.175 1.79 1.404 2.136 3.526 5.35-2.944 9.067.288 14.042 3.232 4.975 8.518 2.506 12.046 7.936 3.527 5.43-1.89 8.744 1.118 13.76" opacity=".911" transform="translate(-109.568000, 44.236144)"/>
                        <path stroke="#A2B6C0" stroke-width="3.423" d="M295.06 73.958C213.9 134.505 154.875 168.16 58.208 206.392M599.278 0C523.706 67.388 467.84 106.058 374.875 152.566M548.635 206.399c-37.761 33.672-65.676 52.994-112.128 76.233M236.852 329.526C155.692 390.074 96.667 423.73 0 461.96M154.875 264.586C117.114 298.258 89.2 317.581 42.747 340.82" transform="translate(-109.568000, 44.236144)"/>
                    </g>
                </g>
            </g>
        </g>
    </g>
</svg>
