<svg xmlns="http://www.w3.org/2000/svg" xmlns:xlink="http://www.w3.org/1999/xlink" width="428" height="761" viewBox="0 0 428 761">
    <defs>
        <path id="3im0jtmmza" d="M0 0H428V761H0z"/>
    </defs>
    <g fill="none" fill-rule="evenodd">
        <g>
            <g transform="translate(-4968.000000, -185.000000) translate(4968.000000, 185.000000)">
                <mask id="vhlb8cme5b" fill="#fff">
                    <use xlink:href="#3im0jtmmza"/>
                </mask>
                <g mask="url(#vhlb8cme5b)">
                    <g>
                        <g>
                            <path fill="#1562B7" d="M37.664 98.69H92.44800000000001V200.233H37.664zM365.227 98.69H420.01099999999997V146.60899999999998H365.227z" transform="translate(-21.685333, -212.212894) translate(0.000000, 312.614693)"/>
                            <path fill="#1562B7" d="M223.711 -90.749L278.476 -90.749 278.476 161.486 223.711 161.486z" transform="translate(-21.685333, -212.212894) translate(0.000000, 312.614693) translate(251.093333, 35.368816) rotate(-90.000000) translate(-251.093333, -35.368816)"/>
                            <g fill="#196CC7" transform="translate(-21.685333, -212.212894) translate(0.000000, 312.614693) translate(29.674667, 0.000000)">
                                <path d="M59.33 7.416h27.411v54.765h-9.13c-7.564 0-13.696 6.132-13.696 13.696v21.672H4.565V62.181c0-30.246 24.52-54.765 54.765-54.765z"/>
                                <rect width="69.621" height="13.691" y="91.845" rx="4.565"/>
                                <path d="M62.786 27.95h60.466c2.521 0 4.565 2.044 4.565 4.566v4.565c0 2.521-2.044 4.565-4.565 4.565H62.786c-2.522 0-4.566-2.044-4.566-4.565v-4.565c0-2.522 2.044-4.566 4.566-4.566z" transform="translate(93.018667, 34.798351) rotate(-90.000000) translate(-93.018667, -34.798351)"/>
                            </g>
                            <g fill="#196CC7" transform="translate(-21.685333, -212.212894) translate(0.000000, 312.614693) translate(376.354667, 52.767991) scale(-1, 1) translate(-376.354667, -52.767991) translate(326.421333, 0.000000)">
                                <path d="M59.33 7.416h27.411v54.765h-9.13c-7.564 0-13.696 6.132-13.696 13.696v21.672H4.565V62.181c0-30.246 24.52-54.765 54.765-54.765z"/>
                                <rect width="69.621" height="13.691" y="91.845" rx="4.565"/>
                                <path d="M62.786 27.95h60.466c2.521 0 4.565 2.044 4.565 4.566v4.565c0 2.521-2.044 4.565-4.565 4.565H62.786c-2.522 0-4.566-2.044-4.566-4.565v-4.565c0-2.522 2.044-4.566 4.566-4.566z" transform="translate(93.018667, 34.798351) rotate(-90.000000) translate(-93.018667, -34.798351)"/>
                            </g>
                            <g fill="#196CC7" transform="translate(-21.685333, -212.212894) translate(0.000000, 312.614693) translate(49.933333, 249.007871) scale(-1, -1) translate(-49.933333, -249.007871) translate(0.000000, 196.239880)">
                                <path d="M59.33 7.416h27.411v54.765h-9.13c-7.564 0-13.696 6.132-13.696 13.696v21.672H4.565V62.181c0-30.246 24.52-54.765 54.765-54.765z"/>
                                <rect width="69.621" height="13.691" y="91.845" rx="4.565"/>
                            </g>
                            <g fill="#196CC7" transform="translate(-21.685333, -212.212894) translate(0.000000, 312.614693) translate(407.170667, 188.538606) scale(1, -1) translate(-407.170667, -188.538606) translate(357.237333, 135.770615)">
                                <path d="M59.33 7.416h27.411v54.765h-9.13c-7.564 0-13.696 6.132-13.696 13.696v21.672H4.565V62.181c0-30.246 24.52-54.765 54.765-54.765z"/>
                                <rect width="69.621" height="13.691" y="91.845" rx="4.565"/>
                                <path d="M62.786 27.95h60.466c2.521 0 4.565 2.044 4.565 4.566v4.565c0 2.521-2.044 4.565-4.565 4.565H62.786c-2.522 0-4.566-2.044-4.566-4.565v-4.565c0-2.522 2.044-4.566 4.566-4.566z" transform="translate(93.018667, 34.798351) rotate(-90.000000) translate(-93.018667, -34.798351)"/>
                            </g>
                        </g>
                        <g>
                            <path fill="#1562B7" d="M223.711 -90.749L278.476 -90.749 278.476 161.486 223.711 161.486z" transform="translate(-21.685333, -212.212894) translate(358.664000, 150.887931) scale(1, -1) translate(-358.664000, -150.887931) translate(130.112000, -0.000000) translate(251.093333, 35.368816) rotate(-90.000000) translate(-251.093333, -35.368816)"/>
                            <g fill="#196CC7">
                                <path d="M59.33 7.416h27.411v54.765h-9.13c-7.564 0-13.696 6.132-13.696 13.696v21.672H4.565V62.181c0-30.246 24.52-54.765 54.765-54.765z" transform="translate(-21.685333, -212.212894) translate(358.664000, 150.887931) scale(1, -1) translate(-358.664000, -150.887931) translate(130.112000, -0.000000) translate(29.674667, 0.000000)"/>
                                <path d="M62.786 27.95h60.466c2.521 0 4.565 2.044 4.565 4.566v4.565c0 2.521-2.044 4.565-4.565 4.565H62.786c-2.522 0-4.566-2.044-4.566-4.565v-4.565c0-2.522 2.044-4.566 4.566-4.566z" transform="translate(-21.685333, -212.212894) translate(358.664000, 150.887931) scale(1, -1) translate(-358.664000, -150.887931) translate(130.112000, -0.000000) translate(29.674667, 0.000000) translate(93.018667, 34.798351) rotate(-90.000000) translate(-93.018667, -34.798351)"/>
                            </g>
                        </g>
                    </g>
                </g>
            </g>
        </g>
    </g>
</svg>
