<svg xmlns="http://www.w3.org/2000/svg" xmlns:xlink="http://www.w3.org/1999/xlink" width="428" height="761" viewBox="0 0 428 761">
    <defs>
        <path id="hefqdinv3a" d="M0 0H428V761H0z"/>
        <path id="w9h5ad0tic" d="M0 12.1C2.747 4.474 18.134.45 46.159.03c28.025-.421 43.608 3.602 46.75 12.07l-1.652 51.81c-.772 24.187-20.603 43.395-44.803 43.395-24.2 0-44.03-19.208-44.802-43.396L0 12.1z"/>
        <path id="onbjvpik7d" d="M0 0H303.595V303.481H0z"/>
        <path id="fq6fz12bgf" d="M0 12.1C2.747 4.474 18.134.45 46.159.03c28.025-.421 43.608 3.602 46.75 12.07l-1.652 51.81c-.772 24.187-20.603 43.395-44.803 43.395-24.2 0-44.03-19.208-44.802-43.396L0 12.1z"/>
        <path id="6qhfnopr5g" d="M0 0H303.595V303.481H0z"/>
        <path id="6s1mxstqsi" d="M0 12.1C2.747 4.474 18.134.45 46.159.03c28.025-.421 43.608 3.602 46.75 12.07l-1.652 51.81c-.772 24.187-20.603 43.395-44.803 43.395-24.2 0-44.03-19.208-44.802-43.396L0 12.1z"/>
        <path id="b9b350ta5j" d="M0 0H303.595V303.481H0z"/>
        <path id="72k4wxtjol" d="M0 12.1C2.747 4.474 18.134.45 46.159.03c28.025-.421 43.608 3.602 46.75 12.07l-1.652 51.81c-.772 24.187-20.603 43.395-44.803 43.395-24.2 0-44.03-19.208-44.802-43.396L0 12.1z"/>
        <path id="b4ekhmdcdm" d="M0 0H303.595V303.481H0z"/>
    </defs>
    <g fill="none" fill-rule="evenodd">
        <g>
            <g transform="translate(-2728.000000, -185.000000) translate(2728.000000, 185.000000)">
                <mask id="067tuqu9bb" fill="#fff">
                    <use xlink:href="#hefqdinv3a"/>
                </mask>
                <g mask="url(#067tuqu9bb)">
                    <g>
                        <g>
                            <path fill="#FFD1DF" d="M140.251 5.188l10.977 8.4c3.163 2.42 4.806 6.336 4.317 10.289-.155 1.251-.21 2.24-.164 2.966.372 5.989 5.647 9.782 3.067 14.997-1.548 3.13-3.15 6.138-4.273 7.125-3.091 2.716-5.79-.435-7.285 5.137-.382 1.425-3.706 22.634-10.32 20.863-6.614-1.771 2.6-22.074.104-22.417-3.08-.423-5.911 22.043-13.627 19.977-6.5-1.74 2.36-12.88 4.001-23.736.44-2.907-4.114-2.282-7.34-7.872-3.228-5.589 7.645-15.296 8.921-20.055 1.182-4.409 5.056-9.633 11.622-15.674z" transform="translate(-107.598439, 32.030069) translate(529.867270, 140.272716) rotate(-40.000000) translate(-529.867270, -140.272716) translate(443.843872, 29.341891) translate(139.133636, 40.129042) rotate(-155.000000) translate(-139.133636, -40.129042)"/>
                            <path fill="#F980A6" d="M59.379 42.484l20.201-1.006c3.955-.197 7.339 2.812 7.605 6.763l10.646 157.89c.647 9.603-6.613 17.913-16.216 18.56-1.085.074-2.174.046-3.253-.084-12.003-1.443-21.144-11.452-21.494-23.536L52.482 49.945c-.114-3.949 2.95-7.265 6.897-7.461z" transform="translate(-107.598439, 32.030069) translate(529.867270, 140.272716) rotate(-40.000000) translate(-529.867270, -140.272716) translate(443.843872, 29.341891) translate(75.761093, 134.120164) rotate(38.000000) translate(-75.761093, -134.120164)"/>
                        </g>
                        <g>
                            <path fill="#FFD1DF" d="M95.992 5.188l10.977 8.4c3.164 2.42 4.807 6.336 4.317 10.289-.155 1.251-.21 2.24-.164 2.966.372 5.989 5.647 9.782 3.067 14.997-1.548 3.13-3.15 6.138-4.273 7.125-3.091 2.716-5.79-.435-7.285 5.137-.382 1.425-3.706 22.634-10.32 20.863-6.614-1.771 2.6-22.074.104-22.417-3.08-.423-5.91 22.043-13.627 19.977-6.5-1.74 2.36-12.88 4.001-23.736.44-2.907-4.114-2.282-7.34-7.872-3.228-5.589 7.645-15.296 8.921-20.055 1.182-4.409 5.056-9.633 11.622-15.674z" transform="translate(-107.598439, 32.030069) translate(396.205970, 104.358426) scale(-1, 1) rotate(-40.000000) translate(-396.205970, -104.358426) translate(332.312016, 21.748141) translate(94.874750, 40.129042) rotate(-155.000000) translate(-94.874750, -40.129042)"/>
                            <path fill="#F980A6" d="M37.525 49.575l20.344-.623c3.786-.116 7.025 2.698 7.439 6.463l9.53 86.622c1.052 9.563-5.848 18.168-15.41 19.22-1.058.116-2.124.135-3.185.057-11.92-.878-21.31-10.517-21.875-22.456l-3.873-81.683c-.19-4.005 2.903-7.406 6.908-7.596l.122-.004z" transform="translate(-107.598439, 32.030069) translate(396.205970, 104.358426) scale(-1, 1) rotate(-40.000000) translate(-396.205970, -104.358426) translate(332.312016, 21.748141) translate(53.636512, 105.799660) rotate(38.000000) translate(-53.636512, -105.799660)"/>
                        </g>
                        <g>
                            <g>
                                <g>
                                    <path fill="#D26285" d="M1.303 128.037C.87 102.937-9.004 15.417 66.558 15.251c75.563-.166 65.291 87.686 65.291 112.786 0 25.1-130.112 25.1-130.546 0z" transform="translate(-107.598439, 32.030069) translate(0.000000, 44.729453) translate(45.966439, 0.000000) translate(85.004062, 0.000000)"/>
                                    <g>
                                        <path fill="#FFB6CD" d="M34.726 132.767H98.387V188.965H34.726z" transform="translate(-107.598439, 32.030069) translate(0.000000, 44.729453) translate(45.966439, 0.000000) translate(85.004062, 0.000000)"/>
                                        <g>
                                            <g>
                                                <path fill="#FFB6CD" d="M0 36.875c5.95 0 10.772 4.823 10.772 10.772v8.773c0 5.95-4.823 10.773-10.772 10.773V36.875z" transform="translate(-107.598439, 32.030069) translate(0.000000, 44.729453) translate(45.966439, 0.000000) translate(85.004062, 0.000000) translate(12.104008, 48.971654) translate(5.386018, 52.033870) scale(-1, 1) translate(-5.386018, -52.033870)"/>
                                                <path fill="#FFB6CD" d="M98.295 36.875c5.95 0 10.772 4.823 10.772 10.772v8.773c0 5.95-4.823 10.773-10.772 10.773V36.875z" transform="translate(-107.598439, 32.030069) translate(0.000000, 44.729453) translate(45.966439, 0.000000) translate(85.004062, 0.000000) translate(12.104008, 48.971654)"/>
                                                <g transform="translate(-107.598439, 32.030069) translate(0.000000, 44.729453) translate(45.966439, 0.000000) translate(85.004062, 0.000000) translate(12.104008, 48.971654) translate(7.904910, 0.000000)">
                                                    <use fill="#FFB6CD" xlink:href="#w9h5ad0tic"/>
                                                </g>
                                            </g>
                                        </g>
                                    </g>
                                    <path fill="#D26285" d="M21.082 84.46c-.221-6.941.597-16.164 2.454-27.667l.89 18.526H109.297l.771-18.126c1.547 5.406 2.32 13.744 2.32 25.012 0 11.269 1.245-.034 3.735-33.909H19.495c1.28 31.052 1.808 43.107 1.587 36.165z" transform="translate(-107.598439, 32.030069) translate(0.000000, 44.729453) translate(45.966439, 0.000000) translate(85.004062, 0.000000)"/>
                                </g>
                                <g stroke="#BD4D70">
                                    <path stroke-linejoin="round" stroke-width="3.149" d="M43.385 4.12L61.162 2.494 46.206 12.801" transform="translate(-107.598439, 32.030069) translate(0.000000, 44.729453) translate(45.966439, 0.000000) translate(118.699777, 89.243967) translate(52.273892, 7.647670) scale(-1, 1) rotate(18.000000) translate(-52.273892, -7.647670)"/>
                                    <path stroke-linejoin="round" stroke-width="3.149" d="M1.157 4.12L18.934 2.494 3.978 12.801" transform="translate(-107.598439, 32.030069) translate(0.000000, 44.729453) translate(45.966439, 0.000000) translate(118.699777, 89.243967) translate(10.045669, 7.647670) rotate(18.000000) translate(-10.045669, -7.647670)"/>
                                    <path stroke-width="4.291" d="M44.626 37.51c-7.283 5.619-15.311 5.666-24.083.142" transform="translate(-107.598439, 32.030069) translate(0.000000, 44.729453) translate(45.966439, 0.000000) translate(118.699777, 89.243967)"/>
                                </g>
                                <g transform="translate(-107.598439, 32.030069) translate(0.000000, 44.729453) translate(45.966439, 0.000000) translate(0.000000, 101.801725)">
                                    <mask id="433xi2a56e" fill="#fff">
                                        <use xlink:href="#onbjvpik7d"/>
                                    </mask>
                                    <g fill="#F980A6" mask="url(#433xi2a56e)">
                                        <path d="M100.355 0c6.339 11.972 17.242 17.958 32.71 17.958 15.469 0 25.764-5.986 30.887-17.958l47.14 9.824c22.895 4.772 39.54 24.607 40.265 47.982l7.388 238.095H0L7.373 58.306C8.105 34.7 25.063 14.74 48.24 10.203L100.355 0z" transform="translate(19.958538, 61.539300)"/>
                                    </g>
                                </g>
                            </g>
                            <g>
                                <g>
                                    <path fill="#D26285" d="M1.303 153.138C.87 128.038-9.004 15.418 66.558 15.25c75.563-.166 65.291 112.786 65.291 137.887 0 25.1-130.112 25.1-130.546 0z" transform="translate(-107.598439, 32.030069) translate(0.000000, 44.729453) translate(310.755773, 0.000000) translate(85.004062, 0.000000)"/>
                                    <g>
                                        <path fill="#FFB6CD" d="M34.726 132.767H98.387V188.965H34.726z" transform="translate(-107.598439, 32.030069) translate(0.000000, 44.729453) translate(310.755773, 0.000000) translate(85.004062, 0.000000)"/>
                                        <g>
                                            <g>
                                                <path fill="#FFB6CD" d="M0 36.875c5.95 0 10.772 4.823 10.772 10.772v8.773c0 5.95-4.823 10.773-10.772 10.773V36.875z" transform="translate(-107.598439, 32.030069) translate(0.000000, 44.729453) translate(310.755773, 0.000000) translate(85.004062, 0.000000) translate(12.104008, 48.971654) translate(5.386018, 52.033870) scale(-1, 1) translate(-5.386018, -52.033870)"/>
                                                <path fill="#FFB6CD" d="M98.295 36.875c5.95 0 10.772 4.823 10.772 10.772v8.773c0 5.95-4.823 10.773-10.772 10.773V36.875z" transform="translate(-107.598439, 32.030069) translate(0.000000, 44.729453) translate(310.755773, 0.000000) translate(85.004062, 0.000000) translate(12.104008, 48.971654)"/>
                                                <g transform="translate(-107.598439, 32.030069) translate(0.000000, 44.729453) translate(310.755773, 0.000000) translate(85.004062, 0.000000) translate(12.104008, 48.971654) translate(7.904910, 0.000000)">
                                                    <use fill="#FFB6CD" xlink:href="#fq6fz12bgf"/>
                                                </g>
                                            </g>
                                        </g>
                                    </g>
                                    <path fill="#D26285" d="M21.082 84.46c-.221-6.941.597-16.164 2.454-27.667l.89 18.526h84.87l.772-18.126c1.547 5.406 2.32 13.744 2.32 25.012 0 11.269 1.245-.034 3.735-33.909H19.495c1.28 31.052 1.808 43.107 1.587 36.165z" transform="translate(-107.598439, 32.030069) translate(0.000000, 44.729453) translate(310.755773, 0.000000) translate(85.004062, 0.000000)"/>
                                </g>
                                <g stroke="#BD4D70">
                                    <path stroke-width="3.149" d="M60.726 6.23c-6.278-4.923-12.163-4.694-17.654.685M18.193 6.23C11.915 1.306 6.031 1.535.54 6.914" transform="translate(-107.598439, 32.030069) translate(0.000000, 44.729453) translate(310.755773, 0.000000) translate(118.708093, 89.700985)"/>
                                    <path stroke-width="4.291" d="M44.618 37.054c-7.283 5.618-15.311 5.665-24.083.141" transform="translate(-107.598439, 32.030069) translate(0.000000, 44.729453) translate(310.755773, 0.000000) translate(118.708093, 89.700985)"/>
                                </g>
                                <g transform="translate(-107.598439, 32.030069) translate(0.000000, 44.729453) translate(310.755773, 0.000000) translate(0.000000, 101.801725)">
                                    <mask id="2l2x6jny5h" fill="#fff">
                                        <use xlink:href="#6qhfnopr5g"/>
                                    </mask>
                                    <g fill="#F980A6" mask="url(#2l2x6jny5h)">
                                        <path d="M100.355 0c6.339 11.972 17.242 17.958 32.71 17.958 15.469 0 25.764-5.986 30.887-17.958l47.14 9.824c22.895 4.772 39.54 24.607 40.265 47.982l7.388 238.095H0L7.373 58.306C8.105 34.7 25.063 14.74 48.24 10.203L100.355 0z" transform="translate(19.958538, 61.539300)"/>
                                    </g>
                                </g>
                            </g>
                            <g>
                                <g>
                                    <path fill="#D26285" d="M14.292 104.078c0-32.156-6.848-61.61 23.968-83.288.662-.466.437 1.48 1.141 1.14 6.334-3.054 15.754-5.048 26.25-5.704.87-.054-2.042 2.279-1.14 2.282 1.21.003 5.706-1.14 9.13-1.14 6.848 0 12.387-.096 17.12 1.14 2.12.554-3.895 1.95 3.424 4.564 31.958 11.41 23.968 47.36 23.968 81.006 0 40.843-103.861 41.473-103.861 0z" transform="translate(-107.598439, 32.030069) translate(0.000000, 44.729453) translate(342.713106, 134.629685) translate(85.004062, 0.000000)"/>
                                    <g>
                                        <path fill="#FFB6CD" d="M34.726 132.767H98.387V188.965H34.726z" transform="translate(-107.598439, 32.030069) translate(0.000000, 44.729453) translate(342.713106, 134.629685) translate(85.004062, 0.000000)"/>
                                        <g>
                                            <g>
                                                <path fill="#FFB6CD" d="M0 36.875c5.95 0 10.772 4.823 10.772 10.772v8.773c0 5.95-4.823 10.773-10.772 10.773V36.875z" transform="translate(-107.598439, 32.030069) translate(0.000000, 44.729453) translate(342.713106, 134.629685) translate(85.004062, 0.000000) translate(12.104008, 48.971654) translate(5.386018, 52.033870) scale(-1, 1) translate(-5.386018, -52.033870)"/>
                                                <g transform="translate(-107.598439, 32.030069) translate(0.000000, 44.729453) translate(342.713106, 134.629685) translate(85.004062, 0.000000) translate(12.104008, 48.971654) translate(7.904910, 0.000000)">
                                                    <use fill="#FFB6CD" xlink:href="#6s1mxstqsi"/>
                                                </g>
                                            </g>
                                        </g>
                                    </g>
                                    <path fill="#D26285" d="M19.999 100.655c-.028-.872 2.86-10.994 5.706-14.832 3.315-4.472 4.227-8.91 6.848-9.128 4.168-.347 9.64 1.48 19.403 2.282 1.08.09-5.755-6.91-4.565-6.845 1.088.059 6.719 6.72 7.989 6.845 9.764.964 24.828.446 42.23 0 1.2-.03-6.963-14.83-5.707-14.832 1.963-.002 12.554 18.255 13.696 18.255.76 0 .38-5.324-1.142-15.973 3.805 8.508 5.707 18.396 5.707 29.664 0 11.269 1.986-4.663 5.96-47.795H19.494c.557 41.848.725 59.301.504 52.359z" transform="translate(-107.598439, 32.030069) translate(0.000000, 44.729453) translate(342.713106, 134.629685) translate(85.004062, 0.000000)"/>
                                </g>
                                <g>
                                    <path stroke="#BD4D70" stroke-linejoin="round" stroke-width="3.149" d="M44.238 4.12L62.015 2.494 47.058 12.801" transform="translate(-107.598439, 32.030069) translate(0.000000, 44.729453) translate(342.713106, 134.629685) translate(118.699616, 91.122305) translate(53.126374, 7.647670) scale(-1, 1) rotate(18.000000) translate(-53.126374, -7.647670)"/>
                                    <path stroke="#BD4D70" stroke-linejoin="round" stroke-width="3.149" d="M1.157 4.524L18.934 2.898 3.978 13.204" transform="translate(-107.598439, 32.030069) translate(0.000000, 44.729453) translate(342.713106, 134.629685) translate(118.699616, 91.122305) translate(10.045749, 8.051165) rotate(18.000000) translate(-10.045749, -8.051165)"/>
                                    <path fill="#BD4D70" d="M22.78 31.613c4.394.492 7.833.738 10.318.738 2.402 0 5.467-.23 9.193-.69 1.693-.208 3.235.995 3.444 2.688.012.095.02.19.022.284.066 2.152-1.235 4.11-3.244 4.884-3.396 1.308-6.535 1.962-9.415 1.962-2.962 0-6.342-.692-10.14-2.074-2.019-.735-3.386-2.625-3.452-4.772-.05-1.627 1.23-2.987 2.857-3.036.14-.005.28.001.418.016z" transform="translate(-107.598439, 32.030069) translate(0.000000, 44.729453) translate(342.713106, 134.629685) translate(118.699616, 91.122305)"/>
                                </g>
                                <g transform="translate(-107.598439, 32.030069) translate(0.000000, 44.729453) translate(342.713106, 134.629685) translate(0.000000, 104.083584)">
                                    <mask id="ghfh8ztqtk" fill="#fff">
                                        <use xlink:href="#b9b350ta5j"/>
                                    </mask>
                                    <g fill="#F980A6" mask="url(#ghfh8ztqtk)">
                                        <path d="M100.355 0c6.339 11.972 17.242 17.958 32.71 17.958 15.469 0 25.764-5.986 30.887-17.958l47.14 9.824c22.895 4.772 39.54 24.607 40.265 47.982l7.388 238.095H0L7.373 58.306C8.105 34.7 25.063 14.74 48.24 10.203L100.355 0z" transform="translate(19.958538, 61.539300)"/>
                                    </g>
                                </g>
                            </g>
                            <g>
                                <g>
                                    <path fill="#FFD1DF" d="M98.968 4.126l13.8 11.213c3.233 2.627 4.745 6.828 3.926 10.912-1.712 8.55-3.4 13.778-5.061 15.687-3.98 4.572-7.419 2.732-7.216 9.13.049 1.533 11.085 18.638 1.379 19.911-9.707 1.273-9.791-19.333-17.708-20.544-3.211-.49-1.193 22.443-11.381 19.815-6.506-1.678-.946-13.122.694-23.977.929-6.145-4.798-8.647-2.415-17.877 1.754-6.79 9.748-14.88 23.982-24.27z" transform="translate(-107.598439, 32.030069) translate(0.000000, 44.729453) translate(0.000000, 76.800930) translate(92.097250, 76.882561) scale(-1, 1) rotate(-79.000000) translate(-92.097250, -76.882561) translate(29.653294, -4.800570) translate(95.777320, 37.580705) rotate(-167.000000) translate(-95.777320, -37.580705)"/>
                                    <path fill="#F980A6" d="M37.525 47.72l20.344-.622c3.786-.116 7.025 2.698 7.439 6.462l9.53 86.623c1.052 9.563-5.848 18.167-15.41 19.22-1.058.116-2.124.135-3.185.057-11.92-.879-21.31-10.517-21.875-22.457l-3.873-81.682c-.19-4.005 2.903-7.406 6.908-7.596l.122-.005z" transform="translate(-107.598439, 32.030069) translate(0.000000, 44.729453) translate(0.000000, 76.800930) translate(92.097250, 76.882561) scale(-1, 1) rotate(-79.000000) translate(-92.097250, -76.882561) translate(29.653294, -4.800570) translate(53.636512, 103.945352) rotate(38.000000) translate(-53.636512, -103.945352)"/>
                                </g>
                                <g>
                                    <path fill="#D26285" d="M1.765 168.246c0-41.473-13.698-152.995 64.793-152.995 78.492 0 65.753 112.152 65.753 152.995 0 40.844-130.546 41.474-130.546 0z" transform="translate(-107.598439, 32.030069) translate(0.000000, 44.729453) translate(0.000000, 76.800930) translate(85.317168, 57.828756)"/>
                                    <g>
                                        <path fill="#FFB6CD" d="M34.726 132.767H98.387V188.965H34.726z" transform="translate(-107.598439, 32.030069) translate(0.000000, 44.729453) translate(0.000000, 76.800930) translate(85.317168, 57.828756)"/>
                                        <g>
                                            <g>
                                                <path fill="#FFB6CD" d="M0 36.875c5.95 0 10.772 4.823 10.772 10.772v8.773c0 5.95-4.823 10.773-10.772 10.773V36.875z" transform="translate(-107.598439, 32.030069) translate(0.000000, 44.729453) translate(0.000000, 76.800930) translate(85.317168, 57.828756) translate(12.104008, 48.971654) translate(5.386018, 52.033870) scale(-1, 1) translate(-5.386018, -52.033870)"/>
                                                <path fill="#FFB6CD" d="M98.295 36.875c5.95 0 10.772 4.823 10.772 10.772v8.773c0 5.95-4.823 10.773-10.772 10.773V36.875z" transform="translate(-107.598439, 32.030069) translate(0.000000, 44.729453) translate(0.000000, 76.800930) translate(85.317168, 57.828756) translate(12.104008, 48.971654)"/>
                                                <g transform="translate(-107.598439, 32.030069) translate(0.000000, 44.729453) translate(0.000000, 76.800930) translate(85.317168, 57.828756) translate(12.104008, 48.971654) translate(7.904910, 0.000000)">
                                                    <use fill="#FFB6CD" xlink:href="#72k4wxtjol"/>
                                                </g>
                                            </g>
                                        </g>
                                    </g>
                                    <path fill="#D26285" d="M21.14 86.964c21.61-.13 36.067-2.792 43.37-7.987C74.962 71.545 84.79 57.3 89.62 57.3c9.891 0 17.5 12.93 22.827 38.791l3.676-47.795H19.495l1.645 38.668z" transform="translate(-107.598439, 32.030069) translate(0.000000, 44.729453) translate(0.000000, 76.800930) translate(85.317168, 57.828756)"/>
                                </g>
                                <g>
                                    <path stroke="#BD4D70" stroke-width="3.149" d="M60.726 6.23c-6.278-4.923-12.163-4.694-17.654.685M18.193 6.23C11.915 1.306 6.031 1.535.54 6.914" transform="translate(-107.598439, 32.030069) translate(0.000000, 44.729453) translate(0.000000, 76.800930) translate(119.021199, 147.529740)"/>
                                    <path fill="#BD4D70" d="M22.772 33.035c4.393.492 7.832.738 10.317.738 2.403 0 5.467-.23 9.193-.69 1.694-.21 3.236.994 3.445 2.688.011.094.019.189.022.283.065 2.152-1.235 4.11-3.244 4.884-3.397 1.308-6.535 1.962-9.416 1.962-2.961 0-6.341-.691-10.14-2.074-2.018-.734-3.385-2.625-3.451-4.772-.05-1.627 1.229-2.986 2.856-3.036.14-.004.28.001.418.017z" transform="translate(-107.598439, 32.030069) translate(0.000000, 44.729453) translate(0.000000, 76.800930) translate(119.021199, 147.529740)"/>
                                </g>
                                <g transform="translate(-107.598439, 32.030069) translate(0.000000, 44.729453) translate(0.000000, 76.800930) translate(0.313106, 161.912340)">
                                    <mask id="khaniexskn" fill="#fff">
                                        <use xlink:href="#b4ekhmdcdm"/>
                                    </mask>
                                    <g fill="#F980A6" mask="url(#khaniexskn)">
                                        <path d="M100.355 0c6.339 11.972 17.242 17.958 32.71 17.958 15.469 0 25.764-5.986 30.887-17.958l47.14 9.824c22.895 4.772 39.54 24.607 40.265 47.982l7.388 238.095H0L7.373 58.306C8.105 34.7 25.063 14.74 48.24 10.203L100.355 0z" transform="translate(19.958538, 61.539300)"/>
                                    </g>
                                </g>
                            </g>
                        </g>
                        <g>
                            <path fill="#FFD1DF" d="M121.346 5.311l15.098 10.692c4.014 2.843 5.708 7.968 4.18 12.644-1.432 4.379-2.197 7.595-2.296 9.648-.174 3.605 9.548 8.435 9.751 14.833.049 1.533-.247 3.73-4.123 5.398-3.876 1.667-10.393-3.778-18.31-4.989-3.21-.491-8 4.808-13.434 10.254-5.993 6.005-12.61 12.26-15.195 12.744-1.39.26-4.4-3.246-4.265-5.418.26-4.169 6.552-14.616 6.149-15.857-2.624-8.081-3.724-19.642-3.715-24.71.005-3.378 8.725-11.791 26.16-25.239z" transform="translate(-107.598439, 32.030069) translate(564.212408, 395.240326) scale(-1, 1) rotate(15.000000) translate(-564.212408, -395.240326) translate(486.518906, 293.711007) translate(120.415514, 40.929768) rotate(-167.000000) translate(-120.415514, -40.929768)"/>
                            <path fill="#F980A6" d="M50.522 49.463l20.245-.85c3.9-.165 7.231 2.784 7.542 6.674l10.316 129.019c.77 9.635-6.416 18.07-16.051 18.84-1.052.084-2.11.073-3.16-.033-11.964-1.213-21.193-11.078-21.607-23.096l-4.236-123.05c-.137-3.986 2.966-7.336 6.951-7.504z" transform="translate(-107.598439, 32.030069) translate(564.212408, 395.240326) scale(-1, 1) rotate(15.000000) translate(-564.212408, -395.240326) translate(486.518906, 293.711007) translate(66.810446, 126.774433) rotate(38.000000) translate(-66.810446, -126.774433)"/>
                        </g>
                        <g>
                            <path fill="#FFD1DF" d="M95.992 5.188l10.977 8.4c3.164 2.42 4.807 6.336 4.317 10.289-.155 1.251-.21 2.24-.164 2.966.372 5.989 5.647 9.782 3.067 14.997-1.548 3.13-3.15 6.138-4.273 7.125-3.091 2.716-5.79-.435-7.285 5.137-.382 1.425-3.706 22.634-10.32 20.863-6.614-1.771 2.6-22.074.104-22.417-3.08-.423-5.91 22.043-13.627 19.977-6.5-1.74 2.36-12.88 4.001-23.736.44-2.907-4.114-2.282-7.34-7.872-3.228-5.589 7.645-15.296 8.921-20.055 1.182-4.409 5.056-9.633 11.622-15.674z" transform="translate(-107.598439, 32.030069) translate(191.915539, 362.208501) rotate(-40.000000) translate(-191.915539, -362.208501) translate(128.021585, 279.598216) translate(94.874750, 40.129042) rotate(-155.000000) translate(-94.874750, -40.129042)"/>
                            <path fill="#F980A6" d="M37.525 49.575l20.344-.623c3.786-.116 7.025 2.698 7.439 6.463l9.53 86.622c1.052 9.563-5.848 18.168-15.41 19.22-1.058.116-2.124.135-3.185.057-11.92-.878-21.31-10.517-21.875-22.456l-3.873-81.683c-.19-4.005 2.903-7.406 6.908-7.596l.122-.004z" transform="translate(-107.598439, 32.030069) translate(191.915539, 362.208501) rotate(-40.000000) translate(-191.915539, -362.208501) translate(128.021585, 279.598216) translate(53.636512, 105.799660) rotate(38.000000) translate(-53.636512, -105.799660)"/>
                        </g>
                    </g>
                </g>
            </g>
        </g>
    </g>
</svg>
