<svg xmlns="http://www.w3.org/2000/svg" xmlns:xlink="http://www.w3.org/1999/xlink" width="428" height="761" viewBox="0 0 428 761">
    <defs>
        <path id="eqajr3u4na" d="M0 0H428V761H0z"/>
    </defs>
    <g fill="none" fill-rule="evenodd">
        <g>
            <g transform="translate(-5416.000000, -185.000000) translate(5416.000000, 185.000000)">
                <mask id="vpqwtgazgb" fill="#fff">
                    <use xlink:href="#eqajr3u4na"/>
                </mask>
                <g mask="url(#vpqwtgazgb)">
                    <g>
                        <g>
                            <g transform="translate(221.130192, 187.107471) rotate(1.000000) translate(-221.130192, -187.107471) translate(-75.121025, -81.659744) translate(292.910781, 214.586204) rotate(-79.000000) translate(-292.910781, -214.586204) translate(238.126781, -66.082461) translate(0.000000, 280.668666)">
                                <path fill="#00CDC3" d="M0 0H109.568V140.334H0z"/>
                                <path fill="#00F2E6" fill-rule="nonzero" d="M27.276 58.086c.524.144 1.04.135 1.546-.027.507-.161.957-.448 1.35-.86.393-.413.638-.906.736-1.48.098-.538.14-1.148.123-1.83-.016-.68-.025-.547-.025-1.05 1.244-.322 2.422-.753 3.534-1.29 1.113-.539 2.16-1.274 3.141-2.206.655-.61 1.17-1.39 1.546-2.34.377-.95.606-1.946.687-2.986.082-1.04.009-2.063-.22-3.067-.23-1.004-.622-1.865-1.178-2.582-1.015-1.291-2.152-2.277-3.411-2.959-1.26-.681-2.61-1.327-4.05-1.937.033-1.183.05-2.456.05-3.82v-3.819c.392.144.777.305 1.153.484.376.18.752.35 1.129.511.376.162.76.278 1.153.35.393.072.802.072 1.227 0 .72-.143 1.252-.421 1.595-.834.344-.412.532-.87.565-1.372.032-.502-.074-1.03-.32-1.587-.245-.556-.597-1.049-1.055-1.48-.72-.716-1.57-1.254-2.552-1.613-.981-.359-1.93-.664-2.846-.915-.099-1.995-.246-3.256-.442-3.782-.196-.502-.466-.906-.81-1.21-.344-.306-.712-.512-1.104-.62-.393-.107-.802-.098-1.227.028-.426.125-.802.403-1.13.833-.294.36-.514.772-.662 1.238-.147.466-.245.95-.294 1.452-.033.335-.057.95-.074 1.846-1.21.215-2.421.726-3.632 1.533-1.21.807-2.225 1.794-3.043 2.96-.818 1.165-1.333 2.438-1.546 3.819-.212 1.38.058 2.77.81 4.17.818 1.506 1.898 2.707 3.24 3.604 1.34.896 2.715 1.703 4.122 2.42 0 1.256-.008 2.61-.024 4.062l-.011 1.071c-.01 1.053-.014 2.05-.014 2.991-.164-.072-.36-.17-.589-.296-.229-.125-.425-.242-.589-.35-.294-.215-.58-.466-.859-.753-.278-.287-.564-.574-.859-.86-.294-.287-.597-.538-.908-.754-.31-.215-.662-.34-1.055-.376-.72-.108-1.309-.01-1.767.296-.458.305-.801.717-1.03 1.237-.23.52-.32 1.094-.27 1.722.049.627.22 1.21.515 1.748.949 1.255 2.045 2.331 3.288 3.228 1.244.896 2.602 1.542 4.074 1.937 0 .824-.008.996-.025 1.964-.016.969.221 1.812.712 2.529.36.538.802.879 1.325 1.022zm-2.167-27.28c-.492-.462-.881-.856-1.168-1.182-.287-.327-.512-.624-.676-.893-.164-.27-.497-1.054-.43-1.646.069-.592.354-.928.696-1.35.342-.423.868-.635 1.578-.635v5.705zm5.707 15.972c0-.867.01-1.818.027-2.852l.012-.76c.01-.745.016-1.442.016-2.093.836.4 1.545.818 2.126 1.251.582.434.964.885 1.146 1.352.181.467.109.934-.219 1.4-.327.468-1.018.918-2.072 1.352-.182.067-.354.125-.518.175-.164.05-.336.108-.518.175z"/>
                                <rect width="82.176" height="13.691" x="13.696" y="70.738" fill="#00F2E6" fill-rule="nonzero" rx="4.565"/>
                                <rect width="82.176" height="4.564" x="13.696" y="93.556" fill="#00F2E6" fill-rule="nonzero" rx="2.282"/>
                                <rect width="52.501" height="4.564" x="13.696" y="107.247" fill="#00F2E6" fill-rule="nonzero" rx="2.282"/>
                            </g>
                            <g transform="translate(221.130192, 187.107471) rotate(1.000000) translate(-221.130192, -187.107471) translate(-75.121025, -81.659744) translate(292.910781, 214.586204) rotate(-79.000000) translate(-292.910781, -214.586204) translate(238.126781, -66.082461) translate(0.000000, 421.002999)">
                                <path fill="#00CDC3" d="M0 0H109.568V140.334H0z"/>
                                <path fill="#00F2E6" fill-rule="nonzero" d="M53.527 58.086c.523.144 1.039.135 1.546-.027.507-.161.957-.448 1.35-.86.392-.413.638-.906.736-1.48.098-.538.139-1.148.123-1.83-.017-.68-.025-.547-.025-1.05 1.243-.322 2.421-.753 3.534-1.29 1.112-.539 2.16-1.274 3.14-2.206.655-.61 1.17-1.39 1.547-2.34.376-.95.605-1.946.687-2.986.082-1.04.008-2.063-.22-3.067-.23-1.004-.622-1.865-1.179-2.582-1.014-1.291-2.151-2.277-3.41-2.959-1.26-.681-2.61-1.327-4.05-1.937.033-1.183.05-2.456.05-3.82v-3.819c.392.144.776.305 1.153.484.376.18.752.35 1.128.511.377.162.761.278 1.154.35.392.072.801.072 1.227 0 .72-.143 1.251-.421 1.595-.834.343-.412.532-.87.564-1.372.033-.502-.073-1.03-.319-1.587-.245-.556-.597-1.049-1.055-1.48-.72-.716-1.57-1.254-2.552-1.613s-1.93-.664-2.847-.915c-.098-1.995-.245-3.256-.441-3.782-.197-.502-.467-.906-.81-1.21-.344-.306-.712-.512-1.105-.62-.392-.107-.801-.098-1.227.028-.425.125-.801.403-1.128.833-.295.36-.516.772-.663 1.238-.147.466-.245.95-.295 1.452-.032.335-.057.95-.073 1.846-1.21.215-2.421.726-3.632 1.533-1.21.807-2.225 1.794-3.043 2.96-.818 1.165-1.333 2.438-1.546 3.819-.213 1.38.057 2.77.81 4.17.818 1.506 1.898 2.707 3.24 3.604 1.34.896 2.715 1.703 4.122 2.42 0 1.256-.008 2.61-.025 4.062l-.01 1.071c-.01 1.053-.014 2.05-.014 2.991-.164-.072-.36-.17-.59-.296-.228-.125-.425-.242-.588-.35-.295-.215-.581-.466-.86-.753-.277-.287-.564-.574-.858-.86-.294-.287-.597-.538-.908-.754-.31-.215-.663-.34-1.055-.376-.72-.108-1.309-.01-1.767.296-.458.305-.802.717-1.03 1.237-.23.52-.32 1.094-.27 1.722.048.627.22 1.21.515 1.748.949 1.255 2.045 2.331 3.288 3.228 1.243.896 2.601 1.542 4.074 1.937 0 .824-.009.996-.025 1.964-.016.969.221 1.812.712 2.529.36.538.801.879 1.325 1.022zm-2.167-27.28c-.492-.462-.881-.856-1.168-1.182-.287-.327-.513-.624-.677-.893-.164-.27-.497-1.054-.429-1.646.069-.592.354-.928.696-1.35.341-.423.867-.635 1.578-.635v5.705zm5.707 15.972c0-.867.009-1.818.027-2.852l.012-.76c.01-.745.015-1.442.015-2.093.836.4 1.545.818 2.127 1.251.582.434.964.885 1.145 1.352.182.467.11.934-.218 1.4-.327.468-1.018.918-2.072 1.352-.182.067-.355.125-.518.175-.164.05-.337.108-.518.175z"/>
                                <rect width="82.176" height="13.691" x="13.696" y="70.738" fill="#00F2E6" fill-rule="nonzero" rx="4.565"/>
                            </g>
                            <g transform="translate(221.130192, 187.107471) rotate(1.000000) translate(-221.130192, -187.107471) translate(-75.121025, -81.659744) translate(292.910781, 214.586204) rotate(-79.000000) translate(-292.910781, -214.586204) translate(238.126781, -66.082461)">
                                <path fill="#00CDC3" d="M0 0H109.568V140.334H0z"/>
                                <rect width="82.176" height="13.691" x="13.696" y="70.738" fill="#00F2E6" fill-rule="nonzero" rx="4.565"/>
                                <rect width="82.176" height="4.564" x="13.696" y="93.556" fill="#00F2E6" fill-rule="nonzero" rx="2.282"/>
                                <rect width="52.501" height="4.564" x="13.696" y="107.247" fill="#00F2E6" fill-rule="nonzero" rx="2.282"/>
                            </g>
                            <g transform="translate(221.130192, 187.107471) rotate(1.000000) translate(-221.130192, -187.107471) translate(-75.121025, -81.659744) translate(292.910781, 214.586204) rotate(-79.000000) translate(-292.910781, -214.586204) translate(238.126781, -66.082461) translate(0.000000, 140.334333)">
                                <path fill="#00CDC3" d="M0 0H109.568V140.334H0z"/>
                                <path fill="#00F2E6" fill-rule="nonzero" d="M27.276 58.086c.524.144 1.04.135 1.546-.027.507-.161.957-.448 1.35-.86.393-.413.638-.906.736-1.48.098-.538.14-1.148.123-1.83-.016-.68-.025-.547-.025-1.05 1.244-.322 2.422-.753 3.534-1.29 1.113-.539 2.16-1.274 3.141-2.206.655-.61 1.17-1.39 1.546-2.34.377-.95.606-1.946.687-2.986.082-1.04.009-2.063-.22-3.067-.23-1.004-.622-1.865-1.178-2.582-1.015-1.291-2.152-2.277-3.411-2.959-1.26-.681-2.61-1.327-4.05-1.937.033-1.183.05-2.456.05-3.82v-3.819c.392.144.777.305 1.153.484.376.18.752.35 1.129.511.376.162.76.278 1.153.35.393.072.802.072 1.227 0 .72-.143 1.252-.421 1.595-.834.344-.412.532-.87.565-1.372.032-.502-.074-1.03-.32-1.587-.245-.556-.597-1.049-1.055-1.48-.72-.716-1.57-1.254-2.552-1.613-.981-.359-1.93-.664-2.846-.915-.099-1.995-.246-3.256-.442-3.782-.196-.502-.466-.906-.81-1.21-.344-.306-.712-.512-1.104-.62-.393-.107-.802-.098-1.227.028-.426.125-.802.403-1.13.833-.294.36-.514.772-.662 1.238-.147.466-.245.95-.294 1.452-.033.335-.057.95-.074 1.846-1.21.215-2.421.726-3.632 1.533-1.21.807-2.225 1.794-3.043 2.96-.818 1.165-1.333 2.438-1.546 3.819-.212 1.38.058 2.77.81 4.17.818 1.506 1.898 2.707 3.24 3.604 1.34.896 2.715 1.703 4.122 2.42 0 1.256-.008 2.61-.024 4.062l-.011 1.071c-.01 1.053-.014 2.05-.014 2.991-.164-.072-.36-.17-.589-.296-.229-.125-.425-.242-.589-.35-.294-.215-.58-.466-.859-.753-.278-.287-.564-.574-.859-.86-.294-.287-.597-.538-.908-.754-.31-.215-.662-.34-1.055-.376-.72-.108-1.309-.01-1.767.296-.458.305-.801.717-1.03 1.237-.23.52-.32 1.094-.27 1.722.049.627.22 1.21.515 1.748.949 1.255 2.045 2.331 3.288 3.228 1.244.896 2.602 1.542 4.074 1.937 0 .824-.008.996-.025 1.964-.016.969.221 1.812.712 2.529.36.538.802.879 1.325 1.022zm-2.167-27.28c-.492-.462-.881-.856-1.168-1.182-.287-.327-.512-.624-.676-.893-.164-.27-.497-1.054-.43-1.646.069-.592.354-.928.696-1.35.342-.423.868-.635 1.578-.635v5.705zm5.707 15.972c0-.867.01-1.818.027-2.852l.012-.76c.01-.745.016-1.442.016-2.093.836.4 1.545.818 2.126 1.251.582.434.964.885 1.146 1.352.181.467.109.934-.219 1.4-.327.468-1.018.918-2.072 1.352-.182.067-.354.125-.518.175-.164.05-.336.108-.518.175z"/>
                                <rect width="45.653" height="27.382" x="50.219" y="13.691" fill="#00F2E6" fill-rule="nonzero" rx="4.565"/>
                                <rect width="82.176" height="4.564" x="13.696" y="74.16" fill="#00F2E6" fill-rule="nonzero" rx="2.282"/>
                                <rect width="60.491" height="4.564" x="13.696" y="87.852" fill="#00F2E6" fill-rule="nonzero" rx="2.282"/>
                                <rect width="45.653" height="4.564" x="50.219" y="50.201" fill="#00F2E6" fill-rule="nonzero" rx="2.282"/>
                            </g>
                        </g>
                        <g>
                            <g transform="translate(221.130192, 187.107471) rotate(1.000000) translate(-221.130192, -187.107471) translate(-75.121025, -81.659744) translate(286.062781, 430.221886) rotate(-79.000000) translate(-286.062781, -430.221886) translate(231.278781, 149.553221) translate(0.000000, 280.668666)">
                                <path fill="#00CDC3" d="M0 0H109.568V140.334H0z"/>
                                <path fill="#00F2E6" fill-rule="nonzero" d="M27.276 58.086c.524.144 1.04.135 1.546-.027.507-.161.957-.448 1.35-.86.393-.413.638-.906.736-1.48.098-.538.14-1.148.123-1.83-.016-.68-.025-.547-.025-1.05 1.244-.322 2.422-.753 3.534-1.29 1.113-.539 2.16-1.274 3.141-2.206.655-.61 1.17-1.39 1.546-2.34.377-.95.606-1.946.687-2.986.082-1.04.009-2.063-.22-3.067-.23-1.004-.622-1.865-1.178-2.582-1.015-1.291-2.152-2.277-3.411-2.959-1.26-.681-2.61-1.327-4.05-1.937.033-1.183.05-2.456.05-3.82v-3.819c.392.144.777.305 1.153.484.376.18.752.35 1.129.511.376.162.76.278 1.153.35.393.072.802.072 1.227 0 .72-.143 1.252-.421 1.595-.834.344-.412.532-.87.565-1.372.032-.502-.074-1.03-.32-1.587-.245-.556-.597-1.049-1.055-1.48-.72-.716-1.57-1.254-2.552-1.613-.981-.359-1.93-.664-2.846-.915-.099-1.995-.246-3.256-.442-3.782-.196-.502-.466-.906-.81-1.21-.344-.306-.712-.512-1.104-.62-.393-.107-.802-.098-1.227.028-.426.125-.802.403-1.13.833-.294.36-.514.772-.662 1.238-.147.466-.245.95-.294 1.452-.033.335-.057.95-.074 1.846-1.21.215-2.421.726-3.632 1.533-1.21.807-2.225 1.794-3.043 2.96-.818 1.165-1.333 2.438-1.546 3.819-.212 1.38.058 2.77.81 4.17.818 1.506 1.898 2.707 3.24 3.604 1.34.896 2.715 1.703 4.122 2.42 0 1.256-.008 2.61-.024 4.062l-.011 1.071c-.01 1.053-.014 2.05-.014 2.991-.164-.072-.36-.17-.589-.296-.229-.125-.425-.242-.589-.35-.294-.215-.58-.466-.859-.753-.278-.287-.564-.574-.859-.86-.294-.287-.597-.538-.908-.754-.31-.215-.662-.34-1.055-.376-.72-.108-1.309-.01-1.767.296-.458.305-.801.717-1.03 1.237-.23.52-.32 1.094-.27 1.722.049.627.22 1.21.515 1.748.949 1.255 2.045 2.331 3.288 3.228 1.244.896 2.602 1.542 4.074 1.937 0 .824-.008.996-.025 1.964-.016.969.221 1.812.712 2.529.36.538.802.879 1.325 1.022zm-2.167-27.28c-.492-.462-.881-.856-1.168-1.182-.287-.327-.512-.624-.676-.893-.164-.27-.497-1.054-.43-1.646.069-.592.354-.928.696-1.35.342-.423.868-.635 1.578-.635v5.705zm5.707 15.972c0-.867.01-1.818.027-2.852l.012-.76c.01-.745.016-1.442.016-2.093.836.4 1.545.818 2.126 1.251.582.434.964.885 1.146 1.352.181.467.109.934-.219 1.4-.327.468-1.018.918-2.072 1.352-.182.067-.354.125-.518.175-.164.05-.336.108-.518.175z"/>
                                <rect width="82.176" height="13.691" x="13.696" y="70.738" fill="#00F2E6" fill-rule="nonzero" rx="4.565"/>
                                <rect width="82.176" height="4.564" x="13.696" y="93.556" fill="#00F2E6" fill-rule="nonzero" rx="2.282"/>
                                <rect width="52.501" height="4.564" x="13.696" y="107.247" fill="#00F2E6" fill-rule="nonzero" rx="2.282"/>
                            </g>
                            <g transform="translate(221.130192, 187.107471) rotate(1.000000) translate(-221.130192, -187.107471) translate(-75.121025, -81.659744) translate(286.062781, 430.221886) rotate(-79.000000) translate(-286.062781, -430.221886) translate(231.278781, 149.553221) translate(0.000000, 421.002999)">
                                <path fill="#00CDC3" d="M0 0H109.568V140.334H0z"/>
                                <path fill="#00F2E6" fill-rule="nonzero" d="M53.527 58.086c.523.144 1.039.135 1.546-.027.507-.161.957-.448 1.35-.86.392-.413.638-.906.736-1.48.098-.538.139-1.148.123-1.83-.017-.68-.025-.547-.025-1.05 1.243-.322 2.421-.753 3.534-1.29 1.112-.539 2.16-1.274 3.14-2.206.655-.61 1.17-1.39 1.547-2.34.376-.95.605-1.946.687-2.986.082-1.04.008-2.063-.22-3.067-.23-1.004-.622-1.865-1.179-2.582-1.014-1.291-2.151-2.277-3.41-2.959-1.26-.681-2.61-1.327-4.05-1.937.033-1.183.05-2.456.05-3.82v-3.819c.392.144.776.305 1.153.484.376.18.752.35 1.128.511.377.162.761.278 1.154.35.392.072.801.072 1.227 0 .72-.143 1.251-.421 1.595-.834.343-.412.532-.87.564-1.372.033-.502-.073-1.03-.319-1.587-.245-.556-.597-1.049-1.055-1.48-.72-.716-1.57-1.254-2.552-1.613s-1.93-.664-2.847-.915c-.098-1.995-.245-3.256-.441-3.782-.197-.502-.467-.906-.81-1.21-.344-.306-.712-.512-1.105-.62-.392-.107-.801-.098-1.227.028-.425.125-.801.403-1.128.833-.295.36-.516.772-.663 1.238-.147.466-.245.95-.295 1.452-.032.335-.057.95-.073 1.846-1.21.215-2.421.726-3.632 1.533-1.21.807-2.225 1.794-3.043 2.96-.818 1.165-1.333 2.438-1.546 3.819-.213 1.38.057 2.77.81 4.17.818 1.506 1.898 2.707 3.24 3.604 1.34.896 2.715 1.703 4.122 2.42 0 1.256-.008 2.61-.025 4.062l-.01 1.071c-.01 1.053-.014 2.05-.014 2.991-.164-.072-.36-.17-.59-.296-.228-.125-.425-.242-.588-.35-.295-.215-.581-.466-.86-.753-.277-.287-.564-.574-.858-.86-.294-.287-.597-.538-.908-.754-.31-.215-.663-.34-1.055-.376-.72-.108-1.309-.01-1.767.296-.458.305-.802.717-1.03 1.237-.23.52-.32 1.094-.27 1.722.048.627.22 1.21.515 1.748.949 1.255 2.045 2.331 3.288 3.228 1.243.896 2.601 1.542 4.074 1.937 0 .824-.009.996-.025 1.964-.016.969.221 1.812.712 2.529.36.538.801.879 1.325 1.022zm-2.167-27.28c-.492-.462-.881-.856-1.168-1.182-.287-.327-.513-.624-.677-.893-.164-.27-.497-1.054-.429-1.646.069-.592.354-.928.696-1.35.341-.423.867-.635 1.578-.635v5.705zm5.707 15.972c0-.867.009-1.818.027-2.852l.012-.76c.01-.745.015-1.442.015-2.093.836.4 1.545.818 2.127 1.251.582.434.964.885 1.145 1.352.182.467.11.934-.218 1.4-.327.468-1.018.918-2.072 1.352-.182.067-.355.125-.518.175-.164.05-.337.108-.518.175z"/>
                                <rect width="82.176" height="13.691" x="13.696" y="70.738" fill="#00F2E6" fill-rule="nonzero" rx="4.565"/>
                            </g>
                            <g transform="translate(221.130192, 187.107471) rotate(1.000000) translate(-221.130192, -187.107471) translate(-75.121025, -81.659744) translate(286.062781, 430.221886) rotate(-79.000000) translate(-286.062781, -430.221886) translate(231.278781, 149.553221)">
                                <path fill="#00CDC3" d="M0 0H109.568V140.334H0z"/>
                                <rect width="82.176" height="13.691" x="13.696" y="70.738" fill="#00F2E6" fill-rule="nonzero" rx="4.565"/>
                                <rect width="82.176" height="4.564" x="13.696" y="93.556" fill="#00F2E6" fill-rule="nonzero" rx="2.282"/>
                                <rect width="52.501" height="4.564" x="13.696" y="107.247" fill="#00F2E6" fill-rule="nonzero" rx="2.282"/>
                            </g>
                            <g transform="translate(221.130192, 187.107471) rotate(1.000000) translate(-221.130192, -187.107471) translate(-75.121025, -81.659744) translate(286.062781, 430.221886) rotate(-79.000000) translate(-286.062781, -430.221886) translate(231.278781, 149.553221) translate(0.000000, 140.334333)">
                                <path fill="#00CDC3" d="M0 0H109.568V140.334H0z"/>
                                <path fill="#00F2E6" fill-rule="nonzero" d="M27.276 58.086c.524.144 1.04.135 1.546-.027.507-.161.957-.448 1.35-.86.393-.413.638-.906.736-1.48.098-.538.14-1.148.123-1.83-.016-.68-.025-.547-.025-1.05 1.244-.322 2.422-.753 3.534-1.29 1.113-.539 2.16-1.274 3.141-2.206.655-.61 1.17-1.39 1.546-2.34.377-.95.606-1.946.687-2.986.082-1.04.009-2.063-.22-3.067-.23-1.004-.622-1.865-1.178-2.582-1.015-1.291-2.152-2.277-3.411-2.959-1.26-.681-2.61-1.327-4.05-1.937.033-1.183.05-2.456.05-3.82v-3.819c.392.144.777.305 1.153.484.376.18.752.35 1.129.511.376.162.76.278 1.153.35.393.072.802.072 1.227 0 .72-.143 1.252-.421 1.595-.834.344-.412.532-.87.565-1.372.032-.502-.074-1.03-.32-1.587-.245-.556-.597-1.049-1.055-1.48-.72-.716-1.57-1.254-2.552-1.613-.981-.359-1.93-.664-2.846-.915-.099-1.995-.246-3.256-.442-3.782-.196-.502-.466-.906-.81-1.21-.344-.306-.712-.512-1.104-.62-.393-.107-.802-.098-1.227.028-.426.125-.802.403-1.13.833-.294.36-.514.772-.662 1.238-.147.466-.245.95-.294 1.452-.033.335-.057.95-.074 1.846-1.21.215-2.421.726-3.632 1.533-1.21.807-2.225 1.794-3.043 2.96-.818 1.165-1.333 2.438-1.546 3.819-.212 1.38.058 2.77.81 4.17.818 1.506 1.898 2.707 3.24 3.604 1.34.896 2.715 1.703 4.122 2.42 0 1.256-.008 2.61-.024 4.062l-.011 1.071c-.01 1.053-.014 2.05-.014 2.991-.164-.072-.36-.17-.589-.296-.229-.125-.425-.242-.589-.35-.294-.215-.58-.466-.859-.753-.278-.287-.564-.574-.859-.86-.294-.287-.597-.538-.908-.754-.31-.215-.662-.34-1.055-.376-.72-.108-1.309-.01-1.767.296-.458.305-.801.717-1.03 1.237-.23.52-.32 1.094-.27 1.722.049.627.22 1.21.515 1.748.949 1.255 2.045 2.331 3.288 3.228 1.244.896 2.602 1.542 4.074 1.937 0 .824-.008.996-.025 1.964-.016.969.221 1.812.712 2.529.36.538.802.879 1.325 1.022zm-2.167-27.28c-.492-.462-.881-.856-1.168-1.182-.287-.327-.512-.624-.676-.893-.164-.27-.497-1.054-.43-1.646.069-.592.354-.928.696-1.35.342-.423.868-.635 1.578-.635v5.705zm5.707 15.972c0-.867.01-1.818.027-2.852l.012-.76c.01-.745.016-1.442.016-2.093.836.4 1.545.818 2.126 1.251.582.434.964.885 1.146 1.352.181.467.109.934-.219 1.4-.327.468-1.018.918-2.072 1.352-.182.067-.354.125-.518.175-.164.05-.336.108-.518.175z"/>
                                <rect width="45.653" height="27.382" x="50.219" y="13.691" fill="#00F2E6" fill-rule="nonzero" rx="4.565"/>
                                <rect width="82.176" height="4.564" x="13.696" y="74.16" fill="#00F2E6" fill-rule="nonzero" rx="2.282"/>
                                <rect width="60.491" height="4.564" x="13.696" y="87.852" fill="#00F2E6" fill-rule="nonzero" rx="2.282"/>
                                <rect width="45.653" height="4.564" x="50.219" y="50.201" fill="#00F2E6" fill-rule="nonzero" rx="2.282"/>
                            </g>
                        </g>
                        <g>
                            <g transform="translate(221.130192, 187.107471) rotate(1.000000) translate(-221.130192, -187.107471) translate(-75.121025, -81.659744) translate(306.606781, 322.974510) rotate(-103.000000) translate(-306.606781, -322.974510) translate(251.822781, 42.305844) translate(0.000000, 280.668666)">
                                <path fill="#00CDC3" d="M0 0H109.568V140.334H0z"/>
                                <path fill="#00F2E6" fill-rule="nonzero" d="M27.276 58.086c.524.144 1.04.135 1.546-.027.507-.161.957-.448 1.35-.86.393-.413.638-.906.736-1.48.098-.538.14-1.148.123-1.83-.016-.68-.025-.547-.025-1.05 1.244-.322 2.422-.753 3.534-1.29 1.113-.539 2.16-1.274 3.141-2.206.655-.61 1.17-1.39 1.546-2.34.377-.95.606-1.946.687-2.986.082-1.04.009-2.063-.22-3.067-.23-1.004-.622-1.865-1.178-2.582-1.015-1.291-2.152-2.277-3.411-2.959-1.26-.681-2.61-1.327-4.05-1.937.033-1.183.05-2.456.05-3.82v-3.819c.392.144.777.305 1.153.484.376.18.752.35 1.129.511.376.162.76.278 1.153.35.393.072.802.072 1.227 0 .72-.143 1.252-.421 1.595-.834.344-.412.532-.87.565-1.372.032-.502-.074-1.03-.32-1.587-.245-.556-.597-1.049-1.055-1.48-.72-.716-1.57-1.254-2.552-1.613-.981-.359-1.93-.664-2.846-.915-.099-1.995-.246-3.256-.442-3.782-.196-.502-.466-.906-.81-1.21-.344-.306-.712-.512-1.104-.62-.393-.107-.802-.098-1.227.028-.426.125-.802.403-1.13.833-.294.36-.514.772-.662 1.238-.147.466-.245.95-.294 1.452-.033.335-.057.95-.074 1.846-1.21.215-2.421.726-3.632 1.533-1.21.807-2.225 1.794-3.043 2.96-.818 1.165-1.333 2.438-1.546 3.819-.212 1.38.058 2.77.81 4.17.818 1.506 1.898 2.707 3.24 3.604 1.34.896 2.715 1.703 4.122 2.42 0 1.256-.008 2.61-.024 4.062l-.011 1.071c-.01 1.053-.014 2.05-.014 2.991-.164-.072-.36-.17-.589-.296-.229-.125-.425-.242-.589-.35-.294-.215-.58-.466-.859-.753-.278-.287-.564-.574-.859-.86-.294-.287-.597-.538-.908-.754-.31-.215-.662-.34-1.055-.376-.72-.108-1.309-.01-1.767.296-.458.305-.801.717-1.03 1.237-.23.52-.32 1.094-.27 1.722.049.627.22 1.21.515 1.748.949 1.255 2.045 2.331 3.288 3.228 1.244.896 2.602 1.542 4.074 1.937 0 .824-.008.996-.025 1.964-.016.969.221 1.812.712 2.529.36.538.802.879 1.325 1.022zm-2.167-27.28c-.492-.462-.881-.856-1.168-1.182-.287-.327-.512-.624-.676-.893-.164-.27-.497-1.054-.43-1.646.069-.592.354-.928.696-1.35.342-.423.868-.635 1.578-.635v5.705zm5.707 15.972c0-.867.01-1.818.027-2.852l.012-.76c.01-.745.016-1.442.016-2.093.836.4 1.545.818 2.126 1.251.582.434.964.885 1.146 1.352.181.467.109.934-.219 1.4-.327.468-1.018.918-2.072 1.352-.182.067-.354.125-.518.175-.164.05-.336.108-.518.175z"/>
                                <rect width="82.176" height="13.691" x="13.696" y="70.738" fill="#00F2E6" fill-rule="nonzero" rx="4.565"/>
                                <rect width="82.176" height="4.564" x="13.696" y="93.556" fill="#00F2E6" fill-rule="nonzero" rx="2.282"/>
                                <rect width="52.501" height="4.564" x="13.696" y="107.247" fill="#00F2E6" fill-rule="nonzero" rx="2.282"/>
                            </g>
                            <g>
                                <path fill="#00CDC3" d="M0 0H109.568V140.334H0z" transform="translate(221.130192, 187.107471) rotate(1.000000) translate(-221.130192, -187.107471) translate(-75.121025, -81.659744) translate(306.606781, 322.974510) rotate(-103.000000) translate(-306.606781, -322.974510) translate(251.822781, 42.305844) translate(0.000000, 421.002999)"/>
                                <path fill="#00F2E6" fill-rule="nonzero" d="M53.527 58.086c.523.144 1.039.135 1.546-.027.507-.161.957-.448 1.35-.86.392-.413.638-.906.736-1.48.098-.538.139-1.148.123-1.83-.017-.68-.025-.547-.025-1.05 1.243-.322 2.421-.753 3.534-1.29 1.112-.539 2.16-1.274 3.14-2.206.655-.61 1.17-1.39 1.547-2.34.376-.95.605-1.946.687-2.986.082-1.04.008-2.063-.22-3.067-.23-1.004-.622-1.865-1.179-2.582-1.014-1.291-2.151-2.277-3.41-2.959-1.26-.681-2.61-1.327-4.05-1.937.033-1.183.05-2.456.05-3.82v-3.819c.392.144.776.305 1.153.484.376.18.752.35 1.128.511.377.162.761.278 1.154.35.392.072.801.072 1.227 0 .72-.143 1.251-.421 1.595-.834.343-.412.532-.87.564-1.372.033-.502-.073-1.03-.319-1.587-.245-.556-.597-1.049-1.055-1.48-.72-.716-1.57-1.254-2.552-1.613s-1.93-.664-2.847-.915c-.098-1.995-.245-3.256-.441-3.782-.197-.502-.467-.906-.81-1.21-.344-.306-.712-.512-1.105-.62-.392-.107-.801-.098-1.227.028-.425.125-.801.403-1.128.833-.295.36-.516.772-.663 1.238-.147.466-.245.95-.295 1.452-.032.335-.057.95-.073 1.846-1.21.215-2.421.726-3.632 1.533-1.21.807-2.225 1.794-3.043 2.96-.818 1.165-1.333 2.438-1.546 3.819-.213 1.38.057 2.77.81 4.17.818 1.506 1.898 2.707 3.24 3.604 1.34.896 2.715 1.703 4.122 2.42 0 1.256-.008 2.61-.025 4.062l-.01 1.071c-.01 1.053-.014 2.05-.014 2.991-.164-.072-.36-.17-.59-.296-.228-.125-.425-.242-.588-.35-.295-.215-.581-.466-.86-.753-.277-.287-.564-.574-.858-.86-.294-.287-.597-.538-.908-.754-.31-.215-.663-.34-1.055-.376-.72-.108-1.309-.01-1.767.296-.458.305-.802.717-1.03 1.237-.23.52-.32 1.094-.27 1.722.048.627.22 1.21.515 1.748.949 1.255 2.045 2.331 3.288 3.228 1.243.896 2.601 1.542 4.074 1.937 0 .824-.009.996-.025 1.964-.016.969.221 1.812.712 2.529.36.538.801.879 1.325 1.022zm-2.167-27.28c-.492-.462-.881-.856-1.168-1.182-.287-.327-.513-.624-.677-.893-.164-.27-.497-1.054-.429-1.646.069-.592.354-.928.696-1.35.341-.423.867-.635 1.578-.635v5.705zm5.707 15.972c0-.867.009-1.818.027-2.852l.012-.76c.01-.745.015-1.442.015-2.093.836.4 1.545.818 2.127 1.251.582.434.964.885 1.145 1.352.182.467.11.934-.218 1.4-.327.468-1.018.918-2.072 1.352-.182.067-.355.125-.518.175-.164.05-.337.108-.518.175z" transform="translate(221.130192, 187.107471) rotate(1.000000) translate(-221.130192, -187.107471) translate(-75.121025, -81.659744) translate(306.606781, 322.974510) rotate(-103.000000) translate(-306.606781, -322.974510) translate(251.822781, 42.305844) translate(0.000000, 421.002999)"/>
                            </g>
                            <g transform="translate(221.130192, 187.107471) rotate(1.000000) translate(-221.130192, -187.107471) translate(-75.121025, -81.659744) translate(306.606781, 322.974510) rotate(-103.000000) translate(-306.606781, -322.974510) translate(251.822781, 42.305844)">
                                <path fill="#00CDC3" d="M0 0H109.568V140.334H0z"/>
                                <path fill="#00F2E6" fill-rule="nonzero" d="M27.276 58.086c.524.144 1.04.135 1.546-.027.507-.161.957-.448 1.35-.86.393-.413.638-.906.736-1.48.098-.538.14-1.148.123-1.83-.016-.68-.025-.547-.025-1.05 1.244-.322 2.422-.753 3.534-1.29 1.113-.539 2.16-1.274 3.141-2.206.655-.61 1.17-1.39 1.546-2.34.377-.95.606-1.946.687-2.986.082-1.04.009-2.063-.22-3.067-.23-1.004-.622-1.865-1.178-2.582-1.015-1.291-2.152-2.277-3.411-2.959-1.26-.681-2.61-1.327-4.05-1.937.033-1.183.05-2.456.05-3.82v-3.819c.392.144.777.305 1.153.484.376.18.752.35 1.129.511.376.162.76.278 1.153.35.393.072.802.072 1.227 0 .72-.143 1.252-.421 1.595-.834.344-.412.532-.87.565-1.372.032-.502-.074-1.03-.32-1.587-.245-.556-.597-1.049-1.055-1.48-.72-.716-1.57-1.254-2.552-1.613-.981-.359-1.93-.664-2.846-.915-.099-1.995-.246-3.256-.442-3.782-.196-.502-.466-.906-.81-1.21-.344-.306-.712-.512-1.104-.62-.393-.107-.802-.098-1.227.028-.426.125-.802.403-1.13.833-.294.36-.514.772-.662 1.238-.147.466-.245.95-.294 1.452-.033.335-.057.95-.074 1.846-1.21.215-2.421.726-3.632 1.533-1.21.807-2.225 1.794-3.043 2.96-.818 1.165-1.333 2.438-1.546 3.819-.212 1.38.058 2.77.81 4.17.818 1.506 1.898 2.707 3.24 3.604 1.34.896 2.715 1.703 4.122 2.42 0 1.256-.008 2.61-.024 4.062l-.011 1.071c-.01 1.053-.014 2.05-.014 2.991-.164-.072-.36-.17-.589-.296-.229-.125-.425-.242-.589-.35-.294-.215-.58-.466-.859-.753-.278-.287-.564-.574-.859-.86-.294-.287-.597-.538-.908-.754-.31-.215-.662-.34-1.055-.376-.72-.108-1.309-.01-1.767.296-.458.305-.801.717-1.03 1.237-.23.52-.32 1.094-.27 1.722.049.627.22 1.21.515 1.748.949 1.255 2.045 2.331 3.288 3.228 1.244.896 2.602 1.542 4.074 1.937 0 .824-.008.996-.025 1.964-.016.969.221 1.812.712 2.529.36.538.802.879 1.325 1.022zm-2.167-27.28c-.492-.462-.881-.856-1.168-1.182-.287-.327-.512-.624-.676-.893-.164-.27-.497-1.054-.43-1.646.069-.592.354-.928.696-1.35.342-.423.868-.635 1.578-.635v5.705zm5.707 15.972c0-.867.01-1.818.027-2.852l.012-.76c.01-.745.016-1.442.016-2.093.836.4 1.545.818 2.126 1.251.582.434.964.885 1.146 1.352.181.467.109.934-.219 1.4-.327.468-1.018.918-2.072 1.352-.182.067-.354.125-.518.175-.164.05-.336.108-.518.175z"/>
                                <rect width="82.176" height="13.691" x="13.696" y="70.738" fill="#00F2E6" fill-rule="nonzero" rx="4.565"/>
                                <rect width="82.176" height="4.564" x="13.696" y="93.556" fill="#00F2E6" fill-rule="nonzero" rx="2.282"/>
                                <rect width="52.501" height="4.564" x="13.696" y="107.247" fill="#00F2E6" fill-rule="nonzero" rx="2.282"/>
                            </g>
                            <g transform="translate(221.130192, 187.107471) rotate(1.000000) translate(-221.130192, -187.107471) translate(-75.121025, -81.659744) translate(306.606781, 322.974510) rotate(-103.000000) translate(-306.606781, -322.974510) translate(251.822781, 42.305844) translate(0.000000, 140.334333)">
                                <path fill="#00CDC3" d="M0 0H109.568V140.334H0z"/>
                                <path fill="#00F2E6" fill-rule="nonzero" d="M27.276 58.086c.524.144 1.04.135 1.546-.027.507-.161.957-.448 1.35-.86.393-.413.638-.906.736-1.48.098-.538.14-1.148.123-1.83-.016-.68-.025-.547-.025-1.05 1.244-.322 2.422-.753 3.534-1.29 1.113-.539 2.16-1.274 3.141-2.206.655-.61 1.17-1.39 1.546-2.34.377-.95.606-1.946.687-2.986.082-1.04.009-2.063-.22-3.067-.23-1.004-.622-1.865-1.178-2.582-1.015-1.291-2.152-2.277-3.411-2.959-1.26-.681-2.61-1.327-4.05-1.937.033-1.183.05-2.456.05-3.82v-3.819c.392.144.777.305 1.153.484.376.18.752.35 1.129.511.376.162.76.278 1.153.35.393.072.802.072 1.227 0 .72-.143 1.252-.421 1.595-.834.344-.412.532-.87.565-1.372.032-.502-.074-1.03-.32-1.587-.245-.556-.597-1.049-1.055-1.48-.72-.716-1.57-1.254-2.552-1.613-.981-.359-1.93-.664-2.846-.915-.099-1.995-.246-3.256-.442-3.782-.196-.502-.466-.906-.81-1.21-.344-.306-.712-.512-1.104-.62-.393-.107-.802-.098-1.227.028-.426.125-.802.403-1.13.833-.294.36-.514.772-.662 1.238-.147.466-.245.95-.294 1.452-.033.335-.057.95-.074 1.846-1.21.215-2.421.726-3.632 1.533-1.21.807-2.225 1.794-3.043 2.96-.818 1.165-1.333 2.438-1.546 3.819-.212 1.38.058 2.77.81 4.17.818 1.506 1.898 2.707 3.24 3.604 1.34.896 2.715 1.703 4.122 2.42 0 1.256-.008 2.61-.024 4.062l-.011 1.071c-.01 1.053-.014 2.05-.014 2.991-.164-.072-.36-.17-.589-.296-.229-.125-.425-.242-.589-.35-.294-.215-.58-.466-.859-.753-.278-.287-.564-.574-.859-.86-.294-.287-.597-.538-.908-.754-.31-.215-.662-.34-1.055-.376-.72-.108-1.309-.01-1.767.296-.458.305-.801.717-1.03 1.237-.23.52-.32 1.094-.27 1.722.049.627.22 1.21.515 1.748.949 1.255 2.045 2.331 3.288 3.228 1.244.896 2.602 1.542 4.074 1.937 0 .824-.008.996-.025 1.964-.016.969.221 1.812.712 2.529.36.538.802.879 1.325 1.022zm-2.167-27.28c-.492-.462-.881-.856-1.168-1.182-.287-.327-.512-.624-.676-.893-.164-.27-.497-1.054-.43-1.646.069-.592.354-.928.696-1.35.342-.423.868-.635 1.578-.635v5.705zm5.707 15.972c0-.867.01-1.818.027-2.852l.012-.76c.01-.745.016-1.442.016-2.093.836.4 1.545.818 2.126 1.251.582.434.964.885 1.146 1.352.181.467.109.934-.219 1.4-.327.468-1.018.918-2.072 1.352-.182.067-.354.125-.518.175-.164.05-.336.108-.518.175z"/>
                                <rect width="45.653" height="27.382" x="50.219" y="13.691" fill="#00F2E6" fill-rule="nonzero" rx="4.565"/>
                                <rect width="82.176" height="4.564" x="13.696" y="74.16" fill="#00F2E6" fill-rule="nonzero" rx="2.282"/>
                                <rect width="60.491" height="4.564" x="13.696" y="87.852" fill="#00F2E6" fill-rule="nonzero" rx="2.282"/>
                                <rect width="45.653" height="4.564" x="50.219" y="50.201" fill="#00F2E6" fill-rule="nonzero" rx="2.282"/>
                            </g>
                        </g>
                        <g>
                            <g transform="translate(221.130192, 187.107471) rotate(1.000000) translate(-221.130192, -187.107471) translate(-75.121025, -81.659744) translate(303.001440, 116.497716) rotate(-103.000000) translate(-303.001440, -116.497716) translate(248.217440, -164.170949) translate(0.000000, 280.668666)">
                                <path fill="#00CDC3" d="M0 0H109.568V140.334H0z"/>
                                <path fill="#00F2E6" fill-rule="nonzero" d="M27.276 58.086c.524.144 1.04.135 1.546-.027.507-.161.957-.448 1.35-.86.393-.413.638-.906.736-1.48.098-.538.14-1.148.123-1.83-.016-.68-.025-.547-.025-1.05 1.244-.322 2.422-.753 3.534-1.29 1.113-.539 2.16-1.274 3.141-2.206.655-.61 1.17-1.39 1.546-2.34.377-.95.606-1.946.687-2.986.082-1.04.009-2.063-.22-3.067-.23-1.004-.622-1.865-1.178-2.582-1.015-1.291-2.152-2.277-3.411-2.959-1.26-.681-2.61-1.327-4.05-1.937.033-1.183.05-2.456.05-3.82v-3.819c.392.144.777.305 1.153.484.376.18.752.35 1.129.511.376.162.76.278 1.153.35.393.072.802.072 1.227 0 .72-.143 1.252-.421 1.595-.834.344-.412.532-.87.565-1.372.032-.502-.074-1.03-.32-1.587-.245-.556-.597-1.049-1.055-1.48-.72-.716-1.57-1.254-2.552-1.613-.981-.359-1.93-.664-2.846-.915-.099-1.995-.246-3.256-.442-3.782-.196-.502-.466-.906-.81-1.21-.344-.306-.712-.512-1.104-.62-.393-.107-.802-.098-1.227.028-.426.125-.802.403-1.13.833-.294.36-.514.772-.662 1.238-.147.466-.245.95-.294 1.452-.033.335-.057.95-.074 1.846-1.21.215-2.421.726-3.632 1.533-1.21.807-2.225 1.794-3.043 2.96-.818 1.165-1.333 2.438-1.546 3.819-.212 1.38.058 2.77.81 4.17.818 1.506 1.898 2.707 3.24 3.604 1.34.896 2.715 1.703 4.122 2.42 0 1.256-.008 2.61-.024 4.062l-.011 1.071c-.01 1.053-.014 2.05-.014 2.991-.164-.072-.36-.17-.589-.296-.229-.125-.425-.242-.589-.35-.294-.215-.58-.466-.859-.753-.278-.287-.564-.574-.859-.86-.294-.287-.597-.538-.908-.754-.31-.215-.662-.34-1.055-.376-.72-.108-1.309-.01-1.767.296-.458.305-.801.717-1.03 1.237-.23.52-.32 1.094-.27 1.722.049.627.22 1.21.515 1.748.949 1.255 2.045 2.331 3.288 3.228 1.244.896 2.602 1.542 4.074 1.937 0 .824-.008.996-.025 1.964-.016.969.221 1.812.712 2.529.36.538.802.879 1.325 1.022zm-2.167-27.28c-.492-.462-.881-.856-1.168-1.182-.287-.327-.512-.624-.676-.893-.164-.27-.497-1.054-.43-1.646.069-.592.354-.928.696-1.35.342-.423.868-.635 1.578-.635v5.705zm5.707 15.972c0-.867.01-1.818.027-2.852l.012-.76c.01-.745.016-1.442.016-2.093.836.4 1.545.818 2.126 1.251.582.434.964.885 1.146 1.352.181.467.109.934-.219 1.4-.327.468-1.018.918-2.072 1.352-.182.067-.354.125-.518.175-.164.05-.336.108-.518.175z"/>
                                <rect width="82.176" height="13.691" x="13.696" y="70.738" fill="#00F2E6" fill-rule="nonzero" rx="4.565"/>
                                <rect width="82.176" height="4.564" x="13.696" y="93.556" fill="#00F2E6" fill-rule="nonzero" rx="2.282"/>
                                <rect width="52.501" height="4.564" x="13.696" y="107.247" fill="#00F2E6" fill-rule="nonzero" rx="2.282"/>
                            </g>
                            <g>
                                <path fill="#00CDC3" d="M0 0H109.568V140.334H0z" transform="translate(221.130192, 187.107471) rotate(1.000000) translate(-221.130192, -187.107471) translate(-75.121025, -81.659744) translate(303.001440, 116.497716) rotate(-103.000000) translate(-303.001440, -116.497716) translate(248.217440, -164.170949) translate(0.000000, 421.002999)"/>
                                <path fill="#00F2E6" fill-rule="nonzero" d="M53.527 58.086c.523.144 1.039.135 1.546-.027.507-.161.957-.448 1.35-.86.392-.413.638-.906.736-1.48.098-.538.139-1.148.123-1.83-.017-.68-.025-.547-.025-1.05 1.243-.322 2.421-.753 3.534-1.29 1.112-.539 2.16-1.274 3.14-2.206.655-.61 1.17-1.39 1.547-2.34.376-.95.605-1.946.687-2.986.082-1.04.008-2.063-.22-3.067-.23-1.004-.622-1.865-1.179-2.582-1.014-1.291-2.151-2.277-3.41-2.959-1.26-.681-2.61-1.327-4.05-1.937.033-1.183.05-2.456.05-3.82v-3.819c.392.144.776.305 1.153.484.376.18.752.35 1.128.511.377.162.761.278 1.154.35.392.072.801.072 1.227 0 .72-.143 1.251-.421 1.595-.834.343-.412.532-.87.564-1.372.033-.502-.073-1.03-.319-1.587-.245-.556-.597-1.049-1.055-1.48-.72-.716-1.57-1.254-2.552-1.613s-1.93-.664-2.847-.915c-.098-1.995-.245-3.256-.441-3.782-.197-.502-.467-.906-.81-1.21-.344-.306-.712-.512-1.105-.62-.392-.107-.801-.098-1.227.028-.425.125-.801.403-1.128.833-.295.36-.516.772-.663 1.238-.147.466-.245.95-.295 1.452-.032.335-.057.95-.073 1.846-1.21.215-2.421.726-3.632 1.533-1.21.807-2.225 1.794-3.043 2.96-.818 1.165-1.333 2.438-1.546 3.819-.213 1.38.057 2.77.81 4.17.818 1.506 1.898 2.707 3.24 3.604 1.34.896 2.715 1.703 4.122 2.42 0 1.256-.008 2.61-.025 4.062l-.01 1.071c-.01 1.053-.014 2.05-.014 2.991-.164-.072-.36-.17-.59-.296-.228-.125-.425-.242-.588-.35-.295-.215-.581-.466-.86-.753-.277-.287-.564-.574-.858-.86-.294-.287-.597-.538-.908-.754-.31-.215-.663-.34-1.055-.376-.72-.108-1.309-.01-1.767.296-.458.305-.802.717-1.03 1.237-.23.52-.32 1.094-.27 1.722.048.627.22 1.21.515 1.748.949 1.255 2.045 2.331 3.288 3.228 1.243.896 2.601 1.542 4.074 1.937 0 .824-.009.996-.025 1.964-.016.969.221 1.812.712 2.529.36.538.801.879 1.325 1.022zm-2.167-27.28c-.492-.462-.881-.856-1.168-1.182-.287-.327-.513-.624-.677-.893-.164-.27-.497-1.054-.429-1.646.069-.592.354-.928.696-1.35.341-.423.867-.635 1.578-.635v5.705zm5.707 15.972c0-.867.009-1.818.027-2.852l.012-.76c.01-.745.015-1.442.015-2.093.836.4 1.545.818 2.127 1.251.582.434.964.885 1.145 1.352.182.467.11.934-.218 1.4-.327.468-1.018.918-2.072 1.352-.182.067-.355.125-.518.175-.164.05-.337.108-.518.175z" transform="translate(221.130192, 187.107471) rotate(1.000000) translate(-221.130192, -187.107471) translate(-75.121025, -81.659744) translate(303.001440, 116.497716) rotate(-103.000000) translate(-303.001440, -116.497716) translate(248.217440, -164.170949) translate(0.000000, 421.002999)"/>
                            </g>
                            <g transform="translate(221.130192, 187.107471) rotate(1.000000) translate(-221.130192, -187.107471) translate(-75.121025, -81.659744) translate(303.001440, 116.497716) rotate(-103.000000) translate(-303.001440, -116.497716) translate(248.217440, -164.170949)">
                                <path fill="#00CDC3" d="M0 0H109.568V140.334H0z"/>
                                <path fill="#00F2E6" fill-rule="nonzero" d="M27.276 58.086c.524.144 1.04.135 1.546-.027.507-.161.957-.448 1.35-.86.393-.413.638-.906.736-1.48.098-.538.14-1.148.123-1.83-.016-.68-.025-.547-.025-1.05 1.244-.322 2.422-.753 3.534-1.29 1.113-.539 2.16-1.274 3.141-2.206.655-.61 1.17-1.39 1.546-2.34.377-.95.606-1.946.687-2.986.082-1.04.009-2.063-.22-3.067-.23-1.004-.622-1.865-1.178-2.582-1.015-1.291-2.152-2.277-3.411-2.959-1.26-.681-2.61-1.327-4.05-1.937.033-1.183.05-2.456.05-3.82v-3.819c.392.144.777.305 1.153.484.376.18.752.35 1.129.511.376.162.76.278 1.153.35.393.072.802.072 1.227 0 .72-.143 1.252-.421 1.595-.834.344-.412.532-.87.565-1.372.032-.502-.074-1.03-.32-1.587-.245-.556-.597-1.049-1.055-1.48-.72-.716-1.57-1.254-2.552-1.613-.981-.359-1.93-.664-2.846-.915-.099-1.995-.246-3.256-.442-3.782-.196-.502-.466-.906-.81-1.21-.344-.306-.712-.512-1.104-.62-.393-.107-.802-.098-1.227.028-.426.125-.802.403-1.13.833-.294.36-.514.772-.662 1.238-.147.466-.245.95-.294 1.452-.033.335-.057.95-.074 1.846-1.21.215-2.421.726-3.632 1.533-1.21.807-2.225 1.794-3.043 2.96-.818 1.165-1.333 2.438-1.546 3.819-.212 1.38.058 2.77.81 4.17.818 1.506 1.898 2.707 3.24 3.604 1.34.896 2.715 1.703 4.122 2.42 0 1.256-.008 2.61-.024 4.062l-.011 1.071c-.01 1.053-.014 2.05-.014 2.991-.164-.072-.36-.17-.589-.296-.229-.125-.425-.242-.589-.35-.294-.215-.58-.466-.859-.753-.278-.287-.564-.574-.859-.86-.294-.287-.597-.538-.908-.754-.31-.215-.662-.34-1.055-.376-.72-.108-1.309-.01-1.767.296-.458.305-.801.717-1.03 1.237-.23.52-.32 1.094-.27 1.722.049.627.22 1.21.515 1.748.949 1.255 2.045 2.331 3.288 3.228 1.244.896 2.602 1.542 4.074 1.937 0 .824-.008.996-.025 1.964-.016.969.221 1.812.712 2.529.36.538.802.879 1.325 1.022zm-2.167-27.28c-.492-.462-.881-.856-1.168-1.182-.287-.327-.512-.624-.676-.893-.164-.27-.497-1.054-.43-1.646.069-.592.354-.928.696-1.35.342-.423.868-.635 1.578-.635v5.705zm5.707 15.972c0-.867.01-1.818.027-2.852l.012-.76c.01-.745.016-1.442.016-2.093.836.4 1.545.818 2.126 1.251.582.434.964.885 1.146 1.352.181.467.109.934-.219 1.4-.327.468-1.018.918-2.072 1.352-.182.067-.354.125-.518.175-.164.05-.336.108-.518.175z"/>
                                <rect width="82.176" height="13.691" x="13.696" y="70.738" fill="#00F2E6" fill-rule="nonzero" rx="4.565"/>
                                <rect width="82.176" height="4.564" x="13.696" y="93.556" fill="#00F2E6" fill-rule="nonzero" rx="2.282"/>
                                <rect width="52.501" height="4.564" x="13.696" y="107.247" fill="#00F2E6" fill-rule="nonzero" rx="2.282"/>
                            </g>
                            <g transform="translate(221.130192, 187.107471) rotate(1.000000) translate(-221.130192, -187.107471) translate(-75.121025, -81.659744) translate(303.001440, 116.497716) rotate(-103.000000) translate(-303.001440, -116.497716) translate(248.217440, -164.170949) translate(0.000000, 140.334333)">
                                <path fill="#00CDC3" d="M0 0H109.568V140.334H0z"/>
                                <path fill="#00F2E6" fill-rule="nonzero" d="M27.276 58.086c.524.144 1.04.135 1.546-.027.507-.161.957-.448 1.35-.86.393-.413.638-.906.736-1.48.098-.538.14-1.148.123-1.83-.016-.68-.025-.547-.025-1.05 1.244-.322 2.422-.753 3.534-1.29 1.113-.539 2.16-1.274 3.141-2.206.655-.61 1.17-1.39 1.546-2.34.377-.95.606-1.946.687-2.986.082-1.04.009-2.063-.22-3.067-.23-1.004-.622-1.865-1.178-2.582-1.015-1.291-2.152-2.277-3.411-2.959-1.26-.681-2.61-1.327-4.05-1.937.033-1.183.05-2.456.05-3.82v-3.819c.392.144.777.305 1.153.484.376.18.752.35 1.129.511.376.162.76.278 1.153.35.393.072.802.072 1.227 0 .72-.143 1.252-.421 1.595-.834.344-.412.532-.87.565-1.372.032-.502-.074-1.03-.32-1.587-.245-.556-.597-1.049-1.055-1.48-.72-.716-1.57-1.254-2.552-1.613-.981-.359-1.93-.664-2.846-.915-.099-1.995-.246-3.256-.442-3.782-.196-.502-.466-.906-.81-1.21-.344-.306-.712-.512-1.104-.62-.393-.107-.802-.098-1.227.028-.426.125-.802.403-1.13.833-.294.36-.514.772-.662 1.238-.147.466-.245.95-.294 1.452-.033.335-.057.95-.074 1.846-1.21.215-2.421.726-3.632 1.533-1.21.807-2.225 1.794-3.043 2.96-.818 1.165-1.333 2.438-1.546 3.819-.212 1.38.058 2.77.81 4.17.818 1.506 1.898 2.707 3.24 3.604 1.34.896 2.715 1.703 4.122 2.42 0 1.256-.008 2.61-.024 4.062l-.011 1.071c-.01 1.053-.014 2.05-.014 2.991-.164-.072-.36-.17-.589-.296-.229-.125-.425-.242-.589-.35-.294-.215-.58-.466-.859-.753-.278-.287-.564-.574-.859-.86-.294-.287-.597-.538-.908-.754-.31-.215-.662-.34-1.055-.376-.72-.108-1.309-.01-1.767.296-.458.305-.801.717-1.03 1.237-.23.52-.32 1.094-.27 1.722.049.627.22 1.21.515 1.748.949 1.255 2.045 2.331 3.288 3.228 1.244.896 2.602 1.542 4.074 1.937 0 .824-.008.996-.025 1.964-.016.969.221 1.812.712 2.529.36.538.802.879 1.325 1.022zm-2.167-27.28c-.492-.462-.881-.856-1.168-1.182-.287-.327-.512-.624-.676-.893-.164-.27-.497-1.054-.43-1.646.069-.592.354-.928.696-1.35.342-.423.868-.635 1.578-.635v5.705zm5.707 15.972c0-.867.01-1.818.027-2.852l.012-.76c.01-.745.016-1.442.016-2.093.836.4 1.545.818 2.126 1.251.582.434.964.885 1.146 1.352.181.467.109.934-.219 1.4-.327.468-1.018.918-2.072 1.352-.182.067-.354.125-.518.175-.164.05-.336.108-.518.175z"/>
                                <rect width="45.653" height="27.382" x="50.219" y="13.691" fill="#00F2E6" fill-rule="nonzero" rx="4.565"/>
                                <rect width="82.176" height="4.564" x="13.696" y="74.16" fill="#00F2E6" fill-rule="nonzero" rx="2.282"/>
                                <rect width="60.491" height="4.564" x="13.696" y="87.852" fill="#00F2E6" fill-rule="nonzero" rx="2.282"/>
                                <rect width="45.653" height="4.564" x="50.219" y="50.201" fill="#00F2E6" fill-rule="nonzero" rx="2.282"/>
                            </g>
                        </g>
                    </g>
                </g>
            </g>
        </g>
    </g>
</svg>
