<svg xmlns="http://www.w3.org/2000/svg" xmlns:xlink="http://www.w3.org/1999/xlink" width="428" height="761" viewBox="0 0 428 761">
    <defs>
        <rect id="m5qihex90c" width="190.109" height="82.147" x="0" y="0" rx="2.282"/>
        <rect id="0scwrpl1xe" width="190.109" height="82.147" x="0" y="0" rx="2.282"/>
        <rect id="rk5gy80o8g" width="190.109" height="82.147" x="0" y="0" rx="2.282"/>
        <rect id="39uyjip2ii" width="190.109" height="82.147" x="0" y="0" rx="2.282"/>
        <rect id="ydme4pyv6k" width="190.109" height="82.147" x="0" y="0" rx="2.282"/>
        <rect id="cw3i06d42m" width="190.109" height="82.147" x="0" y="0" rx="2.282"/>
        <rect id="8rp2jl98uo" width="190.109" height="82.147" x="0" y="0" rx="2.282"/>
        <rect id="6l3d1tzjdq" width="190.109" height="82.147" x="0" y="0" rx="2.282"/>
        <rect id="vbpjwaemus" width="190.109" height="82.147" x="0" y="0" rx="2.282"/>
        <rect id="65dqx0situ" width="190.109" height="82.147" x="0" y="0" rx="2.282"/>
        <rect id="7edpqvz05w" width="190.109" height="82.147" x="0" y="0" rx="2.282"/>
        <rect id="ywzh1zc94y" width="190.109" height="82.147" x="0" y="0" rx="2.282"/>
        <rect id="w5u6lw3ygA" width="190.109" height="82.147" x="0" y="0" rx="2.282"/>
        <rect id="qnna15o2iC" width="190.109" height="82.147" x="0" y="0" rx="2.282"/>
        <rect id="zt8u8wezxE" width="190.109" height="82.147" x="0" y="0" rx="2.282"/>
        <rect id="jw4i38oamG" width="190.109" height="82.147" x="0" y="0" rx="2.282"/>
        <rect id="9jd2guconI" width="190.109" height="82.147" x="0" y="0" rx="2.282"/>
        <rect id="myniax6ahK" width="190.109" height="82.147" x="0" y="0" rx="2.282"/>
        <path id="ydzoccp2ca" d="M0 0H428V761H0z"/>
    </defs>
    <g fill="none" fill-rule="evenodd">
        <g>
            <g transform="translate(-40.000000, -1082.000000) translate(40.000000, 1082.000000)">
                <mask id="e8pelj755b" fill="#fff">
                    <use xlink:href="#ydzoccp2ca"/>
                </mask>
                <g mask="url(#e8pelj755b)">
                    <g>
                        <g>
                            <g transform="translate(-94.939582, -83.426652) translate(103.252577, 122.218256) rotate(-19.000000) translate(-103.252577, -122.218256) translate(8.198249, 81.144793) translate(0.000000, 0.000000)">
                                <mask id="1ypw5wewnd" fill="#fff">
                                    <use xlink:href="#m5qihex90c"/>
                                </mask>
                                <use fill="#00CDC3" xlink:href="#m5qihex90c"/>
                                <ellipse cx="94.798" cy="41.644" fill="#00A59D" mask="url(#1ypw5wewnd)" rx="30.883" ry="30.235"/>
                                <ellipse cx="147.617" cy="41.073" fill="#00A59D" mask="url(#1ypw5wewnd)" rx="9.323" ry="9.127"/>
                                <ellipse cx="190.621" cy="-.57" fill="#00A59D" mask="url(#1ypw5wewnd)" rx="28.552" ry="27.953"/>
                                <ellipse cx="190.621" cy="82.717" fill="#00A59D" mask="url(#1ypw5wewnd)" rx="28.552" ry="27.953"/>
                            </g>
                            <g fill="#00CDC3" fill-rule="nonzero">
                                <g>
                                    <g>
                                        <g>
                                            <g>
                                                <g>
                                                    <path d="M8.633 36.427c.445.117.883.11 1.314-.022.431-.133.813-.368 1.147-.707.334-.338.543-.743.626-1.214.083-.441.118-.941.104-1.5-.014-.56-.02-.45-.02-.862 1.056-.265 2.057-.618 3.003-1.06.946-.441 1.836-1.044 2.67-1.81.556-.5.994-1.14 1.314-1.92.32-.78.515-1.596.584-2.45.07-.853.007-1.692-.188-2.516-.194-.824-.528-1.53-1-2.118-.863-1.06-1.83-1.869-2.9-2.428-1.07-.56-2.218-1.089-3.442-1.59.028-.97.042-2.015.042-3.133V9.963c.334.117.66.25.98.397.32.147.64.287.96.42.32.132.646.227.98.286.334.059.681.059 1.043 0 .612-.118 1.064-.346 1.356-.684.292-.338.452-.714.48-1.126.027-.412-.063-.846-.272-1.302-.208-.456-.507-.86-.896-1.214-.612-.588-1.335-1.03-2.17-1.324-.834-.294-1.64-.544-2.42-.75-.083-1.638-.208-2.672-.375-3.104-.167-.412-.396-.743-.688-.993-.292-.25-.605-.42-.939-.508-.334-.088-.681-.08-1.043.022-.361.103-.681.331-.96.684-.25.295-.437.633-.563 1.016-.125.382-.208.78-.25 1.191-.028.275-.049.78-.062 1.515-1.03.177-2.059.596-3.088 1.258S2.07 7.22 1.374 8.175C.679 9.13.24 10.176.06 11.309c-.181 1.133.048 2.273.688 3.42.695 1.237 1.613 2.223 2.753 2.958 1.14.736 2.309 1.398 3.505 1.987 0 1.03-.007 2.14-.021 3.332l-.01.88c-.007.863-.01 1.68-.01 2.453-.14-.059-.307-.14-.502-.243-.194-.103-.361-.198-.5-.287-.25-.176-.494-.382-.73-.618-.237-.235-.48-.47-.73-.706-.25-.235-.508-.441-.772-.618-.264-.176-.563-.28-.897-.309-.612-.088-1.112-.007-1.502.243-.39.25-.681.589-.876 1.015-.195.427-.271.898-.23 1.413.042.515.188.993.439 1.434.806 1.03 1.738 1.913 2.795 2.649s2.21 1.265 3.462 1.589c0 .677-.007.818-.02 1.612-.014.795.187 1.486.604 2.075.306.441.682.72 1.127.839zM7.006 14.2c-.5-.353-.897-.655-1.19-.905-.291-.25-.52-.478-.688-.684-.166-.206-.505-.807-.436-1.26.07-.454.36-.712.708-1.035.347-.324.883-.486 1.606-.486v4.37zm4.797 12.801c0-.765.007-1.604.021-2.516l.01-.67c.007-.657.011-1.272.011-1.846.64.353 1.182.721 1.627 1.104.445.382.737.78.876 1.192.14.412.084.823-.167 1.235-.25.412-.778.81-1.585 1.192-.139.06-.271.11-.396.155-.125.044-.258.095-.397.154z" transform="translate(-94.939582, -83.426652) translate(103.252577, 122.218256) rotate(-19.000000) translate(-103.252577, -122.218256) translate(8.198249, 81.144793) translate(85.600000, 23.389055) translate(0.000000, 0.000000) translate(0.000000, 0.000000) translate(0.000000, 0.000000) translate(0.000000, 0.000000) translate(0.000000, 0.000000)"/>
                                                </g>
                                            </g>
                                        </g>
                                    </g>
                                </g>
                            </g>
                        </g>
                        <g>
                            <g transform="translate(-94.939582, -83.426652) translate(340.649911, 295.639546) rotate(-5.000000) translate(-340.649911, -295.639546) translate(245.595582, 254.566082) translate(0.000000, 0.000000)">
                                <mask id="qrojzf1o9f" fill="#fff">
                                    <use xlink:href="#0scwrpl1xe"/>
                                </mask>
                                <use fill="#00CDC3" xlink:href="#0scwrpl1xe"/>
                                <ellipse cx=".019" cy="-.57" fill="#00A59D" mask="url(#qrojzf1o9f)" rx="28.552" ry="27.953"/>
                                <ellipse cx="94.798" cy="41.644" fill="#00A59D" mask="url(#qrojzf1o9f)" rx="30.883" ry="30.235"/>
                                <ellipse cx="41.473" cy="41.073" fill="#00A59D" mask="url(#qrojzf1o9f)" rx="9.323" ry="9.127"/>
                                <ellipse cx="147.617" cy="41.073" fill="#00A59D" mask="url(#qrojzf1o9f)" rx="9.323" ry="9.127"/>
                                <ellipse cx=".019" cy="82.717" fill="#00A59D" mask="url(#qrojzf1o9f)" rx="28.552" ry="27.953"/>
                                <ellipse cx="190.621" cy="-.57" fill="#00A59D" mask="url(#qrojzf1o9f)" rx="28.552" ry="27.953"/>
                                <ellipse cx="190.621" cy="82.717" fill="#00A59D" mask="url(#qrojzf1o9f)" rx="28.552" ry="27.953"/>
                            </g>
                            <g fill="#00CDC3" fill-rule="nonzero">
                                <g>
                                    <path d="M8.633 36.427c.445.117.883.11 1.314-.022.431-.133.813-.368 1.147-.707.334-.338.543-.743.626-1.214.083-.441.118-.941.104-1.5-.014-.56-.02-.45-.02-.862 1.056-.265 2.057-.618 3.003-1.06.946-.441 1.836-1.044 2.67-1.81.556-.5.994-1.14 1.314-1.92.32-.78.515-1.596.584-2.45.07-.853.007-1.692-.188-2.516-.194-.824-.528-1.53-1-2.118-.863-1.06-1.83-1.869-2.9-2.428-1.07-.56-2.218-1.089-3.442-1.59.028-.97.042-2.015.042-3.133V9.963c.334.117.66.25.98.397.32.147.64.287.96.42.32.132.646.227.98.286.334.059.681.059 1.043 0 .612-.118 1.064-.346 1.356-.684.292-.338.452-.714.48-1.126.027-.412-.063-.846-.272-1.302-.208-.456-.507-.86-.896-1.214-.612-.588-1.335-1.03-2.17-1.324-.834-.294-1.64-.544-2.42-.75-.083-1.638-.208-2.672-.375-3.104-.167-.412-.396-.743-.688-.993-.292-.25-.605-.42-.939-.508-.334-.088-.681-.08-1.043.022-.361.103-.681.331-.96.684-.25.295-.437.633-.563 1.016-.125.382-.208.78-.25 1.191-.028.275-.049.78-.062 1.515-1.03.177-2.059.596-3.088 1.258S2.07 7.22 1.374 8.175C.679 9.13.24 10.176.06 11.309c-.181 1.133.048 2.273.688 3.42.695 1.237 1.613 2.223 2.753 2.958 1.14.736 2.309 1.398 3.505 1.987 0 1.03-.007 2.14-.021 3.332l-.01.88c-.007.863-.01 1.68-.01 2.453-.14-.059-.307-.14-.502-.243-.194-.103-.361-.198-.5-.287-.25-.176-.494-.382-.73-.618-.237-.235-.48-.47-.73-.706-.25-.235-.508-.441-.772-.618-.264-.176-.563-.28-.897-.309-.612-.088-1.112-.007-1.502.243-.39.25-.681.589-.876 1.015-.195.427-.271.898-.23 1.413.042.515.188.993.439 1.434.806 1.03 1.738 1.913 2.795 2.649s2.21 1.265 3.462 1.589c0 .677-.007.818-.02 1.612-.014.795.187 1.486.604 2.075.306.441.682.72 1.127.839zM7.006 14.2c-.5-.353-.897-.655-1.19-.905-.291-.25-.52-.478-.688-.684-.166-.206-.505-.807-.436-1.26.07-.454.36-.712.708-1.035.347-.324.883-.486 1.606-.486v4.37zm4.797 12.801c0-.765.007-1.604.021-2.516l.01-.67c.007-.657.011-1.272.011-1.846.64.353 1.182.721 1.627 1.104.445.382.737.78.876 1.192.14.412.084.823-.167 1.235-.25.412-.778.81-1.585 1.192-.139.06-.271.11-.396.155-.125.044-.258.095-.397.154z" transform="translate(-94.939582, -83.426652) translate(340.649911, 295.639546) rotate(-5.000000) translate(-340.649911, -295.639546) translate(245.595582, 254.566082) translate(85.600000, 23.389055)"/>
                                </g>
                            </g>
                        </g>
                        <g>
                            <g transform="translate(-94.939582, -83.426652) translate(598.591244, 247.720505) rotate(49.000000) translate(-598.591244, -247.720505) translate(503.536916, 206.647042) translate(0.000000, 0.000000)">
                                <mask id="ilanx9w66h" fill="#fff">
                                    <use xlink:href="#rk5gy80o8g"/>
                                </mask>
                                <use fill="#00CDC3" xlink:href="#rk5gy80o8g"/>
                                <ellipse cx=".019" cy="82.717" fill="#00A59D" mask="url(#ilanx9w66h)" rx="28.552" ry="27.953"/>
                            </g>
                        </g>
                        <g>
                            <g transform="translate(-94.939582, -83.426652) translate(137.492577, 334.431150) rotate(-5.000000) translate(-137.492577, -334.431150) translate(42.438249, 293.357686) translate(0.000000, 0.000000)">
                                <mask id="p64ujrimxj" fill="#fff">
                                    <use xlink:href="#39uyjip2ii"/>
                                </mask>
                                <use fill="#00CDC3" xlink:href="#39uyjip2ii"/>
                                <ellipse cx="94.798" cy="41.644" fill="#00A59D" mask="url(#p64ujrimxj)" rx="30.883" ry="30.235"/>
                                <ellipse cx="147.617" cy="41.073" fill="#00A59D" mask="url(#p64ujrimxj)" rx="9.323" ry="9.127"/>
                                <ellipse cx="190.621" cy="-.57" fill="#00A59D" mask="url(#p64ujrimxj)" rx="28.552" ry="27.953"/>
                                <ellipse cx="190.621" cy="82.717" fill="#00A59D" mask="url(#p64ujrimxj)" rx="28.552" ry="27.953"/>
                            </g>
                            <g fill="#00CDC3" fill-rule="nonzero">
                                <g>
                                    <path d="M8.633 36.427c.445.117.883.11 1.314-.022.431-.133.813-.368 1.147-.707.334-.338.543-.743.626-1.214.083-.441.118-.941.104-1.5-.014-.56-.02-.45-.02-.862 1.056-.265 2.057-.618 3.003-1.06.946-.441 1.836-1.044 2.67-1.81.556-.5.994-1.14 1.314-1.92.32-.78.515-1.596.584-2.45.07-.853.007-1.692-.188-2.516-.194-.824-.528-1.53-1-2.118-.863-1.06-1.83-1.869-2.9-2.428-1.07-.56-2.218-1.089-3.442-1.59.028-.97.042-2.015.042-3.133V9.963c.334.117.66.25.98.397.32.147.64.287.96.42.32.132.646.227.98.286.334.059.681.059 1.043 0 .612-.118 1.064-.346 1.356-.684.292-.338.452-.714.48-1.126.027-.412-.063-.846-.272-1.302-.208-.456-.507-.86-.896-1.214-.612-.588-1.335-1.03-2.17-1.324-.834-.294-1.64-.544-2.42-.75-.083-1.638-.208-2.672-.375-3.104-.167-.412-.396-.743-.688-.993-.292-.25-.605-.42-.939-.508-.334-.088-.681-.08-1.043.022-.361.103-.681.331-.96.684-.25.295-.437.633-.563 1.016-.125.382-.208.78-.25 1.191-.028.275-.049.78-.062 1.515-1.03.177-2.059.596-3.088 1.258S2.07 7.22 1.374 8.175C.679 9.13.24 10.176.06 11.309c-.181 1.133.048 2.273.688 3.42.695 1.237 1.613 2.223 2.753 2.958 1.14.736 2.309 1.398 3.505 1.987 0 1.03-.007 2.14-.021 3.332l-.01.88c-.007.863-.01 1.68-.01 2.453-.14-.059-.307-.14-.502-.243-.194-.103-.361-.198-.5-.287-.25-.176-.494-.382-.73-.618-.237-.235-.48-.47-.73-.706-.25-.235-.508-.441-.772-.618-.264-.176-.563-.28-.897-.309-.612-.088-1.112-.007-1.502.243-.39.25-.681.589-.876 1.015-.195.427-.271.898-.23 1.413.042.515.188.993.439 1.434.806 1.03 1.738 1.913 2.795 2.649s2.21 1.265 3.462 1.589c0 .677-.007.818-.02 1.612-.014.795.187 1.486.604 2.075.306.441.682.72 1.127.839zM7.006 14.2c-.5-.353-.897-.655-1.19-.905-.291-.25-.52-.478-.688-.684-.166-.206-.505-.807-.436-1.26.07-.454.36-.712.708-1.035.347-.324.883-.486 1.606-.486v4.37zm4.797 12.801c0-.765.007-1.604.021-2.516l.01-.67c.007-.657.011-1.272.011-1.846.64.353 1.182.721 1.627 1.104.445.382.737.78.876 1.192.14.412.084.823-.167 1.235-.25.412-.778.81-1.585 1.192-.139.06-.271.11-.396.155-.125.044-.258.095-.397.154z" transform="translate(-94.939582, -83.426652) translate(137.492577, 334.431150) rotate(-5.000000) translate(-137.492577, -334.431150) translate(42.438249, 293.357686) translate(85.600000, 23.389055)"/>
                                </g>
                            </g>
                        </g>
                        <g>
                            <g transform="translate(-94.939582, -83.426652) translate(354.345911, 49.198766) rotate(-5.000000) translate(-354.345911, -49.198766) translate(259.291582, 8.125303) translate(0.000000, 0.000000)">
                                <mask id="pitjgfvzsl" fill="#fff">
                                    <use xlink:href="#ydme4pyv6k"/>
                                </mask>
                                <use fill="#00CDC3" xlink:href="#ydme4pyv6k"/>
                                <ellipse cx=".019" cy="82.717" fill="#00A59D" mask="url(#pitjgfvzsl)" rx="28.552" ry="27.953"/>
                                <ellipse cx="190.621" cy="82.717" fill="#00A59D" mask="url(#pitjgfvzsl)" rx="28.552" ry="27.953"/>
                            </g>
                        </g>
                        <g>
                            <g transform="translate(-94.939582, -83.426652) translate(276.735244, 122.218256) rotate(28.000000) translate(-276.735244, -122.218256) translate(181.680916, 81.144793) translate(0.000000, 0.000000)">
                                <mask id="1vnc9emsun" fill="#fff">
                                    <use xlink:href="#cw3i06d42m"/>
                                </mask>
                                <use fill="#00CDC3" xlink:href="#cw3i06d42m"/>
                                <ellipse cx="94.798" cy="41.644" fill="#00A59D" mask="url(#1vnc9emsun)" rx="30.883" ry="30.235"/>
                                <ellipse cx="41.473" cy="41.073" fill="#00A59D" mask="url(#1vnc9emsun)" rx="9.323" ry="9.127"/>
                                <ellipse cx="147.617" cy="41.073" fill="#00A59D" mask="url(#1vnc9emsun)" rx="9.323" ry="9.127"/>
                                <ellipse cx=".019" cy="82.717" fill="#00A59D" mask="url(#1vnc9emsun)" rx="28.552" ry="27.953"/>
                                <ellipse cx="190.621" cy="-.57" fill="#00A59D" mask="url(#1vnc9emsun)" rx="28.552" ry="27.953"/>
                                <ellipse cx="190.621" cy="82.717" fill="#00A59D" mask="url(#1vnc9emsun)" rx="28.552" ry="27.953"/>
                            </g>
                            <g fill="#00CDC3" fill-rule="nonzero">
                                <g>
                                    <path d="M8.633 36.427c.445.117.883.11 1.314-.022.431-.133.813-.368 1.147-.707.334-.338.543-.743.626-1.214.083-.441.118-.941.104-1.5-.014-.56-.02-.45-.02-.862 1.056-.265 2.057-.618 3.003-1.06.946-.441 1.836-1.044 2.67-1.81.556-.5.994-1.14 1.314-1.92.32-.78.515-1.596.584-2.45.07-.853.007-1.692-.188-2.516-.194-.824-.528-1.53-1-2.118-.863-1.06-1.83-1.869-2.9-2.428-1.07-.56-2.218-1.089-3.442-1.59.028-.97.042-2.015.042-3.133V9.963c.334.117.66.25.98.397.32.147.64.287.96.42.32.132.646.227.98.286.334.059.681.059 1.043 0 .612-.118 1.064-.346 1.356-.684.292-.338.452-.714.48-1.126.027-.412-.063-.846-.272-1.302-.208-.456-.507-.86-.896-1.214-.612-.588-1.335-1.03-2.17-1.324-.834-.294-1.64-.544-2.42-.75-.083-1.638-.208-2.672-.375-3.104-.167-.412-.396-.743-.688-.993-.292-.25-.605-.42-.939-.508-.334-.088-.681-.08-1.043.022-.361.103-.681.331-.96.684-.25.295-.437.633-.563 1.016-.125.382-.208.78-.25 1.191-.028.275-.049.78-.062 1.515-1.03.177-2.059.596-3.088 1.258S2.07 7.22 1.374 8.175C.679 9.13.24 10.176.06 11.309c-.181 1.133.048 2.273.688 3.42.695 1.237 1.613 2.223 2.753 2.958 1.14.736 2.309 1.398 3.505 1.987 0 1.03-.007 2.14-.021 3.332l-.01.88c-.007.863-.01 1.68-.01 2.453-.14-.059-.307-.14-.502-.243-.194-.103-.361-.198-.5-.287-.25-.176-.494-.382-.73-.618-.237-.235-.48-.47-.73-.706-.25-.235-.508-.441-.772-.618-.264-.176-.563-.28-.897-.309-.612-.088-1.112-.007-1.502.243-.39.25-.681.589-.876 1.015-.195.427-.271.898-.23 1.413.042.515.188.993.439 1.434.806 1.03 1.738 1.913 2.795 2.649s2.21 1.265 3.462 1.589c0 .677-.007.818-.02 1.612-.014.795.187 1.486.604 2.075.306.441.682.72 1.127.839zM7.006 14.2c-.5-.353-.897-.655-1.19-.905-.291-.25-.52-.478-.688-.684-.166-.206-.505-.807-.436-1.26.07-.454.36-.712.708-1.035.347-.324.883-.486 1.606-.486v4.37zm4.797 12.801c0-.765.007-1.604.021-2.516l.01-.67c.007-.657.011-1.272.011-1.846.64.353 1.182.721 1.627 1.104.445.382.737.78.876 1.192.14.412.084.823-.167 1.235-.25.412-.778.81-1.585 1.192-.139.06-.271.11-.396.155-.125.044-.258.095-.397.154z" transform="translate(-94.939582, -83.426652) translate(276.735244, 122.218256) rotate(28.000000) translate(-276.735244, -122.218256) translate(181.680916, 81.144793) translate(85.600000, 23.389055)"/>
                                </g>
                            </g>
                        </g>
                        <g>
                            <g transform="translate(-94.939582, -83.426652) translate(514.132577, 295.639546) rotate(28.000000) translate(-514.132577, -295.639546) translate(419.078249, 254.566082) translate(0.000000, 0.000000)">
                                <mask id="hklvrh95hp" fill="#fff">
                                    <use xlink:href="#8rp2jl98uo"/>
                                </mask>
                                <use fill="#00CDC3" xlink:href="#8rp2jl98uo"/>
                                <ellipse cx=".019" cy="-.57" fill="#00A59D" mask="url(#hklvrh95hp)" rx="28.552" ry="27.953"/>
                                <ellipse cx="94.798" cy="41.644" fill="#00A59D" mask="url(#hklvrh95hp)" rx="30.883" ry="30.235"/>
                                <ellipse cx="41.473" cy="41.073" fill="#00A59D" mask="url(#hklvrh95hp)" rx="9.323" ry="9.127"/>
                                <ellipse cx=".019" cy="82.717" fill="#00A59D" mask="url(#hklvrh95hp)" rx="28.552" ry="27.953"/>
                            </g>
                            <g fill="#00CDC3" fill-rule="nonzero">
                                <g>
                                    <g>
                                        <g>
                                            <g>
                                                <g>
                                                    <path d="M8.633 36.427c.445.117.883.11 1.314-.022.431-.133.813-.368 1.147-.707.334-.338.543-.743.626-1.214.083-.441.118-.941.104-1.5-.014-.56-.02-.45-.02-.862 1.056-.265 2.057-.618 3.003-1.06.946-.441 1.836-1.044 2.67-1.81.556-.5.994-1.14 1.314-1.92.32-.78.515-1.596.584-2.45.07-.853.007-1.692-.188-2.516-.194-.824-.528-1.53-1-2.118-.863-1.06-1.83-1.869-2.9-2.428-1.07-.56-2.218-1.089-3.442-1.59.028-.97.042-2.015.042-3.133V9.963c.334.117.66.25.98.397.32.147.64.287.96.42.32.132.646.227.98.286.334.059.681.059 1.043 0 .612-.118 1.064-.346 1.356-.684.292-.338.452-.714.48-1.126.027-.412-.063-.846-.272-1.302-.208-.456-.507-.86-.896-1.214-.612-.588-1.335-1.03-2.17-1.324-.834-.294-1.64-.544-2.42-.75-.083-1.638-.208-2.672-.375-3.104-.167-.412-.396-.743-.688-.993-.292-.25-.605-.42-.939-.508-.334-.088-.681-.08-1.043.022-.361.103-.681.331-.96.684-.25.295-.437.633-.563 1.016-.125.382-.208.78-.25 1.191-.028.275-.049.78-.062 1.515-1.03.177-2.059.596-3.088 1.258S2.07 7.22 1.374 8.175C.679 9.13.24 10.176.06 11.309c-.181 1.133.048 2.273.688 3.42.695 1.237 1.613 2.223 2.753 2.958 1.14.736 2.309 1.398 3.505 1.987 0 1.03-.007 2.14-.021 3.332l-.01.88c-.007.863-.01 1.68-.01 2.453-.14-.059-.307-.14-.502-.243-.194-.103-.361-.198-.5-.287-.25-.176-.494-.382-.73-.618-.237-.235-.48-.47-.73-.706-.25-.235-.508-.441-.772-.618-.264-.176-.563-.28-.897-.309-.612-.088-1.112-.007-1.502.243-.39.25-.681.589-.876 1.015-.195.427-.271.898-.23 1.413.042.515.188.993.439 1.434.806 1.03 1.738 1.913 2.795 2.649s2.21 1.265 3.462 1.589c0 .677-.007.818-.02 1.612-.014.795.187 1.486.604 2.075.306.441.682.72 1.127.839zM7.006 14.2c-.5-.353-.897-.655-1.19-.905-.291-.25-.52-.478-.688-.684-.166-.206-.505-.807-.436-1.26.07-.454.36-.712.708-1.035.347-.324.883-.486 1.606-.486v4.37zm4.797 12.801c0-.765.007-1.604.021-2.516l.01-.67c.007-.657.011-1.272.011-1.846.64.353 1.182.721 1.627 1.104.445.382.737.78.876 1.192.14.412.084.823-.167 1.235-.25.412-.778.81-1.585 1.192-.139.06-.271.11-.396.155-.125.044-.258.095-.397.154z" transform="translate(-94.939582, -83.426652) translate(514.132577, 295.639546) rotate(28.000000) translate(-514.132577, -295.639546) translate(419.078249, 254.566082) translate(85.600000, 23.389055) translate(0.000000, -0.000000) translate(0.000000, -0.000000) translate(0.000000, -0.000000) translate(0.000000, -0.000000) translate(0.000000, -0.000000)"/>
                                                </g>
                                            </g>
                                        </g>
                                    </g>
                                </g>
                            </g>
                        </g>
                        <g>
                            <g transform="translate(-94.939582, -83.426652) translate(161.460577, 175.841944) rotate(9.000000) translate(-161.460577, -175.841944) translate(66.406249, 134.768481) translate(0.000000, 0.000000)">
                                <mask id="iplnsgwv1r" fill="#fff">
                                    <use xlink:href="#6l3d1tzjdq"/>
                                </mask>
                                <use fill="#00CDC3" xlink:href="#6l3d1tzjdq"/>
                                <ellipse cx=".019" cy="-.57" fill="#00A59D" mask="url(#iplnsgwv1r)" rx="28.552" ry="27.953"/>
                                <ellipse cx="94.798" cy="41.644" fill="#00A59D" mask="url(#iplnsgwv1r)" rx="30.883" ry="30.235"/>
                                <ellipse cx="41.473" cy="41.073" fill="#00A59D" mask="url(#iplnsgwv1r)" rx="9.323" ry="9.127"/>
                                <ellipse cx="147.617" cy="41.073" fill="#00A59D" mask="url(#iplnsgwv1r)" rx="9.323" ry="9.127"/>
                                <ellipse cx="190.621" cy="-.57" fill="#00A59D" mask="url(#iplnsgwv1r)" rx="28.552" ry="27.953"/>
                                <ellipse cx="190.621" cy="82.717" fill="#00A59D" mask="url(#iplnsgwv1r)" rx="28.552" ry="27.953"/>
                            </g>
                            <g fill="#00CDC3" fill-rule="nonzero">
                                <g>
                                    <g>
                                        <g>
                                            <g>
                                                <g>
                                                    <path d="M8.633 36.427c.445.117.883.11 1.314-.022.431-.133.813-.368 1.147-.707.334-.338.543-.743.626-1.214.083-.441.118-.941.104-1.5-.014-.56-.02-.45-.02-.862 1.056-.265 2.057-.618 3.003-1.06.946-.441 1.836-1.044 2.67-1.81.556-.5.994-1.14 1.314-1.92.32-.78.515-1.596.584-2.45.07-.853.007-1.692-.188-2.516-.194-.824-.528-1.53-1-2.118-.863-1.06-1.83-1.869-2.9-2.428-1.07-.56-2.218-1.089-3.442-1.59.028-.97.042-2.015.042-3.133V9.963c.334.117.66.25.98.397.32.147.64.287.96.42.32.132.646.227.98.286.334.059.681.059 1.043 0 .612-.118 1.064-.346 1.356-.684.292-.338.452-.714.48-1.126.027-.412-.063-.846-.272-1.302-.208-.456-.507-.86-.896-1.214-.612-.588-1.335-1.03-2.17-1.324-.834-.294-1.64-.544-2.42-.75-.083-1.638-.208-2.672-.375-3.104-.167-.412-.396-.743-.688-.993-.292-.25-.605-.42-.939-.508-.334-.088-.681-.08-1.043.022-.361.103-.681.331-.96.684-.25.295-.437.633-.563 1.016-.125.382-.208.78-.25 1.191-.028.275-.049.78-.062 1.515-1.03.177-2.059.596-3.088 1.258S2.07 7.22 1.374 8.175C.679 9.13.24 10.176.06 11.309c-.181 1.133.048 2.273.688 3.42.695 1.237 1.613 2.223 2.753 2.958 1.14.736 2.309 1.398 3.505 1.987 0 1.03-.007 2.14-.021 3.332l-.01.88c-.007.863-.01 1.68-.01 2.453-.14-.059-.307-.14-.502-.243-.194-.103-.361-.198-.5-.287-.25-.176-.494-.382-.73-.618-.237-.235-.48-.47-.73-.706-.25-.235-.508-.441-.772-.618-.264-.176-.563-.28-.897-.309-.612-.088-1.112-.007-1.502.243-.39.25-.681.589-.876 1.015-.195.427-.271.898-.23 1.413.042.515.188.993.439 1.434.806 1.03 1.738 1.913 2.795 2.649s2.21 1.265 3.462 1.589c0 .677-.007.818-.02 1.612-.014.795.187 1.486.604 2.075.306.441.682.72 1.127.839zM7.006 14.2c-.5-.353-.897-.655-1.19-.905-.291-.25-.52-.478-.688-.684-.166-.206-.505-.807-.436-1.26.07-.454.36-.712.708-1.035.347-.324.883-.486 1.606-.486v4.37zm4.797 12.801c0-.765.007-1.604.021-2.516l.01-.67c.007-.657.011-1.272.011-1.846.64.353 1.182.721 1.627 1.104.445.382.737.78.876 1.192.14.412.084.823-.167 1.235-.25.412-.778.81-1.585 1.192-.139.06-.271.11-.396.155-.125.044-.258.095-.397.154z" transform="translate(-94.939582, -83.426652) translate(161.460577, 175.841944) rotate(9.000000) translate(-161.460577, -175.841944) translate(66.406249, 134.768481) translate(85.600000, 23.389055) translate(0.000000, 0.000000) translate(0.000000, 0.000000) translate(0.000000, 0.000000) translate(0.000000, 0.000000) translate(0.000000, 0.000000)"/>
                                                </g>
                                            </g>
                                        </g>
                                    </g>
                                </g>
                            </g>
                        </g>
                        <g>
                            <g transform="translate(-94.939582, -83.426652) translate(384.020577, 366.377177) rotate(9.000000) translate(-384.020577, -366.377177) translate(288.966249, 325.303713) translate(0.000000, 0.000000)">
                                <mask id="dl122oj7tt" fill="#fff">
                                    <use xlink:href="#vbpjwaemus"/>
                                </mask>
                                <use fill="#00CDC3" xlink:href="#vbpjwaemus"/>
                                <ellipse cx=".019" cy="-.57" fill="#00A59D" mask="url(#dl122oj7tt)" rx="28.552" ry="27.953"/>
                                <ellipse cx="94.798" cy="41.644" fill="#00A59D" mask="url(#dl122oj7tt)" rx="30.883" ry="30.235"/>
                                <ellipse cx="41.473" cy="41.073" fill="#00A59D" mask="url(#dl122oj7tt)" rx="9.323" ry="9.127"/>
                                <ellipse cx="147.617" cy="41.073" fill="#00A59D" mask="url(#dl122oj7tt)" rx="9.323" ry="9.127"/>
                                <ellipse cx=".019" cy="82.717" fill="#00A59D" mask="url(#dl122oj7tt)" rx="28.552" ry="27.953"/>
                                <ellipse cx="190.621" cy="-.57" fill="#00A59D" mask="url(#dl122oj7tt)" rx="28.552" ry="27.953"/>
                                <ellipse cx="190.621" cy="82.717" fill="#00A59D" mask="url(#dl122oj7tt)" rx="28.552" ry="27.953"/>
                            </g>
                            <g fill="#00CDC3" fill-rule="nonzero">
                                <g>
                                    <g>
                                        <g>
                                            <g>
                                                <g>
                                                    <path d="M8.633 36.427c.445.117.883.11 1.314-.022.431-.133.813-.368 1.147-.707.334-.338.543-.743.626-1.214.083-.441.118-.941.104-1.5-.014-.56-.02-.45-.02-.862 1.056-.265 2.057-.618 3.003-1.06.946-.441 1.836-1.044 2.67-1.81.556-.5.994-1.14 1.314-1.92.32-.78.515-1.596.584-2.45.07-.853.007-1.692-.188-2.516-.194-.824-.528-1.53-1-2.118-.863-1.06-1.83-1.869-2.9-2.428-1.07-.56-2.218-1.089-3.442-1.59.028-.97.042-2.015.042-3.133V9.963c.334.117.66.25.98.397.32.147.64.287.96.42.32.132.646.227.98.286.334.059.681.059 1.043 0 .612-.118 1.064-.346 1.356-.684.292-.338.452-.714.48-1.126.027-.412-.063-.846-.272-1.302-.208-.456-.507-.86-.896-1.214-.612-.588-1.335-1.03-2.17-1.324-.834-.294-1.64-.544-2.42-.75-.083-1.638-.208-2.672-.375-3.104-.167-.412-.396-.743-.688-.993-.292-.25-.605-.42-.939-.508-.334-.088-.681-.08-1.043.022-.361.103-.681.331-.96.684-.25.295-.437.633-.563 1.016-.125.382-.208.78-.25 1.191-.028.275-.049.78-.062 1.515-1.03.177-2.059.596-3.088 1.258S2.07 7.22 1.374 8.175C.679 9.13.24 10.176.06 11.309c-.181 1.133.048 2.273.688 3.42.695 1.237 1.613 2.223 2.753 2.958 1.14.736 2.309 1.398 3.505 1.987 0 1.03-.007 2.14-.021 3.332l-.01.88c-.007.863-.01 1.68-.01 2.453-.14-.059-.307-.14-.502-.243-.194-.103-.361-.198-.5-.287-.25-.176-.494-.382-.73-.618-.237-.235-.48-.47-.73-.706-.25-.235-.508-.441-.772-.618-.264-.176-.563-.28-.897-.309-.612-.088-1.112-.007-1.502.243-.39.25-.681.589-.876 1.015-.195.427-.271.898-.23 1.413.042.515.188.993.439 1.434.806 1.03 1.738 1.913 2.795 2.649s2.21 1.265 3.462 1.589c0 .677-.007.818-.02 1.612-.014.795.187 1.486.604 2.075.306.441.682.72 1.127.839zM7.006 14.2c-.5-.353-.897-.655-1.19-.905-.291-.25-.52-.478-.688-.684-.166-.206-.505-.807-.436-1.26.07-.454.36-.712.708-1.035.347-.324.883-.486 1.606-.486v4.37zm4.797 12.801c0-.765.007-1.604.021-2.516l.01-.67c.007-.657.011-1.272.011-1.846.64.353 1.182.721 1.627 1.104.445.382.737.78.876 1.192.14.412.084.823-.167 1.235-.25.412-.778.81-1.585 1.192-.139.06-.271.11-.396.155-.125.044-.258.095-.397.154z" transform="translate(-94.939582, -83.426652) translate(384.020577, 366.377177) rotate(9.000000) translate(-384.020577, -366.377177) translate(288.966249, 325.303713) translate(85.600000, 23.389055) translate(0.000000, -0.000000) translate(0.000000, -0.000000) translate(0.000000, -0.000000) translate(0.000000, -0.000000) translate(0.000000, -0.000000)"/>
                                                </g>
                                            </g>
                                        </g>
                                    </g>
                                </g>
                            </g>
                        </g>
                        <g>
                            <g transform="translate(-94.939582, -83.426652) translate(195.700577, 388.054838) rotate(9.000000) translate(-195.700577, -388.054838) translate(100.646249, 346.981375) translate(0.000000, 0.000000)">
                                <mask id="ryc43nk0wv" fill="#fff">
                                    <use xlink:href="#65dqx0situ"/>
                                </mask>
                                <use fill="#00CDC3" xlink:href="#65dqx0situ"/>
                                <ellipse cx=".019" cy="-.57" fill="#00A59D" mask="url(#ryc43nk0wv)" rx="28.552" ry="27.953"/>
                                <ellipse cx="94.798" cy="41.644" fill="#00A59D" mask="url(#ryc43nk0wv)" rx="30.883" ry="30.235"/>
                                <ellipse cx="41.473" cy="41.073" fill="#00A59D" mask="url(#ryc43nk0wv)" rx="9.323" ry="9.127"/>
                                <ellipse cx="147.617" cy="41.073" fill="#00A59D" mask="url(#ryc43nk0wv)" rx="9.323" ry="9.127"/>
                                <ellipse cx=".019" cy="82.717" fill="#00A59D" mask="url(#ryc43nk0wv)" rx="28.552" ry="27.953"/>
                                <ellipse cx="190.621" cy="-.57" fill="#00A59D" mask="url(#ryc43nk0wv)" rx="28.552" ry="27.953"/>
                                <ellipse cx="190.621" cy="82.717" fill="#00A59D" mask="url(#ryc43nk0wv)" rx="28.552" ry="27.953"/>
                            </g>
                            <g fill="#00CDC3" fill-rule="nonzero">
                                <g>
                                    <g>
                                        <g>
                                            <g>
                                                <g>
                                                    <path d="M8.633 36.427c.445.117.883.11 1.314-.022.431-.133.813-.368 1.147-.707.334-.338.543-.743.626-1.214.083-.441.118-.941.104-1.5-.014-.56-.02-.45-.02-.862 1.056-.265 2.057-.618 3.003-1.06.946-.441 1.836-1.044 2.67-1.81.556-.5.994-1.14 1.314-1.92.32-.78.515-1.596.584-2.45.07-.853.007-1.692-.188-2.516-.194-.824-.528-1.53-1-2.118-.863-1.06-1.83-1.869-2.9-2.428-1.07-.56-2.218-1.089-3.442-1.59.028-.97.042-2.015.042-3.133V9.963c.334.117.66.25.98.397.32.147.64.287.96.42.32.132.646.227.98.286.334.059.681.059 1.043 0 .612-.118 1.064-.346 1.356-.684.292-.338.452-.714.48-1.126.027-.412-.063-.846-.272-1.302-.208-.456-.507-.86-.896-1.214-.612-.588-1.335-1.03-2.17-1.324-.834-.294-1.64-.544-2.42-.75-.083-1.638-.208-2.672-.375-3.104-.167-.412-.396-.743-.688-.993-.292-.25-.605-.42-.939-.508-.334-.088-.681-.08-1.043.022-.361.103-.681.331-.96.684-.25.295-.437.633-.563 1.016-.125.382-.208.78-.25 1.191-.028.275-.049.78-.062 1.515-1.03.177-2.059.596-3.088 1.258S2.07 7.22 1.374 8.175C.679 9.13.24 10.176.06 11.309c-.181 1.133.048 2.273.688 3.42.695 1.237 1.613 2.223 2.753 2.958 1.14.736 2.309 1.398 3.505 1.987 0 1.03-.007 2.14-.021 3.332l-.01.88c-.007.863-.01 1.68-.01 2.453-.14-.059-.307-.14-.502-.243-.194-.103-.361-.198-.5-.287-.25-.176-.494-.382-.73-.618-.237-.235-.48-.47-.73-.706-.25-.235-.508-.441-.772-.618-.264-.176-.563-.28-.897-.309-.612-.088-1.112-.007-1.502.243-.39.25-.681.589-.876 1.015-.195.427-.271.898-.23 1.413.042.515.188.993.439 1.434.806 1.03 1.738 1.913 2.795 2.649s2.21 1.265 3.462 1.589c0 .677-.007.818-.02 1.612-.014.795.187 1.486.604 2.075.306.441.682.72 1.127.839zM7.006 14.2c-.5-.353-.897-.655-1.19-.905-.291-.25-.52-.478-.688-.684-.166-.206-.505-.807-.436-1.26.07-.454.36-.712.708-1.035.347-.324.883-.486 1.606-.486v4.37zm4.797 12.801c0-.765.007-1.604.021-2.516l.01-.67c.007-.657.011-1.272.011-1.846.64.353 1.182.721 1.627 1.104.445.382.737.78.876 1.192.14.412.084.823-.167 1.235-.25.412-.778.81-1.585 1.192-.139.06-.271.11-.396.155-.125.044-.258.095-.397.154z" transform="translate(-94.939582, -83.426652) translate(195.700577, 388.054838) rotate(9.000000) translate(-195.700577, -388.054838) translate(100.646249, 346.981375) translate(85.600000, 23.389055) translate(0.000000, -0.000000) translate(0.000000, -0.000000) translate(0.000000, -0.000000) translate(0.000000, -0.000000) translate(0.000000, -0.000000)"/>
                                                </g>
                                            </g>
                                        </g>
                                    </g>
                                </g>
                            </g>
                        </g>
                        <g>
                            <g transform="translate(-94.939582, -83.426652) translate(460.489911, 113.090820) rotate(9.000000) translate(-460.489911, -113.090820) translate(365.435582, 72.017357) translate(0.000000, 0.000000)">
                                <mask id="nkle2xb6dx" fill="#fff">
                                    <use xlink:href="#7edpqvz05w"/>
                                </mask>
                                <use fill="#00CDC3" xlink:href="#7edpqvz05w"/>
                                <ellipse cx=".019" cy="-.57" fill="#00A59D" mask="url(#nkle2xb6dx)" rx="28.552" ry="27.953"/>
                                <ellipse cx="94.798" cy="41.644" fill="#00A59D" mask="url(#nkle2xb6dx)" rx="30.883" ry="30.235"/>
                                <ellipse cx="41.473" cy="41.073" fill="#00A59D" mask="url(#nkle2xb6dx)" rx="9.323" ry="9.127"/>
                                <ellipse cx="147.617" cy="41.073" fill="#00A59D" mask="url(#nkle2xb6dx)" rx="9.323" ry="9.127"/>
                                <ellipse cx=".019" cy="82.717" fill="#00A59D" mask="url(#nkle2xb6dx)" rx="28.552" ry="27.953"/>
                                <ellipse cx="190.621" cy="82.717" fill="#00A59D" mask="url(#nkle2xb6dx)" rx="28.552" ry="27.953"/>
                            </g>
                            <g fill="#00CDC3" fill-rule="nonzero">
                                <g>
                                    <g>
                                        <g>
                                            <g>
                                                <g>
                                                    <path d="M8.633 36.427c.445.117.883.11 1.314-.022.431-.133.813-.368 1.147-.707.334-.338.543-.743.626-1.214.083-.441.118-.941.104-1.5-.014-.56-.02-.45-.02-.862 1.056-.265 2.057-.618 3.003-1.06.946-.441 1.836-1.044 2.67-1.81.556-.5.994-1.14 1.314-1.92.32-.78.515-1.596.584-2.45.07-.853.007-1.692-.188-2.516-.194-.824-.528-1.53-1-2.118-.863-1.06-1.83-1.869-2.9-2.428-1.07-.56-2.218-1.089-3.442-1.59.028-.97.042-2.015.042-3.133V9.963c.334.117.66.25.98.397.32.147.64.287.96.42.32.132.646.227.98.286.334.059.681.059 1.043 0 .612-.118 1.064-.346 1.356-.684.292-.338.452-.714.48-1.126.027-.412-.063-.846-.272-1.302-.208-.456-.507-.86-.896-1.214-.612-.588-1.335-1.03-2.17-1.324-.834-.294-1.64-.544-2.42-.75-.083-1.638-.208-2.672-.375-3.104-.167-.412-.396-.743-.688-.993-.292-.25-.605-.42-.939-.508-.334-.088-.681-.08-1.043.022-.361.103-.681.331-.96.684-.25.295-.437.633-.563 1.016-.125.382-.208.78-.25 1.191-.028.275-.049.78-.062 1.515-1.03.177-2.059.596-3.088 1.258S2.07 7.22 1.374 8.175C.679 9.13.24 10.176.06 11.309c-.181 1.133.048 2.273.688 3.42.695 1.237 1.613 2.223 2.753 2.958 1.14.736 2.309 1.398 3.505 1.987 0 1.03-.007 2.14-.021 3.332l-.01.88c-.007.863-.01 1.68-.01 2.453-.14-.059-.307-.14-.502-.243-.194-.103-.361-.198-.5-.287-.25-.176-.494-.382-.73-.618-.237-.235-.48-.47-.73-.706-.25-.235-.508-.441-.772-.618-.264-.176-.563-.28-.897-.309-.612-.088-1.112-.007-1.502.243-.39.25-.681.589-.876 1.015-.195.427-.271.898-.23 1.413.042.515.188.993.439 1.434.806 1.03 1.738 1.913 2.795 2.649s2.21 1.265 3.462 1.589c0 .677-.007.818-.02 1.612-.014.795.187 1.486.604 2.075.306.441.682.72 1.127.839zM7.006 14.2c-.5-.353-.897-.655-1.19-.905-.291-.25-.52-.478-.688-.684-.166-.206-.505-.807-.436-1.26.07-.454.36-.712.708-1.035.347-.324.883-.486 1.606-.486v4.37zm4.797 12.801c0-.765.007-1.604.021-2.516l.01-.67c.007-.657.011-1.272.011-1.846.64.353 1.182.721 1.627 1.104.445.382.737.78.876 1.192.14.412.084.823-.167 1.235-.25.412-.778.81-1.585 1.192-.139.06-.271.11-.396.155-.125.044-.258.095-.397.154z" transform="translate(-94.939582, -83.426652) translate(460.489911, 113.090820) rotate(9.000000) translate(-460.489911, -113.090820) translate(365.435582, 72.017357) translate(85.600000, 23.389055) translate(0.000000, -0.000000) translate(0.000000, -0.000000) translate(0.000000, -0.000000) translate(0.000000, -0.000000) translate(0.000000, -0.000000)"/>
                                                </g>
                                            </g>
                                        </g>
                                    </g>
                                </g>
                            </g>
                        </g>
                        <g>
                            <g transform="translate(-94.939582, -83.426652) translate(118.089911, 239.733998) rotate(-20.000000) translate(-118.089911, -239.733998) translate(23.035582, 198.660535) translate(0.000000, 0.000000)">
                                <mask id="srwh4evlez" fill="#fff">
                                    <use xlink:href="#ywzh1zc94y"/>
                                </mask>
                                <use fill="#00CDC3" xlink:href="#ywzh1zc94y"/>
                                <ellipse cx="94.798" cy="41.644" fill="#00A59D" mask="url(#srwh4evlez)" rx="30.883" ry="30.235"/>
                                <ellipse cx="147.617" cy="41.073" fill="#00A59D" mask="url(#srwh4evlez)" rx="9.323" ry="9.127"/>
                                <ellipse cx="190.621" cy="-.57" fill="#00A59D" mask="url(#srwh4evlez)" rx="28.552" ry="27.953"/>
                                <ellipse cx="190.621" cy="82.717" fill="#00A59D" mask="url(#srwh4evlez)" rx="28.552" ry="27.953"/>
                            </g>
                            <g fill="#00CDC3" fill-rule="nonzero">
                                <g>
                                    <g>
                                        <g>
                                            <g>
                                                <g>
                                                    <path d="M8.633 36.427c.445.117.883.11 1.314-.022.431-.133.813-.368 1.147-.707.334-.338.543-.743.626-1.214.083-.441.118-.941.104-1.5-.014-.56-.02-.45-.02-.862 1.056-.265 2.057-.618 3.003-1.06.946-.441 1.836-1.044 2.67-1.81.556-.5.994-1.14 1.314-1.92.32-.78.515-1.596.584-2.45.07-.853.007-1.692-.188-2.516-.194-.824-.528-1.53-1-2.118-.863-1.06-1.83-1.869-2.9-2.428-1.07-.56-2.218-1.089-3.442-1.59.028-.97.042-2.015.042-3.133V9.963c.334.117.66.25.98.397.32.147.64.287.96.42.32.132.646.227.98.286.334.059.681.059 1.043 0 .612-.118 1.064-.346 1.356-.684.292-.338.452-.714.48-1.126.027-.412-.063-.846-.272-1.302-.208-.456-.507-.86-.896-1.214-.612-.588-1.335-1.03-2.17-1.324-.834-.294-1.64-.544-2.42-.75-.083-1.638-.208-2.672-.375-3.104-.167-.412-.396-.743-.688-.993-.292-.25-.605-.42-.939-.508-.334-.088-.681-.08-1.043.022-.361.103-.681.331-.96.684-.25.295-.437.633-.563 1.016-.125.382-.208.78-.25 1.191-.028.275-.049.78-.062 1.515-1.03.177-2.059.596-3.088 1.258S2.07 7.22 1.374 8.175C.679 9.13.24 10.176.06 11.309c-.181 1.133.048 2.273.688 3.42.695 1.237 1.613 2.223 2.753 2.958 1.14.736 2.309 1.398 3.505 1.987 0 1.03-.007 2.14-.021 3.332l-.01.88c-.007.863-.01 1.68-.01 2.453-.14-.059-.307-.14-.502-.243-.194-.103-.361-.198-.5-.287-.25-.176-.494-.382-.73-.618-.237-.235-.48-.47-.73-.706-.25-.235-.508-.441-.772-.618-.264-.176-.563-.28-.897-.309-.612-.088-1.112-.007-1.502.243-.39.25-.681.589-.876 1.015-.195.427-.271.898-.23 1.413.042.515.188.993.439 1.434.806 1.03 1.738 1.913 2.795 2.649s2.21 1.265 3.462 1.589c0 .677-.007.818-.02 1.612-.014.795.187 1.486.604 2.075.306.441.682.72 1.127.839zM7.006 14.2c-.5-.353-.897-.655-1.19-.905-.291-.25-.52-.478-.688-.684-.166-.206-.505-.807-.436-1.26.07-.454.36-.712.708-1.035.347-.324.883-.486 1.606-.486v4.37zm4.797 12.801c0-.765.007-1.604.021-2.516l.01-.67c.007-.657.011-1.272.011-1.846.64.353 1.182.721 1.627 1.104.445.382.737.78.876 1.192.14.412.084.823-.167 1.235-.25.412-.778.81-1.585 1.192-.139.06-.271.11-.396.155-.125.044-.258.095-.397.154z" transform="translate(-94.939582, -83.426652) translate(118.089911, 239.733998) rotate(-20.000000) translate(-118.089911, -239.733998) translate(23.035582, 198.660535) translate(85.600000, 23.389055) translate(0.000000, 0.000000) translate(0.000000, 0.000000) translate(0.000000, 0.000000) translate(0.000000, 0.000000) translate(0.000000, 0.000000)"/>
                                                </g>
                                            </g>
                                        </g>
                                    </g>
                                </g>
                            </g>
                        </g>
                        <g>
                            <g transform="translate(-94.939582, -83.426652) translate(317.823244, 470.201764) rotate(-20.000000) translate(-317.823244, -470.201764) translate(222.768916, 429.128301) translate(0.000000, 0.000000)">
                                <mask id="636y042tbB" fill="#fff">
                                    <use xlink:href="#w5u6lw3ygA"/>
                                </mask>
                                <use fill="#00CDC3" xlink:href="#w5u6lw3ygA"/>
                                <ellipse cx=".019" cy="-.57" fill="#00A59D" mask="url(#636y042tbB)" rx="28.552" ry="27.953"/>
                                <ellipse cx="94.798" cy="41.644" fill="#00A59D" mask="url(#636y042tbB)" rx="30.883" ry="30.235"/>
                                <ellipse cx="41.473" cy="41.073" fill="#00A59D" mask="url(#636y042tbB)" rx="9.323" ry="9.127"/>
                                <ellipse cx="147.617" cy="41.073" fill="#00A59D" mask="url(#636y042tbB)" rx="9.323" ry="9.127"/>
                                <ellipse cx=".019" cy="82.717" fill="#00A59D" mask="url(#636y042tbB)" rx="28.552" ry="27.953"/>
                                <ellipse cx="190.621" cy="-.57" fill="#00A59D" mask="url(#636y042tbB)" rx="28.552" ry="27.953"/>
                                <ellipse cx="190.621" cy="82.717" fill="#00A59D" mask="url(#636y042tbB)" rx="28.552" ry="27.953"/>
                            </g>
                            <g fill="#00CDC3" fill-rule="nonzero">
                                <g>
                                    <g>
                                        <g>
                                            <g>
                                                <g>
                                                    <path d="M8.633 36.427c.445.117.883.11 1.314-.022.431-.133.813-.368 1.147-.707.334-.338.543-.743.626-1.214.083-.441.118-.941.104-1.5-.014-.56-.02-.45-.02-.862 1.056-.265 2.057-.618 3.003-1.06.946-.441 1.836-1.044 2.67-1.81.556-.5.994-1.14 1.314-1.92.32-.78.515-1.596.584-2.45.07-.853.007-1.692-.188-2.516-.194-.824-.528-1.53-1-2.118-.863-1.06-1.83-1.869-2.9-2.428-1.07-.56-2.218-1.089-3.442-1.59.028-.97.042-2.015.042-3.133V9.963c.334.117.66.25.98.397.32.147.64.287.96.42.32.132.646.227.98.286.334.059.681.059 1.043 0 .612-.118 1.064-.346 1.356-.684.292-.338.452-.714.48-1.126.027-.412-.063-.846-.272-1.302-.208-.456-.507-.86-.896-1.214-.612-.588-1.335-1.03-2.17-1.324-.834-.294-1.64-.544-2.42-.75-.083-1.638-.208-2.672-.375-3.104-.167-.412-.396-.743-.688-.993-.292-.25-.605-.42-.939-.508-.334-.088-.681-.08-1.043.022-.361.103-.681.331-.96.684-.25.295-.437.633-.563 1.016-.125.382-.208.78-.25 1.191-.028.275-.049.78-.062 1.515-1.03.177-2.059.596-3.088 1.258S2.07 7.22 1.374 8.175C.679 9.13.24 10.176.06 11.309c-.181 1.133.048 2.273.688 3.42.695 1.237 1.613 2.223 2.753 2.958 1.14.736 2.309 1.398 3.505 1.987 0 1.03-.007 2.14-.021 3.332l-.01.88c-.007.863-.01 1.68-.01 2.453-.14-.059-.307-.14-.502-.243-.194-.103-.361-.198-.5-.287-.25-.176-.494-.382-.73-.618-.237-.235-.48-.47-.73-.706-.25-.235-.508-.441-.772-.618-.264-.176-.563-.28-.897-.309-.612-.088-1.112-.007-1.502.243-.39.25-.681.589-.876 1.015-.195.427-.271.898-.23 1.413.042.515.188.993.439 1.434.806 1.03 1.738 1.913 2.795 2.649s2.21 1.265 3.462 1.589c0 .677-.007.818-.02 1.612-.014.795.187 1.486.604 2.075.306.441.682.72 1.127.839zM7.006 14.2c-.5-.353-.897-.655-1.19-.905-.291-.25-.52-.478-.688-.684-.166-.206-.505-.807-.436-1.26.07-.454.36-.712.708-1.035.347-.324.883-.486 1.606-.486v4.37zm4.797 12.801c0-.765.007-1.604.021-2.516l.01-.67c.007-.657.011-1.272.011-1.846.64.353 1.182.721 1.627 1.104.445.382.737.78.876 1.192.14.412.084.823-.167 1.235-.25.412-.778.81-1.585 1.192-.139.06-.271.11-.396.155-.125.044-.258.095-.397.154z" transform="translate(-94.939582, -83.426652) translate(317.823244, 470.201764) rotate(-20.000000) translate(-317.823244, -470.201764) translate(222.768916, 429.128301) translate(85.600000, 23.389055) translate(0.000000, 0.000000) translate(0.000000, 0.000000) translate(0.000000, 0.000000) translate(0.000000, 0.000000) translate(0.000000, 0.000000)"/>
                                                </g>
                                            </g>
                                        </g>
                                    </g>
                                </g>
                            </g>
                        </g>
                        <g>
                            <g transform="translate(-94.939582, -83.426652) translate(152.329911, 451.946892) rotate(-20.000000) translate(-152.329911, -451.946892) translate(57.275582, 410.873429) translate(0.000000, 0.000000)">
                                <mask id="ujrb7ldubD" fill="#fff">
                                    <use xlink:href="#qnna15o2iC"/>
                                </mask>
                                <use fill="#00CDC3" xlink:href="#qnna15o2iC"/>
                                <ellipse cx="94.798" cy="41.644" fill="#00A59D" mask="url(#ujrb7ldubD)" rx="30.883" ry="30.235"/>
                                <ellipse cx="41.473" cy="41.073" fill="#00A59D" mask="url(#ujrb7ldubD)" rx="9.323" ry="9.127"/>
                                <ellipse cx="147.617" cy="41.073" fill="#00A59D" mask="url(#ujrb7ldubD)" rx="9.323" ry="9.127"/>
                                <ellipse cx=".019" cy="82.717" fill="#00A59D" mask="url(#ujrb7ldubD)" rx="28.552" ry="27.953"/>
                                <ellipse cx="190.621" cy="-.57" fill="#00A59D" mask="url(#ujrb7ldubD)" rx="28.552" ry="27.953"/>
                                <ellipse cx="190.621" cy="82.717" fill="#00A59D" mask="url(#ujrb7ldubD)" rx="28.552" ry="27.953"/>
                            </g>
                            <g fill="#00CDC3" fill-rule="nonzero">
                                <g>
                                    <g>
                                        <g>
                                            <g>
                                                <g>
                                                    <path d="M8.633 36.427c.445.117.883.11 1.314-.022.431-.133.813-.368 1.147-.707.334-.338.543-.743.626-1.214.083-.441.118-.941.104-1.5-.014-.56-.02-.45-.02-.862 1.056-.265 2.057-.618 3.003-1.06.946-.441 1.836-1.044 2.67-1.81.556-.5.994-1.14 1.314-1.92.32-.78.515-1.596.584-2.45.07-.853.007-1.692-.188-2.516-.194-.824-.528-1.53-1-2.118-.863-1.06-1.83-1.869-2.9-2.428-1.07-.56-2.218-1.089-3.442-1.59.028-.97.042-2.015.042-3.133V9.963c.334.117.66.25.98.397.32.147.64.287.96.42.32.132.646.227.98.286.334.059.681.059 1.043 0 .612-.118 1.064-.346 1.356-.684.292-.338.452-.714.48-1.126.027-.412-.063-.846-.272-1.302-.208-.456-.507-.86-.896-1.214-.612-.588-1.335-1.03-2.17-1.324-.834-.294-1.64-.544-2.42-.75-.083-1.638-.208-2.672-.375-3.104-.167-.412-.396-.743-.688-.993-.292-.25-.605-.42-.939-.508-.334-.088-.681-.08-1.043.022-.361.103-.681.331-.96.684-.25.295-.437.633-.563 1.016-.125.382-.208.78-.25 1.191-.028.275-.049.78-.062 1.515-1.03.177-2.059.596-3.088 1.258S2.07 7.22 1.374 8.175C.679 9.13.24 10.176.06 11.309c-.181 1.133.048 2.273.688 3.42.695 1.237 1.613 2.223 2.753 2.958 1.14.736 2.309 1.398 3.505 1.987 0 1.03-.007 2.14-.021 3.332l-.01.88c-.007.863-.01 1.68-.01 2.453-.14-.059-.307-.14-.502-.243-.194-.103-.361-.198-.5-.287-.25-.176-.494-.382-.73-.618-.237-.235-.48-.47-.73-.706-.25-.235-.508-.441-.772-.618-.264-.176-.563-.28-.897-.309-.612-.088-1.112-.007-1.502.243-.39.25-.681.589-.876 1.015-.195.427-.271.898-.23 1.413.042.515.188.993.439 1.434.806 1.03 1.738 1.913 2.795 2.649s2.21 1.265 3.462 1.589c0 .677-.007.818-.02 1.612-.014.795.187 1.486.604 2.075.306.441.682.72 1.127.839zM7.006 14.2c-.5-.353-.897-.655-1.19-.905-.291-.25-.52-.478-.688-.684-.166-.206-.505-.807-.436-1.26.07-.454.36-.712.708-1.035.347-.324.883-.486 1.606-.486v4.37zm4.797 12.801c0-.765.007-1.604.021-2.516l.01-.67c.007-.657.011-1.272.011-1.846.64.353 1.182.721 1.627 1.104.445.382.737.78.876 1.192.14.412.084.823-.167 1.235-.25.412-.778.81-1.585 1.192-.139.06-.271.11-.396.155-.125.044-.258.095-.397.154z" transform="translate(-94.939582, -83.426652) translate(152.329911, 451.946892) rotate(-20.000000) translate(-152.329911, -451.946892) translate(57.275582, 410.873429) translate(85.600000, 23.389055) translate(0.000000, 0.000000) translate(0.000000, 0.000000) translate(0.000000, 0.000000) translate(0.000000, 0.000000) translate(0.000000, 0.000000)"/>
                                                </g>
                                            </g>
                                        </g>
                                    </g>
                                </g>
                            </g>
                        </g>
                        <g>
                            <g transform="translate(-94.939582, -83.426652) translate(463.913911, 188.392169) rotate(-20.000000) translate(-463.913911, -188.392169) translate(368.859582, 147.318706) translate(0.000000, 0.000000)">
                                <mask id="zyoyuxk86F" fill="#fff">
                                    <use xlink:href="#zt8u8wezxE"/>
                                </mask>
                                <use fill="#00CDC3" xlink:href="#zt8u8wezxE"/>
                                <ellipse cx=".019" cy="-.57" fill="#00A59D" mask="url(#zyoyuxk86F)" rx="28.552" ry="27.953"/>
                                <ellipse cx="94.798" cy="41.644" fill="#00A59D" mask="url(#zyoyuxk86F)" rx="30.883" ry="30.235"/>
                                <ellipse cx="41.473" cy="41.073" fill="#00A59D" mask="url(#zyoyuxk86F)" rx="9.323" ry="9.127"/>
                                <ellipse cx="147.617" cy="41.073" fill="#00A59D" mask="url(#zyoyuxk86F)" rx="9.323" ry="9.127"/>
                                <ellipse cx=".019" cy="82.717" fill="#00A59D" mask="url(#zyoyuxk86F)" rx="28.552" ry="27.953"/>
                                <ellipse cx="190.621" cy="-.57" fill="#00A59D" mask="url(#zyoyuxk86F)" rx="28.552" ry="27.953"/>
                            </g>
                            <g fill="#00CDC3" fill-rule="nonzero">
                                <g>
                                    <g>
                                        <g>
                                            <g>
                                                <g>
                                                    <path d="M8.633 36.427c.445.117.883.11 1.314-.022.431-.133.813-.368 1.147-.707.334-.338.543-.743.626-1.214.083-.441.118-.941.104-1.5-.014-.56-.02-.45-.02-.862 1.056-.265 2.057-.618 3.003-1.06.946-.441 1.836-1.044 2.67-1.81.556-.5.994-1.14 1.314-1.92.32-.78.515-1.596.584-2.45.07-.853.007-1.692-.188-2.516-.194-.824-.528-1.53-1-2.118-.863-1.06-1.83-1.869-2.9-2.428-1.07-.56-2.218-1.089-3.442-1.59.028-.97.042-2.015.042-3.133V9.963c.334.117.66.25.98.397.32.147.64.287.96.42.32.132.646.227.98.286.334.059.681.059 1.043 0 .612-.118 1.064-.346 1.356-.684.292-.338.452-.714.48-1.126.027-.412-.063-.846-.272-1.302-.208-.456-.507-.86-.896-1.214-.612-.588-1.335-1.03-2.17-1.324-.834-.294-1.64-.544-2.42-.75-.083-1.638-.208-2.672-.375-3.104-.167-.412-.396-.743-.688-.993-.292-.25-.605-.42-.939-.508-.334-.088-.681-.08-1.043.022-.361.103-.681.331-.96.684-.25.295-.437.633-.563 1.016-.125.382-.208.78-.25 1.191-.028.275-.049.78-.062 1.515-1.03.177-2.059.596-3.088 1.258S2.07 7.22 1.374 8.175C.679 9.13.24 10.176.06 11.309c-.181 1.133.048 2.273.688 3.42.695 1.237 1.613 2.223 2.753 2.958 1.14.736 2.309 1.398 3.505 1.987 0 1.03-.007 2.14-.021 3.332l-.01.88c-.007.863-.01 1.68-.01 2.453-.14-.059-.307-.14-.502-.243-.194-.103-.361-.198-.5-.287-.25-.176-.494-.382-.73-.618-.237-.235-.48-.47-.73-.706-.25-.235-.508-.441-.772-.618-.264-.176-.563-.28-.897-.309-.612-.088-1.112-.007-1.502.243-.39.25-.681.589-.876 1.015-.195.427-.271.898-.23 1.413.042.515.188.993.439 1.434.806 1.03 1.738 1.913 2.795 2.649s2.21 1.265 3.462 1.589c0 .677-.007.818-.02 1.612-.014.795.187 1.486.604 2.075.306.441.682.72 1.127.839zM7.006 14.2c-.5-.353-.897-.655-1.19-.905-.291-.25-.52-.478-.688-.684-.166-.206-.505-.807-.436-1.26.07-.454.36-.712.708-1.035.347-.324.883-.486 1.606-.486v4.37zm4.797 12.801c0-.765.007-1.604.021-2.516l.01-.67c.007-.657.011-1.272.011-1.846.64.353 1.182.721 1.627 1.104.445.382.737.78.876 1.192.14.412.084.823-.167 1.235-.25.412-.778.81-1.585 1.192-.139.06-.271.11-.396.155-.125.044-.258.095-.397.154z" transform="translate(-94.939582, -83.426652) translate(463.913911, 188.392169) rotate(-20.000000) translate(-463.913911, -188.392169) translate(368.859582, 147.318706) translate(85.600000, 23.389055) translate(0.000000, 0.000000) translate(0.000000, 0.000000) translate(0.000000, 0.000000) translate(0.000000, 0.000000) translate(0.000000, 0.000000)"/>
                                                </g>
                                            </g>
                                        </g>
                                    </g>
                                </g>
                            </g>
                        </g>
                        <g>
                            <g transform="translate(-94.939582, -83.426652) translate(268.745911, 239.733998) rotate(-36.000000) translate(-268.745911, -239.733998) translate(173.691582, 198.660535) translate(0.000000, 0.000000)">
                                <mask id="41r8qqkhqH" fill="#fff">
                                    <use xlink:href="#jw4i38oamG"/>
                                </mask>
                                <use fill="#00CDC3" xlink:href="#jw4i38oamG"/>
                                <ellipse cx=".019" cy="-.57" fill="#00A59D" mask="url(#41r8qqkhqH)" rx="28.552" ry="27.953"/>
                                <ellipse cx="94.798" cy="41.644" fill="#00A59D" mask="url(#41r8qqkhqH)" rx="30.883" ry="30.235"/>
                                <ellipse cx="41.473" cy="41.073" fill="#00A59D" mask="url(#41r8qqkhqH)" rx="9.323" ry="9.127"/>
                                <ellipse cx="147.617" cy="41.073" fill="#00A59D" mask="url(#41r8qqkhqH)" rx="9.323" ry="9.127"/>
                                <ellipse cx=".019" cy="82.717" fill="#00A59D" mask="url(#41r8qqkhqH)" rx="28.552" ry="27.953"/>
                                <ellipse cx="190.621" cy="-.57" fill="#00A59D" mask="url(#41r8qqkhqH)" rx="28.552" ry="27.953"/>
                                <ellipse cx="190.621" cy="82.717" fill="#00A59D" mask="url(#41r8qqkhqH)" rx="28.552" ry="27.953"/>
                            </g>
                            <g fill="#00CDC3" fill-rule="nonzero">
                                <g>
                                    <path d="M8.633 36.427c.445.117.883.11 1.314-.022.431-.133.813-.368 1.147-.707.334-.338.543-.743.626-1.214.083-.441.118-.941.104-1.5-.014-.56-.02-.45-.02-.862 1.056-.265 2.057-.618 3.003-1.06.946-.441 1.836-1.044 2.67-1.81.556-.5.994-1.14 1.314-1.92.32-.78.515-1.596.584-2.45.07-.853.007-1.692-.188-2.516-.194-.824-.528-1.53-1-2.118-.863-1.06-1.83-1.869-2.9-2.428-1.07-.56-2.218-1.089-3.442-1.59.028-.97.042-2.015.042-3.133V9.963c.334.117.66.25.98.397.32.147.64.287.96.42.32.132.646.227.98.286.334.059.681.059 1.043 0 .612-.118 1.064-.346 1.356-.684.292-.338.452-.714.48-1.126.027-.412-.063-.846-.272-1.302-.208-.456-.507-.86-.896-1.214-.612-.588-1.335-1.03-2.17-1.324-.834-.294-1.64-.544-2.42-.75-.083-1.638-.208-2.672-.375-3.104-.167-.412-.396-.743-.688-.993-.292-.25-.605-.42-.939-.508-.334-.088-.681-.08-1.043.022-.361.103-.681.331-.96.684-.25.295-.437.633-.563 1.016-.125.382-.208.78-.25 1.191-.028.275-.049.78-.062 1.515-1.03.177-2.059.596-3.088 1.258S2.07 7.22 1.374 8.175C.679 9.13.24 10.176.06 11.309c-.181 1.133.048 2.273.688 3.42.695 1.237 1.613 2.223 2.753 2.958 1.14.736 2.309 1.398 3.505 1.987 0 1.03-.007 2.14-.021 3.332l-.01.88c-.007.863-.01 1.68-.01 2.453-.14-.059-.307-.14-.502-.243-.194-.103-.361-.198-.5-.287-.25-.176-.494-.382-.73-.618-.237-.235-.48-.47-.73-.706-.25-.235-.508-.441-.772-.618-.264-.176-.563-.28-.897-.309-.612-.088-1.112-.007-1.502.243-.39.25-.681.589-.876 1.015-.195.427-.271.898-.23 1.413.042.515.188.993.439 1.434.806 1.03 1.738 1.913 2.795 2.649s2.21 1.265 3.462 1.589c0 .677-.007.818-.02 1.612-.014.795.187 1.486.604 2.075.306.441.682.72 1.127.839zM7.006 14.2c-.5-.353-.897-.655-1.19-.905-.291-.25-.52-.478-.688-.684-.166-.206-.505-.807-.436-1.26.07-.454.36-.712.708-1.035.347-.324.883-.486 1.606-.486v4.37zm4.797 12.801c0-.765.007-1.604.021-2.516l.01-.67c.007-.657.011-1.272.011-1.846.64.353 1.182.721 1.627 1.104.445.382.737.78.876 1.192.14.412.084.823-.167 1.235-.25.412-.778.81-1.585 1.192-.139.06-.271.11-.396.155-.125.044-.258.095-.397.154z" transform="translate(-94.939582, -83.426652) translate(268.745911, 239.733998) rotate(-36.000000) translate(-268.745911, -239.733998) translate(173.691582, 198.660535) translate(85.600000, 23.389055)"/>
                                </g>
                            </g>
                        </g>
                        <g>
                            <g transform="translate(-94.939582, -83.426652) translate(506.143244, 413.155288) rotate(-36.000000) translate(-506.143244, -413.155288) translate(411.088916, 372.081824) translate(0.000000, 0.000000)">
                                <mask id="6kxr86sbyJ" fill="#fff">
                                    <use xlink:href="#9jd2guconI"/>
                                </mask>
                                <use fill="#00CDC3" xlink:href="#9jd2guconI"/>
                                <ellipse cx=".019" cy="-.57" fill="#00A59D" mask="url(#6kxr86sbyJ)" rx="28.552" ry="27.953"/>
                                <ellipse cx="94.798" cy="41.644" fill="#00A59D" mask="url(#6kxr86sbyJ)" rx="30.883" ry="30.235"/>
                                <ellipse cx="41.473" cy="41.073" fill="#00A59D" mask="url(#6kxr86sbyJ)" rx="9.323" ry="9.127"/>
                                <ellipse cx=".019" cy="82.717" fill="#00A59D" mask="url(#6kxr86sbyJ)" rx="28.552" ry="27.953"/>
                                <ellipse cx="190.621" cy="-.57" fill="#00A59D" mask="url(#6kxr86sbyJ)" rx="28.552" ry="27.953"/>
                            </g>
                            <g fill="#00CDC3" fill-rule="nonzero">
                                <g>
                                    <g>
                                        <g>
                                            <g>
                                                <g>
                                                    <path d="M8.633 36.427c.445.117.883.11 1.314-.022.431-.133.813-.368 1.147-.707.334-.338.543-.743.626-1.214.083-.441.118-.941.104-1.5-.014-.56-.02-.45-.02-.862 1.056-.265 2.057-.618 3.003-1.06.946-.441 1.836-1.044 2.67-1.81.556-.5.994-1.14 1.314-1.92.32-.78.515-1.596.584-2.45.07-.853.007-1.692-.188-2.516-.194-.824-.528-1.53-1-2.118-.863-1.06-1.83-1.869-2.9-2.428-1.07-.56-2.218-1.089-3.442-1.59.028-.97.042-2.015.042-3.133V9.963c.334.117.66.25.98.397.32.147.64.287.96.42.32.132.646.227.98.286.334.059.681.059 1.043 0 .612-.118 1.064-.346 1.356-.684.292-.338.452-.714.48-1.126.027-.412-.063-.846-.272-1.302-.208-.456-.507-.86-.896-1.214-.612-.588-1.335-1.03-2.17-1.324-.834-.294-1.64-.544-2.42-.75-.083-1.638-.208-2.672-.375-3.104-.167-.412-.396-.743-.688-.993-.292-.25-.605-.42-.939-.508-.334-.088-.681-.08-1.043.022-.361.103-.681.331-.96.684-.25.295-.437.633-.563 1.016-.125.382-.208.78-.25 1.191-.028.275-.049.78-.062 1.515-1.03.177-2.059.596-3.088 1.258S2.07 7.22 1.374 8.175C.679 9.13.24 10.176.06 11.309c-.181 1.133.048 2.273.688 3.42.695 1.237 1.613 2.223 2.753 2.958 1.14.736 2.309 1.398 3.505 1.987 0 1.03-.007 2.14-.021 3.332l-.01.88c-.007.863-.01 1.68-.01 2.453-.14-.059-.307-.14-.502-.243-.194-.103-.361-.198-.5-.287-.25-.176-.494-.382-.73-.618-.237-.235-.48-.47-.73-.706-.25-.235-.508-.441-.772-.618-.264-.176-.563-.28-.897-.309-.612-.088-1.112-.007-1.502.243-.39.25-.681.589-.876 1.015-.195.427-.271.898-.23 1.413.042.515.188.993.439 1.434.806 1.03 1.738 1.913 2.795 2.649s2.21 1.265 3.462 1.589c0 .677-.007.818-.02 1.612-.014.795.187 1.486.604 2.075.306.441.682.72 1.127.839zM7.006 14.2c-.5-.353-.897-.655-1.19-.905-.291-.25-.52-.478-.688-.684-.166-.206-.505-.807-.436-1.26.07-.454.36-.712.708-1.035.347-.324.883-.486 1.606-.486v4.37zm4.797 12.801c0-.765.007-1.604.021-2.516l.01-.67c.007-.657.011-1.272.011-1.846.64.353 1.182.721 1.627 1.104.445.382.737.78.876 1.192.14.412.084.823-.167 1.235-.25.412-.778.81-1.585 1.192-.139.06-.271.11-.396.155-.125.044-.258.095-.397.154z" transform="translate(-94.939582, -83.426652) translate(506.143244, 413.155288) rotate(-36.000000) translate(-506.143244, -413.155288) translate(411.088916, 372.081824) translate(85.600000, 23.389055) translate(0.000000, 0.000000) translate(0.000000, 0.000000) translate(0.000000, 0.000000) translate(0.000000, 0.000000) translate(0.000000, 0.000000)"/>
                                                </g>
                                            </g>
                                        </g>
                                    </g>
                                </g>
                            </g>
                        </g>
                        <g>
                            <g transform="translate(-94.939582, -83.426652) translate(503.860577, 502.147791) rotate(-6.000000) translate(-503.860577, -502.147791) translate(408.806249, 461.074328) translate(0.000000, 0.000000)">
                                <mask id="crl4cxfuoL" fill="#fff">
                                    <use xlink:href="#myniax6ahK"/>
                                </mask>
                                <use fill="#00CDC3" xlink:href="#myniax6ahK"/>
                                <ellipse cx=".019" cy="-.57" fill="#00A59D" mask="url(#crl4cxfuoL)" rx="28.552" ry="27.953"/>
                                <ellipse cx="94.798" cy="41.644" fill="#00A59D" mask="url(#crl4cxfuoL)" rx="30.883" ry="30.235"/>
                                <ellipse cx="41.473" cy="41.073" fill="#00A59D" mask="url(#crl4cxfuoL)" rx="9.323" ry="9.127"/>
                                <ellipse cx=".019" cy="82.717" fill="#00A59D" mask="url(#crl4cxfuoL)" rx="28.552" ry="27.953"/>
                            </g>
                            <g fill="#00CDC3" fill-rule="nonzero">
                                <g>
                                    <g>
                                        <g>
                                            <g>
                                                <g>
                                                    <path d="M8.633 36.427c.445.117.883.11 1.314-.022.431-.133.813-.368 1.147-.707.334-.338.543-.743.626-1.214.083-.441.118-.941.104-1.5-.014-.56-.02-.45-.02-.862 1.056-.265 2.057-.618 3.003-1.06.946-.441 1.836-1.044 2.67-1.81.556-.5.994-1.14 1.314-1.92.32-.78.515-1.596.584-2.45.07-.853.007-1.692-.188-2.516-.194-.824-.528-1.53-1-2.118-.863-1.06-1.83-1.869-2.9-2.428-1.07-.56-2.218-1.089-3.442-1.59.028-.97.042-2.015.042-3.133V9.963c.334.117.66.25.98.397.32.147.64.287.96.42.32.132.646.227.98.286.334.059.681.059 1.043 0 .612-.118 1.064-.346 1.356-.684.292-.338.452-.714.48-1.126.027-.412-.063-.846-.272-1.302-.208-.456-.507-.86-.896-1.214-.612-.588-1.335-1.03-2.17-1.324-.834-.294-1.64-.544-2.42-.75-.083-1.638-.208-2.672-.375-3.104-.167-.412-.396-.743-.688-.993-.292-.25-.605-.42-.939-.508-.334-.088-.681-.08-1.043.022-.361.103-.681.331-.96.684-.25.295-.437.633-.563 1.016-.125.382-.208.78-.25 1.191-.028.275-.049.78-.062 1.515-1.03.177-2.059.596-3.088 1.258S2.07 7.22 1.374 8.175C.679 9.13.24 10.176.06 11.309c-.181 1.133.048 2.273.688 3.42.695 1.237 1.613 2.223 2.753 2.958 1.14.736 2.309 1.398 3.505 1.987 0 1.03-.007 2.14-.021 3.332l-.01.88c-.007.863-.01 1.68-.01 2.453-.14-.059-.307-.14-.502-.243-.194-.103-.361-.198-.5-.287-.25-.176-.494-.382-.73-.618-.237-.235-.48-.47-.73-.706-.25-.235-.508-.441-.772-.618-.264-.176-.563-.28-.897-.309-.612-.088-1.112-.007-1.502.243-.39.25-.681.589-.876 1.015-.195.427-.271.898-.23 1.413.042.515.188.993.439 1.434.806 1.03 1.738 1.913 2.795 2.649s2.21 1.265 3.462 1.589c0 .677-.007.818-.02 1.612-.014.795.187 1.486.604 2.075.306.441.682.72 1.127.839zM7.006 14.2c-.5-.353-.897-.655-1.19-.905-.291-.25-.52-.478-.688-.684-.166-.206-.505-.807-.436-1.26.07-.454.36-.712.708-1.035.347-.324.883-.486 1.606-.486v4.37zm4.797 12.801c0-.765.007-1.604.021-2.516l.01-.67c.007-.657.011-1.272.011-1.846.64.353 1.182.721 1.627 1.104.445.382.737.78.876 1.192.14.412.084.823-.167 1.235-.25.412-.778.81-1.585 1.192-.139.06-.271.11-.396.155-.125.044-.258.095-.397.154z" transform="translate(-94.939582, -83.426652) translate(503.860577, 502.147791) rotate(-6.000000) translate(-503.860577, -502.147791) translate(408.806249, 461.074328) translate(85.600000, 23.389055) translate(-0.000000, -0.000000) translate(-0.000000, -0.000000) translate(-0.000000, -0.000000) translate(-0.000000, -0.000000) translate(-0.000000, -0.000000)"/>
                                                </g>
                                            </g>
                                        </g>
                                    </g>
                                </g>
                            </g>
                        </g>
                    </g>
                </g>
            </g>
        </g>
    </g>
</svg>
