<svg xmlns="http://www.w3.org/2000/svg" xmlns:xlink="http://www.w3.org/1999/xlink" width="429" height="761" viewBox="0 0 429 761">
    <defs>
        <path id="00bl1ximma" d="M0 0H428V761H0z"/>
    </defs>
    <g fill="none" fill-rule="evenodd">
        <g>
            <g transform="translate(-4071.000000, -1082.000000) translate(4072.000000, 1082.000000)">
                <mask id="oj3b6bi9sb" fill="#fff">
                    <use xlink:href="#00bl1ximma"/>
                </mask>
                <path fill="#E1A46A" d="M437.908 812.093l-2.237 1.52c-40.44 27.065-66.582 63.243-86.613 93.046l-2.242 3.346-6.439 9.66-2.06 3.079c-12.577 18.741-22.93 32.951-33.844 37.36-29.498 11.919-168.586-99.16-178.594-123.92-1.601-3.962-2.609-8.143-3.482-12.425l-.322-1.61-.785-4.056-.32-1.632c-4.065-20.418-10.853-41.55-67.661-51.062l-4.549-.758-4.555-.751-11.4-1.877-4.556-.758-2.276-.383-4.547-.773c-65.108-11.186-127.17-26.796-149.975-90.699-13.525-37.896 12.56-74.24 38.469-107.94l6.073-7.88c22.62-29.362 42.674-56.598 32.83-80.956-21.877-54.128-5.07-218.772 73.87-254 4.974-2.22 10.483-.915 15.821.964l.888.318 1.325.49 3.043 1.153.853.318.846.308.836.294c2.495.859 4.86 1.493 7.004 1.533 4.784.091 6.414-1.4 7.522-3.532l.18-.36.174-.373.253-.576.425-1 .18-.412.188-.417.2-.42.216-.424.233-.426c1.05-1.85 2.669-3.732 5.847-5.291 1.188-.583 2.783.719 4.521 2.698l.457.531.462.557.467.579.705.897 1.892 2.45.704.895.464.577.46.555c1.825 2.171 3.507 3.71 4.744 3.244l.152-.07c2.083-1.103 5.287 1.739 8.883 6.01l.678.818.343.42.69.86.697.885.35.45 1.058 1.378 1.422 1.881 2.85 3.803 1.058 1.402.7.918 1.04 1.342.684.865.338.423.671.823c3.551 4.308 6.672 7.216 8.632 6.21 8.345-4.281 11.611 5.41 14.065 16.656l.303 1.413.296 1.424 1.012 4.99.435 2.101.295 1.376c1.79 8.175 3.924 14.896 8.2 14.923 1.765.011 3.868-.626 6.176-1.587l.736-.314c.124-.054.248-.108.372-.164l.755-.342.766-.357.776-.371.785-.383 4.038-2.002 1.235-.603.827-.394.828-.387.415-.19.83-.37.827-.358c6.622-2.794 13.08-4.058 17.236 1.44 11.728 15.52 14.432 6.566 17.422-8.363l.475-2.404.489-2.487.51-2.554c4.88-24.1 13.57-54.83 55.866-32.98 2.263 1.169 5.576 1.768 9.448 2.134l1.07.094.544.043 1.107.08 1.13.072 1.148.065 2.35.12 4.844.229 1.842.099 1.231.073 1.23.083 1.226.091c6.734.535 13.227 1.578 17.828 4.268 1.751 1.024 4.091 3.354 6.709 6.267l.793.89.402.458.815.935.826.959 1.258 1.474 4.276 5.049 1.282 1.498.85.981.842.962.418.472.829.925c2.881 3.186 5.55 5.818 7.646 7.059.593.35 2.189.06 4.442-.661l.66-.218.696-.24.727-.26.757-.281.786-.3 1.229-.483 1.72-.7 1.803-.757 1.396-.599 1.91-.833 2.445-1.085 3.48-1.57 10.545-4.82 2.143-.967 1.604-.713 1.49-.65 1.036-.441.328-.138c.08-.033.231-.051.445-.056h.286l.343.012.192.01.422.03.471.04.517.05 1.155.129 1.297.16 1.05.14 1.482.206 2.345.344 3.214.497 3.862.629 3.588.615 1.873.34.853.17.217.05.06.021c3.085 1.825 8.323.288 14.173-2.212l1.008-.438 1.02-.454 1.027-.467 1.034-.479 1.56-.732 4.173-1.972 1.552-.722.515-.235 1.022-.462 1.013-.448c6.382-2.78 12.085-4.518 15.138-2.143 112.21 87.299 130.722 295.22 104.19 333.371-10.186 14.648-15.661 33.65-20.618 53.263l-.845 3.367-2.1 8.444-.847 3.376c-7.946 31.487-17.322 62.072-45.295 76.42-20.98 10.761-15.583 18.15-7.919 26.886l1.668 1.895c10.113 11.509 21.128 25.8-18.193 52.9z" mask="url(#oj3b6bi9sb)"/>
                <path fill="#CE935B" d="M224.083 851.25l2.653.523c47.805 9.12 86.009 32.212 116.096 51.822l3.372 2.204 9.703 6.378 3.1 2.03c18.903 12.338 33.987 21.374 45.757 21.172 31.812-.559 116.426-157.13 115.96-183.83-.075-4.273-.782-8.515-1.652-12.797l-.333-1.608-1.035-4.854c-4.347-20.609-7.07-42.888 42.153-74.245l5.84-3.71 11.71-7.415 3.898-2.478c57.762-36.798 112.554-75.703 108.43-145.797-2.363-40.166-40.58-63.433-77.601-84.333l-8.671-4.882c-32.299-18.193-61.404-35.43-61.862-61.697-.194-11.09.874-23.17 2.14-35.473l.405-3.891.615-5.854.405-3.905c4.93-48.154 6.888-95.424-57.074-96.606-5.29-.095-9.746 3.066-13.827 6.743l-.717.654-.71.661-1.398 1.332-1.719 1.646-.68.642c-.225.211-.45.42-.676.627l-.673.61c-1.903 1.7-3.777 3.146-5.68 3.997-4.517 2.019-6.59 1.162-8.493-.473l-.292-.257-.436-.405-1.202-1.154-.319-.296-.33-.295-.343-.293c-1.75-1.458-4.055-2.771-7.949-2.985-1.436-.079-2.444 2.08-3.32 4.917l-.207.694-.203.714-.2.731-.296 1.117-.686 2.618-.199.729-.202.712-.206.69c-.866 2.825-1.857 4.957-3.266 4.835l-3.135-.26-1.218-.114-1.692-.175-1.476-.172-.775-.097-1.204-.161-.829-.119-1.277-.195-.874-.142-.888-.153-.903-.163-.915-.175-.925-.186-.467-.098-.94-.204c-.157-.035-.315-.07-.473-.107-1.01-.232-2.03-.563-3.052-.935l-.877-.327-.878-.339-1.315-.512c-2.776-1.07-5.532-2.007-8.16-1.63-4.104.588-7.633 3.003-10.553 5.517l-.616.539-.598.539-.579.534-.833.784-1.538 1.46-.474.442-.455.412c-1.263 1.123-2.293 1.85-3.083 1.792-7.406-.54-13.362-5.496-18.498-11.176l-.804-.903c-.4-.453-.793-.91-1.183-1.369l-.772-.918-.761-.919-1.121-1.373-2.174-2.685-1.057-1.29-.694-.834c-.23-.273-.46-.543-.688-.808l-.68-.78c-3.953-4.462-7.59-7.312-11.408-5.664-.597.258-1.493.701-2.644 1.308l-1.049.56-1.167.637-1.28.71-1.388.78-1.487.849-1.583.912-.825.48-1.713 1.003-1.792 1.06-1.866 1.112-1.932 1.163c-.328.197-.658.397-.99.599l-2.022 1.232-2.074 1.274-2.12 1.313-2.16 1.35-2.192 1.381-2.22 1.412c-.745.475-1.493.954-2.243 1.438l-2.257 1.46-2.267 1.482c-1.134.746-2.27 1.497-3.403 2.254l-2.263 1.518c-18.062 12.185-34.958 25.249-36.634 31.933-4.73 18.867-10.719 11.68-19.306-.894l-1.377-2.027-1.422-2.098-1.468-2.152c-13.912-20.279-33.923-45.171-64.316-8.538-1.75 2.11-4.876 4.085-8.652 6.076l-1.046.544-1.075.544-1.1.547-1.123.55-5.243 2.526-1.782.868-1.189.587-.593.297-1.182.6c-6.283 3.225-12.201 6.838-15.524 11.296-1.03 1.382-2.082 3.8-3.155 6.769l-.38 1.07-.19.55-.382 1.13-.576 1.757-.386 1.205-.776 2.474-1.373 4.427-.593 1.895-.596 1.87-.4 1.225-.4 1.202c-1.536 4.56-3.099 8.512-4.68 10.66-.067.091-.165.194-.291.307l-.21.177-.253.19-.291.203-.33.213-.368.223-.197.115-.42.236-.454.242-.487.247-.517.252-.547.254c-.093.043-.188.086-.284.128l-.588.257-.615.256-.639.255-.662.251-.684.248c-.116.041-.232.082-.35.122l-.714.24-.733.232c-.247.076-.497.151-.75.224l-.765.214c-2.575.697-5.386 1.212-8.203 1.336-2.86.125-6.283-1-9.683-2.386l-.97-.402-.966-.41-3.304-1.435-.457-.196-.9-.379-.876-.356c-2.161-.86-4.084-1.466-5.555-1.457-.076 0-.197.024-.358.067l-.27.079-.326.107-.379.135-.427.159-.724.282-.814.328-1.204.5-.975.416-2.086.906-2.552 1.134-2.532 1.147-2.359 1.087-1.493.699-1.702.813-.717.354-.494.255-.208.119c-.03.019-.048.032-.054.04-.972 1.32-2.18 1.281-3.749.412l-.318-.185-.163-.1-.333-.216-.344-.236c-.058-.04-.116-.083-.175-.125l-.36-.264-.37-.28-.38-.299-.593-.475-3.364-2.79-.759-.617-.789-.631-.543-.426-.558-.43-.572-.432-.29-.216-.594-.434-.609-.433-.623-.433c-.21-.143-.423-.287-.639-.43l-.654-.428-.67-.424c-1.469-.914-3.05-1.795-4.754-2.6-1.355-.64-2.55-2.768-3.781-5.46l-.353-.784-.715-1.64-.735-1.706-.568-1.3-.39-.866-.398-.861c-1.816-3.856-3.946-7.407-6.8-8.687-5.237-2.347-11.367-2.093-16.716-.848l-.724.175c-.12.03-.24.061-.358.093l-.708.192-.696.202-.684.212c-.225.072-.448.145-.669.22l-.654.227-.321.116-.63.236-.613.241-.595.246-.575.248-.28.125-.546.252-.523.253-.501.252-.478.252-.453.25-.429.247-.402.244-.374.24c-.06.039-.12.078-.177.117l-.332.23-.303.224c-.575.44-.968.835-1.144 1.15-69.167 124.188 15.932 363.37 55.266 388.124 15.102 9.504 27.57 24.857 39.798 40.975l2.095 2.77 5.233 6.952 1.049 1.39 2.102 2.772c19.309 25.363 39.715 49.028 70.513 51.268 22.958 1.67 21.524 10.2 18.055 20.871l-.519 1.576-.533 1.604c-4.81 14.544-9.363 32.002 37.424 41.588z" mask="url(#oj3b6bi9sb)"/>
                <g mask="url(#oj3b6bi9sb)">
                    <g>
                        <path stroke="#8DCBC7" stroke-width="5.707" d="M6.491 170.098C.327 94.828-1.447 48.293 1.17 30.49 4.237 9.618 19.403-9.106 38.805 14.524" transform="translate(342.266864, 164.194547)"/>
                        <g>
                            <path fill="#FFB7A2" d="M6.888 1.703c-.66.202 1.991 4.698 3.334 12.55.363 2.126-.09 3.991.194 6.514.315 2.8 2.438 4.331 3.144 7.462.952 4.222-.718 8.787 1.244 12.677.104.207.87 5.41.974 5.608 3.133 5.954 7.003 4.393 7.712 1.637.809-3.144-1.158-12.017-1.224-14.489-.105-3.934-3.199-8.444-3.11-11.852C19.36 13.84 8.192 1.304 6.887 1.703z" transform="translate(342.266864, 164.194547) translate(36.178131, 42.552687) rotate(7.000000) translate(-36.178131, -42.552687) translate(20.943265, 16.552279) translate(15.234708, 26.146177) rotate(-163.000000) translate(-15.234708, -26.146177)"/>
                            <path stroke="#FF918E" stroke-linecap="round" stroke-width="1.141" d="M17.862 0c-.969 7.779-1.894 12.66-2.774 14.644-1.32 2.976-1.383 13.2-1.352 13.735.031.535-1.003 12.148 0 13.481" transform="translate(342.266864, 164.194547) translate(36.178131, 42.552687) rotate(7.000000) translate(-36.178131, -42.552687) translate(20.943265, 16.552279)"/>
                        </g>
                        <g>
                            <path fill="#FFB7A2" d="M4.106 2.25c-.57.175 4.342 9.663 5.93 11.097 1.587 1.434 1.813 3.834 3.414 4.297 2.006.58 1.254 2.499 2.845 5.517.085.16 1.646 3.864 1.73 4.018 1.746 3.163 2.643 6.397 4.024 5.616.634-.359 1.312-3.443 1.523-4.131.767-2.496-.919-7.481-.917-9.427.002-3.096-6.34-6.199-8.106-9.084-3.93-6.421-9.315-8.247-10.443-7.903z" transform="translate(342.266864, 164.194547) translate(45.841426, 104.541849) scale(-1, 1) rotate(7.000000) translate(-45.841426, -104.541849) translate(31.924808, 86.980034) translate(13.916373, 17.561649) rotate(-163.000000) translate(-13.916373, -17.561649)"/>
                            <path stroke="#FF918E" stroke-linecap="round" stroke-width="1.141" d="M10.655 1.177c-.383 7.056-.905 11.366-1.565 12.93-.99 2.344 3.697 6.163 3.72 6.585.024.421 1.63 5.032 2.383 6.083" transform="translate(342.266864, 164.194547) translate(45.841426, 104.541849) scale(-1, 1) rotate(7.000000) translate(-45.841426, -104.541849) translate(31.924808, 86.980034)"/>
                        </g>
                        <g>
                            <path fill="#FFB7A2" d="M9.267.772c-.666.242 1.66 4.396 2.47 11.885.218 2.027-.353 3.862-.239 6.278.127 2.683 2.126 4.01 2.618 6.984.663 4.01.003 9.698 1.687 13.316 2.776 5.964 5.909 8.022 6.821 5.22 1.008-3.096-.352-11.526-.254-13.909.156-3.792-2.607-7.928-2.295-11.226C20.805 11.607 10.583.294 9.267.772z" transform="translate(342.266864, 164.194547) translate(37.488319, 7.118726) translate(16.073157, 23.223877) rotate(-206.000000) translate(-16.073157, -23.223877)"/>
                            <path stroke="#FF918E" stroke-linecap="round" stroke-width="1.141" d="M4.173 10.089c3.635 3.242 5.718 5.719 6.248 7.431.797 2.569 6.004 8.838 6.295 9.146.292.309 5.674 7.98 6.912 8.22" transform="translate(342.266864, 164.194547) translate(37.488319, 7.118726)"/>
                        </g>
                        <g>
                            <path fill="#FF918E" d="M7.036.543c-.413.15.068 1.322 1.13 3.195.518.912 1.897 1.514 1.985 3.161.073 1.362-.553 2.662-.599 4.298-.05 1.816.047 4.067.307 6.049.35 2.673-.592 6.606.702 8.922 2.133 3.819 4.827 4.944 5.82 2.955 1.097-2.197.39-7.82.624-9.452.373-2.597-.52-7.414-.036-9.688C18.099 4.664 8.25.102 7.036.543z" transform="translate(342.266864, 164.194547) translate(56.896677, 19.330089) rotate(-32.000000) translate(-56.896677, -19.330089) translate(44.903461, 4.028007) translate(11.994073, 15.301731) rotate(-211.000000) translate(-11.994073, -15.301731)"/>
                            <path stroke="#FFB7A2" stroke-linecap="round" stroke-width="1.141" d="M3.257 4.824C5.623 6.2 6.895 7.474 7.072 8.642c.267 1.753 3.436 4.994 3.62 5.143.182.148 3.297 4.429 4.22 4.223" transform="translate(342.266864, 164.194547) translate(56.896677, 19.330089) rotate(-32.000000) translate(-56.896677, -19.330089) translate(44.903461, 4.028007)"/>
                        </g>
                        <g>
                            <path fill="#FF918E" d="M6.967.524C6.353.748 9.813 1.85 10.082 6.88c.073 1.362-.553 2.662-.599 4.298-.05 1.816.046 4.066.307 6.049.35 2.673-.593 6.606.702 8.922 2.133 3.818 4.827 4.944 5.82 2.955 1.097-2.197.39-7.82.624-9.452.373-2.597-.52-7.414-.036-9.688C18.03 4.645 8.182.082 6.967.524z" transform="translate(342.266864, 164.194547) translate(42.279309, 42.024373) scale(-1, 1) rotate(37.000000) translate(-42.279309, -42.024373) translate(30.317980, 26.741444) translate(11.962203, 15.282574) rotate(-211.000000) translate(-11.962203, -15.282574)"/>
                            <path stroke="#FFB7A2" stroke-linecap="round" stroke-width="1.141" d="M3.257 4.785c2.366 1.377 3.638 2.65 3.815 3.819.267 1.753 3.436 4.994 3.62 5.142.182.149 3.297 4.43 4.22 4.224" transform="translate(342.266864, 164.194547) translate(42.279309, 42.024373) scale(-1, 1) rotate(37.000000) translate(-42.279309, -42.024373) translate(30.317980, 26.741444)"/>
                        </g>
                        <g>
                            <path fill="#FFB7A2" d="M2.102.547c-.63.228 1.704 4.556 2.678 12.256.263 2.084-.234 3.946-.061 6.426.192 2.753 2.14 4.175 2.689 7.237.74 4.13.26 9.938 1.967 13.697 2.814 6.199 5.865 8.405 6.663 5.562.882-3.14-.642-11.821-.612-14.26.048-3.881-2.705-8.205-2.494-11.575C13.425 12.01 3.35.099 2.102.547z" transform="translate(342.266864, 164.194547) translate(41.043823, 15.142220) translate(9.154278, 23.742656) rotate(-185.000000) translate(-9.154278, -23.742656)"/>
                            <path stroke="#FF918E" stroke-linecap="round" stroke-width="1.141" d="M4.87 6.015c2.286 4.494 3.4 7.65 3.344 9.47-.085 2.728 2.678 10.69 2.846 11.096.168.406 2.648 9.754 3.699 10.473" transform="translate(342.266864, 164.194547) translate(41.043823, 15.142220)"/>
                        </g>
                        <path fill="#BCE9E7" d="M34.448 22.379c6.451 8.623 15.829 4.707 15.881 3.952.053-.754-7.036-1.105-8.038-2.619-1.062-1.603 4.155-5.78 3.22-6.733-.985-1.005-5.527.356-7.846-.548-1.35-.527.43-6.812-.577-6.882-1.008-.07-9.092 4.206-2.64 12.83z" transform="translate(342.266864, 164.194547) translate(41.151278, 18.709750) rotate(86.000000) translate(-41.151278, -18.709750)"/>
                    </g>
                </g>
                <path fill="#E1A46A" d="M449.295 890.02l-2.096 1.708c-36.495 29.336-59.065 65.924-76.181 96.652l-1.99 3.587-1.941 3.528-5.572 10.185-1.784 3.246c-10.896 19.766-19.97 34.824-30.459 40.168-28.346 14.443-176.59-84.095-188.718-107.89-2.061-4.045-3.477-8.395-4.783-12.86l-.458-1.58-.908-3.182-.461-1.598c-5.83-19.986-14.434-40.447-71.855-44.973l-4.598-.358-16.122-1.228-4.606-.359-4.6-.368c-66.66-5.43-130.99-15.086-159.61-77.476-16.448-35.856 5.16-73.544 27.566-108.77l2.69-4.215 4.019-6.275c19.974-31.221 37.577-60.1 25.646-83.508-7.424-14.564-20.895-28.81-34.786-42.693l-2.98-2.97-5.952-5.905-2.946-2.935c-31.25-31.255-56.292-60.56-7.928-87.422 4.496-2.498 9.743-1.906 14.93-.647l.915.228.457.119.91.243.908.25 3.131.884 1.314.36.864.228.854.212c2.402.58 4.664.951 6.685.813 4.907-.335 6.348-2.046 7.26-4.36l.145-.38.07-.195.134-.395.474-1.447.147-.428.157-.435c.842-2.256 2.206-4.702 5.819-6.885 1.28-.773 3.289.808 5.494 3.039l.512.525.518.544.784.841 1.575 1.711.782.84.515.543.256.264.506.513c2.008 2.004 3.817 3.39 5.009 2.818l.146-.082c2.04-1.32 5.635 1.434 9.745 5.587l.752.77.763.797.771.82.779.842.784.857 1.184 1.309 3.96 4.419 1.173 1.295.774.845.766.826.757.803.375.391.74.762c3.913 3.982 7.275 6.607 9.14 5.434 7.94-4.992 12.039 4.378 15.464 15.367l.425 1.382.419 1.392.621 2.098 1.027 3.474.411 1.367.415 1.344.418 1.317c2.384 7.374 5.025 13.162 9.05 12.835 2.038-.165 4.45-1.236 7.078-2.692l.722-.406.731-.423 1.115-.66 1.132-.686 3.09-1.887 1.179-.708.79-.465c.13-.077.263-.154.395-.23l.792-.453c.265-.149.53-.296.794-.441l.794-.428c6.352-3.36 12.677-5.182 17.295-.067 14.066 15.579 33.008-16.07 55.882-56.611l6.807-12.085c31.703-56.224 70.318-121.724 113.571-103.965 2.678 1.1 6.642 1.347 11.218 1.299l1.11-.017 1.131-.027 1.15-.034 2.352-.087 4.232-.17 1.227-.045 1.23-.04 1.233-.034 1.232-.025c.41-.007.82-.012 1.23-.016l1.225-.003c6.318.013 12.38.561 16.907 2.702 1.375.65 3.144 2.004 5.15 3.768l.815.727.838.766.426.397.868.818.885.848 1.356 1.317 2.314 2.282 2.824 2.802 1.883 1.855.935.911.928.895.46.44.912.861c3.323 3.114 6.384 5.684 8.684 6.788.267.128.597-.12.997-.676l.163-.24.085-.132.175-.287.183-.318.191-.348.2-.377.313-.617.333-.678.473-.991 2.251-4.83.828-1.743.526-1.089.737-1.493.19-.38c.422-.84.76-1.792 1.078-2.792l.594-1.914c.767-2.454 1.668-4.94 3.599-6.57 2.753-2.325 6.502-4 10.53-5.271l.933-.286c.157-.047.313-.093.47-.138l.946-.266c.316-.087.632-.171.95-.254l.953-.24.477-.117.954-.225.477-.108.95-.21.946-.2.94-.191 1.39-.273 1.367-.256 5.454-.988.75-.14 1.07-.211.674-.14.64-.142.306-.07.584-.144c.095-.024.187-.048.278-.073l.525-.147c.673-.199 1.235-.407 1.663-.63.078-.042.274-.052.574-.036l.334.025.4.042.224.027.492.066.55.082.928.149 1.04.179 1.542.28.831.157 2.226.433 2.895.584 3.057.634 4.18.889 5.591 1.219 5.328 1.189 4.3.987 1.134.275.123.036c3.51 1.682 8.012-.948 12.795-4.854l.757-.628.762-.645.765-.662.767-.675 1.156-1.03 4.245-3.842 1.15-1.025.764-.668.76-.654.755-.637c.125-.105.25-.208.375-.311l.748-.606c3.475-2.774 6.757-4.768 9.561-4.768 8.979 0 17.849 4.512 23.284 8.458l.612.453c.198.15.392.298.58.446l.547.437c105.334 85.864 115.303 292.52 93.272 330.964-8.87 15.48-12.669 34.886-15.897 54.856l-.548 3.429-1.356 8.594-.549 3.437c-5.17 32.06-11.844 63.346-38.46 80.076-19.487 12.25-14.214 19.108-6.14 26.902l1.199 1.148 1.223 1.165c11.078 10.585 23.297 23.862-13.512 54.284z" mask="url(#oj3b6bi9sb)"/>
            </g>
        </g>
    </g>
</svg>
