<svg xmlns="http://www.w3.org/2000/svg" xmlns:xlink="http://www.w3.org/1999/xlink" width="428" height="761" viewBox="0 0 428 761">
    <defs>
        <path id="7kto059mpa" d="M0 0H428V761H0z"/>
    </defs>
    <g fill="none" fill-rule="evenodd">
        <g>
            <g transform="translate(-4072.000000, -185.000000) translate(4072.000000, 185.000000)">
                <mask id="skhpq7y61b" fill="#fff">
                    <use xlink:href="#7kto059mpa"/>
                </mask>
                <g mask="url(#skhpq7y61b)">
                    <g transform="translate(-57.066667, 67.885307)">
                        <g transform="translate(394.901333, 0.000000)">
                            <path fill="#289DC0" d="M74.345 296.655c-29.403-.123-52.278-5.793-68.624-17.01C1.907 268.303 0 249.873 0 224.354c0-38.279 22.822-43.175 22.822-70.82 0-27.646-13.97-51.527-15.169-54.648-3.5-9.108-7-31.227-2.333-55.949C7.653 36.432 41 30.835 45.769 30.835c3.178 0 4.768-8.152 4.768-24.455C58.165 2.127 66.428 0 75.328 0s17.163 2.127 24.791 6.38c0 16.303 1.59 24.455 4.768 24.455 4.768 0 38.116 5.597 40.45 12.102 4.667 24.722 1.166 46.84-2.334 55.949-1.2 3.12-15.169 27.002-15.169 54.647 0 27.646 22.822 32.542 22.822 70.82 0 25.52-1.907 43.95-5.721 55.292-16.528 11.341-39.73 17.012-69.607 17.012z"/>
                            <path fill="#289DC0" d="M66.237 278.442H81.822V379.93H66.237z"/>
                            <rect width="110.394" height="31.227" x="19.481" y="140.522" fill="#56C7EA" rx="5.206"/>
                        </g>
                        <g>
                            <path fill="#289DC0" d="M59.349 143.757H73.045V173.421H59.349z" transform="translate(29.674672, 75.301349)"/>
                            <path fill="#289DC0" d="M63.346 144.317h4.56c2.522 0 4.566 2.044 4.566 4.566v49.077c0 2.521-2.044 4.565-4.565 4.565h-4.56c-2.522 0-4.566-2.044-4.566-4.565v-49.077c0-2.522 2.044-4.566 4.565-4.566z" transform="translate(29.674672, 75.301349) translate(65.626661, 173.421289) rotate(-270.000000) translate(-65.626661, -173.421289)"/>
                            <path fill="#289DC0" d="M66.197 0c15.218 0 25.49 1.902 30.816 5.705 4.566 5.704-3.424 19.395 0 22.818 3.424 3.423 29.675 5.705 34.24 9.128 4.562 3.42.007 121.904-64.911 122.079H66.198C1.277 159.555-3.279 41.07 1.283 37.65c2.31-1.73 10.165-3.17 17.809-4.612l1.04-.197c7.095-1.345 13.778-2.705 15.391-4.318 3.424-3.423-4.565-17.114 0-22.818C40.851 1.902 51.074 0 66.197 0z" transform="translate(29.674672, 75.301349)"/>
                            <path stroke="#56C7EA" stroke-dasharray="0 13.696" stroke-linecap="round" stroke-width="13.696" d="M27.392 29.785c1.747 52.483 14.593 78.725 38.539 78.725 23.945 0 36.97-26.242 39.072-78.725" transform="translate(29.674672, 75.301349)"/>
                        </g>
                        <rect width="173.483" height="132.348" y="255.568" fill="#289DC0" rx="4.565"/>
                    </g>
                </g>
            </g>
        </g>
    </g>
</svg>
