<svg xmlns="http://www.w3.org/2000/svg" xmlns:xlink="http://www.w3.org/1999/xlink" width="428" height="762" viewBox="0 0 428 762">
    <defs>
        <filter id="obif8pejcc">
            <feColorMatrix in="SourceGraphic" values="0 0 0 0 1.000000 0 0 0 0 0.593834 0 0 0 0 0.476105 0 0 0 1.000000 0"/>
        </filter>
        <path id="jp7agpys6a" d="M0 0H428V761H0z"/>
    </defs>
    <g fill="none" fill-rule="evenodd">
        <g>
            <g transform="translate(-40.000000, -184.000000) translate(40.000000, 185.000000)">
                <mask id="a8wqes0bhb" fill="#fff">
                    <use xlink:href="#jp7agpys6a"/>
                </mask>
                <g mask="url(#a8wqes0bhb)">
                    <g>
                        <g transform="translate(-9.130667, 67.885307) translate(245.386667, 23.918139)">
                            <rect width="199.841" height="192.12" x="23.237" y="5.705" stroke="#FA7048" stroke-linejoin="round" stroke-width="4.565" rx="2.785"/>
                            <rect width="199.841" height="85.386" x="16.389" fill="#FF9779" rx="3.714"/>
                            <g transform="translate(0.000000, 191.327380)">
                                <rect width="21.736" height="29.7" x="28.671" y="117.87" fill="#C3CFD5" rx="6.499"/>
                                <path fill="#FF9779" d="M13.149 6.497h219.089c2.05 0 3.713 1.663 3.713 3.714 0 .045 0 .091-.002.137l-4.372 117.868c-.074 1.996-1.714 3.576-3.711 3.576H17.52c-1.997 0-3.637-1.58-3.711-3.576L9.438 10.348c-.076-2.05 1.524-3.773 3.573-3.849l.138-.002z"/>
                                <rect width="245.387" height="13.691" fill="#FA7048" rx="3.714"/>
                            </g>
                            <text fill="#FF5928" font-family="NotoSansTC-Bold, Noto Sans TC" font-size="37.138" font-weight="bold" letter-spacing=".232">
                                <tspan x="108.963" y="57.415">滷</tspan>
                            </text>
                            <ellipse cx="126.876" cy="42.944" stroke="#FF5928" stroke-width="4.565" rx="30.209" ry="30.164"/>
                        </g>
                        <g transform="translate(-9.130667, 67.885307)">
                            <rect width="199.841" height="217.179" x="23.237" y="4.564" stroke="#FF9779" stroke-linejoin="round" stroke-width="4.565" rx="2.785"/>
                            <rect width="217.535" height="132.348" x="16.389" fill="#F73F3B" rx="3.714"/>
                            <rect width="9.554" height="7.425" x="62.013" y="205.964" fill="#FEC602" rx="3.712"/>
                            <rect width="9.554" height="7.425" x="75.956" y="205.964" fill="#FEC602" rx="3.712"/>
                            <rect width="15.634" height="7.425" x="114.876" y="205.964" fill="#FF9779" rx="3.712"/>
                            <rect width="9.554" height="7.425" x="47.738" y="205.964" fill="#FEC602" rx="3.712"/>
                            <rect width="80.784" height="39.909" x="37.902" y="163.364" fill="#FF9779" rx="3.714"/>
                            <rect width="15.634" height="7.425" x="97.597" y="205.964" fill="#FF9779" rx="3.712"/>
                            <rect width="9.554" height="7.425" x="33.462" y="205.964" fill="#FEC602" rx="3.712"/>
                            <g transform="translate(0.000000, 198.539474)">
                                <rect width="21.378" height="33.412" x="192.405" y="130.864" fill="#C3CFD5" rx="6.499"/>
                                <path fill="#F73F3B" d="M13.135 7.425h219.117c2.051 0 3.714 1.663 3.714 3.714l-.002.124-4.4 131.79c-.067 2-1.709 3.589-3.712 3.589H17.534c-2.003 0-3.645-1.588-3.711-3.59l-4.4-131.79c-.068-2.05 1.538-3.767 3.588-3.835l.124-.002z"/>
                                <rect width="245.387" height="13.691" fill="#FA7048" rx="3.714"/>
                            </g>
                            <g transform="translate(343.541333, 179.125937)">
                                <path fill="#FF5928" d="M5.744 0h69.547c1.26 0 2.282 1.022 2.282 2.283v.076c-.772 23.21-13.124 34.815-37.056 34.815-23.931 0-36.283-11.605-37.054-34.816C3.42 1.098 4.408.043 5.668.001L5.744 0z"/>
                                <rect width="81.035" height="4.564" fill="#FF5928" rx="2.282"/>
                                <rect width="6.848" height="6.846" x="9.131" y="9.127" fill="#FF9779" rx="2.283"/>
                                <rect width="6.848" height="6.846" x="20.544" y="9.127" fill="#FF9779" rx="2.283"/>
                                <rect width="6.848" height="6.846" x="20.544" y="20.537" fill="#FF9779" rx="2.283"/>
                                <rect width="6.848" height="6.846" x="31.957" y="9.127" fill="#FF9779" rx="2.283"/>
                                <rect width="6.848" height="6.846" x="31.957" y="20.537" fill="#FF9779" rx="2.283"/>
                                <rect width="6.848" height="6.846" x="43.371" y="9.127" fill="#FF9779" rx="2.283"/>
                                <rect width="6.848" height="6.846" x="43.371" y="20.537" fill="#FF9779" rx="2.283"/>
                                <rect width="6.848" height="6.846" x="54.784" y="9.127" fill="#FF9779" rx="2.283"/>
                                <rect width="6.848" height="6.846" x="54.784" y="20.537" fill="#FF9779" rx="2.283"/>
                                <rect width="6.848" height="6.846" x="66.197" y="9.127" fill="#FF9779" rx="2.283"/>
                            </g>
                        </g>
                        <g filter="url(#obif8pejcc)" transform="translate(-9.130667, 67.885307)">
                            <g fill="#000">
                                <g fill-rule="nonzero">
                                    <path d="M60.342.937c-3.39 0-6.401 1.568-8.345 4C49.463 1.921 45.631 0 41.342 0 33.713 0 27.53 6.08 27.53 13.578c0 4.93 2.681 9.233 6.68 11.612 4.461-4.527 10.54-7.5 17.31-8.015.696-.053 1.396-.088 2.104-.088 4.274 0 8.31.921 11.9 2.556 4.343 1.978 8.022 5.01 10.617 8.822 3.97-.833 6.95-4.298 6.95-8.45 0-4.773-3.936-8.643-8.793-8.643-1.195 0-2.334.237-3.373.662.014-.22.034-.439.034-.662 0-5.763-4.753-10.435-10.616-10.435zM25.512 44.533c0-4.45 1.046-8.648 2.886-12.355l-20.653 7.2c-1.453.507-2.22 2.095-1.713 3.547.285.818.934 1.456 1.755 1.728l18.418 6.088c-.455-2.01-.693-4.09-.693-6.208z" transform="translate(76.218586, 29.622787)"/>
                                    <path d="M14.795 61.222c.003 4.542 4.369 8.226 9.751 8.23 2.298.001 7.206-.927 7.3-4.838.064-2.608-.269-4.83-1-6.668-3.767-2.825-6.665-6.547-8.479-10.768-4.006 3.718-7.575 10.781-7.572 14.044z" transform="translate(76.218586, 29.622787) translate(23.324493, 58.314988) rotate(17.000000) translate(-23.324493, -58.314988)"/>
                                </g>
                                <path d="M54.146 21.331c13.604 0 24.632 11.012 24.632 24.595 0 13.584-11.028 24.595-24.632 24.595-13.604 0-24.631-11.011-24.631-24.595 0-13.583 11.027-24.595 24.631-24.595zm-6.774 11.683c-2.04 0-3.694 1.651-3.694 3.689 0 2.038 1.654 3.69 3.694 3.69 2.041 0 3.695-1.652 3.695-3.69 0-2.038-1.654-3.69-3.695-3.69z" transform="translate(76.218586, 29.622787)"/>
                            </g>
                        </g>
                    </g>
                </g>
            </g>
        </g>
    </g>
</svg>
