<svg xmlns="http://www.w3.org/2000/svg" xmlns:xlink="http://www.w3.org/1999/xlink" width="428" height="761" viewBox="0 0 428 761">
    <defs>
        <path id="bya1rzjoca" d="M0 0H428V761H0z"/>
    </defs>
    <g fill="none" fill-rule="evenodd">
        <g>
            <g transform="translate(-2743.000000, -1082.000000) translate(2743.000000, 1082.000000)">
                <mask id="lb3ut4ed3b" fill="#fff">
                    <use xlink:href="#bya1rzjoca"/>
                </mask>
                <g mask="url(#lb3ut4ed3b)">
                    <g>
                        <g>
                            <g>
                                <g>
                                    <g>
                                        <path fill="#00F5B3" d="M92.27 242.906c25.942 0 42.35 14.294 57.843 0 12.362-11.406 33.73-15.96 33.73-32.035 0-20.307 7.23-54.866-24.883-67.6-11.78-4.67-19.093 5.329-35.689 5.61-8.947.153-22.883-16.87-40.686-16.87-18.895 0-19.78 8.726-33.851 16.87-5.812 3.365-30.325 4.063-35.548 7.124C-.152 163.82 0 178.352 0 193.835c0 12.357 2.03 25.074 13.186 33.34 5.295 3.923 18.704 4.02 23.677 7.845 6.318 4.86 12.06 11.524 19.177 14.247 10.07 3.853 22.652-6.36 36.23-6.36z" transform="translate(-195.168000, 73.019490) translate(0.000000, -0.000000) translate(0.000000, -0.000000) translate(0.000000, -0.000000) translate(0.000000, -0.000000) translate(268.808317, 125.067794) scale(-1, 1) translate(-268.808317, -125.067794) translate(166.634667, -0.000000)"/>
                                        <g>
                                            <path fill="#FFB7A2" d="M75.001 42.59c12.684.002 22.964-9.255 22.963-12.507 0-3.252-10.284-12.513-22.967-12.515-12.684-.003-22.964 10.576-22.964 12.507 0 1.93 10.285 12.513 22.968 12.515z" transform="translate(-195.168000, 73.019490) translate(0.000000, -0.000000) translate(0.000000, -0.000000) translate(0.000000, -0.000000) translate(0.000000, -0.000000) translate(268.808317, 125.067794) scale(-1, 1) translate(-268.808317, -125.067794) translate(166.634667, -0.000000) translate(50.881864, -0.000000) translate(74.998837, 30.078794) rotate(-98.000000) translate(-74.998837, -30.078794)"/>
                                            <path fill="#FF918E" d="M84.97 40.269c15.448-.006 27.975-7.728 27.976-10.438.001-2.71-12.52-10.423-27.969-10.416C69.528 19.42 57.001 28.244 57 29.853c0 1.609 12.52 10.422 27.97 10.416z" transform="translate(-195.168000, 73.019490) translate(0.000000, -0.000000) translate(0.000000, -0.000000) translate(0.000000, -0.000000) translate(0.000000, -0.000000) translate(268.808317, 125.067794) scale(-1, 1) translate(-268.808317, -125.067794) translate(166.634667, -0.000000) translate(50.881864, -0.000000) translate(84.973246, 29.841719) rotate(-71.000000) translate(-84.973246, -29.841719)"/>
                                            <path fill="#FFB7A2" d="M104.15 43.615c15.44-.01 27.962-7.739 27.963-10.45.002-2.713-12.51-10.426-27.95-10.416-15.44.01-27.962 8.841-27.963 10.451-.002 1.61 12.51 10.425 27.95 10.415z" transform="translate(-195.168000, 73.019490) translate(0.000000, -0.000000) translate(0.000000, -0.000000) translate(0.000000, -0.000000) translate(0.000000, -0.000000) translate(268.808317, 125.067794) scale(-1, 1) translate(-268.808317, -125.067794) translate(166.634667, -0.000000) translate(50.881864, -0.000000) translate(104.156425, 33.182245) rotate(-42.000000) translate(-104.156425, -33.182245)"/>
                                            <path fill="#FF918E" d="M49.121 48.67c12.677.008 22.95-5.544 22.95-7.496-.002-1.952-10.282-7.517-22.96-7.525-12.676-.008-22.949 6.337-22.948 7.496 0 1.159 10.281 7.517 22.958 7.525z" transform="translate(-195.168000, 73.019490) translate(0.000000, -0.000000) translate(0.000000, -0.000000) translate(0.000000, -0.000000) translate(0.000000, -0.000000) translate(268.808317, 125.067794) scale(-1, 1) translate(-268.808317, -125.067794) translate(166.634667, -0.000000) translate(50.881864, -0.000000) translate(49.116538, 41.159180) rotate(-130.000000) translate(-49.116538, -41.159180)"/>
                                            <path stroke="#107778" stroke-width="6.454" d="M80.157 51.72c20.522 40.53 29.419 71.545 26.69 93.045" transform="translate(-195.168000, 73.019490) translate(0.000000, -0.000000) translate(0.000000, -0.000000) translate(0.000000, -0.000000) translate(0.000000, -0.000000) translate(268.808317, 125.067794) scale(-1, 1) translate(-268.808317, -125.067794) translate(166.634667, -0.000000) translate(50.881864, -0.000000)"/>
                                            <path fill="#FF918E" d="M115.1 69.38c21.188 0 38.365-11.434 38.365-15.45S136.288 38.48 115.1 38.48c-21.19 0-38.366 13.066-38.366 15.45 0 2.384 17.177 15.45 38.366 15.45z" transform="translate(-195.168000, 73.019490) translate(0.000000, -0.000000) translate(0.000000, -0.000000) translate(0.000000, -0.000000) translate(0.000000, -0.000000) translate(268.808317, 125.067794) scale(-1, 1) translate(-268.808317, -125.067794) translate(166.634667, -0.000000) translate(50.881864, -0.000000)"/>
                                            <path fill="#FF918E" d="M64.45 31.775c12.68.007 22.959-3.693 22.958-4.994 0-1.3-10.282-5.01-22.963-5.017-12.681-.006-22.959 4.222-22.959 4.994 0 .773 10.283 5.011 22.964 5.017z" transform="translate(-195.168000, 73.019490) translate(0.000000, -0.000000) translate(0.000000, -0.000000) translate(0.000000, -0.000000) translate(0.000000, -0.000000) translate(268.808317, 125.067794) scale(-1, 1) translate(-268.808317, -125.067794) translate(166.634667, -0.000000) translate(50.881864, -0.000000) translate(64.447110, 26.769816) rotate(-115.000000) translate(-64.447110, -26.769816)"/>
                                            <path fill="#FFB7A2" d="M60.798 44.494c12.677.008 22.95-5.544 22.95-7.496-.002-1.952-10.282-7.517-22.96-7.525-12.677-.008-22.95 6.337-22.949 7.496.001 1.159 10.282 7.517 22.959 7.525z" transform="translate(-195.168000, 73.019490) translate(0.000000, -0.000000) translate(0.000000, -0.000000) translate(0.000000, -0.000000) translate(0.000000, -0.000000) translate(268.808317, 125.067794) scale(-1, 1) translate(-268.808317, -125.067794) translate(166.634667, -0.000000) translate(50.881864, -0.000000) translate(60.793256, 36.983523) rotate(-130.000000) translate(-60.793256, -36.983523)"/>
                                            <path fill="#FFB7A2" d="M38.366 67.71c21.19 0 38.367-11.434 38.367-15.45S59.556 36.81 38.366 36.81C17.177 36.81 0 49.875 0 52.26c0 2.384 17.177 15.45 38.366 15.45z" transform="translate(-195.168000, 73.019490) translate(0.000000, -0.000000) translate(0.000000, -0.000000) translate(0.000000, -0.000000) translate(0.000000, -0.000000) translate(268.808317, 125.067794) scale(-1, 1) translate(-268.808317, -125.067794) translate(166.634667, -0.000000) translate(50.881864, -0.000000)"/>
                                            <path fill="#FF918E" d="M58.793 80.23c12.673-.007 22.953-9.28 22.955-12.535.002-3.254-10.266-12.514-22.94-12.507-12.673.008-22.953 10.604-22.955 12.536 0 1.932 10.266 12.515 22.94 12.507z" transform="translate(-195.168000, 73.019490) translate(0.000000, -0.000000) translate(0.000000, -0.000000) translate(0.000000, -0.000000) translate(0.000000, -0.000000) translate(268.808317, 125.067794) scale(-1, 1) translate(-268.808317, -125.067794) translate(166.634667, -0.000000) translate(50.881864, -0.000000) translate(58.800615, 67.709527) rotate(-37.000000) translate(-58.800615, -67.709527)"/>
                                            <path fill="#FFB7A2" d="M78.281 69.064c6.918.002 12.525-5.552 12.524-7.504 0-1.951-5.61-7.508-12.528-7.51-6.918-.002-12.524 6.345-12.524 7.503 0 1.159 5.61 7.509 12.528 7.51z" transform="translate(-195.168000, 73.019490) translate(0.000000, -0.000000) translate(0.000000, -0.000000) translate(0.000000, -0.000000) translate(0.000000, -0.000000) translate(268.808317, 125.067794) scale(-1, 1) translate(-268.808317, -125.067794) translate(166.634667, -0.000000) translate(50.881864, -0.000000) translate(78.279270, 61.556805) rotate(-103.000000) translate(-78.279270, -61.556805)"/>
                                        </g>
                                        <path fill="#29DAA1" d="M177.939 204.68c-2.81 6.38-10.258 9.273-16.637 6.464-.809-.356-1.577-.796-2.294-1.313l-37.056-26.712c-.851-.614-1.044-1.8-.43-2.652.425-.59 1.152-.886 1.87-.76l45.475 8.003c6.651 1.17 11.094 7.51 9.924 14.161-.17.967-.457 1.91-.852 2.809z" transform="translate(-195.168000, 73.019490) translate(0.000000, -0.000000) translate(0.000000, -0.000000) translate(0.000000, -0.000000) translate(0.000000, -0.000000) translate(268.808317, 125.067794) scale(-1, 1) translate(-268.808317, -125.067794) translate(166.634667, -0.000000) translate(149.724308, 198.609512) rotate(-57.000000) translate(-149.724308, -198.609512)"/>
                                        <path fill="#29DAA1" d="M131.193 178.71c-2.81 6.38-10.258 9.273-16.637 6.464-.808-.356-1.577-.796-2.293-1.312l-37.057-26.714c-.851-.613-1.044-1.8-.43-2.65.426-.592 1.152-.887 1.87-.76l45.476 8.002c6.65 1.17 11.093 7.51 9.923 14.162-.17.967-.456 1.91-.852 2.808z" transform="translate(-195.168000, 73.019490) translate(0.000000, -0.000000) translate(0.000000, -0.000000) translate(0.000000, -0.000000) translate(0.000000, -0.000000) translate(268.808317, 125.067794) scale(-1, 1) translate(-268.808317, -125.067794) translate(166.634667, -0.000000) translate(102.978466, 172.639438) rotate(-119.000000) translate(-102.978466, -172.639438)"/>
                                        <path fill="#29DAA1" d="M84.447 194.292c-2.81 6.38-10.258 9.273-16.637 6.464-.808-.356-1.577-.796-2.293-1.312L28.46 172.73c-.85-.613-1.043-1.8-.43-2.651.426-.59 1.152-.886 1.87-.76l45.476 8.003c6.65 1.17 11.093 7.51 9.923 14.162-.17.967-.456 1.91-.852 2.808z" transform="translate(-195.168000, 73.019490) translate(0.000000, -0.000000) translate(0.000000, -0.000000) translate(0.000000, -0.000000) translate(0.000000, -0.000000) translate(268.808317, 125.067794) scale(-1, 1) translate(-268.808317, -125.067794) translate(166.634667, -0.000000) translate(56.232717, 188.221500) rotate(-169.000000) translate(-56.232717, -188.221500)"/>
                                    </g>
                                    <g>
                                        <path fill="#00F5B3" d="M92.27 110.895c25.942 0 42.35 14.294 57.843 0 12.362-11.406 33.73-15.96 33.73-32.035 0-20.307 7.23-54.866-24.883-67.6-11.78-4.671-19.093 5.329-35.689 5.61C114.324 17.023 100.388 0 82.585 0 63.69 0 62.805 8.726 48.734 16.87c-5.812 3.365-30.325 4.063-35.548 7.124C-.152 31.81 0 46.34 0 61.824c0 12.357 2.03 25.074 13.186 33.34 5.295 3.923 18.704 4.02 23.677 7.845 6.318 4.86 12.06 11.524 19.177 14.247 10.07 3.853 22.652-6.36 36.23-6.36z" transform="translate(-195.168000, 73.019490) translate(0.000000, -0.000000) translate(0.000000, -0.000000) translate(0.000000, -0.000000) translate(0.000000, -0.000000) translate(146.289872, 293.826873) scale(-1, 1) translate(-146.289872, -293.826873) translate(53.502446, 234.764627)"/>
                                        <path fill="#29DAA1" d="M84.447 62.281c-2.81 6.38-10.258 9.273-16.637 6.464-.808-.356-1.577-.796-2.293-1.312L28.46 40.719c-.85-.613-1.043-1.8-.43-2.651.426-.59 1.152-.886 1.87-.76l45.476 8.003c6.65 1.17 11.093 7.51 9.923 14.161-.17.968-.456 1.91-.852 2.81z" transform="translate(-195.168000, 73.019490) translate(0.000000, -0.000000) translate(0.000000, -0.000000) translate(0.000000, -0.000000) translate(0.000000, -0.000000) translate(146.289872, 293.826873) scale(-1, 1) translate(-146.289872, -293.826873) translate(53.502446, 234.764627) translate(56.232717, 56.210404) rotate(-169.000000) translate(-56.232717, -56.210404)"/>
                                    </g>
                                    <path fill="#00F5B3" d="M573.743 251.718c25.941 0 42.35 14.294 57.842 0 12.362-11.406 33.731-15.96 33.731-32.035 0-20.307 7.229-54.866-24.883-67.6-11.78-4.67-19.093 5.33-35.689 5.611-8.948.152-22.883-16.87-40.686-16.87-18.895 0-19.78 8.726-33.852 16.87-5.812 3.364-30.325 4.062-35.547 7.123-13.338 7.816-13.186 22.347-13.186 37.83 0 12.357 2.029 25.074 13.186 33.34 5.295 3.923 18.703 4.02 23.676 7.845 6.319 4.86 12.06 11.524 19.177 14.247 10.071 3.853 22.652-6.36 36.231-6.36z" transform="translate(-195.168000, 73.019490) translate(0.000000, -0.000000) translate(0.000000, -0.000000) translate(0.000000, -0.000000) translate(0.000000, -0.000000) translate(573.742859, 199.885616) scale(-1, 1) translate(-573.742859, -199.885616)"/>
                                    <g>
                                        <path fill="#FFB7A2" d="M75.001 42.59c12.684.002 22.964-9.255 22.963-12.507 0-3.252-10.284-12.513-22.967-12.515-12.684-.003-22.964 10.576-22.964 12.507 0 1.93 10.285 12.513 22.968 12.515z" transform="translate(-195.168000, 73.019490) translate(0.000000, -0.000000) translate(0.000000, -0.000000) translate(0.000000, -0.000000) translate(0.000000, -0.000000) translate(526.154667, 68.455772) translate(74.998837, 30.078794) rotate(-98.000000) translate(-74.998837, -30.078794)"/>
                                        <path fill="#FF918E" d="M84.97 40.269c15.448-.006 27.975-7.728 27.976-10.438.001-2.71-12.52-10.423-27.969-10.416C69.528 19.42 57.001 28.244 57 29.853c0 1.609 12.52 10.422 27.97 10.416z" transform="translate(-195.168000, 73.019490) translate(0.000000, -0.000000) translate(0.000000, -0.000000) translate(0.000000, -0.000000) translate(0.000000, -0.000000) translate(526.154667, 68.455772) translate(84.973246, 29.841719) rotate(-71.000000) translate(-84.973246, -29.841719)"/>
                                        <path fill="#FFB7A2" d="M104.15 43.615c15.44-.01 27.962-7.739 27.963-10.45.002-2.713-12.51-10.426-27.95-10.416-15.44.01-27.962 8.841-27.963 10.451-.002 1.61 12.51 10.425 27.95 10.415z" transform="translate(-195.168000, 73.019490) translate(0.000000, -0.000000) translate(0.000000, -0.000000) translate(0.000000, -0.000000) translate(0.000000, -0.000000) translate(526.154667, 68.455772) translate(104.156425, 33.182245) rotate(-42.000000) translate(-104.156425, -33.182245)"/>
                                        <path fill="#FF918E" d="M49.121 48.67c12.677.008 22.95-5.544 22.95-7.496-.002-1.952-10.282-7.517-22.96-7.525-12.676-.008-22.949 6.337-22.948 7.496 0 1.159 10.281 7.517 22.958 7.525z" transform="translate(-195.168000, 73.019490) translate(0.000000, -0.000000) translate(0.000000, -0.000000) translate(0.000000, -0.000000) translate(0.000000, -0.000000) translate(526.154667, 68.455772) translate(49.116538, 41.159180) rotate(-130.000000) translate(-49.116538, -41.159180)"/>
                                        <path stroke="#107778" stroke-width="6.454" d="M80.157 51.72c20.522 40.53 29.419 71.545 26.69 93.045" transform="translate(-195.168000, 73.019490) translate(0.000000, -0.000000) translate(0.000000, -0.000000) translate(0.000000, -0.000000) translate(0.000000, -0.000000) translate(526.154667, 68.455772)"/>
                                        <path fill="#FF918E" d="M115.1 69.38c21.188 0 38.365-11.434 38.365-15.45S136.288 38.48 115.1 38.48c-21.19 0-38.366 13.066-38.366 15.45 0 2.384 17.177 15.45 38.366 15.45z" transform="translate(-195.168000, 73.019490) translate(0.000000, -0.000000) translate(0.000000, -0.000000) translate(0.000000, -0.000000) translate(0.000000, -0.000000) translate(526.154667, 68.455772)"/>
                                        <path fill="#FF918E" d="M64.45 31.775c12.68.007 22.959-3.693 22.958-4.994 0-1.3-10.282-5.01-22.963-5.017-12.681-.006-22.959 4.222-22.959 4.994 0 .773 10.283 5.011 22.964 5.017z" transform="translate(-195.168000, 73.019490) translate(0.000000, -0.000000) translate(0.000000, -0.000000) translate(0.000000, -0.000000) translate(0.000000, -0.000000) translate(526.154667, 68.455772) translate(64.447110, 26.769816) rotate(-115.000000) translate(-64.447110, -26.769816)"/>
                                        <path fill="#FFB7A2" d="M60.798 44.494c12.677.008 22.95-5.544 22.95-7.496-.002-1.952-10.282-7.517-22.96-7.525-12.677-.008-22.95 6.337-22.949 7.496.001 1.159 10.282 7.517 22.959 7.525z" transform="translate(-195.168000, 73.019490) translate(0.000000, -0.000000) translate(0.000000, -0.000000) translate(0.000000, -0.000000) translate(0.000000, -0.000000) translate(526.154667, 68.455772) translate(60.793256, 36.983523) rotate(-130.000000) translate(-60.793256, -36.983523)"/>
                                        <path fill="#FFB7A2" d="M38.366 67.71c21.19 0 38.367-11.434 38.367-15.45S59.556 36.81 38.366 36.81C17.177 36.81 0 49.875 0 52.26c0 2.384 17.177 15.45 38.366 15.45z" transform="translate(-195.168000, 73.019490) translate(0.000000, -0.000000) translate(0.000000, -0.000000) translate(0.000000, -0.000000) translate(0.000000, -0.000000) translate(526.154667, 68.455772)"/>
                                        <path fill="#FF918E" d="M58.793 80.23c12.673-.007 22.953-9.28 22.955-12.535.002-3.254-10.266-12.514-22.94-12.507-12.673.008-22.953 10.604-22.955 12.536 0 1.932 10.266 12.515 22.94 12.507z" transform="translate(-195.168000, 73.019490) translate(0.000000, -0.000000) translate(0.000000, -0.000000) translate(0.000000, -0.000000) translate(0.000000, -0.000000) translate(526.154667, 68.455772) translate(58.800615, 67.709527) rotate(-37.000000) translate(-58.800615, -67.709527)"/>
                                        <path fill="#FFB7A2" d="M78.281 69.064c6.918.002 12.525-5.552 12.524-7.504 0-1.951-5.61-7.508-12.528-7.51-6.918-.002-12.524 6.345-12.524 7.503 0 1.159 5.61 7.509 12.528 7.51z" transform="translate(-195.168000, 73.019490) translate(0.000000, -0.000000) translate(0.000000, -0.000000) translate(0.000000, -0.000000) translate(0.000000, -0.000000) translate(526.154667, 68.455772) translate(78.279270, 61.556805) rotate(-103.000000) translate(-78.279270, -61.556805)"/>
                                    </g>
                                    <path fill="#29DAA1" d="M544.503 213.492c-2.81 6.38-10.258 9.273-16.637 6.464-.808-.356-1.577-.796-2.293-1.312l-37.057-26.713c-.85-.613-1.043-1.8-.43-2.651.426-.591 1.152-.886 1.87-.76l45.476 8.002c6.65 1.17 11.093 7.51 9.923 14.161-.17.967-.456 1.91-.852 2.81z" transform="translate(-195.168000, 73.019490) translate(0.000000, -0.000000) translate(0.000000, -0.000000) translate(0.000000, -0.000000) translate(0.000000, -0.000000) translate(516.288833, 207.421786) scale(-1, 1) rotate(-57.000000) translate(-516.288833, -207.421786)"/>
                                    <path fill="#29DAA1" d="M591.25 187.523c-2.81 6.379-10.258 9.272-16.637 6.463-.809-.356-1.578-.796-2.294-1.312l-37.057-26.713c-.851-.614-1.044-1.8-.43-2.652.426-.59 1.152-.886 1.87-.76l45.476 8.003c6.65 1.17 11.094 7.511 9.923 14.162-.17.967-.456 1.91-.852 2.809z" transform="translate(-195.168000, 73.019490) translate(0.000000, -0.000000) translate(0.000000, -0.000000) translate(0.000000, -0.000000) translate(0.000000, -0.000000) translate(563.034674, 181.451712) scale(-1, 1) rotate(-119.000000) translate(-563.034674, -181.451712)"/>
                                    <path fill="#29DAA1" d="M637.995 203.105c-2.81 6.379-10.258 9.273-16.637 6.463-.808-.356-1.577-.796-2.294-1.312l-37.056-26.713c-.851-.614-1.044-1.8-.43-2.652.426-.59 1.152-.886 1.87-.76l45.475 8.003c6.651 1.17 11.094 7.511 9.924 14.162-.17.967-.457 1.91-.852 2.809z" transform="translate(-195.168000, 73.019490) translate(0.000000, -0.000000) translate(0.000000, -0.000000) translate(0.000000, -0.000000) translate(0.000000, -0.000000) translate(609.780423, 197.033774) scale(-1, 1) rotate(-169.000000) translate(-609.780423, -197.033774)"/>
                                    <path fill="#29DAA1" d="M421.012 294.633c31.48 0 51.392 17.482 70.191 0 15.002-13.95 40.933-19.52 40.933-39.18 0-24.837 8.772-67.105-30.196-82.679-14.294-5.713-23.17 6.518-43.308 6.862-10.858.186-27.77-20.633-49.373-20.633-22.93 0-24.004 10.672-41.079 20.633-7.053 4.114-36.8 4.969-43.137 8.712-16.186 9.56-16.002 27.332-16.002 46.267 0 15.115 2.463 30.668 16.002 40.778 6.425 4.798 22.697 4.916 28.731 9.594 7.668 5.945 14.635 14.095 23.272 17.426 12.22 4.712 27.488-7.78 43.966-7.78z" transform="translate(-195.168000, 73.019490) translate(0.000000, -0.000000) translate(0.000000, -0.000000) translate(0.000000, -0.000000) translate(0.000000, -0.000000)"/>
                                    <path fill="#00F5B3" d="M478.269 225.45c-1.38 5.219-6.728 8.33-11.946 6.95-.966-.255-1.887-.657-2.731-1.191l-31.217-19.773c-.886-.561-1.15-1.735-.588-2.62.383-.605 1.073-.943 1.785-.875l34.83 3.342c6.226.597 10.789 6.128 10.191 12.355-.058.612-.167 1.218-.324 1.813z" transform="translate(-195.168000, 73.019490) translate(0.000000, -0.000000) translate(0.000000, -0.000000) translate(0.000000, -0.000000) translate(0.000000, -0.000000) translate(453.668194, 222.763619) rotate(-68.000000) translate(-453.668194, -222.763619)"/>
                                    <path fill="#00F5B3" d="M405.64 236.085c-2.762 5.865-9.754 8.381-15.62 5.62-.435-.205-.857-.437-1.264-.694l-50.445-31.838c-.887-.56-1.152-1.733-.592-2.62.44-.697 1.28-1.03 2.078-.826l58.637 15.046c5.874 1.507 9.414 7.49 7.907 13.364-.172.67-.407 1.323-.701 1.948z" transform="translate(-195.168000, 73.019490) translate(0.000000, -0.000000) translate(0.000000, -0.000000) translate(0.000000, -0.000000) translate(0.000000, -0.000000) translate(369.695115, 225.411407) rotate(-180.000000) translate(-369.695115, -225.411407)"/>
                                    <path fill="#00F5B3" d="M443.554 206.125c-1.765 6.674-8.606 10.654-15.28 8.89-1.235-.327-2.413-.841-3.493-1.525l-41.803-26.478c-.886-.562-1.15-1.735-.588-2.621.383-.605 1.073-.943 1.785-.874l46.758 4.486c7.964.764 13.8 7.84 13.036 15.803-.075.783-.214 1.559-.415 2.32z" transform="translate(-195.168000, 73.019490) translate(0.000000, -0.000000) translate(0.000000, -0.000000) translate(0.000000, -0.000000) translate(0.000000, -0.000000) translate(412.087833, 202.687811) rotate(-130.000000) translate(-412.087833, -202.687811)"/>
                                    <g>
                                        <path fill="#29DAA1" d="M111.97 135.63c31.48 0 51.393 17.483 70.192 0 15.001-13.95 40.933-19.52 40.933-39.18 0-24.837 8.772-67.105-30.197-82.678-14.294-5.713-23.169 6.517-43.308 6.862C138.732 20.819 121.821 0 100.217 0 77.288 0 76.214 10.673 59.138 20.634c-7.052 4.114-36.799 4.968-43.136 8.711C-.184 38.905 0 56.677 0 75.613c0 15.114 2.463 30.668 16.002 40.778 6.425 4.797 22.696 4.916 28.73 9.594 7.668 5.945 14.635 14.095 23.272 17.425 12.221 4.712 27.488-7.78 43.967-7.78z" transform="translate(-195.168000, 73.019490) translate(0.000000, -0.000000) translate(0.000000, -0.000000) translate(0.000000, -0.000000) translate(0.000000, -0.000000) translate(172.790794, 227.485757)"/>
                                        <path fill="#00F5B3" d="M169.227 66.448c-1.38 5.218-6.728 8.33-11.946 6.95-.966-.255-1.887-.657-2.73-1.192l-31.218-19.772c-.886-.562-1.15-1.735-.588-2.621.383-.605 1.073-.943 1.786-.874l34.83 3.341c6.225.597 10.788 6.129 10.19 12.355-.058.612-.166 1.219-.324 1.813z" transform="translate(-195.168000, 73.019490) translate(0.000000, -0.000000) translate(0.000000, -0.000000) translate(0.000000, -0.000000) translate(0.000000, -0.000000) translate(172.790794, 227.485757) translate(144.626699, 63.761102) rotate(-68.000000) translate(-144.626699, -63.761102)"/>
                                        <path fill="#00F5B3" d="M96.598 77.083c-2.761 5.865-9.754 8.38-15.619 5.62-.435-.205-.858-.437-1.265-.694L29.27 50.17c-.887-.56-1.152-1.733-.593-2.62.44-.697 1.28-1.03 2.079-.825L89.393 61.77c5.874 1.507 9.414 7.49 7.907 13.365-.172.67-.407 1.322-.702 1.948z" transform="translate(-195.168000, 73.019490) translate(0.000000, -0.000000) translate(0.000000, -0.000000) translate(0.000000, -0.000000) translate(0.000000, -0.000000) translate(172.790794, 227.485757) translate(60.653620, 66.408891) rotate(-180.000000) translate(-60.653620, -66.408891)"/>
                                        <path fill="#00F5B3" d="M134.512 47.123c-1.764 6.674-8.605 10.654-15.279 8.89-1.236-.328-2.414-.842-3.493-1.526L73.936 28.01c-.886-.561-1.15-1.735-.588-2.62.383-.605 1.074-.943 1.786-.875l46.757 4.487c7.964.764 13.8 7.839 13.036 15.803-.075.783-.214 1.558-.415 2.319z" transform="translate(-195.168000, 73.019490) translate(0.000000, -0.000000) translate(0.000000, -0.000000) translate(0.000000, -0.000000) translate(0.000000, -0.000000) translate(172.790794, 227.485757) translate(103.046338, 43.685294) rotate(-130.000000) translate(-103.046338, -43.685294)"/>
                                    </g>
                                    <path fill="#00F5B3" d="M397.148 353.002c25.941 0 42.35 14.294 57.842 0 12.362-11.406 33.731-15.96 33.731-32.035 0-20.307 7.229-54.866-24.883-67.6-11.78-4.67-19.093 5.33-35.69 5.61-8.947.153-22.882-16.87-40.685-16.87-18.895 0-19.78 8.726-33.852 16.87-5.812 3.365-30.325 4.063-35.547 7.124-13.338 7.816-13.187 22.347-13.187 37.83 0 12.357 2.03 25.074 13.187 33.34 5.295 3.923 18.703 4.02 23.676 7.845 6.319 4.86 12.06 11.524 19.177 14.247 10.071 3.853 22.652-6.36 36.231-6.36z" transform="translate(-195.168000, 73.019490) translate(0.000000, -0.000000) translate(0.000000, -0.000000) translate(0.000000, -0.000000) translate(0.000000, -0.000000) translate(397.147719, 301.169434) scale(-1, 1) translate(-397.147719, -301.169434)"/>
                                    <path fill="#29DAA1" d="M367.908 314.776c-2.81 6.38-10.258 9.273-16.637 6.464-.808-.356-1.577-.796-2.294-1.313l-37.056-26.712c-.851-.614-1.044-1.8-.43-2.652.426-.59 1.152-.886 1.87-.76l45.476 8.003c6.65 1.17 11.093 7.51 9.923 14.161-.17.967-.456 1.91-.852 2.81z" transform="translate(-195.168000, 73.019490) translate(0.000000, -0.000000) translate(0.000000, -0.000000) translate(0.000000, -0.000000) translate(0.000000, -0.000000) translate(339.693693, 308.705604) scale(-1, 1) rotate(-57.000000) translate(-339.693693, -308.705604)"/>
                                    <path fill="#29DAA1" d="M414.654 288.806c-2.81 6.38-10.258 9.273-16.637 6.464-.808-.356-1.577-.796-2.293-1.312l-37.057-26.714c-.851-.613-1.044-1.8-.43-2.65.426-.592 1.152-.887 1.87-.76l45.476 8.002c6.65 1.17 11.093 7.51 9.923 14.162-.17.967-.456 1.91-.852 2.808z" transform="translate(-195.168000, 73.019490) translate(0.000000, -0.000000) translate(0.000000, -0.000000) translate(0.000000, -0.000000) translate(0.000000, -0.000000) translate(386.439534, 282.735530) scale(-1, 1) rotate(-119.000000) translate(-386.439534, -282.735530)"/>
                                    <path fill="#29DAA1" d="M461.4 304.388c-2.81 6.38-10.258 9.273-16.637 6.464-.808-.356-1.577-.796-2.294-1.312l-37.056-26.714c-.851-.613-1.044-1.8-.43-2.65.426-.592 1.152-.887 1.87-.76l45.475 8.002c6.651 1.17 11.094 7.51 9.923 14.162-.17.967-.456 1.91-.852 2.808z" transform="translate(-195.168000, 73.019490) translate(0.000000, -0.000000) translate(0.000000, -0.000000) translate(0.000000, -0.000000) translate(0.000000, -0.000000) translate(433.185284, 298.317592) scale(-1, 1) rotate(-169.000000) translate(-433.185284, -298.317592)"/>
                                    <path fill="#29DAA1" d="M563.847 369.947c31.48 0 51.391 17.482 70.19 0 15.002-13.95 40.934-19.52 40.934-39.181 0-24.837 8.771-67.105-30.197-82.678-14.294-5.713-23.169 6.517-43.308 6.862-10.858.186-27.769-20.634-49.373-20.634-22.93 0-24.003 10.673-41.079 20.634-7.053 4.114-36.8 4.968-43.137 8.711-16.186 9.56-16.001 27.332-16.001 46.268 0 15.115 2.462 30.668 16.001 40.778 6.426 4.798 22.697 4.916 28.732 9.594 7.667 5.945 14.634 14.095 23.271 17.425 12.221 4.713 27.488-7.78 43.967-7.78z" transform="translate(-195.168000, 73.019490) translate(0.000000, -0.000000) translate(0.000000, -0.000000) translate(0.000000, -0.000000) translate(0.000000, -0.000000)"/>
                                    <path fill="#00F5B3" d="M621.103 300.765c-1.38 5.217-6.728 8.329-11.946 6.95-.966-.256-1.887-.658-2.73-1.193l-31.218-19.772c-.886-.562-1.15-1.735-.588-2.621.383-.605 1.073-.943 1.786-.874l34.829 3.341c6.226.598 10.789 6.13 10.192 12.355-.06.612-.168 1.219-.325 1.814z" transform="translate(-195.168000, 73.019490) translate(0.000000, -0.000000) translate(0.000000, -0.000000) translate(0.000000, -0.000000) translate(0.000000, -0.000000) translate(596.502499, 298.077227) rotate(-68.000000) translate(-596.502499, -298.077227)"/>
                                    <path fill="#00F5B3" d="M548.474 311.4c-2.761 5.864-9.754 8.38-15.619 5.619-.435-.205-.858-.437-1.265-.694l-50.444-31.839c-.887-.56-1.153-1.732-.593-2.62.44-.697 1.28-1.03 2.078-.825l58.638 15.045c5.874 1.507 9.414 7.491 7.906 13.365-.172.67-.406 1.322-.701 1.948z" transform="translate(-195.168000, 73.019490) translate(0.000000, -0.000000) translate(0.000000, -0.000000) translate(0.000000, -0.000000) translate(0.000000, -0.000000) translate(512.529419, 300.725016) rotate(-180.000000) translate(-512.529419, -300.725016)"/>
                                    <path fill="#00F5B3" d="M586.388 281.44c-1.764 6.673-8.605 10.653-15.28 8.888-1.235-.326-2.413-.84-3.493-1.525l-41.803-26.478c-.886-.561-1.15-1.734-.588-2.62.383-.605 1.073-.943 1.786-.875l46.757 4.487c7.964.764 13.8 7.84 13.036 15.803-.075.783-.214 1.559-.415 2.32z" transform="translate(-195.168000, 73.019490) translate(0.000000, -0.000000) translate(0.000000, -0.000000) translate(0.000000, -0.000000) translate(0.000000, -0.000000) translate(554.922137, 278.001419) rotate(-130.000000) translate(-554.922137, -278.001419)"/>
                                    <path fill="#29DAA1" d="M704.084 271.26c31.48 0 51.392 17.482 70.191 0 15.001-13.95 40.933-19.52 40.933-39.181 0-24.837 8.772-67.104-30.196-82.678-14.295-5.713-23.17 6.517-43.309 6.862-10.858.186-27.769-20.634-49.373-20.634-22.929 0-24.003 10.673-41.078 20.634-7.053 4.114-36.8 4.969-43.137 8.712-16.186 9.56-16.002 27.331-16.002 46.267 0 15.115 2.463 30.668 16.002 40.778 6.425 4.798 22.697 4.916 28.73 9.594 7.669 5.945 14.636 14.095 23.272 17.425 12.221 4.713 27.488-7.78 43.967-7.78z" transform="translate(-195.168000, 73.019490) translate(0.000000, -0.000000) translate(0.000000, -0.000000) translate(0.000000, -0.000000) translate(0.000000, -0.000000)"/>
                                    <path fill="#00F5B3" d="M688.711 212.712c-2.76 5.865-9.754 8.381-15.619 5.62-.435-.205-.858-.437-1.265-.694L621.383 185.8c-.887-.56-1.152-1.733-.592-2.62.44-.697 1.28-1.031 2.078-.826l58.637 15.045c5.874 1.508 9.414 7.491 7.907 13.365-.172.67-.407 1.322-.702 1.948z" transform="translate(-195.168000, 73.019490) translate(0.000000, -0.000000) translate(0.000000, -0.000000) translate(0.000000, -0.000000) translate(0.000000, -0.000000) translate(652.766736, 202.038218) rotate(-180.000000) translate(-652.766736, -202.038218)"/>
                                    <g fill="#29DAA1">
                                        <path d="M111.97 135.63c31.48 0 51.393 17.483 70.192 0 15.001-13.95 40.933-19.52 40.933-39.18 0-24.837 8.772-67.105-30.197-82.678-14.294-5.713-23.169 6.517-43.308 6.862C138.732 20.819 121.821 0 100.217 0 77.288 0 76.214 10.673 59.138 20.634c-7.052 4.114-36.799 4.968-43.136 8.711C-.184 38.905 0 56.677 0 75.613c0 15.114 2.463 30.668 16.002 40.778 6.425 4.797 22.696 4.916 28.73 9.594 7.668 5.945 14.635 14.095 23.272 17.425 12.221 4.712 27.488-7.78 43.967-7.78z" transform="translate(-195.168000, 73.019490) translate(0.000000, -0.000000) translate(0.000000, -0.000000) translate(0.000000, -0.000000) translate(0.000000, -0.000000) translate(0.000000, 135.629328)"/>
                                    </g>
                                    <g>
                                        <path fill="#FFB7A2" d="M75.001 42.59c12.684.002 22.964-9.255 22.963-12.507 0-3.252-10.284-12.513-22.967-12.515-12.684-.003-22.964 10.576-22.964 12.507 0 1.93 10.285 12.513 22.968 12.515z" transform="translate(-195.168000, 73.019490) translate(0.000000, -0.000000) translate(0.000000, -0.000000) translate(0.000000, -0.000000) translate(0.000000, -0.000000) translate(175.765333, 149.461769) translate(74.998837, 30.078794) rotate(-98.000000) translate(-74.998837, -30.078794)"/>
                                        <path fill="#FF918E" d="M84.97 40.269c15.448-.006 27.975-7.728 27.976-10.438.001-2.71-12.52-10.423-27.969-10.416C69.528 19.42 57.001 28.244 57 29.853c0 1.609 12.52 10.422 27.97 10.416z" transform="translate(-195.168000, 73.019490) translate(0.000000, -0.000000) translate(0.000000, -0.000000) translate(0.000000, -0.000000) translate(0.000000, -0.000000) translate(175.765333, 149.461769) translate(84.973246, 29.841719) rotate(-71.000000) translate(-84.973246, -29.841719)"/>
                                        <path fill="#FFB7A2" d="M104.15 43.615c15.44-.01 27.962-7.739 27.963-10.45.002-2.713-12.51-10.426-27.95-10.416-15.44.01-27.962 8.841-27.963 10.451-.002 1.61 12.51 10.425 27.95 10.415z" transform="translate(-195.168000, 73.019490) translate(0.000000, -0.000000) translate(0.000000, -0.000000) translate(0.000000, -0.000000) translate(0.000000, -0.000000) translate(175.765333, 149.461769) translate(104.156425, 33.182245) rotate(-42.000000) translate(-104.156425, -33.182245)"/>
                                        <path fill="#FF918E" d="M49.121 48.67c12.677.008 22.95-5.544 22.95-7.496-.002-1.952-10.282-7.517-22.96-7.525-12.676-.008-22.949 6.337-22.948 7.496 0 1.159 10.281 7.517 22.958 7.525z" transform="translate(-195.168000, 73.019490) translate(0.000000, -0.000000) translate(0.000000, -0.000000) translate(0.000000, -0.000000) translate(0.000000, -0.000000) translate(175.765333, 149.461769) translate(49.116538, 41.159180) rotate(-130.000000) translate(-49.116538, -41.159180)"/>
                                        <path stroke="#107778" stroke-width="6.454" d="M80.157 51.72c20.522 40.53 29.419 71.545 26.69 93.045" transform="translate(-195.168000, 73.019490) translate(0.000000, -0.000000) translate(0.000000, -0.000000) translate(0.000000, -0.000000) translate(0.000000, -0.000000) translate(175.765333, 149.461769)"/>
                                        <path fill="#FF918E" d="M115.1 69.38c21.188 0 38.365-11.434 38.365-15.45S136.288 38.48 115.1 38.48c-21.19 0-38.366 13.066-38.366 15.45 0 2.384 17.177 15.45 38.366 15.45z" transform="translate(-195.168000, 73.019490) translate(0.000000, -0.000000) translate(0.000000, -0.000000) translate(0.000000, -0.000000) translate(0.000000, -0.000000) translate(175.765333, 149.461769)"/>
                                        <path fill="#FF918E" d="M64.45 31.775c12.68.007 22.959-3.693 22.958-4.994 0-1.3-10.282-5.01-22.963-5.017-12.681-.006-22.959 4.222-22.959 4.994 0 .773 10.283 5.011 22.964 5.017z" transform="translate(-195.168000, 73.019490) translate(0.000000, -0.000000) translate(0.000000, -0.000000) translate(0.000000, -0.000000) translate(0.000000, -0.000000) translate(175.765333, 149.461769) translate(64.447110, 26.769816) rotate(-115.000000) translate(-64.447110, -26.769816)"/>
                                        <path fill="#FFB7A2" d="M60.798 44.494c12.677.008 22.95-5.544 22.95-7.496-.002-1.952-10.282-7.517-22.96-7.525-12.677-.008-22.95 6.337-22.949 7.496.001 1.159 10.282 7.517 22.959 7.525z" transform="translate(-195.168000, 73.019490) translate(0.000000, -0.000000) translate(0.000000, -0.000000) translate(0.000000, -0.000000) translate(0.000000, -0.000000) translate(175.765333, 149.461769) translate(60.793256, 36.983523) rotate(-130.000000) translate(-60.793256, -36.983523)"/>
                                        <path fill="#FFB7A2" d="M38.366 67.71c21.19 0 38.367-11.434 38.367-15.45S59.556 36.81 38.366 36.81C17.177 36.81 0 49.875 0 52.26c0 2.384 17.177 15.45 38.366 15.45z" transform="translate(-195.168000, 73.019490) translate(0.000000, -0.000000) translate(0.000000, -0.000000) translate(0.000000, -0.000000) translate(0.000000, -0.000000) translate(175.765333, 149.461769)"/>
                                        <path fill="#FF918E" d="M58.793 80.23c12.673-.007 22.953-9.28 22.955-12.535.002-3.254-10.266-12.514-22.94-12.507-12.673.008-22.953 10.604-22.955 12.536 0 1.932 10.266 12.515 22.94 12.507z" transform="translate(-195.168000, 73.019490) translate(0.000000, -0.000000) translate(0.000000, -0.000000) translate(0.000000, -0.000000) translate(0.000000, -0.000000) translate(175.765333, 149.461769) translate(58.800615, 67.709527) rotate(-37.000000) translate(-58.800615, -67.709527)"/>
                                        <path fill="#FFB7A2" d="M78.281 69.064c6.918.002 12.525-5.552 12.524-7.504 0-1.951-5.61-7.508-12.528-7.51-6.918-.002-12.524 6.345-12.524 7.503 0 1.159 5.61 7.509 12.528 7.51z" transform="translate(-195.168000, 73.019490) translate(0.000000, -0.000000) translate(0.000000, -0.000000) translate(0.000000, -0.000000) translate(0.000000, -0.000000) translate(175.765333, 149.461769) translate(78.279270, 61.556805) rotate(-103.000000) translate(-78.279270, -61.556805)"/>
                                    </g>
                                </g>
                            </g>
                            <g>
                                <g>
                                    <g>
                                        <path fill="#00F5B3" d="M92.27 110.895c25.942 0 42.35 14.294 57.843 0 12.362-11.406 33.73-15.96 33.73-32.035 0-20.307 7.23-54.866-24.883-67.6-11.78-4.671-19.093 5.329-35.689 5.61C114.324 17.023 100.388 0 82.585 0 63.69 0 62.805 8.726 48.734 16.87c-5.812 3.365-30.325 4.063-35.548 7.124C-.152 31.81 0 46.34 0 61.824c0 12.357 2.03 25.074 13.186 33.34 5.295 3.923 18.704 4.02 23.677 7.845 6.318 4.86 12.06 11.524 19.177 14.247 10.07 3.853 22.652-6.36 36.23-6.36z" transform="translate(-195.168000, 73.019490) translate(0.000000, -0.000000) translate(0.000000, -0.000000) translate(0.000000, 230.326479) translate(266.781208, 66.853309) scale(-1, 1) translate(-266.781208, -66.853309) translate(173.993782, 7.791063)"/>
                                        <path fill="#29DAA1" d="M177.939 72.669c-2.81 6.379-10.258 9.273-16.637 6.464-.809-.356-1.577-.796-2.294-1.313l-37.056-26.712c-.851-.614-1.044-1.8-.43-2.652.425-.59 1.152-.886 1.87-.76l45.475 8.003c6.651 1.17 11.094 7.51 9.924 14.161-.17.967-.457 1.91-.852 2.809z" transform="translate(-195.168000, 73.019490) translate(0.000000, -0.000000) translate(0.000000, -0.000000) translate(0.000000, 230.326479) translate(266.781208, 66.853309) scale(-1, 1) translate(-266.781208, -66.853309) translate(173.993782, 7.791063) translate(149.724308, 66.598416) rotate(-57.000000) translate(-149.724308, -66.598416)"/>
                                        <path fill="#29DAA1" d="M131.193 46.7c-2.81 6.378-10.258 9.272-16.637 6.463-.808-.356-1.577-.796-2.293-1.312L75.206 25.137c-.851-.613-1.044-1.8-.43-2.651.426-.59 1.152-.886 1.87-.76l45.476 8.003c6.65 1.17 11.093 7.51 9.923 14.161-.17.968-.456 1.91-.852 2.81z" transform="translate(-195.168000, 73.019490) translate(0.000000, -0.000000) translate(0.000000, -0.000000) translate(0.000000, 230.326479) translate(266.781208, 66.853309) scale(-1, 1) translate(-266.781208, -66.853309) translate(173.993782, 7.791063) translate(102.978466, 40.628342) rotate(-119.000000) translate(-102.978466, -40.628342)"/>
                                        <path fill="#29DAA1" d="M84.447 62.281c-2.81 6.38-10.258 9.273-16.637 6.464-.808-.356-1.577-.796-2.293-1.312L28.46 40.719c-.85-.613-1.043-1.8-.43-2.651.426-.59 1.152-.886 1.87-.76l45.476 8.003c6.65 1.17 11.093 7.51 9.923 14.161-.17.968-.456 1.91-.852 2.81z" transform="translate(-195.168000, 73.019490) translate(0.000000, -0.000000) translate(0.000000, -0.000000) translate(0.000000, 230.326479) translate(266.781208, 66.853309) scale(-1, 1) translate(-266.781208, -66.853309) translate(173.993782, 7.791063) translate(56.232717, 56.210404) rotate(-169.000000) translate(-56.232717, -56.210404)"/>
                                    </g>
                                    <g>
                                        <path fill="#00F5B3" d="M92.27 110.895c25.942 0 42.35 14.294 57.843 0 12.362-11.406 33.73-15.96 33.73-32.035 0-20.307 7.23-54.866-24.883-67.6-11.78-4.671-19.093 5.329-35.689 5.61C114.324 17.023 100.388 0 82.585 0 63.69 0 62.805 8.726 48.734 16.87c-5.812 3.365-30.325 4.063-35.548 7.124C-.152 31.81 0 46.34 0 61.824c0 12.357 2.03 25.074 13.186 33.34 5.295 3.923 18.704 4.02 23.677 7.845 6.318 4.86 12.06 11.524 19.177 14.247 10.07 3.853 22.652-6.36 36.23-6.36z" transform="translate(-195.168000, 73.019490) translate(0.000000, -0.000000) translate(0.000000, -0.000000) translate(0.000000, 230.326479) translate(146.289872, 158.197545) scale(-1, 1) translate(-146.289872, -158.197545) translate(53.502446, 99.135299)"/>
                                        <path fill="#29DAA1" d="M84.447 62.281c-2.81 6.38-10.258 9.273-16.637 6.464-.808-.356-1.577-.796-2.293-1.312L28.46 40.719c-.85-.613-1.043-1.8-.43-2.651.426-.59 1.152-.886 1.87-.76l45.476 8.003c6.65 1.17 11.093 7.51 9.923 14.161-.17.968-.456 1.91-.852 2.81z" transform="translate(-195.168000, 73.019490) translate(0.000000, -0.000000) translate(0.000000, -0.000000) translate(0.000000, 230.326479) translate(146.289872, 158.197545) scale(-1, 1) translate(-146.289872, -158.197545) translate(53.502446, 99.135299) translate(56.232717, 56.210404) rotate(-169.000000) translate(-56.232717, -56.210404)"/>
                                    </g>
                                    <path fill="#00F5B3" d="M573.743 116.09c25.941 0 42.35 14.293 57.842 0 12.362-11.407 33.731-15.96 33.731-32.036 0-20.307 7.229-54.866-24.883-67.6-11.78-4.67-19.093 5.329-35.689 5.61-8.948.153-22.883-16.87-40.686-16.87-18.895 0-19.78 8.726-33.852 16.87-5.812 3.365-30.325 4.063-35.547 7.124-13.338 7.816-13.186 22.347-13.186 37.83 0 12.357 2.029 25.074 13.186 33.34 5.295 3.923 18.703 4.02 23.676 7.845 6.319 4.86 12.06 11.524 19.177 14.247 10.071 3.853 22.652-6.36 36.231-6.36z" transform="translate(-195.168000, 73.019490) translate(0.000000, -0.000000) translate(0.000000, -0.000000) translate(0.000000, 230.326479) translate(573.742859, 64.256288) scale(-1, 1) translate(-573.742859, -64.256288)"/>
                                    <path fill="#29DAA1" d="M544.503 77.863c-2.81 6.379-10.258 9.273-16.637 6.464-.808-.356-1.577-.796-2.293-1.313l-37.057-26.712c-.85-.614-1.043-1.8-.43-2.652.426-.59 1.152-.886 1.87-.76l45.476 8.003c6.65 1.17 11.093 7.51 9.923 14.161-.17.967-.456 1.91-.852 2.809z" transform="translate(-195.168000, 73.019490) translate(0.000000, -0.000000) translate(0.000000, -0.000000) translate(0.000000, 230.326479) translate(516.288833, 71.792458) scale(-1, 1) rotate(-57.000000) translate(-516.288833, -71.792458)"/>
                                    <path fill="#29DAA1" d="M591.25 51.893c-2.81 6.38-10.258 9.273-16.637 6.464-.809-.356-1.578-.796-2.294-1.312L535.262 30.33c-.851-.613-1.044-1.8-.43-2.65.426-.592 1.152-.887 1.87-.76l45.476 8.002c6.65 1.17 11.094 7.51 9.923 14.161-.17.968-.456 1.91-.852 2.81z" transform="translate(-195.168000, 73.019490) translate(0.000000, -0.000000) translate(0.000000, -0.000000) translate(0.000000, 230.326479) translate(563.034674, 45.822384) scale(-1, 1) rotate(-119.000000) translate(-563.034674, -45.822384)"/>
                                    <path fill="#29DAA1" d="M637.995 67.475c-2.81 6.38-10.258 9.273-16.637 6.464-.808-.356-1.577-.796-2.294-1.312l-37.056-26.714c-.851-.613-1.044-1.8-.43-2.651.426-.59 1.152-.886 1.87-.76l45.475 8.003c6.651 1.17 11.094 7.51 9.924 14.162-.17.967-.457 1.91-.852 2.808z" transform="translate(-195.168000, 73.019490) translate(0.000000, -0.000000) translate(0.000000, -0.000000) translate(0.000000, 230.326479) translate(609.780423, 61.404446) scale(-1, 1) rotate(-169.000000) translate(-609.780423, -61.404446)"/>
                                    <path fill="#29DAA1" d="M421.012 159.004c31.48 0 51.392 17.482 70.191 0 15.002-13.95 40.933-19.52 40.933-39.181 0-24.837 8.772-67.104-30.196-82.678-14.294-5.713-23.17 6.517-43.308 6.862-10.858.186-27.77-20.634-49.373-20.634-22.93 0-24.004 10.673-41.079 20.634-7.053 4.114-36.8 4.968-43.137 8.712-16.186 9.56-16.002 27.331-16.002 46.267 0 15.115 2.463 30.668 16.002 40.778 6.425 4.798 22.697 4.916 28.731 9.594 7.668 5.945 14.635 14.095 23.272 17.425 12.22 4.713 27.488-7.78 43.966-7.78z" transform="translate(-195.168000, 73.019490) translate(0.000000, -0.000000) translate(0.000000, -0.000000) translate(0.000000, 230.326479)"/>
                                    <path fill="#00F5B3" d="M478.269 89.822c-1.38 5.218-6.728 8.329-11.946 6.95-.966-.256-1.887-.658-2.731-1.193l-31.217-19.772c-.886-.562-1.15-1.735-.588-2.621.383-.605 1.073-.943 1.785-.874l34.83 3.341c6.226.598 10.789 6.13 10.191 12.355-.058.612-.167 1.219-.324 1.814z" transform="translate(-195.168000, 73.019490) translate(0.000000, -0.000000) translate(0.000000, -0.000000) translate(0.000000, 230.326479) translate(453.668194, 87.134291) rotate(-68.000000) translate(-453.668194, -87.134291)"/>
                                    <path fill="#00F5B3" d="M405.64 100.456c-2.762 5.865-9.754 8.381-15.62 5.62-.435-.205-.857-.437-1.264-.694L338.31 73.543c-.887-.56-1.152-1.732-.592-2.62.44-.696 1.28-1.03 2.078-.825l58.637 15.045c5.874 1.507 9.414 7.491 7.907 13.365-.172.67-.407 1.322-.701 1.948z" transform="translate(-195.168000, 73.019490) translate(0.000000, -0.000000) translate(0.000000, -0.000000) translate(0.000000, 230.326479) translate(369.695115, 89.782079) rotate(-180.000000) translate(-369.695115, -89.782079)"/>
                                    <path fill="#00F5B3" d="M443.554 70.496c-1.765 6.674-8.606 10.654-15.28 8.89-1.235-.327-2.413-.842-3.493-1.525l-41.803-26.479c-.886-.561-1.15-1.734-.588-2.62.383-.605 1.073-.943 1.785-.875l46.758 4.487c7.964.764 13.8 7.84 13.036 15.803-.075.783-.214 1.559-.415 2.32z" transform="translate(-195.168000, 73.019490) translate(0.000000, -0.000000) translate(0.000000, -0.000000) translate(0.000000, 230.326479) translate(412.087833, 67.058483) rotate(-130.000000) translate(-412.087833, -67.058483)"/>
                                    <g>
                                        <path fill="#29DAA1" d="M111.97 135.63c31.48 0 51.393 17.483 70.192 0 15.001-13.95 40.933-19.52 40.933-39.18 0-24.837 8.772-67.105-30.197-82.678-14.294-5.713-23.169 6.517-43.308 6.862C138.732 20.819 121.821 0 100.217 0 77.288 0 76.214 10.673 59.138 20.634c-7.052 4.114-36.799 4.968-43.136 8.711C-.184 38.905 0 56.677 0 75.613c0 15.114 2.463 30.668 16.002 40.778 6.425 4.797 22.696 4.916 28.73 9.594 7.668 5.945 14.635 14.095 23.272 17.425 12.221 4.712 27.488-7.78 43.967-7.78z" transform="translate(-195.168000, 73.019490) translate(0.000000, -0.000000) translate(0.000000, -0.000000) translate(0.000000, 230.326479) translate(172.790794, 91.856429)"/>
                                        <path fill="#00F5B3" d="M169.227 66.448c-1.38 5.218-6.728 8.33-11.946 6.95-.966-.255-1.887-.657-2.73-1.192l-31.218-19.772c-.886-.562-1.15-1.735-.588-2.621.383-.605 1.073-.943 1.786-.874l34.83 3.341c6.225.597 10.788 6.129 10.19 12.355-.058.612-.166 1.219-.324 1.813z" transform="translate(-195.168000, 73.019490) translate(0.000000, -0.000000) translate(0.000000, -0.000000) translate(0.000000, 230.326479) translate(172.790794, 91.856429) translate(144.626699, 63.761102) rotate(-68.000000) translate(-144.626699, -63.761102)"/>
                                        <path fill="#00F5B3" d="M96.598 77.083c-2.761 5.865-9.754 8.38-15.619 5.62-.435-.205-.858-.437-1.265-.694L29.27 50.17c-.887-.56-1.152-1.733-.593-2.62.44-.697 1.28-1.03 2.079-.825L89.393 61.77c5.874 1.507 9.414 7.49 7.907 13.365-.172.67-.407 1.322-.702 1.948z" transform="translate(-195.168000, 73.019490) translate(0.000000, -0.000000) translate(0.000000, -0.000000) translate(0.000000, 230.326479) translate(172.790794, 91.856429) translate(60.653620, 66.408891) rotate(-180.000000) translate(-60.653620, -66.408891)"/>
                                        <path fill="#00F5B3" d="M134.512 47.123c-1.764 6.674-8.605 10.654-15.279 8.89-1.236-.328-2.414-.842-3.493-1.526L73.936 28.01c-.886-.561-1.15-1.735-.588-2.62.383-.605 1.074-.943 1.786-.875l46.757 4.487c7.964.764 13.8 7.839 13.036 15.803-.075.783-.214 1.558-.415 2.319z" transform="translate(-195.168000, 73.019490) translate(0.000000, -0.000000) translate(0.000000, -0.000000) translate(0.000000, 230.326479) translate(172.790794, 91.856429) translate(103.046338, 43.685294) rotate(-130.000000) translate(-103.046338, -43.685294)"/>
                                    </g>
                                    <path fill="#00F5B3" d="M397.148 217.373c25.941 0 42.35 14.294 57.842 0 12.362-11.406 33.731-15.96 33.731-32.035 0-20.307 7.229-54.867-24.883-67.6-11.78-4.671-19.093 5.329-35.69 5.61-8.947.152-22.882-16.87-40.685-16.87-18.895 0-19.78 8.726-33.852 16.87-5.812 3.364-30.325 4.063-35.547 7.123-13.338 7.817-13.187 22.348-13.187 37.83 0 12.358 2.03 25.075 13.187 33.34 5.295 3.924 18.703 4.02 23.676 7.845 6.319 4.86 12.06 11.525 19.177 14.248 10.071 3.853 22.652-6.361 36.231-6.361z" transform="translate(-195.168000, 73.019490) translate(0.000000, -0.000000) translate(0.000000, -0.000000) translate(0.000000, 230.326479) translate(397.147719, 165.540107) scale(-1, 1) translate(-397.147719, -165.540107)"/>
                                    <path fill="#29DAA1" d="M367.908 179.147c-2.81 6.379-10.258 9.273-16.637 6.464-.808-.356-1.577-.796-2.294-1.313l-37.056-26.713c-.851-.613-1.044-1.8-.43-2.65.426-.592 1.152-.887 1.87-.76l45.476 8.002c6.65 1.17 11.093 7.51 9.923 14.16-.17.968-.456 1.911-.852 2.81z" transform="translate(-195.168000, 73.019490) translate(0.000000, -0.000000) translate(0.000000, -0.000000) translate(0.000000, 230.326479) translate(339.693693, 173.076276) scale(-1, 1) rotate(-57.000000) translate(-339.693693, -173.076276)"/>
                                    <path fill="#29DAA1" d="M414.654 153.177c-2.81 6.38-10.258 9.273-16.637 6.464-.808-.356-1.577-.796-2.293-1.313l-37.057-26.713c-.851-.613-1.044-1.8-.43-2.651.426-.591 1.152-.886 1.87-.76l45.476 8.003c6.65 1.17 11.093 7.51 9.923 14.161-.17.967-.456 1.91-.852 2.81z" transform="translate(-195.168000, 73.019490) translate(0.000000, -0.000000) translate(0.000000, -0.000000) translate(0.000000, 230.326479) translate(386.439534, 147.106202) scale(-1, 1) rotate(-119.000000) translate(-386.439534, -147.106202)"/>
                                    <path fill="#29DAA1" d="M461.4 168.76c-2.81 6.378-10.258 9.272-16.637 6.463-.808-.356-1.577-.796-2.294-1.313l-37.056-26.713c-.851-.613-1.044-1.8-.43-2.651.426-.591 1.152-.886 1.87-.76l45.475 8.003c6.651 1.17 11.094 7.51 9.923 14.161-.17.967-.456 1.91-.852 2.81z" transform="translate(-195.168000, 73.019490) translate(0.000000, -0.000000) translate(0.000000, -0.000000) translate(0.000000, 230.326479) translate(433.185284, 162.688265) scale(-1, 1) rotate(-169.000000) translate(-433.185284, -162.688265)"/>
                                    <path fill="#29DAA1" d="M563.847 234.317c31.48 0 51.391 17.483 70.19 0 15.002-13.95 40.934-19.52 40.934-39.18 0-24.837 8.771-67.105-30.197-82.679-14.294-5.712-23.169 6.518-43.308 6.862-10.858.186-27.769-20.633-49.373-20.633-22.93 0-24.003 10.673-41.079 20.633-7.053 4.115-36.8 4.969-43.137 8.712-16.186 9.56-16.001 27.332-16.001 46.268 0 15.114 2.462 30.667 16.001 40.777 6.426 4.798 22.697 4.916 28.732 9.595 7.667 5.944 14.634 14.095 23.271 17.425 12.221 4.712 27.488-7.78 43.967-7.78z" transform="translate(-195.168000, 73.019490) translate(0.000000, -0.000000) translate(0.000000, -0.000000) translate(0.000000, 230.326479)"/>
                                    <path fill="#00F5B3" d="M621.103 165.135c-1.38 5.218-6.728 8.33-11.946 6.95-.966-.255-1.887-.657-2.73-1.192l-31.218-19.773c-.886-.56-1.15-1.734-.588-2.62.383-.605 1.073-.943 1.786-.875l34.829 3.342c6.226.597 10.789 6.129 10.192 12.355-.06.612-.168 1.219-.325 1.813z" transform="translate(-195.168000, 73.019490) translate(0.000000, -0.000000) translate(0.000000, -0.000000) translate(0.000000, 230.326479) translate(596.502499, 162.447900) rotate(-68.000000) translate(-596.502499, -162.447900)"/>
                                    <path fill="#00F5B3" d="M548.474 175.77c-2.761 5.865-9.754 8.38-15.619 5.62-.435-.206-.858-.437-1.265-.694l-50.444-31.839c-.887-.56-1.153-1.733-.593-2.62.44-.697 1.28-1.03 2.078-.826l58.638 15.046c5.874 1.507 9.414 7.49 7.906 13.365-.172.67-.406 1.322-.701 1.948z" transform="translate(-195.168000, 73.019490) translate(0.000000, -0.000000) translate(0.000000, -0.000000) translate(0.000000, 230.326479) translate(512.529419, 165.095688) rotate(-180.000000) translate(-512.529419, -165.095688)"/>
                                    <path fill="#00F5B3" d="M586.388 145.81c-1.764 6.674-8.605 10.654-15.28 8.889-1.235-.327-2.413-.841-3.493-1.525l-41.803-26.478c-.886-.561-1.15-1.735-.588-2.62.383-.606 1.073-.943 1.786-.875l46.757 4.486c7.964.764 13.8 7.84 13.036 15.804-.075.783-.214 1.558-.415 2.319z" transform="translate(-195.168000, 73.019490) translate(0.000000, -0.000000) translate(0.000000, -0.000000) translate(0.000000, 230.326479) translate(554.922137, 142.372092) rotate(-130.000000) translate(-554.922137, -142.372092)"/>
                                    <path fill="#29DAA1" d="M704.084 135.63c31.48 0 51.392 17.483 70.191 0 15.001-13.95 40.933-19.52 40.933-39.18 0-24.837 8.772-67.105-30.196-82.678-14.295-5.713-23.17 6.517-43.309 6.862C730.845 20.819 713.934 0 692.33 0c-22.929 0-24.003 10.673-41.078 20.634-7.053 4.114-36.8 4.968-43.137 8.711-16.186 9.56-16.002 27.332-16.002 46.268 0 15.114 2.463 30.668 16.002 40.778 6.425 4.797 22.697 4.916 28.73 9.594 7.669 5.945 14.636 14.095 23.272 17.425 12.221 4.712 27.488-7.78 43.967-7.78z" transform="translate(-195.168000, 73.019490) translate(0.000000, -0.000000) translate(0.000000, -0.000000) translate(0.000000, 230.326479)"/>
                                    <path fill="#00F5B3" d="M688.711 77.083c-2.76 5.865-9.754 8.38-15.619 5.62-.435-.205-.858-.437-1.265-.694L621.383 50.17c-.887-.56-1.152-1.733-.592-2.62.44-.697 1.28-1.03 2.078-.825l58.637 15.045c5.874 1.507 9.414 7.49 7.907 13.365-.172.67-.407 1.322-.702 1.948z" transform="translate(-195.168000, 73.019490) translate(0.000000, -0.000000) translate(0.000000, -0.000000) translate(0.000000, 230.326479) translate(652.766736, 66.408891) rotate(-180.000000) translate(-652.766736, -66.408891)"/>
                                    <g fill="#29DAA1">
                                        <path d="M111.97 135.63c31.48 0 51.393 17.483 70.192 0 15.001-13.95 40.933-19.52 40.933-39.18 0-24.837 8.772-67.105-30.197-82.678-14.294-5.713-23.169 6.517-43.308 6.862C138.732 20.819 121.821 0 100.217 0 77.288 0 76.214 10.673 59.138 20.634c-7.052 4.114-36.799 4.968-43.136 8.711C-.184 38.905 0 56.677 0 75.613c0 15.114 2.463 30.668 16.002 40.778 6.425 4.797 22.696 4.916 28.73 9.594 7.668 5.945 14.635 14.095 23.272 17.425 12.221 4.712 27.488-7.78 43.967-7.78z" transform="translate(-195.168000, 73.019490) translate(0.000000, -0.000000) translate(0.000000, -0.000000) translate(0.000000, 230.326479)"/>
                                    </g>
                                </g>
                            </g>
                        </g>
                    </g>
                </g>
            </g>
        </g>
    </g>
</svg>
