<svg xmlns="http://www.w3.org/2000/svg" width="375" height="667" viewBox="0 0 375 667">
    <g fill="none" fill-rule="evenodd">
        <g>
            <g transform="translate(-50 -95.088) translate(193 232.088)">
                <path fill="#0E7CF4" fill-rule="nonzero" d="M120 0c66.274 0 120 53.726 120 120s-53.726 120-120 120S0 186.274 0 120 53.726 0 120 0zm17.176 140.05c-1.91 1.393-4.071 2.543-6.348 3.429l-.572.216-3.21 26.857c14.073-1.944 26.313-9.625 34.283-20.606l-24.153-9.897zm-34.352 0l-24.153 9.896c7.946 10.948 20.137 18.616 34.156 20.588l-3.083-26.84c-2.296-.84-4.486-1.949-6.437-3.301l-.483-.344zM68.966 120c0 6.155 1.089 12.055 3.086 17.519l20.639-13.874c-.185-1.196-.37-2.406-.37-3.645 0-1.062.135-2.103.291-3.132l.079-.513-20.64-13.874c-1.996 5.464-3.085 11.364-3.085 17.519zm98.982-17.519l-20.639 13.874c.185 1.196.37 2.406.37 3.645 0 1.062-.135 2.103-.291 3.132l-.079.513 20.64 13.874c1.996-5.464 3.085-11.364 3.085-17.519 0-6.155-1.089-12.055-3.086-17.519zM120 107.586c-6.856 0-12.414 5.558-12.414 12.414s5.558 12.414 12.414 12.414 12.414-5.558 12.414-12.414-5.558-12.414-12.414-12.414zm7.173-38.12l3.083 26.84c2.31.84 4.488 1.949 6.438 3.301l.482.344 24.153-9.897c-7.946-10.948-20.137-18.616-34.156-20.588zM78.67 90.054l24.153 9.897c1.91-1.394 4.071-2.544 6.348-3.43l.572-.216 3.21-26.857C98.88 71.392 86.64 79.073 78.67 90.054z"/>
                <circle cx="118.4" cy="118.4" r="70.4" stroke="#107778" stroke-width="19.2"/>
                <circle cx="120" cy="120" r="12.414" fill="#107778" fill-rule="nonzero"/>
            </g>
            <g transform="translate(-50 -95.088) rotate(-30 299.168 -220.819)">
                <path fill="#FEC602" d="M168 0c39.765 0 72 32.235 72 72v47.25c0 39.765-32.235 72-72 72H72c-39.765 0-72-32.235-72-72V72C0 32.235 32.235 0 72 0h96zM84 59.766H54v23.906H30v29.883h24v23.906h30v-23.906h24V83.672H84V59.766zm93 54.843c-6.335 0-11.47 5.116-11.47 11.426 0 6.31 5.135 11.426 11.47 11.426 6.335 0 11.47-5.116 11.47-11.426 0-6.31-5.135-11.426-11.47-11.426zm-27.53-27.421c-6.334 0-11.47 5.115-11.47 11.425 0 6.31 5.136 11.426 11.47 11.426 6.336 0 11.471-5.115 11.471-11.426 0-6.31-5.135-11.425-11.47-11.425zm55.06 0c-6.336 0-11.471 5.115-11.471 11.425 0 6.31 5.135 11.426 11.47 11.426 6.335 0 11.471-5.115 11.471-11.426 0-6.31-5.136-11.425-11.47-11.425zM177 59.766c-6.335 0-11.47 5.115-11.47 11.425 0 6.31 5.135 11.426 11.47 11.426 6.335 0 11.47-5.115 11.47-11.426 0-6.31-5.135-11.425-11.47-11.425z"/>
                <ellipse cx="177" cy="71.191" fill="#196CC7" fill-rule="nonzero" rx="11.471" ry="11.426"/>
                <ellipse cx="177" cy="126.035" fill="#FFED0F" fill-rule="nonzero" rx="11.471" ry="11.426"/>
                <ellipse cx="149.471" cy="98.613" fill="#00CDC3" fill-rule="nonzero" rx="11.471" ry="11.426"/>
                <ellipse cx="204.529" cy="98.613" fill="#FF625E" fill-rule="nonzero" rx="11.471" ry="11.426"/>
                <path fill="#107778" fill-rule="nonzero" d="M84 59.766v23.906h24v29.883H84v23.906H54v-23.906H30V83.672h24V59.766h30z"/>
            </g>
            <g>
                <path fill="#FF625E" fill-rule="nonzero" d="M120 0c66.274 0 120 53.726 120 120s-53.726 120-120 120S0 186.274 0 120 53.726 0 120 0zm0 84c-19.882 0-36 16.118-36 36s16.118 36 36 36 36-16.118 36-36-16.118-36-36-36zm-73.657 21.454l-23.385 5.4 2.7 11.692 23.384-5.4-2.7-11.692zm178.359-7.666l-22.092 9.378 4.688 11.046 22.092-9.378-4.688-11.046zm-40.003-27.141l-8.6 22.406 11.202 4.3 8.6-22.406-11.202-4.3zM35.204 66.432l-6.536 10.064 20.128 13.072 6.536-10.064-20.128-13.072zm57.498-4.644L70.61 71.166l4.688 11.046 22.092-9.378-4.688-11.046zm66.857-11.203l-22.826 7.417 3.708 11.413 22.826-7.417-3.708-11.413zm-87.691-22l-10.521 21.57 10.785 5.26 10.521-21.57-10.785-5.26zm98.112.615l-8.632 8.336L178.02 54.8l8.632-8.336L169.98 29.2zm-54.446-12.528l-11.276 4.104 8.208 22.552 11.276-4.104-8.208-22.552z" transform="translate(-50 -95.088) translate(0 157.088)"/>
                <path fill="#FF84FE" d="M144 48H156V72H144z" transform="translate(-50 -95.088) translate(0 157.088) rotate(72 150 60)"/>
                <path fill="#FF84FE" d="M66 30H78V54H66z" transform="translate(-50 -95.088) translate(0 157.088) rotate(26 72 42)"/>
                <path fill="#00CDC3" fill-rule="nonzero" d="M210 96H222V120H210z" transform="translate(-50 -95.088) translate(0 157.088) rotate(67 216 108)"/>
                <path fill="#00CDC3" fill-rule="nonzero" d="M78 60H90V84H78z" transform="translate(-50 -95.088) translate(0 157.088) rotate(67 84 72)"/>
                <path fill="#00CDC3" fill-rule="nonzero" d="M168 30H180V54H168z" transform="translate(-50 -95.088) translate(0 157.088) rotate(136 174 42)"/>
                <path fill="#FFED0F" fill-rule="nonzero" d="M180 72H192V96H180z" transform="translate(-50 -95.088) translate(0 157.088) rotate(21 186 84)"/>
                <path fill="#FFED0F" fill-rule="nonzero" d="M36 66H48V90H36z" transform="translate(-50 -95.088) translate(0 157.088) rotate(-57 42 78)"/>
                <path fill="#FFED0F" fill-rule="nonzero" d="M108 18H120V42H108z" transform="translate(-50 -95.088) translate(0 157.088) rotate(160 114 30)"/>
            </g>
        </g>
    </g>
</svg>
