<svg xmlns="http://www.w3.org/2000/svg" xmlns:xlink="http://www.w3.org/1999/xlink" width="428" height="761" viewBox="0 0 428 761">
    <defs>
        <path id="vlv9gfxoma" d="M0 0H428V761H0z"/>
    </defs>
    <g fill="none" fill-rule="evenodd">
        <g>
            <g transform="translate(-488.000000, -185.000000) translate(488.000000, 185.000000)">
                <mask id="s3nrk9movb" fill="#fff">
                    <use xlink:href="#vlv9gfxoma"/>
                </mask>
                <g mask="url(#s3nrk9movb)">
                    <g>
                        <path fill="#57A3F6" d="M364.085 319.46c-1.96-5.994 3.459-5.994 16.26 0 12.8 5.995 108.198 5.995 286.194 0l51.36-14.832v14.832l-51.36 14.832c-186.399 4.713-284.733 4.713-295.002 0-10.27-4.713-12.754-4.713-7.452 0V319.46z" transform="translate(-291.040000, -85.569715)"/>
                        <path fill="#57A3F6" d="M0 304.034c180.985 8.87 283.428 8.87 307.332 0 23.903-8.87 41.299-15.145 52.188-18.825l-.15 17.963c-11.909 5.435-26.95 11.035-45.124 16.802-18.174 5.767-122.923 6.729-314.246 2.885v-18.825z" transform="translate(-291.040000, -85.569715) translate(179.760000, 305.186771) scale(1, -1) translate(-179.760000, -305.186771)"/>
                        <path fill="#57A3F6" d="M404.124 321.742L848.866 321.742 924.388 306.905 924.388 321.742 848.866 336.579 404.124 336.579z" transform="translate(-291.040000, -85.569715) translate(664.256000, 321.742129) rotate(-90.000000) translate(-664.256000, -321.742129)"/>
                        <path fill="#57A3F6" d="M346.965 355.97H664.256V361.675H346.965z" transform="translate(-291.040000, -85.569715)"/>
                        <path fill="#57A3F6" d="M570.667 355.97H887.9580000000001V361.675H570.667zM679.093 442.681H996.384V448.38599999999997H679.093zM346.965 439.258H614.037V444.96299999999997H346.965zM475.936 214.495H664.256V220.20000000000002H475.936zM227.125 167.717H415.445V173.42200000000003H227.125zM233.973 214.495H422.293V220.20000000000002H233.973z" transform="translate(-291.040000, -85.569715)"/>
                        <path fill="#57A3F6" d="M457.731 489.458L774.909 489.458 774.909 495.164 457.731 495.164z" transform="translate(-291.040000, -85.569715) translate(616.320000, 492.311094) rotate(-90.000000) translate(-616.320000, -492.311094)"/>
                        <path fill="#57A3F6" d="M457.732 160.871L774.91 160.871 774.91 166.578 457.732 166.578z" transform="translate(-291.040000, -85.569715) translate(616.320000, 163.724297) rotate(-90.000000) translate(-616.320000, -163.724297)"/>
                        <path fill="#57A3F6" d="M317.348 160.871L634.526 160.871 634.526 166.578 317.348 166.578z" transform="translate(-291.040000, -85.569715) translate(475.936000, 163.724297) rotate(-90.000000) translate(-475.936000, -163.724297)"/>
                        <path fill="#57A3F6" d="M285.39 160.871L602.569 160.871 602.569 166.578 285.39 166.578z" transform="translate(-291.040000, -85.569715) translate(443.978667, 163.724297) rotate(-90.000000) translate(-443.978667, -163.724297)"/>
                        <path fill="#57A3F6" d="M173.54 164.294L490.719 164.294 490.719 170.001 173.54 170.001z" transform="translate(-291.040000, -85.569715) translate(332.128000, 167.147691) rotate(-90.000000) translate(-332.128000, -167.147691)"/>
                        <path fill="#57A3F6" d="M317.347 478.048L634.525 478.048 634.525 483.755 317.347 483.755z" transform="translate(-291.040000, -85.569715) translate(475.936000, 480.901799) rotate(-90.000000) translate(-475.936000, -480.901799)"/>
                        <path fill="#57A3F6" d="M222.616 514.558L539.795 514.558 539.795 520.265 222.616 520.265z" transform="translate(-291.040000, -85.569715) translate(381.205333, 517.411544) rotate(-90.000000) translate(-381.205333, -517.411544)"/>
                        <path fill="#57A3F6" d="M415.445 132.348H732.736V138.05300000000003H415.445zM679.093 214.495H867.413V220.20000000000002H679.093z" transform="translate(-291.040000, -85.569715)"/>
                        <path fill="#1458A3" d="M330.987 0c58.588 96.599 76.469 171.14 53.642 223.622-22.826 52.483-71.523 114.854-146.09 187.113v55.905c50.98-54.004 79.132-79.865 84.458-77.583 4.566 2.282-23.968 147.18-2.282 191.676 21.685 44.496 49.077 111.811 38.805 140.334-6.848 19.016 3.424 14.833 30.816-12.55-19.783-71.498-33.86-115.614-42.23-132.348-12.554-25.1 4.566-196.24 17.12-230.467 12.555-34.228 70.763-84.43 69.622-149.462-.76-43.355-20.164-98.88-58.208-166.576L330.987 0z" transform="translate(-291.040000, -85.569715)"/>
                        <path fill="#57A3F6" d="M332.823 307.24L378.756 307.687 377.511 324.742 329.067 325.574z" transform="translate(-291.040000, -85.569715) translate(353.911199, 316.407291) rotate(26.000000) translate(-353.911199, -316.407291)"/>
                        <path fill="#57A3F6" d="M86.741 439.258H353.813V444.96299999999997H86.741z" transform="translate(-291.040000, -85.569715)"/>
                    </g>
                </g>
            </g>
        </g>
    </g>
</svg>
