<svg xmlns="http://www.w3.org/2000/svg" width="428" height="761" viewBox="0 0 428 761">
    <g fill="none" fill-rule="evenodd">
        <g>
            <g>
                <g transform="translate(-1832.000000, -185.000000) translate(1832.000000, 185.000000) translate(22.826667, 13.462951)">
                    <path fill="#FDFAF9" fill-rule="nonzero" d="M52.638 105.422c9.93 0 17.942-3.423 23.9-9.242l11.436 7.873h.274v-30.12h-.342c-3.835 16.702-15.203 30.804-33.898 30.804C33.6 104.737 27.3 77.63 27.3 52.711 27.3 27.793 33.6.685 54.008.685c15.545 0 27.871 13.075 32.46 30.805h.41V1.37h-.274l-12.6 7.05C68.32 3.15 61.13 0 52.638 0 22.096 0 3.333 22.18 3.333 52.711s18.763 52.71 49.305 52.71zm114.408-1.37v-.273H151.98V1.643h8.834c14.655 0 22.324 15.197 24.379 32.585h.342V1.369h-88.34v32.859h.275c2.054-17.388 9.656-32.585 24.31-32.585h8.971v102.136h-15.065v.274h51.36zm76.195 0c24.105 0 38.28-7.53 38.28-27.382 0-18.003-14.997-24.644-34.582-25.397 19.928-1.3 30.542-9.104 30.542-24.575 0-17.799-14.244-25.329-36.98-25.329h-46.566v.274h12.258v102.136h-12.258v.274h49.306zm-5.478-52.847H227.49V1.643h10.272c9.724 0 17.804 10.131 17.804 26.424 0 16.292-8.08 23.138-17.804 23.138zm1.3 52.574h-11.572v-52.3h11.573c11.093 0 19.243 7.53 19.243 23.822 0 16.293-8.15 28.478-19.243 28.478zm104.067 1.643c9.93 0 17.942-3.423 23.9-9.242l11.436 7.873h.274v-30.12h-.342c-3.835 16.702-15.203 30.804-33.898 30.804-20.407 0-26.707-27.108-26.707-52.026 0-24.918 6.3-52.026 26.707-52.026 15.545 0 27.871 13.075 32.46 30.805h.41V1.37h-.273l-12.6 7.05C358.811 3.15 351.621 0 343.13 0c-30.542 0-49.305 22.18-49.305 52.711s18.763 52.71 49.305 52.71z"/>
                    <path fill="#FDFAF9" d="M17.554 220.428c8.948 0 14.244-6.207 14.244-13.509 0-7.484-5.114-13.326-12.783-13.326-1.644 0-3.105.548-3.835.913 0-5.66 5.66-15.882 16.618-20.993l-5.114-9.676c-13.33 6.207-25.2 18.986-25.2 37.058 0 10.953 6.939 19.533 16.07 19.533zm37.07 0c9.13 0 14.244-6.207 14.244-13.509 0-7.484-5.113-13.326-12.6-13.326-1.826 0-3.287.548-4.018.913 0-5.66 5.661-15.882 16.8-20.993l-5.295-9.676c-13.33 6.207-25.2 18.986-25.2 37.058 0 10.953 6.939 19.533 16.07 19.533z"/>
                    <path fill="#FDFAF9" d="M42.234 220.409h22.817c1.26 0 2.283 1.022 2.283 2.282v102.72c0 1.261-1.022 2.283-2.283 2.283H42.234c-1.26 0-2.282-1.022-2.282-2.283v-102.72c0-1.26 1.021-2.282 2.282-2.282z" transform="translate(53.642667, 274.051291) rotate(-90.000000) translate(-53.642667, -274.051291)"/>
                    <rect width="134.677" height="54.765" x="247.669" y="232.978" fill="#FFD8CD" rx="2.283"/>
                    <rect width="67.339" height="27.382" x="315.008" y="178.213" fill="#FDFAF9" rx="2.283"/>
                    <path fill="#FDFAF9" d="M53.643 263.764c1.26 0 2.282 1.022 2.282 2.282v102.721c0 1.26-1.022 2.282-2.282 2.282s-2.282-1.021-2.282-2.282V266.046c0-1.26 1.021-2.282 2.282-2.282z" transform="translate(53.642667, 317.406614) rotate(-90.000000) translate(-53.642667, -317.406614)"/>
                    <path fill="#FDFAF9" d="M22.827 308.271c1.26 0 2.282 1.022 2.282 2.282v41.09c0 1.26-1.022 2.281-2.282 2.281s-2.282-1.021-2.282-2.281v-41.09c0-1.26 1.021-2.282 2.282-2.282z" transform="translate(22.826667, 331.097768) rotate(-90.000000) translate(-22.826667, -331.097768)"/>
                </g>
            </g>
        </g>
    </g>
</svg>
