<svg xmlns="http://www.w3.org/2000/svg" xmlns:xlink="http://www.w3.org/1999/xlink" width="428" height="761" viewBox="0 0 428 761">
    <defs>
        <path id="yju5esmysa" d="M0 0H428V761H0z"/>
    </defs>
    <g fill="none" fill-rule="evenodd">
        <g>
            <g transform="translate(-3624.000000, -185.000000) translate(3624.000000, 185.000000)">
                <mask id="c7umry20ob" fill="#fff">
                    <use xlink:href="#yju5esmysa"/>
                </mask>
                <g mask="url(#c7umry20ob)">
                    <g transform="translate(212.805613, 99.831334)">
                        <g>
                            <path fill="#FF6F9C" d="M27.66 57.377C10.92 52.053 2.17 47.11 1.41 42.545.267 35.7 4.832 36.841 4.832 31.136c0-5.705-7.99-7.987-3.424-13.691 4.565-5.705 13.696 1.14 12.555-5.705C12.822 4.895 15.105.33 23.094.33c7.99 0 6.848 7.987 12.555 7.987S42.497-1.95 48.204.331c5.706 2.282 5.706 9.127 10.272 11.41 4.565 2.281 7.99-2.283 12.554 3.422 4.566 5.705-4.565 12.55-4.565 15.973s5.707 9.127 0 14.832c-3.804 3.803-11.413 6.846-22.827 9.127L27.66 57.377z" transform="translate(66.185007, 140.739363) rotate(-38.000000) translate(-66.185007, -140.739363) translate(30.030667, 79.534198)"/>
                            <path fill="#FFBAD0" d="M35.377 45.968c13.914 0 17.392 10.33 17.392 25.825s-5.217 50.617-17.392 50.617c-12.174 0-19.13-40.287-19.13-50.617 0-10.33 5.217-25.825 19.13-25.825z" transform="translate(66.185007, 140.739363) rotate(-38.000000) translate(-66.185007, -140.739363) translate(30.030667, 79.534198)"/>
                            <path fill="#FFBAD0" d="M22.241 29.6c1.576 0 2.853 1.277 2.854 2.853l.003 21.682c0 1.575-1.276 2.852-2.85 2.853h-.002c-1.576 0-2.853-1.278-2.853-2.854l-.004-21.682c0-1.575 1.276-2.852 2.851-2.852h.001z" transform="translate(66.185007, 140.739363) rotate(-38.000000) translate(-66.185007, -140.739363) translate(30.030667, 79.534198) translate(22.243762, 43.293779) rotate(-49.000000) translate(-22.243762, -43.293779)"/>
                            <path fill="#FFBAD0" d="M25.586 17.79c1.575 0 2.853 1.278 2.853 2.854l.004 30.805c0 1.576-1.276 2.853-2.852 2.853-1.576 0-2.854-1.277-2.854-2.853l-.004-30.806c0-1.576 1.276-2.853 2.852-2.853z" transform="translate(66.185007, 140.739363) rotate(-38.000000) translate(-66.185007, -140.739363) translate(30.030667, 79.534198) translate(25.588071, 36.046092) rotate(-26.000000) translate(-25.588071, -36.046092)"/>
                            <path fill="#FFBAD0" d="M34.719 15.51c1.576 0 2.853 1.277 2.853 2.853v30.803c0 1.576-1.278 2.853-2.853 2.853-1.576 0-2.854-1.277-2.854-2.853V18.363c0-1.576 1.278-2.854 2.854-2.854z" transform="translate(66.185007, 140.739363) rotate(-38.000000) translate(-66.185007, -140.739363) translate(30.030667, 79.534198) translate(34.718737, 33.764233) rotate(2.000000) translate(-34.718737, -33.764233)"/>
                            <path fill="#FFBAD0" d="M41.57 20.071c1.575 0 2.852 1.277 2.852 2.852v.001l-.005 30.807c0 1.576-1.277 2.853-2.853 2.854-1.575 0-2.852-1.277-2.853-2.852v-.001l.005-30.807c0-1.576 1.278-2.853 2.854-2.854z" transform="translate(66.185007, 140.739363) rotate(-38.000000) translate(-66.185007, -140.739363) translate(30.030667, 79.534198) translate(41.566737, 38.327951) rotate(31.000000) translate(-41.566737, -38.327951)"/>
                            <path fill="#FFBAD0" d="M43.689 30.095c1.575 0 2.852 1.276 2.852 2.851v.001l-.004 25.108c0 1.576-1.278 2.853-2.853 2.853-1.575 0-2.852-1.276-2.852-2.851l.004-25.109c0-1.575 1.277-2.853 2.853-2.853z" transform="translate(66.185007, 140.739363) rotate(-38.000000) translate(-66.185007, -140.739363) translate(30.030667, 79.534198) translate(43.686287, 45.501654) rotate(59.000000) translate(-43.686287, -45.501654)"/>
                        </g>
                        <g>
                            <path fill="#FF6F9C" d="M27.66 57.377C10.92 52.053 2.17 47.11 1.41 42.545.267 35.7 4.832 36.841 4.832 31.136c0-5.705-7.99-7.987-3.424-13.691 4.565-5.705 13.696 1.14 12.555-5.705C12.822 4.895 15.105.33 23.094.33c7.99 0 6.848 7.987 12.555 7.987S42.497-1.95 48.204.331c5.706 2.282 5.706 9.127 10.272 11.41 4.565 2.281 7.99-2.283 12.554 3.422 4.566 5.705-4.565 12.55-4.565 15.973s5.707 9.127 0 14.832c-3.804 3.803-11.413 6.846-22.827 9.127L27.66 57.377z" transform="translate(215.699674, 228.590937) rotate(15.000000) translate(-215.699674, -228.590937) translate(179.545334, 167.385772)"/>
                            <path fill="#FFBAD0" d="M35.377 45.968c13.914 0 17.392 10.33 17.392 25.825s-5.217 50.617-17.392 50.617c-12.174 0-19.13-40.287-19.13-50.617 0-10.33 5.217-25.825 19.13-25.825z" transform="translate(215.699674, 228.590937) rotate(15.000000) translate(-215.699674, -228.590937) translate(179.545334, 167.385772)"/>
                            <path fill="#FFBAD0" d="M22.241 29.6c1.576 0 2.853 1.277 2.854 2.853l.003 21.682c0 1.575-1.276 2.852-2.85 2.853h-.002c-1.576 0-2.853-1.278-2.853-2.854l-.004-21.682c0-1.575 1.276-2.852 2.851-2.852h.001z" transform="translate(215.699674, 228.590937) rotate(15.000000) translate(-215.699674, -228.590937) translate(179.545334, 167.385772) translate(22.243762, 43.293779) rotate(-49.000000) translate(-22.243762, -43.293779)"/>
                            <path fill="#FFBAD0" d="M25.586 17.79c1.575 0 2.853 1.278 2.853 2.854l.004 30.805c0 1.576-1.276 2.853-2.852 2.853-1.576 0-2.854-1.277-2.854-2.853l-.004-30.806c0-1.576 1.276-2.853 2.852-2.853z" transform="translate(215.699674, 228.590937) rotate(15.000000) translate(-215.699674, -228.590937) translate(179.545334, 167.385772) translate(25.588071, 36.046092) rotate(-26.000000) translate(-25.588071, -36.046092)"/>
                            <path fill="#FFBAD0" d="M34.719 15.51c1.576 0 2.853 1.277 2.853 2.853v30.803c0 1.576-1.278 2.853-2.853 2.853-1.576 0-2.854-1.277-2.854-2.853V18.363c0-1.576 1.278-2.854 2.854-2.854z" transform="translate(215.699674, 228.590937) rotate(15.000000) translate(-215.699674, -228.590937) translate(179.545334, 167.385772) translate(34.718737, 33.764233) rotate(2.000000) translate(-34.718737, -33.764233)"/>
                            <path fill="#FFBAD0" d="M41.57 20.071c1.575 0 2.852 1.277 2.852 2.852v.001l-.005 30.807c0 1.576-1.277 2.853-2.853 2.854-1.575 0-2.852-1.277-2.853-2.852v-.001l.005-30.807c0-1.576 1.278-2.853 2.854-2.854z" transform="translate(215.699674, 228.590937) rotate(15.000000) translate(-215.699674, -228.590937) translate(179.545334, 167.385772) translate(41.566737, 38.327951) rotate(31.000000) translate(-41.566737, -38.327951)"/>
                            <path fill="#FFBAD0" d="M43.689 30.095c1.575 0 2.852 1.276 2.852 2.851v.001l-.004 25.108c0 1.576-1.278 2.853-2.853 2.853-1.575 0-2.852-1.276-2.852-2.851l.004-25.109c0-1.575 1.277-2.853 2.853-2.853z" transform="translate(215.699674, 228.590937) rotate(15.000000) translate(-215.699674, -228.590937) translate(179.545334, 167.385772) translate(43.686287, 45.501654) rotate(59.000000) translate(-43.686287, -45.501654)"/>
                        </g>
                        <g>
                            <path fill="#FF6F9C" d="M27.66 57.377C10.92 52.053 2.17 47.11 1.41 42.545.267 35.7 4.832 36.841 4.832 31.136c0-5.705-7.99-7.987-3.424-13.691 4.565-5.705 13.696 1.14 12.555-5.705C12.822 4.895 15.105.33 23.094.33c7.99 0 6.848 7.987 12.555 7.987S42.497-1.95 48.204.331c5.706 2.282 5.706 9.127 10.272 11.41 4.565 2.281 7.99-2.283 12.554 3.422 4.566 5.705-4.565 12.55-4.565 15.973s5.707 9.127 0 14.832c-3.804 3.803-11.413 6.846-22.827 9.127L27.66 57.377z" transform="translate(119.827674, 196.644910) rotate(18.000000) translate(-119.827674, -196.644910) translate(83.673334, 135.439745)"/>
                            <path fill="#FFBAD0" d="M35.377 45.968c13.914 0 17.392 10.33 17.392 25.825s-5.217 50.617-17.392 50.617c-12.174 0-19.13-40.287-19.13-50.617 0-10.33 5.217-25.825 19.13-25.825z" transform="translate(119.827674, 196.644910) rotate(18.000000) translate(-119.827674, -196.644910) translate(83.673334, 135.439745)"/>
                            <path fill="#FFBAD0" d="M22.241 29.6c1.576 0 2.853 1.277 2.854 2.853l.003 21.682c0 1.575-1.276 2.852-2.85 2.853h-.002c-1.576 0-2.853-1.278-2.853-2.854l-.004-21.682c0-1.575 1.276-2.852 2.851-2.852h.001z" transform="translate(119.827674, 196.644910) rotate(18.000000) translate(-119.827674, -196.644910) translate(83.673334, 135.439745) translate(22.243762, 43.293779) rotate(-49.000000) translate(-22.243762, -43.293779)"/>
                            <path fill="#FFBAD0" d="M25.586 17.79c1.575 0 2.853 1.278 2.853 2.854l.004 30.805c0 1.576-1.276 2.853-2.852 2.853-1.576 0-2.854-1.277-2.854-2.853l-.004-30.806c0-1.576 1.276-2.853 2.852-2.853z" transform="translate(119.827674, 196.644910) rotate(18.000000) translate(-119.827674, -196.644910) translate(83.673334, 135.439745) translate(25.588071, 36.046092) rotate(-26.000000) translate(-25.588071, -36.046092)"/>
                            <path fill="#FFBAD0" d="M34.719 15.51c1.576 0 2.853 1.277 2.853 2.853v30.803c0 1.576-1.278 2.853-2.853 2.853-1.576 0-2.854-1.277-2.854-2.853V18.363c0-1.576 1.278-2.854 2.854-2.854z" transform="translate(119.827674, 196.644910) rotate(18.000000) translate(-119.827674, -196.644910) translate(83.673334, 135.439745) translate(34.718737, 33.764233) rotate(2.000000) translate(-34.718737, -33.764233)"/>
                            <path fill="#FFBAD0" d="M41.57 20.071c1.575 0 2.852 1.277 2.852 2.852v.001l-.005 30.807c0 1.576-1.277 2.853-2.853 2.854-1.575 0-2.852-1.277-2.853-2.852v-.001l.005-30.807c0-1.576 1.278-2.853 2.854-2.854z" transform="translate(119.827674, 196.644910) rotate(18.000000) translate(-119.827674, -196.644910) translate(83.673334, 135.439745) translate(41.566737, 38.327951) rotate(31.000000) translate(-41.566737, -38.327951)"/>
                            <path fill="#FFBAD0" d="M43.689 30.095c1.575 0 2.852 1.276 2.852 2.851v.001l-.004 25.108c0 1.576-1.278 2.853-2.853 2.853-1.575 0-2.852-1.276-2.852-2.851l.004-25.109c0-1.575 1.277-2.853 2.853-2.853z" transform="translate(119.827674, 196.644910) rotate(18.000000) translate(-119.827674, -196.644910) translate(83.673334, 135.439745) translate(43.686287, 45.501654) rotate(59.000000) translate(-43.686287, -45.501654)"/>
                        </g>
                        <g>
                            <path fill="#FF6F9C" d="M20.956 43.355C8.274 39.332 1.644 35.596 1.068 32.148c-.865-5.173 2.594-4.31 2.594-8.621 0-4.31-6.053-6.035-2.594-10.345 3.458-4.31 10.376.862 9.511-4.31C9.715 3.697 11.444.25 17.497.25s5.189 6.035 9.512 6.035c4.324 0 5.188-7.76 9.512-6.035 4.324 1.724 4.324 6.897 7.783 8.621 3.458 1.724 6.053-1.724 9.512 2.586 3.458 4.31-3.46 9.484-3.46 12.07 0 2.586 4.324 6.897 0 11.207-2.882 2.874-8.647 5.173-17.294 6.897l-12.106 1.724z" transform="translate(169.762581, 203.752172) rotate(42.000000) translate(-169.762581, -203.752172) translate(142.370581, 157.068376)"/>
                            <path fill="#FFBAD0" d="M26.286 35.18c10.435 0 13.044 7.863 13.044 19.658 0 11.795-3.913 38.53-13.044 38.53-9.13 0-14.348-30.667-14.348-38.53 0-7.863 3.913-19.658 14.348-19.658z" transform="translate(169.762581, 203.752172) rotate(42.000000) translate(-169.762581, -203.752172) translate(142.370581, 157.068376)"/>
                            <path fill="#FFBAD0" d="M16.406 22.506c1.204 0 2.18.976 2.18 2.18l.004 16.572c0 1.204-.976 2.18-2.18 2.18-1.204 0-2.18-.977-2.18-2.18l-.004-16.572c0-1.204.976-2.18 2.18-2.18z" transform="translate(169.762581, 203.752172) rotate(42.000000) translate(-169.762581, -203.752172) translate(142.370581, 157.068376) translate(16.408047, 32.971861) rotate(-49.000000) translate(-16.408047, -32.971861)"/>
                            <path fill="#FFBAD0" d="M18.962 13.48c1.205 0 2.18.976 2.181 2.18l.003 23.545c0 1.204-.975 2.18-2.18 2.18-1.204 0-2.18-.976-2.18-2.18l-.004-23.545c0-1.204.976-2.18 2.18-2.18z" transform="translate(169.762581, 203.752172) rotate(42.000000) translate(-169.762581, -203.752172) translate(142.370581, 157.068376) translate(18.964048, 27.432572) rotate(-26.000000) translate(-18.964048, -27.432572)"/>
                            <path fill="#FFBAD0" d="M25.943 11.737c1.204 0 2.18.976 2.18 2.18V37.46c0 1.204-.976 2.18-2.18 2.18-1.205 0-2.181-.976-2.181-2.18V13.917c0-1.204.976-2.18 2.18-2.18z" transform="translate(169.762581, 203.752172) rotate(42.000000) translate(-169.762581, -203.752172) translate(142.370581, 157.068376) translate(25.942467, 25.688584) rotate(2.000000) translate(-25.942467, -25.688584)"/>
                            <path fill="#FFBAD0" d="M31.178 15.223c1.204 0 2.18.976 2.18 2.18l-.003 23.546c0 1.204-.977 2.18-2.18 2.18-1.205.001-2.18-.975-2.181-2.179l.004-23.546c0-1.204.976-2.18 2.18-2.18z" transform="translate(169.762581, 203.752172) rotate(42.000000) translate(-169.762581, -203.752172) translate(142.370581, 157.068376) translate(31.176282, 29.176559) rotate(31.000000) translate(-31.176282, -29.176559)"/>
                            <path fill="#FFBAD0" d="M32.798 22.884c1.204 0 2.18.976 2.18 2.18l-.003 19.19c0 1.204-.976 2.18-2.18 2.18-1.204 0-2.18-.975-2.18-2.179l.003-19.19c0-1.204.976-2.18 2.18-2.18z" transform="translate(169.762581, 203.752172) rotate(42.000000) translate(-169.762581, -203.752172) translate(142.370581, 157.068376) translate(32.796219, 34.659304) rotate(59.000000) translate(-32.796219, -34.659304)"/>
                        </g>
                        <g>
                            <path fill="#FF6F9C" d="M27.66 57.377C10.92 52.053 2.17 47.11 1.41 42.545.267 35.7 4.832 36.841 4.832 31.136c0-5.705-7.99-7.987-3.424-13.691 4.565-5.705 13.696 1.14 12.555-5.705C12.822 4.895 15.105.33 23.094.33c7.99 0 6.848 7.987 12.555 7.987S42.497-1.95 48.204.331c5.706 2.282 5.706 9.127 10.272 11.41 4.565 2.281 7.99-2.283 12.554 3.422 4.566 5.705-4.565 12.55-4.565 15.973s5.707 9.127 0 14.832c-3.804 3.803-11.413 6.846-22.827 9.127L27.66 57.377z" transform="translate(69.609007, 220.604430) rotate(-33.000000) translate(-69.609007, -220.604430) translate(33.454667, 159.399265)"/>
                            <path fill="#FFBAD0" d="M35.377 45.968c13.914 0 17.392 10.33 17.392 25.825s-5.217 50.617-17.392 50.617c-12.174 0-19.13-40.287-19.13-50.617 0-10.33 5.217-25.825 19.13-25.825z" transform="translate(69.609007, 220.604430) rotate(-33.000000) translate(-69.609007, -220.604430) translate(33.454667, 159.399265)"/>
                            <path fill="#FFBAD0" d="M22.241 29.6c1.576 0 2.853 1.277 2.854 2.853l.003 21.682c0 1.575-1.276 2.852-2.85 2.853h-.002c-1.576 0-2.853-1.278-2.853-2.854l-.004-21.682c0-1.575 1.276-2.852 2.851-2.852h.001z" transform="translate(69.609007, 220.604430) rotate(-33.000000) translate(-69.609007, -220.604430) translate(33.454667, 159.399265) translate(22.243762, 43.293779) rotate(-49.000000) translate(-22.243762, -43.293779)"/>
                            <path fill="#FFBAD0" d="M25.586 17.79c1.575 0 2.853 1.278 2.853 2.854l.004 30.805c0 1.576-1.276 2.853-2.852 2.853-1.576 0-2.854-1.277-2.854-2.853l-.004-30.806c0-1.576 1.276-2.853 2.852-2.853z" transform="translate(69.609007, 220.604430) rotate(-33.000000) translate(-69.609007, -220.604430) translate(33.454667, 159.399265) translate(25.588071, 36.046092) rotate(-26.000000) translate(-25.588071, -36.046092)"/>
                            <path fill="#FFBAD0" d="M34.719 15.51c1.576 0 2.853 1.277 2.853 2.853v30.803c0 1.576-1.278 2.853-2.853 2.853-1.576 0-2.854-1.277-2.854-2.853V18.363c0-1.576 1.278-2.854 2.854-2.854z" transform="translate(69.609007, 220.604430) rotate(-33.000000) translate(-69.609007, -220.604430) translate(33.454667, 159.399265) translate(34.718737, 33.764233) rotate(2.000000) translate(-34.718737, -33.764233)"/>
                            <path fill="#FFBAD0" d="M41.57 20.071c1.575 0 2.852 1.277 2.852 2.852v.001l-.005 30.807c0 1.576-1.277 2.853-2.853 2.854-1.575 0-2.852-1.277-2.853-2.852v-.001l.005-30.807c0-1.576 1.278-2.853 2.854-2.854z" transform="translate(69.609007, 220.604430) rotate(-33.000000) translate(-69.609007, -220.604430) translate(33.454667, 159.399265) translate(41.566737, 38.327951) rotate(31.000000) translate(-41.566737, -38.327951)"/>
                            <path fill="#FFBAD0" d="M43.689 30.095c1.575 0 2.852 1.276 2.852 2.851v.001l-.004 25.108c0 1.576-1.278 2.853-2.853 2.853-1.575 0-2.852-1.276-2.852-2.851l.004-25.109c0-1.575 1.277-2.853 2.853-2.853z" transform="translate(69.609007, 220.604430) rotate(-33.000000) translate(-69.609007, -220.604430) translate(33.454667, 159.399265) translate(43.686287, 45.501654) rotate(59.000000) translate(-43.686287, -45.501654)"/>
                        </g>
                        <g>
                            <path fill="#FF6F9C" d="M24.885 51.342C9.825 46.578 1.952 42.154 1.268 38.07c-1.027-6.126 3.08-5.105 3.08-10.21 0-5.104-7.188-7.146-3.08-12.25 4.107-5.105 12.322 1.02 11.295-5.105C11.536 4.38 13.59.296 20.778.296s6.161 7.146 11.295 7.146c5.135 0 6.162-9.188 11.296-7.146 5.134 2.042 5.134 8.167 9.242 10.21 4.107 2.041 7.187-2.043 11.295 3.062 4.107 5.105-4.108 11.23-4.108 14.293 0 3.063 5.135 8.167 0 13.272-3.422 3.403-10.268 6.125-20.537 8.167l-14.376 2.042z" transform="translate(175.115948, 126.096784) rotate(19.000000) translate(-175.115948, -126.096784) translate(142.587948, 70.233645)"/>
                            <path fill="#FFBAD0" d="M31.656 42.124c12.61 0 15.761 9.405 15.761 23.513 0 14.107-11.702 46.573-15.76 46.084-4.06-.49-17.338-36.68-17.338-46.084 0-9.405 4.728-23.513 17.337-23.513z" transform="translate(175.115948, 126.096784) rotate(19.000000) translate(-175.115948, -126.096784) translate(142.587948, 70.233645)"/>
                            <path fill="#FFBAD0" d="M19.853 26.972c1.424 0 2.58 1.155 2.58 2.58l.003 19.602c0 1.424-1.154 2.579-2.578 2.579-1.425 0-2.58-1.155-2.58-2.58l-.004-19.603c0-1.423 1.154-2.578 2.578-2.578z" transform="translate(175.115948, 126.096784) rotate(19.000000) translate(-175.115948, -126.096784) translate(142.587948, 70.233645) translate(19.854973, 39.352291) rotate(-49.000000) translate(-19.854973, -39.352291)"/>
                            <path fill="#FFBAD0" d="M22.876 16.295c1.425 0 2.58 1.155 2.58 2.58l.004 27.85c0 1.425-1.154 2.58-2.578 2.58h-.001c-1.425 0-2.58-1.155-2.58-2.58l-.004-27.851c0-1.425 1.154-2.58 2.579-2.58z" transform="translate(175.115948, 126.096784) rotate(19.000000) translate(-175.115948, -126.096784) translate(142.587948, 70.233645) translate(22.878535, 32.799717) rotate(-26.000000) translate(-22.878535, -32.799717)"/>
                            <path fill="#FFBAD0" d="M31.134 14.233c1.424 0 2.58 1.155 2.58 2.58l-.001 27.848c0 1.425-1.155 2.58-2.58 2.58-1.424 0-2.58-1.155-2.58-2.58l.001-27.849c0-1.424 1.155-2.58 2.58-2.58z" transform="translate(175.115948, 126.096784) rotate(19.000000) translate(-175.115948, -126.096784) translate(142.587948, 70.233645) translate(31.133495, 30.736707) rotate(2.000000) translate(-31.133495, -30.736707)"/>
                            <path fill="#FFBAD0" d="M37.327 18.357c1.424 0 2.58 1.154 2.58 2.578v.001l-.005 27.853c0 1.424-1.155 2.58-2.58 2.58-1.424 0-2.579-1.155-2.579-2.579l.004-27.853c0-1.425 1.156-2.58 2.58-2.58z" transform="translate(175.115948, 126.096784) rotate(19.000000) translate(-175.115948, -126.096784) translate(142.587948, 70.233645) translate(37.324715, 34.862727) rotate(31.000000) translate(-37.324715, -34.862727)"/>
                            <path fill="#FFBAD0" d="M39.243 27.42c1.424 0 2.579 1.153 2.579 2.577v.001l-.004 22.7c0 1.424-1.155 2.58-2.58 2.58-1.423 0-2.578-1.155-2.578-2.578v-.001l.004-22.7c0-1.425 1.155-2.58 2.58-2.58z" transform="translate(175.115948, 126.096784) rotate(19.000000) translate(-175.115948, -126.096784) translate(142.587948, 70.233645) translate(39.240982, 41.348412) rotate(59.000000) translate(-39.240982, -41.348412)"/>
                        </g>
                        <g>
                            <path fill="#FF6F9C" d="M24.885 51.342C9.825 46.578 1.952 42.154 1.268 38.07c-1.027-6.126 3.08-5.105 3.08-10.21 0-5.104-7.188-7.146-3.08-12.25 4.107-5.105 12.322 1.02 11.295-5.105C11.536 4.38 13.59.296 20.778.296s6.161 7.146 11.295 7.146c5.135 0 6.162-9.188 11.296-7.146 5.134 2.042 5.134 8.167 9.242 10.21 4.107 2.041 7.187-2.043 11.295 3.062 4.107 5.105-4.108 11.23-4.108 14.293 0 3.063 5.135 8.167 0 13.272-3.422 3.403-10.268 6.125-20.537 8.167l-14.376 2.042z" transform="translate(221.828204, 136.293166) rotate(-313.000000) translate(-221.828204, -136.293166) translate(189.300204, 81.142356)"/>
                            <path fill="#FFBAD0" d="M32.493 40.702c12.61 0 15.762 9.405 15.762 23.513 0 14.107-9.21 46.42-15.762 46.084-6.551-.335-17.337-36.68-17.337-46.084 0-9.405 4.728-23.513 17.337-23.513z" transform="translate(221.828204, 136.293166) rotate(-313.000000) translate(-221.828204, -136.293166) translate(189.300204, 81.142356)"/>
                        </g>
                        <g>
                            <path fill="#FF6F9C" d="M27.66 57.377C10.92 52.053 2.17 47.11 1.41 42.545.267 35.7 4.832 36.841 4.832 31.136c0-5.705-7.99-7.987-3.424-13.691 4.565-5.705 13.696 1.14 12.555-5.705C12.822 4.895 15.105.33 23.094.33c7.99 0 6.848 7.987 12.555 7.987S42.497-1.95 48.204.331c5.706 2.282 5.706 9.127 10.272 11.41 4.565 2.281 7.99-2.283 12.554 3.422 4.566 5.705-4.565 12.55-4.565 15.973s5.707 9.127 0 14.832c-3.804 3.803-11.413 6.846-22.827 9.127L27.66 57.377z" transform="translate(119.827674, 119.061702) rotate(25.000000) translate(-119.827674, -119.061702) translate(83.673334, 57.856537)"/>
                            <path fill="#FFBAD0" d="M35.377 45.968c13.914 0 17.392 10.33 17.392 25.825s-5.217 50.617-17.392 50.617c-12.174 0-19.13-40.287-19.13-50.617 0-10.33 5.217-25.825 19.13-25.825z" transform="translate(119.827674, 119.061702) rotate(25.000000) translate(-119.827674, -119.061702) translate(83.673334, 57.856537)"/>
                            <path fill="#FFBAD0" d="M22.241 29.6c1.576 0 2.853 1.277 2.854 2.853l.003 21.682c0 1.575-1.276 2.852-2.85 2.853h-.002c-1.576 0-2.853-1.278-2.853-2.854l-.004-21.682c0-1.575 1.276-2.852 2.851-2.852h.001z" transform="translate(119.827674, 119.061702) rotate(25.000000) translate(-119.827674, -119.061702) translate(83.673334, 57.856537) translate(22.243762, 43.293779) rotate(-49.000000) translate(-22.243762, -43.293779)"/>
                            <path fill="#FFBAD0" d="M28.992 19.435c1.576 0 2.853 1.278 2.854 2.854l.004 30.806c0 1.575-1.277 2.852-2.852 2.853-1.577 0-2.854-1.278-2.854-2.854l-.005-30.806c0-1.575 1.277-2.853 2.852-2.853h.001z" transform="translate(119.827674, 119.061702) rotate(25.000000) translate(-119.827674, -119.061702) translate(83.673334, 57.856537) translate(28.994690, 37.691332) rotate(-27.000000) translate(-28.994690, -37.691332)"/>
                            <path fill="#FFBAD0" d="M41.57 20.071c1.575 0 2.852 1.277 2.852 2.852v.001l-.005 30.807c0 1.576-1.277 2.853-2.853 2.854-1.575 0-2.852-1.277-2.853-2.852v-.001l.005-30.807c0-1.576 1.278-2.853 2.854-2.854z" transform="translate(119.827674, 119.061702) rotate(25.000000) translate(-119.827674, -119.061702) translate(83.673334, 57.856537) translate(41.566737, 38.327951) rotate(31.000000) translate(-41.566737, -38.327951)"/>
                            <path fill="#FFBAD0" d="M43.689 30.095c1.575 0 2.852 1.276 2.852 2.851v.001l-.004 25.108c0 1.576-1.278 2.853-2.853 2.853-1.575 0-2.852-1.276-2.852-2.851l.004-25.109c0-1.575 1.277-2.853 2.853-2.853z" transform="translate(119.827674, 119.061702) rotate(25.000000) translate(-119.827674, -119.061702) translate(83.673334, 57.856537) translate(43.686287, 45.501654) rotate(59.000000) translate(-43.686287, -45.501654)"/>
                        </g>
                        <path fill="#FFBAD0" d="M156.986 47.919H161.551V265.837H156.986z"/>
                        <rect width="124.405" height="67.315" x="96.496" fill="#FFBAD0" rx="4.565"/>
                        <path fill="#FF6F9C" fill-rule="nonzero" d="M135.28 53.809v-2.284c1.538-.142 2.734-.57 3.589-1.287.854-.717 1.282-1.666 1.282-2.847 0-.654-.143-1.226-.43-1.716-.286-.49-.735-.94-1.348-1.348-.613-.409-1.644-.891-3.093-1.449v-3.286c1.218.104 2.407.393 3.567.869l1.047-2.608c-1.374-.609-2.913-.95-4.614-1.025v-1.66h-1.527v1.705c-1.509.149-2.684.57-3.528 1.265-.843.694-1.265 1.58-1.265 2.657 0 1.003.307 1.844.92 2.524.613.68 1.655 1.309 3.126 1.888l.747.29v3.454c-.713-.045-1.525-.19-2.435-.435-.91-.245-1.69-.527-2.336-.847v2.942c1.368.602 2.958.921 4.77.958v2.24h1.528zm-1.527-11.554c-.505-.223-.871-.44-1.098-.652-.227-.212-.34-.481-.34-.808 0-.631.48-1.018 1.438-1.159v2.619zm1.527 6.618v-2.775c.505.23.884.454 1.137.669.252.215.379.48.379.791 0 .706-.506 1.144-1.516 1.315zm14.036 4.055c5.484 0 9.578-1.582 12.283-4.746 2.705-3.164 4.057-7.955 4.057-14.373 0-2.971-.483-5.53-1.449-7.677-.966-2.146-2.351-3.784-4.157-4.913-1.806-1.13-3.912-1.694-6.32-1.694-3.418 0-6.119 1.014-8.103 3.042-1.984 2.028-2.976 4.787-2.976 8.278 0 3.239.818 5.768 2.452 7.588 1.635 1.82 3.872 2.73 6.71 2.73 1.694 0 3.106-.283 4.236-.847 1.129-.565 2.125-1.545 2.987-2.942h.267c-.119 2.54-.572 4.535-1.36 5.984-.787 1.448-1.924 2.51-3.41 3.186-1.486.676-3.381 1.014-5.685 1.014-1.367 0-2.675-.156-3.923-.468v5.526c.996.208 2.46.312 4.391.312zm4.414-17.047c-1.486 0-2.593-.46-3.321-1.381-.728-.921-1.093-2.17-1.093-3.744 0-1.842.402-3.253 1.204-4.234.803-.98 1.917-1.47 3.344-1.47 1.442 0 2.627.609 3.556 1.827.928 1.218 1.393 2.71 1.393 4.479 0 1.188-.498 2.24-1.494 3.153-.995.914-2.192 1.37-3.589 1.37zm21.988 17.047c5.484 0 9.578-1.582 12.283-4.746 2.704-3.164 4.057-7.955 4.057-14.373 0-2.971-.483-5.53-1.45-7.677-.965-2.146-2.351-3.784-4.157-4.913-1.805-1.13-3.912-1.694-6.32-1.694-3.417 0-6.118 1.014-8.102 3.042-1.984 2.028-2.976 4.787-2.976 8.278 0 3.239.817 5.768 2.452 7.588 1.634 1.82 3.871 2.73 6.71 2.73 1.694 0 3.105-.283 4.235-.847 1.13-.565 2.125-1.545 2.987-2.942h.268c-.12 2.54-.573 4.535-1.36 5.984-.788 1.448-1.925 2.51-3.41 3.186-1.487.676-3.382 1.014-5.685 1.014-1.367 0-2.675-.156-3.924-.468v5.526c.996.208 2.46.312 4.392.312zm4.414-17.047c-1.487 0-2.594-.46-3.322-1.381-.728-.921-1.092-2.17-1.092-3.744 0-1.842.401-3.253 1.204-4.234.802-.98 1.917-1.47 3.343-1.47 1.442 0 2.627.609 3.556 1.827.929 1.218 1.393 2.71 1.393 4.479 0 1.188-.498 2.24-1.493 3.153-.996.914-2.192 1.37-3.59 1.37z"/>
                        <g>
                            <path fill="#FF6F9C" d="M63.824 73.357c-16.737-5.322-25.485-10.265-26.245-14.83-1.14-6.846 3.424-5.705 3.425-11.41.001-5.706-7.987-7.987-3.42-13.693 4.565-5.706 13.693 1.139 12.553-5.708-1.14-6.846 1.143-11.41 9.132-11.412 7.988-.001 6.845 7.986 12.551 7.985 5.706 0 6.85-10.27 12.555-7.99 5.705 2.282 5.704 9.128 10.268 11.41 4.565 2.281 7.99-2.284 12.553 3.42 4.564 5.705-4.567 12.553-4.568 15.977 0 3.423 5.705 9.127-.002 14.834-3.805 3.804-11.413 6.848-22.825 9.132l-15.977 2.285z" transform="translate(57.950585, 147.691426) translate(72.323577, 44.663101) rotate(37.000000) translate(-72.323577, -44.663101)"/>
                            <path fill="#FFBAD0" d="M38.47 49.772c13.912-.003 17.388 10.328 17.385 25.825-.003 15.497-5.225 50.625-17.398 50.627-12.173.002-19.122-40.29-19.12-50.62.002-10.332 5.221-25.83 19.133-25.832z" transform="translate(57.950585, 147.691426) translate(37.596120, 87.997545) rotate(37.000000) translate(-37.596120, -87.997545)"/>
                            <path fill="#FFBAD0" d="M52.42 34.266c1.575 0 2.852 1.278 2.853 2.854l.001 21.676c0 1.576-1.277 2.853-2.853 2.853-1.576 0-2.853-1.277-2.853-2.853l-.002-21.676c0-1.576 1.277-2.853 2.853-2.854z" transform="translate(57.950585, 147.691426) translate(52.420097, 47.957844) rotate(-12.000000) translate(-52.420097, -47.957844)"/>
                            <path fill="#FFBAD0" d="M59.456 25.926c1.575 0 2.853 1.278 2.853 2.853l-.002 30.804c0 1.576-1.278 2.854-2.854 2.854S56.6 61.16 56.6 59.584l.002-30.804c0-1.576 1.278-2.853 2.854-2.854z" transform="translate(57.950585, 147.691426) translate(59.454292, 44.181526) rotate(11.000000) translate(-59.454292, -44.181526)"/>
                            <path fill="#FFBAD0" d="M68.123 29.595c1.575 0 2.852 1.276 2.853 2.851v.001l-.006 30.81c0 1.575-1.277 2.852-2.853 2.853-1.575 0-2.852-1.277-2.852-2.852l.005-30.81c0-1.576 1.277-2.853 2.853-2.853z" transform="translate(57.950585, 147.691426) translate(68.120109, 47.852181) rotate(39.000000) translate(-68.120109, -47.852181)"/>
                            <path fill="#FFBAD0" d="M70.844 37.356c1.575 0 2.852 1.277 2.852 2.852l-.004 30.816c0 1.576-1.277 2.853-2.853 2.853-1.575 0-2.851-1.276-2.852-2.851v-.001l.004-30.816c0-1.575 1.277-2.853 2.853-2.853z" transform="translate(57.950585, 147.691426) translate(70.841679, 55.616699) rotate(68.000000) translate(-70.841679, -55.616699)"/>
                            <path fill="#FFBAD0" d="M68.215 47.213c1.575 0 2.852 1.277 2.853 2.852v25.112c0 1.575-1.276 2.852-2.852 2.852-1.575 0-2.852-1.277-2.852-2.852l-.001-25.112c0-1.575 1.277-2.852 2.852-2.852z" transform="translate(57.950585, 147.691426) translate(68.215656, 62.620999) rotate(96.000000) translate(-68.215656, -62.620999)"/>
                        </g>
                        <path fill="#FF6F9C" d="M18.885 228.186H246.01V393.621H18.885z"/>
                    </g>
                </g>
                <g mask="url(#c7umry20ob)">
                    <g>
                        <g transform="translate(-52.501333, 71.308096) translate(69.621333, 0.000000)">
                            <path fill="#FFBAD0" d="M60.491 47.919H65.056V265.837H60.491z"/>
                            <rect width="124.405" height="67.315" fill="#FFBAD0" rx="4.565"/>
                            <path fill="#FF6F9C" fill-rule="nonzero" d="M25.583 52.668v-2.284c1.539-.142 2.735-.57 3.59-1.287.854-.717 1.281-1.666 1.281-2.847 0-.654-.143-1.226-.429-1.716-.286-.49-.736-.94-1.349-1.348-.613-.409-1.644-.891-3.093-1.448V38.45c1.22.104 2.408.393 3.567.869l1.048-2.607c-1.375-.61-2.913-.951-4.615-1.026v-1.66h-1.527v1.705c-1.508.149-2.684.57-3.527 1.265-.844.694-1.265 1.58-1.265 2.657 0 1.003.306 1.844.92 2.524.612.68 1.654 1.309 3.126 1.888l.746.29v3.454c-.713-.045-1.525-.19-2.435-.435-.91-.245-1.688-.527-2.335-.846v2.941c1.367.602 2.957.921 4.77.958v2.24h1.527zm-1.527-11.554c-.505-.223-.87-.44-1.097-.652-.227-.212-.34-.481-.34-.808 0-.631.479-1.018 1.437-1.159v2.619zm1.527 6.618v-2.774c.506.23.885.453 1.137.668.253.215.38.48.38.791 0 .706-.506 1.144-1.517 1.315zm24.76 3.61v-32.58H44.68l-10.5 8.357 3.322 4.145 3.745-3.008c.446-.357 1.241-1.107 2.386-2.25l-.112 3.386-.067 3.098v18.852h6.888zm21.05.446c3.478 0 6.198-1.014 8.16-3.042 1.961-2.028 2.942-4.78 2.942-8.256 0-3.224-.825-5.75-2.474-7.577-1.65-1.827-3.931-2.74-6.844-2.74-3.24 0-5.595 1.262-7.066 3.787h-.29c.134-2.57.572-4.553 1.315-5.95.743-1.396 1.861-2.45 3.355-3.164 1.493-.713 3.422-1.07 5.785-1.07 1.293 0 2.6.15 3.923.446v-5.504c-1.055-.222-2.512-.334-4.37-.334-5.438 0-9.521 1.575-12.248 4.724-2.727 3.15-4.091 7.948-4.091 14.396 0 3.015.487 5.593 1.46 7.732.974 2.14 2.356 3.766 4.146 4.88 1.791 1.114 3.89 1.672 6.298 1.672zm-.133-5.505c-1.427 0-2.604-.609-3.533-1.827-.93-1.218-1.393-2.711-1.393-4.479 0-1.203.494-2.258 1.482-3.164.988-.906 2.18-1.36 3.578-1.36 1.486 0 2.597.457 3.332 1.37.736.915 1.104 2.166 1.104 3.756 0 1.827-.394 3.235-1.182 4.223-.787.987-1.917 1.481-3.388 1.481zm26.09 5.505c3.417 0 6.174-.814 8.27-2.44 2.095-1.627 3.143-3.778 3.143-6.452 0-1.693-.532-3.25-1.594-4.668-1.063-1.419-2.813-2.782-5.25-4.09 2.05-1.024 3.537-2.187 4.458-3.487.922-1.3 1.382-2.781 1.382-4.445 0-2.407-.954-4.32-2.864-5.738-1.91-1.42-4.425-2.128-7.546-2.128-3.106 0-5.625.72-7.557 2.161-1.932 1.441-2.898 3.328-2.898 5.66 0 1.59.41 3.053 1.227 4.39.817 1.337 2.154 2.592 4.012 3.766-2.185 1.1-3.771 2.37-4.76 3.81-.988 1.442-1.482 3.09-1.482 4.948 0 2.778 1.018 4.924 3.054 6.44 2.036 1.515 4.838 2.273 8.404 2.273zm0-20.524c-1.502-.743-2.538-1.467-3.11-2.173-.573-.705-.859-1.504-.859-2.395 0-1.01.36-1.816 1.081-2.418.721-.601 1.669-.902 2.843-.902 1.159 0 2.11.297 2.853.891.743.594 1.115 1.404 1.115 2.429 0 .936-.29 1.76-.87 2.473-.58.714-1.597 1.412-3.054 2.095zm-.09 15.465c-1.545 0-2.764-.356-3.656-1.07-.891-.713-1.337-1.708-1.337-2.986 0-2.228 1.582-4.07 4.748-5.526 1.887.98 3.25 1.905 4.09 2.774.84.87 1.26 1.802 1.26 2.797 0 1.203-.424 2.173-1.27 2.908-.848.735-2.126 1.103-3.835 1.103z"/>
                        </g>
                        <path fill="#FFBAD0" d="M65.059 205.369c10.715.002 19.4-8.682 19.398-19.395 0-4.116-.93-7.404-3.118-10.544-3.506-5.033-9.688-8.855-16.286-8.856-10.715-.002-19.4 8.682-19.398 19.395 0 3.428 2.663 5.753 4.224 8.548 3.318 5.939 7.894 10.85 15.18 10.852z" transform="translate(-52.501333, 71.308096) translate(65.056000, 185.971514) rotate(151.000000) translate(-65.056000, -185.971514)"/>
                        <path fill="#FFBAD0" d="M114.136 172.282c10.715.002 19.4-8.682 19.398-19.395 0-4.115-.93-7.404-3.118-10.544-3.506-5.033-9.687-8.855-16.286-8.856-10.714-.001-19.4 8.682-19.398 19.395 0 3.428 2.663 5.753 4.225 8.548 3.317 5.939 7.893 10.85 15.18 10.852z" transform="translate(-52.501333, 71.308096) translate(114.133333, 152.884558) rotate(151.000000) translate(-114.133333, -152.884558)"/>
                        <path fill="#FFBAD0" d="M39.95 171.141c10.714.002 19.4-8.682 19.398-19.394 0-4.116-.931-7.405-3.118-10.545-3.506-5.033-9.688-8.855-16.286-8.856-10.715-.001-19.4 8.682-19.398 19.395 0 3.428 2.663 5.753 4.224 8.548 3.318 5.939 7.894 10.851 15.18 10.852z" transform="translate(-52.501333, 71.308096) translate(39.946667, 151.743628) rotate(151.000000) translate(-39.946667, -151.743628)"/>
                        <path fill="#FFBAD0" d="M98.153 208.797c10.712-.001 19.397-8.688 19.398-19.404 0-4.117-.93-7.406-3.115-10.547-3.504-5.033-9.683-8.855-16.28-8.854-10.712 0-19.397 8.688-19.397 19.404 0 3.429 2.66 5.754 4.221 8.55 3.316 5.939 7.89 10.851 15.173 10.85z" transform="translate(-52.501333, 71.308096) translate(98.154667, 189.394303) rotate(78.000000) translate(-98.154667, -189.394303)"/>
                        <path fill="#FFBAD0" d="M132.393 208.797c10.712-.001 19.397-8.688 19.398-19.404 0-4.117-.93-7.406-3.115-10.547-3.504-5.033-9.683-8.855-16.28-8.854-10.712 0-19.397 8.688-19.397 19.404 0 3.429 2.66 5.754 4.221 8.55 3.316 5.939 7.89 10.851 15.173 10.85z" transform="translate(-52.501333, 71.308096) translate(132.394667, 189.394303) scale(-1, 1) rotate(78.000000) translate(-132.394667, -189.394303)"/>
                        <path fill="#FFBAD0" d="M149.513 175.71c10.712-.001 19.397-8.688 19.398-19.404 0-4.117-.93-7.406-3.115-10.547-3.504-5.033-9.683-8.854-16.28-8.854-10.712 0-19.397 8.688-19.397 19.404 0 3.43 2.66 5.754 4.221 8.55 3.316 5.94 7.89 10.851 15.173 10.85z" transform="translate(-52.501333, 71.308096) translate(149.514667, 156.307346) scale(-1, 1) rotate(78.000000) translate(-149.514667, -156.307346)"/>
                        <path fill="#FFBAD0" d="M133.535 143.764c10.712-.001 19.396-8.688 19.397-19.404 0-4.117-.929-7.406-3.115-10.547-3.504-5.033-9.683-8.855-16.28-8.854-10.712 0-19.396 8.688-19.397 19.404 0 3.43 2.66 5.754 4.221 8.55 3.316 5.939 7.89 10.851 15.174 10.85z" transform="translate(-52.501333, 71.308096) translate(133.536000, 124.361319) scale(-1, 1) rotate(78.000000) translate(-133.536000, -124.361319)"/>
                        <path fill="#FFBAD0" d="M95.87 141.482c10.713 0 19.397-8.688 19.398-19.404 0-4.117-.929-7.406-3.115-10.546-3.504-5.034-9.683-8.855-16.28-8.855-10.712 0-19.396 8.688-19.397 19.404 0 3.43 2.66 5.754 4.221 8.55 3.316 5.94 7.89 10.851 15.174 10.85z" transform="translate(-52.501333, 71.308096) translate(95.872000, 122.079460) scale(-1, 1) rotate(78.000000) translate(-95.872000, -122.079460)"/>
                        <path fill="#FFBAD0" d="M172.34 208.797c10.712-.001 19.397-8.688 19.397-19.404 0-4.117-.929-7.406-3.115-10.547-3.503-5.033-9.683-8.855-16.28-8.854-10.711 0-19.396 8.688-19.397 19.404 0 3.429 2.661 5.754 4.222 8.55 3.315 5.939 7.889 10.851 15.173 10.85z" transform="translate(-52.501333, 71.308096) translate(172.341333, 189.394303) scale(-1, -1) rotate(78.000000) translate(-172.341333, -189.394303)"/>
                        <path fill="#FFBAD0" d="M52.5 138.059c10.712 0 19.397-8.688 19.397-19.404 0-4.117-.929-7.406-3.115-10.546-3.503-5.033-9.683-8.855-16.28-8.855-10.711.001-19.396 8.688-19.397 19.404 0 3.43 2.661 5.755 4.222 8.55 3.315 5.94 7.889 10.852 15.173 10.851z" transform="translate(-52.501333, 71.308096) translate(52.501333, 118.656672) scale(-1, -1) rotate(78.000000) translate(-52.501333, -118.656672)"/>
                        <path fill="#FFBAD0" d="M172.34 142.623c10.712-.001 19.397-8.688 19.397-19.404 0-4.117-.929-7.406-3.115-10.546-3.503-5.034-9.683-8.855-16.28-8.855-10.711 0-19.396 8.688-19.397 19.404 0 3.43 2.661 5.754 4.222 8.55 3.315 5.94 7.889 10.851 15.173 10.85z" transform="translate(-52.501333, 71.308096) translate(172.341333, 123.220390) scale(-1, -1) rotate(78.000000) translate(-172.341333, -123.220390)"/>
                        <path fill="#FFBAD0" d="M190.601 175.71c10.712-.001 19.397-8.688 19.398-19.404 0-4.117-.93-7.406-3.115-10.547-3.504-5.033-9.683-8.854-16.28-8.854-10.712 0-19.397 8.688-19.397 19.404 0 3.43 2.66 5.754 4.221 8.55 3.316 5.94 7.89 10.851 15.173 10.85z" transform="translate(-52.501333, 71.308096) translate(190.602667, 156.307346) scale(-1, -1) rotate(78.000000) translate(-190.602667, -156.307346)"/>
                        <path fill="#FFBAD0" d="M207.721 208.797c10.712-.001 19.397-8.688 19.398-19.404 0-4.117-.93-7.406-3.115-10.547-3.504-5.033-9.683-8.855-16.28-8.854-10.712 0-19.397 8.688-19.397 19.404 0 3.429 2.66 5.754 4.221 8.55 3.316 5.939 7.89 10.851 15.173 10.85z" transform="translate(-52.501333, 71.308096) translate(207.722667, 189.394303) scale(-1, -1) rotate(78.000000) translate(-207.722667, -189.394303)"/>
                        <path fill="#FFBAD0" d="M78.75 172.287c10.713 0 19.397-8.688 19.398-19.404 0-4.117-.929-7.406-3.115-10.546-3.504-5.033-9.683-8.855-16.28-8.855-10.712.001-19.396 8.688-19.397 19.404 0 3.43 2.66 5.755 4.221 8.55 3.316 5.94 7.89 10.851 15.174 10.85z" transform="translate(-52.501333, 71.308096) translate(78.752000, 152.884558) scale(-1, -1) rotate(78.000000) translate(-78.752000, -152.884558)"/>
                        <path fill="#FF6F9C" d="M0 200.804H227.125V333.15200000000004H0z" transform="translate(-52.501333, 71.308096)"/>
                    </g>
                </g>
            </g>
        </g>
    </g>
</svg>
