<svg xmlns="http://www.w3.org/2000/svg" width="16" height="16" viewBox="0 0 16 16">
    <g fill="none" fill-rule="evenodd">
        <g>
            <g>
                <g>
                    <g>
                        <g fill="#FFD8CD" transform="translate(-20 -213) translate(20 212) translate(0 1)">
                            <circle cx="8" cy="8" r="8"/>
                        </g>
                        <g fill="#F72F2A" fill-rule="nonzero">
                            <g>
                                <path d="M1 2c.554 0 1-.44 1-1s-.446-1-1-1-1 .44-1 1 .446 1 1 1z" transform="translate(-20 -213) translate(20 212) translate(0 1) translate(7 11)"/>
                            </g>
                        </g>
                    </g>
                    <path fill="#F72F2A" fill-rule="nonzero" d="M8.75 9.382l.866-4.42c.174-.892-.407-1.757-1.3-1.931C8.212 3.01 8.106 3 8 3c-.91 0-1.646.737-1.646 1.646 0 .107.01.213.03.317l.865 4.42c.07.358.385.617.751.617s.68-.259.75-.618z" transform="translate(-20 -213) translate(20 212) translate(0 1)"/>
                </g>
            </g>
        </g>
    </g>
</svg>
