<svg xmlns="http://www.w3.org/2000/svg" xmlns:xlink="http://www.w3.org/1999/xlink" width="360" height="360" viewBox="0 0 360 360">
    <defs>
        <path id="tfw0a2w6da" d="M0 21.628C4.882 7.998 32.221.806 82.019.053c49.797-.752 77.487 6.44 83.07 21.575l-2.95 93.069c-1.363 42.976-36.596 77.11-79.595 77.11-42.998 0-78.231-34.134-79.594-77.11L0 21.628z"/>
        <path id="jwnlvkv5lc" d="M7.704 121.911l5.079-31.973 10.587-11.22c1.321 7.26 2.08 10.765 2.274 10.514 6.94 0 15.613-2.736 26.02-8.208l-1.187 8.896c14.033-.031 25.984-3.765 35.854-11.202l1.788 11.22c11.791.998 26.052-3.476 42.782-13.422.066-.065.525 3.47 1.376 10.603 7.936-.232 15.59-2.852 22.96-7.86.266-.218 2.994 3.373 8.185 10.774l5.297 32.42c6.092-30.396 9.148-45.812 9.167-46.247 0-28.04-2.01-66.497-45.92-66.497C128.332 10.596 129.82 0 90.215 0 34.388 0 4.317 24.494 0 73.481l7.704 48.43z"/>
    </defs>
    <g fill="none" fill-rule="evenodd">
        <g>
            <g>
                <path fill="#FFB7A2" d="M123.063 238.137H236.251V338.59000000000003H123.063z" transform="translate(-2438.000000, -240.000000) translate(2438.000000, 240.000000)"/>
                <g>
                    <g>
                        <path fill="#FFD8CD" d="M0 65.914c10.571 0 19.14 8.57 19.14 19.14v15.911c0 10.571-8.569 19.14-19.14 19.14v-54.19z" transform="translate(-2438.000000, -240.000000) translate(2438.000000, 240.000000) translate(82.500000, 36.000000) translate(0.000000, 52.547208) translate(9.570370, 93.010011) scale(-1, 1) translate(-9.570370, -93.010011)"/>
                        <path fill="#FFB7A2" d="M174.66 65.914c10.57 0 19.14 8.57 19.14 19.14v15.911c0 10.571-8.57 19.14-19.14 19.14v-54.19z" transform="translate(-2438.000000, -240.000000) translate(2438.000000, 240.000000) translate(82.500000, 36.000000) translate(0.000000, 52.547208)"/>
                        <g transform="translate(-2438.000000, -240.000000) translate(2438.000000, 240.000000) translate(82.500000, 36.000000) translate(0.000000, 52.547208) translate(14.046169, -0.000000)">
                            <mask id="s3r4gcoffb" fill="#fff">
                                <use xlink:href="#tfw0a2w6da"/>
                            </mask>
                            <use fill="#FFD8CD" xlink:href="#tfw0a2w6da"/>
                            <path fill="#FFB7A2" d="M165.089-6.589v198.396H83.34v-54.129l-19.705-9.191c-.093-.044-.185-.09-.276-.138l-.27-.152c-2.833-1.698-3.754-5.372-2.056-8.206 2.852-4.76 6.033-9.88 9.542-15.363 4.959-7.746 9.261-14.771 12.908-21.074l-.144.245V-6.589h81.749z" mask="url(#s3r4gcoffb)"/>
                        </g>
                    </g>
                    <g transform="translate(-2438.000000, -240.000000) translate(2438.000000, 240.000000) translate(82.500000, 36.000000) translate(8.750535, 0.000000)">
                        <use fill="#324148" xlink:href="#jwnlvkv5lc"/>
                    </g>
                </g>
            </g>
        </g>
    </g>
</svg>
