<svg xmlns="http://www.w3.org/2000/svg" xmlns:xlink="http://www.w3.org/1999/xlink" width="360" height="360" viewBox="0 0 360 360">
    <defs>
        <path id="l790m7fm4a" d="M0 21.628C4.882 7.998 32.221.806 82.019.053c49.797-.752 77.487 6.44 83.07 21.575l-2.95 93.069c-1.363 42.976-36.596 77.11-79.595 77.11-42.998 0-78.231-34.134-79.594-77.11L0 21.628z"/>
        <path id="zx9mdwvlxc" d="M10.052 150.819c2.294-1.76 8.189-12.766 8.095-18.246 28.381 0 56.257-25.872 57.053-24.313.797 1.558-15.054 15.823-22.362 19.291 1.606 5.022 67.416-5.545 83.885-34.834.1-.099-6.216 15.02-17.803 25.802 3.76 6.772 32.73-7.744 39.47-22.033.399-.327 7.33 51.909 13.093 54.333.591-1.3 1.845-6.398 3.762-15.292.85.281 2.148.765 3.893 1.45 3.486-19.384 6.448-43.853 6.466-44.26 1.81-22.877-10.359-58.967-38.153-69.448-2.241-.845 2.308-3.154.056-4.213-5.764-2.71-12.897-4.264-21.722-4.264-2.93.715-15.09-12.129-35.534-14.775-2.811-.364 1.992 5.216 1.838 7.392-.116 1.642-4.747 0-8.057 0-8.929 0-17.199.627-24.81 1.88-4.823.794 2.066 5.76-2.44 7.83-2.47 1.135-19.49 4.033-22.462 6.15-1.236.88 3.848 2.37 2.472 3.049C7.64 40.679 0 81.284 0 89.992c1.223 16.605 3.947 34.26 5.125 47.79 1.39-.747 2.606-1.305 3.646-1.674.507 6.278.934 11.181 1.28 14.71z"/>
    </defs>
    <g fill="none" fill-rule="evenodd">
        <g>
            <g>
                <path fill="#FFB7A2" d="M123.063 238.137H236.251V338.59000000000003H123.063z" transform="translate(-3198.000000, -240.000000) translate(3198.000000, 240.000000)"/>
                <g>
                    <g>
                        <path fill="#FFD8CD" d="M0 65.914c10.571 0 19.14 8.57 19.14 19.14v15.911c0 10.571-8.569 19.14-19.14 19.14v-54.19z" transform="translate(-3198.000000, -240.000000) translate(3198.000000, 240.000000) translate(82.500000, 19.489694) translate(0.000000, 69.057513) translate(9.570370, 93.010011) scale(-1, 1) translate(-9.570370, -93.010011)"/>
                        <path fill="#FFB7A2" d="M174.66 65.914c10.57 0 19.14 8.57 19.14 19.14v15.911c0 10.571-8.57 19.14-19.14 19.14v-54.19z" transform="translate(-3198.000000, -240.000000) translate(3198.000000, 240.000000) translate(82.500000, 19.489694) translate(0.000000, 69.057513)"/>
                        <g transform="translate(-3198.000000, -240.000000) translate(3198.000000, 240.000000) translate(82.500000, 19.489694) translate(0.000000, 69.057513) translate(14.046169, -0.000000)">
                            <mask id="jzhj9hsvab" fill="#fff">
                                <use xlink:href="#l790m7fm4a"/>
                            </mask>
                            <use fill="#FFD8CD" xlink:href="#l790m7fm4a"/>
                            <path fill="#FFB7A2" d="M165.089-6.589v198.396H83.34v-54.129l-19.705-9.191c-.093-.044-.185-.09-.276-.138l-.27-.152c-2.833-1.698-3.754-5.372-2.056-8.206 2.852-4.76 6.033-9.88 9.542-15.363 4.959-7.746 9.261-14.771 12.908-21.074l-.144.245V-6.589h81.749z" mask="url(#jzhj9hsvab)"/>
                        </g>
                    </g>
                    <g transform="translate(-3198.000000, -240.000000) translate(3198.000000, 240.000000) translate(82.500000, 19.489694) translate(3.994239, 0.000000)">
                        <use fill="#324148" xlink:href="#zx9mdwvlxc"/>
                    </g>
                </g>
            </g>
        </g>
    </g>
</svg>
