<svg xmlns="http://www.w3.org/2000/svg" xmlns:xlink="http://www.w3.org/1999/xlink" width="360" height="360" viewBox="0 0 360 360">
    <defs>
        <path id="y3uqf96v5a" d="M14.306 58.104c4.879-13.515 32.202-20.645 81.97-21.391 49.768-.746 77.441 6.384 83.02 21.39l-2.929 91.663c-1.372 42.954-36.59 77.064-79.566 77.064-42.975 0-78.193-34.11-79.566-77.064l-2.929-91.662z"/>
        <path id="9axx7zo9ic" d="M15.537 114.369c3.829-9.708 6.17-18.342 7.023-25.901.694-6.155.74-16.122.138-29.903-.083-1.888 1.03-3.625 2.779-4.342 12.517-5.123 36.453-7.685 71.809-7.685 29.882-.023 52.788 1.823 68.717 5.54 2.11.492 3.566 2.424 3.456 4.588-.752 14.868-1.024 25.127-.818 30.778.345 9.45 2.54 19.095 6.583 28.935C192.69 41.649 167.954 2.857 101.02 0 27.435-.275-1.06 37.848 15.537 114.37z"/>
        <linearGradient id="3pdtxghm7d" x1="50%" x2="50%" y1="20.676%" y2="83.818%">
            <stop offset="0%" stop-color="#647780" stop-opacity="0"/>
            <stop offset="100%" stop-color="#9E9997"/>
        </linearGradient>
    </defs>
    <g fill="none" fill-rule="evenodd">
        <g>
            <g>
                <path fill="#FFB7A2" d="M127.323 232.226H240.44299999999998V338.726H127.323z" transform="translate(-2058.000000, -240.000000) translate(2058.000000, 240.000000)"/>
                <g transform="translate(-2058.000000, -240.000000) translate(2058.000000, 240.000000) translate(83.120000, 54.000000)">
                    <mask id="kkqrkrbsfb" fill="#fff">
                        <use xlink:href="#y3uqf96v5a"/>
                    </mask>
                    <use fill="#FFD8CD" xlink:href="#y3uqf96v5a"/>
                    <path fill="#FFB7A2" d="M179.294 30.128V226.83H97.595v-53.666l-21.16-9.793c-.072-.033-.143-.069-.214-.106l-.207-.117c-2.123-1.272-2.812-4.023-1.54-6.146 3.059-5.103 6.513-10.639 10.364-16.607 4.956-7.68 9.255-14.645 12.9-20.894l-.143.243V30.128h81.7z" mask="url(#kkqrkrbsfb)"/>
                    <path fill="#FFD8CD" d="M0 108.498c10.565 0 19.13 8.564 19.13 19.13v15.47c0 10.565-8.565 19.13-19.13 19.13v-53.73z" transform="translate(9.564663, 135.362441) scale(-1, 1) translate(-9.564663, -135.362441)"/>
                    <path fill="#FFB7A2" d="M174.555 108.498c10.565 0 19.13 8.564 19.13 19.13v15.47c0 10.565-8.565 19.13-19.13 19.13v-53.73z"/>
                    <g>
                        <use fill="#324148" xlink:href="#9axx7zo9ic"/>
                        <use fill="url(#3pdtxghm7d)" xlink:href="#9axx7zo9ic"/>
                    </g>
                </g>
            </g>
        </g>
    </g>
</svg>
