<svg xmlns="http://www.w3.org/2000/svg" xmlns:xlink="http://www.w3.org/1999/xlink" width="360" height="360" viewBox="0 0 360 360">
    <defs>
        <path id="2t35ehikha" d="M0 21.53C4.887 7.961 32.254.802 82.102.053c49.847-.749 77.565 6.41 83.154 21.477l-2.94 92.216c-1.372 43.022-36.644 77.188-79.688 77.188-43.044 0-78.317-34.166-79.688-77.188L0 21.53z"/>
    </defs>
    <g fill="none" fill-rule="evenodd">
        <g>
            <g>
                <g>
                    <path fill="#324148" d="M28.468 156.644c-2.973-52.633-.545-69.03 11.16-85.136C52.103 54.343 67.822 36.773 91.05 29.876c23.228-6.896 33.69 2.471 46.666 2.471 4.628 0 14.638-.1 24.298 2.34 19.472 4.919 31.747 17.695 42.433 36.821 10.686 19.127 7.239 60.526 1.497 85.136 0 0-172.783.612-177.477 0z" transform="translate(-3578.000000, -240.000000) translate(3578.000000, 240.000000) translate(61.500000, 2.700000)"/>
                    <g>
                        <path fill="#FFB7A2" d="M61.767 236.24H175V336.235H61.767z" transform="translate(-3578.000000, -240.000000) translate(3578.000000, 240.000000) translate(61.500000, 2.700000)"/>
                        <g>
                            <g>
                                <path fill="#FFD8CD" d="M0 65.614c10.582 0 19.16 8.578 19.16 19.16V100.4c0 10.582-8.578 19.16-19.16 19.16V65.614z" transform="translate(-3578.000000, -240.000000) translate(3578.000000, 240.000000) translate(61.500000, 2.700000) translate(21.529247, 87.137750) translate(9.580042, 92.586506) scale(-1, 1) translate(-9.580042, -92.586506)"/>
                                <path fill="#FFB7A2" d="M174.836 65.614c10.582 0 19.16 8.578 19.16 19.16V100.4c0 10.582-8.578 19.16-19.16 19.16V65.614z" transform="translate(-3578.000000, -240.000000) translate(3578.000000, 240.000000) translate(61.500000, 2.700000) translate(21.529247, 87.137750)"/>
                                <g transform="translate(-3578.000000, -240.000000) translate(3578.000000, 240.000000) translate(61.500000, 2.700000) translate(21.529247, 87.137750) translate(14.060364, -0.000000)">
                                    <mask id="gjaetaacfb" fill="#fff">
                                        <use xlink:href="#2t35ehikha"/>
                                    </mask>
                                    <use fill="#FFD8CD" xlink:href="#2t35ehikha"/>
                                    <path fill="#FFB7A2" d="M165.256-6.559v197.493H83.425v-53.882l-19.697-9.137c-.13-.06-.258-.126-.384-.195l-.186-.108c-2.83-1.706-3.74-5.382-2.035-8.212 2.848-4.725 6.023-9.808 9.524-15.248 4.964-7.711 9.27-14.704 12.921-20.979l-.143.244V-6.559h81.83z" mask="url(#gjaetaacfb)"/>
                                </g>
                            </g>
                        </g>
                    </g>
                </g>
                <path fill="#324148" d="M200.903 95.353c34.542-5.515 43.385 13.308 49.211 30.476 3.702 10.909 1.219 34.523 3.408 34.523 6.18-9.817 3.555-20.945 5.429-21.81.158 16.91 1.25 16.91 1.942 17.205 8.139-3.721 11.92-22.244 11.342-55.569-22.791-23.173-53.317-34.76-91.577-34.76s-67.61 9.978-88.049 29.935c3.022 30.565 4.951 50.696 5.787 60.394 9.98-5.522 6.801-15.859 9.386-15.859 0 15.45-4.497 15.86-5.593 20.464 17.72 3.23 25.555-14.314 31.726-32.221 3.68-10.68 4.707-21.68 12.58-27.953 12.98-10.34 36.005-13.327 54.408-4.825z" transform="translate(-3578.000000, -240.000000) translate(3578.000000, 240.000000)"/>
            </g>
        </g>
    </g>
</svg>
