<svg xmlns="http://www.w3.org/2000/svg" xmlns:xlink="http://www.w3.org/1999/xlink" width="360" height="360" viewBox="0 0 360 360">
    <defs>
        <path id="zs70k6i1ja" d="M0 21.53C4.887 7.961 32.254.802 82.102.053c49.847-.749 77.565 6.41 83.154 21.477l-2.94 92.216c-1.372 43.022-36.644 77.188-79.688 77.188-43.044 0-78.317-34.166-79.688-77.188L0 21.53z"/>
    </defs>
    <g fill="none" fill-rule="evenodd">
        <g>
            <g>
                <path fill="#324148" d="M75.139 238.94c-13.5-82.327-6.81-209.102 104.748-209.102s119.952 126.79 106.452 209.102c-1.264 7.708-47.142 15.966-104.228 15.568-58.663-.41-105.416-6.079-106.972-15.568z" transform="translate(-538.000000, -240.000000) translate(538.000000, 240.000000)"/>
                <g>
                    <path fill="#FFB7A2" d="M61.767 236.24H175V336.235H61.767z" transform="translate(-538.000000, -240.000000) translate(538.000000, 240.000000) translate(61.500000, 2.700000)"/>
                    <g>
                        <g>
                            <path fill="#FFD8CD" d="M0 65.614c10.582 0 19.16 8.578 19.16 19.16V100.4c0 10.582-8.578 19.16-19.16 19.16V65.614z" transform="translate(-538.000000, -240.000000) translate(538.000000, 240.000000) translate(61.500000, 2.700000) translate(21.529247, 87.137750) translate(9.580042, 92.586506) scale(-1, 1) translate(-9.580042, -92.586506)"/>
                            <path fill="#FFB7A2" d="M174.836 65.614c10.582 0 19.16 8.578 19.16 19.16V100.4c0 10.582-8.578 19.16-19.16 19.16V65.614z" transform="translate(-538.000000, -240.000000) translate(538.000000, 240.000000) translate(61.500000, 2.700000) translate(21.529247, 87.137750)"/>
                            <g transform="translate(-538.000000, -240.000000) translate(538.000000, 240.000000) translate(61.500000, 2.700000) translate(21.529247, 87.137750) translate(14.060364, -0.000000)">
                                <mask id="r6x44aarab" fill="#fff">
                                    <use xlink:href="#zs70k6i1ja"/>
                                </mask>
                                <use fill="#FFD8CD" xlink:href="#zs70k6i1ja"/>
                                <path fill="#FFB7A2" d="M165.256-6.559v197.493H83.425v-53.882l-19.697-9.137c-.13-.06-.258-.126-.384-.195l-.186-.108c-2.83-1.706-3.74-5.382-2.035-8.212 2.848-4.725 6.023-9.808 9.524-15.248 4.964-7.711 9.27-14.704 12.921-20.979l-.143.244V-6.559h81.83z" mask="url(#r6x44aarab)"/>
                            </g>
                        </g>
                    </g>
                </g>
                <path fill="#324148" d="M98.998 152.985c-.393-12.352 1.062-28.762 4.365-49.23l1.583 32.964h150.959l1.372-32.252c2.751 9.62 4.127 24.454 4.127 44.505 0 20.05 2.214-.061 6.643-60.336H96.176c2.275 55.252 3.216 76.702 2.822 64.35z" transform="translate(-538.000000, -240.000000) translate(538.000000, 240.000000)"/>
            </g>
        </g>
    </g>
</svg>
