<svg xmlns="http://www.w3.org/2000/svg" xmlns:xlink="http://www.w3.org/1999/xlink" width="360" height="360" viewBox="0 0 360 360">
    <defs>
        <path id="06v6efpiea" d="M0 21.53C4.887 7.961 32.254.802 82.102.053c49.847-.749 77.565 6.41 83.154 21.477l-2.94 92.216c-1.372 43.022-36.644 77.188-79.688 77.188-43.044 0-78.317-34.166-79.688-77.188L0 21.53z"/>
    </defs>
    <g fill="none" fill-rule="evenodd">
        <g>
            <g>
                <g>
                    <path fill="#324148" d="M3.97 283.237c0-24.741 15.192-43.999 4.52-49.997-10.67-5.998-15.34-31.667 10.92-78.096 10.529-18.614 3.307-28.058 12.11-49.74 8.803-21.681 10.893-17.79 22.598-33.896 12.475-17.165 20.414-32.264 43.642-39.16 23.228-6.898 21.972 0 34.948 0 4.628 0 8.606-5.244 18.878-5.244 29.138 0 61.742 41.777 71.754 55.88 4.402 9.345 8.467 22.026 11.779 41.924 4.453 26.76 16.072 41.889 16.072 50.985 0 9.096-6.265 25.39-7.893 34.226-3.484 18.911-3.484 18.911 0 34.742 3.484 15.83 17.018 41.376 2.08 91.374-1.2 4.018-4.72 9.28-10.556 15.788H19.41c-2.884-7.188-4.326-17.39-4.326-30.61 0-13.037-11.113-16.65-11.113-38.176z" transform="translate(-918.000000, -240.000000) translate(918.000000, 240.000000) translate(47.009427, 2.700000)"/>
                    <g>
                        <path fill="#FFB7A2" d="M61.767 236.24H175V336.235H61.767z" transform="translate(-918.000000, -240.000000) translate(918.000000, 240.000000) translate(47.009427, 2.700000) translate(14.490573, 0.000000)"/>
                        <g>
                            <g>
                                <path fill="#FFD8CD" d="M0 65.614c10.582 0 19.16 8.578 19.16 19.16V100.4c0 10.582-8.578 19.16-19.16 19.16V65.614z" transform="translate(-918.000000, -240.000000) translate(918.000000, 240.000000) translate(47.009427, 2.700000) translate(14.490573, 0.000000) translate(21.529247, 87.137750) translate(9.580042, 92.586506) scale(-1, 1) translate(-9.580042, -92.586506)"/>
                                <path fill="#FFB7A2" d="M174.836 65.614c10.582 0 19.16 8.578 19.16 19.16V100.4c0 10.582-8.578 19.16-19.16 19.16V65.614z" transform="translate(-918.000000, -240.000000) translate(918.000000, 240.000000) translate(47.009427, 2.700000) translate(14.490573, 0.000000) translate(21.529247, 87.137750)"/>
                                <g transform="translate(-918.000000, -240.000000) translate(918.000000, 240.000000) translate(47.009427, 2.700000) translate(14.490573, 0.000000) translate(21.529247, 87.137750) translate(14.060364, -0.000000)">
                                    <mask id="ikal5bvprb" fill="#fff">
                                        <use xlink:href="#06v6efpiea"/>
                                    </mask>
                                    <use fill="#FFD8CD" xlink:href="#06v6efpiea"/>
                                    <path fill="#FFB7A2" d="M165.256-6.559v197.493H83.425v-53.882l-19.697-9.137c-.13-.06-.258-.126-.384-.195l-.186-.108c-2.83-1.706-3.74-5.382-2.035-8.212 2.848-4.725 6.023-9.808 9.524-15.248 4.964-7.711 9.27-14.704 12.921-20.979l-.143.244V-6.559h81.83z" mask="url(#ikal5bvprb)"/>
                                </g>
                            </g>
                        </g>
                    </g>
                </g>
                <path fill="#324148" d="M181.103 95.353c23.985-2.186 49.764 14.986 58.397 31.71 10.827 20.975 22.845 36.345 45.135 45.948 8.139-3.721 4.005-27.999-12.4-72.833-22.791-23.173-53.317-34.76-91.577-34.76s-67.61 9.978-88.049 29.935c-15.182 87.668-15.182 127.377 0 119.127-1.773-21.773-1.66-26.2 9.58-32.056 44.307-23.08 25.839-65.765 47.744-82.246 9.32-7.011 28.234-4.557 31.17-4.825z" transform="translate(-918.000000, -240.000000) translate(918.000000, 240.000000)"/>
                <path stroke="#324148" stroke-width="3" d="M169.039 93.54c-7.722-2.214-23.475 5.177-26.692 16.395-3.217 11.219 1.22 42.882-31.949 43.253M274.073 114.712c6.032 15.704 11.626 26.217 16.782 31.539 7.733 7.981 18.891 28.304-3.692 40.156M59.606 228.073c-2.512 16.197-4.987 27.068-7.425 32.611-3.656 8.316-8.617 29.336 3.318 41.077" transform="translate(-918.000000, -240.000000) translate(918.000000, 240.000000)"/>
            </g>
        </g>
    </g>
</svg>
