<svg xmlns="http://www.w3.org/2000/svg" xmlns:xlink="http://www.w3.org/1999/xlink" width="360" height="360" viewBox="0 0 360 360">
    <defs>
        <path id="ad5yhhqs1a" d="M0 21.53C4.887 7.961 32.254.802 82.102.053c49.847-.749 77.565 6.41 83.154 21.477l-2.94 92.216c-1.372 43.022-36.644 77.188-79.688 77.188-43.044 0-78.317-34.166-79.688-77.188L0 21.53z"/>
    </defs>
    <g fill="none" fill-rule="evenodd">
        <g>
            <g>
                <path fill="#324148" d="M208.654 37.331c11.596 0 32.016 10.193 43.37 19.544 31.856 26.177 42.885 91.632 35.055 174.348-4.586 27.14-6.656 35.582-8.593 43.104l-.163.634c-.734 2.846-1.459 5.632-2.305 9.334-11.87 0-5.89.283-25.603.297h-2.897c-10.918-.005-28.55-.082-58.091-.297-47.082-.341-84.298 4.066-109.973 5.023l-6.477-37.938 3.596 38.032c-2.065.057-4.05.088-5.953.088-2.78-15.717-7.252-54.748-2.606-103.544 4.647-48.797 8.849-71.55 25.895-99.19 18.191-29.495 31.654-44.735 67.145-52.889 18.438-4.236 35.834-2.645 47.6 3.454z" transform="translate(-1298.000000, -240.000000) translate(1298.000000, 240.000000)"/>
                <g>
                    <path fill="#FFB7A2" d="M61.767 236.24H175V336.235H61.767z" transform="translate(-1298.000000, -240.000000) translate(1298.000000, 240.000000) translate(61.500000, 2.700000)"/>
                    <g>
                        <g>
                            <path fill="#FFD8CD" d="M0 65.614c10.582 0 19.16 8.578 19.16 19.16V100.4c0 10.582-8.578 19.16-19.16 19.16V65.614z" transform="translate(-1298.000000, -240.000000) translate(1298.000000, 240.000000) translate(61.500000, 2.700000) translate(21.529247, 87.137750) translate(9.580042, 92.586506) scale(-1, 1) translate(-9.580042, -92.586506)"/>
                            <path fill="#FFB7A2" d="M174.836 65.614c10.582 0 19.16 8.578 19.16 19.16V100.4c0 10.582-8.578 19.16-19.16 19.16V65.614z" transform="translate(-1298.000000, -240.000000) translate(1298.000000, 240.000000) translate(61.500000, 2.700000) translate(21.529247, 87.137750)"/>
                            <g transform="translate(-1298.000000, -240.000000) translate(1298.000000, 240.000000) translate(61.500000, 2.700000) translate(21.529247, 87.137750) translate(14.060364, -0.000000)">
                                <mask id="hhq2ucrvyb" fill="#fff">
                                    <use xlink:href="#ad5yhhqs1a"/>
                                </mask>
                                <use fill="#FFD8CD" xlink:href="#ad5yhhqs1a"/>
                                <path fill="#FFB7A2" d="M165.256-6.559v197.493H83.425v-53.882l-19.697-9.137c-.13-.06-.258-.126-.384-.195l-.186-.108c-2.83-1.706-3.74-5.382-2.035-8.212 2.848-4.725 6.023-9.808 9.524-15.248 4.964-7.711 9.27-14.704 12.921-20.979l-.143.244V-6.559h81.83z" mask="url(#hhq2ucrvyb)"/>
                            </g>
                        </g>
                    </g>
                </g>
                <path fill="#324148" d="M76.142 226.956c16.334-11.395 21.037-52.644 57.773-82.405 24.491-19.84 47.006-38.078 67.545-54.713 32.502 20.05 52.437 41.922 59.805 65.614l3.578-66.816H96.176C64.58 174.893 57.902 221 76.142 226.956z" transform="translate(-1298.000000, -240.000000) translate(1298.000000, 240.000000)"/>
            </g>
        </g>
    </g>
</svg>
