<svg xmlns="http://www.w3.org/2000/svg" xmlns:xlink="http://www.w3.org/1999/xlink" width="360" height="360" viewBox="0 0 360 360">
    <defs>
        <path id="dlbaigz1ma" d="M0 29.193C4.887 10.507 32.254.789 82.102.04c49.847-.749 77.565 8.969 83.154 29.153l-2.94 92.216c-1.372 43.022-36.644 77.188-79.688 77.188-43.044 0-78.317-34.166-79.688-77.188L0 29.193z"/>
    </defs>
    <g fill="none" fill-rule="evenodd">
        <g>
            <g>
                <g fill="#324148">
                    <path d="M6.106 309.654c-6.106-22.229 4.03-47.945 3.491-85.617C9.057 186.365 0 170.862 0 151.235 0 118.197.431 82.063 18.3 54.4 37.366 24.88 49.981 10.54 87.182 2.38c19.327-4.24 37.56-2.649 49.893 3.456 12.156 0 33.56 10.2 45.46 19.56C215.928 51.594 217.5 118.789 217.5 149.19c0 30.402-9.255 49.121-9.255 74.847 0 25.726 9.255 38.14 9.255 85.617-19.141 0-3.812.807-100.578.137-55.338-.383-83.96-.137-110.816-.137z" transform="translate(-1678.000000, -240.000000) translate(1678.000000, 240.000000) translate(71.932040, 29.230386)"/>
                </g>
                <path fill="#324148" d="M97.09 149.302h168.52l6.625-52.22c-42.555-21.107-72.865-31.596-90.93-31.469-18.065.127-47.63 12.763-88.696 37.906l4.48 45.783z" transform="translate(-1678.000000, -240.000000) translate(1678.000000, 240.000000)"/>
                <g>
                    <path fill="#FFB7A2" d="M61.767 236.24H175V336.235H61.767z" transform="translate(-1678.000000, -240.000000) translate(1678.000000, 240.000000) translate(61.500000, 2.700000)"/>
                    <g>
                        <g>
                            <path fill="#FFD8CD" d="M0 73.277c10.582 0 19.16 8.578 19.16 19.16v15.625c0 10.582-8.578 19.16-19.16 19.16V73.277z" transform="translate(-1678.000000, -240.000000) translate(1678.000000, 240.000000) translate(61.500000, 2.700000) translate(21.529247, 79.474992) translate(9.580042, 100.249263) scale(-1, 1) translate(-9.580042, -100.249263)"/>
                            <path fill="#FFB7A2" d="M174.836 73.277c10.582 0 19.16 8.578 19.16 19.16v15.625c0 10.582-8.578 19.16-19.16 19.16V73.277z" transform="translate(-1678.000000, -240.000000) translate(1678.000000, 240.000000) translate(61.500000, 2.700000) translate(21.529247, 79.474992)"/>
                            <g transform="translate(-1678.000000, -240.000000) translate(1678.000000, 240.000000) translate(61.500000, 2.700000) translate(21.529247, 79.474992) translate(14.060364, 0.000000)">
                                <mask id="badjaqx6ob" fill="#fff">
                                    <use xlink:href="#dlbaigz1ma"/>
                                </mask>
                                <use fill="#FFD8CD" xlink:href="#dlbaigz1ma"/>
                                <path fill="#FFB7A2" d="M165.256 1.104v197.493H83.425v-53.882l-19.697-9.137c-.13-.06-.258-.126-.384-.196l-.186-.108c-2.83-1.705-3.74-5.381-2.035-8.21 2.848-4.726 6.023-9.809 9.524-15.25 4.964-7.71 9.27-14.704 12.921-20.978l-.143.244V1.104h81.83z" mask="url(#badjaqx6ob)"/>
                            </g>
                        </g>
                        <path fill="#324148" d="M152.057 92.575c21.467 26.306 33.667 43.01 36.598 50.11.412.999 12.19 23.204 9.606 46.441 1.261.045 2.366.045 2.584 0 2.28-17.98 2.28-33.46 0-46.44l9.89-50.111c-41.581-15.593-71.77-23.39-90.565-23.39-18.796 0-46.99 7.797-84.58 23.39-3.035 29.704-3.917 46.813-2.646 51.329.505 1.793-4.27 24.214 0 45.222 0 0 2.332-.035 2.646 0 1.71-42.524 7.713-39.764 7.713-39.764s54.897 2.905 68.735-10.783c9.225-9.125 15.538-19.943 18.938-32.454-2.795 13.548-7.048 26.14-12.759 37.779 4.052 3.639 15.332-13.47 33.84-51.33z" transform="translate(-1678.000000, -240.000000) translate(1678.000000, 240.000000) translate(61.500000, 2.700000)"/>
                    </g>
                </g>
            </g>
        </g>
    </g>
</svg>
