<svg xmlns="http://www.w3.org/2000/svg" xmlns:xlink="http://www.w3.org/1999/xlink" width="360" height="360" viewBox="0 0 360 360">
    <defs>
        <path id="4757wow7ba" d="M0 21.503C4.878 7.951 32.197.801 81.955.053c49.76-.748 77.428 6.402 83.006 21.45l-2.936 92.145c-1.368 42.945-36.578 77.05-79.544 77.05-42.967 0-78.177-34.105-79.545-77.05L0 21.503z"/>
        <path id="cfb7bp7hac" d="M14.323 166.872l4.355-54.357c19.394-9.266 45.043-13.9 76.946-13.9s56.46 4.634 73.67 13.9l4.08 56.36c10.847-46.407 16.28-69.827 16.3-70.26 0-9.849-3.645-19.778-13.207-38.024-6.376-12.164-21.037-30.377-43.985-54.64l-2.635 6.443L120.17 0 88.883 15.534V8.018C49.69 29.451 24.695 46.975 13.896 60.591 3.098 74.208-1.407 86.883.381 98.616l13.942 68.256z"/>
    </defs>
    <g fill="none" fill-rule="evenodd">
        <g>
            <g>
                <path fill="#FFB7A2" d="M123.031 238.828H236.131V338.7H123.031z" transform="translate(-2818.000000, -240.000000) translate(2818.000000, 240.000000)"/>
                <g>
                    <g>
                        <path fill="#FFD8CD" d="M0 65.533c10.563 0 19.126 8.563 19.126 19.126v15.626c0 10.563-8.563 19.126-19.126 19.126V65.533z" transform="translate(-2818.000000, -240.000000) translate(2818.000000, 240.000000) translate(82.500000, 8.700000) translate(0.000000, 81.419369) translate(9.562963, 92.472169) scale(-1, 1) translate(-9.562963, -92.472169)"/>
                        <path fill="#FFB7A2" d="M174.524 65.533c10.563 0 19.126 8.563 19.126 19.126v15.626c0 10.563-8.563 19.126-19.126 19.126V65.533z" transform="translate(-2818.000000, -240.000000) translate(2818.000000, 240.000000) translate(82.500000, 8.700000) translate(0.000000, 81.419369)"/>
                        <g transform="translate(-2818.000000, -240.000000) translate(2818.000000, 240.000000) translate(82.500000, 8.700000) translate(0.000000, 81.419369) translate(14.035297, -0.000000)">
                            <mask id="5g0dbt0k2b" fill="#fff">
                                <use xlink:href="#4757wow7ba"/>
                            </mask>
                            <use fill="#FFD8CD" xlink:href="#4757wow7ba"/>
                            <path fill="#FFB7A2" d="M164.961-6.55v197.248H83.276v-53.815l-19.654-9.123c-.13-.06-.257-.125-.382-.194l-.186-.108c-2.83-1.704-3.742-5.38-2.037-8.21 2.842-4.718 6.01-9.793 9.504-15.225 4.955-7.701 9.254-14.686 12.898-20.952l-.143.245V-6.55h81.685z" mask="url(#5g0dbt0k2b)"/>
                        </g>
                    </g>
                    <g transform="translate(-2818.000000, -240.000000) translate(2818.000000, 240.000000) translate(82.500000, 8.700000) translate(2.839051, 0.000000)">
                        <use fill="#324148" xlink:href="#cfb7bp7hac"/>
                    </g>
                </g>
            </g>
        </g>
    </g>
</svg>
