<svg xmlns="http://www.w3.org/2000/svg" width="32" height="32" viewBox="0 0 32 32">
    <g fill="none" fill-rule="evenodd">
        <g fill="#FFF" fill-rule="nonzero">
            <path d="M4.87 3.866c.083 0 .166.01.246.031l9.592 2.435V27.66L4.624 25.1c-.444-.113-.754-.512-.754-.97V4.867c0-.552.448-1 1-1zm22.97.754c.02.08.03.163.03.246v19.265c0 .457-.31.856-.754.969l-10.085 2.56V6.332l9.593-2.435c.535-.136 1.08.188 1.215.723zm-2.583 3.486l-.078.014-5.04 1.377c-.164.045-.285.178-.316.34l-.008.083v2.054c0 .04.005.078.016.116.056.207.253.339.46.32l.078-.013 5.041-1.377c.164-.044.284-.178.315-.34l.008-.083V8.543c0-.039-.005-.078-.015-.115-.05-.182-.207-.306-.384-.322h-.077z"/>
        </g>
    </g>
</svg>
