<svg xmlns="http://www.w3.org/2000/svg" xmlns:xlink="http://www.w3.org/1999/xlink" width="32" height="32" viewBox="0 0 32 32">
    <defs>
        <path id="pv3jggq4ta" d="M0 0L28 0 28 26.667 0 26.667z"/>
    </defs>
    <g fill="none" fill-rule="evenodd">
        <g>
            <g transform="translate(2 2.665)">
                <mask id="yx6mu0wpmb" fill="#fff">
                    <use xlink:href="#pv3jggq4ta"/>
                </mask>
                <path fill="#FFF" d="M9.406.176l-.402-.15c-.1-.038-.213-.027-.304.03l-.928.582L7.6.746c-.2.124-.21.406-.02.545l3.96 2.894c.12.088.287.088.407-.001l1.122-.83c.084-.062.133-.16.134-.263l.008-1.185h.007v-.077c0-.137-.087-.26-.218-.31L9.406.176zM20.31.63l-.923-.578C19.336.02 19.277 0 19.216 0h-.011c-.036 0-.072.009-.106.021l-.406.152-3.586 1.34c-.132.05-.218.174-.218.311l.002 1.267c0 .104.05.201.134.264l1.12.829c.12.089.286.09.407.001l3.96-2.895c.19-.138.18-.42-.02-.545L20.31.631zm-6.086 10.58c-.842.081-1.543-.605-1.459-1.428.062-.609.565-1.101 1.187-1.162.841-.082 1.542.604 1.46 1.428-.062.61-.566 1.102-1.188 1.162zm0 4.197c-.842.08-1.543-.605-1.459-1.428.062-.61.565-1.102 1.187-1.162.841-.082 1.542.603 1.46 1.427-.062.61-.566 1.103-1.188 1.163zm0 4.196c-.842.081-1.543-.605-1.459-1.428.062-.609.565-1.101 1.187-1.162.841-.082 1.542.604 1.46 1.428-.062.61-.566 1.102-1.188 1.162zM27.252 5.912c0-.25-.124-.485-.335-.634l-4.469-3.172c-.12-.085-.283-.084-.402.003l-5.501 4.02c-.121.089-.287.088-.407 0L14.25 4.73c-.121-.09-.288-.09-.41 0l-1.886 1.397c-.12.09-.286.09-.407.001L6 2.075c-.12-.086-.282-.088-.402-.002L1.083 5.278c-.211.149-.335.384-.335.634L0 14.37c0 .436.37.79.826.79h3.465c.456 0 .825.353.825.79v9.927c0 .436.37.79.826.79h16.116c.455 0 .826-.354.826-.79V15.95c0-.437.37-.79.825-.79h3.465c.456 0 .826-.354.826-.79l-.748-8.457z" mask="url(#yx6mu0wpmb)"/>
            </g>
        </g>
    </g>
</svg>
