<svg xmlns="http://www.w3.org/2000/svg" xmlns:xlink="http://www.w3.org/1999/xlink" width="32" height="32" viewBox="0 0 32 32">
    <defs>
        <path id="xta3ijl1ma" d="M0 0L26.942 0 26.942 19.414 0 19.414z"/>
    </defs>
    <g fill="none" fill-rule="evenodd">
        <g>
            <g transform="translate(2.5 2.7) translate(0 7.103)">
                <mask id="5w92ghgm4b" fill="#fff">
                    <use xlink:href="#xta3ijl1ma"/>
                </mask>
                <path fill="#FFF" d="M13.471 7.428c-2.12 0-3.846-1.725-3.846-3.846 0-.315.255-.57.57-.57.314 0 .57.255.57.57 0 1.492 1.214 2.706 2.706 2.706 1.493 0 2.707-1.214 2.707-2.706 0-.315.255-.57.57-.57.315 0 .57.255.57.57 0 2.12-1.726 3.846-3.847 3.846zm12.466-4.702c0-1.5-1.227-2.726-2.726-2.726H3.731c-1.5 0-2.726 1.227-2.726 2.726L0 16.687c0 1.5 1.227 2.727 2.726 2.727h21.49c1.5 0 2.726-1.227 2.726-2.727L25.937 2.726z" mask="url(#5w92ghgm4b)"/>
            </g>
            <path fill="#FFF" d="M18.397 5.34c-.306.208-.653.307-.997.307-.571 0-1.132-.273-1.476-.782-.553-.816-1.47-1.303-2.453-1.303-.983 0-1.9.487-2.453 1.303-.551.814-1.658 1.028-2.473.476S7.517 3.68 8.07 2.867C9.285 1.072 11.304 0 13.471 0c2.167 0 4.186 1.072 5.402 2.867.552.815.339 1.922-.476 2.474" transform="translate(2.5 2.7)"/>
        </g>
    </g>
</svg>
