<svg xmlns="http://www.w3.org/2000/svg" width="32" height="32" viewBox="0 0 32 32">
    <g fill="none" fill-rule="evenodd">
        <g fill="#FFF" fill-rule="nonzero">
            <path d="M19.188 4.635c6.075 0 11 4.925 11 11s-4.925 11-11 11H13c-6.075 0-11-4.925-11-11s4.925-11 11-11h6.188zm-7.322 6.875H8.342v2.75H5.522v3.438l2.818-.001.001 2.75h3.524v-2.75h2.818V14.26h-2.819v-2.75zm10.922 6.309c-.744 0-1.347.588-1.347 1.314 0 .726.603 1.315 1.347 1.315s1.347-.589 1.347-1.315-.603-1.314-1.347-1.314zm-3.233-3.155c-.744 0-1.347.589-1.347 1.315s.603 1.314 1.347 1.314 1.347-.588 1.347-1.314c0-.726-.603-1.315-1.347-1.315zm6.467 0c-.744 0-1.348.589-1.348 1.315s.604 1.314 1.348 1.314c.744 0 1.347-.588 1.347-1.314 0-.726-.603-1.315-1.347-1.315zm-3.234-3.154c-.744 0-1.347.588-1.347 1.314 0 .726.603 1.315 1.347 1.315s1.347-.589 1.347-1.315-.603-1.314-1.347-1.314z"/>
        </g>
    </g>
</svg>
