<svg xmlns="http://www.w3.org/2000/svg" width="32" height="32" viewBox="0 0 32 32">
    <g fill="none" fill-rule="evenodd">
        <g fill="#FFF" fill-rule="nonzero">
            <path d="M16 2.5c7.456 0 13.5 6.044 13.5 13.5S23.456 29.5 16 29.5 2.5 23.456 2.5 16 8.544 2.5 16 2.5zm0 9.45c-2.237 0-4.05 1.813-4.05 4.05s1.813 4.05 4.05 4.05 4.05-1.813 4.05-4.05-1.813-4.05-4.05-4.05zm-8.286 2.414l-2.631.607.303 1.315 2.631-.607-.303-1.315zm20.065-.863l-2.485 1.055.527 1.243 2.485-1.055-.527-1.243zm-4.5-3.053l-.968 2.52 1.26.484.968-2.52-1.26-.484zM6.46 9.974l-.735 1.132 2.265 1.47.735-1.132-2.265-1.47zm6.469-.523l-2.485 1.055.527 1.243 2.485-1.055-.527-1.243zm7.521-1.26l-2.568.834.418 1.284 2.568-.834-.418-1.284zm-9.865-2.475L9.402 8.142l1.213.592 1.183-2.426-1.213-.592zm11.038.069l-.971.938 1.875 1.942.971-.938-1.875-1.942zm-6.125-1.41l-1.269.462.923 2.537 1.269-.461-.923-2.537z"/>
        </g>
    </g>
</svg>
