<svg xmlns="http://www.w3.org/2000/svg" xmlns:xlink="http://www.w3.org/1999/xlink" width="32" height="32" viewBox="0 0 32 32">
    <defs>
        <path id="g4l37t7txa" d="M0 0L26.941 0 26.941 20.998 0 20.998z"/>
    </defs>
    <g fill="none" fill-rule="evenodd">
        <g>
            <g>
                <path fill="#107778" d="M13.47 24.138h-.518v-.055c.17.036.343.055.519.055" transform="translate(2.5 1.73)"/>
                <path fill="#FFF" d="M19.78 2.043l-1.892 2.431c-.705.793-1.357 1.493-2.487 1.493H11.54c-1.13 0-1.726-.65-2.487-1.493L7.16 2.043C6.475 1.162 7.236 0 8.5 0h9.941c1.264 0 2.025 1.162 1.34 2.043" transform="translate(2.5 1.73)"/>
                <path fill="#107778" d="M12.952 24.083v.055h.519c-.176 0-.349-.019-.519-.055" transform="translate(2.5 1.73)"/>
                <g transform="translate(2.5 1.73) translate(0 7.536)">
                    <mask id="oyzj8nkqzb" fill="#fff">
                        <use xlink:href="#g4l37t7txa"/>
                    </mask>
                    <path fill="#FFF" d="M14.201 16.498v-1.572c.753-.235 1.196-.847 1.196-1.67 0-1.003-.82-1.392-1.418-1.677-.28-.132-.598-.283-.598-.413s0-.232.313-.232c.232 0 .42.089.672.317l.176.158.88-1.02-.138-.151c-.317-.345-.673-.564-1.083-.665V8.197c1.979.346 3.482 2.073 3.482 4.15 0 2.078-1.503 3.805-3.482 4.15m-.776-2.894c-.29 0-.58-.122-.94-.396l-.198-.152-.768 1.181.146.132c.375.34.878.535 1.287.617v1.544c.17.021.343.032.519.032h-.519v-.032c-2.083-.255-3.695-2.03-3.695-4.182 0-2.151 1.612-3.926 3.695-4.181v1.43c-.735.22-1.168.815-1.168 1.624 0 .934.787 1.335 1.363 1.628.317.161.645.328.645.495 0 .128 0 .26-.367.26m12.988-3.827l-5.704-7.33C19.491.904 18.485 0 16.634 0h-6.327C8.456 0 7.288 1.03 6.232 2.445L.528 9.776c-2.2 5.527 2.754 11.222 9.762 11.222h6.36c7.008 0 11.963-5.695 9.763-11.222" mask="url(#oyzj8nkqzb)"/>
                </g>
            </g>
        </g>
    </g>
</svg>
