<?xml version="1.0" encoding="utf-8"?>
<!-- Generator: Adobe Illustrator 25.2.1, SVG Export Plug-In . SVG Version: 6.00 Build 0)  -->
<svg version="1.1" id="圖層_1" xmlns="http://www.w3.org/2000/svg" xmlns:xlink="http://www.w3.org/1999/xlink" x="0px" y="0px"
	 viewBox="0 0 32 32" style="enable-background:new 0 0 32 32;" xml:space="preserve">
<style type="text/css">
	.st0{fill:#FFFFFF;}
</style>
<g>
	<path class="st0" d="M3.5,14.8c0.5-0.2,0.7-0.8,0.5-1.2C3.7,13,3.2,12.8,2.7,13c-1.3,0.6-2.1,1.9-2.1,3.5c0,1.5,0.8,2.8,2,3.4
		C2.7,20,2.9,20.1,3,20.1c0.3,0,0.7-0.2,0.8-0.5c0.2-0.5,0-1-0.4-1.3c-0.6-0.3-1-1-1-1.8C2.4,15.7,2.9,15,3.5,14.8z"/>
	<path class="st0" d="M29.3,13c-0.5-0.2-1,0-1.2,0.5c-0.2,0.5,0,1,0.5,1.2c0.6,0.3,1,1,1,1.8c0,0.8-0.4,1.5-1,1.8
		c-0.5,0.2-0.7,0.8-0.4,1.3c0.2,0.3,0.5,0.5,0.8,0.5c0.1,0,0.3,0,0.4-0.1c1.2-0.6,2-2,2-3.4C31.4,15,30.6,13.6,29.3,13z"/>
	<path class="st0" d="M26.2,7.1C22.8,6,19.4,5.5,16,5.5C12.6,5.5,9.2,6,5.8,7.1C5,7.4,4.4,8.1,4.4,9v0.7C8.3,8.4,12.1,7.8,16,7.8
		c3.9,0,7.7,0.6,11.6,1.9V9C27.6,8.1,27,7.4,26.2,7.1z"/>
	<path class="st0" d="M4.4,10.8V22c0,1.3,0.8,2.5,2,2.9c2.9,1.1,6.1,1.6,9.6,1.6c3.5,0,6.7-0.5,9.5-1.6c1.2-0.5,2-1.6,2-2.9V10.8
		C23.7,9.5,19.9,8.9,16,8.9C12.2,8.9,8.3,9.5,4.4,10.8z M23.9,21.3H8.1c-0.3,0-0.5-0.2-0.5-0.5c0-0.3,0.2-0.5,0.5-0.5h15.8
		c0.3,0,0.5,0.2,0.5,0.5S24.2,21.3,23.9,21.3z M23.9,17.6H8.1c-0.3,0-0.5-0.2-0.5-0.5s0.2-0.5,0.5-0.5h15.8c0.3,0,0.5,0.2,0.5,0.5
		C24.4,17.4,24.2,17.6,23.9,17.6z M24.4,13.4c0,0.3-0.2,0.5-0.5,0.5H8.1c-0.3,0-0.5-0.2-0.5-0.5c0-0.3,0.2-0.5,0.5-0.5h15.8
		C24.2,12.8,24.4,13.1,24.4,13.4z"/>
</g>
</svg>
