<svg xmlns="http://www.w3.org/2000/svg" xmlns:xlink="http://www.w3.org/1999/xlink" width="32" height="32" viewBox="0 0 32 32">
    <defs>
        <path id="gzgpwx880a" d="M0 0L29.936 0 29.936 22.362 0 22.362z"/>
    </defs>
    <g fill="none" fill-rule="evenodd">
        <g transform="translate(1 4.785)">
            <mask id="za6ccvy4bb" fill="#fff">
                <use xlink:href="#gzgpwx880a"/>
            </mask>
            <path fill="#FFF" d="M20.219 15.351c-1.556 0-2.817-1.261-2.817-2.817 0-1.556 1.26-2.817 2.817-2.817 1.555 0 2.817 1.261 2.817 2.817 0 1.556-1.262 2.817-2.817 2.817m-6.33-4.536c-1.4 0-2.536-1.135-2.536-2.535 0-1.4 1.135-2.536 2.536-2.536 1.4 0 2.534 1.135 2.534 2.536 0 1.4-1.135 2.535-2.534 2.535m.632 4.536c-.844 0-1.528-.684-1.528-1.528s.684-1.528 1.528-1.528 1.529.684 1.529 1.528-.685 1.528-1.529 1.528m-5.301 0c-1.194 0-2.162-.968-2.162-2.16 0-1.194.968-2.162 2.162-2.162 1.193 0 2.161.968 2.161 2.161s-.968 2.161-2.161 2.161M22.74 0H7.196C3.237 0 0 3.237 0 7.195v7.972c0 3.958 3.237 7.195 7.195 7.195h15.546c3.957 0 7.195-3.237 7.195-7.195V7.195C29.936 3.237 26.698 0 22.74 0" mask="url(#za6ccvy4bb)"/>
        </g>
    </g>
</svg>
