<svg xmlns="http://www.w3.org/2000/svg" width="32" height="32" viewBox="0 0 32 32">
    <defs>
        <filter id="oz3gouuhga">
            <feColorMatrix in="SourceGraphic" values="0 0 0 0 1.000000 0 0 0 0 1.000000 0 0 0 0 1.000000 0 0 0 1.000000 0"/>
        </filter>
    </defs>
    <g fill="none" fill-rule="evenodd">
        <g filter="url(#oz3gouuhga)">
            <path d="M0 0H32V32H0z"/>
            <g>
                <path fill="#107778" d="M1.5.786c.828 0 1.5.671 1.5 1.5v3.5H0v-3.5c0-.829.672-1.5 1.5-1.5z" transform="translate(3.8 3)"/>
                <g>
                    <path fill="#107778" d="M21.154 0c1.062 0 1.923.861 1.923 1.923V26.5c0 .106-.086.192-.192.192-.055 0-.107-.023-.143-.064l-1.92-2.129c-.178-.197-.482-.213-.68-.035-.01.01-.021.02-.031.032l-1.95 2.119c-.18.195-.484.208-.679.028l-.029-.029-1.945-2.12c-.18-.196-.483-.21-.68-.03l-.028.03-1.944 2.118c-.18.196-.484.21-.68.03l-.03-.03-1.926-2.115c-.18-.197-.483-.21-.68-.032l-.03.031-1.933 2.116c-.18.196-.483.21-.68.03l-.03-.03-1.94-2.118c-.179-.196-.483-.209-.679-.03l-.03.03-1.96 2.141c-.073.079-.194.084-.273.012-.04-.036-.062-.088-.062-.142V1.974C1.923.658 1.283 0 0 0h21.154zm-6.73 18.08H5.768c-.53 0-.961.43-.961.962 0 .536.43.967.961.967h8.654c.531 0 .962-.43.962-.962 0-.536-.43-.967-.962-.967zm4.807-3.857H5.769c-.53 0-.961.43-.961.962 0 .536.43.967.961.967h13.462c.53 0 .961-.43.961-.962 0-.536-.43-.967-.961-.967zM8.18 2.893C6.28 3.128 4.808 4.766 4.808 6.75c0 1.984 1.472 3.622 3.373 3.857V9.183c-.373-.076-.833-.255-1.175-.57l-.134-.121.701-1.09.181.14c.328.253.593.366.859.366.336 0 .336-.122.336-.24 0-.154-.301-.307-.59-.456-.526-.27-1.245-.64-1.245-1.502 0-.746.396-1.295 1.067-1.499zm1.14.029v1.269c.374.093.7.295.988.613l.127.14-.804.94-.16-.145c-.23-.21-.402-.293-.614-.293-.285 0-.285.095-.285.215s.29.258.545.38c.546.263 1.295.621 1.295 1.547 0 .76-.404 1.324-1.092 1.54v1.45c1.806-.319 3.179-1.912 3.179-3.828s-1.373-3.51-3.179-3.828z" transform="translate(3.8 3) translate(2.123)"/>
                </g>
            </g>
        </g>
    </g>
</svg>
