<svg xmlns="http://www.w3.org/2000/svg" width="32" height="32" viewBox="0 0 32 32">
    <g fill="none" fill-rule="evenodd">
        <g fill="#FFF">
            <path d="M12.509 18.81c-.058.326-.33.574-.656.574H3.378c-.326 0-.598-.248-.656-.575-.008-.043-.011-.086-.011-.13 0-.057.006-.112.018-.164.07-.31.334-.542.65-.542h8.474c.315 0 .579.231.649.542.012.052.018.107.018.164 0 .044-.004.087-.011.13m-9.78-2.712c.07-.31.334-.541.65-.541h5.464c.315 0 .58.23.649.541.012.053.019.108.019.164 0 .044-.005.088-.012.13-.058.328-.329.576-.656.576H3.378c-.326 0-.598-.248-.656-.575-.008-.043-.011-.087-.011-.131 0-.056.006-.111.018-.164M0 12.188V22.59C0 23.37.598 24 1.335 24h21.33c.738 0 1.335-.631 1.335-1.41V12.188c0-.493-.379-.894-.847-.894H.847c-.468 0-.847.4-.847.894M11.294 2.33v6.633c0 .507-.424.92-.947.92H.412c-.31 0-.509-.321-.363-.587l4.05-7.397c.164-.3.486-.487.836-.487h5.412c.523 0 .947.411.947.919M22.54 9.293c.16.297-.1.644-.434.582l-8.638-1.6c-.441-.081-.762-.462-.762-.906V.923c0-.632.63-1.077 1.237-.873l4.062 1.362c.225.076.413.233.524.44l4.01 7.441z" transform="translate(4.5 4)"/>
        </g>
    </g>
</svg>
