<svg xmlns="http://www.w3.org/2000/svg" xmlns:xlink="http://www.w3.org/1999/xlink" width="32" height="32" viewBox="0 0 32 32">
    <defs>
        <path id="8bmrp8vdja" d="M0 0H22V8H0z"/>
    </defs>
    <g fill="none" fill-rule="evenodd">
        <g>
            <path fill="#FFF" fill-rule="nonzero" d="M21.285 15.78c.481 0 .816.151.868.385l.008.065v9.1c0 .247-.295.42-.749.446l-.127.004H2.715c-.481 0-.816-.151-.868-.385l-.008-.065v-9.1c0-.247.295-.42.749-.446l.127-.004h7.975v9.994h2.629l-.001-9.995 7.967.001zM10.69 8v6H1.263C.566 14 0 13.435 0 12.737V9.263C0 8.566.566 8 1.263 8h9.427zm12.047 0C23.434 8 24 8.566 24 9.263v3.474c0 .698-.566 1.263-1.263 1.263h-9.419V8h9.419z" transform="translate(4 3.22)"/>
            <g transform="translate(4 3.22) translate(1.4)">
                <mask id="vyvb35l4yb" fill="#fff">
                    <use xlink:href="#8bmrp8vdja"/>
                </mask>
                <g fill-rule="nonzero" stroke="#FFF" stroke-width="2.526" mask="url(#vyvb35l4yb)">
                    <g>
                        <path d="M.91-1.263C2.181-1.123 3.667.6 4.572 2.444c.282.575.52 1.188.697 1.788-.593.077-1.257.09-1.95.026-.974-.092-1.865-.327-2.564-.64-.985-.44-1.599-1.063-1.844-1.646-.12-.313-.279-.774-.092-1.43.088-.312.265-.694.655-1.128C.153-1.23.622-1.263.91-1.263zM12.303-1.263C11.03-1.123 9.543.6 8.639 2.444c-.283.575-.521 1.188-.697 1.788.593.077 1.257.09 1.949.026.975-.092 1.866-.327 2.565-.64.985-.44 1.599-1.063 1.844-1.646.119-.313.279-.774.092-1.43-.088-.312-.265-.694-.655-1.128-.679-.644-1.147-.677-1.434-.677z" transform="translate(4 3)"/>
                    </g>
                </g>
            </g>
        </g>
    </g>
</svg>
