<svg xmlns="http://www.w3.org/2000/svg" xmlns:xlink="http://www.w3.org/1999/xlink" width="32" height="32" viewBox="0 0 32 32">
    <defs>
        <path id="efe8d2thga" d="M0.092 0.25L0.342 0.25 0.342 0.382 0.092 0.382z"/>
        <path id="028m0vjjkc" d="M0.038 0.25L0.408 0.25 0.408 0.438 0.038 0.438z"/>
        <path id="3aek4echae" d="M0.038 0.25L0.408 0.25 0.408 0.437 0.038 0.437z"/>
        <path id="ujh432fmlg" d="M0.075 0.25L0.39 0.25 0.39 0.39 0.075 0.39z"/>
    </defs>
    <g fill="none" fill-rule="evenodd">
        <g>
            <g>
                <path fill="#C082E8" d="M6.992 9.516c-.135-.095-.255-.203-.378-.31l.486.418c-.04-.027-.068-.068-.108-.108m0 0c-.135-.095-.255-.203-.378-.31l.486.418c-.04-.027-.068-.068-.108-.108m0 0c-.135-.095-.255-.203-.378-.31l.486.418c-.04-.027-.068-.068-.108-.108" transform="translate(2.5 3.69)"/>
                <path fill="#FFF" d="M17.533 22.484c-1.567 0-2.838-1.271-2.838-2.838 0-1.568 1.271-2.839 2.838-2.839 1.568 0 2.838 1.27 2.838 2.839 0 1.567-1.27 2.838-2.838 2.838m-4.302 0c-.642 0-1.163-.52-1.163-1.162 0-.643.521-1.163 1.163-1.163s1.162.52 1.162 1.163c0 .641-.52 1.162-1.162 1.162m-4.171.218c-1.178 0-2.133-.955-2.133-2.132 0-1.178.955-2.132 2.133-2.132s2.132.954 2.132 2.132c0 1.177-.954 2.132-2.132 2.132m15.478-15.6h-2.104c-.63 0-1.16.48-1.221 1.107-.061.623-.342 1.225-.834 1.675l-.046.04c-.469.39-1.061.603-1.673.603-.553 0-1.081-.169-1.528-.489l-.091-.065-.007-.008c-.125-.098-.243-.21-.35-.333l-1.838-2.108c-.233-.267-.57-.421-.926-.421h-1.44c-.354 0-.692.154-.925.421L9.716 9.632c-.107.123-.224.235-.35.333l-.007.008-.09.065c-.447.32-.976.49-1.528.49-.612 0-1.204-.215-1.672-.604h-.001l-.046-.04c-.492-.45-.773-1.052-.834-1.675-.061-.628-.59-1.106-1.222-1.106H2.46C1.107 7.103 0 8.21 0 9.563L2.307 22.16c0 1.353 1.107 2.46 2.46 2.46h17.464c1.353 0 2.46-1.107 2.46-2.46l2.307-12.599c0-1.352-1.107-2.46-2.46-2.46" transform="translate(2.5 3.69)"/>
                <path fill="#107778" d="M12.17.492l-.01.011-.007.004.004-.004.014-.01" transform="translate(2.5 3.69)"/>
                <g transform="translate(2.5 3.69) translate(13.179)">
                    <mask id="njfg5nn7nb" fill="#fff">
                        <use xlink:href="#efe8d2thga"/>
                    </mask>
                    <path fill="#107778" d="M.342.263h-.03C.302.263.295.26.285.26.265.257.247.257.227.26.22.257.212.257.205.257.167.255.13.255.092.255.118.252.14.252.165.252c.032 0 .062.003.095.003.01 0 .017 0 .027.002H.31c.01 0 .022.003.032.006" mask="url(#njfg5nn7nb)"/>
                </g>
                <g transform="translate(2.5 3.69) translate(13.307)">
                    <mask id="63eclzk72d" fill="#fff">
                        <use xlink:href="#028m0vjjkc"/>
                    </mask>
                    <path fill="#107778" d="M.408.348C.285.318.162.295.038.278c.124.014.249.037.37.07" mask="url(#63eclzk72d)"/>
                </g>
                <path fill="#107778" d="M14.348.532l-.038-.03L14.3.49l.048.042M6.685 9.273l-.049-.042.038.03.01.012M12.17.492l-.01.011-.007.004.004-.004.014-.01" transform="translate(2.5 3.69)"/>
                <g transform="translate(2.5 3.69) translate(12.921)">
                    <mask id="25tg6syvrf" fill="#fff">
                        <use xlink:href="#3aek4echae"/>
                    </mask>
                    <path fill="#107778" d="M.408.277c-.123.018-.246.04-.37.07C.16.315.285.292.408.277" mask="url(#25tg6syvrf)"/>
                </g>
                <g transform="translate(2.5 3.69) translate(13.05)">
                    <mask id="7jfmjh1z9h" fill="#fff">
                        <use xlink:href="#ujh432fmlg"/>
                    </mask>
                    <path fill="#107778" d="M.39.255c-.012 0-.022 0-.033.003H.343C.332.258.32.258.308.26.278.26.247.263.217.265.168.268.122.272.075.278.132.27.187.262.242.258h.013C.262.255.268.255.273.255.295.255.315.252.337.252c.018 0 .035 0 .053.003" mask="url(#7jfmjh1z9h)"/>
                </g>
                <path fill="#107778" d="M14.348.532l-.038-.03L14.3.49l.048.042M13.27.07l-.027-.002c-.012-.002-.024-.002-.037-.002h-.002c-.006 0-.01 0-.016.002.045 0 .09.008.137.017-.026-.007-.05-.01-.075-.015.007-.002.013-.002.02 0m.235.076c-.059-.029-.12-.048-.18-.061.06.015.12.034.18.06m1.059 1.264l-.014-.017c.004.004.008.01.011.017l.007.007-.004-.007" transform="translate(2.5 3.69)"/>
                <path fill="#FFF" d="M14.348.532l-.038-.03L14.3.49l.048.042m-.06-.029c.001.001.003.001.004.004l-.007-.004c-.002-.004-.006-.008-.01-.01l.013.01m-2.13 0c.003-.004.008-.008.013-.01-.005.002-.008.006-.011.01l-.007.004c.001-.003.003-.003.004-.004m7.922 6.6c-.055-.098-.121-.193-.199-.281l-4.184-4.798L14.499.65l-.065-.07-.067-.066h-.001l-.07-.062c-.17-.138-.36-.24-.561-.305-.027-.009-.054-.017-.082-.024-.033-.009-.067-.017-.1-.024l-.081-.014c-.032-.006-.065-.01-.096-.013l-.078-.005-.04-.002.064.005c.048.004.096.01.143.018-.048-.007-.095-.013-.143-.018l-.046-.003h-.017l-.007-.001h-.015l.059.004c.047.004.095.01.142.018-.047-.007-.095-.013-.142-.018-.036-.002-.072-.005-.108-.005h-.019l-.035.002c-.02 0-.037.002-.055.003-.048.005-.095.01-.143.018.047-.008.095-.014.143-.018l.064-.005h.012c-.025 0-.052 0-.078.002-.026 0-.052.003-.078.005-.032.003-.064.007-.096.013-.027.003-.054.009-.081.014-.034.007-.067.015-.1.024-.028.007-.055.015-.082.024-.2.065-.392.167-.56.305-.025.02-.048.04-.071.062h-.001L11.94.58l-.064.07-1.197 1.373-4.185 4.798c-.077.088-.143.183-.198.28-.15.263-.224.556-.224.848 0 .048.002.097.007.145l.002.03.011.088.006.031.012.063.018.08.02.07c.005.017.01.034.017.051l.02.056.008.02.025.062c.017.038.035.076.056.113.008.017.017.033.027.05l.013.022c.01.019.022.037.034.055.015.025.032.048.048.072.011.015.022.03.035.045.006.01.013.018.02.027l.034.04c.01.01.019.022.028.033l.037.04.026.025c.013.014.026.026.04.038l.016.015.005.005.006.005.013.01c.011.01.022.02.034.028l.024.018c.012.01.024.018.037.027.017.013.035.025.053.036l.066.041c.02.012.04.024.06.034l.01.006.05.025c.04.02.08.036.121.053l.051.019.093.03.05.014c.074.019.149.034.225.043l.064.006.023.001c.04.004.082.005.124.005.11 0 .22-.01.33-.031.043-.008.086-.019.13-.03.085-.024.169-.054.25-.09.041-.019.082-.04.12-.06.06-.033.118-.07.174-.11.107-.075.204-.164.293-.265l1.69-1.938 1.875-2.15.585-.67.583.67 1.876 2.15 1.69 1.938c.088.101.186.19.292.265.057.04.114.077.174.11l.12.06c.082.036.166.066.251.09.043.011.086.022.13.03.109.021.22.031.33.031.042 0 .083 0 .124-.005l.022-.001c.022-.001.043-.004.064-.006.077-.01.152-.024.226-.043l.05-.014.092-.03c.018-.006.035-.012.051-.02.041-.016.082-.033.122-.052l.049-.025.01-.006c.02-.01.041-.022.06-.034l.067-.04.053-.037.037-.027.024-.018.033-.027.013-.01.007-.006.005-.005c.006-.004.01-.01.016-.015l.04-.038.025-.026.037-.04c.01-.01.02-.021.028-.032.013-.013.024-.027.034-.04.008-.01.015-.018.02-.027.013-.015.024-.03.035-.045.017-.024.034-.047.049-.072.012-.018.023-.036.033-.055l.014-.022.027-.05c.02-.037.038-.075.055-.113.01-.02.018-.04.025-.061l.01-.021.019-.056.016-.052c.008-.023.014-.046.02-.07l.019-.079.012-.063.005-.03c.005-.03.008-.06.011-.088l.003-.031c.004-.048.006-.097.006-.145 0-.292-.073-.585-.223-.847" transform="translate(2.5 3.69)"/>
                <path fill="#107778" d="M12.153 1.358c.003-.002.004-.005.007-.006l.01-.017c-.003.004-.009.01-.013.017-.001.001-.003.001-.004.006zM13.08.084c-.048.013-.096.03-.143.058.048-.025.095-.044.143-.058zM13.2.066c-.01 0-.021 0-.032.002h-.006c-.028.004-.056.01-.084.016.023-.004.047-.008.071-.01.015-.002.03-.004.046-.004.006-.002.012-.002.018-.002-.003-.002-.008-.002-.011-.002h-.002zm.062.002c-.015-.002-.03-.002-.044-.002l.016.002c.003 0 .005 0 .008.002.006-.002.012-.002.02 0l.008.002h.01c.005 0 .009 0 .013.002.02.002.04.006.06.01-.028-.006-.056-.012-.083-.016h-.008zm.202.074c-.047-.027-.095-.045-.143-.058.048.014.095.033.143.058zm.834 1.21c.004.004.007.01.011.016.013.015.026.031.038.048l-.049-.064z" transform="translate(2.5 3.69)"/>
            </g>
        </g>
    </g>
</svg>
