<svg xmlns="http://www.w3.org/2000/svg" width="32" height="32" viewBox="0 0 32 32">
    <g fill="none" fill-rule="evenodd">
        <g fill="#FFF" fill-rule="nonzero">
            <path d="M16 2.5c7.456 0 13.5 6.044 13.5 13.5S23.456 29.5 16 29.5 2.5 23.456 2.5 16 8.544 2.5 16 2.5zm1.87 15.684c-.168.123-.355.229-.553.316l-.2.08-.35 2.93c-.254.029-.505.049-.767.049-.175 0-.35-.01-.524-.024l-.257-.026-.336-2.928c-.203-.075-.399-.168-.58-.28l-.174-.117-2.805 1.149C12.366 20.79 14.072 21.74 16 21.74s3.634-.95 4.676-2.408l-2.805-1.15zM10.26 16c0 .708.128 1.387.363 2.013l2.403-1.616c-.02-.13-.04-.262-.04-.397 0-.09.009-.179.021-.266l.02-.131-2.404-1.616c-.235.626-.363 1.305-.363 2.013zm11.12-2.013l-2.404 1.616c.02.13.04.262.04.397 0 .09-.009.179-.021.266l-.02.131 2.404 1.616c.235-.626.363-1.305.363-2.013s-.128-1.387-.363-2.013zm-5.379.66c-.747 0-1.352.606-1.352 1.353s.605 1.352 1.352 1.352c.747 0 1.352-.605 1.352-1.352 0-.747-.605-1.352-1.352-1.352zm0-4.388c-1.928 0-3.634.95-4.676 2.408l2.805 1.15c.17-.124.356-.23.554-.317l.2-.08.35-2.93c.254-.029.505-.049.767-.049.175 0 .35.01.524.024l.257.026.336 2.928c.205.075.4.168.58.28l.174.117 2.805-1.149C19.634 11.21 17.928 10.26 16 10.26z"/>
        </g>
    </g>
</svg>
