<svg xmlns="http://www.w3.org/2000/svg" xmlns:xlink="http://www.w3.org/1999/xlink" width="32" height="32" viewBox="0 0 32 32">
    <defs>
        <path id="vrjqmu42fa" d="M0 0L18.651 0 18.651 29 0 29z"/>
    </defs>
    <g fill="none" fill-rule="evenodd">
        <g>
            <g>
                <path fill="#107778" d="M2.666 9.113c0 .07.006.14.018.208.106-.756.687-1.333 1.387-1.333h-.406c-.551 0-.999.503-.999 1.125m13.668-1.125h-.406c.7 0 1.28.577 1.386 1.333.011-.068.017-.137.017-.208 0-.622-.446-1.125-.997-1.125" transform="translate(6.365 1.5)"/>
                <g transform="translate(6.365 1.5)">
                    <mask id="mrtdletpmb" fill="#fff">
                        <use xlink:href="#vrjqmu42fa"/>
                    </mask>
                    <path fill="#FFF" d="M16.25 9.768c-.082.461-.466.81-.928.81H3.329c-.462 0-.847-.349-.929-.81-.01-.06-.016-.122-.016-.184 0-.08.009-.157.026-.231.098-.439.473-.764.919-.764h11.993c.446 0 .82.325.918.764.018.074.026.15.026.23 0 .063-.005.125-.016.185zm0 3.58c-.082.461-.466.81-.928.81H3.329c-.462 0-.847-.349-.929-.81-.01-.06-.016-.122-.016-.184 0-.55.423-.995.945-.995h11.993c.522 0 .944.445.944.995 0 .062-.005.124-.016.184zM6.292 1.572l.066-.001h6.001v1.885H6.292V1.572zm10.355 1.884h-2.796v-2.35C13.85.435 13.239 0 12.292 0H6.358C5.412 0 4.8.435 4.8 1.106v2.35H2.003C.902 3.456 0 4.406 0 5.565v18.927c0 1.16.902 2.109 2.003 2.109H3.42c-.032.143-.05.292-.05.445 0 1.08.832 1.954 1.856 1.954 1.026 0 1.856-.875 1.856-1.954 0-.153-.016-.302-.048-.445h4.581c-.031.143-.048.292-.048.445 0 1.08.83 1.954 1.855 1.954s1.856-.875 1.856-1.954c0-.153-.016-.302-.049-.445h1.417c1.102 0 2.004-.95 2.004-2.109V5.565c0-1.16-.902-2.109-2.004-2.109z" mask="url(#mrtdletpmb)"/>
                </g>
            </g>
        </g>
    </g>
</svg>
