<svg xmlns="http://www.w3.org/2000/svg" xmlns:xlink="http://www.w3.org/1999/xlink" width="360" height="360" viewBox="0 0 360 360">
    <defs>
        <filter id="ca06i273le" width="100%" height="100%" x="0%" y="0%" filterUnits="objectBoundingBox">
            <feGaussianBlur in="SourceGraphic"/>
        </filter>
        <filter id="eq6fqxbc3f" width="100%" height="100%" x="0%" y="0%" filterUnits="objectBoundingBox">
            <feGaussianBlur in="SourceGraphic"/>
        </filter>
        <path id="znv08diw7a" d="M216.027 184.73c10.514 0 17.786-9.562 17.786-12.543 0-2.995-7.285-12.54-17.786-12.54-10.436 0-17.8 9.545-17.8 12.54 0 2.981 7.417 12.542 17.8 12.542z"/>
        <path id="qz5xaeri3c" d="M143.776 184.73c10.514 0 17.787-9.562 17.787-12.543 0-2.995-7.286-12.54-17.787-12.54-10.436 0-17.8 9.545-17.8 12.54 0 2.981 7.417 12.542 17.8 12.542z"/>
    </defs>
    <g fill="none" fill-rule="evenodd">
        <g>
            <g>
                <g transform="translate(-8 -40) translate(-83 40) translate(91)">
                    <path fill="#FF625E" stroke="#FF625E" stroke-width="1.199" d="M180 256.194c18.7 2.583 28.05-1.042 28.05-10.875 0-14.75-6.118-5.783-13.196-3.875-7.078 1.907-14.854 2.08-14.854 2.08v12.67z"/>
                    <mask id="t69hytmnsb" fill="#fff">
                        <use xlink:href="#znv08diw7a"/>
                    </mask>
                    <use fill="#FFF" fill-rule="nonzero" transform="rotate(-3 216.02 172.188)" xlink:href="#znv08diw7a"/>
                    <ellipse cx="220.91" cy="166.285" fill="#324148" mask="url(#t69hytmnsb)" rx="11.323" ry="12.541"/>
                    <mask id="wbaexgx9ud" fill="#fff">
                        <use xlink:href="#qz5xaeri3c"/>
                    </mask>
                    <use fill="#FFF" fill-rule="nonzero" transform="rotate(3 143.77 172.188)" xlink:href="#qz5xaeri3c"/>
                    <ellipse cx="149.738" cy="166.285" fill="#324148" mask="url(#wbaexgx9ud)" rx="11.323" ry="12.541"/>
                    <ellipse cx="115.828" cy="190.907" fill="#FF918E" filter="url(#ca06i273le)" rx="11.2" ry="12.314"/>
                    <ellipse cx="243.508" cy="190.907" fill="#FF918E" filter="url(#eq6fqxbc3f)" rx="11.2" ry="12.314"/>
                    <path stroke="#324148" stroke-width="5.6" d="M200.46 150.563c10.327-5.386 20.765-6.258 31.315-2.616M161.193 150.574c-10.327-5.386-20.765-6.258-31.315-2.616" opacity=".8"/>
                    <path fill="#57A3F6" fill-rule="nonzero" d="M109.819 85.186c-2.192-2.915-6.196-2.915-8.388 0-6.382 8.491-17.806 25.35-17.806 37.238 0 13.692 9.743 24.576 22 24.576s22-10.884 22-24.576c0-11.888-11.424-28.747-17.806-37.238z"/>
                </g>
            </g>
        </g>
    </g>
</svg>
