<svg xmlns="http://www.w3.org/2000/svg" width="360" height="360" viewBox="0 0 360 360">
    <defs>
        <filter id="t74710rjra" width="100%" height="100%" x="0%" y="0%" filterUnits="objectBoundingBox">
            <feGaussianBlur in="SourceGraphic"/>
        </filter>
        <filter id="zdhrfswglb" width="100%" height="100%" x="0%" y="0%" filterUnits="objectBoundingBox">
            <feGaussianBlur in="SourceGraphic"/>
        </filter>
    </defs>
    <g fill="none" fill-rule="evenodd">
        <g>
            <g>
                <g transform="translate(-8 -40) translate(-83 40) translate(91)">
                    <path stroke="#FF625E" stroke-width="6.72" d="M180 245c12.537.152 22.87 2.485 31 7"/>
                    <ellipse cx="115.828" cy="190.907" fill="#FF918E" filter="url(#t74710rjra)" rx="11.2" ry="12.314"/>
                    <ellipse cx="243.508" cy="190.907" fill="#FF918E" filter="url(#zdhrfswglb)" rx="11.2" ry="12.314"/>
                    <path stroke="#324148" stroke-width="5.6" d="M200.46 147.54c10.327 5.385 20.765 6.257 31.315 2.616" opacity=".8"/>
                    <path stroke="#324148" stroke-width="5.6" d="M199.497 171.196c11.008 6.113 22.085 7.199 33.232 3.256"/>
                    <path stroke="#324148" stroke-width="5.6" d="M161.193 147.55c-10.327 5.386-20.765 6.258-31.315 2.617" opacity=".8"/>
                    <path stroke="#324148" stroke-width="5.6" d="M162.156 171.207c-11.008 6.113-22.085 7.198-33.232 3.256"/>
                </g>
            </g>
        </g>
    </g>
</svg>
