<svg version="1.1" id="圖層_4" xmlns="http://www.w3.org/2000/svg" x="0" y="0" viewBox="0 0 18.2 17" xml:space="preserve"><style>.st2{fill:#282828}</style><circle cx="9.6" cy="8.7" r="6.8" fill="#fff" opacity=".6"/><path class="st2" d="M14 4.6c2.3 2.4 2.1 6.2-.3 8.5s-6.2 2.1-8.5-.3c-2.2-2.4-2.1-6.2.3-8.5.3-.3.6-.5.9-.7 2.5-1.5 5.6-1.1 7.6 1 .7.7 1.7-.4 1.1-1.1C12.3.5 7.5.3 4.5 3.2s-3.2 7.6-.3 10.6 7.6 3.2 10.6.3c.4-.3.7-.7 1-1.1 2.1-2.9 1.8-6.9-.7-9.5-.7-.6-1.7.4-1.1 1.1z"/><path class="st2" d="M10.8 5.4l.2.1c.1 0 .2.1 0 0l.3.2.3.2c.1.1-.1-.1 0 0l.1.1.2.2.1.1.1.1.1.1v.2s.1.2.1.3c0 .1 0 .2.1.3 0 .1.1.2 0 0v1.6c0 .4.3.7.8.8.4 0 .7-.3.8-.8.1-1.1 0-2.1-.4-3.1-.5-1-1.3-1.7-2.3-2-.4-.1-.8.1-.9.5-.1.4.1.8.5.9l-.1.2zm1.6 7l.2-.1.1-.1.1-.1c.1 0 .1-.1.1-.2s.1-.1.1-.2v-.4c0-.1-.1-.1-.1-.2s-.1-.1-.1-.2c-.1-.1-.2-.2-.3-.2h-.6l-.1.1-.1.1-.2.1-.1.1c0 .1-.1.1-.1.2v.4c0 .1.1.2.1.2 0 .1.1.2.2.2.1.1.2.1.3.1h.3l.2-.1.3-.3.1-.2v-.4.4l-.1.2-.1.2-.2.1-.2.1h-.4l-.2-.1v-.2l-.1-.2-.1-.2v-.4l.1-.2.1-.2.2-.1.2-.1c-.1 0-.2.1-.2.1-.1.1-.2.1-.2.2s-.1.2-.1.3v.3l.1.2.3.3.2.1h.4l-.1.4z"/></svg>