<svg version="1.1" id="圖層_6" xmlns="http://www.w3.org/2000/svg" x="0" y="0" viewBox="0 0 14.5 14.7" xml:space="preserve"><style>.st2{fill:#282828}</style><circle cx="7.3" cy="7.5" r="5.7" fill="#fff" opacity=".8"/><path class="st2" d="M12.2 7.2c.2 2.7-1.9 5-4.6 5.2-1.5.1-2.9-.5-3.9-1.6C1.8 8.9 2 5.7 4 3.9c2-1.8 5.1-1.7 7 .3.7.8 1.1 1.9 1.2 3 .1 1 1.6 1 1.5 0C13.5 3.7 10.5 1 7 1.1S.7 4.3.9 7.8c.2 3.5 3.2 6.3 6.7 6.1.4 0 .8-.1 1.2-.2 3-.8 5-3.5 4.9-6.5 0-.9-1.5-.9-1.5 0z"/><path class="st2" d="M9.6 7.2l.1.3-.1-.3c.1.2.1.4.1.5v-.1c0 .2-.1.3-.1.5l.1-.2c-.2.1-.3.3-.4.4l.1-.2c-.1.2-.2.3-.3.4l.2-.1c-.2.1-.3.2-.4.2H9c-.1 0-.2 0-.3.1-.2 0-.4.1-.5.3 0 .2-.1.4 0 .6 0 .2.1.3.3.4.2.1.4.1.6.1 1.4-.3 2.3-1.7 2-3.2v-.1c-.1-.4-.5-.7-.9-.6-.4.1-.7.5-.6.9v.1zM6.5 10c.4 0 .8-.3.8-.8s-.4-.7-.8-.7-.8.3-.8.7.3.8.8.8z"/></svg>