<svg version="1.1" id="圖層_1" xmlns="http://www.w3.org/2000/svg" x="0" y="0" viewBox="0 0 256 340" xml:space="preserve"><style>.st1{fill:#ffeadc}.st3{fill:#282828}.st8{fill:#cecece}</style><g id="圖層_4"><path d="M130.1 167.5s3.1 6.9 0 8c-5.4 1.9-33.8-35.3-34.2-42.8s7.4-4.3 7.4-4.3l26.8 39.1z" fill="#525f89"/><path class="st1" d="M143.8 68.4l62.1 45.9c-2.5 4.6-7.4 7.3-12.3 9.3-8.6 3.6-17.8 5.6-27.1 6-1.5 0-3 .2-4.5.7-1.5.8-2.9 1.8-3.9 3.1-18.6 19.8-66.3 80.9-81.7 103.3L30 165.5l77.5-38.5c9.6-5.1 14.7-8.3 19-18.3l17.3-40.3z"/><path d="M169.8 83.4s-10.2 6.7-7.9 17.5c3.5 16.4 36.7 16.4 36.7 16.4l-28.8-33.9zm-38.7 71c.7-.8 1.4-1.6 2.1-2.5 7.8-9.9 11.7-15.9 13.7-19.4 1.3-2.4 4.1-3.5 6.7-2.9 2.8.7 5.6.9 8.5.7-1.5.8-2.9 1.8-3.9 3.1-18.6 19.8-66.4 80.9-81.7 103.3l-7.8-12 62.4-70.3z" opacity=".5" fill="#ddc2b3"/><path class="st3" d="M77 237c5.1-7.4 10.4-14.6 15.8-21.8 7.2-9.6 14.4-19.1 21.8-28.5 7.4-9.5 15-19 22.6-28.4 6-7.3 12.1-14.7 18.5-21.7 1.8-2 3.7-4.6 6.5-5.2 2.1-.3 4.3-.5 6.4-.5 2.1-.2 4.1-.4 6.2-.8 4.2-.7 8.4-1.7 12.4-3 3.8-1.2 7.5-2.8 11-4.8 1.6-1 3.2-2.1 4.5-3.5.7-.7-.4-1.7-1.1-1.1-3 3-6.9 4.8-10.7 6.3-8 3.2-16.5 5-25.1 5.4-3.7-.4-7.3 1.2-9.5 4.2-6.2 6.5-11.9 13.5-17.6 20.4-7.6 9.3-15.1 18.6-22.5 28.1s-14.8 19.1-22.1 28.8c-5.7 7.6-11.4 15.2-16.8 23-.5.7-1 1.4-1.5 2.2-.7 1 .6 1.7 1.2.9zM252 36.1c-1.7 3.3-5.7 4.4-9.2 4.6-5.3.2-10.6-.6-15.6-2.5-5.5-1.9-10.8-4.6-15.6-7.9-3.8-2.6-7.1-5.8-9.7-9.5-1.7-2.5-3.2-5.7-2.4-8.8 1-3.4 4.6-4.9 7.8-5.4 5-.8 10.3.2 15.2 1.6 5.6 1.7 11 4.2 15.9 7.4 4.5 2.8 8.4 6.4 11.5 10.6 2 2.8 3.7 6.6 2.1 9.9-.4.9.9 1.6 1.3.8 1.5-3.1.6-6.5-.9-9.5-2.2-4.1-5.7-7.5-9.3-10.4-4.9-3.8-10.4-6.8-16.2-9-5.4-2.2-11.2-3.3-17.1-3.2-3.8.2-8.2 1.1-10.6 4.4-1.9 2.7-1.6 6.1-.3 9 1.8 4.2 5.1 7.7 8.5 10.6 4.6 3.8 9.8 6.9 15.3 9.2 6.1 2.6 12.8 4.4 19.5 4.1 4.2-.2 9.1-1.3 11.2-5.4.4-.7-.9-1.5-1.4-.6z"/><path class="st3" d="M218.3 37.2c1.5 5.2 1.8 10.7.8 16.1-.9 4.6-3.7 8.6-7.7 11.1-8.7 5.4-19.3 4-28.9 5.9-4.9 1-9.6 2.8-13.3 6.2-.7.7.4 1.7 1.1 1.1 7.9-7.3 19.6-6.3 29.5-7.7 9.1-1.3 18.3-5.6 20.7-15.3 1.4-5.9 1.2-12-.5-17.7-.1-.4-.5-.6-.9-.5-.7 0-.9.4-.8.8z"/><path class="st3" d="M176.3 106.3c4.4-11.7 10.3-24.8 22.2-30.7 6.4-3.1 13.8-3.1 20.5-5.1 6.2-1.8 11.8-5.2 16.3-9.7 4.9-5.1 8-12.6 5.2-19.5-.4-.9-1.8-.5-1.5.4 2.7 6.6-.3 13.6-5.1 18.4-4.8 4.8-10.9 8.1-17.5 9.6-6.5 1.6-13.4 1.8-19.4 5-5.1 2.8-9.4 6.9-12.6 11.8-4.1 6-7 12.7-9.5 19.5-.4.8 1.1 1.2 1.4.3z"/><path d="M253.3 35.3c.7 2.1.4 6.6-1.1 8.3-.5.5-1 1.1-1.4 1.7-.2.5-.4 1-.4 1.5-1 4.8-3 9.4-6 13.3l-24.6 53c-1 2.2-3 3.7-5.3 4.1-9.2 1.6-22 .4-29.3-3.6-8.4-4.6-14.9-12.1-19.5-20.5-.9-2-1-4.2-.1-6.2l15.3-44.4c1.5-3.3 8-15.9 10.1-18.9 1.1-1.2 2-2.7 2.7-4.2.3-1 .3-2.1.5-3.1.5-2.1 4-7.8 8.1-8.6" fill="#dd6f6f"/><path d="M189.1 26.2s-8.9 65.9-1.4 88.6c0 0-25.1-10-23.5-34s24.9-54.6 24.9-54.6z" opacity=".3" fill="#995959"/><ellipse transform="rotate(-64.188 226.011 23.577)" cx="226" cy="23.6" rx="13.9" ry="29.7" fill="#f4eeed"/><path d="M239.8 41.5c1.5 3.9 1.4 8.2-.4 12-1.8 3.8-4.4 7-7.7 9.5-4.1 3.2-8.7 5.6-13.8 7-6 1.6-12.3 1.8-18.1 4.1-6.6 2.7-11.9 8-15.7 14-3.5 5.6-6.4 11.7-8.6 17.9 0 0-2.7-1.8-8.5-10.2s2.5-19 2.5-19c4.3-4.1 10.3-5.8 16.2-6.5s11.9-.8 17.6-2.1c5.8-1.4 11.5-4.3 14.4-9.5 1.2-2.3 2-4.9 2.3-7.5.6-5.2.2-10.5-1.1-15.6l20.9 5.9z" fill="snow"/><path class="st3" d="M252 36.1c-1.7 3.3-5.7 4.4-9.2 4.6-5.3.2-10.6-.6-15.6-2.5-5.5-1.9-10.8-4.6-15.6-7.9-3.8-2.6-7.1-5.8-9.7-9.5-1.7-2.5-3.2-5.7-2.4-8.8 1-3.4 4.6-4.9 7.8-5.4 5-.8 10.3.2 15.2 1.6 5.6 1.7 11 4.2 15.9 7.4 4.5 2.8 8.4 6.4 11.5 10.6 2 2.8 3.7 6.6 2.1 9.9-.4.9.9 1.6 1.3.8 1.5-3.1.6-6.5-.9-9.5-2.2-4.1-5.7-7.5-9.3-10.4-4.9-3.8-10.4-6.8-16.2-9-5.4-2.2-11.2-3.3-17.1-3.2-3.8.2-8.2 1.1-10.6 4.4-1.9 2.7-1.6 6.1-.3 9 1.8 4.2 5.1 7.7 8.5 10.6 4.6 3.8 9.8 6.9 15.3 9.2 6.1 2.6 12.8 4.4 19.5 4.1 4.2-.2 9.1-1.3 11.2-5.4.4-.7-.9-1.5-1.4-.6z"/><path class="st3" d="M201.9 6.9c-2.2.6-4.1 1.9-5.5 3.7-1.3 1.4-2.3 3.1-3 5-.4 1.4-.3 2.8-.9 4.1-.7 1.3-1.6 2.6-2.6 3.8-1.6 2.4-2.9 4.9-3.9 7.5-.4.9.9 1.6 1.3.8.9-2.4 2.1-4.6 3.5-6.8.8-1.2 1.8-2.3 2.6-3.5.7-1.1 1.1-2.4 1.2-3.7.5-3.9 3.7-8.6 7.7-9.4.9-.2.5-1.7-.4-1.5zm17.6 106.7c-7.7 5.4-18.5 4.6-27 2.1-8.2-2.4-15.7-7.9-21.2-14.3-2.9-3.4-6-8.1-5.3-12.8.1-.9-1.3-1.4-1.4-.4-.7 4.3 1.3 8.4 3.7 11.8 3 4 6.6 7.5 10.7 10.5 3.4 2.6 7.2 4.7 11.3 6.1 4.6 1.6 9.5 2.4 14.4 2.4 5.4 0 11.1-1 15.6-4.2.7-.5 0-1.8-.8-1.2zm-1.3-77.8c1.1 4 1.6 8.2 1.4 12.4-.2 4.2-1 8.6-3.7 12.1-5.4 6.9-14.9 8.1-23 8.8-5.2.4-10.4.8-15.4 2.5-.9.3-.5 1.8.4 1.4 9.4-3.1 19.7-1.6 29.1-4.9 3.7-1.2 7.1-3.4 9.7-6.4 2.8-3.3 3.9-7.5 4.3-11.7.4-4.9 0-9.8-1.3-14.5-.1-.4-.6-.6-1-.4-.3 0-.5.4-.5.7z"/><path class="st3" d="M176.3 106.3c4.4-11.7 10.3-24.8 22.2-30.7 6.4-3.1 13.8-3.1 20.5-5.1 6.2-1.8 11.8-5.2 16.3-9.7 4.9-5.1 8-12.6 5.2-19.5-.4-.9-1.8-.5-1.5.4 2.7 6.6-.3 13.6-5.1 18.4-4.8 4.8-10.9 8.1-17.5 9.6-6.5 1.6-13.4 1.8-19.4 5-5.1 2.8-9.4 6.9-12.6 11.8-4.1 6-7 12.7-9.5 19.5-.4.8 1.1 1.2 1.4.3z"/><path class="st8" d="M250 34.8c-2.5 5.3-14.5 4.8-26.8-1.1s-21.6-15.9-19-21.1c3.3-6.7 16-3.9 28.2 2s20.2 14.9 17.6 20.2z"/><path d="M246.8 25.9c-.8-2.8 3.3 4.9 2.4 6.7-2.3 4.9-13.4 4.4-24.6-1.1S204.8 17 207.2 12.1c1.1-2.1.9-4.3 8.5-3 0 0-10.2 1.3.1 12.9 12.2 13.7 34.9 15.1 32.6 7.4-.9-2.9-1.6-3.5-1.6-3.5z" fill="#8c8a89" opacity=".4"/><path class="st3" d="M249.4 34.4c-1.4 2.7-4.9 3.2-7.6 3.3-4.5 0-8.9-.9-13-2.5-8-2.9-16.3-7.8-21.5-14.6-1.4-1.9-3.3-4.7-2.5-7.1.9-2.9 4.2-3.9 6.8-4 4.1-.2 8.3.9 12.2 2.3 4.6 1.6 9.1 3.6 13.3 6.2 3.9 2.2 7.3 5.2 10.1 8.6 1.5 2 3.4 5.1 2.2 7.8-.4.9.9 1.7 1.3.8 1.2-2.5.4-5.3-1-7.6-2.1-3.4-4.9-6.3-8.2-8.6-4.3-3.1-8.9-5.6-13.8-7.5-4.5-1.8-9.4-3.4-14.3-3.6-3.2-.1-6.9.4-9 3.1-1.8 2.3-1.4 5-.2 7.4 1.7 3.5 4.7 6.4 7.7 8.9 4 3.2 8.4 5.9 13.1 7.9 5.1 2.2 10.8 4 16.4 4 3.4 0 7.7-.7 9.4-4 .3-.9-1-1.6-1.4-.8z"/><path class="st3" d="M247 26.4c1.1 1.9 2.7 4.6 1 6.6-1 1.1-2.4 1.8-3.9 2-4.4.9-9.2-.3-13.4-1.7-5-1.7-9.7-4.2-14-7.3-3.2-2.3-6.4-5.2-8.3-8.7-.8-1.2-1.1-2.8-.9-4.2.6-2.4 3.2-3.4 5.4-3.6 1-.1 1-1.6 0-1.5-3.8.5-7.8 3-6.9 7.3.8 4.1 4.3 7.5 7.3 10 4.6 3.9 9.8 6.9 15.4 9 4.9 1.8 10.7 3.3 15.9 2.2 1.9-.3 3.6-1.3 4.8-2.8 1.7-2.5.2-5.6-1.2-7.9-.2-.4-.7-.5-1-.3s-.4.6-.2.9z"/><path d="M249.1 30.1c-.9 2.1-4.9 2.4-9 .8s-5.5-4.8-4.6-6.9 3.6-2.4 7.8-.7 6.6 4.7 5.8 6.8z" fill="#7f7977"/><path class="st3" d="M248.4 29.8c-1 2.1-4.5 1.5-6.2 1.1-2.3-.6-4.9-1.8-5.9-4.1-.6-1.4-.4-3.2 1.2-3.7 1.1-.2 2.2-.2 3.2.2 1.4.4 2.8.9 4 1.6 1.5.9 4.4 2.9 3.6 5.1-.3.9 1.1 1.3 1.5.4.9-2.5-1.5-4.9-3.3-6.1-1.4-1-3-1.7-4.7-2.2-1.4-.5-2.8-.6-4.3-.4-2.1.4-3.4 2.4-3 4.5 0 .1.1.3.1.4.7 2.8 3.5 4.6 6 5.5 1.8.7 3.8.9 5.7.7 1.4-.1 2.7-.9 3.5-2.1.3-1.1-1-1.8-1.4-.9z"/><path class="st8" d="M234.9 21c-.6-4.8-2.9-9.3-6.5-12.5-1-1.1-2.4-1.8-3.9-2-2.3-.1-4.4 1.5-5 3.7-.5 2.2 0 4.6 1.4 6.3 1.4 1.7 3.2 3.1 5.3 4.1 2.1 1.1 4.4 1.8 6.8 2v.2c-.1.6 0 1.3.4 1.8.3.4.8.7 1.3.6.1 0 .1 0 .2-.1s.2-.2.2-.3c.2-.6.5-1.2 1-1.6.3-.3.7-.5.8-.9.3-1.5-1.7-1.1-2-1.3zm-2.8-1.6c-.5.6-3-.4-6.1-2.9-2.6-2.2-3.9-5.3-2.4-6.5.9-.7 2.7-.4 5.1 2s4.2 6.3 3.4 7.4z"/><path d="M221.6 7.4c-1.4 1.9-1.4 4.4-.2 6.4 2 3.5 5.9 6.4 11.6 7.4.5.1.9.6.8 1.2 0 .2-.1.5-.1.9-.2 1.2-15.5-5-14.5-10.9s2.4-5 2.4-5z" opacity=".4" fill="#8c8a89"/><path class="st3" d="M233.1 21.7c-3.8-.3-7.5-1.9-10.4-4.4-2.5-2.4-4-6.9-.8-9.3s6.6 1.3 8.5 3.8c1 1.4 1.9 2.8 2.5 4.4.3.8.6 1.6.8 2.4.2.8.2 1.7.5 2.6.2.6.6.7 1.1.8.2 0 .5 0 .7.1.3.1.3 0 .1.3-.6.5-1.1 1.2-1.4 1.9l-.2.5c.2 0-.3-.6-.4-.6-.2-.3-.3-.7-.2-1.1.3-.9-1.2-1.3-1.4-.4-.3 1.2.2 2.4 1.2 3.1.5.4 1.2.4 1.8.1.6-.4.6-1.2 1-1.7.6-.9 2-1.7 1.1-2.9-.3-.3-.6-.6-1.1-.6-.3-.1-.9-.1-1.1-.1l.4.6c-.4-3.3-1.5-6.4-3.4-9.2-1.6-2.5-4.2-5.5-7.3-6.1-2.9-.3-5.6 1.6-6.3 4.5-.8 3.2.9 6.5 3.4 8.5 3.1 2.6 7 4.2 11 4.5.9-.1.9-1.6-.1-1.7z"/><path class="st3" d="M231.5 18.8c-.1.1.2-.1 0 0 .3-.2 0 .1 0 0s.2 0 0 0h-.1l-.3-.1c-.2 0-.4-.1-.5-.2-.9-.4-1.7-.8-2.5-1.4-1.7-1.2-3.6-2.8-4.3-4.9-.1-.3-.2-.7-.1-1 0-.2.1-.4.2-.6.1-.1.3-.2.4-.2h.7c1.9.5 3.4 2.3 4.5 3.8.6.9 1.2 1.9 1.6 2.9.2.4.3.8.4 1.2v.5c0-.2 0 0 0 0 0 .1 0 0 0 0-.3.3-.3.8-.1 1.1.3.3.8.3 1.1 0 .5-.7.6-1.7.2-2.5-.3-1.1-.8-2.2-1.5-3.1-1.3-2.1-3.2-4.4-5.6-5.2-.8-.3-1.7-.2-2.4.2-.8.5-1.2 1.4-1.1 2.4.2 2.6 2.4 4.7 4.3 6.2 1.1.9 2.3 1.6 3.7 2.2.7.3 1.8.5 2.4-.1s-.3-1.9-1-1.2zm-57.8 8c2.7.2 5.3-1 6.9-3.2.2-.4.1-.8-.3-1-.4-.2-.8-.1-1 .3-1.3 1.7-3.4 2.6-5.6 2.5-.4 0-.8.3-.8.8s.4.6.8.6z"/><path class="st1" d="M168.7 84.3c4.1-4 8-8.5 9.9-13.9 3.1-9.1-.4-18.8 2.2-28l5.9-11c1.4-5.6-1-11.5-5.9-14.6-.1-.1-.3-.2-.4-.2-.5-.1-.9.5-1.1.9-1.6 3.3-3.8 6.3-6.4 9l-.2.1c-1.4 1.3-2.4 3-2.9 4.8-.7 2-.9 4.1-1.6 6.2-2 6.3-7.4 10.9-12.6 15.1l-.2.2c-12 13.4-20 28.9-25.3 46.1 14.3.6 28.2-4.7 38.6-14.7z"/><path class="st3" d="M30.4 166.2c11.6-5.7 23.1-11.5 34.7-17.3 14.7-7.4 29.5-14.8 44-22.7 5.7-3.1 11.6-6.4 15.6-11.8 4.1-5.6 5.3-12.8 7.5-19.2 2.2-6.6 4.9-13 8.1-19.2 3.2-6.1 7-12 11.3-17.4 1.1-1.3 2.1-2.6 3.3-3.9 1.1-1.2 2.2-2.2 3.5-3.2 2.5-2 4.8-4.3 6.9-6.8 2-2.4 3.4-5.2 4.2-8.2.9-3.5 1.4-6.8 4.1-9.4 1-1.1 2-2.3 2.8-3.6 1.1-1.6 1.9-3.3 2.9-4.9 1.2-1.7 3.2-.5 4.3.7 1.2 1.4 1.9 3.2 2.2 5 .3 1.4.4 2.9.4 4.4.1.9 0 1.7-.2 2.6-.6 1.3-1.3 2.6-2.1 3.9l-2.8 5.1c-.7 1.1-1.2 2.4-1.4 3.7-.6 3.6-.8 7.3-.6 10.9.3 3.7.2 7.3-.2 11-.5 3.6-1.9 7.1-4 10.1-2 2.8-4.3 5.4-6.7 7.9-.7.7.4 1.8 1.1 1.1 4.7-5 9.5-10.3 10.9-17.3 1.4-7.4-.4-14.9.8-22.3.1-1 .3-1.9.7-2.8.3-.6.6-1.1.9-1.6l2.8-5.2c.7-1.2 1.4-2.5 2-3.8.3-.9.4-1.8.3-2.8 0-1.5-.1-3-.3-4.4-.5-3.2-1.9-6.7-5.1-8.1-.9-.4-1.9-.5-2.8-.1-1.4.6-1.9 2.2-2.6 3.5-1 1.6-2 3.2-3.2 4.7-.9 1.1-2 2.1-2.8 3.3-2.1 3.1-2.2 6.8-3.4 10.2-1.3 3.1-3.2 6-5.6 8.3-1.2 1.2-2.4 2.3-3.6 3.4-1.2.9-2.3 1.9-3.4 2.9-2.3 2.6-4.5 5.3-6.5 8.1-8.1 11.3-14.4 23.9-18.4 37.2-1.1 3.5-2 7.1-3.5 10.5-1.4 3.4-3.5 6.4-6.3 8.8-2.2 1.9-4.6 3.7-7.2 5.1-5.6 3.3-11.4 6.2-17.1 9.2-8 4.2-16.1 8.3-24.2 12.4-7.9 4-15.8 8-23.7 11.9l-16.1 8-1.9.9c-1.2.3-.5 1.6.4 1.2z"/><path class="st3" d="M173.7 26.8c2.7.2 5.3-1 6.9-3.2.2-.4.1-.8-.3-1-.4-.2-.8-.1-1 .3-1.3 1.7-3.4 2.6-5.6 2.5-.4 0-.8.3-.8.8s.4.6.8.6z"/><path class="st1" d="M242.4 62.1c-5.2 4.8-13.5 4.3-19.9 7.5-1.5.7-2.8 1.8-3.6 3.1-.9 1.4-.9 3.2.1 4.6 1 1.4 2.9 1.7 4.6 1.8 4.7.3 9.4-.2 14-1.5 2.8-.7 5.5-2 7.8-3.7 2.3-1.8 4-4.3 4.6-7.1.2-1.5.3-3 .1-4.5-.1-1.4-1.6-4.7-3-5"/><path class="st1" d="M228.7 79.1c-.5 2.4-9.9 3.1-12.4 4.3-1.5.7-3.2 1.6-3.8 3.1-.5 1.6 0 3.3 1.2 4.4 1.2 1.1 2.7 1.8 4.3 2 3.1.6 6.3.6 9.4-.1 4.8-.7 9.2-2.7 13.1-5.6 3.7-3 7.9-8.6 7.1-14.9"/><path class="st1" d="M222.7 93.6c-1.2 2.2-8.2 2.8-9.8 4s-2.7 3.1-2.4 4.8 2.3 3.3 4.4 3.8c2.2.3 4.4.2 6.5-.4 4-.9 7.6-2.7 10.6-5.5 2.8-2.7 4.3-6.5 3.5-10"/><path class="st1" d="M214.7 106.2c-1.4.2-2.7.5-4 1-1.2.4-2.2 1.2-2.8 2.4-.3.8-.4 1.6-.3 2.4 0 .5.2.9.4 1.3.6 1 1.9 1.2 3.1 1.3 3.5.3 7.2.3 10.5-1 4.2-1.7 7-5.7 7.2-10.2"/><path class="st3" d="M246.3 58c1 .3 1.7 1.4 2.2 2.2.7 1.1 1 2.5.9 3.8.1 3.2-1.3 6.4-3.7 8.5-2.5 2.1-5.5 3.6-8.7 4.4-3.4 1-7 1.5-10.5 1.5-2.2 0-6.1.4-7.3-2.1-1.7-3.6 3.3-6.1 5.8-7 5.5-2 11.9-2.1 16.6-5.9 2.3-2 4.2-4.4 5.6-7.1 1.8-2.9 3.1-6.1 3.7-9.4.1-.9-1.3-1.4-1.5-.4-.7 3.5-2 6.8-4 9.7-1.8 2.9-3.8 5.6-6.8 7.3-3.2 1.8-7 2.3-10.5 3.2-3.1.8-6.5 1.8-8.9 4.1-2 2-2.8 5.4-.5 7.5 2.1 1.9 5.7 1.6 8.3 1.6 6.9-.2 15.3-1.8 20.3-7 2.8-3 3.6-6.5 3.4-10.5-.1-2.1-2-5.3-4.2-5.9-.4-.1-.8.2-.9.6.1.4.3.8.7.9z"/><path class="st3" d="M227.9 78.9c-.3 1.2-3 1.6-3.9 1.9-1.9.5-3.8.8-5.7 1.2-1.9.4-3.6 1.1-5.2 2.3-1.8 1.5-2.2 4.1-.9 6.1 1.5 2.4 4.4 3.1 7 3.5 3.2.3 6.4.1 9.5-.6 5-1.1 10.4-3.2 13.9-7.1 3.2-3.7 4.2-9.1 5.6-13.6.3-.9-1.2-1.3-1.4-.4-1.2 3.9-2.1 8.3-4.3 11.7-2.4 3.7-7.1 5.9-11.2 7.2-2.8.9-5.7 1.4-8.6 1.4-2.7.1-6.4-.2-8.5-2.2-1.1-1-1.5-2.6-.8-3.9.8-1.1 1.9-1.9 3.2-2.3 1.4-.5 2.8-.9 4.2-1.1 1.9-.3 3.9-.8 5.7-1.4 1.1-.4 2.7-1 3-2.3.1-.4-.1-.8-.5-.9-.5-.1-1 .1-1.1.5z"/><path class="st3" d="M222.1 93.2c-.7 1.1-2.3 1.4-3.4 1.8-1.4.4-2.9.7-4.3 1.2-2.8.9-5.4 4-4.3 7.1 1.4 3.9 6.4 4.2 9.8 3.6 4.4-.7 8.4-2.5 11.9-5.2 3.3-2.8 5.5-7.2 4.6-11.6-.2-.9-1.7-.5-1.5.4 1.7 8-7.1 13-13.6 14.6-2.1.7-4.3.8-6.4.3-1.6-.4-3.4-1.5-3.6-3.3 0-1.7 1-3.3 2.6-4.1 1-.4 2-.7 3.1-.9 2.1-.5 5.2-1 6.5-3 .4-.9-.9-1.7-1.4-.9z"/><path class="st3" d="M214.7 105.5c-2.5.3-6.1 1.2-7.3 3.6-.6 1.3-.7 2.8-.2 4.2.5 1.1 1.6 1.9 2.9 2 5.5 1 12.2.2 16.4-3.9 2.2-2.1 3.5-5 3.7-8 .1-1-1.4-1-1.5 0-.4 5.8-5.1 9.6-10.6 10.5-1.7.2-3.4.3-5.1.2-1.3 0-3.6.1-4.2-1.3-.6-1.6 0-3.5 1.5-4.4 1.4-.8 3-1.2 4.6-1.4.8-.1.8-1.6-.2-1.5zm37.9-70c.5 1.8.5 3.7 0 5.6-.2.8-.5 1.6-1.1 2.2-.5.4-.9.9-1.2 1.4-.3.6-.6 1.2-.7 1.9-.2.9 1.3 1.4 1.5.4.1-.7.3-1.3.7-1.9.4-.5.9-.9 1.2-1.3.5-.8.9-1.7 1.1-2.6.5-2 .5-4.1 0-6.1-.3-.9-1.7-.5-1.5.4z"/><path d="M95.9 132.7c-.1-2.3.6-3.6 1.6-4.3L.3 171.5l-16 161.3 80.4-71.9 65.4-85.4c-5.4 1.9-33.9-35.3-34.2-42.8z" fill="#7c8ed1"/><path d="M130.1 175.5c-1.2.4-3.5-1.1-6.4-3.7 0 0-111.5 99.6-135.4 120l-4 39 75-64.6c2.2-2 6.3-7.5 8.1-9.8l62.7-80.9z" fill="#6c7fbc"/><path class="st3" d="M96.6 132.7c0-1.3.1-2.8 1.2-3.7.3-.2.4-.7.2-1-.2-.3-.6-.4-1-.2l-9.6 4.3-23.1 10.3-27.9 12.4-24.2 10.7-7.9 3.5c-1.3.5-2.6 1.1-3.8 1.7l-.2.1c-.2.1-.4.4-.4.6l-1.7 16.2-4 38.5-4.9 46.6L-15 313l-1.4 13.4c-.2 2.1-.6 4.2-.7 6.3v.3c-.1.7.8.9 1.3.5l8.1-7.1 18.9-16.5L32.7 291l16.5-14.4c5.5-4.6 10.6-9.6 15.5-14.8 3.6-4 6.8-8.4 10.1-12.7l13.5-17.7 17.4-22.8 15.9-20.8 8.7-11.4.4-.5c.4-.5-.3-1.3-.9-1.1-.2.1-.5.1-.7 0-.4-.1-.8-.3-1.2-.5-1.1-.7-2.2-1.5-3.2-2.4-2.9-2.7-5.7-5.6-8.2-8.6-6-6.9-11.4-14.4-16.2-22.2-1-1.6-1.9-3.3-2.7-5-.4-1.1-.8-2.3-1-3.4 0-1-1.5-1-1.5 0 .1 2.6 1.8 5.3 3 7.5 2.3 3.9 4.7 7.7 7.4 11.3 5.3 7.4 11.1 15 17.9 21.1 1.5 1.4 4.4 4.3 6.8 3.6l-.9-1.1-6.1 8-14.6 19.1-17.5 22.9-14.9 19.5-6.9 9c-5.6 7.2-12 13.8-18.9 19.8l-14 12.3-21 18.4-20.3 17.7-11.4 10-.5.5 1.3.5 1.7-16.2 4-38.5 4.9-46.6 4.2-40.3 1.4-13.4.4-4.1c.1-.7.2-1.4.2-2.2v-.3l-.2.8 9.6-4.3 23.1-10.3 28-12.5L86 134.3l7.9-3.5 2.5-1.1c.5-.2.9-.3 1.3-.6.1 0 .1-.1.2-.1l-.8-1.3c-1.6 1.2-2 3-1.9 5 .1.4.5.7.9.6.3 0 .5-.3.5-.6z"/><path class="st3" d="M103.5 127.7c-1.7-.7-3.5-.9-5.3-.5-2.7.8-3.5 3.9-3 6.4.5 1.9 1.3 3.7 2.3 5.4 1.4 2.6 3 5.1 4.6 7.5 4 5.9 8.3 11.6 12.9 17.1 3.5 4.1 7.2 8.6 11.7 11.5 1.4.9 3.4 1.9 4.8.2 1.8-2.1.2-6.1-.8-8.3-.4-.9-1.7-.1-1.3.8.3.8.6 1.6.9 2.5.3 1.1.9 3.2 0 4.2-.4.5-.8.4-1.3.2-.6-.2-1.2-.5-1.7-.9-4.1-2.7-7.4-6.7-10.6-10.4-4.2-4.9-8.1-10-11.7-15.3-2.8-4.1-5.8-8.4-7.7-13-.7-1.9-1.4-4.8.6-6.1 1.4-1 3.7-.5 5.2.1.9.4 1.3-1.1.4-1.4z"/></g></svg>