<svg version="1.1" id="圖層_1" xmlns="http://www.w3.org/2000/svg" x="0" y="0" viewBox="0 0 265 402" xml:space="preserve"><style>.st0{fill:#f9dfca}.st1{fill:#eac4ac}.st2{fill:#282828}.st6{fill:snow}.st7{fill:#cecece}</style><path class="st0" d="M264.9 401.6s-33 14-148.9-153.9c-3-4.3-5.2-9.1-7.7-13.6-.6-1.1-1.2-2.3-1.8-3.4-1.8-3.4-3.6-6.8-5.2-10.1v-.3c-.8-.1-1.5-.3-2.3-.4-2.3-.4-4.6-.9-6.9-1.5-3-.8-6-1.7-8.8-2.8-2.6-1-5-2.3-7.3-3.8-1.7-1.1-3.3-2.4-4.7-3.8-.5-.5-.9-.9-1.3-1.4l-28.4-57.9 32.7-9.5c-1.5-1.3-2.5-3.2-2.3-5.2.1-.6.3-1.2.8-1.6.5-.4 1.1-.5 1.7-.5 6.6-1 12.7-4.9 16.4-10.5 0 0 7.2-6.4 13.4-.3 4.6 4.5 9.4 8.9 14.1 13.3 2 1.9 3.9 3.7 5.3 6.1 1.5 2.5 2.1 5.5 2.6 8.4 1.6 8.1 3.1 16.3 4.4 24.5.4 2.4.8 4.9 1.1 7.4v.1c.3 2.3.7 4.6 1 6.9 0 .2.1.4.1.6.3 2.1.6 4.2.8 6.3 0 .4.1.7.1 1.1.3 2.4.6 4.8.9 7.3.8 1 1.5 2 2.3 3 1.6 2 3.2 4 4.8 5.9 4.9 5.7 10.2 11 15.7 16 0 0 55.1 46.6 106.2 60.2l1.2 113.4z"/><path class="st1" d="M157.7 227.8c-5.6-5-10.8-10.3-15.7-16-1.6-1.9-3.2-3.9-4.8-5.9-.8-1-1.6-2-2.3-3 0 0 .3 2.6-.5 4.6-.7 1.7-.4 3.6.8 4.9 13 14.3 73.6 78.5 120.7 88.3l8-12.7c-51-13.6-106.2-60.2-106.2-60.2z"/><path class="st1" d="M124.3 260.5c7.8 1 14.9-4.9 20.1-10 5.9-5.7 12.3-11.8 15.8-19.4.4-.9-.9-1.6-1.3-.8-3.4 7.2-9.3 13-15 18.5-5.1 5-12 11-19.6 10.1-.9 0-.9 1.5 0 1.6z"/><path class="st1" d="M147.6 219.2c1.8 15.6-.6 31.5-6.6 46-1.3 3-3.2 7.3-7 7.7-1 .1-1 1.6 0 1.5 3.1-.3 5.2-2.6 6.7-5.1 1.9-3.3 3.1-7 4.3-10.6 2.6-8 4.1-16.3 4.6-24.7.2-4.9.1-9.8-.5-14.7-.1-1-1.6-1-1.5-.1zM71 200.6s25.6 7.4 38.5.3c9.6-5.3 8.1-20.8 8.1-20.8l-15.7-8.7L71 200.6z"/><path class="st2" d="M110 238c-2.1 4.5-4 11.2 1.2 14.4 5.3 3.3 12.7.9 17.9-1.6 3.1-1.5 6-3.4 9-5.2 3-1.9 5.9-3.8 8.6-6 4.8-3.8 9.5-8.9 10.4-15.2.4-3 0-6.5-2.4-8.6-2.1-1.9-5.6-2.4-8.2-1.2-.9.4-.1 1.7.8 1.3 2.3-1.1 5.7-.2 7.2 1.9 1.4 2 1.4 4.9 1 7.1-1.1 5.5-5.3 9.9-9.5 13.3-4.5 3.7-9.6 6.8-14.6 9.6-4.8 2.7-10.6 5.3-16.2 4.3-2.7-.5-5.2-2-5.7-4.9-.5-2.8.7-6 1.9-8.5.3-.8-1-1.6-1.4-.7z"/><path class="st2" d="M252.8 398.4c-13.2-7.3-25.1-16.9-36.2-27.1-12.8-11.8-24.7-24.5-36-37.7-11.6-13.6-22.6-27.6-33.1-42-9.3-12.8-18.2-25.8-26.7-39.1-6.2-9.7-12.2-19.5-17.6-29.7-.2-.4-.5-.9-.7-1.3-.2-.4-.5-1-.5-1.2 0-.3-.2-.7-.6-.7-11.1-2-23.2-4.8-30.9-13.6-.6-.7-1.7.3-1.1 1.1 7.9 9 20.3 11.9 31.6 14-.2-.2-.4-.5-.6-.7 0 1 .8 2.1 1.2 3 .5 1 1 1.9 1.6 2.9 1.2 2.2 2.5 4.5 3.7 6.7 3.1 5.4 6.3 10.7 9.6 15.9 8.2 13.1 16.9 25.9 25.9 38.5 10.4 14.5 21.2 28.6 32.6 42.2 11.3 13.5 23.2 26.7 36 38.8 11.2 10.7 23.3 20.9 36.6 28.9 1.4.9 2.9 1.7 4.3 2.5 1 .4 1.7-.9.9-1.4z"/><path class="st2" d="M142.1 209.7c0-1.1 1.3-1.6 2.2-1.1 1.1.7 1.2 2.5 1.2 3.7 0 2.8-.6 5.7-1.1 8.4-1.1 5.6-2.7 11-4.8 16.3-2.1 5.2-4.7 10.2-7.7 14.9-1.5 2.4-3.1 4.8-4.9 6.9-1.6 1.9-4 4.1-6.7 3.5-2.8-.6-4.2-3.8-4.9-6.2-.9-3.4-.8-7 .1-10.3.2-.9-1.2-1.3-1.4-.4-.9 3.4-1.1 7.1-.3 10.6.6 2.6 1.9 5.4 4.2 7 5.7 3.9 10.9-3.8 13.6-7.9 7.8-11.5 13.1-24.8 15-38.5.4-2.7 1.3-7-1.2-9-1.8-1.5-4.7-.3-4.8 2.1-.1 1 1.4 1 1.5 0z"/><path d="M96.3 101.9l18.1 69.9c.4 1.6.5 3.2.2 4.8-5.3 28.1-30.1 26-41 23.6-3.2-.7-5.9-2.7-7.5-5.5l-39.5-68.9 2-5.3-.3-5.7s-5.3-2.7-5.2-5.4c.3-4.6 1.8-6.7 9.6-9 9-2.7 25.5 3.4 41.3 2.8 6.7-.3 14.3-5.7 20.4-9.6" fill="#f7c694"/><path class="st2" d="M10 98.3c3.8 6.6 7.5 13.2 11.3 19.8 7.7 13.4 15.3 26.8 23 40.3l18.3 32.1c1.6 2.7 3 5.8 5.5 7.7 3 2.3 6.9 2.8 10.6 3.2 3.3.4 6.7.5 10 .2 7.7-.8 15-3.9 19.8-10.1 3.1-4 5-8.7 6.1-13.6.5-2.5.6-4.9 0-7.3-2.3-8.9-4.6-17.9-6.9-26.8-3.9-15.1-7.8-30.3-11.6-45.4-3-11.8-6.1-23.7-9.1-35.5-.6-2.3-.9-5.2-2.2-7.2-1.3-2.2-3.7-3.5-6.2-3.6-1.5 0-2.9.1-4.4.2-3.4.2-6.7.6-10.1 1.2-8.7 1.5-17.2 4.2-25 8.2-9.7 5-18.1 12.2-24.6 20.8-1.8 2.4-3.7 4.9-5 7.5-1.5 2.6-.9 5.8.5 8.3.5.8 1.8.1 1.3-.8-.8-1.5-1.4-3.2-1.2-5 .2-1.7 1.3-3.2 2.2-4.6 1.7-2.6 3.5-5.1 5.5-7.5 3.5-4.2 7.5-8 11.9-11.3 7.6-5.7 16.3-9.8 25.5-12.3C62 55 69 53.9 76 53.5c2.1-.1 4.1-.2 5.8 1.1 1.2.9 1.9 2.1 2.3 3.5.2.7.4 1.5.6 2.2l7.8 30.3c3.8 14.9 7.6 29.8 11.5 44.7 2.8 10.8 5.6 21.7 8.3 32.5.3 1 .5 2 .8 3.1.7 2.9.3 5.7-.5 8.5-2.3 8.5-7.7 15.8-16.2 18.8-6.3 2.3-13.3 2.3-19.9 1.3-1.4-.2-2.9-.5-4.3-.9-2.6-.8-4.6-2.6-6-4.9-.3-.5-.6-1.1-.9-1.6-5.2-9-10.3-18.1-15.5-27.1L27 125.1c-5-8.7-10-17.5-15-26.2-.3-.4-.5-.9-.8-1.3-.4-.9-1.7-.1-1.2.7z"/><path d="M59.5 149.3c-.8.3-1.4.8-1.8 1.5-.4.7-.5 1.4-.6 2.2-.1.7-.1 1.5.1 2.2.3.9.8 1.6 1.6 2 .7.4 1.5.6 2.3.7 1 .1 1.9-.1 2.7-.8 1.1-.9 1.3-2.6 1.2-3.9-.1-.9-.2-1.8-.8-2.5-.6-.8-1.4-1.4-2.5-1.5-.5 0-1 .1-1.4.4-.4.3-.7.7-1 1.2-.4.7-.7 1.4-1 2.1-.2.7-.4 1.6-.3 2.3.1 1.2.7 2.1 1.9 2.5 1.7.6 3.6-.6 4.3-2.1.4-.8.7-1.7.6-2.6 0-.6-.2-1.2-.6-1.7-.5-.5-1.3-.7-2-.5-.9.3-1.6 1.1-2 2-.2.4-.3.8-.4 1.3-.1.6-.1 1.1 0 1.7 0 .3.4.7.7.9.4.2.7.2 1.2.2 1.2-.2 2.1-1.1 2.5-2.1.2-.6.2-1.2.1-1.7-.1-.6-.4-1.1-.8-1.6-.2-.3-.7-.4-1.1-.4-.4 0-.8.2-1.1.4-.3.3-.5.7-.4 1.1 0 .4.2.7.4 1.1-.1-.1-.2-.3-.1-.1 0 0 .1.2 0 0s0 0 0 .1v.2c-.1-.3 0-.3 0-.1 0 .1-.1.2 0-.1v.2c0 .1-.1.3 0 .1-.1.1-.2.1.1-.1l-.1.1s-.2.2 0 0c.2-.1 0 0 0 0-.1 0-.1.1-.2.1 0 0 .3-.1.1-.1-.1 0-.2 0-.2.1.6.3 1.2.7 1.8 1 .1.5 0 .1 0 0v-.3c0-.2-.1.3 0 .1v-.1c0-.1.1-.3.1-.4 0-.1 0-.1.1-.2.1-.2-.1.3 0 .1.1-.1.1-.2.1-.3.1-.1.3-.3 0-.1.1-.1.2-.2.2-.3.1-.2-.1.1-.1.1l.1-.1c-.1.1-.3.1-.5.1-.3 0-.3-.1-.6-.3l-.3-.3c-.1-.2-.1-.3-.1-.2v-.2.7c0 .1-.1.2-.1.3v.1c-.1.2.2-.3 0-.1-.1.1-.1.2-.2.3 0 .1-.2.3-.1.1.1-.2-.1.1-.1.1l-.1.1s-.3.2-.1.1c.2-.1 0 0 0 0-.1 0-.1.1-.2.1l.1-.1s-.1 0-.2.1h-.2.1c-.1 0-.2 0 0 0 .3 0 0 0 0 0-.2 0 .1 0 .1.1l-.1-.1.1.1c0-.1-.1-.2 0 0l.1.1c-.1-.2 0 0 0 .1v-.7.1c.1-.3.1-.5.2-.8 0-.1.1-.3.1-.4 0 0 0-.1.1-.1.1-.2-.1.3 0 .1s.2-.5.4-.7c.1-.2.3-.4.4-.6l-.1.1-.1.1c.1 0 .2-.1 0 0-.1 0-.5.1-.2.1h-.1c.1 0 .1.1-.1-.1.1.1.2.1.3.1.2.1-.2-.2-.1-.1l.1.1.1.1c-.1-.2-.2-.2-.1-.1v.1c.1.1.1.2.1.3.1.2 0-.1 0-.1l.1.2c0 .1.1.3.1.4 0 0 0 .2 0 0v1.1c0 .1-.1.5-.2.6 0 0 .2-.4.1-.1 0 0 0 .1-.1.1 0 0 0 .1-.1.1-.1.2.1-.1.1-.1l-.2.2s.3-.2.2-.1c0 0-.1 0-.1.1-.1.1.3-.1.1-.1h-.1c.1-.1.3 0 .1 0h-.4c-.1 0-.2 0-.3-.1-.1 0-.2-.1-.3-.1h-.1c-.2-.1 0 0 .1 0-.1-.1-.2-.1-.3-.2l-.1-.1c.3.1.2.1 0 0l-.1-.1.1.1s-.1-.1-.1-.2c-.1-.2.1.2 0 .1 0-.1-.1-.3-.1-.4v-1c0-.2-.1.4 0 .1 0-.1 0-.2.1-.3 0-.1.1-.2.1-.3v-.1c.1-.2 0 0-.1.1 0-.1.1-.2.2-.3l.1-.1-.1.1.1-.1-.1.1.1-.1c.2-.1-.3.1-.1 0 .7-.3 1.3-1 1-1.8-.4-.4-1.2-1-2-.7zm3.4-10.9c-.5 1.1-.8 2.3-.7 3.6.1 1.1.7 2.1 1.5 2.8.9.8 2.1 1.1 3.3.8 1.1-.3 2-1 2.6-2 .6-.9.8-2.1.9-3.2.1-.9 0-1.9-.3-2.8-.5-1.2-1.5-2-2.8-2.1-1.1-.1-2.1.4-2.9 1.1-.8.7-1.2 1.8-1.5 2.8s-.5 2.2-.4 3.3c.1 1.2.7 2.4 1.8 3 1.1.7 2.4.6 3.5-.1 1.8-1.2 3.1-3.7 2.6-5.8-.2-1-1-2-1.9-2.5-1.1-.5-2.4-.4-3.5.2-1.1.7-1.8 1.8-2.1 3.1-.2.7-.3 1.4-.1 2 .2.8.8 1.5 1.6 1.7 1.2.3 2.6-.2 3.4-1 .9-.9 1.3-2.1 1-3.4-.1-.6-.7-1-1.2-1.1-.6-.1-1.1.2-1.5.7-.2.2-.3.5-.5.7-.5.6-.1 1.7.5 2.1.8.4 1.5.1 2.1-.5.2-.2.3-.5.5-.7-.9-.1-1.8-.2-2.7-.4-.1-.6 0 .1 0 .1-.1 0 .1-.3 0-.1v.2c-.1.3.1-.2 0 0 0 .1-.1.1-.1.2s-.1.1-.1.2c-.1.2.2-.2 0 0l-.1.1c-.2.2 0 0 .1 0-.1 0-.2.1-.3.2-.2.1.1-.1.1 0l-.2.1c-.1 0-.1 0 0 0s.1 0 0 0c-.3-.1.3.2.3.2.1.1.2.2.2.3.1.3 0 .2 0 .1v-.2.1c0-.2.1-.4.1-.6 0-.2.1-.3.1-.5.1-.3 0 0 0 0l.1-.2c.1-.1.1-.3.2-.4l.2-.2s-.2.2 0 0c.1 0 .1-.1.2-.1.3-.2 0 0-.1 0l.2-.1s.2-.1.2 0H67h.2-.2l.3.1s-.3-.2-.1 0l.2.1s-.2-.2-.1 0l.1.1-.1-.1c0 .1.1.1.1.2.1.2 0 0 0-.1l.1.3v.3c0 .3 0 0 0 0 0 .1-.1.4-.1.5s-.1.2-.1.2c-.1.4.1-.3 0 .1-.1.2-.3.7-.5.8.2-.2.1-.1 0 0l-.2.2-.4.4s.3-.2 0 0c-.1 0-.1.1-.2.1-.2.1 0 0 .1 0 0 0-.2 0-.2.1 0-.1.3 0 .1 0h-.2c.2.2.2 0 .1 0s-.1 0 0 0c.1.1.1 0 0 0-.1-.1-.1 0 .1.1l-.1-.1s-.1-.1-.1-.2c.1 0 .2.3.1 0 0-.1-.1-.1-.1-.2-.1-.2 0 0 0 .1 0 0-.1-.7-.1-.3v-.8c0-.1 0-.3 0 0 .1-.4.1-.8.2-1.2l.3-.9.1-.2s-.2.3 0 0c.1-.2.2-.3.3-.5 0-.1.1-.2 0 0 0-.1.1-.1.2-.2l.1-.1s-.3.2-.1 0c.1-.1.3-.1.4-.2 0 0-.3.1-.1 0 .1 0 .2 0 .2-.1.2-.1-.4 0-.1 0h.2s-.4-.1-.1 0c0 0 .2 0 .2.1 0 0-.3-.2-.1 0 .2.1 0-.1-.1-.1l.1.1c-.1 0-.2-.3 0 0 0 .1.2.2 0 0v-.1c0 .1 0 .1.1.2 0 .1.1.3.1.4v-.1 1.8c0 .1 0 .3 0 0v.2c0 .2-.1.4-.1.5s-.1.2-.1.2c-.1.2.1-.2 0 0-.1.1-.2.4-.3.5.2-.2.1-.1 0-.1l-.2.2c-.1.1 0 .1.1 0 0 .1-.2.1-.2.1-.1 0-.1.1-.2.1-.2.1.3-.1 0 0-.1 0-.1 0-.2.1-.3.1.3 0 0 0h-.2.1-.1c-.2-.1.1 0 .1 0l-.2-.1s-.2-.1-.1 0c.2.1 0 0-.1-.1l-.1-.1c-.2-.2.2.3 0 0 0-.1-.1-.1-.1-.2 0 0 0-.1-.1-.1v.1c-.1-.1-.1-.4-.1-.5-.1-.2 0 .2 0 0v-.6c0-.4-.1.3 0-.1 0-.2.1-.4.2-.6 0-.1.1-.2.1-.2.1-.3-.1.2 0-.1.3-.7.2-1.6-.5-2.1-1.1-.5-2.1-.3-2.4.4zm-16.4-3.5c-1.4 2-1.1 4.7.4 6.6.7.9 1.8 1.5 2.9 1.7 1 .2 2.3.4 3.3.3 5.5-.6 4.2-8.9.3-11-1.2-.7-2.7-.5-3.7.4-.8.7-1.3 1.8-1.6 2.8-.3 1.1-.6 2.3-.5 3.4.1.7.3 1.4.8 1.9s1.2.7 1.9.8h1.5c.6 0 1.2-.1 1.8-.1 1.3-.2 2.4-1.2 2.6-2.5.2-1.2 0-2.4-.6-3.5-.6-1-1.6-2-2.8-2.3-1.5-.3-2.9.5-3.8 1.8-.4.6-.6 1.3-.8 2s-.3 1.5.1 2.2c.9 1.6 3 1 4.3.3s2.2-2.3 1.7-3.8c-.3-.9-1.3-1.4-2.2-.9s-1.5 1.3-1.8 2.3c-.3.7.3 1.7 1 1.8.8.2 1.6-.3 1.8-1 .1-.4-.2.2 0-.1 0-.1.3-.3 0-.1l.3-.3c-.2.2 0 0 .1 0-.7-.3-1.5-.6-2.2-.9.1.3 0 0 0 0v-.1c0 .1 0 .2-.1.2 0-.1.1-.2 0 0-.1.1-.2.1 0 0l-.1.1c-.1.1.2-.1 0 0-.1 0-.2.1-.3.2.2-.1 0 0 0 0-.1 0-.2.1-.3.1-.2.1-.4.1-.5.2-.2.1 0 0 0 0h.1c.5.1.8.3.9.7.1.4.1.2.1.1 0-.2-.1.3 0 0 .1-.4.1-.7.3-1.1 0 0 .1-.3.1-.2-.1.2.1-.1.1-.1 0-.1.1-.2.2-.2.1-.2-.2.2.1-.1l.2-.2c-.1 0-.2.1 0 0 .1 0 .2-.1 0 0 .1 0 .1 0 .2-.1.2-.1-.2 0 0 0s-.2-.1 0 0c0 0 .3.1.2 0s.2.1.2.1c.1 0 .2.2 0 0l.2.2.2.2c-.1-.1 0 .1.1.1 0 .1.1.1.1.2s.1.1.1.2c.2.3-.1-.3 0 .1 0 .1.1.3.1.4v.6c0-.3 0-.1 0 0-.1.4.1-.2 0 .1 0 0-.1.2 0 0 .2-.2-.2.1 0 0s-.2.1 0 0-.1 0-.1 0h-.2c.3-.1.1 0 0 0h-.7c-.4 0-.8 0-1.2.1h-.7c-.4 0 .2.1 0 0s.2.1 0 0 .1.1.1.1.1.3.1.2v-.2c.1.2 0 .2 0 0v-.9c0-.1 0-.2.1-.3 0-.2.1-.4.1-.5.1-.4.2-.8.4-1.2 0 0 .1-.3 0-.1s0-.1 0-.1c.1-.1.1-.2.2-.4 0-.1.1-.1.1-.2-.2.2-.1.1 0 0l.2-.2c.2-.2-.1.1 0 0 0-.1.3-.1.1 0-.2 0 0 0 0 0-.4 0-.1 0 0 0 .3 0 0 0 0 0 .1 0 .2 0 .2.1-.1 0-.2-.1 0 0 .1.1.2.1.2.1-.2-.1 0 0 .1.1l.3.3.2.2c-.2-.2 0 0 0 0 .2.3.4.6.5.9.1.3 0 .1 0 0 0 .1.1.2.1.3.1.2.1.3.2.5 0 .2.1.4.1.5s0 .3 0 0v1.3c0-.1.1-.3 0 0 0 .1 0 .2-.1.2 0 .1-.2.5 0 .2-.1.1-.1.3-.2.4.1-.1.2-.2 0 0-.1.1-.2.1 0 0-.1 0-.2.1-.2.1s.2-.1.1 0c-.1 0-.2 0-.3.1h-1.3c-.2 0-.4 0-.7-.1-.2 0 .2 0 0 0-.1 0-.2 0-.4-.1-.2 0-.4-.1-.6-.2 0 0-.3-.1-.2-.1.1.1-.2-.1-.2-.1-.1 0-.1-.1-.2-.1 0 0-.3-.2-.1-.1.1.1 0 0 0 0l-.3-.3-.2-.2c.1.1.1.1 0 0-.1-.2-.2-.4-.3-.5 0 0 .1.2 0 .1 0-.1-.1-.2-.1-.3s0-.2-.1-.2c-.1-.4 0 .2 0-.1v-.6c0-.3 0-.1 0 0 0-.1 0-.2.1-.3 0-.1 0-.2.1-.3 0-.1.1-.3 0-.1l.3-.6c.4-.6.1-1.7-.5-2.1-.7.3-1.6.5-2 1.2zM80.6 149c-.8.9-1.3 2.1-1.2 3.3 0 1.1.5 2.2 1.2 3.1 1.5 1.8 4.4 2.1 6.5 1.2 2.1-1 2.8-3.7 2.1-5.7-.3-1-.9-2.1-1.7-2.7-1-.8-2.1-1-3.3-.8-2.1.4-3.5 2.3-3.9 4.2-.2 1-.3 2.2-.1 3.2.2 1.4 1.4 2.2 2.8 2.4 2.1.2 4-1.4 4.6-3.3.3-1.2.1-2.7-.9-3.5-1.2-.9-2.8-.7-3.8.3-1 .9-1.4 2.4-1 3.6.3.8.8 1.5 1.6 1.7.8.2 1.5 0 2.2-.4 1-.6 1.9-1.6 2.1-2.8.2-1.5-.3-2.8-1.5-3.7-.6-.5-1.7-.1-2.1.5-.4.8-.1 1.6.5 2.1-.3-.2-.1-.1-.1-.1l.1.1c.1.1.1.1 0 0l-.1-.1.1.1c.2.3 0 0 0 0s.1.3.1.4c-.1-.2 0-.3 0-.1v.3c0-.2.1-.3 0-.1 0 .1 0 .1-.1.2-.1.3 0-.1 0-.1l-.1.2s-.1.2 0 .1c.1-.2-.1.1-.1.1l-.1.1c-.2.2.3-.1 0 0-.1.1-.2.1-.4.2-.3.1.1 0 .1 0l-.2.1h.4c.1 0 .1.1.2.1.2.1.2.2.1.1s.2.3.1.1c-.1-.1.1.3 0 0 0-.1-.1-.3 0 0 .1.2 0 0 0-.1v.1-.2s0-.2.1-.2c-.3.2 0 .2 0 .1 0 0 0-.1.1-.1l-.1.1.2-.2c-.2.1-.2.1 0 .1.3-.2-.2 0 0 0 .1 0 .3-.1.1 0-.3.1.1-.1.1 0h-.1c-.1 0-.1 0 0 0 0 0 .3.2 0 0-.1-.1-.2-.1-.2-.2.1.1.1.1 0 0 0-.1 0-.1 0 0v.4c0 .3.1-.3 0-.1 0 .1-.1.3-.1.4-.1.2 0-.1 0-.1l-.1.2c0 .1-.1.1-.1.2-.1.2.1-.1.1-.1s-.2.3-.3.3l-.1.1c-.2.2.2-.1 0 0-.1.1-.3.2-.4.2-.2.1.3-.1.1 0-.1 0-.1 0-.2.1 0 0-.2 0-.2.1h.1-.4c0-.1.3.1.1 0-.1 0-.1 0-.2-.1.1 0 .1.1.2.1 0 0-.1-.1-.2-.1-.3-.1.2.2 0 0l.1.1c-.1-.2 0 .3 0 .1s-.1-.1 0 0v-.8c0-.3 0-.6.1-1 0-.2-.1.3 0 .1v-.2c0-.2.1-.4.1-.5 0 0 .2-.4.2-.5 0 0-.2.3 0 .1 0-.1.1-.1.1-.2.1-.1.2-.3.3-.4.1-.2-.2.2 0 .1l.2-.2.2-.2-.1.1c.1-.1.2-.2.4-.2.1 0 .1-.1.2-.1-.2.2-.2.1-.1 0 .2 0 .3-.1.5-.1.3-.1-.1 0-.1 0h.4c.2 0-.3-.1-.1 0 .1 0 .2 0 .2.1.2 0 0 .1-.1-.1l.2.1s.1 0 .1.1c.1.1.1 0-.1-.1.1 0 .2.2.3.3.2.2 0 0 0 0l.1.2c.1.1.2.3.3.4 0 .1.1.2.1.3.1.3 0-.1 0 0 .1.2.1.3.2.5 0 .1 0 .2.1.2.1.3 0 0 0 0 .1.1 0 .4 0 .5v.3c0 .2.1-.3 0 0 0 .1-.1.3-.1.4-.1.2.2-.3 0 0 0 .1-.1.1-.1.2 0 0-.1.1-.1.2 0 0 .2-.3 0-.1l-.1.1c-.2.2.3-.1 0 0-.1 0-.1.1-.2.1-.3.2.2-.1-.1 0-.1 0-.2 0-.2.1 0 0-.5.1-.1 0-.4.1-.8.1-1.2 0-.2 0 0 0 0 0l-.3-.1c-.1 0-.2 0-.2-.1-.1 0-.1 0-.2-.1h.1c-.1 0-.3-.2-.5-.3s0 0 .1 0c-.1 0-.2-.2-.2-.2s-.1-.1-.1-.2c-.2-.2.1.3 0 0-.1-.1-.2-.3-.3-.4-.1-.2 0 .1 0 .1l-.1-.3v-.2c-.1-.3 0 .2 0 0v-.6c0-.2-.1.4 0 0 0-.1 0-.2.1-.3 0-.1 0-.2.1-.3-.1.1-.1.2 0 0 0-.1.1-.2.1-.2.1-.3-.2.2 0 0 .5-.6.6-1.5 0-2.1-1.2-.6-2.3-.8-2.8-.1zM78 183.9c.1 0 .1-.1.2-.1-.2.1-.3.1-.2.1.2-.1.3-.1.4-.1.2-.1.4-.1.7-.1-.1 0-.3 0-.4.1.4-.1.8-.1 1.3 0-.1 0-.3 0-.4-.1.2 0 .5.1.7.2.1 0 .2.1.3.1-.1 0-.3-.1-.1 0 .1 0 .1.1.2.1l.1.1-.1-.1.1.1c.1.1-.1-.2-.1-.1 0 0 0 .1.1.1.1.1-.1-.3-.1-.2s.1.2.1.3c0-.1 0-.3-.1-.4v.5c0-.1 0-.3.1-.4 0 .2-.1.3-.1.5.1-.2.1-.3.1-.2 0 0 0 .1-.1.1 0 .1-.1.1-.1.2-.1.2.3-.3 0 0l-.2.2.1-.1-.1.1c-.1.1-.2.1-.3.2-.1 0-.2.1-.3.1-.3.1.3-.1 0 0-.2.1-.4.1-.6.2-.4.1-.8.2-1.3.3.1 0 .3 0 .4-.1H78c.1 0 .3 0 .4.1-.2 0-.1 0 .1.1l.1.1c0 .1.1.1.1.2 0 0 0-.1-.1-.1 0-.1-.1-.2-.1-.2.2.4 0 .1 0 0l-.3-1.2c0 .1 0 .3.1.4v-1.1c0 .1 0 .3-.1.4 0-.2.1-.3.1-.5 0-.1 0-.1.1-.2.1-.2-.2.3 0 .1 0-.1.1-.3.2-.4l-.1.1s.1-.1.1-.2l.1-.1c.2-.2-.3.2-.1.1.1-.1.2-.1.3-.2.2-.1-.1 0-.1.1l.2-.1c.1 0 .3-.1.4-.1-.1 0-.3 0-.4.1h.5c-.1 0-.3 0-.4-.1.1 0 .2 0 .3.1.2.1.1.1-.1-.1l.1.1c.2.1-.1-.1-.1-.1l.2.2s.1.1.1.2c-.1-.2-.2-.2-.1-.1l.1.1c.2.3.3.5.4.8 0 .1.1.2.1.3-.1-.1-.1-.3 0-.1s.1.3.1.5c0-.1 0-.3-.1-.4v.5c0-.1 0-.3.1-.4 0 .1 0 .3-.1.4 0 0 .2-.4 0-.1l.1-.1-.1.1.1-.1c-.2.2.1-.1.1 0h-.2c.1 0 .3 0 .4-.1h-.2c.1 0 .3 0 .4.1h-.2c-.3-.1.3.2.1 0-.2-.1.3.2.1 0l-.2-.2s.2.3.1 0c-.1-.2.1.3 0 0 0-.2-.1-.4-.1-.5 0 .1 0 .3.1.4 0-.4-.1-.8 0-1.2 0 .1 0 .3-.1.4 0-.2 0-.1-.1.1s-.2.3-.3.4c-.1 0-.2.1-.2.1h.1c-.1 0-.3 0-.4.1h.2c-.1 0-.3 0-.4-.1h.1c.2 0-.3-.1-.2-.1.1 0 .2.1 0 0l-.1-.1.1.1s-.2-.3-.1-.2l.1.1s-.1-.4-.1-.2v.2c0-.1 0-.3-.1-.4v.3c0-.1 0-.3.1-.4 0 .2-.2.3.1-.1-.1.2.3-.3.1-.1-.1.1 0 0 .2-.1-.1.1-.1.1.2-.1-.1 0-.2.1-.3.1.1 0 .3 0 .4-.1h-.3c.1 0 .3 0 .4.1h-.1c.2.1.3.1.2.1-.2-.1.3.3.1.1.1.2.2.3.1.2 0 0 0-.1-.1-.1.1.3.1.3.1.2v-.1c0 .1 0 .3.1.4v-.3c0 .1 0 .3-.1.4 0-.1.1-.3 0 0-.1.2 0 0 0 0 .4-.7.2-1.7-.5-2.1-.7-.4-1.6-.2-2.1.5-.6 1-.4 2.3.4 3.1.9.8 2.3.9 3.2.1.8-.6 1.2-1.8.8-2.8-.4-1.1-1.4-1.9-2.6-1.7-.8.1-1.4.6-1.7 1.4.1.3.1.9.2 1.4 0 .9.3 2 1.1 2.7.9.7 2.2 1 3.2.3.9-.6 1.4-1.7 1.3-2.7s-.5-1.9-1.1-2.7c-.5-.8-1.3-1.4-2.2-1.6-1.7-.3-3.6.5-4.3 2.1-.4.9-.6 1.8-.5 2.7s.3 1.9.8 2.7c.4.7 1 1.1 1.8 1.1.5 0 1-.1 1.4-.2.8-.2 1.6-.4 2.3-.9.8-.5 1.4-1.3 1.7-2.2.3-.9.2-1.9-.3-2.7-1.1-1.7-3.6-2.1-5.5-1.7-.5.1-.9.3-1.3.5-.7.3-1 1.4-.5 2.1.5.7 1.4.9 2.1.5zM99.3 159c-1.6 1.5-2.5 3.6-2.4 5.7 0 1.1.4 2.3 1.3 3.1.8.7 1.9 1 3 1.1s2.3-.1 3.3-.6 1.7-1.5 2.1-2.6c.8-2 .2-4.5-.7-6.4-.4-.9-1.1-1.8-2.1-2.1-1.3-.3-2.4.3-3.2 1.3-.7.8-1.3 1.8-1.8 2.7-.5 1-1.2 2.3-.9 3.5.4 1.3 1.8 1.7 3 1.7 1.1 0 2.2-.2 3-.9 1.6-1.2 2-3.6.8-5.3-.8-1.2-2.4-1.9-3.7-1.1-1.4.8-1.6 2.3-1.4 3.8.1.8.5 1.6 1.3 1.9.8.3 1.8 0 2.4-.6.9-.9 1.4-2.3 1.3-3.5-.1-.8-.6-1.5-1.5-1.5-.8 0-1.6.7-1.5 1.5v.4c0 .1 0 .2-.1.3 0 .1-.1.4 0 .2-.1.2-.2.3-.3.5 0-.1.2-.2 0 0-.1.1-.1.1 0 0 .1 0 .1-.1.2-.1 1.8-.7 1.3 1.3 1.2.6 0-.1 0-.2-.1-.2 0 0-.1-.4 0-.2v-.4c0 .2 0 .1 0 0 0 0-.1.2 0 .1.2-.3 0 0-.1.1.1-.1.2 0 0 0h-.2c-.2-.1 0-.1 0 0l-.1-.1.1.1c.1.2-.1-.3-.1-.1l.1.1.1.2s-.1-.3-.1-.1v.2c0 .1.1.3 0 .1s0-.1 0 0v.5c0-.1.1-.3 0-.1v.3c.1-.2.1-.2 0-.1v.1l-.1.1c.1-.2.1-.1 0 0l-.1.1.1-.1-.2.1c.2-.1-.1 0-.1 0-.1 0-.2 0-.2.1h-.2c.3-.1.1 0 0 0h-.8c-.1 0-.3-.1-.1 0h-.1c-.2 0 .2.1 0 0s.3.3.3.3.2.5.1.6l.1-.2c.1-.2.1-.3.2-.5 0 0 .1-.2 0-.1 0 .1.1-.2.1-.2.3-.6.6-1.3 1-1.8.1-.1.2-.2.3-.4.2-.2.1-.1 0-.1 0-.1.1-.1.1-.2.1-.1.2-.3.3-.4l.1-.1.1-.1s.2-.1 0 0 .2 0 0 0c-.1 0-.2 0-.3-.1h.1l-.1-.1.2.2c-.1-.1-.1-.2 0 0 .1.1.1.2.2.4 0 .1.1.1.1.2 0 0-.1-.3 0 0s.2.7.3 1c.1.4.2.7.3 1.1 0 .1.1.4 0 .2v1.3c0 .1-.1.3-.1.4 0 .1 0 .1-.1.2 0-.1.1-.1 0 0s-.2.3-.2.4c-.1.2.2-.2 0 0l-.1.1-.1.1c-.1.2.2-.1 0 0-.1 0-.1.1-.2.1 0 0-.1 0-.1.1.1 0 .1 0 0 0-.1.1-.3.1-.4.1s-.5.1-.3.1h-1.2c-.3 0 .1 0 0 0-.2 0-.3-.1-.5-.1-.1 0-.1 0-.2-.1.1 0 .2.1 0 0-.1 0-.1-.1-.2-.1.1 0 .2.1 0 0l-.2-.2c.1.1.1.2 0 0 0-.1-.1-.3 0 0 0-.1-.1-.2-.1-.3 0 0 0-.3 0 0V164c0-.2.1-.4.1-.5 0-.2.1-.4.2-.5 0-.1 0-.1.1-.2.1-.2-.2.3 0-.1.2-.3.3-.6.5-.9.1-.2-.1.1 0 0l.2-.2c.1-.2.3-.3.4-.4.6-.5.6-1.6 0-2.1-.6-.6-1.5-.6-2.1-.1zm-29.8 1.7c-.6 1.4-1.1 2.9-.1 4.3.9 1.3 2.9 1.5 4.3.9 2.8-1.1 3.3-5.7.5-7.1-1.4-.7-3.1-.3-4 1.1-.3.5-.5 1.1-.6 1.7-.1.9-.2 1.8.2 2.6.7 1.4 2.4 2 3.8 1.2s1.8-2.4 1.8-3.9c0-.9-.3-1.8-1.1-2.3-.9-.5-2-.3-2.7.3-.6.6-.9 1.5-.8 2.4s.3 1.8 1.1 2.3c.5.3 1.4.3 1.8-.2.8-1 1.2-2.4.7-3.7-.4-1-1.3-1.3-2.2-.9-.6.3-1.1.9-1.3 1.6-.2.7-.1 1.4.2 2.1.2.4.8.8 1.3.7 1.7-.2 2.3-1.6 2.4-3.1s-.9-3-2.5-3c-1.7 0-2.7 1.5-2.9 3.1-.1.6-.1 1.2 0 1.8.3.9 1.1 1.4 1.9 1.6 1.4.3 2.9.4 4.1-.4 1.2-.8 2-2.2 1.6-3.7-.8-2.6-4.4-3.6-6.7-3.1-1.5.3-2.4 1.6-2.6 3-.1 1.3.5 2.6 1.4 3.5.9 1 2.1 2 3.4 2 1.6.1 2.8-1.1 3.3-2.5.9-2.3 0-6.2-3.1-6-2.6.1-4.5 3-4.3 5.4.1 1.4.8 2.6 2.1 3.2 1.2.6 2.6.8 3.9.5 1.4-.3 2.5-1.4 2.8-2.8.3-1.4-.1-2.8-.9-4-.7-1.1-1.8-2.1-3.1-2.4-1.4-.3-2.9.2-3.8 1.3-1.7 2.2-1.9 5.4-.1 7.6 1.6 2 4.9 2.3 6.6.2.9-1.1 1.1-2.4 1.1-3.8 0-1.3-.1-2.7-.9-3.8s-2-1.9-3.2-2.3c-1.5-.5-2.9-.1-3.9 1-.9.9-1.5 2.1-2.1 3.2-.6 1.4-1.3 3-.6 4.4.6 1.2 2 1.7 3.2 2.2 1.3.5 2.7.9 4.1.7 2.5-.4 4.2-2.8 4-5.3-.1-1.3-.5-2.5-1.3-3.5-.8-1.1-1.7-2.3-3-2.8s-2.9 0-4 .8c-1.1.7-2 1.8-2.4 3-.5 1.3-.3 2.8.3 4 .3.7 1.4.9 2.1.5.7-.5.9-1.3.5-2.1.1.2 0 0 0 0 0-.1-.1-.2-.1-.3 0 0-.1-.4 0-.2v-.8c0-.1.1-.3.1-.4 0-.2-.1.2 0 0 0-.1.1-.2.1-.2 0-.1.1-.2.1-.2s.2-.3.1-.1l.1-.2.2-.2.2-.2s.3-.2.2-.1c-.1.1.1 0 .1-.1.1-.1.2-.1.3-.2.2-.1.3-.2.5-.2-.1 0-.3.1 0 0 .1 0 .2-.1.3-.1 0 0 .3-.1.1 0h.2c.1 0 .3.1 0 0 .1 0 .2.1.2.2-.2-.1.2.2.3.2.3.3.6.6.8.9-.2-.2 0 0 0 0 .1.1.1.2.2.2.1.2.2.3.3.5 0 .1.1.2.1.2l.1.2c-.1-.2 0 .1 0 .1 0 .1.1.2.1.3 0 .2.1.4.1.5-.1-.4 0 .2 0 .3v.4c0 .1-.1.2-.1.4 0 .1-.1.2-.1.2-.1.2.1-.2 0 0-.1.1-.1.3-.2.4-.1.1-.2.3 0 0l-.2.2-.2.2c.1-.1.1-.1 0 0-.1 0-.1.1-.2.1-.2.1.3-.1-.1 0-.2.1-.4.1-.6.1h-.6c-.4 0 .3.1-.2 0-.9-.2-1.6-.5-2.4-.8-.2-.1-.3-.1-.4-.2-.1 0-.4-.3-.2-.1-.1 0-.1-.1-.2-.2l.1.1s0-.1-.1-.1c-.2-.1 0-.1 0 0v-.4c0-.1.1-.2.1-.3.1-.2.2-.4.2-.7.1-.2-.1.2 0-.1 0-.1.1-.2.1-.3l.3-.6c.2-.4.4-.8.7-1.1.1-.2.3-.4.4-.6 0 0-.2.2 0 0 .1-.1.1-.2.2-.2l.2-.2c-.1.1-.1.1 0 0 0 0 .3-.2 0 0 .1 0 .2-.1.2-.1-.1 0-.3 0 0 0-.1 0-.3-.1 0 0 .2.1.5.1.7.2 0 0 .3.1 0 0 .1 0 .2.1.3.1.2.1.3.2.5.3s.1.1 0 0l.2.2.2.2c.3.3-.1-.2.1.1 0 .1.1.2.1.3-.1-.2 0 0 0 0 .1.2.1.4.2.6 0 .1 0 .2.1.3 0-.3 0 0 0 0v1.9c0 .1 0 .2-.1.3 0 .1 0 .2-.1.3 0 .1-.1.3 0 .1-.1.1-.1.2-.2.3-.1.2.1-.1 0 0-.1 0-.1.1-.2.2-.1.2.2-.1 0 0-.1 0-.1.1-.2.1-.2.1.3-.1 0 0-.1 0-.2 0-.2.1h-.5c-.2 0 .3.1 0 0-.1 0-.2 0-.2-.1-.1 0-.2-.1 0 0-.1 0-.2-.1-.2-.1-.1 0-.1-.1-.2-.1-.3-.2.1.2-.1-.1-.1-.1-.2-.2-.3-.4.2.2-.1-.1-.1-.2s-.1-.2-.1-.2c.1.2 0 .1 0 0-.1-.2-.1-.4-.2-.7v-.6c0-.2.1-.4.1-.6 0-.1.1-.2.1-.3s.2-.4.1-.2c.1-.2.2-.3.2-.5 0-.1.1-.1.1-.2l.1-.1.2-.2c.1-.1-.2.1 0 0 0 0 .3-.2.1-.1-.2.1.2 0 .2-.1-.3.1 0 0 .1 0h.1c-.2 0 .4.2.3.1-.2-.1.1.1.1.1.1.1.2.1.3.2-.2-.2.2.2.2.3l.1.1.1.1c.1.2.2.4.3.5 0 .1.1.2.1.3 0 0 .1.3 0 .1.1.2.2.5.2.7v.3c0-.1.1-.3 0 0 0 .1 0 .2-.1.3 0 .1-.1.2 0 0 0 .1-.1.2-.1.2.1-.2 0-.1 0 0-.3.3.2-.1-.1.1-.1 0-.3.1 0 0-.1 0-.2.1-.3.1-.1 0-.2 0-.3.1.3-.1.1 0 0 0H72c-.2 0-.3-.1-.5-.2.3.1-.1-.1-.2-.1.3.2-.3-.3-.1-.1l-.1-.1c-.1-.1-.1-.2-.1-.3.2.3 0-.2 0-.3-.1-.2 0 .3 0 0v-.4c0-.2-.1.2 0 0s.1-.4.2-.6c0-.2-.1.2 0 0 0-.1.1-.2.1-.2.1-.2.2-.3.3-.5-.2.3.1-.1.2-.2l.2-.2c-.2.1 0 0 .1 0 .1-.1.2-.1.3-.2-.1 0-.3.1 0 0 .1 0 .3 0 0 0h.2c-.1 0-.3 0 0 0-.1 0-.2-.1 0 0-.2-.1-.1-.1 0 0 .2.2-.1-.2 0 .1 0 .1.1.1.1.2 0-.1-.1-.3 0 0 0 .2.1.3.1.5-.1-.3 0 .1 0 .2v.7c0-.3 0 0 0 0 0 .1 0 .2-.1.3-.1.3 0 .1 0 .1 0 .1-.1.2-.1.3-.2.3.1-.1 0 .1l-.1.1c.1-.1-.1 0-.1.1-.1.1.2 0-.1 0 .3-.1.1 0 0 0h-.1c-.2 0 .2.1 0 0-.1-.1-.2-.1-.2-.1s-.3-.2-.1-.1l-.1-.1c-.2-.2-.4-.3-.5-.5l-.4-.4-.2-.2c-.2-.2.1.3-.1-.1 0-.1-.3-.5-.2-.3 0-.1-.1-.1-.1-.2 0 0-.1-.4 0-.1v-.2c0-.1 0-.3 0 0 0-.1 0-.2.1-.2 0-.1.1-.2 0 0 0-.1.1-.1.1-.2 0 .1-.2.2 0 0 .4-.2-.3 0 .1-.1.1 0 .3 0 0 0h1.2c-.3 0-.1 0 0 0 .2 0 .4.1.7.1.2 0 .3.1.5.2-.3-.1 0 0 0 0 .1 0 .2.1.2.1.1 0 .1.1.2.1.3.2-.1-.1.1 0l.2.2.1.1c.1.1.1.2.1.2-.2-.3 0 0 0 0v-.2c0 .1 0 .2 0 0v.1c0 .2.1-.2 0 0l-.1.1c.1-.2-.1.1-.1.1.1-.1.1 0-.1 0 0 0-.3.1-.1.1.2-.1-.1 0-.2 0 0 0-.3.1-.2 0h-.9c-.1 0-.3 0-.4-.1-.1 0-.2-.1-.3-.1-.2 0-.1-.1 0 0s.5.5.4.7v-.9c0-.3 0-.1 0 0 0-.1.1-.3.1-.4 0 .1-.1.2 0 0-.1.1-.1 0 0 0 0 0-.3.2 0 0 .2-.1 0 0 0 0 .3-.1 0 0-.1 0h-.1c-.1 0-.2-.1-.3-.1-.1-.1-.2-.4-.1-.2-.1-.4 0 .1 0 .2s-.1.5 0 .2v.2s-.1.4 0 .1c.1-.2-.1.1 0-.1.3-.2.2-.3.7-.3.4.2.9.5 1.3.7.1.1.1.2.1.2 0 .1 0 .1 0 0v.1c0-.1 0-.1-.1.1.2-.2-.2.2 0-.1-.1.2-.1.1.1 0-.7-.3-1.5-.6-2.2-.9 0 .1.1.6.1.2v.4c0-.3 0 .1-.1.1.1-.4-.2.3 0 0 .6-.1 1.2-.2 1.8-.2.1 0 .4.4.4.5v-.4c0 .3 0 0 0 0v-.2c0-.2-.1.2 0 0v.1c-.1.1-.1.2-.2.2.2-.2 0 0-.1 0-.2.1-.5 0-.7-.1s-.2-.2-.3-.3c-.1-.1 0 0 0 0s0-.3 0 0v.8c0 .2 0 0 0 0 0 .1 0 .2-.1.3 0 .1 0 .1-.1.2-.1.2.1 0 0 0l.1-.1-.1.1c-.1.2.2-.1 0 0s.2-.1 0 0 .3 0 0 0h.1c.1 0 .2.1.3.2 0 0-.2-.1 0 0 .1.1 0 0 0 0-.1-.2 0 0 0 0 0-.1 0-.1-.1-.2 0-.1 0-.1 0 0v-.5c0-.1 0-.3.1-.4 0-.1.1-.3.1-.4 0 .1-.1.2 0 0 0-.1.1-.1.1-.2-.1.1 0 .1 0 0l-.1.1c.1-.1-.1 0-.1 0 .2-.1 0 0-.1 0 0 0 .2 0 0 0h.1c.1 0 .1 0 .2.1-.1 0-.2-.1 0 0 .3.2 0 0 0 0s.2.2 0 0c-.1-.1.2.4.1.1 0 .1.1.2.1.3v.4c0 .1 0 .2-.1.3 0 .1 0 .1-.1.2-.1.2.1-.2 0 0 0 0-.2.3-.1.2l-.1.1c-.1.1.2-.1 0 0s.2 0 0 0c0 0-.3.1-.1.1h-.8c-.1 0 .1.1 0 0-.2-.1.1.1.1.1.2.1-.1-.1 0 0s0 0 0-.1c0-.2 0 .2 0 0v-.2c.1.3 0 .1 0 0 0-.2 0 0 0 0 0-.1.1-.3.1-.4 0-.1 0-.2.1-.2l.1-.2c.3-.7.2-1.6-.5-2.1-.5 1.2-1.5 1.3-1.9 2zm5.4-41.8c-1.3-.1-2.8.2-3.5 1.5-.4.7-.5 1.4-.2 2.1.2.7.5 1.4 1 1.9.9.9 2.4 1.1 3.6.7 1.3-.4 2.3-1.4 2.4-2.8.1-1.3-.7-2.6-2-3-.6-.2-1.2-.1-1.8 0-.6.1-1.2.3-1.7.7-1.3 1-1.6 2.8-.4 4 1 1 2.5 1 3.8.5.8-.3 1.6-.7 1.9-1.6s-.2-1.9-1-2.4-1.8-.4-2.6 0c-.7.3-1.4.8-1.5 1.6-.1.8.2 1.6 1 1.8 1.2.4 2.4 0 3.3-.8.6-.5.5-1.6 0-2.1-1-1-2.6-1-3.6 0-.5.5-.5 1.2-.2 1.8.6 1.2 2.2 1.2 3.3.9 1.3-.4 2.3-1.6 1.9-3.1-.2-.7-.7-1.2-1.3-1.5-.9-.4-1.7-.4-2.4-.2-.7.1-1.3.3-1.8.7-.7.7-.7 1.6-.5 2.4.2 1.1.6 2.2 1.5 2.9 1 .8 2.5 1.2 3.7.3 1.1-.8 1.6-2.2 1.5-3.5 0-1.1-.3-2.3-.9-3.2-.8-1.2-2.2-1.6-3.6-1.1-1.1.4-1.9 1.3-2.4 2.4-.5 1.2-1 2.6-.3 3.9.6 1.2 2 1.7 3.3 1.6 1.1-.1 2.4-.6 3.2-1.5.9-1 1.1-2.5.3-3.6-1.3-1.8-3.9-2.2-5.8-1.2-2.2 1.1-2.4 4.1-1.1 6.1.8 1.2 2.1 1.8 3.6 1.5 1.3-.2 2.3-1.1 3-2.1s1.1-2.2.9-3.4c-.2-1.3-1.2-2.3-2.4-2.7-2.2-.7-4.9.2-6.1 2.2-1.3 2.1-.4 5.2 2.1 5.9 1.2.3 2.4 0 3.5-.4 1.1-.5 2.2-1.1 2.9-2.1.6-.9.8-2.2.7-3.2-.1-.8-.3-1.4-.8-2-.3-.4-.8-.7-1.2-.9-1.2-.5-2.4-.7-3.7-.8-1.2-.1-2.6 0-3.5.9s-.9 2.3-.9 3.5.1 2.4.7 3.5c1.2 2.3 4 2.7 6.1 1.7 1-.5 1.8-1.3 2.4-2.2.6-.9 1.2-2 1.2-3.2 0-1.4-1.1-2.5-2.2-3.3-.9-.6-2.1-1-3.1-.9-1.2.1-2.3.5-3.1 1.4-.5.6-.6 1.6 0 2.1s1.5.6 2.1 0l.2-.2c.2-.3-.2.1 0 0 .1-.1.3-.1.4-.2.2-.1-.3.1 0 0 .1 0 .1 0 .2-.1.1 0 .1 0 .2-.1.3-.1-.3 0 0 0h.5c.2 0 .3.1.5.2s-.2-.1 0 0c.1.1.2.1.3.2.1 0 .1.1.2.1l.1.1c-.2-.1.1.1.1.1l.2.2c.1.1.3.4.2.1 0 .1.1.1.1.2 0 0 .2.4 0 .1.1.2 0 .1 0 0 .1.3 0 0 0 0 0 .1-.1.4-.2.5-.1.2.1-.2 0 0 0 .1-.1.1-.1.2-.1.2-.2.3-.3.5-.1.2-.2.3-.3.4l-.1.2s.2-.3 0 0c-.2.2-.4.6-.7.7.3-.2-.1 0-.2.1-.1 0-.2.1-.2.1s-.3.1-.1 0c.2-.1-.1 0-.1 0-.1 0-.1 0-.2.1h-.2c-.3.1.3 0 0 0h-.4c-.2 0 0-.1.1 0h-.2c-.1 0-.1 0-.2-.1-.3-.1.2.1 0 0-.1 0-.1-.1-.2-.1-.2-.1-.1 0 0 0-.1 0-.2-.1-.2-.2l-.1-.1c.1.2 0 0 0-.1-.1-.1-.1-.2-.1-.2l-.1-.2s.1.4 0 0c-.1-.2-.1-.4-.1-.5v-.2c0 .3 0 0 0 0v-2.1c0-.3-.1-.1 0 0-.1-.1.1-.3.1-.4 0 0-.1.3 0 .1.1-.2 0 0-.1.1.1-.2 0 0-.1 0 .2-.2-.2 0 .1 0 0 0 .2-.1.2 0h-.1.6c.4 0 .8 0 1.2.1.3 0-.4-.1.1 0h.3c.2 0 .4.1.5.1.2 0 .3.1.5.1.1 0 .2 0 .3.1.2.1.1.1 0 0 .1.1.3.2.4.2.2.1-.2-.2-.1 0 .1.1.2.3 0 0 .1.1.2.1 0-.1l.1.2c.1.2 0-.1 0-.1v1c.1-.3 0-.1 0 0 0 .2-.1.3-.1.5-.1.2.1-.2 0 0-.1.1-.1.2-.2.3-.1.2.2-.2 0 0l-.2.2c-.1.1-.1.2-.2.2 0 0 .3-.2 0 0-.1.1-.3.2-.4.2-.1.1-.4.3-.5.3.2 0 .2-.1 0 0-.1 0-.1.1-.2.1-.2.1-.4.1-.6.2-.2 0-.3.1-.5.1-.2.1.3 0 0 0H74c-.2 0 .3.1 0 0l-.2-.1s.3.2.1 0l-.2-.1c.1 0 .2.2.1 0l-.1-.1c-.2-.2 0 .1 0 .1-.1 0-.1-.2-.2-.3-.2-.3 0 .1 0 .1l-.1-.2c-.1-.4 0 .3 0-.1v-.3s-.1.4 0 .1c0-.1 0-.1.1-.2v-.1c.1-.2 0-.1 0 0 0-.1.2-.3.2-.4.2-.3 0 0 0 0s.1-.1.1-.2l.2-.2s.3-.2.1-.1c-.2.1.1 0 .1-.1.1-.1.2-.1.3-.1.3-.2-.2 0 0 0 .1 0 .2-.1.2-.1.1 0 .4-.2.5-.1 0 0-.4 0 0 0h.8c.2 0 0 .1-.1 0h.2c.1 0 .1 0 .2.1.3.1-.2-.1 0 0 .1 0 .1.1.2.1s.2.2.1 0 .1.1.1.1c0-.1-.1-.2 0 0s-.1-.3 0-.1c0 .1.1.2.1.3v-.1.1s0 .2-.1.2c0 0 0 .2-.1.2.1-.2.1-.2 0 0 0 0 0 .1-.1.1-.1.1-.2.3-.2.4 0 0-.2.3-.1.1.1-.2 0 0-.1.1l-.4.4s-.2.2 0 0c-.1.1-.2.1-.3.2l-.2.1s.3-.1 0 0l-.2.1s.3 0 0 0h-.2c.3.1.1 0 0 0h-.1c.2.1.2.1.1 0-.2-.2-.1 0 0 0l-.2-.2c-.1-.1.1.2 0 0-.1-.1-.2-.3-.2-.4 0 0 .1.3 0 0 0-.1-.1-.1-.1-.2s0-.2-.1-.2v-.6c-.1.1 0 .2 0 .1s0-.1.1-.2c.1-.3-.1.1 0 0 0 0 .1-.1.1-.2.1-.2-.2.2-.1.1.1 0 .1-.1.2-.2s-.3.2-.1.1c.1 0 .1-.1.2-.1l.2-.1s-.4.1-.1 0c.1 0 .2-.1.4-.1h.2-.2.7c-.2.1-.3-.1-.1 0 .1 0 .3.1.4.1.2.1-.1-.1-.1 0l.2.1c.1 0 .2.1.2.1s-.2-.2-.1 0l.1.2s-.3-.3 0-.1c.2.2 0 0 0-.1l.1.2v-.2c0 .1 0 .1 0 0s0-.1 0 0v.1s.1-.3 0-.1c-.1.3.2-.2 0 0l-.1.1c-.1.1.2-.1.1 0s-.3.2-.4.2c-.1.1-.1 0 .1 0-.1 0-.3.1-.4.1-.2.1-.3.1-.5.1.3-.1.1 0 0 0H75c.2 0 .1 0 0 0s-.3-.2-.1 0c.2.1 0 0-.1 0-.1-.1.2.2 0 0s.1.2 0 0c-.1-.1-.1-.1 0 0v.1c0-.2 0-.2 0 0 0 0 0-.3 0 0 0-.3.2-.7.3-1.1 0-.1 0-.2 0 0 0-.1.1-.1.1-.2.1-.2.2-.3.2-.5 0-.1.1-.1.1-.2.1-.2-.2.2 0 0 0 0 .1-.2.2-.2-.1 0-.2.2 0 0 .1 0 .1-.1.2-.1.2-.1-.3.1 0 0h.2c-.1.1-.3 0-.1 0 .3.1-.1 0-.1 0s.2 0 .2.1c0 0-.3-.2-.1 0-.3-.2 0 0 0 .1-.1-.2-.1-.1 0 0l.1.2c0-.1 0-.1-.1-.2 0 .1 0 .1.1.2 0 .1 0 .1.1.2.1.2.1.4.1.5v.2c.1.3 0-.3 0 .1v.7c.1-.1 0-.2 0 0 0 .1 0 .2-.1.2 0 0-.1.4 0 .2s0 .1-.1.1c-.1.2-.1.1 0 0l-.1.1c.1-.1.2-.1.1-.1-.2.1.3-.1.1 0-.1 0-.1 0 0 0h.1-.2.2l-.2-.1c-.3-.1.2.2 0 0l-.1-.1s.1.2 0 0c-.1-.1-.3-.5-.1-.2-.2-.3-.2-.7-.3-1.1v-.2.3s-.6.7-.3.5c-.1 0-.3.1 0 0 .2-.1.3-.1.5-.2.3-.1.1 0 0 0h.1s.2 0 .2.1c-.1-.1-.3-.1-.1 0l-.1-.1c.1.1.1.1 0 0l-.1-.1c.1.1.1.1 0 0 0-.1-.1-.3 0-.4 0-.1.2-.4.1-.2 0 0 .2-.3.1-.1.1-.1.2-.2 0-.1s.4-.1 0 0c-.1 0-.1 0-.2.1-.1 0-.3 0-.4.1.2-.1.3 0 .1 0h-.2.2c-.1 0-.1 0 0 0h.1c.3.4.5.5.3.3-.1.6-.2 1.2-.2 1.8.1-.1.1-.1 0 0s-.2.1-.3.1c.3-.1-.4 0 0 0 .3 0-.3-.1 0 0-.1 0-.5-.3-.3-.1v-2.1c.3-.3 0 .1-.1.1.2-.1.2-.1.1 0h-.3.1c-.1 0-.1 0-.2-.1.3.6.7 1.2 1 1.8 0 .1-.2.3-.2.4l-.1.1c.1 0 .2-.1.4-.2.1 0 .3-.1 0 0 0 0 .2-.1 0 0-.2 0 0 0 0 0-.2 0-.3 0-.5-.1-.4-.2-.4-.8-.2-1.2.1-.1.4-.4.1-.2l.1-.1-.2.1c-.2.1-.3.1-.5.2-.1 0-.2.1-.3.1h.1-.2s.3.1.1 0c-.3-.1.3.1-.1 0l.1.1c-.2-.2.1.2 0 0-.1-.1.1.2.1.2 0 .2 0 .1 0 0 0 .1 0 .2-.1.3 0 0 .1-.2 0 0-.3.2-.1.1 0 0 .1 0 .1-.1.2-.1-.1.1-.2.1 0 0 .1 0 .3-.1.4-.1h.2c.3-.1 0 0 0 0 .1-.1.3 0 .4 0h-.1c.3 0-.1-.1 0 0 .2.1-.2-.2-.1-.1l-.1-.1c.1.2-.1 0 0-.1 0 0 .1.1 0 .1-.1.2 0-.2 0-.2v.2c0 .2-.1-.1 0-.1 0 0 0 .2-.1.2 0 0 .2-.3 0-.1 0 0-.1.2 0 0s-.1.1-.2.1c0 0 .3-.2 0-.1 0 0-.1 0-.1.1-.1.1.1-.1.1 0 0 0-.2.1-.3.1h-.2c-.3.1.1 0 .1 0 0 .1-.3 0-.4 0h.1s-.2 0-.2-.1c-.1 0-.3-.1.1 0-.2-.1-.1 0 0 .1l-.2-.2c.1.1.1.1 0 0 0-.1-.1-.2-.1-.2.1.1.1.2 0 0s-.1-.3-.2-.5v.3c0 .1-.1.2 0 .1-.2.3-.1.1 0 .1.2-.2-.1.1 0 0s-.1 0-.1 0c.1-.1.2-.1.3-.1.2-.1-.1 0-.1 0h.9c.8 0 1.5-.7 1.5-1.5.3-.6-.3-1.2-1.2-1.3zm21.9 57.9c-.8-.1-1.5 0-2.1.6-.5.5-.7 1.2-.8 1.9-.1 1-.1 2.1.4 2.9.6 1 1.8 1.5 2.9 1.4 1.2 0 2.4-.3 3.2-1.3.6-.8.6-1.9.4-2.9-.2-.9-.5-1.8-1.2-2.5-.8-.9-2-1.2-3.1-.9-1 .2-1.9 1-2.4 1.9-1.1 1.9-.6 4.6 1.4 5.7 1 .6 2.3.7 3.4.1.9-.4 1.5-1.3 1.8-2.2.6-1.8 0-4.2-1.5-5.3-1-.7-2.4-.6-3.3.3-.7.7-1.1 1.8-1.1 2.7.1 1.2.6 2.5 1.7 3 1.2.6 2.7.2 3.5-1 .4-.7.5-1.6.1-2.2-.5-.8-1.4-1.2-2.3-1-1.6.4-2.6 2.3-1.4 3.6.5.5 1.2.5 1.8.2 1-.5 1.5-1.8 1.1-2.9-.4-1.2-1.8-1.9-3-1.6-1.2.3-2 1.3-2.1 2.5-.1 1.1.5 2.1 1.4 2.7 1.9 1.2 4.5-.1 4.9-2.3.2-1 0-2-.6-2.8-.7-.9-1.7-1.4-2.8-1.5-1-.1-2.1.3-2.8 1.1-.8.8-1.2 1.9-1.2 3-.1 1.1.3 2.2 1 3 .6.7 1.4 1.1 2.2 1.3.8.2 1.7.4 2.5.3 1.3-.1 2.3-.8 2.6-2.1.5-1.9-.1-4-1.1-5.7-.5-.8-1.1-1.8-1.9-2.3-1-.7-2.3-.4-3.3.1-1.7.9-2.7 2.8-2.9 4.7-.1.9.1 1.9.5 2.7.5.9 1.4 1.5 2.3 1.8.8.3 1.7.4 2.5.4 1.3 0 2.3-.7 2.9-1.8.5-.9.7-2 .7-3 0-.9-.1-1.9-.3-2.7-.3-1.2-1.3-2.1-2.5-2.1-1.1 0-2 .6-2.8 1.3-.7.6-1.4 1.4-1.6 2.4-.3 1.1 0 2.2.4 3.3.7 1.6 2.3 3.1 4.2 2.9 1.2-.1 2.1-.8 2.8-1.7.6-.8.8-1.9.9-2.9.2-1.7.2-3.9-1.5-4.9-.9-.6-2-.5-3-.5-1 .1-2.1.2-3 .8-.9.5-1.6 1.4-1.8 2.4-.2.9-.1 2 0 2.9s.5 1.7 1.2 2.3c.6.5 1.5.6 2.1 0 .5-.6.6-1.6 0-2.1-.1 0-.3-.3-.2-.1.1.1 0 0 0-.1 0 0 0-.1-.1-.1-.1-.2.1 0 0 .1v-.1c0-.1-.1-.3-.1-.4-.1-.4 0 .2 0-.1v-1.6c0 .1-.1.3 0 0 0-.1 0-.1.1-.2 0-.2-.1.2 0 .1l.1-.1c.1-.2 0 .1 0 .1l.1-.1c.2-.2 0 0 0 0l.3-.2.1-.1c.3-.1-.1 0-.1 0l.4-.1h.2s.4-.1.2 0h.9c.1 0 .9-.1.9 0 0 0-.3-.1 0 0h.2c.2.1-.2-.1 0 0l-.1-.1.1.1-.1-.1c.1.2 0 .1 0 0s0-.1 0 0v.1c0 .1 0 .2.1.3.1.3 0-.1 0-.1v1.9c0 .1-.1.5 0 .2 0 .2-.1.3-.1.5 0 .1-.1.3-.1.4-.1.2 0-.1 0-.1l-.1.2c0 .1-.2.4-.1.2l-.2.2c-.1.2.2-.1 0 0l-.1.1-.2.1s.3-.1.1-.1c-.4.1.2 0-.1 0h-.2s.3.1.1 0c-.1 0-.1 0-.2-.1-.1 0-.2-.1 0 0s-.1-.1-.2-.1c-.3-.1 0 0 0 0l-.1-.1c-.1-.1-.2-.2-.3-.4 0 0-.1-.2 0 0s0 0 0-.1c-.1-.1-.1-.2-.2-.3 0-.1-.2-.4-.1-.2 0-.1-.1-.2-.1-.3s-.1-.3-.1-.4v-.2.1c0-.1 0-.2.1-.2 0 0 0-.2 0 0s0-.1.1-.1c0-.1.1-.1.1-.2 0 0 .1-.2 0 0-.1.1 0 0 0 0l.2-.2c.2-.2.4-.4.7-.6.2-.1-.2.1 0 0l.1-.1c.1-.1.2-.1.4-.2s-.2.1 0 0h.2c.3-.1 0 0-.1 0h-.1c-.3-.1-.2-.1-.1 0-.1-.1-.2-.1-.2-.2.1.2 0-.2 0 0 0 .1 0 .1.1.2.1.2-.1 0 0-.1l.1.5c.1.6.1 1.2.1 1.9v.2c0 .1-.1.3-.1.4 0 .1-.1.3-.1.4 0-.1.1-.3 0 0 0 .1-.1.1-.1.2l-.1.2s.2-.2 0-.1l-.1.1c.2-.1 0 0 0 0s.2-.1.3-.1h-1.2c-.1 0-.8-.2-.8-.2s.3.1.1 0c-.1 0-.1-.1-.2-.1l-.1-.1c-.2-.1.2.2 0 0l-.3-.3s.1.2.1.1l-.1-.2s.1.3 0 .1c0-.1 0-.1-.1-.2v-.2c-.1-.3 0 0 0 .1v-.7c0 .2 0 0 0 0v-.2c0-.1.1-.3.1-.4 0-.1 0-.1.1-.2.1-.3 0 0 0 0 0-.1.1-.3.2-.4.1-.1.1-.2.2-.3 0-.1.1-.1.1-.2l-.1.1c0-.1.2-.2.3-.3l.2-.2s.1 0 .1-.1c.1-.1.1 0-.1.1 0 0 .2-.2.3-.2.1 0 .1-.1.2-.1.2-.1-.1 0-.1 0l.3-.1c.3-.1 0 0 0 0h-.2c.1 0 .2 0 0 0-.4-.3-.6-.4-.6-.5 0 .1.2.3.2.3l.1.1.1.1c-.1-.1 0 0 0 .1l.2.2c.1.1.2.3.3.4.2.3.3.5.5.8.1.1.1.3.2.4 0 .1.1.1.1.2.2.4 0-.2 0 .1.1.3.2.6.3.8 0 .1.1.3.1.4 0 0 0-.3 0 0v.7c0-.2 0 0 0 0 0 .1-.1.3-.1.4-.1.2.1-.2 0-.1 0 .1 0 .1 0 0s.1-.1.2-.2c-.2.1.2 0-.1 0 .4-.1-.1 0-.2 0h-.5c-.3 0 .2 0 0 0s-.5-.1-.7-.2c-.1 0-.3-.1-.4-.1 0 0 .3.1.1 0-.1 0-.2-.1-.2-.1-.1-.1-.2-.1-.3-.2l.1.1-.1-.1-.1-.1.1.1-.1-.1s-.2-.3-.1-.1 0-.1 0-.1v-.2c-.1-.2 0 0 0 0v-.6s-.1.4 0 0c0-.1 0-.2.1-.2 0-.1 0-.2.1-.2 0 .1-.1.3 0 0 .1-.1.2-.3 0-.1.1-.1.4-.3.1-.2l.1-.1s.1 0 .1-.1c.1-.1.1 0-.1 0 0 0 .5-.2.2-.1-.2.1-.1 0 0 0h.2s.2 0 0 0h.3c.3.1-.1-.1 0 0l.1.1c.3.2-.1 0 0 0l.1.1c.2.1-.1-.2 0-.1 0 .1.2.2.2.3 0 0-.1-.3-.1-.1 0 0 .1.2.1.3v-.1.2c0 .1-.1.2 0 .1.1-.2 0 0 0 0l-.1.2s.1-.2 0-.1c0 0-.1.3 0 .1s0 0-.1 0c0 0-.2.2 0 .1.1-.1 0 0 0 0l-.2.1s.3-.1.1-.1c-.1 0-.1 0 0 0h.1-.1c-.2.1 0-.1.1 0l-.2-.1c.1-.1.3.2.1 0-.2-.1 0 0 0 .1l-.1-.1.1.1-.1-.2s.1.4 0 .1c0-.2 0 0 0 0 0 .1 0 .1 0 0v.1c.1-.3-.1.3 0-.1l-.1.1c.1-.2 0 0-.1 0 0 0-.3.1-.1 0h-.1.1-.2c.1 0 .1 0 0 0 0 0-.2-.1 0 0-.1-.1-.2-.1-.3-.3 0 0-.1-.3 0-.1v-.4c0 .2 0-.1.1-.1 0 .1-.2.2.1-.1 0 0 .3-.2.1-.1.6.1 1.2.2 1.8.2.1.1.1.3.2.4.2.3.2.6 0 .9.1-.2 0 0 0 0s-.1.1 0 0c-.1.1-.2.2-.3.2.2 0 .1 0 0 0h-.1c-.3-.2-.6-.4-.9-.5-.1-.1-.1-.3-.1-.4 0 0 .1-.4 0-.2 0 0 .1-.3.1-.2-.1.2.2-.2.1-.1l.1-.1-.1.1c-.2.1.3-.1.1-.1h.2-.1c-.2 0 .4.1.1 0 0 0 .3.1.1.1l.1.1-.1-.1s.2.3.1.1c0-.1-.1-.1-.1-.2-.1-.1 0 .1 0 .1 0-.1-.1-.3-.1-.4-.1-.3 0 .3 0 0v-.2c0 .2 0-.1.1-.2v-.1c0-.2-.2.3 0 0l.1-.1c.1-.2-.1.1-.1.1s.1-.2.1-.1c0 0-.3.2-.1.1.1-.1-.2.1-.2.1.2-.1-.1 0-.1 0 .1 0 .2 0 0 0h-.1c.1 0 .1 0-.1-.1l.1.1-.1-.1c0-.1.3.4.1.1-.1-.2.1.1.1.2 0 0 0 .1.1.1.1.2-.1-.3 0-.1s.1.5.2.7v-.1 1s.1-.3 0-.2v.2c0 .1-.1.2-.1.3 0 .2.1-.3 0-.1 0 .1-.1.1-.1.2l-.1.1.1-.1-.2.2s.3-.2.1-.1c0 0-.2.1 0 0h-.3s.3.1.1 0h-.2s-.2 0-.2-.1c0 0 .3.1.1 0l-.1-.1c-.3-.2.1.1 0 0l-.1-.1c-.2-.2.1 0 0 0l-.2-.3c-.1-.2.1 0 0 .1 0 0 0-.1-.1-.2v-.7.1c0-.1.1-.3.1-.4l.1-.1c0 .1-.1.3 0 0 0 0 .2-.3.1-.2-.1.2.1-.1.2-.2l.1-.1c.1-.1-.2.1-.1 0l.1-.1c.2-.1 0 0-.1 0 0 0 .4-.1.2-.1h.2s-.3-.1-.2 0c.1 0 .2.1.1 0s-.1 0 0 0c.2.1-.1-.1-.1-.1l.2.2-.1-.1s.1.1.1.2.1.2.1.3c-.1-.1-.1-.2 0-.1 0 .1 0 .1.1.2l.2.7v-.2.7c0 .1 0 .2 0 0 0-.3 0 .1-.1.1l.1-.1c-.1.1.2-.2.2-.1l-.4.1h-.8c-.1 0-.3-.1-.1 0 .2.1 0 0 0 0h-.1c-.1 0-.1 0 0 0 .1.1 0 0 0 0 .1.1.2.2.1 0-.2-.2 0 0 0 .1-.1-.2 0 .1 0 .1-.1-.1 0-.3-.1-.4v-1c0-.1-.1.1-.1.1-.1.2 0 0 0 0-.3.2-.4.2-.8.2.8.1 1.7-.2 1.8-1 0-.1-.4-1.1-1.2-1.2zm-16.9-6.2c-.5.9-.9 1.9-1 3 0 1 .4 2.1 1.1 2.7.9.8 2.2 1 3.3.6.9-.4 1.7-1 2.2-1.8s.7-1.8.6-2.7c-.2-1.2-.9-2.3-2.1-2.6-2.2-.6-4.5 1.4-4.2 3.6.1.8.3 1.4.8 2s1.4 1 2.2.8c.8-.2 1.3-1 1.5-1.8.2-.7.2-1.4.1-2.1-.1-.3-.4-.7-.7-.9-.3-.2-.8-.3-1.2-.2-.4.1-.7.3-.9.7-.2.4-.2.7-.2 1.2v.1c0-.1 0-.3-.1-.4v.8c0-.1 0-.3.1-.4 0 .3-.1.5-.2.8.1-.1.1-.2.2-.4 0 .1-.1.2-.1.2.1-.1.2-.2.2-.3 0 .1-.1.1-.1.1.1-.1.2-.2.3-.2h-.1c.1-.1.2-.1.4-.2h-.1c.1 0 .3 0 .4-.1h-.1c.1 0 .3 0 .4.1h-.1c.1.1.2.1.4.2-.1 0-.2-.1-.2-.1.1.1.2.2.3.2-.1-.1-.2-.1-.2-.2.1.1.2.2.2.3-.1-.1-.2-.3-.2-.4.1.1.1.2.2.4-.1-.2-.1-.3-.1-.5 0 .1 0 .3.1.4v-.6c0 .1 0 .3-.1.4 0-.2.1-.3.1-.4-.1.1-.1.2-.2.4.1-.1.1-.3.2-.4-.1.1-.2.2-.2.3.1-.1.2-.3.4-.4-.1.1-.2.2-.3.2.1-.1.3-.2.4-.3-.1.1-.2.1-.4.2.2-.1.3-.1.5-.1-.1 0-.3 0-.4.1h.5c-.1 0-.3 0-.4-.1.1 0 .2.1.4.1-.1-.1-.2-.1-.4-.2.1 0 .2.1.2.1-.1-.1-.2-.2-.3-.2l.3.3c-.1-.1-.2-.2-.2-.3.1.1.1.2.2.3-.1-.1-.1-.2-.2-.4.1.2.1.4.2.6 0-.1 0-.3-.1-.4v.7c0-.1 0-.3.1-.4 0 .2-.1.5-.2.7.1-.1.1-.2.2-.4-.1.2-.2.4-.4.6.1-.1.2-.2.2-.3-.1.2-.3.3-.5.5.1-.1.2-.2.3-.2-.2.1-.4.3-.6.3.1-.1.2-.1.4-.2-.2.1-.4.1-.6.2.1 0 .3 0 .4-.1H82c.1 0 .3 0 .4.1-.2 0-.3-.1-.5-.1.1.1.2.1.4.2-.1-.1-.2-.1-.3-.2.1.1.2.2.3.2l-.3-.3c.1.1.2.2.2.3-.1-.1-.2-.3-.2-.4.1.1.1.2.2.4-.1-.2-.1-.4-.2-.6 0 .1 0 .3.1.4v-.6c0 .1 0 .3-.1.4.1-.4.2-.7.3-1.1-.1.1-.1.2-.2.4.1-.3.3-.6.4-.9.4-.7.2-1.7-.5-2.1-.7-.5-1.7-.4-2.1.4z" fill="#383432"/><path class="st2" d="M93.3 92.5c-3 2.4-5.9 4.9-9.3 6.6-3.5 1.8-7.5 2.3-11.4 2.5-7.8.3-15.6-1.3-23.3-2.1-6.8-.7-14.7-1.3-21 1.9-2.5 1.2-4.9 3.4-5.5 6.2-.5 2.2.1 4.4 1.9 5.8 1.1.8 2.3 1.6 2.9 3 1.2 2.9-.5 6.5-1.8 9-.4.9.9 1.6 1.3.8 1.9-3.7 4-9 .4-12.5-.8-.8-2-1.3-2.7-2.2-2.1-2.9.5-6.5 3-8.1 2.9-1.9 6.5-2.5 9.9-2.7 3.8-.3 7.7-.1 11.5.4 7.7.8 15.3 2.4 23.1 2.2 4-.1 8.2-.7 11.8-2.4 3.8-1.8 7-4.5 10.2-7.1.8-.8-.3-1.9-1-1.3z"/><path d="M39.1 110.7c-1.4-.3-2.6-1.3-2.9-2.8-.3-1.5 0-3.3 2.3-5 5.1-3.7 12.7-1.6 15.4-1.1 0 0 13.6 1.6 22.1 1 5.1-.4 9.4-.3 11.2-1.1.4-.2.8.3.5.6-3.9 4.1-17.1 14.3-48.6 8.4z" fill="#db9b5d"/><path class="st6" d="M59.8 112.1c-14.1-26.2-.8.5-14.9-25.7l9.5-5.2c13 26.9.5 1.6 13.9 27.3l1.1 1.6c-2.3 2-5 2.7-8.1 2.5l-1.5-.5z"/><path class="st7" d="M53.1 85.4l13.7 26.3 3.1-.6-14.3-28.8z"/><path class="st2" d="M55.3 84.2c4.5 8.9 8.8 18 13.4 26.8.4.9 1.7.1 1.3-.8-4.6-8.9-9-17.9-13.4-26.8-.4-.8-1.7 0-1.3.8zm5.4 27.6c-4.5-8.3-9.6-16.1-14.2-24.4-.5-.8-1.8-.1-1.3.8 4.6 8.2 9.7 16.1 14.2 24.4.5.8 1.8.1 1.3-.8z"/><path d="M83.1 50.4s5 3.8 4.9 7c0 3.1-.9 4.4-3 6.1-2.1 1.8-3.8 3.3-4.2 6.1-.4 2.8-2.8 5-5.3 6.4-2.5 1.3-6.6 3.5-6.6 5.8s-6 4.7-10.1 4.5-8.7 3.9-8.8 5.6-4.4 4.7-8.6 3.3c-4.2-1.4-11.2.7-12.5 1.9-1.3 1.2-7.3 1.8-9.2.6s-5.1 0-7.9 0-1.9-1.1-4.6-3.2-2.3-5.8-2.3-5.8.5-18.7 34.4-33c33.1-14.1 43.8-5.3 43.8-5.3z" fill="#f9cd53"/><path opacity=".5" fill="#d8a71d" d="M60.2 49L43.7 66.7l4.8 2.2 19.9-20.7z"/><path class="st2" d="M82.5 50.9c1 .7 1.9 1.6 2.7 2.5 1.5 1.7 2.3 3.5 1.8 5.8s-2.4 3.4-4 4.9c-.8.8-1.5 1.6-2.1 2.6-.6 1.1-.7 2.2-1 3.3-1.4 5.1-7.6 5.7-10.7 9.3-.5.6-.9 1.3-1 2-.2.9-.5 1.4-1.3 1.9-1.9 1.3-4.4 2-6.7 2.2-1 .1-1.9 0-2.9.1-1.2.2-2.4.7-3.5 1.3-1.6.9-3.2 2.1-4.1 3.7-.3.5-.3 1.1-.5 1.6-.4.9-1.6 1.6-2.5 1.9-1.1.5-2.4.7-3.7.6-1.2-.1-2.4-.6-3.6-.7-3.6-.3-7.9.4-10.9 2.4-1.4 1-3.4 1.1-5 1.1-.9 0-1.9 0-2.8-.3s-1.6-.8-2.5-.9c-1.2-.1-2.4.1-3.6.3-1.1.1-2.8.6-3.9.1-.7-.3-1.1-1.2-1.6-1.7-.9-.9-2-1.5-2.6-2.7-.7-1.2-.8-2.7-.7-4.1 0-.1.1-.6.2-1 .1-.6.3-1.2.5-1.9.6-1.8 1.4-3.5 2.3-5.2 3.4-5.9 8.4-10.6 13.9-14.5 9.1-6.4 19.8-11 30.5-14.2 6.9-2 14.3-3.6 21.6-2.8 2.7.3 5.4.9 7.7 2.2 0 .2.3.4 0 .2.7.6 1.8-.5 1.1-1.1-1.6-1.3-3.8-1.9-5.7-2.3-6.2-1.3-12.8-.5-18.9.8-5.4 1.2-10.7 2.9-15.8 4.9-5.7 2.2-11.3 4.8-16.5 7.9-6.9 4.2-13.3 9.3-17.8 15.9-2.1 3-3.9 6.6-4.6 10.3-.1.7-.2 1.3-.2 2 0 1.9.7 3.8 2 5.1.8.8 1.7 1.5 2.5 2.4.5.6 1 1.1 1.7 1.3 2.6.7 5.3-.8 7.9-.3.9.2 1.6.7 2.5.9 1 .2 2 .3 3 .2 1.7 0 3.8-.2 5.3-1.1s2.9-1.5 4.6-1.9c2.4-.5 4.9-.8 7.3-.2 2.4.7 4.8.6 7-.6.8-.4 1.6-1 2.1-1.7.5-.6.5-1.1.8-1.8.7-1.9 3.5-3.5 5.3-4.1 1.2-.4 2.4-.4 3.6-.5 1.2-.1 2.4-.3 3.5-.6 2-.5 4.3-1.4 5.6-3 .5-.6.6-1.1.7-1.8.2-1.2 1.2-2 2.1-2.7 1.9-1.4 4.2-2.3 6.1-3.8.9-.7 1.8-1.6 2.4-2.6.8-1.1 1-2.3 1.3-3.6.7-2.7 3-4 4.8-5.8 1.5-1.5 2.1-3.3 2.2-5.4.1-2-1-3.7-2.3-5.2-.9-1-1.8-1.9-2.9-2.7-.4-.5-1.4.5-.7 1.1z"/><path class="st2" d="M7.5 87.8c.7 4.4 5.6 5.7 9.5 6 6.6.5 13.4-1.1 19.7-2.9 7.8-2.3 15.4-5.4 22.6-9.2 6.5-3.4 12.9-7.5 18-12.9 3.6-3.8 6.9-8.9 5.8-14.4-.1-.6-.3-1.1-.5-1.7-.3-.9-1.8-.5-1.4.4 1.8 4.8-.7 9.6-3.8 13.3C73 71.7 67 75.6 61.1 79c-6.8 3.9-14.1 7-21.5 9.4-6.3 2-13 3.8-19.7 3.9-3.8.1-10.1-.2-10.9-4.9-.2-1-1.6-.6-1.5.4z"/><path class="st6" d="M38.9 72C24.8 45.7 22 41.6 7.9 15.4l10.8-5.2c13 26.9 15.9 33.2 29.3 59-2.3 2-5.3 3-8.4 2.9l-.7-.1z"/><path class="st7" d="M16.7 14.8l29.1 55.9 2.6-1.5-29.2-57.5z"/><path class="st2" d="M39.5 71.6c-7.6-14.1-15.4-28-23-42-2.7-4.9-5.3-9.7-7.9-14.6-.1.3-.2.7-.3 1 3.5-1.7 7-3.5 10.5-5.2-.3-.1-.7-.2-1-.3 7.4 14.7 14.6 29.6 22.1 44.3 2.5 4.9 5 9.8 7.6 14.7.4.9 1.7.1 1.3-.8C41.2 54.2 34 39.5 26.7 24.8c-2.5-5-5-10.1-7.5-15.1-.2-.4-.7-.4-1-.3-3.5 1.7-7 3.5-10.5 5.2-.4.2-.5.7-.3 1 7.6 14.1 15.4 28 23 42 2.7 4.9 5.3 9.7 7.9 14.6.4 1 1.7.2 1.2-.6z"/><ellipse transform="rotate(-25.063 12.785 12.311)" class="st7" cx="12.8" cy="12.3" rx="5.8" ry="3.7"/><path class="st2" d="M17.4 10.3c.6 1.4-.7 2.9-1.7 3.7-1.5 1.2-3.7 2-5.6 1.7-1.4-.3-2.4-1.3-1.9-2.8.6-1.7 2.4-3 4.1-3.6 1.5-.5 4.2-.9 5.1 1 .4.9 1.7.1 1.3-.8-1.1-2.2-3.9-2.3-6-1.8C10.4 8.2 8 9.8 7 12c-.9 2-.1 4.1 1.9 4.9 2.3.9 5.2.1 7.2-1.3 1.9-1.3 3.7-3.7 2.7-6.1-.2-.4-.7-.5-1-.3-.5.3-.5.7-.4 1.1zm19.3 60.9c-.2 1.7 1.9 2.2 3.2 2 1.6-.2 3.2-.6 4.6-1.2 1.4-.6 2.8-1.2 3.9-2.2.9-.9 1.7-2.3.8-3.5-.2-.3-.6-.5-1-.3-.3.2-.5.7-.3 1 .5.7-.4 1.5-.9 2-.8.7-1.9 1.2-2.9 1.6-.6.3-6.1 2.1-6 .6.3-1-1.2-1-1.4 0zM87.6 102c-5.4 4.5-11.7 7.4-18.6 8.7-6.6 1.3-13.4 1.2-20 .6-3.9-.3-7.7-.9-11.5-1.5-.9-.1-1.4 1.3-.4 1.4 13.5 2.1 28.1 3.7 41-1.8 3.8-1.6 7.3-3.8 10.5-6.5.8-.4-.2-1.5-1-.9z"/><path d="M16.6 103.8s7.6 3.2 14.8 1.1l47.7 92.3-5-1.1-57.5-92.3z" opacity=".55" fill="#fff"/><path d="M76 138.2l21.5-9.5s15.3 22.7 16.4 42.6c1.3 24.9-22.4 29.4-22.4 29.4s10.2-13 4.2-32.6-18.8-18.3-19.7-29.9z" fill="#b7804f" opacity=".35"/><path class="st0" d="M130.8 173.2c-1.3-8.2-2.8-16.4-4.4-24.5-.6-2.9-1.2-5.8-2.6-8.4-1.3-2.3-3.3-4.2-5.3-6.1-4.7-4.4-9.5-8.8-14.1-13.3-6.2-6.1-13.4.3-13.4.3-3.6 5.6-9.8 9.6-16.4 10.5-.6.1-1.2.2-1.7.5-.5.4-.7 1-.8 1.6-.3 2.1.9 4.3 2.6 5.5 1.7 1.3 3.9 1.8 6 2.1 6.4.9 13.1-.3 18.8-3.3l-2.2 1.6c-2 6.5 0 13.5 2.4 19.8 2.3 6.2 10 16.6 15.8 19.6l-.4.2c7.1 1.4 16.9 1.6 15.7-6.1z"/><path class="st2" d="M99.2 137.6c-5.9 3.1-12.9 4.3-19.5 3-3-.6-6.5-2.2-6.9-5.6-.1-1 0-2 1.1-2.4.6-.2 1.4-.2 2-.4 1.4-.3 2.8-.7 4.2-1.3 2.5-1 4.9-2.4 6.9-4.2 1-.8 1.9-1.7 2.7-2.7.7-.8 1.2-1.8 1.9-2.5.9-1 2.5-1.7 3.7-2.1 2.5-.9 5.1-.7 7.3.8 1.4.9 2.5 2.3 3.7 3.4 1.4 1.3 2.8 2.7 4.2 4 2.6 2.4 5.2 4.8 7.7 7.3 2.4 2.3 4.7 4.7 5.9 7.8 1.2 3.3 1.7 6.9 2.4 10.3 2.7 14.4 5 28.8 6.8 43.3.2 1.6.4 3.2.6 4.9.1 1 .2 1.7.8 2.5.6.7 1.1 1.5 1.7 2.2 1.3 1.7 2.6 3.3 4 4.9 3.4 4.1 7.1 7.9 10.9 11.6 11.1 10.9 23.6 20.3 36.6 28.8 19.8 12.9 41 23.6 62.6 33 3.2 1.4 6.4 2.7 9.6 4 .9.4 1.3-1.1.4-1.4-23.6-9.7-46.7-20.9-68.3-34.5-13.9-8.8-27.3-18.7-39.2-30.2-4-3.9-7.8-7.9-11.4-12.1-1.4-1.7-2.8-3.4-4.1-5.1-.6-.7-1.2-1.4-1.7-2.2-.6-1-.5-2.4-.6-3.5-.2-1.9-.5-3.9-.7-5.8-1.9-14.8-4.3-29.5-7.2-44.2-.6-3.2-1.2-6.6-2.9-9.5-1.6-2.8-4.1-5-6.5-7.2-2.7-2.5-5.4-5.1-8.1-7.6-1.3-1.2-2.6-2.4-3.9-3.7-1.2-1.1-2.3-2.3-3.8-3-3.7-1.8-8-.5-11.2 1.9-.4.3-.6.5-.9.9-.9 1.3-1.9 2.5-3 3.6-2.2 2.1-4.8 3.8-7.6 4.9-1.3.5-2.6.9-4 1.2-1.2.3-2.7.2-3.5 1.3-1.6 2.1-.3 5.3 1.4 7 2 2.1 5 2.8 7.8 3.1 3.2.4 6.5.3 9.7-.3s6.3-1.7 9.1-3.2c1-.2.2-1.4-.7-1z"/><path class="st2" d="M96.7 139.7c-1.3 4.5-.9 9.2.3 13.7 1 3.8 2.3 7.5 4.2 10.9 1.8 3.3 4.1 6.3 6.5 9.2 2.2 2.5 4.6 4.9 7.5 6.5.9.5 1.6-.8.8-1.3-2.8-1.5-5.1-3.9-7.2-6.3-2.3-2.6-4.4-5.5-6.1-8.6-1.8-3.1-3-6.5-4-10-1.2-4.5-1.8-9.2-.5-13.8.2-.9-1.3-1.3-1.5-.3zm-14-9.9c.3.6.4 1.2.6 1.8.1.3.1.6.2.9 0 .2.2.6.1.9.1-.1.1-.2.2-.3-.1.1-.8.2-1 .3-.3.1-.7.2-1 .3-.7.2-1.5.3-2.2.4-1.5.2-3 .2-4.5.1-1-.1-1 1.4 0 1.5 2.6.2 5.2 0 7.7-.6.6-.1 1.3-.3 1.8-.6.6-.4.6-1 .5-1.6-.2-1.3-.5-2.5-1-3.7-.2-.4-.7-.5-1-.3-.5.1-.5.5-.4.9z"/><path class="st0" d="M37.4 165.9c0 2 .3 4 1.3 5.7 1.8 3 5.5 4.2 8.8 5.2 4.6 1.4 9.3 2.8 13.9 4.1 1.1.3 2.2.7 3.4.6 1.1-.1 2.3-.6 2.9-1.6.9-1.6-.1-3.5-1.2-4.9-2.1-2.7-8.4-6.7-11.5-8"/><path class="st0" d="M43.6 175.6c-.3 3.1.7 8.9 2.9 11.2s5.1 3.8 8 4.8c4.2 1.4 8.7 2 13.2 1.5.9-.1 1.8-.2 2.5-.8 1.3-1 1.4-3.1.5-4.5-.8-1.4-2.3-2.4-3.7-3.2-1.4-.8-6.4-3-7.3-4.4m-25-38.7c-1.3 2.5-2.6 5.1-3.3 7.8-.9 3.5-.9 7.3.8 10.5 1 1.9 2.6 3.5 4.2 5 3.4 3.1 9.4 5.3 13.3 7.8 0 0 4.1 2.3 5.2-.8 1.1-3.1-.4-6.1-.4-6.1-1.8-4.7-14-11.7-15.6-16.5"/><path class="st0" d="M49.9 189.5c1.3 4.5 3.3 10.7 7.1 13.5 3 2.2 6.8 2.7 10.5 3 .9.1 1.8.1 2.7-.1s1.7-.8 2-1.7c.4-1.3-.4-2.6-1.3-3.6-1.6-1.9-5.4-6.2-7.4-7.6"/><path class="st2" d="M36.6 165.9c.1 2.1.3 4.2 1.4 6 1 1.6 2.5 2.8 4.1 3.6 1.7.9 3.6 1.4 5.4 2 2.6.8 5.1 1.5 7.7 2.3 2.4.7 4.8 1.6 7.3 2.1 1.7.4 3.7.5 5.1-.7 3-2.6-.1-6.6-2.3-8.6-2.9-2.5-6.3-4.8-9.8-6.3-.9-.4-1.6.9-.8 1.3 2.5 1.1 4.9 2.6 7.1 4.2 2 1.4 6.1 4.2 5.4 7.2-.5 2.3-3.6 1.7-5.2 1.3l-6-1.8c-3.8-1.1-7.7-2.1-11.3-3.5-1.7-.6-3.4-1.5-4.7-2.9-1.6-1.7-1.9-4-2-6.3.1-.9-1.4-.9-1.4.1z"/><path class="st2" d="M42.9 175.6c-.3 3.3.4 7.2 2 10.2 1.8 3.4 5.9 5.3 9.3 6.5 4.5 1.5 9.2 2.1 13.9 1.6 1.5-.2 3-.7 3.6-2.2.8-1.9.1-3.9-1.3-5.4-1.4-1.4-3.2-2.3-4.9-3.2-2.3-1.1-4.6-2.2-6.8-3.6-.8-.5-1.6.8-.8 1.3 2.8 1.8 6 3 8.8 4.6 1.5.9 3.3 2 3.7 3.8.7 2.6-1.7 3.2-3.7 3.3-4 .3-8-.2-11.8-1.5-3.1-1-6.8-2.7-8.6-5.6-1.7-2.8-2.3-6.6-2-9.8.1-1-1.4-1-1.4 0zm-8.8-34.5c-3.1 5.8-5.9 13.1-2.3 19.4 3.3 5.6 9.3 8.2 14.8 11.1 1.6.9 3.1 2.1 5 2.5 2.3.5 3.9-.7 4.4-2.9.9-4.5-1.7-8-4.9-10.8-2.2-2-4.5-3.8-6.7-5.8-1.7-1.5-3.8-3.2-4.6-5.4-.3-.9-1.8-.5-1.4.4 1.3 3.6 5.1 6.2 7.9 8.6 1.7 1.5 3.5 2.9 5.1 4.5 1.1 1.1 2.1 2.2 2.7 3.6.7 1.6 1.5 5.9-.9 6.5-1.4.3-2.7-.6-3.8-1.3-4.9-3-10.3-4.9-14.3-9.2-5.6-6.1-3-13.9.4-20.3.3-1-1-1.7-1.4-.9z"/><path class="st2" d="M49.2 189.7c1.8 6.2 4 13 10.6 15.6 1.7.7 3.6 1 5.4 1.3 1.8.2 3.8.6 5.6 0 2.8-1 3.2-4.6 1.4-6.7-2.3-2.7-5.6-4.3-7.8-7.1-.6-.7-1.7.3-1.1 1.1 1.8 2.2 4.3 3.6 6.3 5.4.7.6 1.5 1.4 1.9 2.2.7 1.4.1 3.2-1.4 3.7-1.5.4-3.4.1-5-.1s-3.2-.5-4.7-1.1c-2.9-1.1-4.9-3.1-6.3-5.8-1.5-2.8-2.5-5.8-3.4-8.8-.3-1-1.8-.6-1.5.3z"/></svg>