<?xml version="1.0" encoding="UTF-8"?>
<svg width="160px" height="74px" viewBox="0 0 160 74" version="1.1" xmlns="http://www.w3.org/2000/svg" xmlns:xlink="http://www.w3.org/1999/xlink">
    <title>Group 5</title>
    <defs>
        <polygon id="path-1" points="-3.3537062e-12 -9.52127266e-13 160 -9.66423122e-13 160 67 -3.3537062e-12 67"></polygon>
        <polygon id="path-3" points="0 0 3.50870948 0 3.50870948 7.6936271 0 7.6936271"></polygon>
        <polygon id="path-5" points="0 0 40 0 40 51 0 51"></polygon>
    </defs>
    <g id="060721" stroke="none" stroke-width="1" fill="none" fill-rule="evenodd">
        <g id="Guideline" transform="translate(-1243.000000, -517.000000)">
            <g id="Group-5" transform="translate(1243.000000, 517.000000)">
                <g id="Group-55">
                    <mask id="mask-2" fill="white">
                        <use xlink:href="#path-1"></use>
                    </mask>
                    <g id="Rectangle"></g>
                    <g id="Group-73" mask="url(#mask-2)">
                        <g transform="translate(80.000000, 25.000000)" id="Group-70">
                            <path d="M16.8627023,10.4976133 C5.62090077,19.5886637 0,27.0791357 0,32.9690294 C0,41.80387 7.62687025,52 25,52 C42.3731297,52 50,43.1008999 50,32.9690294 C50,26.2144492 44.1472828,18.7239771 32.4418483,10.4976133 L37.2492608,0.857031818 C37.3475049,0.660227526 37.2675041,0.421077645 37.0706579,0.322917504 C36.9780212,0.276722914 36.8710386,0.268410245 36.7723782,0.299740831 C32.8799752,1.53581105 28.7513501,2.15384615 24.3865031,2.15384615 C20.0383294,2.15384615 15.9001083,1.54052372 11.9718397,0.313878842 C11.7619341,0.248377801 11.5386504,0.365397919 11.473109,0.575290948 C11.4405709,0.679492541 11.4522448,0.79248358 11.5053998,0.88783159 L16.8627023,10.4976133 L16.8627023,10.4976133 Z" id="Path-7" fill="#1CBEAD"></path>
                            <path d="M15.483871,10.9813665 C16.0460783,10.9813665 19.0907381,12.5962733 24.4236383,12.5962733 C26.1136204,12.5962733 29.1552034,12.057971 33.5483871,10.9813665" id="Path-8" stroke="#83C7C6" stroke-width="3.2076"></path>
                            <path d="M32.0536284,35.6431249 L32.0536284,37.2493116 L30.8280275,37.2493116 L30.8280275,35.6431249 L24.6124798,35.6431249 L24.6124798,33.2904007 L30.8280275,33.2904007 L30.8280275,29.8518038 L28.3330541,29.8518038 C27.7348412,29.8518038 27.1949985,29.757545 26.71351,29.5690245 C26.2320215,29.380504 25.823492,29.1203496 25.4879091,28.7885535 C25.1523262,28.4567574 24.8933476,28.0608703 24.7109656,27.6008802 C24.5285836,27.1408902 24.437394,26.6394332 24.437394,26.0964941 C24.437394,25.5686367 24.5212884,25.0784907 24.6890799,24.6260415 C24.8568713,24.1735923 25.1085547,23.7852458 25.4441376,23.4609906 C25.7797205,23.1367353 26.1882501,22.8803512 26.6697386,22.6918307 C27.1512271,22.5033102 27.7129552,22.4090514 28.3549399,22.4090514 L30.8280275,22.4090514 L30.8280275,20.8028647 L32.0536284,20.8028647 L32.0536284,22.4090514 L37.5688327,22.4090514 L37.5688327,24.7165309 L32.0536284,24.7165309 L32.0536284,27.9515266 L34.2203158,27.9515266 C35.5042851,27.9515266 36.4854856,28.2606956 37.1639466,28.8790429 C37.8424077,29.4973902 38.1816331,30.4626007 38.1816331,31.7747034 C38.1816331,32.3327241 38.1013863,32.8454922 37.9408901,33.3130231 C37.7803939,33.7805539 37.5360057,34.1877521 37.2077181,34.5346299 C36.8794305,34.8815076 36.4672533,35.1529731 35.9711743,35.3490344 C35.4750952,35.5450957 34.8914816,35.6431249 34.2203158,35.6431249 L32.0536284,35.6431249 Z M34.3237939,33.2216103 C34.9392927,33.2216103 35.4009099,33.0744005 35.7086593,32.7799764 C36.0164087,32.4855523 36.1702811,32.0807253 36.1702811,31.5654831 C36.1702811,30.9913562 36.012745,30.5644477 35.6976683,30.2847448 C35.3825915,30.0050419 34.924638,29.8651926 34.3237939,29.8651926 L32.1475769,29.8651926 L32.1475769,33.2216103 L34.3237939,33.2216103 Z M30.8066755,24.4949242 L28.3627746,24.4949242 C27.8581318,24.4949242 27.4688418,24.6474871 27.1948928,24.9526175 C26.9209438,25.2577479 26.7839714,25.6606705 26.7839714,26.1613973 C26.7839714,26.6934196 26.9281529,27.1080778 27.2165202,27.4053843 C27.5048876,27.7026909 27.8869685,27.8513419 28.3627746,27.8513419 L30.8066755,27.8513419 L30.8066755,24.4949242 Z" id="$" fill="#FFFFFF" fill-rule="nonzero" transform="translate(31.309514, 29.026088) rotate(-360.000000) translate(-31.309514, -29.026088) "></path>
                        </g>
                    </g>
                    <g id="Group-19" mask="url(#mask-2)">
                        <g transform="translate(79.000000, 37.500000) scale(-1, 1) translate(-79.000000, -37.500000) translate(47.000000, 2.000000)" id="Group-53">
                            <path d="M3.96766858,36.7225946 C3.96766858,36.7225946 0.342219808,38.4888621 0.0129957885,45.9980024 C-0.355077661,54.3847693 7.15332188,60.9051402 15.1727408,63.1134753 L3.96766858,36.7225946 Z" id="Fill-6" fill="#989899"></path>
                            <path d="M33.4573747,4.63505049 C16.5892508,4.63505049 2.9147494,17.7373713 2.9147494,33.9001211 C2.9147494,49.4615989 9.41107147,60.2789863 18.9695256,65.8736688 C22.2403488,67.7891279 26.2562841,67.9788715 29.7801267,66.5500371 C29.7995514,66.5420268 29.8199723,66.5330153 29.839397,66.5245043 C30.2488102,66.3532845 32.9812201,65.3274676 37.1346227,66.5500371 C40.6584653,67.9788715 44.6744006,67.7891279 47.9452238,65.8736688 C57.504176,60.2789863 64,49.4615989 64,33.9001211 C64,17.7373713 50.3259966,4.63505049 33.4573747,4.63505049" id="Fill-8" fill="#E7E4E2"></path>
                            <path d="M20.0717536,13.9286817 C23.0810903,13.7239188 25.9275582,14.3587338 28.4009719,15.6248592 C31.5901117,17.2559532 35.3370894,17.2559532 38.5267273,15.6248592 C41.000141,14.3587338 43.8461109,13.7239188 46.8559456,13.9286817 C54.7234533,14.4643694 61.1022309,20.8680905 61.6446288,28.7757424 C62.2871386,38.1377614 54.921685,45.9327686 45.7452503,45.9327686 C43.1064775,45.9327686 40.6171255,45.2884414 38.4256192,44.1464754 C35.3186609,42.5293994 31.6090383,42.5293994 28.50208,44.1464754 C26.3105737,45.2884414 23.8212217,45.9327686 21.1824489,45.9327686 C12.0060142,45.9327686 4.64056064,38.1377614 5.28257238,28.7757424 C5.8249702,20.8680905 12.2042459,14.4643694 20.0717536,13.9286817" id="Fill-10" fill="#FFFFFF"></path>
                            <path d="M15.6010807,29.9962092 C15.6010807,32.579025 17.6840079,34.6732136 20.253549,34.6732136 C22.8230902,34.6732136 24.9060174,32.579025 24.9060174,29.9962092 C24.9060174,27.413894 22.8230902,25.3197055 20.253549,25.3197055 C17.6840079,25.3197055 15.6010807,27.413894 15.6010807,29.9962092" id="Fill-12" fill="#231F20"></path>
                            <path d="M16.8659285,28.2444103 C16.8659285,29.1635903 17.6070561,29.9085467 18.5215119,29.9085467 C19.4359678,29.9085467 20.1770954,29.1635903 20.1770954,28.2444103 C20.1770954,27.3257309 19.4359678,26.5807745 18.5215119,26.5807745 C17.6070561,26.5807745 16.8659285,27.3257309 16.8659285,28.2444103" id="Fill-14" fill="#FFFFFF"></path>
                            <path d="M52.7687791,51.5815205 C54.1464397,51.1079125 55.1131928,50.0430454 55.4772817,48.7969457 C56.0600231,50.5196573 55.1186716,52.3790444 53.3166557,52.9983394 C51.5146398,53.6181351 49.5248516,52.7665418 48.7951796,51.0948958 C49.9248015,51.8268354 51.3911185,52.0551285 52.7687791,51.5815205" id="Fill-16" fill="#989899"></path>
                            <path d="M45.1437814,59.5790878 C46.521442,59.1054798 47.4881952,58.0411133 47.852284,56.7950136 C48.4350255,58.5172246 47.4936739,60.3766117 45.691658,60.9964074 C43.8896421,61.6157024 41.9003521,60.7646098 41.170182,59.0929637 C42.2998039,59.8249034 43.7661209,60.0526958 45.1437814,59.5790878" id="Fill-18" fill="#989899"></path>
                            <path d="M32.2200203,61.415946 C33.6853412,61.359874 34.9494419,60.6229279 35.6985386,59.541039 C35.6980405,61.3483592 34.2018394,62.8492861 32.2847694,62.9228806 C30.3681975,62.9959744 28.747977,61.6142005 28.5920812,59.8123873 C29.4313285,60.8336985 30.7546995,61.4715173 32.2200203,61.415946" id="Fill-20" fill="#989899"></path>
                            <path d="M20.6131553,59.2070602 C19.2354947,58.7334522 18.2687416,57.6685851 17.9046527,56.4224853 C17.3219113,58.145197 18.2632628,60.0045841 20.0652787,60.6238791 C21.8672946,61.2436748 23.8565847,60.3920815 24.5867548,58.7204355 C23.4571328,59.4528758 21.9908159,59.6806682 20.6131553,59.2070602" id="Fill-22" fill="#989899"></path>
                            <path d="M40.992421,53.9380458 C42.430846,53.6687 43.5589737,52.756529 44.1212943,51.5775154 C44.4176457,53.3643093 43.1854215,55.0654932 41.3037145,55.4174451 C39.4225055,55.7698976 37.59459,54.6409482 37.1448331,52.8841929 C38.1419685,53.7703305 39.5539959,54.2073916 40.992421,53.9380458" id="Fill-24" fill="#989899"></path>
                            <path d="M14.3128236,51.5815205 C12.9351631,51.1079125 11.9684099,50.0430454 11.604321,48.7969457 C11.0215796,50.5196573 11.9629312,52.3790444 13.7649471,52.9983394 C15.5669629,53.6181351 17.556253,52.7665418 18.2864231,51.0948958 C17.1568012,51.8268354 15.6904842,52.0551285 14.3128236,51.5815205" id="Fill-26" fill="#989899"></path>
                            <path d="M26.0889825,53.9380458 C24.6505575,53.6687 23.5229278,52.756529 22.9601092,51.5775154 C22.6642558,53.3643093 23.895982,55.0654932 25.777689,55.4174451 C27.658898,55.7698976 29.4868135,54.6409482 29.9365704,52.8841929 C28.939435,53.7703305 27.5274076,54.2073916 26.0889825,53.9380458" id="Fill-28" fill="#989899"></path>
                            <path d="M32.6215143,8.44263868 C32.6215143,8.44263868 30.3044944,5.70812811 26.9544781,4.84451941 C24.1164774,4.11358103 25.2361379,2.0814722 27.840544,3.55286117 C29.9722819,4.75740757 32.6215143,8.44263868 32.6215143,8.44263868" id="Fill-30" fill="#989899"></path>
                            <g id="Group-34" transform="translate(34.324999, 0.000000)">
                                <mask id="mask-4" fill="white">
                                    <use xlink:href="#path-3"></use>
                                </mask>
                                <g id="Clip-33"></g>
                                <path d="M0.0163990296,7.6936271 C0.0163990296,7.6936271 0.531901087,4.49902586 2.67907922,2.68619855 C4.21462787,1.38953389 3.29419521,0.102381438 2.5072452,0.00926189044 C1.04690508,-0.162959207 -0.15543499,1.99531159 0.0163990296,7.6936271" id="Fill-32" fill="#989899" mask="url(#mask-4)"></path>
                            </g>
                            <path d="M35.8015892,7.26192288 C35.8015892,7.26192288 40.321571,1.9120547 43.1889578,3.29032413 C45.1643019,4.24004338 38.9797714,5.18976263 35.8015892,7.26192288" id="Fill-35" fill="#989899"></path>
                            <path d="M52.9567506,30.5994837 C52.9567506,30.5994837 51.6533024,27.8289269 49.2157496,27.7142797 C46.7781969,27.6001331 43.9511537,30.4307671 43.3684123,32.0969061 C43.3684123,32.0969061 47.6617724,26.7099904 52.9567506,30.5994837" id="Fill-37" fill="#231F20"></path>
                            <path d="M36.4908179,33.1159143 L33.8206667,37.2362039 L31.5031487,33.1159143 C31.5031487,33.1159143 33.9342266,31.9323949 36.4908179,33.1159143" id="Fill-39" fill="#EC8822"></path>
                            <path d="M22.5027816,70.7208416 L22.5027816,70.7208416 C21.725793,70.7208416 21.095735,70.0875286 21.095735,69.3065259 L21.095735,68.3192585 C21.095735,67.5382558 21.725793,66.9049428 22.5027816,66.9049428 C23.2797703,66.9049428 23.9093303,67.5382558 23.9093303,68.3192585 L23.9093303,69.3065259 C23.9093303,70.0875286 23.2797703,70.7208416 22.5027816,70.7208416" id="Fill-41" fill="#EB7D23"></path>
                            <path d="M26.6622109,70.7208416 L26.6622109,70.7208416 C25.8852223,70.7208416 25.2551642,70.0875286 25.2551642,69.3065259 L25.2551642,68.3192585 C25.2551642,67.5382558 25.8852223,66.9049428 26.6622109,66.9049428 C27.4391995,66.9049428 28.0687595,67.5382558 28.0687595,68.3192585 L28.0687595,69.3065259 C28.0687595,70.0875286 27.4391995,70.7208416 26.6622109,70.7208416" id="Fill-43" fill="#EB7D23"></path>
                            <path d="M24.599854,71 L24.599854,71 C23.8228654,71 23.1928073,70.366687 23.1928073,69.5861849 L23.1928073,68.0396996 C23.1928073,67.2586969 23.8228654,66.6258845 24.599854,66.6258845 C25.3768426,66.6258845 26.0064026,67.2586969 26.0064026,68.0396996 L26.0064026,69.5861849 C26.0064026,70.366687 25.3768426,71 24.599854,71" id="Fill-45" fill="#EC8822"></path>
                            <path d="M39.6470353,70.7208416 L39.6470353,70.7208416 C38.8700467,70.7208416 38.2404867,70.0875286 38.2404867,69.3065259 L38.2404867,68.3192585 C38.2404867,67.5382558 38.8700467,66.9049428 39.6470353,66.9049428 C40.4240239,66.9049428 41.054082,67.5382558 41.054082,68.3192585 L41.054082,69.3065259 C41.054082,70.0875286 40.4240239,70.7208416 39.6470353,70.7208416" id="Fill-47" fill="#EB7D23"></path>
                            <path d="M43.8064645,70.7208416 L43.8064645,70.7208416 C43.0294759,70.7208416 42.3999159,70.0875286 42.3999159,69.3065259 L42.3999159,68.3192585 C42.3999159,67.5382558 43.0294759,66.9049428 43.8064645,66.9049428 C44.5834531,66.9049428 45.2135112,67.5382558 45.2135112,68.3192585 L45.2135112,69.3065259 C45.2135112,70.0875286 44.5834531,70.7208416 43.8064645,70.7208416" id="Fill-49" fill="#EB7D23"></path>
                            <path d="M41.7441076,71 L41.7441076,71 C40.967119,71 40.337559,70.366687 40.337559,69.5861849 L40.337559,68.0396996 C40.337559,67.2586969 40.967119,66.6258845 41.7441076,66.6258845 C42.5210962,66.6258845 43.1511543,67.2586969 43.1511543,68.0396996 L43.1511543,69.5861849 C43.1511543,70.366687 42.5210962,71 41.7441076,71" id="Fill-51" fill="#EC8822"></path>
                        </g>
                    </g>
                </g>
                <g id="Group-44" transform="translate(25.000000, 23.000000)">
                    <mask id="mask-6" fill="white">
                        <use xlink:href="#path-5"></use>
                    </mask>
                    <g id="Mask"></g>
                    <g mask="url(#mask-6)">
                        <g transform="translate(17.943636, 24.830815) scale(-1, 1) rotate(12.000000) translate(-17.943636, -24.830815) translate(-0.180235, 1.334731)">
                            <g id="icons8-iphone_x" stroke-width="1" fill="none" transform="translate(0.000000, 0.000000)">
                                <path d="M29.4902747,6.25652834 L29.5173175,40.7560621 C29.5191753,43.1279051 27.5750375,45.0669722 25.1970101,45.0651015 L7.90226485,45.0514855 C5.52423739,45.0496135 3.57705747,43.1074831 3.57519837,40.7356402 L3.54815558,6.2361064 C3.54629781,3.86426346 5.49043557,1.92519633 7.86846303,1.92706698 L25.1632082,1.94068296 C27.5412357,1.94255497 29.4884156,3.88468539 29.4902747,6.25652834 Z" id="Path" fill="#4D7182" fill-rule="nonzero" transform="translate(16.532737, 23.496084) rotate(10.000000) translate(-16.532737, -23.496084) "></path>
                                <path d="M7.96014139,42.8054691 L25.1356125,42.8189905 C26.3217935,42.8199236 27.2817936,41.8602383 27.2808648,40.6744416 L27.2539478,6.33462786 C27.2530184,5.14883116 26.2915127,4.18763318 25.1053317,4.18669941 L24.0318648,4.18585436 C23.439311,4.1853879 22.9587746,4.66576671 22.9592389,5.2581285 L22.9592389,5.2581285 C22.9601684,6.44392519 22.0001683,7.40361054 20.8139873,7.40267676 L12.2262518,7.3959164 C11.0400708,7.39498262 10.0785651,6.43378464 10.0776356,5.24798795 L10.0776356,5.24798795 C10.0771713,4.65562616 9.59588129,4.17449019 9.00332754,4.17402373 L7.9298606,4.173178 C6.74367962,4.17224491 5.78367952,5.13193026 5.7846083,6.31772695 L5.81152524,40.6575407 C5.81245469,41.8433373 6.77396042,42.8045353 7.96014139,42.8054691 Z" id="Path" fill="#FFF1D5" transform="translate(16.532737, 23.496084) rotate(10.000000) translate(-16.532737, -23.496084) "></path>
                                <g id="icons8-coins-2" transform="translate(16.802809, 24.302739) rotate(10.000000) translate(-16.802809, -24.302739) translate(8.008210, 15.541276)" fill-rule="nonzero">
                                    <g id="icons8-coins" transform="translate(-0.000000, 0.000000)">
                                        <ellipse id="Oval" fill="#F9C613" cx="8.794599" cy="8.76146309" rx="8.794599" ry="8.76146309"></ellipse>
                                        <ellipse id="Oval" fill="#FFDA5A" cx="8.794599" cy="8.76146309" rx="6.76346542" ry="6.73798233"></ellipse>
                                        <path d="M10.1012251,8.8115286 C9.90020573,8.68636484 9.69918632,8.58623383 9.44791206,8.51113558 C9.24689266,8.46107007 9.04587325,8.38597182 8.84485385,8.33590631 C8.66896187,8.28584081 8.46794246,8.23577531 8.29205048,8.16067705 C8.14128593,8.11061155 8.04077622,8.03551329 7.9151391,7.93538229 C7.81462939,7.86028403 7.73924712,7.76015303 7.68899226,7.63498927 C7.63873741,7.55989101 7.61360999,7.38466175 7.61360999,7.10930148 C7.61360999,6.95910497 7.63873741,6.83394121 7.68899226,6.6837447 C7.73924712,6.55858094 7.81462939,6.43341719 7.9151391,6.33328618 C8.0156488,6.23315517 8.14128593,6.13302417 8.29205048,6.08295866 C8.46794246,6.00786041 8.64383444,5.98282766 8.86998127,5.98282766 C9.0961281,5.98282766 9.29714751,6.00786041 9.44791206,6.08295866 C9.59867662,6.15805692 9.72431375,6.23315517 9.82482345,6.35831893 C9.92533315,6.48348269 10.0007154,6.60864645 10.0509703,6.75884296 C10.1012251,6.93407222 10.3022445,7.03420323 10.4530091,6.95910497 C10.6289011,6.90903947 10.7294108,6.70877745 10.6540285,6.55858094 C10.5786462,6.33328618 10.4530091,6.10799141 10.3022445,5.93276215 C10.1766074,5.75753289 9.975588,5.60733638 9.74944117,5.50720537 C9.59867662,5.43210712 9.42278464,5.38204161 9.22176523,5.35700886 L9.22176523,5.1317141 C9.22176523,4.95648484 9.07100068,4.80628833 8.8951087,4.80628833 C8.71921672,4.80628833 8.56845216,4.95648484 8.56845216,5.1317141 L8.56845216,5.35700886 C8.39256018,5.38204161 8.2166682,5.43210712 8.06590365,5.48217262 C7.81462939,5.58230363 7.61360999,5.73250014 7.46284543,5.88269665 C7.31208088,6.05792591 7.18644375,6.23315517 7.11106147,6.45844994 C7.0356792,6.65871195 6.98542434,6.88400672 6.98542434,7.10930148 C6.98542434,7.43472725 7.0356792,7.68505477 7.1361889,7.91034954 C7.2366986,8.1356443 7.36233573,8.31087356 7.51310028,8.43603732 C7.66386484,8.58623383 7.86488424,8.68636484 8.06590365,8.76146309 C8.26692306,8.83656135 8.46794246,8.9116596 8.66896187,8.96172511 C8.86998127,9.01179061 9.07100068,9.06185611 9.27202008,9.13695437 C9.44791206,9.18701987 9.62380404,9.26211813 9.74944117,9.36224913 C9.8750783,9.43734739 10.0007154,9.56251115 10.0760977,9.71270766 C10.15148,9.86290417 10.2017348,10.0381334 10.2017348,10.2884609 C10.2017348,10.4636902 10.1766074,10.6138867 10.1263526,10.789116 C10.0760977,10.9393125 10.0007154,11.0644762 9.90020573,11.18964 C9.79969602,11.289771 9.67405889,11.389902 9.52329434,11.4399675 C9.37252979,11.5150658 9.17151038,11.5400985 8.97049098,11.5400985 C8.794599,11.5400985 8.61870702,11.5150658 8.44281504,11.4650003 C8.29205048,11.4149348 8.14128593,11.3398365 8.0156488,11.2146728 C7.89001167,11.089509 7.78950197,10.9393125 7.71411969,10.7640832 C7.63873741,10.588854 7.43771801,10.5137557 7.28695345,10.588854 C7.11106147,10.6639522 7.0356792,10.8642142 7.11106147,11.0144107 C7.2366986,11.289771 7.38746316,11.5150658 7.58848256,11.690295 C7.78950197,11.8655243 8.0156488,11.9906881 8.24179563,12.0657863 C8.34230533,12.0908191 8.44281504,12.1158518 8.54332474,12.1408846 L8.54332474,12.3912121 C8.54332474,12.5664414 8.69408929,12.7166379 8.86998127,12.7166379 C9.04587325,12.7166379 9.19663781,12.5664414 9.19663781,12.3912121 L9.19663781,12.1659173 C9.39765721,12.1408846 9.59867662,12.0908191 9.74944117,12.0407536 C10.0007154,11.9406226 10.2017348,11.790426 10.3524994,11.6151968 C10.5032639,11.4399675 10.6289011,11.2146728 10.7042833,10.989378 C10.7796656,10.7640832 10.8047931,10.5387885 10.8047931,10.2884609 C10.8047931,9.93800242 10.7294108,9.61257665 10.5786462,9.36224913 C10.5032639,9.13695437 10.327372,8.96172511 10.1012251,8.8115286 Z" id="Path" fill="#454B54" transform="translate(8.895109, 8.761463) scale(-1, 1) translate(-8.895109, -8.761463) "></path>
                                        <path d="M8.8951087,13.0921291 C8.51819731,13.0921291 8.2166682,12.7917361 8.19154078,12.4162448 C8.16641335,12.4162448 8.16641335,12.4162448 8.14128593,12.3912121 C7.83975682,12.2910811 7.56335514,12.1408846 7.3372083,11.9406226 C7.11106147,11.7403605 6.91004207,11.4650003 6.78440494,11.1395745 C6.70902266,10.9643452 6.70902266,10.7640832 6.78440494,10.6138867 C6.85978722,10.4386575 6.98542434,10.3134937 7.16131632,10.2383954 C7.26182603,10.1883299 7.3372083,10.1883299 7.43771801,10.1883299 C7.71411969,10.1883299 7.96539395,10.3635592 8.09103108,10.6138867 C8.14128593,10.7390505 8.2166682,10.8642142 8.31717791,10.9393125 C8.39256018,11.0144107 8.49306989,11.0644762 8.59357959,11.089509 C8.86998127,11.1646073 9.22176523,11.1646073 9.42278464,11.089509 C9.52329434,11.0394435 9.59867662,10.989378 9.64893147,10.9393125 C9.72431375,10.8642142 9.7745686,10.789116 9.79969602,10.688985 C9.84995087,10.5638212 9.84995087,10.4386575 9.84995087,10.3134937 C9.84995087,10.1132317 9.79969602,9.98806793 9.7745686,9.93800242 C9.72431375,9.83787142 9.64893147,9.76277316 9.54842177,9.71270766 C9.44791206,9.6376094 9.32227493,9.5875439 9.17151038,9.5374784 C8.97049098,9.48741289 8.794599,9.41231464 8.59357959,9.36224913 C8.36743276,9.31218363 8.16641335,9.23708538 7.94026652,9.13695437 C7.68899226,9.03682336 7.46284543,8.9116596 7.28695345,8.73643034 C7.08593405,8.56120108 6.93516949,8.33590631 6.80953236,8.0855788 C6.68389524,7.83525128 6.63364039,7.50982551 6.63364039,7.13433423 C6.63364039,6.85897396 6.68389524,6.60864645 6.78440494,6.35831893 C6.88491464,6.10799141 7.0356792,5.8576639 7.21157118,5.65740188 C7.41259058,5.45713987 7.66386484,5.28191061 7.94026652,5.15674685 C8.04077622,5.1317141 8.1161585,5.08164859 8.2166682,5.05661584 C8.26692306,4.70615732 8.54332474,4.43079705 8.92023612,4.43079705 C9.27202008,4.43079705 9.57354919,4.70615732 9.62380404,5.05661584 C9.72431375,5.08164859 9.82482345,5.1317141 9.92533315,5.15674685 C10.2268623,5.28191061 10.4781365,5.48217262 10.6540285,5.70746739 C10.8299205,5.93276215 10.980685,6.18308967 11.0811947,6.45844994 C11.1314496,6.6336792 11.1314496,6.83394121 11.0309399,6.98413772 C10.9304302,7.13433423 10.8047931,7.28453074 10.6289011,7.33459625 C10.5535188,7.359629 10.4781365,7.359629 10.4027542,7.359629 C10.1012251,7.359629 9.82482345,7.15936699 9.72431375,6.85897396 C9.69918632,6.75884296 9.64893147,6.65871195 9.57354919,6.5836137 C9.52329434,6.50851544 9.44791206,6.45844994 9.34740236,6.40838443 C9.24689266,6.35831893 9.0961281,6.33328618 8.92023612,6.33328618 C8.74434414,6.33328618 8.59357959,6.35831893 8.46794246,6.40838443 C8.36743276,6.45844994 8.26692306,6.50851544 8.2166682,6.5836137 C8.16641335,6.65871195 8.1161585,6.73381021 8.06590365,6.80890846 C8.04077622,6.90903947 8.0156488,7.00917047 8.0156488,7.10930148 C8.0156488,7.33459625 8.06590365,7.43472725 8.06590365,7.45976001 C8.09103108,7.53485826 8.14128593,7.60995652 8.19154078,7.63498927 C8.26692306,7.68505477 8.34230533,7.76015303 8.44281504,7.78518578 C8.61870702,7.86028403 8.76947157,7.91034954 8.94536355,7.96041504 C9.14638296,8.01048054 9.37252979,8.0855788 9.57354919,8.1356443 C9.84995087,8.21074256 10.1012251,8.33590631 10.327372,8.48610282 C10.6037736,8.66133209 10.8047931,8.88662685 10.980685,9.16198712 C11.156577,9.46238014 11.2570867,9.83787142 11.2570867,10.2634282 C11.2570867,10.5387885 11.2068319,10.8141487 11.1314496,11.0644762 C11.0309399,11.3398365 10.8801753,11.6151968 10.7042833,11.8154588 C10.5032639,12.0407536 10.2519897,12.2159828 9.95046058,12.3411466 C9.84995087,12.3912121 9.72431375,12.4162448 9.62380404,12.4412776 C9.54842177,12.8167689 9.24689266,13.0921291 8.8951087,13.0921291 Z M8.84485385,11.8905571 C8.86998127,11.9155898 8.86998127,11.9406226 8.8951087,11.9656553 C8.92023612,11.9406226 8.92023612,11.9155898 8.94536355,11.8905571 C8.92023612,11.8905571 8.8951087,11.8905571 8.84485385,11.8905571 Z M8.8951087,5.55727088 C8.86998127,5.58230363 8.86998127,5.60733638 8.84485385,5.63236913 C8.86998127,5.63236913 8.92023612,5.63236913 8.94536355,5.63236913 C8.92023612,5.60733638 8.92023612,5.58230363 8.8951087,5.55727088 Z" id="Shape" fill="#EAB600" transform="translate(8.945364, 8.761463) scale(-1, 1) translate(-8.945364, -8.761463) "></path>
                                    </g>
                                </g>
                            </g>
                            <path d="M34.7468621,16.6795732 C32.2284827,11.8656437 29.3820895,8.8474906 26.0294555,11.6066891 C23.2643601,15.395482 28.478169,23.9333248 28.478169,23.9333248 C28.478169,23.9333248 24.2561437,19.8385581 22.2455793,22.2356501 C20.2330602,24.6340092 20.9823764,29.7092021 27.113737,33.2461747 C27.113737,33.2461747 23.8182764,31.2880736 21.9280933,33.792862 C19.2559979,37.3342709 28.9190212,46.4997894 30.2907882,45.4769472 C36.0549087,41.1785751 37.839871,23.5450941 34.7468621,16.6795732" id="Fill-59" fill="#989899"></path>
                        </g>
                    </g>
                </g>
            </g>
        </g>
    </g>
</svg>