<?xml version="1.0" encoding="UTF-8"?>
<svg width="160px" height="74px" viewBox="0 0 160 74" version="1.1" xmlns="http://www.w3.org/2000/svg" xmlns:xlink="http://www.w3.org/1999/xlink">
    <title>Group 26</title>
    <defs>
        <rect id="path-1" x="0" y="0" width="160" height="67"></rect>
        <polygon id="path-3" points="0 5.69509717e-14 160 5.69509717e-14 160 67 0 67"></polygon>
        <rect id="path-5" x="0" y="0" width="69" height="48"></rect>
    </defs>
    <g id="060721" stroke="none" stroke-width="1" fill="none" fill-rule="evenodd">
        <g id="Guideline" transform="translate(-1164.000000, -787.000000)">
            <g id="Group-26" transform="translate(1164.000000, 787.000000)">
                <g id="Group-31">
                    <g id="Group-69">
                        <g id="Group-68-Clipped">
                            <mask id="mask-2" fill="white">
                                <use xlink:href="#path-1"></use>
                            </mask>
                            <g id="path-1"></g>
                            <g id="Group-68" mask="url(#mask-2)">
                                <g transform="translate(50.302897, 0.000000)" id="Group-114">
                                    <path d="M61.1060423,19.0857269 C61.1060423,19.0857269 72.5023539,19.2876851 80.032546,25.3343328 C80.032546,25.3343328 84.874123,46.0048031 68.416334,70.3756691 C68.416334,70.3756691 50.5235516,74.9146103 41.9765529,70.2798088 C33.4286144,65.6431459 56.6290877,21.3026139 61.1060423,19.0857269" id="Fill-11" fill="#1CBEAD" fill-rule="nonzero"></path>
                                    <path d="M80.032734,25.3342397 C80.032734,25.3342397 63.8719056,42.4346099 68.4174617,70.3755761 C84.874311,46.00471 80.032734,25.3342397 80.032734,25.3342397" id="Fill-13" fill="#83C7C6" fill-rule="nonzero"></path>
                                    <path d="M0.398850485,56.7707128 C0.398850485,56.7707128 -4.72303932,18.7237691 21.7419888,8.99999665 C48.2078443,-0.722956382 62.705523,14.656764 65.906911,28.3967348 C69.1091265,42.1358861 54.4054137,59.1094661 54.4054137,59.1094661 L0.398850485,56.7707128 Z" id="Fill-15" fill-opacity="0.2" fill="#000000" fill-rule="nonzero"></path>
                                    <path d="M8.45957978,57.2292854 C8.45957978,57.2292854 1.25087148,60.1883738 3.36085838,63.3236471 C5.47084538,66.4572816 46.3011608,72.8122332 48.896031,71.3322792 C54.6980813,68.0240988 61.0272146,52.876287 62.258454,42.6026534 C63.488866,32.3298393 8.45957978,57.2292854 8.45957978,57.2292854" id="Fill-29" fill-opacity="0.2" fill="#000000" fill-rule="nonzero"></path>
                                    <path d="M37.2613977,5.20284136 C20.3889493,2.63545731 5.61986828,15.8362201 3.71674288,31.8665957 C1.75652368,48.3779974 6.47006758,68.1080714 13.5736902,70.7705134 C15.9873498,71.6752029 21.029577,71.8196151 23.4266876,71.4336471 C26.0927181,71.0042474 33.1249959,69.4112073 34.3562353,70.3896486 C36.4207127,72.0285787 39.9927964,72.0400512 42.4238323,71.4336471 C52.7156038,68.8695409 62.0731889,56.5202023 63.2456797,39.0074143 C64.5729028,19.182096 54.7023013,7.85626925 37.2613977,5.20284136" id="Fill-31" fill="#E7E4E2" fill-rule="nonzero"></path>
                                    <path d="M63.2455969,39.0074143 C64.4346366,21.2422311 56.627685,10.3081087 42.4444357,6.31567492 L42.2466762,6.36812069 C42.2466762,6.36812069 60.4686887,10.6858821 61.8695545,32.2796061 C62.8078781,46.7218585 57.0678862,60.3233397 50.6154635,67.1380112 C57.2755751,61.6197334 62.3982924,51.6632328 63.2455969,39.0074143" id="Fill-33" fill="#D8D8D8" fill-rule="nonzero"></path>
                                    <path d="M10.6259985,45.9784398 C9.52301318,45.4720104 8.78162168,44.4058863 8.53587028,43.1816055 C7.99637558,44.8402028 8.68315558,46.6749851 10.1204291,47.3395713 C11.5668044,48.0090742 13.2432097,47.2502496 13.9233702,45.6326255 C12.9536037,46.3144205 11.7347759,46.488147 10.6259985,45.9784398" id="Fill-35" fill="#989899" fill-rule="nonzero"></path>
                                    <path d="M14.3846713,56.7347383 C13.3247131,55.978372 12.7405364,54.7508133 12.700819,53.4822814 C11.8468948,55.0007502 12.2382767,56.9748415 13.617629,57.9655748 C15.0060831,58.9628638 16.8868675,58.5990213 17.8822849,57.1551238 C16.7511664,57.6058296 15.4504215,57.4960213 14.3846713,56.7347383" id="Fill-37" fill="#989899" fill-rule="nonzero"></path>
                                    <path d="M23.078893,61.1713221 C21.6896115,60.8140354 20.6023476,59.8233021 20.0570608,58.5973824 C19.786486,60.3928303 20.9738708,62.1874588 22.7851498,62.6594707 C24.6121502,63.1355799 26.3969509,62.0932203 26.8346698,60.3117033 C25.8558013,61.1655859 24.4764491,61.5302478 23.078893,61.1713221" id="Fill-39" fill="#989899" fill-rule="nonzero"></path>
                                    <path d="M32.8554967,60.6448158 C34.1785827,60.2654035 35.1268356,59.2976153 35.5041509,58.1216829 C36.0304065,59.8007668 35.0846359,61.5265602 33.3503094,62.0166004 C31.6325318,62.5017237 29.7790531,61.5921174 29.1212336,59.9835075 C30.1671252,60.7300402 31.5423402,61.0209503 32.8554967,60.6448158" id="Fill-41" fill="#989899" fill-rule="nonzero"></path>
                                    <path d="M19.2927491,51.3393803 C18.0011061,50.805089 17.0975352,49.691436 16.7549726,48.4196262 C16.2196152,50.137225 17.0983627,52.0473981 18.7805601,52.7504991 C20.4768241,53.4585169 22.3650555,52.6824835 23.0634198,51.004219 C21.9844304,51.7056811 20.5926665,51.8769493 19.2927491,51.3393803" id="Fill-43" fill="#989899" fill-rule="nonzero"></path>
                                    <path d="M41.9687371,51.8843245 C43.3075445,51.5155652 44.2458681,50.4764835 44.5942228,49.1817287 C45.1850191,51.0738736 44.2731738,52.9578238 42.5173337,53.4331135 C40.77887,53.902667 38.8567133,52.8152368 38.1351805,50.9968439 C39.2265816,51.8695741 40.6398591,52.2498059 41.9687371,51.8843245" id="Fill-45" fill="#989899" fill-rule="nonzero"></path>
                                    <path d="M30.7372354,52.9262744 C32.2191909,52.9369274 33.5108339,52.2198955 34.2861506,51.1095203 C34.2712566,53.0205128 32.7338622,54.5275091 30.7943291,54.506203 C28.8738273,54.4848969 27.2677549,52.9688865 27.1188147,51.0898531 C27.9487428,52.1895753 29.2660366,52.9148018 30.7372354,52.9262744" id="Fill-47" fill="#989899" fill-rule="nonzero"></path>
                                    <path d="M39.2055644,18.1270347 C36.8423791,17.8426803 34.0050673,18.0672137 31.571549,18.7572033 C29.8231559,19.2529797 27.9241677,18.8145659 26.6043916,17.544395 C25.1091969,16.1054144 22.8039328,15.1114032 20.3075287,14.8139374 C12.9242293,13.9330125 6.65136228,19.4644017 5.64022348,27.1829431 C4.61915528,34.9768754 9.96942018,41.9144667 17.4975225,42.6036368 C19.0903558,42.7495016 20.2992542,42.5806918 21.4593333,42.1644035 C23.2259302,41.530957 25.1778749,41.7767965 26.6350071,42.8855328 C29.2530457,44.8768329 32.8300942,46.2158388 36.1117444,46.515763 C44.27698,47.2598373 51.4335592,41.5022757 52.2097034,33.7345664 C52.979228,26.0406088 47.2061384,19.0882672 39.2055644,18.1270347" id="Fill-49" fill="#FFFFFF" fill-rule="nonzero"></path>
                                    <path d="M44.2207965,31.3953214 C44.5277789,33.7266995 42.8944008,35.8589476 40.5734152,36.1580524 C38.2524296,36.458796 36.120929,34.8124907 35.8147741,32.4811126 C35.5077917,30.1505539 37.1403423,28.0183058 39.4621554,27.7192011 C41.783141,27.4184574 43.9138141,29.0647627 44.2207965,31.3953214" id="Fill-51" fill="#231F20" fill-rule="nonzero"></path>
                                    <path d="M39.7756746,31.25044 C39.861729,31.9076509 39.3702262,32.5124162 38.677654,32.6017379 C37.9842544,32.691879 37.3520857,32.2313396 37.2652039,31.5749481 C37.1791495,30.9169177 37.6706524,30.311333 38.364052,30.2220113 C39.0566242,30.1326896 39.6896202,30.5924095 39.7756746,31.25044" id="Fill-53" fill="#FFFFFF" fill-rule="nonzero"></path>
                                    <path d="M18.7768366,27.3611768 C19.0565133,29.4885081 17.5662833,31.4347376 15.4480219,31.708439 C13.3289331,31.9821403 11.3836079,30.4792414 11.1039312,28.3519101 C10.8234271,26.2245787 12.313657,24.2775297 14.4327459,24.0038284 C16.5518347,23.7301271 18.4963324,25.233026 18.7768366,27.3611768" id="Fill-55" fill="#231F20" fill-rule="nonzero"></path>
                                    <path d="M14.7192076,27.227604 C14.7986424,27.8274524 14.3493393,28.3805913 13.7171707,28.4625378 C13.0841746,28.5436649 12.5074449,28.1240988 12.4280101,27.5234309 C12.3494027,26.9244019 12.7978784,26.371263 13.4308744,26.2893165 C14.0638705,26.2081894 14.6406003,26.628575 14.7192076,27.227604" id="Fill-57" fill="#FFFFFF" fill-rule="nonzero"></path>
                                    <path d="M37.9437923,8.45833024 C37.9437923,8.45833024 40.9879655,6.30887336 44.6055588,6.29002567 C47.6695908,6.2752753 47.0481789,3.96192541 44.0329663,4.77565422 C41.5646953,5.44187932 37.9437923,8.45833024 37.9437923,8.45833024" id="Fill-59" fill="#989899" fill-rule="nonzero"></path>
                                    <path d="M35.9810907,8.31746419 C35.9810907,8.31746419 36.267387,4.99371388 34.5479545,2.63939074 C33.3183699,0.957028953 34.57857,-0.0984420541 35.4002237,0.00726893968 C36.9260339,0.203121091 37.5995748,2.66479415 35.9810907,8.31746419" id="Fill-61" fill="#989899" fill-rule="nonzero"></path>
                                    <path d="M34.60902,7.51717461 C34.60902,7.51717461 31.5532625,1.38020071 28.4710267,1.99971631 C26.3469732,2.42583814 32.0555221,4.79982844 34.60902,7.51717461" id="Fill-63" fill="#989899" fill-rule="nonzero"></path>
                                    <path d="M7.52754478,58.7569322 C7.52754478,58.7569322 6.19287458,62.2626038 9.83280888,65.8993897 C13.4735706,69.5361757 20.8560425,68.0627775 22.2436692,67.8857731 L7.52754478,58.7569322 Z" id="Fill-65" fill="#E7E4E2" fill-rule="nonzero"></path>
                                    <path d="M53.5036632,61.2826055 C54.2525017,64.1663031 47.6577583,73.0091506 37.4114963,71.8348572 C32.7620781,71.3022049 28.9045255,69.5911618 28.8639807,66.6804219 C28.8234359,63.769682 32.5841772,61.3579963 37.2633835,61.294078 C41.9434173,61.2301597 52.7722011,58.4636457 53.5036632,61.2826055" id="Fill-71" fill="#E7E4E2" fill-rule="nonzero"></path>
                                    <path d="M34.6772843,72.9623592 C34.559787,72.9566229 34.4422896,72.9238443 34.3338942,72.861565 C33.9723004,72.6534208 33.8498384,72.1945204 34.0600097,71.8380531 L35.7562737,68.9502582 C35.9672723,68.5929714 36.430642,68.4716906 36.790581,68.6790152 C37.1513474,68.8871594 37.2738093,69.3460598 37.0636381,69.7025271 L35.3673741,72.5911415 C35.2200887,72.8410783 34.9503414,72.9754706 34.6772843,72.9623592" id="Fill-75" fill="#EB8823" fill-rule="nonzero"></path>
                                    <path d="M22.6570611,30.8431658 C22.6570611,30.8431658 25.7947358,29.9556851 27.7367512,32.3968716 C27.7367512,32.3968716 24.6743741,33.6547505 22.9557691,35.2813886 C22.9557691,35.2813886 22.4328233,33.0622772 22.6570611,30.8431658" id="Fill-77" fill="#EC8822" fill-rule="nonzero"></path>
                                    <path d="M57.6453607,54.6572304 C54.6135991,44.1902031 36.4974996,43.1339126 34.764828,45.7594787 C32.793852,48.7415121 45.8559122,52.7216539 45.8559122,52.7216539 C45.8559122,52.7216539 39.5044379,50.2403137 37.3497689,51.9611903 C35.1950999,53.682067 43.5473383,56.6903233 46.1612397,57.8777281 C46.1612397,57.8777281 41.7244751,56.5403611 40.6678267,57.9531189 C39.2396552,59.8624725 45.866669,62.2356434 51.0117273,62.3987169 C55.9565437,62.5560542 58.6838052,58.2448485 57.6453607,54.6572304" id="Fill-111" fill="#989899" fill-rule="nonzero"></path>
                                </g>
                            </g>
                        </g>
                        <g id="Path-3-Clipped" transform="translate(107.167273, 62.999478)" fill="#AEA392" fill-rule="nonzero">
                            <path d="M12,2.00052174 L12,4.00052174 L12,4.00052174 L0,4.00052174 L9.230769,0.154367938 C10.250372,-0.270466562 11.421319,0.211688338 11.846154,1.23129094 C11.947712,1.47503134 12,1.73646974 12,2.00052174 Z" id="Path-3"></path>
                        </g>
                    </g>
                    <g id="Rectangle-Clipped">
                        <mask id="mask-4" fill="white">
                            <use xlink:href="#path-3"></use>
                        </mask>
                        <g id="path-1"></g>
                        <path d="M32.2819306,63.0786961 L116.666047,63.0432104 L116.666047,63.0432104 L106.631579,68.1621622 L22,67.6250193 L22.5710306,67.0622222 C25.1595318,64.5110437 28.6475327,63.0802244 32.2819306,63.0786961 Z" id="Rectangle" fill="#887D6B" fill-rule="nonzero" mask="url(#mask-4)"></path>
                    </g>
                    <g id="Group-2-Clipped" transform="translate(3.000000, 23.000000)">
                        <mask id="mask-6" fill="white">
                            <use xlink:href="#path-5"></use>
                        </mask>
                        <g id="path-3"></g>
                        <g id="Group-2" mask="url(#mask-6)">
                            <g transform="translate(0.405013, -1.208623)" id="Group">
                                <g transform="translate(34.094987, 26.208623) rotate(-4.000000) translate(-34.094987, -26.208623) translate(1.594987, 2.208623)">
                                    <path d="M1.22289264,17.8962347 C4.89545594,14.2876338 10.0411047,12.4833333 16.659839,12.4833333 C24.6618391,19.3165502 37.3307541,27.1276447 54.666584,35.916617 C49.533988,42.5134795 46.96769,46.5412738 46.96769,48 C38.1378251,44.1675289 22.8895593,34.1329405 1.22289264,17.8962347 Z" id="Path-32" fill="#A3C6C2" fill-rule="nonzero"></path>
                                    <path d="M0,10.033908 C15.3634476,9.56110942 24.3691151,6.21647342 27.0170026,0 C36.4651232,12.4045977 49.1261224,21.4645594 65,27.179885 C59.5412469,29.7970951 54.7498453,35.5036564 50.6257952,44.2995687 C32.2387126,37.6804276 15.3634476,26.2585407 0,10.033908 Z" id="Path-28" fill="#C3DFDC" fill-rule="nonzero"></path>
                                    <path d="M47.1576889,13.1384127 C43.0709516,10.9358636 37.4535837,14.3424062 43.9015988,22.5290037 C48.2002755,27.9867353 52.9302772,28.6410492 58.0916037,24.4919455 C53.5268187,18.3912897 49.8821804,14.6067788 47.1576889,13.1384127 Z" id="Path-21" fill="#989899" fill-rule="nonzero"></path>
                                    <path d="M11.1007059,14.4905026 L15.215296,19.8316092 C21.6836214,18.198659 26.991144,15.7492337 31.1378637,12.4833333 C29.9650729,11.5451426 28.7421802,10.4881858 26.5082782,8.81616543 C21.7258992,10.8556944 16.5900418,12.7471401 11.1007059,14.4905026 Z" id="Path-33" fill="#D8EEEB" fill-rule="nonzero"></path>
                                    <path d="M27.0914226,26.2192375 C31.4529747,24.1477766 35.1405206,22.0763158 38.1540603,20.004855" id="Path-34" stroke="#D8EEEB" stroke-width="1.52412471" stroke-linecap="round" stroke-linejoin="round"></path>
                                    <path d="M31.1879655,29.7201296 C34.0807892,28.0871794 36.5265745,26.4542292 38.5253214,24.821279" id="Path-34" stroke="#D8EEEB" stroke-width="1.52412471" stroke-linecap="round" stroke-linejoin="round"></path>
                                </g>
                            </g>
                        </g>
                    </g>
                </g>
                <rect id="Rectangle" x="0" y="0" width="160" height="74"></rect>
            </g>
        </g>
    </g>
</svg>