<?xml version="1.0" encoding="UTF-8"?>
<svg width="160px" height="74px" viewBox="0 0 160 74" version="1.1" xmlns="http://www.w3.org/2000/svg" xmlns:xlink="http://www.w3.org/1999/xlink">
    <title>Group 13</title>
    <defs>
        <rect id="path-1" x="0" y="0" width="159" height="66"></rect>
        <path d="M5.15357652,57.842971 L21.2155063,69.682018 C22.8884442,70.915477 25.4187088,70.915477 27.0916467,69.682018 L43.1535765,57.842971 L43.1535765,11.1513413 C43.1535765,9.88548594 41.9064251,8.84520483 40.3888417,8.84520483 L7.91831135,8.84520483 C6.39928951,8.84520483 5.15357652,9.88548594 5.15357652,11.1513413 L5.15357652,57.842971 Z" id="path-3"></path>
        <filter x="-18.4%" y="-8.1%" width="136.8%" height="122.7%" filterUnits="objectBoundingBox" id="filter-4">
            <feOffset dx="0" dy="2" in="SourceAlpha" result="shadowOffsetOuter1"></feOffset>
            <feGaussianBlur stdDeviation="2" in="shadowOffsetOuter1" result="shadowBlurOuter1"></feGaussianBlur>
            <feColorMatrix values="0 0 0 0 0   0 0 0 0 0   0 0 0 0 0  0 0 0 0.1 0" type="matrix" in="shadowBlurOuter1"></feColorMatrix>
        </filter>
        <filter x="-4.3%" y="-5.0%" width="108.5%" height="110.0%" filterUnits="objectBoundingBox" id="filter-5">
            <feOffset dx="-2" dy="2" in="SourceAlpha" result="shadowOffsetOuter1"></feOffset>
            <feColorMatrix values="0 0 0 0 0   0 0 0 0 0   0 0 0 0 0  0 0 0 0.05 0" type="matrix" in="shadowOffsetOuter1" result="shadowMatrixOuter1"></feColorMatrix>
            <feMerge>
                <feMergeNode in="shadowMatrixOuter1"></feMergeNode>
                <feMergeNode in="SourceGraphic"></feMergeNode>
            </feMerge>
        </filter>
        <polygon id="path-6" points="0 0 33.5020649 0 33.5020649 25.3316488 0 25.3316488"></polygon>
    </defs>
    <g id="060721" stroke="none" stroke-width="1" fill="none" fill-rule="evenodd">
        <g id="視覺圖片" transform="translate(-506.000000, -174.000000)">
            <g id="Group-13" transform="translate(506.000000, 174.000000)">
                <path d="M0,0 L160,0 L160,74 L0,74 L0,0 Z" id="Rectangle"></path>
                <g id="Group-55" transform="translate(0.000000, 1.000000)">
                    <mask id="mask-2" fill="white">
                        <use xlink:href="#path-1"></use>
                    </mask>
                    <g id="Rectangle"></g>
                    <g id="Group-6" mask="url(#mask-2)">
                        <g transform="translate(16.000000, 9.000000)">
                            <g id="noun_Email_4052589" stroke-width="1" fill="none" fill-rule="evenodd">
                                <g id="Group">
                                    <g id="Path">
                                        <use fill="black" fill-opacity="1" filter="url(#filter-4)" xlink:href="#path-3"></use>
                                        <use fill="#FFFFFF" fill-rule="evenodd" xlink:href="#path-3"></use>
                                    </g>
                                    <g id="Group-8">
                                        <circle id="Oval" fill="#887D6B" cx="8.5" cy="9.5" r="8.5"></circle>
                                        <text id="@" font-family="MicrosoftJhengHeiBold, Microsoft JhengHei" font-size="12" font-weight="bold" letter-spacing="0.133333335" fill="#FFFFFF">
                                            <tspan x="2" y="13">@</tspan>
                                        </text>
                                    </g>
                                    <path d="M14.5414013,31.8280605 L14.5414013,33 L13.6496815,33 L13.6496815,31.8280605 L9.12738854,31.8280605 L9.12738854,30.1114168 L13.6496815,30.1114168 L13.6496815,27.6024759 L11.8343949,27.6024759 C11.3991486,27.6024759 11.0063712,27.5337008 10.656051,27.3961486 C10.3057307,27.2585963 10.0084938,27.068777 9.76433121,26.826685 C9.52016863,26.584593 9.33174164,26.2957376 9.19904459,25.96011 C9.06634753,25.6244825 9,25.258599 9,24.8624484 C9,24.4773021 9.06103973,24.1196715 9.18312102,23.7895461 C9.30520231,23.4594206 9.4883215,23.1760672 9.73248408,22.9394773 C9.97664666,22.7028874 10.2738836,22.5158191 10.6242038,22.3782669 C10.974524,22.2407146 11.3832248,22.1719395 11.8503185,22.1719395 L13.6496815,22.1719395 L13.6496815,21 L14.5414013,21 L14.5414013,22.1719395 L18.5541401,22.1719395 L18.5541401,23.8555708 L14.5414013,23.8555708 L14.5414013,26.215956 L16.1178344,26.215956 C17.0520217,26.215956 17.7659211,26.4415383 18.2595541,26.8927098 C18.7531872,27.3438812 19,28.0481383 19,29.0055021 C19,29.4126568 18.9416142,29.7867933 18.8248408,30.127923 C18.7080674,30.4690526 18.530256,30.766161 18.2914013,31.0192572 C18.0525466,31.2723534 17.7526557,31.4704257 17.3917197,31.6134801 C17.0307838,31.7565344 16.6061596,31.8280605 16.1178344,31.8280605 L14.5414013,31.8280605 Z M16.1931228,30.0612245 C16.6409459,30.0612245 16.9768082,29.9538142 17.2007197,29.7389903 C17.4246313,29.5241665 17.5365854,29.2287881 17.5365854,28.8528464 C17.5365854,28.4339399 17.4219657,28.12245 17.1927229,27.9183673 C16.9634801,27.7142847 16.6302834,27.6122449 16.1931228,27.6122449 L14.6097561,27.6122449 L14.6097561,30.0612245 L16.1931228,30.0612245 Z M13.6341463,23.6938776 L11.8560189,23.6938776 C11.4888521,23.6938776 11.2056134,23.8051937 11.0062943,24.0278293 C10.8069751,24.2504649 10.7073171,24.5444537 10.7073171,24.9098045 C10.7073171,25.2979897 10.8122203,25.6005412 11.0220299,25.8174682 C11.2318395,26.0343953 11.509833,26.1428571 11.8560189,26.1428571 L13.6341463,26.1428571 L13.6341463,23.6938776 Z" id="$" fill="#887D6B" fill-rule="nonzero" transform="translate(14.000000, 27.000000) rotate(-360.000000) translate(-14.000000, -27.000000) "></path>
                                </g>
                            </g>
                            <rect id="Rectangle" fill="#887D6B" fill-rule="nonzero" x="21" y="23" width="12" height="2"></rect>
                            <rect id="Rectangle" fill="#887D6B" fill-rule="nonzero" x="21" y="28" width="12" height="2"></rect>
                            <rect id="Rectangle" fill="#887D6B" fill-rule="nonzero" x="9" y="35" width="22" height="2"></rect>
                        </g>
                    </g>
                    <g id="Group-52" filter="url(#filter-5)" mask="url(#mask-2)">
                        <g transform="translate(41.000000, 4.000000)">
                            <path d="M67.3394465,66.6786574 C67.1309998,66.9144987 66.8189025,67.0544045 66.4804631,67.0309917 L63.5347227,66.8248448 L64.0054456,69.8867835 C64.0930619,70.4561146 63.7007929,70.9900409 63.1287099,71.0774106 C62.5571997,71.1642093 62.022912,70.7730441 61.9352957,70.203142 L61.266434,65.8500724 C61.2183309,65.5365691 61.3070925,65.2259211 61.5310008,64.9843694 C61.7463193,64.7513834 62.0572713,64.6280379 62.3745225,64.6503086 L66.6264903,64.9478226 C67.2037271,64.9883667 67.6383727,65.4868883 67.5977141,66.0625008 C67.5811071,66.3000552 67.4860463,66.5130546 67.3394465,66.6786574" id="Fill-1" fill="#EC8822"></path>
                            <g id="Group-7" stroke-width="1" fill="none" transform="translate(60.497935, 28.445961)">
                                <mask id="mask-7" fill="white">
                                    <use xlink:href="#path-6"></use>
                                </mask>
                                <g id="Clip-6"></g>
                            </g>
                            <path d="M3.96766858,35 C3.96766858,35 0.342219808,36.7662675 0.0129957885,44.2754078 C-0.355077661,52.6621747 7.15332188,59.1825456 15.1727408,61.3908807 L3.96766858,35 Z" id="Fill-6" fill="#989899"></path>
                            <path d="M67.3287951,32.4676873 C64.9946509,17.3013254 51.6741093,5.67543731 35.5882138,5.67543731 C17.8582242,5.67543731 3.48456892,19.8002146 3.48456892,37.223343 C3.48456892,55.507035 11.59509,68.7592569 23.1449806,74.2252916 C24.963162,75.0858551 26.9978073,75.1966377 28.9001692,74.6695639 C29.9372485,74.4274412 31.4782647,73.5725881 34.4869971,69.9184765 C37.6892872,66.0302368 48.7043174,66.1712847 51.224002,66.6361147 C54.9863492,67.3310754 57.8464772,70.1982881 62.4449015,65.7515673 C66.3870626,61.9398475 69.1653015,42.3518907 67.3660177,32.4020172 C67.3660177,32.4020172 67.3517013,32.4271431 67.3287951,32.4676873 Z" id="Fill-10" fill="#E7E4E2"></path>
                            <path d="M49.5626501,13.3860771 C46.4207581,13.1818956 43.4494974,13.8165596 40.8672762,15.0796488 C37.5376897,16.7091302 33.6256814,16.7091302 30.2960949,15.0796488 C27.7138737,13.8165596 24.742613,13.1818956 21.600721,13.3860771 C13.3870962,13.9214862 6.72735437,20.316903 6.16085827,28.2141877 C5.49084581,37.5634294 13.1800635,45.3484143 22.7598766,45.3484143 C25.5150043,45.3484143 28.1137198,44.7046756 30.4018863,43.5646625 C33.6450196,41.9487932 37.5183514,41.9487932 40.7614848,43.5646625 C43.0496512,44.7046756 45.6483668,45.3484143 48.4034944,45.3484143 C57.9833076,45.3484143 65.6725253,37.5634294 65.0025128,28.2141877 C64.4360167,20.316903 57.7762749,13.9214862 49.5626501,13.3860771" id="Fill-12" fill="#FFFFFF"></path>
                            <path d="M25.9891318,24.5000223 C25.9891318,27.1930666 23.7998695,29.3761684 21.0986531,29.3761684 C18.3980093,29.3761684 16.208747,27.1930666 16.208747,24.5000223 C16.208747,21.806407 18.3980093,19.6233052 21.0986531,19.6233052 C23.7998695,19.6233052 25.9891318,21.806407 25.9891318,24.5000223" id="Fill-14" fill="#231F20"></path>
                            <path d="M21.6030481,23.2670237 C21.6030481,24.2258069 20.8236639,25.0024269 19.8627478,25.0024269 C18.9018317,25.0024269 18.1224475,24.2258069 18.1224475,23.2670237 C18.1224475,22.3088116 18.9018317,21.5321916 19.8627478,21.5321916 C20.8236639,21.5321916 21.6030481,22.3088116 21.6030481,23.2670237" id="Fill-16" fill="#FFFFFF"></path>
                            <path d="M54.8810951,24.5000223 C54.8810951,27.1930666 52.6918328,29.3761684 49.9906164,29.3761684 C47.2899726,29.3761684 45.1007103,27.1930666 45.1007103,24.5000223 C45.1007103,21.806407 47.2899726,19.6233052 49.9906164,19.6233052 C52.6918328,19.6233052 54.8810951,21.806407 54.8810951,24.5000223" id="Fill-18" fill="#231F20"></path>
                            <path d="M50.4947824,23.2670237 C50.4947824,24.2258069 49.7159708,25.0024269 48.754482,25.0024269 C47.7935659,25.0024269 47.0147543,24.2258069 47.0147543,23.2670237 C47.0147543,22.3088116 47.7935659,21.5321916 48.754482,21.5321916 C49.7159708,21.5321916 50.4947824,22.3088116 50.4947824,23.2670237" id="Fill-20" fill="#FFFFFF"></path>
                            <path d="M35.1099319,29.0778549 C35.1099319,29.0778549 34.1432892,32.0764078 34.6329098,32.4064713 C34.9387078,32.6126183 37.3581777,31.6372748 38.0092871,27.5331805 L35.1099319,29.0778549 Z" id="Fill-22" fill="#EC8822"></path>
                            <path d="M33.9746994,25.1602636 C33.9746994,25.1602636 35.0335396,29.1655673 34.9665389,31.0026164 C34.9499319,31.4600227 35.6703326,31.4463177 36.0070541,31.1362407 C37.1838613,30.0518278 38.1258798,28.9885436 38.0142119,26.4479681 L34.9923084,24.5772275 L33.9746994,25.1602636 Z" id="Fill-24" fill="#D32E2E"></path>
                            <path d="M34.1122513,23.0818912 C34.1122513,23.0818912 33.0024448,22.9933794 31.163075,25.341513 C31.163075,25.341513 34.1019435,24.3793036 38.0137538,26.4481966 C38.0137538,26.4481966 36.869588,23.1492744 34.1122513,23.0818912" id="Fill-26" fill="#EC8822"></path>
                            <path d="M18.6539291,53.5016992 C17.3036072,53.1031104 16.3094771,52.0809413 15.8817034,50.8394913 C15.4315961,52.620007 16.4509231,54.4490615 18.2175655,54.9709958 C19.984208,55.4923592 21.8384668,54.5118763 22.4328833,52.774189 C21.3963767,53.5827875 20.004251,53.900288 18.6539291,53.5016992" id="Fill-28" fill="#989899"></path>
                            <path d="M27.5449225,60.9715279 C26.3125677,60.6072017 25.4060539,59.6746866 25.0155028,58.542306 C24.6049087,60.1669267 25.5349014,61.8360888 27.1469269,62.3123396 C28.7589523,62.7880194 30.4505769,61.8926221 30.9928818,60.3068325 C30.0468548,61.0451926 28.7772773,61.335283 27.5449225,60.9715279" id="Fill-30" fill="#989899"></path>
                            <path d="M38.9557723,61.9725112 C37.6707331,61.9999213 36.5225587,61.3866199 35.8050212,60.4255526 C35.9092445,62.0981409 37.3048062,63.405832 38.9855504,63.3698563 C40.6662945,63.3344515 42.0045906,61.9685139 42.037232,60.2936414 C41.3614984,61.2832609 40.2408114,61.9451011 38.9557723,61.9725112" id="Fill-32" fill="#989899"></path>
                            <path d="M48.9822844,59.30248 C50.160237,58.7902534 50.9447751,57.7526662 51.1915897,56.5803125 C51.8003226,58.1426893 51.0839304,59.9129262 49.5429142,60.5833321 C48.0024707,61.254309 46.212922,60.5741954 45.4782049,59.0672098 C46.5084123,59.6833665 47.8043319,59.8147066 48.9822844,59.30248" id="Fill-34" fill="#989899"></path>
                            <path d="M30.0919228,55.1941599 C28.6957884,55.0062864 27.5573491,54.148007 26.9434623,52.9865032 C26.7722383,54.8149866 28.0607134,56.4670173 29.8863394,56.7125663 C31.7125381,56.9581153 33.3938549,55.7058155 33.7139693,53.8973186 C32.8137548,54.8549597 31.4880571,55.3820334 30.0919228,55.1941599" id="Fill-36" fill="#989899"></path>
                            <path d="M55.5211522,51.2258598 C56.8119179,50.6645234 57.671474,49.5270034 57.9429127,48.2427251 C58.6100565,49.9541445 57.824373,51.8951236 56.1356117,52.6300574 C54.4468504,53.3649912 52.4860776,52.6192076 51.6809239,50.9683189 C52.8102007,51.6432931 54.2303865,51.7877673 55.5211522,51.2258598" id="Fill-38" fill="#989899"></path>
                            <path d="M44.3797942,54.3119538 C45.7415692,53.9539091 46.76605,52.9620054 47.2310464,51.7336894 C47.6267514,53.5273391 46.5530221,55.3249861 44.7714906,55.7938134 C42.9899591,56.2620696 41.1666237,55.2261955 40.6248915,53.4708057 C41.6362013,54.3108117 43.0180192,54.6699985 44.3797942,54.3119538" id="Fill-40" fill="#989899"></path>
                            <path d="M36.4671829,8.60220995 C36.4671829,8.60220995 38.9026871,5.81551444 42.4239463,4.93610643 C45.4069093,4.1908938 44.2295294,2.12085872 41.4922357,3.61984964 C39.2514343,4.84759459 36.4671829,8.60220995 36.4671829,8.60220995" id="Fill-42" fill="#989899"></path>
                            <path d="M34.6591947,7.83935205 C34.6591947,7.83935205 34.1174625,4.58440033 31.8606268,2.73650143 C30.2463107,1.41624733 31.2140986,0.104558889 32.0410133,0.00976555778 C33.5757303,-0.166687088 34.8395812,2.03297502 34.6591947,7.83935205" id="Fill-44" fill="#989899"></path>
                            <path d="M33.1243631,7.39936253 C33.1243631,7.39936253 28.3736124,1.94817496 25.359726,3.35237256 C23.2827042,4.32029241 29.7840631,5.28821226 33.1243631,7.39936253" id="Fill-46" fill="#989899"></path>
                        </g>
                    </g>
                </g>
                <g id="Group-62" transform="translate(98.000000, 38.000000)">
                    <g id="Group-30">
                        <g id="Group-7" transform="translate(24.000000, 16.000000) rotate(-90.000000) translate(-24.000000, -16.000000) translate(7.846154, -7.771429)">
                            <rect id="Rectangle" fill="#1CBEAD" x="0" y="0" width="32.3076923" height="47.5428571" rx="2.39812646"></rect>
                            <path d="M-14.7896635,23.833827 L-14.1123798,23.833827 L-14.1123798,23.3296603 L-14.7896635,23.3296603 L-14.7896635,23.833827 Z M-14.7896635,24.171327 L-14.7896635,24.571327 L-14.1123798,24.5671603 L-14.1123798,24.171327 L-14.7896635,24.171327 Z M-15.1304087,23.0171603 L-13.7926683,23.0171603 L-13.7926683,24.896327 L-15.1304087,24.8921603 L-15.1304087,23.0171603 Z M-12.5879541,23.833827 L-11.9106704,23.833827 L-11.9106704,23.3296603 L-12.5879541,23.3296603 L-12.5879541,23.833827 Z M-12.5879541,24.171327 L-12.5879541,24.571327 L-11.9106704,24.5671603 L-11.9106704,24.171327 L-12.5879541,24.171327 Z M-12.9286993,23.0171603 L-11.5909589,23.0171603 L-11.5909589,24.896327 L-12.9286993,24.8921603 L-12.9286993,23.0171603 Z M-10.3862447,23.833827 L-9.70896101,23.833827 L-9.70896101,23.3296603 L-10.3862447,23.3296603 L-10.3862447,23.833827 Z M-10.3862447,24.171327 L-10.3862447,24.571327 L-9.70896101,24.5671603 L-9.70896101,24.171327 L-10.3862447,24.171327 Z M-10.7269899,23.0171603 L-9.38924947,23.0171603 L-9.38924947,24.896327 L-10.7269899,24.8921603 L-10.7269899,23.0171603 Z M-8.18453526,23.833827 L-7.5072516,23.833827 L-7.5072516,23.3296603 L-8.18453526,23.3296603 L-8.18453526,23.833827 Z M-8.18453526,24.171327 L-8.18453526,24.571327 L-7.5072516,24.5671603 L-7.5072516,24.171327 L-8.18453526,24.171327 Z M-8.52528045,23.0171603 L-7.18754007,23.0171603 L-7.18754007,24.896327 L-8.52528045,24.8921603 L-8.52528045,23.0171603 Z M-5.98282586,23.833827 L-5.3055422,23.833827 L-5.3055422,23.3296603 L-5.98282586,23.3296603 L-5.98282586,23.833827 Z M-5.98282586,24.171327 L-5.98282586,24.571327 L-5.3055422,24.5671603 L-5.3055422,24.171327 L-5.98282586,24.171327 Z M-6.32357105,23.0171603 L-4.98583067,23.0171603 L-4.98583067,24.896327 L-6.32357105,24.8921603 L-6.32357105,23.0171603 Z M-2.87508013,23.833827 L-2.19779648,23.833827 L-2.19779648,23.3296603 L-2.87508013,23.3296603 L-2.87508013,23.833827 Z M-2.87508013,24.171327 L-2.87508013,24.571327 L-2.19779648,24.5671603 L-2.19779648,24.171327 L-2.87508013,24.171327 Z M-3.21582532,23.0171603 L-1.87808494,23.0171603 L-1.87808494,24.896327 L-3.21582532,24.8921603 L-3.21582532,23.0171603 Z M-0.673370731,23.833827 L0.0039129227,23.833827 L0.0039129227,23.3296603 L-0.673370731,23.3296603 L-0.673370731,23.833827 Z M-0.673370731,24.171327 L-0.673370731,24.571327 L0.0039129227,24.5671603 L0.0039129227,24.171327 L-0.673370731,24.171327 Z M-1.01411592,23.0171603 L0.323624461,23.0171603 L0.323624461,24.896327 L-1.01411592,24.8921603 L-1.01411592,23.0171603 Z M1.52833867,23.833827 L2.20562232,23.833827 L2.20562232,23.3296603 L1.52833867,23.3296603 L1.52833867,23.833827 Z M1.52833867,24.171327 L1.52833867,24.571327 L2.20562232,24.5671603 L2.20562232,24.171327 L1.52833867,24.171327 Z M1.18759348,23.0171603 L2.52533386,23.0171603 L2.52533386,24.896327 L1.18759348,24.8921603 L1.18759348,23.0171603 Z M3.73004807,23.833827 L4.40733172,23.833827 L4.40733172,23.3296603 L3.73004807,23.3296603 L3.73004807,23.833827 Z M3.73004807,24.171327 L3.73004807,24.571327 L4.40733172,24.5671603 L4.40733172,24.171327 L3.73004807,24.171327 Z M3.38930288,23.0171603 L4.72704326,23.0171603 L4.72704326,24.896327 L3.38930288,24.8921603 L3.38930288,23.0171603 Z M6.8377938,23.833827 L7.51507745,23.833827 L7.51507745,23.3296603 L6.8377938,23.3296603 L6.8377938,23.833827 Z M6.8377938,24.171327 L6.8377938,24.571327 L7.51507745,24.5671603 L7.51507745,24.171327 L6.8377938,24.171327 Z M6.4970486,23.0171603 L7.83478899,23.0171603 L7.83478899,24.896327 L6.4970486,24.8921603 L6.4970486,23.0171603 Z M9.0395032,23.833827 L9.71678685,23.833827 L9.71678685,23.3296603 L9.0395032,23.3296603 L9.0395032,23.833827 Z M9.0395032,24.171327 L9.0395032,24.571327 L9.71678685,24.5671603 L9.71678685,24.171327 L9.0395032,24.171327 Z M8.698758,23.0171603 L10.0364984,23.0171603 L10.0364984,24.896327 L8.698758,24.8921603 L8.698758,23.0171603 Z M11.2412126,23.833827 L11.9184963,23.833827 L11.9184963,23.3296603 L11.2412126,23.3296603 L11.2412126,23.833827 Z M11.2412126,24.171327 L11.2412126,24.571327 L11.9184963,24.5671603 L11.9184963,24.171327 L11.2412126,24.171327 Z M10.9004674,23.0171603 L12.2382078,23.0171603 L12.2382078,24.896327 L10.9004674,24.8921603 L10.9004674,23.0171603 Z M13.442922,23.833827 L14.1202057,23.833827 L14.1202057,23.3296603 L13.442922,23.3296603 L13.442922,23.833827 Z M13.442922,24.171327 L13.442922,24.571327 L14.1202057,24.5671603 L14.1202057,24.171327 L13.442922,24.171327 Z M13.1021768,23.0171603 L14.4399172,23.0171603 L14.4399172,24.896327 L13.1021768,24.8921603 L13.1021768,23.0171603 Z M16.5506677,23.833827 L17.2279514,23.833827 L17.2279514,23.3296603 L16.5506677,23.3296603 L16.5506677,23.833827 Z M16.5506677,24.171327 L16.5506677,24.571327 L17.2279514,24.5671603 L17.2279514,24.171327 L16.5506677,24.171327 Z M16.2099225,23.0171603 L17.5476629,23.0171603 L17.5476629,24.896327 L16.2099225,24.8921603 L16.2099225,23.0171603 Z M18.7523771,23.833827 L19.4296608,23.833827 L19.4296608,23.3296603 L18.7523771,23.3296603 L18.7523771,23.833827 Z M18.7523771,24.171327 L18.7523771,24.571327 L19.4296608,24.5671603 L19.4296608,24.171327 L18.7523771,24.171327 Z M18.4116319,23.0171603 L19.7493723,23.0171603 L19.7493723,24.896327 L18.4116319,24.8921603 L18.4116319,23.0171603 Z M20.9540865,23.833827 L21.6313702,23.833827 L21.6313702,23.3296603 L20.9540865,23.3296603 L20.9540865,23.833827 Z M20.9540865,24.171327 L20.9540865,24.571327 L21.6313702,24.5671603 L21.6313702,24.171327 L20.9540865,24.171327 Z M20.6133413,23.0171603 L21.9510817,23.0171603 L21.9510817,24.896327 L20.6133413,24.8921603 L20.6133413,23.0171603 Z M23.1557959,23.833827 L23.8330796,23.833827 L23.8330796,23.3296603 L23.1557959,23.3296603 L23.1557959,23.833827 Z M23.1557959,24.171327 L23.1557959,24.571327 L23.8330796,24.5671603 L23.8330796,24.171327 L23.1557959,24.171327 Z M22.8150507,23.0171603 L24.1527911,23.0171603 L24.1527911,24.896327 L22.8150507,24.8921603 L22.8150507,23.0171603 Z" id="88888888888888888" fill="#FFFFFF" fill-rule="nonzero" transform="translate(4.511191, 23.956744) rotate(-90.000000) translate(-4.511191, -23.956744) "></path>
                        </g>
                        <path d="M5.38019436,12.1611722 L9.50661968,12.1611722 C10.0502923,12.1611722 10.4910261,12.6019059 10.4910261,13.1455785 L10.4910261,17.3306119 C10.4910261,17.8742846 10.0502923,18.3150183 9.50661968,18.3150183 L5.38019436,18.3150183 C4.83652172,18.3150183 4.39578797,17.8742846 4.39578797,17.3306119 L4.39578797,13.1455785 C4.39578797,12.6019059 4.83652172,12.1611722 5.38019436,12.1611722 Z" id="Rectangle" fill="#F9C613" transform="translate(7.443407, 15.238095) rotate(-90.000000) translate(-7.443407, -15.238095) "></path>
                    </g>
                    <ellipse id="Oval" fill="#FF3539" opacity="0.942057292" cx="22.7071049" cy="14.0994981" rx="8.79103794" ry="8.68571429"></ellipse>
                </g>
                <path d="M121.026914,38.1259782 C121.026914,38.1259782 127.152904,41.2130911 128.331324,38.1932845 C129.71615,34.6445629 121.341571,29.8030007 113.767375,29.2219234 C106.677223,28.6773038 101.998318,33.2928292 102,35.5745108 C102.004488,40.792988 110.423937,42.6798063 113.048881,42.0661977 C116.052422,41.3645302 113.641176,39.2785976 113.641176,39.2785976 C113.641176,39.2785976 119.424464,43.1857249 121.927696,41.0498735 C123.509392,39.7009443 121.026914,38.1259782 121.026914,38.1259782" id="Fill-65" fill="#989899" transform="translate(115.241353, 35.677643) scale(-1, 1) translate(-115.241353, -35.677643) "></path>
            </g>
        </g>
    </g>
</svg>