<?xml version="1.0" encoding="UTF-8"?>
<svg width="18px" height="18px" viewBox="0 0 18 18" version="1.1" xmlns="http://www.w3.org/2000/svg" xmlns:xlink="http://www.w3.org/1999/xlink">
    <title>Group 7</title>
    <g id="060721" stroke="none" stroke-width="1" fill="none" fill-rule="evenodd">
        <g id="Group-7" stroke="#24A09A">
            <path d="M9.56,11.354 L9.56,11.032 C9.56,10.654 9.644,10.304 9.826,9.996 C9.966,9.744 10.176,9.492 10.484,9.24 C11.1,8.694 11.478,8.33 11.632,8.162 C11.968,7.7 12.15,7.154 12.15,6.524 C12.15,5.684 11.884,5.026 11.352,4.55 C10.82,4.046 10.106,3.808 9.21,3.808 C8.202,3.808 7.418,4.116 6.858,4.732 C6.312,5.32 6.032,6.104 6.018,7.084 L7.138,7.084 C7.138,6.398 7.292,5.866 7.6,5.474 C7.936,5.012 8.454,4.788 9.154,4.788 C9.742,4.788 10.19,4.942 10.526,5.278 C10.834,5.586 11.002,6.02 11.002,6.58 C11.002,6.972 10.862,7.336 10.596,7.686 C10.456,7.854 10.162,8.148 9.686,8.568 C9.252,8.96 8.944,9.338 8.748,9.702 C8.538,10.094 8.44,10.528 8.44,11.032 L8.44,11.354 L9.56,11.354 Z M9,14 C9.238,14 9.448,13.916 9.616,13.762 C9.77,13.608 9.854,13.412 9.854,13.16 C9.854,12.922 9.77,12.726 9.616,12.572 C9.448,12.404 9.238,12.334 9,12.334 C8.762,12.334 8.566,12.404 8.398,12.572 C8.23,12.726 8.16,12.922 8.16,13.16 C8.16,13.398 8.23,13.594 8.398,13.762 C8.566,13.916 8.762,14 9,14 Z" id="？" stroke-width="0.3" fill="#24A09A" fill-rule="nonzero"></path>
            <circle id="Oval" stroke-width="1.4" cx="9" cy="9" r="8.3"></circle>
        </g>
    </g>
</svg>