<svg xmlns="http://www.w3.org/2000/svg" width="16" height="16" viewBox="0 0 16 16">
    <g fill="none" fill-rule="evenodd">
        <g fill="#647780" fill-rule="nonzero">
            <g>
                <g>
                    <g>
                        <g>
                            <path d="M8.003 13.5C12.73 13.5 16 9.307 16 8c0-1.314-3.276-5.5-7.997-5.5C3.31 2.5 0 6.686 0 8c0 1.307 3.335 5.5 8.003 5.5zm-.001-2.211c-1.116 0-1.995-1.494-2.002-3.29-.004-1.841.886-3.288 2.002-3.288C9.11 4.711 10 6.158 10 8.001c0 1.794-.89 3.288-1.998 3.288z" transform="translate(-250 -316) translate(50 241) translate(0 62) translate(134 12) translate(66 1)"/>
                        </g>
                    </g>
                </g>
            </g>
        </g>
    </g>
</svg>
