<svg width="30" height="24" viewBox="0 0 30 24" fill="none" xmlns="http://www.w3.org/2000/svg">
<rect x="1" y="1" width="28" height="22" rx="1.55" stroke="white" stroke-width="2"/>
<path fill-rule="evenodd" clip-rule="evenodd" d="M4.75 8.5C5.7165 8.5 6.5 7.7165 6.5 6.75C6.5 5.7835 5.7165 5 4.75 5C3.7835 5 3 5.7835 3 6.75C3 7.7165 3.7835 8.5 4.75 8.5ZM9.05005 11.85C9.05005 12.8165 8.26655 13.6 7.30005 13.6C6.33355 13.6 5.55005 12.8165 5.55005 11.85C5.55005 10.8835 6.33355 10.1 7.30005 10.1C8.26655 10.1 9.05005 10.8835 9.05005 11.85ZM14.15 11.85C14.15 12.8165 13.3665 13.6 12.4 13.6C11.4335 13.6 10.65 12.8165 10.65 11.85C10.65 10.8835 11.4335 10.1 12.4 10.1C13.3665 10.1 14.15 10.8835 14.15 11.85ZM17.5 13.6C18.4665 13.6 19.25 12.8165 19.25 11.85C19.25 10.8835 18.4665 10.1 17.5 10.1C16.5335 10.1 15.75 10.8835 15.75 11.85C15.75 12.8165 16.5335 13.6 17.5 13.6ZM24.35 11.85C24.35 12.8165 23.5665 13.6 22.6 13.6C21.6335 13.6 20.85 12.8165 20.85 11.85C20.85 10.8835 21.6335 10.1 22.6 10.1C23.5665 10.1 24.35 10.8835 24.35 11.85ZM11.6 6.75C11.6 7.7165 10.8165 8.5 9.84998 8.5C8.88348 8.5 8.09998 7.7165 8.09998 6.75C8.09998 5.7835 8.88348 5 9.84998 5C10.8165 5 11.6 5.7835 11.6 6.75ZM20.05 8.5C21.0165 8.5 21.8 7.7165 21.8 6.75C21.8 5.7835 21.0165 5 20.05 5C19.0836 5 18.3 5.7835 18.3 6.75C18.3 7.7165 19.0836 8.5 20.05 8.5ZM16.7001 6.75C16.7001 7.7165 15.9166 8.5 14.9501 8.5C13.9836 8.5 13.2001 7.7165 13.2001 6.75C13.2001 5.7835 13.9836 5 14.9501 5C15.9166 5 16.7001 5.7835 16.7001 6.75ZM25.15 8.5C26.1165 8.5 26.9 7.7165 26.9 6.75C26.9 5.7835 26.1165 5 25.15 5C24.1835 5 23.4 5.7835 23.4 6.75C23.4 7.7165 24.1835 8.5 25.15 8.5Z" fill="white"/>
<line x1="6.90002" y1="17.75" x2="22.9" y2="17.75" stroke="white" stroke-width="2" stroke-linecap="round"/>
</svg>
