<svg width="92" height="108" viewBox="0 0 92 108" fill="none" xmlns="http://www.w3.org/2000/svg">
<ellipse cx="43.5" cy="100.803" rx="38.5" ry="7" fill="black" fill-opacity="0.08"/>
<path d="M60.4685 90.5052L65.4643 93.7493" stroke="#D67B29" stroke-width="3" stroke-miterlimit="10" stroke-linecap="round"/>
<path d="M62.8042 95.3712L60.7929 91.154C60.5983 90.6998 60.4685 90.2457 60.4036 89.7915L60.209 87.8451" stroke="#EC8822" stroke-width="3" stroke-miterlimit="10" stroke-linecap="round"/>
<path d="M66.0483 84.2118C66.0483 84.2118 65.3347 87.0666 63.3234 89.013C61.0526 91.154 55.1484 92.4517 50.9961 86.8719L56.7056 83.7577L66.0483 84.2118Z" fill="#B2B2B2"/>
<path d="M16.1554 83.498L13.4304 87.9748" stroke="#D67B29" stroke-width="3" stroke-miterlimit="10" stroke-linecap="round"/>
<path d="M11.0298 84.9263L15.5065 83.6936C15.9607 83.5638 16.4149 83.4989 16.869 83.5638L18.8154 83.7585" stroke="#EC8822" stroke-width="3" stroke-miterlimit="10" stroke-linecap="round"/>
<path d="M32.0509 83.9522C32.0509 83.9522 26.1468 86.8718 20.8266 85.3795C14.9874 83.8224 10.7702 77.7885 12.5868 72.1439L32.0509 83.9522Z" fill="#D7D7D7"/>
<path d="M66.1779 12.5839C66.1779 12.5839 66.113 9.0155 64.5559 6.16076C63.7124 4.53875 63.1285 3.30603 64.1017 3.30603C65.9832 3.37091 67.1511 6.03102 66.1779 12.5839Z" fill="#989899"/>
<path d="M2.71533e-05 49.7603C2.71533e-05 49.7603 5.90414 51.1228 9.66721 46.9056C17.1285 36.5247 25.7576 5.51187 53.7859 8.0422C91.4814 11.4809 90.1189 42.2991 82.6577 54.8859C83.5011 58.8436 82.6577 65.7858 81.6196 69.2893C77.597 82.8493 62.5447 89.2076 43.4699 87.0665C39.642 86.6124 35.6194 86.2231 32.3754 85.3148C-0.194616 76.1017 2.71533e-05 49.7603 2.71533e-05 49.7603Z" fill="#D7D7D7"/>
<path d="M87.5239 39.1199C88.0429 50.1496 82.6578 56.1834 82.6578 56.1834C82.6578 56.1834 79.6733 55.7293 75.8454 56.962C69.552 58.9733 50.8015 58.3894 47.7522 40.7419C45.4165 27.5063 56.7705 14.076 69.0329 14.9195C80.3221 15.7629 86.6804 21.6671 87.5239 39.1199Z" fill="white"/>
<path d="M80.3119 35.8651C80.3873 32.4259 79.0545 29.6073 77.3348 29.5696C75.6152 29.5318 74.1601 32.2893 74.0846 35.7285C74.0092 39.1678 75.342 41.9864 77.0616 42.0241C78.7812 42.0618 80.2364 39.3044 80.3119 35.8651Z" fill="#231F20"/>
<path d="M79.686 34.5891C79.7134 33.3352 79.1258 32.3054 78.3735 32.2889C77.6211 32.2724 76.989 33.2756 76.9616 34.5294C76.9341 35.7833 77.5218 36.8132 78.2741 36.8296C79.0264 36.8461 79.6586 35.843 79.686 34.5891Z" fill="white"/>
<path d="M90.7676 44.8294C90.7676 44.8294 87.7831 44.3753 85.6421 45.2187C83.8903 45.8675 83.501 41.6503 84.8635 40.4824C86.226 39.3146 90.7676 44.8294 90.7676 44.8294Z" fill="#EC6C22"/>
<path d="M63.4528 10.8322C63.4528 10.8322 60.1439 7.65302 56.5755 7.0691C53.3315 6.48517 54.9535 4.01971 57.938 5.31732C60.5981 6.55004 63.4528 10.8322 63.4528 10.8322Z" fill="#989899"/>
<path d="M65.2049 11.416C65.2049 11.416 63.6478 7.32852 60.0145 5.12258C56.9651 3.30593 56.3163 1.48927 57.2895 1.03511C59.2359 0.126781 62.999 1.55415 65.2049 11.416Z" fill="#989899"/>
<path d="M63.9723 76.6857C62.6098 75.8423 61.8313 74.35 61.7664 72.8578C60.6634 74.6744 61.1825 77.0101 62.9991 78.178C64.8158 79.3458 67.2163 78.8268 68.4491 77.075C67.0217 77.6589 65.3348 77.5292 63.9723 76.6857Z" fill="#989899"/>
<path d="M62.6746 65.8506C61.1824 64.6179 60.5336 62.8662 60.6633 61.1144C59.1062 63.0608 59.3657 65.8507 61.3121 67.4078C63.1937 68.9649 66.0484 68.7703 67.7353 66.9536C66.0484 67.4078 64.1669 67.0185 62.6746 65.8506Z" fill="#989899"/>
<path d="M74.6126 71.7547C72.796 71.1059 71.5632 69.6136 71.1091 67.9268C70.3305 70.2625 71.5632 72.7928 73.8989 73.6362C76.2346 74.4797 78.8298 73.3767 79.803 71.1059C78.3108 72.144 76.3644 72.4684 74.6126 71.7547Z" fill="#989899"/>
<path d="M71.8228 78.6969C71.8228 78.6969 70.59 80.838 70.9793 82.1356C70.9793 82.1356 72.2769 82.2005 73.1853 80.9028C73.1853 80.9028 72.2769 80.9677 71.8228 78.6969Z" fill="#989899"/>
<path d="M50.8662 61.8929C50.1525 58.0001 43.7943 38.1467 22.9676 31.9182C5.9041 26.8575 14.5981 40.2877 19.6587 43.4669C19.6587 43.4669 15.8957 41.1312 13.8844 43.3371C11.8731 45.4782 13.4302 53.0043 22.5784 56.0537C22.5784 56.0537 14.5981 53.718 14.0141 60.0763C13.4302 66.4346 21.7998 72.4036 33.5432 74.6744C45.2865 76.9452 51.6448 65.7858 50.8662 61.8929Z" fill="#989899"/>
<path d="M87.6535 35.9409C87.6535 35.9409 90.8975 37.9522 91.2868 43.6616C91.2868 43.6616 87.913 41.3908 85.0583 41.261C82.7875 41.1313 85.8369 35.6813 87.6535 35.9409Z" fill="#EC8822"/>
</svg>
