<?xml version="1.0" encoding="utf-8"?>
<!-- Generator: Adobe Illustrator 25.4.1, SVG Export Plug-In . SVG Version: 6.00 Build 0)  -->
<svg version="1.1" id="圖層_1" xmlns="http://www.w3.org/2000/svg" xmlns:xlink="http://www.w3.org/1999/xlink" x="0px" y="0px"
	 viewBox="0 0 375 310" style="enable-background:new 0 0 375 310;" xml:space="preserve">
<style type="text/css">
	.st0{fill:none;}
	.st1{fill-rule:evenodd;clip-rule:evenodd;fill:url(#SVGID_1_);}
	.st2{fill:#FFFEDE;fill-opacity:0.53;}
	.st3{fill:#FFF4D7;}
	.st4{fill-rule:evenodd;clip-rule:evenodd;fill:#109089;}
	.st5{fill:#21A29C;}
	.st6{fill-rule:evenodd;clip-rule:evenodd;fill:#218C87;}
	.st7{fill:none;stroke:#078C86;}
	.st8{fill-rule:evenodd;clip-rule:evenodd;fill:url(#SVGID_00000183235587594056421710000016057461985879026108_);}
	.st9{fill:#00837C;}
	.st10{fill:none;stroke:#D67B29;stroke-width:3;stroke-linecap:round;stroke-miterlimit:10;}
	.st11{fill:none;stroke:#EC8822;stroke-width:3;stroke-linecap:round;stroke-miterlimit:10;}
	.st12{fill:#D7D7D7;}
	.st13{fill:url(#SVGID_00000003069394526933535350000005566746425636480940_);stroke:#EFEFEF;}
	.st14{fill:#231F20;}
	.st15{fill:#FFFFFF;}
	.st16{fill:#EC6C22;}
	.st17{fill-rule:evenodd;clip-rule:evenodd;fill:#989899;}
	.st18{fill:#EC8822;}
	.st19{fill:#E73629;}
	.st20{fill:#C4C4C4;}
	.st21{fill:url(#SVGID_00000067200979830218650150000001004905078228907440_);}
	.st22{fill:none;stroke:url(#SVGID_00000129184498015635601170000009439992116498051727_);stroke-width:9;}
	.st23{fill-rule:evenodd;clip-rule:evenodd;fill:url(#SVGID_00000063602250856535241380000011276577975169498526_);}
	.st24{fill-opacity:7.000000e-02;}
	.st25{fill:url(#SVGID_00000002370485372158349350000011578043026952026011_);}
	
		.st26{fill:url(#SVGID_00000163050789069357352240000007862969715098180498_);stroke:url(#SVGID_00000173148890520374920020000005006943932848476584_);stroke-width:0.5;}
	.st27{fill:url(#SVGID_00000137839148478572898120000017372679844743459511_);}
	
		.st28{fill:url(#SVGID_00000167382734059039017130000015937670508895708322_);stroke:url(#SVGID_00000071558557934976391290000000630756134519634821_);stroke-width:0.5;}
	.st29{fill-rule:evenodd;clip-rule:evenodd;fill-opacity:7.000000e-02;}
	.st30{fill-rule:evenodd;clip-rule:evenodd;fill:url(#SVGID_00000052789711882126204030000014244727542655649929_);}
	.st31{fill-rule:evenodd;clip-rule:evenodd;fill:url(#SVGID_00000000936288993366634030000006843364291137716385_);}
	
		.st32{fill:url(#SVGID_00000003093221318872550000000016457397276768435848_);stroke:url(#SVGID_00000088834851397871391250000016139459319062607757_);stroke-width:0.5;}
	.st33{fill:#989899;}
	.st34{fill-rule:evenodd;clip-rule:evenodd;fill:#4579FF;}
	.st35{fill-rule:evenodd;clip-rule:evenodd;fill:#FFE06D;}
	.st36{fill:none;stroke:#FFE06D;stroke-dasharray:1,1;}
	.st37{fill-rule:evenodd;clip-rule:evenodd;fill:#FFD645;}
	.st38{fill:none;stroke:#FFEC45;stroke-dasharray:1,1;}
	.st39{fill-rule:evenodd;clip-rule:evenodd;fill:#FFEC45;}
	.st40{fill-rule:evenodd;clip-rule:evenodd;fill:#FF7272;}
	.st41{fill:none;stroke:#FFD89E;stroke-dasharray:1,1;}
	.st42{fill-rule:evenodd;clip-rule:evenodd;fill:#FFFFFF;}
	.st43{fill:#7749FB;}
	.st44{fill-rule:evenodd;clip-rule:evenodd;fill:#FFE712;}
	.st45{fill:#FFE712;}
</style>
<rect class="st0" width="375" height="310"/>
<linearGradient id="SVGID_1_" gradientUnits="userSpaceOnUse" x1="163.4973" y1="228.9972" x2="214.5043" y2="75.9992" gradientTransform="matrix(1 0 0 -1 0 312)">
	<stop  offset="0" style="stop-color:#FFFFFF"/>
	<stop  offset="0.5096" style="stop-color:#E8FFFE"/>
	<stop  offset="1" style="stop-color:#FCF3E0"/>
</linearGradient>
<path class="st1" d="M0,0h375v310c0,0-125.7,0-187,0c-19.1,0-188,0-188,0V0z"/>
<circle class="st2" cx="13.5" cy="133.5" r="35.5"/>
<circle class="st3" cx="285" cy="188" r="88"/>
<path class="st4" d="M0,240c0,0,271,23.5,375-70v141c0,0-125.7,0-187,0c-15,0-122.8,0-168,0c-11,0-20-9-20-20V240z"/>
<path class="st5" d="M-15.5,250.5V311c0,0,178,2,198.5,0C119,250.5,19.3,249.3-15.5,250.5z"/>
<path class="st6" d="M34.5,262c0.8,0,1.5-0.7,1.5-1.5s-0.7-1.5-1.5-1.5s-1.5,0.7-1.5,1.5S33.7,262,34.5,262z M14.5,278
	c0.8,0,1.5-0.7,1.5-1.5s-0.7-1.5-1.5-1.5s-1.5,0.7-1.5,1.5S13.7,278,14.5,278z M56,278.5c0,0.8-0.7,1.5-1.5,1.5s-1.5-0.7-1.5-1.5
	s0.7-1.5,1.5-1.5S56,277.7,56,278.5z M94.5,280c0.8,0,1.5-0.7,1.5-1.5s-0.7-1.5-1.5-1.5s-1.5,0.7-1.5,1.5S93.7,280,94.5,280z"/>
<path class="st7" d="M65,251c45,8.5,117.5,34,117.5,57.5"/>
<linearGradient id="SVGID_00000081625343178735255540000006584914430553170830_" gradientUnits="userSpaceOnUse" x1="187.7957" y1="64.7776" x2="187.6557" y2="1.9336" gradientTransform="matrix(1 0 0 -1 0 312)">
	<stop  offset="0" style="stop-color:#FFFFFF;stop-opacity:0"/>
	<stop  offset="1" style="stop-color:#000000;stop-opacity:0.25"/>
</linearGradient>
<path style="fill-rule:evenodd;clip-rule:evenodd;fill:url(#SVGID_00000081625343178735255540000006584914430553170830_);" d="M0,1
	h376v309.1H0V1z"/>
<ellipse class="st9" cx="287.4" cy="253.9" rx="42.2" ry="8.9"/>
<path class="st10" d="M228.6,209.6l-7.7-2.5"/>
<path class="st11" d="M221.4,211.4l6.2-1.5c0.6-0.2,1.2-0.4,1.8-0.8l2.2-1.5"/>
<path class="st12" d="M230.4,198.3c0,0-2.4,3.2-2.7,7c-0.3,4.3,3.4,11.6,12.9,11.2l-1.6-8.7L230.4,198.3z"/>
<path class="st10" d="M299,237.6l0.6,7.1"/>
<path class="st11" d="M304.4,242.5l-4.7-4.2c-0.5-0.4-1-0.8-1.6-1l-2.5-0.9"/>
<path class="st12" d="M279.2,228.6c0,0,5.5,7.1,12.9,8.5c8.1,1.6,16.9-3.2,18.1-11.2L279.2,228.6z"/>
<path class="st12" d="M339.1,206.1c0,0-8.1-1.9-10.1-9.3c-2.9-17.2,5.3-60.4-30.6-74.3c-48.3-18.6-65.2,20-63.7,39.9
	c-3.4,4.3-6.6,13.4-7.4,18.3c-3.3,19,11.3,35.9,36,44.8c5,1.8,10.1,3.7,14.6,4.6C323.5,238.4,339.1,206.1,339.1,206.1z"/>
<linearGradient id="SVGID_00000018228388326902378480000018153842928675446148_" gradientUnits="userSpaceOnUse" x1="241.9701" y1="179.4949" x2="284.1761" y2="147.2589" gradientTransform="matrix(1 0 0 -1 0 312)">
	<stop  offset="0" style="stop-color:#FFFFFF"/>
	<stop  offset="1" style="stop-color:#FFFFFF"/>
</linearGradient>
<path style="fill:url(#SVGID_00000018228388326902378480000018153842928675446148_);stroke:#EFEFEF;" d="M234.4,163.4
	c0,0.1,0,0.1,0,0.2c0.1,0,0.3,0.1,0.4,0.2c0.4,0.2,1.1,0.5,1.8,0.9c1.5,0.8,3.5,2.1,5.5,4.1c3.2,3.1,10.5,7.2,18.9,8.2
	c8.3,0.9,17.5-1.3,24.6-11l0,0c5.3-7.3,6.6-16.6,4.6-25c-2-8.4-7.2-15.6-14.8-18.7c-7.1-2.9-13.4-3.4-19.3-0.8
	c-5.9,2.7-11.6,8.6-17.4,19c-3.6,6.5-4.7,12.4-4.9,16.6c-0.1,2.1,0.1,3.8,0.2,5C234.2,162.6,234.3,163.1,234.4,163.4z"/>
<path class="st14" d="M249.2,140.5c2-4.3,5.3-6.9,7.4-5.9c2.1,1,2.2,5.2,0.3,9.5c-2,4.3-5.3,6.9-7.5,5.9
	C247.3,149,247.2,144.8,249.2,140.5z"/>
<path class="st15" d="M250.7,139.3c0.7-1.6,2.1-2.5,3-2c0.9,0.4,1.1,2,0.4,3.6c-0.7,1.6-2.1,2.5-3,2
	C250.1,142.5,250,140.9,250.7,139.3z"/>
<path class="st16" d="M230.9,145.2c0,0,3.9,1.2,6,3.6c1.8,1.9,4.8-3.1,3.8-5.3C239.8,141.2,230.9,145.2,230.9,145.2z"/>
<path class="st17" d="M286.4,113.7c-3.6,2.6-5.9,6.9-5.9,6.9c2.8-8.6,5.8-11.2,8.1-10.1C289.9,111,288.4,112.2,286.4,113.7z
	 M282.4,119.7c0,0,4.4-4.1,10.2-4.6c4.8-0.4,6.7-2.2,5.8-3.4C296.6,109.5,291.1,109,282.4,119.7z M284.9,120c0,0,6-1.9,10.7-0.5
	c4.3,1.2,3.8-2.8-0.6-3C291,116.5,284.9,120,284.9,120z"/>
<path class="st17" d="M234.5,187.9c2.6,0.3,5-0.8,6.6-2.6c-0.5,3.3-3.5,5.7-6.9,5.3c-3.4-0.4-5.9-3.3-5.7-6.7
	C229.7,186.2,231.9,187.7,234.5,187.9z M258,183.3c-0.9,2.2-2.8,4-5.3,4.6c-2.5,0.5-5.1-0.1-6.9-1.7c1,3.2,4.3,5.2,7.6,4.4
	C256.7,189.9,258.7,186.6,258,183.3z M249.5,197c-1,1.8-2.8,3.1-5,3.4c-2.2,0.2-4.3-0.7-5.7-2.2c0.5,2.9,3.1,5,6,4.6
	C247.7,202.5,249.8,199.9,249.5,197z M232.6,202.8c1.3-1.4,1-4.7,1-4.7c-1.9,2.5-3,1.9-3,1.9C231,202.1,232.6,202.8,232.6,202.8z"/>
<path class="st18" d="M240.1,136.2c0,0-5.2,0.5-9.1,7.3c0,0,5.5-0.7,9.1,0.8C242.9,145.5,242.5,137,240.1,136.2z"/>
<path class="st19" d="M233.8,182c-0.3-1.6,0.8-3.2,2.4-3.5l98.3-17.7c0.8-0.1,1.6,0,2.3,0.5l3.5,2.5l-105.8,21.9L233.8,182z"/>
<path class="st20" d="M257.3,177.9l-2.1-2.8l7.7-1.4l3.1,2.8L257.3,177.9z"/>
<linearGradient id="SVGID_00000153698656866749294490000006720661324654744743_" gradientUnits="userSpaceOnUse" x1="195.9695" y1="-6.5517" x2="228.6105" y2="-71.7657" gradientTransform="matrix(0.9843 -0.1763 -0.1763 -0.9843 82.1491 209.0904)">
	<stop  offset="0" style="stop-color:#FF6745"/>
	<stop  offset="1" style="stop-color:#FF1D1D"/>
</linearGradient>
<path style="fill:url(#SVGID_00000153698656866749294490000006720661324654744743_);" d="M236.8,181.7l101.3-18.1
	c1.6-0.3,3.2,0.8,3.5,2.4l10,55.9c0.3,1.6-0.8,3.2-2.4,3.5l-101.3,18.1c-1.6,0.3-3.2-0.8-3.5-2.4l-10-55.9
	C234.1,183.5,235.2,181.9,236.8,181.7z"/>
<linearGradient id="SVGID_00000070101191659224761620000016429363804746364314_" gradientUnits="userSpaceOnUse" x1="243.2779" y1="100.3439" x2="348.6749" y2="119.8249" gradientTransform="matrix(1 0 0 -1 0 312)">
	<stop  offset="0" style="stop-color:#FFFFFF"/>
	<stop  offset="0.223" style="stop-color:#FFD9D9"/>
	<stop  offset="1" style="stop-color:#FBFBFB"/>
</linearGradient>
<path style="fill:none;stroke:url(#SVGID_00000070101191659224761620000016429363804746364314_);stroke-width:9;" d="M238.7,212.3
	l107.8-19.6"/>
<linearGradient id="SVGID_00000140713092334677678730000008749524687489293186_" gradientUnits="userSpaceOnUse" x1="262.1842" y1="130.007" x2="272.9352" y2="71.986" gradientTransform="matrix(1 0 0 -1 0 312)">
	<stop  offset="0" style="stop-color:#FFFFFF"/>
	<stop  offset="0.9531" style="stop-color:#E7E7E7"/>
</linearGradient>
<path style="fill-rule:evenodd;clip-rule:evenodd;fill:url(#SVGID_00000140713092334677678730000008749524687489293186_);" d="
	M268.1,240l-10.8-62l8.6-1.5l10.8,62L268.1,240z"/>
<path class="st24" d="M267.2,209.1c-1.8-1.7-20.4,0.2-21.5,7.6C244.8,222.8,263.9,214.4,267.2,209.1z"/>
<path class="st24" d="M267.2,209.3c0.8-2.4,13.3-6.9,22-1.7C292.1,211.9,272,212,267.2,209.3z"/>
<linearGradient id="SVGID_00000041996453018355553920000015303036731534234759_" gradientUnits="userSpaceOnUse" x1="245.2807" y1="106.0815" x2="262.8487" y2="100.8524" gradientTransform="matrix(1 0 0 -1 0 312)">
	<stop  offset="0" style="stop-color:#FFFFFF"/>
	<stop  offset="1" style="stop-color:#FFE1E1"/>
</linearGradient>
<path style="fill:url(#SVGID_00000041996453018355553920000015303036731534234759_);" d="M242.8,203.6c-4-4.6,14.2-7.3,22.1-0.7
	c2.7,1.7,1.7,5.4,1.2,7c-7.8-0.4-18.8,4.2-20.5,6.2C245,214.3,247.4,209,242.8,203.6z"/>
<linearGradient id="SVGID_00000129191466027935526260000016579256794360842385_" gradientUnits="userSpaceOnUse" x1="249.5626" y1="98.2795" x2="264.2486" y2="98.7275" gradientTransform="matrix(1 0 0 -1 0 312)">
	<stop  offset="0" style="stop-color:#FFB0AA"/>
	<stop  offset="1" style="stop-color:#FF6257"/>
</linearGradient>
<linearGradient id="SVGID_00000135685913893246891860000013813134687590117760_" gradientUnits="userSpaceOnUse" x1="246.4101" y1="97.8316" x2="260.6001" y2="98.9006" gradientTransform="matrix(1 0 0 -1 0 312)">
	<stop  offset="0" style="stop-color:#FFE4E4"/>
	<stop  offset="1" style="stop-color:#FFD1D1;stop-opacity:0"/>
</linearGradient>
<path style="fill:url(#SVGID_00000129191466027935526260000016579256794360842385_);stroke:url(#SVGID_00000135685913893246891860000013813134687590117760_);stroke-width:0.5;" d="
	M263.1,210.1c0.8,0,1.5,0,2,0c0,0-0.1,0-0.1,0c-0.6,0.3-1.4,0.8-2.4,1.3c-2,1-4.7,2.3-7.3,3.4c-2.6,1.1-5.2,1.9-7,2.1
	c-0.9,0.1-1.6,0-2-0.3c-0.2-0.1-0.3-0.3-0.4-0.5c-0.1-0.2-0.1-0.5,0-0.9c0.4-1.3,1.7-2.4,3.7-3.1c2-0.8,4.5-1.2,6.9-1.5
	C258.9,210.3,261.3,210.2,263.1,210.1z"/>
<linearGradient id="SVGID_00000178903430944943532990000001021665438553177488_" gradientUnits="userSpaceOnUse" x1="285.3501" y1="114.6116" x2="270.7971" y2="104.1586" gradientTransform="matrix(1 0 0 -1 0 312)">
	<stop  offset="0.4896" style="stop-color:#FFFFFF"/>
	<stop  offset="1" style="stop-color:#FFE1E1"/>
</linearGradient>
<path style="fill:url(#SVGID_00000178903430944943532990000001021665438553177488_);" d="M287,191.3c0-4.4-15,1.7-19.9,11.3
	c-1.9,2.8,0.3,5.7,1.4,6.9c7-3.8,21.4-4.6,21.4-4.6S287,200.4,287,191.3z"/>
<linearGradient id="SVGID_00000036219853541341345130000009379358156759403399_" gradientUnits="userSpaceOnUse" x1="285.0501" y1="105.9247" x2="271.1222" y2="100.9847" gradientTransform="matrix(1 0 0 -1 0 312)">
	<stop  offset="0" style="stop-color:#FFB0AA"/>
	<stop  offset="1" style="stop-color:#FF6257"/>
</linearGradient>
<linearGradient id="SVGID_00000062167321368036557270000014959232258616200092_" gradientUnits="userSpaceOnUse" x1="287.8412" y1="107.5657" x2="273.5423" y2="101.1167" gradientTransform="matrix(1 0 0 -1 0 312)">
	<stop  offset="0" style="stop-color:#FFE4E4"/>
	<stop  offset="1" style="stop-color:#FFD1D1;stop-opacity:0"/>
</linearGradient>
<path style="fill:url(#SVGID_00000036219853541341345130000009379358156759403399_);stroke:url(#SVGID_00000062167321368036557270000014959232258616200092_);stroke-width:0.5;" d="
	M271.6,208.3c-0.9,0.4-1.6,0.7-2.1,1c0.6,0,1.5,0.1,2.6,0.1c2.1,0,5,0,7.8-0.2c2.8-0.2,5.5-0.5,7.4-1.2c1-0.3,1.7-0.7,2.1-1.1
	c0.2-0.2,0.3-0.4,0.4-0.7c0.1-0.2,0.1-0.5,0-0.8c-0.2-0.6-0.7-1-1.4-1.2c-0.7-0.2-1.6-0.3-2.6-0.2c-2.1,0.1-4.7,0.8-7.2,1.7
	C275.9,206.5,273.4,207.5,271.6,208.3z"/>
<path class="st29" d="M268,208.1c0,0-3.4,5.8-4.3,9.2c-2.3,9.8,2.9,14.5-10.8,21.1l0.8-6.2l-6.8,0c12-4.6,7.6-10.1,11.1-17.1
	C260.7,209.7,268,208.1,268,208.1z"/>
<linearGradient id="SVGID_00000083799589622358108600000004496543295371526048_" gradientUnits="userSpaceOnUse" x1="258.156" y1="104.8666" x2="255.299" y2="77.5656" gradientTransform="matrix(1 0 0 -1 0 312)">
	<stop  offset="0" style="stop-color:#FFF7F7"/>
	<stop  offset="0.666" style="stop-color:#FFD8D8"/>
	<stop  offset="1" style="stop-color:#FFFFFF"/>
</linearGradient>
<path style="fill-rule:evenodd;clip-rule:evenodd;fill:url(#SVGID_00000083799589622358108600000004496543295371526048_);" d="
	M266.1,207.7l1.9,0.9c0,0-4.8,4.3-5.6,7.8c-2.3,9.8,2.9,14.5-10.8,21.1l0.8-6.2l-6.8,0c12-4.6,7.6-10.1,11.1-17.1
	C259.4,208.8,266.1,207.7,266.1,207.7z"/>
<path class="st29" d="M263.9,208.3l1.7-1.9c1.9,0.9,15.5,2.3,16.8,10.3c0.8,5.2,8.4,8.6,12.8,9.1l-7,1.1l0.8,5.1
	c-7.7-2.7-12.1-6.7-12.6-13.6C276,213.9,268.8,209.2,263.9,208.3z"/>
<linearGradient id="SVGID_00000056390661323493855450000016318821795298166972_" gradientUnits="userSpaceOnUse" x1="269.8816" y1="108.2997" x2="290.4086" y2="83.0338" gradientTransform="matrix(1 0 0 -1 0 312)">
	<stop  offset="0" style="stop-color:#FFF7F7"/>
	<stop  offset="0.5417" style="stop-color:#FFD8D8"/>
	<stop  offset="1" style="stop-color:#FFFFFF"/>
</linearGradient>
<path style="fill-rule:evenodd;clip-rule:evenodd;fill:url(#SVGID_00000056390661323493855450000016318821795298166972_);" d="
	M263.9,208.1l0.6-2.1c1.9,0.9,17.9,1.4,19.1,9.4c0.8,5.2,8.4,8.6,12.8,9.1l-7,1.1l0.8,5.1c-7.7-2.7-12.1-6.7-12.6-13.6
	C277.2,212.7,268.8,209,263.9,208.1z"/>
<radialGradient id="SVGID_00000096020810551777385240000000153817397253025671_" cx="-698.1204" cy="820.1754" r="1" gradientTransform="matrix(0.4479 5.9505 5.9505 -0.4479 -4300.9463 4725.437)" gradientUnits="userSpaceOnUse">
	<stop  offset="0" style="stop-color:#FFDFDF"/>
	<stop  offset="1" style="stop-color:#FFFFFF"/>
</radialGradient>
<linearGradient id="SVGID_00000168825368289772854880000009642246157967482793_" gradientUnits="userSpaceOnUse" x1="235.8355" y1="51.0655" x2="236.2305" y2="45.3096" gradientTransform="matrix(0.9972 -7.506349e-02 -7.506349e-02 -0.9972 35.3436 272.7097)">
	<stop  offset="0" style="stop-color:#FFFFFF;stop-opacity:0"/>
	<stop  offset="0.4219" style="stop-color:#FFFFFF;stop-opacity:0.1312"/>
	<stop  offset="1" style="stop-color:#FCA59E;stop-opacity:0.28"/>
</linearGradient>
<circle style="fill:url(#SVGID_00000096020810551777385240000000153817397253025671_);stroke:url(#SVGID_00000168825368289772854880000009642246157967482793_);stroke-width:0.5;" cx="267" cy="206.2" r="3.4"/>
<g>
	<path class="st33" d="M300.5,196.3c-2.2-23.5-14.6-27.5-19.4-25.4c8.9-13.5,29.5-14.7,40.5-7.2c11,7.5,13.9,22,14.2,31.5
		c0.3,9.8-9.7,20.7-10,8.7c-0.6,15.8-10.6,14.6-11.7,6.1c-0.5,18.8-12.7,14-12.9,8.4L300.5,196.3z"/>
</g>
<path class="st34" d="M352,139.3l-2.6-0.9c0.1-0.9-0.4-1.8-1.3-2.1c-0.9-0.3-1.9,0.1-2.3,0.9l-2.6-0.9c-1-0.3-1.6-1.5-1.3-2.5
	l4.9-14.9c0.3-1,1.5-1.6,2.5-1.3l2.6,0.9c-0.1,0.1-0.1,0.2-0.2,0.4c-0.3,1,0.2,2.1,1.2,2.5c1,0.3,2.1-0.2,2.5-1.3
	c0-0.1,0.1-0.3,0.1-0.4l2.6,0.9c1,0.3,1.6,1.5,1.3,2.5l-4.9,14.9C354.2,139.1,353.1,139.7,352,139.3z"/>
<path class="st35" d="M348,133c0.4-0.3,0.5-0.8,0.3-1.3c-0.3-0.4-0.8-0.5-1.3-0.3c-0.4,0.3-0.5,0.8-0.3,1.3
	C347,133.2,347.6,133.3,348,133z M348.2,127.4c-0.2,0.1-0.3,0.4-0.2,0.6l2.8,5.8c0.1,0.2,0.4,0.3,0.6,0.2c0.2-0.1,0.3-0.4,0.2-0.6
	l-2.8-5.8C348.7,127.4,348.4,127.3,348.2,127.4z M352.9,128.8c0.3,0.4,0.2,1-0.3,1.3c-0.4,0.3-1,0.2-1.3-0.3c-0.3-0.4-0.2-1,0.3-1.3
	C352,128.2,352.6,128.4,352.9,128.8z"/>
<line class="st36" x1="358.5" y1="126.2" x2="345.8" y2="122"/>
<path class="st37" d="M180.2,232.3l3.5-4.7c1.4,0.6,3.1,0.2,4-1c0.9-1.3,0.8-3-0.2-4.1l3.5-4.7c0.7-0.9,1.9-1.1,2.8-0.4l23.1,16.8
	c0.9,0.7,1.1,1.9,0.4,2.8l-3.5,4.7c-0.1-0.2-0.3-0.3-0.5-0.4c-1.5-1.1-3.5-0.7-4.5,0.7c-1.1,1.5-0.7,3.5,0.7,4.5
	c0.2,0.1,0.4,0.2,0.6,0.3l-3.4,4.7c-0.6,0.9-1.9,1.1-2.8,0.4l-23.1-16.8C179.7,234.4,179.5,233.1,180.2,232.3z"/>
<line class="st38" x1="198.6" y1="248.1" x2="211.6" y2="230.2"/>
<path class="st39" d="M197.1,227.7c0,0.8-0.7,1.5-1.5,1.5c-0.8,0-1.5-0.7-1.5-1.5c0-0.8,0.7-1.5,1.5-1.5
	C196.4,226.2,197.1,226.9,197.1,227.7z M189.3,233.1c-0.1-0.4,0.2-0.8,0.7-0.9l10.8-1.3c0.4-0.1,0.8,0.2,0.9,0.7
	c0.1,0.4-0.2,0.8-0.7,0.9l-10.8,1.3C189.8,233.8,189.4,233.5,189.3,233.1z M195.6,238.5c0.8,0,1.5-0.7,1.5-1.5
	c0-0.8-0.7-1.5-1.5-1.5c-0.8,0-1.5,0.7-1.5,1.5C194,237.8,194.7,238.5,195.6,238.5z"/>
<path class="st40" d="M223,85.6l1.4,4.9c-1.2,0.6-1.9,2-1.5,3.4c0.4,1.4,1.7,2.2,3,2.1l1.4,4.9c0.3,1.1-0.3,2.2-1.4,2.5l-24.3,6.8
	c-1.1,0.3-2.2-0.3-2.5-1.4l-1.4-4.9c0.2,0,0.4,0,0.6-0.1c1.6-0.4,2.5-2,2-3.6c-0.4-1.6-2-2.5-3.6-2c-0.2,0.1-0.4,0.1-0.5,0.2
	l-1.4-4.9c-0.3-1.1,0.3-2.2,1.4-2.5l24.3-6.8C221.6,83.9,222.7,84.6,223,85.6z"/>
<line class="st41" x1="201.5" y1="89.5" x2="206.9" y2="108.7"/>
<path class="st42" d="M216.7,99.9c-0.6-0.5-0.7-1.3-0.2-1.9s1.3-0.7,1.9-0.2c0.6,0.5,0.7,1.3,0.2,1.9
	C218.2,100.3,217.3,100.4,216.7,99.9z M217.2,91.4c0.3,0.2,0.4,0.6,0.2,0.9l-5.1,8.3c-0.2,0.3-0.6,0.4-1,0.2
	c-0.3-0.2-0.4-0.6-0.2-0.9l5.1-8.3C216.5,91.3,216.9,91.2,217.2,91.4z M210,92.8c-0.5,0.6-0.4,1.5,0.2,1.9c0.6,0.5,1.5,0.4,1.9-0.2
	s0.4-1.5-0.2-1.9C211.3,92.1,210.4,92.2,210,92.8z"/>
<path class="st43" d="M311.5,92.5l-34,24.5c12.4,10,24.7,12.2,31.5,12L311.5,92.5z"/>
<path class="st44" d="M308,129c-6.3-3.1-12.8-7.2-17.8-11.5c-2.1-1.8-4.1-3.7-5.5-5.7l2.4-1.8c1.3,1.7,3,3.4,5.1,5.2
	c4.7,4.1,11,8,17,11L309,129C308.7,129,308.4,129,308,129z M302.9,98.7c1.4,1.4,3,2.8,4.6,4.2c1.1,0.9,2.1,1.8,3.2,2.7l-0.3,3.7
	c-1.5-1.2-3.2-2.6-4.9-4.1c-1.7-1.5-3.5-3.1-5.1-4.7L302.9,98.7z M309.9,115.4l-0.2,3.1c-1.7-0.6-3.7-1.5-6.1-3
	c-3.2-1.9-7.1-4.8-11.8-8.9l2.5-1.8c4.4,3.7,8,6.3,10.9,8.1C307.1,114.1,308.7,114.9,309.9,115.4z"/>
<circle class="st45" cx="312.5" cy="92.5" r="4.5"/>
</svg>
