<svg xmlns="http://www.w3.org/2000/svg" width="120" height="120" fill="none" xmlns:v="https://vecta.io/nano"><g clip-path="url(#C)"><ellipse cx="78.886" cy="113.32" rx="32.886" ry="5.32" fill="#c4e9e6"/><path d="M54.632 75.945C32.013 63.954 29.097 41.012 20.563 44.983c-6.428 3.008 4.681 14.572 4.681 14.572s-6.071-4.958-8.157-2.361c-4.194 5.224 6.267 9.762 10.056 12.718 0 0-5.134-3.573-6.786 1.329s15.847 14.933 25.247 12.688c6.007-1.434 13.454-3.53 9.027-7.984z" fill="#989899"/><g fill="#ec8822"><path d="M66.157 112.644c-.352-.148-.63-.473-.742-.867l-.891-3.499-3.353 1.781c-.606.3-1.417.097-1.714-.514s-.096-1.429.51-1.729l4.755-2.508c.357-.197.699-.191 1.109-.019.352.148.63.474.683.843l1.281 5.051c.19.704-.221 1.364-.92 1.556a1.27 1.27 0 0 1-.718-.095zm25.618-.078c-.381 0-.762-.192-1.016-.512l-2.159-2.882-2.413 2.946c-.445.512-1.27.64-1.778.192s-.635-1.281-.191-1.793l3.43-4.163c.254-.32.572-.448 1.016-.448.381 0 .762.192.953.512l3.112 4.163c.445.576.317 1.345-.254 1.793-.127.128-.445.192-.699.192z"/></g><path d="M76.868 21.807c-21.53 0-38.931 17.355-38.931 38.68 0 22.414 9.844 38.68 23.88 45.404 2.985 1.409 6.415 1.152 9.272-.385 1.715-.96 3.684-1.472 5.779-1.472s4.065.512 5.779 1.472c2.858 1.601 6.351 1.794 9.272.385 14.036-6.724 23.88-22.99 23.88-45.404 0-21.325-17.402-38.68-38.932-38.68z" fill="#e7e4e2"/><path d="M91.328 31.421c-3.595-.478-7.136.081-10.182 1.401-3.98 1.746-8.493 1.451-12.216-.799-2.912-1.71-6.291-2.721-9.917-2.715-9.551.044-17.751 7.289-19.028 16.81-1.51 11.269 6.789 21.294 17.861 22.018 3.189.209 6.249-.382 8.986-1.601 3.855-1.693 8.369-1.398 11.975.783 2.558 1.565 5.516 2.549 8.706 2.758 11.072.724 20.586-8.137 20.532-19.508-.047-9.608-7.252-17.859-16.717-19.147z" fill="#fff"/><g fill="#989899"><path d="M48.807 77.767c-1.623-.714-2.659-2.169-2.969-3.754-.863 2.164.108 4.576 2.195 5.504s4.535.016 5.572-2.076c-1.372.866-3.174 1.041-4.797.327zm8.308 12.066c-1.623-.714-2.659-2.169-2.97-3.754-.862 2.164.108 4.577 2.195 5.504s4.535.016 5.572-2.076c-1.372.866-3.174 1.041-4.797.327zm15.281 3.405c-1.719-.18-3.198-1.245-3.996-2.683a4.34 4.34 0 0 0 3.808 4.593c2.249.277 4.331-1.381 4.663-3.642-1.095 1.186-2.755 1.912-4.474 1.732zm14.03-1.857c1.704-.482 2.926-1.78 3.447-3.307.563 2.264-.723 4.519-2.915 5.147s-4.495-.614-5.24-2.83c1.302 1.053 3.004 1.472 4.708.989zm-23.748-9.645c-1.698-.479-2.988-1.711-3.54-3.252a4.35 4.35 0 0 0 3.054 5.142c2.229.576 4.465-.711 5.209-2.883-1.324 1.05-3.024 1.472-4.723.993zm31.976-.795c1.704-.483 2.926-1.78 3.447-3.307.563 2.264-.723 4.519-2.915 5.147s-4.495-.614-5.24-2.83c1.302 1.053 3.064 1.476 4.708.989zm-14.219 2.024c1.747-.239 3.19-1.281 3.945-2.731a4.33 4.33 0 0 1-3.718 4.67c-2.286.261-4.327-1.324-4.772-3.579 1.171 1.224 2.798 1.878 4.545 1.639z"/></g><path d="M73.953 17.239c-17.473.669-30.984 12.892-34.161 26.352-1.271 9.731 7.855 11.478 11.37 9.029 4.719-3.287 11.617-5.476 13.076 1.689 2.491 12.24 14.714 9.447 14.146-.786-.374-6.727 7.207-8.854 11.671-1.856 5.953 9.33 15.115.368 14.864-9.581-.501-14.463-13.493-25.516-30.966-24.847z" fill="#fcf9ef"/><path d="M101.429 37.746C100.991 25.144 88.066 16.791 73 18.5c18.457 6.215-14.561 17.106-8.257 32.756 2.163 10.665 11.682 9.2 11.186.284-.326-5.861 10.139-9.291 14.012-3.194 5.164 8.131 11.707-1.933 11.487-10.601z" fill="#fff"/><ellipse cx="69.123" cy="27.609" rx="14.205" ry="9.808" transform="rotate(338.867 69.123 27.609)" fill="#f5d356"/><path d="M78.154 20.925c2.241 2.291.451 8.126-6.521 13.042 7.742-1.94 12.758-9.464 6.521-13.042z" fill="#fff"/><path d="M114.115 65.177c12.338.897 2.298 28.361-12.167 33.204 7.548-8.945-.17-34.101 12.167-33.204z" fill="#989899"/><path d="M20.587 63.994C10.117 61.152-.785 46.714.426 36.337c3.33-6.352 4.348-8.752 5.844-8.346 3.554 1.846 11.801 9.423 15.26 14.074 3.564 4.791 6.672 16.971 7.348 20.968.051.303-8.291.962-8.291.962z" fill="#5f9997"/><g filter="url(#A)"><ellipse cx="17.82" cy="45.306" rx="21.181" ry="9.299" transform="rotate(53.359 17.82 45.306)" fill="#474748"/></g><path d="M18.564 39.892c-4.63-6.609-11.681-9.594-14.943-9.408-2.343 10.605 7.952 22.678 12.836 27.036 2.353-2.752 3.709-12.483 2.108-17.628z" fill="#545454"/><path d="M21.876 63.809l4.394-.413 1.588 2.037-4.031 1.047-1.952-2.671z" fill="#727273"/><g filter="url(#B)"><path d="M23.465 65.846l4.395-.413 7.317 9.792c.819 1.095.266 2.671-1.058 3.015-.761.198-1.565-.087-2.032-.719l-8.622-11.674z" fill="#bae4e3"/></g><g fill="#545454"><path d="M20.204 18.43c3.509-7.835 14.732-11.165 24.94-8.553-13.398-1.065-21.582 3.852-24.94 8.553zm-1.7 8.078c3.551-8.216 18.138-16.156 35.71-13.305-17.66.582-31.941 8.222-35.71 13.305z"/></g></g><defs><filter id="A" x="3.139" y="27.423" width="29.362" height="35.766" filterUnits="userSpaceOnUse" color-interpolation-filters="sRGB"><feFlood flood-opacity="0"/><feBlend in="SourceGraphic" result="B"/><feColorMatrix in="SourceAlpha" values="0 0 0 0 0 0 0 0 0 0 0 0 0 0 0 0 0 0 127 0" result="C"/><feOffset dx="-3" dy="4"/><feComposite in2="C" operator="arithmetic" k2="-1" k3="1"/><feColorMatrix values="0 0 0 0 1 0 0 0 0 1 0 0 0 0 1 0 0 0 0.25 0"/><feBlend in2="B"/></filter><filter id="B" x="23.465" y="65.432" width="12.096" height="12.868" filterUnits="userSpaceOnUse" color-interpolation-filters="sRGB"><feFlood flood-opacity="0"/><feBlend in="SourceGraphic" result="B"/><feColorMatrix in="SourceAlpha" values="0 0 0 0 0 0 0 0 0 0 0 0 0 0 0 0 0 0 127 0" result="C"/><feOffset dx="-1"/><feComposite in2="C" operator="arithmetic" k2="-1" k3="1"/><feColorMatrix values="0 0 0 0 1 0 0 0 0 1 0 0 0 0 1 0 0 0 0.54 0"/><feBlend in2="B"/></filter><clipPath id="C"><path fill="#fff" d="M0 0h120v120H0z"/></clipPath></defs></svg>