<svg xmlns="http://www.w3.org/2000/svg" width="120" height="120" fill="none" xmlns:v="https://vecta.io/nano"><ellipse cx="62.304" cy="112.5" rx="32.886" ry="5.32" fill="#c4e9e6"/><g stroke-linecap="round"><path d="M80.605 9.296C44.891-.555 20.731 25.272 18.976 46.927" stroke="#7a7a7a"/><g stroke-width="3" stroke-miterlimit="10"><path d="M69.326 104.729l3.738 3.976" stroke="#d67b29"/><path d="M70.343 109.568l-.87-4.191a4.93 4.93 0 0 1-.049-1.297l.251-1.774" stroke="#ec8822"/></g></g><path d="M75.663 100.346s-1.257 2.385-3.472 3.678c-2.487 1.41-8.023 1.277-10.501-4.593l5.759-1.526 8.214 2.441z" fill="#b2b2b2"/><g stroke-linecap="round" stroke-width="3" stroke-miterlimit="10"><path d="M56.247 105.936l3.807 3.967" stroke="#d67b29"/><path d="M56.646 111.034l-.862-4.567.212-3.581" stroke="#ec8822"/></g><path d="M66.191 101.546s-4.818 3.632-9.861 3.194c-5.521-.409-10.343-5.123-9.668-10.513l19.529 7.319z" fill="#d7d7d7"/><path d="M77.574 34.282s.026-3.269-1.332-5.921c-.734-1.506-1.239-2.648-.348-2.625 1.721.104 2.727 2.569 1.679 8.546z" fill="#989899"/><path d="M15.1 58.057s9.612 8.305 14.23 2.222c7.081-9.328 13.026-32.063 37.004-30.451 34.438 4.051 32.453 32.241 25.319 43.589.678 3.644-.261 9.982-1.295 13.165-4.008 12.322-17.945 17.784-35.362 15.367-3.495-.507-7.169-.96-10.118-1.87C15.272 90.862 15.1 58.057 15.1 58.057z" fill="#d7d7d7"/><path d="M96.487 59.094c.211 10.113-4.865 15.51-4.865 15.51s-2.722-.487-6.257.55c-5.811 1.691-22.969.708-25.339-15.526-1.822-12.177 8.897-24.204 20.106-23.138 10.318 1.042 16 6.601 16.354 22.604z" fill="#fff"/><path d="M84.321 41.832c1.17.328 6.412 1.651 7.908.469 2.307 2.736 3.925 9.081 3.856 11.695-.586-.313-4.213 1.971-5.112 2.245s-1.454-1.227-2.643-1.258-2.415 1.423-3.893 1.087c.023-.891 6.363-4.59 6.675-5.177s-.876-.617-.845-1.806c.053-2.023-4.605-6.699-5.947-7.256-.254-.071-.316-.096-.105-.037.032.009.068.021.105.037z" fill="#e1e2ec"/><path d="M75.12 32.613s-2.954-2.991-6.208-3.611c-2.957-.612-1.412-2.831 1.29-1.572 2.406 1.193 4.918 5.182 4.918 5.182zm1.591.577s-1.328-3.78-4.603-5.888c-2.749-1.737-3.3-3.416-2.398-3.808 1.804-.785 5.216.612 7 9.696zM74.02 92.932c-1.228-.805-1.905-2.19-1.928-3.558a3.56 3.56 0 0 0 1.002 4.902c1.636 1.113 3.846.695 5.017-.88-1.321.501-2.863.341-4.09-.464zm-.929-9.953c-1.337-1.165-1.889-2.784-1.729-4.385-1.473 1.745-1.302 4.306.444 5.779 1.686 1.471 4.305 1.361 5.893-.262-1.556.376-3.269-.026-4.608-1.131zm10.791 5.692c-1.648-.638-2.741-2.034-3.117-3.589-.769 2.12.299 4.467 2.418 5.295s4.522-.12 5.467-2.176c-1.391.915-3.182 1.165-4.769.47zm-2.721 6.291s-1.18 1.931-.855 3.129c0 0 1.187.09 2.05-1.076 0 0-.833.038-1.195-2.053z" fill="#989899"/><path d="M88.452 102.062c37.775-46.281 15.327-86.68-7.566-92.164" stroke="#62a9a3" stroke-width="4" stroke-linecap="round"/><path d="M95.695 50.716l-.103-.597c-2.095.54-4.229 2.565-4.542 3.151 1.701-1.383 3.746-2.28 4.645-2.554zm.31 1.791l-.091-.597c-1.485-.039-5.481 2.235-6.426 4.291 1.839-2.128 5.022-3.337 6.518-3.694z" fill="#000"/><path d="M93.967 63.007c-.881-1.491-1.012-6.244-.197-7.158.369-.331 1.384-.346 2.931.95.704 2.563.575 6.513.279 6.539-.888.078-2.472.585-3.013-.331z" fill="#e04444"/><path d="M95.982 53.71s3.56-.267 5.908 4.42c-4.597-1.384-8.605-.187-8.605-.187s-.098-3.565 2.697-4.233z" fill="#ec8822"/><path d="M99.296 62.536s-3.731.845-5.592-.145c.052.592.915 1.48 1.237 1.75 3.645.433 4.354-1.605 4.354-1.605z" fill="#ec6c22"/><g fill="#000"><ellipse cx="84.334" cy="48.635" rx="1.081" ry="1.261" transform="rotate(340.796 84.334 48.635)"/><path d="M91.406 51.02l-.286-.424c-7.856 4.849-8.512 7.21-8.512 7.21s2.005-2.469 8.798-6.786z"/><path d="M82.678 55.132c-.713-.019-2.054-1.045-2.635-1.555 0 0 1.073.302 2.369.359 3.122.138 8.404-3.05 8.404-3.05-.633 1.47-7.425 4.265-8.138 4.247zm3.265-11.211c.708.09 2.338 1.547 4.05 4.268-.502-1.647-1.83-4.329-4.324-5.167-5.074.759-8.466 5.427-8.466 5.427s5.776-4.903 8.74-4.528z"/><path d="M89.994 48.188c-.441-2.093-2.518-6.011-7.835-7.34 1.454 1.227 6.161 3.134 7.835 7.34z"/></g><path d="M69.519 46.762c-2.181 3.808-2.86 7.06-.483 7.122s1.117-4.826.483-7.122zM56.937 35.928c-3.609 6.347-4.735 11.768-.802 11.87s1.85-8.044.802-11.87zM45.738 48.214c-2.18 3.808-2.86 7.06-.483 7.122s1.117-4.826.483-7.122zm28.593 9.078c-1.796 2.852-2.352 5.29-.386 5.341s.914-3.618.386-5.341z" fill="#b3e9fa"/><path d="M56.41 67.844c12.811-7.406 25.473 7.922 52.773-2.008 1.43 2.177-.535 9.099-2.343 10.046-2.029 1.484-5.388 1.391-8.357 1.268 0 0 4.742-.069 6.92.775.56 1.319-.225 5.286-2.643 6.174-3.418 1.255-6.394.792-11.689-1.256 0 0 12.941 1.289 9.767 6.557-5.518 6.396-31.902.476-41.485-3.096S51.42 70.728 56.41 67.844z" fill="#989899"/><path fill-rule="evenodd" d="M17.891 49.107c.012-.467.401-.836.868-.824s.836.401.824.868-.401.836-.868.824-.836-.401-.824-.868zm4.834.126a3.99 3.99 0 0 1-4.093 3.884l-.273-.016-.943 3.6h0 0 0l-.433 1.629-1.116 5.018c-.201 1.425-.167 2.463.116 3.166.253.629.734 1.057 1.697 1.22 0 0-.102.316-.111.656-.01.392-.111.656-.111.656-1.355-.23-2.259-.919-2.708-2.034-.181-.45-.282-.954-.321-1.501-1.122 1.261-2.599 1.897-3.966 1.818-1.2-.07-2.29-.707-2.841-1.922-.538-1.186-.514-2.809.207-4.799l1.213-3.749 1.389 4.693-1.352-.49c-.656 1.81-.587 3.045-.246 3.795.327.721.95 1.1 1.708 1.144 1.551.09 3.754-1.283 4.287-4.428l.004.001.865-3.581.439-1.649.94-3.586a3.99 3.99 0 0 1 1.767-7.617 3.99 3.99 0 0 1 3.884 4.093zm-3.074 17.634l1.416-3.289-2.031-.471 4.74-3.202-2.904 7.489s.054-.246-.52-.508-.701-.018-.701-.018z" fill="#df8c68"/><path d="M19.61 45.43c-2.361-2.48-17.178-2.452-17.297 2.108-.097 3.731 14.721 1.973 17.297-2.108z" fill="#dedede"/><path d="M19.61 45.43c-2.361-2.48-17.178-2.452-17.297 2.108-.097 3.731 6.008-2.403 17.297-2.108z" fill="#617697"/><circle cx="5.006" cy="46.86" r=".892" transform="rotate(1.497 5.006 46.86)" fill="#fff"/><circle r=".297" transform="matrix(.9997 .02612 .02612 -.9997 5.00595 46.8596)" fill="#617697"/><path fill-rule="evenodd" d="M9.524 44.599c-.004.164-.274.29-.602.282s-.591-.149-.586-.313.274-.29.602-.282.591.148.586.313zm4.753.124c-.004.164-.274.29-.602.282s-.591-.149-.586-.313.274-.29.602-.282.591.148.586.313zm-2.994.814c.328.009.598-.117.602-.282s-.258-.304-.586-.313-.598.117-.602.282.258.304.586.313zm-2.4.829c-.004.164-.274.29-.602.282s-.591-.148-.586-.313.274-.29.602-.282.591.149.586.313zm7.169-1.299c.328.008.598-.117.602-.282s-.258-.304-.586-.313-.598.117-.602.282.258.304.586.313z" fill="#ec8822"/><path d="M28.185 94.198c5.267 2.073 8.525 6.996 11.909 7.084m18.404-74.021c-4.389 1.337-10.162 2.002-13.25 6.381m-2.481 2.4c-1.488 1.412-2.573 1.988-3.002 3.792M21.594 87.253c.937 1.153 3.334 2.022 3.767 3.969" stroke-linecap="round" stroke="#b4b4b4" stroke-width=".5"/></svg>