<svg width="125" height="125" viewBox="0 0 125 125" fill="none" xmlns="http://www.w3.org/2000/svg">
<ellipse rx="42.5" ry="10.5478" transform="matrix(-0.999997 0.00245835 0.00245835 0.999997 64.5261 98.454)" fill="#262626" fill-opacity="0.22"/>
<path d="M44.2015 65.2325C43.0437 61.5262 36.5005 36.5 16.0005 29.5C-2.5 24.0001 8.7831 40.8286 14.0556 43.369C14.0556 43.369 10.1384 41.5075 8.46016 43.8701C6.77408 46.1697 9.18381 53.3159 18.3905 55.2862C18.3905 55.2862 9.8415 52.558 10.3115 57.6353C11.5934 59.7816 14.7593 63.1322 29.3094 68.1865C37.5002 71.5644 45.4219 68.9317 44.2015 65.2325Z" fill="#989899"/>
<path d="M34.4749 90.9263L32.2527 86.9333" stroke="#D67B29" stroke-width="3" stroke-miterlimit="10" stroke-linecap="round"/>
<path d="M30.2123 89.3227L35.3007 91.63L38.5722 92.1424" stroke="#EC8822" stroke-width="3" stroke-miterlimit="10" stroke-linecap="round"/>
<path d="M29.6607 95.6365L27.4765 91.6216" stroke="#D67B29" stroke-width="3" stroke-miterlimit="10" stroke-linecap="round"/>
<path d="M25.4115 93.9905L30.4775 96.3485L33.7438 96.8935" stroke="#EC8822" stroke-width="3" stroke-miterlimit="10" stroke-linecap="round"/>
<path d="M62.3472 26.9454C62.3472 26.9454 62.7809 23.3013 64.6586 20.5552C65.6835 18.9903 66.4043 17.7946 65.4146 17.6852C63.4946 17.54 62.0328 20.1307 62.3472 26.9454Z" fill="#989899"/>
<path d="M65.2992 25.4588C65.2992 25.4588 68.9917 22.5777 72.6808 22.3814C76.0399 22.1487 74.6445 19.4435 71.4757 20.4358C68.6436 21.3981 65.2992 25.4588 65.2992 25.4588Z" fill="#989899"/>
<path d="M63.4582 25.8592C63.4582 25.8592 65.463 21.8518 69.3851 20.0031C72.6733 18.487 73.5203 16.7011 72.5775 16.1269C70.6917 14.9787 66.7179 16.0161 63.4582 25.8592Z" fill="#989899"/>
<path d="M97.502 74.5404C96.5955 82.8508 106.287 82.5659 106.287 82.5659C94.5065 98.845 80.1317 102.521 58.3852 102.521C49.1332 102.521 34.7807 100.494 34.7807 100.494C31.9119 100.248 29.8198 97.6622 30.177 94.8041C30.5242 92.0265 33.0562 90.0609 35.8324 90.4139L36.1159 90.4499C26.9983 82 27.2795 70.5 34.7807 59.5C33.7807 45.0001 46.1318 15.2976 79.7208 26.8473C99.1842 34.6799 99.6312 55.0214 97.502 74.5404Z" fill="#D7D7D7"/>
<path d="M48.3445 84.2925C49.9743 84.1498 51.3744 83.1384 52.1259 81.7951C52.2854 83.9802 50.7298 85.8886 48.5366 86.1186C46.3434 86.3486 44.4023 84.7544 44.0947 82.5687C45.1211 83.77 46.7146 84.4351 48.3445 84.2925Z" fill="#989899"/>
<path d="M31.5749 83.618C33.2048 83.4754 34.6049 82.464 35.3564 81.1207C35.5021 83.117 34.2162 84.8824 32.3204 85.3479C31.9614 85.0827 31.5749 84.5388 31.5749 83.618Z" fill="#989899"/>
<path d="M59.5403 74.9356C61.4686 74.4951 62.8711 73.1846 63.566 71.512C64.0781 74.0275 62.5477 76.4745 60.0561 77.0024C57.6234 77.5605 55.1191 76.0537 54.4288 73.5973C55.7513 74.7998 57.642 75.3165 59.5403 74.9356Z" fill="#989899"/>
<path d="M40.9467 74.8019C42.8993 75.0497 44.7125 74.2494 45.9082 72.9078C45.532 75.42 43.237 77.1759 40.7223 76.8659C38.2076 76.5559 36.3603 74.3334 36.5295 71.7903C37.4042 73.44 39.0231 74.644 40.9467 74.8019Z" fill="#989899"/>
<path d="M29.4463 73.0595C30.787 72.8522 31.9849 72.1563 32.8555 71.1795C32.571 73.0788 31.1899 74.5458 29.4463 75.0147C29.2413 74.7494 29.2413 73.6677 29.4463 73.0595Z" fill="#989899"/>
<path d="M46.9475 30.3682C34.8419 37.1067 32.149 46.9539 35.0008 59.5C43.6264 62.1427 47.916 58.8532 52.9037 60.8418C57.8914 62.8304 57.4339 65.2048 64.022 67.8772C70.6101 70.5496 83.0012 65.2297 87.5011 53C91.1892 42.9812 82.3849 30.8336 71.6979 30.0084C65.0833 29.4976 63.3294 33.2909 57.3941 32.3676C54.124 31.8589 51.1507 28.9926 46.9475 30.3682Z" fill="white"/>
<ellipse cx="68.0455" cy="46.6746" rx="5.03478" ry="5.65606" transform="rotate(20.3112 68.0455 46.6746)" fill="#231F20"/>
<ellipse cx="66.5149" cy="45.0874" rx="1.69558" ry="2.66449" transform="rotate(20.3112 66.5149 45.0874)" fill="white"/>
<path d="M46.092 43.4261C45.4713 46.0592 43.165 47.4745 41.2225 47.0166C39.28 46.5586 38.4369 44.4007 39.0576 41.7677C39.6784 39.1346 41.7563 37.3713 43.6988 37.8293C45.6413 38.2872 46.7128 40.793 46.092 43.4261Z" fill="#231F20"/>
<path d="M43.0142 41.5667C42.7702 42.799 41.8652 43.1031 41.3379 42.9987C40.5986 42.8523 40.0928 42.2687 40.3369 41.0364C40.581 39.8042 41.4468 39.14 42.1861 39.2865C42.9254 39.4329 43.2583 40.3345 43.0142 41.5667Z" fill="white"/>
<path d="M55.5178 48.7404C54.6503 46.7717 49.9852 45.313 48.048 47.21L49.7959 51.3414L55.5178 48.7404Z" fill="#EC8822"/>
<path d="M49.6731 52.2706C49.1648 51.2728 49.1154 50.3427 48.916 49.1893C50.2812 49.4057 52.8039 49.4838 55.3348 48.7632C55.3957 49.6802 51.4827 51.782 49.6731 52.2706Z" fill="#EC6C22"/>
<path d="M84.5145 60.3916C78.8692 61.8279 65.3127 69.482 62.9202 88.054C60.9961 103.264 69.4207 93.3828 73.2073 89.2049C73.2073 89.2049 71.7453 92.7343 73.9028 94.1249C76.005 95.5247 79.6831 92.4178 83.5083 84.9199C83.5083 84.9199 84.0129 90.318 88.1259 91.6119C91.1997 90.7991 93.8938 82.6389 94.1868 72.345C94.4798 62.0511 90.1597 58.9554 84.5145 60.3916Z" fill="#989899"/>
</svg>
