<svg width="375" height="580" viewBox="0 0 375 580" fill="none" xmlns="http://www.w3.org/2000/svg">
<g clip-path="url(#clip0)">
<rect x="-13" width="401" height="812" fill="url(#paint0_linear)"/>
<g clip-path="url(#clip1)">
<path d="M397.443 120.462C394.639 95.9997 373.828 77 348.571 77C321.403 77 299.378 98.9863 299.378 126.108C280.616 126.289 264.789 138.724 259.539 155.778C256.719 154.888 253.717 154.407 250.601 154.407C234.254 154.407 221.002 167.636 221.002 183.955C221.002 200.274 234.254 213.503 250.601 213.503C347.856 213.503 402.393 216 490.315 216C510.577 216 527.002 199.603 527.002 179.377C527.002 159.151 510.577 142.754 490.315 142.754C489.729 142.754 489.146 142.768 488.566 142.795C483.384 125.442 467.276 112.79 448.209 112.79C434.96 112.79 423.14 118.899 415.422 128.449C410.542 124.085 404.316 121.191 397.443 120.462Z" fill="url(#paint1_linear)"/>
<g opacity="0.8">
<path d="M58.188 106.122C49.1225 84.626 18.6615 84.6261 9.59593 106.122L-53.4524 255.618C-62.3381 276.687 -46.8689 300 -24.0026 300H91.7866C114.653 300 130.122 276.687 121.236 255.618L58.188 106.122Z" fill="url(#paint2_linear)"/>
<mask id="mask0" style="mask-type:alpha" maskUnits="userSpaceOnUse" x="-56" y="90" width="180" height="210">
<path d="M58.1861 106.122C49.1205 84.626 18.6595 84.6261 9.59397 106.122L-53.4544 255.618C-62.3401 276.687 -46.8709 300 -24.0046 300H91.7846C114.651 300 130.12 276.687 121.234 255.618L58.1861 106.122Z" fill="#EFFCF5"/>
</mask>
<g mask="url(#mask0)">
<path fill-rule="evenodd" clip-rule="evenodd" d="M1.00244 78H67.0024V117C66.1668 116.372 65.128 116 64.0024 116C61.241 116 59.0024 118.239 59.0024 121H58.5228V123.484C58.5228 125.561 56.8393 127.245 54.7626 127.245C52.6859 127.245 51.0024 125.561 51.0024 123.484V121V115C51.0024 112.239 48.7639 110 46.0024 110C43.241 110 41.0024 112.239 41.0024 115V121H40.2991C39.7753 122.446 38.3896 123.48 36.7626 123.48C35.1356 123.48 33.7499 122.446 33.2261 121H33.0024V118C33.0024 116.343 31.6593 115 30.0024 115C28.3456 115 27.0024 116.343 27.0024 118V121H26.5228V125.484C26.5228 127.561 24.8393 129.245 22.7626 129.245C20.6859 129.245 19.0024 127.561 19.0024 125.484V121.694V121H18.9218C18.6086 119.678 17.4204 118.694 16.0024 118.694C14.5845 118.694 13.3963 119.678 13.0831 121H12.5681C12.4456 123.534 10.3524 125.551 7.78811 125.551C5.22385 125.551 3.13064 123.534 3.00811 121H1.00244V78Z" fill="#F9FDFA"/>
</g>
<line x1="9.16748" y1="148.709" x2="14.8393" y2="148.709" stroke="#B9DDC5" stroke-width="2" stroke-linecap="round"/>
<line x1="34.4814" y1="159.639" x2="40.1533" y2="159.639" stroke="#B9DDC5" stroke-width="2" stroke-linecap="round"/>
<line x1="-1.46973" y1="179.987" x2="4.2021" y2="179.987" stroke="#B9DDC5" stroke-width="2" stroke-linecap="round"/>
<line x1="54.5347" y1="145.437" x2="60.2065" y2="145.437" stroke="#B9DDC5" stroke-width="2" stroke-linecap="round"/>
<path d="M105.373 164.182C97.9599 146.606 73.0529 146.606 65.6402 164.182L14.0873 286.421C6.82176 303.649 19.4705 322.711 38.1676 322.711H132.845C151.542 322.711 164.191 303.649 156.925 286.421L105.373 164.182Z" fill="url(#paint3_linear)"/>
<line x1="69.8115" y1="189.942" x2="74.0846" y2="189.942" stroke="#FEFAE9" stroke-width="2" stroke-linecap="round"/>
<line x1="78.7744" y1="165.221" x2="83.0474" y2="165.221" stroke="#FEFAE9" stroke-width="2" stroke-linecap="round"/>
<line x1="91.5654" y1="177.147" x2="95.8385" y2="177.147" stroke="#FEFAE9" stroke-width="2" stroke-linecap="round"/>
<line x1="103.749" y1="197.061" x2="108.022" y2="197.061" stroke="#FEFAE9" stroke-width="2" stroke-linecap="round"/>
</g>
</g>
</g>
<defs>
<linearGradient id="paint0_linear" x1="187" y1="1.55835e-09" x2="187.066" y2="578" gradientUnits="userSpaceOnUse">
<stop offset="0.0400603" stop-color="white"/>
<stop offset="0.120032" stop-color="#E8FFFE"/>
<stop offset="0.800841" stop-color="#FCF3E0"/>
<stop offset="1" stop-color="#FFF1EE" stop-opacity="0"/>
</linearGradient>
<linearGradient id="paint1_linear" x1="357.002" y1="77" x2="349.09" y2="207.641" gradientUnits="userSpaceOnUse">
<stop stop-color="white"/>
<stop offset="1" stop-color="white" stop-opacity="0.16"/>
</linearGradient>
<linearGradient id="paint2_linear" x1="33.8916" y1="90" x2="33.8916" y2="246.213" gradientUnits="userSpaceOnUse">
<stop stop-color="#DBF8E5"/>
<stop offset="1" stop-color="#D8EBDA"/>
</linearGradient>
<linearGradient id="paint3_linear" x1="61.002" y1="167.5" x2="125.504" y2="250" gradientUnits="userSpaceOnUse">
<stop stop-color="#C3E7CD"/>
<stop offset="0.994792" stop-color="#E5F9EA"/>
</linearGradient>
<clipPath id="clip0">
<rect width="375" height="580" fill="white"/>
</clipPath>
<clipPath id="clip1">
<rect width="376" height="246" fill="white" transform="translate(0 77)"/>
</clipPath>
</defs>
</svg>
