<?xml version="1.0" encoding="utf-8"?>
<!-- Generator: Adobe Illustrator 26.0.0, SVG Export Plug-In . SVG Version: 6.00 Build 0)  -->
<svg version="1.1" id="圖層_1" xmlns="http://www.w3.org/2000/svg" xmlns:xlink="http://www.w3.org/1999/xlink" x="0px" y="0px"
	 viewBox="0 0 80 84" style="enable-background:new 0 0 80 84;" xml:space="preserve">
<style type="text/css">
	.st0{fill:url(#SVGID_1_);}
	.st1{fill:#E27373;filter:url(#Adobe_OpacityMaskFilter);}
	.st2{mask:url(#mask0_1:3586_00000020363870764070168260000011172151853818641588_);}
	.st3{fill:#EA897E;}
	.st4{fill:none;stroke:#707070;stroke-opacity:0.3;}
	.st5{fill-rule:evenodd;clip-rule:evenodd;fill:#FFFFFF;}
	.st6{fill:none;stroke:#FFFFFF;stroke-width:3;stroke-linecap:round;stroke-opacity:0.4;}
</style>
<linearGradient id="SVGID_1_" gradientUnits="userSpaceOnUse" x1="-127.9195" y1="8.6843" x2="-127.9195" y2="-38.5501" gradientTransform="matrix(0.9289 -0.3703 -0.3703 -0.9289 143.9504 -30.6312)">
	<stop  offset="0" style="stop-color:#FFDFDB"/>
	<stop  offset="1" style="stop-color:#F8BEB8"/>
</linearGradient>
<circle class="st0" cx="30.7" cy="30.7" r="23.6"/>
<defs>
	<filter id="Adobe_OpacityMaskFilter" filterUnits="userSpaceOnUse">
		<feColorMatrix  type="matrix" values="1 0 0 0 0  0 1 0 0 0  0 0 1 0 0  0 0 0 1 0"/>
	</filter>
</defs>
<mask maskUnits="userSpaceOnUse" id="mask0_1:3586_00000020363870764070168260000011172151853818641588_">
	<circle class="st1" cx="30.7" cy="30.7" r="23.6"/>
</mask>
<g class="st2">
</g>
<path class="st3" d="M43.5,50.3c-2.4,1.3-3.6,1.8-5.2,2.4c0,0,0.7,1.2,2.4,1c0.3,0-0.2,1,0.2,1.9c0.3-0.1,2.3-0.6,3.2-2
	c-0.4-0.9-1.6-0.7-1.4-0.9C43.6,51.8,43.5,50.3,43.5,50.3z"/>
<path class="st4" d="M41.7,53.6c7.9,9.5,11.6,6.9,14.9,4.7c5-3.5,14.1,1.8,22.8,14.2"/>
<path class="st5" d="M34.9,19.5c1.1,0.2,1.7,1.3,1.5,2.4L32.1,43c-0.1,0.6-0.5,1.1-1,1.3c-0.5,0.3-1.1,0.3-1.6,0.1L21,41
	c-1-0.4-1.5-1.6-1.1-2.6c0.4-1,1.5-1.5,2.5-1.1l6.2,2.6L32.6,21C32.8,19.9,33.8,19.2,34.9,19.5z"/>
<path class="st6" d="M26.7,13.4c4.1-1.9,14.4-1.9,18.6,6.9"/>
<path class="st6" d="M48,26.1c0.7,0.7,1.9,2.8,1.2,4.9"/>
</svg>
