<svg width="125" height="125" viewBox="0 0 125 125" fill="none" xmlns="http://www.w3.org/2000/svg">
<ellipse rx="42.5" ry="10.5478" transform="matrix(-0.999997 0.00245835 0.00245835 0.999997 64.5258 98.454)" fill="#262626" fill-opacity="0.22"/>
<path d="M34.3889 90.9264L32.1667 86.9333" stroke="#D67B29" stroke-width="3" stroke-miterlimit="10" stroke-linecap="round"/>
<path d="M30.1263 89.3227L35.2148 91.63L38.4862 92.1424" stroke="#EC8822" stroke-width="3" stroke-miterlimit="10" stroke-linecap="round"/>
<path d="M29.5747 95.6364L27.3905 91.6216" stroke="#D67B29" stroke-width="3" stroke-miterlimit="10" stroke-linecap="round"/>
<path d="M25.3255 93.9905L30.3916 96.3485L33.6578 96.8935" stroke="#EC8822" stroke-width="3" stroke-miterlimit="10" stroke-linecap="round"/>
<path d="M31.1545 68.9799C28.6059 70.4591 25.0699 69.5 24.7897 66.6227L25.0701 63.8165L32.5806 60C32.6523 62.0634 33.1616 67.58 31.1545 68.9799Z" fill="#838383"/>
<path d="M97.7844 74.7429C96.8779 83.0532 106.569 82.7683 106.569 82.7683C94.7888 99.0477 79.5 104 58.667 102.724C49.4324 102.158 35.063 100.697 35.063 100.697C32.1942 100.451 30.1022 97.8646 30.4594 95.0065C30.8065 92.2289 33.3385 90.2633 36.1148 90.6163L36.3982 90.6523C30.6925 84.8781 28.2256 77.9216 29.6993 69.8547C29.8308 69.1365 29.959 68.2815 30.0994 67.346C30.683 63.4562 31.4753 58.1756 33.5713 55.5592C30.4594 40.5 50 18 76.5 28.0001C95.0062 34.9836 99.9136 55.2239 97.7844 74.7429Z" fill="#D7D7D7"/>
<path d="M49.5857 86.193C51.206 85.9667 52.5523 84.8846 53.2337 83.5044C53.5054 85.6784 52.05 87.6643 49.8715 88.0068C47.6931 88.3493 45.6725 86.857 45.2529 84.6901C46.3398 85.837 47.9654 86.4193 49.5857 86.193Z" fill="#989899"/>
<path d="M32.3998 85.5C34.0201 85.2737 35.818 84.3016 36.4993 82.9214C36.7476 84.9076 35.3692 86.7368 33.4999 87.2992C33.4998 87 32.4998 86 32.3998 85.5Z" fill="#989899"/>
<path d="M60.2854 76.2726C62.1885 75.7334 63.5218 74.3525 64.1298 72.6464C64.7706 75.1322 63.368 77.6547 60.9068 78.3101C58.5061 78.9925 55.9276 77.6166 55.1119 75.1989C56.4945 76.3318 58.4093 76.7506 60.2854 76.2726Z" fill="#989899"/>
<path d="M41.7093 77.0954C43.672 77.2424 45.4416 76.3499 46.5668 74.9486C46.3202 77.4769 44.1186 79.3485 41.5913 79.1682C39.064 78.988 37.1048 76.8634 37.1429 74.315C38.1014 75.9176 39.78 77.0367 41.7093 77.0954Z" fill="#989899"/>
<path d="M29.4006 76C30.7288 75.724 32.1907 74.9195 33.0099 73.8992C32.8236 75.8106 31.3174 77.3467 29.6002 77.9046C29.3818 77.6503 29.2271 76.618 29.4006 76Z" fill="#989899"/>
<path d="M39.515 42.3156C33.9627 45.5865 31.5248 52.4192 32.4598 57.319C41.8946 59.3516 45.5227 55.4358 50.5193 55.4722C55.516 55.5086 58.78 57.6394 66.0366 59.7191C73.2932 61.7987 79.0624 61.3978 80.4699 51.5053C80.4215 44.5299 73.4007 40.7587 64.5647 41.7744C57.5235 42.5839 58 45.0001 52 45.0001C48.4461 45.0001 46 40.0001 39.515 42.3156Z" fill="white"/>
<path d="M50.332 57.8977C49.8237 56.8999 49.1154 56.3427 48.916 55.1893C50.2812 55.4056 52.8039 55.4838 55.3348 54.7631C55.3957 55.6801 52.332 57.3977 50.332 57.8977Z" fill="#EC6C22"/>
<path d="M55.5178 54.7403C54.6503 52.7717 49.9852 51.313 48.048 53.21L49.832 57.8977L55.5178 54.7403Z" fill="#EC8822"/>
<path d="M52.5847 36.9002C52.7666 41.9093 41.9998 46 41.9998 46C41.9998 46 48.9992 44 46.4992 48.5C45.1752 50.8834 40.8837 53.8271 37.4998 55.5C37.4998 55.5 42.9998 53.8423 42.9998 56C42.9998 60.5 35.8245 58.4972 25.2499 68.0426C22.0724 60.9868 26.7232 49.0266 29.8317 44.716C37.0667 34.6836 52.4029 31.8911 52.5847 36.9002Z" fill="#989899"/>
<path d="M62.9908 38.6673C62.8045 42.7863 72.6723 50.9904 72.6723 50.9904C72.6723 50.9904 63.1804 47.1603 64.2005 52.1964C64.8954 55.6267 71.9729 59.2418 75.2059 61.1905C75.2059 61.1905 68.4825 57.0586 67.3586 60.2293C66.3844 62.9774 73.7967 66.8434 81.7009 70.5881C89.6052 74.3328 95.561 67.6665 94.6735 61.547C92.1268 43.9886 63.4406 28.7223 62.9908 38.6673Z" fill="#989899"/>
<path d="M62.3657 33.9454C62.3657 33.9454 61.932 30.3013 60.0543 27.5553C59.0294 25.9904 58.3086 24.7947 59.2982 24.6852C61.2183 24.5401 62.6801 27.1307 62.3657 33.9454Z" fill="#989899"/>
<path d="M59.4137 32.4588C59.4137 32.4588 55.7212 29.5778 52.0321 29.3815C48.673 29.1487 50.0684 26.4436 53.2372 27.4358C56.0693 28.3981 59.4137 32.4588 59.4137 32.4588Z" fill="#989899"/>
<path d="M61.2547 32.8592C61.2547 32.8592 59.2499 28.8518 55.3278 27.0031C52.0396 25.487 51.1925 23.7011 52.1354 23.1269C54.0212 21.9787 57.995 23.0161 61.2547 32.8592Z" fill="#989899"/>
</svg>
