<svg width="125" height="125" viewBox="0 0 125 125" fill="none" xmlns="http://www.w3.org/2000/svg">
<ellipse rx="42.5" ry="10.5478" transform="matrix(-0.999997 0.00245835 0.00245835 0.999997 64.5258 98.454)" fill="#262626" fill-opacity="0.22"/>
<path d="M32.4277 68.1446C29.8791 69.6238 26.4867 67.1079 26.0629 65.7874L26.3433 62.9811L33.8538 59.1647C33.9255 61.2281 34.4348 66.7446 32.4277 68.1446Z" fill="#838383"/>
<path d="M34.4749 90.9264L32.2527 86.9333" stroke="#D67B29" stroke-width="3" stroke-miterlimit="10" stroke-linecap="round"/>
<path d="M30.2123 89.3227L35.3007 91.63L38.5722 92.1424" stroke="#EC8822" stroke-width="3" stroke-miterlimit="10" stroke-linecap="round"/>
<path d="M29.6607 95.6364L27.4765 91.6216" stroke="#D67B29" stroke-width="3" stroke-miterlimit="10" stroke-linecap="round"/>
<path d="M25.4115 93.9905L30.4775 96.3485L33.7438 96.8935" stroke="#EC8822" stroke-width="3" stroke-miterlimit="10" stroke-linecap="round"/>
<path d="M62.3472 26.9454C62.3472 26.9454 62.7809 23.3013 64.6586 20.5553C65.6835 18.9904 66.4043 17.7947 65.4146 17.6852C63.4946 17.5401 62.0328 20.1307 62.3472 26.9454Z" fill="#989899"/>
<path d="M65.2992 25.4588C65.2992 25.4588 68.9917 22.5778 72.6808 22.3815C76.0399 22.1487 74.6445 19.4436 71.4757 20.4358C68.6436 21.3981 65.2992 25.4588 65.2992 25.4588Z" fill="#989899"/>
<path d="M63.4582 25.8592C63.4582 25.8592 65.463 21.8518 69.3851 20.0031C72.6733 18.487 73.5203 16.7011 72.5775 16.1269C70.6917 14.9787 66.7179 16.0161 63.4582 25.8592Z" fill="#989899"/>
<path d="M97.5031 74.5404C96.5966 82.8508 106.288 82.5658 106.288 82.5658C96.4873 96.1095 83.9447 103.091 66.44 103.091C54 103.091 44.6996 101.891 34.648 100.679C31.8132 100.337 29.8102 97.7492 30.1644 94.9152C30.5192 92.0763 33.1071 90.0673 35.9445 90.4281L36.1171 90.45C30.4113 84.6757 27.9443 77.7192 29.4181 69.6522C29.5495 68.934 29.6778 68.079 29.8181 67.1436C30.4018 63.2537 31.194 57.9731 33.29 55.3567C34.7762 41.7276 46.1328 15.2976 79.7218 26.8472C99.1853 34.6799 99.6323 55.0214 97.5031 74.5404Z" fill="#D7D7D7"/>
<path d="M48.3454 84.2925C49.9753 84.1498 51.3754 83.1384 52.1269 81.7951C52.2864 83.9802 50.7307 85.8886 48.5375 86.1186C46.3444 86.3486 44.4032 84.7544 44.0957 82.5687C45.1221 83.77 46.7156 84.4351 48.3454 84.2925Z" fill="#989899"/>
<path d="M31.5759 83.618C33.2057 83.4754 34.6059 82.464 35.3573 81.1207C35.5031 83.117 34.2171 84.8824 32.3214 85.3479C31.9624 85.0827 31.5759 84.5388 31.5759 83.618Z" fill="#989899"/>
<path d="M59.5412 74.9356C61.4695 74.4951 62.8721 73.1846 63.567 71.512C64.0791 74.0275 62.5487 76.4745 60.057 77.0024C57.6244 77.5605 55.12 76.0537 54.4298 73.5973C55.7523 74.7998 57.643 75.3165 59.5412 74.9356Z" fill="#989899"/>
<path d="M40.9477 74.8019C42.9003 75.0497 44.7134 74.2494 45.9092 72.9078C45.533 75.42 43.238 77.1759 40.7233 76.8659C38.2085 76.5559 36.3612 74.3334 36.5304 71.7903C37.4052 73.44 39.024 74.644 40.9477 74.8019Z" fill="#989899"/>
<path d="M29.4473 73.0595C30.788 72.8522 31.9859 72.1563 32.8565 71.1795C32.572 73.0788 31.1909 74.5458 29.4473 75.0147C29.2423 74.7494 29.2423 73.6677 29.4473 73.0595Z" fill="#989899"/>
<path d="M46.9992 30.0047C39.9992 33.5001 33.9992 47.5001 33.9992 53.7772C42.641 56.3062 47.8871 51.8942 52.8898 53.7772C57.8925 55.6603 57.465 57.8235 64.0734 60.3525C70.6818 62.8816 80.7635 60.8583 84.9151 50.2366C88.4736 41.1323 82.3756 30.9005 71.6986 30.0047C65.0902 29.4502 63.3861 32.8925 57.4506 31.9701C54.1804 31.4619 51.1776 28.8037 46.9992 30.0047Z" fill="white"/>
<path d="M57.7709 44.8428C56.9034 42.8741 52.2383 41.4155 50.3011 43.3124L52.049 47.4438L57.7709 44.8428Z" fill="#EC8822"/>
<path d="M51.9263 48.3729C51.4179 47.3751 51.3685 46.4451 51.1692 45.2917C52.5344 45.5081 55.057 45.5862 57.588 44.8656C57.6488 45.7825 53.7359 47.8844 51.9263 48.3729Z" fill="#EC6C22"/>
<path d="M63.6869 42.1021C66.0852 40.945 76.0025 42.4104 77.6815 45.6548C78.8501 47.9931 77.3681 49.8855 75.2738 50.1059C73.1795 50.3264 64.5817 49.1139 62.8668 47.3549C61.2603 45.679 61.0858 43.3447 63.6869 42.1021Z" fill="#231F20"/>
<path d="M64.1318 42.3736C66.3271 41.3019 75.5731 42.7008 77.1182 45.6709C78.2013 47.8062 76.8623 49.6016 74.8994 49.7851C72.9366 49.9685 64.9986 48.8825 63.3806 47.2665C61.8711 45.7335 61.7336 43.5307 64.1318 42.3736Z" fill="white"/>
<path d="M69.1294 49.7066C71.6378 50.1874 74.0033 48.8449 74.4128 46.7081C74.8223 44.5713 73.1209 42.4494 70.6125 41.9686C68.1041 41.4879 65.7386 42.8303 65.3291 44.9671C64.9195 47.1039 66.621 49.2259 69.1294 49.7066Z" fill="#231F20"/>
<path d="M53.5847 34.9002C53.7666 39.9093 42.9998 44 42.9998 44C42.9998 44 49.9992 42 47.4992 46.5C46.1752 48.8834 41.8837 51.8271 38.4998 53.5C38.4998 53.5 43.9998 51.8423 43.9998 54C43.9998 58.5 36.8245 56.4972 26.2499 66.0426C23.0724 58.9868 27.7232 47.0266 30.8317 42.716C38.0667 32.6836 53.4029 29.8911 53.5847 34.9002Z" fill="#989899"/>
<path d="M96.333 59.7077C94.7455 49.4036 80.775 34.2815 74.846 35.1956C70.8918 35.8052 83.025 52.1473 83.025 52.1473C83.025 52.1473 67.1694 48.5983 66.3359 52.1908C65.7273 54.8141 72.8388 58.2708 76.5278 59.2198C76.5278 59.2198 69.8906 56.7018 69.6074 60.2868C69.3242 63.8718 75.5765 62.9078 84.2105 69.6713C89.8146 74.0613 97.9206 70.0118 96.333 59.7077Z" fill="#989899"/>
</svg>
