<svg width="40" height="32" viewBox="0 0 40 32" fill="none" xmlns="http://www.w3.org/2000/svg">
<g opacity="0.5">
<path d="M21.7189 9C18.6613 9 15.619 11.4723 12.9387 18.4138C10.2584 25.3552 13.473 30 20.6041 30C27.7352 30 25.0231 30 25.0231 30C25.0231 30 37.4916 29.3092 32.6419 17.9047C28.4482 9.01096 24.7765 9 21.7189 9Z" fill="#FF5441" fill-opacity="0.3"/>
<path d="M22.8711 24.6592V24.0391C24.3994 23.9121 25.2637 23.1406 25.2637 21.8955C25.2637 20.8408 24.6484 20.1914 23.3936 19.9229L22.8711 19.8154V18.0771C23.3838 18.1504 23.75 18.5166 23.7646 18.9609H25.127C25.1074 17.833 24.2285 17.0371 22.8711 16.9102V16.2461H22.1875V16.9102C20.7324 17.0273 19.873 17.7988 19.873 19C19.873 20.0205 20.5029 20.6943 21.6748 20.9678L22.1875 21.0898V22.9062C21.5771 22.8428 21.1621 22.4814 21.1279 21.998H19.7314C19.7363 23.1895 20.6592 23.9609 22.1875 24.0488V24.6592H22.8711ZM23.877 22.0615C23.877 22.5547 23.5059 22.8721 22.8711 22.9111V21.2119C23.5547 21.3389 23.877 21.6123 23.877 22.0615ZM21.2891 18.8633C21.2891 18.4287 21.6602 18.1016 22.1875 18.0723V19.6738C21.5967 19.5566 21.2891 19.2734 21.2891 18.8633Z" fill="#FF5441"/>
<path d="M17 2H29L27 8H19L17 2Z" fill="#FF5441" fill-opacity="0.3"/>
<rect x="18" y="8" width="10" height="2" rx="1" fill="#FF5441"/>
<path opacity="0.401855" d="M36.6537 23C36.6537 23 38.177 28.2344 33 30" stroke="#FF5441" stroke-width="1.42987" stroke-linecap="round"/>
<path opacity="0.401855" d="M9.34633 24C9.34633 24 7.823 28.4866 13 30" stroke="#FF5441" stroke-width="1.42987" stroke-linecap="round"/>
</g>
</svg>
