<svg width="40" height="32" viewBox="0 0 40 32" fill="none" xmlns="http://www.w3.org/2000/svg">
<path d="M30.6057 22.7462C30.5992 25.4161 28.3583 27.6882 25.8122 27.7018C25.1634 27.7053 24.6145 27.4195 24.1007 27.0459C22.0934 25.5864 21.9152 25.5826 19.9141 27.0471C19.1923 27.5754 18.4295 27.7846 17.5271 27.6343C15.2564 27.2566 13.4516 25.2199 13.4097 22.9112C13.3944 22.0636 13.6891 21.3264 14.2521 20.6939C14.7179 20.1703 15.2538 19.7222 15.8083 19.3015C16.7516 18.5859 17.5138 17.715 18.1617 16.7312C18.6378 16.0082 19.0921 15.2672 19.7241 14.6603C21.0726 13.3652 22.9408 13.3649 24.2887 14.6597C24.7545 15.107 25.1393 15.6208 25.4713 16.1682C26.3337 17.5889 27.447 18.7665 28.7684 19.7717C29.6152 20.4158 30.3697 21.1615 30.5491 22.2928C30.5786 22.4787 30.596 22.6661 30.6057 22.7462Z" fill="#FF5441" fill-opacity="0.3"/>
<path d="M10 13.7358C10.0144 12.8278 10.1782 12.0629 10.6161 11.3762C11.5203 9.95756 13.1457 9.69033 14.46 10.738C16.0512 12.0067 16.5683 14.602 15.584 16.3791C14.6874 17.9978 12.8546 18.3027 11.489 17.055C10.4847 16.1376 10.066 14.9617 10 13.7358Z" fill="#FF5441" fill-opacity="0.3"/>
<path d="M15.5439 7.61885C15.556 6.97127 15.7687 6.08652 16.3173 5.30518C17.5818 3.50445 19.7856 3.56956 20.8872 5.4849C21.863 7.18192 21.8173 8.91342 20.7199 10.5483C19.6592 12.1277 17.7342 12.1943 16.5059 10.7424C15.9093 10.0377 15.5451 8.96645 15.5439 7.61885Z" fill="#FF5441" fill-opacity="0.3"/>
<path d="M28.4749 8.02367C28.4257 9.07606 28.1264 10.1243 27.2997 10.9613C26.2093 12.0653 24.6766 12.0479 23.5936 10.9313C22.063 9.3533 22.0954 6.3511 23.6599 4.81022C24.8378 3.65 26.4644 3.75282 27.5044 5.04828C28.182 5.89207 28.4563 6.86757 28.4749 8.02367Z" fill="#FF5441" fill-opacity="0.3"/>
<path d="M33.9937 13.4085C33.928 14.9284 33.3909 16.2312 32.1573 17.1758C30.4532 18.481 28.3437 17.7138 27.8835 15.6187C27.5096 13.917 28.0179 12.4394 29.2087 11.2241C30.0113 10.4054 31.0121 9.9549 32.1821 10.3747C33.3971 10.8108 33.8305 11.8316 33.991 13.014C34.0087 13.1433 33.9937 13.2771 33.9937 13.4085Z" fill="#FF5441" fill-opacity="0.3"/>
</svg>
