<?xml version="1.0" encoding="utf-8"?>
<!-- Generator: Adobe Illustrator 26.0.0, SVG Export Plug-In . SVG Version: 6.00 Build 0)  -->
<svg version="1.1" id="圖層_1" xmlns="http://www.w3.org/2000/svg" xmlns:xlink="http://www.w3.org/1999/xlink" x="0px" y="0px"
	 viewBox="0 0 375 580" style="enable-background:new 0 0 375 580;" xml:space="preserve">
<style type="text/css">
	.st0{fill:none;}
	.st1{fill:url(#SVGID_1_);}
	.st2{fill:none;stroke:url(#SVGID_00000000906254954549837130000006712361095531296401_);stroke-linecap:round;}
	.st3{fill:#FFE3DD;}
	.st4{fill:#21A39C;}
	.st5{fill:#218C87;}
</style>
<rect class="st0" width="375" height="580"/>
<g>
	
		<linearGradient id="SVGID_1_" gradientUnits="userSpaceOnUse" x1="190.0003" y1="538.5" x2="190.0003" y2="-492.33" gradientTransform="matrix(1 0 0 -1 0 582)">
		<stop  offset="0" style="stop-color:#0F8F88"/>
		<stop  offset="0.2292" style="stop-color:#E4F0EF"/>
	</linearGradient>
	<path class="st1" d="M-10,35.6c123.5-47.5,290.5-42,400,0c0,16.5,0,734.4,0,734.4H-10V35.6z"/>
	
		<linearGradient id="SVGID_00000129173474417744182040000016857889959098904987_" gradientUnits="userSpaceOnUse" x1="78.4479" y1="574" x2="78.4479" y2="347" gradientTransform="matrix(1 0 0 -1 0 582)">
		<stop  offset="0" style="stop-color:#2F7877"/>
		<stop  offset="1" style="stop-color:#56B6B5"/>
	</linearGradient>
	<path style="fill:none;stroke:url(#SVGID_00000129173474417744182040000016857889959098904987_);stroke-linecap:round;" d="
		M108.8,8C64.2,52.3,148.5,73.9,156,109.5C166.5,159,82.9,230.3,0,235"/>
	<path class="st3" d="M380.5,31.5c-20.7-8-109-29-153.5-29c0,0,2.9,37.3,44.5,43c91.5,12.5,27.2,92,109,92
		C380.5,96.7,380.5,31.5,380.5,31.5z"/>
	<path class="st4" d="M0,30.5c20.7-8,52-14,82-19.5c-42,40,41.3,59.6,26,87.5c-15.8,28.9-78.3,75-108,75C0,132.7,0,30.5,0,30.5z"/>
	<circle class="st5" cx="48.5" cy="37.5" r="1.5"/>
	<circle class="st5" cx="15.5" cy="35.5" r="1.5"/>
	<circle class="st5" cx="10.5" cy="74.5" r="1.5"/>
	<circle class="st5" cx="66.5" cy="19.5" r="1.5"/>
</g>
</svg>
