<svg width="160" height="106" viewBox="0 0 160 106" fill="none" xmlns="http://www.w3.org/2000/svg">
<ellipse cx="77.0519" cy="97.5379" rx="34.2941" ry="8.46218" fill="black" fill-opacity="0.08"/>
<path fill-rule="evenodd" clip-rule="evenodd" d="M98.2099 81.6633C97.8772 81.7656 97.4996 81.7177 97.189 81.5005L94.4876 79.6079L93.2072 82.768C92.9692 83.3556 92.2922 83.6332 91.6955 83.3858C91.0997 83.1383 90.8097 82.4612 91.048 81.8731L92.8687 77.3808C92.9999 77.0573 93.2604 76.8154 93.6111 76.7165C93.9488 76.6209 94.3159 76.6837 94.6068 76.8876L98.5062 79.6194C99.0355 79.9904 99.1695 80.7112 98.8052 81.2309C98.6551 81.4454 98.4437 81.5915 98.2099 81.6633" fill="#EC8822"/>
<path fill-rule="evenodd" clip-rule="evenodd" d="M57.6679 96.8143C57.2593 96.8439 56.8412 96.693 56.5474 96.368L53.991 93.549L51.6426 96.77C51.2058 97.3687 50.3556 97.5066 49.7436 97.0761C49.131 96.6448 48.9897 95.8099 49.4266 95.2104L52.7644 90.631C53.0049 90.302 53.3705 90.0969 53.7992 90.0764C54.2116 90.0551 54.6136 90.22 54.8882 90.5243L58.5789 94.5942C59.08 95.1471 59.0313 95.9918 58.4695 96.4807C58.2386 96.6836 57.9553 96.7939 57.6679 96.8143" fill="#EC8822"/>
<path fill-rule="evenodd" clip-rule="evenodd" d="M98.7138 37.8335C98.7138 37.8335 98.6986 37.8639 98.6744 37.9129C95.0172 20.2403 78.7456 7.40117 59.9578 8.38863C39.2498 9.47702 23.329 26.9517 24.3985 47.4186C25.5209 68.8964 35.8072 83.9658 49.6326 89.6777C51.809 90.577 54.1922 90.5823 56.3817 89.8463C57.5781 89.4982 59.3255 88.3994 62.6153 83.9223C66.1168 79.1582 78.9906 78.6477 81.962 79.0391C86.399 79.6245 93.0263 79.3349 98.1242 73.8291C102.494 69.1095 101.426 49.4111 98.7138 37.8335" fill="#E7E4E2"/>
<path fill-rule="evenodd" clip-rule="evenodd" d="M76.6937 16.7829C72.9473 16.7397 69.4551 17.6696 66.4637 19.312C62.6067 21.4308 57.9575 21.6752 53.9007 19.9723C50.7546 18.6525 47.1846 18.0938 43.4632 18.5295C33.7348 19.6704 26.2121 27.586 26.0228 36.8821C25.7995 47.8874 35.4146 56.5362 46.7994 55.9379C50.0737 55.7658 53.1226 54.8486 55.772 53.3688C59.5272 51.2714 64.1303 51.0294 68.0836 52.7217C70.8727 53.9156 74.0005 54.5082 77.2748 54.3361C88.6596 53.7377 97.3206 44.1284 95.9514 33.2068C94.7942 23.9814 86.4878 16.8977 76.6937 16.7829" fill="white"/>
<path fill-rule="evenodd" clip-rule="evenodd" d="M86.2769 43.9234C80.6127 44.2211 75.863 41.4508 75.6689 37.7369C75.4748 34.0218 79.9097 30.7688 85.5739 30.4711C91.2381 30.1734 95.9872 32.9436 96.1814 36.6588C96.3755 40.3727 91.9411 43.6257 86.2769 43.9234Z" fill="url(#paint0_radial_1:3669)"/>
<path fill-rule="evenodd" clip-rule="evenodd" d="M36.8394 47.9419C31.1752 48.2397 26.4255 45.4694 26.2314 41.7554C26.0373 38.0403 30.4722 34.7873 36.1364 34.4896C41.8006 34.1919 46.5497 36.9622 46.7439 40.6773C46.938 44.3913 42.5036 47.6442 36.8394 47.9419Z" fill="url(#paint1_radial_1:3669)"/>
<path fill-rule="evenodd" clip-rule="evenodd" d="M49.7783 30.9327C49.9417 34.0608 47.541 36.7296 44.4153 36.8939C41.2903 37.0582 38.6245 34.6556 38.461 31.5275C38.2975 28.3988 40.6983 25.7299 43.8233 25.5656C46.949 25.4014 49.6148 27.804 49.7783 30.9327" fill="#231F20"/>
<path fill-rule="evenodd" clip-rule="evenodd" d="M44.7544 29.7763C44.8157 30.95 43.915 31.9506 42.7434 32.0122C41.5717 32.0738 40.5717 31.173 40.5104 29.9993C40.4491 28.8263 41.3497 27.8257 42.5214 27.7641C43.6931 27.7025 44.6931 28.6033 44.7544 29.7763" fill="white"/>
<path fill-rule="evenodd" clip-rule="evenodd" d="M83.0634 29.8934C83.2269 33.0214 80.8261 35.6903 77.7005 35.8546C74.5755 36.0189 71.9097 33.6163 71.7462 30.4882C71.5827 27.3595 73.9835 24.6906 77.1085 24.5263C80.2342 24.3621 82.8999 26.7647 83.0634 29.8934" fill="#231F20"/>
<path fill-rule="evenodd" clip-rule="evenodd" d="M78.0356 28.7372C78.0969 29.9109 77.1968 30.9115 76.0243 30.9731C74.8524 31.0347 73.853 30.134 73.7916 28.9603C73.7303 27.7873 74.6304 26.7866 75.8023 26.725C76.9749 26.6634 77.9743 27.5642 78.0356 28.7372" fill="white"/>
<path fill-rule="evenodd" clip-rule="evenodd" d="M60.0092 35.9593C60.0092 35.9593 59.0459 39.9208 59.6595 40.3191C60.0428 40.5678 62.8979 39.1456 63.4051 33.7662L60.0092 35.9593Z" fill="#EC8822"/>
<path fill-rule="evenodd" clip-rule="evenodd" d="M58.3407 31.8639C58.3407 31.8639 59.876 36.3955 59.9043 38.5095C59.9114 39.0358 60.7916 38.9738 61.1848 38.5961C62.559 37.2751 63.6472 35.9935 63.3582 33.083L59.5502 31.1289L58.3407 31.8639Z" fill="#D32E2E"/>
<path fill-rule="evenodd" clip-rule="evenodd" d="M58.7138 29.0436C58.7138 29.0436 57.4475 28.9982 55.5133 32.0708C55.5133 32.0708 58.7876 30.6813 63.3669 33.0583C63.3669 33.0583 61.8499 28.964 58.7138 29.0436" fill="#EC8822"/>
<path fill-rule="evenodd" clip-rule="evenodd" d="M42.2022 65.6667C40.5999 65.2871 39.3761 64.1622 38.8008 62.748C38.3827 64.8416 39.685 66.9012 41.7813 67.3983C43.8777 67.8947 45.9853 66.6432 46.5747 64.5904C45.4123 65.5923 43.8045 66.0462 42.2022 65.6667" fill="#989899"/>
<path fill-rule="evenodd" clip-rule="evenodd" d="M53.6933 74.292C52.234 73.9041 51.1164 72.7739 50.5864 71.3578C50.2162 73.4488 51.4101 75.5144 53.3189 76.0213C55.2277 76.5275 57.138 75.2854 57.6642 73.2357C56.6116 74.2325 55.1525 74.6791 53.6933 74.292" fill="#989899"/>
<path fill-rule="evenodd" clip-rule="evenodd" d="M66.3074 74.9859C64.851 75.1004 63.5036 74.3221 62.6199 73.0381C62.8588 75.3411 64.5371 77.0633 66.442 76.9133C68.3471 76.7642 69.7674 74.7985 69.6836 72.4842C68.9881 73.8908 67.7639 74.8714 66.3074 74.9859" fill="#989899"/>
<path fill-rule="evenodd" clip-rule="evenodd" d="M78.0143 70.2509C79.3883 69.5814 80.2611 68.3255 80.4843 66.9466C81.3054 68.7254 80.5584 70.8291 78.7609 71.7054C76.9641 72.5823 74.7881 71.9035 73.8201 70.197C75.0864 70.849 76.6403 70.9205 78.0143 70.2509" fill="#989899"/>
<path fill-rule="evenodd" clip-rule="evenodd" d="M55.9855 66.4778C54.3736 66.3495 53.0176 65.4476 52.245 64.1712C52.1568 66.2491 53.7317 68.0396 55.8395 68.2072C57.948 68.3748 59.8018 66.8574 60.062 64.7931C59.0863 65.9302 57.5974 66.6061 55.9855 66.4778" fill="#989899"/>
<path fill-rule="evenodd" clip-rule="evenodd" d="M85.7288 60.6158C87.2431 59.9389 88.209 58.6777 88.4628 57.2977C89.3564 59.0719 88.5234 61.181 86.5424 62.0672C84.5613 62.9533 82.1725 62.2853 81.117 60.5841C82.5064 61.2293 84.2147 61.2933 85.7288 60.6158" fill="#989899"/>
<path fill-rule="evenodd" clip-rule="evenodd" d="M72.2793 65.479C73.8413 64.9705 74.9716 63.7297 75.4363 62.2423C76.008 64.3486 74.8704 66.5494 72.827 67.2152C70.7835 67.8803 68.598 66.7614 67.8588 64.7095C69.0875 65.6454 70.7173 65.9876 72.2793 65.479" fill="#989899"/>
<path fill-rule="evenodd" clip-rule="evenodd" d="M60.8418 11.8919C60.8418 11.8919 63.5793 8.51882 67.7274 7.28173C71.2414 6.23349 69.7117 3.91512 66.5363 5.81905C63.9369 7.37839 60.8418 11.8919 60.8418 11.8919" fill="#989899"/>
<path fill-rule="evenodd" clip-rule="evenodd" d="M57.9561 11.3337C57.9561 11.3337 57.133 7.54476 54.4225 5.51163C52.4838 4.05915 53.517 2.46056 54.4628 2.29924C56.2181 1.99925 57.8075 4.50544 57.9561 11.3337" fill="#989899"/>
<path fill-rule="evenodd" clip-rule="evenodd" d="M56.5607 11.407C56.5607 11.407 50.881 5.3732 47.5721 7.17829C45.2918 8.42252 52.6715 9.15904 56.5607 11.407" fill="#989899"/>
<path fill-rule="evenodd" clip-rule="evenodd" d="M5.05632 37.4199C5.13307 30.5472 6.57389 25.5584 11.7999 26.9247C16.9558 29.7872 15.9985 42.3773 15.9985 42.3773C15.9985 42.3773 18.3492 35.4156 21.8982 37.0866C25.45 38.7579 27.4631 44.9812 22.7027 52.3274C22.7027 52.3274 25.2294 48.3136 28.7063 50.1726C33.6217 52.8013 28.1264 68.4981 26.0474 68.0607C17.3114 66.2226 5.49479 46.9541 5.05632 37.4199" fill="#989899"/>
<path fill-rule="evenodd" clip-rule="evenodd" d="M101.707 32.025C101.707 32.025 87.8258 62.1566 88.7179 65.7627C89.61 69.3687 92.5003 68.7256 95.3806 68.2913C98.2609 67.8571 124.393 55.154 124.393 55.154C124.393 55.154 127.242 48.0721 118.384 38.5307C107.807 29.0443 101.707 32.025 101.707 32.025Z" fill="#DF7093"/>
<mask id="mask0_1:3669" style="mask-type:alpha" maskUnits="userSpaceOnUse" x="88" y="31" width="37" height="38">
<path fill-rule="evenodd" clip-rule="evenodd" d="M101.707 32.025C101.707 32.025 87.8258 62.1566 88.7179 65.7627C89.61 69.3687 92.5003 68.7256 95.3806 68.2913C98.2609 67.8571 124.393 55.154 124.393 55.154C124.393 55.154 127.242 48.0721 118.384 38.5307C107.807 29.0443 101.707 32.025 101.707 32.025Z" fill="white"/>
</mask>
<g mask="url(#mask0_1:3669)">
<path fill-rule="evenodd" clip-rule="evenodd" d="M99.1326 38.1084C99.1326 38.1084 101.721 54.5092 114.577 60.1557C127.433 65.8022 110.671 63.5351 110.671 63.5351C110.671 63.5351 97.1878 55.5472 96.1321 44.2034C95.0764 32.8596 99.1326 38.1084 99.1326 38.1084Z" fill="white"/>
<path fill-rule="evenodd" clip-rule="evenodd" d="M92.8004 49.332C92.8004 49.332 95.0781 60.907 105.395 65.3605C115.711 69.8141 100.005 66.8909 100.005 66.8909C100.005 66.8909 90.7075 60.5959 90.7075 54.7385C90.7075 48.8812 92.8004 49.332 92.8004 49.332Z" fill="white"/>
<path fill-rule="evenodd" clip-rule="evenodd" d="M88.72 60.7164C88.72 60.7164 90.7059 66.891 95.9145 69.3724C101.123 71.8539 89.4649 70.4159 89.4649 70.4159L84.9414 64.1844L88.72 60.7164Z" fill="white"/>
</g>
<path fill-rule="evenodd" clip-rule="evenodd" d="M102.16 62.5404C99.5771 64.0795 99.5916 68.3436 106.279 67.4885C112.965 66.6334 112.098 60.246 112.098 60.246C112.098 60.246 104.744 61.0013 102.16 62.5404Z" fill="#989899"/>
<ellipse rx="17.0488" ry="7.13598" transform="matrix(0.693623 0.720339 -0.71834 0.695693 113.637 43.3852)" fill="#EEA5BC"/>
<ellipse rx="15.0664" ry="5.94665" transform="matrix(0.693623 0.720339 -0.718339 0.695693 113.901 43.4384)" fill="#AD355B"/>
<path fill-rule="evenodd" clip-rule="evenodd" d="M125.84 17.7952L124.376 18.567C123.643 18.9537 122.784 18.3312 122.924 17.5139L123.204 15.8748L122.014 14.7114C121.422 14.1327 121.75 13.1262 122.569 13.0068L124.211 12.7675L124.943 11.2808C125.309 10.5362 126.371 10.5362 126.737 11.2808L127.469 12.7675L129.111 13.0068C129.93 13.1262 130.258 14.1327 129.666 14.7114L128.475 15.8748L128.756 17.5139C128.896 18.3312 128.037 18.9537 127.304 18.567L125.84 17.7952Z" fill="#EF9E4B"/>
<path fill-rule="evenodd" clip-rule="evenodd" d="M152.263 43.4699L151.412 43.2998C150.6 43.1376 150.325 42.1123 150.947 41.5649L151.6 40.9902L151.498 40.1242C151.401 39.3001 152.289 38.7226 153 39.1468L153.747 39.5921L154.535 39.228C155.287 38.8807 156.11 39.5491 155.927 40.3588L155.736 41.2076L156.326 41.8478C156.888 42.4575 156.509 43.448 155.685 43.5241L154.819 43.6042L154.394 44.3643C153.99 45.0882 152.933 45.0321 152.606 44.2694L152.263 43.4699Z" fill="#EF9E4B"/>
<ellipse cx="125.049" cy="25.3389" rx="1.58357" ry="1.58814" fill="#D84473"/>
<ellipse cx="99.7125" cy="18.9863" rx="1.58357" ry="1.58814" fill="#EF9E4B"/>
<ellipse cx="143.258" cy="53.9253" rx="2.37535" ry="2.3822" fill="#D84473"/>
<path fill-rule="evenodd" clip-rule="evenodd" d="M97.4385 26.697C96.9758 25.635 97.5118 24.4036 98.6043 24.0186V24.0186C98.9289 23.9042 99.2871 24.0564 99.4301 24.3693L100.477 26.6593C100.723 27.1969 100.451 27.8291 99.892 28.0209L99.1321 28.2816C98.6391 28.4508 98.0989 28.2129 97.8908 27.7352L97.4385 26.697Z" fill="#A2D167"/>
<path fill-rule="evenodd" clip-rule="evenodd" d="M136.338 38.287C137.884 38.3248 139.073 39.672 138.921 41.2136V41.2136C138.876 41.6694 138.493 42.0156 138.035 42.0126L134.323 41.9885C133.731 41.9847 133.272 41.4692 133.335 40.8798L133.521 39.1356C133.576 38.6183 134.018 38.2302 134.537 38.2429L136.338 38.287Z" fill="#109089"/>
<path fill-rule="evenodd" clip-rule="evenodd" d="M125.181 62.8812C126.032 61.5869 127.8 61.2899 129.024 62.2358V62.2358C129.385 62.5157 129.475 63.026 129.23 63.4135L127.242 66.5583C126.925 67.0593 126.246 67.1768 125.781 66.8109L124.406 65.7284C123.997 65.4071 123.903 64.8253 124.189 64.3903L125.181 62.8812Z" fill="#A2D167"/>
<path fill-rule="evenodd" clip-rule="evenodd" d="M146.028 10.4148C147.935 9.80106 149.897 11.1953 149.947 13.1994L149.951 13.3416C149.962 13.7769 149.69 14.169 149.279 14.3112L145.569 15.5938C144.927 15.8157 144.255 15.3457 144.242 14.6659L144.187 11.7543C144.179 11.3134 144.46 10.9194 144.879 10.7844L146.028 10.4148Z" fill="#A2D167"/>
<path d="M141.259 27.8105L143.559 28.4049C142.218 33.6235 139.208 35.4865 133.199 34.8807L132.676 34.8227C132.5 34.8014 132.32 34.7781 132.139 34.7528L131.586 34.671C131.493 34.6564 131.399 34.6413 131.304 34.6257L130.729 34.5264L130.138 34.4156L129.532 34.2934C129.429 34.272 129.326 34.2502 129.222 34.228L128.592 34.0889L127.945 33.9386C126.834 33.6745 126.024 33.5725 125.498 33.6078L125.335 33.622L125.146 33.6476C125.141 33.6512 125.137 33.6615 125.134 33.6756L125.129 33.7296C125.128 33.7406 125.128 33.7526 125.128 33.7658L125.138 33.9151L125.156 34.0516L125.183 34.2205L125.243 34.5399L125.364 35.102L125.564 35.967L125.651 36.391C125.66 36.4362 125.668 36.4813 125.676 36.527C126.044 38.577 125.698 40.115 124.122 41.1613C121.239 43.0742 118.399 43.1209 115.865 41.2519L115.676 41.1082L117.134 39.2279C118.88 40.5903 120.678 40.5903 122.811 39.1747C123.389 38.7912 123.541 38.2284 123.37 37.1358L123.317 36.835L123.269 36.5973L123.174 36.1706L122.983 35.3485L122.901 34.9684L122.835 34.6258C122.825 34.5716 122.816 34.5188 122.808 34.4673L122.765 34.1733C122.663 33.3341 122.787 32.8636 123.207 32.2685C124.027 31.1055 125.601 30.9651 128.235 31.5608L128.814 31.6962L129.439 31.8387C129.542 31.8615 129.643 31.8839 129.744 31.9058L130.338 32.0313L130.913 32.1454C131.007 32.1635 131.1 32.181 131.192 32.1981L131.737 32.2948C131.826 32.3099 131.914 32.3246 132.002 32.3387L132.518 32.4177L133.015 32.4848L133.494 32.5397C133.729 32.5642 133.958 32.5841 134.179 32.5994L134.614 32.6237L135.032 32.6355C138.65 32.6848 140.324 31.2607 141.21 27.9972L141.259 27.8105Z" fill="#D3D3D3"/>
<mask id="mask1_1:3669" style="mask-type:alpha" maskUnits="userSpaceOnUse" x="115" y="27" width="29" height="16">
<path d="M141.259 27.8105L143.559 28.4049C142.218 33.6235 139.208 35.4865 133.199 34.8807L132.676 34.8227C132.5 34.8014 132.32 34.7781 132.139 34.7528L131.586 34.671C131.493 34.6564 131.399 34.6413 131.304 34.6257L130.729 34.5264L130.138 34.4156L129.532 34.2934C129.429 34.272 129.326 34.2502 129.222 34.228L128.592 34.0889L127.945 33.9386C126.834 33.6745 126.024 33.5725 125.498 33.6078L125.335 33.622L125.146 33.6476C125.141 33.6512 125.137 33.6615 125.134 33.6756L125.129 33.7296C125.128 33.7406 125.128 33.7526 125.128 33.7658L125.138 33.9151L125.156 34.0516L125.183 34.2205L125.243 34.5399L125.364 35.102L125.564 35.967L125.651 36.391C125.66 36.4362 125.668 36.4813 125.676 36.527C126.044 38.577 125.698 40.115 124.122 41.1613C121.239 43.0742 118.399 43.1209 115.865 41.2519L115.676 41.1082L117.134 39.2279C118.88 40.5903 120.678 40.5903 122.811 39.1747C123.389 38.7912 123.541 38.2284 123.37 37.1358L123.317 36.835L123.269 36.5973L123.174 36.1706L122.983 35.3485L122.901 34.9684L122.835 34.6258C122.825 34.5716 122.816 34.5188 122.808 34.4673L122.765 34.1733C122.663 33.3341 122.787 32.8636 123.207 32.2685C124.027 31.1055 125.601 30.9651 128.235 31.5608L128.814 31.6962L129.439 31.8387C129.542 31.8615 129.643 31.8839 129.744 31.9058L130.338 32.0313L130.913 32.1454C131.007 32.1635 131.1 32.181 131.192 32.1981L131.737 32.2948C131.826 32.3099 131.914 32.3246 132.002 32.3387L132.518 32.4177L133.015 32.4848L133.494 32.5397C133.729 32.5642 133.958 32.5841 134.179 32.5994L134.614 32.6237L135.032 32.6355C138.65 32.6848 140.324 31.2607 141.21 27.9972L141.259 27.8105Z" fill="white"/>
</mask>
<g mask="url(#mask1_1:3669)">
<path fill-rule="evenodd" clip-rule="evenodd" d="M123.336 31.5264L128.173 35.4729L126.632 43.2237L116.404 44.1486L115.414 36.4272L123.336 31.5264Z" fill="#CABDBD"/>
</g>
<path d="M114.362 16.207V18.5892C109.542 18.5892 105.259 21.4541 105.621 24.182C105.671 24.5551 105.725 24.6322 106.012 24.681L106.15 24.7007L106.274 24.7128L106.404 24.7194C106.427 24.72 106.45 24.7204 106.473 24.7205L106.62 24.7181L106.785 24.7094L107.074 24.6833L107.302 24.6568L108.029 24.5559L109.387 24.3493L109.91 24.2772C109.993 24.2663 110.074 24.2561 110.154 24.2465L110.615 24.1961C110.69 24.1889 110.763 24.1822 110.835 24.1762L111.258 24.1468C111.603 24.1281 111.934 24.1237 112.279 24.1329C113.726 24.1714 115.009 24.4898 116.157 25.1753C118.48 26.5617 118.612 28.7122 116.793 31.6028L116.57 31.9463L116.329 32.2966C116.163 32.5324 115.984 32.7727 115.794 33.0176L115.5 33.3883L115.188 33.7658C115.135 33.8293 115.081 33.893 115.026 33.9571L114.688 34.3447L114.332 34.7391L113.96 35.1403L113.57 35.5482L113.163 35.9629L112.521 36.5975C112.448 36.6688 112.373 36.7405 112.298 36.8124L111.841 37.2472L111.366 37.6887L110.875 38.1369L110.368 38.5918L109.843 39.0533L109.303 39.5216L109.026 39.7582L107.488 37.9433L108.045 37.4644L108.841 36.7664L109.345 36.3145L109.829 35.8734L110.291 35.443L110.733 35.0234L111.155 34.6146L111.556 34.2164C111.621 34.151 111.685 34.086 111.749 34.0214L112.12 33.6393L112.471 33.2679L112.802 32.9071L113.114 32.557L113.406 32.2176L113.678 31.8887L113.931 31.5705C114.013 31.4662 114.091 31.3636 114.166 31.2629L114.381 30.9658C114.416 30.9172 114.449 30.869 114.482 30.8212L114.669 30.54L114.838 30.2693L114.988 30.0091C115.106 29.7967 115.204 29.5952 115.284 29.4046L115.371 29.1812C115.71 28.2355 115.549 27.5844 114.942 27.2223C114.174 26.7638 113.283 26.5427 112.216 26.5143C111.932 26.5067 111.654 26.5109 111.357 26.5279L110.991 26.5544C110.928 26.5599 110.864 26.5658 110.798 26.5724L110.389 26.6179L109.941 26.6767L109.444 26.7489L108.136 26.9481L107.801 26.9954L107.367 27.0502L107.116 27.0764L106.889 27.0947L106.683 27.1052L106.49 27.1083L106.307 27.1043L106.128 27.0934L105.947 27.0759L105.76 27.052C104.371 26.8576 103.464 25.9852 103.267 24.4965C102.675 20.04 108.148 16.3119 114.11 16.2092L114.362 16.207Z" fill="#3AAEA8"/>
<mask id="mask2_1:3669" style="mask-type:alpha" maskUnits="userSpaceOnUse" x="103" y="16" width="16" height="24">
<path d="M114.362 16.207V18.5892C109.542 18.5892 105.259 21.4541 105.621 24.182C105.671 24.5551 105.725 24.6322 106.012 24.681L106.15 24.7007L106.274 24.7128L106.404 24.7194C106.427 24.72 106.45 24.7204 106.473 24.7205L106.62 24.7181L106.785 24.7094L107.074 24.6833L107.302 24.6568L108.029 24.5559L109.387 24.3493L109.91 24.2772C109.993 24.2663 110.074 24.2561 110.154 24.2465L110.615 24.1961C110.69 24.1889 110.763 24.1822 110.835 24.1762L111.258 24.1468C111.603 24.1281 111.934 24.1237 112.279 24.1329C113.726 24.1714 115.009 24.4898 116.157 25.1753C118.48 26.5617 118.612 28.7122 116.793 31.6028L116.57 31.9463L116.329 32.2966C116.163 32.5324 115.984 32.7727 115.794 33.0176L115.5 33.3883L115.188 33.7658C115.135 33.8293 115.081 33.893 115.026 33.9571L114.688 34.3447L114.332 34.7391L113.96 35.1403L113.57 35.5482L113.163 35.9629L112.521 36.5975C112.448 36.6688 112.373 36.7405 112.298 36.8124L111.841 37.2472L111.366 37.6887L110.875 38.1369L110.368 38.5918L109.843 39.0533L109.303 39.5216L109.026 39.7582L107.488 37.9433L108.045 37.4644L108.841 36.7664L109.345 36.3145L109.829 35.8734L110.291 35.443L110.733 35.0234L111.155 34.6146L111.556 34.2164C111.621 34.151 111.685 34.086 111.749 34.0214L112.12 33.6393L112.471 33.2679L112.802 32.9071L113.114 32.557L113.406 32.2176L113.678 31.8887L113.931 31.5705C114.013 31.4662 114.091 31.3636 114.166 31.2629L114.381 30.9658C114.416 30.9172 114.449 30.869 114.482 30.8212L114.669 30.54L114.838 30.2693L114.988 30.0091C115.106 29.7967 115.204 29.5952 115.284 29.4046L115.371 29.1812C115.71 28.2355 115.549 27.5844 114.942 27.2223C114.174 26.7638 113.283 26.5427 112.216 26.5143C111.932 26.5067 111.654 26.5109 111.357 26.5279L110.991 26.5544C110.928 26.5599 110.864 26.5658 110.798 26.5724L110.389 26.6179L109.941 26.6767L109.444 26.7489L108.136 26.9481L107.801 26.9954L107.367 27.0502L107.116 27.0764L106.889 27.0947L106.683 27.1052L106.49 27.1083L106.307 27.1043L106.128 27.0934L105.947 27.0759L105.76 27.052C104.371 26.8576 103.464 25.9852 103.267 24.4965C102.675 20.04 108.148 16.3119 114.11 16.2092L114.362 16.207Z" fill="white"/>
</mask>
<g mask="url(#mask2_1:3669)">
<path d="M109.325 23.5496L100.937 25.0253L105.048 29.3993C105.048 29.3993 106.312 30.1083 114.889 28.6903C123.466 27.2723 114.889 22.1361 114.889 22.1361L109.325 23.5496Z" fill="#69D2CD"/>
</g>
<path d="M115.539 50.3447C124.148 47.5516 132.016 49.1597 138.991 55.1297L139.308 55.4041L137.743 57.1963C131.416 51.6398 124.434 50.0847 116.647 52.4917L116.27 52.6113L115.539 50.3447Z" fill="#3AAEA8"/>
<mask id="mask3_1:3669" style="mask-type:alpha" maskUnits="userSpaceOnUse" x="115" y="49" width="25" height="9">
<path d="M115.539 50.3447C124.148 47.5516 132.016 49.1597 138.991 55.1297L139.308 55.4041L137.743 57.1963C131.416 51.6398 124.434 50.0847 116.647 52.4917L116.27 52.6113L115.539 50.3447Z" fill="white"/>
</mask>
<g mask="url(#mask3_1:3669)">
<path d="M122.514 52.4442L133.651 47.7012L142.379 55.2117L128.659 54.1967L122.514 52.4442Z" fill="#69D2CD"/>
</g>
<defs>
<radialGradient id="paint0_radial_1:3669" cx="0" cy="0" r="1" gradientUnits="userSpaceOnUse" gradientTransform="translate(85.9251 37.1973) rotate(-3.00864) scale(10.2704 4.98463)">
<stop stop-color="#FFB3BF"/>
<stop offset="1" stop-color="white"/>
</radialGradient>
<radialGradient id="paint1_radial_1:3669" cx="0" cy="0" r="1" gradientUnits="userSpaceOnUse" gradientTransform="translate(36.4876 41.2159) rotate(-3.00863) scale(10.2704 4.98463)">
<stop stop-color="#FFB3BF"/>
<stop offset="1" stop-color="white"/>
</radialGradient>
</defs>
</svg>
