<svg width="40" height="32" viewBox="0 0 40 32" fill="none" xmlns="http://www.w3.org/2000/svg">
<path d="M12.364 9.26547C12.8617 7.39564 15.4607 7.25383 16.1612 9.05828L17.7319 13.1044C18.0452 13.9115 18.8422 14.4258 19.7066 14.3786L24.0384 14.1423C25.9747 14.0366 26.9147 16.4719 25.4089 17.6929L22.0563 20.4114C21.3819 20.9582 21.1378 21.878 21.4522 22.6878L23.0152 26.7141C23.7162 28.52 21.698 30.1668 20.0689 29.1183L16.4085 26.7623C15.6818 26.2946 14.7372 26.3462 14.0664 26.8901L10.6872 29.6302C9.18327 30.8497 6.99597 29.4323 7.49407 27.561L8.60462 23.3888C8.82798 22.5497 8.48413 21.662 7.75361 21.1918L4.12198 18.8544C2.49087 17.8046 3.15725 15.2816 5.09356 15.1759L9.42536 14.9396C10.2897 14.8924 11.0253 14.2945 11.248 13.4581L12.364 9.26547Z" fill="#FFD7D3"/>
<path d="M30.6261 2.17184C31.2066 1.39664 32.44 1.8133 32.4277 2.78046L32.3977 5.12855C32.3921 5.56115 32.666 5.94769 33.0761 6.08625L35.3023 6.83832C36.2207 7.14859 36.2021 8.45228 35.2751 8.73943L33.0362 9.43297C32.6212 9.56154 32.3361 9.94267 32.3306 10.3764L32.3007 12.716C32.2883 13.6838 31.0434 14.0728 30.4834 13.2839L29.1217 11.3655C28.8717 11.0134 28.4233 10.8619 28.01 10.99L25.7581 11.6876C24.8321 11.9744 24.0813 10.9112 24.6622 10.1355L26.0666 8.26023C26.3269 7.91259 26.3333 7.43731 26.0823 7.08374L24.7285 5.17649C24.1679 4.38681 24.9489 3.34065 25.8673 3.65092L28.0935 4.40299C28.5037 4.54155 28.957 4.40066 29.2166 4.05392L30.6261 2.17184Z" fill="#FFC1BA"/>
</svg>
