<svg width="125" height="125" viewBox="0 0 125 125" fill="none" xmlns="http://www.w3.org/2000/svg">
<path d="M50.7737 65.1884C49.6159 61.4821 43.0728 36.4559 22.5728 29.4559C4.07227 23.956 15.3554 40.7845 20.6279 43.3249C20.6279 43.3249 16.7107 41.4634 15.0324 43.826C13.3463 46.1256 15.7561 53.2718 24.9628 55.2421C24.9628 55.2421 16.4138 52.5139 16.8837 57.5912C18.1656 59.7375 21.3316 63.0881 35.8817 68.1424C44.0725 71.5203 51.9942 68.8876 50.7737 65.1884Z" fill="#989899"/>
<path d="M22.2557 98.6585C22.27 104.484 41.3094 109.159 64.7815 109.102C88.2535 109.044 107.27 104.275 107.255 98.4495C107.241 92.6242 88.2017 87.9486 64.7296 88.0063C41.2576 88.064 22.2414 92.8331 22.2557 98.6585Z" fill="#262626" fill-opacity="0.22"/>
<path d="M28.6755 95.5915L26.573 91.6183" stroke="#D67B29" stroke-width="3" stroke-miterlimit="10" stroke-linecap="round"/>
<path d="M24.5161 93.9243L29.4715 96.3008L32.6774 96.8738" stroke="#EC8822" stroke-width="3" stroke-miterlimit="10" stroke-linecap="round"/>
<path d="M35.3923 91.0273L33.2898 87.0541" stroke="#D67B29" stroke-width="3" stroke-miterlimit="10" stroke-linecap="round"/>
<path d="M31.2329 89.3601L36.1883 91.7366L39.3942 92.3096" stroke="#EC8822" stroke-width="3" stroke-miterlimit="10" stroke-linecap="round"/>
<path d="M71.991 26.2059C71.991 26.2059 73.6743 23.009 76.3677 21.1413C77.8611 20.0612 78.9449 19.2141 78.0742 18.7682C76.3612 17.9646 74.1047 19.8347 71.991 26.2059Z" fill="#989899"/>
<path d="M75.2283 25.8706C75.2283 25.8706 79.6368 24.5123 83.0955 25.6195C86.264 26.5781 85.9356 23.6055 82.6743 23.4112C79.7327 23.3068 75.2283 25.8706 75.2283 25.8706Z" fill="#989899"/>
<path d="M73.3942 25.596C73.3942 25.596 76.649 22.6136 80.9045 22.2839C84.4603 22.0387 85.8682 20.6933 85.2043 19.8367C83.8764 18.1234 79.8594 17.6897 73.3942 25.596Z" fill="#989899"/>
<path d="M97.8592 74.855C96.9676 83.0283 106.499 82.748 106.499 82.748C97.5907 100.762 82.8086 105.873 59.1742 103.595C49.2775 102.642 36.2939 101.052 33.8738 100.754C31.0766 100.409 29.0989 97.8391 29.4808 95.046C29.8586 92.2828 32.4037 90.3538 35.1654 90.7373L37.3115 91.0354C31.8589 84.6875 29.8221 77.0089 31.3083 68.8732C31.9752 65.2296 34.7511 58.0653 37.3083 54.8733C43.5 41 49.4374 15.5 80.3712 27.9485C99.5135 35.652 99.9532 55.6579 97.8592 74.855Z" fill="#D7D7D7"/>
<path d="M43.7709 85.1786C45.3739 85.0383 46.7509 84.0436 47.49 82.7224C47.6469 84.8714 46.1169 86.7483 43.9599 86.9745C41.8029 87.2008 39.8937 85.6328 39.5912 83.4832C40.6007 84.6647 42.168 85.3189 43.7709 85.1786Z" fill="#989899"/>
<path d="M49.865 75.9759C51.7615 75.5426 53.1409 74.2537 53.8244 72.6087C54.328 75.0827 52.8228 77.4893 50.3723 78.0085C47.9798 78.5574 45.5168 77.0755 44.8379 74.6596C46.1385 75.8422 47.9981 76.3504 49.865 75.9759Z" fill="#989899"/>
<path d="M36.4949 75.8443C38.4153 76.088 40.1986 75.3009 41.3746 73.9814C41.0046 76.4522 38.7475 78.1791 36.2742 77.8742C33.8009 77.5693 31.9841 75.3835 32.1505 72.8824C33.0108 74.5049 34.603 75.689 36.4949 75.8443Z" fill="#989899"/>
<path d="M35.8337 83.398C35.8337 83.398 35.9584 85.899 35.0186 86.8952C35.0186 86.8952 33.8295 86.3606 33.6098 84.7711C33.6098 84.7711 34.3919 85.2451 35.8337 83.398Z" fill="#989899"/>
<path d="M43.371 37.5514C36.5646 46.3986 37.493 54.5415 37.493 54.5415C37.493 54.5415 40.2047 55.9035 42.6327 59.1563C46.6334 64.4914 62 69 75.4997 57C85.0729 47.3812 83.0937 34.6935 72.5437 28.2489C62.7921 22.3714 54.1593 23.5648 43.371 37.5514Z" fill="white"/>
<path d="M53.4931 38.2477C55.4221 35.3495 58.1464 33.7858 59.5778 34.7552C61.0093 35.7245 60.6059 38.8597 58.6769 41.758C56.7479 44.6562 54.0237 46.2199 52.5922 45.2505C51.1607 44.2812 51.5641 41.146 53.4931 38.2477Z" fill="#231F20"/>
<path d="M37.4799 39.0318C37.4799 39.0318 40.0503 40.6408 41.1288 42.6978C42.0383 44.3489 45.0956 41.3486 44.8224 39.5523C44.5493 37.7561 37.4799 39.0318 37.4799 39.0318Z" fill="#EC6C22"/>
<path d="M45.665 34.2162C45.665 34.2162 41.8775 33.6376 37.845 37.7881C37.845 37.7881 41.9012 38.2516 44.161 40.0266C45.9759 41.418 47.2188 35.2092 45.665 34.2162Z" fill="#EC8822"/>
<path d="M54.7444 37.5523C55.4478 36.4957 56.5257 35.9829 57.152 36.407C57.7783 36.8312 57.7158 38.0316 57.0124 39.0883C56.309 40.145 55.231 40.6577 54.6048 40.2336C53.9785 39.8095 54.041 38.609 54.7444 37.5523Z" fill="white"/>
<path d="M79.6337 62.1801C73.824 61.7571 58.5425 64.7308 50.399 81.5928C43.7631 95.4137 54.8804 88.7039 59.794 85.9381C59.794 85.9381 57.2909 88.824 58.8978 90.8255C60.4493 92.8184 64.9213 91.0342 70.9215 85.131C70.9215 85.131 69.6929 90.4116 73.1855 92.9399C76.3587 93.1411 81.4953 86.2518 85.029 76.579C88.5626 66.9061 85.4434 62.6031 79.6337 62.1801Z" fill="#989899"/>
</svg>
