<svg width="135" height="89" viewBox="0 0 135 89" fill="none" xmlns="http://www.w3.org/2000/svg">
<path d="M26.549 34.5147C26.549 34.5147 18.4347 38.8929 15.8662 48.7584L28.1835 51.3853L26.549 34.5147Z" fill="#989899"/>
<path d="M16.625 78.0045L23.4549 79.639C24.3889 79.8725 25.3813 79.4055 25.7899 78.5299L36.7062 55.9385L16.625 78.0045Z" fill="#E49B3C"/>
<path d="M15.5741 77.2456L0.513236 59.2076C-0.304021 58.2152 -0.128887 56.7558 0.921872 55.9969L22.0538 41.3447L36.5893 55.8802L18.7264 77.2456C17.8508 78.238 16.3914 78.238 15.5741 77.2456Z" fill="#FFB239"/>
<path d="M20.6528 47.299C20.6528 47.299 29.0589 38.8929 34.8381 44.9055C40.6173 50.9182 31.4523 58.5654 31.4523 58.5654" stroke="#EEE6D9" stroke-width="2.4281" stroke-miterlimit="10" stroke-linecap="round" stroke-linejoin="round"/>
<path d="M30.1099 82.441L37.1733 81.5071C38.1657 81.3903 38.9829 80.5147 39.0413 79.4639L41.0845 52.903L30.1099 82.441Z" fill="#F14C49"/>
<path d="M28.6503 82.1492L6.64275 69.7152C5.88387 69.3066 5.65039 68.3142 6.11739 67.6137L21.4701 44.2051L40.8508 52.9614L31.6275 80.9233C31.2772 82.2076 29.8178 82.8497 28.6503 82.1492Z" fill="#FF625E"/>
<path d="M22.4624 50.568C22.4624 50.568 27.4243 39.0096 35.2466 42.6873C43.0106 46.365 37.1146 57.4563 37.1146 57.4563" stroke="white" stroke-width="2.5398" stroke-miterlimit="10" stroke-linecap="round" stroke-linejoin="round"/>
<path d="M96.891 24.9411C96.891 24.9411 96.3072 17.7609 99.9849 17.2939C103.663 16.8269 108.8 22.4894 109.267 30.4284C109.267 30.4284 111.018 25.4665 113.995 25.8167C116.972 26.167 120.241 33.4639 114.637 45.6644C114.637 45.6644 116.388 45.0807 117.322 45.9563C118.256 46.8319 117.322 63.7609 91.1118 61.7761L96.891 24.9411Z" fill="white"/>
<path d="M96.891 24.9411L91.6372 58.507C105.939 47.1238 99.6346 26.8675 98.8758 23.1898C98.0585 19.4538 99.9849 17.2939 99.9849 17.2939C96.3656 17.8193 96.891 24.9411 96.891 24.9411Z" fill="#989899"/>
<path d="M53.635 88.3369C53.2847 88.3369 52.9345 88.1618 52.701 87.87L50.7162 85.2431L48.4979 87.9283C48.0893 88.3953 47.3304 88.5121 46.8634 88.1035C46.3964 87.6949 46.2797 86.9359 46.6883 86.4689L49.8406 82.6745C50.0741 82.3827 50.366 82.2659 50.7746 82.2659C51.1248 82.2659 51.4751 82.441 51.6502 82.7329L54.5106 86.5273C54.9192 87.0527 54.8025 87.7532 54.2771 88.1618C54.1604 88.2202 53.9268 88.3369 53.635 88.3369Z" fill="#EC8822"/>
<path d="M74.6501 88.3369C74.2999 88.3369 73.9496 88.1618 73.7161 87.87L71.7313 85.2431L69.5131 87.9283C69.1044 88.3953 68.3456 88.5121 67.8786 88.1035C67.4116 87.6949 67.2948 86.9359 67.7034 86.4689L70.8557 82.6745C71.0892 82.3827 71.3811 82.2659 71.7897 82.2659C72.14 82.2659 72.4902 82.441 72.6654 82.7329L75.5257 86.5273C75.9344 87.0527 75.8176 87.7532 75.2923 88.1618C75.1171 88.2202 74.8836 88.3369 74.6501 88.3369Z" fill="#EC8822"/>
<path d="M60.815 5.38531C41.0256 5.38531 25.0308 21.2051 25.0308 40.6441C25.0308 61.0756 34.079 75.903 46.98 82.0324C49.7236 83.3167 52.8759 83.0832 55.5028 81.6822C57.0789 80.8065 58.8886 80.3395 60.815 80.3395C62.7413 80.3395 64.551 80.8065 66.1272 81.6822C68.754 83.1416 71.9647 83.3167 74.65 82.0324C87.551 75.903 96.5992 61.0756 96.5992 40.6441C96.5992 21.1467 80.5459 5.38531 60.815 5.38531Z" fill="#E7E4E2"/>
<path d="M75.2339 16.1848C72.0233 15.7178 68.871 16.1264 66.1274 17.2356C62.5665 18.6366 58.4802 18.3447 55.1528 16.3599C52.5843 14.8422 49.5487 13.9665 46.2797 13.9082C37.6985 13.7914 29.8762 19.9209 28.0665 28.3269C25.9066 38.6594 33.1452 48.2913 43.7695 49.1086C46.8051 49.3421 49.7822 48.8167 52.4091 47.7076C56.1452 46.1314 60.4066 46.4233 63.7923 48.5832C66.2441 50.101 69.0462 51.0934 72.0817 51.3269C82.6477 52.1441 91.3456 43.7964 90.8202 33.2888C90.47 24.6493 83.6984 17.4107 75.2339 16.1848Z" fill="white"/>
<path d="M41.7263 36.733C44.7246 36.733 47.1552 34.3024 47.1552 31.3041C47.1552 28.3058 44.7246 25.8752 41.7263 25.8752C38.728 25.8752 36.2974 28.3058 36.2974 31.3041C36.2974 34.3024 38.728 36.733 41.7263 36.733Z" fill="#231F20"/>
<path d="M40.3839 31.8295C41.4478 31.8295 42.3103 30.967 42.3103 29.9031C42.3103 28.8392 41.4478 27.9767 40.3839 27.9767C39.32 27.9767 38.4575 28.8392 38.4575 29.9031C38.4575 30.967 39.32 31.8295 40.3839 31.8295Z" fill="white"/>
<path d="M72.49 36.3244C70.2134 36.0325 68.287 34.6899 67.4697 32.9386C67.5865 35.5071 69.6296 37.7254 72.2565 38.0173C74.9418 38.3092 77.3936 36.6747 78.0941 34.1645C76.9849 35.6823 74.825 36.6163 72.49 36.3244Z" fill="#231F20"/>
<path d="M53.168 35.1568C53.168 35.1568 52.4675 36.6746 52.701 41.403C52.701 41.403 54.7441 38.1924 59.4142 36.2076C59.3558 36.2076 55.7949 33.3472 53.168 35.1568Z" fill="#EC8822"/>
<path d="M36.1223 56.9893C34.371 56.3472 33.1451 55.0045 32.6781 53.4868C31.9193 55.5299 33.0867 57.8649 35.4218 58.6822C37.6984 59.4994 40.2086 58.5654 41.0842 56.5807C39.7416 57.4563 37.8735 57.6314 36.1223 56.9893Z" fill="#989899"/>
<path d="M45.696 68.139C44.0031 67.5552 42.7772 66.2126 42.3102 64.6949C41.6097 66.7964 42.7772 69.1314 45.0539 69.8903C47.2721 70.6491 49.7239 69.6568 50.5412 67.6136C49.1985 68.4893 47.4473 68.7811 45.696 68.139Z" fill="#989899"/>
<path d="M61.2238 70.5908C59.5309 70.5324 58.0131 69.5984 57.0791 68.3141C57.1375 70.474 58.9471 72.2837 61.1654 72.4004C63.3837 72.5172 65.1933 70.8826 65.2517 68.7227C64.376 69.8903 62.9166 70.6491 61.2238 70.5908Z" fill="#989899"/>
<path d="M74.1245 68.139C75.5839 67.6136 76.5763 66.4461 76.8682 64.9868C77.6271 66.9715 76.6931 69.073 74.7667 69.7736C72.8403 70.4741 70.5636 69.4817 69.688 67.4969C71.0306 68.3725 72.6652 68.6644 74.1245 68.139Z" fill="#989899"/>
<path d="M50.6576 60.3167C48.9063 59.9664 47.5637 58.7989 46.8632 57.3979C46.5129 59.4994 48.0307 61.601 50.3073 62.068C52.584 62.535 54.6855 61.2507 55.1525 59.2075C54.0434 60.2583 52.3505 60.7253 50.6576 60.3167Z" fill="#989899"/>
<path d="M80.3708 58.6238C81.7718 58.1568 82.7058 57.0477 82.9977 55.6467C83.6982 57.5731 82.881 59.5578 81.0129 60.2C79.1449 60.8421 76.985 59.7913 76.1094 57.9233C77.3936 58.7989 78.9698 59.0908 80.3708 58.6238Z" fill="#989899"/>
<path d="M67.8201 60.8421C69.3962 60.6086 70.5637 59.5578 71.1475 58.2736C71.5561 60.3167 70.3302 62.1847 68.2287 62.535C66.1272 62.8852 64.0256 61.5426 63.4419 59.4994C64.6094 60.5502 66.1855 61.1339 67.8201 60.8421Z" fill="#989899"/>
<path d="M61.749 9.82184C61.749 9.82184 64.4927 6.61118 68.4038 5.61879C71.7312 4.74316 70.3886 2.40815 67.3531 4.10104C64.9013 5.50206 61.749 9.82184 61.749 9.82184Z" fill="#989899"/>
<path d="M59.7646 8.94625C59.7646 8.94625 59.1809 5.21021 56.6707 3.10869C54.8611 1.59093 55.9702 0.0731737 56.8459 0.0147982C58.5388 -0.218704 59.9398 2.29144 59.7646 8.94625Z" fill="#989899"/>
<path d="M58.0716 8.42082C58.0716 8.42082 52.7594 2.17466 49.432 3.80917C47.0969 4.91831 54.3355 6.02742 58.0716 8.42082Z" fill="#989899"/>
<path d="M49.3737 30.4284C51.7087 28.7939 57.6047 26.8675 63.092 31.5959C63.5006 31.9462 63.7341 32.4132 63.7925 32.8802C63.9092 32.2381 63.6757 31.4792 63.092 31.0122C57.5463 26.2837 51.7087 28.2101 49.3737 29.8447C48.7316 30.3117 48.4397 31.0122 48.5564 31.771C48.6148 31.2457 48.9067 30.7203 49.3737 30.4284Z" fill="#FF9BCD"/>
<path d="M62.0993 34.8649C61.6323 34.8649 61.1069 34.6898 60.7567 34.3396C56.2617 30.5452 52.2922 33.0553 51.8252 33.4055C50.8912 34.0477 49.5486 33.8142 48.9064 32.8802C48.2643 31.9462 48.4394 30.6619 49.3734 29.9614C51.7668 28.2685 57.7795 26.3421 63.4419 31.1289C64.3175 31.8878 64.4343 33.2304 63.6754 34.1061C63.2668 34.6314 62.683 34.8649 62.0993 34.8649Z" fill="#FF509F"/>
<path d="M74.0667 46.7152C81.6753 46.7152 87.8433 40.5472 87.8433 32.9386C87.8433 25.3299 81.6753 19.162 74.0667 19.162C66.458 19.162 60.29 25.3299 60.29 32.9386C60.29 40.5472 66.458 46.7152 74.0667 46.7152Z" fill="#FF509F"/>
<path d="M62.8586 25.8168C67.7621 18.8117 76.285 18.1696 82.5311 23.1315C85.0413 25.1163 86.9093 28.6188 87.7849 31.4208C87.3763 27.9183 85.625 24.5325 82.6479 22.1975C76.6936 17.4691 68.054 18.4615 63.3256 24.4158C62.0997 25.9335 61.2824 27.6848 60.8154 29.4945C61.2824 28.1518 62.0413 26.9843 62.8586 25.8168Z" fill="#FF9BCD"/>
<path d="M74.0666 43.8548C80.0955 43.8548 84.9829 38.9675 84.9829 32.9386C84.9829 26.9097 80.0955 22.0224 74.0666 22.0224C68.0378 22.0224 63.1504 26.9097 63.1504 32.9386C63.1504 38.9675 68.0378 43.8548 74.0666 43.8548Z" fill="#CD3480"/>
<path d="M74.3004 43.8548C80.2003 43.8548 84.9831 39.072 84.9831 33.1721C84.9831 27.2722 80.2003 22.4894 74.3004 22.4894C68.4005 22.4894 63.6177 27.2722 63.6177 33.1721C63.6177 39.072 68.4005 43.8548 74.3004 43.8548Z" fill="#303030"/>
<path d="M64.2012 36.6746C65.5438 40.9944 69.5717 44.0883 74.3585 44.0883C80.196 44.0883 84.9828 39.3599 84.9828 33.5223C84.9828 30.8954 83.9904 28.502 82.4143 26.6924C71.2062 25.5249 65.7773 33.7558 64.2012 36.6746Z" fill="#232323"/>
<path d="M38.9828 42.6289C46.4947 42.6289 52.5843 36.5393 52.5843 29.0274C52.5843 21.5155 46.4947 15.4259 38.9828 15.4259C31.4709 15.4259 25.3813 21.5155 25.3813 29.0274C25.3813 36.5393 31.4709 42.6289 38.9828 42.6289Z" fill="#FF509F"/>
<path d="M25.8483 30.4284C25.3813 21.964 31.5691 16.2432 39.4498 16.2432C42.6021 16.2432 46.2214 17.7609 48.6148 19.4538C46.163 17.0021 42.7189 15.4259 38.9828 15.4259C31.4524 15.4259 25.3813 21.5553 25.3813 29.0274C25.3813 30.9538 25.79 32.8218 26.5489 34.5147C26.0819 33.2304 25.9651 31.8294 25.8483 30.4284Z" fill="#FF9BCD"/>
<path d="M38.9831 39.8269C44.9475 39.8269 49.7825 34.9918 49.7825 29.0274C49.7825 23.063 44.9475 18.2279 38.9831 18.2279C33.0187 18.2279 28.1836 23.063 28.1836 29.0274C28.1836 34.9918 33.0187 39.8269 38.9831 39.8269Z" fill="#CD3480"/>
<path d="M39.5082 39.8269C45.2147 39.8269 49.8407 35.2009 49.8407 29.4944C49.8407 23.788 45.2147 19.162 39.5082 19.162C33.8018 19.162 29.1758 23.788 29.1758 29.4944C29.1758 35.2009 33.8018 39.8269 39.5082 39.8269Z" fill="#303030"/>
<path d="M29.6426 32.5883C30.9268 36.7913 34.8964 39.8269 39.508 39.8269C45.2288 39.8269 49.8405 35.2152 49.8405 29.4944C49.8405 26.9259 48.9065 24.5909 47.3887 22.7812C36.4141 21.6721 31.1603 29.7279 29.6426 32.5883Z" fill="#232323"/>
<path d="M133.551 40.4106L103.02 48.4081C102.145 48.6416 101.211 48.1162 100.977 47.2406L96.0154 28.3853C95.7819 27.5097 96.3073 26.5756 97.1829 26.3421L127.713 18.3447C128.589 18.1112 129.523 18.6366 129.756 19.5122L134.718 38.3675C134.952 39.2431 134.427 40.1771 133.551 40.4106Z" fill="#F6CA2E"/>
<path d="M132.675 48.8751L101.211 51.502C100.277 51.5604 99.5181 50.9183 99.4014 49.9843L97.7669 30.5452C97.7085 29.6112 98.3506 28.8523 99.2846 28.7356L130.749 26.1087C131.683 26.0503 132.442 26.6924 132.559 27.6264L134.193 47.0655C134.252 47.9995 133.609 48.7584 132.675 48.8751Z" fill="#FBE837"/>
<path d="M132.81 30.6635L98.0234 33.574L98.3155 37.0643L133.102 34.1538L132.81 30.6635Z" fill="#F6CA2E"/>
<path d="M109.927 45.0077L101.317 45.7281L101.585 48.9275L110.194 48.2071L109.927 45.0077Z" fill="#2A8471"/>
</svg>
