<svg width="24" height="24" viewBox="0 0 24 24" fill="none" xmlns="http://www.w3.org/2000/svg">
<path d="M16.6044 3.79863L4 8.00009L19.5 8.50009L19.2286 5.51493C19.1119 4.23053 17.8279 3.3908 16.6044 3.79863Z" fill="#EFFFFE"/>
<path fill-rule="evenodd" clip-rule="evenodd" d="M18.2325 5.60532C18.1742 4.96312 17.5322 4.54325 16.9204 4.74717L9.61979 7.18072L18.4015 7.464L18.2325 5.60532ZM16.288 2.84981C18.1233 2.23805 20.0492 3.49765 20.2243 5.42425L20.5981 9.5359L3.96758 8.99943L3.68359 7.05127L16.288 2.84981Z" fill="#009891"/>
<path d="M21.9995 17.0019C21.9998 18.1057 21.1049 19 20.0011 19H3.99993C2.89541 19 2.00001 18.1046 2 17.0001C2 16.4882 2 15.9762 2 15.4643C2 15.2474 2.18667 15.0714 2.41667 15.0714H2.83334C3.7525 15.0714 4.5 14.3666 4.5 13.5C4.5 12.6334 3.7525 11.9286 2.83334 11.9286H2.41667C2.18667 11.9286 2 11.7526 2 11.5357C2 11.0238 2 10.5118 2 9.99987C2.00001 8.89535 2.89541 8 3.99993 8H20.0011C21.1049 8 22 8.89428 22 9.99811C22.0001 10.5106 22 11.0232 22 11.5357C22 11.7526 21.8133 11.9286 21.5833 11.9286H21.1667C20.2475 11.9286 19.5 12.6334 19.5 13.5C19.5 13.9196 19.6733 14.314 19.9883 14.611C20.3025 14.908 20.7208 15.0714 21.1658 15.0714H21.5825C21.8125 15.0714 21.9992 15.2474 21.9992 15.4643C21.9992 15.9768 21.9994 16.4894 21.9995 17.0019Z" fill="#EFFFFE"/>
<path d="M21.666 15.6316C21.666 18.1895 19.2422 19 16.7569 19C14.2716 19 12.666 18.1895 12.666 15.6316C12.666 13.0736 14.6807 11 17.166 11C18.3932 11 19.4059 11.2053 20.166 11.8694C18.666 13 18.666 15 21.666 15.6316Z" fill="#C9EBE9"/>
<path fill-rule="evenodd" clip-rule="evenodd" d="M1 9.99987C1.00001 8.34303 2.34316 7 3.99993 7H20.0011C21.6567 7 22.9999 8.34148 23 9.99805L23 11.5357C23 12.3595 22.3094 12.9286 21.5833 12.9286H21.1667C20.7435 12.9286 20.5 13.2403 20.5 13.5C20.5 13.6345 20.5526 13.7686 20.6744 13.8834L20.6753 13.8843C20.7976 13.9999 20.9677 14.0714 21.1658 14.0714H21.5825C22.3085 14.0714 22.9992 14.6405 22.9992 15.4643C22.9992 15.8582 22.9993 16.2521 22.9994 16.6462L22.9995 17.0016C23 18.6584 21.6567 20 20.0011 20H3.99993C2.34317 20 1.00001 18.657 1 17.0001L1 15.4643C1 14.6405 1.69063 14.0714 2.41667 14.0714H2.83334C3.25647 14.0714 3.5 13.7597 3.5 13.5C3.5 13.2403 3.25647 12.9286 2.83334 12.9286H2.41667C1.69063 12.9286 1 12.3595 1 11.5357L1 9.99987ZM3.99993 9C3.44766 9 3 9.44767 3 9.99988L3 10.9337C4.34533 11.0158 5.5 12.0846 5.5 13.5C5.5 14.9154 4.34533 15.9842 3 16.0663L3 17.0001C3 17.5523 3.44766 18 3.99993 18H20.0011C20.5531 18 20.9997 17.553 20.9995 17.0022C20.9995 16.8795 20.9995 16.7569 20.9994 16.6342C20.9994 16.445 20.9993 16.2557 20.9993 16.0665C20.368 16.0289 19.7672 15.7778 19.3021 15.3383C18.794 14.8591 18.5 14.2045 18.5 13.5C18.5 12.0846 19.6547 11.0158 21 10.9337L21 9.99817C21 9.44708 20.5531 9 20.0011 9H3.99993Z" fill="#009891"/>
<path fill-rule="evenodd" clip-rule="evenodd" d="M7.66602 9.45L7.66602 9L9.66602 9L9.66602 9.45L7.66602 9.45ZM7.66602 11.25L7.66602 10.35L9.66602 10.35L9.66602 11.25L7.66602 11.25ZM7.66602 13.05L7.66602 12.15L9.66602 12.15L9.66602 13.05L7.66602 13.05ZM7.66602 14.85L7.66602 13.95L9.66602 13.95L9.66602 14.85L7.66602 14.85ZM7.66602 16.65L7.66602 15.75L9.66602 15.75L9.66602 16.65L7.66602 16.65ZM7.66602 18L7.66602 17.55L9.66602 17.55L9.66602 18L7.66602 18Z" fill="#009891"/>
</svg>
