<svg version="1.1" id="圖層_1" xmlns="http://www.w3.org/2000/svg" xmlns:xlink="http://www.w3.org/1999/xlink" x="0" y="0" viewBox="0 0 123 111" xml:space="preserve"><g id="圖層_2_1_"><path d="M115 43.1c-2.9.9-6.6.5-9.6 0-1.5-8.8-5.5-17-11.6-23.6C75.1-.9 42-1 19.9 19.3s-22.5 51.5-3.8 71.9 49.2 22.1 71.4 1.8c10.2-9.3 16.7-21.9 18.3-35.7 2.9-.9 6.9-2.6 9.8-5.6 1.5-1.5 2.6-3.4 3-5.5.3-1.5-.7-2.9-2.2-3.2-.5-.1-1 0-1.4.1z" fill="#fff"/><path d="M3.2 61.7c6.4 23.4 21.2 40.1 55 38.6 39.6-1.8 47.6-42.9 47.6-42.9s-6.6 50.4-54.1 50C8.8 107.1 3.2 61.7 3.2 61.7z" fill="#ccc"/><path d="M114.8 42.4c-3 .9-6.2.5-9.2 0l.5.5c-2-11.1-7.8-21.2-16.5-28.5-7.5-6-16.6-9.8-26.2-10.7C43 1.6 22.3 11.8 10.8 28.6-.4 44.9-1.1 66.2 9.1 83.2c5.2 8.7 12.9 15.8 22 20.2 8.9 4.2 18.8 5.7 28.5 4.2 21.9-3.3 40.2-21.2 45.6-42.4.7-2.6 1.1-5.2 1.4-7.9l-.6.7c4.4-1.4 9-3.7 11.6-7.7 1-1.5 2.2-3.9 1.5-5.8-.6-1.7-2.5-2.6-4.3-2.1-.4.1-.6.5-.5.9.1.4.5.6.9.5.9-.3 1.9.1 2.4.9.3.7.3 1.6 0 2.3-.6 1.8-1.7 3.5-3.1 4.8-2.6 2.2-5.6 3.9-8.8 4.8-.3.1-.5.4-.6.7-2.4 21.6-18.3 41.2-39.3 47.3-9.1 2.7-18.8 2.6-27.8-.2C11.9 96-2.5 67.9 6 41.8c.7-2.2 1.6-4.3 2.6-6.4 8.9-17.8 28.1-29.9 48-30.5 9.3-.3 18.5 2 26.5 6.7 9 5.5 15.9 13.9 19.5 23.8.9 2.5 1.6 5.2 2.1 7.8.1.3.3.5.5.5 3.3.6 6.8 1 10 0 .4-.1.6-.5.5-.9-.1-.3-.5-.5-.9-.4z" fill="#282828"/><path d="M22.7 73.7c0-.1-.2-.2-.3-.2-.1 0-.2.1-.2.2-.4 2-1.9 3.6-3.9 4.2-.2.1-.3.3-.3.5 0 .1.1.2.3.3 1.9.7 3.4 2.3 3.8 4.3 0 .1.2.2.3.2.1 0 .2-.1.2-.2.4-2 1.9-3.6 3.8-4.2.2-.1.3-.3.3-.5 0-.1-.1-.2-.3-.3-1.8-.7-3.3-2.3-3.7-4.3zm61.1-54.2c0-.1-.1-.2-.2-.2s-.1.1-.2.2c-.3 1.6-1.5 2.8-3 3.3-.2.1-.3.3-.2.4 0 .1.1.2.2.2 1.5.5 2.7 1.8 3 3.4 0 .1.1.2.2.2s.1-.1.2-.2c.4-1.5 1.5-2.8 3-3.3.2-.1.3-.2.2-.4 0-.1-.1-.2-.2-.2-1.5-.6-2.6-1.9-3-3.4zM29.9 83.3c0-.1-.1-.1-.2-.1 0 0-.1 0-.1.1-.2 1-1 1.9-2 2.2-.1 0-.2.2-.1.3 0 .1.1.1.1.1 1 .3 1.8 1.2 2 2.2 0 .1.1.1.1.1.1 0 .1-.1.1-.1.2-1 1-1.9 2-2.2.1 0 .2-.2.1-.3 0-.1-.1-.1-.1-.1-.9-.3-1.7-1.1-1.9-2.2z" fill="#ffd629"/></g><g id="圖層_7"><defs><path id="SVGID_1_" d="M631.8-111c0-1 0-2-.1-3-1.4-18.9-17-33.6-36-33.6-.8 0-1.7 0-2.5.1-9 .6-17.4 4.6-23.6 11.1-6.4-1.6-12.9-2.5-19.5-2.7-6.4 0-10.3 1.4-11.5 4.3-2.5 5.8 5.7 15.9 19.9 24.4l1 .6h.1v.8c1.4 18.9 17 33.6 36 33.7.8 0 1.7 0 2.5-.1 8.4-.6 16.3-4.1 22.3-9.8 5.7 1.4 11.5 2.1 17.4 2.2 8.2 0 13.5-1.8 14.9-5 3.1-7.4-13.2-18.3-20.9-23zm-71.1-9.6c-6.3-4.8-8-8-7.4-9.4.5-1.2 2.8-1.9 6.4-1.9 2 0 3.9.2 5.9.4-2.3 3.4-3.9 7-4.9 10.9zM638.9-95c-.5 1.2-2.8 1.9-6.4 1.9-1.8 0-3.7-.1-5.5-.4 2-3.5 3.4-7.2 4.2-11.2 6.6 5 8.3 8.3 7.7 9.7z"/></defs><clipPath id="SVGID_2_"><use xlink:href="#SVGID_1_" overflow="visible"/></clipPath></g></svg>