<svg xmlns="http://www.w3.org/2000/svg" width="257" height="90" viewBox="0 0 257 90">
    <g fill="none" fill-rule="evenodd">
        <g>
            <g transform="translate(-13) translate(13)">
                <ellipse cx="103.826" cy="9.452" fill="#FEC602" rx="4.498" ry="4.5"/>
                <path fill="#29DAA1" d="M237.302 6.757l8.412.007c2.59 4.332 3.795 8.165 3.614 11.5-.18 3.333-1.379 7.165-3.595 11.493l-8.412-.006c2.932-4.576 4.396-8.605 4.394-12.089-.003-3.483-1.474-7.118-4.413-10.905z" transform="rotate(32 243.324 18.257)"/>
                <path fill="#29DAA1" d="M6.83 60.933l9.15.005c2.817 4.709 4.127 8.875 3.93 12.5-.197 3.624-1.502 7.789-3.914 12.495l-9.151-.005c3.19-4.975 4.785-9.355 4.782-13.142-.002-3.786-1.601-7.738-4.798-11.853z" transform="rotate(-140 13.38 73.433)"/>
                <path fill="#0E7CF4" d="M242.037 54.294l6.585.003c2.027 3.39 2.97 6.39 2.827 9-.142 2.61-1.081 5.608-2.817 8.997l-6.585-.003c2.296-3.582 3.443-6.736 3.442-9.463-.001-2.726-1.152-5.57-3.452-8.534z" transform="rotate(113 246.75 63.294)"/>
                <path fill="#0E7CF4" d="M27.619 9.935l6.219.003c1.914 3.202 2.804 6.035 2.67 8.5-.135 2.464-1.022 5.297-2.661 8.497l-6.22-.003c2.17-3.383 3.253-6.361 3.252-8.937-.002-2.575-1.088-5.261-3.26-8.06z" transform="rotate(81 32.07 18.435)"/>
                <ellipse cx="84.279" cy="82.857" fill="#FFB7A2" rx="6.997" ry="7"/>
                <ellipse cx="201.199" cy="7" fill="#FFB7A2" rx="6.997" ry="7"/>
                <ellipse cx="169.941" cy="70.452" fill="#FEC602" rx="4.498" ry="4.5"/>
            </g>
        </g>
    </g>
</svg>
