<svg version="1.1" id="圖層_1" xmlns="http://www.w3.org/2000/svg" x="0" y="0" viewBox="0 0 108.7 83.7" xml:space="preserve"><style>.st0{fill:#3d3d3d}</style><path class="st0" d="M52.4 21.1c-5.3-.1-10.6 1.7-15.1 4.3-3.4 1.9-9.2 5.6-8.5 10.3.4 2.5 2.7 4.2 5 5 2.7.9 5.8.5 8.5-.2 4.9-1.4 9.6-4 13.1-7.6 2-2 4.4-4.7 3.6-7.7-.9-3-3.8-4-6.6-4.1-2.5-.1-2.5 3.8 0 3.9 1.1 0 3.1.2 2.7 1.8-.4 1.5-2.2 3-3.3 4-2.8 2.6-6.3 4.5-10 5.6-1.9.6-4 1.1-6.1.7-1.1-.2-3.3-1.1-3.1-2.5.2-1.4 2-2.7 3-3.5 1.3-1.1 2.8-2 4.3-2.8 3.8-2.1 8.1-3.4 12.5-3.4 2.5.2 2.5-3.7 0-3.8zm40.4 35.1c3.6 1.7 7.3 2.5 11.3 2.5-.3-1.2-.7-2.4-1-3.6C95.9 59 89 63.6 81.8 67.6c-2.2 1.2-.2 4.6 2 3.4 7.2-4.1 14.1-8.7 21.3-12.6 1.7-.9.9-3.7-1-3.6-3.3.1-6.3-.5-9.3-1.9-1-.5-2.1-.3-2.7.7-.5.8-.2 2.2.7 2.6z"/><path class="st0" d="M74.1 67.8c4.4 2.8 8.2 6.5 12.2 10 .8.7 2 .8 2.8 0 .7-.7.8-2 0-2.8-4.1-3.8-8.2-7.6-12.9-10.6-.9-.6-2.2-.2-2.7.7-.6 1-.3 2.1.6 2.7zm-7.8-11.3c-4.8-3.1-9.7-6.2-14.5-9.2-.3 1.2-.7 2.4-1 3.6 3.4-.1 6.8.3 10.2.5 4.5.2 9 .3 13.4-.4 3.2-.5 7.2-1.9 8.2-5.4 1.2-4.4-1.6-8.2-5.6-9.7-2.6-1-5.8-1.2-8.5-.9-1 .1-1.9.8-1.9 2 0 1 .9 2.1 1.9 1.9 2-.2 4.1-.1 5.7.3 1.5.3 2.7.8 3.6 1.6.4.4.7.9.9 1.3.1.2.2.8.2.8v.8c0 .1-.2 1.1 0 .6 0 .2-.3.8-.1.4-.1.1-.1.3-.2.4-.3.4.3-.3-.1.1-.2.2-.4.4-.6.5.4-.3-.1 0-.1.1l-.6.3c-.6.3-.9.4-1.7.6-.9.2-1.7.4-2.6.5-3.6.5-7.7.4-11.5.2-3.5-.2-7.1-.6-10.6-.5-1.9.1-2.6 2.6-1 3.6 4.8 3.1 9.7 6.2 14.5 9.2 2.1 1.5 4.1-1.8 2-3.2zM20.8 6.8c1.9-.2 4.2-.2 5.7.1.7.1 1.5.3 2.2.6.3.1 1.2.7 1.5.9.5.6.8.9.9 1.4.1.2.2.8.2.8v.8c0 .1-.1 1.2 0 .6 0 .1-.3.8-.1.4-.1.2-.5.8-.3.5-.5.6-.5.6-1.3 1-.7.4-.8.4-1.7.7-.9.3-1.7.4-2.6.6-3.7.6-7.7.6-11.5.4-3.5-.1-7.1-.5-10.6-.3-1.9.1-2.7 2.6-1 3.6l14.7 9c2.1 1.3 4.1-2.1 2-3.4l-14.7-9c-.3 1.2-.7 2.4-1 3.6 3.4-.2 6.8.2 10.2.3 4.5.1 9 .2 13.4-.7 3.2-.6 7.2-2 8.1-5.5C36 8.8 33.2 5 29.2 3.6c-2.6-.9-5.8-1.1-8.6-.8-1 .1-2 .8-2 2 .2 1 1.1 2.1 2.2 2z"/></svg>