<svg version="1.1" id="圖層_1" xmlns="http://www.w3.org/2000/svg" x="0" y="0" viewBox="0 0 127.3 99.6" xml:space="preserve"><path d="M30.7 20.9l-6.1-4.3-.9.8-1.7-1.2 7-6.6c-.4.1-.8.1-1.2.2.1-.4.2-1 .2-1.5l-4 3.8-2.7-1.9-1.1 1-1.6-1.2 9.1-8.5L32 4.6l-3.5 3.2c2.4-.3 5.2-1.4 7.2-2.4L37.1 7c-.9.4-1.8.8-2.8 1.2l2.1 1.5c.3-.7.6-1.6.8-2.3l2.1.5c-.2.9-.5 1.9-.8 2.5l-1.3-.3 2.7 1.9-1.4 1.3-2.5-1.6-1.2 1.1 2 1.4-1.4 1.3-2-1.4-1.1 1.1 2 1.4-1.5 1.4-2-1.4-1.2 1.1 2.6 1.9-1.5 1.3zm-1.8-16l-1.1-.8-4.9 4.6 1.1.8 4.9-4.6zm-2.8 10.3l1.9 1.3 1.2-1.1-1.9-1.3-1.2 1.1zm5.6-2.2l-1.9-1.3-1.1 1.1 1.9 1.3 1.1-1.1zm2.6-2.4l-1.9-1.3-1.2 1.1 1.9 1.3 1.2-1.1zm12.9 7.9c-.5.2-1.1.4-1.7.6l7 4.9-6.6 6.2c-.8.7-1.4 1-2.2.8-.8-.2-1.7-.8-2.9-1.6.4-.5.8-1.3 1-1.8.7.6 1.6 1.2 1.9 1.4.3.2.4.2.6 0l.8-.8-5.6-4c-1.5.8-2.9 1.3-4.5 1.3.1-.5.1-1.6-.1-2.1 2.3 0 3.8-1.3 5.1-2.5l1.1-1c-1.1.1-2.2.1-3.3 0 .1-.5.1-1.5.1-2 2.4.2 5-.2 7.4-.9L42 14.7l1.5-1.4 4 2.9c.8-.3 1.5-.7 2.2-1.1l1.5 1.7c-.6.3-1.1.6-1.7.8l7.3 5.2-1.5 1.4-8.1-5.7zm-.9 8.5l.9-.8-5.4-3.8c-.3.3-.6.5-.9.8l5.4 3.8zm3-2.9l-5.4-3.8-.8.8 5.4 3.8.8-.8zM65.1 27c-1.3.6-2.7 1.1-4.2 1.6l-9.2 8.6L50 36l6.9-6.4-2.1.3c.2-.5.6-1.7.7-2.2 2.6-.2 5.8-1 8.4-2.3l1.2 1.6zm-2.9 7.4c-2.1 1.3-4.6 2.3-6.5 2.7-.1-.5-.4-1.4-.7-1.9 1.8-.3 3.9-1.2 5.8-2.4l1.4 1.6zm4.9-.5l-6.9 6.4c-.8.7-1.4 1-2.2.9-.8-.1-1.6-.6-2.5-1.3.4-.5.8-1.3 1-1.9.6.5 1.2.9 1.5 1.1.2.1.3.1.5 0l6.9-6.4-1.7-1.2c-1.2.4-2.4.7-3.5.9 0-.5-.2-1.5-.4-2 2.3-.3 5-1.4 7.4-2.7l1.4 1.6c-.9.5-1.8.9-2.7 1.4l5.2 3.7.3.2 1 1.1c-1.3.9-2.8 1.9-3.8 2.5l-1.3-1.3c.5-.3 1.1-.8 1.8-1.3l-2-1.7zm.1 3.3c-.6 1.8-1.7 4-2.7 5.2l-2.2-.7c1-1.2 2.2-3.4 2.9-5.2l2 .7zm14.7 9.6l-.9.3 7 5-6.7 6.2-1.8-1.3.5-.5-5.4-3.9-.5.5-1.7-1.1 4.4-4.1c-1.3.1-2.6.1-3.9-.1.1-.5.2-1.5.2-2 2.3.4 4.6.2 6.8-.3l-3.2-2.3L78 42l3.9 2.8.9-.3-3.2-2.3 1.2-1.1 3.7 2.6c.2-.1.5-.3.7-.4-1.3-.8-2.5-1.7-3.7-2.6.3-.3.7-.9.9-1.4 3.7 2.6 8.2 5.5 11.1 7l-.2 1.7c-1.8-.9-3.9-2.2-6.1-3.5-.3.2-.6.3-.9.5l5.9 4.2-1.2 1.1-6.4-4.5c-.3.1-.6.2-.8.4l7.4 5.3-1.2 1.1-8.1-5.8zm-.7 8.6l.6-.6-5.4-3.8-.6.6 5.4 3.8zm2.2-2L78 49.5l-.6.6 5.4 3.9.6-.6zm1.6-1.5L79.6 48l-.6.6 5.4 3.9.6-.6zm14.3 4.3c-.9.3-1.9.5-3 .7L89 63.6l-1.7-1.2 5.6-5.2c-.9.1-1.7.1-2.4.1.2-.4.7-1.6.8-2.1 2.2.2 4.9 0 7.1-.6l.9 1.6zm3.3 11.4l-2.1-1.5-1.9 1.8c-.7.7-1.3.9-2.1.7-.8-.2-1.5-.7-2.6-1.4.4-.5.7-1.2.9-1.7.6.5 1.3 1 1.5 1.1.2.1.3.1.5 0l1.9-1.7-3.2-2.2c.1.9.1 2.1 0 2.8l-2.2-.2c.2-.7.2-2 .1-3l1.8.2-1.9-1.5 1.4-1.3 5.5 3.9.8-.7-5.1-3.6 1.3-1.2 8.7 6.2-1.3 1.2-1.7-1.2-.8.7 2 1.4-1.5 1.2zm-.7-14.3c-2.2.5-5.1.6-7.3.4.2-.5.4-1.4.5-1.9 1.8.2 4.2.1 5.8-.2l1 1.7zm3.9 10L98.4 58l4.7-4.3 7.4 5.3-4.7 4.3zm0-3l-3.9-2.8-.7.7 3.9 2.8.7-.7zm1.8-1.6l-3.9-2.8-.7.6 3.9 2.8.7-.6zm7.3 20.7c.5.4.8.2 2.5-1.2.1.5.6 1.3 1 1.7-2.3 1.8-3.3 2-4.8 1l-2-1.4c-1.8-1.3-1.7-2-.2-3.4l2.2-2-1.8-1.3c-2.5 1.8-4.7 2.5-9.2.5.3-.5.4-1.5.4-2 3.6 1.7 5.1 1.3 6.9.1l-1.8-1.3 7.9-7.4 9.8 7-7.9 7.4-2.4-1.7-2.1 2c-.4.4-.4.5.2.9l1.3 1.1zM111 70l6.3 4.4.8-.8-6.3-4.4-.8.8zm2.2-2l6.3 4.4.8-.8-6.3-4.4-.8.8zm2.1-1.9l6.3 4.4.8-.8-6.3-4.4-.8.8z" fill="#f78028"/><path d="M3.4 23.9c2.8-2.6 6.2-2.9 8.8-1.1 2.6 1.8 2.7 4.6-.1 7.2-2.8 2.6-6.3 3-8.9 1.2-2.6-1.8-2.7-4.7.2-7.3zm6.6 4.7c1.9-1.7 2.1-3.4.6-4.4s-3.5-.6-5.3 1.1c-1.8 1.7-2.1 3.5-.7 4.5s3.6.5 5.4-1.2zm8.2-1.3l2 1.4-1.8 6.3-.9 2.4h.1c.8-.9 1.8-2.1 2.8-3l3.5-3.2 1.8 1.3-8.7 8.1-2-1.4 1.8-6.3.9-2.4h-.1c-.8.9-1.8 2.1-2.8 3l-3.5 3.2-1.8-1.3 8.7-8.1zm9.8 7l1.9 1.4-7.2 6.7 3.9 2.8-1.5 1.4-5.8-4.1 8.7-8.2zm3.6 11.6l2.6-7.2 2 1.5-1.1 2.7c-.4.8-.7 1.5-1.1 2.4h.1c1-.4 1.9-.8 2.8-1.2l3.1-1.3 2 1.4-8.4 3.1-3.2 3-1.9-1.4 3.1-3zM49 49.2l6 4.2-1.4 1.3-4-2.9-2.4 2.2 3.4 2.4-1.5 1.4-3.4-2.4-3.5 3.3-1.9-1.4 8.7-8.1zm2.9 9.1c2.8-2.6 6.2-2.9 8.8-1.1 2.6 1.8 2.7 4.6-.1 7.2-2.8 2.6-6.3 3-8.9 1.2-2.6-1.9-2.7-4.7.2-7.3zm6.6 4.7c1.9-1.7 2.1-3.4.6-4.4-1.4-1-3.5-.6-5.3 1.1-1.8 1.7-2.1 3.5-.7 4.5 1.5 1 3.6.5 5.4-1.2zm4.8 10.5l1.3-4.5-1.3-1-3.3 3.2-2-1.4 8.7-8.1 3.4 2.4c2 1.4 3 3.2 1 5-1.3 1.2-2.8 1.4-4.3 1L65.5 75l-2.2-1.5zm1.3-6.7l1.3.9c1.2.9 2.4.9 3.3.1.9-.9.6-1.6-.7-2.5l-1.3-.9-2.6 2.4zm13.1 11.7l2.6-7.2 2 1.5-1.1 2.7c-.4.8-.7 1.5-1.1 2.4h.1c1-.4 1.9-.8 2.8-1.2l3.1-1.3 2 1.4-8.4 3.1-3.2 3-1.9-1.4 3.1-3zm6.6 2.8c2.8-2.6 6.2-2.9 8.8-1.1 2.6 1.8 2.7 4.6-.1 7.2-2.8 2.6-6.3 3-8.9 1.2-2.6-1.8-2.6-4.7.2-7.3zM91 86c1.9-1.7 2.1-3.4.6-4.4s-3.5-.6-5.3 1.1c-1.8 1.7-2.1 3.5-.7 4.5 1.4 1 3.5.5 5.4-1.2zm3.3 3.1l4.8-4.4 1.9 1.4-4.9 4.6c-1.8 1.7-1.7 2.7-.6 3.5 1.1.8 2.5.8 4.3-.9l4.9-4.6 1.9 1.3-4.8 4.4c-2.9 2.7-5.4 2.8-7.8 1.1-2.3-1.6-2.6-3.7.3-6.4z" fill="#3d3d3d"/></svg>