<svg xmlns="http://www.w3.org/2000/svg" width="24" height="24" viewBox="0 0 24 24">
    <g fill="none" fill-rule="evenodd">
        <g>
            <g fill="#FF625E" fill-rule="nonzero">
                <path d="M12 2.535v3.721l-.001.463v3.448l-.001.397-.001 3.567v3.299l-.001.226-.001 2.716V21c-2.192-.002-8.492-6.239-10.273-9.182-1.78-2.943-2.763-7.09.007-9.793 2.77-2.702 7.258-2.7 10.024.006l.247.242.247-.242c2.766-2.706 7.255-2.708 10.024-.006 2.77 2.703 1.787 6.85.007 9.793-1.78 2.943-8.08 9.18-10.273 9.182v-.535-.093l-.001-2.716v-3.209l-.001-.316-.001-3.567v-.397L12 6.719v-.464L12 2.535z" transform="translate(0 2)"/>
            </g>
            <path fill="#FFF" fill-rule="nonzero" d="M11.715 19.47c.16.042.318.04.474-.007.155-.048.293-.131.414-.252.12-.12.195-.265.225-.432.03-.157.043-.335.038-.535-.005-.199-.008-.16-.008-.306.382-.095.743-.22 1.084-.378.341-.157.662-.372.963-.644.201-.178.359-.406.474-.684.116-.277.186-.568.211-.872.025-.304.003-.603-.068-.896-.07-.293-.19-.545-.36-.754-.312-.378-.66-.666-1.047-.865-.386-.199-.8-.388-1.242-.566.01-.346.015-.717.015-1.116v-1.116c.12.042.239.09.354.142.116.052.23.102.346.15.116.046.234.08.354.101.12.021.246.021.376 0 .221-.042.384-.123.49-.243.105-.12.163-.254.173-.401.01-.147-.023-.301-.098-.464-.076-.162-.183-.306-.324-.432-.22-.21-.482-.367-.783-.472-.3-.104-.592-.193-.872-.267-.03-.583-.076-.951-.136-1.105-.06-.147-.143-.264-.248-.353-.106-.09-.219-.15-.339-.181-.12-.032-.246-.03-.376.008-.13.036-.246.118-.346.243-.09.105-.158.226-.204.362-.045.136-.075.277-.09.424-.01.098-.017.278-.022.54-.372.062-.743.212-1.114.447-.371.236-.682.524-.933.865-.251.34-.41.712-.474 1.116-.066.403.017.81.248 1.218.25.44.582.791.993 1.053.412.262.833.498 1.265.707 0 .367-.003.763-.008 1.187l-.003.313c-.003.307-.005.599-.005.874-.05-.021-.11-.05-.18-.087-.07-.037-.13-.07-.18-.102-.091-.063-.179-.136-.264-.22-.085-.084-.173-.168-.264-.252-.09-.083-.183-.157-.278-.22-.095-.062-.203-.1-.324-.11-.22-.031-.4-.002-.541.087-.14.089-.246.21-.316.361-.07.152-.098.32-.083.503.015.184.067.354.158.511.29.367.627.681 1.008.943.381.262.798.45 1.25.566 0 .241-.003.291-.008.574s.068.53.218.739c.11.157.246.257.407.298zm-.587-7.914c-.181-.125-.324-.233-.43-.322-.105-.089-.188-.17-.248-.244-.06-.073-.182-.287-.157-.448.025-.162.13-.254.255-.369.125-.115.319-.173.58-.173v1.556zm1.73 4.558c0-.272.003-.57.008-.896l.003-.238c.003-.234.004-.453.004-.657.231.125.427.256.587.392.16.137.266.278.316.425.05.147.03.293-.06.44-.09.147-.28.288-.572.424-.05.021-.097.04-.143.055-.045.016-.092.034-.143.055z"/>
        </g>
    </g>
</svg>
