<svg xmlns="http://www.w3.org/2000/svg" width="28" height="28" viewBox="0 0 28 28">
    <g fill="none" fill-rule="evenodd">
        <g fill="#FFF">
            <g>
                <path d="M5.1.1c.234-.114.502-.13.749-.049l6.191 2.058c.27.09.489.29.602.55l1.56 3.59c.16.366.52.602.918.602h1.356c.547 0 .993.44 1 .988l.047 3.991c.007.552-.434 1.004-.986 1.012-3.495.05-5.852.052-7.073.01-1.82-.063-4.938-.345-7-2l-.706-.52c.052-.08.103-.162.151-.246.437-.755.646-1.58.65-2.393l.452.158h2.453c.645 0 1.219-.414 1.422-1.027.324-.969-.399-1.973-1.422-1.973l-2.041.013c-.264.002-.517.108-.703.295l-.564.566c-.4-.92-1.087-1.724-2.022-2.264L0 3.387l1.338-1.404c.056-.058.118-.11.185-.152l.105-.059z" transform="translate(2.5 1.5) rotate(-30 17.324 .745)"/>
            </g>
            <path d="M4 12.597c.815 0 1.574.244 2.206.663-2.766.813-3.152 1.95-3.083 3.084l.014.172c.005.057.012.115.019.172.133 1.06 1.59 1.616 4.522 1.48-.609 1.428-2.026 2.429-3.678 2.429-2.21 0-4-1.791-4-4 0-2.21 1.79-4 4-4z" transform="translate(2.5 1.5)"/>
            <path d="M11.345 15.7c-2.494-3.053-4.354-4.186-5.579-3.4-1.225.787.224 3.373 4.348 7.759" transform="translate(2.5 1.5) rotate(-57 8.345 16.059)"/>
        </g>
    </g>
</svg>
