<svg xmlns="http://www.w3.org/2000/svg" xmlns:xlink="http://www.w3.org/1999/xlink" width="180" height="180" viewBox="0 0 180 180">
    <defs>
        <path id="8k1sstneha" d="M0 0H180V180H0z"/>
    </defs>
    <g fill="none" fill-rule="evenodd">
        <g>
            <mask id="8aqahavucb" fill="#fff">
                <use xlink:href="#8k1sstneha"/>
            </mask>
            <g mask="url(#8aqahavucb)">
                <g>
                    <g>
                        <path fill="#BCE9E7" d="M67.609 134.157c35.289 0 63.896 0 63.896-12s-28.607-12-63.896-12c-35.29 0-63.897 0-63.897 12s28.608 12 63.897 12z" transform="translate(17.983 -5.976) translate(0 39.965)"/>
                        <g>
                            <path fill="#BCE9E7" d="M19.12 27.408l28.895-12.69c6.721-2.952 14.563.104 17.515 6.825l.087.204L87.23 73.28c2.84 6.77-.347 14.56-7.117 17.399-.88.368-1.796.642-2.734.814l-47.276 8.702c-7.868.891-10.953-4.415-10.955-8.368l-.027-64.42z" transform="translate(17.983 -5.976) translate(0 39.965) rotate(-13 110.85 12.63) scale(1 -1) rotate(18 402.288 0)"/>
                            <g>
                                <path fill="#DCF2F1" d="M0 8.468c0 2.49 2.196 7.691 12.624 7.691l66.614-.481c7.341-.054 13.335 5.854 13.388 13.195V73.42c0 7.34-5.95 13.291-13.292 13.291H15.951C7.14 86.71 0 79.57 0 70.76V8.468z" transform="translate(17.983 -5.976) translate(0 39.965) rotate(-13 110.85 12.63) rotate(7 -134.848 94.958)"/>
                                <g>
                                    <path fill="#BCE9E7" d="M14.43 0h23.546c2.936 0 5.317 2.38 5.317 5.317v17.597c0 2.937-2.38 5.317-5.317 5.317H14.431C6.46 28.231 0 21.911 0 14.116 0 6.32 6.461 0 14.43 0z" transform="translate(17.983 -5.976) translate(0 39.965) rotate(-13 110.85 12.63) rotate(7 -134.848 94.958) rotate(6 -309.845 584.792)"/>
                                    <path fill="#EEF8F7" d="M15.102 21.173c3.892 0 7.048-3.16 7.048-7.057 0-3.898-3.156-7.058-7.048-7.058s-7.048 3.16-7.048 7.058c0 3.898 3.156 7.057 7.048 7.057z" transform="translate(17.983 -5.976) translate(0 39.965) rotate(-13 110.85 12.63) rotate(7 -134.848 94.958) rotate(6 -309.845 584.792)"/>
                                </g>
                            </g>
                        </g>
                    </g>
                    <g>
                        <path fill="#DCF2F1" d="M29.698 0C46.1 0 59.397 13.353 59.397 29.824c0 14.127-9.78 25.96-22.912 29.043L28.64 76.59l-6.62-17.948C9.34 55.244 0 43.63 0 29.824 0 13.353 13.296 0 29.698 0z" transform="translate(17.983 -5.976) rotate(41 62.11 166.122)"/>
                        <g fill="#FFF" fill-rule="nonzero">
                            <path d="M8.439 31.349c.329 0 .64-.114.93-.34.292-.227.501-.58.628-1.059-.025-.453-.038-.9-.038-1.341v-1.304c.81-.15 1.628-.365 2.452-.642.823-.277 1.564-.661 2.223-1.153.659-.491 1.197-1.102 1.615-1.833.419-.73.628-1.624.628-2.683 0-.906-.21-1.687-.628-2.342-.418-.655-.956-1.222-1.615-1.7-.659-.48-1.394-.883-2.204-1.21-.811-.328-1.622-.643-2.433-.945.025-1.134.032-2.242.019-3.325-.013-1.084-.006-2.18.019-3.288.203.076.462.189.78.34.316.151.652.302 1.006.454.355.15.71.29 1.065.415.354.126.684.19.988.19.456 0 .823-.146 1.102-.435.279-.29.418-.624.418-1.002 0-.453-.215-.863-.646-1.228-.43-.365-.944-.68-1.54-.945-.595-.264-1.19-.485-1.786-.66-.595-.177-1.058-.29-1.387-.341 0-.277.006-.542.019-.794s.019-.516.019-.793c0-.806-.089-1.505-.266-2.097C9.63.696 9.199.4 8.515.4c-.71 0-1.153.32-1.33.963-.178.643-.267 1.392-.267 2.249v1.284c-.963.126-1.824.366-2.584.718-.76.353-1.4.794-1.92 1.323-.52.529-.918 1.115-1.197 1.757-.279.643-.418 1.304-.418 1.984 0 .857.228 1.619.684 2.286.456.668 1 1.247 1.634 1.739.634.49 1.305.9 2.015 1.228.71.327 1.305.604 1.786.831L6.88 23.83l-.684-.34c-.481-.252-.912-.523-1.292-.813-.38-.29-.722-.56-1.026-.812-.305-.252-.583-.466-.837-.643-.253-.176-.506-.264-.76-.264-.33 0-.608.094-.836.283-.228.19-.393.422-.494.7-.101.276-.133.572-.095.887.038.315.146.586.323.813.33.403.659.774.988 1.114.33.34.703.655 1.121.945.419.29.913.548 1.483.775.57.227 1.248.44 2.033.642l.038.038c.026.454.038.932.038 1.436 0 .504.038.957.114 1.36.076.404.222.737.437 1.002.216.264.552.397 1.008.397zm-1.52-17.837c-.76-.378-1.426-.85-1.996-1.417-.57-.567-.855-1.215-.855-1.946.126-.353.304-.642.532-.87.228-.226.475-.415.74-.566.267-.151.54-.264.818-.34.279-.076.532-.151.76-.227v5.366zm3.04 10.581c0-1.008.006-2.015.019-3.023s.019-2.028.019-3.06c.71.352 1.299.698 1.767 1.038.47.34.957.725 1.464 1.153.354.504.481 1.008.38 1.511-.102.504-.38.945-.836 1.323-.583.328-1.09.573-1.52.737-.431.164-.862.27-1.293.321z" transform="translate(17.983 -5.976) rotate(41 62.11 166.122) translate(21.168 13.819) rotate(3 8.838 15.874)"/>
                        </g>
                    </g>
                </g>
            </g>
        </g>
    </g>
</svg>
