<svg xmlns="http://www.w3.org/2000/svg" width="48" height="48" viewBox="0 0 48 48">
    <g fill="none" fill-rule="evenodd">
        <g>
            <g>
                <g>
                    <path fill="#00CDC3" d="M15.664 0h16.672C40.987 0 48 7.013 48 15.664c0 8.65-7.013 15.664-15.664 15.664H15.664C7.013 31.328 0 24.315 0 15.664S7.013 0 15.664 0z" transform="translate(-747 -1395) translate(747 1395) rotate(180 24 15.664)"/>
                    <path fill="#FFF" fill-rule="nonzero" d="M9.577 21.258V16.66c0-1.316-.17-2.756-.279-3.994h.077l1.162 2.461 3.313 6.132h2.323V9.785h-2.168v4.583c0 1.3.186 2.818.294 4.01h-.077l-1.146-2.477-3.329-6.116H7.41v11.473h2.168zm16.74 0v-1.92H21.41v-3.066h4.025v-1.92H21.41v-2.647h4.738v-1.92h-7.03v11.473h7.2zm6.32 0l1.254-5.667c.186-.898.34-1.78.495-2.663h.062c.14.882.31 1.765.496 2.663l1.285 5.667h2.849l2.121-11.473h-2.167l-.914 5.605c-.17 1.192-.34 2.415-.511 3.654h-.077c-.248-1.239-.48-2.478-.728-3.654l-1.316-5.605h-1.967l-1.331 5.605c-.248 1.192-.496 2.415-.728 3.654h-.062c-.17-1.239-.356-2.447-.526-3.654l-.914-5.605h-2.323l2.2 11.473h2.802z" transform="translate(-747 -1395) translate(747 1395)"/>
                </g>
                <path fill="#00CDC3" d="M4.333 32.775l9.292-1.666c1-.101 1.892.03 2.678.39l-12.63-5.812c.934.43 1.28 1.126 1.039 2.088l-1.254 4.006c-.128.408.099.843.507.97.119.038.245.046.368.024z" transform="translate(-747 -1395) translate(747 1395)"/>
            </g>
        </g>
    </g>
</svg>
