<?xml version="1.0" encoding="UTF-8"?>
<svg width="100px" height="122px" viewBox="0 0 100 122" version="1.1" xmlns="http://www.w3.org/2000/svg" xmlns:xlink="http://www.w3.org/1999/xlink">
    <title>2C4ABE5A-CECE-41B5-BBD5-2BD09EB67B78</title>
    <defs>
        <rect id="path-1" x="0" y="0" width="100" height="122"></rect>
    </defs>
    <g id="2-首頁" stroke="none" stroke-width="1" fill="none" fill-rule="evenodd">
        <g id="首頁-頭像與總資產區塊_guide" transform="translate(-330.000000, -1385.000000)">
            <g id="Group-19" transform="translate(330.000000, 1385.000000)">
                <mask id="mask-2" fill="white">
                    <use xlink:href="#path-1"></use>
                </mask>
                <g id="Rectangle"></g>
                <g id="Img_Home-Avatar_Body" mask="url(#mask-2)">
                    <g transform="translate(22.222222, 28.994110)" id="mask-thing">
                        <polygon id="Rectangle" fill="#324148" transform="translate(56.636630, 33.372876) rotate(-27.000000) translate(-56.636630, -33.372876) " points="55.1035088 20.9005336 58.1069219 20.9080732 58.1697521 45.845218 55.166339 45.8376784"></polygon>
                        <path d="M27.5060697,0 C38.4237278,0 46.8015175,1.64565834 52.6394387,4.93697502 C54.1800044,5.80551738 55.1330031,7.4368215 55.1330031,9.20535436 L55.1330031,18.2218323 C55.1330031,24.6638612 49.9107069,29.8861574 43.468678,29.8861574 L11.6643251,29.8861574 C5.22229625,29.8861574 7.88921006e-16,24.6638612 0,18.2218323 L0,9.18839767 C1.95558849e-06,7.42661384 0.945804191,5.80044865 2.47714748,4.9293172 C8.25390812,1.64310573 16.5968822,0 27.5060697,0 Z M17.4471529,14.1050117 C13.9782662,14.1050117 11.1661778,16.2553689 11.1661778,18.9079691 C11.1661778,21.5605692 13.9782662,23.7109265 17.4471529,23.7109265 C20.9160396,23.7109265 23.7281279,21.5605692 23.7281279,18.9079691 C23.7281279,16.2553689 20.9160396,14.1050117 17.4471529,14.1050117 Z M37.6858502,14.1050117 C34.2169635,14.1050117 31.4048752,16.2553689 31.4048752,18.9079691 C31.4048752,21.5605692 34.2169635,23.7109265 37.6858502,23.7109265 C41.154737,23.7109265 43.9668253,21.5605692 43.9668253,18.9079691 C43.9668253,16.2553689 41.154737,14.1050117 37.6858502,14.1050117 Z" id="Combined-Shape" fill="#107778"></path>
                        <path d="M28.1459585,8.98787319 L28.1459585,11.1871488 C28.1459585,11.6472768 28.521021,12.0151515 28.985548,12.0151515 L32.8703704,12.0151515 L32.8703704,2.77272727 L28.985548,2.77272727 C28.521021,2.77272727 28.1459585,3.14629661 28.1459585,3.60642469 L28.1459585,5.66333389 L30.4364781,5.66333389 C30.8941233,5.66333389 31.2703328,6.03006964 31.2703328,6.49247559 L31.2703328,8.15075898 C31.2703328,8.61658171 30.8941233,8.98787319 30.4364781,8.98787319 L28.1459585,8.98787319 Z M27.4084501,8.98787319 L27.4084501,11.1871488 C27.4084501,11.6472768 27.0310936,12.0151515 26.5688605,12.0151515 L22.6851852,12.0151515 L22.6851852,2.77272727 L26.5688605,2.77272727 C27.0310936,2.77272727 27.4084501,3.14629661 27.4084501,3.60642469 L27.4084501,5.66333389 L25.1190774,5.66333389 C24.6579913,5.66333389 24.2748999,6.03006964 24.2748999,6.49247559 L24.2748999,8.15075898 C24.2748999,8.61658171 24.6579913,8.98787319 25.1190774,8.98787319 L27.4084501,8.98787319 Z" id="Fill-772" fill="#009944"></path>
                        <g id="Group-94" transform="translate(81.501847, 75.069571) rotate(-23.000000) translate(-81.501847, -75.069571) translate(64.460737, 29.742232)">
                            <path d="M2.20806049,13.8598208 C5.8872215,10.4528125 8.18394133,8.55885108 9.09821998,8.17793656 C9.9969322,7.80350745 10.7970545,7.22075362 11.1649905,6.80209572 C12.3567353,5.44606281 11.8465798,1.25041673 14.3266022,5.04892451e-12 C18.0313999,0.0838269524 19.8355188,3.35250493 19.7389588,9.80603394 L20.3618244,34.3606471 L17.5401921,35.7119346 C13.7341119,37.5346753 9.17105047,35.9268626 7.34830841,32.1207831 C7.14149098,31.6889263 6.97572465,31.2385852 6.85319669,30.7757023 C6.85319669,30.7757023 6.85319669,30.7757023 6.85319669,30.7757023 C6.64200597,29.9778713 2.4882565,24.9178729 1.0599484,22.6616366 C1.0599484,22.6616366 1.0599484,22.6616366 1.0599484,22.6616366 C-0.729669158,19.8346554 -0.246837841,16.1331504 2.20807225,13.8598335 Z" id="Rectangle" fill="#FFD8CD"></path>
                            <path d="M1.42811717,27.5080575 L21.5521574,27.5080575 L30.9044313,74.6398635 C32.3454432,81.9020008 27.6264888,88.9572972 20.3643516,90.3983091 C19.5050895,90.5688109 18.6311836,90.6546776 17.7551686,90.6546776 C8.7379871,90.6546776 1.42811717,83.3448076 1.42811717,74.3276261 L1.42811717,27.5080575 L1.42811717,27.5080575 Z" id="Rectangle" fill="#EEF8F7"></path>
                        </g>
                    </g>
                </g>
            </g>
        </g>
    </g>
</svg>