<svg width="24" height="24" viewBox="0 0 24 24" fill="none" xmlns="http://www.w3.org/2000/svg">
<rect width="24" height="24" fill="#C0C0C0"/>
<path d="M1 1L23 23" stroke="#9E9E9E" stroke-linecap="round"/>
<path d="M23 1L1 23" stroke="#9E9E9E" stroke-linecap="round"/>
<rect y="4" width="24" height="16" fill="#C0C0C0"/>
<path d="M11.2988 16H5.70898V15.2207L8.66211 11.9395C9.09961 11.4434 9.40039 11.041 9.56445 10.7324C9.73242 10.4199 9.81641 10.0977 9.81641 9.76562C9.81641 9.32031 9.68164 8.95508 9.41211 8.66992C9.14258 8.38477 8.7832 8.24219 8.33398 8.24219C7.79492 8.24219 7.375 8.39648 7.07422 8.70508C6.77734 9.00977 6.62891 9.43555 6.62891 9.98242H5.54492C5.54492 9.19727 5.79688 8.5625 6.30078 8.07812C6.80859 7.59375 7.48633 7.35156 8.33398 7.35156C9.12695 7.35156 9.75391 7.56055 10.2148 7.97852C10.6758 8.39258 10.9062 8.94531 10.9062 9.63672C10.9062 10.4766 10.3711 11.4766 9.30078 12.6367L7.01562 15.1152H11.2988V16ZM17.0234 13.1348H18.207V14.0195H17.0234V16H15.9336V14.0195H12.0488V13.3809L15.8691 7.46875H17.0234V13.1348ZM13.2793 13.1348H15.9336V8.95117L15.8047 9.18555L13.2793 13.1348Z" fill="#757575"/>
</svg>
