<svg width="40" height="40" viewBox="0 0 40 40" fill="none" xmlns="http://www.w3.org/2000/svg">
<path d="M36 20C36 28.8366 28.8366 36 20 36C11.1634 36 4 28.8366 4 20C4 11.1634 11.1634 4 20 4C24.3161 4 28.2331 5.70901 31.1111 8.48724C34.1254 11.397 36 15.4796 36 20Z" fill="#EFFFFE"/>
<path d="M25.864 35.8245C24.661 35.8245 23.935 36.2194 22.8619 35.8245C18.8642 34.3532 16 30.3835 16 25.7172C16 19.7982 20.6083 15 26.2928 15C30.7744 15 34.587 17.9823 36 22.1448C35.2991 27.0568 29.2949 33.3085 25.864 35.8245Z" fill="#C9EBE9"/>
<path d="M36 20C36 28.8366 28.8366 36 20 36C11.1634 36 4 28.8366 4 20C4 11.1634 11.1634 4 20 4" stroke="#009891" stroke-width="2"/>
<path d="M10.2729 16.7223C10.5318 15.8579 11.02 15.1153 11.7376 14.4945C12.4551 13.8659 13.328 13.5516 14.3562 13.5516C15.1847 13.5516 15.9023 13.7284 16.5089 14.082C17.1229 14.4277 17.5963 14.9032 17.9292 15.5082C18.2621 16.1133 18.4285 16.8009 18.4285 17.571C18.4285 18.404 18.1992 19.1466 17.7405 19.7988C17.2819 20.4511 16.7419 21.0444 16.1205 21.5787L14.556 22.9225C14.2157 23.2054 13.8976 23.4961 13.6017 23.7947C13.3058 24.0855 13.1061 24.3487 13.0025 24.5845C14.8653 24.5845 15.5244 24.5845 17.469 24.5845C19.8549 24.5845 19.3452 26.8948 17.7405 26.8948L11.094 26.8123C10.9165 26.6551 10.7093 26.4037 10.4726 26.0579C10.2359 25.7121 10.1176 25.3939 10.1176 25.1031C10.1176 24.5216 10.358 23.9047 10.8388 23.2525C11.3196 22.5924 11.867 21.9834 12.481 21.4255L14.5338 19.5631C14.8741 19.2723 15.1478 18.958 15.3549 18.6201C15.562 18.2822 15.6656 17.9168 15.6656 17.5239C15.6656 17.0995 15.5287 16.7341 15.255 16.4277C14.9887 16.1212 14.6336 15.9679 14.1898 15.9679C13.7164 15.9679 13.3095 16.1448 12.9692 16.4984C12.6364 16.8441 12.3848 17.2488 12.2147 17.7125C11.094 18.9973 9.31649 18.514 10.2729 16.7223Z" fill="#009891"/>
<path d="M22.1143 24.4195C21.5011 24.4195 20.9175 24.0975 20.7014 23.5236C20.5905 23.2014 20.535 22.9185 20.535 22.6749C20.535 22.4628 20.5757 22.2427 20.6571 22.0148C20.7458 21.787 20.8309 21.5826 20.9123 21.4019L24.8507 13.5516C25.0178 12.3728 27.4035 13.2915 26.8043 14.3649L24.8736 18.6319C24.6664 19.0877 24.3964 19.6535 24.0635 20.3293C23.7381 20.9972 23.4274 21.6023 23.1315 22.1445L23.187 22.2388C23.4533 22.2074 23.7529 22.1799 24.0857 22.1563C24.426 22.1327 24.7367 22.117 25.0178 22.1091C25.3063 22.0934 25.5097 22.0856 25.6281 22.0856C25.6207 21.9756 25.617 21.8695 25.617 21.7673C25.617 21.6652 25.617 21.5905 25.617 21.5433V20.5414C25.617 18.6319 28.158 18.6201 28.158 20.3646C28.158 20.6082 28.1506 20.895 28.1358 21.2251C28.1284 21.5551 28.1247 21.842 28.1247 22.0856C28.2505 22.0856 28.3984 22.0816 28.5685 22.0738C28.7461 22.0659 28.8977 22.062 29.0235 22.062C30.4298 22.062 30.2439 24.3959 28.9347 24.3959C28.8163 24.3959 28.6795 24.3959 28.5242 24.3959C28.3762 24.388 28.2431 24.3841 28.1247 24.3841C28.1247 24.6198 28.1284 24.8438 28.1358 25.056C28.1432 25.2681 28.1469 25.496 28.1469 25.7396C28.1469 27.4177 25.617 27.4225 25.617 25.7396C25.617 25.496 25.6207 25.2681 25.6281 25.056C25.6355 24.8438 25.6392 24.6198 25.6392 24.3841C25.4173 24.3841 25.1953 24.3919 24.9734 24.4077C24.7515 24.4155 24.5259 24.4195 24.2966 24.4195H22.1143Z" fill="#009891"/>
<path d="M20 4C25.1745 4 36.817 8 35.9546 20" stroke="#009891" stroke-width="2" stroke-linecap="round" stroke-linejoin="round" stroke-dasharray="1 3"/>
</svg>
