<svg width="40" height="40" viewBox="0 0 40 40" fill="none" xmlns="http://www.w3.org/2000/svg">
<path d="M32.9657 12.378L32.9651 12.3451C32.949 11.4831 32.9337 10.6689 32.9337 9.8855C32.9337 8.69882 31.9806 7.73342 30.8089 7.73342C26.2755 7.73342 22.8348 6.42432 19.9808 3.61368C19.1501 2.79548 17.8487 2.79542 17.0181 3.61361C14.1642 6.42432 10.7238 7.73342 6.19109 7.73342C5.01944 7.73342 4.06627 8.69882 4.06627 9.8855C4.06627 10.6856 4.05073 11.5079 4.03426 12.3787C3.95759 16.4438 3.86219 21.5028 5.53846 26.095C6.46017 28.6202 7.85577 30.8146 9.68651 32.6174C11.7716 34.6706 14.5026 36.2993 17.8033 37.4581C18.0278 37.5369 18.262 37.5769 18.4994 37.5769C18.737 37.5769 18.9713 37.5369 19.1953 37.4581C22.4965 36.2992 25.2277 34.6705 27.313 32.6172C29.1438 30.8144 30.5396 28.6199 31.4614 26.0947C33.1378 21.5022 33.0424 16.4431 32.9657 12.378Z" fill="#EFFFFE"/>
<path d="M19.6447 35C16.2939 33.2494 14 29.6868 14 25.5766C14 19.7353 18.6333 15 24.3487 15C26.8505 15 29.1449 15.9073 30.9342 17.4176C31.875 24.6151 22.4671 33.2687 19.6447 35Z" fill="#C9EBE9"/>
<path fill-rule="evenodd" clip-rule="evenodd" d="M30.9661 12.4157L30.9661 12.4144L30.9655 12.3814L30.9652 12.3667C30.9492 11.5142 30.9337 10.686 30.9337 9.8855C30.9337 9.83728 30.9163 9.79882 30.8875 9.76963C30.8591 9.74086 30.8328 9.73342 30.8089 9.73342C25.8256 9.73342 21.856 8.26739 18.5774 5.03869C18.5573 5.01883 18.5414 5.01039 18.5315 5.0064C18.5207 5.00198 18.5099 5 18.4993 5C18.4888 5 18.4781 5.00198 18.4672 5.00638C18.4575 5.01034 18.4418 5.01858 18.4217 5.0384C15.1433 8.26716 11.1739 9.73342 6.19109 9.73342C6.16716 9.73342 6.14091 9.74086 6.1125 9.76963C6.08368 9.79882 6.06627 9.83728 6.06627 9.8855C6.06627 10.7054 6.0504 11.5445 6.03405 12.4088L6.03391 12.4164C6.03391 12.4165 6.03391 12.4164 6.03391 12.4164C5.95613 16.5402 5.88925 21.2234 7.41721 25.4093C8.24203 27.669 9.4802 29.6073 11.0898 31.1923C12.928 33.0024 15.3894 34.491 18.4658 35.571C18.4777 35.5752 18.4882 35.5769 18.4994 35.5769C18.5109 35.5769 18.5209 35.5752 18.5319 35.5714C21.6088 34.4912 24.0714 33.0023 25.9097 31.1921C27.5195 29.607 28.7578 27.6686 29.5827 25.4089L31.4614 26.0947C30.5396 28.6199 29.1438 30.8144 27.313 32.6172C25.2277 34.6705 22.4965 36.2992 19.1953 37.4581C18.9713 37.5369 18.737 37.5769 18.4994 37.5769C18.262 37.5769 18.0278 37.5369 17.8033 37.4581C14.5026 36.2993 11.7716 34.6706 9.68651 32.6174C7.85577 30.8146 6.46017 28.6202 5.53846 26.095C3.86219 21.5028 3.95759 16.4438 4.03426 12.3787C4.05073 11.5079 4.06627 10.6856 4.06627 9.8855C4.06627 8.69882 5.01944 7.73342 6.19109 7.73342C10.7238 7.73342 14.1642 6.42432 17.0181 3.61361C17.8487 2.79542 19.1501 2.79548 19.9808 3.61368C22.8348 6.42432 26.2755 7.73342 30.8089 7.73342C31.9806 7.73342 32.9337 8.69882 32.9337 9.8855C32.9337 10.6672 32.9489 11.4797 32.965 12.3397L32.9657 12.378C33.0424 16.4431 33.1378 21.5022 31.4614 26.0947L29.5827 25.4089C31.1108 21.2227 31.0439 16.5395 30.9661 12.4157Z" fill="#009891"/>
<path fill-rule="evenodd" clip-rule="evenodd" d="M30 26L30 21C30 19.3431 28.6569 18 27 18C25.3431 18 24 19.3431 24 21L24 26C24 27.6569 25.3431 29 27 29C28.6569 29 30 27.6569 30 26ZM32 21C32 18.2386 29.7614 16 27 16C24.2386 16 22 18.2386 22 21L22 26C22 28.7614 24.2386 31 27 31C29.7614 31 32 28.7614 32 26L32 21Z" fill="#009891"/>
<path d="M18 25C18 23.3431 19.3431 22 21 22H34C35.6569 22 37 23.3431 37 25V34C37 35.6569 35.6569 37 34 37H21C19.3431 37 18 35.6569 18 34V25Z" fill="#EFFFFE"/>
<path fill-rule="evenodd" clip-rule="evenodd" d="M21 24H34C34.5523 24 35 24.4477 35 25V34C35 34.5523 34.5523 35 34 35H21C20.4477 35 20 34.5523 20 34V25C20 24.4477 20.4477 24 21 24ZM18 25C18 23.3431 19.3431 22 21 22H34C35.6569 22 37 23.3431 37 25V34C37 35.6569 35.6569 37 34 37H21C19.3431 37 18 35.6569 18 34V25ZM29.5 28C29.5 28.7403 29.0978 29.3866 28.5 29.7324V31.5C28.5 32.0523 28.0523 32.5 27.5 32.5C26.9477 32.5 26.5 32.0523 26.5 31.5V29.7324C25.9022 29.3866 25.5 28.7403 25.5 28C25.5 26.8954 26.3954 26 27.5 26C28.6046 26 29.5 26.8954 29.5 28Z" fill="#009891"/>
</svg>
