<svg width="24" height="24" viewBox="0 0 24 24" fill="none" xmlns="http://www.w3.org/2000/svg">
<path d="M18 9.5H17V10.5V21.5C17 22.0523 16.5523 22.5 16 22.5H8.5C7.94772 22.5 7.5 22.0523 7.5 21.5V10.5V9.5H6.5H4.41421L12.0329 1.88134L20.4134 9.5L18 9.5Z" fill="#EFFFFE" stroke="#009891" stroke-width="2"/>
<mask id="mask0" style="mask-type:alpha" maskUnits="userSpaceOnUse" x="4" y="1" width="16" height="23">
<path d="M7.5 10.5V9.5H6.5C5.73029 9.5 5.34482 8.56939 5.88909 8.02513L11.3586 2.55558C11.7361 2.17813 12.3434 2.16368 12.7384 2.52275L18.6276 7.87657C19.2587 8.45025 18.8528 9.5 18 9.5H17V10.5V21.5C17 22.0523 16.5523 22.5 16 22.5H8.5C7.94772 22.5 7.5 22.0523 7.5 21.5V10.5Z" fill="#EFFFFE" stroke="#009891" stroke-width="2"/>
</mask>
<g mask="url(#mask0)">
<circle cx="15.5" cy="19.5" r="5.5" fill="#C9EBE9"/>
</g>
<path d="M18 9.5H17V10.5V21.5C17 22.0523 16.5523 22.5 16 22.5H8.5C7.94772 22.5 7.5 22.0523 7.5 21.5V10.5V9.5H6.5H4.41421L12.0329 1.88134L20.4134 9.5L18 9.5Z" stroke="#009891" stroke-width="2"/>
<path fill-rule="evenodd" clip-rule="evenodd" d="M13.5118 13.7434C13.9353 14.0661 14.2203 14.5624 14.2203 15.1919C14.2203 15.5249 13.9504 15.7948 13.6174 15.7948C13.2844 15.7948 13.0145 15.5249 13.0145 15.1919C13.0145 14.9602 12.9227 14.8105 12.781 14.7026C12.6226 14.5819 12.3813 14.5029 12.1101 14.5029C11.839 14.5029 11.5977 14.5819 11.4393 14.7026C11.2976 14.8105 11.2058 14.9602 11.2058 15.1919C11.2058 15.1933 11.2057 15.1948 11.2057 15.1965C11.2049 15.2212 11.2031 15.2712 11.373 15.3683C11.5791 15.486 11.8773 15.575 12.2758 15.6888C12.2878 15.6923 12.3 15.6958 12.3123 15.6993C12.6617 15.799 13.0985 15.9236 13.4455 16.1219C13.8298 16.3415 14.2203 16.7221 14.2203 17.3452C14.2203 17.982 13.9267 18.4687 13.4724 18.7607C13.0485 19.0332 12.5304 19.11 12.0672 19.077C11.6004 19.0436 11.1161 18.8942 10.7314 18.6285C10.3455 18.3621 10 17.9292 10 17.3452C10 17.0122 10.2699 16.7423 10.6029 16.7423C10.9359 16.7423 11.2058 17.0122 11.2058 17.3452C11.2058 17.407 11.2371 17.5124 11.4165 17.6363C11.597 17.7609 11.8662 17.8537 12.1531 17.8742C12.4435 17.895 12.6791 17.8372 12.8204 17.7464C12.9313 17.6751 13.0145 17.5696 13.0145 17.3452C13.0145 17.3438 13.0145 17.3423 13.0146 17.3406C13.0154 17.3159 13.0171 17.2659 12.8473 17.1688C12.6412 17.0511 12.343 16.9621 11.9445 16.8483C11.9325 16.8448 11.9203 16.8413 11.908 16.8378C11.5586 16.7381 11.1218 16.6135 10.7748 16.4152C10.3905 16.1956 10 15.815 10 15.1919C10 14.5624 10.285 14.0661 10.7085 13.7434C11.1153 13.4335 11.6276 13.2971 12.1101 13.2971C12.5927 13.2971 13.105 13.4335 13.5118 13.7434Z" fill="#009891"/>
<path fill-rule="evenodd" clip-rule="evenodd" d="M12.3256 14.0032C11.9926 14.0032 11.7227 13.7333 11.7227 13.4003V12.5563C11.7227 12.2233 11.9926 11.9534 12.3256 11.9534C12.6585 11.9534 12.9285 12.2233 12.9285 12.5563V13.4003C12.9285 13.7333 12.6585 14.0032 12.3256 14.0032Z" fill="#009891"/>
<path fill-rule="evenodd" clip-rule="evenodd" d="M12.3256 20.1011C11.9926 20.1011 11.7227 19.8312 11.7227 19.4982V18.637C11.7227 18.304 11.9926 18.0341 12.3256 18.0341C12.6585 18.0341 12.9285 18.304 12.9285 18.637V19.4982C12.9285 19.8312 12.6585 20.1011 12.3256 20.1011Z" fill="#009891"/>
</svg>
