<svg width="24" height="24" viewBox="0 0 24 24" fill="none" xmlns="http://www.w3.org/2000/svg">
<circle cx="12.5" cy="11.5" r="6.5" fill="white" fill-opacity="0.4"/>
<path d="M19 10.5065C19 5.80849 15.1944 2 10.5 2C5.80558 2 2 5.80849 2 10.5065C2 13.7466 3.81018 16.5637 6.47368 18" stroke="white" stroke-width="2" stroke-linecap="round"/>
<path d="M21.6975 15.623L21.0811 14.3385C20.668 13.0557 16.1975 13.123 18.1975 17.123C17.1975 13.123 13.2172 14.3385 13.9749 16.623M14.6974 18.623C14.6974 18.623 13.9139 16.7978 13.9749 16.623M14.6974 18.623L13.9749 16.623M14.6974 18.623L12.1266 11.0504C11.1974 9.12301 8.12384 9.62301 8.6975 12.123L11.6975 20.123L10.17 19.0454C7.62347 17.123 5.19762 19.623 7.62382 21.2713L8.69754 22.123" stroke="white" stroke-width="2" stroke-linecap="round" stroke-linejoin="round"/>
</svg>
