<svg width="110" height="64" viewBox="0 0 110 64" fill="none" xmlns="http://www.w3.org/2000/svg">
<g clip-path="url(#clip0_4681_67359)">
<path d="M74.085 63.297L74.5156 67.0144L72.6901 67.2282L72.2595 63.5109L74.085 63.297Z" fill="#EC8822"/>
<path d="M82.8183 8.05475C68.0236 7.86994 56.1235 19.0511 56.1695 33.1431C56.2154 49.037 65.4506 60.7727 69.7696 63.9145C74.6399 67.5183 75.6047 63.1752 78.1318 63.2676C80.6129 63.4062 81.1642 64.2841 84.8859 66.1322C86.2643 66.8253 88.6535 66.8715 90.7211 65.9936C100.691 61.9277 107.813 50.4231 107.951 34.6216C108.135 19.5132 96.8319 8.19336 82.8183 8.05475Z" fill="#E7E4E2"/>
<path d="M63.7432 47.4199C62.7784 47.0503 62.1351 46.2186 61.8594 45.2021C61.4919 46.6344 62.181 48.1591 63.4216 48.6212C64.6621 49.0832 65.9946 48.344 66.5 46.9579C65.673 47.5585 64.6621 47.7433 63.7432 47.4199Z" fill="#989899"/>
<path d="M68.1536 54.4427C67.2346 54.1655 66.4995 53.4262 66.1779 52.5483C65.9481 53.842 66.7292 55.1357 67.9238 55.5054C69.1644 55.875 70.359 55.1819 70.7266 53.8882C70.0374 54.4889 69.0725 54.7199 68.1536 54.4427Z" fill="#989899"/>
<path d="M75.0025 56.3834C73.762 56.1524 72.7512 55.3207 72.1998 54.2581C72.062 55.8752 73.2106 57.3999 74.8187 57.7233C76.4268 58.0467 77.9431 57.0303 78.2188 55.4131C77.4377 56.2448 76.2431 56.6606 75.0025 56.3834Z" fill="#989899"/>
<path d="M82.2629 55.6442C83.2278 55.3207 83.9629 54.5815 84.1926 53.7036C84.6061 54.9511 83.9169 56.291 82.6304 56.6606C81.344 57.0303 79.9656 56.3834 79.4602 55.1821C80.2413 55.7366 81.2521 55.9676 82.2629 55.6442Z" fill="#989899"/>
<path d="M70.8706 49.5452C69.722 49.1294 68.849 48.2053 68.4814 47.0964C68.1139 48.6673 68.9868 50.2844 70.5031 50.8389C72.0193 51.3471 73.6274 50.5617 74.1328 49.037C73.2598 49.6838 72.0193 49.9148 70.8706 49.5452Z" fill="#989899"/>
<path d="M87.3178 49.8235C88.3286 49.4539 88.9719 48.6222 89.2016 47.5596C89.753 48.9919 89.1557 50.5166 87.8233 50.9786C86.4908 51.4407 84.9746 50.7014 84.3313 49.3153C85.2043 49.9621 86.307 50.1932 87.3178 49.8235Z" fill="#989899"/>
<path d="M79.2353 51.0239C80.5218 50.9315 81.6245 50.2385 82.2218 49.1758C82.3137 50.8853 81.0731 52.3176 79.3731 52.41C77.6731 52.5024 76.2028 51.2549 75.9271 49.5916C76.7082 50.5619 77.9488 51.1163 79.2353 51.0239Z" fill="#989899"/>
<path d="M86.5431 10.0414C86.5431 10.0414 89.254 8.19327 92.4243 8.23948C95.1351 8.28568 94.6297 6.20654 91.9648 6.85338C89.8053 7.40782 86.5431 10.0414 86.5431 10.0414Z" fill="#989899"/>
<path d="M84.9418 9.48702C84.9418 9.48702 85.2634 6.53001 83.7932 4.40466C82.7364 2.87996 83.8851 1.95589 84.6202 2.0945C85.9526 2.27931 86.504 4.45087 84.9418 9.48702Z" fill="#989899"/>
<path d="M83.6016 9.44082C83.6016 9.44082 80.8907 3.57302 78.042 4.08126C76.0204 4.45088 81.2583 6.85344 83.6016 9.44082Z" fill="#989899"/>
<path d="M58.2362 26.2126C58.6498 19.0049 63.9336 13.4143 70.1363 13.7377C72.4796 13.8763 74.5931 14.8004 76.2931 16.3251C77.7634 17.6188 79.831 17.8498 81.6688 17.1568C83.3229 16.5099 85.1148 16.1403 87.0446 16.0941C95.4987 15.8631 102.345 22.1929 102.437 30.1861C102.528 38.1793 95.8662 44.6015 87.4581 44.5091C83.5526 44.4629 80.0607 43.0768 77.3958 40.8128C75.9715 39.6116 74.1336 39.1495 72.3877 39.704C71.1471 40.1198 69.8607 40.2584 68.5282 40.166C62.3714 39.6115 57.8227 33.4203 58.2362 26.2126Z" fill="white"/>
<path d="M88.0551 33.605C85.6952 33.605 83.7821 31.6812 83.7821 29.3081C83.7821 26.935 85.6952 25.0112 88.0551 25.0112C90.415 25.0112 92.3281 26.935 92.3281 29.3081C92.3281 31.6812 90.415 33.605 88.0551 33.605Z" fill="#231F20"/>
<path d="M86.771 29.0309C85.9843 29.0309 85.3466 28.3896 85.3466 27.5985C85.3466 26.8075 85.9843 26.1663 86.771 26.1663C87.5576 26.1663 88.1953 26.8075 88.1953 27.5985C88.1953 28.3896 87.5576 29.0309 86.771 29.0309Z" fill="white"/>
<path d="M74.4579 32.1266C74.4579 32.1266 74.366 33.5589 73.7687 34.483C73.7687 34.483 76.3876 33.9748 77.3984 30.3247L74.4579 32.1266Z" fill="#EC8822"/>
<path d="M74.0434 29.3554C74.0434 29.3554 74.5488 31.3421 74.3191 33.0055C74.2731 33.4213 74.9164 33.4675 75.238 33.2365C76.3866 32.3586 77.8569 30.9725 77.4894 29.032L74.0434 29.3554Z" fill="#D32E2E"/>
<path d="M73.3042 26.9981C73.3042 26.9981 72.2934 27.1829 71.2826 29.7241C71.2826 29.7241 73.5799 29.2158 77.5312 28.9848C77.5312 29.031 75.6934 26.3974 73.3042 26.9981Z" fill="#EC8822"/>
<path d="M62.696 22.8399C62.696 22.8399 64.396 20.807 66.5096 21.2228C68.5772 21.6849 70.369 24.6881 70.4609 26.259C70.4609 26.259 68.0717 20.7608 62.696 22.8399Z" fill="#231F20"/>
<path d="M106.437 40.5357C106.437 40.5357 101.337 39.4268 99.0395 45.8491C96.8341 51.9941 100.969 55.1821 96.9719 62.4823C96.9719 62.4823 105.104 60.2183 108.045 54.5815C111.491 48.0668 110.021 42.1528 106.437 40.5357Z" fill="#989899"/>
<path d="M57.7779 34.5291L60.8563 49.4065C61.3157 51.7167 59.5698 54.1654 56.9968 54.8123C54.2859 55.5053 51.8508 53.8882 51.7589 51.3932L51.2535 36.7468L57.7779 34.5291Z" fill="#FCB316"/>
<path d="M62.0035 24.5955L67.9765 26.8594C67.9765 26.8594 70.044 33.6051 65.4954 39.2419C65.4954 39.2419 58.971 38.133 58.4656 38.2716C57.9602 38.4564 62.0035 24.5955 62.0035 24.5955Z" fill="#F78C1F"/>
<path d="M23.3185 21.6846C21.2968 36.5159 26.5806 48.0205 33.1969 48.8521C40.5943 49.8224 47.4862 40.7203 50.0132 25.9815C52.3565 12.444 47.5321 1.03177 40.0888 0.0615011C33.3347 -0.770157 25.2941 6.85337 23.3185 21.6846Z" fill="#FEF59F"/>
<path d="M55.115 18.728L55.3906 29.8168L51.4852 39.5657L38.7581 33.7903L42.6176 18.5432L55.115 18.728Z" fill="#FFD54F"/>
<path d="M39.4724 34.066C37.0042 33.5961 35.6653 29.6992 36.4818 25.3619C37.2984 21.0247 39.9611 17.8895 42.4293 18.3594C44.8976 18.8293 46.2365 22.7262 45.42 27.0635C44.6034 31.4007 41.9406 34.5358 39.4724 34.066Z" fill="#FFFEF8"/>
<path d="M50.0132 25.9817C51.2078 17.1569 49.0023 9.39473 46.3375 4.03516C50.9321 10.4112 55.3429 17.0645 65.7268 25.3811C65.7268 25.3811 67.9782 33.8363 62.9241 39.1034C62.9241 39.1034 55.4808 39.4731 38.3888 47.7896C43.6726 44.1396 48.6807 35.6382 50.0132 25.9817Z" fill="#FBBF1F"/>
<path d="M52.2626 35.8229C54.1464 33.3742 56.0302 31.9881 57.5464 33.8824C58.6492 36.3312 54.8816 40.5819 54.8816 40.5819C54.8816 40.5819 57.5924 38.7337 58.4194 40.3046C59.2465 41.8756 58.2816 44.6477 54.6059 45.9876C54.6059 45.9876 56.5816 45.2484 57.3626 46.8655C58.4194 49.1295 52.2167 53.2878 51.5734 52.5947C48.9085 49.5453 49.8734 39.3806 52.2626 35.8229Z" fill="#989899"/>
<path d="M5.96875 8.00317L16.912 17.0068" stroke="#98CECA" stroke-width="2" stroke-linecap="round" stroke-linejoin="round"/>
<path d="M0 40.0164L14.9226 34.0139" stroke="#98CECA" stroke-width="2" stroke-linecap="round" stroke-linejoin="round"/>
</g>
<defs>
<clipPath id="clip0_4681_67359">
<rect width="110" height="64" fill="white"/>
</clipPath>
</defs>
</svg>
