<svg width="24" height="24" viewBox="0 0 24 24" fill="none" xmlns="http://www.w3.org/2000/svg">
<rect x="1" y="3" width="19" height="14" rx="1" fill="#EFFFFE" stroke="#009891" stroke-width="2"/>
<path fill-rule="evenodd" clip-rule="evenodd" d="M11.4044 7.73528C11.815 8.04812 12.0913 8.52924 12.0913 9.13951C12.0913 9.4623 11.8296 9.72398 11.5068 9.72398C11.184 9.72398 10.9223 9.4623 10.9223 9.13951C10.9223 8.91482 10.8333 8.76973 10.696 8.66509C10.5424 8.54807 10.3085 8.47155 10.0456 8.47155C9.78281 8.47155 9.54888 8.54807 9.3953 8.66509C9.25796 8.76973 9.16894 8.91482 9.16894 9.13951C9.16894 9.14087 9.16889 9.14232 9.16883 9.14388C9.16802 9.16785 9.16637 9.21634 9.33106 9.31045C9.53082 9.4246 9.81988 9.51085 10.2062 9.62122C10.2179 9.62456 10.2297 9.62793 10.2416 9.63133C10.5803 9.72799 11.0038 9.84883 11.3402 10.041C11.7127 10.2539 12.0913 10.6229 12.0913 11.2269C12.0913 11.8443 11.8066 12.3161 11.3662 12.5992C10.9553 12.8634 10.4531 12.9378 10.004 12.9058C9.55151 12.8734 9.08194 12.7286 8.70899 12.4711C8.33495 12.2128 8 11.7931 8 11.2269C8 10.9041 8.26168 10.6424 8.58447 10.6424C8.90726 10.6424 9.16894 10.9041 9.16894 11.2269C9.16894 11.2869 9.19927 11.3891 9.37317 11.5091C9.54816 11.63 9.80917 11.7199 10.0873 11.7398C10.3688 11.7599 10.5972 11.7039 10.7341 11.6159C10.8417 11.5467 10.9223 11.4445 10.9223 11.2269C10.9223 11.2255 10.9224 11.2241 10.9224 11.2225C10.9233 11.1986 10.9249 11.1501 10.7602 11.056C10.5605 10.9418 10.2714 10.8556 9.88507 10.7452C9.87339 10.7418 9.86159 10.7385 9.84969 10.7351C9.51094 10.6384 9.08747 10.5176 8.75111 10.3254C8.37857 10.1125 8 9.7435 8 9.13951C8 8.52924 8.27627 8.04812 8.68687 7.73528C9.08122 7.43483 9.57788 7.30261 10.0456 7.30261C10.5134 7.30261 11.0101 7.43483 11.4044 7.73528Z" fill="#009891"/>
<path fill-rule="evenodd" clip-rule="evenodd" d="M10.2544 7.98718C9.9316 7.98718 9.66992 7.72551 9.66992 7.40271V6.58446C9.66992 6.26167 9.9316 5.99999 10.2544 5.99999C10.5772 5.99999 10.8389 6.26167 10.8389 6.58446V7.40271C10.8389 7.72551 10.5772 7.98718 10.2544 7.98718Z" fill="#009891"/>
<path fill-rule="evenodd" clip-rule="evenodd" d="M10.2544 13.8987C9.9316 13.8987 9.66992 13.637 9.66992 13.3142V12.4793C9.66992 12.1565 9.9316 11.8948 10.2544 11.8948C10.5772 11.8948 10.8389 12.1565 10.8389 12.4793V13.3142C10.8389 13.637 10.5772 13.8987 10.2544 13.8987Z" fill="#009891"/>
<path d="M1 7.5C2 8.5 5 7 5.5 4" stroke="#009891" stroke-width="2" stroke-linecap="round"/>
<path d="M1 12.3085C2 11.3085 5 12.8085 5.5 15.8085" stroke="#009891" stroke-width="2" stroke-linecap="round"/>
<path d="M20 7.5C19 8.5 15.5 7 15 4" stroke="#009891" stroke-width="2" stroke-linecap="round"/>
<circle cx="18" cy="15" r="4" fill="#EFFFFE" stroke="#009891" stroke-width="2"/>
<path d="M18.6602 19C17.6747 18.4748 17 17.406 17 16.173C17 14.4206 18.3627 13 20.0437 13C20.7795 13 21.4544 13.2722 21.9806 13.7253C22.2573 15.8845 19.4903 18.4806 18.6602 19Z" fill="#C9EBE9"/>
<circle cx="18" cy="15" r="4" stroke="#009891" stroke-width="2"/>
<path d="M20 18.5L22 21.5" stroke="#009891" stroke-width="2" stroke-linecap="round"/>
</svg>
