<svg width="25" height="24" viewBox="0 0 25 24" fill="none" xmlns="http://www.w3.org/2000/svg">
<path d="M11.6667 16.4151L10.6049 15.9643C7.86462 14.801 4.7799 14.7462 2 15.8113L2.5 21.5472L4.26581 20.9075C5.81315 20.3469 7.51172 20.3694 9.0437 20.9706L10.7117 21.6252C11.3229 21.8651 12.0046 21.8511 12.6055 21.5864L22.7618 17.1116C23.465 16.8018 23.8194 16.0099 23.5821 15.2791C23.3458 14.5516 22.5991 14.1192 21.8505 14.2764L11.6667 16.4151Z" fill="#EFFFFE"/>
<path d="M2 15.8113L5.57939 14.4398C6.06306 14.2545 6.59976 14.264 7.07653 14.4665L11.6667 16.4151L21.8505 14.2764C22.5991 14.1192 23.3458 14.5516 23.5821 15.2791V15.2791C23.8194 16.0099 23.465 16.8018 22.7618 17.1116L12.6055 21.5864C12.0046 21.8511 11.3229 21.8651 10.7117 21.6252L7.04724 20.1871C6.80196 20.0908 6.53002 20.0872 6.28228 20.177L2.5 21.5472" stroke="#009891" stroke-width="2" stroke-linecap="round" stroke-linejoin="round"/>
<path d="M11.4974 16.2642C13.8307 17.1699 11.8307 19.2831 10.3307 18.6793C9.13073 18.1963 7.71962 17.4718 7.16406 17.1699" stroke="#009891" stroke-width="2" stroke-linecap="round" stroke-linejoin="round"/>
<path d="M7.68254 4.60438L7.68273 4.60404C7.8815 4.25736 8.11984 3.93542 8.39155 3.64455L8.39222 3.64383C8.57416 3.44867 8.77158 3.26759 8.98274 3.10196L8.98301 3.10175C9.86261 2.41129 10.9697 2 12.1753 2C15.0336 2 17.3506 4.31706 17.3506 7.1754C17.3506 10.0335 15.0336 12.3506 12.1753 12.3506C9.31691 12.3506 7 10.0335 7 7.1754C7 6.23742 7.24842 5.36087 7.68254 4.60438Z" fill="#EFFFFE" stroke="#009891" stroke-width="2"/>
<path d="M12.062 12.5C10.8323 11.8176 10 10.506 10 9C10 6.79086 11.7909 5 14 5C15.3194 5 16.4897 5.63883 17.2182 6.62407C18 10 14 12.5 12.062 12.5Z" fill="#C9EBE9"/>
<path d="M7.68254 4.60438L7.68273 4.60404C7.8815 4.25736 8.11984 3.93542 8.39155 3.64455L8.39222 3.64383C8.57416 3.44867 8.77158 3.26759 8.98274 3.10196L8.98301 3.10175C9.86261 2.41129 10.9697 2 12.1753 2C15.0336 2 17.3506 4.31706 17.3506 7.1754C17.3506 10.0335 15.0336 12.3506 12.1753 12.3506C9.31691 12.3506 7 10.0335 7 7.1754C7 6.23742 7.24842 5.36087 7.68254 4.60438Z" stroke="#009891" stroke-width="2"/>
<path fill-rule="evenodd" clip-rule="evenodd" d="M13.0931 5.54601C13.3997 5.77963 13.606 6.13892 13.606 6.59465C13.606 6.83571 13.4106 7.03112 13.1696 7.03112C12.9285 7.03112 12.7331 6.83571 12.7331 6.59465C12.7331 6.42686 12.6666 6.31851 12.5641 6.24037C12.4494 6.15298 12.2747 6.09583 12.0784 6.09583C11.8821 6.09583 11.7075 6.15298 11.5928 6.24037C11.4902 6.31851 11.4237 6.42686 11.4237 6.59465C11.4237 6.59567 11.4237 6.59675 11.4236 6.59792C11.423 6.61582 11.4218 6.65203 11.5448 6.72231C11.694 6.80755 11.9098 6.87196 12.1983 6.95438C12.207 6.95688 12.2159 6.95939 12.2247 6.96193C12.4777 7.03411 12.794 7.12435 13.0451 7.26789C13.3233 7.42686 13.606 7.70241 13.606 8.15346C13.606 8.61452 13.3935 8.96682 13.0646 9.17823C12.7577 9.37553 12.3827 9.43115 12.0473 9.40719C11.7094 9.38306 11.3588 9.27487 11.0802 9.08257C10.8009 8.8897 10.5508 8.5763 10.5508 8.15346C10.5508 7.91241 10.7462 7.71699 10.9872 7.71699C11.2283 7.71699 11.4237 7.91241 11.4237 8.15346C11.4237 8.19827 11.4464 8.27457 11.5762 8.36423C11.7069 8.45446 11.9018 8.52164 12.1095 8.53648C12.3197 8.55149 12.4903 8.50968 12.5926 8.44394C12.6729 8.3923 12.7331 8.31593 12.7331 8.15346C12.7331 8.15245 12.7332 8.15136 12.7332 8.1502C12.7338 8.1323 12.735 8.09609 12.612 8.02581C12.4629 7.94056 12.247 7.87616 11.9585 7.79373C11.9498 7.79124 11.941 7.78872 11.9321 7.78619C11.6791 7.714 11.3629 7.62376 11.1117 7.48022C10.8335 7.32125 10.5508 7.0457 10.5508 6.59465C10.5508 6.13892 10.7571 5.77963 11.0637 5.54601C11.3582 5.32163 11.7291 5.2229 12.0784 5.2229C12.4277 5.2229 12.7986 5.32163 13.0931 5.54601Z" fill="#009891"/>
<path fill-rule="evenodd" clip-rule="evenodd" d="M12.2353 5.73419C11.9942 5.73419 11.7988 5.53878 11.7988 5.29773V4.68667C11.7988 4.44562 11.9942 4.25021 12.2353 4.25021C12.4763 4.25021 12.6718 4.44562 12.6718 4.68667V5.29773C12.6718 5.53878 12.4763 5.73419 12.2353 5.73419Z" fill="#009891"/>
<path fill-rule="evenodd" clip-rule="evenodd" d="M12.2353 10.1487C11.9942 10.1487 11.7988 9.95327 11.7988 9.71222V9.08869C11.7988 8.84764 11.9942 8.65223 12.2353 8.65223C12.4763 8.65223 12.6718 8.84764 12.6718 9.08869V9.71222C12.6718 9.95327 12.4763 10.1487 12.2353 10.1487Z" fill="#009891"/>
</svg>
