<svg width="24" height="24" viewBox="0 0 24 24" fill="none" xmlns="http://www.w3.org/2000/svg">
<rect x="1" y="5" width="22" height="14" rx="1" fill="#EFFFFE" stroke="#009891" stroke-width="2"/>
<circle cx="12" cy="12" r="5" fill="#C9EBE9"/>
<path fill-rule="evenodd" clip-rule="evenodd" d="M13.4044 9.73528C13.815 10.0481 14.0913 10.5292 14.0913 11.1395C14.0913 11.4623 13.8296 11.724 13.5068 11.724C13.184 11.724 12.9223 11.4623 12.9223 11.1395C12.9223 10.9148 12.8333 10.7697 12.696 10.6651C12.5424 10.5481 12.3085 10.4715 12.0456 10.4715C11.7828 10.4715 11.5489 10.5481 11.3953 10.6651C11.258 10.7697 11.1689 10.9148 11.1689 11.1395C11.1689 11.1409 11.1689 11.1423 11.1688 11.1439C11.168 11.1679 11.1664 11.2163 11.3311 11.3105C11.5308 11.4246 11.8199 11.5108 12.2062 11.6212C12.2179 11.6246 12.2297 11.6279 12.2416 11.6313C12.5803 11.728 13.0038 11.8488 13.3402 12.041C13.7127 12.2539 14.0913 12.6229 14.0913 13.2269C14.0913 13.8443 13.8066 14.3161 13.3662 14.5992C12.9553 14.8634 12.4531 14.9378 12.004 14.9058C11.5515 14.8734 11.0819 14.7286 10.709 14.4711C10.335 14.2128 10 13.7931 10 13.2269C10 12.9041 10.2617 12.6424 10.5845 12.6424C10.9073 12.6424 11.1689 12.9041 11.1689 13.2269C11.1689 13.2869 11.1993 13.3891 11.3732 13.5091C11.5482 13.63 11.8092 13.7199 12.0873 13.7398C12.3688 13.7599 12.5972 13.7039 12.7341 13.6159C12.8417 13.5467 12.9223 13.4445 12.9223 13.2269C12.9223 13.2255 12.9224 13.2241 12.9224 13.2225C12.9233 13.1986 12.9249 13.1501 12.7602 13.056C12.5605 12.9418 12.2714 12.8556 11.8851 12.7452C11.8734 12.7418 11.8616 12.7385 11.8497 12.7351C11.5109 12.6384 11.0875 12.5176 10.7511 12.3254C10.3786 12.1125 10 11.7435 10 11.1395C10 10.5292 10.2763 10.0481 10.6869 9.73528C11.0812 9.43483 11.5779 9.30261 12.0456 9.30261C12.5134 9.30261 13.0101 9.43483 13.4044 9.73528Z" fill="#009891"/>
<path fill-rule="evenodd" clip-rule="evenodd" d="M12.2544 9.98718C11.9316 9.98718 11.6699 9.72551 11.6699 9.40271V8.58446C11.6699 8.26167 11.9316 7.99999 12.2544 7.99999C12.5772 7.99999 12.8389 8.26167 12.8389 8.58446V9.40271C12.8389 9.72551 12.5772 9.98718 12.2544 9.98718Z" fill="#009891"/>
<path fill-rule="evenodd" clip-rule="evenodd" d="M12.2544 15.8987C11.9316 15.8987 11.6699 15.637 11.6699 15.3142V14.4793C11.6699 14.1565 11.9316 13.8948 12.2544 13.8948C12.5772 13.8948 12.8389 14.1565 12.8389 14.4793V15.3142C12.8389 15.637 12.5772 15.8987 12.2544 15.8987Z" fill="#009891"/>
<path d="M1 9.5C2 10.5 5 9 5.5 6" stroke="#009891" stroke-width="2" stroke-linecap="round"/>
<path d="M1 14.3085C2 13.3085 5 14.8085 5.5 17.8085" stroke="#009891" stroke-width="2" stroke-linecap="round"/>
<path d="M23 9.5C22 10.5 18.5 9 18 6" stroke="#009891" stroke-width="2" stroke-linecap="round"/>
<path d="M23 14.3085C22 13.3085 18.5 14.8085 18 17.8085" stroke="#009891" stroke-width="2" stroke-linecap="round"/>
</svg>
