<svg width="40" height="40" viewBox="0 0 40 40" fill="none" xmlns="http://www.w3.org/2000/svg">
<path d="M8.60702 9.47624H2.10547V31.0096C11.0528 28.0953 21.5792 32.381 21.5792 32.381C21.5792 32.381 33.6844 28.0953 38.9476 31.0096V8.57148H31.8666V3.80957C28.0866 4.56513 21.3934 7.6629 20.5265 9.47624C18.7928 5.84957 11.4966 4.6429 8.60702 4.6429V9.47624Z" fill="#EFFFFE"/>
<path d="M30 26.5C30 26.5 28.5 27.5 27 28C24.2386 28 22 25.7614 22 23C22 20.2386 24.2386 18 27 18C28.3627 18 29.5981 18.5452 30.5 19.4293C30 21 30 26.5 30 26.5Z" fill="#C9EBE9"/>
<path d="M9.47461 5.47632C13.1588 5.84669 20.5272 7.47632 20.5272 11.0319V32.143C20.5272 29.4763 13.1588 27.3282 9.47461 26.5874V5.47632Z" stroke="#009891" stroke-width="2" stroke-linecap="round" stroke-linejoin="round"/>
<path d="M20.5273 10.6096C22.135 6.9829 28.5656 4.56513 31.58 3.80957V25.3429C28.2307 26.0985 21.3312 28.5162 20.5273 32.1429" stroke="#009891" stroke-width="2" stroke-linecap="round" stroke-linejoin="round"/>
<path d="M8.60702 8.80957H2.10547V31.0318C4.27265 29.9207 11.6953 28.8096 21.4476 32.1429" stroke="#009891" stroke-width="2" stroke-linecap="round" stroke-linejoin="round"/>
<path d="M32.7302 8.80957H38.9473V31.0318C37.2021 29.9207 30.2215 28.8096 22.3683 32.1429" stroke="#009891" stroke-width="2" stroke-linecap="round" stroke-linejoin="round"/>
<path d="M12.9434 14.9858L16.1941 15.9662" stroke="#009891" stroke-linecap="round"/>
<path d="M12.9414 18.9077L16.1922 19.8881" stroke="#009891" stroke-linecap="round"/>
<path d="M28.1133 14.9858L24.8625 15.9662" stroke="#009891" stroke-linecap="round"/>
<path d="M28.1133 18.9077L24.8625 19.8881" stroke="#009891" stroke-linecap="round"/>
</svg>
