<svg width="40" height="40" viewBox="0 0 40 40" fill="none" xmlns="http://www.w3.org/2000/svg">
<path d="M1 12.5172C1 11.4127 1.89543 10.5172 3 10.5172H8.18482C9.43019 10.5172 10.6045 9.93719 11.3614 8.94819L13.7825 5.78453C14.1609 5.29003 14.748 5 15.3707 5H24.0737C24.6964 5 25.2836 5.29003 25.662 5.78453L28.0831 8.94819C28.8399 9.93719 30.0142 10.5172 31.2596 10.5172H37C38.1046 10.5172 39 11.4127 39 12.5172V33C39 34.1046 38.1046 35 37 35H3C1.89543 35 1 34.1046 1 33V12.5172Z" fill="#EFFFFE" stroke="#009891" stroke-width="2"/>
<mask id="mask0_820_13427" style="mask-type:alpha" maskUnits="userSpaceOnUse" x="0" y="5" width="40" height="31">
<path d="M1 12.5431C1 11.4385 1.89543 10.5431 3 10.5431H8.35922C9.4709 10.5431 10.5324 10.0805 11.2892 9.26616L13.7313 6.63847C14.1097 6.23132 14.6405 6 15.1963 6H24.2481C24.804 6 25.3347 6.23132 25.7131 6.63847L28.1552 9.26616C28.912 10.0805 29.9735 10.5431 31.0852 10.5431H37C38.1046 10.5431 39 11.4385 39 12.5431V33C39 34.1046 38.1046 35 37 35H3C1.89543 35 1 34.1046 1 33V12.5431Z" fill="#EFFFFE" stroke="#009891" stroke-width="2"/>
</mask>
<g mask="url(#mask0_820_13427)">
<ellipse cx="37.4357" cy="34.9381" rx="13.4357" ry="12.9381" fill="#C9EBE9"/>
</g>
<path d="M1 12.5172C1 11.4127 1.89543 10.5172 3 10.5172H8.18482C9.43019 10.5172 10.6045 9.93719 11.3614 8.94819L13.7825 5.78453C14.1609 5.29003 14.748 5 15.3707 5H24.0737C24.6964 5 25.2836 5.29003 25.662 5.78453L28.0831 8.94819C28.8399 9.93719 30.0142 10.5172 31.2596 10.5172H37C38.1046 10.5172 39 11.4127 39 12.5172V33C39 34.1046 38.1046 35 37 35H3C1.89543 35 1 34.1046 1 33V12.5172Z" stroke="#009891" stroke-width="2"/>
<circle cx="20" cy="22" r="7" stroke="#009891" stroke-width="2"/>
<circle cx="34" cy="15" r="1" fill="#009891"/>
</svg>
