<svg width="40" height="40" viewBox="0 0 40 40" fill="none" xmlns="http://www.w3.org/2000/svg">
<path d="M3.97192 27.7206V26.7206H3.46045C2.14393 26.7206 1.00003 25.5729 1 24.0626C1 24.0625 1 24.0625 1 24.0625L1.00036 18.8475V18.8474C1.00036 17.6382 1.77595 16.6114 2.83235 16.3088C2.83254 16.3087 2.83272 16.3087 2.83291 16.3086L8.78558 14.6129L9.11488 14.5191L9.31758 14.2432L12.8897 9.37983C12.8898 9.37973 12.8898 9.37963 12.8899 9.37953C13.5359 8.50097 14.5334 8.00006 15.5764 8.00006L27.3563 8.00008L27.3618 8.00005C28.5068 7.99375 29.5914 8.60506 30.2152 9.64342L30.2159 9.64451L32.9811 14.2338L33.1365 14.4918L33.4085 14.621L36.5402 16.1086C37.4157 16.5258 38.0062 17.4602 38.0003 18.5092V18.5148L37.9999 24.0624V24.0625C37.9999 25.5729 36.856 26.7206 35.5395 26.7206H35.5176H35.4951H35.472H35.4484H35.4243H35.3996H35.3744H35.3487H35.3224H35.2956H35.2682H35.2404H35.212H35.183H35.1536H35.1236H35.0932H35.0622H35.0307H34.9987H34.9662H34.9331H34.8996H34.8656H34.8311H34.796H34.7605H34.7245H34.6881H34.6511H34.6136H34.5757H34.5373H34.4984H34.459H34.4192H34.3789H34.3381H34.2968H34.2551H34.213H34.1704H34.1273H34.0838H34.0398H33.9953H33.9505H33.9051H33.8594H33.8132H33.7665H33.7195H33.672H33.624H33.5757H33.5269H33.4777H33.428H33.378H33.3275H33.2767H33.2254H33.1737H33.1216H33.069H33.0161H32.9628H32.9091H32.855H32.8005H32.7456H32.6903H32.6347H32.5786H32.5222H32.4654H32.4082H32.3507H32.2927H32.2344H32.1758H32.1168H32.0574H31.9976H31.9375H31.877H31.8162H31.755H31.6935H31.6317H31.5695H31.5069H31.444H31.3808H31.3172H31.2533H31.1891H31.1246H31.0597H30.9945H30.929H30.8631H30.797H30.7305H30.6637H30.5967H30.5293H30.4616H30.3936H30.3253H30.2567H30.1878H30.1186H30.0491H29.9794H29.9093H29.839H29.7684H29.6975H29.6263H29.5549H29.4831H29.4112H29.3389H29.2664H29.1936H29.1206H29.0473H28.9737H28.8999H28.8259H28.7516H28.677H28.6022H28.5272H28.4519H28.3764H28.3006H28.2247H28.1485H28.072H27.9954H27.9185H27.8414H27.7641H27.6865H27.6088H27.5308H27.4526H27.3742H27.2957H27.2169H27.1379H27.0587H26.9793H26.8998H26.82H26.7401H26.6599H26.5796H26.4991H26.4184H26.3376H26.2565H26.1753H26.094H26.0124H25.9307H25.8489H25.7669H25.6847H25.6023H25.5198H25.4372H25.3544H25.2715H25.1884H25.1052H25.0218H24.9383H24.8547H24.7709H24.687H24.603H24.5189H24.4346H24.3502H24.2657H24.1811H24.0963H24.0115H23.9265H23.8415H23.7563H23.671H23.5857H23.5002H23.4146H23.329H23.2432H23.1574H23.0715H22.9855H22.8994H22.8133H22.727H22.6407H22.5543H22.4679H22.3813H22.2948H22.2081H22.1214H22.0346H21.9478H21.861H21.774H21.6871H21.6H21.513H21.4259H21.3387H21.2516H21.1643H21.0771H20.9898H20.9025H20.8152H20.7278H20.6405H20.5531H20.4657H20.3783H20.2908H20.2034H20.1159H20.0285H19.941H19.8536H19.7661H19.6787H19.5913H19.5038H19.4164H19.329H19.2416H19.1543H19.0669H18.9796H18.8923H18.805H18.7178H18.6306H18.5434H18.4563H18.3692H18.2822H18.1952H18.1082H18.0213H17.9345H17.8477H17.7609H17.6742H17.5876H17.5011H17.4146H17.3281H17.2418H17.1555H17.0693H16.9832H16.8971H16.8111H16.7253H16.6395H16.5537H16.4681H16.3826H16.2972H16.2118H16.1266H16.0415H15.9565H15.8715H15.7867H15.702H15.6175H15.533H15.4486H15.3644H15.2803H15.1964H15.1125H15.0288H14.9452H14.8618H14.7785H14.6953H14.6123H14.5294H14.4467H14.3641H14.2816H14.1994H14.1172H14.0353H13.9535H13.8718H13.7904H13.709H13.6279H13.5469H13.4662H13.3855H13.3051H13.2249H13.1448H13.0649H12.9852H12.9057H12.8264H12.7473H12.6684H12.5897H12.5112H12.4329H12.3548H12.2769H12.1992H12.1218H12.0445H11.9675H11.8907H11.8141H11.7378H11.6617H11.5858H11.5101H11.4347H11.3595H11.2846H11.2099H11.1354H11.0612H10.9872H10.9135H10.8401H10.7669H10.6939H10.6212H10.5488H10.4767H10.4048H10.3332H10.2618H10.1908H10.12H10.0495H9.97924H9.90929H9.83964H9.77027H9.70119H9.63241H9.56393H9.49574H9.42785H9.36027H9.29299H9.22602H9.15935H9.093H9.02697H8.96125H8.89585H8.83077H8.76602H8.70159H8.63749H8.57372H8.51029H8.44719H8.38443H8.322H8.25992H8.19819H8.1368H8.07576H8.01508H7.95474H7.89477H7.83515H7.77589H7.717H7.65847H7.60032H7.54253H7.48511H7.42807H7.3714H7.31512H7.25922H7.2037H7.14857H7.09383H7.03948H6.98552H6.93196H6.87879H6.82603H6.77367H6.72172H6.67017H6.61903H6.56831H6.518H6.4681H6.41863H6.36958H6.32095H6.27275H6.22497H6.17763H6.13072H6.08424H6.03821H5.99261H5.94746H5.90275H5.85849H5.81467H5.77131H5.72841H5.68596H5.64396H5.60243H5.56137H5.52076H5.48063H5.44097H5.40178H5.36306H5.32482H5.28707H5.24979H5.213H5.17669H5.14088H5.10555H5.07072H5.03639H5.00255H4.96921H4.93638H4.90405H4.87223H4.84092H4.81012H4.77984H4.75007H4.72083H4.6921H4.6639H4.63622H4.60908H4.58246H4.55638H4.53083H4.50582H4.48135H4.45742H4.43404H4.41121H4.38892H4.36719H4.34601H4.32539H4.30532H4.28582H4.26688H4.24851H4.2307H4.21347H4.1968H4.18072H4.16521H4.15028H4.13593H4.12216H4.10899H4.0964H4.0844H4.073H4.06219H4.05198H4.04238H4.03337H4.02497H4.01718H4.01H4.00343H3.99747H3.99213H3.98742H3.98332H3.97985H3.977H3.97478H3.97319H3.97224C3.97203 26.7206 3.97192 26.7206 3.97192 27.7206Z" fill="#EFFFFE" stroke="#009891" stroke-width="2"/>
<path d="M33.5 13.0001C33.5 14.8215 37.513 15.5292 36.6622 17.0001C34.9331 19.9891 31.7014 22.0001 28 22.0001C22.4772 22.0001 18 17.5229 18 12.0001C18 10.5779 18.2969 9.22499 18.8321 8.00006C22.5 8.00004 28 8.00007 28 8.00007C28 8.00007 33.5 7.47721 33.5 13.0001Z" fill="#C9EBE9"/>
<path d="M3.97192 27.7206V26.7206H3.46045C2.14393 26.7206 1.00003 25.5729 1 24.0626C1 24.0625 1 24.0625 1 24.0625L1.00036 18.8475V18.8474C1.00036 17.6382 1.77595 16.6114 2.83235 16.3088C2.83254 16.3087 2.83272 16.3087 2.83291 16.3086L8.78558 14.6129L9.11488 14.5191L9.31758 14.2432L12.8897 9.37983C12.8898 9.37973 12.8898 9.37963 12.8899 9.37953C13.5359 8.50097 14.5334 8.00006 15.5764 8.00006L27.3563 8.00008L27.3618 8.00005C28.5068 7.99375 29.5914 8.60506 30.2152 9.64342L30.2159 9.64451L32.9811 14.2338L33.1365 14.4918L33.4085 14.621L36.5402 16.1086C37.4157 16.5258 38.0062 17.4602 38.0003 18.5092V18.5148L37.9999 24.0624V24.0625C37.9999 25.5729 36.856 26.7206 35.5395 26.7206H35.5176H35.4951H35.472H35.4484H35.4243H35.3996H35.3744H35.3487H35.3224H35.2956H35.2682H35.2404H35.212H35.183H35.1536H35.1236H35.0932H35.0622H35.0307H34.9987H34.9662H34.9331H34.8996H34.8656H34.8311H34.796H34.7605H34.7245H34.6881H34.6511H34.6136H34.5757H34.5373H34.4984H34.459H34.4192H34.3789H34.3381H34.2968H34.2551H34.213H34.1704H34.1273H34.0838H34.0398H33.9953H33.9505H33.9051H33.8594H33.8132H33.7665H33.7195H33.672H33.624H33.5757H33.5269H33.4777H33.428H33.378H33.3275H33.2767H33.2254H33.1737H33.1216H33.069H33.0161H32.9628H32.9091H32.855H32.8005H32.7456H32.6903H32.6347H32.5786H32.5222H32.4654H32.4082H32.3507H32.2927H32.2344H32.1758H32.1168H32.0574H31.9976H31.9375H31.877H31.8162H31.755H31.6935H31.6317H31.5695H31.5069H31.444H31.3808H31.3172H31.2533H31.1891H31.1246H31.0597H30.9945H30.929H30.8631H30.797H30.7305H30.6637H30.5967H30.5293H30.4616H30.3936H30.3253H30.2567H30.1878H30.1186H30.0491H29.9794H29.9093H29.839H29.7684H29.6975H29.6263H29.5549H29.4831H29.4112H29.3389H29.2664H29.1936H29.1206H29.0473H28.9737H28.8999H28.8259H28.7516H28.677H28.6022H28.5272H28.4519H28.3764H28.3006H28.2247H28.1485H28.072H27.9954H27.9185H27.8414H27.7641H27.6865H27.6088H27.5308H27.4526H27.3742H27.2957H27.2169H27.1379H27.0587H26.9793H26.8998H26.82H26.7401H26.6599H26.5796H26.4991H26.4184H26.3376H26.2565H26.1753H26.094H26.0124H25.9307H25.8489H25.7669H25.6847H25.6023H25.5198H25.4372H25.3544H25.2715H25.1884H25.1052H25.0218H24.9383H24.8547H24.7709H24.687H24.603H24.5189H24.4346H24.3502H24.2657H24.1811H24.0963H24.0115H23.9265H23.8415H23.7563H23.671H23.5857H23.5002H23.4146H23.329H23.2432H23.1574H23.0715H22.9855H22.8994H22.8133H22.727H22.6407H22.5543H22.4679H22.3813H22.2948H22.2081H22.1214H22.0346H21.9478H21.861H21.774H21.6871H21.6H21.513H21.4259H21.3387H21.2516H21.1643H21.0771H20.9898H20.9025H20.8152H20.7278H20.6405H20.5531H20.4657H20.3783H20.2908H20.2034H20.1159H20.0285H19.941H19.8536H19.7661H19.6787H19.5913H19.5038H19.4164H19.329H19.2416H19.1543H19.0669H18.9796H18.8923H18.805H18.7178H18.6306H18.5434H18.4563H18.3692H18.2822H18.1952H18.1082H18.0213H17.9345H17.8477H17.7609H17.6742H17.5876H17.5011H17.4146H17.3281H17.2418H17.1555H17.0693H16.9832H16.8971H16.8111H16.7253H16.6395H16.5537H16.4681H16.3826H16.2972H16.2118H16.1266H16.0415H15.9565H15.8715H15.7867H15.702H15.6175H15.533H15.4486H15.3644H15.2803H15.1964H15.1125H15.0288H14.9452H14.8618H14.7785H14.6953H14.6123H14.5294H14.4467H14.3641H14.2816H14.1994H14.1172H14.0353H13.9535H13.8718H13.7904H13.709H13.6279H13.5469H13.4662H13.3855H13.3051H13.2249H13.1448H13.0649H12.9852H12.9057H12.8264H12.7473H12.6684H12.5897H12.5112H12.4329H12.3548H12.2769H12.1992H12.1218H12.0445H11.9675H11.8907H11.8141H11.7378H11.6617H11.5858H11.5101H11.4347H11.3595H11.2846H11.2099H11.1354H11.0612H10.9872H10.9135H10.8401H10.7669H10.6939H10.6212H10.5488H10.4767H10.4048H10.3332H10.2618H10.1908H10.12H10.0495H9.97924H9.90929H9.83964H9.77027H9.70119H9.63241H9.56393H9.49574H9.42785H9.36027H9.29299H9.22602H9.15935H9.093H9.02697H8.96125H8.89585H8.83077H8.76602H8.70159H8.63749H8.57372H8.51029H8.44719H8.38443H8.322H8.25992H8.19819H8.1368H8.07576H8.01508H7.95474H7.89477H7.83515H7.77589H7.717H7.65847H7.60032H7.54253H7.48511H7.42807H7.3714H7.31512H7.25922H7.2037H7.14857H7.09383H7.03948H6.98552H6.93196H6.87879H6.82603H6.77367H6.72172H6.67017H6.61903H6.56831H6.518H6.4681H6.41863H6.36958H6.32095H6.27275H6.22497H6.17763H6.13072H6.08424H6.03821H5.99261H5.94746H5.90275H5.85849H5.81467H5.77131H5.72841H5.68596H5.64396H5.60243H5.56137H5.52076H5.48063H5.44097H5.40178H5.36306H5.32482H5.28707H5.24979H5.213H5.17669H5.14088H5.10555H5.07072H5.03639H5.00255H4.96921H4.93638H4.90405H4.87223H4.84092H4.81012H4.77984H4.75007H4.72083H4.6921H4.6639H4.63622H4.60908H4.58246H4.55638H4.53083H4.50582H4.48135H4.45742H4.43404H4.41121H4.38892H4.36719H4.34601H4.32539H4.30532H4.28582H4.26688H4.24851H4.2307H4.21347H4.1968H4.18072H4.16521H4.15028H4.13593H4.12216H4.10899H4.0964H4.0844H4.073H4.06219H4.05198H4.04238H4.03337H4.02497H4.01718H4.01H4.00343H3.99747H3.99213H3.98742H3.98332H3.97985H3.977H3.97478H3.97319H3.97224C3.97203 26.7206 3.97192 26.7206 3.97192 27.7206Z" stroke="#009891" stroke-width="2"/>
<circle cx="10.5625" cy="27.3125" r="4.6875" fill="#EFFFFE" stroke="#009891" stroke-width="2"/>
<circle cx="30.0625" cy="27.3125" r="4.6875" fill="#EFFFFE" stroke="#009891" stroke-width="2"/>
<circle cx="29" cy="11" r="7" fill="#EFFFFE" stroke="#009891" stroke-width="2"/>
<path d="M30.8 9.07977C30.25 7.42147 27.5784 7.71094 27.5784 9.55353C27.5784 11.3961 30.7213 10.7819 30.7213 12.3174C30.7213 14.6076 27.5 14.0548 27.5 12.9492" stroke="#009891" stroke-width="2" stroke-linecap="round"/>
<line x1="29.3633" y1="7" x2="29.3633" y2="7.36904" stroke="#009891" stroke-width="2" stroke-linecap="round"/>
<line x1="29.3633" y1="14.1072" x2="29.3633" y2="14.8711" stroke="#009891" stroke-width="2" stroke-linecap="round"/>
</svg>
