<svg width="25" height="24" viewBox="0 0 25 24" fill="none" xmlns="http://www.w3.org/2000/svg">
<rect y="2.25" width="21" height="15.75" rx="2" fill="#EFFFFE"/>
<path d="M21 14.0624C21 16.7203 18.4079 17.5624 15.75 17.5624C13.0921 17.5624 11.375 16.7203 11.375 14.0624C11.375 11.4046 13.5296 9.24994 16.1875 9.24994C18.8454 9.24994 20.5625 10.1249 21 14.0624Z" fill="#C9EBE9"/>
<rect x="1" y="3.25" width="19" height="13.75" rx="1" stroke="#009891" stroke-width="2"/>
<rect x="0.75" y="6.00006" width="19.5" height="2.25" fill="#009891"/>
<rect x="2.625" y="13.625" width="5.25" height="1.5" rx="0.75" fill="#009891"/>
<path d="M15.4402 18.0254L19.9831 8.38733C19.9947 8.39113 20.0074 8.39596 20.0209 8.40211L23.4884 9.97512C23.5037 9.98207 23.5174 9.98948 23.5296 9.99699L18.9715 19.6684C18.3869 20.0309 17.1989 20.7304 16.2393 21.2915C16.2163 21.2905 16.1771 21.2834 16.1313 21.2625C16.0829 21.2404 16.05 21.2133 16.0339 21.1954C16.0339 21.1953 16.0339 21.1953 16.0339 21.1953C15.8194 20.0897 15.556 18.7112 15.4402 18.0254Z" fill="#EFFFFE" stroke="#009891" stroke-width="2" stroke-linejoin="round"/>
</svg>
