<svg width="24" height="24" viewBox="0 0 24 24" fill="none" xmlns="http://www.w3.org/2000/svg">
<path d="M16.3176 16.6927C16.3176 18.3473 15.613 19.6385 14.4589 20.5402C13.2832 21.4588 11.5988 21.9999 9.65908 21.9999C7.71933 21.9999 6.03484 21.4588 4.85899 20.5402C3.70475 19.6384 3 18.3473 3 16.6927C3 15.9912 3.35556 15.0516 4.04489 13.9479C4.71704 12.8718 5.62895 11.7606 6.5649 10.745C7.49713 9.73344 8.43256 8.8388 9.13665 8.19588C9.33043 8.01893 9.50623 7.86148 9.65906 7.72635C9.81187 7.86147 9.98764 8.01892 10.1814 8.19586C10.8854 8.83878 11.8208 9.73341 12.753 10.745C13.6888 11.7606 14.6007 12.8717 15.2728 13.9479C15.9621 15.0516 16.3176 15.9911 16.3176 16.6927Z" fill="#EFFFFE" stroke="#009891" stroke-width="2"/>
<mask id="mask0" style="mask-type:alpha" maskUnits="userSpaceOnUse" x="2" y="6" width="16" height="17">
<path d="M16.3176 16.6417C16.3176 18.2351 15.6222 19.4846 14.4688 20.3627C13.2926 21.2581 11.6045 21.7872 9.65908 21.7872C7.71361 21.7872 6.02541 21.2581 4.84905 20.3626C3.69548 19.4845 3 18.2351 3 16.6417C3 15.9728 3.34932 15.0661 4.03861 13.9908C4.70948 12.9442 5.62031 11.8627 6.55606 10.8734C7.48791 9.88813 8.42307 9.01668 9.12706 8.39033C9.32491 8.2143 9.50401 8.05806 9.65906 7.92458C9.81409 8.05806 9.99317 8.21429 10.191 8.39031C10.8949 9.01665 11.83 9.8881 12.7618 10.8733C13.6975 11.8627 14.6082 12.9442 15.2791 13.9908C15.9683 15.0661 16.3176 15.9728 16.3176 16.6417Z" fill="#EFFFFE" stroke="#009891" stroke-width="2"/>
</mask>
<g mask="url(#mask0)">
<circle cx="13.5" cy="17.4999" r="5.5" fill="#C9EBE9"/>
</g>
<path d="M16.3176 16.6927C16.3176 18.3473 15.613 19.6385 14.4589 20.5402C13.2832 21.4588 11.5988 21.9999 9.65908 21.9999C7.71933 21.9999 6.03484 21.4588 4.85899 20.5402C3.70475 19.6384 3 18.3473 3 16.6927C3 15.9912 3.35556 15.0516 4.04489 13.9479C4.71704 12.8718 5.62895 11.7606 6.5649 10.745C7.49713 9.73344 8.43256 8.8388 9.13665 8.19588C9.33043 8.01893 9.50623 7.86148 9.65906 7.72635C9.81187 7.86147 9.98764 8.01892 10.1814 8.19586C10.8854 8.83878 11.8208 9.73341 12.753 10.745C13.6888 11.7606 14.6007 12.8717 15.2728 13.9479C15.9621 15.0516 16.3176 15.9911 16.3176 16.6927Z" stroke="#009891" stroke-width="2"/>
<path d="M5.11334 3.4138L6.71669 6.94117H12.107L13.7104 3.4138C14.0114 2.7517 13.5273 2 12.8 2H6.02371C5.29642 2 4.81239 2.7517 5.11334 3.4138Z" fill="#EFFFFE" stroke="#009891" stroke-width="2" stroke-linecap="round"/>
<path d="M6.81882 6.55884C5.92542 6.55884 5.20117 7.28308 5.20117 8.17648C5.20117 9.06988 5.92542 9.79413 6.81882 9.79413H12.9953C13.8887 9.79413 14.6129 9.06988 14.6129 8.17648C14.6129 7.28308 13.8887 6.55884 12.9953 6.55884H6.81882Z" fill="#EFFFFE" stroke="#009891" stroke-width="2"/>
<path d="M12.6825 14.6044L12.6827 14.604C12.8815 14.2574 13.1198 13.9354 13.3915 13.6446L13.3922 13.6438C13.5742 13.4487 13.7716 13.2676 13.9827 13.102L13.983 13.1017C14.8626 12.4113 15.9697 12 17.1753 12C20.0336 12 22.3506 14.3171 22.3506 17.1754C22.3506 20.0335 20.0336 22.3506 17.1753 22.3506C14.3169 22.3506 12 20.0335 12 17.1754C12 16.2374 12.2484 15.3609 12.6825 14.6044Z" fill="#EFFFFE" stroke="#009891" stroke-width="2"/>
<path d="M12.6825 14.6044L12.6827 14.604C12.8815 14.2574 13.1198 13.9354 13.3915 13.6446L13.3922 13.6438C13.5742 13.4487 13.7716 13.2676 13.9827 13.102L13.983 13.1017C14.8626 12.4113 15.9697 12 17.1753 12C20.0336 12 22.3506 14.3171 22.3506 17.1754C22.3506 20.0335 20.0336 22.3506 17.1753 22.3506C14.3169 22.3506 12 20.0335 12 17.1754C12 16.2374 12.2484 15.3609 12.6825 14.6044Z" stroke="#009891" stroke-width="2"/>
<path fill-rule="evenodd" clip-rule="evenodd" d="M18.0931 15.546C18.3997 15.7796 18.606 16.1389 18.606 16.5947C18.606 16.8357 18.4106 17.0311 18.1696 17.0311C17.9285 17.0311 17.7331 16.8357 17.7331 16.5947C17.7331 16.4269 17.6666 16.3185 17.5641 16.2404C17.4494 16.153 17.2747 16.0958 17.0784 16.0958C16.8821 16.0958 16.7075 16.153 16.5928 16.2404C16.4902 16.3185 16.4237 16.4269 16.4237 16.5947C16.4237 16.5957 16.4237 16.5968 16.4236 16.5979C16.423 16.6158 16.4218 16.652 16.5448 16.7223C16.694 16.8075 16.9098 16.872 17.1983 16.9544C17.207 16.9569 17.2159 16.9594 17.2247 16.9619C17.4777 17.0341 17.794 17.1244 18.0451 17.2679C18.3233 17.4269 18.606 17.7024 18.606 18.1535C18.606 18.6145 18.3935 18.9668 18.0646 19.1782C17.7577 19.3755 17.3827 19.4311 17.0473 19.4072C16.7094 19.3831 16.3588 19.2749 16.0802 19.0826C15.8009 18.8897 15.5508 18.5763 15.5508 18.1535C15.5508 17.9124 15.7462 17.717 15.9872 17.717C16.2283 17.717 16.4237 17.9124 16.4237 18.1535C16.4237 18.1983 16.4464 18.2746 16.5762 18.3642C16.7069 18.4545 16.9018 18.5216 17.1095 18.5365C17.3197 18.5515 17.4903 18.5097 17.5926 18.4439C17.6729 18.3923 17.7331 18.3159 17.7331 18.1535C17.7331 18.1524 17.7332 18.1514 17.7332 18.1502C17.7338 18.1323 17.735 18.0961 17.612 18.0258C17.4629 17.9406 17.247 17.8762 16.9585 17.7937C16.9498 17.7912 16.941 17.7887 16.9321 17.7862C16.6791 17.714 16.3629 17.6238 16.1117 17.4802C15.8335 17.3213 15.5508 17.0457 15.5508 16.5947C15.5508 16.1389 15.7571 15.7796 16.0637 15.546C16.3582 15.3216 16.7291 15.2229 17.0784 15.2229C17.4277 15.2229 17.7986 15.3216 18.0931 15.546Z" fill="#009891"/>
<path fill-rule="evenodd" clip-rule="evenodd" d="M17.2353 15.7342C16.9942 15.7342 16.7988 15.5388 16.7988 15.2977V14.6867C16.7988 14.4456 16.9942 14.2502 17.2353 14.2502C17.4763 14.2502 17.6718 14.4456 17.6718 14.6867V15.2977C17.6718 15.5388 17.4763 15.7342 17.2353 15.7342Z" fill="#009891"/>
<path fill-rule="evenodd" clip-rule="evenodd" d="M17.2353 20.1487C16.9942 20.1487 16.7988 19.9533 16.7988 19.7122V19.0887C16.7988 18.8476 16.9942 18.6522 17.2353 18.6522C17.4763 18.6522 17.6718 18.8476 17.6718 19.0887V19.7122C17.6718 19.9533 17.4763 20.1487 17.2353 20.1487Z" fill="#009891"/>
</svg>
