<svg width="40" height="40" viewBox="0 0 40 40" fill="none" xmlns="http://www.w3.org/2000/svg">
<path d="M8.44409 29.0117C9.64409 30.6117 12.6108 35.345 13.9441 37.5117H28.9443C31.9443 36.0117 30.9443 30.0118 30.9443 26.5118C30.9443 23.7117 24.7777 23.0116 21.4443 23.5116V16.0116C21.4443 11.5116 15.9443 12.5116 15.9443 16.0116C15.9443 17.6609 16.111 25.345 15.9443 29.0117C15.611 28.6783 14.5443 27.7116 12.9441 26.5117C9.44409 24.0117 6.94409 27.0117 8.44409 29.0117Z" fill="#EFFFFE"/>
<circle cx="26" cy="33" r="5" fill="#C9EBE9"/>
<path d="M13.9441 37.5117C12.6108 35.345 9.64409 30.6117 8.44409 29.0117C6.94409 27.0117 9.44409 24.0117 12.9441 26.5117C14.5443 27.7116 15.611 28.6783 15.9443 29.0117C16.111 25.345 15.9443 17.6609 15.9443 16.0116C15.9443 12.5116 21.4443 11.5116 21.4443 16.0116C21.4443 19.6116 21.4443 22.5116 21.4443 23.5116C22.6111 23.5116 24.3073 23.5116 25.9446 23.5116C28.706 23.5116 30.945 25.7496 30.8054 28.5075C30.6373 31.828 30.2656 35.8691 29.4443 37.5117" stroke="#009891" stroke-width="2" stroke-linecap="round" stroke-linejoin="round"/>
<circle cx="7.5" cy="15.5" r="3.5" fill="#EFFFFE" stroke="#009891" stroke-width="2"/>
<circle cx="18.5" cy="5.5" r="3.5" fill="#EFFFFE" stroke="#009891" stroke-width="2"/>
<circle cx="30.5" cy="13.5" r="3.5" fill="#EFFFFE" stroke="#009891" stroke-width="2"/>
</svg>
