<svg width="24" height="24" viewBox="0 0 24 24" fill="none" xmlns="http://www.w3.org/2000/svg">
<circle cx="9" cy="15" r="7" fill="#EFFFFE" stroke="#009891" stroke-width="2"/>
<mask id="mask0" style="mask-type:alpha" maskUnits="userSpaceOnUse" x="1" y="7" width="16" height="16">
<circle cx="9" cy="15" r="7" fill="#EFFFFE" stroke="#009891" stroke-width="2"/>
</mask>
<g mask="url(#mask0)">
<circle cx="13.5" cy="18.5" r="5.5" fill="#C9EBE9"/>
</g>
<circle cx="9" cy="15" r="7" stroke="#009891" stroke-width="2"/>
<path fill-rule="evenodd" clip-rule="evenodd" d="M10.5118 12.7901C10.9353 13.1128 11.2203 13.6091 11.2203 14.2386C11.2203 14.5715 10.9504 14.8415 10.6174 14.8415C10.2844 14.8415 10.0145 14.5715 10.0145 14.2386C10.0145 14.0068 9.92267 13.8571 9.781 13.7492C9.62256 13.6285 9.38127 13.5495 9.11015 13.5495C8.83903 13.5495 8.59773 13.6285 8.4393 13.7492C8.29763 13.8571 8.2058 14.0068 8.2058 14.2386C8.2058 14.24 8.20575 14.2415 8.20569 14.2431C8.20485 14.2678 8.20315 14.3178 8.37304 14.4149C8.5791 14.5327 8.87727 14.6216 9.27577 14.7355C9.28783 14.7389 9.3 14.7424 9.31228 14.7459C9.6617 14.8456 10.0985 14.9703 10.4455 15.1685C10.8298 15.3881 11.2203 15.7687 11.2203 16.3918C11.2203 17.0287 10.9267 17.5153 10.4724 17.8073C10.0485 18.0799 9.53043 18.1567 9.06719 18.1236C8.60044 18.0902 8.11606 17.9408 7.73135 17.6752C7.34552 17.4088 7 16.9759 7 16.3918C7 16.0588 7.26993 15.7889 7.6029 15.7889C7.93587 15.7889 8.2058 16.0588 8.2058 16.3918C8.2058 16.4537 8.23709 16.5591 8.41648 16.6829C8.59698 16.8076 8.86623 16.9004 9.1531 16.9209C9.44349 16.9416 9.67909 16.8838 9.82036 16.793C9.93131 16.7217 10.0145 16.6162 10.0145 16.3918C10.0145 16.3904 10.0145 16.3889 10.0146 16.3873C10.0154 16.3626 10.0171 16.3125 9.84726 16.2155C9.6412 16.0977 9.34302 16.0087 8.94452 15.8949C8.93246 15.8914 8.9203 15.888 8.90802 15.8845C8.55859 15.7848 8.12176 15.6601 7.77479 15.4618C7.39051 15.2422 7 14.8616 7 14.2386C7 13.6091 7.28498 13.1128 7.70853 12.7901C8.11532 12.4801 8.62764 12.3437 9.11015 12.3438C9.59265 12.3438 10.105 12.4801 10.5118 12.7901Z" fill="#009891"/>
<path fill-rule="evenodd" clip-rule="evenodd" d="M9.32556 13.0499C8.99258 13.0499 8.72266 12.7799 8.72266 12.447V11.6029C8.72266 11.2699 8.99258 11 9.32556 11C9.65853 11 9.92845 11.2699 9.92845 11.6029V12.447C9.92845 12.7799 9.65853 13.0499 9.32556 13.0499Z" fill="#009891"/>
<path fill-rule="evenodd" clip-rule="evenodd" d="M9.32556 19.1478C8.99258 19.1478 8.72266 18.8778 8.72266 18.5449V17.6836C8.72266 17.3506 8.99258 17.0807 9.32556 17.0807C9.65853 17.0807 9.92845 17.3506 9.92845 17.6836V18.5449C9.92845 18.8778 9.65853 19.1478 9.32556 19.1478Z" fill="#009891"/>
<line x1="16" y1="5" x2="22" y2="5" stroke="#009891" stroke-width="2" stroke-linecap="round"/>
<line x1="19" y1="2" x2="19" y2="8" stroke="#009891" stroke-width="2" stroke-linecap="round"/>
</svg>
