<svg width="24" height="24" viewBox="0 0 24 24" fill="none" xmlns="http://www.w3.org/2000/svg">
<path d="M14.1458 21.5C13.4333 20.7039 13 19.6525 13 18.5C13 16.0147 15.0147 14 17.5 14C19.0602 14 20.435 14.794 21.2422 16C20 20 17.5 20.5 14.1458 21.5Z" fill="white" fill-opacity="0.4"/>
<ellipse cx="15.7781" cy="11.8717" rx="1.29177" ry="1.2221" fill="white"/>
<ellipse cx="8.28201" cy="11.8717" rx="1.29177" ry="1.2221" fill="white"/>
<path d="M12.0303 18.3895C14.0369 18.3895 15.7506 17.2082 16.4396 15.538H15.0014C14.4072 16.5075 13.3049 17.1674 12.0303 17.1674C10.7558 17.1674 9.66209 16.5075 9.05927 15.538H7.62109C8.31004 17.2082 10.0238 18.3895 12.0303 18.3895Z" fill="white"/>
<path fill-rule="evenodd" clip-rule="evenodd" d="M19.0005 8.73521V9.01999H14.7262L13.9334 7.55347L13.2225 9.01999H9.90863L9.16521 7.55347L8.33979 9.01999H4.96875V8.73433C6.281 6.29068 8.93009 4.62036 11.9844 4.62036C15.039 4.62036 17.6884 6.29108 19.0005 8.73521Z" fill="white"/>
<path d="M2.45455 15.13C2.15918 14.1758 2 13.1608 2 12.1081C2 6.52555 6.47715 2 12 2C17.5228 2 22 6.52555 22 12.1081C22 14.5329 21.1553 16.7583 19.7472 18.5C17 21.898 14 21 14 21" stroke="white" stroke-width="2" stroke-linecap="round"/>
<circle cx="12" cy="12" r="10" fill="white" fill-opacity="0.2"/>
</svg>
