<svg width="24" height="24" viewBox="0 0 24 24" fill="none" xmlns="http://www.w3.org/2000/svg">
<path d="M22 22C15 22 9 22 2 22C2 16.4772 6.47715 12 12 12C17.5228 12 22 16.4772 22 22Z" fill="#EFFFFE"/>
<mask id="mask0" style="mask-type:alpha" maskUnits="userSpaceOnUse" x="2" y="12" width="20" height="10">
<path d="M22 22C15 22 9 22 2 22C2 16.4772 6.47715 12 12 12C17.5228 12 22 16.4772 22 22Z" fill="#EFFFFE"/>
</mask>
<g mask="url(#mask0)">
<circle cx="16.5" cy="16.5" r="5.5" fill="#C9EBE9"/>
</g>
<path d="M22 21.4737C22 16.2415 17.5228 12 12 12C6.47715 12 2 16.2415 2 21.4737" stroke="#009891" stroke-width="2" stroke-linecap="round"/>
<path d="M3 18.9999C5.5 20.4999 7 18.9999 7.5 17.9999C8 16.9999 9.5 14.9999 13 15.4999C15.8 15.8999 15.5 14 15 13" stroke="#009891" stroke-width="2" stroke-linecap="round" stroke-linejoin="round"/>
<path d="M20 17C18.5 17 16 18 16 19.5C16 20.7 16 21.3333 16 21.5" stroke="#009891" stroke-width="2" stroke-linecap="round" stroke-linejoin="round"/>
<path d="M5.63314 3.83037C4.38644 2.5969 2.39803 4.02202 3.29615 5.65971C4.19428 7.29741 6.40006 5.37766 7.1485 6.74241C8.26478 8.7779 5.42768 9.69471 4.8888 8.7121" stroke="#009891" stroke-width="2" stroke-linecap="round"/>
<line x1="3.5471" y1="2.55398" x2="3.74014" y2="2.90598" stroke="#009891" stroke-width="2" stroke-linecap="round"/>
<line x1="7.01195" y1="8.87069" x2="7.20499" y2="9.22269" stroke="#009891" stroke-width="2" stroke-linecap="round"/>
<path d="M19.2721 3.03935C19.1923 3.07616 18.0167 4.26875 17.2152 4.73855L16.4074 2.14859M19.5077 5.6825L17.1886 4.9614M15.2009 4.34332L17.1886 4.9614M18.8087 7.93036L14.5019 6.59118M17.1886 4.9614L15.9873 8.82492" stroke="#009891" stroke-width="2" stroke-linecap="round"/>
</svg>
