<svg width="40" height="40" viewBox="0 0 40 40" fill="none" xmlns="http://www.w3.org/2000/svg">
<path d="M26.458 13.9884C20.8414 10.5133 23.4753 5.6085 23.5883 5.40463C23.7523 5.1145 23.7518 4.75756 23.5869 4.46794C23.4222 4.17831 23.1181 4 22.789 4C19.8978 4 17.6338 4.83538 16.0599 6.483C13.3706 9.29831 13.4953 13.68 13.5485 15.5511C13.5544 15.7584 13.5595 15.9375 13.5595 16.0705C13.5595 17.4598 13.7787 18.7423 13.9721 19.8739C14.0967 20.6031 14.2044 21.2328 14.2235 21.7279C14.2439 22.2579 14.1488 22.3794 14.1447 22.3843C14.1312 22.4007 14.0181 22.4619 13.7123 22.4619C13.3636 22.4619 13.1065 22.346 12.8788 22.0863C11.9891 21.0718 11.9276 18.3017 12.0977 16.7946C12.1281 16.5289 12.0454 16.2626 11.8705 16.0629C11.6956 15.8631 11.4451 15.7489 11.182 15.7489C8.78851 15.7489 7 19.7294 7 23.2884C7 24.9614 7.33089 26.6004 7.98352 28.1596C8.61446 29.667 9.51415 31.0275 10.6577 32.2031C13.0394 34.6516 16.1795 36 19.4997 36C22.8333 36 25.9726 34.6706 28.3393 32.2569C30.7 29.8494 32 26.6642 32 23.2883C31.9999 18.9806 28.6857 15.3666 26.458 13.9884Z" fill="#EFFFFE"/>
<path d="M15.5477 15.4943C15.5439 15.3612 15.54 15.219 15.5367 15.0689L13.5337 14.943C13.5376 15.1665 13.5434 15.3709 13.5485 15.5514C13.5496 15.5901 13.5507 15.6282 13.5517 15.6649C13.5562 15.8241 13.5595 15.9625 13.5595 16.0705C13.5595 16.3732 13.5699 16.6708 13.5882 16.9629C13.5883 16.9637 13.5883 16.9645 13.5884 16.9653C13.6235 17.526 13.6877 18.0663 13.7629 18.583L16.222 21.6508C16.1977 21.022 16.0708 20.2805 15.9581 19.6219L15.9435 19.5369C15.7476 18.3904 15.5595 17.2666 15.5595 16.0705C15.5595 15.9086 15.5537 15.7054 15.5484 15.5161L15.5477 15.4943Z" fill="#009891"/>
<path fill-rule="evenodd" clip-rule="evenodd" d="M25.4057 15.6892C22.0186 13.5935 20.9162 10.8709 20.8748 8.50477C20.8588 7.59012 21.0012 6.7715 21.182 6.11096C19.5416 6.35298 18.3525 6.97849 17.5061 7.86448C16.5325 8.88371 16.0046 10.2573 15.745 11.7206C15.5229 12.9721 15.5171 14.1652 15.5367 15.0689L13.5337 14.943C13.4974 12.8489 13.6301 9.02664 16.0599 6.483C17.6338 4.83538 19.8978 4 22.789 4C23.1181 4 23.4222 4.17831 23.5869 4.46794C23.7518 4.75756 23.7523 5.1145 23.5883 5.40463C23.4753 5.6085 20.8414 10.5133 26.458 13.9884C28.6857 15.3666 31.9999 18.9806 32 23.2883C32 26.6642 30.7 29.8494 28.3393 32.2569C25.9726 34.6706 22.8333 36 19.4997 36C16.1795 36 13.0394 34.6516 10.6577 32.2031C9.51415 31.0275 8.61446 29.667 7.98352 28.1596C7.33089 26.6004 7 24.9614 7 23.2884C7 19.7294 8.78851 15.7489 11.182 15.7489C11.3121 15.7489 11.4391 15.7768 11.5554 15.8292L12.0829 16.4872C12.1042 16.5871 12.1096 16.6909 12.0977 16.7946C11.9967 17.6894 11.9773 19.0294 12.1645 20.1828C12.2315 20.5961 12.3251 20.9853 12.4508 21.3216C12.5145 21.4919 12.5865 21.6486 12.6675 21.788C12.7321 21.8991 12.8024 21.9992 12.8788 22.0863C13.1065 22.346 13.3636 22.4619 13.7123 22.4619C14.0181 22.4619 14.1312 22.4007 14.1447 22.3843C14.1488 22.3794 14.2439 22.2579 14.2235 21.7279C14.2148 21.5028 14.1878 21.2497 14.1492 20.9722C14.1306 20.8386 14.1094 20.6992 14.0862 20.5546C14.0516 20.3391 14.0128 20.1118 13.9721 19.8739C13.9018 19.4628 13.8282 19.0318 13.7629 18.583L16.222 21.6508C16.2479 22.3232 16.1712 23.074 15.6841 23.6612L15.6822 23.6635C15.4898 23.8947 15.2902 24.0267 15.2242 24.0696C15.1243 24.1345 15.032 24.1823 14.9577 24.2169C14.8074 24.2868 14.6616 24.3343 14.5311 24.3675C14.2682 24.4344 13.9928 24.4619 13.7123 24.4619C12.7937 24.4619 11.9865 24.1021 11.3751 23.405C10.886 22.8473 10.6103 22.1777 10.4424 21.62C10.2669 21.0373 10.1627 20.4172 10.1016 19.8331C10.0718 19.548 10.0512 19.2597 10.0384 18.9741C10.0155 19.016 9.99238 19.0594 9.96913 19.1043C9.38078 20.2395 9 21.8054 9 23.2884C9 24.6935 9.2771 26.0702 9.82844 27.3874C10.3622 28.6626 11.1221 29.8122 12.0913 30.8086C14.1086 32.8825 16.7367 34 19.4997 34C22.2875 34 24.9147 32.8929 26.9113 30.8566C28.9048 28.8236 30 26.1413 30 23.2883C30 21.6497 29.366 20.0577 28.415 18.6709C27.4592 17.2772 26.2741 16.2264 25.4057 15.6892ZM13.5517 15.6649C13.5507 15.6282 13.5496 15.5901 13.5485 15.5514Z" fill="#009891"/>
<path d="M31 26.0938C31 26.0938 29.8214 30.5625 26.6786 33C22.9901 33 20 30.7205 20 26.9062C20 23.092 22.9901 20 26.6786 20C30.367 20 31 26.0938 31 26.0938Z" fill="#C9EBE9"/>
<path fill-rule="evenodd" clip-rule="evenodd" d="M28.415 18.6709C27.4592 17.2772 26.2741 16.2264 25.4057 15.6892C22.0186 13.5935 20.9162 10.8709 20.8748 8.50477C20.8588 7.59012 21.0012 6.7715 21.182 6.11096C19.5416 6.35298 18.3525 6.97849 17.5061 7.86448C16.5325 8.88371 16.0046 10.2573 15.745 11.7206C15.5229 12.9721 15.5171 14.1652 15.5367 15.0689L13.5337 14.943C13.4974 12.8489 13.6301 9.02664 16.0599 6.483C17.6338 4.83538 19.8978 4 22.789 4C23.1181 4 23.4222 4.17831 23.5869 4.46794C23.7518 4.75756 23.7523 5.1145 23.5883 5.40463C23.4753 5.6085 20.8414 10.5133 26.458 13.9884C28.6857 15.3666 31.9999 18.9806 32 23.2883C32 26.6642 30.7 29.8494 28.3393 32.2569C25.9726 34.6706 22.8333 36 19.4997 36C16.1795 36 13.0394 34.6516 10.6577 32.2031C9.51415 31.0275 8.61446 29.667 7.98352 28.1596C7.33089 26.6004 7 24.9614 7 23.2884C7 19.7294 8.78851 15.7489 11.182 15.7489C11.3121 15.7489 11.4391 15.7768 11.5554 15.8292L12.0829 16.4872C12.1042 16.5871 12.1096 16.6909 12.0977 16.7946C11.9967 17.6894 11.9773 19.0294 12.1645 20.1828C12.2315 20.5961 12.3251 20.9853 12.4508 21.3216C12.5145 21.4919 12.5865 21.6486 12.6675 21.788C12.7321 21.8991 12.8024 21.9992 12.8788 22.0863C13.1065 22.346 13.3636 22.4619 13.7123 22.4619C14.0181 22.4619 14.1312 22.4007 14.1447 22.3843C14.1488 22.3794 14.2439 22.2579 14.2235 21.7279C14.2148 21.5028 14.1878 21.2497 14.1492 20.9722C14.1306 20.8386 14.1094 20.6992 14.0862 20.5546C14.0516 20.3391 14.0128 20.1118 13.9721 19.8739C13.9018 19.4628 13.8282 19.0318 13.7629 18.583L16.222 21.6508C16.2479 22.3232 16.1712 23.074 15.6841 23.6612L15.6822 23.6635C15.4898 23.8947 15.2902 24.0267 15.2241 24.0696C15.1243 24.1345 15.032 24.1823 14.9577 24.2169C14.8074 24.2868 14.6616 24.3343 14.5311 24.3675C14.2682 24.4344 13.9928 24.4619 13.7123 24.4619C12.7937 24.4619 11.9865 24.1021 11.3751 23.405C10.886 22.8473 10.6103 22.1777 10.4424 21.62C10.2669 21.0373 10.1627 20.4172 10.1016 19.8331C10.0718 19.548 10.0512 19.2597 10.0384 18.9741C10.0155 19.016 9.99238 19.0594 9.96913 19.1043C9.38078 20.2395 9 21.8054 9 23.2884C9 24.6935 9.2771 26.0702 9.82844 27.3874C10.3622 28.6626 11.1221 29.8122 12.0913 30.8086C14.1086 32.8825 16.7367 34 19.4997 34C22.2875 34 24.9147 32.8929 26.9113 30.8566C28.9048 28.8235 30 26.1413 30 23.2883C30 21.6497 29.366 20.0577 28.415 18.6709Z" fill="#009891"/>
</svg>
