<svg width="24" height="24" viewBox="0 0 24 24" fill="none" xmlns="http://www.w3.org/2000/svg">
<path d="M7.03419 3H16.9658L19 10H5L7.03419 3Z" fill="#EFFFFE" stroke="#009891" stroke-width="2"/>
<mask id="mask0" style="mask-type:alpha" maskUnits="userSpaceOnUse" x="3" y="2" width="18" height="9">
<path d="M7.03419 3H16.9658L19 10H5L7.03419 3Z" fill="#EFFFFE" stroke="#009891" stroke-width="2"/>
</mask>
<g mask="url(#mask0)">
<path d="M19 7.75996C19 9.61564 17.7526 9.99996 15.7059 9.99996C13.6592 9.99996 12 9.61564 12 7.75996C12 5.90429 13.6592 4.39996 15.7059 4.39996C17.7526 4.39996 19 5.90429 19 7.75996Z" fill="#C9EBE9"/>
</g>
<path d="M6.82468 3.72094C6.94881 3.29381 7.34015 3 7.78496 3H16.215C16.6599 3 17.0512 3.29381 17.1753 3.72095L18.6283 8.72095C18.8142 9.36074 18.3343 10 17.668 10H6.33197C5.66571 10 5.18577 9.36074 5.37169 8.72095L6.82468 3.72094Z" stroke="#009891" stroke-width="2"/>
<path d="M10.6667 15.4151L9.60489 14.9643C6.86462 13.801 3.7799 13.7462 1 14.8113L1.5 20.5472L3.26581 19.9075C4.81315 19.3469 6.51172 19.3694 8.0437 19.9706L9.71169 20.6252C10.3229 20.8651 11.0046 20.8511 11.6055 20.5864L21.7618 16.1116C22.465 15.8018 22.8194 15.0099 22.5821 14.2791C22.3458 13.5516 21.5991 13.1192 20.8505 13.2764L10.6667 15.4151Z" fill="#EFFFFE"/>
<path d="M1 14.8113L4.57939 13.4398C5.06306 13.2545 5.59976 13.264 6.07653 13.4665L10.6667 15.4151L20.8505 13.2764C21.5991 13.1192 22.3458 13.5516 22.5821 14.2791V14.2791C22.8194 15.0099 22.465 15.8018 21.7618 16.1116L11.6055 20.5864C11.0046 20.8511 10.3229 20.8651 9.7117 20.6252L6.04724 19.1871C5.80196 19.0908 5.53002 19.0872 5.28228 19.177L1.5 20.5472" stroke="#009891" stroke-width="2" stroke-linecap="round" stroke-linejoin="round"/>
<path d="M10.4984 15.2642C12.8317 16.1699 10.8317 18.2831 9.33171 17.6793C8.13171 17.1963 6.72059 16.4718 6.16504 16.1699" stroke="#009891" stroke-width="2" stroke-linecap="round" stroke-linejoin="round"/>
</svg>
