<svg width="24" height="24" viewBox="0 0 24 24" fill="none" xmlns="http://www.w3.org/2000/svg">
<path d="M4.90598 10H19.094L22 20H2L4.90598 10Z" fill="#EFFFFE" stroke="#009891" stroke-width="2"/>
<mask id="mask0" style="mask-type:alpha" maskUnits="userSpaceOnUse" x="0" y="9" width="24" height="12">
<path d="M4.90598 10H19.094L22 20H2L4.90598 10Z" fill="#EFFFFE" stroke="#009891" stroke-width="2"/>
</mask>
<g mask="url(#mask0)">
<path d="M22 16.8001C22 19.451 20.218 20.0001 17.2941 20.0001C14.3703 20.0001 12 19.451 12 16.8001C12 14.1491 14.3703 12.0001 17.2941 12.0001C20.218 12.0001 22 14.1491 22 16.8001Z" fill="#C9EBE9"/>
</g>
<path d="M4.69648 10.7209C4.8206 10.2938 5.21194 10 5.65675 10H18.3432C18.7881 10 19.1794 10.2938 19.3035 10.7209L21.6283 18.7209C21.8142 19.3607 21.3343 20 20.668 20H3.33197C2.66571 20 2.18577 19.3607 2.37169 18.7209L4.69648 10.7209Z" stroke="#009891" stroke-width="2"/>
<path d="M12 5V3" stroke="#009891" stroke-width="2" stroke-linecap="round"/>
<path d="M6.32148 6.50123L5 5" stroke="#009891" stroke-width="2" stroke-linecap="round"/>
<path d="M17.9996 6.60248L19.1963 5" stroke="#009891" stroke-width="2" stroke-linecap="round"/>
</svg>
