<svg width="40" height="40" viewBox="0 0 40 40" fill="none" xmlns="http://www.w3.org/2000/svg">
<path d="M23.3556 4V11.5753C13.1229 10.8178 1.18355 19.1506 4.59425 35.0588C5.551 22.1808 23.3556 22.1808 23.3556 22.1808V28.9986L37 17.6356L23.3556 4Z" fill="#EFFFFE"/>
<path d="M23.3556 11.5753L23.2817 12.5726C23.559 12.5931 23.8323 12.4973 24.0361 12.3081C24.2398 12.1189 24.3556 11.8534 24.3556 11.5753H23.3556ZM23.3556 4L24.0624 3.29266C23.7764 3.0068 23.3463 2.92136 22.9727 3.07618C22.5991 3.231 22.3556 3.5956 22.3556 4H23.3556ZM37 17.6356L37.6399 18.404C37.8559 18.2241 37.9862 17.9617 37.999 17.6809C38.0117 17.4001 37.9057 17.1269 37.7069 16.9282L37 17.6356ZM23.3556 28.9986H22.3556C22.3556 29.3865 22.5799 29.7395 22.9313 29.9041C23.2826 30.0687 23.6974 30.0153 23.9955 29.767L23.3556 28.9986ZM23.3556 22.1808H24.3556C24.3556 21.6285 23.9078 21.1808 23.3556 21.1808V22.1808ZM4.59425 35.0588L3.61647 35.2685C3.72073 35.7548 4.16653 36.0905 4.66272 36.0565C5.1589 36.0224 5.55465 35.6289 5.5915 35.1329L4.59425 35.0588ZM24.3556 11.5753V4H22.3556V11.5753H24.3556ZM22.6487 4.70734L36.2931 18.3429L37.7069 16.9282L24.0624 3.29266L22.6487 4.70734ZM36.3601 16.8672L22.7156 28.2301L23.9955 29.767L37.6399 18.404L36.3601 16.8672ZM24.3556 28.9986V22.1808H22.3556V28.9986H24.3556ZM23.3556 22.1808C23.3556 21.1808 23.3551 21.1808 23.3546 21.1808C23.3544 21.1808 23.3538 21.1808 23.3533 21.1808C23.3523 21.1808 23.351 21.1808 23.3495 21.1808C23.3464 21.1808 23.3422 21.1808 23.3369 21.1808C23.3264 21.1809 23.3117 21.181 23.2928 21.1812C23.2551 21.1817 23.2009 21.1825 23.1313 21.1842C22.9922 21.1876 22.7913 21.1942 22.5372 21.2072C22.0294 21.2334 21.3075 21.2854 20.44 21.3891C18.7096 21.5958 16.3773 22.0106 14.0015 22.8473C9.27073 24.5134 4.1186 27.9639 3.597 34.9847L5.5915 35.1329C6.02665 29.2757 10.2552 26.2871 14.6659 24.7337C16.8608 23.9607 19.0394 23.5706 20.6773 23.3749C21.4939 23.2774 22.1705 23.2288 22.64 23.2046C22.8747 23.1925 23.0573 23.1866 23.1794 23.1836C23.2405 23.1822 23.2864 23.1814 23.3161 23.1811C23.331 23.1809 23.3418 23.1808 23.3484 23.1808C23.3517 23.1808 23.354 23.1808 23.3552 23.1808C23.3558 23.1808 23.3561 23.1808 23.3562 23.1808C23.3562 23.1808 23.356 23.1808 23.3561 23.1808C23.3558 23.1808 23.3556 23.1808 23.3556 22.1808ZM5.57203 34.8492C3.93059 27.1932 5.99065 21.4798 9.57824 17.7618C13.1978 14.0107 18.4445 12.2145 23.2817 12.5726L23.4294 10.5781C18.0339 10.1786 12.1946 12.1701 8.13902 16.3731C4.05146 20.6092 1.8472 27.0162 3.61647 35.2685L5.57203 34.8492Z" fill="#009891"/>
<path d="M24.5385 27.5446C23.0439 26.1782 23.0356 23.6915 23.0356 21.4814C23.0356 17.36 26.3066 14.019 30.3414 14.019C32.5052 14.019 34.7226 15.3431 36.0603 16.8698C31.4266 21.8448 26.162 25.299 24.5385 27.5446Z" fill="#C9EBE9"/>
<path d="M23.3556 11.5753L23.2817 12.5726C23.559 12.5931 23.8323 12.4973 24.0361 12.3081C24.2398 12.1189 24.3556 11.8534 24.3556 11.5753H23.3556ZM23.3556 4L24.0624 3.29266C23.7764 3.0068 23.3463 2.92136 22.9727 3.07618C22.5991 3.231 22.3556 3.5956 22.3556 4H23.3556ZM37 17.6356L37.6399 18.404C37.8559 18.2241 37.9862 17.9617 37.999 17.6809C38.0117 17.4001 37.9057 17.1269 37.7069 16.9282L37 17.6356ZM23.3556 28.9986H22.3556C22.3556 29.3865 22.5799 29.7395 22.9313 29.9041C23.2826 30.0687 23.6974 30.0153 23.9955 29.767L23.3556 28.9986ZM23.3556 22.1808H24.3556C24.3556 21.6285 23.9078 21.1808 23.3556 21.1808V22.1808ZM4.59425 35.0588L3.61647 35.2685C3.72073 35.7548 4.16653 36.0905 4.66272 36.0565C5.1589 36.0224 5.55465 35.6289 5.5915 35.1329L4.59425 35.0588ZM24.3556 11.5753V4H22.3556V11.5753H24.3556ZM22.6487 4.70734L36.2931 18.3429L37.7069 16.9282L24.0624 3.29266L22.6487 4.70734ZM36.3601 16.8672L22.7156 28.2301L23.9955 29.767L37.6399 18.404L36.3601 16.8672ZM24.3556 28.9986V22.1808H22.3556V28.9986H24.3556ZM23.3556 22.1808C23.3556 21.1808 23.3551 21.1808 23.3546 21.1808C23.3544 21.1808 23.3538 21.1808 23.3533 21.1808C23.3523 21.1808 23.351 21.1808 23.3495 21.1808C23.3464 21.1808 23.3422 21.1808 23.3369 21.1808C23.3264 21.1809 23.3117 21.181 23.2928 21.1812C23.2551 21.1817 23.2009 21.1825 23.1313 21.1842C22.9922 21.1876 22.7913 21.1942 22.5372 21.2072C22.0294 21.2334 21.3075 21.2854 20.44 21.3891C18.7096 21.5958 16.3773 22.0106 14.0015 22.8473C9.27073 24.5134 4.1186 27.9639 3.597 34.9847L5.5915 35.1329C6.02665 29.2757 10.2552 26.2871 14.6659 24.7337C16.8608 23.9607 19.0394 23.5706 20.6773 23.3749C21.4939 23.2774 22.1705 23.2288 22.64 23.2046C22.8747 23.1925 23.0573 23.1866 23.1794 23.1836C23.2405 23.1822 23.2864 23.1814 23.3161 23.1811C23.331 23.1809 23.3418 23.1808 23.3484 23.1808C23.3517 23.1808 23.354 23.1808 23.3552 23.1808C23.3558 23.1808 23.3561 23.1808 23.3562 23.1808C23.3562 23.1808 23.356 23.1808 23.3561 23.1808C23.3558 23.1808 23.3556 23.1808 23.3556 22.1808ZM5.57203 34.8492C3.93059 27.1932 5.99065 21.4798 9.57824 17.7618C13.1978 14.0107 18.4445 12.2145 23.2817 12.5726L23.4294 10.5781C18.0339 10.1786 12.1946 12.1701 8.13902 16.3731C4.05146 20.6092 1.8472 27.0162 3.61647 35.2685L5.57203 34.8492Z" fill="#009891"/>
</svg>
