<svg width="40" height="40" viewBox="0 0 40 40" fill="none" xmlns="http://www.w3.org/2000/svg">
<mask id="path-1-inside-1_9866_73565" fill="white">
<path fill-rule="evenodd" clip-rule="evenodd" d="M35.8045 19.1689C35.9329 18.4655 36 17.7406 36 17C36 10.3726 30.6274 5 24 5C19.8673 5 16.2226 7.0891 14.0642 10.2688C13.4057 10.0935 12.7138 10 12 10C7.58172 10 4 13.5817 4 18C4 18.6345 4.07386 19.2517 4.21346 19.8436C2.25536 21.4008 1 23.8038 1 26.5C1 31.1944 4.80558 35 9.5 35H31.5C36.1944 35 40 31.1944 40 26.5C40 23.3763 38.3151 20.6462 35.8045 19.1689Z"/>
</mask>
<path fill-rule="evenodd" clip-rule="evenodd" d="M35.8045 19.1689C35.9329 18.4655 36 17.7406 36 17C36 10.3726 30.6274 5 24 5C19.8673 5 16.2226 7.0891 14.0642 10.2688C13.4057 10.0935 12.7138 10 12 10C7.58172 10 4 13.5817 4 18C4 18.6345 4.07386 19.2517 4.21346 19.8436C2.25536 21.4008 1 23.8038 1 26.5C1 31.1944 4.80558 35 9.5 35H31.5C36.1944 35 40 31.1944 40 26.5C40 23.3763 38.3151 20.6462 35.8045 19.1689Z" fill="#EFFFFE"/>
<path d="M35.8045 19.1689L33.837 18.8098L33.5861 20.1841L34.7902 20.8927L35.8045 19.1689ZM14.0642 10.2688L13.5495 12.2015L14.9216 12.5669L15.719 11.3921L14.0642 10.2688ZM4.21346 19.8436L5.45832 21.4089L6.45129 20.6192L6.16005 19.3844L4.21346 19.8436ZM37.772 19.5281C37.9219 18.7067 38 17.8616 38 17H34C34 17.6195 33.9439 18.2242 33.837 18.8098L37.772 19.5281ZM38 17C38 9.26801 31.732 3 24 3V7C29.5228 7 34 11.4772 34 17H38ZM24 3C19.1767 3 14.9241 5.44088 12.4094 9.1456L15.719 11.3921C17.521 8.73731 20.5579 7 24 7V3ZM14.5789 8.33621C13.754 8.11652 12.8891 8 12 8V12C12.5385 12 13.0574 12.0704 13.5495 12.2015L14.5789 8.33621ZM12 8C6.47715 8 2 12.4772 2 18H6C6 14.6863 8.68629 12 12 12V8ZM2 18C2 18.7902 2.09205 19.5615 2.26687 20.3027L6.16005 19.3844C6.05568 18.942 6 18.4788 6 18H2ZM3 26.5C3 24.4391 3.95681 22.603 5.45832 21.4089L2.9686 18.2782C0.553904 20.1985 -1 23.1684 -1 26.5H3ZM9.5 33C5.91015 33 3 30.0898 3 26.5H-1C-1 32.299 3.70101 37 9.5 37V33ZM31.5 33H9.5V37H31.5V33ZM38 26.5C38 30.0898 35.0899 33 31.5 33V37C37.299 37 42 32.299 42 26.5H38ZM34.7902 20.8927C36.7153 22.0254 38 24.1138 38 26.5H42C42 22.6389 39.9148 19.267 36.8188 17.4452L34.7902 20.8927Z" fill="#009891" mask="url(#path-1-inside-1_9866_73565)"/>
<path d="M21 15C21 14.4477 20.5523 14 20 14C19.4477 14 19 14.4477 19 15L21 15ZM19.2929 28.7071C19.6834 29.0976 20.3166 29.0976 20.7071 28.7071L27.0711 22.3431C27.4616 21.9526 27.4616 21.3195 27.0711 20.9289C26.6805 20.5384 26.0474 20.5384 25.6569 20.9289L20 26.5858L14.3431 20.9289C13.9526 20.5384 13.3195 20.5384 12.9289 20.9289C12.5384 21.3195 12.5384 21.9526 12.9289 22.3431L19.2929 28.7071ZM19 15L19 28L21 28L21 15L19 15Z" fill="#009891"/>
<mask id="mask0_9866_73565" style="mask-type:alpha" maskUnits="userSpaceOnUse" x="1" y="5" width="39" height="30">
<mask id="path-4-inside-2_9866_73565" fill="white">
<path fill-rule="evenodd" clip-rule="evenodd" d="M35.8045 19.1689C35.9329 18.4655 36 17.7406 36 17C36 10.3726 30.6274 5 24 5C19.8673 5 16.2226 7.0891 14.0642 10.2688C13.4057 10.0935 12.7138 10 12 10C7.58172 10 4 13.5817 4 18C4 18.6345 4.07386 19.2517 4.21346 19.8436C2.25536 21.4008 1 23.8038 1 26.5C1 31.1944 4.80558 35 9.5 35H31.5C36.1944 35 40 31.1944 40 26.5C40 23.3763 38.3151 20.6462 35.8045 19.1689Z"/>
</mask>
<path fill-rule="evenodd" clip-rule="evenodd" d="M35.8045 19.1689C35.9329 18.4655 36 17.7406 36 17C36 10.3726 30.6274 5 24 5C19.8673 5 16.2226 7.0891 14.0642 10.2688C13.4057 10.0935 12.7138 10 12 10C7.58172 10 4 13.5817 4 18C4 18.6345 4.07386 19.2517 4.21346 19.8436C2.25536 21.4008 1 23.8038 1 26.5C1 31.1944 4.80558 35 9.5 35H31.5C36.1944 35 40 31.1944 40 26.5C40 23.3763 38.3151 20.6462 35.8045 19.1689Z" fill="#EFFFFE"/>
<path d="M35.8045 19.1689L33.837 18.8098L33.5861 20.1841L34.7902 20.8927L35.8045 19.1689ZM14.0642 10.2688L13.5495 12.2015L14.9216 12.5669L15.719 11.3921L14.0642 10.2688ZM4.21346 19.8436L5.45832 21.4089L6.45129 20.6192L6.16005 19.3844L4.21346 19.8436ZM37.772 19.5281C37.9219 18.7067 38 17.8616 38 17H34C34 17.6195 33.9439 18.2242 33.837 18.8098L37.772 19.5281ZM38 17C38 9.26801 31.732 3 24 3V7C29.5228 7 34 11.4772 34 17H38ZM24 3C19.1767 3 14.9241 5.44088 12.4094 9.1456L15.719 11.3921C17.521 8.73731 20.5579 7 24 7V3ZM14.5789 8.33621C13.754 8.11652 12.8891 8 12 8V12C12.5385 12 13.0574 12.0704 13.5495 12.2015L14.5789 8.33621ZM12 8C6.47715 8 2 12.4772 2 18H6C6 14.6863 8.68629 12 12 12V8ZM2 18C2 18.7902 2.09205 19.5615 2.26687 20.3027L6.16005 19.3844C6.05568 18.942 6 18.4788 6 18H2ZM3 26.5C3 24.4391 3.95681 22.603 5.45832 21.4089L2.9686 18.2782C0.553904 20.1985 -1 23.1684 -1 26.5H3ZM9.5 33C5.91015 33 3 30.0898 3 26.5H-1C-1 32.299 3.70101 37 9.5 37V33ZM31.5 33H9.5V37H31.5V33ZM38 26.5C38 30.0898 35.0899 33 31.5 33V37C37.299 37 42 32.299 42 26.5H38ZM34.7902 20.8927C36.7153 22.0254 38 24.1138 38 26.5H42C42 22.6389 39.9148 19.267 36.8188 17.4452L34.7902 20.8927Z" fill="#009891" mask="url(#path-4-inside-2_9866_73565)"/>
</mask>
<g mask="url(#mask0_9866_73565)">
<circle cx="33.5" cy="30.5" r="8.5" fill="#C9EBE9"/>
</g>
<mask id="path-7-inside-3_9866_73565" fill="white">
<path fill-rule="evenodd" clip-rule="evenodd" d="M35.8045 19.1689C35.9329 18.4655 36 17.7406 36 17C36 10.3726 30.6274 5 24 5C19.8673 5 16.2226 7.0891 14.0642 10.2688C13.4057 10.0935 12.7138 10 12 10C7.58172 10 4 13.5817 4 18C4 18.6345 4.07386 19.2517 4.21346 19.8436C2.25536 21.4008 1 23.8038 1 26.5C1 31.1944 4.80558 35 9.5 35H31.5C36.1944 35 40 31.1944 40 26.5C40 23.3763 38.3151 20.6462 35.8045 19.1689Z"/>
</mask>
<path d="M35.8045 19.1689L33.837 18.8098L33.5861 20.1841L34.7902 20.8927L35.8045 19.1689ZM14.0642 10.2688L13.5495 12.2015L14.9216 12.5669L15.719 11.3921L14.0642 10.2688ZM4.21346 19.8436L5.45832 21.4089L6.45129 20.6192L6.16005 19.3844L4.21346 19.8436ZM37.772 19.5281C37.9219 18.7067 38 17.8616 38 17H34C34 17.6195 33.9439 18.2242 33.837 18.8098L37.772 19.5281ZM38 17C38 9.26801 31.732 3 24 3V7C29.5228 7 34 11.4772 34 17H38ZM24 3C19.1767 3 14.9241 5.44088 12.4094 9.1456L15.719 11.3921C17.521 8.73731 20.5579 7 24 7V3ZM14.5789 8.33621C13.754 8.11652 12.8891 8 12 8V12C12.5385 12 13.0574 12.0704 13.5495 12.2015L14.5789 8.33621ZM12 8C6.47715 8 2 12.4772 2 18H6C6 14.6863 8.68629 12 12 12V8ZM2 18C2 18.7902 2.09205 19.5615 2.26687 20.3027L6.16005 19.3844C6.05568 18.942 6 18.4788 6 18H2ZM3 26.5C3 24.4391 3.95681 22.603 5.45832 21.4089L2.9686 18.2782C0.553904 20.1985 -1 23.1684 -1 26.5H3ZM9.5 33C5.91015 33 3 30.0898 3 26.5H-1C-1 32.299 3.70101 37 9.5 37V33ZM31.5 33H9.5V37H31.5V33ZM38 26.5C38 30.0898 35.0899 33 31.5 33V37C37.299 37 42 32.299 42 26.5H38ZM34.7902 20.8927C36.7153 22.0254 38 24.1138 38 26.5H42C42 22.6389 39.9148 19.267 36.8188 17.4452L34.7902 20.8927Z" fill="#009891" mask="url(#path-7-inside-3_9866_73565)"/>
</svg>
