<?xml version="1.0" encoding="utf-8"?>
<!-- Generator: Adobe Illustrator 24.1.2, SVG Export Plug-In . SVG Version: 6.00 Build 0)  -->
<svg version="1.1" id="圖層_1" xmlns="http://www.w3.org/2000/svg" xmlns:xlink="http://www.w3.org/1999/xlink" x="0px" y="0px"
	 viewBox="0 0 25 24" style="enable-background:new 0 0 25 24;" xml:space="preserve">
<style type="text/css">
	.st0{fill:#EFFFFE;}
	.st1{fill:#009891;}
	.st2{fill:none;stroke:#009891;stroke-width:2;stroke-linecap:round;}
	.st3{fill:#EFFFFE;stroke:#009891;stroke-width:2;}
	.st4{fill:#C9EBE9;}
	.st5{fill:none;stroke:#009891;stroke-width:2;}
</style>
<path class="st0" d="M20,7.1L20,7.1c0-0.6,0-1.1,0-1.6c0-0.8-0.6-1.4-1.4-1.4c-3,0-5.2-0.8-7.1-2.7c-0.5-0.5-1.4-0.5-1.9,0
	C7.7,3.2,5.4,4.1,2.4,4.1C1.7,4.1,1,4.7,1,5.5c0,0.5,0,1,0,1.6C1,9.7,0.9,13,2,15.9c0.6,1.6,1.5,3.1,2.7,4.2
	c1.4,1.3,3.2,2.4,5.3,3.1c0.1,0.1,0.3,0.1,0.5,0.1c0.2,0,0.3,0,0.5-0.1c2.2-0.7,4-1.8,5.3-3.1c1.2-1.2,2.1-2.6,2.7-4.2
	C20.1,13,20,9.7,20,7.1z"/>
<g>
	<path class="st1" d="M10.5,23.4c-0.2,0-0.3,0-0.5-0.1c-2.2-0.7-3.9-1.8-5.3-3.1C3.5,19,2.6,17.6,2,15.9l1.8-0.7L2,15.9
		c-1.1-3-1-6.2-1-8.9h0C1,6.5,1,6,1,5.5c0-0.8,0.6-1.4,1.4-1.4c3,0,5.2-0.8,7.1-2.7c0.5-0.5,1.4-0.5,1.9,0c1.9,1.8,4.1,2.7,7.1,2.7
		c0.8,0,1.4,0.6,1.4,1.4c0,0.5,0,1,0,1.6l-2,0.1v0c0-0.3,0-0.7,0-1c-3-0.1-5.4-1-7.5-2.8C8.5,5,6,5.9,3,6c0,0.3,0,0.7,0,1l-0.3,0
		l0.3,0c0,2.5-0.1,5.5,0.9,8.1l0,0c0.5,1.4,1.3,2.5,2.2,3.5c1.1,1.1,2.6,2,4.4,2.6c1.8-0.6,3.3-1.5,4.4-2.6l0.7,0.7l-0.7-0.7
		c1-1,1.7-2.1,2.2-3.5l0,0c1-2.6,0.9-5.7,0.9-8.1l2,0c0,2.6,0.1,5.9-1,8.9c-0.5,1.3-1.2,2.5-2,3.5l0,0l-0.7,0.7c0,0,0,0,0,0l0,0
		c0,0,0,0,0,0l-0.7,0.7l0,0c-1.2,1-2.8,1.8-4.6,2.5C10.8,23.3,10.7,23.4,10.5,23.4z M10.3,21.4C10.3,21.4,10.3,21.4,10.3,21.4
		C10.3,21.4,10.3,21.4,10.3,21.4z M10.7,21.4C10.7,21.4,10.7,21.4,10.7,21.4C10.7,21.4,10.7,21.4,10.7,21.4z M10.1,2.8
		C10.1,2.8,10.1,2.8,10.1,2.8C10.1,2.8,10.1,2.8,10.1,2.8z"/>
</g>
<line class="st2" x1="7" y1="12.3" x2="14" y2="12.3"/>
<line class="st2" x1="10.4" y1="8.7" x2="10.4" y2="15.6"/>
<circle class="st3" cx="17" cy="15" r="4"/>
<path class="st4" d="M17.7,19c-1-0.5-1.7-1.6-1.7-2.8c0-1.8,1.4-3.2,3-3.2c0.7,0,1.4,0.3,1.9,0.7C21.3,15.9,18.5,18.5,17.7,19z"/>
<circle class="st5" cx="17" cy="15" r="4"/>
<path class="st2" d="M19,18.5l2,3"/>
</svg>
