<?xml version="1.0" encoding="utf-8"?>
<!-- Generator: Adobe Illustrator 25.4.1, SVG Export Plug-In . SVG Version: 6.00 Build 0)  -->
<svg version="1.1" id="圖層_1" xmlns="http://www.w3.org/2000/svg" xmlns:xlink="http://www.w3.org/1999/xlink" x="0px" y="0px"
	 viewBox="0 0 24 24" style="enable-background:new 0 0 24 24;" xml:space="preserve">
<style type="text/css">
	.st0{fill:#EFFFFE;}
	.st1{fill:#C9EBE9;}
	.st2{fill:#009891;}
	.st3{fill:none;stroke:#009891;stroke-width:2;stroke-linecap:round;}
</style>
<path class="st0" d="M21.1,7.1L21.1,7.1c0-0.6,0-1.1,0-1.6c0-0.8-0.6-1.4-1.3-1.4c-2.8,0-5-0.8-6.8-2.7c-0.5-0.5-1.3-0.5-1.9,0
	c-1.8,1.8-4,2.7-6.8,2.7c-0.7,0-1.3,0.6-1.3,1.4c0,0.5,0,1,0,1.6c0,2.6-0.1,5.9,0.9,8.9c0.6,1.6,1.5,3.1,2.6,4.2
	c1.3,1.3,3,2.4,5.1,3.1c0.1,0.1,0.3,0.1,0.4,0.1c0.1,0,0.3,0,0.4-0.1c2.1-0.7,3.8-1.8,5.1-3.1c1.2-1.2,2-2.6,2.6-4.2
	C21.2,13,21.1,9.7,21.1,7.1z"/>
<path class="st1" d="M13.6,21.6c-1.9-1-3.2-3.1-3.2-5.5c0-3.4,2.6-6.1,5.9-6.1c1.4,0,2.7,0.5,3.8,1.4C20.6,15.5,15.2,20.6,13.6,21.6
	z"/>
<path class="st2" d="M12,23.4c-0.1,0-0.3,0-0.4-0.1c-2.1-0.8-3.8-1.8-5.1-3.1c-1.2-1.2-2-2.6-2.6-4.2c-1.1-3-1-6.2-0.9-8.9
	c0-0.6,0-1.1,0-1.6c0-0.8,0.6-1.4,1.3-1.4c2.8,0,5-0.8,6.8-2.7c0.5-0.5,1.4-0.5,1.9,0c1.8,1.8,4,2.7,6.8,2.7c0.7,0,1.3,0.6,1.3,1.4
	c0,0.5,0,1,0,1.6v0c0,2.3,0.1,5.2-0.6,7.9l0,0l-0.3,0.9c0,0,0,0,0,0.1v0c0,0,0,0,0,0.1l-0.3,0.9l0,0c-0.6,1.2-1.3,2.3-2.2,3.3
	c-1.3,1.3-3,2.4-5.1,3.1l-0.2,0.1L12,23.4z M11.8,21.4C11.8,21.4,11.8,21.4,11.8,21.4C11.8,21.4,11.8,21.4,11.8,21.4z M4.9,6
	c0,0.3,0,0.7,0,1.1c0,2.5-0.1,5.5,0.8,8.2c0.5,1.4,1.2,2.5,2.1,3.5c1,1.1,2.4,1.9,4.1,2.6c1.7-0.6,3.1-1.5,4.1-2.6
	c0.9-1,1.7-2.1,2.1-3.5l0,0c0.9-2.6,0.9-5.7,0.8-8.2v0c0-0.3,0-0.7,0-1c-2.8-0.1-5.1-1-7.1-2.8C10.1,5,7.7,5.9,4.9,6z"/>
<line class="st3" x1="8.7" y1="12.3" x2="15.3" y2="12.3"/>
<line class="st3" x1="11.9" y1="8.7" x2="11.9" y2="15.6"/>
</svg>
