<svg width="180" height="180" viewBox="0 0 180 180" fill="none" xmlns="http://www.w3.org/2000/svg">
<path d="M90 158.75C127.97 158.75 158.75 127.97 158.75 90C158.75 52.0304 127.97 21.25 90 21.25C52.0304 21.25 21.25 52.0304 21.25 90C21.25 127.97 52.0304 158.75 90 158.75Z" fill="#EFFFFE" stroke="#C9EBE9"/>
<mask id="mask0_731_8615" style="mask-type:alpha" maskUnits="userSpaceOnUse" x="20" y="20" width="140" height="140">
<path d="M90 158.75C127.97 158.75 158.75 127.97 158.75 90C158.75 52.0304 127.97 21.25 90 21.25C52.0304 21.25 21.25 52.0304 21.25 90C21.25 127.97 52.0304 158.75 90 158.75Z" fill="#EFFFFE" stroke="#C9EBE9"/>
</mask>
<g mask="url(#mask0_731_8615)">
<path d="M116.863 154.129C152.775 139.814 170.283 99.0975 155.968 63.1854C141.653 27.2734 100.936 9.76555 65.0245 24.0805C29.1124 38.3954 11.6046 79.1124 25.9195 115.024C40.2344 150.936 80.9514 168.444 116.863 154.129Z" fill="#E68484"/>
<mask id="mask1_731_8615" style="mask-type:alpha" maskUnits="userSpaceOnUse" x="20" y="19" width="141" height="141">
<path d="M116.863 154.129C152.775 139.814 170.283 99.0975 155.968 63.1854C141.653 27.2734 100.936 9.76555 65.0245 24.0805C29.1124 38.3954 11.6046 79.1124 25.9195 115.024C40.2344 150.936 80.9514 168.444 116.863 154.129Z" fill="#E27373"/>
</mask>
<g mask="url(#mask1_731_8615)">
<path d="M29.6232 116.143C29.6232 116.143 23.1539 122.708 28.3268 137.575C34.0767 154.203 55.2722 160.56 74.2699 157.958L29.6232 116.143Z" fill="#989899"/>
<path d="M154.793 66.2041C154.793 66.2041 164 66.5139 170.461 80.8666C177.714 96.8951 166.699 116.106 151.123 127.301L154.793 66.2041Z" fill="#989899"/>
<path d="M146.394 160.068C145.75 160.325 144.977 160.26 144.334 159.894L138.759 156.517L136.647 163.086C136.238 164.246 134.927 165.017 133.769 164.608C132.611 164.199 131.84 162.888 132.25 161.729L135.267 152.434C135.483 151.725 135.934 151.296 136.685 150.996C137.33 150.739 138.102 150.804 138.638 151.213L146.679 156.095C147.815 156.762 148.114 158.137 147.447 159.274C147.21 159.618 146.824 159.897 146.394 160.068Z" fill="#EC8822"/>
<path d="M63.1659 18.855C26.769 33.3797 8.8135 73.9077 22.9278 109.356C37.7692 146.63 65.1464 166.952 93.2794 168.547C99.2664 168.897 103.43 168.729 108.698 161.647C110.805 158.814 113.942 156.691 117.485 155.277C121.028 153.864 124.827 153.094 128.238 153.849C135.726 155.467 140.173 152.572 144.17 148.238C163.45 127.598 169.356 93.9945 154.558 56.8275C140.443 21.379 99.4554 4.37321 63.1659 18.855Z" fill="#E7E4E2"/>
<path d="M98.2849 23.0137C91.6724 25.1546 86.0016 29.0357 81.8101 33.8202C76.3506 40.1066 68.2989 43.3197 60.0166 42.5171C53.5796 41.9739 46.9041 43.0195 40.6339 46.0197C24.1418 53.9702 15.8743 73.2025 21.4506 90.6442C28.0525 111.287 50.6131 121.702 70.3669 113.819C76.0569 111.549 80.8689 108.01 84.6089 103.655C89.8964 97.5615 97.9484 94.3485 105.973 95.1295C111.68 95.7147 117.604 94.969 123.294 92.6982C143.048 84.8155 152.265 61.719 142.872 42.1903C134.891 25.5835 115.568 17.3616 98.2849 23.0137Z" fill="white"/>
<path d="M61.4212 135.699C57.9875 135.825 54.964 134.169 53.1005 131.676C53.3945 136.164 57.102 139.539 61.523 139.393C65.944 139.246 69.469 135.599 69.5397 131.09C67.7547 133.794 64.855 135.573 61.4212 135.699Z" fill="#989899"/>
<path d="M85.9766 149.559C82.5429 149.685 79.5194 148.029 77.6561 145.536C77.9499 150.024 81.6576 153.399 86.0786 153.253C90.4996 153.107 94.0244 149.46 94.0954 144.95C92.3104 147.654 89.4106 149.434 85.9766 149.559Z" fill="#989899"/>
<path d="M115.554 142.615C112.397 143.75 108.922 143.146 106.328 141.318C107.953 145.399 112.542 147.551 116.815 146.095C120.98 144.681 123.24 140.046 121.937 135.836C121.053 138.927 118.71 141.48 115.554 142.615Z" fill="#989899"/>
<path d="M138.556 127.586C141.134 125.313 142.191 122.028 141.83 118.936C144.701 122.396 144.329 127.399 141.02 130.337C137.711 133.276 132.646 133.057 129.496 129.833C132.65 130.566 135.977 129.86 138.556 127.586Z" fill="#989899"/>
<path d="M88.8969 130.964C85.5269 131.562 82.2451 130.507 79.9951 128.293C80.9759 132.631 85.1994 135.427 89.6211 134.658C94.0004 133.781 96.8389 129.661 96.3304 125.259C94.9529 128.049 92.2671 130.366 88.8969 130.964Z" fill="#989899"/>
<path d="M144.293 102.637C146.872 100.363 147.928 97.0788 147.568 93.9863C150.438 97.4463 150.066 102.449 146.757 105.388C143.448 108.327 138.384 108.107 135.234 104.883C138.387 105.616 141.715 104.911 144.293 102.637Z" fill="#989899"/>
<path d="M121.101 118.115C123.957 116.228 125.614 113.202 125.726 110.046C127.995 113.87 126.851 118.808 123.113 121.295C119.333 123.675 114.441 122.64 111.786 119.094C114.703 120.171 118.244 120.002 121.101 118.115Z" fill="#989899"/>
<path d="M68.2241 26.281C68.2241 26.281 70.9184 18.3597 77.3846 13.6629C82.8631 9.60948 78.6831 6.29868 74.3404 11.6416C70.7499 16.0619 68.2241 26.281 68.2241 26.281Z" fill="#989899"/>
<path d="M63.8325 26.166C63.8325 26.166 60.0212 19.7194 53.864 17.6949C49.423 16.2304 50.3512 12.623 51.9192 11.8728C54.8625 10.2003 59.2787 13.7911 63.8325 26.166Z" fill="#989899"/>
<path d="M60.3346 26.4403C60.3346 26.4403 45.9894 18.8473 41.0672 24.2968C37.5852 28.0512 51.7104 24.779 60.3346 26.4403Z" fill="#989899"/>
<path d="M55.3786 88.0534C63.1576 84.9489 63.5836 79.5959 61.3871 74.0791C59.1906 68.5621 52.9393 65.8741 47.4243 68.0751C41.9095 70.2761 39.2194 76.5326 41.4159 82.0494C43.6123 87.5661 48.5466 90.7799 55.3786 88.0534Z" fill="#231F20"/>
<path d="M49.2122 80.057C51.1692 79.276 52.1237 77.056 51.3444 75.0983C50.5649 73.1408 48.3469 72.187 46.3899 72.968C44.433 73.749 43.4784 75.969 44.2578 77.9265C45.0372 79.8843 47.2554 80.838 49.2122 80.057Z" fill="white"/>
<path d="M114.639 64.4129C122.6 61.2356 122.844 55.9553 120.647 50.4383C118.451 44.9216 112.2 42.2335 106.685 44.4345C101.17 46.6353 98.4796 52.8918 100.676 58.4088C102.873 63.9256 106.678 67.5899 114.639 64.4129Z" fill="#231F20"/>
<path d="M108.472 56.4174C110.429 55.6364 111.384 53.4164 110.605 51.4589C109.825 49.5011 107.607 48.5474 105.65 49.3284C103.693 50.1094 102.739 52.3294 103.518 54.2871C104.297 56.2446 106.516 57.1986 108.472 56.4174Z" fill="white"/>
<path d="M74.8145 66.2396C74.8145 66.2396 80.2795 72.1503 82.2 80.0976L90.4682 76.7986C90.4682 76.7986 85.4362 68.2256 85.5525 61.9551L74.8145 66.2396Z" fill="#D32E2E"/>
<path d="M74.8137 66.2386L82.0207 68.7143L85.55 61.9538C85.55 61.9538 79.0492 60.9388 74.8137 66.2386Z" fill="#EC8822"/>
<path d="M90.5116 76.9072L85.7906 76.9242L82.2451 80.206C82.2451 80.206 87.4146 81.6277 90.5116 76.9072Z" fill="#EC8822"/>
</g>
</g>
</svg>
