<svg width="40" height="40" viewBox="0 0 40 40" fill="none" xmlns="http://www.w3.org/2000/svg">
<mask id="mask0_101_74" style="mask-type:alpha" maskUnits="userSpaceOnUse" x="0" y="0" width="40" height="40">
<path d="M39.2433 20.0004C39.2433 30.628 30.628 39.2433 20.0004 39.2433C9.37289 39.2433 0.757568 30.628 0.757568 20.0004C0.757568 9.37289 9.37289 0.757568 20.0004 0.757568C30.628 0.757568 39.2433 9.37289 39.2433 20.0004Z" fill="#E68484"/>
</mask>
<g mask="url(#mask0_101_74)">
<path d="M39.2433 20.0004C39.2433 30.628 30.628 39.2433 20.0004 39.2433C9.37289 39.2433 0.757568 30.628 0.757568 20.0004C0.757568 9.37289 9.37289 0.757568 20.0004 0.757568C30.628 0.757568 39.2433 9.37289 39.2433 20.0004Z" fill="#E68484"/>
<mask id="mask1_101_74" style="mask-type:alpha" maskUnits="userSpaceOnUse" x="0" y="0" width="40" height="40">
<path d="M39.2433 20.0004C39.2433 30.628 30.628 39.2433 20.0004 39.2433C9.37289 39.2433 0.757568 30.628 0.757568 20.0004C0.757568 9.37289 9.37289 0.757568 20.0004 0.757568C30.628 0.757568 39.2433 9.37289 39.2433 20.0004Z" fill="#E27373"/>
</mask>
<g mask="url(#mask1_101_74)">
<path d="M3.14364 27.4332C3.14364 27.4332 1.36525 29.238 2.78727 33.3248C4.3679 37.8959 10.1945 39.6433 15.4169 38.9281L3.14364 27.4332Z" fill="#989899"/>
<path d="M37.552 13.705C37.552 13.705 40.0829 13.7902 41.8591 17.7357C43.853 22.1419 40.8248 27.4228 36.5431 30.5004L37.552 13.705Z" fill="#989899"/>
<path d="M35.2427 39.5079C35.0656 39.5785 34.8533 39.5606 34.6764 39.4601L33.1439 38.5318L32.5632 40.3376C32.4507 40.6563 32.0905 40.8684 31.7721 40.756C31.4537 40.6435 31.2419 40.2832 31.3544 39.9645L32.1839 37.4092C32.2432 37.2145 32.3672 37.0965 32.5738 37.0141C32.7509 36.9434 32.9632 36.9613 33.1106 37.0736L35.3209 38.4158C35.6333 38.5992 35.7154 38.977 35.5321 39.2897C35.467 39.3841 35.3607 39.4608 35.2427 39.5079Z" fill="#EC8822"/>
<path d="M12.3634 0.68892C2.35796 4.68172 -2.57798 15.8228 1.30202 25.5675C5.3819 35.8142 12.9078 41.4004 20.6415 41.839C22.2874 41.935 23.4319 41.8889 24.8801 39.9422C25.4593 39.1635 26.3215 38.5799 27.2955 38.1912C28.2695 37.8025 29.314 37.591 30.2517 37.7985C32.31 38.2433 33.5324 37.4476 34.6314 36.2561C39.9313 30.5821 41.5549 21.3446 37.4868 11.1274C33.6068 1.38276 22.3393 -3.2921 12.3634 0.68892Z" fill="#E7E4E2"/>
<path d="M22.018 1.83195C20.2002 2.42047 18.6413 3.48738 17.4892 4.80263C15.9883 6.53074 13.7749 7.41403 11.4981 7.19338C9.7286 7.04407 7.89357 7.33152 6.16986 8.15625C1.63623 10.3418 -0.636499 15.6287 0.896427 20.4235C2.71127 26.0981 8.91314 28.9612 14.3434 26.7942C15.9076 26.17 17.2304 25.1973 18.2585 24C19.712 22.325 21.9255 21.4417 24.1315 21.6564C25.7004 21.8173 27.3289 21.6123 28.893 20.9881C34.3233 18.8211 36.8571 12.472 34.2749 7.10357C32.0809 2.53837 26.769 0.278211 22.018 1.83195Z" fill="white"/>
<path d="M11.8846 32.8088C10.9406 32.8433 10.1095 32.388 9.59725 31.7028C9.67803 32.9366 10.6973 33.8643 11.9126 33.8241C13.1279 33.7839 14.0969 32.7813 14.1164 31.5417C13.6256 32.285 12.8285 32.7742 11.8846 32.8088Z" fill="#989899"/>
<path d="M18.6343 36.6193C17.6904 36.6539 16.8592 36.1986 16.347 35.5133C16.4278 36.7471 17.447 37.6748 18.6623 37.6346C19.8776 37.5945 20.8466 36.5919 20.8661 35.3522C20.3754 36.0956 19.5783 36.5848 18.6343 36.6193Z" fill="#989899"/>
<path d="M26.7658 34.71C25.8982 35.0221 24.9428 34.8559 24.2297 34.3535C24.6764 35.4754 25.938 36.0669 27.1125 35.6666C28.2575 35.2781 28.8787 34.0037 28.5206 32.8464C28.2775 33.6962 27.6335 34.398 26.7658 34.71Z" fill="#989899"/>
<path d="M33.0881 30.5788C33.797 29.9537 34.0874 29.0508 33.9883 28.2007C34.7774 29.1518 34.6751 30.5271 33.7654 31.335C32.8558 32.1429 31.4636 32.0826 30.5977 31.1963C31.4646 31.3978 32.3793 31.2039 33.0881 30.5788Z" fill="#989899"/>
<path d="M19.4369 31.5072C18.5105 31.6716 17.6084 31.3816 16.9898 30.773C17.2595 31.9656 18.4205 32.734 19.636 32.5227C20.8398 32.2818 21.6202 31.1492 21.4803 29.9389C21.1017 30.706 20.3633 31.3428 19.4369 31.5072Z" fill="#989899"/>
<path d="M34.6653 23.7204C35.3741 23.0953 35.6645 22.1924 35.5655 21.3423C36.3546 22.2934 36.2523 23.6687 35.3426 24.4766C34.4329 25.2844 33.0408 25.2241 32.1749 24.3379C33.0418 24.5394 33.9564 24.3454 34.6653 23.7204Z" fill="#989899"/>
<path d="M28.2897 27.9753C29.0751 27.4565 29.5305 26.6247 29.5613 25.757C30.1851 26.8083 29.8704 28.1656 28.8429 28.8494C27.8037 29.5037 26.4591 29.2191 25.729 28.2444C26.5309 28.5403 27.5043 28.494 28.2897 27.9753Z" fill="#989899"/>
<path d="M13.7544 2.73015C13.7544 2.73015 14.495 0.55261 16.2726 -0.738517C17.7786 -1.8528 16.6295 -2.76293 15.4357 -1.29418C14.4487 -0.0790609 13.7544 2.73015 13.7544 2.73015Z" fill="#989899"/>
<path d="M12.546 2.69846C12.546 2.69846 11.4983 0.926304 9.80566 0.36977C8.58485 -0.0328263 8.84004 -1.02447 9.27108 -1.23071C10.0801 -1.69048 11.2942 -0.703388 12.546 2.69846Z" fill="#989899"/>
<path d="M11.5842 2.77394C11.5842 2.77394 7.6407 0.686642 6.2876 2.18468C5.33042 3.21677 9.21339 2.31724 11.5842 2.77394Z" fill="#989899"/>
<path d="M10.2246 19.7114C12.363 18.858 12.4801 17.3865 11.8763 15.8699C11.2725 14.3533 9.55402 13.6144 8.03799 14.2194C6.52195 14.8245 5.78245 16.5444 6.38625 18.0609C6.99006 19.5775 8.3465 20.4609 10.2246 19.7114Z" fill="#231F20"/>
<path d="M8.52872 17.5134C9.06666 17.2987 9.32907 16.6884 9.11482 16.1503C8.90057 15.6121 8.29081 15.3499 7.75286 15.5646C7.21491 15.7793 6.95249 16.3896 7.16674 16.9278C7.38098 17.4659 7.99077 17.7281 8.52872 17.5134Z" fill="white"/>
<path d="M26.5136 13.2126C28.702 12.3393 28.7692 10.8877 28.1654 9.37112C27.5615 7.85455 25.8431 7.11561 24.3271 7.72064C22.811 8.32568 22.0715 10.0456 22.6753 11.5622C23.2791 13.0787 24.3252 14.086 26.5136 13.2126Z" fill="#231F20"/>
<path d="M24.818 11.0149C25.356 10.8002 25.6184 10.1899 25.4041 9.65173C25.1899 9.11359 24.5801 8.85139 24.0421 9.06609C23.5042 9.28079 23.2418 9.89108 23.456 10.4292C23.6703 10.9674 24.2801 11.2296 24.818 11.0149Z" fill="white"/>
<path d="M15.5652 13.7148C15.5652 13.7148 17.0675 15.3397 17.5954 17.5244L19.8684 16.6175C19.8684 16.6175 18.4851 14.2608 18.5171 12.5371L15.5652 13.7148Z" fill="#D32E2E"/>
<path d="M15.5648 13.7145L17.546 14.3951L18.5162 12.5367C18.5162 12.5367 16.7291 12.2576 15.5648 13.7145Z" fill="#EC8822"/>
<path d="M19.8801 16.6473L18.5824 16.652L17.6077 17.5541C17.6077 17.5541 19.0287 17.945 19.8801 16.6473Z" fill="#EC8822"/>
</g>
</g>
</svg>
