<svg width="180" height="180" viewBox="0 0 180 180" fill="none" xmlns="http://www.w3.org/2000/svg">
<path d="M107.814 134.689C132.494 124.851 144.526 96.868 134.689 72.1876C124.851 47.5072 96.8681 35.475 72.1877 45.3129C47.5073 55.1508 35.4751 83.1334 45.313 107.814C55.1509 132.494 83.1335 144.526 107.814 134.689Z" fill="#E68484"/>
<mask id="mask0_731_8820" style="mask-type:alpha" maskUnits="userSpaceOnUse" x="41" y="41" width="98" height="98">
<path d="M107.814 134.689C132.494 124.851 144.526 96.868 134.689 72.1876C124.851 47.5072 96.8681 35.475 72.1877 45.3129C47.5073 55.1508 35.4751 83.1334 45.313 107.814C55.1509 132.494 83.1335 144.526 107.814 134.689Z" fill="#E27373"/>
</mask>
<g mask="url(#mask0_731_8820)">
<path d="M47.8585 108.583C47.8585 108.583 43.4125 113.095 46.9675 123.312C50.9192 134.74 65.4857 139.108 78.5417 137.321L47.8585 108.583Z" fill="#989899"/>
<path d="M133.88 74.2627C133.88 74.2627 140.208 74.4757 144.648 84.3394C149.633 95.3549 142.063 108.557 131.358 116.251L133.88 74.2627Z" fill="#989899"/>
<path d="M128.107 138.77C127.665 138.947 127.134 138.902 126.692 138.651L122.86 136.33L121.409 140.844C121.127 141.641 120.227 142.171 119.431 141.89C118.635 141.609 118.105 140.708 118.386 139.912L120.46 133.523C120.608 133.037 120.919 132.742 121.435 132.536C121.878 132.359 122.409 132.404 122.777 132.684L128.303 136.04C129.084 136.498 129.289 137.443 128.831 138.225C128.668 138.461 128.402 138.652 128.107 138.77Z" fill="#EC8822"/>
<path d="M70.9097 41.7226C45.896 51.7047 33.5563 79.5572 43.2563 103.919C53.456 129.536 72.2707 143.501 91.605 144.598C95.7195 144.838 98.581 144.723 102.202 139.856C103.65 137.909 105.805 136.45 108.24 135.478C110.675 134.506 113.286 133.978 115.631 134.497C120.776 135.609 123.832 133.619 126.58 130.641C139.83 116.455 143.889 93.3617 133.718 67.8189C124.018 43.4572 95.8492 31.77 70.9097 41.7226Z" fill="#E7E4E2"/>
<path d="M95.0455 44.5802C90.5013 46.0514 86.604 48.7187 83.7235 52.0069C79.9715 56.3272 74.4378 58.5354 68.746 57.9837C64.322 57.6104 59.7345 58.3292 55.4253 60.3909C44.0912 65.8549 38.4094 79.0722 42.2417 91.0589C46.7788 105.245 62.2835 112.403 75.8593 106.986C79.7695 105.425 83.0765 102.994 85.6468 100C89.2808 95.8129 94.8143 93.6047 100.329 94.1412C104.252 94.5437 108.323 94.0309 112.233 92.4707C125.809 87.0532 132.143 71.1802 125.688 57.7592C120.203 46.3462 106.923 40.6958 95.0455 44.5802Z" fill="white"/>
<path d="M69.7115 122.023C67.3515 122.109 65.2738 120.971 63.993 119.258C64.195 122.343 66.7433 124.662 69.7815 124.561C72.8198 124.461 75.2423 121.954 75.291 118.855C74.064 120.714 72.0713 121.937 69.7115 122.023Z" fill="#989899"/>
<path d="M86.5865 131.548C84.2265 131.635 82.1488 130.497 80.868 128.784C81.07 131.868 83.6183 134.187 86.6565 134.087C89.6948 133.986 92.1173 131.48 92.166 128.381C90.939 130.239 88.9463 131.462 86.5865 131.548Z" fill="#989899"/>
<path d="M106.914 126.775C104.745 127.555 102.356 127.14 100.574 125.884C101.69 128.689 104.844 130.167 107.78 129.167C110.643 128.195 112.196 125.009 111.301 122.116C110.693 124.241 109.083 125.995 106.914 126.775Z" fill="#989899"/>
<path d="M122.722 116.447C124.494 114.884 125.22 112.627 124.972 110.502C126.945 112.88 126.69 116.318 124.415 118.338C122.141 120.357 118.661 120.206 116.496 117.991C118.663 118.495 120.95 118.01 122.722 116.447Z" fill="#989899"/>
<path d="M88.593 118.768C86.277 119.179 84.0215 118.454 82.4752 116.933C83.1492 119.914 86.0517 121.835 89.0907 121.307C92.1002 120.705 94.051 117.873 93.7015 114.848C92.7547 116.765 90.909 118.357 88.593 118.768Z" fill="#989899"/>
<path d="M126.665 99.3014C128.437 97.7389 129.163 95.4817 128.915 93.3564C130.888 95.7342 130.632 99.1724 128.358 101.192C126.084 103.212 122.604 103.061 120.439 100.845C122.606 101.349 124.893 100.864 126.665 99.3014Z" fill="#989899"/>
<path d="M110.725 109.939C112.689 108.642 113.827 106.563 113.904 104.394C115.464 107.022 114.677 110.415 112.108 112.125C109.51 113.76 106.149 113.049 104.324 110.612C106.328 111.352 108.762 111.236 110.725 109.939Z" fill="#989899"/>
<path d="M74.386 46.8259C74.386 46.8259 76.2375 41.3821 80.6815 38.1543C84.4465 35.3686 81.5737 33.0933 78.5892 36.7652C76.1217 39.803 74.386 46.8259 74.386 46.8259Z" fill="#989899"/>
<path d="M71.3667 46.7471C71.3667 46.7471 68.7475 42.3167 64.516 40.9253C61.464 39.9188 62.102 37.4397 63.1795 36.9241C65.2022 35.7747 68.2372 38.2424 71.3667 46.7471Z" fill="#989899"/>
<path d="M68.963 46.9355C68.963 46.9355 59.1042 41.7172 55.7215 45.4623C53.3285 48.0425 63.036 45.7938 68.963 46.9355Z" fill="#989899"/>
<path d="M65.5615 89.2786C70.9075 87.1451 71.2003 83.4663 69.6908 79.6748C68.1813 75.8833 63.885 74.0361 60.095 75.5486C56.305 77.0613 54.456 81.3611 55.9658 85.1523C57.4753 88.9438 60.8663 91.1524 65.5615 89.2786Z" fill="#231F20"/>
<path d="M61.323 83.784C62.668 83.2473 63.324 81.7215 62.7882 80.376C62.2527 79.0308 60.7282 78.3753 59.3832 78.912C58.0385 79.4488 57.3825 80.9745 57.918 82.3198C58.4537 83.6653 59.9782 84.3208 61.323 83.784Z" fill="white"/>
<path d="M106.284 73.0316C111.755 70.8481 111.923 67.2191 110.413 63.4279C108.904 59.6364 104.608 57.7889 100.818 59.3016C97.0275 60.8141 95.1787 65.1139 96.6882 68.9054C98.1977 72.6969 100.813 75.2149 106.284 73.0316Z" fill="#231F20"/>
<path d="M102.046 67.5367C103.391 67 104.047 65.4742 103.511 64.129C102.975 62.7837 101.451 62.1282 100.106 62.665C98.761 63.2017 98.105 64.7275 98.6408 66.0727C99.1763 67.418 100.701 68.0735 102.046 67.5367Z" fill="white"/>
<path d="M82.5 75.4445C82.5 75.4445 86.2557 79.5065 87.5755 84.9683L93.258 82.701C93.258 82.701 89.7998 76.8093 89.8798 72.5L82.5 75.4445Z" fill="#D32E2E"/>
<path d="M78.9139 74.2863L83.8667 75.9878L86.2922 71.3416C86.2922 71.3416 81.8247 70.6441 78.9139 74.2863Z" fill="#EC8822"/>
<path d="M89.701 81.6191L86.4565 81.6311L84.0198 83.8864C84.0198 83.8864 87.5725 84.8634 89.701 81.6191Z" fill="#EC8822"/>
</g>
<mask id="mask1_731_8820" style="mask-type:alpha" maskUnits="userSpaceOnUse" x="20" y="20" width="140" height="140">
<path d="M90 158.75C127.97 158.75 158.75 127.97 158.75 90C158.75 52.0304 127.97 21.25 90 21.25C52.0304 21.25 21.25 52.0304 21.25 90C21.25 127.97 52.0304 158.75 90 158.75Z" fill="#EFFFFE" stroke="#C9EBE9"/>
</mask>
<g mask="url(#mask1_731_8820)">
<path d="M116.863 154.129C152.775 139.814 170.283 99.0975 155.968 63.1854C141.653 27.2734 100.936 9.76555 65.0245 24.0805C29.1124 38.3954 11.6046 79.1124 25.9195 115.024C40.2344 150.936 80.9514 168.444 116.863 154.129Z" fill="#E68484"/>
<mask id="mask2_731_8820" style="mask-type:alpha" maskUnits="userSpaceOnUse" x="20" y="19" width="141" height="141">
<path d="M116.863 154.129C152.775 139.814 170.283 99.0975 155.968 63.1854C141.653 27.2734 100.936 9.76555 65.0245 24.0805C29.1124 38.3954 11.6046 79.1124 25.9195 115.024C40.2344 150.936 80.9514 168.444 116.863 154.129Z" fill="#E27373"/>
</mask>
<g mask="url(#mask2_731_8820)">
<path d="M29.6232 116.145C29.6232 116.145 23.1539 122.71 28.3268 137.577C34.0767 154.205 55.2722 160.561 74.2699 157.96L29.6232 116.145Z" fill="#989899"/>
<path d="M154.793 66.2051C154.793 66.2051 164 66.5148 170.461 80.8673C177.714 96.8958 166.699 116.106 151.123 127.302L154.793 66.2051Z" fill="#989899"/>
<path d="M146.394 160.069C145.75 160.326 144.977 160.261 144.334 159.895L138.759 156.518L136.647 163.087C136.238 164.246 134.927 165.018 133.769 164.609C132.611 164.2 131.84 162.889 132.25 161.73L135.267 152.435C135.483 151.726 135.934 151.297 136.685 150.997C137.33 150.74 138.102 150.805 138.638 151.214L146.679 156.096C147.815 156.763 148.114 158.138 147.447 159.275C147.21 159.619 146.824 159.897 146.394 160.069Z" fill="#EC8822"/>
<path d="M63.1659 18.856C26.769 33.3807 8.8135 73.9088 22.9278 109.357C37.7692 146.632 65.1464 166.953 93.2794 168.548C99.2664 168.898 103.43 168.73 108.698 161.648C110.805 158.815 113.942 156.692 117.485 155.279C121.028 153.865 124.827 153.095 128.238 153.85C135.726 155.468 140.173 152.573 144.17 148.239C163.45 127.599 169.356 93.9955 154.558 56.8283C140.443 21.38 99.4554 4.3742 63.1659 18.856Z" fill="#E7E4E2"/>
<path d="M98.2849 23.0147C91.6724 25.1555 86.0016 29.0367 81.8101 33.8211C76.3506 40.1075 68.2989 43.3207 60.0166 42.518C53.5796 41.9749 46.9041 43.0205 40.6339 46.0206C24.1418 53.9711 15.8743 73.2033 21.4506 90.6453C28.0525 111.288 50.6131 121.703 70.3669 113.82C76.0569 111.55 80.8689 108.011 84.6089 103.656C89.8964 97.5626 97.9484 94.3493 105.973 95.1303C111.68 95.7158 117.604 94.9698 123.294 92.6993C143.048 84.8163 152.265 61.7201 142.872 42.1913C134.891 25.5844 115.568 17.3626 98.2849 23.0147Z" fill="white"/>
<path d="M61.4211 135.7C57.9873 135.826 54.9638 134.169 53.1003 131.677C53.3943 136.165 57.1018 139.54 61.5228 139.394C65.9438 139.247 69.4688 135.6 69.5396 131.091C67.7546 133.795 64.8548 135.574 61.4211 135.7Z" fill="#989899"/>
<path d="M85.9766 149.56C82.5429 149.686 79.5194 148.03 77.6561 145.537C77.9499 150.025 81.6576 153.4 86.0786 153.254C90.4996 153.108 94.0244 149.46 94.0954 144.951C92.3104 147.655 89.4106 149.435 85.9766 149.56Z" fill="#989899"/>
<path d="M115.554 142.615C112.397 143.75 108.922 143.146 106.328 141.318C107.953 145.4 112.542 147.551 116.815 146.095C120.98 144.682 123.24 140.046 121.937 135.836C121.053 138.927 118.71 141.48 115.554 142.615Z" fill="#989899"/>
<path d="M138.556 127.587C141.134 125.314 142.191 122.029 141.83 118.937C144.701 122.396 144.329 127.399 141.02 130.338C137.711 133.277 132.646 133.058 129.496 129.834C132.65 130.567 135.977 129.861 138.556 127.587Z" fill="#989899"/>
<path d="M88.8969 130.965C85.5269 131.563 82.2451 130.508 79.9951 128.294C80.9759 132.632 85.1994 135.428 89.6211 134.659C94.0004 133.782 96.8389 129.662 96.3304 125.26C94.9529 128.05 92.2671 130.367 88.8969 130.965Z" fill="#989899"/>
<path d="M144.293 102.638C146.872 100.364 147.928 97.0798 147.568 93.9873C150.438 97.4471 150.066 102.45 146.757 105.389C143.448 108.328 138.384 108.108 135.234 104.884C138.387 105.617 141.715 104.912 144.293 102.638Z" fill="#989899"/>
<path d="M121.101 118.116C123.957 116.229 125.614 113.203 125.726 110.047C127.995 113.871 126.851 118.809 123.113 121.296C119.333 123.676 114.441 122.641 111.786 119.096C114.703 120.172 118.244 120.003 121.101 118.116Z" fill="#989899"/>
<path d="M68.2241 26.2819C68.2241 26.2819 70.9184 18.3607 77.3846 13.6639C82.8631 9.61046 78.6831 6.29966 74.3404 11.6426C70.7499 16.0628 68.2241 26.2819 68.2241 26.2819Z" fill="#989899"/>
<path d="M63.8325 26.167C63.8325 26.167 60.0212 19.7204 53.864 17.6959C49.423 16.2314 50.3512 12.624 51.9192 11.8738C54.8625 10.2013 59.2787 13.792 63.8325 26.167Z" fill="#989899"/>
<path d="M60.3346 26.4413C60.3346 26.4413 45.9894 18.8483 41.0672 24.2977C37.5852 28.0522 51.7104 24.7799 60.3346 26.4413Z" fill="#989899"/>
<path d="M55.3786 88.0545C63.1576 84.9497 63.5836 79.597 61.3871 74.08C59.1906 68.5632 52.9393 65.8752 47.4243 68.076C41.9095 70.277 39.2194 76.5335 41.4159 82.0505C43.6123 87.5672 48.5466 90.781 55.3786 88.0545Z" fill="#231F20"/>
<path d="M49.2122 80.0582C51.1692 79.2772 52.1237 77.057 51.3444 75.0995C50.5649 73.1417 48.3469 72.188 46.3899 72.969C44.433 73.75 43.4784 75.9702 44.2578 77.9277C45.0372 79.8852 47.2554 80.8392 49.2122 80.0582Z" fill="white"/>
<path d="M114.639 64.4137C122.6 61.2367 122.844 55.9562 120.647 50.4394C118.451 44.9226 112.2 42.2345 106.685 44.4355C101.17 46.6364 98.4796 52.8929 100.676 58.4097C102.873 63.9267 106.678 67.5909 114.639 64.4137Z" fill="#231F20"/>
<path d="M108.472 56.4183C110.429 55.6373 111.384 53.4171 110.605 51.4596C109.825 49.5021 107.607 48.5483 105.65 49.3293C103.693 50.1103 102.739 52.3303 103.518 54.2878C104.297 56.2456 106.516 57.1993 108.472 56.4183Z" fill="white"/>
<path d="M74.8145 66.2406C74.8145 66.2406 80.2794 72.1511 82.1999 80.0986L90.4682 76.7996C90.4682 76.7996 85.4362 68.2263 85.5525 61.9561L74.8145 66.2406Z" fill="#D32E2E"/>
<path d="M74.8136 66.2396L82.0206 68.7153L85.5498 61.9548C85.5498 61.9548 79.0491 60.9398 74.8136 66.2396Z" fill="#EC8822"/>
<path d="M90.5116 76.9082L85.7906 76.9255L82.2451 80.2072C82.2451 80.2072 87.4146 81.629 90.5116 76.9082Z" fill="#EC8822"/>
<path fill-rule="evenodd" clip-rule="evenodd" d="M130.565 86.7845C133.98 84.938 138.503 81.348 142.675 74.3593C146.746 67.542 146.778 59.7625 145.731 53.575C145.209 50.494 144.426 47.8463 143.773 45.97C143.448 45.033 143.155 44.2913 142.946 43.7873C142.841 43.5354 142.757 43.3431 142.701 43.2157C142.672 43.1521 142.651 43.1047 142.637 43.0742L142.622 43.0413L142.619 43.0345C142.324 42.4104 142.591 41.6649 143.215 41.3701C143.839 41.0752 144.584 41.3421 144.879 41.9663L143.749 42.5003C144.879 41.9663 144.879 41.9663 144.879 41.9663L144.88 41.9687L144.882 41.9727L144.888 41.9857L144.909 42.0313C144.927 42.0704 144.952 42.1266 144.985 42.1994C145.05 42.3448 145.142 42.5563 145.255 42.8285C145.481 43.3728 144.655 44.0121 144.998 45.0003C145.685 46.9748 145.181 44.6443 145.731 47.8935C148.812 55.3935 149.321 67.2345 146.917 74.3593C143.749 83.7503 136.248 90.0003 132.499 92.5C130.595 93.5295 128.674 94.6928 127.499 95.0003C126.911 95.154 125.98 91.128 125.645 91.1798C125.478 91.2058 125.345 91.222 125.25 91.2323C125.202 91.2375 125.164 91.241 125.135 91.2435L125.1 91.2463L125.088 91.247L125.083 91.2475C125.083 91.2475 125.079 91.2478 125 90" fill="#009891"/>
<path fill-rule="evenodd" clip-rule="evenodd" d="M62.7184 114.954C58.6467 115.963 52.4194 116.386 43.9968 113.841C35.7806 111.357 30.0893 105.169 26.4197 99.4663C24.5924 96.6268 23.2896 93.943 22.4446 91.9703C22.0225 90.985 21.7159 90.1798 21.516 89.6253C21.4161 89.348 21.3429 89.1335 21.2955 88.9905C21.2717 88.9193 21.2544 88.8658 21.2434 88.8313L21.2316 88.7938L21.2292 88.786C21.0099 88.0735 20.254 87.6723 19.5409 87.8905C18.8275 88.109 18.4268 88.8643 18.6458 89.577L19.9374 89.1815C18.6458 89.577 18.6458 89.577 18.6458 89.577L18.6466 89.5798L18.6481 89.5845L18.6527 89.5993L18.6691 89.651C18.6832 89.6953 18.7037 89.7588 18.7309 89.8403C18.7851 90.0035 18.8656 90.2393 18.9736 90.539C19.1894 91.138 19.8485 89.4998 20.2936 90.539C21.1829 92.615 21.2499 92.4998 22.2821 94.9295C25.2832 103.159 33.4994 112.985 40.6085 116.926C49.9787 122.12 60.5212 121.655 65.3364 120.924C67.6069 120.362 69.9882 119.893 71.1514 119.284C71.7329 118.979 69.5442 115.087 69.8492 114.885C70.0017 114.784 70.1197 114.701 70.2034 114.64C70.2452 114.609 70.2784 114.584 70.3029 114.565L70.3334 114.542L70.3437 114.533L70.3477 114.53C70.3477 114.53 70.3509 114.528 69.5054 113.474" fill="#009891"/>
<path d="M85.1629 131.385C84.3249 131.774 83.3334 131.721 82.5311 131.218H82.5336C71.3541 124.202 65.3184 111.226 67.1574 98.1565C67.3099 97.0673 68.0901 96.1745 69.1489 95.8793C85.7329 91.2738 87.4691 99.4085 90.5611 101.351C90.5611 101.351 93.4596 103.639 94.7951 106.51C96.1306 109.381 95.9414 112.922 95.9414 112.922C95.4344 116.538 99.7629 121.443 85.5551 131.161C85.4296 131.247 85.2979 131.322 85.1629 131.385Z" fill="#C9EBE9"/>
<path d="M111.016 76.3639C111.854 75.9742 112.846 76.0277 113.648 76.5309L113.645 76.5307C124.825 83.5469 130.861 96.5232 129.022 109.592C128.869 110.681 128.089 111.574 127.03 111.869C110.446 116.475 108.71 108.34 105.618 106.398C105.618 106.398 102.719 104.11 101.384 101.239C100.048 98.3674 100.238 94.8264 100.238 94.8264C100.745 91.2104 96.416 86.3054 110.624 76.5882C110.749 76.5014 110.881 76.4267 111.016 76.3639Z" fill="#C9EBE9"/>
<path d="M80.92 129.825C80.2197 130.15 79.3912 130.106 78.721 129.685L78.723 129.685C69.3812 123.823 64.3377 112.979 65.8745 102.059C66.002 101.148 66.654 100.403 67.5387 100.156C81.3962 96.3076 88.7365 99.5201 91.3202 101.143C91.3202 101.143 93.7422 103.055 94.8582 105.454C95.9742 107.853 95.816 110.812 95.816 110.812C95.3922 113.834 93.1202 121.517 81.248 129.637C81.143 129.71 81.0327 129.772 80.92 129.825Z" fill="url(#paint0_linear_731_8820)"/>
<path d="M114.844 78.1177C115.544 77.7919 116.373 77.8367 117.043 78.2572H117.041C126.383 84.1199 131.426 94.9632 129.89 105.883C129.762 106.794 129.11 107.54 128.225 107.786C114.368 111.635 107.028 108.422 104.444 106.799C104.444 106.799 102.022 104.887 100.906 102.488C99.7899 100.089 99.9482 97.1302 99.9482 97.1302C100.372 94.1087 102.644 86.4249 114.516 78.3049C114.621 78.2327 114.731 78.1702 114.844 78.1177Z" fill="url(#paint1_linear_731_8820)"/>
<g filter="url(#filter0_i_731_8820)">
<path d="M93.872 106.088C93.872 106.088 91.6535 104.693 88.6725 104.71C86.1337 104.724 83.625 106.4 83.625 106.4" stroke="#0E7D78" stroke-width="0.192442" stroke-linecap="round"/>
</g>
<g filter="url(#filter1_i_731_8820)">
<path d="M95.8667 106.562C95.8667 106.562 92.7145 107.428 89.8597 109.59C86.8157 111.896 85.8817 114.924 85.8817 114.924" stroke="#0E7D78" stroke-width="0.192442" stroke-linecap="round"/>
</g>
<g filter="url(#filter2_i_731_8820)">
<path d="M100.847 103.119C100.847 103.119 101.21 100.524 103.143 98.2546C104.79 96.3221 107.688 95.4834 107.688 95.4834" stroke="#0E7D78" stroke-width="0.192442" stroke-linecap="round"/>
</g>
<g filter="url(#filter3_i_731_8820)">
<path d="M99.939 105.199C99.939 105.199 103.01 103.279 106.959 102.409C111.17 101.481 114.427 102.659 114.427 102.659" stroke="#0E7D78" stroke-width="0.192442" stroke-linecap="round"/>
</g>
<path d="M100.535 110.243C104.028 108.618 105.543 104.469 103.918 100.975C102.293 97.482 98.1437 95.9672 94.6504 97.5921C91.157 99.217 89.6423 103.366 91.2672 106.859C92.892 110.353 97.0412 111.868 100.535 110.243Z" fill="url(#paint2_radial_731_8820)"/>
</g>
</g>
<defs>
<filter id="filter0_i_731_8820" x="83.5288" y="104.613" width="10.4395" height="1.88379" filterUnits="userSpaceOnUse" color-interpolation-filters="sRGB">
<feFlood flood-opacity="0" result="BackgroundImageFix"/>
<feBlend mode="normal" in="SourceGraphic" in2="BackgroundImageFix" result="shape"/>
<feColorMatrix in="SourceAlpha" type="matrix" values="0 0 0 0 0 0 0 0 0 0 0 0 0 0 0 0 0 0 127 0" result="hardAlpha"/>
<feOffset/>
<feGaussianBlur stdDeviation="0.76977"/>
<feComposite in2="hardAlpha" operator="arithmetic" k2="-1" k3="1"/>
<feColorMatrix type="matrix" values="0 0 0 0 0 0 0 0 0 0 0 0 0 0 0 0 0 0 0.4 0"/>
<feBlend mode="normal" in2="shape" result="effect1_innerShadow_731_8820"/>
</filter>
<filter id="filter1_i_731_8820" x="85.7855" y="106.466" width="10.1775" height="8.55469" filterUnits="userSpaceOnUse" color-interpolation-filters="sRGB">
<feFlood flood-opacity="0" result="BackgroundImageFix"/>
<feBlend mode="normal" in="SourceGraphic" in2="BackgroundImageFix" result="shape"/>
<feColorMatrix in="SourceAlpha" type="matrix" values="0 0 0 0 0 0 0 0 0 0 0 0 0 0 0 0 0 0 127 0" result="hardAlpha"/>
<feOffset/>
<feGaussianBlur stdDeviation="0.76977"/>
<feComposite in2="hardAlpha" operator="arithmetic" k2="-1" k3="1"/>
<feColorMatrix type="matrix" values="0 0 0 0 0 0 0 0 0 0 0 0 0 0 0 0 0 0 0.4 0"/>
<feBlend mode="normal" in2="shape" result="effect1_innerShadow_731_8820"/>
</filter>
<filter id="filter2_i_731_8820" x="100.751" y="95.3867" width="7.0332" height="7.8291" filterUnits="userSpaceOnUse" color-interpolation-filters="sRGB">
<feFlood flood-opacity="0" result="BackgroundImageFix"/>
<feBlend mode="normal" in="SourceGraphic" in2="BackgroundImageFix" result="shape"/>
<feColorMatrix in="SourceAlpha" type="matrix" values="0 0 0 0 0 0 0 0 0 0 0 0 0 0 0 0 0 0 127 0" result="hardAlpha"/>
<feOffset/>
<feGaussianBlur stdDeviation="0.76977"/>
<feComposite in2="hardAlpha" operator="arithmetic" k2="-1" k3="1"/>
<feColorMatrix type="matrix" values="0 0 0 0 0 0 0 0 0 0 0 0 0 0 0 0 0 0 0.4 0"/>
<feBlend mode="normal" in2="shape" result="effect1_innerShadow_731_8820"/>
</filter>
<filter id="filter3_i_731_8820" x="99.8428" y="101.956" width="14.681" height="3.33887" filterUnits="userSpaceOnUse" color-interpolation-filters="sRGB">
<feFlood flood-opacity="0" result="BackgroundImageFix"/>
<feBlend mode="normal" in="SourceGraphic" in2="BackgroundImageFix" result="shape"/>
<feColorMatrix in="SourceAlpha" type="matrix" values="0 0 0 0 0 0 0 0 0 0 0 0 0 0 0 0 0 0 127 0" result="hardAlpha"/>
<feOffset/>
<feGaussianBlur stdDeviation="0.76977"/>
<feComposite in2="hardAlpha" operator="arithmetic" k2="-1" k3="1"/>
<feColorMatrix type="matrix" values="0 0 0 0 0 0 0 0 0 0 0 0 0 0 0 0 0 0 0.4 0"/>
<feBlend mode="normal" in2="shape" result="effect1_innerShadow_731_8820"/>
</filter>
<linearGradient id="paint0_linear_731_8820" x1="93.3467" y1="105.627" x2="66.6707" y2="112.728" gradientUnits="userSpaceOnUse">
<stop stop-color="#148781"/>
<stop offset="1" stop-color="#38B0AB"/>
</linearGradient>
<linearGradient id="paint1_linear_731_8820" x1="104.291" y1="102.922" x2="123.759" y2="84.3167" gradientUnits="userSpaceOnUse">
<stop stop-color="#148781"/>
<stop offset="1" stop-color="#38B0AB"/>
</linearGradient>
<radialGradient id="paint2_radial_731_8820" cx="0" cy="0" r="1" gradientUnits="userSpaceOnUse" gradientTransform="translate(97.5925 103.917) rotate(65.0555) scale(6.97605)">
<stop stop-color="#FF8F76"/>
<stop offset="1" stop-color="#EF5533"/>
</radialGradient>
</defs>
</svg>
