<svg width="24" height="24" viewBox="0 0 24 24" fill="none" xmlns="http://www.w3.org/2000/svg">
<path d="M17.1818 16.1066C17.1818 17.9343 16.3821 19.3708 15.06 20.3773C13.7151 21.4011 11.7941 22 9.59122 22C7.38836 22 5.46712 21.4011 4.12207 20.3772C2.79981 19.3707 2 17.9343 2 16.1066C2 15.3206 2.40758 14.2791 3.18426 13.0674C3.94252 11.8845 4.96987 10.6651 6.02212 9.55261C7.07049 8.44418 8.12217 7.46418 8.91355 6.76009C9.17062 6.53137 9.39956 6.33235 9.59119 6.16814C9.78281 6.33235 10.0117 6.53136 10.2688 6.76007C11.0601 7.46416 12.1117 8.44416 13.16 9.55258C14.2122 10.6651 15.2394 11.8845 15.9976 13.0674C16.7743 14.279 17.1818 15.3205 17.1818 16.1066Z" fill="#EFFFFE" stroke="#009891" stroke-width="2"/>
<mask id="mask0" style="mask-type:alpha" maskUnits="userSpaceOnUse" x="1" y="4" width="18" height="19">
<path d="M17.1818 16.1066C17.1818 17.9343 16.3821 19.3708 15.06 20.3773C13.7151 21.4011 11.7941 22 9.59122 22C7.38836 22 5.46712 21.4011 4.12207 20.3772C2.79981 19.3707 2 17.9343 2 16.1066C2 15.3206 2.40758 14.2791 3.18426 13.0674C3.94252 11.8845 4.96987 10.6651 6.02212 9.55261C7.07049 8.44418 8.12217 7.46418 8.91355 6.76009C9.17062 6.53137 9.39956 6.33235 9.59119 6.16814C9.78281 6.33235 10.0117 6.53136 10.2688 6.76007C11.0601 7.46416 12.1117 8.44416 13.16 9.55258C14.2122 10.6651 15.2394 11.8845 15.9976 13.0674C16.7743 14.279 17.1818 15.3205 17.1818 16.1066Z" fill="#EFFFFE" stroke="#009891" stroke-width="2"/>
</mask>
<g mask="url(#mask0)">
<circle cx="12.5" cy="16.5" r="6.5" fill="#C9EBE9"/>
</g>
<path d="M17.1818 16.1066C17.1818 17.9343 16.3821 19.3708 15.06 20.3773C13.7151 21.4011 11.7941 22 9.59122 22C7.38836 22 5.46712 21.4011 4.12207 20.3772C2.79981 19.3707 2 17.9343 2 16.1066C2 15.3206 2.40758 14.2791 3.18426 13.0674C3.94252 11.8845 4.96987 10.6651 6.02212 9.55261C7.07049 8.44418 8.12217 7.46418 8.91355 6.76009C9.17062 6.53137 9.39956 6.33235 9.59119 6.16814C9.78281 6.33235 10.0117 6.53136 10.2688 6.76007C11.0601 7.46416 12.1117 8.44416 13.16 9.55258C14.2122 10.6651 15.2394 11.8845 15.9976 13.0674C16.7743 14.279 17.1818 15.3205 17.1818 16.1066Z" stroke="#009891" stroke-width="2"/>
<path d="M5.14856 4.82761L5.93368 6.55488C6.25822 7.26887 6.97013 7.72727 7.75441 7.72727H11.4267C12.211 7.72727 12.9229 7.26887 13.2474 6.55488L14.0326 4.82761C14.6345 3.50341 13.6664 2 12.2118 2H6.96929C5.51471 2 4.54665 3.50341 5.14856 4.82761Z" fill="#EFFFFE" stroke="#009891" stroke-width="2" stroke-linecap="round"/>
<rect x="4.86328" y="6.81818" width="9.45455" height="2.77273" rx="1.38636" fill="#EFFFFE" stroke="#009891" stroke-width="2"/>
<circle cx="16" cy="16" r="6" fill="#EFFFFE" stroke="#009891" stroke-width="2"/>
<path d="M14 18L18 14" stroke="#009891" stroke-width="2" stroke-linecap="round"/>
<circle cx="14" cy="14" r="1" fill="#009891"/>
<circle cx="18" cy="18" r="1" fill="#009891"/>
</svg>
