<?xml version="1.0" encoding="utf-8"?>
<!-- Generator: Adobe Illustrator 25.4.1, SVG Export Plug-In . SVG Version: 6.00 Build 0)  -->
<svg version="1.1" id="圖層_1" xmlns="http://www.w3.org/2000/svg" xmlns:xlink="http://www.w3.org/1999/xlink" x="0px" y="0px"
	 viewBox="0 0 24 24" style="enable-background:new 0 0 24 24;" xml:space="preserve">
<style type="text/css">
	.st0{fill:#EFFFFE;stroke:#009891;stroke-width:2;}
	.st1{fill:#EFFFFE;filter:url(#Adobe_OpacityMaskFilter);stroke:#009891;stroke-width:2;}
	.st2{mask:url(#mask0_00000018223072316570956170000011643661040638630304_);}
	.st3{fill:#C9EBE9;}
	.st4{fill-rule:evenodd;clip-rule:evenodd;fill:#009891;}
	.st5{fill:none;stroke:#009891;stroke-width:2;stroke-linecap:round;}
</style>
<path d="M9.8,17.4C9.8,17.4,9.8,17.4,9.8,17.4C9.8,17.4,9.8,17.4,9.8,17.4z"/>
<path d="M9.9,17.4C9.9,17.4,9.9,17.4,9.9,17.4C9.9,17.4,9.9,17.4,9.9,17.4z"/>
<path d="M9.9,17.4C9.9,17.4,9.9,17.4,9.9,17.4L9.9,17.4z"/>
<path d="M9.8,17.4C9.8,17.4,9.8,17.4,9.8,17.4C9.8,17.4,9.8,17.4,9.8,17.4z"/>
<path class="st0" d="M12.4,6.4c0.4-0.5,0.7-1.1,0.9-1.6c0.2-0.4,0.4-0.9,0.3-1.4c0-0.3-0.1-0.6-0.3-0.9c-0.3-0.3-0.7-0.5-1-0.5
	c-1.2-0.1-2,0-3,0c-0.6,0-1.2,0-2,0c-0.3,0-0.7,0.1-1,0.3C6.1,2.5,5.9,2.9,5.8,3.2C5.7,3.8,5.9,4.4,6.1,4.8c0.2,0.6,0.6,1.2,1,1.7
	C6.2,7.2,5.3,8.2,4.5,9.2c-1,1.4-1.9,3.2-2.3,4.9c-0.4,1.7-0.3,3.6,0.7,5.1c1.1,1.5,2.9,2.5,5.7,2.7c3.6,0.3,6.2-0.3,7.7-1.7
	c1.6-1.4,1.9-3.4,1.5-5.4c-0.3-1.9-1.3-3.9-2.5-5.5C14.5,8.2,13.5,7.2,12.4,6.4z"/>
<defs>
	<filter id="Adobe_OpacityMaskFilter" filterUnits="userSpaceOnUse" x="9" y="11" width="10.1" height="10.1">
		<feColorMatrix  type="matrix" values="1 0 0 0 0  0 1 0 0 0  0 0 1 0 0  0 0 0 1 0"/>
	</filter>
</defs>
<mask maskUnits="userSpaceOnUse" x="9" y="11" width="10.1" height="10.1" id="mask0_00000018223072316570956170000011643661040638630304_">
	<path class="st1" d="M12.4,6.4c0.4-0.5,0.7-1.1,0.9-1.6c0.2-0.4,0.4-0.9,0.3-1.4c0-0.3-0.1-0.6-0.3-0.9c-0.3-0.3-0.7-0.5-1-0.5
		c-1.2-0.1-2,0-3,0c-0.6,0-1.2,0-2,0c-0.3,0-0.7,0.1-1,0.3C6.1,2.5,5.9,2.9,5.8,3.2C5.7,3.8,5.9,4.4,6.1,4.8c0.2,0.6,0.6,1.2,1,1.7
		C6.2,7.2,5.3,8.2,4.5,9.2c-1,1.4-1.9,3.2-2.3,4.9c-0.4,1.7-0.3,3.6,0.7,5.1c1.1,1.5,2.9,2.5,5.7,2.7c3.6,0.3,6.2-0.3,7.7-1.7
		c1.6-1.4,1.9-3.4,1.5-5.4c-0.3-1.9-1.3-3.9-2.5-5.5C14.5,8.2,13.5,7.2,12.4,6.4z"/>
</mask>
<g class="st2">
	<circle class="st3" cx="14.1" cy="16.1" r="5.1"/>
</g>
<path class="st4" d="M11.2,11.1c0.5,0.4,0.8,1,0.8,1.7c0,0.4-0.3,0.7-0.7,0.7s-0.7-0.3-0.7-0.7c0-0.3-0.1-0.5-0.3-0.6
	C10.1,12.1,9.8,12,9.5,12s-0.6,0.1-0.8,0.2c-0.2,0.1-0.3,0.3-0.3,0.6c0,0,0,0,0,0c0,0,0,0.1,0.2,0.2c0.2,0.1,0.6,0.2,1.1,0.4
	c0,0,0,0,0,0c0.4,0.1,0.9,0.3,1.3,0.5c0.5,0.3,0.9,0.7,0.9,1.4c0,0.8-0.3,1.3-0.9,1.7c-0.5,0.3-1.1,0.4-1.7,0.4
	c-0.6,0-1.1-0.2-1.6-0.5C7.4,16.6,7,16.1,7,15.4c0-0.4,0.3-0.7,0.7-0.7c0.4,0,0.7,0.3,0.7,0.7c0,0.1,0,0.2,0.2,0.3
	C8.9,15.9,9.2,16,9.6,16c0.3,0,0.6,0,0.8-0.2c0.1-0.1,0.2-0.2,0.2-0.5c0,0,0,0,0,0c0,0,0-0.1-0.2-0.2c-0.2-0.1-0.6-0.2-1.1-0.4
	c0,0,0,0,0,0c-0.4-0.1-0.9-0.3-1.3-0.5C7.5,14,7,13.6,7,12.8c0-0.7,0.3-1.3,0.8-1.7c0.5-0.4,1.1-0.5,1.7-0.5
	C10.1,10.6,10.7,10.8,11.2,11.1z"/>
<path class="st4" d="M9.8,11.4c-0.4,0-0.7-0.3-0.7-0.7v-1C9,9.3,9.4,9,9.8,9c0.4,0,0.7,0.3,0.7,0.7v1C10.5,11.1,10.1,11.4,9.8,11.4z
	"/>
<path class="st4" d="M9.8,18.7c-0.4,0-0.7-0.3-0.7-0.7v-1c0-0.4,0.3-0.7,0.7-0.7c0.4,0,0.7,0.3,0.7,0.7v1
	C10.5,18.3,10.1,18.7,9.8,18.7z"/>
<path class="st0" d="M14,12.7h8.1v8.5c-0.1,0.1-0.2,0.3-0.5,0.4c-0.5,0.4-1.6,0.8-3.6,0.8c-2,0-3.1-0.5-3.6-0.8
	c-0.3-0.2-0.4-0.3-0.5-0.4V12.7z"/>
<path class="st5" d="M14,15.5c1,2,7,2,8,0"/>
<path class="st5" d="M14,19c0,0.5,4.5,2,8,0"/>
<path class="st0" d="M22.1,11.7c0,0.2-0.2,0.6-1,1c-0.7,0.4-1.8,0.7-3.1,0.7c-1.3,0-2.4-0.3-3.1-0.7c-0.8-0.4-1-0.8-1-1
	c0-0.2,0.2-0.6,1-1c0.7-0.4,1.8-0.7,3.1-0.7c1.3,0,2.4,0.3,3.1,0.7C22,11.1,22.1,11.5,22.1,11.7z"/>
</svg>
