<svg width="24" height="24" viewBox="0 0 24 24" fill="none" xmlns="http://www.w3.org/2000/svg">
<circle cx="9.50033" cy="8.33333" r="5.33333" fill="#EFFFFE" stroke="#009891" stroke-width="2"/>
<path d="M17.7958 20.2483C17.839 20.4306 17.792 20.5905 17.6617 20.7305C17.5201 20.8827 17.2818 21 16.9991 21H16.965H16.9309H16.8969H16.8629H16.829H16.795H16.7612H16.7273H16.6935H16.6598H16.626H16.5923H16.5587H16.5251H16.4915H16.4579H16.4244H16.3909H16.3575H16.3241H16.2907H16.2574H16.2241H16.1908H16.1576H16.1244H16.0913H16.0581H16.0251H15.992H15.959H15.926H15.893H15.8601H15.8273H15.7944H15.7616H15.7288H15.6961H15.6634H15.6307H15.598H15.5654H15.5328H15.5003H15.4678H15.4353H15.4028H15.3704H15.338H15.3057H15.2734H15.2411H15.2088H15.1766H15.1444H15.1122H15.0801H15.048H15.016H14.9839H14.9519H14.9199H14.888H14.8561H14.8242H14.7924H14.7605H14.7287H14.697H14.6653H14.6336H14.6019H14.5702H14.5386H14.5071H14.4755H14.444H14.4125H14.381H14.3496H14.3182H14.2868H14.2554H14.2241H14.1928H14.1616H14.1303H14.0991H14.0679H14.0368H14.0057H13.9746H13.9435H13.9125H13.8814H13.8505H13.8195H13.7886H13.7577H13.7268H13.6959H13.6651H13.6343H13.6035H13.5728H13.542H13.5113H13.4807H13.45H13.4194H13.3888H13.3582H13.3277H13.2972H13.2667H13.2362H13.2058H13.1754H13.145H13.1146H13.0843H13.0539H13.0236H12.9934H12.9631H12.9329H12.9027H12.8725H12.8424H12.8122H12.7821H12.752H12.722H12.6919H12.6619H12.6319H12.602H12.572H12.5421H12.5122H12.4823H12.4524H12.4226H12.3928H12.363H12.3332H12.3035H12.2737H12.244H12.2143H12.1847H12.155H12.1254H12.0958H12.0662H12.0367H12.0071H11.9776H11.9481H11.9186H11.8891H11.8597H11.8303H11.8009H11.7715H11.7421H11.7128H11.6835H11.6542H11.6249H11.5956H11.5664H11.5371H11.5079H11.4787H11.4495H11.4204H11.3912H11.3621H11.333H11.3039H11.2749H11.2458H11.2168H11.1878H11.1588H11.1298H11.1008H11.0719H11.0429H11.014H10.9851H10.9562H10.9274H10.8985H10.8697H10.8409H10.8121H10.7833H10.7545H10.7258H10.697H10.6683H10.6396H10.6109H10.5822H10.5535H10.5249H10.4963H10.4676H10.439H10.4104H10.3819H10.3533H10.3247H10.2962H10.2677H10.2392H10.2107H10.1822H10.1537H10.1253H10.0968H10.0684H10.04H10.0116H9.98318H9.9548H9.92643H9.89808H9.86973H9.8414H9.81308H9.78478H9.75648H9.7282H9.69993H9.67167H9.64342H9.61518H9.58695H9.55873H9.53053H9.50233H9.47415H9.44598H9.41781H9.38966H9.36152H9.33338H9.30526H9.27715H9.24904H9.22095H9.19286H9.16479H9.13672H9.10867H9.08062H9.05258H9.02455H8.99653H8.96852H8.94051H8.91252H8.88453H8.85655H8.82858H8.80062H8.77266H8.74471H8.71677H8.68884H8.66091H8.633H8.60508H8.57718H8.54928H8.52139H8.49351H8.46563H8.43776H8.4099H8.38204H8.35419H8.32634H8.2985H8.27067H8.24284H8.21502H8.1872H8.15939H8.13158H8.10378H8.07599H8.0482H8.02041H7.99263H7.96485H7.93708H7.90931H7.88154H7.85379H7.82603H7.79828H7.77053H7.74278H7.71504H7.68731H7.65957H7.63184H7.60411H7.57639H7.54867H7.52095H7.49323H7.46552H7.43781H7.4101H7.38239H7.35469H7.32699H7.29929H7.27159H7.24389H7.2162H7.1885H7.16081H7.13312H7.10543H7.07774H7.05005H7.02237H6.99468H6.96699H6.93931H6.91162H6.88394H6.85625H6.82857H6.80088H6.7732H6.74551H6.71783H6.69014H6.66246H6.63477H6.60708H6.57939H6.5517H6.52401H6.49632H6.46862H6.44093H6.41323H6.38553H6.35783H6.33013H6.30242H6.27472H6.24701H6.21929H6.19158H6.16386H6.13614H6.10842H6.0807H6.05297H6.02524H5.9975H5.96976H5.94202H5.91427H5.88652H5.85877H5.83101H5.80325H5.77549H5.74772H5.71994H5.69217H5.66438H5.63659H5.6088H5.581H5.5532H5.52539H5.49758H5.46976H5.44194H5.41411H5.38627H5.35843H5.33058H5.30273H5.27487H5.247H5.21913H5.19125H5.16337H5.13547H5.10757H5.07967H5.05175H5.02383H4.99591H4.96797H4.94003H4.91208H4.88412H4.85616H4.82818H4.8002H4.77221H4.74421H4.7162H4.68819H4.66017H4.63213H4.60409H4.57604H4.54798H4.51991H4.49184H4.46375H4.43565H4.40754H4.37943H4.3513H4.32317H4.29502H4.26686H4.2387H4.21052H4.18233H4.15413H4.12593H4.09771H4.06947H4.04123H4.01298H3.98472H3.95644H3.92815H3.89985H3.87154H3.84322H3.81489H3.78654H3.75818H3.72981H3.70143H3.67303H3.64462H3.6162H3.58777H3.55932H3.53086H3.50239H3.4739H3.4454H3.41689H3.38836H3.35982H3.33126H3.3027H3.27411H3.24552H3.2169H3.18828H3.15964H3.13098H3.10231H3.07363H3.04493H3.01622H2.98749H2.95874H2.92998H2.90121H2.87241H2.84361H2.81478H2.78594H2.75709H2.72822H2.69933H2.67043H2.64151H2.61257H2.58361H2.55464H2.52566H2.49665H2.46763H2.43859H2.40953H2.38046H2.35137H2.32226H2.29313H2.26399H2.23482H2.20564H2.17644H2.14722H2.11799H2.08873H2.05946H2.03016H2.00085C1.71818 21 1.47987 20.8827 1.33827 20.7305C1.20804 20.5906 1.16096 20.4307 1.20423 20.2483C2.04481 16.7061 5.41091 14 9.5 14C13.5891 14 16.9552 16.7061 17.7958 20.2483Z" fill="#EFFFFE" stroke="#009891" stroke-width="2"/>
<line x1="18" y1="9.66669" x2="23" y2="9.66669" stroke="#009891" stroke-width="2" stroke-linecap="round"/>
<line x1="20.333" y1="7" x2="20.333" y2="12" stroke="#009891" stroke-width="2" stroke-linecap="round"/>
</svg>
