<?xml version="1.0" encoding="utf-8"?>
<!-- Generator: Adobe Illustrator 24.1.2, SVG Export Plug-In . SVG Version: 6.00 Build 0)  -->
<svg version="1.1" id="圖層_1" xmlns="http://www.w3.org/2000/svg" xmlns:xlink="http://www.w3.org/1999/xlink" x="0px" y="0px"
	 viewBox="0 0 24 24" style="enable-background:new 0 0 24 24;" xml:space="preserve">
<style type="text/css">
	.st0{fill:#EFFFFE;}
	.st1{fill:#009891;}
</style>
<g>
	<circle class="st0" cx="9.5" cy="8.3" r="5.3"/>
	<path class="st1" d="M9.5,14.7c-3.5,0-6.3-2.8-6.3-6.3S6,2,9.5,2s6.3,2.8,6.3,6.3S13,14.7,9.5,14.7z M9.5,4C7.1,4,5.2,5.9,5.2,8.3
		s1.9,4.3,4.3,4.3s4.3-1.9,4.3-4.3S11.9,4,9.5,4z"/>
</g>
<g>
	<path class="st0" d="M17.8,20.2c0,0.2,0,0.3-0.1,0.5C17.5,20.9,17.3,21,17,21h0h0h0h0h0h0h0h0h0h0h0h0h0h0h0h0h0h0h0h0h0h0h0h0h0h0
		h0h0h0h0h0h0h0h0h0h0h0h0h0h0h0h0h0h0h0h0h0h0h0h0h0h0h0h0h0h0h0h0h0h0h0h0h0h0h0h0h0h0h0h0h0h0h0h0h0h0h0h0h0h0h0h0h0h0h0h0h0h0h0
		h0h0h0h0h0h0h0h0h0h0h0h0h0h0h0h0h0h0h0h0h0h0h0h0h0h0h0h0h0h0h0h0h0h0h0h0h0h0h0h0h0h0h0h0h0h0h0h0h0h0h0h0h0h0h0h0h0h0h0h0h0h0h0
		h0h0h0h0h0h0h0h0h0h0h0h0h0h0h0h0h0h0h0h0h0h0h0h0h0h0h0h0h0h0h0h0h0h0h0h0h0h0h0h0h0h0h0h0h0h0h0h0h0h0h0h0h0h0h0h0h0h0h0h0h0h0h0
		h0h0h0h0h0h0h0h0h0h0h0h0h0h0h0h0h0h0h0h0h0h0h0h0h0h0h0h0h0h0h0h0h0h0h0h0h0h0h0h0h0h0h0h0h0h0h0h0h0h0h0h0h0h0h0h0h0h0h0h0h0h0h0
		h0h0h0h0h0h0h0h0h0h0h0h0h0h0h0h0h0h0h0h0h0h0h0h0h0h0h0h0h0h0h0h0h0h0h0h0h0h0h0h0h0h0h0h0h0h0h0h0h0h0h0h0h0h0h0h0h0h0h0h0h0h0h0
		h0h0h0h0h0h0h0h0h0h0h0h0h0h0h0h0h0h0h0h0h0h0h0h0h0h0h0h0h0h0h0h0h0h0h0h0h0h0h0h0h0h0h0h0h0h0h0h0h0h0h0h0h0h0h0h0h0h0h0h0h0h0h0
		h0h0h0h0h0h0h0h0h0h0h0h0h0h0h0h0h0h0h0h0h0h0h0h0h0h0h0h0h0h0h0h0h0h0h0h0h0h0h0h0h0h0h0h0h0h0h0h0h0h0h0h0h0h0h0h0h0h0h0h0h0h0h0
		h0h0h0h0h0h0h0h0h0h0h0h0h0h0h0h0h0h0h0h0h0h0h0h0h0h0h0h0h0h0h0h0h0h0h0h0h0h0h0h0h0h0h0h0h0c-0.3,0-0.5-0.1-0.7-0.3
		c-0.1-0.1-0.2-0.3-0.1-0.5C2,16.7,5.4,14,9.5,14C13.6,14,17,16.7,17.8,20.2z"/>
	<path class="st1" d="M17,22H2.1c-0.6,0-1.1-0.2-1.5-0.6C0.2,21,0.1,20.5,0.2,20c1-4.1,4.9-7,9.3-7c4.4,0,8.3,3,9.3,7l0,0
		c0.1,0.5,0,1-0.4,1.4C18,21.8,17.5,22,17,22z M16.8,20.5C16.8,20.5,16.8,20.5,16.8,20.5S16.8,20.5,16.8,20.5z M2.3,20h14.4
		c-0.9-2.9-3.9-5-7.2-5S3.2,17.1,2.3,20z"/>
</g>
<g>
	<path class="st1" d="M23,10.7h-5c-0.6,0-1-0.4-1-1s0.4-1,1-1h5c0.6,0,1,0.4,1,1S23.6,10.7,23,10.7z"/>
</g>
<g>
	<path class="st1" d="M20.3,13c-0.6,0-1-0.4-1-1V7c0-0.6,0.4-1,1-1s1,0.4,1,1v5C21.3,12.6,20.9,13,20.3,13z"/>
</g>
</svg>
