<svg width="40" height="40" viewBox="0 0 40 40" fill="none" xmlns="http://www.w3.org/2000/svg">
<path d="M38 17.5C38 21.1912 36.5235 24.6019 34 27.2432C28.5 33 21.5401 38.4961 19 39.5C19 37.5 19 37 19 33C9.05887 33 2 26.0604 2 17.5C2 8.93959 10.0589 2 20 2C29.9411 2 38 8.93959 38 17.5Z" fill="#EFFFFE"/>
<path fill-rule="evenodd" clip-rule="evenodd" d="M19 31C20.1046 31 21 31.8954 21 33V35.9824C21.9309 35.3265 22.9933 34.5197 24.1327 33.5986C26.8179 31.4278 29.8688 28.6721 32.5539 25.8616C34.7486 23.5645 36 20.6392 36 17.5C36 10.3144 29.1277 4 20 4C10.8723 4 4 10.3144 4 17.5C4 24.8269 10.0299 31 19 31ZM21 38.3972C24.2576 36.294 29.5967 31.8521 34 27.2432C36.5235 24.6019 38 21.1912 38 17.5C38 8.93959 29.9411 2 20 2C10.0589 2 2 8.93959 2 17.5C2 26.0604 9.05887 33 19 33V39.5C19.5065 39.2998 20.1887 38.9211 21 38.3972Z" fill="#009891"/>
<path d="M25 32.7124C22.5978 31.2105 21 28.5419 21 25.5C21 20.8056 24.8056 17 29.5 17C31.9794 17 34.2108 18.0615 35.7646 19.7549C36.5 24.5 25.5 34 25 32.7124Z" fill="#C9EBE9"/>
<path d="M20 33C20 32.4477 19.5523 32 19 32C9.54439 32 3 25.4436 3 17.5C3 9.62697 10.4656 3 20 3C29.5344 3 37 9.62697 37 17.5C37 20.9152 35.636 24.0832 33.2769 26.5524C30.5594 29.3968 27.4765 32.1813 24.7614 34.3763C23.4041 35.4735 22.1464 36.4172 21.0789 37.1444C20.6856 37.4124 20.325 37.6462 20 37.8452V37.8391V37.83V37.8209V37.8118V37.8027V37.7935V37.7844V37.7753V37.7661V37.757V37.7479V37.7387V37.7295V37.7204V37.7112V37.702V37.6929V37.6837V37.6745V37.6653V37.6561V37.6468V37.6376V37.6284V37.6191V37.6099V37.6006V37.5914V37.5821V37.5728V37.5635V37.5542V37.5449V37.5355V37.5262V37.5169V37.5075V37.4981V37.4887V37.4793V37.4699V37.4605V37.4511V37.4416V37.4322V37.4227V37.4132V37.4037V37.3942V37.3847V37.3752V37.3656V37.356V37.3465V37.3369V37.3273V37.3176V37.308V37.2983V37.2886V37.279V37.2692V37.2595V37.2498V37.24V37.2302V37.2204V37.2106V37.2008V37.1909V37.1811V37.1712V37.1613V37.1514V37.1414V37.1314V37.1215V37.1115V37.1014V37.0914V37.0813V37.0712V37.0611V37.051V37.0408V37.0307V37.0205V37.0102V37V36.9897V36.9794V36.9691V36.9588V36.9484V36.9381V36.9277V36.9172V36.9068V36.8963V36.8858V36.8752V36.8647V36.8541V36.8435V36.8329V36.8222V36.8115V36.8008V36.79V36.7793V36.7685V36.7577V36.7468V36.7359V36.725V36.7141V36.7031V36.6921V36.6811V36.67V36.6589V36.6478V36.6367V36.6255V36.6143V36.6031V36.5918V36.5805V36.5691V36.5578V36.5464V36.535V36.5235V36.512V36.5005V36.4889V36.4773V36.4657V36.454V36.4423V36.4306V36.4188V36.4071V36.3952V36.3834V36.3714V36.3595V36.3475V36.3355V36.3235V36.3114V36.2993V36.2871V36.2749V36.2627V36.2504V36.2381V36.2258V36.2134V36.201V36.1885V36.176V36.1634V36.1509V36.1382V36.1256V36.1129V36.1002V36.0874V36.0746V36.0617V36.0488V36.0358V36.0229V36.0098V35.9968V35.9836V35.9705V35.9573V35.9441V35.9308V35.9174V35.9041V35.8907V35.8772V35.8637V35.8501V35.8366V35.8229V35.8092V35.7955V35.7817V35.7679V35.754V35.7401V35.7262V35.7122V35.6981V35.684V35.6699V35.6557V35.6414V35.6271V35.6128V35.5984V35.584V35.5695V35.5549V35.5404V35.5257V35.511V35.4963V35.4815V35.4667V35.4518V35.4369V35.4219V35.4068V35.3917V35.3766V35.3614V35.3462V35.3309V35.3155V35.3001V35.2846V35.2691V35.2535V35.2379V35.2223V35.2065V35.1907V35.1749V35.159V35.1431V35.127V35.111V35.0949V35.0787V35.0625V35.0462V35.0298V35.0134V34.997V34.9805V34.9639V34.9473V34.9306V34.9138V34.897V34.8801V34.8632V34.8462V34.8292V34.8121V34.7949V34.7777V34.7604V34.7431V34.7257V34.7082V34.6907V34.6731V34.6554V34.6377V34.6199V34.6021V34.5842V34.5662V34.5482V34.5301V34.512V34.4938V34.4755V34.4571V34.4387V34.4203V34.4017V34.3831V34.3644V34.3457V34.3269V34.308V34.2891V34.2701V34.251V34.2319V34.2127V34.1934V34.1741V34.1547V34.1352V34.1157V34.0961V34.0764V34.0566V34.0368V34.0169V33.997V33.977V33.9569V33.9367V33.9165V33.8962V33.8758V33.8554V33.8348V33.8142V33.7936V33.7728V33.752V33.7312V33.7102V33.6892V33.6681V33.6469V33.6257V33.6043V33.583V33.5615V33.5399V33.5183V33.4966V33.4749V33.453V33.4311V33.4091V33.387V33.3649V33.3427V33.3204V33.298V33.2755V33.253V33.2304V33.2077V33.185V33.1621V33.1392V33.1162V33.0931V33.07V33.0467V33.0234V33Z" stroke="#009891" stroke-width="2" stroke-linejoin="round"/>
<path fill-rule="evenodd" clip-rule="evenodd" d="M18.8169 13.3439C18.8169 13.154 18.9709 13 19.1608 13H20.7689C20.9097 13 21.0362 13.0858 21.0883 13.2166L22.3868 16.4754C22.4803 16.7101 22.8291 16.6432 22.8291 16.3906V13.3439C22.8291 13.154 22.9831 13 23.173 13H24.7779C24.9678 13 25.1218 13.154 25.1218 13.3439V21.8269C25.1218 22.0168 24.9678 22.1708 24.7779 22.1708H23.1698C23.029 22.1708 22.9024 22.085 22.8503 21.9542L21.5518 18.6953C21.4583 18.4606 21.1096 18.5275 21.1096 18.7802V21.8269C21.1096 22.0168 20.9556 22.1708 20.7657 22.1708H19.1608C18.9709 22.1708 18.8169 22.0168 18.8169 21.8269V13.3439Z" fill="#009891"/>
<path fill-rule="evenodd" clip-rule="evenodd" d="M26.612 13C26.422 13 26.2681 13.154 26.2681 13.3439V21.8268C26.2681 22.0168 26.422 22.1707 26.612 22.1707H27.4143C27.4144 22.1707 27.4144 22.1707 27.4144 22.1708C27.4144 22.1708 27.4144 22.1708 27.4144 22.1708H31.6559C31.8458 22.1708 31.9998 22.0168 31.9998 21.8269V20.222C31.9998 20.0321 31.8458 19.8781 31.6559 19.8781H28.9047C28.7147 19.8781 28.5607 19.7242 28.5607 19.5342L28.5607 19.0757C28.5607 18.8858 28.7147 18.7318 28.9047 18.7318H31.6559C31.8458 18.7318 31.9998 18.5778 31.9998 18.3879V16.783C31.9998 16.5931 31.8458 16.4391 31.6559 16.4391H28.9047C28.7147 16.4391 28.5607 16.2851 28.5607 16.0952V15.6367C28.5607 15.4467 28.7147 15.2928 28.9047 15.2928H31.6559C31.8458 15.2928 31.9998 15.1388 31.9998 14.9489V13.344C31.9998 13.1541 31.8458 13.0001 31.6559 13.0001H28.5608C28.5608 13.0001 28.5607 13.0001 28.5607 13C28.5607 13 28.5607 13 28.5607 13H26.612Z" fill="#009891"/>
<path fill-rule="evenodd" clip-rule="evenodd" d="M8.5 13.3439C8.5 13.154 8.65397 13 8.8439 13H10.4488C10.6387 13 10.7927 13.154 10.7927 13.3439V19.878H13.8878C14.0777 19.878 14.2317 20.032 14.2317 20.222V21.8268C14.2317 22.0168 14.0777 22.1707 13.8878 22.1707H8.8439C8.65397 22.1707 8.5 22.0168 8.5 21.8268V13.3439Z" fill="#009891"/>
<path fill-rule="evenodd" clip-rule="evenodd" d="M15.7221 22.1707C15.5322 22.1707 15.3782 22.0168 15.3782 21.8268L15.3782 13.3439C15.3782 13.154 15.5322 13 15.7221 13L17.327 13C17.5169 13 17.6709 13.154 17.6709 13.3439L17.6709 21.8268C17.6709 22.0168 17.5169 22.1707 17.327 22.1707L15.7221 22.1707Z" fill="#009891"/>
</svg>
