<svg width="24" height="24" viewBox="0 0 24 24" fill="none" xmlns="http://www.w3.org/2000/svg">
<path d="M19 8.61702C19 9.56839 18.5568 10.9521 17.7698 12.5967C16.9997 14.2061 15.9634 15.9391 14.913 17.546C13.8648 19.1495 12.8149 20.6089 12.026 21.6685C11.8337 21.9268 11.657 22.1612 11.5 22.3677C11.343 22.1612 11.1663 21.9268 10.974 21.6685C10.1851 20.6089 9.13517 19.1495 8.08704 17.546C7.03663 15.9391 6.00032 14.2061 5.23016 12.5967C4.44319 10.9521 4 9.56839 4 8.61702C4 4.39732 7.37071 1 11.5 1C15.6293 1 19 4.39732 19 8.61702Z" fill="#EFFFFE" stroke="#009891" stroke-width="2"/>
<mask id="mask0" style="mask-type:alpha" maskUnits="userSpaceOnUse" x="3" y="0" width="17" height="24">
<path d="M20 8.61702C20 13.3761 11.5 24 11.5 24C11.5 24 3 13.3761 3 8.61702C3 3.85797 6.80558 0 11.5 0C16.1944 0 20 3.85797 20 8.61702Z" fill="#C4C4C4"/>
</mask>
<g mask="url(#mask0)">
<ellipse cx="15.5" cy="15" rx="5.5" ry="6" fill="#C9EBE9"/>
</g>
<circle cx="11.5" cy="7.5" r="2.5" fill="#EFFFFE" stroke="#009891" stroke-width="2"/>
<path d="M19 8.61702C19 9.56839 18.5568 10.9521 17.7698 12.5967C16.9997 14.2061 15.9634 15.9391 14.913 17.546C13.8648 19.1495 12.8149 20.6089 12.026 21.6685C11.8337 21.9268 11.657 22.1612 11.5 22.3677C11.343 22.1612 11.1663 21.9268 10.974 21.6685C10.1851 20.6089 9.13517 19.1495 8.08704 17.546C7.03663 15.9391 6.00032 14.2061 5.23016 12.5967C4.44319 10.9521 4 9.56839 4 8.61702C4 4.39732 7.37071 1 11.5 1C15.6293 1 19 4.39732 19 8.61702Z" stroke="#009891" stroke-width="2"/>
</svg>
