<svg width="24" height="24" viewBox="0 0 24 24" fill="none" xmlns="http://www.w3.org/2000/svg">
<path d="M5.12925 5.57547L5.12921 5.57552C3.53358 7.83687 3.17219 10.6871 4.14305 13.2013L4.14308 13.2013L4.14558 13.2079C4.38679 13.846 4.78196 14.4935 5.33678 15.1233L5.3368 15.1233L5.34114 15.1283L12.1072 22.9118L18.8753 15.1261L18.8753 15.1261L18.8801 15.1206C19.4313 14.4958 19.8273 13.8477 20.0711 13.2027L20.0711 13.2027L20.0736 13.1963C21.0422 10.6875 20.6811 7.83715 19.0853 5.57552L19.0852 5.57547C17.4834 3.30492 14.9494 2 12.1072 2C9.26511 2 6.73114 3.30492 5.12925 5.57547Z" stroke="white" stroke-width="2"/>
<mask id="mask0" style="mask-type:alpha" maskUnits="userSpaceOnUse" x="2" y="1" width="20" height="23">
<path d="M5.12925 5.57547L5.12921 5.57552C3.53358 7.83687 3.17219 10.6871 4.14305 13.2013L4.14308 13.2013L4.14558 13.2079C4.38679 13.846 4.78196 14.4935 5.33678 15.1233L5.3368 15.1233L5.34114 15.1283L12.1072 22.9118L18.8753 15.1261L18.8753 15.1261L18.8801 15.1206C19.4313 14.4958 19.8273 13.8477 20.0711 13.2027L20.0711 13.2027L20.0736 13.1963C21.0422 10.6875 20.6811 7.83715 19.0853 5.57552L19.0852 5.57547C17.4834 3.30492 14.9494 2 12.1072 2C9.26511 2 6.73114 3.30492 5.12925 5.57547Z" fill="white" fill-opacity="0.4" stroke="white" stroke-width="2"/>
</mask>
<g mask="url(#mask0)">
<circle cx="17.5" cy="18.5" r="6.5" fill="white" fill-opacity="0.4"/>
</g>
<path d="M5.12925 5.57547L5.12921 5.57552C3.53358 7.83687 3.17219 10.6871 4.14305 13.2013L4.14308 13.2013L4.14558 13.2079C4.38679 13.846 4.78196 14.4935 5.33678 15.1233L5.3368 15.1233L5.34114 15.1283L12.1072 22.9118L18.8753 15.1261L18.8753 15.1261L18.8801 15.1206C19.4313 14.4958 19.8273 13.8477 20.0711 13.2027L20.0711 13.2027L20.0736 13.1963C21.0422 10.6875 20.6811 7.83715 19.0853 5.57552L19.0852 5.57547C17.4834 3.30492 14.9494 2 12.1072 2C9.26511 2 6.73114 3.30492 5.12925 5.57547Z" stroke="white" stroke-width="2"/>
<path d="M16.0001 10C16.0001 7.79517 14.2047 6 12.0001 6C9.79553 6 8.0001 7.79543 8.0001 10C8.0001 12.2049 9.79523 14 12.0001 14C14.205 14 16.0001 12.2049 16.0001 10Z" stroke="white" stroke-width="2"/>
</svg>
