<svg width="100" height="72" viewBox="0 0 100 72" fill="none" xmlns="http://www.w3.org/2000/svg">
<circle cx="45" cy="36" r="36" fill="#F5F5F5"/>
<path d="M76.8225 23.3592C80.2897 23.9293 83.2923 26.246 81.4984 33.4718C81.4984 33.4718 84.47 29.5286 87.0179 30.6837C89.6282 31.7926 90.5112 39.3047 82.0676 48.707C82.0676 48.707 83.7912 48.6853 84.4144 49.7212C85.0376 50.7572 79.4284 65.7413 56.4747 56.6184C58.679 52.1212 70.7885 22.27 76.8225 23.3592Z" fill="#989899"/>
<mask id="mask0" style="mask-type:alpha" maskUnits="userSpaceOnUse" x="9" y="0" width="72" height="72">
<circle cx="45" cy="36" r="36" fill="#F5F5F5"/>
</mask>
<g mask="url(#mask0)">
<path d="M17.3785 59.1235C17.3785 59.1235 14.2455 61.3637 15.3164 67.854C16.4993 75.1108 24.7771 79.2435 32.7881 79.5313L17.3785 59.1235Z" fill="#989899"/>
<path d="M38.1373 21.4676C22.1081 24.844 11.8218 40.2451 15.1086 55.8486C18.5647 72.256 28.3936 82.5804 39.8692 85.2494C42.3106 85.8215 44.0378 86.0503 46.7128 83.5115C47.7828 82.496 49.2262 81.8463 50.7865 81.5176C52.3469 81.1889 53.967 81.144 55.3184 81.6988C58.2875 82.9005 60.3257 82.0267 62.2816 80.5283C71.6954 73.4097 76.5243 59.9977 73.0782 43.6376C69.7913 28.034 54.1191 18.1011 38.1373 21.4676Z" fill="#E7E4E2"/>
<path d="M52.3103 25.6917C49.4335 26.1001 46.8206 27.2925 44.7527 28.9626C42.0552 31.1604 38.5089 31.9074 35.1541 30.9845C32.5409 30.3004 29.7163 30.2535 26.9191 31.0402C19.5579 33.134 14.7805 40.4612 15.8341 48.0415C17.0819 57.013 25.6336 62.9152 34.3338 61.0825C36.8398 60.5546 39.0745 59.442 40.9259 57.9162C43.5388 55.7856 47.085 55.0386 50.3353 55.9341C52.6449 56.5834 55.1385 56.7001 57.6446 56.1722C66.3447 54.3396 71.7889 45.4893 69.3117 36.7767C67.2079 29.3682 59.8335 24.6008 52.3103 25.6917Z" fill="white"/>
<path d="M29.084 69.4476C27.6605 69.2537 26.533 68.3554 25.9431 67.1958C25.7442 69.0648 27.031 70.7196 28.8627 70.9757C30.6944 71.2318 32.4065 69.9823 32.7572 68.1307C31.829 69.1163 30.5076 69.6416 29.084 69.4476Z" fill="#989899"/>
<path d="M61.4417 71.619C62.6661 70.8672 63.3354 69.5905 63.4074 68.2914C64.3433 69.9213 63.8334 71.9547 62.2606 72.9279C60.6879 73.9012 58.6173 73.4485 57.5495 71.8957C58.7964 72.4231 60.2174 72.3707 61.4417 71.619Z" fill="#989899"/>
<path d="M40.7408 69.4613C39.3098 69.4664 38.033 68.7971 37.2639 67.7246C37.3587 69.5811 38.8994 71.0343 40.7758 71.0341C42.6423 70.9866 44.1054 69.4932 44.2098 67.6441C43.4434 68.6944 42.1718 69.4561 40.7408 69.4613Z" fill="#989899"/>
<path d="M65.5869 61.7584C66.8112 61.0067 67.4805 59.7299 67.5526 58.4308C68.4885 60.0608 67.9785 62.0941 66.4058 63.0673C64.8331 64.0406 62.7624 63.5879 61.6946 62.0351C62.9415 62.5626 64.3625 62.5101 65.5869 61.7584Z" fill="#989899"/>
<path d="M54.926 66.4732C56.2374 65.9007 57.1357 64.7732 57.4068 63.4816C58.069 65.2186 57.2455 67.1698 55.5284 67.9265C53.8013 68.636 51.8601 67.8598 51.0187 66.2099C52.1437 66.8618 53.6145 67.0458 54.926 66.4732Z" fill="#989899"/>
<path d="M39.6978 24.8919C39.6978 24.8919 41.3723 21.8232 44.371 20.3521C46.9167 19.0751 45.4308 17.4128 43.2609 19.302C41.4667 20.8651 39.6978 24.8919 39.6978 24.8919Z" fill="#989899"/>
<path d="M37.8933 24.5312C37.8933 24.5312 36.783 21.6047 34.3912 20.3308C32.6665 19.4101 33.3059 17.9915 34.0052 17.7948C35.3366 17.3169 36.8997 19.111 37.8933 24.5312Z" fill="#989899"/>
<path d="M36.4327 24.3946C36.4327 24.3946 31.0642 20.2416 28.6479 22.1332C26.9458 23.43 32.9982 23.0934 36.4327 24.3946Z" fill="#989899"/>
<path d="M29.251 50.6662C31.8847 50.1114 33.57 47.5267 33.0153 44.8929C32.4605 42.2592 29.8757 40.5739 27.242 41.1287C24.6082 41.6835 22.9229 44.2682 23.4777 46.902C24.0324 49.5357 26.6173 51.221 29.251 50.6662Z" fill="#231F20"/>
<path d="M26.1118 45.1689C26.7065 45.0436 27.0871 44.46 26.9618 43.8653C26.8365 43.2706 26.2529 42.89 25.6581 43.0153C25.0634 43.1406 24.6829 43.7242 24.8081 44.3189C24.9334 44.9137 25.5171 45.2942 26.1118 45.1689Z" fill="white"/>
<path d="M40.0054 44.0095L43.7385 48.2571L45.0819 42.9401C45.0819 42.9401 42.3073 41.9716 40.0054 44.0095Z" fill="#EC8822"/>
<path d="M57.4535 44.7255C60.0872 44.1707 61.7726 41.5859 61.2178 38.9522C60.663 36.3185 58.0782 34.6331 55.4445 35.1879C52.8107 35.7427 51.1254 38.3275 51.6802 40.9612C52.235 43.595 54.8198 45.2803 57.4535 44.7255Z" fill="#231F20"/>
<path d="M54.2628 39.239C54.8575 39.1138 55.2381 38.5301 55.1128 37.9354C54.9875 37.3407 54.4038 36.9601 53.8091 37.0854C53.2144 37.2107 52.8339 37.7943 52.9591 38.3891C53.0844 38.9838 53.6681 39.3643 54.2628 39.239Z" fill="white"/>
<path d="M51.0682 47.4628C51.0682 47.4628 55.8551 39.1714 65.455 39.2378L62.3173 49.0026L51.0682 47.4628Z" fill="white"/>
<path d="M51.0683 47.4629C51.0683 47.4629 54.3519 38.899 65.4551 39.2378C65.4443 39.1866 57.0914 40.4641 51.0683 47.4629Z" fill="#F3EEEC"/>
<path d="M36.1466 50.606C36.1466 50.606 28.4218 44.9501 19.6644 48.8833L26.4746 56.5527L36.1466 50.606Z" fill="white"/>
<path d="M36.1467 50.6061C36.1467 50.6061 29.6876 44.0945 19.6645 48.8834C19.6537 48.8321 27.9902 45.9515 36.1467 50.6061Z" fill="#F3EEEC"/>
<path d="M49.2263 36.1764C49.2263 36.1764 48.8137 39.048 47.5561 39.6878L47.5504 37.1185C47.5585 36.9026 47.6799 36.7163 47.8742 36.6219L49.2263 36.1764Z" fill="#E7E4E2"/>
<path d="M33.6379 39.46C33.6379 39.46 35.1739 41.9212 36.5827 41.9993L35.5515 39.646C35.457 39.4517 35.2707 39.3303 35.0548 39.3222L33.6379 39.46Z" fill="#E7E4E2"/>
</g>
<path d="M62.4656 6.47853C62.6748 4.59799 64.4343 3.28898 66.2957 3.62905C68.157 3.96913 69.34 5.81574 68.8707 7.64878L65.2876 21.6464C64.9943 22.7922 63.8646 23.516 62.7011 23.3034C61.5375 23.0908 60.7367 22.0144 60.8675 20.8388L62.4656 6.47853Z" fill="#009891"/>
<circle cx="61.8923" cy="27.7301" r="2.5" transform="rotate(10.354 61.8923 27.7301)" fill="#009891"/>
</svg>
