<svg width="24" height="24" viewBox="0 0 24 24" fill="none" xmlns="http://www.w3.org/2000/svg">
<rect x="2" y="2" width="8.68417" height="8.68417" rx="2" fill="white"/>
<path d="M2 15.3157C2 14.2111 2.89543 13.3157 4 13.3157H8.68417C9.78874 13.3157 10.6842 14.2111 10.6842 15.3157V19.9998C10.6842 21.1044 9.78874 21.9998 8.68417 21.9998H2V15.3157Z" fill="white"/>
<path d="M13.3164 3.99994C13.3164 2.89537 14.2118 1.99994 15.3164 1.99994H22.0006V8.68411C22.0006 9.78868 21.1051 10.6841 20.0006 10.6841H15.3164C14.2118 10.6841 13.3164 9.78868 13.3164 8.68411V3.99994Z" fill="white"/>
<rect x="13.3164" y="13.3157" width="8.68417" height="8.68417" rx="2" fill="white"/>
</svg>
