<svg width="40" height="40" viewBox="0 0 40 40" fill="none" xmlns="http://www.w3.org/2000/svg">
<circle cx="11.5" cy="9.5" r="7.5" fill="#EFFFFE" stroke="#009891" stroke-width="2"/>
<path fill-rule="evenodd" clip-rule="evenodd" d="M12.879 6.97712C13.3469 7.33357 13.6616 7.88177 13.6616 8.57711C13.6616 8.9449 13.3635 9.24306 12.9957 9.24306C12.6279 9.24306 12.3297 8.9449 12.3297 8.57711C12.3297 8.3211 12.2283 8.15578 12.0718 8.03655C11.8968 7.90322 11.6303 7.81603 11.3308 7.81603C11.0313 7.81603 10.7648 7.90322 10.5898 8.03655C10.4333 8.15578 10.3319 8.3211 10.3319 8.57711C10.3319 8.57866 10.3318 8.58032 10.3318 8.58209C10.3308 8.6094 10.329 8.66465 10.5166 8.77188C10.7442 8.90194 11.0736 9.00021 11.5138 9.12598C11.5271 9.12978 11.5405 9.13362 11.5541 9.13749C11.9401 9.24763 12.4226 9.38532 12.8058 9.60432C13.2303 9.84687 13.6616 10.2673 13.6616 10.9555C13.6616 11.659 13.3373 12.1965 12.8355 12.5191C12.3672 12.8201 11.7951 12.905 11.2834 12.8684C10.7678 12.8316 10.2328 12.6665 9.80783 12.3731C9.38165 12.0788 9 11.6006 9 10.9555C9 10.5877 9.29816 10.2895 9.66595 10.2895C10.0337 10.2895 10.3319 10.5877 10.3319 10.9555C10.3319 11.0239 10.3665 11.1403 10.5646 11.2771C10.764 11.4148 11.0614 11.5173 11.3783 11.5399C11.699 11.5628 11.9593 11.499 12.1153 11.3987C12.2379 11.3199 12.3297 11.2034 12.3297 10.9555C12.3297 10.9539 12.3298 10.9523 12.3299 10.9505C12.3308 10.9232 12.3327 10.868 12.145 10.7607C11.9174 10.6307 11.588 10.5324 11.1479 10.4066C11.1346 10.4028 11.1211 10.399 11.1076 10.3951C10.7216 10.285 10.2391 10.1473 9.85582 9.92829C9.43135 9.68574 9 9.2653 9 8.57711C9 7.88177 9.31478 7.33357 9.78263 6.97712C10.232 6.63478 10.7979 6.48413 11.3308 6.48413C11.8638 6.48413 12.4297 6.63478 12.879 6.97712Z" fill="#009891"/>
<path fill-rule="evenodd" clip-rule="evenodd" d="M11.539 7.26416C11.1712 7.26416 10.873 6.96601 10.873 6.59821V5.66589C10.873 5.29809 11.1712 4.99994 11.539 4.99994C11.9068 4.99994 12.2049 5.29809 12.2049 5.66589V6.59821C12.2049 6.96601 11.9068 7.26416 11.539 7.26416Z" fill="#009891"/>
<path fill-rule="evenodd" clip-rule="evenodd" d="M11.5693 14C11.2015 14 10.9033 13.7018 10.9033 13.3341V12.3827C10.9033 12.0149 11.2015 11.7167 11.5693 11.7167C11.9371 11.7167 12.2352 12.0149 12.2352 12.3827V13.3341C12.2352 13.7018 11.9371 14 11.5693 14Z" fill="#009891"/>
<rect x="19.5264" y="20" width="13.4737" height="19" rx="6.73685" fill="#EFFFFE" stroke="#009891" stroke-width="2"/>
<path d="M25.5 39.1105C23.9949 38.1292 23 36.4308 23 34.5C23 31.4624 25.4624 29 28.5 29C30.6373 29 32.4899 30.2192 33.4003 32C34 36.5 28.5 39.1105 25.5 39.1105Z" fill="#C9EBE9"/>
<rect x="19.5264" y="20" width="13.4737" height="19" rx="6.73685" stroke="#009891" stroke-width="2"/>
<line x1="26.1582" y1="24.4211" x2="26.1582" y2="27.9475" stroke="#009891" stroke-width="2" stroke-linecap="round"/>
<path d="M11.4997 17.5C10.9997 24 13 25.5 21.9997 15C26.5533 9.68725 27.4999 15 26.4999 20" stroke="#009891" stroke-width="2" stroke-linecap="round" stroke-linejoin="round"/>
</svg>
