<svg width="24" height="24" viewBox="0 0 24 24" fill="none" xmlns="http://www.w3.org/2000/svg">
<path d="M2.11761 12.5909C5.25398 11.3636 9.072 9.72723 12.7538 6.04541L14.0085 9.80932C15.3172 10.6704 16.0853 12.4574 15.4259 14.0616L16.4356 17.0909C13.2993 17.0909 6.45385 17.3363 4.16307 18.3181C1.87216 17.3363 1.84489 14.0909 2.11761 12.5909Z" fill="#EFFFFE"/>
<path d="M11.9356 9.31814C14.7993 8.90905 17.2538 13 14.3902 15.4545M12.7538 6.04541C9.072 9.72723 5.25398 11.3636 2.11761 12.5909C1.84489 14.0909 1.87216 17.3363 4.16307 18.3181C6.45385 17.3363 13.2993 17.0909 16.4356 17.0909L12.7538 6.04541Z" stroke="#009891" stroke-width="2" stroke-linecap="round" stroke-linejoin="round"/>
<path d="M13.8858 15.0325C14.0113 15.574 13.5723 16.2728 13.5723 16.2728C7.84509 16.6948 6.80403 17.091 6.71227 16.6948C6.25323 14.7139 7.48696 12.7359 9.46788 12.2769C11.4488 11.8178 13.4268 13.0515 13.8858 15.0325Z" fill="#C9EBE9"/>
<path d="M17.4224 10.5256C17.9524 12.1026 18.0432 13.6094 17.8095 14.7503C17.5698 15.9199 17.0484 16.5045 16.5316 16.6781C16.0148 16.8518 15.2461 16.7008 14.3488 15.9134C13.4734 15.1452 12.6358 13.8894 12.1058 12.3124C11.5758 10.7354 11.485 9.22861 11.7188 8.0877C11.9584 6.91817 12.4798 6.33358 12.9966 6.1599C13.5134 5.98622 14.2821 6.13723 15.1794 6.92465C16.0548 7.69281 16.8924 8.94863 17.4224 10.5256Z" fill="#EFFFFE" stroke="#009891" stroke-width="2"/>
<path d="M11.9353 9.72723C13.5717 8.49996 16.8444 13 13.9808 15.0454" stroke="#009891" stroke-width="2" stroke-linecap="round" stroke-linejoin="round"/>
<path d="M10.708 22L7.81812 17.9091L11.4999 17.5L13.5717 22H10.708Z" fill="#EFFFFE" stroke="#009891" stroke-width="2" stroke-linecap="round" stroke-linejoin="round"/>
<path d="M12.7538 6.04541C9.072 9.72723 5.25398 11.3636 2.11761 12.5909C1.84489 14.0909 1.87216 17.3363 4.16307 18.3181C6.45385 17.3363 13.2993 17.0909 16.4356 17.0909M11.9356 9.31814C14.7993 8.90905 16.5 13.5 14.3902 15.4545" stroke="#009891" stroke-width="2" stroke-linecap="round" stroke-linejoin="round"/>
<path d="M17 4.72727L17.625 2M19.5 7.5L22 6.5" stroke="#009891" stroke-width="2" stroke-linecap="round" stroke-linejoin="round"/>
<path d="M20.5005 11.5L22.5002 12" stroke="#009891" stroke-width="2" stroke-linecap="round" stroke-linejoin="round"/>
</svg>
