<svg width="24" height="24" viewBox="0 0 24 24" fill="none" xmlns="http://www.w3.org/2000/svg">
<path d="M10.8192 21.0172C12.225 21.0172 13.3647 20.0732 13.3647 18.9088C13.3647 18.7891 13.3876 17.3131 13.3644 17.1989H8.27382C8.2379 17.3399 8.27365 18.7589 8.27365 18.9088C8.27365 20.0732 9.41332 21.0172 10.8192 21.0172Z" fill="#EFFFFE"/>
<path d="M8.27382 17.1989C8.2379 17.3399 8.27365 18.7589 8.27365 18.9088C8.27365 20.0732 9.41332 21.0172 10.8192 21.0172C12.225 21.0172 13.3647 20.0732 13.3647 18.9088C13.3647 18.7891 13.3876 17.3131 13.3644 17.1989" stroke="#009891" stroke-width="2"/>
<path d="M18.7434 14.6114V10.271C18.7434 5.96774 15.1884 2.46686 10.819 2.46686C6.44927 2.46686 2.89453 5.96774 2.89453 10.271V14.6114C2.78186 14.7811 2.45443 15.4057 2.08266 16.1332C1.40769 17.454 2.37509 19.0128 3.85836 19.0128H17.8223C19.2951 19.0128 20.263 17.4745 19.5919 16.1635C19.2473 15.4903 18.9255 14.8877 18.7434 14.6114Z" fill="#EFFFFE"/>
<mask id="mask0" style="mask-type:alpha" maskUnits="userSpaceOnUse" x="1" y="2" width="19" height="18">
<path d="M18.7434 14.6114V10.271C18.7434 5.96774 15.1884 2.46686 10.819 2.46686C6.44927 2.46686 2.89453 5.96774 2.89453 10.271V14.6114C2.78186 14.7811 2.45443 15.4057 2.08266 16.1332C1.40769 17.454 2.37509 19.0128 3.85836 19.0128H17.8223C19.2951 19.0128 20.263 17.4745 19.5919 16.1635C19.2473 15.4903 18.9255 14.8877 18.7434 14.6114Z" fill="white"/>
</mask>
<g mask="url(#mask0)">
<circle cx="18.0982" cy="16.6131" r="9.9791" fill="#C9EBE9"/>
</g>
<path d="M17.7429 14.6114V14.9114L17.908 15.1618C18.0712 15.4094 18.415 16.0547 18.8073 16.827C19.078 17.3598 18.6948 18.0128 18.0582 18.0128H3.61836C2.98232 18.0128 2.5846 17.3502 2.86445 16.8004C3.07128 16.3941 3.26804 16.0118 3.4275 15.7096C3.50735 15.5583 3.57612 15.4303 3.63113 15.3311C3.65863 15.2815 3.6813 15.2415 3.69924 15.2109C3.70814 15.1956 3.71514 15.184 3.72039 15.1754C3.72391 15.1697 3.72604 15.1663 3.7269 15.165C3.7272 15.1645 3.72735 15.1643 3.72735 15.1643L3.89406 14.9131V14.6114V10.271C3.89406 6.53439 6.98662 3.46686 10.8185 3.46686C14.6501 3.46686 17.7429 6.53441 17.7429 10.271V14.6114Z" stroke="#009891" stroke-width="2"/>
<path d="M9.89258 1.92565C9.89258 1.41443 10.307 1 10.8182 1C11.3294 1 11.7439 1.41443 11.7439 1.92565V3.77694H9.89258V1.92565Z" fill="#009891"/>
<circle cx="17" cy="17" r="5" fill="#EFFFFE" stroke="#009891" stroke-width="2"/>
<path d="M17 15V17.5H19" stroke="#009891" stroke-width="2" stroke-linecap="round"/>
</svg>
