<svg width="24" height="24" viewBox="0 0 24 24" fill="none" xmlns="http://www.w3.org/2000/svg">
<circle cx="12" cy="12" r="10" fill="#EFFFFE"/>
<path d="M14.1458 21.5C13.4333 20.7039 13 19.6525 13 18.5C13 16.0147 15.0147 14 17.5 14C19.0602 14 20.435 14.794 21.2422 16C20 20 17.5 20.5 14.1458 21.5Z" fill="#C9EBE9"/>
<ellipse cx="15.7781" cy="11.8717" rx="1.29177" ry="1.2221" fill="#009891"/>
<ellipse cx="8.28201" cy="11.8717" rx="1.29177" ry="1.2221" fill="#009891"/>
<path d="M12.0303 18.3894C14.0369 18.3894 15.7506 17.208 16.4396 15.5378H15.0014C14.4072 16.5074 13.3049 17.1673 12.0303 17.1673C10.7558 17.1673 9.66209 16.5074 9.05927 15.5378H7.62109C8.31004 17.208 10.0238 18.3894 12.0303 18.3894Z" fill="#009891"/>
<path fill-rule="evenodd" clip-rule="evenodd" d="M19.0005 8.73521V9.02011H14.7262L13.9334 7.55359L13.2225 9.02011H9.90863L9.16521 7.55359L8.33979 9.02011H4.96875V8.73433C6.281 6.29068 8.93009 4.62036 11.9844 4.62036C15.039 4.62036 17.6884 6.29108 19.0005 8.73521Z" fill="#009891"/>
<path d="M2.45455 15.13C2.15918 14.1758 2 13.1608 2 12.1081C2 6.52555 6.47715 2 12 2C17.5228 2 22 6.52555 22 12.1081C22 14.5329 21.1553 16.7583 19.7472 18.5C17 21.898 14 21 14 21" stroke="#009891" stroke-width="2" stroke-linecap="round"/>
</svg>
