<svg width="24" height="24" viewBox="0 0 24 24" fill="none" xmlns="http://www.w3.org/2000/svg">
<path d="M17.2457 5.06697L15.7931 6.57143C15.1006 7.28869 15.1006 8.4256 15.7931 9.14286C16.4856 9.86012 16.4856 10.997 15.7931 11.7143L11.9619 15.6824C11.3166 16.3506 10.2715 16.4252 9.53796 15.8554C8.84631 15.3181 7.86996 15.3501 7.215 15.9316L5.36556 17.5734C4.59213 18.2601 4.46975 19.4269 5.1908 20.1684C5.89361 20.891 6.82019 21.6886 7.72414 22C12.3838 23.6053 22.5088 12.0731 22 7.85714C21.8506 6.61966 20.5593 5.48862 19.5386 4.77583C18.8164 4.2715 17.8575 4.43327 17.2457 5.06697Z" fill="#EFFFFE" stroke="#009891" stroke-width="2" stroke-linecap="round"/>
<mask id="mask0" style="mask-type:alpha" maskUnits="userSpaceOnUse" x="3" y="3" width="21" height="21">
<path d="M17.2457 5.06697L15.7931 6.57143C15.1006 7.28869 15.1006 8.4256 15.7931 9.14286C16.4856 9.86012 16.4856 10.997 15.7931 11.7143L11.9619 15.6824C11.3166 16.3506 10.2715 16.4252 9.53796 15.8554C8.84631 15.3181 7.86996 15.3501 7.215 15.9316L5.36556 17.5734C4.59213 18.2601 4.46975 19.4269 5.1908 20.1684C5.89361 20.891 6.82019 21.6886 7.72414 22C12.3838 23.6053 22.5088 12.0731 22 7.85714C21.8506 6.61966 20.5593 5.48862 19.5386 4.77583C18.8164 4.2715 17.8575 4.43327 17.2457 5.06697Z" fill="#EFFFFE" stroke="#009891" stroke-width="2" stroke-linecap="round"/>
</mask>
<g mask="url(#mask0)">
<circle cx="12.5" cy="21.5" r="5.5" fill="#C9EBE9"/>
<path d="M17.2457 5.06697L15.7931 6.57143C15.1006 7.28869 15.1006 8.4256 15.7931 9.14286C16.4856 9.86012 16.4856 10.997 15.7931 11.7143L11.9619 15.6824C11.3166 16.3506 10.2715 16.4252 9.53796 15.8554C8.84631 15.3181 7.86996 15.3501 7.215 15.9316L5.36556 17.5734C4.59213 18.2601 4.46975 19.4269 5.1908 20.1684C5.89361 20.891 6.82019 21.6886 7.72414 22C12.3838 23.6053 22.5088 12.0731 22 7.85714C21.8506 6.61966 20.5593 5.48862 19.5386 4.77583C18.8164 4.2715 17.8575 4.43327 17.2457 5.06697Z" stroke="#009891" stroke-width="2" stroke-linecap="round"/>
</g>
<path d="M7.49956 12C6.99987 9.49996 10.5 7.5 12.0349 7.77438" stroke="#009891" stroke-width="2" stroke-linecap="round"/>
<path d="M3.03478 10.7744C2.53478 7.77443 7.53516 2.77441 11.0348 4.27443" stroke="#009891" stroke-width="2" stroke-linecap="round"/>
</svg>
