<svg width="40" height="40" viewBox="0 0 40 40" fill="none" xmlns="http://www.w3.org/2000/svg">
<path d="M6 4.00001C6 2.89543 6.89543 2 8 2H26.2353C27.3399 2 28.2353 2.89543 28.2353 4V36.2381C28.2353 37.3427 27.3399 38.2381 26.2353 38.2381H8C6.89543 38.2381 6 37.3427 6 36.2381V4.00001Z" fill="#EFFFFE" stroke="#009891" stroke-width="2"/>
<mask id="mask0_4681_54589" style="mask-type:alpha" maskUnits="userSpaceOnUse" x="5" y="1" width="25" height="39">
<path d="M6 4.00001C6 2.89543 6.89543 2 8 2H26.2353C27.3399 2 28.2353 2.89543 28.2353 4V36.2381C28.2353 37.3427 27.3399 38.2381 26.2353 38.2381H8C6.89543 38.2381 6 37.3427 6 36.2381V4.00001Z" fill="#EFFFFE" stroke="#009891" stroke-width="2"/>
</mask>
<g mask="url(#mask0_4681_54589)">
<circle cx="24.3421" cy="34.1841" r="7.86842" fill="#C9EBE9"/>
</g>
<path d="M6 4.00001C6 2.89543 6.89543 2 8 2H26.2353C27.3399 2 28.2353 2.89543 28.2353 4V36.2381C28.2353 37.3427 27.3399 38.2381 26.2353 38.2381H8C6.89543 38.2381 6 37.3427 6 36.2381V4.00001Z" stroke="#009891" stroke-width="2"/>
<rect x="13" y="5" width="9" height="2" rx="1" fill="#009891"/>
<circle cx="17" cy="32.314" r="2" fill="#009891"/>
<path d="M6 4.00001C6 2.89543 6.89543 2 8 2H26.2353C27.3399 2 28.2353 2.89543 28.2353 4V36.2381C28.2353 37.3427 27.3399 38.2381 26.2353 38.2381H8C6.89543 38.2381 6 37.3427 6 36.2381V4.00001Z" stroke="#009891" stroke-width="2"/>
<path d="M33.9611 17.9775C33.1815 22.0456 29.2516 24.7114 25.1835 23.9318C24.1005 23.7243 23.1192 23.2946 22.2757 22.6997C22.0701 22.5548 21.856 22.4977 21.7102 22.4714C21.5559 22.4436 21.4038 22.4376 21.2708 22.4397C21.006 22.4437 20.7128 22.4822 20.4293 22.5307C19.9126 22.6192 19.2969 22.7655 18.7166 22.9033C18.6586 22.9171 18.6009 22.9308 18.5437 22.9444C18.1871 23.0288 17.8489 23.1077 17.5414 23.1722C17.6819 22.9939 17.8375 22.8027 18.0033 22.6002C18.0283 22.5696 18.0536 22.5388 18.0791 22.5077C18.4387 22.0688 18.836 21.584 19.1276 21.1541C19.283 20.925 19.4399 20.6667 19.545 20.4056C19.633 20.1871 19.7804 19.7403 19.5971 19.2669C19.1071 18.0014 18.9544 16.5879 19.2291 15.1543C20.0087 11.0862 23.9386 8.42032 28.0067 9.19992C32.0748 9.97951 34.7407 13.9094 33.9611 17.9775ZM16.3545 23.327C16.3554 23.3264 16.3667 23.3273 16.3857 23.3317C16.3631 23.3298 16.3536 23.3276 16.3545 23.327Z" fill="#EFFFFE" stroke="#009891" stroke-width="2"/>
<circle cx="23" cy="16" r="1" fill="#009891"/>
<circle cx="26.5" cy="16" r="1" fill="#009891"/>
<circle cx="30" cy="16" r="1" fill="#009891"/>
</svg>
