<svg width="24" height="24" viewBox="0 0 24 24" fill="none" xmlns="http://www.w3.org/2000/svg">
<path d="M5.90402 9.7424L5.90421 9.74207C6.18995 9.24368 6.53246 8.78108 6.92277 8.36324L6.92345 8.36252C7.1851 8.08186 7.46885 7.82162 7.77214 7.58372L7.77241 7.58351C9.03642 6.59131 10.6282 6 12.3603 6C16.468 6 19.7977 9.32987 19.7977 13.4376C19.7977 17.5449 16.468 20.8748 12.3603 20.8748C8.2525 20.8748 4.92285 17.5449 4.92285 13.4376C4.92285 12.0904 5.27985 10.8301 5.90402 9.7424Z" fill="#EFFFFE" stroke="#EFFFFE" stroke-width="2"/>
<path d="M16.9573 20.1367C16.9573 20.1367 13.7524 21.6502 11.4382 20.6902C9.73415 18.4562 10.1638 15.2638 12.3978 13.5598C14.6318 11.8558 17.8242 12.2855 19.5282 14.5195C20.9526 16.7001 16.9573 20.1367 16.9573 20.1367Z" fill="#C9EBE9"/>
<path d="M5.90402 9.7424L5.90421 9.74207C6.18995 9.24368 6.53246 8.78108 6.92277 8.36324L6.92345 8.36252C7.1851 8.08186 7.46885 7.82162 7.77214 7.58372L7.77241 7.58351C9.03642 6.59131 10.6282 6 12.3603 6C16.468 6 19.7977 9.32987 19.7977 13.4376C19.7977 17.5449 16.468 20.8748 12.3603 20.8748C8.2525 20.8748 4.92285 17.5449 4.92285 13.4376C4.92285 12.0904 5.27985 10.8301 5.90402 9.7424Z" stroke="#009891" stroke-width="2"/>
<path fill-rule="evenodd" clip-rule="evenodd" d="M13.6719 11.2942C14.0964 11.6176 14.3821 12.1151 14.3821 12.7461C14.3821 13.0798 14.1115 13.3504 13.7778 13.3504C13.444 13.3504 13.1734 13.0798 13.1734 12.7461C13.1734 12.5138 13.0814 12.3637 12.9394 12.2556C12.7806 12.1346 12.5387 12.0554 12.267 12.0554C11.9952 12.0554 11.7533 12.1346 11.5945 12.2556C11.4525 12.3637 11.3605 12.5138 11.3605 12.7461C11.3605 12.7475 11.3604 12.749 11.3604 12.7506C11.3595 12.7754 11.3578 12.8255 11.5281 12.9228C11.7347 13.0409 12.0335 13.13 12.433 13.2442C12.4451 13.2476 12.4573 13.2511 12.4696 13.2546C12.8198 13.3545 13.2577 13.4795 13.6055 13.6782C13.9906 13.8983 14.3821 14.2799 14.3821 14.9044C14.3821 15.5427 14.0877 16.0305 13.6324 16.3232C13.2075 16.5964 12.6882 16.6734 12.2239 16.6402C11.7561 16.6068 11.2705 16.457 10.8849 16.1908C10.4982 15.9237 10.1519 15.4898 10.1519 14.9044C10.1519 14.5706 10.4224 14.3 10.7562 14.3C11.0899 14.3 11.3605 14.5706 11.3605 14.9044C11.3605 14.9664 11.3919 15.072 11.5717 15.1962C11.7526 15.3211 12.0225 15.4141 12.31 15.4347C12.6011 15.4555 12.8372 15.3976 12.9788 15.3065C13.0901 15.235 13.1734 15.1293 13.1734 14.9044C13.1734 14.903 13.1735 14.9014 13.1735 14.8998C13.1744 14.8751 13.1761 14.8249 13.0058 14.7276C12.7993 14.6096 12.5004 14.5204 12.1009 14.4063C12.0889 14.4028 12.0767 14.3994 12.0644 14.3958C11.7141 14.2959 11.2763 14.1709 10.9285 13.9722C10.5433 13.7521 10.1519 13.3706 10.1519 12.7461C10.1519 12.1151 10.4375 11.6176 10.8621 11.2942C11.2698 10.9835 11.7833 10.8468 12.267 10.8468C12.7506 10.8468 13.2641 10.9835 13.6719 11.2942Z" fill="#009891"/>
<path fill-rule="evenodd" clip-rule="evenodd" d="M12.4832 11.5547C12.1495 11.5547 11.8789 11.2842 11.8789 10.9504V10.1044C11.8789 9.77063 12.1495 9.50007 12.4832 9.50007C12.817 9.50007 13.0875 9.77063 13.0875 10.1044V10.9504C13.0875 11.2842 12.817 11.5547 12.4832 11.5547Z" fill="#009891"/>
<path fill-rule="evenodd" clip-rule="evenodd" d="M12.4832 17.6669C12.1495 17.6669 11.8789 17.3964 11.8789 17.0626V16.1993C11.8789 15.8656 12.1495 15.595 12.4832 15.595C12.817 15.595 13.0875 15.8656 13.0875 16.1993V17.0626C13.0875 17.3964 12.817 17.6669 12.4832 17.6669Z" fill="#009891"/>
<path d="M20.8441 4.12316C19.0647 5.14815 16.5742 6.13497 15.4229 6.5C17.4229 7.5 18.9229 9.5 19.4229 10.5C21.5118 9.90315 22.3392 7.13551 22.4862 4.93785C22.5405 4.1263 21.549 3.71719 20.8441 4.12316Z" fill="#EFFFFE" stroke="#009891" stroke-width="2" stroke-linecap="round"/>
<path d="M3.62428 4.15361C5.30512 5.16763 7.67157 6.13859 9.42285 6.5C6.92285 7.5 5.92285 9 5.42285 10.5C3.33366 9.90309 2.30794 7.13495 2.06026 4.93719C1.96917 4.12893 2.92782 3.73345 3.62428 4.15361Z" fill="#EFFFFE" stroke="#009891" stroke-width="2" stroke-linecap="round"/>
</svg>
