<svg width="40" height="40" viewBox="0 0 40 40" fill="none" xmlns="http://www.w3.org/2000/svg">
<path d="M2 15.6585V21.9757C2 22.2031 2.15378 22.4021 2.37475 22.4606L5.31368 23.2389C5.31368 23.2389 5.31368 23.2397 5.3145 23.2406C6.22257 25.8347 7.90841 28.1227 10.129 29.8919V36.4981C10.129 36.7753 10.3548 37 10.6335 37H15.2831C15.5618 37 15.7876 36.7753 15.7876 36.4981V32.8616C17.5088 33.3936 19.356 33.6831 21.2807 33.6831C23.2052 33.6831 25.0525 33.3936 26.7737 32.8616V36.4981C26.7737 36.7753 26.9995 37 27.2782 37H31.9277C32.2064 37 32.4322 36.7753 32.4322 36.4981V29.892C33.7506 28.8413 34.8807 27.6083 35.7711 26.2363C37.1887 24.053 38 21.5199 38 18.8171C38 10.6065 30.5143 3.95098 21.2805 3.95098C18.4159 3.95098 15.7202 4.5918 13.3643 5.7203C12.0192 3.39426 9.16819 2.40644 6.67682 3.36185C6.39557 3.46971 6.26623 3.79255 6.40265 4.05989L8.85664 8.86901C7.26162 10.4434 6.03907 12.3214 5.31343 14.3951L2.3745 15.1734C2.15377 15.232 2 15.431 2 15.6585Z" fill="#EFFFFE" stroke="#009891" stroke-width="2"/>
<mask id="mask0" style="mask-type:alpha" maskUnits="userSpaceOnUse" x="1" y="2" width="38" height="36">
<path d="M2 15.6585V21.9757C2 22.2031 2.15378 22.4021 2.37475 22.4606L5.31368 23.2389C5.31368 23.2389 5.31368 23.2397 5.3145 23.2406C6.22257 25.8347 7.90841 28.1227 10.129 29.8919V36.4981C10.129 36.7753 10.3548 37 10.6335 37H15.2831C15.5618 37 15.7876 36.7753 15.7876 36.4981V32.8616C17.5088 33.3936 19.356 33.6831 21.2807 33.6831C23.2052 33.6831 25.0525 33.3936 26.7737 32.8616V36.4981C26.7737 36.7753 26.9995 37 27.2782 37H31.9277C32.2064 37 32.4322 36.7753 32.4322 36.4981V29.892C33.7506 28.8413 34.8807 27.6083 35.7711 26.2363C37.1887 24.053 38 21.5199 38 18.8171C38 10.6065 30.5143 3.95098 21.2805 3.95098C18.4159 3.95098 15.7202 4.5918 13.3643 5.7203C12.0192 3.39426 9.16819 2.40644 6.67682 3.36185C6.39557 3.46971 6.26623 3.79255 6.40265 4.05989L8.85664 8.86901C7.26162 10.4434 6.03907 12.3214 5.31343 14.3951L2.3745 15.1734C2.15377 15.232 2 15.431 2 15.6585Z" fill="#EFFFFE" stroke="#009891" stroke-width="2"/>
</mask>
<g mask="url(#mask0)">
<circle cx="30" cy="27" r="10" fill="#C9EBE9"/>
</g>
<path d="M2 15.6585V21.9757C2 22.2031 2.15378 22.4021 2.37475 22.4606L5.31368 23.2389C5.31368 23.2389 5.31368 23.2397 5.31449 23.2406C6.22257 25.8347 7.90841 28.1227 10.129 29.8919V36.4981C10.129 36.7753 10.3548 37 10.6335 37H15.2831C15.5618 37 15.7876 36.7753 15.7876 36.4981V32.8616C17.5088 33.3936 19.356 33.6831 21.2807 33.6831C23.2052 33.6831 25.0525 33.3936 26.7737 32.8616V36.4981C26.7737 36.7753 26.9995 37 27.2782 37H31.9277C32.2064 37 32.4322 36.7753 32.4322 36.4981V29.892C33.7506 28.8413 34.8807 27.6083 35.7711 26.2363C37.1887 24.053 38 21.5199 38 18.8171C38 10.6065 30.5143 3.95098 21.2805 3.95098C18.4159 3.95098 15.7202 4.5918 13.3643 5.7203C12.0192 3.39426 9.16819 2.40644 6.67682 3.36185C6.39557 3.46971 6.26623 3.79255 6.40266 4.05989L8.85664 8.86901C7.26162 10.4434 6.03907 12.3214 5.31344 14.3951L2.3745 15.1734C2.15377 15.232 2 15.431 2 15.6585Z" stroke="#009891" stroke-width="2"/>
<path d="M19 8.37929C20.5 7.87929 24.5 7.47929 28.5 9.87929" stroke="#009891" stroke-width="2" stroke-linecap="round"/>
<circle cx="14" cy="15" r="2" fill="#009891"/>
</svg>
