<svg width="24" height="24" viewBox="0 0 24 24" fill="none" xmlns="http://www.w3.org/2000/svg">
<path d="M12.0105 19.3225V19.7638C12.0105 20.3968 12.5102 21 13.2347 21H15.3012C16.0257 21 16.5254 20.3968 16.5254 19.7638V17.1019C17.0409 16.6139 17.4914 16.0618 17.8618 15.4575L12.0105 19.3225ZM12.0105 19.3225C11.5417 19.3992 11.0602 19.4391 10.5692 19.4391C10.0782 19.4391 9.59663 19.3992 9.12784 19.3225M12.0105 19.3225L9.12784 19.3225M9.12784 19.3225V19.7638C9.12784 20.3969 8.62816 21 7.90362 21H5.83709C5.11256 21 4.61287 20.3969 4.61287 19.7638V17.1019C3.79659 16.3291 3.14309 15.3952 2.71293 14.3497L1.89662 14.1208C1.89661 14.1208 1.89659 14.1208 1.89658 14.1208C1.33755 13.9641 1 13.4541 1 12.9297V9.95693C1 9.43274 1.33733 8.92293 1.89588 8.76595L1.89647 8.76579L2.71272 8.53692C3.00092 7.83647 3.38936 7.1861 3.85966 6.60074L3.05591 4.93295C3.0559 4.93293 3.0559 4.93292 3.05589 4.93291C2.75377 4.30603 3.02334 3.51948 3.70236 3.24375L3.70237 3.24375C5.0045 2.71503 6.43701 3.07166 7.37257 4.04254C8.36006 3.65852 9.43994 3.44752 10.5691 3.44752C15.1676 3.44752 19 6.97124 19 11.4433C19 12.9077 18.5841 14.2796 17.8619 15.4573L9.12784 19.3225Z" fill="#EFFFFE" stroke="#009891" stroke-width="2"/>
<path d="M12.0105 19.3225V19.7638C12.0105 20.3968 12.5102 21 13.2347 21H15.3012C16.0257 21 16.5254 20.3968 16.5254 19.7638V17.1019C17.0409 16.6139 17.4914 16.0618 17.8618 15.4575L12.0105 19.3225ZM12.0105 19.3225C11.5417 19.3992 11.0602 19.4391 10.5692 19.4391C10.0782 19.4391 9.59663 19.3992 9.12784 19.3225M12.0105 19.3225L9.12784 19.3225M9.12784 19.3225V19.7638C9.12784 20.3969 8.62816 21 7.90362 21H5.83709C5.11256 21 4.61287 20.3969 4.61287 19.7638V17.1019C3.79659 16.3291 3.14309 15.3952 2.71293 14.3497L1.89662 14.1208C1.89661 14.1208 1.89659 14.1208 1.89658 14.1208C1.33755 13.9641 1 13.4541 1 12.9297V9.95693C1 9.43274 1.33733 8.92293 1.89588 8.76595L1.89647 8.76579L2.71272 8.53692C3.00092 7.83647 3.38936 7.1861 3.85966 6.60074L3.05591 4.93295C3.0559 4.93293 3.0559 4.93292 3.05589 4.93291C2.75377 4.30603 3.02334 3.51948 3.70236 3.24375L3.70237 3.24375C5.0045 2.71503 6.43701 3.07166 7.37257 4.04254C8.36006 3.65852 9.43994 3.44752 10.5691 3.44752C15.1676 3.44752 19 6.97124 19 11.4433C19 12.9077 18.5841 14.2796 17.8619 15.4573L9.12784 19.3225Z" stroke="#009891" stroke-width="2"/>
<circle cx="7.07159" cy="9.96087" r="0.993464" fill="#009891"/>
<path d="M11 4V5.5" stroke="#009891" stroke-width="2" stroke-linecap="round"/>
<circle cx="16" cy="12" r="4" fill="#EFFFFE" stroke="#009891" stroke-width="2"/>
<circle cx="17.5" cy="12.5" r="2.5" fill="#C9EBE9"/>
<circle cx="16" cy="12" r="4" stroke="#009891" stroke-width="2"/>
<path d="M19 15.5L21.5 19" stroke="#009891" stroke-width="2" stroke-linecap="round"/>
</svg>
