<svg width="24" height="24" viewBox="0 0 24 24" fill="none" xmlns="http://www.w3.org/2000/svg">
<path d="M19.8584 15.4167C19.8584 18.4082 19.9688 19.5833 16.7778 19.5833C14.9907 19.5833 13.3932 20.0727 12.3333 18.878C11.5007 17.9394 11 16.7328 11 15.4167C11 12.4251 13.5868 10 16.7778 10C17.9103 10 18.9667 10.3055 19.8584 10.8333C20.3333 12.5 19.8584 13.4869 19.8584 15.4167Z" fill="white" fill-opacity="0.4"/>
<path d="M5 11V6C5 4.89543 5.89543 4 7 4H18C19.1046 4 20 4.89543 20 6V18C20 19.1046 19.1046 20 18 20H13.4375" stroke="white" stroke-width="2" stroke-linecap="round"/>
<path fill-rule="evenodd" clip-rule="evenodd" d="M15.575 9.26068C16.0723 9.66193 16.1435 10.3822 15.7339 10.8694L7.56725 20.5837C7.34819 20.8442 7.02274 20.9966 6.67816 20.9999C6.33358 21.0033 6.00513 20.8572 5.78087 20.6009L2.28089 16.6009C1.86156 16.1217 1.91822 15.4002 2.40743 14.9894C2.89664 14.5787 3.63315 14.6342 4.05248 15.1134L6.6488 18.0806L13.9327 9.41637C14.3423 8.92914 15.0776 8.85944 15.575 9.26068Z" fill="white"/>
</svg>
