<svg width="40" height="40" viewBox="0 0 40 40" fill="none" xmlns="http://www.w3.org/2000/svg">
<rect width="40" height="40" fill="#C0C0C0"/>
<path d="M1.66699 1.66663L38.3337 38.3333" stroke="#9E9E9E" stroke-linecap="round"/>
<path d="M38.333 1.66663L1.66634 38.3333" stroke="#9E9E9E" stroke-linecap="round"/>
<rect y="10" width="40" height="21" fill="#C0C0C0"/>
<path d="M18.2852 21.1348H19.4688V22.0195H18.2852V24H17.1953V22.0195H13.3105V21.3809L17.1309 15.4688H18.2852V21.1348ZM14.541 21.1348H17.1953V16.9512L17.0664 17.1855L14.541 21.1348ZM25.7969 20.3613C25.7969 21.6309 25.5801 22.5742 25.1465 23.1914C24.7129 23.8086 24.0352 24.1172 23.1133 24.1172C22.2031 24.1172 21.5293 23.8164 21.0918 23.2148C20.6543 22.6094 20.4277 21.707 20.4121 20.5078V19.0605C20.4121 17.8066 20.6289 16.875 21.0625 16.2656C21.4961 15.6562 22.1758 15.3516 23.1016 15.3516C24.0195 15.3516 24.6953 15.6465 25.1289 16.2363C25.5625 16.8223 25.7852 17.7285 25.7969 18.9551V20.3613ZM24.7129 18.8789C24.7129 17.9609 24.584 17.293 24.3262 16.875C24.0684 16.4531 23.6602 16.2422 23.1016 16.2422C22.5469 16.2422 22.1426 16.4512 21.8887 16.8691C21.6348 17.2871 21.5039 17.9297 21.4961 18.7969V20.5312C21.4961 21.4531 21.6289 22.1348 21.8945 22.5762C22.1641 23.0137 22.5703 23.2324 23.1133 23.2324C23.6484 23.2324 24.0449 23.0254 24.3027 22.6113C24.5645 22.1973 24.7012 21.5449 24.7129 20.6543V18.8789Z" fill="#757575"/>
</svg>
