<svg width="24" height="24" viewBox="0 0 24 24" fill="none" xmlns="http://www.w3.org/2000/svg">
<path d="M2 5.23535C2 4.68307 2.44772 4.23535 3 4.23535H19.1176C19.6699 4.23535 20.1176 4.68307 20.1176 5.23535V18.0001C20.1176 18.5523 19.6699 19.0001 19.1176 19.0001H3C2.44771 19.0001 2 18.5523 2 18.0001V5.23535Z" fill="#EFFFFE" stroke="#009891" stroke-width="2"/>
<mask id="mask0" style="mask-type:alpha" maskUnits="userSpaceOnUse" x="1" y="3" width="21" height="17">
<path d="M2 5.23535C2 4.68307 2.44772 4.23535 3 4.23535H19.1176C19.6699 4.23535 20.1176 4.68307 20.1176 5.23535V18.0001C20.1176 18.5523 19.6699 19.0001 19.1176 19.0001H3C2.44771 19.0001 2 18.5523 2 18.0001V5.23535Z" fill="#EFFFFE" stroke="#009891" stroke-width="2"/>
</mask>
<g mask="url(#mask0)">
<circle cx="16.1471" cy="16.1471" r="6.14706" fill="#C9EBE9"/>
</g>
<rect x="5.46875" y="1" width="2.23529" height="3.35294" rx="1.11765" fill="#009891"/>
<rect x="14.4102" y="1" width="2.23529" height="3.35294" rx="1.11765" fill="#009891"/>
<line x1="3" y1="8" x2="19.4599" y2="8" stroke="#009891" stroke-width="2"/>
<rect x="4.35156" y="11.0588" width="2.23529" height="2.23529" rx="1.11765" fill="#009891"/>
<rect x="4.35156" y="14.4117" width="2.23529" height="2.23529" rx="1.11765" fill="#009891"/>
<rect x="9.94141" y="11.0588" width="2.23529" height="2.23529" rx="1.11765" fill="#009891"/>
<rect x="9.94141" y="14.4117" width="2.23529" height="2.23529" rx="1.11765" fill="#009891"/>
<rect x="15.5293" y="11.0588" width="2.23529" height="2.23529" rx="1.11765" fill="#009891"/>
<path d="M2 5.23535C2 4.68307 2.44772 4.23535 3 4.23535H19.1176C19.6699 4.23535 20.1176 4.68307 20.1176 5.23535V18.0001C20.1176 18.5523 19.6699 19.0001 19.1176 19.0001H3C2.44771 19.0001 2 18.5523 2 18.0001V5.23535Z" stroke="#009891" stroke-width="2"/>
<circle cx="18" cy="18" r="5" fill="#EFFFFE" stroke="#009891" stroke-width="2"/>
<path d="M18 15.5V18H20.5" stroke="#009891" stroke-width="2" stroke-linecap="round" stroke-linejoin="round"/>
</svg>
