<svg width="24" height="24" viewBox="0 0 24 24" fill="none" xmlns="http://www.w3.org/2000/svg">
<path d="M17.4765 4.86115L17.8482 5.78949L17.4765 4.86115L16.3838 5.29869L15.6344 4.8674L15.4713 3.71869C15.3312 2.7327 14.487 2 13.4911 2H10.5207C9.52477 2 8.68062 2.7327 8.54054 3.71869L8.37735 4.8674L7.63122 5.29681C7.62249 5.29326 7.61367 5.28968 7.60475 5.28606C7.31513 5.1685 6.92544 5.01108 6.52634 4.85211C5.60227 4.48404 4.55708 4.85652 4.06473 5.70922L2.58138 8.27821C2.08204 9.14301 2.29712 10.2436 3.08528 10.8568L4.00209 11.5701L3.99659 12.425L3.07349 13.1432L3.68754 13.9325L3.07349 13.1432C2.28532 13.7564 2.07024 14.857 2.56959 15.7218L4.04801 18.2822C4.54537 19.1436 5.60013 19.5086 6.52349 19.1389L7.61615 18.7013L8.36556 19.1326L8.52875 20.2813C8.66882 21.2673 9.51298 22 10.5089 22H13.4793C14.4752 22 15.3194 21.2673 15.4595 20.2813L15.6226 19.1326L16.3721 18.7013L17.5386 19.1684C18.3991 19.513 19.4151 19.2201 19.9156 18.3748C20.3629 17.6196 21.0129 16.4693 21.4342 15.7187C21.9281 14.8387 21.6822 13.7509 20.9109 13.1474C20.5925 12.8983 20.277 12.6465 20.0405 12.4566C20.032 12.4497 20.0236 12.443 20.0153 12.4363L20.0097 11.5701L20.9265 10.8568C21.7147 10.2436 21.9298 9.14301 21.4304 8.27821L19.952 5.71776C19.4546 4.85639 18.3999 4.4914 17.4765 4.86115Z" fill="#EFFFFE" stroke="#009891" stroke-width="2"/>
<mask id="mask0" style="mask-type:alpha" maskUnits="userSpaceOnUse" x="3" y="3" width="18" height="18">
<path d="M19.0183 12.9165L19.0066 11.0836L20.3125 10.0675C20.7065 9.76095 20.8141 9.21065 20.5644 8.77825L19.086 6.21779C18.8373 5.78711 18.3099 5.60462 17.8482 5.78949L16.3054 6.40731L14.713 5.49086L14.4812 3.85935C14.4112 3.36635 13.9891 3 13.4911 3H10.5207C10.0227 3 9.60064 3.36635 9.5306 3.85935L9.29882 5.49086L7.70642 6.40731C7.70642 6.40731 6.94909 6.09692 6.15629 5.78113C5.69826 5.59869 5.17727 5.78229 4.93074 6.20926L3.44738 8.77825C3.19771 9.21065 3.30525 9.76095 3.69934 10.0675L5.00524 11.0836L4.99345 12.9165L3.68754 13.9325C3.29346 14.2391 3.18592 14.7894 3.43559 15.2218L4.91401 17.7822C5.16269 18.2129 5.69007 18.3954 6.15176 18.2105L7.69463 17.5927L9.28703 18.5091L9.51881 20.1407C9.58885 20.6336 10.0109 21 10.5089 21H13.4793C13.9773 21 14.3994 20.6336 14.4694 20.1407L14.6326 18.992C14.6759 18.6872 14.8571 18.4194 15.1238 18.2659L16.2936 17.5927L17.9104 18.2401C18.339 18.4117 18.8199 18.2625 19.0552 17.8653C19.4958 17.1214 20.1404 15.9806 20.5621 15.2292C20.8072 14.7927 20.689 14.2435 20.2947 13.935C19.6487 13.4296 19.0183 12.9165 19.0183 12.9165Z" fill="#EFFFFE"/>
</mask>
<g mask="url(#mask0)">
<circle cx="16.4444" cy="16.4445" r="6.22222" fill="#C9EBE9"/>
</g>
<circle cx="11.9999" cy="12" r="1.77778" fill="#009891"/>
</svg>
