<svg width="40" height="40" viewBox="0 0 40 40" fill="none" xmlns="http://www.w3.org/2000/svg">
<path d="M34.3023 27.7562L37.1135 31.3193L27.0769 37.9047L24.2656 34.3415C24.058 34.0764 23.7468 33.8953 23.4008 33.8385L23.399 33.8382L19.2161 33.1565L19.199 33.1537C16.787 32.7573 14.5612 31.7213 12.7607 30.1566L7.22749 25.3482C6.92532 25.0856 6.75109 24.7327 6.73686 24.3545C6.72266 23.9761 6.87029 23.6208 7.15281 23.3539C7.69997 22.8367 8.60602 22.811 9.21545 23.2955C10.3803 24.221 13.3116 23.4336 13.3116 23.4336C13.3116 23.4336 7.36027 15.9416 6.09486 14.3259C4.21323 12.5202 6.81325 9.95449 8.88199 11.9077C9.961 13.2822 16.0562 18.9997 16.0562 18.9997C16.0562 18.9997 10.5027 9.86883 9.47436 8.55817C7.75624 6.36826 10.7134 4.13583 12.4808 6.39643C13.6652 7.91134 20.4996 16.0847 20.4996 16.0847C20.4996 16.0847 17.4932 10.0022 15.5611 6.10784C14.3738 3.71455 16.9737 1.14893 18.7357 3.68303C19.7624 4.99701 24.0214 11.2858 25.6635 14.5486C25.3568 13.617 25.259 9.11244 25.4253 8.10001C25.4833 7.74762 25.6868 7.44099 25.9987 7.23644C26.3106 7.03176 26.6932 6.9538 27.0764 7.01678C27.4597 7.07975 27.7972 7.27607 28.0272 7.56978L28.5545 8.24309L32.2206 15.8808C34.1672 18.3663 34.967 21.3773 34.4722 24.3585L34.0599 26.8432C34.007 27.1619 34.0942 27.4905 34.3023 27.7562Z" fill="#EFFFFE"/>
<path d="M34.6679 26.8399C34.6679 26.8399 40.9907 32.6357 30.4527 33.6896C26.3788 33.6896 23.0762 30.387 23.0762 26.313C23.0762 22.2391 26.3788 18.9365 30.4527 18.9365C37.3024 17.3559 34.6679 26.8399 34.6679 26.8399Z" fill="#C9EBE9"/>
<path d="M37.1135 31.3193L34.3023 27.7562C34.0942 27.4905 34.007 27.1619 34.0599 26.8432L34.4722 24.3585C34.967 21.3773 34.1672 18.3663 32.2206 15.8808L28.5545 8.24309L28.0272 7.56978C27.7972 7.27607 27.4597 7.07975 27.0764 7.01678C26.6932 6.9538 26.3106 7.03176 25.9987 7.23644C25.6868 7.44099 25.4833 7.74762 25.4253 8.10001C25.259 9.11244 25.3568 13.617 25.6635 14.5486C24.0214 11.2858 19.7624 4.99701 18.7357 3.68303C16.9737 1.14893 14.3738 3.71455 15.5611 6.10784C17.4932 10.0022 20.4996 16.0847 20.4996 16.0847C20.4996 16.0847 13.6652 7.91134 12.4808 6.39643C10.7134 4.13583 7.75624 6.36826 9.47436 8.55817C10.5027 9.86883 16.0562 18.9997 16.0562 18.9997C16.0562 18.9997 9.96099 13.2822 8.88199 11.9077C6.81325 9.95449 4.21323 12.5202 6.09486 14.3259C7.36028 15.9416 13.3116 23.4336 13.3116 23.4336C13.3116 23.4336 10.3803 24.221 9.21545 23.2955C8.60602 22.811 7.69997 22.8367 7.15281 23.3539C6.87029 23.6208 6.72266 23.9761 6.73686 24.3545C6.7511 24.7327 6.92532 25.0856 7.22749 25.3482L12.7607 30.1566C14.5612 31.7213 16.787 32.7573 19.199 33.1537C19.2046 33.1546 19.2105 33.1555 19.2161 33.1565L23.399 33.8382L23.4008 33.8385C23.7468 33.8953 24.058 34.0764 24.2656 34.3415L27.0769 37.9047" stroke="#009891" stroke-width="2" stroke-linejoin="round"/>
<path d="M6.17198 29.3575L2 33.1675L8.34091 38.9585L12.513 35.1486C12.6909 34.9861 12.9323 34.8948 13.184 34.8948H13.1853L16.2267 34.8987H16.2391C17.9932 34.8987 19.69 34.4274 21.147 33.5351L25.6249 30.793C25.8694 30.6433 26.0338 30.4152 26.0879 30.1509C26.142 29.8865 26.0788 29.6196 25.9098 29.3992C25.5825 28.9723 24.9439 28.8495 24.456 29.1197C23.5234 29.636 21.5393 28.7435 21.5393 28.7435C21.5393 28.7435 26.6255 24.1625 27.7096 23.1725C29.2521 22.1201 27.7096 20.0153 26.0173 21.1498C25.0933 21.9917 20.1117 25.3082 20.1117 25.3082C20.1117 25.3082 25.1069 19.5287 25.9876 18.7258C27.4591 17.3843 25.6249 15.4726 24.1102 16.8581C23.0952 17.7866 17.3044 22.7446 17.3044 22.7446C17.3044 22.7446 20.1412 18.8146 21.9625 16.2992C23.0818 14.7533 21.5393 12.6485 19.9967 14.227C19.1167 15.0324 15.369 18.9628 13.8264 21.0676C14.152 20.4479 14.7455 17.2914 14.7455 16.5602C14.7455 16.3057 14.637 16.0665 14.4399 15.8866C14.243 15.7066 13.9811 15.6076 13.7024 15.6076C13.4237 15.6076 13.1618 15.7066 12.9648 15.8866L12.513 16.2992L9.02811 21.2467C7.3604 22.7697 6.44366 24.7947 6.44707 26.9484L6.44992 28.7435C6.4503 28.9737 6.35028 29.1947 6.17198 29.3575Z" fill="#EFFFFE"/>
<path d="M2 33.1675L6.17198 29.3575C6.35028 29.1947 6.4503 28.9737 6.44992 28.7435L6.44707 26.9484C6.44366 24.7947 7.3604 22.7697 9.02811 21.2467L12.513 16.2992L12.9648 15.8866C13.1618 15.7066 13.4237 15.6076 13.7024 15.6076C13.9811 15.6076 14.243 15.7066 14.4399 15.8866C14.637 16.0665 14.7455 16.3057 14.7455 16.5602C14.7455 17.2914 14.152 20.4479 13.8264 21.0676C15.369 18.9628 19.1167 15.0324 19.9967 14.227C21.5393 12.6485 23.0818 14.7533 21.9625 16.2992C20.1412 18.8146 17.3044 22.7447 17.3044 22.7447C17.3044 22.7447 23.0952 17.7866 24.1102 16.8581C25.6249 15.4726 27.4591 17.3843 25.9876 18.7258C25.1069 19.5287 20.1117 25.3082 20.1117 25.3082C20.1117 25.3082 25.0933 21.9917 26.0173 21.1498C27.7096 20.0153 29.2521 22.1201 27.7096 23.1725C26.6255 24.1625 21.5393 28.7435 21.5393 28.7435C21.5393 28.7435 23.5234 29.636 24.456 29.1197C24.9439 28.8495 25.5825 28.9723 25.9098 29.3992C26.0788 29.6196 26.142 29.8865 26.0879 30.1509C26.0338 30.4152 25.8694 30.6433 25.6249 30.793L21.147 33.5351C19.69 34.4274 17.9932 34.8987 16.2391 34.8987C16.235 34.8987 16.2307 34.8987 16.2267 34.8987L13.1853 34.8948H13.184C12.9323 34.8948 12.6909 34.9861 12.513 35.1486L8.34091 38.9585" stroke="#009891" stroke-width="2" stroke-linejoin="round"/>
</svg>
