<svg width="24" height="24" viewBox="0 0 24 24" fill="none" xmlns="http://www.w3.org/2000/svg">
<path d="M19.081 17.4167C19.081 20.4082 19.1914 21.5833 16.0004 21.5833C14.2134 21.5833 12.6158 22.0727 11.556 20.878C10.7234 19.9394 10.2227 18.7328 10.2227 17.4167C10.2227 14.4251 12.8095 12 16.0004 12C17.133 12 18.1894 12.3055 19.081 12.8333C19.556 14.5 19.081 15.4869 19.081 17.4167Z" fill="white" fill-opacity="0.4"/>
<path d="M5 4C5 3.44772 5.44772 3 6 3H14.9127C15.1756 3 15.4279 3.10355 15.6151 3.28823L18.7024 6.33495C18.8928 6.52285 19 6.77921 19 7.04672V17V20.2222C19 20.6518 18.6518 21 18.2222 21H6C5.44772 21 5 20.5523 5 20V4Z" stroke="white" stroke-width="2"/>
<path d="M13.7773 3.66663V5.83329C13.7773 6.93786 14.6728 7.83329 15.7773 7.83329H18.2218" stroke="white" stroke-width="2"/>
<line x1="8.55469" y1="9.33337" x2="10.9991" y2="9.33337" stroke="white" stroke-width="2" stroke-linecap="round"/>
<line x1="8.55469" y1="14.3334" x2="14.5547" y2="14.3334" stroke="white" stroke-width="2" stroke-linecap="round"/>
</svg>
