<svg width="40" height="40" viewBox="0 0 40 40" fill="none" xmlns="http://www.w3.org/2000/svg">
<path d="M21.6828 5.4703L25.3452 11.1723C25.8869 12.0157 26.7254 12.6249 27.6949 12.8795L34.2496 14.6006C35.6584 14.9706 36.2119 16.6741 35.2896 17.8015L30.9984 23.0467C30.3637 23.8225 30.0435 24.8082 30.1009 25.8089L30.4895 32.5747C30.573 34.0288 29.1239 35.0817 27.7667 34.5529L21.4522 32.0926C20.5182 31.7287 19.4817 31.7287 18.5478 32.0926L12.2333 34.5529C10.8761 35.0817 9.42695 34.0288 9.51047 32.5747L9.89907 25.8089C9.95655 24.8082 9.63625 23.8225 9.00158 23.0467L4.71037 17.8015C3.78807 16.6741 4.3416 14.9706 5.75039 14.6006L12.3051 12.8795C13.2746 12.6249 14.1131 12.0157 14.6548 11.1723L18.3172 5.4703C19.1044 4.24477 20.8956 4.24477 21.6828 5.4703Z" fill="#EFFFFE" stroke="#009891" stroke-width="2"/>
<mask id="mask0_8:66" style="mask-type:alpha" maskUnits="userSpaceOnUse" x="3" y="3" width="34" height="33">
<path d="M21.6828 5.4703L25.3452 11.1723C25.8869 12.0157 26.7254 12.6249 27.6949 12.8795L34.2496 14.6006C35.6584 14.9706 36.2119 16.6741 35.2896 17.8015L30.9984 23.0467C30.3637 23.8225 30.0435 24.8082 30.1009 25.8089L30.4895 32.5747C30.573 34.0288 29.1239 35.0817 27.7667 34.5529L21.4522 32.0926C20.5182 31.7287 19.4817 31.7287 18.5478 32.0926L12.2333 34.5529C10.8761 35.0817 9.42695 34.0288 9.51047 32.5747L9.89907 25.8089C9.95655 24.8082 9.63625 23.8225 9.00158 23.0467L4.71037 17.8015C3.78807 16.6741 4.3416 14.9706 5.75039 14.6006L12.3051 12.8795C13.2746 12.6249 14.1131 12.0157 14.6548 11.1723L18.3172 5.4703C19.1044 4.24477 20.8956 4.24477 21.6828 5.4703Z" fill="#EFFFFE" stroke="#009891" stroke-width="2"/>
</mask>
<g mask="url(#mask0_8:66)">
<circle cx="24.5" cy="27.5" r="9.5" fill="#C9EBE9"/>
</g>
<path d="M21.6828 5.4703L25.3452 11.1723C25.8869 12.0157 26.7254 12.6249 27.6949 12.8795L34.2496 14.6006C35.6584 14.9706 36.2119 16.6741 35.2896 17.8015L30.9984 23.0467C30.3637 23.8225 30.0435 24.8082 30.1009 25.8089L30.4895 32.5747C30.573 34.0288 29.1239 35.0817 27.7667 34.5529L21.4522 32.0926C20.5182 31.7287 19.4817 31.7287 18.5478 32.0926L12.2333 34.5529C10.8761 35.0817 9.42695 34.0288 9.51047 32.5747L9.89907 25.8089C9.95655 24.8082 9.63625 23.8225 9.00158 23.0467L4.71037 17.8015C3.78807 16.6741 4.3416 14.9706 5.75039 14.6006L12.3051 12.8795C13.2746 12.6249 14.1131 12.0157 14.6548 11.1723L18.3172 5.4703C19.1044 4.24477 20.8956 4.24477 21.6828 5.4703Z" stroke="#009891" stroke-width="2"/>
</svg>
