<svg width="24" height="24" viewBox="0 0 24 24" fill="none" xmlns="http://www.w3.org/2000/svg">
<circle cx="12" cy="12" r="10" fill="#EFFFFE" stroke="#009891" stroke-width="2"/>
<path d="M13.5 21.5404C10.8686 20.5339 9 17.9852 9 15C9 11.134 12.134 8 16 8C18.9461 8 21.4671 9.81996 22.5 12.3969C22.5 17.5 15.5 22 13.5 21.5404Z" fill="#C9EBE9"/>
<circle cx="12" cy="12" r="10" stroke="#009891" stroke-width="2"/>
<path fill-rule="evenodd" clip-rule="evenodd" d="M6.43746 8.36319C6.77785 8.24406 7.15037 8.42342 7.26951 8.76381L8.93866 13.5328L10.6078 8.76381C10.727 8.42342 11.0995 8.24406 11.4399 8.36319C11.7803 8.48233 11.9596 8.85485 11.8405 9.19525L9.555 15.7252C9.46333 15.9871 9.21615 16.1625 8.93866 16.1625C8.66118 16.1625 8.414 15.9871 8.32233 15.7252L6.03684 9.19525C5.9177 8.85485 6.09706 8.48233 6.43746 8.36319Z" fill="#009891" stroke="#009891" stroke-width="0.5" stroke-linecap="round" stroke-linejoin="round"/>
<path d="M12.7108 15.0586C12.2688 14.3652 13.0455 13.5817 13.5858 14.2346C14.2023 15.0788 15.348 15.6883 16.3393 15.0275C16.8627 14.6567 16.8338 13.7473 16.3264 13.3795C15.3463 12.6444 13.971 12.7307 13.2126 11.6381C12.7526 10.9266 12.7771 9.83507 13.2126 9.11942C13.6621 8.40919 14.4478 8 15.2842 8C16.1515 8 17.0223 8.40799 17.5102 9.13497C17.9993 9.86384 17.1664 10.612 16.7639 10.0212C16.4082 9.53002 15.8758 9.2438 15.2327 9.2438C14.2862 9.2438 13.4889 10.4303 14.4478 11.1095C15.1407 11.5839 16.0191 11.6847 16.751 12.089C18.3522 12.9735 18.0642 15.4232 16.558 16.2091C15.1917 16.9002 13.5054 16.3042 12.7108 15.0586Z" fill="#009891" stroke="#009891" stroke-width="0.5" stroke-linecap="round" stroke-linejoin="round"/>
</svg>
