<svg width="24" height="24" viewBox="0 0 24 24" fill="none" xmlns="http://www.w3.org/2000/svg">
<path d="M5.83428 4.18264L5.83447 4.1823C6.07744 3.75854 6.36871 3.36512 6.70068 3.00974L6.70135 3.00901C6.9238 2.77041 7.16509 2.54911 7.42305 2.34676L7.42332 2.34655C8.49825 1.50276 9.85162 1 11.3247 1C14.8179 1 17.6494 3.8317 17.6494 7.32487C17.6494 10.8177 14.8179 13.6494 11.3247 13.6494C7.83151 13.6494 5 10.8177 5 7.32487C5 6.17895 5.30359 5.10741 5.83428 4.18264Z" fill="#EFFFFE" stroke="#009891" stroke-width="2"/>
<path d="M11.1899 13.6405C9.73135 12.8312 8.74414 11.2754 8.74414 9.48905C8.74414 6.86871 10.8683 4.74451 13.4887 4.74451C15.0537 4.74451 16.4418 5.50225 17.3059 6.67088C18.2332 10.6752 13.4887 13.6405 11.1899 13.6405Z" fill="#C9EBE9"/>
<path d="M5.83428 4.18264L5.83447 4.1823C6.07744 3.75854 6.36871 3.36512 6.70068 3.00974L6.70135 3.00901C6.9238 2.77041 7.16509 2.54911 7.42305 2.34676L7.42332 2.34655C8.49825 1.50276 9.85162 1 11.3247 1C14.8179 1 17.6494 3.8317 17.6494 7.32487C17.6494 10.8177 14.8179 13.6494 11.3247 13.6494C7.83151 13.6494 5 10.8177 5 7.32487C5 6.17895 5.30359 5.10741 5.83428 4.18264Z" stroke="#009891" stroke-width="2"/>
<path fill-rule="evenodd" clip-rule="evenodd" d="M12.413 5.03712C12.7767 5.31423 13.0214 5.74039 13.0214 6.28095C13.0214 6.56688 12.7896 6.79866 12.5037 6.79866C12.2178 6.79866 11.986 6.56688 11.986 6.28095C11.986 6.08193 11.9072 5.95341 11.7855 5.86072C11.6495 5.75707 11.4423 5.68929 11.2094 5.68929C10.9766 5.68929 10.7694 5.75707 10.6334 5.86072C10.5117 5.95341 10.4329 6.08193 10.4329 6.28095C10.4329 6.28216 10.4328 6.28345 10.4328 6.28483C10.4321 6.30606 10.4306 6.34901 10.5765 6.43237C10.7534 6.53348 11.0095 6.60987 11.3517 6.70764C11.362 6.7106 11.3725 6.71358 11.383 6.71659C11.6831 6.80221 12.0582 6.90925 12.3561 7.0795C12.6861 7.26806 13.0214 7.59491 13.0214 8.12991C13.0214 8.67679 12.7693 9.09467 12.3792 9.34543C12.0152 9.57946 11.5703 9.64542 11.1726 9.61701C10.7718 9.58838 10.3558 9.46006 10.0255 9.23196C9.69416 9.00319 9.39746 8.63146 9.39746 8.12991C9.39746 7.84399 9.62925 7.6122 9.91517 7.6122C10.2011 7.6122 10.4329 7.84399 10.4329 8.12991C10.4329 8.18306 10.4598 8.27356 10.6138 8.37992C10.7688 8.48694 11 8.56663 11.2463 8.58422C11.4957 8.60204 11.698 8.55244 11.8193 8.47446C11.9146 8.41321 11.986 8.32262 11.986 8.12991C11.986 8.12871 11.986 8.12742 11.9861 8.12604C11.9868 8.10481 11.9883 8.06186 11.8424 7.9785C11.6655 7.87739 11.4094 7.80099 11.0672 7.70322C11.0569 7.70027 11.0464 7.69728 11.0359 7.69428C10.7358 7.60865 10.3607 7.50161 10.0628 7.33136C9.73279 7.1428 9.39746 6.81596 9.39746 6.28095C9.39746 5.74039 9.64218 5.31423 10.0059 5.03712C10.3552 4.77098 10.7951 4.65387 11.2094 4.65387C11.6238 4.65387 12.0637 4.77098 12.413 5.03712Z" fill="#009891"/>
<path fill-rule="evenodd" clip-rule="evenodd" d="M11.3947 5.26019C11.1087 5.26019 10.877 5.02841 10.877 4.74248V4.01769C10.877 3.73177 11.1087 3.49998 11.3947 3.49998C11.6806 3.49998 11.9124 3.73177 11.9124 4.01769V4.74248C11.9124 5.02841 11.6806 5.26019 11.3947 5.26019Z" fill="#009891"/>
<path fill-rule="evenodd" clip-rule="evenodd" d="M11.3947 10.4965C11.1087 10.4965 10.877 10.2647 10.877 9.97881V9.23923C10.877 8.95331 11.1087 8.72152 11.3947 8.72152C11.6806 8.72152 11.9124 8.95331 11.9124 9.23923V9.97881C11.9124 10.2647 11.6806 10.4965 11.3947 10.4965Z" fill="#009891"/>
<path d="M2 22L7 18L12 22L21 15" stroke="#009891" stroke-width="2" stroke-linecap="round" stroke-linejoin="round"/>
<path d="M18.0004 14L22 13.9999L21.5 18" stroke="#009891" stroke-width="2" stroke-linecap="round" stroke-linejoin="round"/>
</svg>
