<svg width="24" height="24" viewBox="0 0 24 24" fill="none" xmlns="http://www.w3.org/2000/svg">
<circle cx="11.5" cy="12.5" r="9.5" fill="#EFFFFE"/>
<path d="M20.4855 11.1C20.4855 6.12941 16.4561 2.09998 11.4855 2.09998C7.79492 2.09998 4.62318 4.32135 3.23438 7.49998M20.4855 11.1L17.4855 9.29998M20.4855 11.1L22.2855 8.09998" stroke="#009891" stroke-width="2" stroke-linecap="round" stroke-linejoin="round"/>
<path d="M11.2368 21.459C10.7291 20.7099 10.4336 19.8124 10.4336 18.8477C10.4336 16.2256 12.617 14.1 15.3104 14.1C17.5828 14.1 19.4922 15.6131 20.0336 17.6608C18.4517 20.5288 14.7612 22.9172 11.2368 21.459Z" fill="#C9EBE9"/>
<path fill-rule="evenodd" clip-rule="evenodd" d="M12.1006 6.69995C12.6529 6.69995 13.1006 7.14767 13.1006 7.69995V7.89995C13.1006 7.94886 13.0971 7.99695 13.0903 8.04397C13.246 8.12687 13.3955 8.22564 13.5355 8.34122C14.0989 8.80625 14.4542 9.50162 14.4542 10.3499C14.4542 10.9022 14.0065 11.3499 13.4542 11.3499C12.902 11.3499 12.4542 10.9022 12.4542 10.3499C12.4542 10.0983 12.3653 9.96863 12.2624 9.88366C12.1359 9.77925 11.9276 9.69994 11.6773 9.69994C11.427 9.69994 11.2187 9.77925 11.0922 9.88366C10.9893 9.96863 10.9004 10.0983 10.9004 10.3499C10.9004 10.5708 10.9641 10.661 11.0843 10.7581C11.2677 10.9064 11.5545 11.0299 12.017 11.1969C12.0565 11.2112 12.0981 11.226 12.1416 11.2415L12.1417 11.2415L12.1421 11.2417C12.5236 11.3775 13.0422 11.5623 13.4559 11.8397C13.9912 12.1987 14.4542 12.7773 14.4542 13.6499C14.4542 14.4983 14.0989 15.1936 13.5355 15.6587C13.3955 15.7742 13.246 15.873 13.0903 15.9559C13.0971 16.003 13.1006 16.0511 13.1006 16.1V16.3C13.1006 16.8523 12.6529 17.3 12.1006 17.3C11.5483 17.3 11.1006 16.8523 11.1006 16.3V16.2464C10.6463 16.1612 10.1981 15.9715 9.81911 15.6587C9.2557 15.1936 8.90039 14.4983 8.90039 13.6499C8.90039 13.0977 9.34811 12.6499 9.90039 12.6499C10.4527 12.6499 10.9004 13.0977 10.9004 13.6499C10.9004 13.9016 10.9893 14.0313 11.0922 14.1162C11.2187 14.2206 11.427 14.2999 11.6773 14.2999C11.9276 14.2999 12.1359 14.2206 12.2624 14.1162C12.3653 14.0313 12.4542 13.9016 12.4542 13.6499C12.4542 13.6448 12.4545 13.6401 12.4547 13.6355V13.6355V13.6355C12.4566 13.601 12.4578 13.5785 12.342 13.5008C12.1469 13.3699 11.8689 13.2696 11.4111 13.1045L11.4111 13.1045L11.3377 13.078C10.9117 12.9242 10.31 12.7039 9.8271 12.3136C9.2809 11.8722 8.90039 11.229 8.90039 10.3499C8.90039 9.50162 9.2557 8.80625 9.81911 8.34122C10.1981 8.02837 10.6463 7.83871 11.1006 7.75347V7.69995C11.1006 7.14767 11.5483 6.69995 12.1006 6.69995Z" fill="#009891"/>
<path d="M2.99725 13.3351C3.27276 18.2981 7.51935 22.098 12.4823 21.8225C16.1672 21.6179 19.2109 19.2241 20.4214 15.9734M2.99725 13.3351L6.09241 14.9661M2.99725 13.3351L1.3663 16.4303" stroke="#009891" stroke-width="2" stroke-linecap="round" stroke-linejoin="round"/>
</svg>
