<svg width="24" height="24" viewBox="0 0 24 24" fill="none" xmlns="http://www.w3.org/2000/svg">
<path d="M12.031 2.81744L20.1986 9.5H18H17V10.5V14H7.5V10.5V9.5H6.5H4.60596L12.031 2.81744Z" fill="#EFFFFE" stroke="#009891" stroke-width="2"/>
<path d="M15.208 14.1601C15.208 14.1601 12.3368 15.516 10.2636 14.656C8.73702 12.6546 9.12194 9.7947 11.1233 8.26816C13.1246 6.74162 15.9846 7.12654 17.5111 9.12789C18.7871 11.0814 15.208 14.1601 15.208 14.1601Z" fill="#C9EBE9"/>
<path d="M12.031 2.81744L20.1986 9.5H18H17V10.5V14H7.5V10.5V9.5H6.5H4.60596L12.031 2.81744Z" stroke="#009891" stroke-width="2"/>
<line x1="7.5" y1="17" x2="7.5" y2="20" stroke="#009891" stroke-width="2"/>
<line x1="7.5" y1="21.5" x2="7.5" y2="23" stroke="#009891" stroke-width="2"/>
<line x1="16.5" y1="17" x2="16.5" y2="18.5" stroke="#009891" stroke-width="2"/>
<line x1="12" y1="17" x2="12" y2="23" stroke="#009891" stroke-width="2"/>
<line x1="16.5" y1="20" x2="16.5" y2="23" stroke="#009891" stroke-width="2"/>
</svg>
