<svg width="24" height="24" viewBox="0 0 24 24" fill="none" xmlns="http://www.w3.org/2000/svg">
<circle cx="13.5" cy="13.5" r="4.5" fill="#EFFFFE" stroke="#009891" stroke-width="2"/>
<path d="M16.2191 17.6671C16.2191 17.6671 14.0998 18.6679 12.5695 18.0331C11.4427 16.5559 11.7268 14.4449 13.2041 13.3181C14.6814 12.1913 16.7923 12.4754 17.9191 13.9527C18.861 15.3947 16.2191 17.6671 16.2191 17.6671Z" fill="#C9EBE9"/>
<circle cx="13.5" cy="13.5" r="4.5" stroke="#009891" stroke-width="2"/>
<circle cx="19" cy="4" r="2" fill="#EFFFFE" stroke="#009891" stroke-width="2"/>
<circle cx="4" cy="6" r="2" fill="#EFFFFE" stroke="#009891" stroke-width="2"/>
<circle cx="5" cy="17" r="2" fill="#EFFFFE" stroke="#009891" stroke-width="2"/>
<circle cx="20" cy="20" r="2" fill="#EFFFFE" stroke="#009891" stroke-width="2"/>
<line x1="16.1056" y1="9.55279" x2="18.1056" y2="5.55279" stroke="#009891" stroke-width="2"/>
<line x1="9.29289" y1="11.7071" x2="5.29289" y2="7.70711" stroke="#009891" stroke-width="2"/>
<line x1="6.68377" y1="16.0513" x2="9.68377" y2="15.0513" stroke="#009891" stroke-width="2"/>
<line x1="18.2929" y1="18.7071" x2="16.2929" y2="16.7071" stroke="#009891" stroke-width="2"/>
</svg>
