<svg width="24" height="24" viewBox="0 0 24 24" fill="none" xmlns="http://www.w3.org/2000/svg">
<path d="M2 9.50006C2 8.94778 2.44772 8.50006 3 8.50006H17C17.5523 8.50006 18 8.94778 18 9.50006V18C18 18.5523 17.5523 19 17 19H3C2.44772 19 2 18.5523 2 18V9.50006Z" fill="#EFFFFE" stroke="#009891" stroke-width="2"/>
<path d="M3.96959 7.0947L4.68191 8.5H17V6.54545C17 5.44089 16.1046 4.54545 15 4.54545H12.7176C12.0495 4.54545 11.4462 4.14566 11.1859 3.53036C10.8283 2.68496 9.85326 2.28921 9.00755 2.64616L4.9758 4.34788C3.90761 4.79874 3.44539 6.06052 3.96959 7.0947Z" fill="#EFFFFE" stroke="#009891" stroke-width="2" stroke-linecap="round"/>
<path d="M11.5 3.90918L11 8" stroke="#009891" stroke-width="2" stroke-linecap="round"/>
<path d="M12.1253 21.4355C10.4057 20.0729 10.1163 17.5743 11.4789 15.8547L14.4435 12.1135C15.8061 10.394 18.3047 10.1046 20.0243 11.4672C21.7439 12.8298 22.0332 15.3284 20.6706 17.048L17.706 20.7892C16.3434 22.5087 13.8448 22.7981 12.1253 21.4355Z" fill="#EFFFFE"/>
<path d="M13.8867 12.816L14.4434 12.1135C15.806 10.394 18.3046 10.1046 20.0242 11.4672V11.4672V11.4672C21.7437 12.8298 22.0331 15.3284 20.6705 17.048L20.1138 17.7505" stroke="#009891" stroke-width="2"/>
<path d="M12.0234 15.1674L11.4667 15.8699C10.1041 17.5894 10.3935 20.088 12.1131 21.4506V21.4506V21.4506C13.8326 22.8133 16.3312 22.5239 17.6938 20.8043L18.2505 20.1018" stroke="#009891" stroke-width="2"/>
<path d="M14.5383 18.4341L17.6426 14.5166" stroke="#009891" stroke-width="2" stroke-linecap="round"/>
</svg>
