<svg width="24" height="24" viewBox="0 0 24 24" fill="none" xmlns="http://www.w3.org/2000/svg">
<path d="M13.0003 18C13.0003 19.2935 12.5091 20.4722 11.7032 21.3599C10.7885 22.3674 9.96826 21 8.50029 21C6.50049 20 6.00049 19 5.00043 17.5C5.00043 16.5459 3.26751 16.1543 3.73119 15.3958C4.60956 13.9589 6.19294 13 8.00029 13C10.7617 13 13.0003 15.2386 13.0003 18Z" fill="white" fill-opacity="0.4"/>
<path d="M8.58678 8.00242C6.20653 8.80498 4.37725 10.9242 4.0774 13.5807C3.66463 17.2376 6.30395 20.5485 9.96084 20.9613C13.4234 21.3521 16.5754 19.0065 17.251 15.6517" stroke="white" stroke-width="2" stroke-linecap="round"/>
<circle cx="13.1869" cy="4.3353" r="2.3353" stroke="white" stroke-width="2"/>
<path d="M13.4902 7.06421V12.1432C13.4902 13.2478 14.3857 14.1432 15.4902 14.1432H16.886C17.9906 14.1432 18.886 15.0386 18.886 16.1432V18.4054C18.886 19.51 19.7814 20.4054 20.886 20.4054H21.3737" stroke="white" stroke-width="2" stroke-linecap="round"/>
<path d="M13.1859 7.06421L10.9091 9.84696C10.6168 10.2043 10.457 10.6517 10.457 11.1134V14.9476" stroke="white" stroke-width="2" stroke-linecap="round"/>
</svg>
