<svg xmlns="http://www.w3.org/2000/svg" xmlns:xlink="http://www.w3.org/1999/xlink" width="64" height="64" viewBox="0 0 64 64">
    <defs>
        <path id="mo9ojpjtza" d="M2.543 10.33c.868-2.403 5.725-3.67 14.573-3.803 8.847-.133 13.767 1.135 14.759 3.803l-.52 16.295c-.245 7.636-6.506 13.7-14.146 13.7-7.64 0-13.9-6.064-14.145-13.7l-.52-16.295z"/>
        <path id="umrnp8sipc" d="M2.762 20.332c.68-1.726 1.097-3.26 1.249-4.604.123-1.094.131-2.867.024-5.316-.014-.336.183-.645.494-.772 2.225-.911 6.48-1.366 12.766-1.366 5.313-.005 9.385.324 12.217.984.375.088.634.431.614.816-.134 2.643-.182 4.467-.145 5.472.06 1.68.451 3.394 1.17 5.144C34.256 7.404 29.858.508 17.959 0 4.877-.049-.188 6.73 2.762 20.332z"/>
        <linearGradient id="i8hlscm5od" x1="50%" x2="50%" y1="20.676%" y2="83.818%">
            <stop offset="0%" stop-color="#647780" stop-opacity="0"/>
            <stop offset="100%" stop-color="#9E9997"/>
        </linearGradient>
    </defs>
    <g fill="none" fill-rule="evenodd">
        <g>
            <g>
                <path fill="#FFB7A2" d="M22.635 41.285H42.745000000000005V60.217999999999996H22.635z" transform="translate(-2206.000000, -1284.000000) translate(2206.000000, 1284.000000)"/>
                <g transform="translate(-2206.000000, -1284.000000) translate(2206.000000, 1284.000000) translate(14.776889, 9.600000)">
                    <mask id="qion5mrfqb" fill="#fff">
                        <use xlink:href="#mo9ojpjtza"/>
                    </mask>
                    <use fill="#FFD8CD" xlink:href="#mo9ojpjtza"/>
                    <path fill="#FFB7A2" d="M31.875 5.356v34.97H17.35v-9.542l-3.762-1.74c-.012-.006-.025-.012-.038-.02l-.036-.02c-.378-.226-.5-.715-.274-1.092.544-.908 1.158-1.892 1.842-2.953.881-1.365 1.646-2.603 2.294-3.714l-.027.043.001-15.932h14.525z" mask="url(#qion5mrfqb)"/>
                    <path fill="#FFD8CD" d="M0 19.288c1.878 0 3.4 1.523 3.4 3.401v2.75c0 1.879-1.522 3.401-3.4 3.401v-9.552z" transform="translate(1.700384, 24.064434) scale(-1, 1) translate(-1.700384, -24.064434)"/>
                    <path fill="#FFB7A2" d="M31.032 19.288c1.878 0 3.4 1.523 3.4 3.401v2.75c0 1.879-1.522 3.401-3.4 3.401v-9.552z"/>
                    <g>
                        <use fill="#324148" xlink:href="#umrnp8sipc"/>
                        <use fill="url(#i8hlscm5od)" xlink:href="#umrnp8sipc"/>
                    </g>
                </g>
            </g>
        </g>
    </g>
</svg>
