<svg xmlns="http://www.w3.org/2000/svg" xmlns:xlink="http://www.w3.org/1999/xlink" width="64" height="64" viewBox="0 0 64 64">
    <defs>
        <path id="hwcc60vzaa" d="M0 3.823C.867 1.413 5.724.143 14.57.009c8.846-.133 13.765 1.139 14.756 3.814l-.522 16.381c-.243 7.635-6.502 13.698-14.14 13.698-7.64 0-13.899-6.063-14.142-13.698L0 3.823z"/>
        <path id="o55w74jazc" d="M2.546 29.666l.774-9.663c3.448-1.648 8.008-2.471 13.68-2.471 5.672 0 10.037.823 13.097 2.47l.725 10.02c1.928-8.25 2.894-12.413 2.898-12.49 0-1.751-.648-3.517-2.348-6.76-1.134-2.163-3.74-5.4-7.82-9.714l-.468 1.145L21.364 0 15.8 2.762V1.425c-6.967 3.81-11.41 6.926-13.33 9.347-1.92 2.42-2.721 4.674-2.403 6.76l2.478 12.134z"/>
    </defs>
    <g fill="none" fill-rule="evenodd">
        <g>
            <g>
                <path fill="#FFB7A2" d="M21.872 42.458H41.979V60.212999999999994H21.872z" transform="translate(-2966.000000, -1284.000000) translate(2966.000000, 1284.000000)"/>
                <g>
                    <g>
                        <path fill="#FFD8CD" d="M0 11.65c1.878 0 3.4 1.523 3.4 3.4v2.779c0 1.877-1.522 3.4-3.4 3.4V11.65z" transform="translate(-2966.000000, -1284.000000) translate(2966.000000, 1284.000000) translate(14.666667, 1.546667) translate(0.000000, 14.474554) translate(1.700082, 16.439497) scale(-1, 1) translate(-1.700082, -16.439497)"/>
                        <path fill="#FFB7A2" d="M31.027 11.65c1.877 0 3.4 1.523 3.4 3.4v2.779c0 1.877-1.523 3.4-3.4 3.4V11.65z" transform="translate(-2966.000000, -1284.000000) translate(2966.000000, 1284.000000) translate(14.666667, 1.546667) translate(0.000000, 14.474554)"/>
                        <g transform="translate(-2966.000000, -1284.000000) translate(2966.000000, 1284.000000) translate(14.666667, 1.546667) translate(0.000000, 14.474554) translate(2.495164, -0.000000)">
                            <mask id="98aniq3bub" fill="#fff">
                                <use xlink:href="#hwcc60vzaa"/>
                            </mask>
                            <use fill="#FFD8CD" xlink:href="#hwcc60vzaa"/>
                            <path fill="#FFB7A2" d="M29.326-1.165v35.067H14.805l-.001-9.568-3.493-1.621-.052-.026-.05-.028c-.503-.303-.665-.956-.362-1.46.506-.838 1.069-1.74 1.69-2.706.881-1.37 1.645-2.61 2.293-3.725l-.026.043V-1.165h14.522z" mask="url(#98aniq3bub)"/>
                        </g>
                    </g>
                    <g transform="translate(-2966.000000, -1284.000000) translate(2966.000000, 1284.000000) translate(14.666667, 1.546667) translate(0.504720, 0.000000)">
                        <use fill="#324148" xlink:href="#o55w74jazc"/>
                    </g>
                </g>
            </g>
        </g>
    </g>
</svg>
