<svg xmlns="http://www.w3.org/2000/svg" xmlns:xlink="http://www.w3.org/1999/xlink" width="64" height="64" viewBox="0 0 64 64">
    <defs>
        <path id="3mx6nc9b0a" d="M0 3.828C.869 1.415 5.734.143 14.596.009c8.862-.133 13.79 1.14 14.783 3.819l-.523 16.393c-.244 7.649-6.514 13.723-14.167 13.723C7.037 33.944.766 27.87.523 20.22L0 3.828z"/>
    </defs>
    <g fill="none" fill-rule="evenodd">
        <g>
            <g>
                <g>
                    <path fill="#324148" d="M5.061 27.848c-.529-9.357-.097-12.272 1.984-15.135 2.218-3.052 5.012-6.176 9.142-7.402s5.99.44 8.296.44c.823 0 2.602-.018 4.32.416 3.461.874 5.644 3.145 7.543 6.546 1.9 3.4 1.287 10.76.266 15.135 0 0-30.717.109-31.551 0z" transform="translate(-3726.000000, -1284.000000) translate(3726.000000, 1284.000000) translate(10.933333, 0.480000)"/>
                    <g>
                        <path fill="#FFB7A2" d="M10.981 41.998H31.110999999999997V59.775H10.981z" transform="translate(-3726.000000, -1284.000000) translate(3726.000000, 1284.000000) translate(10.933333, 0.480000)"/>
                        <g>
                            <g>
                                <path fill="#FFD8CD" d="M0 11.665c1.881 0 3.406 1.525 3.406 3.406v2.778c0 1.88-1.525 3.406-3.406 3.406v-9.59z" transform="translate(-3726.000000, -1284.000000) translate(3726.000000, 1284.000000) translate(10.933333, 0.480000) translate(3.827422, 15.491156) translate(1.703119, 16.459823) scale(-1, 1) translate(-1.703119, -16.459823)"/>
                                <path fill="#FFB7A2" d="M31.082 11.665c1.881 0 3.406 1.525 3.406 3.406v2.778c0 1.88-1.525 3.406-3.406 3.406v-9.59z" transform="translate(-3726.000000, -1284.000000) translate(3726.000000, 1284.000000) translate(10.933333, 0.480000) translate(3.827422, 15.491156)"/>
                                <g transform="translate(-3726.000000, -1284.000000) translate(3726.000000, 1284.000000) translate(10.933333, 0.480000) translate(3.827422, 15.491156) translate(2.499620, -0.000000)">
                                    <mask id="bgsfpj63ab" fill="#fff">
                                        <use xlink:href="#3mx6nc9b0a"/>
                                    </mask>
                                    <use fill="#FFD8CD" xlink:href="#3mx6nc9b0a"/>
                                    <path fill="#FFB7A2" d="M29.379-1.166v35.11H14.83v-9.58l-3.502-1.624-.051-.025-.05-.028c-.503-.304-.665-.957-.362-1.46.507-.84 1.071-1.744 1.694-2.711.882-1.371 1.648-2.614 2.297-3.73l-.027.044.001-15.996H29.38z" mask="url(#bgsfpj63ab)"/>
                                </g>
                            </g>
                        </g>
                    </g>
                </g>
                <path fill="#324148" d="M35.716 16.952c6.14-.98 7.713 2.365 8.749 5.418.658 1.939.216 6.137.606 6.137 1.098-1.745.632-3.723.965-3.877.028 3.006.222 3.006.345 3.058 1.447-.661 2.119-3.954 2.016-9.879-4.051-4.12-9.478-6.18-16.28-6.18-6.802 0-12.02 1.775-15.653 5.323.537 5.433.88 9.012 1.029 10.736 1.774-.981 1.209-2.819 1.668-2.819 0 2.747-.8 2.82-.994 3.638 3.15.574 4.543-2.545 5.64-5.728.654-1.899.837-3.854 2.237-4.97 2.307-1.838 6.4-2.369 9.672-.857z" transform="translate(-3726.000000, -1284.000000) translate(3726.000000, 1284.000000)"/>
            </g>
        </g>
    </g>
</svg>
