<svg xmlns="http://www.w3.org/2000/svg" xmlns:xlink="http://www.w3.org/1999/xlink" width="64" height="64" viewBox="0 0 64 64">
    <defs>
        <path id="6f8um6zz5a" d="M0 3.828C.869 1.415 5.734.143 14.596.009c8.862-.133 13.79 1.14 14.783 3.819l-.523 16.393c-.244 7.649-6.514 13.723-14.167 13.723C7.037 33.944.766 27.87.523 20.22L0 3.828z"/>
    </defs>
    <g fill="none" fill-rule="evenodd">
        <g>
            <g>
                <path fill="#324148" d="M11.491 53.701c0-13.12-4.331-48.397 20.489-48.397S52.77 40.781 52.77 53.701c0 12.92-41.28 13.12-41.28 0z" transform="translate(-306.000000, -1284.000000) translate(306.000000, 1284.000000)"/>
                <g>
                    <path fill="#FFB7A2" d="M10.981 41.998H31.110999999999997V59.775H10.981z" transform="translate(-306.000000, -1284.000000) translate(306.000000, 1284.000000) translate(10.933333, 0.480000)"/>
                    <g>
                        <g>
                            <path fill="#FFD8CD" d="M0 11.665c1.881 0 3.406 1.525 3.406 3.406v2.778c0 1.88-1.525 3.406-3.406 3.406v-9.59z" transform="translate(-306.000000, -1284.000000) translate(306.000000, 1284.000000) translate(10.933333, 0.480000) translate(3.827422, 15.491156) translate(1.703119, 16.459823) scale(-1, 1) translate(-1.703119, -16.459823)"/>
                            <path fill="#FFB7A2" d="M31.082 11.665c1.881 0 3.406 1.525 3.406 3.406v2.778c0 1.88-1.525 3.406-3.406 3.406v-9.59z" transform="translate(-306.000000, -1284.000000) translate(306.000000, 1284.000000) translate(10.933333, 0.480000) translate(3.827422, 15.491156)"/>
                            <g transform="translate(-306.000000, -1284.000000) translate(306.000000, 1284.000000) translate(10.933333, 0.480000) translate(3.827422, 15.491156) translate(2.499620, -0.000000)">
                                <mask id="f2sz52wvjb" fill="#fff">
                                    <use xlink:href="#6f8um6zz5a"/>
                                </mask>
                                <use fill="#FFD8CD" xlink:href="#6f8um6zz5a"/>
                                <path fill="#FFB7A2" d="M29.379-1.166v35.11H14.83v-9.58l-3.502-1.624-.051-.025-.05-.028c-.503-.304-.665-.957-.362-1.46.507-.84 1.071-1.744 1.694-2.711.882-1.371 1.648-2.614 2.297-3.73l-.027.044.001-15.996H29.38z" mask="url(#f2sz52wvjb)"/>
                            </g>
                        </g>
                    </g>
                </g>
                <path fill="#324148" d="M17.6 27.197c-.07-2.196.188-5.113.776-8.752l.281 5.86h26.837l.244-5.733c.49 1.71.734 4.347.734 7.912 0 3.565.393-.011 1.18-10.727H17.099c.404 9.823.572 13.636.502 11.44z" transform="translate(-306.000000, -1284.000000) translate(306.000000, 1284.000000)"/>
            </g>
        </g>
    </g>
</svg>
