<svg xmlns="http://www.w3.org/2000/svg" xmlns:xlink="http://www.w3.org/1999/xlink" width="64" height="64" viewBox="0 0 64 64">
    <defs>
        <path id="7x4ck84mfa" d="M0 3.845C.868 1.422 5.728.143 14.581.01c8.853-.134 13.776 1.144 14.768 3.835l-.524 16.546c-.243 7.64-6.506 13.708-14.15 13.708C7.03 34.1.767 28.031.525 20.391L0 3.845z"/>
        <path id="w6b96a067c" d="M1.37 21.673l.902-5.684 1.883-1.995c.235 1.29.37 1.914.404 1.87 1.234 0 2.776-.487 4.626-1.46l-.211 1.582c2.494-.006 4.62-.67 6.374-1.992l.318 1.995c2.096.177 4.631-.618 7.605-2.386.012-.012.094.617.245 1.885 1.41-.041 2.771-.507 4.082-1.398.047-.038.532.6 1.455 1.916l.942 5.763c1.083-5.403 1.626-8.144 1.63-8.221 0-4.985-.358-11.822-8.164-11.822C22.814 1.884 23.079 0 16.038 0 6.113 0 .768 4.354 0 13.063l1.37 8.61z"/>
    </defs>
    <g fill="none" fill-rule="evenodd">
        <g>
            <g>
                <path fill="#FFB7A2" d="M21.878 42.335H42V60.193H21.878z" transform="translate(-2586.000000, -1284.000000) translate(2586.000000, 1284.000000)"/>
                <g>
                    <g>
                        <path fill="#FFD8CD" d="M0 11.718c1.88 0 3.403 1.524 3.403 3.403v2.828c0 1.88-1.524 3.403-3.403 3.403v-9.634z" transform="translate(-2586.000000, -1284.000000) translate(2586.000000, 1284.000000) translate(14.666667, 6.400000) translate(0.000000, 9.341726) translate(1.701399, 16.535113) scale(-1, 1) translate(-1.701399, -16.535113)"/>
                        <path fill="#FFB7A2" d="M31.05 11.718c1.88 0 3.403 1.524 3.403 3.403v2.828c0 1.88-1.523 3.403-3.402 3.403v-9.634z" transform="translate(-2586.000000, -1284.000000) translate(2586.000000, 1284.000000) translate(14.666667, 6.400000) translate(0.000000, 9.341726)"/>
                        <g transform="translate(-2586.000000, -1284.000000) translate(2586.000000, 1284.000000) translate(14.666667, 6.400000) translate(0.000000, 9.341726) translate(2.497097, -0.000000)">
                            <mask id="xy2co2xerb" fill="#fff">
                                <use xlink:href="#7x4ck84mfa"/>
                            </mask>
                            <use fill="#FFD8CD" xlink:href="#7x4ck84mfa"/>
                            <path fill="#FFB7A2" d="M29.35-1.171v35.27H14.815v-9.623l-3.503-1.634-.05-.024-.047-.027c-.504-.302-.667-.955-.365-1.46.507-.845 1.072-1.756 1.696-2.73.881-1.378 1.646-2.626 2.295-3.747l-.026.043V-1.171H29.35z" mask="url(#xy2co2xerb)"/>
                        </g>
                    </g>
                    <g transform="translate(-2586.000000, -1284.000000) translate(2586.000000, 1284.000000) translate(14.666667, 6.400000) translate(1.555651, 0.000000)">
                        <use fill="#324148" xlink:href="#w6b96a067c"/>
                    </g>
                </g>
            </g>
        </g>
    </g>
</svg>
