<svg xmlns="http://www.w3.org/2000/svg" xmlns:xlink="http://www.w3.org/1999/xlink" width="64" height="64" viewBox="0 0 64 64">
    <defs>
        <path id="0r21ha6yea" d="M0 3.845C.868 1.422 5.728.143 14.581.01c8.853-.134 13.776 1.144 14.768 3.835l-.524 16.546c-.243 7.64-6.506 13.708-14.15 13.708C7.03 34.1.767 28.031.525 20.391L0 3.845z"/>
        <path id="9m9g8hnu4c" d="M1.787 26.812c.408-.313 1.456-2.27 1.439-3.244 5.046 0 10.001-4.599 10.143-4.322.142.277-2.676 2.813-3.976 3.43.286.892 11.985-.986 14.913-6.193.018-.018-1.105 2.67-3.165 4.587.669 1.204 5.819-1.377 7.017-3.917.071-.058 1.303 9.228 2.328 9.66.105-.232.328-1.138.669-2.72.15.05.382.137.692.258.62-3.445 1.146-7.796 1.15-7.868.32-4.067-1.842-10.483-6.783-12.346-.399-.15.41-.56.01-.75-1.025-.481-2.293-.757-3.862-.757-.521.127-2.683-2.156-6.317-2.627-.5-.065.354.927.326 1.314-.02.292-.843 0-1.432 0-1.587 0-3.058.112-4.41.334-.858.142.367 1.024-.434 1.392-.44.202-3.465.717-3.994 1.094-.22.156.684.421.44.542C1.358 7.232 0 14.45 0 15.999c.217 2.952.702 6.09.911 8.496.247-.133.463-.233.648-.298.09 1.116.166 1.988.228 2.615z"/>
    </defs>
    <g fill="none" fill-rule="evenodd">
        <g>
            <g>
                <path fill="#FFB7A2" d="M21.878 42.335H42V60.193H21.878z" transform="translate(-3346.000000, -1284.000000) translate(3346.000000, 1284.000000)"/>
                <g>
                    <g>
                        <path fill="#FFD8CD" d="M0 11.718c1.88 0 3.403 1.524 3.403 3.403v2.828c0 1.88-1.524 3.403-3.403 3.403v-9.634z" transform="translate(-3346.000000, -1284.000000) translate(3346.000000, 1284.000000) translate(14.666667, 3.464835) translate(0.000000, 12.276891) translate(1.701399, 16.535113) scale(-1, 1) translate(-1.701399, -16.535113)"/>
                        <path fill="#FFB7A2" d="M31.05 11.718c1.88 0 3.403 1.524 3.403 3.403v2.828c0 1.88-1.523 3.403-3.402 3.403v-9.634z" transform="translate(-3346.000000, -1284.000000) translate(3346.000000, 1284.000000) translate(14.666667, 3.464835) translate(0.000000, 12.276891)"/>
                        <g transform="translate(-3346.000000, -1284.000000) translate(3346.000000, 1284.000000) translate(14.666667, 3.464835) translate(0.000000, 12.276891) translate(2.497097, -0.000000)">
                            <mask id="8264unwf7b" fill="#fff">
                                <use xlink:href="#0r21ha6yea"/>
                            </mask>
                            <use fill="#FFD8CD" xlink:href="#0r21ha6yea"/>
                            <path fill="#FFB7A2" d="M29.35-1.171v35.27H14.815v-9.623l-3.503-1.634-.05-.024-.047-.027c-.504-.302-.667-.955-.365-1.46.507-.845 1.072-1.756 1.696-2.73.881-1.378 1.646-2.626 2.295-3.747l-.026.043V-1.171H29.35z" mask="url(#8264unwf7b)"/>
                        </g>
                    </g>
                    <g transform="translate(-3346.000000, -1284.000000) translate(3346.000000, 1284.000000) translate(14.666667, 3.464835) translate(0.710087, 0.000000)">
                        <use fill="#324148" xlink:href="#9m9g8hnu4c"/>
                    </g>
                </g>
            </g>
        </g>
    </g>
</svg>
