<svg xmlns="http://www.w3.org/2000/svg" xmlns:xlink="http://www.w3.org/1999/xlink" width="64" height="64" viewBox="0 0 64 64">
    <defs>
        <path id="uq2pu7h8ka" d="M0 5.19C.869 1.868 5.734.14 14.596.007s13.79 1.595 14.783 5.183l-.523 16.394c-.244 7.648-6.514 13.722-14.167 13.722-7.652 0-13.923-6.074-14.166-13.722L0 5.19z"/>
    </defs>
    <g fill="none" fill-rule="evenodd">
        <g>
            <g>
                <g fill="#324148">
                    <path d="M1.085 55.05c-1.085-3.952.717-8.524.621-15.221C1.61 33.132 0 30.376 0 26.886 0 21.013.077 14.59 3.253 9.671 6.643 4.423 8.886 1.874 15.5.423c3.436-.754 6.678-.47 8.87.615 2.161 0 5.966 1.813 8.082 3.477 5.936 4.657 6.216 16.603 6.216 22.008 0 5.404-1.646 8.732-1.646 13.306 0 4.573 1.646 6.78 1.646 15.22-3.403 0-.678.144-17.88.025-9.839-.068-14.927-.024-19.702-.024z" transform="translate(-1826.000000, -1284.000000) translate(1826.000000, 1284.000000) translate(12.787918, 5.196513)"/>
                </g>
                <path fill="#324148" d="M17.26 26.543h29.96l1.177-9.284c-7.565-3.752-12.953-5.617-16.165-5.594-3.212.022-8.468 2.268-15.768 6.738l.796 8.14z" transform="translate(-1826.000000, -1284.000000) translate(1826.000000, 1284.000000)"/>
                <g>
                    <path fill="#FFB7A2" d="M10.981 41.998H31.110999999999997V59.775H10.981z" transform="translate(-1826.000000, -1284.000000) translate(1826.000000, 1284.000000) translate(10.933333, 0.480000)"/>
                    <g>
                        <g>
                            <path fill="#FFD8CD" d="M0 13.027c1.881 0 3.406 1.525 3.406 3.406v2.778c0 1.881-1.525 3.406-3.406 3.406v-9.59z" transform="translate(-1826.000000, -1284.000000) translate(1826.000000, 1284.000000) translate(10.933333, 0.480000) translate(3.827422, 14.128888) translate(1.703119, 17.822091) scale(-1, 1) translate(-1.703119, -17.822091)"/>
                            <path fill="#FFB7A2" d="M31.082 13.027c1.881 0 3.406 1.525 3.406 3.406v2.778c0 1.881-1.525 3.406-3.406 3.406v-9.59z" transform="translate(-1826.000000, -1284.000000) translate(1826.000000, 1284.000000) translate(10.933333, 0.480000) translate(3.827422, 14.128888)"/>
                            <g transform="translate(-1826.000000, -1284.000000) translate(1826.000000, 1284.000000) translate(10.933333, 0.480000) translate(3.827422, 14.128888) translate(2.499620, 0.000000)">
                                <mask id="7mh8di4lcb" fill="#fff">
                                    <use xlink:href="#uq2pu7h8ka"/>
                                </mask>
                                <use fill="#FFD8CD" xlink:href="#uq2pu7h8ka"/>
                                <path fill="#FFB7A2" d="M29.379.196v35.11H14.83v-9.58l-3.502-1.623-.051-.026-.05-.028c-.503-.303-.665-.957-.362-1.46.507-.84 1.071-1.744 1.694-2.71.882-1.372 1.648-2.615 2.297-3.73l-.027.043.001-15.996H29.38z" mask="url(#7mh8di4lcb)"/>
                            </g>
                        </g>
                        <path fill="#324148" d="M27.032 16.458c3.817 4.676 5.986 7.646 6.507 8.908.073.178 2.167 4.125 1.707 8.256.225.008.421.008.46 0 .405-3.196.405-5.948 0-8.256l1.758-8.908c-7.392-2.772-12.76-4.158-16.1-4.158-3.342 0-8.354 1.386-15.037 4.158-.54 5.28-.696 8.322-.47 9.125.09.319-.76 4.305 0 8.04 0 0 .414-.007.47 0 .304-7.56 1.371-7.07 1.371-7.07s9.76.517 12.22-1.917c1.64-1.622 2.762-3.545 3.367-5.77-.497 2.41-1.253 4.648-2.269 6.717.72.647 2.726-2.395 6.016-9.125z" transform="translate(-1826.000000, -1284.000000) translate(1826.000000, 1284.000000) translate(10.933333, 0.480000)"/>
                    </g>
                </g>
            </g>
        </g>
    </g>
</svg>
