<svg xmlns="http://www.w3.org/2000/svg" xmlns:xlink="http://www.w3.org/1999/xlink" width="64" height="64" viewBox="0 0 64 64">
    <defs>
        <path id="q5j76auvxa" d="M0 3.828C.869 1.415 5.734.143 14.596.009c8.862-.133 13.79 1.14 14.783 3.819l-.523 16.393c-.244 7.649-6.514 13.723-14.167 13.723C7.037 33.944.766 27.87.523 20.22L0 3.828z"/>
    </defs>
    <g fill="none" fill-rule="evenodd">
        <g>
            <g>
                <path fill="#324148" d="M37.094 6.637c2.062 0 5.692 1.812 7.71 3.474 5.664 4.654 7.624 16.29 6.232 30.995-.795 4.705-1.164 6.25-1.502 7.563l-.055.217-.084.325-.056.22c-.085.334-.173.688-.27 1.11l-.354.001c-.458.001-.73.006-.958.012l-.078.002-.188.006-.076.002c-.396.012-.883.025-2.3.03h-1.897c-1.973-.005-4.947-.02-9.542-.053-8.371-.06-14.988.723-19.552.893l-1.15-6.744.64 6.761c-.368.01-.72.016-1.06.016-.494-2.794-1.288-9.733-.463-18.408.826-8.675 1.573-12.72 4.604-17.634 3.234-5.244 5.627-7.953 11.937-9.402 3.278-.753 6.37-.47 8.462.614z" transform="translate(-1446.000000, -1284.000000) translate(1446.000000, 1284.000000)"/>
                <g>
                    <path fill="#FFB7A2" d="M10.981 41.998H31.110999999999997V59.775H10.981z" transform="translate(-1446.000000, -1284.000000) translate(1446.000000, 1284.000000) translate(10.933333, 0.480000)"/>
                    <g>
                        <g>
                            <path fill="#FFD8CD" d="M0 11.665c1.881 0 3.406 1.525 3.406 3.406v2.778c0 1.88-1.525 3.406-3.406 3.406v-9.59z" transform="translate(-1446.000000, -1284.000000) translate(1446.000000, 1284.000000) translate(10.933333, 0.480000) translate(3.827422, 15.491156) translate(1.703119, 16.459823) scale(-1, 1) translate(-1.703119, -16.459823)"/>
                            <path fill="#FFB7A2" d="M31.082 11.665c1.881 0 3.406 1.525 3.406 3.406v2.778c0 1.88-1.525 3.406-3.406 3.406v-9.59z" transform="translate(-1446.000000, -1284.000000) translate(1446.000000, 1284.000000) translate(10.933333, 0.480000) translate(3.827422, 15.491156)"/>
                            <g transform="translate(-1446.000000, -1284.000000) translate(1446.000000, 1284.000000) translate(10.933333, 0.480000) translate(3.827422, 15.491156) translate(2.499620, -0.000000)">
                                <mask id="43xguh9iqb" fill="#fff">
                                    <use xlink:href="#q5j76auvxa"/>
                                </mask>
                                <use fill="#FFD8CD" xlink:href="#q5j76auvxa"/>
                                <path fill="#FFB7A2" d="M29.379-1.166v35.11H14.83v-9.58l-3.502-1.624-.051-.025-.05-.028c-.503-.304-.665-.957-.362-1.46.507-.84 1.071-1.744 1.694-2.711.882-1.371 1.648-2.614 2.297-3.73l-.027.044.001-15.996H29.38z" mask="url(#43xguh9iqb)"/>
                            </g>
                        </g>
                    </g>
                </g>
                <path fill="#324148" d="M13.536 40.348c2.904-2.026 3.74-9.36 10.271-14.65l12.008-9.727c5.778 3.565 9.322 7.453 10.632 11.665l.636-11.879H17.098c-5.617 15.335-6.804 23.532-3.562 24.59z" transform="translate(-1446.000000, -1284.000000) translate(1446.000000, 1284.000000)"/>
            </g>
        </g>
    </g>
</svg>
