<svg xmlns="http://www.w3.org/2000/svg" xmlns:xlink="http://www.w3.org/1999/xlink" width="64" height="64" viewBox="0 0 64 64">
    <defs>
        <path id="9heysbuika" d="M0 3.828C.869 1.415 5.734.143 14.596.009c8.862-.133 13.79 1.14 14.783 3.819l-.523 16.393c-.244 7.649-6.514 13.723-14.167 13.723C7.037 33.944.766 27.87.523 20.22L0 3.828z"/>
    </defs>
    <g fill="none" fill-rule="evenodd">
        <g>
            <g>
                <g>
                    <path fill="#324148" d="M.706 50.353c0-4.398 2.7-7.822.803-8.888-1.897-1.067-2.727-5.63 1.942-13.884 1.871-3.309.588-4.988 2.153-8.842 1.564-3.855 1.936-3.163 4.017-6.026 2.218-3.052 3.63-5.736 7.759-6.962 4.13-1.226 3.906 0 6.213 0 .822 0 1.53-.933 3.356-.933 5.18 0 10.976 7.427 12.756 9.935.782 1.661 1.505 3.915 2.094 7.453.792 4.757 2.857 7.447 2.857 9.064s-1.114 4.514-1.403 6.084c-.62 3.362-.62 3.362 0 6.177.62 2.814 3.025 7.356.37 16.244-.214.714-.84 1.65-1.877 2.807H3.451c-.513-1.278-.77-3.092-.77-5.442 0-2.318-1.975-2.96-1.975-6.787z" transform="translate(-1066.000000, -1284.000000) translate(1066.000000, 1284.000000) translate(8.357231, 0.480000)"/>
                    <g>
                        <path fill="#FFB7A2" d="M10.981 41.998H31.110999999999997V59.775H10.981z" transform="translate(-1066.000000, -1284.000000) translate(1066.000000, 1284.000000) translate(8.357231, 0.480000) translate(2.576102, 0.000000)"/>
                        <g>
                            <g>
                                <path fill="#FFD8CD" d="M0 11.665c1.881 0 3.406 1.525 3.406 3.406v2.778c0 1.88-1.525 3.406-3.406 3.406v-9.59z" transform="translate(-1066.000000, -1284.000000) translate(1066.000000, 1284.000000) translate(8.357231, 0.480000) translate(2.576102, 0.000000) translate(3.827422, 15.491156) translate(1.703119, 16.459823) scale(-1, 1) translate(-1.703119, -16.459823)"/>
                                <path fill="#FFB7A2" d="M31.082 11.665c1.881 0 3.406 1.525 3.406 3.406v2.778c0 1.88-1.525 3.406-3.406 3.406v-9.59z" transform="translate(-1066.000000, -1284.000000) translate(1066.000000, 1284.000000) translate(8.357231, 0.480000) translate(2.576102, 0.000000) translate(3.827422, 15.491156)"/>
                                <g transform="translate(-1066.000000, -1284.000000) translate(1066.000000, 1284.000000) translate(8.357231, 0.480000) translate(2.576102, 0.000000) translate(3.827422, 15.491156) translate(2.499620, -0.000000)">
                                    <mask id="fxsyu3wf8b" fill="#fff">
                                        <use xlink:href="#9heysbuika"/>
                                    </mask>
                                    <use fill="#FFD8CD" xlink:href="#9heysbuika"/>
                                    <path fill="#FFB7A2" d="M29.379-1.166v35.11H14.83v-9.58l-3.502-1.624-.051-.025-.05-.028c-.503-.304-.665-.957-.362-1.46.507-.84 1.071-1.744 1.694-2.711.882-1.371 1.648-2.614 2.297-3.73l-.027.044.001-15.996H29.38z" mask="url(#fxsyu3wf8b)"/>
                                </g>
                            </g>
                        </g>
                    </g>
                </g>
                <path fill="#324148" d="M32.196 16.952c4.264-.389 8.847 2.664 10.382 5.637 1.925 3.729 4.061 6.461 8.024 8.169 1.447-.662.712-4.978-2.205-12.949-4.051-4.12-9.478-6.18-16.28-6.18-6.802 0-12.02 1.775-15.653 5.323-2.7 15.585-2.7 22.644 0 21.178-.315-3.871-.295-4.658 1.703-5.699 7.877-4.103 4.593-11.692 8.488-14.622 1.657-1.246 5.02-.81 5.541-.857z" transform="translate(-1066.000000, -1284.000000) translate(1066.000000, 1284.000000)"/>
                <path stroke="#324148" stroke-width=".533" d="M30.051 16.63c-1.372-.394-4.173.92-4.745 2.914-.572 1.994.217 7.624-5.68 7.69M48.724 20.393c1.072 2.792 2.067 4.661 2.983 5.607 1.375 1.42 3.359 5.032-.656 7.14M10.597 40.546c-.447 2.88-.887 4.812-1.32 5.798-.65 1.478-1.532 5.215.59 7.302" transform="translate(-1066.000000, -1284.000000) translate(1066.000000, 1284.000000)"/>
            </g>
        </g>
    </g>
</svg>
