<svg xmlns="http://www.w3.org/2000/svg" width="24" height="24" viewBox="0 0 24 24">
    <g fill="none" fill-rule="evenodd">
        <g fill="#FF625E" fill-rule="nonzero">
            <path d="M15.546 12.275h4.277c.274 0 .52.162.625.41.105.248.047.533-.146.723l-7.346 7.203c-.528.519-1.385.519-1.913 0l-7.345-7.203c-.193-.19-.251-.475-.147-.723.105-.248.351-.41.625-.41h4.276V4.327C8.452 3.594 9.058 3 9.805 3h4.387c.747 0 1.353.594 1.353 1.327v7.948z" transform="matrix(1 0 0 -1 0 24)"/>
        </g>
    </g>
</svg>
