<svg xmlns="http://www.w3.org/2000/svg" xmlns:xlink="http://www.w3.org/1999/xlink" width="180" height="180" viewBox="0 0 180 180">
    <defs>
        <path id="8ntym9l6ia" d="M0 0H375V667H0z"/>
        <path id="hvj8ruzfzb" d="M0 0H180V179.989H0z"/>
    </defs>
    <g fill="none" fill-rule="evenodd">
        <g>
            <path fill="#107778" d="M0 0H375V667H0z" transform="translate(-97 -292)"/>
            <g transform="translate(-97 -292) translate(-119 -141)">
                <g transform="translate(119 141)"/>
                <rect width="335" height="400" x="139" y="328" fill="#FFF" rx="12"/>
            </g>
            <g>
                <g transform="translate(-97 -292) translate(97 292) translate(0 .011)">
                    <mask id="o7jv5pfj4c" fill="#fff">
                        <use xlink:href="#hvj8ruzfzb"/>
                    </mask>
                    <g mask="url(#o7jv5pfj4c)">
                        <g>
                            <path fill="#BCE9E7" d="M67.423 121.172c31.482 0 57.004-.997 57.004-7.497s-25.522-6.5-57.004-6.5c-31.483 0-57.005 0-57.005 6.5s25.522 7.497 57.005 7.497z" transform="translate(23.812 39.408) matrix(-1 0 0 1 134.845 0)"/>
                            <g>
                                <path fill="#DCF2F1" d="M12.049 14.312c-3.89 1.278-5.231 2.718-4.023 4.32 2.245 3.043 6.055 5.46 11.432 7.251.524.175.807.74.632 1.265v.004c-6.202 18.37.124 29.46 18.976 33.268-1.596-3.014-3.002-5.711-4.217-8.094-.228-.446-.09-.993.323-1.277.403-.279.819-.284 1.245-.016 9.46 5.935 7.381 15.085 31.415 13.328-3.044-2.822-2.498-2.73-6.875-6.54-.885-.771.058-1.911.938-1.802 4.77.593 7.816 7.185 11.884 7.311 13.252.412 39.085-18.278 36.339-20.955-19.014.664-20.763-5.097-24.183-6.832-3.998-2.03-5.701-1.108-12.856 1.27-.931.31-2.723-1.11-.062-1.777 5.598-2.14 8.914-1.696 8.876-2.767-.037-1.072-14.19-5.67-19.999-6.076-4.847-.338-8.765 3.145-12.98 3.145-5.463 0-4.072-1.335 4.172-4.004.525-.17.814-.734.643-1.26-.081-.252-.26-.461-.495-.582-6.593-3.374-16.232-3.531-28.919-.47-7.004-1.386-10.657-3.998-10.957-7.838-.043-.55-.524-.962-1.075-.919-.08.006-.158.022-.234.047z" transform="translate(23.812 39.408) rotate(19 -87.036 93.055) rotate(-17 58.959 39.245)"/>
                            </g>
                            <g stroke-linecap="round">
                                <path stroke="#BCE9E7" stroke-width="4" d="M8.166 0c1.523 17.841 8.78 28.778 21.773 32.81 19.488 6.05 23.804-16.568 12.423-20.368-11.38-3.8-13.463 7.087-6.798 9.367M0 20.53c4.015 18.69 17.015 28.357 39 28.998" transform="translate(23.812 39.408) rotate(12 10.391 98.866)"/>
                            </g>
                        </g>
                    </g>
                </g>
            </g>
        </g>
    </g>
</svg>
