<svg xmlns="http://www.w3.org/2000/svg" width="24.845" height="24.848" viewBox="0 0 24.845 24.848">
  <g id="グループ_200" data-name="グループ 200" transform="translate(-1467.837 404.235)">
    <path id="パス_47" data-name="パス 47" d="M1480.253-379.388a12.417,12.417,0,0,1-12.416-12.441,12.417,12.417,0,0,1,12.436-12.406,12.416,12.416,0,0,1,12.409,12.449A12.417,12.417,0,0,1,1480.253-379.388Zm9.967-12.429a9.978,9.978,0,0,0-9.962-9.956,9.977,9.977,0,0,0-9.959,9.958,9.976,9.976,0,0,0,9.969,9.963A9.978,9.978,0,0,0,1490.22-391.817Z" transform="translate(0 0)" fill="#fff"/>
    <path id="パス_48" data-name="パス 48" d="M1594.918-247.876a1.353,1.353,0,0,1,.124-.169q2.937-2.94,5.875-5.879a1.215,1.215,0,0,1,1.2-.364,1.227,1.227,0,0,1,.592,2.062c-.391.4-.793.8-1.191,1.194q-2.854,2.854-5.708,5.708a1.238,1.238,0,0,1-1.862-.008q-1.575-1.58-3.154-3.155a1.237,1.237,0,0,1-.272-1.376,1.236,1.236,0,0,1,1.177-.74,1.255,1.255,0,0,1,.861.392q1.09,1.094,2.183,2.185a1.4,1.4,0,0,1,.11.141Z" transform="translate(-116.481 -142.453)" fill="#fff"/>
  </g>
</svg>
