<svg xmlns="http://www.w3.org/2000/svg" width="279" height="245" viewBox="0 0 279 245">
    <g fill="none" fill-rule="evenodd">
        <g>
            <g>
                <path fill="#FFB7A2" d="M85.223 36.452l19.958-8.7c7-3.05 15.146.151 18.196 7.15.76 1.742 1.152 3.623 1.152 5.523v19.669c0 7.635-6.19 13.824-13.824 13.824H88.782c-7.635 0-13.824-6.19-13.824-13.824 0-.817.072-1.633.216-2.438l1.965-10.97c.815-4.547 3.848-8.388 8.084-10.234z" transform="translate(-132 -445) rotate(-60 560.37 170.103) rotate(21 98.395 46.619)"/>
                <path fill="#FFB7A2" d="M117.775 1.405h6.162c4.242 0 7.68 3.438 7.68 7.68v58.462c0 4.242-3.438 7.68-7.68 7.68h-13.842V9.085c0-4.242 3.439-7.68 7.68-7.68z" transform="translate(-132 -445) rotate(-60 560.37 170.103) rotate(21 120.856 38.316)"/>
                <path fill="#CEEEED" d="M36.193 58.653l47.314.008c3.263 0 5.956 2.551 6.134 5.81l7.44 136.415c.849 15.564-11.08 28.87-26.645 29.718-.514.028-1.028.042-1.542.042-16.72-.003-30.523-13.075-31.434-29.771L30.057 65.131c-.184-3.388 2.412-6.285 5.8-6.47.112-.005.224-.008.336-.008z" transform="translate(-132 -445) rotate(-60 560.37 170.103) rotate(22 64.204 144.651)"/>
            </g>
        </g>
    </g>
</svg>
