<svg xmlns="http://www.w3.org/2000/svg" width="360" height="361" viewBox="0 0 360 361">
    <g fill="none" fill-rule="evenodd">
        <g>
            <g transform="translate(-7 -307) translate(-3.962 307.5)">
                <path fill="#EEF8F7" d="M157.242 62.5c7.203 14.202 19.772 21.303 37.706 21.303 17.935 0 30.504-7.101 37.707-21.303l31.129 6.677c40.039 8.59 69.05 43.391 70.292 84.323l7.886 260.008h-300l8.557-282.152c.845-27.855 20.759-51.462 48.074-56.989L157.242 62.5z"/>
                <path fill="#BCE9E7" d="M283.825 96.023c9.023-5.233 25.79 26.092 50.302 93.975.932 2.58 1.636 5.238 2.104 7.942l12.683 73.23c2.733 15.783-7.103 31.021-22.611 35.029-14.607 3.775-29.509-5.006-33.284-19.613-.103-.399-.197-.8-.282-1.202-21.804-103.452-24.775-166.572-8.912-189.361z" transform="scale(-1 1) rotate(19 0 -1670.687)"/>
                <path fill="#BCE9E7" d="M227.876 114.073l19.063-2.581c7.662-1.037 14.714 4.333 15.751 11.995.035.255.062.51.082.766l16.841 211.258c1.293 16.222-10.809 30.42-27.031 31.714-2.943.235-5.904.026-8.784-.62l-.444-.1c-22.285-4.992-37.755-25.282-36.67-48.094l9.086-191.13c.32-6.747 5.413-12.302 12.106-13.208z" transform="scale(-1 1) rotate(68 0 -119.02)"/>
                <path fill="#BCE9E7" d="M37.245 95.946c9.023-5.233 25.79 26.092 50.302 93.975.932 2.58 1.636 5.238 2.104 7.942l12.704 73.352c2.662 15.372-7.619 30-22.984 32.7-15.598 2.743-30.543-7.437-33.703-22.956-20.467-100.53-23.275-162.202-8.423-185.013z" transform="rotate(16 67.525 202.094)"/>
                <rect width="105" height="54" x="28.265" y="170.013" fill="#FFD8CD" rx="27" transform="rotate(-12 80.765 197.013)"/>
                <path fill="#FFD8CD" d="M187.248 22.767l22.914 16.19c6.097 4.308 8.67 12.088 6.344 19.182-2.175 6.632-3.338 11.503-3.49 14.613-.266 5.464 14.496 12.779 14.8 22.477.073 2.324-.378 5.655-6.267 8.184-5.888 2.53-15.782-5.718-27.805-7.547-4.877-.743-12.156 7.294-20.413 15.553-9.105 9.107-19.161 18.592-23.087 19.327-2.11.396-6.681-4.917-6.474-8.209.397-6.32 9.962-22.16 9.35-24.04-3.979-12.248-5.64-29.771-5.624-37.453.011-5.12 13.262-17.88 39.752-38.277z" transform="rotate(-167 185.793 76.767)"/>
                <path fill="#DCF2F1" d="M79.729 89.64l30.768-1.325c5.917-.255 10.973 4.22 11.44 10.124l15.443 195.666c1.156 14.653-9.785 27.47-24.437 28.626-1.582.124-3.171.108-4.75-.05-18.146-1.82-32.147-16.785-32.755-35.012l-6.23-186.672c-.2-6.03 4.493-11.097 10.521-11.356z" transform="rotate(38 104.366 206.858)"/>
            </g>
        </g>
    </g>
</svg>
