<svg xmlns="http://www.w3.org/2000/svg" width="360" height="361" viewBox="0 0 360 361">
    <g fill="none" fill-rule="evenodd">
        <g>
            <g>
                <path fill="#EEF8F7" d="M146.28 72.5c7.203 14.202 19.772 21.303 37.707 21.303 17.934 0 30.503-7.101 37.706-21.303l53.344 11.443c26.993 5.79 46.551 29.252 47.388 56.846L331 423.508H31l8.558-282.152c.845-27.855 20.758-51.462 48.073-56.989L146.28 72.5z" transform="translate(-7 -307) translate(7 307.5)"/>
                <path fill="#FFD8CD" d="M213.16 47.3h37.304v48.112H213.16c-4.507 0-8.16-3.653-8.16-8.16V55.46c0-4.506 3.653-8.16 8.16-8.16z" transform="translate(-7 -307) translate(7 307.5)"/>
                <path fill="#FFD8CD" d="M223.7 25.5h9.715c9.33 0 16.893 7.563 16.893 16.893v.155l-.189 20.54h-17.165V44.594c0-2.21-1.758-4.017-3.967-4.078l-5.29-.146c-4.081-.113-7.33-3.454-7.33-7.537 0-4.05 3.283-7.334 7.333-7.334z" transform="translate(-7 -307) translate(7 307.5)"/>
                <path fill="#DCF2F1" d="M210.362 94.733h44.64l57.886 208.108c4.072 14.642-4.495 29.813-19.137 33.886-2.401.668-4.882 1.006-7.374 1.006-20.885 0-38.695-15.13-42.07-35.74l-33.945-207.26z" transform="translate(-7 -307) translate(7 307.5)"/>
            </g>
        </g>
    </g>
</svg>
