<svg width="105" height="50" viewBox="0 0 105 50" fill="none" xmlns="http://www.w3.org/2000/svg">
<path d="M84.2938 26.8307C84.2938 26.8307 90.5388 30.1955 92.5156 37.7775L83.0358 39.7964L84.2938 26.8307Z" fill="#989899"/>
<path d="M91.9297 60.2548L86.6731 61.511C85.9543 61.6905 85.1905 61.3316 84.876 60.6586L76.4745 43.2961L91.9297 60.2548Z" fill="#E49B3C"/>
<path d="M92.7401 59.6715L104.332 45.8084C104.961 45.0457 104.826 43.9241 104.017 43.3408L87.7531 32.0798L76.5661 43.2511L90.314 59.6715C90.9879 60.4342 92.1111 60.4342 92.7401 59.6715Z" fill="#FFB239"/>
<path d="M88.832 36.656C88.832 36.656 82.3624 30.1955 77.9145 34.8165C73.4667 39.4376 80.5204 45.3148 80.5204 45.3148" stroke="#EEE6D9" stroke-width="2.4281" stroke-miterlimit="10" stroke-linecap="round" stroke-linejoin="round"/>
<path d="M81.5508 63.6644L76.1145 62.9466C75.3507 62.8569 74.7217 62.1839 74.6768 61.3763L73.1043 40.9629L81.5508 63.6644Z" fill="#F14C49"/>
<path d="M82.6759 63.44L99.6137 53.8839C100.198 53.5698 100.377 52.8071 100.018 52.2688L88.202 34.2781L73.2859 41.0078L80.3846 62.4979C80.6541 63.4849 81.7773 63.9784 82.6759 63.44Z" fill="#FF625E"/>
<path d="M87.4375 39.1683C87.4375 39.1683 83.6186 30.2851 77.5983 33.1116C71.6229 35.938 76.1606 44.4623 76.1606 44.4623" stroke="white" stroke-width="2.5398" stroke-miterlimit="10" stroke-linecap="round" stroke-linejoin="round"/>
<path d="M30.1537 19.4727C30.1537 19.4727 30.603 13.9544 27.7725 13.5955C24.942 13.2366 20.9884 17.5884 20.629 23.69C20.629 23.69 19.2811 19.8765 16.9898 20.1457C14.6985 20.4149 12.1825 26.023 16.4956 35.3996C16.4956 35.3996 15.1477 34.951 14.4289 35.624C13.71 36.2969 14.4289 49.3076 34.6016 47.7822L30.1537 19.4727Z" fill="#989899"/>
<path d="M30.1557 19.4728L34.1992 45.27C23.1919 36.5214 28.0441 20.9534 28.6282 18.1269C29.2572 15.2556 27.7745 13.5956 27.7745 13.5956C30.5601 13.9994 30.1557 19.4728 30.1557 19.4728Z" fill="#989899"/>
<path d="M57.9201 4.44312C73.1507 4.44312 85.4609 16.6014 85.4609 31.5414C85.4609 47.244 78.4971 58.6396 68.568 63.3504C66.4564 64.3374 64.0303 64.158 62.0085 63.0812C60.7955 62.4083 59.4027 62.0493 57.9201 62.0493C56.4375 62.0493 55.0447 62.4083 53.8316 63.0812C51.8099 64.2028 49.3388 64.3374 47.2721 63.3504C37.3431 58.6396 30.3792 47.244 30.3792 31.5414C30.3792 16.5566 42.7344 4.44312 57.9201 4.44312Z" fill="#E7E4E2"/>
<path d="M46.8222 12.7432C49.2932 12.3842 51.7193 12.6983 53.831 13.5507C56.5716 14.6275 59.7165 14.4032 62.2774 12.8778C64.2542 11.7113 66.5905 11.0383 69.1065 10.9934C75.7109 10.9037 81.7312 15.6145 83.124 22.075C84.7863 30.0161 79.2153 37.4187 71.0384 38.0468C68.7021 38.2263 66.4108 37.8225 64.389 36.9701C61.5136 35.7587 58.2339 35.9831 55.6281 37.643C53.7411 38.8095 51.5845 39.5722 49.2483 39.7517C41.1163 40.3798 34.4221 33.9642 34.8264 25.8885C35.096 19.2486 40.3076 13.6853 46.8222 12.7432Z" fill="white"/>
<path d="M72.6107 28.5354C70.3031 28.5354 68.4324 26.6673 68.4324 24.363C68.4324 22.0586 70.3031 20.1906 72.6107 20.1906C74.9184 20.1906 76.7891 22.0586 76.7891 24.363C76.7891 26.6673 74.9184 28.5354 72.6107 28.5354Z" fill="#231F20"/>
<path d="M73.6424 24.7668C72.8236 24.7668 72.1597 24.1039 72.1597 23.2862C72.1597 22.4685 72.8236 21.8057 73.6424 21.8057C74.4612 21.8057 75.125 22.4685 75.125 23.2862C75.125 24.1039 74.4612 24.7668 73.6424 24.7668Z" fill="white"/>
<path d="M48.9331 28.2214C50.6853 27.9971 52.1679 26.9652 52.7969 25.6193C52.707 27.5933 51.1345 29.2982 49.1128 29.5225C47.0461 29.7468 45.1591 28.4906 44.62 26.5614C45.4736 27.7279 47.136 28.4457 48.9331 28.2214Z" fill="#231F20"/>
<path d="M63.8031 27.3241C63.8031 27.3241 64.3423 28.4905 64.1625 32.1245C64.1625 32.1245 62.5901 29.657 58.9958 28.1317C59.0407 28.1317 61.7814 25.9333 63.8031 27.3241Z" fill="#EC8822"/>
<path d="M76.922 44.1036C78.2698 43.6101 79.2133 42.5782 79.5727 41.4117C80.1568 42.982 79.2582 44.7765 77.4611 45.4046C75.7089 46.0327 73.777 45.3149 73.1031 43.7895C74.1364 44.4625 75.5741 44.5971 76.922 44.1036Z" fill="#989899"/>
<path d="M65.7324 46.6608C67.0803 46.3916 68.1136 45.4943 68.6528 44.4176C68.9223 46.0327 67.7542 47.6478 66.002 48.0067C64.2498 48.3657 62.6324 47.3786 62.273 45.8084C63.1266 46.6159 64.4295 46.9749 65.7324 46.6608Z" fill="#989899"/>
<path d="M42.8648 45.3597C41.7865 45.0008 41.0677 44.1484 40.843 43.0717C40.3039 44.5522 40.9329 46.0776 42.3706 46.5711C43.8083 47.0646 45.4706 46.257 46.1445 44.8213C45.1561 45.4943 43.9431 45.7186 42.8648 45.3597Z" fill="#989899"/>
<path d="M52.5249 47.0647C51.3119 46.8852 50.4133 46.0776 49.964 45.0906C49.6495 46.6609 50.593 48.0966 52.2104 48.3658C53.8278 48.635 55.4453 47.6031 55.8945 46.0328C54.996 46.8403 53.7829 47.289 52.5249 47.0647Z" fill="#989899"/>
<path d="M57.2031 7.85291C57.2031 7.85291 55.0915 5.38532 52.0814 4.62261C49.5205 3.94963 50.5538 2.15504 52.89 3.45613C54.777 4.53289 57.2031 7.85291 57.2031 7.85291Z" fill="#989899"/>
<path d="M58.7297 7.17993C58.7297 7.17993 59.179 4.30861 61.1109 2.6935C62.5037 1.52703 61.65 0.360559 60.9761 0.315694C59.6732 0.136237 58.5949 2.0654 58.7297 7.17993Z" fill="#989899"/>
<path d="M60.0321 6.77612C60.0321 6.77612 64.1206 1.97562 66.6815 3.23183C68.4786 4.08426 62.9075 4.93667 60.0321 6.77612Z" fill="#989899"/>
<path d="M66.7266 23.6901C64.9295 22.4339 60.3918 20.9534 56.1685 24.5873C55.854 24.8565 55.6743 25.2154 55.6294 25.5743C55.5395 25.0808 55.7193 24.4976 56.1685 24.1387C60.4367 20.5047 64.9295 21.9852 66.7266 23.2414C67.2208 23.6003 67.4455 24.1387 67.3556 24.7219C67.3107 24.3181 67.086 23.9144 66.7266 23.6901Z" fill="#FF9BCD"/>
<path d="M56.9351 27.0996C57.2945 27.0996 57.6989 26.965 57.9684 26.6958C61.4279 23.7796 64.483 25.7088 64.8424 25.978C65.5612 26.4715 66.5946 26.2921 67.0888 25.5742C67.583 24.8564 67.4482 23.8694 66.7294 23.331C64.8873 22.0299 60.2598 20.5494 55.9017 24.2283C55.2278 24.8115 55.138 25.8434 55.722 26.5164C56.0365 26.9202 56.4858 27.0996 56.9351 27.0996Z" fill="#FF509F"/>
<path d="M47.7251 36.2073C41.8692 36.2073 37.1221 31.4668 37.1221 25.6192C37.1221 19.7716 41.8692 15.0311 47.7251 15.0311C53.581 15.0311 58.3281 19.7716 58.3281 25.6192C58.3281 31.4668 53.581 36.2073 47.7251 36.2073Z" fill="#FF509F"/>
<path d="M56.3533 20.1457C52.5793 14.762 46.0199 14.2685 41.2126 18.082C39.2807 19.6074 37.843 22.2993 37.169 24.4528C37.4835 21.7609 38.8314 19.1587 41.1227 17.3642C45.7054 13.7301 52.3547 14.4928 55.9939 19.069C56.9373 20.2355 57.5664 21.5814 57.9258 22.9722C57.5664 21.9404 56.9823 21.043 56.3533 20.1457Z" fill="#FF9BCD"/>
<path d="M47.7235 34.0089C43.0834 34.0089 39.3219 30.2527 39.3219 25.6191C39.3219 20.9856 43.0834 17.2294 47.7235 17.2294C52.3635 17.2294 56.125 20.9856 56.125 25.6191C56.125 30.2527 52.3635 34.0089 47.7235 34.0089Z" fill="#CD3480"/>
<path d="M47.5438 34.0088C43.003 34.0088 39.322 30.333 39.322 25.7986C39.322 21.2642 43.003 17.5884 47.5438 17.5884C52.0846 17.5884 55.7656 21.2642 55.7656 25.7986C55.7656 30.333 52.0846 34.0088 47.5438 34.0088Z" fill="#303030"/>
<path d="M55.3164 28.4905C54.2831 31.8104 51.183 34.1882 47.499 34.1882C43.0062 34.1882 39.322 30.5542 39.322 26.0678C39.322 24.0489 40.0858 22.2095 41.2989 20.8187C49.9251 19.9214 54.1034 26.2473 55.3164 28.4905Z" fill="#232323"/>
<path d="M74.7271 33.0668C68.9457 33.0668 64.2589 28.3866 64.2589 22.6133C64.2589 16.84 68.9457 12.1598 74.7271 12.1598C80.5085 12.1598 85.1953 16.84 85.1953 22.6133C85.1953 28.3866 80.5085 33.0668 74.7271 33.0668Z" fill="#FF509F"/>
<path d="M84.8359 23.69C85.1953 17.1846 80.433 12.7879 74.3677 12.7879C71.9416 12.7879 69.156 13.9544 67.314 15.2555C69.2009 13.3711 71.8517 12.1598 74.7271 12.1598C80.5228 12.1598 85.1953 16.8706 85.1953 22.6133C85.1953 24.0938 84.8808 25.5295 84.2968 26.8306C84.6562 25.8435 84.746 24.7668 84.8359 23.69Z" fill="#FF9BCD"/>
<path d="M74.7274 30.9132C70.137 30.9132 66.4157 27.1972 66.4157 22.6132C66.4157 18.0293 70.137 14.3132 74.7274 14.3132C79.3178 14.3132 83.0391 18.0293 83.0391 22.6132C83.0391 27.1972 79.3178 30.9132 74.7274 30.9132Z" fill="#CD3480"/>
<path d="M74.3251 30.9132C69.9332 30.9132 66.3728 27.3579 66.3728 22.9722C66.3728 18.5865 69.9332 15.0311 74.3251 15.0311C78.717 15.0311 82.2773 18.5865 82.2773 22.9722C82.2773 27.3579 78.717 30.9132 74.3251 30.9132Z" fill="#303030"/>
<path d="M81.9141 25.35C80.9256 28.5803 77.8706 30.9132 74.3212 30.9132C69.9183 30.9132 66.369 27.3689 66.369 22.9722C66.369 20.9982 67.0878 19.2036 68.256 17.8128C76.7024 16.9604 80.7459 23.1517 81.9141 25.35Z" fill="#232323"/>
<path d="M1.9397 31.3618L25.437 37.5083C26.111 37.6877 26.8298 37.2839 27.0095 36.611L30.8284 22.1198C31.0081 21.4468 30.6038 20.729 29.9298 20.5495L6.4325 14.4031C5.75858 14.2237 5.03974 14.6274 4.86002 15.3004L1.04114 29.7916C0.86143 30.4646 1.26578 31.1824 1.9397 31.3618Z" fill="#F6CA2E"/>
<path d="M2.6107 37.8673L26.8269 39.8862C27.5458 39.9311 28.1298 39.4376 28.2197 38.7197L29.4776 23.7799C29.5226 23.062 29.0284 22.4788 28.3095 22.389L4.09332 20.3701C3.37447 20.3253 2.79042 20.8188 2.70056 21.5366L1.44258 36.4765C1.39766 37.1943 1.89185 37.7776 2.6107 37.8673Z" fill="#FBE837"/>
<path d="M2.50835 23.8707L29.2812 26.1077L29.0565 28.7902L2.28359 26.5532L2.50835 23.8707Z" fill="#F6CA2E"/>
<path d="M20.12 34.895L26.7461 35.4486L26.5401 37.9075L19.914 37.3539L20.12 34.895Z" fill="#2A8471"/>
</svg>
