<?xml version="1.0" encoding="utf-8"?>
<!-- Generator: Adobe Illustrator 26.0.1, SVG Export Plug-In . SVG Version: 6.00 Build 0)  -->
<svg version="1.1" id="圖層_1" xmlns="http://www.w3.org/2000/svg" xmlns:xlink="http://www.w3.org/1999/xlink" x="0px" y="0px"
	 viewBox="0 0 120 121" style="enable-background:new 0 0 120 121;" xml:space="preserve">
<style type="text/css">
	.st0{fill:#C4E9E6;}
	.st1{fill:none;stroke:#7A7A7A;stroke-linecap:round;}
	.st2{fill:none;stroke:#D67B29;stroke-width:3;stroke-linecap:round;stroke-miterlimit:10;}
	.st3{fill:none;stroke:#EC8822;stroke-width:3;stroke-linecap:round;stroke-miterlimit:10;}
	.st4{fill:#B2B2B2;}
	.st5{fill:#D7D7D7;}
	.st6{fill:#FFFFFF;}
	.st7{fill:#E1E2EC;}
	.st8{fill:#989899;}
	.st9{fill:none;stroke:#5F9997;stroke-width:4;stroke-linecap:round;}
	.st10{fill:#E04444;}
	.st11{fill:#EC8822;}
	.st12{fill:#EC6C22;}
	.st13{fill:#B3E9FA;}
	.st14{fill-rule:evenodd;clip-rule:evenodd;fill:#DF8C68;}
	.st15{fill:#DEDEDE;}
	.st16{fill:#617697;}
	.st17{fill-rule:evenodd;clip-rule:evenodd;fill:#EC8822;}
	.st18{fill:#B4B4B4;}
</style>
<ellipse class="st0" cx="62.3" cy="115" rx="32.9" ry="5.3"/>
<path class="st1" d="M80.6,11.8C44.9,1.9,20.7,27.8,19,49.4"/>
<path class="st2" d="M69.3,107.2l3.7,4"/>
<path class="st3" d="M70.3,112.1l-0.9-4.2c-0.1-0.4-0.1-0.9,0-1.3l0.3-1.8"/>
<path class="st4" d="M75.7,102.8c0,0-1.3,2.4-3.5,3.7c-2.5,1.4-8,1.3-10.5-4.6l5.8-1.5L75.7,102.8z"/>
<path class="st2" d="M56.2,108.4l3.8,4"/>
<path class="st3" d="M56.6,113.5c-0.3-1.9-0.9-4.6-0.9-4.6l0.2-3.6"/>
<path class="st5" d="M66.2,104c0,0-4.8,3.6-9.9,3.2c-5.5-0.4-10.3-5.1-9.7-10.5L66.2,104z"/>
<path class="st5" d="M15.1,60.6c0,0,9.6,8.3,14.2,2.2c7.1-9.3,13-32.1,37-30.5c34.4,4.1,32.5,32.2,25.3,43.6
	c0.7,3.6-0.3,10-1.3,13.2c-4,12.3-17.9,17.8-35.4,15.4c-3.5-0.5-7.2-1-10.1-1.9C15.3,93.4,15.1,60.6,15.1,60.6z"/>
<path class="st6" d="M96.5,61.6c0.2,10.1-4.9,15.5-4.9,15.5s-2.7-0.5-6.3,0.6c-5.8,1.7-23,0.7-25.3-15.5
	C58.2,49.9,68.9,37.9,80.1,39C90.5,40,96.1,45.6,96.5,61.6z"/>
<path class="st7" d="M84.3,44.3c1.2,0.3,6.4,1.7,7.9,0.5c2.3,2.7,3.9,9.1,3.9,11.7c-0.6-0.3-4.2,2-5.1,2.2c-0.9,0.3-1.5-1.2-2.6-1.3
	c-1.2,0-2.4,1.4-3.9,1.1c0-0.9,6.4-4.6,6.7-5.2s-0.9-0.6-0.8-1.8C90.3,49.6,85.7,44.9,84.3,44.3c-0.3-0.1-0.3-0.1-0.1,0
	C84.2,44.3,84.3,44.3,84.3,44.3z"/>
<g>
	<path class="st8" d="M75.9,28.2c-0.9,0-0.4,1.1,0.3,2.6c1.4,2.7,1.3,5.9,1.3,5.9C78.6,30.8,77.6,28.3,75.9,28.2z"/>
	<path class="st8" d="M70.2,29.9c-2.7-1.3-4.2,1-1.3,1.6c3.3,0.6,6.2,3.6,6.2,3.6S72.6,31.1,70.2,29.9z"/>
	<path class="st8" d="M69.7,26c-0.9,0.4-0.4,2.1,2.4,3.8c3.3,2.1,4.6,5.9,4.6,5.9C74.9,26.6,71.5,25.2,69.7,26z"/>
</g>
<path class="st8" d="M73.1,85.5c-1.3-1.2-1.9-2.8-1.7-4.4c-1.5,1.7-1.3,4.3,0.4,5.8c1.7,1.5,4.3,1.4,5.9-0.3
	C76.1,87,74.4,86.6,73.1,85.5z"/>
<path class="st8" d="M83.9,91.2c-1.6-0.6-2.7-2-3.1-3.6c-0.8,2.1,0.3,4.5,2.4,5.3s4.5-0.1,5.5-2.2C87.3,91.6,85.5,91.9,83.9,91.2z"
	/>
<g>
	<path class="st8" d="M74,95.4c-1.2-0.8-1.9-2.2-1.9-3.6c-1.1,1.6-0.6,3.8,1,4.9c1.6,1.1,3.8,0.7,5-0.9C76.8,96.4,75.2,96.2,74,95.4
		z"/>
	<path class="st8" d="M81.2,97.5c0,0-1.2,1.9-0.9,3.1c0,0,1.2,0.1,2-1.1C82.4,99.5,81.5,99.5,81.2,97.5z"/>
</g>
<path class="st9" d="M88.5,104.6c37.8-46.3,15.3-86.7-7.6-92.2"/>
<path d="M95.7,53.2l-0.1-0.6c-2.1,0.5-4.2,2.6-4.5,3.2C92.8,54.4,94.8,53.5,95.7,53.2z"/>
<path d="M96,55l-0.1-0.6c-1.5,0-5.5,2.2-6.4,4.3C91.3,56.6,94.5,55.4,96,55z"/>
<path class="st10" d="M94,65.5c-0.9-1.5-1-6.2-0.2-7.2c0.4-0.3,1.4-0.3,2.9,0.9c0.7,2.6,0.6,6.5,0.3,6.5
	C96.1,65.9,94.5,66.4,94,65.5z"/>
<path class="st11" d="M96,56.2c0,0,3.6-0.3,5.9,4.4c-4.6-1.4-8.6-0.2-8.6-0.2S93.2,56.9,96,56.2z"/>
<path class="st12" d="M99.3,65c0,0-3.7,0.8-5.6-0.1c0.1,0.6,0.9,1.5,1.2,1.7C98.6,67.1,99.3,65,99.3,65z"/>
<ellipse transform="matrix(0.9444 -0.3289 0.3289 0.9444 -12.1263 30.586)" cx="84.3" cy="51.1" rx="1.1" ry="1.3"/>
<path d="M91.4,53.5l-0.3-0.4c-7.9,4.8-8.5,7.2-8.5,7.2S84.6,57.8,91.4,53.5z"/>
<path d="M82.7,57.6c-0.7,0-2.1-1-2.6-1.6c0,0,1.1,0.3,2.4,0.4c3.1,0.1,8.4-3.1,8.4-3.1C90.2,54.9,83.4,57.6,82.7,57.6z"/>
<path d="M85.9,46.4c0.7,0.1,2.3,1.5,4.1,4.3c-0.5-1.6-1.8-4.3-4.3-5.2c-5.1,0.8-8.5,5.4-8.5,5.4S83,46,85.9,46.4z"/>
<path d="M90,50.7c-0.4-2.1-2.5-6-7.8-7.3C83.6,44.6,88.3,46.5,90,50.7z"/>
<g>
	<path class="st13" d="M69,56.4c2.4,0.1,1.1-4.8,0.5-7.1C67.3,53.1,66.7,56.3,69,56.4z"/>
	<path class="st13" d="M56.1,50.3c3.9,0.1,1.9-8,0.8-11.9C53.3,44.8,52.2,50.2,56.1,50.3z"/>
	<path class="st13" d="M45.3,57.8c2.4,0.1,1.1-4.8,0.5-7.1C43.6,54.5,42.9,57.8,45.3,57.8z"/>
	<path class="st13" d="M74.3,59.8c-1.8,2.9-2.4,5.3-0.4,5.3C75.9,65.2,74.9,61.5,74.3,59.8z"/>
</g>
<path class="st8" d="M56.4,70.3c12.8-7.4,25.5,7.9,52.8-2c1.4,2.2-0.5,9.1-2.3,10c-2,1.5-5.4,1.4-8.4,1.3c0,0,4.7-0.1,6.9,0.8
	c0.6,1.3-0.2,5.3-2.6,6.2c-3.4,1.3-6.4,0.8-11.7-1.3c0,0,12.9,1.3,9.8,6.6c-5.5,6.4-31.9,0.5-41.5-3.1
	C49.8,85.2,51.4,73.2,56.4,70.3z"/>
<path class="st14" d="M17.9,51.6c0-0.5,0.4-0.8,0.9-0.8c0.5,0,0.8,0.4,0.8,0.9c0,0.5-0.4,0.8-0.9,0.8C18.2,52.5,17.9,52.1,17.9,51.6
	z M22.7,51.7c-0.1,2.2-1.9,3.9-4.1,3.9c-0.1,0-0.2,0-0.3,0c-0.3,1.3-0.6,2.5-0.9,3.6l0,0v0v0c-0.1,0.6-0.3,1.1-0.4,1.6
	c-0.5,1.9-0.9,3.6-1.1,5c-0.2,1.4-0.2,2.5,0.1,3.2c0.3,0.6,0.7,1.1,1.7,1.2c0,0-0.1,0.3-0.1,0.7c0,0.4-0.1,0.7-0.1,0.7
	c-1.4-0.2-2.3-0.9-2.7-2c-0.2-0.5-0.3-1-0.3-1.5c-1.1,1.3-2.6,1.9-4,1.8c-1.2-0.1-2.3-0.7-2.8-1.9c-0.5-1.2-0.5-2.8,0.2-4.8L9,59.4
	l1.4,4.7l-1.4-0.5c-0.7,1.8-0.6,3-0.2,3.8c0.3,0.7,1,1.1,1.7,1.1c1.6,0.1,3.8-1.3,4.3-4.4l0,0c0.2-1.1,0.5-2.3,0.9-3.6
	c0.1-0.5,0.3-1.1,0.4-1.6c0.3-1.1,0.6-2.3,0.9-3.6c-1.4-0.6-2.4-2.1-2.3-3.7c0.1-2.2,1.9-3.9,4.1-3.9C21,47.7,22.8,49.5,22.7,51.7z
	 M19.7,69.4l1.4-3.3l-2-0.5l4.7-3.2l-2.9,7.5c0,0,0.1-0.2-0.5-0.5C19.8,69.1,19.7,69.4,19.7,69.4z"/>
<path class="st15" d="M19.6,47.9C17.2,45.4,2.4,45.5,2.3,50C2.2,53.8,17,52,19.6,47.9z"/>
<path class="st16" d="M19.6,47.9C17.2,45.4,2.4,45.5,2.3,50C2.2,53.8,8.3,47.6,19.6,47.9z"/>
<circle class="st6" cx="5" cy="49.4" r="0.9"/>
<circle class="st16" cx="5" cy="49.4" r="0.3"/>
<path class="st17" d="M9.5,47.1c0,0.2-0.3,0.3-0.6,0.3c-0.3,0-0.6-0.1-0.6-0.3c0-0.2,0.3-0.3,0.6-0.3C9.3,46.8,9.5,46.9,9.5,47.1z
	 M14.3,47.2c0,0.2-0.3,0.3-0.6,0.3c-0.3,0-0.6-0.1-0.6-0.3c0-0.2,0.3-0.3,0.6-0.3C14,46.9,14.3,47.1,14.3,47.2z M11.3,48
	c0.3,0,0.6-0.1,0.6-0.3c0-0.2-0.3-0.3-0.6-0.3c-0.3,0-0.6,0.1-0.6,0.3C10.7,47.9,11,48,11.3,48z M8.9,48.9c0,0.2-0.3,0.3-0.6,0.3
	c-0.3,0-0.6-0.1-0.6-0.3c0-0.2,0.3-0.3,0.6-0.3C8.6,48.6,8.9,48.7,8.9,48.9z M16.1,47.6c0.3,0,0.6-0.1,0.6-0.3
	c0-0.2-0.3-0.3-0.6-0.3c-0.3,0-0.6,0.1-0.6,0.3C15.5,47.4,15.7,47.6,16.1,47.6z"/>
<g>
	<path class="st18" d="M58.4,29.5c-0.8,0.3-1.7,0.5-2.6,0.7c-3.9,1-8.2,2.1-10.8,5.8c-0.1,0.1-0.1,0.3,0.1,0.3c0,0,0.1,0,0.1,0
		c0.1,0,0.2,0,0.2-0.1c2.4-3.5,6.7-4.6,10.5-5.6c0.9-0.2,1.8-0.5,2.6-0.7c0.1,0,0.2-0.2,0.2-0.3S58.6,29.5,58.4,29.5z"/>
	<path class="st18" d="M42.6,38.4c-0.3,0.3-0.6,0.6-0.9,0.8c-1,0.9-1.8,1.6-2.2,3.1c0,0.1,0.1,0.3,0.2,0.3c0,0,0,0,0.1,0
		c0.1,0,0.2-0.1,0.2-0.2c0.3-1.3,1-1.9,2-2.9c0.3-0.2,0.6-0.5,0.9-0.8c0.1-0.1,0.1-0.3,0-0.4C42.9,38.3,42.7,38.3,42.6,38.4z"/>
</g>
<g>
	<path class="st18" d="M40.1,103.5c-1.7,0-3.4-1.4-5.4-3c-1.8-1.4-3.9-3.1-6.4-4.1c-0.1,0-0.3,0-0.3,0.1s0,0.3,0.1,0.3
		c2.5,1,4.5,2.6,6.3,4c2.1,1.6,3.8,3,5.7,3.1c0,0,0,0,0,0c0.1,0,0.2-0.1,0.2-0.2C40.3,103.6,40.2,103.5,40.1,103.5z"/>
	<path class="st18" d="M23.1,90.7c-0.5-0.4-1-0.7-1.3-1.1c-0.1-0.1-0.2-0.1-0.4,0c-0.1,0.1-0.1,0.2,0,0.4c0.3,0.4,0.9,0.8,1.4,1.2
		c1,0.7,2,1.5,2.3,2.7c0,0.1,0.1,0.2,0.2,0.2c0,0,0,0,0.1,0c0.1,0,0.2-0.2,0.2-0.3C25.3,92.3,24.1,91.5,23.1,90.7z"/>
</g>
</svg>
