<svg width="120" height="120" viewBox="0 0 120 120" fill="none" xmlns="http://www.w3.org/2000/svg">
<mask id="mask0_4938_88075" style="mask-type:alpha" maskUnits="userSpaceOnUse" x="0" y="0" width="120" height="120">
<rect width="120" height="120" fill="#C4C4C4"/>
</mask>
<g mask="url(#mask0_4938_88075)">
<path d="M21 115.08H-17L22 31C22 31 25.5 24 25.5 26.5C25.5 29 21 115.08 21 115.08Z" fill="url(#paint0_linear_4938_88075)"/>
<path d="M21 40.5C21 18.1325 39.1325 0 61.5 0C83.8675 0 102 18.1325 102 40.5V115H21V40.5Z" fill="url(#paint1_linear_4938_88075)"/>
<ellipse cx="40.5" cy="117" rx="20.5" ry="2" fill="#BBE3E0"/>
<mask id="mask1_4938_88075" style="mask-type:alpha" maskUnits="userSpaceOnUse" x="21" y="0" width="81" height="115">
<path d="M21 39.5C21 17.6848 38.6848 0 60.5 0H61.5C83.8675 0 102 18.1325 102 40.5V115H21V39.5Z" fill="#E4F0EF"/>
</mask>
<g mask="url(#mask1_4938_88075)">
<path fill-rule="evenodd" clip-rule="evenodd" d="M57.9967 16.4393C59.9861 9.18692 70.2718 9.1869 72.2613 16.4393L77.8905 36.9598L81.7942 26.8064C83.7388 21.7484 90.8947 21.7485 92.8393 26.8064L115.876 111.264C117.366 115.14 114.505 119.304 110.353 119.304H48.8539C44.7021 119.304 41.8414 115.14 43.3314 111.264L47.5266 100.352H40.4002C35.5191 100.352 31.9766 95.7073 33.2679 91L57.9967 16.4393Z" fill="url(#paint2_linear_4938_88075)"/>
<path fill-rule="evenodd" clip-rule="evenodd" d="M74 19.1821L73.0921 16.2848C70.884 9.23839 59.468 9.23841 57.2599 16.2848L56 20.3053H57.1725V21.2036C57.1725 21.8981 57.8156 22.4611 58.609 22.4611C59.4023 22.4611 60.0455 21.8981 60.0455 21.2036V20.485V20.3053H60.0713C60.1625 19.9954 60.4838 19.7664 60.8663 19.7664C61.2488 19.7664 61.5702 19.9954 61.6613 20.3053H61.6872V20.485V22.012C61.6872 22.5576 62.1925 23 62.8159 23C63.4392 23 63.9445 22.5576 63.9445 22.012V20.3053V19.946C63.9445 19.5492 64.312 19.2275 64.7654 19.2275C65.2187 19.2275 65.5862 19.5492 65.5862 19.946V20.3053H65.6287C65.7627 20.72 66.1983 21.0239 66.7149 21.0239C67.2316 21.0239 67.6671 20.72 67.8011 20.3053H67.8436V19.4071C67.8436 19.0102 68.2111 18.6885 68.6644 18.6885C69.1178 18.6885 69.4853 19.0102 69.4853 19.4071V20.3053C69.4853 21.1983 70.3122 21.9221 71.3322 21.9221C72.3522 21.9221 73.1791 21.1983 73.1791 20.3053H74V19.1821Z" fill="#E9FFFD"/>
<path fill-rule="evenodd" clip-rule="evenodd" d="M94 28.8184L93.3443 26.404C91.7495 20.532 83.5047 20.532 81.9099 26.404L81 29.7544H81.8468V30.503C81.8468 31.0817 82.3113 31.5509 82.8843 31.5509C83.4572 31.5509 83.9217 31.0817 83.9217 30.503V29.9041V29.7544H83.9404C84.0062 29.4962 84.2383 29.3053 84.5146 29.3053C84.7908 29.3053 85.0229 29.4962 85.0887 29.7544H85.1074V29.9041V31.1766C85.1074 31.6314 85.4724 32 85.9226 32C86.3728 32 86.7377 31.6314 86.7377 31.1766V29.7544V29.455C86.7377 29.1243 87.0031 28.8562 87.3306 28.8562C87.658 28.8562 87.9234 29.1243 87.9234 29.455V29.7544H87.9541C88.0508 30.1 88.3654 30.3533 88.7385 30.3533C89.1117 30.3533 89.4262 30.1 89.523 29.7544H89.5537V29.0059C89.5537 28.6752 89.8191 28.4071 90.1465 28.4071C90.474 28.4071 90.7394 28.6752 90.7394 29.0059V29.7544C90.7394 30.4986 91.3366 31.1018 92.0733 31.1018C92.81 31.1018 93.4072 30.4986 93.4072 29.7544H94V28.8184Z" fill="#F2FFFE"/>
<path fill-rule="evenodd" clip-rule="evenodd" d="M59.0874 27.3698C59.0874 27.1656 59.253 27 59.4572 27H61.6759C61.8802 27 62.0457 27.1656 62.0457 27.3698C62.0457 27.574 61.8802 27.7396 61.6759 27.7396H59.4572C59.253 27.7396 59.0874 27.574 59.0874 27.3698Z" fill="#CBF4F0"/>
<path fill-rule="evenodd" clip-rule="evenodd" d="M63.3398 29.9583C63.3398 29.7541 63.5054 29.5885 63.7096 29.5885H65.9284C66.1326 29.5885 66.2982 29.7541 66.2982 29.9583C66.2982 30.1625 66.1326 30.3281 65.9284 30.3281H63.7096C63.5054 30.3281 63.3398 30.1625 63.3398 29.9583Z" fill="#CBF4F0"/>
<path fill-rule="evenodd" clip-rule="evenodd" d="M56.3135 32.9167C56.3135 32.7124 56.479 32.5469 56.6833 32.5469H58.902C59.1062 32.5469 59.2718 32.7124 59.2718 32.9167C59.2718 33.1209 59.1062 33.2865 58.902 33.2865H56.6833C56.479 33.2865 56.3135 33.1209 56.3135 32.9167Z" fill="#CBF4F0"/>
<path fill-rule="evenodd" clip-rule="evenodd" d="M71.29 32.5469C71.29 32.3426 71.4556 32.1771 71.6598 32.1771H73.8786C74.0828 32.1771 74.2484 32.3426 74.2484 32.5469C74.2484 32.7511 74.0828 32.9166 73.8786 32.9166H71.6598C71.4556 32.9166 71.29 32.7511 71.29 32.5469Z" fill="#CBF4F0"/>
<path opacity="0.5" d="M40.3261 27.004C41.2368 24.332 45.0158 24.332 45.9265 27.004L60.4966 75.0873C61.1507 77.0065 59.724 79 57.6964 79H24.4968C22.4692 79 21.0425 77.0065 21.6966 75.0873L40.3261 27.004Z" fill="#A7D7D3"/>
<path fill-rule="evenodd" clip-rule="evenodd" d="M39 28.0911L39.4035 26.6424C40.3849 23.1192 45.4587 23.1192 46.44 26.6424L47 28.6527H46.4789V29.1018C46.4789 29.449 46.1931 29.7305 45.8405 29.7305C45.4879 29.7305 45.202 29.449 45.202 29.1018V28.7425V28.6527H45.1905C45.15 28.4977 45.0072 28.3832 44.8372 28.3832C44.6672 28.3832 44.5244 28.4977 44.4839 28.6527H44.4724V28.7425V29.506C44.4724 29.7788 44.2478 30 43.9707 30C43.6937 30 43.4691 29.7788 43.4691 29.506V28.6527V28.473C43.4691 28.2746 43.3058 28.1137 43.1043 28.1137C42.9028 28.1137 42.7394 28.2746 42.7394 28.473V28.6527H42.7206C42.661 28.86 42.4674 29.012 42.2378 29.012C42.0082 29.012 41.8146 28.86 41.7551 28.6527H41.7362V28.2036C41.7362 28.0051 41.5728 27.8443 41.3714 27.8443C41.1699 27.8443 41.0065 28.0051 41.0065 28.2036V28.6527C41.0065 29.0991 40.639 29.4611 40.1857 29.4611C39.7323 29.4611 39.3648 29.0991 39.3648 28.6527H39V28.0911Z" fill="#E4FFFC"/>
<path fill-rule="evenodd" clip-rule="evenodd" d="M40 36.3698C40 36.1656 40.056 36 40.125 36H40.875C40.944 36 41 36.1656 41 36.3698C41 36.574 40.944 36.7396 40.875 36.7396H40.125C40.056 36.7396 40 36.574 40 36.3698Z" fill="#CBF4F0"/>
<path fill-rule="evenodd" clip-rule="evenodd" d="M44 33.3698C44 33.1656 44.056 33 44.125 33H44.875C44.944 33 45 33.1656 45 33.3698C45 33.574 44.944 33.7396 44.875 33.7396H44.125C44.056 33.7396 44 33.574 44 33.3698Z" fill="#CBF4F0"/>
<path fill-rule="evenodd" clip-rule="evenodd" d="M93 42.3698C93 42.1656 93.1119 42 93.25 42H94.75C94.8881 42 95 42.1656 95 42.3698C95 42.574 94.8881 42.7396 94.75 42.7396H93.25C93.1119 42.7396 93 42.574 93 42.3698Z" fill="#CBF4F0"/>
<path fill-rule="evenodd" clip-rule="evenodd" d="M85 37.3698C85 37.1656 85.056 37 85.125 37H85.875C85.944 37 86 37.1656 86 37.3698C86 37.574 85.944 37.7396 85.875 37.7396H85.125C85.056 37.7396 85 37.574 85 37.3698Z" fill="#CBF4F0"/>
<path d="M70.1254 56.2716C66.5098 56.6883 61.9431 66.5298 53.4333 66.5991C50.1494 74.7588 54.7023 86.4635 54.7023 86.4635C54.7023 86.4635 82.2393 80.9901 87.3487 71.0737C78.5507 62.7033 73.741 55.855 70.1254 56.2716Z" fill="white"/>
<path d="M22.4178 114.754C22.1249 114.701 21.8583 114.502 21.7069 114.223L20.4421 111.727L18.183 113.64C17.771 113.969 17.1188 113.952 16.7897 113.54C16.4606 113.128 16.4771 112.476 16.8891 112.147L20.0962 109.448C20.3354 109.239 20.597 109.185 20.9388 109.246C21.2317 109.299 21.4983 109.498 21.6008 109.769L23.4223 113.372C23.685 113.873 23.482 114.441 22.9812 114.704C22.8171 114.775 22.6131 114.789 22.4178 114.754Z" fill="#EC8822"/>
<path d="M40.6756 47.4272C24.1254 44.4505 8.3952 55.1285 5.49747 71.2393C2.45047 88.1801 7.81364 101.795 17.6986 108.764C19.8 110.251 21.3545 111.135 24.8791 109.753C26.2889 109.201 27.9127 109.14 29.5238 109.43C31.1348 109.719 32.6932 110.302 33.7645 111.352C36.1247 113.641 38.4007 113.597 40.8396 112.927C52.5422 109.79 62.3135 98.8968 65.3517 82.0048C68.2494 65.894 57.177 50.3952 40.6756 47.4272Z" fill="#E7E4E2"/>
<path d="M52.5266 56.9172C49.6324 56.1951 46.6867 56.3205 44.075 57.1107C40.6607 58.1598 36.9991 57.5012 34.1643 55.3282C31.9428 53.6686 29.2742 52.5334 26.3098 52.2019C18.4996 51.3515 11.1265 56.4766 9.20212 64.0937C6.9254 73.109 12.781 82.0246 21.764 83.6403C24.3515 84.1057 26.9067 83.9101 29.2568 83.1736C32.5647 82.1557 36.2263 82.8143 38.9722 84.921C40.9183 86.4302 43.2452 87.5039 45.8327 87.9693C54.8157 89.585 63.411 83.2686 64.4184 74.0249C65.2775 66.1659 60.1036 58.7841 52.5266 56.9172Z" fill="white"/>
<path d="M19.342 100.19C18.0628 99.4554 17.3371 98.1657 17.2237 96.8349C16.313 98.5359 16.8981 100.607 18.5415 101.558C20.1849 102.508 22.2958 101.981 23.3442 100.355C22.0808 100.934 20.6211 100.924 19.342 100.19Z" fill="#989899"/>
<path d="M31.693 104.377C30.286 104.073 29.1571 103.064 28.6268 101.809C28.2931 103.664 29.4767 105.49 31.3632 105.93C33.2008 106.361 35.0753 105.187 35.5554 103.358C34.5323 104.282 33.1 104.68 31.693 104.377Z" fill="#989899"/>
<path d="M43.4813 104.128C44.9361 103.886 46.0656 102.93 46.6357 101.722C46.8966 103.634 45.6266 105.371 43.7549 105.689C41.8832 106.008 40.0884 104.778 39.6722 102.889C40.6546 103.872 42.0265 104.37 43.4813 104.128Z" fill="#989899"/>
<path d="M24.6237 94.0834C23.2606 93.5359 22.3045 92.4063 21.987 91.0892C21.3604 92.8917 22.2648 94.8688 24.0498 95.593C25.8435 96.2684 27.8118 95.4128 28.6249 93.6943C27.4904 94.3974 25.9868 94.631 24.6237 94.0834Z" fill="#989899"/>
<path d="M51.2307 96.349C52.6855 96.1067 53.8151 95.1507 54.3851 93.9428C54.6461 95.8545 53.376 97.5917 51.5043 97.9102C49.6326 98.2288 47.8378 96.9988 47.4216 95.1095C48.404 96.0926 49.7759 96.5914 51.2307 96.349Z" fill="#989899"/>
<path d="M39.2697 96.7177C40.7382 96.6794 42.0279 95.9538 42.7845 94.8299C42.7437 96.7377 41.2071 98.2758 39.2816 98.3327C37.365 98.3407 35.8182 96.8529 35.6549 94.9587C36.4732 96.0131 37.8012 96.756 39.2697 96.7177Z" fill="#989899"/>
<path d="M40.8387 51.287C40.8387 51.287 43.6162 49.0145 47.0364 48.7729C49.9509 48.5411 49.1793 46.3863 46.386 47.3455C44.0759 48.1396 40.8387 51.287 40.8387 51.287Z" fill="#989899"/>
<path d="M39.2617 50.2473C39.2617 50.2473 39.3355 47.035 37.5523 44.8999C36.2672 43.3583 37.4231 42.2558 38.1642 42.3387C39.6151 42.3981 40.4092 44.7081 39.2617 50.2473Z" fill="#989899"/>
<path d="M37.9247 49.5533C37.9247 49.5533 34.4215 43.5304 31.3929 44.3968C29.2732 44.9732 35.1601 46.9896 37.9247 49.5533Z" fill="#989899"/>
<path d="M22.1479 70.8573C24.6555 71.3083 27.0539 69.6411 27.5049 67.1336C27.9559 64.626 26.2888 62.2276 23.7812 61.7766C21.2736 61.3256 18.8753 62.9927 18.4242 65.5003C17.9732 68.0079 19.6404 70.4063 22.1479 70.8573Z" fill="#231F20"/>
<path d="M21.7143 66.5457C22.6041 66.7057 23.4551 66.1141 23.6152 65.2243C23.7752 64.3346 23.1837 63.4835 22.2939 63.3235C21.4041 63.1635 20.553 63.755 20.393 64.6448C20.233 65.5346 20.8246 66.3856 21.7143 66.5457Z" fill="white"/>
<path d="M49.0972 75.7044C51.6047 76.1554 54.0031 74.4882 54.4541 71.9807C54.9052 69.4731 53.238 67.0747 50.7304 66.6237C48.2229 66.1727 45.8245 67.8399 45.3735 70.3474C44.9225 72.855 46.5896 75.2534 49.0972 75.7044Z" fill="#231F20"/>
<path d="M48.6634 71.3928C49.5531 71.5528 50.4042 70.9613 50.5643 70.0715C50.7243 69.1817 50.1327 68.3307 49.2429 68.1706C48.3531 68.0106 47.5021 68.6022 47.3421 69.4919C47.182 70.3817 47.7736 71.2328 48.6634 71.3928Z" fill="white"/>
<path d="M34.1735 67.325C34.1735 67.325 34.8233 70.7178 33.7204 74.0475L37.4796 74.7236C37.4796 74.7236 37.5913 70.4597 39.0556 68.2031L34.1735 67.325Z" fill="#D32E2E"/>
<path d="M34.1746 67.3252L36.2381 69.8635L39.0567 68.2033C39.0567 68.2033 36.9191 66.3572 34.1746 67.3252Z" fill="#EC8822"/>
<path d="M37.4709 74.7725L35.7475 73.7065L33.7118 74.0963C33.7118 74.0963 35.2722 75.7882 37.4709 74.7725Z" fill="#EC8822"/>
<path d="M62.9292 81.5171C54.8003 76.3872 76.6504 60.32 70.1259 56.2718C83.2935 53.6827 89.845 66.2358 88.5501 77.118C88.1315 80.6356 85.6552 83.3195 83.4747 83.0143C81.2945 82.7092 80.0259 78.9852 81.6525 76.9302C79.4338 79.5184 76.9691 85.1192 73.9361 83.3846C71.01 81.7111 70.9647 79.7206 71.8607 77.6947C69.4687 81.2559 66.5712 83.8155 62.9292 81.5171Z" fill="#989899"/>
</g>
<path d="M38.9672 118.731C38.6743 118.678 38.4077 118.479 38.2563 118.2L36.9916 115.704L34.7324 117.616C34.3204 117.945 33.6682 117.929 33.3391 117.517C33.01 117.105 33.0265 116.453 33.4385 116.123L36.6456 113.424C36.8848 113.215 37.1465 113.162 37.4882 113.223C37.7811 113.276 38.0477 113.475 38.1503 113.745L39.9717 117.349C40.2344 117.85 40.0314 118.418 39.5306 118.681C39.3665 118.752 39.1625 118.766 38.9672 118.731Z" fill="#EC8822"/>
<path d="M21 40.5C21 18.1325 39.1325 0 61.5 0C83.8675 0 102 18.1325 102 40.5V115H21V40.5Z" fill="url(#paint3_linear_4938_88075)" fill-opacity="0.6"/>
</g>
<defs>
<linearGradient id="paint0_linear_4938_88075" x1="47" y1="8" x2="6.50003" y2="79" gradientUnits="userSpaceOnUse">
<stop stop-color="#FFF8E0"/>
<stop offset="1" stop-color="#FFF8E1" stop-opacity="0"/>
</linearGradient>
<linearGradient id="paint1_linear_4938_88075" x1="61.5" y1="0" x2="61.5" y2="115" gradientUnits="userSpaceOnUse">
<stop stop-color="#E4FBF9"/>
<stop offset="1" stop-color="#D8F1EF"/>
</linearGradient>
<linearGradient id="paint2_linear_4938_88075" x1="72.5" y1="16.5" x2="74" y2="92.5" gradientUnits="userSpaceOnUse">
<stop stop-color="#A0D3CE"/>
<stop offset="0.660417" stop-color="#C7F2EE" stop-opacity="0"/>
</linearGradient>
<linearGradient id="paint3_linear_4938_88075" x1="71" y1="1.95332e-06" x2="21" y2="61.5" gradientUnits="userSpaceOnUse">
<stop stop-color="#FCF7E2"/>
<stop offset="1" stop-color="#FCF7E2" stop-opacity="0"/>
</linearGradient>
</defs>
</svg>
