<svg width="78" height="53" viewBox="0 0 78 53" fill="none" xmlns="http://www.w3.org/2000/svg">
<path d="M26.5883 46.5935L26.2695 49.3299L27.6208 49.4873L27.9396 46.7509L26.5883 46.5935Z" fill="#EC8822"/>
<path d="M25.6963 51.8775C25.9003 51.8435 26.0704 51.7415 26.2064 51.6054L27.1587 50.245L28.6212 51.2313C28.8933 51.4014 29.3354 51.3674 29.5735 51.1633C29.8115 50.9252 29.8115 50.5851 29.5395 50.4151L27.4648 49.0206C27.3288 48.9186 27.1247 48.8846 26.9206 48.9186C26.7166 48.9526 26.5465 49.0546 26.4445 49.1907L25.0501 51.1293C24.846 51.4014 24.982 51.7075 25.2881 51.8435C25.3902 51.9115 25.5602 51.9115 25.6963 51.8775Z" fill="#EC8822"/>
<path d="M16.2211 47.6736L15.9023 50.41L17.2537 50.5674L17.5724 47.831L16.2211 47.6736Z" fill="#EC8822"/>
<path d="M15.2862 52.9998C15.4903 52.9658 15.6603 52.8638 15.7964 52.6937L16.7486 51.3333L18.2111 52.3196C18.4832 52.4897 18.9253 52.4556 19.1634 52.2176C19.4015 51.9795 19.4015 51.6394 19.1294 51.4694L17.0547 50.0749C16.9187 49.9729 16.7146 49.9389 16.5106 49.9729C16.3065 50.0069 16.1365 50.1089 16.0344 50.245L14.64 52.1836C14.4359 52.4557 14.572 52.7617 14.8781 52.8978C15.0141 52.9998 15.1501 52.9998 15.2862 52.9998Z" fill="#EC8822"/>
<path d="M20.1164 5.92903C31.0678 5.79299 39.8766 14.0235 39.8426 24.3968C39.8085 36.0964 32.9724 44.7351 29.7754 47.0478C26.1703 49.7006 25.4561 46.5036 23.5855 46.5717C21.7489 46.6737 21.3408 47.3199 18.586 48.6803C17.5656 49.1905 15.7971 49.2245 14.2666 48.5783C6.88632 45.5854 1.61468 37.1167 1.51265 25.4851C1.37661 14.3637 9.74321 6.03107 20.1164 5.92903Z" fill="#E7E4E2"/>
<path d="M34.2323 34.906C34.9465 34.6339 35.4227 34.0217 35.6267 33.2735C35.8988 34.3278 35.3887 35.4501 34.4704 35.7903C33.5521 36.1304 32.5658 35.5862 32.1917 34.5659C32.8039 35.008 33.5521 35.1441 34.2323 34.906Z" fill="#989899"/>
<path d="M30.9676 40.0758C31.6478 39.8717 32.192 39.3275 32.4301 38.6813C32.6001 39.6336 32.022 40.5859 31.1377 40.858C30.2194 41.1301 29.3351 40.6199 29.063 39.6676C29.5732 40.1098 30.2874 40.2798 30.9676 40.0758Z" fill="#989899"/>
<path d="M25.9003 41.5042C26.8186 41.3342 27.5668 40.722 27.9749 39.9397C28.0769 41.1301 27.2267 42.2525 26.0363 42.4905C24.846 42.7286 23.7236 41.9804 23.5195 40.79C24.0977 41.4022 24.982 41.7083 25.9003 41.5042Z" fill="#989899"/>
<path d="M20.525 40.96C19.8108 40.7219 19.2666 40.1777 19.0965 39.5315C18.7904 40.4498 19.3006 41.4361 20.2529 41.7082C21.2052 41.9803 22.2255 41.5042 22.5996 40.6199C22.0214 41.028 21.2732 41.1981 20.525 40.96Z" fill="#989899"/>
<path d="M28.9577 36.4706C29.808 36.1645 30.4542 35.4843 30.7263 34.668C30.9983 35.8244 30.3521 37.0147 29.2298 37.4229C28.1074 37.797 26.9171 37.2188 26.543 36.0965C27.1892 36.5726 28.1074 36.7427 28.9577 36.4706Z" fill="#989899"/>
<path d="M16.7842 36.6748C16.036 36.4027 15.5598 35.7905 15.3897 35.0082C14.9816 36.0626 15.4237 37.1849 16.4101 37.525C17.3964 37.8651 18.5187 37.321 18.9949 36.3006C18.3487 36.7768 17.5324 36.9468 16.7842 36.6748Z" fill="#989899"/>
<path d="M22.772 37.559C21.8197 37.491 21.0034 36.9808 20.5613 36.1986C20.4933 37.457 21.4116 38.5113 22.6699 38.5793C23.9283 38.6473 25.0167 37.7291 25.2207 36.5047C24.6426 37.2189 23.7243 37.627 22.772 37.559Z" fill="#989899"/>
<path d="M17.363 7.39163C17.363 7.39163 15.3563 6.03122 13.0096 6.06523C11.003 6.09924 11.3771 4.56876 13.3497 5.04491C14.9482 5.45304 17.363 7.39163 17.363 7.39163Z" fill="#989899"/>
<path d="M18.5532 6.98363C18.5532 6.98363 18.3151 4.80696 19.4035 3.24247C20.1857 2.12012 19.3354 1.43991 18.7913 1.54194C17.805 1.67798 17.3969 3.27648 18.5532 6.98363Z" fill="#989899"/>
<path d="M19.5396 6.94947C19.5396 6.94947 21.5462 2.63013 23.6549 3.00425C25.1513 3.27633 21.2741 5.04487 19.5396 6.94947Z" fill="#989899"/>
<path d="M38.3133 19.2952C38.0072 13.9896 34.096 9.87432 29.5046 10.1124C27.7701 10.2144 26.2056 10.8946 24.9472 12.017C23.8589 12.9693 22.3284 13.1393 20.968 12.6292C19.7436 12.153 18.4172 11.881 16.9887 11.8469C10.7308 11.6769 5.6632 16.3363 5.59518 22.2202C5.52716 28.104 10.4587 32.8315 16.6826 32.7634C19.5735 32.7294 22.1583 31.7091 24.1309 30.0426C25.1853 29.1583 26.5457 28.8182 27.8381 29.2263C28.7564 29.5324 29.7087 29.6345 30.695 29.5664C35.2524 29.1583 38.6194 24.6009 38.3133 19.2952Z" fill="white"/>
<path d="M16.2415 24.7369C17.9883 24.7369 19.4045 23.3208 19.4045 21.5739C19.4045 19.8271 17.9883 18.4109 16.2415 18.4109C14.4946 18.4109 13.0785 19.8271 13.0785 21.5739C13.0785 23.3208 14.4946 24.7369 16.2415 24.7369Z" fill="#231F20"/>
<path d="M17.1923 21.3701C17.7746 21.3701 18.2466 20.8981 18.2466 20.3158C18.2466 19.7335 17.7746 19.2615 17.1923 19.2615C16.61 19.2615 16.138 19.7335 16.138 20.3158C16.138 20.8981 16.61 21.3701 17.1923 21.3701Z" fill="white"/>
<path d="M26.3098 23.6488C26.3098 23.6488 26.3778 24.7032 26.82 25.3834C26.82 25.3834 24.8814 25.0093 24.1331 22.3224L26.3098 23.6488Z" fill="#EC8822"/>
<path d="M26.6168 21.6083C26.6168 21.6083 26.2427 23.0707 26.4127 24.2951C26.4468 24.6012 25.9706 24.6352 25.7325 24.4652C24.8823 23.819 23.7939 22.7987 24.066 21.3702L26.6168 21.6083Z" fill="#D32E2E"/>
<path d="M27.1606 19.8735C27.1606 19.8735 27.9088 20.0096 28.657 21.8801C28.657 21.8801 26.9565 21.506 24.0316 21.336C24.0316 21.37 25.392 19.4314 27.1606 19.8735Z" fill="#EC8822"/>
<path d="M35.0134 16.8125C35.0134 16.8125 33.755 15.316 32.1905 15.6221C30.66 15.9622 29.3336 18.1729 29.2656 19.3293C29.2656 19.3293 31.0342 15.282 35.0134 16.8125Z" fill="#231F20"/>
<path d="M2.63753 29.8386C2.63753 29.8386 6.41272 29.0223 8.11325 33.7498C9.74575 38.2732 6.6848 40.6199 9.64372 45.9936C9.64372 45.9936 3.62384 44.3271 1.44716 40.1778C-1.10363 35.3823 -0.0152912 31.029 2.63753 29.8386Z" fill="#989899"/>
<path d="M38.6577 25.417L36.379 36.3684C36.0389 38.0689 37.3313 39.8715 39.2359 40.3476C41.2425 40.8578 43.0451 39.6674 43.1131 37.8308L43.4872 27.0495L38.6577 25.417Z" fill="#FCB316"/>
<path d="M35.5267 18.105L31.1053 19.7715C31.1053 19.7715 29.5748 24.7371 32.9419 28.8863C32.9419 28.8863 37.7714 28.0701 38.1455 28.1721C38.5196 28.3082 35.5267 18.105 35.5267 18.105Z" fill="#F78C1F"/>
<path d="M64.1628 15.9622C65.6593 26.8796 61.748 35.3482 56.8505 35.9604C51.3748 36.6746 46.2732 29.9746 44.4027 19.1252C42.6681 9.16009 46.2392 0.759493 51.7489 0.0452714C56.7485 -0.566919 62.7003 5.04482 64.1628 15.9622Z" fill="#FEF59F"/>
<path d="M40.6264 13.7858L40.4223 21.9484L43.3132 29.1246L52.7341 24.8733L49.8772 13.6498L40.6264 13.7858Z" fill="#FFD54F"/>
<path d="M52.209 25.0766C54.036 24.7308 55.0271 21.8622 54.4227 18.6695C53.8183 15.4768 51.8472 13.169 50.0202 13.5149C48.1932 13.8608 47.202 16.7294 47.8064 19.9221C48.4109 23.1147 50.3819 25.4225 52.209 25.0766Z" fill="#FFFEF8"/>
<path d="M44.4004 19.1252C43.5162 12.6292 45.1487 6.91544 47.1213 2.97021C43.7202 7.66367 40.4552 12.5612 32.7688 18.6831C32.7688 18.6831 31.1023 24.907 34.8435 28.7842C34.8435 28.7842 40.3532 29.0563 53.0051 35.1782C49.0939 32.4914 45.3867 26.2334 44.4004 19.1252Z" fill="#FBBF1F"/>
<path d="M42.738 26.3694C41.3435 24.5668 39.9491 23.5465 38.8267 24.941C38.0105 26.7435 40.7994 29.8725 40.7994 29.8725C40.7994 29.8725 38.7927 28.5121 38.1805 29.6684C37.5683 30.8248 38.2826 32.8654 41.0034 33.8517C41.0034 33.8517 39.541 33.3076 38.9628 34.4979C38.1806 36.1645 42.772 39.2254 43.2481 38.7153C45.2207 36.4706 44.5065 28.9882 42.738 26.3694Z" fill="#989899"/>
<line x1="67.7226" y1="7.58397" x2="76.7226" y2="1.58397" stroke="#FBC73B"/>
<line x1="69" y1="18.5" x2="78" y2="18.5" stroke="#FBC73B"/>
<line x1="67.1377" y1="29.5193" x2="77.5359" y2="32.499" stroke="#FBC73B"/>
</svg>
