<svg width="110" height="85" viewBox="0 0 110 85" fill="none" xmlns="http://www.w3.org/2000/svg">
<rect width="110" height="85" rx="12" fill="#F6F6F6"/>
<mask id="mask0" style="mask-type:alpha" maskUnits="userSpaceOnUse" x="0" y="0" width="110" height="85">
<rect width="110" height="85" rx="12" fill="white"/>
</mask>
<g mask="url(#mask0)">
<path d="M6.71714 60.6334C6.71714 60.6334 0.940697 63.403 0.465918 75.2724C-0.0879904 88.5662 11.7814 98.8531 24.5213 102.335L6.71714 60.6334Z" fill="#B2B2B2"/>
<path d="M103.73 60.6334C103.73 60.6334 109.506 63.403 109.981 75.2724C110.535 88.5662 98.6657 98.8531 85.9258 102.335L103.73 60.6334Z" fill="#B2B2B2"/>
<path d="M55.0652 7.29999C28.2402 7.29999 6.55859 28.7441 6.55859 55.0944C6.55859 82.7898 18.8237 102.889 36.3114 111.197C40.0305 112.938 44.3035 112.622 47.8644 110.723C50.0009 109.536 52.4539 108.903 55.0652 108.903C57.6765 108.903 60.1295 109.536 62.266 110.723C65.8268 112.701 70.1789 112.938 73.8189 111.197C91.3066 102.889 103.572 82.7898 103.572 55.0944C103.572 28.665 81.8111 7.29999 55.0652 7.29999Z" fill="#EEEDEB"/>
<path d="M76.2721 18.7738C71.5243 18.4573 66.9347 19.4859 63.0574 21.4642C57.9931 24.0755 52.0584 24.0755 46.994 21.4642C43.0376 19.4859 38.5272 18.4573 33.7794 18.7738C21.2769 19.6442 11.1482 29.7729 10.2778 42.2754C9.24912 57.0726 20.9603 69.4169 35.5202 69.4169C39.7141 69.4169 43.6706 68.3882 47.1523 66.5682C52.0584 64.036 57.9931 64.036 62.8991 66.5682C66.3808 68.3882 70.3373 69.4169 74.5312 69.4169C89.0911 69.4169 100.802 57.0726 99.7736 42.2754C98.9823 29.7729 88.7746 19.6442 76.2721 18.7738Z" fill="white"/>
<path fill-rule="evenodd" clip-rule="evenodd" d="M24.3629 81.1281C22.1473 80.3368 20.6439 78.5168 20.09 76.4594C19.1404 79.3872 20.6439 82.4733 23.4925 83.502C26.3412 84.5307 29.5064 83.1064 30.6933 80.2577C28.8733 81.5238 26.5786 81.9194 24.3629 81.1281ZM36.4699 96.1628C34.2543 95.3715 32.7508 93.5515 32.1969 91.4941C31.2473 94.4219 32.7508 97.508 35.5995 98.5366C38.4481 99.5653 41.6134 98.141 42.8003 95.2923C40.9803 96.5584 38.6855 96.9541 36.4699 96.1628ZM51.5044 96.0836C52.6913 97.9036 54.7487 99.1697 57.0435 99.2488C59.3382 99.3279 61.4747 98.2992 62.8199 96.5584C62.5826 99.5653 59.9713 101.939 56.9643 101.781C53.8783 101.623 51.5044 99.0905 51.5044 96.0836ZM75.4808 95.5297C77.6964 94.7384 79.1998 92.9184 79.7538 90.861C80.7033 93.7888 79.1999 96.8749 76.3512 97.9036C73.5025 98.9323 70.3373 97.5079 69.1504 94.6592C70.9704 95.9253 73.2651 96.321 75.4808 95.5297ZM38.0522 81.1281C38.9226 83.1063 40.7426 84.6098 43.0374 85.0845C45.3321 85.4802 47.6269 84.768 49.2095 83.3437C48.4182 86.2715 45.5695 88.1706 42.5626 87.6167C39.5556 86.9837 37.5774 84.135 38.0522 81.1281ZM85.4515 81.1281C87.6671 80.3368 89.1706 78.5168 89.7245 76.4594C90.6741 79.3872 89.1706 82.4733 86.3219 83.502C83.4733 84.5307 80.308 83.1064 79.1211 80.2577C80.9411 81.5238 83.2358 81.9194 85.4515 81.1281ZM71.7618 81.1281C70.8913 83.1063 69.0714 84.6098 66.7766 85.0845C64.4818 85.4802 62.1871 84.768 60.6045 83.3437C61.3958 86.2715 64.2444 88.1706 67.2514 87.6167C70.2583 86.9837 72.2366 84.135 71.7618 81.1281Z" fill="#D8D8D8"/>
<path d="M56.4111 13.3138C56.4111 13.3138 60.1303 8.96166 65.4319 7.61646C69.9423 6.42951 68.1224 3.26434 64.0076 5.5591C60.605 7.45822 56.4111 13.3138 56.4111 13.3138Z" fill="#BFBFC0"/>
<path d="M53.642 12.1269C53.642 12.1269 52.8507 7.0626 49.4481 4.21393C46.9951 2.15655 48.4986 0.0991892 49.6855 0.0200594C51.9803 -0.29646 53.8794 3.10611 53.642 12.1269Z" fill="#BFBFC0"/>
<path d="M51.3467 11.4147C51.3467 11.4147 44.1459 2.94783 39.6355 5.16346C36.4703 6.66693 46.2824 8.17041 51.3467 11.4147Z" fill="#BFBFC0"/>
</g>
<path d="M82.1789 69.4713C82.1789 76.294 69.8267 81.8248 54.5895 81.8248C39.3522 81.8248 27 76.294 27 69.4713C27 68.3305 27 65.3535 27 65.3535C27 65.3535 41.9 57.1179 54.5895 57.1179C67.937 57.1179 82.1789 66.1771 82.1789 66.1771C82.1789 66.1771 82.1789 68.6252 82.1789 69.4713Z" fill="url(#paint0_linear)"/>
<path d="M82.2563 65.8131C82.2563 72.8895 69.8867 78.6261 54.6281 78.6261C39.3695 78.6261 27 72.8895 27 65.8131C27 58.7366 39.3695 53 54.6281 53C69.8867 53 82.2563 58.7366 82.2563 65.8131Z" fill="#FCEF86"/>
<path d="M82.2563 65.8131C82.2563 72.8895 69.8867 78.6261 54.6281 78.6261C39.3695 78.6261 27 72.8895 27 65.8131C27 58.7366 39.3695 53 54.6281 53C69.8867 53 82.2563 58.7366 82.2563 65.8131Z" fill="#ECECEC"/>
<ellipse cx="54.6274" cy="65.813" rx="19.4653" ry="9.02738" fill="url(#paint1_linear)"/>
<g filter="url(#filter0_d)">
<path d="M55.2397 60.4121C57.551 60.4121 56.2315 61.7066 56.5566 61.7261C57.5566 61.786 58.3271 61.938 58.868 62.1822C59.5847 62.4963 59.943 62.9007 59.943 63.3956C59.943 63.8144 59.6922 64.1332 59.1905 64.352C58.7067 64.5709 57.999 64.6804 57.0672 64.6804C56.8164 64.6804 56.6462 64.6661 56.5566 64.6376C56.467 64.609 56.4222 64.5567 56.4222 64.4805C56.4222 64.3949 56.4043 64.2997 56.3685 64.195C56.3505 64.0808 56.2878 63.9761 56.1803 63.881C56.0907 63.7763 55.9384 63.6906 55.7234 63.624C55.5263 63.5574 55.2397 63.5241 54.8634 63.5241C54.3617 63.5241 53.9586 63.5907 53.654 63.7239C53.3494 63.8477 53.1971 64.0047 53.1971 64.195C53.1971 64.3949 53.3494 64.5567 53.654 64.6804C53.9765 64.7946 54.3707 64.904 54.8365 65.0087C55.3203 65.1134 55.8399 65.2228 56.3953 65.337C56.9508 65.4417 57.4614 65.5845 57.9273 65.7653C58.4111 65.9461 58.8052 66.1745 59.1098 66.4505C59.4324 66.717 59.5936 67.0643 59.5936 67.4926C59.5936 68.1778 59.1367 68.7393 58.2229 69.177C57.6012 69.4749 56.7681 69.6714 55.7234 69.7666C55.2326 69.8113 56.3416 71.1185 54.0571 71.1185C51.7726 71.1185 53.0268 69.8099 52.3639 69.7623C51.7189 69.7243 51.1007 69.6624 50.5094 69.5768C49.9182 69.4816 49.4165 69.3579 49.0044 69.2056C48.6102 69.0533 48.4131 68.863 48.4131 68.6346C48.4131 68.5489 48.44 68.4443 48.4937 68.3205C48.5654 68.1968 48.6639 68.0779 48.7894 67.9637C48.9327 67.8495 49.094 67.7543 49.2731 67.6782C49.4702 67.5925 49.7031 67.5497 49.9719 67.5497C50.1869 67.5497 50.384 67.5782 50.5632 67.6353C50.7424 67.6924 50.9484 67.7543 51.1813 67.8209C51.4322 67.878 51.7368 67.9351 52.0951 67.9922C52.4535 68.0493 52.9283 68.0779 53.5196 68.0779C53.9675 68.0779 54.3617 68.0493 54.7021 67.9922C55.0605 67.9351 55.2397 67.8066 55.2397 67.6068C55.2397 67.426 55.0963 67.2832 54.8096 67.1785C54.523 67.0643 54.1556 66.9596 53.7077 66.8645C53.2777 66.7693 52.8029 66.6694 52.2833 66.5647C51.7816 66.4505 51.3068 66.303 50.8588 66.1222C50.4288 65.9413 50.0705 65.7129 49.7838 65.437C49.4971 65.1515 49.3538 64.7851 49.3538 64.3378C49.3538 63.8524 49.5329 63.4432 49.8913 63.1101C50.2675 62.7675 50.7424 62.4915 51.3157 62.2822C51.907 62.0728 52.57 61.9253 53.3046 61.8396C54.0392 61.7445 53.3046 60.4121 55.2397 60.4121Z" fill="url(#paint2_linear)"/>
</g>
<path d="M76.8259 49.9509C80.8902 49.9509 84.185 46.6562 84.185 42.5918C84.185 38.5275 80.8902 35.2328 76.8259 35.2328C72.7616 35.2328 69.4668 38.5275 69.4668 42.5918C69.4668 46.6562 72.7616 49.9509 76.8259 49.9509Z" fill="#797677"/>
<path d="M74.9267 43.3831C76.3689 43.3831 77.538 42.214 77.538 40.7719C77.538 39.3297 76.3689 38.1606 74.9267 38.1606C73.4845 38.1606 72.3154 39.3297 72.3154 40.7719C72.3154 42.214 73.4845 43.3831 74.9267 43.3831Z" fill="white"/>
<path d="M25.6289 44.8075C25.6289 44.8075 27.9237 40.5345 31.801 40.5345C35.6784 40.5345 39.9514 45.2031 40.7427 47.8935C40.7427 47.8935 34.3332 39.031 25.6289 44.8075Z" fill="#797677"/>
<path d="M50.2383 50.7422L54.5113 57.2309L58.2304 50.7422C58.1513 50.7422 54.2739 48.8431 50.2383 50.7422Z" fill="#F1B578"/>
<defs>
<filter id="filter0_d" x="48.4131" y="60.4121" width="11.5299" height="11.7064" filterUnits="userSpaceOnUse" color-interpolation-filters="sRGB">
<feFlood flood-opacity="0" result="BackgroundImageFix"/>
<feColorMatrix in="SourceAlpha" type="matrix" values="0 0 0 0 0 0 0 0 0 0 0 0 0 0 0 0 0 0 127 0" result="hardAlpha"/>
<feOffset dy="1"/>
<feComposite in2="hardAlpha" operator="out"/>
<feColorMatrix type="matrix" values="0 0 0 0 0.72549 0 0 0 0 0.72549 0 0 0 0 0.72549 0 0 0 0.5 0"/>
<feBlend mode="normal" in2="BackgroundImageFix" result="effect1_dropShadow"/>
<feBlend mode="normal" in="SourceGraphic" in2="effect1_dropShadow" result="shape"/>
</filter>
<linearGradient id="paint0_linear" x1="78.1032" y1="64.6984" x2="72.0648" y2="86.6352" gradientUnits="userSpaceOnUse">
<stop stop-color="#D7D7D7"/>
<stop offset="1" stop-color="#B1B1B1"/>
</linearGradient>
<linearGradient id="paint1_linear" x1="48.0343" y1="57.1497" x2="53.8316" y2="77.2064" gradientUnits="userSpaceOnUse">
<stop stop-color="#D1D1D1"/>
<stop offset="0.993809" stop-color="white"/>
</linearGradient>
<linearGradient id="paint2_linear" x1="51.907" y1="62.2679" x2="53.3346" y2="70.4082" gradientUnits="userSpaceOnUse">
<stop stop-color="white"/>
<stop offset="0.0001" stop-color="white"/>
<stop offset="1" stop-color="#F1F1F1"/>
</linearGradient>
</defs>
</svg>
