<svg width="24" height="24" viewBox="0 0 24 24" fill="none" xmlns="http://www.w3.org/2000/svg">
<path d="M3.9457 3.92187L3.9455 3.92208C3.32813 4.5392 2.9957 5.34748 3.00004 6.20602L3.9457 3.92187ZM3.9457 3.92187C5.1296 2.73777 7.06703 2.68921 8.33493 3.80599M3.9457 3.92187L8.33493 3.80599M8.33493 3.80599L3.82676 8.31415C3.29544 7.73661 3.00444 6.99732 3.00004 6.20633L8.33493 3.80599Z" fill="white" stroke="#9F9F9F" stroke-width="2"/>
<path d="M20.464 3.92187L20.4642 3.92208C21.0815 4.5392 21.414 5.34748 21.4096 6.20602L20.464 3.92187ZM20.464 3.92187C19.2801 2.73777 17.3426 2.68921 16.0747 3.80599M20.464 3.92187L16.0747 3.80599M16.0747 3.80599L20.5829 8.31415C21.1142 7.73661 21.4052 6.99732 21.4096 6.20633L16.0747 3.80599Z" fill="white" stroke="#9F9F9F" stroke-width="2"/>
<circle cx="12" cy="14" r="7" fill="white" stroke="#9F9F9F" stroke-width="2"/>
<path d="M11.0786 21.5344C11.0786 21.5344 10.1406 20.2559 9.95368 19.194C9.42698 16.2025 11.4251 13.3504 14.4167 12.8237C16.5749 12.4437 18.2722 12.6733 19.5282 14.4621C17.5135 18.8784 14.4989 20.0379 11.0786 21.5344Z" fill="#F5F5F5"/>
<circle cx="12" cy="14" r="7" stroke="#9F9F9F" stroke-width="2"/>
<line x1="6" y1="19.4142" x2="4.41421" y2="21" stroke="#9F9F9F" stroke-width="2" stroke-linecap="round"/>
<line x1="1" y1="-1" x2="3.24264" y2="-1" transform="matrix(0.707107 0.707107 0.707107 -0.707107 18 18)" stroke="#9F9F9F" stroke-width="2" stroke-linecap="round"/>
<path d="M12 11V15H15.5" stroke="#9F9F9F" stroke-width="2" stroke-linecap="round" stroke-linejoin="round"/>
</svg>
