<svg width="225" height="133" viewBox="0 0 225 133" fill="none" xmlns="http://www.w3.org/2000/svg">
<path d="M4.78418 23.2161V10.3641C4.78418 7.0684 7.45586 4.39673 10.7515 4.39673H22.8507" stroke="#BECACF" stroke-width="2.98368" stroke-linecap="round"/>
<path d="M4.78418 110.525V123.377C4.78418 126.672 7.45586 129.344 10.7515 129.344H22.8507" stroke="#BECACF" stroke-width="2.98368" stroke-linecap="round"/>
<path d="M219.115 110.525V123.377C219.115 126.672 216.443 129.344 213.148 129.344H201.049" stroke="#BECACF" stroke-width="2.98368" stroke-linecap="round"/>
<path d="M219.115 23.2161V10.3641C219.115 7.0684 216.443 4.39673 213.148 4.39673H201.049" stroke="#BECACF" stroke-width="2.98368" stroke-linecap="round"/>
<rect x="11.4821" y="10.9917" width="200.935" height="111.95" rx="5.16691" fill="#107778"/>
<mask id="mask0_5789_51638" style="mask-type:alpha" maskUnits="userSpaceOnUse" x="11" y="10" width="202" height="113">
<rect x="11.4821" y="10.9917" width="200.935" height="111.95" rx="5.16691" fill="white"/>
</mask>
<g mask="url(#mask0_5789_51638)">
<path d="M11.4821 53.3316C11.4821 39.0636 23.0486 27.4971 37.3166 27.4971H212.417V53.3316H11.4821Z" fill="#0D6566"/>
<path d="M-0.448486 40.223H53.5828C73.3334 40.223 89.3445 56.2341 89.3445 75.9847V75.9847C89.3445 95.7354 73.3334 111.746 53.5828 111.746H-0.448486V40.223Z" stroke="url(#paint0_linear_5789_51638)" stroke-width="1.29173"/>
</g>
<path d="M11.4821 39.6011H52.004C71.2394 39.6011 86.8328 55.1944 86.8328 74.4299C86.8328 93.6653 71.2394 109.259 52.004 109.259H11.4821V39.6011Z" fill="url(#paint1_linear_5789_51638)"/>
<mask id="mask1_5789_51638" style="mask-type:alpha" maskUnits="userSpaceOnUse" x="11" y="39" width="76" height="71">
<path d="M11.4821 39.6011H52.004C71.2394 39.6011 86.8328 55.1944 86.8328 74.4299C86.8328 93.6653 71.2394 109.259 52.004 109.259H11.4821V39.6011Z" fill="#EEF8F7"/>
</mask>
<g mask="url(#mask1_5789_51638)">
<path d="M51.6919 73.6015C58.199 71.5201 61.7742 64.5967 59.6774 58.1376C57.5806 51.6785 50.6059 48.1296 44.0989 50.2109C37.5919 52.2922 34.0167 59.2156 36.1134 65.6748C38.2102 72.1339 45.1849 75.6828 51.6919 73.6015Z" fill="#12171A"/>
<path d="M91.2009 113.926C90.9626 108.507 83.4096 101.619 80.3423 93.3068C76.0246 81.6049 63.138 81.7678 63.138 81.7678H32.8947C32.8947 81.7678 20.055 81.6049 15.7334 93.3068C12.6661 101.619 5.47646 108.503 5.23811 113.926C5.0232 118.801 5.20294 130.425 23.8999 125.74L23.3567 132.993H72.0586L71.5194 125.818C90.7711 130.425 91.4197 118.906 91.2009 113.926Z" fill="#464F4F"/>
<path d="M38.154 70.9582C37.0169 70.9582 36.0401 70.1514 35.8252 69.0421C35.7079 68.4254 35.8369 67.7971 36.1964 67.2773C36.5519 66.7576 37.0912 66.4046 37.7163 66.2883C37.8648 66.2611 38.0133 66.2456 38.1618 66.2456C39.2988 66.2456 40.2757 67.0524 40.4906 68.1617C40.6078 68.7784 40.4789 69.4067 40.1194 69.9264C39.7638 70.4462 39.2246 70.7991 38.5994 70.9155C38.4548 70.9426 38.3025 70.9582 38.154 70.9582Z" fill="#FFA895"/>
<path d="M38.9316 69.7053C38.8105 69.7053 38.6894 69.6704 38.5878 69.5928L37.1499 68.565C36.8842 68.3749 36.8256 68.0103 37.017 67.7466C37.2085 67.4828 37.5758 67.4247 37.8415 67.6147L39.2794 68.6425C39.5451 68.8326 39.6037 69.1972 39.4123 69.4609C39.295 69.6238 39.1153 69.7053 38.9316 69.7053Z" fill="#F76D6D"/>
<path d="M57.4683 70.9582C58.6054 70.9582 59.5822 70.1514 59.7971 69.0421C59.9143 68.4254 59.7854 67.7971 59.4259 67.2773C59.0703 66.7576 58.5311 66.4046 57.9059 66.2883C57.7575 66.2611 57.609 66.2456 57.4605 66.2456C56.3234 66.2456 55.3466 67.0524 55.1317 68.1617C55.0145 68.7784 55.1434 69.4067 55.5029 69.9264C55.8585 70.4462 56.3977 70.7991 57.0229 70.9155C57.1713 70.9426 57.3198 70.9582 57.4683 70.9582Z" fill="#FFA895"/>
<path d="M56.6907 69.7053C56.5071 69.7053 56.3273 69.62 56.2101 69.4609C56.0187 69.1972 56.0812 68.8326 56.343 68.6425L57.7809 67.6147C58.0466 67.4247 58.4139 67.4867 58.6054 67.7466C58.7968 68.0103 58.7343 68.3749 58.4725 68.565L57.0385 69.5928C56.933 69.6704 56.8119 69.7053 56.6907 69.7053Z" fill="#F76D6D"/>
<path d="M54.1782 59.2988H40.3577C40.389 60.4081 39.8693 65.1478 38.8729 66.358C38.8729 66.358 39.0449 69.2592 39.0449 70.384C39.0449 79.4911 44.6168 80.3987 47.8639 80.3987C51.1109 80.3987 56.6829 79.4911 56.6829 70.384C56.6829 69.3368 56.9095 66.2455 56.9095 66.2455C56.3273 65.4891 55.9014 62.5336 55.6865 60.637C55.6005 59.8729 54.9519 59.2988 54.1782 59.2988Z" fill="#FFA895"/>
<path d="M54.1808 74.4753H41.6223V86.9142L47.5876 89.091L54.1808 86.9142V74.4753Z" fill="#FFA895"/>
<path d="M54.2174 63.8291C54.0845 63.8291 53.9517 63.7864 53.8423 63.6933C52.2559 62.394 50.9547 63.4839 50.8101 63.6119C50.5679 63.8291 50.1967 63.8136 49.9778 63.5731C49.759 63.3365 49.7707 62.968 50.0091 62.7469C50.7476 62.0643 52.6583 61.1955 54.5964 62.7857C54.8465 62.9913 54.8855 63.3636 54.6745 63.6119C54.5573 63.7554 54.3893 63.8291 54.2174 63.8291Z" fill="#12171A"/>
<path d="M41.4792 63.8873C41.3073 63.8873 41.1393 63.8136 41.0221 63.674C40.815 63.4257 40.8502 63.0534 41.1002 62.8478C43.0227 61.2731 44.9256 62.0023 45.6602 62.6112C45.9102 62.8168 45.9454 63.1892 45.7383 63.4374C45.5312 63.6856 45.16 63.7205 44.9099 63.5188C44.7615 63.4025 43.4564 62.4406 41.8544 63.7554C41.7449 63.8408 41.6121 63.8873 41.4792 63.8873Z" fill="#12171A"/>
<path d="M43.8201 109.259L37.5409 82.2041H38.4828L45.076 109.259H43.8201Z" fill="#107778"/>
<path d="M50.4133 109.259L57.3204 82.515H56.0646L49.4714 109.259H50.4133Z" fill="#107778"/>
<path d="M47.8482 80.9844C47.0628 80.9844 44.3433 80.8487 42.4052 79.1227C42.2177 78.9559 42.2098 78.6767 42.3896 78.5021C42.5693 78.3276 42.8663 78.3198 43.0538 78.4866C44.7418 79.9876 47.1527 80.1079 47.8521 80.1079C49.294 80.1079 51.3141 79.6812 52.6621 78.4866C52.8497 78.3198 53.1467 78.3276 53.3264 78.5021C53.5061 78.6767 53.4983 78.9559 53.3069 79.1227C51.3571 80.8487 48.6375 80.9844 47.8482 80.9844Z" fill="#F76D6D"/>
<path d="M35.9711 83.1826C36.9129 81.0058 39.7386 79.4509 41.6224 80.0729C38.7967 81.6277 45.3899 87.2252 47.5876 89.091L47.5876 89.0911L44.448 95.9324C44.448 95.9324 35.3527 84.6118 35.9711 83.1826Z" fill="#FDFDFD"/>
<path d="M59.2042 83.1826C58.2623 81.0058 56.3786 79.7619 54.4948 80.0729C57.3205 81.6278 49.7854 87.2253 47.5876 89.0911L50.4133 96.0707C50.4133 96.0707 59.8226 84.6118 59.2042 83.1826Z" fill="#FDFDFD"/>
<path d="M47.6217 72.106C47.5201 72.106 47.4185 72.0789 47.3247 72.0246C45.9454 71.2256 45.2655 70.5119 45.3046 69.9069C45.3319 69.4686 45.668 68.9527 46.215 68.1576C46.426 67.8512 46.7425 67.3896 46.7855 67.2422C46.9848 66.5286 46.7933 66.0554 46.7855 66.036C46.6487 65.7412 46.7855 65.396 47.0824 65.2641C47.3794 65.1284 47.7311 65.2641 47.8678 65.5589C47.9069 65.6442 48.2429 66.4277 47.9304 67.5525C47.8444 67.8667 47.5943 68.2352 47.1958 68.817C46.9652 69.1505 46.5979 69.6858 46.5041 69.9301C46.6643 70.1628 47.3013 70.6516 47.9225 71.0123C48.2039 71.1752 48.2976 71.5359 48.1335 71.8151C48.0202 72.0052 47.8248 72.106 47.6217 72.106Z" fill="#F76D6D"/>
<path d="M44.7883 73.2053L50.2274 73.1859C50.7978 73.1859 51.0948 73.8336 50.7158 74.2448C49.9734 75.0477 48.809 76.0134 47.5156 76.0212C46.2223 76.0251 45.054 75.0671 44.3037 74.2681C43.9247 73.8569 44.2217 73.2053 44.7883 73.2053Z" fill="white"/>
<path d="M51.6033 53.8882C51.1109 53.5896 50.5678 53.3956 50.0012 53.2909C50.181 52.938 50.3099 52.5229 50.3763 52.0497C50.4232 51.7162 50.4232 51.3749 50.3763 51.0413C50.2552 50.1686 49.8254 49.3386 49.1651 48.749C47.184 46.9842 43.9135 47.7638 43.1047 50.2345C41.4284 49.8622 39.588 50.0716 38.1501 50.9211C35.0124 52.7634 34.8522 57.2394 36.8841 60.0087C38.3845 62.0566 41.6511 62.7509 43.9291 61.983C44.9998 61.6222 45.9493 60.9357 46.6721 60.0514C47.5552 60.8969 48.8251 61.3352 50.0442 61.1723C51.9667 60.9163 53.4046 59.1244 53.4554 57.2355C53.4905 55.8547 52.7911 54.6058 51.6033 53.8882Z" fill="#12171A"/>
<path d="M52.3144 67.8358C52.7374 67.8358 53.0803 67.3895 53.0803 66.839C53.0803 66.2884 52.7374 65.8422 52.3144 65.8422C51.8915 65.8422 51.5486 66.2884 51.5486 66.839C51.5486 67.3895 51.8915 67.8358 52.3144 67.8358Z" fill="#12171A"/>
<path d="M43.0265 68.2392C43.4494 68.2392 43.7923 67.7929 43.7923 67.2424C43.7923 66.6919 43.4494 66.2456 43.0265 66.2456C42.6035 66.2456 42.2606 66.6919 42.2606 67.2424C42.2606 67.7929 42.6035 68.2392 43.0265 68.2392Z" fill="#12171A"/>
<path d="M54.1808 83.137C52.094 85.7869 47.5875 89.091 47.5875 89.091C47.5875 89.091 43.5338 85.6765 41.6224 83.137C40.5246 81.6786 40.3665 80.3383 41.6224 80.0729L41.6224 83.137C43.5338 85.6765 47.5875 89.091 47.5875 89.091C47.5875 89.091 52.094 85.7869 54.1808 83.137L54.1808 80.0729C55.7614 80.1847 55.3526 81.649 54.1808 83.137Z" fill="#A4A4A4"/>
</g>
<path d="M138.433 42.1547H141.862V42.8971H138.423C138.423 42.859 138.433 42.8305 138.433 42.7924V42.1547ZM141.862 41.3077H138.433V40.5368H141.862V41.3077ZM138.338 43.7537H141.862V44.4675C141.862 44.7149 141.749 44.8387 141.522 44.8387C141.239 44.8387 140.936 44.8196 140.615 44.7911L140.851 45.6857H141.805C142.467 45.6857 142.798 45.3907 142.798 44.8006V39.6802H138.518C138.678 39.4137 138.829 39.1282 138.981 38.8427H143.912V37.8814H139.406C139.51 37.5959 139.604 37.3008 139.699 36.9963L138.688 36.8726C138.584 37.2152 138.461 37.5483 138.319 37.8814H135.57V38.8427H137.847C137.223 39.9277 136.383 40.8984 135.315 41.7455L135.957 42.5925C136.524 42.1262 137.044 41.6218 137.516 41.0698V42.859C137.497 43.7727 137.204 44.5151 136.628 45.1052L137.337 45.7619C137.847 45.2098 138.187 44.5436 138.338 43.7537Z" fill="white"/>
<path d="M145.074 37.2342V45.7523H146.038V38.1669H147.219C146.983 38.9188 146.652 39.7659 146.236 40.7081C146.869 41.498 147.191 42.2119 147.191 42.8495C147.191 43.0018 147.153 43.1065 147.077 43.1636C147.002 43.2207 146.851 43.2493 146.624 43.2683C146.482 43.2683 146.303 43.2493 146.095 43.2112L146.416 44.22C147.115 44.2105 147.616 44.0773 147.899 43.8298C148.088 43.6395 148.183 43.3064 148.183 42.8495C148.135 42.2023 147.824 41.4409 147.238 40.5558C147.606 39.6612 147.928 38.8141 148.211 38.0147V37.2342H145.074ZM149.449 39.8515H151.839V40.6415H149.449V39.8515ZM151.839 38.9569H149.449V38.1574H151.839V38.9569ZM152.727 41.7931C152.368 42.2309 151.99 42.564 151.603 42.8019C151.452 42.5354 151.31 42.2404 151.187 41.9168L150.441 42.3356C150.97 43.8393 151.829 44.9529 153.001 45.6572L153.577 44.8006C152.992 44.477 152.491 44.0487 152.066 43.5062C152.538 43.2397 152.973 42.8876 153.351 42.4308L152.727 41.7931ZM149.449 41.5456H152.803V37.2247H148.476V44.458C148.476 44.5912 148.391 44.6769 148.239 44.734L148.476 45.6096C149.534 45.3431 150.412 45.0576 151.111 44.7625L150.875 43.8393C150.403 44.0678 149.931 44.2486 149.449 44.4009V41.5456Z" fill="white"/>
<path d="M156.79 37.2152C156.26 38.9093 155.429 40.2798 154.305 41.3077L155.089 41.9929C156.175 40.9651 157.045 39.4994 157.706 37.5864L156.79 37.2152ZM160.417 42.0596L159.529 42.3641C159.841 42.8686 160.143 43.4206 160.436 44.0106C159.227 44.201 157.989 44.3342 156.714 44.4199C157.489 43.3349 158.244 42.0215 158.981 40.4892L158.008 40.1466C156.78 42.8781 155.845 44.3152 155.212 44.458L155.382 45.4288C157.385 45.2955 159.208 45.1147 160.843 44.8672C160.965 45.1527 161.088 45.4478 161.211 45.7523L162.137 45.3336C161.655 44.1724 161.079 43.0779 160.417 42.0596ZM158.481 37.1866V38.1193H159.945C160.332 39.6612 161.079 40.9365 162.175 41.9549L162.949 41.2506C161.768 40.2132 161.022 38.8617 160.701 37.1866H158.481Z" fill="white"/>
<path d="M164.603 40.927V44.0868H168.986V40.927H164.603ZM168.042 43.2112H165.538V41.8026H168.042V43.2112ZM170.536 45.6762C171.254 45.6762 171.613 45.2955 171.613 44.5341V37.2342H164.338V38.186H170.63V44.2581C170.63 44.5817 170.526 44.753 170.319 44.753L168.977 44.7245L169.232 45.6762H170.536ZM163.809 39.1092V40.0133H169.846V39.1092H163.809Z" fill="white"/>
<path fill-rule="evenodd" clip-rule="evenodd" d="M115.684 45.021C117.584 45.021 119.124 43.3627 119.124 41.3171C119.124 39.2715 117.584 37.6133 115.684 37.6133C113.785 37.6133 112.245 39.2715 112.245 41.3171C112.245 43.3627 113.785 45.021 115.684 45.021ZM115.684 46.5026C118.344 46.5026 120.499 44.181 120.499 41.3171C120.499 38.4533 118.344 36.1317 115.684 36.1317C113.025 36.1317 110.869 38.4533 110.869 41.3171C110.869 44.181 113.025 46.5026 115.684 46.5026Z" fill="white"/>
<path fill-rule="evenodd" clip-rule="evenodd" d="M127.907 45.021C129.953 45.021 131.611 43.3627 131.611 41.3171C131.611 39.2715 129.953 37.6133 127.907 37.6133C125.862 37.6133 124.203 39.2715 124.203 41.3171C124.203 43.3627 125.862 45.021 127.907 45.021ZM127.907 46.5026C130.771 46.5026 133.093 44.181 133.093 41.3171C133.093 38.4533 130.771 36.1317 127.907 36.1317C125.043 36.1317 122.722 38.4533 122.722 41.3171C122.722 44.181 125.043 46.5026 127.907 46.5026Z" fill="white"/>
<rect width="5.59167" height="5.59167" transform="matrix(0.708371 -0.705841 0.708371 0.705841 95.6853 39.3379)" fill="white"/>
<rect width="2.79583" height="2.79583" transform="matrix(0.708371 -0.70584 0.708371 0.70584 93.5847 44.3416)" fill="#1CBEAD"/>
<rect width="4.19375" height="4.19375" transform="matrix(0.70837 -0.705841 0.70837 0.705841 99.8866 46.0259)" fill="#8AFFFA"/>
<path d="M156.962 89.9305L154.922 98.5421H154.081L156.114 89.9305H156.962Z" fill="white" fill-opacity="0.3"/>
<path d="M106.285 91.007H107.676V91.8746H106.285V91.007ZM106.285 88.8863H107.676V89.7538H106.285V88.8863ZM110.949 88.8863V89.7538H109.51V88.8863H110.949ZM110.949 91.8746H109.51V91.007H110.949V91.8746ZM112.672 93.2241V87.5367H109.51V86.5406H113.209V84.934H109.51V83.4719H107.676V84.934H104.231L104.278 84.7894L103.045 84.0664L102.776 84.1467H99.3462V98.4617H100.974V85.8497H102.207C101.954 86.9422 101.622 88.34 101.306 89.3522C102.191 90.4286 102.397 91.4247 102.397 92.1638C102.397 92.6136 102.334 92.9349 102.16 93.0635C102.033 93.1599 101.891 93.192 101.717 93.2081C101.528 93.2081 101.306 93.2081 101.022 93.192C101.275 93.6419 101.417 94.3648 101.433 94.8147C101.812 94.8308 102.176 94.8147 102.444 94.7826C102.808 94.7183 103.108 94.6219 103.361 94.4452C103.851 94.0917 104.057 93.4169 104.057 92.3887C104.057 91.4569 103.851 90.3804 102.903 89.1594C103.282 88.099 103.709 86.6691 104.088 85.4159V86.5406H107.676V87.5367H104.642V93.2241H106.475C105.622 94.4934 104.325 95.6341 102.95 96.2607C103.361 96.6141 103.93 97.321 104.199 97.7709C105.558 97.0158 106.775 95.7626 107.676 94.3166V98.4617H109.51V94.2845C110.269 95.6662 111.28 96.9033 112.403 97.6584C112.687 97.1764 113.241 96.4856 113.636 96.1643C112.466 95.5377 111.36 94.4291 110.585 93.2241H112.672Z" fill="white"/>
<path d="M123.557 83.6808V96.0679C123.557 96.3731 123.431 96.4856 123.083 96.4856C122.735 96.5017 121.566 96.5017 120.538 96.4535C120.823 96.9836 121.17 97.8834 121.281 98.4457C122.814 98.4457 123.889 98.3814 124.632 98.0761C125.328 97.7709 125.596 97.2407 125.596 96.0679V83.6808H123.557ZM127.319 87.8741C128.568 90.2197 129.769 93.2402 130.086 95.1842L132.141 94.3648C131.745 92.3566 130.449 89.4486 129.169 87.1672L127.319 87.8741ZM119.416 87.3439C119.084 89.4325 118.294 92.2441 117.029 93.8668C117.519 94.0917 118.388 94.5416 118.863 94.8629C120.175 93.0956 121.028 90.1073 121.566 87.7134L119.416 87.3439Z" fill="white"/>
<path d="M139.707 86.0586V88.34H137.921V86.0586H139.707ZM137.921 92.4048V90.043H139.707V92.4048H137.921ZM141.446 94.1399V84.3234H136.182V95.5216H137.921V94.1399H141.446ZM144.718 91.6978C144.765 91.0713 144.781 90.4607 144.781 89.8984V89.6414H147.895V91.6978H144.718ZM147.895 85.8658V87.9223H144.781V85.8658H147.895ZM149.76 84.0985H142.931V89.8984C142.931 92.3084 142.726 95.3128 140.339 97.305C140.75 97.5299 141.493 98.1725 141.778 98.5421C143.374 97.2246 144.133 95.3128 144.496 93.4169H147.895V96.2446C147.895 96.5177 147.8 96.6141 147.5 96.6141C147.231 96.6302 146.283 96.6463 145.429 96.5981C145.698 97.08 145.998 97.9155 146.077 98.4457C147.405 98.4457 148.322 98.3975 148.938 98.0922C149.555 97.7709 149.76 97.2728 149.76 96.2607V84.0985Z" fill="white"/>
<path d="M165.141 90.4479V96.2081C165.141 96.9209 164.929 97.4843 164.505 97.8982C164.088 98.3121 163.537 98.5191 162.852 98.5191C162.167 98.5191 161.613 98.3121 161.188 97.8982C160.772 97.4843 160.563 96.9209 160.563 96.2081H161.847C161.855 96.5607 161.94 96.8404 162.104 97.0474C162.275 97.2544 162.525 97.3578 162.852 97.3578C163.18 97.3578 163.429 97.2544 163.6 97.0474C163.771 96.8328 163.857 96.553 163.857 96.2081V90.4479H165.141Z" fill="white"/>
<path d="M169.88 98.5421C169.3 98.5421 168.775 98.4079 168.306 98.1396C167.837 97.8637 167.468 97.4805 167.201 96.9899C166.933 96.4917 166.799 95.9168 166.799 95.2653C166.799 94.6215 166.936 94.0504 167.212 93.5522C167.487 93.054 167.863 92.6707 168.339 92.4025C168.816 92.1342 169.348 92.0001 169.936 92.0001C170.524 92.0001 171.056 92.1342 171.533 92.4025C172.009 92.6707 172.385 93.054 172.66 93.5522C172.936 94.0504 173.074 94.6215 173.074 95.2653C173.074 95.9092 172.932 96.4802 172.649 96.9784C172.366 97.4766 171.979 97.8637 171.488 98.1396C171.004 98.4079 170.468 98.5421 169.88 98.5421ZM169.88 97.4038C170.208 97.4038 170.513 97.3233 170.796 97.1624C171.086 97.0014 171.321 96.76 171.499 96.438C171.678 96.1161 171.767 95.7252 171.767 95.2653C171.767 94.8054 171.682 94.4183 171.51 94.1041C171.339 93.7822 171.112 93.5407 170.829 93.3797C170.546 93.2188 170.241 93.1383 169.914 93.1383C169.586 93.1383 169.281 93.2188 168.998 93.3797C168.723 93.5407 168.503 93.7822 168.339 94.1041C168.176 94.4183 168.094 94.8054 168.094 95.2653C168.094 95.9475 168.261 96.4764 168.596 96.8519C168.939 97.2199 169.367 97.4038 169.88 97.4038Z" fill="white"/>
<path d="M177.514 92.0001C177.983 92.0001 178.4 92.1035 178.765 92.3105C179.137 92.5174 179.427 92.824 179.636 93.2303C179.851 93.6365 179.959 94.1271 179.959 94.7019V98.4386H178.698V94.8974C178.698 94.3302 178.56 93.8971 178.285 93.5982C178.009 93.2916 177.633 93.1383 177.157 93.1383C176.68 93.1383 176.301 93.2916 176.018 93.5982C175.742 93.8971 175.605 94.3302 175.605 94.8974V98.4386H174.332V89.9305H175.605V92.8394C175.821 92.5711 176.092 92.3641 176.42 92.2185C176.755 92.0729 177.12 92.0001 177.514 92.0001Z" fill="white"/>
<path d="M184.687 92.0001C185.171 92.0001 185.603 92.1035 185.982 92.3105C186.369 92.5174 186.671 92.824 186.887 93.2303C187.102 93.6365 187.21 94.1271 187.21 94.7019V98.4386H185.949V94.8974C185.949 94.3302 185.811 93.8971 185.536 93.5982C185.26 93.2916 184.884 93.1383 184.408 93.1383C183.931 93.1383 183.552 93.2916 183.269 93.5982C182.994 93.8971 182.856 94.3302 182.856 94.8974V98.4386H181.583V92.1035H182.856V92.8279C183.064 92.5673 183.329 92.3641 183.649 92.2185C183.976 92.0729 184.322 92.0001 184.687 92.0001Z" fill="white"/>
<path d="M102.24 70.2998V70.9939H105.917V70.2998H102.24ZM102.051 72.1656V72.8597H104.342V75.8525C104.342 76.0092 104.229 76.0913 104.01 76.0913C103.694 76.0913 103.355 76.0764 103.008 76.0465L103.166 76.7406H104.259C104.794 76.7406 105.065 76.5018 105.065 76.0241V72.8597H106.241V72.1656H102.051ZM100.959 69.9341C100.612 70.6207 100.077 71.2177 99.3462 71.7327L99.5647 72.4417C100.529 71.785 101.207 71.0536 101.614 70.2326L100.959 69.9341ZM101.313 71.6432C100.906 72.4492 100.265 73.1507 99.4065 73.7478L99.6175 74.4494C99.9339 74.2329 100.22 74.009 100.492 73.7777V76.7705H101.192V73.0836C101.501 72.7253 101.757 72.3447 101.961 71.9417L101.313 71.6432Z" fill="#F5F7F8"/>
<path d="M108.177 72.2626V72.9642H107.175V73.5911H108.177V75.7704C107.793 75.845 107.409 75.9047 107.017 75.957L107.19 76.6287C108.109 76.4719 108.976 76.2779 109.782 76.0465V75.3823C109.473 75.4718 109.164 75.5539 108.848 75.6286V73.5911H109.82V72.9642H108.848V72.2626H109.481V71.6805L109.654 71.8969L110.114 71.4193C109.669 70.9043 109.195 70.4042 108.69 69.9191H108.215C107.793 70.6132 107.333 71.2103 106.836 71.7178L107.22 72.2477C107.318 72.1432 107.416 72.0387 107.514 71.9268V72.2626H108.177ZM107.582 73.8448L107.047 74.024C107.198 74.4867 107.318 74.9793 107.424 75.4868L107.951 75.3524C107.838 74.7852 107.718 74.2777 107.582 73.8448ZM109.398 73.8224C109.3 74.3449 109.179 74.7703 109.044 75.1061L109.541 75.2853C109.692 74.8972 109.82 74.4568 109.925 73.9568L109.398 73.8224ZM107.755 71.6506C108.027 71.3222 108.283 70.9715 108.516 70.5983C108.773 70.852 109.082 71.2028 109.458 71.6506H107.755ZM111.561 69.8893V71.8447H110.28V74.1732C110.265 75.039 110.076 75.748 109.707 76.3003L110.249 76.7928C110.702 76.1062 110.928 75.2181 110.943 74.1284V73.6657C111.124 73.6881 111.297 73.718 111.478 73.7553C111.779 73.815 112.073 73.8822 112.367 73.9643L112.6 73.4269C112.269 73.3373 112.005 73.2776 111.794 73.2328C111.598 73.203 111.319 73.1582 110.943 73.1134V72.4716H112.857V74.2329C112.254 74.3971 111.628 74.524 110.98 74.6061L111.139 75.2405C111.741 75.1285 112.314 74.9942 112.857 74.8449V75.8152C112.857 76.0167 112.774 76.1211 112.615 76.1211C112.42 76.1211 112.209 76.1062 111.983 76.0838L112.156 76.7406H112.826C113.294 76.7406 113.535 76.5092 113.535 76.054V71.8447H112.246V69.8893H111.561ZM110.506 70.1057L109.941 70.3744C110.189 70.7476 110.423 71.158 110.641 71.6133L111.176 71.3446C110.965 70.8968 110.739 70.4789 110.506 70.1057ZM113.248 70.046C113.098 70.4863 112.887 70.9267 112.623 71.367L113.15 71.6432C113.422 71.2103 113.648 70.77 113.821 70.3147L113.248 70.046Z" fill="#F5F7F8"/>
<path d="M118.598 70.1356V76.7555H119.292V70.7849H120.437C120.188 71.5685 119.94 72.2402 119.683 72.8C120.286 73.5015 120.588 74.0687 120.595 74.5016C120.588 74.7554 120.565 74.9196 120.52 74.9942C120.467 75.0763 120.354 75.1211 120.188 75.1285C120 75.1285 119.774 75.1136 119.503 75.0837L119.729 75.8301C120.369 75.8301 120.799 75.7256 121.01 75.5315C121.205 75.3375 121.303 74.9942 121.303 74.5016C121.296 74.0538 121.01 73.4866 120.444 72.8C120.723 72.1432 120.979 71.4342 121.221 70.6655V70.1356H118.598ZM114.642 70.561V71.2401H114.997C115.147 71.6655 115.283 72.1208 115.396 72.5985H114.507V73.2776H118.282V72.5985H117.438C117.604 72.1954 117.762 71.7402 117.898 71.2401H118.214V70.561H116.722C116.662 70.2923 116.602 70.0535 116.534 69.837L115.803 69.9564C115.878 70.143 115.953 70.3445 116.029 70.561H114.642ZM116.775 72.5985H116.059C115.938 72.091 115.81 71.6357 115.682 71.2401H117.212C117.084 71.7103 116.941 72.1656 116.775 72.5985ZM117.973 73.8374H114.906V76.7555H115.607V76.3824H117.265V76.7555H117.973V73.8374ZM115.607 75.7107V74.5091H117.265V75.7107H115.607Z" fill="#F5F7F8"/>
<path d="M126.262 70.6729L124.189 76.0017H125.063L125.568 74.6285H127.882L128.386 76.0017H129.268L127.196 70.6729H126.262ZM125.817 73.9568L126.714 71.5461H126.744L127.633 73.9568H125.817Z" fill="#F5F7F8"/>
<path d="M129.794 70.6729V76.0017H132.251C132.823 76.0017 133.268 75.8972 133.584 75.6883C133.954 75.4345 134.142 75.0464 134.142 74.5091C134.142 74.1508 134.052 73.8598 133.871 73.6433C133.69 73.4269 133.419 73.2851 133.064 73.2179C133.336 73.1209 133.539 72.9716 133.69 72.7776C133.841 72.5686 133.916 72.3149 133.916 72.0163C133.916 71.6058 133.773 71.2849 133.486 71.0461C133.185 70.7923 132.778 70.6729 132.251 70.6729H129.794ZM130.616 71.3446H132.047C132.409 71.3446 132.68 71.4043 132.846 71.5312C133.012 71.6506 133.095 71.8447 133.095 72.1133C133.095 72.397 133.012 72.6059 132.846 72.7403C132.68 72.8671 132.409 72.9343 132.032 72.9343H130.616V71.3446ZM130.616 73.5985H132.16C132.552 73.5985 132.846 73.6657 133.034 73.8075C133.223 73.9493 133.321 74.1807 133.321 74.4941C133.321 74.8001 133.193 75.024 132.951 75.1658C132.755 75.2703 132.484 75.33 132.138 75.33H130.616V73.5985Z" fill="#F5F7F8"/>
<path d="M137.303 70.5684C136.444 70.5684 135.796 70.8446 135.344 71.4118C134.937 71.9118 134.741 72.5537 134.741 73.3448C134.741 74.1508 134.93 74.7927 135.321 75.2703C135.766 75.8226 136.429 76.1062 137.311 76.1062C137.891 76.1062 138.388 75.942 138.803 75.6136C139.247 75.2629 139.526 74.7778 139.646 74.1583H138.848C138.742 74.5762 138.554 74.8897 138.283 75.0987C138.026 75.2927 137.695 75.3897 137.303 75.3897C136.7 75.3897 136.256 75.2032 135.969 74.83C135.698 74.4792 135.562 73.9866 135.562 73.3448C135.562 72.7253 135.698 72.2328 135.977 71.8745C136.271 71.479 136.708 71.2849 137.288 71.2849C137.68 71.2849 137.996 71.367 138.252 71.5387C138.509 71.7103 138.682 71.979 138.772 72.3372H139.571C139.488 71.7999 139.247 71.367 138.855 71.0536C138.448 70.7252 137.928 70.5684 137.303 70.5684Z" fill="#F5F7F8"/>
<path d="M141.699 70.6729C141.519 70.867 141.292 71.0386 141.021 71.2028C140.75 71.3521 140.501 71.4566 140.26 71.5163V72.3223C140.757 72.1805 141.172 71.9566 141.496 71.6506V76.0017H142.317V70.6729H141.699Z" fill="#F5F7F8"/>
<path d="M145.37 70.5684C144.798 70.5684 144.331 70.755 143.984 71.1431C143.645 71.5014 143.472 71.979 143.464 72.5761H144.285C144.3 72.1432 144.391 71.8223 144.572 71.5984C144.745 71.367 145.001 71.2551 145.34 71.2551C145.657 71.2551 145.905 71.3297 146.071 71.479C146.237 71.6282 146.32 71.8521 146.32 72.1507C146.32 72.4641 146.192 72.7552 145.951 73.0239C145.8 73.1806 145.544 73.3821 145.182 73.6359C144.572 74.0538 144.165 74.3747 143.969 74.6061C143.607 75.0091 143.434 75.4718 143.434 76.0017H147.141V75.2853H144.451C144.564 74.9942 144.911 74.6583 145.491 74.2777C146.026 73.9195 146.395 73.6359 146.606 73.4194C146.953 73.0388 147.134 72.6209 147.134 72.1581C147.134 71.6879 146.968 71.3073 146.644 71.0088C146.312 70.7102 145.883 70.5684 145.37 70.5684Z" fill="#F5F7F8"/>
<path d="M149.858 70.5684C149.331 70.5684 148.901 70.7102 148.57 71.0088C148.216 71.3073 148.02 71.7178 147.975 72.2477H148.781C148.811 71.9193 148.924 71.673 149.105 71.5088C149.286 71.3446 149.542 71.2625 149.866 71.2625C150.182 71.2625 150.431 71.3297 150.597 71.479C150.748 71.6208 150.83 71.8223 150.83 72.091C150.83 72.3596 150.74 72.5686 150.574 72.7104C150.408 72.8522 150.16 72.9268 149.828 72.9268H149.444V73.5388H149.836C150.19 73.5388 150.461 73.6135 150.642 73.7627C150.838 73.912 150.936 74.1434 150.936 74.4568C150.936 74.7255 150.838 74.9419 150.657 75.1211C150.446 75.3151 150.167 75.4196 149.821 75.4196C149.504 75.4196 149.248 75.33 149.052 75.1509C148.826 74.9569 148.713 74.6807 148.698 74.3225H147.869C147.914 74.9196 148.125 75.3748 148.502 75.6883C148.834 75.9644 149.278 76.1062 149.828 76.1062C150.401 76.1062 150.876 75.942 151.237 75.6286C151.576 75.3151 151.75 74.9121 151.75 74.4195C151.75 74.1061 151.659 73.8448 151.478 73.6433C151.313 73.4493 151.072 73.3 150.755 73.203C151.343 73.0089 151.644 72.6134 151.644 72.0313C151.644 71.576 151.478 71.2177 151.162 70.9565C150.83 70.6953 150.401 70.5684 149.858 70.5684Z" fill="#F5F7F8"/>
<path d="M154.866 70.6729L152.214 74.0762V74.8449H154.836V76.0017H155.62V74.8449H156.434V74.1956H155.62V70.6729H154.866ZM154.814 71.7029H154.836V74.1956H152.885L154.814 71.7029Z" fill="#F5F7F8"/>
<path d="M157.297 70.6729L157.003 73.6583H157.772C157.877 73.4642 158.021 73.3224 158.216 73.2328C158.397 73.1433 158.601 73.106 158.842 73.106C159.204 73.106 159.475 73.2105 159.671 73.4194C159.867 73.6284 159.965 73.9195 159.965 74.2926C159.965 74.6359 159.852 74.9046 159.626 75.1136C159.399 75.3151 159.121 75.4196 158.789 75.4196C158.488 75.4196 158.247 75.3524 158.066 75.2181C157.862 75.0688 157.742 74.8375 157.712 74.5389H156.905C156.943 75.0315 157.154 75.4271 157.538 75.7107C157.885 75.9719 158.299 76.1062 158.782 76.1062C159.317 76.1062 159.776 75.9495 160.161 75.636C160.567 75.2853 160.778 74.8375 160.778 74.2852C160.778 73.7105 160.613 73.2627 160.296 72.9343C159.98 72.6059 159.565 72.4417 159.06 72.4417C158.819 72.4417 158.593 72.479 158.397 72.5611C158.179 72.6358 157.99 72.7552 157.825 72.9268H157.802L157.96 71.3894H160.537V70.6729H157.297Z" fill="#F5F7F8"/>
<path d="M163.435 70.5684C162.817 70.5684 162.32 70.8371 161.958 71.3819C161.597 71.9193 161.423 72.6209 161.423 73.4866C161.423 74.3001 161.589 74.9345 161.921 75.3897C162.267 75.8674 162.765 76.1062 163.428 76.1062C163.955 76.1062 164.407 75.9271 164.769 75.5838C165.123 75.2405 165.304 74.8001 165.304 74.2702C165.304 73.7478 165.146 73.3149 164.837 72.9791C164.52 72.6507 164.098 72.4865 163.571 72.4865C163.285 72.4865 163.036 72.5388 162.825 72.6507C162.591 72.7627 162.403 72.9343 162.252 73.1731H162.222C162.215 73.1284 162.215 73.0985 162.215 73.0761C162.215 72.5537 162.32 72.1283 162.539 71.785C162.757 71.4193 163.051 71.2401 163.428 71.2401C163.97 71.2401 164.294 71.4939 164.407 72.0163H165.206C165.07 71.0461 164.475 70.5684 163.435 70.5684ZM163.405 73.1433C163.737 73.1433 164.008 73.2478 164.204 73.4567C164.4 73.6508 164.498 73.9269 164.498 74.2702C164.498 74.6061 164.392 74.8822 164.189 75.1061C163.993 75.3226 163.729 75.4345 163.398 75.4345C163.074 75.4345 162.81 75.33 162.614 75.1211C162.411 74.9121 162.313 74.6359 162.313 74.2926C162.313 73.9419 162.411 73.6657 162.606 73.4567C162.802 73.2478 163.066 73.1433 163.405 73.1433Z" fill="#F5F7F8"/>
<path d="M165.851 70.6729V71.4118H168.639L166.688 76.0017H167.562L169.468 71.3297V70.6729H165.851Z" fill="#F5F7F8"/>
<path d="M172.028 70.5684C171.456 70.5684 170.996 70.7177 170.664 71.0162C170.363 71.2849 170.212 71.6208 170.212 72.0163C170.212 72.2925 170.273 72.5238 170.393 72.7104C170.529 72.9119 170.732 73.0612 171.004 73.1657V73.1881C170.74 73.2478 170.521 73.397 170.34 73.6359C170.129 73.8896 170.024 74.1807 170.024 74.5165C170.024 74.9867 170.197 75.3674 170.544 75.6659C170.89 75.957 171.388 76.1062 172.028 76.1062C172.661 76.1062 173.159 75.957 173.513 75.6659C173.859 75.3674 174.033 74.9867 174.033 74.5165C174.033 74.1807 173.927 73.8896 173.716 73.6359C173.535 73.397 173.309 73.2478 173.053 73.1881V73.1657C173.324 73.0612 173.528 72.9119 173.663 72.7104C173.784 72.5238 173.844 72.2925 173.844 72.0163C173.844 71.6208 173.694 71.2849 173.392 71.0162C173.053 70.7177 172.601 70.5684 172.028 70.5684ZM172.028 71.2177C172.36 71.2177 172.624 71.2998 172.819 71.479C172.985 71.6282 173.076 71.8223 173.076 72.0462C173.076 72.2999 173 72.5014 172.865 72.6507C172.684 72.8298 172.405 72.9194 172.028 72.9194C171.644 72.9194 171.365 72.8298 171.192 72.6507C171.049 72.5014 170.981 72.2999 170.981 72.0462C170.981 71.8223 171.064 71.6282 171.237 71.479C171.433 71.2998 171.697 71.2177 172.028 71.2177ZM172.028 73.5239C172.42 73.5239 172.714 73.6209 172.925 73.815C173.121 73.9866 173.219 74.218 173.219 74.5165C173.219 74.7927 173.121 75.0166 172.925 75.1882C172.706 75.3599 172.405 75.4494 172.028 75.4494C171.644 75.4494 171.35 75.3599 171.147 75.1882C170.936 75.0166 170.838 74.7927 170.838 74.5165C170.838 74.218 170.936 73.9866 171.139 73.8075C171.335 73.6135 171.636 73.5239 172.028 73.5239Z" fill="#F5F7F8"/>
<defs>
<linearGradient id="paint0_linear_5789_51638" x1="30.5673" y1="66.6077" x2="101.828" y2="103.758" gradientUnits="userSpaceOnUse">
<stop stop-color="white"/>
<stop offset="1" stop-color="white" stop-opacity="0"/>
</linearGradient>
<linearGradient id="paint1_linear_5789_51638" x1="40.29" y1="47.9494" x2="61.7555" y2="116.885" gradientUnits="userSpaceOnUse">
<stop stop-color="white"/>
<stop offset="1" stop-color="#D8F5F5"/>
</linearGradient>
</defs>
</svg>
