<svg width="225" height="133" viewBox="0 0 225 133" fill="none" xmlns="http://www.w3.org/2000/svg">
<path d="M4.78418 23.2161V10.212C4.78418 7.0003 7.38775 4.39673 10.5994 4.39673H22.8507" stroke="#BECACF" stroke-width="2.90762" stroke-linecap="round"/>
<path d="M4.78418 110.525V123.529C4.78418 126.741 7.38775 129.344 10.5994 129.344H22.8507" stroke="#BECACF" stroke-width="2.90762" stroke-linecap="round"/>
<path d="M219.115 110.525V123.529C219.115 126.741 216.512 129.344 213.3 129.344H201.049" stroke="#BECACF" stroke-width="2.90762" stroke-linecap="round"/>
<path d="M219.115 23.2161V10.212C219.115 7.0003 216.512 4.39673 213.3 4.39673H201.049" stroke="#BECACF" stroke-width="2.90762" stroke-linecap="round"/>
<g clip-path="url(#clip0_5789_51656)">
<rect x="11.4821" y="123.107" width="112.351" height="200.935" rx="5.76158" transform="rotate(-90 11.4821 123.107)" fill="#107778"/>
<path d="M63.3363 123.107C43.4486 123.107 27.3264 106.985 27.3264 87.0975L27.3264 -77.8279H63.3363L63.3363 123.107Z" fill="#0D6566"/>
<path d="M51.8131 123.107V77.3749C51.8131 58.0838 67.4516 42.4452 86.7427 42.4452C106.034 42.4452 121.672 58.0838 121.672 77.3749V123.107H51.8131Z" fill="url(#paint0_linear_5789_51656)"/>
<mask id="mask0_5789_51656" style="mask-type:alpha" maskUnits="userSpaceOnUse" x="51" y="42" width="71" height="82">
<path d="M51.8131 123.107V77.3749C51.8131 58.0838 67.4516 42.4452 86.7427 42.4452C106.034 42.4452 121.672 58.0838 121.672 77.3749V123.107H51.8131Z" fill="#EEF8F7"/>
</mask>
<g mask="url(#mask0_5789_51656)">
<path d="M85.9355 77.8561C83.8467 71.3491 76.8985 67.7739 70.4162 69.8707C63.9339 71.9674 60.3723 78.9422 62.4611 85.4492C64.5499 91.9562 71.4981 95.5314 77.9804 93.4347C84.4626 91.3379 88.0243 84.3632 85.9355 77.8561Z" fill="#12171A"/>
<path d="M126.404 38.3472C120.966 38.5855 114.053 46.1385 105.711 49.2058C93.9676 53.5235 94.1311 66.4101 94.1311 66.4101V96.6534C94.1311 96.6534 93.9676 109.493 105.711 113.815C114.053 116.882 120.962 124.072 126.404 124.31C131.297 124.525 142.963 124.345 138.261 105.648L145.54 106.191V57.4895L138.339 58.0287C142.963 38.777 131.402 38.1283 126.404 38.3472Z" fill="#464F4F"/>
<path d="M83.2825 91.3941C83.2825 92.5312 82.4729 93.508 81.3596 93.7229C80.7407 93.8402 80.1101 93.7112 79.5885 93.3517C79.0669 92.9962 78.7127 92.4569 78.5959 91.8318C78.5687 91.6833 78.5531 91.5348 78.5531 91.3863C78.5531 90.2493 79.3627 89.2724 80.476 89.0575C81.0949 88.9403 81.7255 89.0692 82.2471 89.4287C82.7687 89.7843 83.1229 90.3235 83.2397 90.9487C83.267 91.0933 83.2825 91.2456 83.2825 91.3941Z" fill="#FFA895"/>
<path d="M82.0253 90.6166C82.0253 90.7377 81.9903 90.8588 81.9124 90.9604L80.8809 92.3983C80.6902 92.664 80.3243 92.7227 80.0596 92.5312C79.7949 92.3397 79.7365 91.9724 79.9272 91.7067L80.9588 90.2688C81.1495 90.0031 81.5154 89.9445 81.7801 90.136C81.9436 90.2532 82.0253 90.4329 82.0253 90.6166Z" fill="#F76D6D"/>
<path d="M83.2825 72.0798C83.2825 70.9427 82.4729 69.9659 81.3596 69.751C80.7407 69.6338 80.1101 69.7627 79.5885 70.1222C79.0669 70.4777 78.7127 71.017 78.5959 71.6422C78.5687 71.7906 78.5531 71.9391 78.5531 72.0876C78.5531 73.2247 79.3627 74.2015 80.476 74.4164C81.0949 74.5336 81.7255 74.4047 82.2471 74.0452C82.7687 73.6896 83.1229 73.1504 83.2397 72.5252C83.267 72.3768 83.2825 72.2283 83.2825 72.0798Z" fill="#FFA895"/>
<path d="M82.0253 72.8574C82.0253 73.041 81.9397 73.2207 81.7801 73.338C81.5154 73.5294 81.1495 73.4669 80.9588 73.2051L79.9272 71.7672C79.7365 71.5015 79.7988 71.1342 80.0596 70.9427C80.3243 70.7513 80.6902 70.8138 80.8809 71.0756L81.9124 72.5096C81.9903 72.6151 82.0253 72.7362 82.0253 72.8574Z" fill="#F76D6D"/>
<path d="M71.5815 75.3699V89.1904C72.6948 89.1591 77.4515 89.6788 78.666 90.6752C78.666 90.6752 81.5776 90.5032 82.7064 90.5032C91.8461 90.5032 92.757 84.9313 92.757 81.6842C92.757 78.4372 91.8461 72.8652 82.7064 72.8652C81.6555 72.8652 78.5531 72.6386 78.5531 72.6386C77.794 73.2208 74.8279 73.6467 72.9245 73.8616C72.1576 73.9476 71.5815 74.5962 71.5815 75.3699Z" fill="#FFA895"/>
<path d="M86.8125 75.3673V87.9258H99.2959L101.481 81.9605L99.2959 75.3673H86.8125Z" fill="#FFA895"/>
<path d="M76.128 75.3307C76.128 75.4636 76.0852 75.5964 75.9918 75.7058C74.6878 77.2922 75.7816 78.5934 75.91 78.738C76.128 78.9802 76.1125 79.3514 75.8711 79.5703C75.6337 79.7891 75.2639 79.7773 75.042 79.539C74.3569 78.8005 73.485 76.8898 75.0809 74.9517C75.2872 74.7016 75.6609 74.6626 75.91 74.8736C76.0541 74.9908 76.128 75.1588 76.128 75.3307Z" fill="#12171A"/>
<path d="M76.1864 88.0689C76.1864 88.2408 76.1125 88.4088 75.9723 88.526C75.7232 88.7331 75.3495 88.6979 75.1432 88.4479C73.5628 86.5254 74.2946 84.6225 74.9058 83.8879C75.1121 83.6379 75.4858 83.6027 75.7349 83.8098C75.984 84.0169 76.019 84.3881 75.8166 84.6382C75.6999 84.7866 74.7345 86.0917 76.0541 87.6937C76.1397 87.8032 76.1864 87.936 76.1864 88.0689Z" fill="#12171A"/>
<path d="M121.72 85.728L94.569 92.0072V91.0653L121.72 84.4721V85.728Z" fill="#107778"/>
<path d="M121.72 79.1348L94.881 72.2277V73.4835L121.72 80.0767V79.1348Z" fill="#107778"/>
<path d="M93.3448 81.6998C93.3448 82.4851 93.2085 85.2047 91.4764 87.1428C91.309 87.3303 91.0287 87.3381 90.8536 87.1584C90.6784 86.9787 90.6706 86.6817 90.838 86.4941C92.3444 84.8061 92.4651 82.3953 92.4651 81.6958C92.4651 80.254 92.0369 78.2339 90.838 76.8858C90.6706 76.6983 90.6784 76.4013 90.8536 76.2216C91.0287 76.0418 91.309 76.0497 91.4764 76.2411C93.2085 78.1909 93.3448 80.9105 93.3448 81.6998Z" fill="#F76D6D"/>
<path d="M95.5509 93.577C93.3663 92.6352 91.8059 89.8095 92.4301 87.9257C93.9905 90.7514 99.608 84.1582 101.481 81.9605L101.481 81.9605L108.346 85.1001C108.346 85.1001 96.9852 94.1954 95.5509 93.577Z" fill="#FDFDFD"/>
<path d="M95.5509 70.3439C93.3663 71.2858 92.1179 73.1695 92.43 75.0533C93.9904 72.2276 99.608 79.7627 101.481 81.9605L108.485 79.1348C108.485 79.1348 96.9852 69.7255 95.5509 70.3439Z" fill="#FDFDFD"/>
<path d="M84.4347 81.9264C84.4347 82.028 84.4075 82.1296 84.353 82.2234C83.5511 83.6027 82.8349 84.2826 82.2276 84.2435C81.7878 84.2162 81.2701 83.8801 80.4721 83.3331C80.1646 83.1221 79.7014 82.8056 79.5535 82.7626C78.8372 82.5633 78.3623 82.7548 78.3429 82.7626C78.047 82.8994 77.7006 82.7626 77.5683 82.4657C77.432 82.1687 77.5683 81.817 77.8641 81.6803C77.9497 81.6412 78.736 81.3052 79.8649 81.6177C80.1802 81.7037 80.55 81.9538 81.1338 82.3523C81.4686 82.5829 82.0058 82.9502 82.251 83.044C82.4846 82.8837 82.975 82.2468 83.337 81.6256C83.5005 81.3442 83.8625 81.2504 84.1428 81.4146C84.3335 81.5279 84.4347 81.7232 84.4347 81.9264Z" fill="#F76D6D"/>
<path d="M85.5378 84.7598L85.5183 79.3207C85.5183 78.7503 86.1684 78.4533 86.581 78.8323C87.3867 79.5747 88.356 80.7391 88.3638 82.0325C88.3677 83.3258 87.4062 84.4941 86.6043 85.2444C86.1917 85.6234 85.5378 85.3264 85.5378 84.7598Z" fill="white"/>
<path d="M66.1515 77.9448C65.8518 78.4372 65.6572 78.9803 65.5521 79.5469C65.1979 79.3671 64.7814 79.2382 64.3065 79.1717C63.9717 79.1249 63.6292 79.1249 63.2944 79.1717C62.4186 79.2929 61.5856 79.7227 60.9939 80.383C59.2228 82.3641 60.0052 85.6346 62.4848 86.4434C62.1111 88.1197 62.3213 89.9601 63.1737 91.398C65.0227 94.5356 69.5147 94.6959 72.294 92.664C74.3492 91.1636 75.046 87.897 74.2753 85.619C73.9133 84.5483 73.2243 83.5988 72.3368 82.876C73.1854 81.9929 73.6252 80.723 73.4617 79.5039C73.2048 77.5814 71.4065 76.1435 69.5108 76.0927C68.1251 76.0575 66.8717 76.757 66.1515 77.9448Z" fill="#12171A"/>
<path d="M80.1491 77.2337C80.1491 76.8107 79.7012 76.4678 79.1487 76.4678C78.5962 76.4678 78.1483 76.8107 78.1483 77.2337C78.1483 77.6566 78.5962 77.9995 79.1487 77.9995C79.7012 77.9995 80.1491 77.6566 80.1491 77.2337Z" fill="#12171A"/>
<path d="M80.5539 86.5215C80.5539 86.0985 80.106 85.7556 79.5535 85.7556C79.001 85.7556 78.5531 86.0985 78.5531 86.5215C78.5531 86.9445 79.001 87.2874 79.5535 87.2874C80.106 87.2874 80.5539 86.9445 80.5539 86.5215Z" fill="#12171A"/>
<path d="M95.5052 75.3673C98.1645 77.4541 101.481 81.9606 101.481 81.9606C101.481 81.9606 98.0538 86.0143 95.5052 87.9257C94.0415 89.0235 92.6964 89.1816 92.4301 87.9257L95.5052 87.9257C98.0538 86.0143 101.481 81.9606 101.481 81.9606C101.481 81.9606 98.1645 77.4541 95.5052 75.3673L92.4301 75.3673C92.5423 73.7866 94.0118 74.1955 95.5052 75.3673Z" fill="#A4A4A4"/>
</g>
<path d="M51.8131 127.429V76.2945C51.8131 56.009 68.2577 39.5644 88.5432 39.5644V39.5644C108.829 39.5644 125.273 56.0091 125.273 76.2945V127.429H51.8131Z" stroke="url(#paint1_linear_5789_51656)" stroke-width="1.25585"/>
<path d="M41.2086 43.8392V41.1589H41.7888V43.8466C41.7591 43.8466 41.7368 43.8392 41.707 43.8392H41.2086ZM40.5466 41.1589V43.8392H39.9441V41.1589H40.5466ZM42.4583 43.913V41.1589H43.0162C43.2096 41.1589 43.3063 41.2475 43.3063 41.4247C43.3063 41.6462 43.2914 41.8825 43.2691 42.1335L43.9683 41.9489V41.2032C43.9683 40.6863 43.7377 40.4279 43.2765 40.4279H39.2746V43.7727C39.0664 43.6472 38.8432 43.5291 38.6201 43.4109V39.5566H37.8688V43.0787C37.6456 42.9974 37.4151 42.9236 37.177 42.8498L37.0803 43.6398C37.3481 43.7211 37.6084 43.8171 37.8688 43.9278V46.0765H38.6201V44.297C39.468 44.7843 40.2268 45.4415 40.8888 46.2759L41.5508 45.7738C41.1863 45.3307 40.7921 44.9246 40.3607 44.5554H41.7591C42.4732 44.5702 43.0534 44.7991 43.5145 45.2495L44.0278 44.6957C43.5964 44.297 43.0757 44.0312 42.4583 43.913Z" fill="white"/>
<path d="M37.363 38.6483H44.0203V37.8952H38.0919V36.9722C38.6796 37.1568 39.3416 37.4152 40.078 37.7401C40.6954 37.2454 41.2533 36.9944 41.7516 36.9944C41.8707 36.9944 41.9525 37.0239 41.9971 37.083C42.0417 37.142 42.064 37.2602 42.0789 37.4374C42.0789 37.5482 42.064 37.6884 42.0343 37.8509L42.8228 37.5998C42.8153 37.0534 42.7112 36.6621 42.5178 36.4406C42.369 36.2929 42.1087 36.2191 41.7516 36.2191C41.2458 36.256 40.6508 36.4996 39.959 36.9574C39.2598 36.6695 38.5978 36.4184 37.9729 36.1969H37.363V38.6483ZM39.4085 35.2296V33.3615H40.0259V35.2296H39.4085ZM38.7093 33.3615V35.2296H38.0845V33.3615H38.7093ZM40.926 32.6674C41.2681 32.948 41.5285 33.2434 41.7144 33.5461C41.5062 33.6642 41.2756 33.775 41.0227 33.871L41.35 34.4543C42.5252 34.0408 43.3955 33.3689 43.946 32.4533L43.2765 32.0029C43.0236 32.4607 42.6889 32.852 42.2649 33.1843C42.0566 32.8151 41.7814 32.4754 41.4243 32.1801L40.926 32.6674ZM40.7326 35.2296V32.6083H37.3555V35.9902H43.0087C43.1129 35.9902 43.1798 36.0566 43.2244 36.1748L43.9088 35.9902C43.7005 35.1632 43.4773 34.4765 43.2468 33.9301L42.5252 34.1147C42.7038 34.4839 42.8451 34.853 42.9641 35.2296H40.7326Z" fill="white"/>
<path d="M37.3481 29.4924C38.6721 29.9059 39.7433 30.5556 40.5466 31.4343L41.0822 30.8215C40.2788 29.9723 39.1333 29.293 37.6382 28.7761L37.3481 29.4924ZM41.1342 26.657L41.3723 27.351C41.7665 27.1074 42.1979 26.8711 42.6591 26.6422C42.8079 27.5873 42.912 28.5546 42.979 29.5514C42.131 28.946 41.1045 28.3552 39.9069 27.7793L39.6391 28.5398C41.774 29.4997 42.8972 30.2307 43.0087 30.7255L43.7674 30.5926C43.6633 29.0272 43.522 27.6021 43.3286 26.3247C43.5517 26.2287 43.7823 26.1327 44.0203 26.0367L43.6931 25.3131C42.7856 25.6897 41.9302 26.1401 41.1342 26.657ZM37.3258 28.1706H38.0548V27.0261C39.2598 26.7234 40.2565 26.1401 41.0524 25.2836L40.502 24.6781C39.6912 25.6011 38.6349 26.1844 37.3258 26.4354V28.1706Z" fill="white"/>
<path d="M40.2491 23.3859H42.7186V19.9598H40.2491V23.3859ZM42.0343 20.6982V22.6549H40.9334V20.6982H42.0343ZM43.9608 18.7488C43.9608 18.1877 43.6633 17.9071 43.0682 17.9071H37.363V23.5927H38.1068V18.675H42.8525C43.1054 18.675 43.2393 18.7562 43.2393 18.9187L43.217 19.9672L43.9608 19.7678V18.7488ZM38.8283 24.0061H39.535V19.2879H38.8283V24.0061Z" fill="white"/>
<path fill-rule="evenodd" clip-rule="evenodd" d="M43.4488 61.9076C43.4488 60.3089 42.1528 59.0129 40.554 59.0129C38.9553 59.0129 37.6593 60.3089 37.6593 61.9076C37.6593 63.5064 38.9553 64.8024 40.554 64.8024C42.1528 64.8024 43.4488 63.5064 43.4488 61.9076ZM44.6067 61.9076C44.6067 59.6694 42.7923 57.855 40.554 57.855C38.3158 57.855 36.5013 59.6694 36.5013 61.9076C36.5013 64.1459 38.3158 65.9603 40.554 65.9603C42.7923 65.9603 44.6067 64.1459 44.6067 61.9076Z" fill="white"/>
<path fill-rule="evenodd" clip-rule="evenodd" d="M43.4488 52.0654C43.4488 50.4666 42.1528 49.1706 40.554 49.1706C38.9553 49.1706 37.6593 50.4666 37.6593 52.0654C37.6593 53.6641 38.9553 54.9601 40.554 54.9601C42.1528 54.9601 43.4488 53.6641 43.4488 52.0654ZM44.6067 52.0654C44.6067 49.8271 42.7923 48.0127 40.554 48.0127C38.3158 48.0127 36.5013 49.8271 36.5013 52.0654C36.5013 54.3036 38.3158 56.118 40.554 56.118C42.7923 56.118 44.6067 54.3036 44.6067 52.0654Z" fill="white"/>
<rect x="37.5831" y="76.8352" width="4.31995" height="4.31995" transform="rotate(-135 37.5831 76.8352)" fill="white"/>
<rect x="41.4557" y="78.4552" width="2.15998" height="2.15998" transform="rotate(-135 41.4557 78.4552)" fill="#1CBEAD"/>
<rect x="42.7593" y="73.5951" width="3.23996" height="3.23996" transform="rotate(-135 42.7593 73.5951)" fill="#8AFFFA"/>
<path d="M140.862 111.572H141.558V107.895H140.862V111.572ZM142.734 111.76H143.431V109.469H146.434C146.592 109.469 146.674 109.582 146.674 109.801C146.674 110.117 146.659 110.456 146.629 110.803L147.326 110.645V109.552C147.326 109.017 147.086 108.746 146.607 108.746H143.431V107.57H142.734V111.76ZM140.495 112.853C141.184 113.199 141.783 113.734 142.3 114.465L143.011 114.247C142.352 113.282 141.618 112.604 140.794 112.197L140.495 112.853ZM142.21 112.498C143.019 112.905 143.723 113.546 144.322 114.405L145.026 114.194C144.809 113.877 144.584 113.591 144.352 113.32H147.356V112.619H143.656C143.296 112.31 142.914 112.054 142.51 111.85L142.21 112.498Z" fill="#F5F7F8"/>
<path d="M142.832 105.634H143.536V106.636H144.165V105.634H146.352C146.427 106.018 146.487 106.403 146.539 106.794L147.213 106.621C147.056 105.702 146.861 104.835 146.629 104.029H145.963C146.052 104.338 146.135 104.647 146.21 104.963H144.165V103.991H143.536V104.963H142.832V104.33H142.248L142.465 104.157L141.985 103.697C141.469 104.142 140.967 104.617 140.48 105.122V105.596C141.176 106.018 141.776 106.478 142.285 106.975L142.817 106.591C142.712 106.493 142.607 106.395 142.495 106.297H142.832V105.634ZM144.42 106.229L144.599 106.764C145.064 106.614 145.558 106.493 146.067 106.387L145.933 105.86C145.363 105.973 144.854 106.094 144.42 106.229ZM144.397 104.413C144.921 104.511 145.348 104.632 145.685 104.767L145.865 104.27C145.476 104.119 145.034 103.991 144.532 103.886L144.397 104.413ZM142.218 106.056C141.888 105.785 141.536 105.528 141.161 105.295C141.416 105.039 141.768 104.73 142.218 104.353V106.056ZM140.45 102.251H142.412V103.532H144.749C145.618 103.547 146.33 103.735 146.884 104.104L147.378 103.562C146.689 103.11 145.798 102.884 144.704 102.869H144.24C144.262 102.688 144.292 102.514 144.33 102.334C144.39 102.032 144.457 101.738 144.539 101.444L144 101.211C143.91 101.542 143.85 101.806 143.805 102.017C143.775 102.213 143.731 102.492 143.686 102.869H143.041V100.955H144.809C144.974 101.558 145.101 102.183 145.184 102.831L145.82 102.673C145.708 102.07 145.573 101.497 145.423 100.955H146.397C146.599 100.955 146.704 101.038 146.704 101.196C146.704 101.392 146.689 101.603 146.667 101.829L147.326 101.655V100.985C147.326 100.518 147.094 100.277 146.637 100.277H142.412V101.565H140.45V102.251ZM140.667 103.306L140.937 103.871C141.311 103.622 141.723 103.389 142.18 103.17L141.91 102.635C141.461 102.846 141.042 103.072 140.667 103.306ZM140.607 100.563C141.049 100.714 141.491 100.925 141.933 101.188L142.21 100.661C141.776 100.39 141.334 100.164 140.877 99.9902L140.607 100.563Z" fill="#F5F7F8"/>
<path d="M140.697 95.213H147.341V94.5198H141.349V93.3744C142.135 93.6231 142.809 93.8717 143.371 94.1279C144.075 93.5251 144.644 93.2237 145.079 93.2162C145.333 93.2237 145.498 93.2463 145.573 93.2915C145.655 93.3443 145.7 93.4573 145.708 93.6231C145.708 93.8115 145.693 94.0375 145.663 94.3088L146.412 94.0827C146.412 93.4422 146.307 93.0127 146.112 92.8018C145.918 92.6058 145.573 92.5079 145.079 92.5079C144.629 92.5154 144.06 92.8018 143.371 93.3669C142.712 93.0881 142 92.8319 141.229 92.5908H140.697V95.213ZM141.124 99.1689H141.806V98.8147C142.233 98.664 142.689 98.5284 143.169 98.4154V99.3045H143.85V95.5294H143.169V96.3734C142.764 96.2076 142.307 96.0494 141.806 95.9137V95.5973H141.124V97.0892C140.854 97.1495 140.615 97.2098 140.397 97.2776L140.517 98.0085C140.705 97.9331 140.907 97.8578 141.124 97.7824V99.1689ZM143.169 97.0365V97.7523C142.659 97.8729 142.203 98.001 141.806 98.129V96.5994C142.277 96.7275 142.734 96.8707 143.169 97.0365ZM144.412 95.8384V98.9052H147.341V98.2044H146.966V96.5467H147.341V95.8384H144.412ZM146.292 98.2044H145.086V96.5467H146.292V98.2044Z" fill="#F5F7F8"/>
<path d="M141.236 87.5497L146.584 89.6219V88.7478L145.206 88.243V85.9297L146.584 85.4249V84.5433L141.236 86.6154V87.5497ZM144.532 87.9943L142.113 87.0976V87.0675L144.532 86.1784V87.9943Z" fill="#F5F7F8"/>
<path d="M141.236 84.0171H146.584V81.5607C146.584 80.988 146.479 80.5434 146.27 80.227C146.015 79.8577 145.626 79.6694 145.086 79.6694C144.727 79.6694 144.435 79.7598 144.217 79.9406C144 80.1215 143.858 80.3927 143.79 80.7469C143.693 80.4756 143.543 80.2722 143.349 80.1215C143.139 79.9708 142.884 79.8954 142.585 79.8954C142.173 79.8954 141.851 80.0386 141.611 80.3249C141.356 80.6263 141.236 81.0332 141.236 81.5607V84.0171ZM141.91 83.1958V81.7641C141.91 81.4024 141.97 81.1312 142.098 80.9654C142.218 80.7996 142.412 80.7167 142.682 80.7167C142.967 80.7167 143.176 80.7996 143.311 80.9654C143.438 81.1312 143.506 81.4024 143.506 81.7792V83.1958H141.91ZM144.172 83.1958V81.6511C144.172 81.2593 144.24 80.9654 144.382 80.777C144.524 80.5886 144.757 80.4907 145.071 80.4907C145.378 80.4907 145.603 80.6188 145.745 80.8599C145.85 81.0558 145.91 81.3271 145.91 81.6737V83.1958H144.172Z" fill="#F5F7F8"/>
<path d="M141.131 76.5082C141.131 77.3672 141.409 78.0152 141.978 78.4673C142.48 78.8742 143.124 79.0701 143.918 79.0701C144.727 79.0701 145.371 78.8818 145.85 78.4899C146.404 78.0454 146.689 77.3823 146.689 76.5007C146.689 75.9205 146.524 75.4232 146.195 75.0087C145.843 74.5642 145.356 74.2854 144.734 74.1648V74.9635C145.154 75.069 145.468 75.2574 145.678 75.5287C145.873 75.7849 145.97 76.1164 145.97 76.5082C145.97 77.111 145.783 77.5556 145.408 77.8419C145.056 78.1132 144.562 78.2488 143.918 78.2488C143.296 78.2488 142.802 78.1132 142.442 77.8344C142.045 77.5405 141.851 77.1035 141.851 76.5233C141.851 76.1315 141.933 75.815 142.105 75.5588C142.277 75.3026 142.547 75.1293 142.907 75.0389V74.2402C142.367 74.3231 141.933 74.5642 141.618 74.956C141.289 75.3629 141.131 75.8828 141.131 76.5082Z" fill="#F5F7F8"/>
<path d="M141.236 72.1119C141.431 72.2928 141.603 72.5188 141.768 72.7901C141.918 73.0613 142.023 73.31 142.083 73.5511H142.892C142.749 73.0538 142.525 72.6394 142.218 72.3154H146.584V71.494H141.236V72.1119Z" fill="#F5F7F8"/>
<path d="M141.131 68.4408C141.131 69.0135 141.319 69.4806 141.708 69.8273C142.068 70.1663 142.547 70.3396 143.146 70.3472V69.5259C142.712 69.5108 142.39 69.4204 142.165 69.2395C141.933 69.0662 141.821 68.81 141.821 68.4709C141.821 68.1545 141.895 67.9058 142.045 67.74C142.195 67.5743 142.42 67.4914 142.719 67.4914C143.034 67.4914 143.326 67.6195 143.596 67.8606C143.753 68.0113 143.955 68.2675 144.21 68.6292C144.629 69.2395 144.951 69.6464 145.184 69.8423C145.588 70.204 146.052 70.3773 146.584 70.3773V66.6701H145.865V69.3601C145.573 69.2471 145.236 68.9004 144.854 68.3202C144.495 67.7853 144.21 67.416 143.993 67.2051C143.611 66.8584 143.191 66.6776 142.727 66.6776C142.255 66.6776 141.873 66.8434 141.573 67.1674C141.274 67.4989 141.131 67.9284 141.131 68.4408Z" fill="#F5F7F8"/>
<path d="M141.131 63.9528C141.131 64.4803 141.274 64.9098 141.573 65.2413C141.873 65.5955 142.285 65.7914 142.817 65.8366V65.0304C142.487 65.0002 142.24 64.8872 142.075 64.7064C141.91 64.5255 141.828 64.2693 141.828 63.9453C141.828 63.6288 141.895 63.3802 142.045 63.2144C142.188 63.0637 142.39 62.9808 142.659 62.9808C142.929 62.9808 143.139 63.0712 143.281 63.237C143.423 63.4028 143.498 63.6514 143.498 63.983V64.3673H144.113V63.9754C144.113 63.6213 144.187 63.35 144.337 63.1692C144.487 62.9733 144.719 62.8753 145.034 62.8753C145.303 62.8753 145.521 62.9733 145.7 63.1541C145.895 63.3651 146 63.6439 146 63.9905C146 64.307 145.91 64.5632 145.73 64.7591C145.536 64.9851 145.259 65.0982 144.899 65.1132V65.9421C145.498 65.8969 145.955 65.6859 146.27 65.3092C146.547 64.9776 146.689 64.533 146.689 63.983C146.689 63.4103 146.524 62.9356 146.21 62.5739C145.895 62.2349 145.491 62.0615 144.996 62.0615C144.682 62.0615 144.42 62.152 144.217 62.3328C144.023 62.4986 143.873 62.7397 143.775 63.0562C143.581 62.4684 143.184 62.167 142.6 62.167C142.143 62.167 141.783 62.3328 141.521 62.6493C141.259 62.9808 141.131 63.4103 141.131 63.9528Z" fill="#F5F7F8"/>
<path d="M141.236 58.945L144.652 61.5973H145.423V58.9751H146.584V58.1915H145.423V57.3777H144.772V58.1915H141.236V58.945ZM142.27 58.9977V58.9751H144.772V60.9267L142.27 58.9977Z" fill="#F5F7F8"/>
<path d="M141.236 56.5141L144.232 56.8079V56.0394C144.038 55.9339 143.895 55.7907 143.805 55.5948C143.716 55.414 143.678 55.2105 143.678 54.9694C143.678 54.6077 143.783 54.3364 143.993 54.1405C144.202 53.9446 144.495 53.8467 144.869 53.8467C145.214 53.8467 145.483 53.9597 145.693 54.1857C145.895 54.4118 146 54.6906 146 55.0221C146 55.3235 145.933 55.5647 145.798 55.7455C145.648 55.949 145.416 56.0695 145.116 56.0997V56.9059C145.611 56.8682 146.008 56.6572 146.292 56.273C146.554 55.9263 146.689 55.5119 146.689 55.0297C146.689 54.4947 146.532 54.035 146.217 53.6508C145.865 53.2439 145.416 53.0329 144.862 53.0329C144.285 53.0329 143.835 53.1986 143.506 53.5151C143.176 53.8316 143.011 54.246 143.011 54.7509C143.011 54.992 143.049 55.218 143.131 55.414C143.206 55.6325 143.326 55.8209 143.498 55.9866V56.0092L141.955 55.851V53.274H141.236V56.5141Z" fill="#F5F7F8"/>
<path d="M141.131 50.3759C141.131 50.9938 141.401 51.4911 141.948 51.8528C142.487 52.2145 143.191 52.3878 144.06 52.3878C144.877 52.3878 145.513 52.222 145.97 51.8905C146.449 51.5439 146.689 51.0466 146.689 50.3835C146.689 49.856 146.509 49.4039 146.165 49.0422C145.82 48.6881 145.378 48.5072 144.847 48.5072C144.322 48.5072 143.888 48.6655 143.551 48.9744C143.221 49.2909 143.056 49.7129 143.056 50.2403C143.056 50.5266 143.109 50.7753 143.221 50.9863C143.334 51.2199 143.506 51.4082 143.746 51.5589V51.5891C143.701 51.5966 143.671 51.5966 143.648 51.5966C143.124 51.5966 142.697 51.4911 142.352 51.2726C141.985 51.0541 141.806 50.7602 141.806 50.3835C141.806 49.841 142.06 49.5169 142.585 49.4039V48.6052C141.611 48.7408 141.131 49.3361 141.131 50.3759ZM143.716 50.4061C143.716 50.0745 143.82 49.8033 144.03 49.6074C144.225 49.4115 144.502 49.3135 144.847 49.3135C145.184 49.3135 145.461 49.419 145.685 49.6224C145.903 49.8183 146.015 50.0821 146.015 50.4136C146.015 50.7376 145.91 51.0014 145.7 51.1973C145.491 51.4007 145.214 51.4987 144.869 51.4987C144.517 51.4987 144.24 51.4007 144.03 51.2048C143.82 51.0089 143.716 50.7452 143.716 50.4061Z" fill="#F5F7F8"/>
<path d="M141.236 47.9601H141.978V45.1721L146.584 47.1237V46.2497L141.895 44.3433H141.236V47.9601Z" fill="#F5F7F8"/>
<path d="M141.131 41.783C141.131 42.3557 141.281 42.8153 141.581 43.1469C141.851 43.4483 142.188 43.599 142.585 43.599C142.862 43.599 143.094 43.5387 143.281 43.4181C143.483 43.2825 143.633 43.079 143.738 42.8078H143.76C143.82 43.0715 143.97 43.29 144.21 43.4709C144.465 43.6818 144.757 43.7873 145.094 43.7873C145.566 43.7873 145.948 43.614 146.247 43.2674C146.539 42.9208 146.689 42.4235 146.689 41.783C146.689 41.1501 146.539 40.6528 146.247 40.2986C145.948 39.952 145.566 39.7787 145.094 39.7787C144.757 39.7787 144.465 39.8842 144.21 40.0952C143.97 40.276 143.82 40.5021 143.76 40.7582H143.738C143.633 40.487 143.483 40.2835 143.281 40.1479C143.094 40.0273 142.862 39.9671 142.585 39.9671C142.188 39.9671 141.851 40.1178 141.581 40.4192C141.281 40.7582 141.131 41.2104 141.131 41.783ZM141.783 41.783C141.783 41.4515 141.866 41.1877 142.045 40.9918C142.195 40.8261 142.39 40.7356 142.615 40.7356C142.869 40.7356 143.071 40.811 143.221 40.9466C143.401 41.1275 143.491 41.4063 143.491 41.783C143.491 42.1673 143.401 42.4461 143.221 42.6194C143.071 42.7626 142.869 42.8304 142.615 42.8304C142.39 42.8304 142.195 42.7475 142.045 42.5742C141.866 42.3783 141.783 42.1146 141.783 41.783ZM144.098 41.783C144.098 41.3912 144.195 41.0973 144.39 40.8863C144.562 40.6904 144.794 40.5925 145.094 40.5925C145.371 40.5925 145.596 40.6904 145.768 40.8863C145.94 41.1049 146.03 41.4063 146.03 41.783C146.03 42.1673 145.94 42.4612 145.768 42.6646C145.596 42.8756 145.371 42.9736 145.094 42.9736C144.794 42.9736 144.562 42.8756 144.382 42.6721C144.187 42.4762 144.098 42.1748 144.098 41.783Z" fill="#F5F7F8"/>
<path d="M164.884 56.8492L173.527 58.8897V59.73L164.884 57.6969V56.8492Z" fill="white" fill-opacity="0.3"/>
<path d="M165.965 107.526V106.135H166.835V107.526H165.965ZM163.836 107.526V106.135H164.707V107.526H163.836ZM163.836 102.863H164.707V104.301H163.836V102.863ZM166.835 102.863V104.301H165.965V102.863H166.835ZM168.19 101.14H162.482V104.301H161.482V100.602H159.87V104.301H158.402V106.135H159.87V109.581L159.725 109.533L158.999 110.766L159.08 111.035V114.465H173.446V112.837H160.789V111.604C161.885 111.857 163.288 112.189 164.304 112.505C165.384 111.62 166.384 111.414 167.125 111.414C167.577 111.414 167.899 111.478 168.028 111.651C168.125 111.778 168.157 111.92 168.174 112.094C168.174 112.284 168.174 112.505 168.157 112.79C168.609 112.537 169.334 112.394 169.786 112.379C169.802 111.999 169.786 111.636 169.754 111.367C169.689 111.003 169.592 110.703 169.415 110.45C169.06 109.96 168.383 109.755 167.351 109.755C166.416 109.755 165.336 109.96 164.11 110.909C163.046 110.529 161.611 110.102 160.353 109.723H161.482V106.135H162.482V109.17H168.19V107.336C169.463 108.19 170.608 109.486 171.237 110.861C171.592 110.45 172.301 109.881 172.753 109.612C171.995 108.253 170.737 107.036 169.286 106.135H173.446V104.301H169.254C170.64 103.542 171.882 102.531 172.64 101.408C172.156 101.124 171.463 100.571 171.14 100.176C170.511 101.345 169.399 102.452 168.19 103.226V101.14Z" fill="white"/>
<path d="M158.612 90.254H171.044C171.35 90.254 171.463 90.3805 171.463 90.7282C171.479 91.076 171.479 92.2457 171.431 93.2731C171.963 92.9886 172.866 92.6409 173.43 92.5302C173.43 90.9969 173.365 89.922 173.059 89.1791C172.753 88.4836 172.221 88.2149 171.044 88.2149H158.612V90.254ZM162.82 86.4919C165.174 85.2432 168.206 84.0418 170.157 83.7257L169.334 81.6708C167.319 82.066 164.401 83.3621 162.111 84.6425L162.82 86.4919ZM162.288 94.3954C164.384 94.7274 167.206 95.5177 168.835 96.7823C169.06 96.2923 169.512 95.4229 169.834 94.9487C168.061 93.6367 165.062 92.7831 162.659 92.2457L162.288 94.3954Z" fill="white"/>
<path d="M160.998 74.1045H163.288V75.8907H160.998V74.1045ZM167.367 75.8907H164.997V74.1045H167.367V75.8907ZM169.109 72.3657H159.257V77.6295H170.495V75.8907H169.109V72.3657ZM166.658 69.0937C166.029 69.0462 165.416 69.0304 164.852 69.0304H164.594V65.9164H166.658V69.0937ZM160.805 65.9164H162.869V69.0304H160.805V65.9164ZM159.031 64.0512V70.8799H164.852C167.271 70.8799 170.286 71.0853 172.285 73.4722C172.511 73.0612 173.156 72.3183 173.527 72.0338C172.204 70.4373 170.286 69.6785 168.383 69.315V65.9164H171.221C171.495 65.9164 171.592 66.0113 171.592 66.3116C171.608 66.5803 171.624 67.5288 171.576 68.3823C172.059 68.1136 172.898 67.8133 173.43 67.7343C173.43 66.4065 173.382 65.4897 173.075 64.8732C172.753 64.2567 172.253 64.0512 171.237 64.0512H159.031Z" fill="white"/>
<path d="M165.404 48.6703H171.184C171.9 48.6703 172.465 48.8824 172.88 49.3067C173.296 49.7236 173.504 50.2744 173.504 50.9592C173.504 51.644 173.296 52.1986 172.88 52.6229C172.465 53.0397 171.9 53.2482 171.184 53.2482V51.9641C171.538 51.9567 171.819 51.8711 172.027 51.7073C172.234 51.5361 172.338 51.2868 172.338 50.9592C172.338 50.6317 172.234 50.3823 172.027 50.2111C171.811 50.0399 171.53 49.9543 171.184 49.9543H165.404V48.6703Z" fill="white"/>
<path d="M173.527 43.931C173.527 44.5116 173.392 45.0364 173.123 45.5054C172.846 45.9743 172.461 46.3428 171.969 46.6108C171.469 46.8787 170.892 47.0127 170.238 47.0127C169.592 47.0127 169.019 46.875 168.519 46.5996C168.019 46.3242 167.634 45.9483 167.365 45.4719C167.096 44.9955 166.961 44.4633 166.961 43.8752C166.961 43.2871 167.096 42.7549 167.365 42.2785C167.634 41.8021 168.019 41.4262 168.519 41.1508C169.019 40.8754 169.592 40.7377 170.238 40.7377C170.884 40.7377 171.457 40.8791 171.957 41.162C172.457 41.4448 172.846 41.8319 173.123 42.3232C173.392 42.807 173.527 43.343 173.527 43.931ZM172.384 43.931C172.384 43.6035 172.304 43.2983 172.142 43.0154C171.98 42.7251 171.738 42.4907 171.415 42.312C171.092 42.1334 170.7 42.044 170.238 42.044C169.777 42.044 169.388 42.1296 169.073 42.3009C168.75 42.4721 168.507 42.6991 168.346 42.982C168.184 43.2648 168.104 43.57 168.104 43.8975C168.104 44.2251 168.184 44.5302 168.346 44.8131C168.507 45.0885 168.75 45.3081 169.073 45.4719C169.388 45.6356 169.777 45.7175 170.238 45.7175C170.923 45.7175 171.454 45.55 171.83 45.2151C172.2 44.8727 172.384 44.4446 172.384 43.931Z" fill="white"/>
<path d="M166.961 36.2972C166.961 35.8282 167.065 35.4114 167.273 35.0466C167.48 34.6744 167.788 34.3841 168.196 34.1757C168.604 33.9599 169.096 33.8519 169.673 33.8519H173.423V35.1136H169.869C169.3 35.1136 168.865 35.2513 168.565 35.5268C168.257 35.8022 168.104 36.1781 168.104 36.6545C168.104 37.1309 168.257 37.5105 168.565 37.7934C168.865 38.0688 169.3 38.2065 169.869 38.2065H173.423V39.4794H164.884V38.2065H167.804C167.534 37.9906 167.327 37.7189 167.18 37.3914C167.034 37.0564 166.961 36.6917 166.961 36.2972Z" fill="white"/>
<path d="M166.961 29.1243C166.961 28.6404 167.065 28.2087 167.273 27.8291C167.48 27.442 167.788 27.1405 168.196 26.9246C168.604 26.7088 169.096 26.6008 169.673 26.6008H173.423V27.8625H169.869C169.3 27.8625 168.865 28.0003 168.565 28.2757C168.257 28.5511 168.104 28.927 168.104 29.4034C168.104 29.8798 168.257 30.2594 168.565 30.5423C168.865 30.8177 169.3 30.9554 169.869 30.9554H173.423V32.2283H167.065V30.9554H167.792C167.53 30.747 167.327 30.4827 167.18 30.1627C167.034 29.8351 166.961 29.489 166.961 29.1243Z" fill="white"/>
</g>
<defs>
<linearGradient id="paint0_linear_5789_51656" x1="60.1856" y1="92.2688" x2="130.077" y2="71.8801" gradientUnits="userSpaceOnUse">
<stop stop-color="white"/>
<stop offset="1" stop-color="#D8F5F5"/>
</linearGradient>
<linearGradient id="paint1_linear_5789_51656" x1="78.9123" y1="97.079" x2="114.243" y2="25.946" gradientUnits="userSpaceOnUse">
<stop stop-color="white"/>
<stop offset="1" stop-color="white" stop-opacity="0"/>
</linearGradient>
<clipPath id="clip0_5789_51656">
<rect width="112.351" height="200.935" fill="white" transform="translate(11.4821 123.107) rotate(-90)"/>
</clipPath>
</defs>
</svg>
