<svg xmlns="http://www.w3.org/2000/svg" width="1833" height="684" viewBox="0 0 1833 684">
    <g fill="none" fill-rule="evenodd">
        <g fill="#107778">
            <g>
                <path d="M108.073 51.029C-44.63 163.779-10.407 331.007 57.908 420.09 126.223 509.173 236.784 684 689.602 684c452.817 0 402.733-123.797 624.182-109.198 221.45 14.599 468.178-79.085 509.831-273.339 41.653-194.253-60.563-285.288-203.378-300.59-142.814-15.303-160.731 175.77-267.466 176.988C1246.037 179.079 1219.602.872 1028.772.872S781.168 167.428 699.731 179.48c-81.438 12.05-147.866-30.153-207.716-79.92-59.85-49.767-200.19-159.61-383.942-48.53z" transform="translate(-150 -1887) translate(150 1887)"/>
            </g>
        </g>
    </g>
</svg>
