<svg xmlns="http://www.w3.org/2000/svg" xmlns:xlink="http://www.w3.org/1999/xlink" width="24" height="24" viewBox="0 0 24 24">
    <defs>
        <path id="augbizu9sa" d="M0 0L8.486 0 8.486 8.473 0 8.473z"/>
        <path id="yecfa7iejc" d="M0 0L19.5 0 19.5 11.028 0 11.028z"/>
    </defs>
    <g fill="none" fill-rule="evenodd">
        <g>
            <g>
                <g>
                    <path fill="#51638C" d="M4.266 1.292L0 8.473 0 9.686 19.5 9.686 19.5 8.473 15.844 1.564 14.325 1.292z" transform="translate(-480.000000, -192.000000) translate(480.000000, 192.000000) translate(2.250000, 2.250000)"/>
                    <g>
                        <path fill="#196CC7" d="M9.475 2.071v5.622c0 .43-.347.78-.776.78H0l3.581-6.768c.135-.254.398-.413.685-.413H8.7c.429 0 .776.349.776.779" transform="translate(-480.000000, -192.000000) translate(480.000000, 192.000000) translate(2.250000, 2.250000) translate(0.000005, 0.000000)"/>
                        <g transform="translate(-480.000000, -192.000000) translate(480.000000, 192.000000) translate(2.250000, 2.250000) translate(0.000005, 0.000000) translate(11.013770, 0.000000)">
                            <mask id="g2k70z9w5b" fill="#fff">
                                <use xlink:href="#augbizu9sa"/>
                            </mask>
                            <path fill="#00CDC3" d="M8.486 8.473L.632 6.992C.266 6.922 0 6.6 0 6.226V.78C0 .246.523-.13 1.026.042l3.37 1.15c.186.065.342.198.434.373l3.656 6.908z" mask="url(#g2k70z9w5b)"/>
                        </g>
                        <g transform="translate(-480.000000, -192.000000) translate(480.000000, 192.000000) translate(2.250000, 2.250000) translate(0.000005, 0.000000) translate(0.000087, 8.472423)">
                            <mask id="yfnuxtemqd" fill="#fff">
                                <use xlink:href="#yecfa7iejc"/>
                            </mask>
                            <path fill="#6A80CE" d="M19.5 0v9.939c0 .601-.486 1.089-1.084 1.089H1.084C.485 11.028 0 10.54 0 9.938V0h19.5z" mask="url(#yfnuxtemqd)"/>
                        </g>
                        <path fill="#51638C" d="M10.172 15.39c0 .034-.003.067-.009.1-.047.253-.268.445-.533.445H2.745c-.266 0-.486-.192-.534-.444-.006-.034-.009-.067-.009-.101 0-.044.005-.086.015-.127.057-.24.272-.418.528-.418H9.63c.256 0 .471.178.528.418.01.04.014.083.014.127M7.727 13.522c0 .035-.003.069-.01.101-.046.253-.267.445-.532.445h-4.44c-.265 0-.486-.192-.534-.445-.006-.032-.009-.066-.009-.1 0-.044.005-.087.015-.127.057-.24.272-.418.528-.418h4.44c.256 0 .47.178.527.418.01.04.015.083.015.126" transform="translate(-480.000000, -192.000000) translate(480.000000, 192.000000) translate(2.250000, 2.250000) translate(0.000005, 0.000000)"/>
                    </g>
                </g>
            </g>
        </g>
    </g>
</svg>
