<svg xmlns="http://www.w3.org/2000/svg" xmlns:xlink="http://www.w3.org/1999/xlink" width="24" height="24" viewBox="0 0 24 24">
    <defs>
        <path id="7z3tscls4a" d="M0 0L21 0 21 16.5 0 16.5z"/>
    </defs>
    <g fill="none" fill-rule="evenodd">
        <g>
            <g>
                <g>
                    <g transform="translate(-360.000000, -192.000000) translate(360.000000, 192.000000) translate(1.500000, 3.750000)">
                        <path fill="#FEC602" d="M15.488 5.157c-.555 0-1.004.44-1.004.985 0 .545.45.986 1.004.986s1.003-.441 1.003-.986c0-.544-.45-.985-1.003-.985zm2.409 2.365c-.555 0-1.005.442-1.005.986s.45.985 1.005.985c.554 0 1.004-.44 1.004-.985 0-.544-.45-.986-1.004-.986zm-4.818 0c-.555 0-1.004.442-1.004.986s.45.985 1.004.985 1.004-.44 1.004-.985c0-.544-.45-.986-1.004-.986zm2.409 2.366c-.555 0-1.004.441-1.004.985 0 .545.45.987 1.004.987s1.003-.442 1.003-.987c0-.544-.45-.985-1.003-.985zM7.35 5.157H4.725v2.061l-2.1.001v2.578h2.1v2.063H7.35V9.797h2.1V7.219h-2.1V5.156zM8.25 0h4.64c4.557 0 8.25 3.694 8.25 8.25s-3.693 8.25-8.25 8.25H8.25C3.694 16.5 0 12.806 0 8.25S3.694 0 8.25 0z"/>
                    </g>
                    <path fill="#196CC7" d="M15.488 5.157c.554 0 1.003.44 1.003.985 0 .545-.45.986-1.003.986-.555 0-1.004-.441-1.004-.986 0-.544.45-.985 1.004-.985" transform="translate(-360.000000, -192.000000) translate(360.000000, 192.000000) translate(1.500000, 3.750000)"/>
                    <path fill="#FFED0F" d="M15.488 9.888c.554 0 1.003.441 1.003.985 0 .545-.45.987-1.003.987-.555 0-1.004-.442-1.004-.987 0-.544.45-.985 1.004-.985" transform="translate(-360.000000, -192.000000) translate(360.000000, 192.000000) translate(1.500000, 3.750000)"/>
                    <path fill="#00CDC3" d="M13.079 7.522c.554 0 1.003.441 1.003.986 0 .544-.45.986-1.003.986-.554 0-1.004-.442-1.004-.986 0-.545.45-.986 1.004-.986" transform="translate(-360.000000, -192.000000) translate(360.000000, 192.000000) translate(1.500000, 3.750000)"/>
                    <path fill="#FF625E" d="M17.897 7.522c.554 0 1.003.441 1.003.986 0 .544-.45.986-1.003.986-.554 0-1.004-.442-1.004-.986 0-.545.45-.986 1.004-.986" transform="translate(-360.000000, -192.000000) translate(360.000000, 192.000000) translate(1.500000, 3.750000)"/>
                    <path fill="#107778" d="M7.35 5.157L7.35 7.218 9.45 7.219 9.45 9.797 7.35 9.797 7.35 11.86 4.725 11.86 4.724 9.797 2.625 9.797 2.625 7.219 4.724 7.218 4.725 5.157z" transform="translate(-360.000000, -192.000000) translate(360.000000, 192.000000) translate(1.500000, 3.750000)"/>
                </g>
            </g>
        </g>
    </g>
</svg>
