<svg xmlns="http://www.w3.org/2000/svg" xmlns:xlink="http://www.w3.org/1999/xlink" width="24" height="24" viewBox="0 0 24 24">
    <defs>
        <path id="b3kmlq62ea" d="M0 0L20.249 0 20.249 13.139 0 13.139z"/>
    </defs>
    <g fill="none" fill-rule="evenodd">
        <g>
            <g>
                <g>
                    <g transform="translate(-510.000000, -192.000000) translate(510.000000, 192.000000) translate(1.875000, 2.767517) translate(0.000000, 5.278218)">
                        <mask id="9nrk5s76db" fill="#fff">
                            <use xlink:href="#b3kmlq62ea"/>
                        </mask>
                        <path fill="#FF99B9" d="M20.249 1.845l-1.73 9.449c0 1.015-.831 1.845-1.846 1.845H3.576c-1.015 0-1.846-.83-1.846-1.845L0 1.844C0 .83.83 0 1.845 0h16.559c1.014 0 1.845.83 1.845 1.845" mask="url(#9nrk5s76db)"/>
                    </g>
                    <path fill="#107778" d="M9.083.357l.072-.062-.024.022-.048.04M10.697.295l.072.062-.048-.04-.024-.022M14.885 6.866l-.072.062.024-.022.048-.04" transform="translate(-510.000000, -192.000000) translate(510.000000, 192.000000) translate(1.875000, 2.767517)"/>
                    <path fill="#FF625E" d="M9.155.295L9.13.317l-.048.04.072-.062zm1.542 0l.072.062-.048-.04-.024-.022zm4.233 4.773L10.894.439C10.635.143 10.268-.007 9.9 0c-.367-.007-.735.142-.994.44L4.87 5.067c-.462.53-.411 1.34.113 1.807.457.38 1.108.39 1.575.056.08-.056.154-.123.22-.2L9.9 3.152l3.122 3.58c.066.076.14.143.22.198v.001c.467.335 1.118.325 1.575-.056.524-.468.575-1.277.113-1.807z" transform="translate(-510.000000, -192.000000) translate(510.000000, 192.000000) translate(1.875000, 2.767517)"/>
                    <path fill="#107778" d="M5.015 6.906l.024.022-.072-.062.048.04M9.083.357l.072-.062-.024.022-.048.04M10.77.357l-.049-.04-.024-.022.072.062z" transform="translate(-510.000000, -192.000000) translate(510.000000, 192.000000) translate(1.875000, 2.767517)"/>
                    <path fill="#C082E8" d="M5.17 7.028c-.075-.053-.142-.113-.21-.172l.27.232c-.022-.015-.037-.038-.06-.06m0 0c-.075-.053-.142-.113-.21-.172l.27.232c-.022-.015-.037-.038-.06-.06m0 0c-.075-.053-.142-.113-.21-.172l.27.232c-.022-.015-.037-.038-.06-.06" transform="translate(-510.000000, -192.000000) translate(510.000000, 192.000000) translate(1.875000, 2.767517)"/>
                    <path fill="#00CDC3" d="M8.394 15.378c0 .883-.716 1.6-1.6 1.6-.882 0-1.598-.717-1.598-1.6 0-.883.716-1.599 1.599-1.599s1.599.716 1.599 1.6" transform="translate(-510.000000, -192.000000) translate(510.000000, 192.000000) translate(1.875000, 2.767517)"/>
                    <path fill="#FFED0F" d="M10.795 15.942c0 .482-.39.872-.872.872-.481 0-.872-.39-.872-.872 0-.481.39-.872.872-.872s.872.39.872.872" transform="translate(-510.000000, -192.000000) translate(510.000000, 192.000000) translate(1.875000, 2.767517)"/>
                    <path fill="#196CC7" d="M15.279 14.685c0 1.176-.953 2.129-2.129 2.129-1.176 0-2.129-.953-2.129-2.129 0-1.176.953-2.129 2.129-2.129 1.176 0 2.129.953 2.129 2.13" transform="translate(-510.000000, -192.000000) translate(510.000000, 192.000000) translate(1.875000, 2.767517)"/>
                </g>
            </g>
        </g>
    </g>
</svg>
