<svg xmlns="http://www.w3.org/2000/svg" xmlns:xlink="http://www.w3.org/1999/xlink" width="24" height="24" viewBox="0 0 24 24">
    <defs>
        <path id="4zz0umf4ia" d="M0 0L19.5 0 19.5 14.276 0 14.276z"/>
    </defs>
    <g fill="none" fill-rule="evenodd">
        <g>
            <g>
                <g>
                    <g transform="translate(-540.000000, -192.000000) translate(540.000000, 192.000000) translate(2.250000, 2.250000) translate(0.000000, 5.223671)">
                        <mask id="4x78zxcz3b" fill="#fff">
                            <use xlink:href="#4zz0umf4ia"/>
                        </mask>
                        <path fill="#6AD0EF" d="M19.5 12.271c0 1.103-.888 2.005-1.972 2.005H1.973C.887 14.276 0 13.374 0 12.271L.727 2.004C.727.902 1.615 0 2.7 0h14.1c1.085 0 1.972.902 1.972 2.004l.728 10.267z" mask="url(#4x78zxcz3b)"/>
                    </g>
                    <path fill="#6A80CE" d="M12.534 7.858c0 1.56-1.248 2.828-2.784 2.828-1.535 0-2.784-1.269-2.784-2.828 0-.232.185-.42.413-.42.227 0 .412.188.412.42 0 1.097.879 1.99 1.959 1.99s1.959-.893 1.959-1.99c0-.232.184-.42.412-.42.228 0 .413.188.413.42" transform="translate(-540.000000, -192.000000) translate(540.000000, 192.000000) translate(2.250000, 2.250000)"/>
                    <path fill="#00CDC3" d="M13.315 3.928c-.22.152-.473.225-.721.225-.414 0-.82-.201-1.068-.575-.4-.6-1.064-.959-1.776-.959s-1.375.359-1.776.959c-.399.598-1.2.756-1.79.35-.59-.406-.743-1.22-.344-1.82C6.72.789 8.182 0 9.75 0s3.03.788 3.91 2.109c.4.598.245 1.413-.345 1.819" transform="translate(-540.000000, -192.000000) translate(540.000000, 192.000000) translate(2.250000, 2.250000)"/>
                </g>
            </g>
        </g>
    </g>
</svg>
