<svg xmlns="http://www.w3.org/2000/svg" xmlns:xlink="http://www.w3.org/1999/xlink" width="24" height="24" viewBox="0 0 24 24">
    <defs>
        <path id="cwqamt8cra" d="M0 0L18.75 0 18.75 18.685 0 18.685z"/>
    </defs>
    <g fill="none" fill-rule="evenodd">
        <g>
            <g>
                <g>
                    <g transform="translate(-330.000000, -192.000000) translate(330.000000, 192.000000) translate(2.625000, 3.000000)">
                        <mask id="vu15lqukeb" fill="#fff">
                            <use xlink:href="#cwqamt8cra"/>
                        </mask>
                        <path fill="#00F5B3" d="M9.375 2.08L17.473.03c.55-.139 1.11.2 1.246.757.02.082.031.167.031.252v14.461c0 .477-.321.893-.778 1.009l-8.597 2.175L.778 16.51C.321 16.394 0 15.978 0 15.5V1.041C0 .465.46 0 1.027 0c.084 0 .168.01.25.03L9.375 2.08z" mask="url(#vu15lqukeb)"/>
                    </g>
                    <path fill="#27E5A8" d="M9.375 18.735c.532 0 .963-.431.963-.963V2.748c0-.532-.431-.963-.963-.963s-.963.431-.963.963v15.024c0 .532.431.963.963.963z" transform="translate(-330.000000, -192.000000) translate(330.000000, 192.000000) translate(2.625000, 3.000000)"/>
                    <path fill="#24A09A" d="M12.647 4.331l4.11-1.119c.136-.036.278.046.315.184.005.023.008.045.008.068v1.768c0 .117-.078.22-.19.251l-4.11 1.12c-.136.036-.277-.046-.314-.185-.006-.022-.009-.044-.009-.068V4.582c0-.117.078-.22.19-.25" transform="translate(-330.000000, -192.000000) translate(330.000000, 192.000000) translate(2.625000, 3.000000)"/>
                </g>
            </g>
        </g>
    </g>
</svg>
