<svg xmlns="http://www.w3.org/2000/svg" width="24" height="24" viewBox="0 0 24 24">
    <g fill="none" fill-rule="evenodd">
        <g>
            <g>
                <g>
                    <path fill="#0E7CF4" d="M6.638 7.598l2.038.835c.131-.095.276-.178.428-.245l.156-.063.27-2.266c-1.187.164-2.22.813-2.892 1.739zM10.73 5.86l.26 2.265c.159.057.31.13.449.217l.135.09 2.038-.834c-.67-.924-1.7-1.57-2.882-1.738zm3.44 2.786l-1.74 1.171c.015.1.03.203.03.307 0 .07-.007.138-.016.207l-.015.101 1.742 1.17c.168-.46.26-.958.26-1.478 0-.519-.092-1.017-.26-1.478zm-8.35 1.478c0 .52.091 1.017.26 1.478l1.74-1.17c-.014-.1-.03-.203-.03-.308 0-.07.007-.138.016-.206l.015-.1-1.742-1.172c-.168.461-.26.96-.26 1.478zm2.856 1.692l-2.038.836c.67.923 1.7 1.57 2.882 1.736l-.26-2.264c-.158-.058-.31-.13-.449-.217l-.135-.091zm2.898 0c-.131.096-.276.178-.428.245l-.156.063-.27 2.266c1.187-.165 2.22-.812 2.892-1.738l-2.038-.836zM10.125 0C15.717 0 20.25 4.533 20.25 10.124c0 5.593-4.533 10.125-10.125 10.125S0 15.717 0 10.124C0 4.533 4.533 0 10.125 0z" transform="translate(-300.000000, -192.000000) translate(300.000000, 192.000000) translate(1.875000, 1.875000)"/>
                    <path fill="#107678" d="M10.037 4.973c-2.792 0-5.063 2.272-5.063 5.063 0 2.792 2.27 5.062 5.063 5.062 2.79 0 5.062-2.27 5.062-5.062 0-2.791-2.271-5.063-5.062-5.063m0 11.724c-3.674 0-6.662-2.988-6.662-6.661 0-3.673 2.988-6.661 6.662-6.661 3.672 0 6.66 2.988 6.66 6.66 0 3.674-2.988 6.662-6.66 6.662" transform="translate(-300.000000, -192.000000) translate(300.000000, 192.000000) translate(1.875000, 1.875000)"/>
                    <path fill="#006C6D" d="M10.123 9.09c.571 0 1.034.463 1.034 1.033 0 .571-.463 1.035-1.034 1.035-.57 0-1.033-.464-1.033-1.035 0-.57.462-1.033 1.033-1.033" transform="translate(-300.000000, -192.000000) translate(300.000000, 192.000000) translate(1.875000, 1.875000)"/>
                </g>
            </g>
        </g>
    </g>
</svg>
