<svg xmlns="http://www.w3.org/2000/svg" width="24" height="24" viewBox="0 0 24 24">
    <g fill="none" fill-rule="evenodd">
        <g>
            <g>
                <path d="M0 0H24V24H0z" transform="translate(-630.000000, -192.000000) translate(630.000000, 192.000000)"/>
                <g>
                    <path fill="#107778" d="M1.442 0h2.885v4.34H0V1.441C0 .646.646 0 1.442 0z" transform="translate(-630.000000, -192.000000) translate(630.000000, 192.000000) translate(3.000000, 2.250000)"/>
                    <g transform="translate(-630.000000, -192.000000) translate(630.000000, 192.000000) translate(3.000000, 2.250000) translate(1.442308, 0.000000)">
                        <path fill="#28E8D9" d="M0 0h15.865c.797 0 1.443.646 1.443 1.442v18.433c0 .08-.065.144-.145.144-.04 0-.08-.017-.107-.048l-1.44-1.597c-.133-.148-.361-.16-.509-.026l-.024.024-1.462 1.59c-.135.146-.363.155-.51.02l-.021-.021-1.459-1.59c-.135-.148-.363-.158-.51-.023l-.021.022-1.458 1.59c-.135.146-.363.156-.51.021l-.023-.023-1.444-1.585c-.134-.148-.362-.158-.51-.024l-.023.023-1.45 1.587c-.134.147-.362.157-.509.023l-.023-.023-1.454-1.588c-.135-.147-.363-.157-.51-.023l-.022.023-1.471 1.605c-.054.06-.145.063-.204.01-.03-.028-.047-.067-.047-.107V1.48C1.442.493.962 0 0 0z"/>
                        <rect width="11.538" height="1.446" x="3.606" y="10.667" fill="#107778" rx=".721"/>
                        <rect width="7.933" height="1.446" x="3.606" y="13.56" fill="#107778" rx=".721"/>
                        <g fill="#107778">
                            <path d="M3.106 3.582c0 .088 0 .18-.252.18-.2 0-.398-.085-.644-.275l-.136-.105-.525.817.1.091c.256.236.602.37.881.427v1.069C1.104 5.609 0 4.38 0 2.893 0 1.405 1.104.177 2.53 0v.989c-.503.152-.8.564-.8 1.124 0 .646.539.923.934 1.126.216.112.442.227.442.343" transform="translate(3.605769, 2.169643)"/>
                            <path d="M5.77 2.893c0 1.437-1.03 2.632-2.385 2.87V4.677c.516-.162.819-.585.819-1.155 0-.694-.562-.963-.971-1.16-.192-.091-.41-.196-.41-.285 0-.09 0-.16.215-.16.158 0 .287.06.46.219l.12.109.603-.706-.095-.105c-.216-.238-.46-.39-.741-.46V.022C4.74.26 5.769 1.456 5.769 2.892" transform="translate(3.605769, 2.169643)"/>
                        </g>
                    </g>
                </g>
            </g>
        </g>
    </g>
</svg>
