<svg xmlns="http://www.w3.org/2000/svg" xmlns:xlink="http://www.w3.org/1999/xlink" width="24" height="24" viewBox="0 0 24 24">
    <defs>
        <path id="2rnfr0p51a" d="M0 0L21 0 21 15.75 0 15.75z"/>
    </defs>
    <g fill="none" fill-rule="evenodd">
        <g>
            <g>
                <g>
                    <g transform="translate(-690.000000, -192.000000) translate(690.000000, 192.000000) translate(1.500000, 4.125000)">
                        <mask id="wl702v29hb" fill="#fff">
                            <use xlink:href="#2rnfr0p51a"/>
                        </mask>
                        <path fill="#FF6628" d="M21 5.067v5.616c0 2.787-2.271 5.067-5.047 5.067H5.047C2.271 15.75 0 13.47 0 10.683V5.067C0 2.28 2.271 0 5.047 0h10.906C18.729 0 21 2.28 21 5.067" mask="url(#wl702v29hb)"/>
                    </g>
                    <path fill="#FFB7A2" d="M7.984 9.29c0 .84-.68 1.522-1.516 1.522-.838 0-1.516-.681-1.516-1.522 0-.84.678-1.522 1.516-1.522.837 0 1.516.681 1.516 1.522" transform="translate(-690.000000, -192.000000) translate(690.000000, 192.000000) translate(1.500000, 4.125000)"/>
                    <path fill="#0E7CF4" d="M11.521 5.831c0 .986-.796 1.786-1.778 1.786-.983 0-1.779-.8-1.779-1.786s.796-1.785 1.779-1.785c.982 0 1.778.8 1.778 1.785" transform="translate(-690.000000, -192.000000) translate(690.000000, 192.000000) translate(1.500000, 4.125000)"/>
                    <path fill="#107778" d="M11.259 9.736c0 .594-.48 1.076-1.072 1.076-.592 0-1.072-.482-1.072-1.076 0-.595.48-1.076 1.072-1.076.592 0 1.072.481 1.072 1.076" transform="translate(-690.000000, -192.000000) translate(690.000000, 192.000000) translate(1.500000, 4.125000)"/>
                    <path fill="#FFED0F" d="M16.16 8.828c0 1.096-.885 1.984-1.977 1.984-1.091 0-1.976-.888-1.976-1.984s.885-1.984 1.976-1.984c1.092 0 1.976.888 1.976 1.984" transform="translate(-690.000000, -192.000000) translate(690.000000, 192.000000) translate(1.500000, 4.125000)"/>
                </g>
            </g>
        </g>
    </g>
</svg>
