<svg xmlns="http://www.w3.org/2000/svg" width="24" height="24" viewBox="0 0 24 24">
    <g fill="none" fill-rule="evenodd">
        <g fill-rule="nonzero">
            <g>
                <g>
                    <g transform="translate(-450.000000, -192.000000) translate(450.000000, 192.000000) translate(3.000000, 4.500000) translate(0.000000, 0.000000)">
                        <g stroke="#F72F2A" stroke-width="1.895">
                            <path d="M.803-.947c1.072.12 2.32 1.618 3.086 3.18.215.438.402.902.55 1.361-.461.046-.966.049-1.49 0-.84-.08-1.61-.281-2.213-.551-.816-.365-1.334-.877-1.54-1.363-.097-.255-.227-.626-.077-1.156.073-.256.22-.571.543-.93C.2-.915.573-.946.803-.946z" transform="translate(4.606364, 0.000000)"/>
                            <path d="M6.526-.947c1.072.12 2.32 1.618 3.086 3.18.215.438.402.902.55 1.361-.461.046-.966.049-1.49 0-.84-.08-1.61-.281-2.212-.551-.817-.365-1.335-.877-1.541-1.363-.097-.255-.227-.626-.076-1.156.073-.256.22-.571.542-.93.538-.51.912-.541 1.141-.541z" transform="translate(4.606364, 0.000000) translate(7.242364, 1.325236) scale(-1, 1) translate(-7.242364, -1.325236)"/>
                        </g>
                        <path fill="#E06088" d="M.657 7.859h.723v8.773c0 .37.262.618.656.618h13.928c.394 0 .656-.247.656-.618V7.86h.723c.394 0 .657-.247.657-.618v-3.09c0-.37-.263-.617-.657-.617h-3.416H.657c-.394 0-.657.247-.657.618V7.24c0 .37.263.618.657.618z"/>
                        <path fill="#E06088" d="M2.693 7.859L6.701 7.859 6.701 16.014 2.693 16.014z"/>
                        <path fill="#FD414A" d="M8.015 16.014L8.015 7.859 9.985 7.859 9.985 16.014z"/>
                        <path fill="#E06088" d="M15.307 16.014L11.299 16.014 11.299 7.859 15.307 7.859z"/>
                        <path fill="#00CDC3" d="M1.314 4.831L6.701 4.831 6.701 6.685 2.036 6.685 1.314 6.685z"/>
                        <rect width="18" height="5.301" y="3.114" fill="#FF99B9" rx=".947"/>
                        <path fill="#F72F2A" d="M9.989 3.046L9.989 17.246 8.018 17.246 8.018 3.046z"/>
                    </g>
                </g>
            </g>
        </g>
    </g>
</svg>
