<svg xmlns="http://www.w3.org/2000/svg" xmlns:xlink="http://www.w3.org/1999/xlink" width="24" height="24" viewBox="0 0 24 24">
    <defs>
        <path id="jmafchpj4a" d="M0 0L20.25 0 20.25 20.25 0 20.25z"/>
    </defs>
    <g fill="none" fill-rule="evenodd">
        <g>
            <g>
                <g>
                    <g transform="translate(-270.000000, -192.000000) translate(270.000000, 192.000000) translate(1.875000, 1.875000)">
                        <mask id="bfftaloewb" fill="#fff">
                            <use xlink:href="#jmafchpj4a"/>
                        </mask>
                        <path fill="#FF625E" d="M9.748 1.407l-.951.346.692 1.903.952-.346-.693-1.903zm4.594 1.057l-.728.703 1.407 1.457.728-.704-1.407-1.456zm-8.278-.052l-.887 1.82.91.444.887-1.82-.91-.444zm7.399 1.856l-1.926.626.313.963 1.925-.626-.312-.963zm-5.641.946l-1.865.79.396.932 1.864-.79-.395-.932zm-4.852.391l-.55.85 1.697 1.102.552-.849-1.7-1.103zm12.614.356l-.726 1.89.946.363.725-1.89-.945-.363zm3.375 2.29l-1.864.791.396.932 1.864-.79-.396-.933zM3.91 8.898l-1.973.455.228.987 1.973-.455-.228-.987zm6.215-1.81c-1.677 0-3.038 1.36-3.038 3.037 0 1.677 1.36 3.037 3.038 3.037 1.677 0 3.037-1.36 3.037-3.037 0-1.677-1.36-3.037-3.037-3.037zm0-7.088C15.717 0 20.25 4.533 20.25 10.125S15.717 20.25 10.125 20.25 0 15.717 0 10.125 4.533 0 10.125 0z" mask="url(#bfftaloewb)"/>
                    </g>
                    <path fill="#FF84FE" d="M13.463 4.268L13.775 5.231 11.849 5.857 11.537 4.894zM6.064 2.412L6.974 2.855 6.086 4.676 5.176 4.232z" transform="translate(-270.000000, -192.000000) translate(270.000000, 192.000000) translate(1.875000, 1.875000)"/>
                    <path fill="#00CDC3" d="M18.959 8.251L19.355 9.183 17.491 9.974 17.095 9.042zM7.822 5.213L8.217 6.146 6.353 6.937 5.957 6.005z" transform="translate(-270.000000, -192.000000) translate(270.000000, 192.000000) translate(1.875000, 1.875000)"/>
                    <path fill="#FF84FE" d="M2.165 10.34L1.937 9.353 3.91 8.897 4.138 9.884z" transform="translate(-270.000000, -192.000000) translate(270.000000, 192.000000) translate(1.875000, 1.875000)"/>
                    <path fill="#00CDC3" d="M15.749 3.92L15.02 4.624 13.614 3.167 14.342 2.464z" transform="translate(-270.000000, -192.000000) translate(270.000000, 192.000000) translate(1.875000, 1.875000)"/>
                    <path fill="#FFED0F" d="M15.584 5.961L16.529 6.323 15.803 8.214 14.858 7.852zM2.419 6.454L2.97 5.605 4.669 6.708 4.117 7.557zM10.441 3.309L9.489 3.656 8.796 1.753 9.748 1.407z" transform="translate(-270.000000, -192.000000) translate(270.000000, 192.000000) translate(1.875000, 1.875000)"/>
                </g>
            </g>
        </g>
    </g>
</svg>
