<svg xmlns="http://www.w3.org/2000/svg" xmlns:xlink="http://www.w3.org/1999/xlink" width="24" height="24" viewBox="0 0 24 24">
    <defs>
        <path id="2e1u44412a" d="M0 0L20.968 0 20.968 20.402 0 20.402z"/>
    </defs>
    <g fill="none" fill-rule="evenodd">
        <g>
            <g>
                <g>
                    <g transform="translate(-390.000000, -192.000000) translate(390.000000, 192.000000) translate(1.500000, 2.041465)">
                        <mask id="tccofyjwnb" fill="#fff">
                            <use xlink:href="#2e1u44412a"/>
                        </mask>
                        <path fill="#FF9779" d="M20.968 10.993c0 .334-.277.605-.619.605h-2.594c-.342 0-.618.27-.618.604v7.595c0 .334-.278.605-.619.605H4.45c-.34 0-.618-.27-.618-.605v-7.595c0-.334-.276-.604-.618-.604H.62c-.342 0-.619-.271-.619-.605l.56-6.47c0-.192.093-.371.25-.485l3.383-2.452c.007-.005.013-.01.02-.013v-.001L5.654.6 5.82.488l.695-.445c.068-.044.153-.053.228-.024l.3.115.857.327 1.836.701.748.279.83-.283L13.321.39l.676-.258.304-.116c.026-.01.053-.016.08-.016h.008c.045 0 .09.015.128.04l.691.442.137.088 1.464 1.04 3.347 2.428c.158.114.25.293.25.485l.56 6.47z" mask="url(#tccofyjwnb)"/>
                    </g>
                    <path fill="#0E7CF4" d="M11.546 7.584c0 .035-.002.068-.005.101l-.006.05-.009.05c-.005.028-.013.056-.02.083l-.014.04-.014.04-.017.04c-.155.347-.503.59-.909.59-.548 0-.993-.445-.993-.994 0-.514.39-.937.892-.989.033-.003.067-.005.101-.005s.067.002.1.005l.05.007c.027.004.053.01.08.015.025.006.05.013.076.022.012.003.025.008.038.013.273.1.49.316.589.589.005.013.01.025.013.038.008.025.015.05.021.077l.016.079c.002.016.005.033.006.05.003.033.005.066.005.1" transform="translate(-390.000000, -192.000000) translate(390.000000, 192.000000) translate(1.500000, 2.041465)"/>
                    <path fill="#FFED0F" d="M11.546 10.797c0 .034-.002.068-.005.102-.003.029-.007.058-.012.086l-.005.021-.007.033-.017.059-.014.04c-.011.031-.024.061-.038.09l-.022.042-.023.041-.02.03c-.004.008-.01.016-.015.023-.006.01-.013.018-.02.027l-.029.038-.035.04c-.014.015-.028.03-.043.043-.01.012-.022.022-.034.032l-.041.035c-.169.133-.382.212-.614.212-.548 0-.993-.445-.993-.994 0-.549.445-.993.993-.993.264 0 .505.102.683.27l.017.017.035.037h.001c.03.034.058.069.083.105.056.082.1.172.13.268.015.047.026.095.034.144.008.05.011.1.011.152" transform="translate(-390.000000, -192.000000) translate(390.000000, 192.000000) translate(1.500000, 2.041465)"/>
                    <path fill="#29DAA1" d="M11.546 14.008c0 .034-.002.068-.005.101-.003.03-.007.058-.012.086l-.001.006-.004.02-.007.028-.01.035c-.003.01-.005.019-.009.028-.002.01-.005.019-.009.028-.026.075-.061.145-.104.21l-.019.028-.021.03-.025.03-.032.038-.033.034c-.022.023-.046.044-.07.064-.011.01-.022.018-.034.026-.166.126-.374.201-.599.201-.548 0-.993-.445-.993-.993 0-.549.445-.994.993-.994.306 0 .58.138.763.356l.04.052.037.054.034.057v.001c.023.043.043.086.06.132l.02.06c.011.04.02.081.027.123.01.052.013.105.013.159" transform="translate(-390.000000, -192.000000) translate(390.000000, 192.000000) translate(1.500000, 2.041465)"/>
                    <path fill="#FD414A" d="M16.81 1.61c-.09-.064-.212-.063-.3.003L12.39 4.69c-.091.068-.215.068-.305 0l-1.413-1.07c-.09-.068-.216-.068-.306 0L8.952 4.69c-.09.068-.214.068-.304 0L4.494 1.588c-.082-.062-.193-.067-.28-.016L5.654.6c-.112.105-.106.29.022.386l2.967 2.215c.09.067.214.067.304-.001l.84-.635c.063-.048.1-.122.101-.201l.006-.907h.005v-.059c0-.105-.065-.2-.163-.237l.748.279.83-.283c-.1.037-.165.132-.165.238l.002.969c0 .08.038.154.1.202l.839.634c.09.068.215.068.305 0L15.36.988c.142-.106.134-.321-.015-.417l1.464 1.04z" transform="translate(-390.000000, -192.000000) translate(390.000000, 192.000000) translate(1.500000, 2.041465)"/>
                </g>
            </g>
        </g>
    </g>
</svg>
