<svg xmlns="http://www.w3.org/2000/svg" xmlns:xlink="http://www.w3.org/1999/xlink" width="24" height="24" viewBox="0 0 24 24">
    <defs>
        <path id="2jp6eo5uka" d="M0 0L20.205 0 20.205 15.748 0 15.748z"/>
    </defs>
    <g fill="none" fill-rule="evenodd">
        <g>
            <g>
                <g>
                    <g transform="translate(-660.000000, -192.000000) translate(660.000000, 192.000000) translate(1.875000, 1.297535) translate(0.000000, 5.652261)">
                        <mask id="vmq8pnefob" fill="#fff">
                            <use xlink:href="#2jp6eo5uka"/>
                        </mask>
                        <path fill="#FFA300" d="M12.488 15.748h-4.77c-5.256 0-8.972-4.27-7.322-8.416l4.278-5.498C5.466.772 6.342 0 7.73 0h4.745c1.389 0 2.143.679 3.057 1.834l4.278 5.498c1.65 4.145-2.066 8.416-7.322 8.416" mask="url(#vmq8pnefob)"/>
                    </g>
                    <path fill="#E8CC23" d="M9.714 18.062c.127.027.257.04.389.04h-.389v-.04zM10.103 18.111c.187 0 .37-.028.548-.082v.082h-.548z" transform="translate(-660.000000, -192.000000) translate(660.000000, 192.000000) translate(1.875000, 1.297535)"/>
                    <path fill="#FFA300" d="M14.835 1.532l-1.419 1.824c-.529.595-1.018 1.12-1.865 1.12H8.655c-.848 0-1.294-.488-1.866-1.12L5.37 1.532C4.856.872 5.427 0 6.374 0h7.457c.947 0 1.518.871 1.004 1.532" transform="translate(-660.000000, -192.000000) translate(660.000000, 192.000000) translate(1.875000, 1.297535)"/>
                    <path fill="#107778" d="M10.414 15.873c0 .122 0 .25-.355.25-.28 0-.56-.118-.906-.382l-.191-.146-.74 1.138.14.127c.362.329.848.516 1.241.595v1.489c-2.007-.246-3.561-1.957-3.561-4.031s1.554-3.785 3.561-4.031v1.378c-.708.212-1.126.787-1.126 1.566 0 .9.76 1.287 1.315 1.57.304.155.622.315.622.477" transform="translate(-660.000000, -192.000000) translate(660.000000, 192.000000) translate(1.875000, 1.297535)"/>
                    <path fill="#107778" d="M14.164 14.913c0 2.002-1.45 3.667-3.357 4v-1.515c.727-.226 1.153-.816 1.153-1.61 0-.967-.79-1.341-1.367-1.616-.27-.128-.576-.273-.576-.398 0-.124 0-.223.302-.223.223 0 .404.085.647.305l.17.153.848-.983-.133-.147c-.305-.332-.649-.543-1.044-.64v-1.327c1.908.334 3.357 1.998 3.357 4" transform="translate(-660.000000, -192.000000) translate(660.000000, 192.000000) translate(1.875000, 1.297535)"/>
                    <path fill="#E8CC23" d="M9.714 19.026h.415c-.14 0-.279-.17-.415-.5v.5zm.415 0h.585v-1c-.19.659-.385 1-.585 1z" transform="translate(-660.000000, -192.000000) translate(660.000000, 192.000000) translate(1.875000, 1.297535)"/>
                </g>
            </g>
        </g>
    </g>
</svg>
