<svg width="160" height="6" viewBox="0 0 160 6" fill="none" xmlns="http://www.w3.org/2000/svg">
<path fill-rule="evenodd" clip-rule="evenodd" d="M0 4.98431H1.50784C2.88422 4.98431 4 3.86854 4 2.49216C4 1.11578 5.11578 0 6.49216 0H9.50784C10.8842 0 12 1.11578 12 2.49216C12 3.86854 13.1158 4.98431 14.4922 4.98431H17.5078C18.8842 4.98431 20 3.86854 20 2.49216C20 1.11578 21.1158 0 22.4922 0H25.5078C26.8842 0 28 1.11578 28 2.49216C28 3.86854 29.1158 4.98431 30.4922 4.98431H33.5078C34.8842 4.98431 36 3.86854 36 2.49216C36 1.11578 37.1158 0 38.4922 0H41.5078C42.8842 0 44 1.11578 44 2.49216C44 3.86854 45.1158 4.98431 46.4922 4.98431H49.5078C50.8842 4.98431 52 3.86854 52 2.49216C52 1.11578 53.1158 0 54.4922 0H57.5078C58.8842 0 60 1.11578 60 2.49216C60 3.86854 61.1158 4.98431 62.4922 4.98431H65.5078C66.8842 4.98431 68 3.86854 68 2.49216C68 1.11578 69.1158 0 70.4922 0H73.5078C74.8842 0 76 1.11578 76 2.49216C76 3.86854 77.1158 4.98431 78.4922 4.98431H81.5078C82.8842 4.98431 84 3.86854 84 2.49216C84 1.11578 85.1158 0 86.4922 0H89.5078C90.8842 0 92 1.11578 92 2.49216C92 3.86854 93.1158 4.98431 94.4922 4.98431H97.5078C98.8842 4.98431 100 3.86854 100 2.49216C100 1.11578 101.116 0 102.492 0H105.508C106.884 0 108 1.11578 108 2.49216C108 3.86854 109.116 4.98431 110.492 4.98431H113.508C114.884 4.98431 116 3.86854 116 2.49216C116 1.11578 117.116 0 118.492 0H121.508C122.884 0 124 1.11578 124 2.49216C124 3.86854 125.116 4.98431 126.492 4.98431H129.508C130.884 4.98431 132 3.86854 132 2.49216C132 1.11578 133.116 0 134.492 0H137.508C138.884 0 140 1.11578 140 2.49216C140 3.86854 141.116 4.98431 142.492 4.98431H145.508C146.884 4.98431 148 3.86854 148 2.49216C148 1.11578 149.116 0 150.492 0H153.508C154.884 0 156 1.11578 156 2.49216V2.98431C156 4.08888 156.895 4.98431 158 4.98431H159.492C159.773 4.98431 160 5.21168 160 5.49216C160 5.77263 159.773 6 159.492 6H0V4.98431Z" fill="white"/>
</svg>
