<svg width="12" height="12" viewBox="0 0 12 12" xmlns="http://www.w3.org/2000/svg"><path d="M9.494 11.941c.741-.212 1.359-.6 1.818-1.165.459-.582.688-1.27.688-2.047 0-.529-.124-.935-.353-1.253a1.187 1.187 0 00-.97-.476c-.353 0-.618.088-.812.3-.23.194-.336.459-.336.794 0 .3.106.547.318.759.212.212.459.318.759.318.176 0 .318-.018.388-.053 0 .423-.123.811-.388 1.182-.282.353-.653.6-1.112.759v.882zm-3.494 0c.741-.212 1.359-.6 1.818-1.165.458-.582.688-1.27.688-2.047 0-.529-.124-.935-.353-1.253A1.155 1.155 0 007.2 7c-.353 0-.635.088-.847.3-.212.194-.3.459-.3.794 0 .3.106.547.318.759a.961.961 0 00.74.318c.177 0 .318-.018.389-.053 0 .423-.124.811-.406 1.182A2.32 2.32 0 016 11.059v.882z" fill="#646464" opacity=".4"/></svg>