<svg xmlns="http://www.w3.org/2000/svg" xmlns:xlink="http://www.w3.org/1999/xlink" width="140" height="171" viewBox="0 0 140 171">
    <defs>
        <path id="o1trqqbqfa" d="M4.493 1.027l57.8 13.206c.26.06.424.32.364.58-.027.12-.1.226-.203.295l-12.232 8.173L4.182 1.938c-.243-.112-.349-.4-.236-.643.096-.207.324-.32.547-.268z"/>
        <path id="bf213m24qc" d="M49.98 24.223v13.203c0 .267-.217.484-.485.484-.107 0-.21-.035-.295-.1L3.754 2.885c-.212-.163-.252-.467-.089-.68.14-.181.389-.24.596-.14l45.718 22.158z"/>
        <path id="w3u431377e" d="M1.243 1.988L27.18 43.461c.142.227.441.296.668.154.024-.015.047-.032.068-.05L43.159 29.81 1.929 1.333c-.22-.152-.521-.097-.674.123-.11.159-.114.368-.012.532z"/>
    </defs>
    <g fill="none" fill-rule="evenodd">
        <g>
            <g>
                <g>
                    <g>
                        <g transform="translate(-4600.000000, -769.000000) translate(4600.000000, 768.000000) translate(56.781052, 0.000000) translate(34.802282, 26.997779) rotate(-9.000000) translate(-34.802282, -26.997779) translate(3.107837, 4.674813) translate(0.000000, 0.942775)">
                            <mask id="rz2xdg76eb" fill="#fff">
                                <use xlink:href="#o1trqqbqfa"/>
                            </mask>
                            <use fill="#FFF" xlink:href="#o1trqqbqfa"/>
                            <g mask="url(#rz2xdg76eb)">
                                <g transform="translate(31.702662, 9.147587) rotate(-216.000000) translate(-31.702662, -9.147587) translate(11.584106, -9.729218)">
                                    <g>
                                        <g fill="#C3CFD5" fill-rule="nonzero">
                                            <g>
                                                <path d="M5.48 13.9c.155.042.309.04.46-.008.15-.048.284-.132.401-.254.117-.121.19-.266.22-.436.029-.158.04-.338.036-.538-.005-.201-.007-.162-.007-.31.37-.095.72-.222 1.051-.38.331-.159.643-.376.935-.65.195-.18.348-.41.46-.69.112-.28.18-.573.205-.88.024-.306.002-.607-.066-.903-.068-.296-.185-.55-.35-.761-.303-.38-.64-.671-1.016-.872-.375-.2-.776-.39-1.205-.57.01-.35.015-.724.015-1.126V4.396c.117.043.231.09.343.143.112.053.224.103.336.15.112.048.226.083.343.104.117.02.239.02.365 0 .215-.042.373-.124.475-.246.102-.121.158-.256.168-.404.01-.148-.022-.304-.095-.468-.073-.164-.178-.309-.314-.436-.214-.211-.467-.37-.76-.475-.292-.106-.574-.196-.847-.27-.029-.588-.073-.96-.131-1.114-.059-.148-.139-.267-.241-.357-.102-.09-.212-.15-.329-.182-.117-.032-.238-.03-.365.008-.126.037-.238.119-.336.245-.087.106-.153.228-.197.365-.044.137-.073.28-.088.428-.01.099-.017.28-.022.544-.36.063-.72.214-1.08.452-.36.237-.663.528-.906.871-.243.344-.397.72-.46 1.126-.063.407.017.816.24 1.228.244.444.566.798.965 1.063.4.264.808.501 1.227.713 0 .37-.003.769-.007 1.197l-.004.315c-.002.31-.004.604-.004.881-.048-.02-.107-.05-.175-.087-.068-.037-.127-.071-.175-.103-.088-.063-.173-.137-.256-.222-.083-.084-.168-.169-.256-.253-.087-.085-.177-.159-.27-.222-.092-.064-.197-.1-.314-.111-.214-.032-.39-.003-.526.087s-.238.211-.306.365c-.069.153-.095.322-.08.507.014.185.065.356.153.515.282.37.608.687.978.951.37.264.774.454 1.213.57 0 .244-.003.294-.008.58-.005.285.066.533.212.745.107.158.239.259.394.3zm-.57-7.982c-.175-.127-.314-.235-.416-.325-.103-.09-.183-.171-.241-.245-.059-.074-.178-.29-.153-.453.024-.163.126-.255.247-.372.122-.116.31-.174.563-.174v1.57zm1.68 4.597c0-.275.002-.576.007-.903L6.6 9.37c.003-.236.004-.457.004-.663.224.127.414.259.57.396.156.138.258.28.307.428.048.148.029.296-.059.444-.088.148-.273.29-.555.428-.049.021-.095.04-.139.056-.044.016-.09.034-.138.055z" transform="translate(10.202848, 7.139665) translate(0.000000, 0.000000) translate(5.853569, 7.374297) rotate(-25.000000) translate(-5.853569, -7.374297)"/>
                                            </g>
                                        </g>
                                    </g>
                                    <rect width="16.983" height="1.457" x="23.254" y="11.987" fill="#ECEFF1" rx=".728"/>
                                    <rect width="17.954" height="1.457" x="12.368" y="22.634" fill="#ECEFF1" rx=".728"/>
                                    <path fill="#ECEFF1" d="M.984.015l10.488.159c.336.005.645.184.817.472l2.002 3.35c.275.46.125 1.054-.335 1.329-.152.091-.327.138-.505.137L.96 5.35C.428 5.345 0 4.913 0 4.381V.984c0-.535.434-.97.969-.97h.015z"/>
                                    <rect width="13.101" height="1.457" x=".929" y="3.677" fill="#ECEFF1" rx=".728"/>
                                    <rect width="8.249" height="1.457" x="12.048" y="29.574" fill="#ECEFF1" rx=".728"/>
                                    <rect width="14.072" height="1.457" x="11.944" y="36.297" fill="#ECEFF1" rx=".728"/>
                                    <rect width="4.852" height="1.457" x="22.242" y="15.721" fill="#ECEFF1" rx=".728"/>
                                </g>
                            </g>
                        </g>
                        <g transform="translate(-4600.000000, -769.000000) translate(4600.000000, 768.000000) translate(56.781052, 0.000000) translate(34.802282, 26.997779) rotate(-9.000000) translate(-34.802282, -26.997779) translate(3.107837, 4.674813) translate(0.242266, 0.000000)">
                            <mask id="ecl5hzk81d" fill="#fff">
                                <use xlink:href="#bf213m24qc"/>
                            </mask>
                            <use fill="#ECEFF1" xlink:href="#bf213m24qc"/>
                            <path fill="#C3CFD5" d="M23.962 18.061l10.266-.307c.39-.011.715.295.727.685v.021c0 .406-.322.74-.727.754l-9.789.346c-.407.014-.779-.227-.932-.604l-.05-.122c-.116-.287.023-.615.31-.732.062-.025.128-.039.195-.04z" mask="url(#ecl5hzk81d)" opacity=".383" transform="translate(29.054564, 18.657949) rotate(100.000000) translate(-29.054564, -18.657949)"/>
                            <path fill="#C3CFD5" d="M16.97 14.629l10.433-.522c.382-.019.707.275.726.657v.035c0 .409-.318.747-.726.772l-9.95.598c-.416.025-.803-.22-.957-.608l-.048-.12c-.122-.305.027-.65.331-.77.06-.025.125-.039.19-.042z" mask="url(#ecl5hzk81d)" opacity=".383" transform="translate(22.135242, 15.141161) rotate(100.000000) translate(-22.135242, -15.141161)"/>
                            <path fill="#C3CFD5" d="M26.388 23.403l10.266-.307c.39-.012.715.295.727.685v.02c0 .407-.321.74-.727.754l-9.789.346c-.407.014-.779-.227-.932-.604l-.049-.121c-.117-.288.022-.615.31-.732.061-.025.127-.04.194-.041z" mask="url(#ecl5hzk81d)" opacity=".383" transform="translate(31.480713, 23.999446) rotate(100.000000) translate(-31.480713, -23.999446)"/>
                            <path fill="#C3CFD5" fill-rule="nonzero" d="M39.396 33.165c.156.042.31.04.46-.008.151-.048.285-.132.402-.254.117-.121.19-.267.22-.436.028-.158.04-.338.036-.539-.005-.2-.008-.161-.008-.31.37-.094.721-.221 1.052-.38.331-.158.643-.375.935-.65.195-.18.348-.41.46-.69.112-.28.18-.572.204-.879.025-.306.003-.608-.065-.903-.068-.296-.185-.55-.35-.761-.303-.38-.641-.671-1.016-.872-.375-.2-.776-.391-1.205-.57.01-.35.015-.725.015-1.126V23.66c.117.043.23.09.343.143.112.053.224.103.336.15.112.048.226.082.343.104.117.02.239.02.365 0 .214-.043.373-.125.475-.246.102-.122.158-.256.168-.404.01-.148-.022-.304-.095-.468-.073-.164-.178-.31-.314-.436-.214-.211-.467-.37-.76-.475-.292-.106-.574-.196-.847-.27-.029-.588-.073-.96-.131-1.114-.059-.148-.139-.267-.241-.357-.102-.09-.212-.15-.329-.182-.117-.032-.238-.03-.365.008-.127.036-.239.118-.336.245-.088.106-.153.227-.197.365-.044.137-.073.28-.088.428-.01.098-.017.28-.022.544-.36.063-.72.214-1.08.451-.36.238-.663.529-.906.872-.244.344-.397.719-.46 1.126-.064.407.017.816.24 1.228.244.444.566.798.965 1.062.399.265.808.502 1.227.714 0 .37-.003.768-.008 1.196l-.003.316c-.003.31-.004.604-.004.881-.049-.02-.107-.05-.175-.087-.068-.037-.127-.071-.175-.103-.088-.063-.173-.137-.256-.222-.083-.084-.168-.169-.256-.254-.087-.084-.177-.158-.27-.221-.092-.064-.197-.1-.314-.111-.214-.032-.39-.003-.526.087s-.238.211-.306.364c-.069.154-.095.323-.08.508.014.185.065.356.153.515.282.37.608.687.978.95.37.265.774.455 1.213.572 0 .243-.003.293-.008.579-.005.285.066.533.212.745.107.158.239.258.394.3zm-.57-7.982c-.175-.127-.313-.235-.416-.325-.102-.09-.182-.172-.24-.246-.059-.074-.178-.29-.153-.452.024-.163.126-.256.247-.372.122-.116.31-.174.563-.174v1.569zm1.68 4.597c0-.275.003-.576.008-.904l.003-.24c.003-.236.004-.457.004-.663.224.127.414.259.57.396.155.138.258.28.306.428.05.148.03.296-.058.444-.088.148-.273.29-.555.428-.049.021-.095.04-.139.056-.044.015-.09.034-.139.055z" mask="url(#ecl5hzk81d)" transform="translate(39.770480, 26.639102) rotate(-93.000000) translate(-39.770480, -26.639102)"/>
                        </g>
                        <path fill="#C3CFD5" d="M45.863 30.593l4.204 6.567c.144.226.078.525-.147.67-.17.108-.39.1-.551-.02L11.359 9.426c-.214-.16-.258-.464-.098-.678.153-.205.437-.256.651-.118l33.806 21.818c.058.037.107.087.145.145z" transform="translate(-4600.000000, -769.000000) translate(4600.000000, 768.000000) translate(56.781052, 0.000000) translate(34.802282, 26.997779) rotate(-9.000000) translate(-34.802282, -26.997779) translate(3.107837, 4.674813)"/>
                        <g transform="translate(-4600.000000, -769.000000) translate(4600.000000, 768.000000) translate(56.781052, 0.000000) translate(34.802282, 26.997779) rotate(-9.000000) translate(-34.802282, -26.997779) translate(3.107837, 4.674813) translate(2.647372, 0.694691)">
                            <mask id="0t5wc2v5wf" fill="#fff">
                                <use xlink:href="#w3u431377e"/>
                            </mask>
                            <use fill="#FFF" xlink:href="#w3u431377e"/>
                            <g mask="url(#0t5wc2v5wf)">
                                <g transform="translate(26.462600, 19.751665) scale(-1, 1) rotate(-139.000000) translate(-26.462600, -19.751665) translate(12.316012, 4.943102)">
                                    <g>
                                        <g fill="#C3CFD5" fill-rule="nonzero">
                                            <g>
                                                <g>
                                                    <g>
                                                        <g>
                                                            <path d="M3.023 13.081c.155.042.309.04.46-.008.15-.047.284-.132.401-.253.117-.122.19-.267.22-.436.029-.159.04-.339.036-.54-.005-.2-.007-.16-.007-.309.37-.095.72-.222 1.051-.38.331-.159.643-.375.935-.65.195-.18.348-.41.46-.69.112-.28.18-.573.205-.88.024-.306.002-.607-.066-.903-.068-.296-.185-.55-.35-.76-.303-.381-.64-.672-1.016-.873-.375-.2-.776-.39-1.205-.57.01-.35.015-.724.015-1.126V3.578c.117.042.231.09.343.142.112.053.224.103.336.15.112.048.226.083.343.104.117.021.239.021.365 0 .215-.042.373-.124.475-.246.102-.121.158-.256.168-.404.01-.148-.022-.304-.095-.468-.073-.163-.178-.309-.314-.436-.214-.21-.467-.37-.76-.475-.292-.106-.574-.196-.847-.27-.029-.588-.073-.96-.131-1.114-.058-.148-.139-.267-.241-.357-.102-.09-.212-.15-.329-.182-.117-.032-.238-.03-.365.008-.126.037-.238.119-.336.246-.087.105-.153.227-.197.364-.044.138-.073.28-.088.428-.01.099-.017.28-.022.544-.36.063-.72.214-1.08.452-.36.238-.663.528-.906.872-.243.343-.397.718-.46 1.125-.063.407.017.816.24 1.229.244.443.566.798.965 1.062.4.264.808.502 1.227.713 0 .37-.003.769-.007 1.197l-.004.315c-.002.31-.004.604-.004.882-.048-.022-.107-.05-.175-.088-.068-.037-.127-.07-.175-.103-.088-.063-.173-.137-.256-.222-.083-.084-.168-.169-.256-.253-.087-.085-.177-.159-.27-.222-.092-.063-.197-.1-.314-.111-.214-.032-.39-.003-.526.087s-.238.212-.306.365-.095.322-.08.507c.014.185.065.357.153.515.282.37.608.687.978.951.37.264.774.455 1.213.57 0 .244-.003.295-.008.58s.066.534.212.745c.107.158.239.259.395.301zM2.453 5.1c-.175-.126-.314-.235-.416-.325-.103-.09-.183-.171-.241-.245-.059-.074-.178-.29-.153-.453.024-.163.126-.255.248-.372.121-.116.309-.174.562-.174V5.1zm1.68 4.597c0-.274.002-.576.007-.903l.003-.24c.003-.237.004-.458.004-.664.224.127.414.26.57.397.156.137.258.28.307.428.048.148.029.295-.059.443-.088.148-.273.291-.555.428-.049.022-.095.04-.139.056-.043.016-.09.034-.138.055z" transform="translate(1.786203, 0.000000) translate(-0.000000, 0.000000) translate(-0.000000, 0.000000) translate(-0.000000, 0.000000) translate(-0.000000, 0.000000) translate(0.000000, 0.000000)"/>
                                                        </g>
                                                    </g>
                                                </g>
                                            </g>
                                        </g>
                                    </g>
                                    <rect width="16.983" height="1.457" x="11.31" y="3.85" fill="#ECEFF1" rx=".728"/>
                                    <rect width="13.101" height="1.457" x=".176" y="17.318" fill="#ECEFF1" rx=".728"/>
                                    <rect width="8.249" height="1.457" x=".104" y="21.438" fill="#ECEFF1" rx=".728"/>
                                    <rect width="14.072" height="1.457" y="28.16" fill="#ECEFF1" rx=".728"/>
                                    <rect width="3.882" height="1.457" x="11.269" y="7.585" fill="#ECEFF1" rx=".728"/>
                                </g>
                            </g>
                        </g>
                    </g>
                    <path stroke="#ADC3CD" stroke-dasharray="2.333" stroke-linecap="round" stroke-linejoin="round" stroke-width="1.556" d="M57.229 40.996c7.133 3.599 10.7 8.545 10.7 14.84 0 10.604-10.023 18.238 2.465 24.89" transform="translate(-4600.000000, -769.000000) translate(4600.000000, 768.000000) translate(56.781052, 0.000000)"/>
                </g>
            </g>
        </g>
    </g>
</svg>
