<svg xmlns="http://www.w3.org/2000/svg" xmlns:xlink="http://www.w3.org/1999/xlink" width="140" height="171" viewBox="0 0 140 171">
    <defs>
        <filter id="15wu3w5qzb" width="106%" height="113%" x="-3%" y="-6.5%" filterUnits="objectBoundingBox">
            <feOffset dy="-5" in="SourceAlpha" result="shadowOffsetInner1"/>
            <feComposite in="shadowOffsetInner1" in2="SourceAlpha" k2="-1" k3="1" operator="arithmetic" result="shadowInnerInner1"/>
            <feColorMatrix in="shadowInnerInner1" values="0 0 0 0 1 0 0 0 0 0.347260165 0 0 0 0 0.158060213 0 0 0 1 0"/>
        </filter>
        <path id="keabp3t6xa" d="M47.526 38.385c28.032-2.478 38.174 7.794 38.385-3.488.21-11.282-10.904-17.995-23.287-20.928-12.384-2.933-11.698-4.933-21.74-4.929-8.883.004-7.034-1.044-16.553 1.106-9.52 2.151-25.547 16.434-19.882 30.777 5.665 14.342 15.045-.06 43.077-2.538z"/>
    </defs>
    <g fill="none" fill-rule="evenodd">
        <g>
            <g>
                <g>
                    <path fill="#FF5928" d="M61.463 8.562c.866.385 1.398 1.273 1.329 2.219-.076 1.05-.063 1.951.041 2.704.12.874.52 2.641 1.198 5.3.273 1.072-.374 2.162-1.446 2.435-.097.025-.197.043-.297.052-1.278.127-2.417-.806-2.544-2.084 0-.01-.002-.02-.003-.029-.177-2.044-.266-3.52-.265-4.424 0-1.01.114-2.746.339-5.207.059-.646.63-1.122 1.277-1.063.128.012.253.044.37.097z" transform="translate(-800.000000, -764.000000) translate(800.000000, 760.000000) translate(26.701662, -0.000000) translate(62.046205, 14.700086) rotate(66.000000) translate(-62.046205, -14.700086)"/>
                    <g transform="translate(-800.000000, -764.000000) translate(800.000000, 760.000000) translate(26.701662, -0.000000) translate(44.590221, 27.991300) rotate(13.000000) translate(-44.590221, -27.991300)">
                        <use fill="#FA7048" xlink:href="#keabp3t6xa"/>
                        <use fill="#000" filter="url(#15wu3w5qzb)" xlink:href="#keabp3t6xa"/>
                    </g>
                    <g stroke="#463938">
                        <path stroke-width="2.333" d="M10.045 0h16.738c1.718 0 3.111 1.393 3.111 3.111 0 .06-.002.12-.005.181l-.429 7.361c-.096 1.645-1.458 2.93-3.106 2.93h-15.88c-1.649 0-3.01-1.285-3.106-2.93l-.43-7.361C6.84 1.577 8.149.105 9.865.005c.06-.003.12-.005.18-.005zM39.6 0H56.34c1.718 0 3.11 1.393 3.11 3.111 0 .06-.001.12-.005.181l-.428 7.361c-.096 1.645-1.458 2.93-3.106 2.93H40.029c-1.648 0-3.01-1.285-3.106-2.93l-.429-7.361c-.1-1.715 1.21-3.187 2.925-3.287.06-.003.12-.005.181-.005z" transform="translate(-800.000000, -764.000000) translate(800.000000, 760.000000) translate(26.701662, -0.000000) translate(10.106719, 64.003505)"/>
                        <path stroke-width="1.944" d="M29.885 7.374c.946-.534 2.074-.8 3.384-.8s2.483.266 3.522.8" transform="translate(-800.000000, -764.000000) translate(800.000000, 760.000000) translate(26.701662, -0.000000) translate(10.106719, 64.003505)"/>
                        <path stroke-width="2.333" d="M7.458 3.075L0 3.393" transform="translate(-800.000000, -764.000000) translate(800.000000, 760.000000) translate(26.701662, -0.000000) translate(10.106719, 64.003505)"/>
                        <path stroke-width="2.333" d="M65.791 3.075L58.333 3.393" transform="translate(-800.000000, -764.000000) translate(800.000000, 760.000000) translate(26.701662, -0.000000) translate(10.106719, 64.003505) translate(62.062277, 3.233851) scale(-1, 1) translate(-62.062277, -3.233851)"/>
                    </g>
                </g>
            </g>
        </g>
    </g>
</svg>
