<svg xmlns="http://www.w3.org/2000/svg" xmlns:xlink="http://www.w3.org/1999/xlink" width="140" height="171" viewBox="0 0 140 171">
    <defs>
        <path id="dzvhl4oyra" d="M6.618 0h9.708c3.447 0 6.24 2.794 6.24 6.24 0 .122-.003.245-.01.367l-.033.56c-.2 3.395-3.013 6.047-6.414 6.047H6.836c-3.402 0-6.214-2.652-6.414-6.048l-.033-.56C.186 3.167 2.81.214 6.252.012 6.374.004 6.496 0 6.618 0z"/>
    </defs>
    <g fill="none" fill-rule="evenodd">
        <g>
            <g>
                <g>
                    <g transform="translate(-1180.000000, -771.000000) translate(1180.000000, 771.000000) translate(27.611111, 17.488636) translate(71.166667, 43.915909)">
                        <path fill="#107778" d="M3.063.72h5.493v21.934H3.03c-1.503 0-2.722-1.22-2.722-2.723 0-.088.004-.177.013-.265.32-3.258.48-6.04.48-8.35 0-2.226-.15-4.756-.446-7.59C.199 2.233 1.284.893 2.779.737c.095-.01.19-.015.284-.015z"/>
                        <rect width="2.722" height="17.489" x="9.722" y="3.109" fill="#085B5C" rx=".778"/>
                        <rect width="2.722" height="23.318" x="7.389" fill="#8DCBC7" rx=".778"/>
                    </g>
                    <g transform="translate(-1180.000000, -771.000000) translate(1180.000000, 771.000000) translate(27.611111, 17.488636) translate(6.222222, 55.575000) scale(-1, 1) translate(-6.222222, -55.575000) translate(0.000000, 43.915909)">
                        <path fill="#107778" d="M3.063.72h5.493v21.934H3.03c-1.503 0-2.722-1.22-2.722-2.723 0-.088.004-.177.013-.265.32-3.258.48-6.04.48-8.35 0-2.226-.15-4.756-.446-7.59C.199 2.233 1.284.893 2.779.737c.095-.01.19-.015.284-.015z"/>
                        <rect width="2.722" height="17.489" x="9.722" y="3.109" fill="#085B5C" rx=".778"/>
                        <rect width="2.722" height="23.318" x="7.389" fill="#8DCBC7" rx=".778"/>
                    </g>
                    <path stroke="#107778" stroke-width="3.111" d="M7 45.47V29.526C7 13.22 22.032 0 40.575 0h2.686c18.543 0 33.575 13.22 33.575 29.526V45.47h0" transform="translate(-1180.000000, -771.000000) translate(1180.000000, 771.000000) translate(27.611111, 17.488636)"/>
                    <g>
                        <path stroke="#001148" stroke-width="3.189" d="M10.896 10.105h9.708c3.446 0 6.24 2.793 6.24 6.24 0 .122-.003.244-.01.366l-.034.56c-.2 3.396-3.012 6.047-6.414 6.047h-9.272c-3.402 0-6.215-2.651-6.414-6.047l-.033-.56c-.203-3.44 2.422-6.393 5.862-6.596.122-.007.245-.01.367-.01zM43.952 10.105h9.708c3.446 0 6.24 2.793 6.24 6.24 0 .122-.004.244-.011.366l-.033.56c-.2 3.396-3.012 6.047-6.414 6.047h-9.273c-3.402 0-6.214-2.651-6.414-6.047l-.033-.56c-.202-3.44 2.423-6.393 5.863-6.596.122-.007.244-.01.367-.01z" transform="translate(-1180.000000, -771.000000) translate(1180.000000, 771.000000) translate(27.611111, 17.488636) translate(9.722222, 43.138636)"/>
                        <path stroke="#001148" stroke-linecap="round" stroke-width="2.203" d="M4.278 0L0 12.825" transform="translate(-1180.000000, -771.000000) translate(1180.000000, 771.000000) translate(27.611111, 17.488636) translate(9.722222, 43.138636) translate(2.138889, 6.412500) scale(1, -1) translate(-2.138889, -6.412500)"/>
                        <path stroke="#001148" stroke-linecap="round" stroke-width="2.203" d="M64.167 0L60.278 13.214" transform="translate(-1180.000000, -771.000000) translate(1180.000000, 771.000000) translate(27.611111, 17.488636) translate(9.722222, 43.138636) translate(62.222222, 6.606818) scale(-1, -1) translate(-62.222222, -6.606818)"/>
                        <path fill="#FA0" d="M10.896 10.105h9.708c3.446 0 6.24 2.793 6.24 6.24 0 .122-.003.244-.01.366l-.034.56c-.2 3.396-3.012 6.047-6.414 6.047h-9.272c-3.402 0-6.215-2.651-6.414-6.047l-.033-.56c-.203-3.44 2.422-6.393 5.862-6.596.122-.007.245-.01.367-.01z" opacity=".752" transform="translate(-1180.000000, -771.000000) translate(1180.000000, 771.000000) translate(27.611111, 17.488636) translate(9.722222, 43.138636)"/>
                        <path stroke="#001148" stroke-width="1.836" d="M27.611 17.1c1.505-1.555 3.092-2.332 4.763-2.332 1.67 0 3.323.777 4.96 2.332" transform="translate(-1180.000000, -771.000000) translate(1180.000000, 771.000000) translate(27.611111, 17.488636) translate(9.722222, 43.138636)"/>
                        <g transform="translate(-1180.000000, -771.000000) translate(1180.000000, 771.000000) translate(27.611111, 17.488636) translate(9.722222, 43.138636) translate(37.333333, 10.104545)">
                            <mask id="qjb7yskd3b" fill="#fff">
                                <use xlink:href="#dzvhl4oyra"/>
                            </mask>
                            <use fill="#FA0" opacity=".752" xlink:href="#dzvhl4oyra"/>
                            <path fill="#FFF" d="M11.185 -3.941L13.472 -3.928 13.679 11.148 11.262 9.696z" mask="url(#qjb7yskd3b)" transform="translate(12.431834, 3.603526) rotate(-31.000000) translate(-12.431834, -3.603526)"/>
                            <path fill="#FFF" d="M17.996 -2.654L19.139 -2.647 19.238 14.779 18.095 14.772z" mask="url(#qjb7yskd3b)" transform="translate(18.617188, 6.062500) rotate(-31.000000) translate(-18.617188, -6.062500)"/>
                        </g>
                    </g>
                </g>
            </g>
        </g>
    </g>
</svg>
