<svg xmlns="http://www.w3.org/2000/svg" xmlns:xlink="http://www.w3.org/1999/xlink" width="140" height="171" viewBox="0 0 140 171">
    <defs>
        <linearGradient id="5kopuranqa" x1="9.553%" x2="50%" y1="64.034%" y2="39.037%">
            <stop offset="0%" stop-color="#D6E3E8" stop-opacity="0"/>
            <stop offset="100%" stop-color="#ADC3CD"/>
        </linearGradient>
        <linearGradient id="w7eyi2p3sb" x1="50%" x2="50%" y1="17.105%" y2="100%">
            <stop offset="0%" stop-color="#23C6A4" stop-opacity="0"/>
            <stop offset="100%" stop-color="#0F946A"/>
        </linearGradient>
        <path id="r9htojnric" d="M48.059 7.545C50.367 7.374 59.63 9.408 62.12 9.49c.803.026-.681 1.22.107 1.222 4.302.013 10.572-1.438 13.101-1.148 3.858.442 4.988 1.731 5.633 2.529.68.84-.968 2.426.05 6.09.185.664.415 1.313.668 1.939 1.203 2.973 2.94 5.414 2.918 6.298-.025.993-.447 1.404-.323 2.692.095.973-.807 1.245-.56 2.525.246 1.28 2.235 1.075.73 4.225-.996 2.087-6.005-2.89-17.329-4.99-.595-.111.009-2.96-.977-2.834-2.08.267-6.124 3.733-7.543 3.58-2.904-.313-5.203-1.385-8.544-1.271-1.76.06-4.07 1.185-5.938 1.387-1.444.157-3.336 1.373-4.717 1.566-8.498 1.19-18.644 4.426-30.437 9.708-.576.258-1.25.162-1.73-.247-2.152-1.832-3.317-3.218-3.497-4.158-.3-1.575.574-1.257.392-2.212-.154-.804-1.861-1.023-2.018-1.842-.156-.82 1.4-1.396 1.272-2.066-.144-.753-1.187-.645-1.149-1.754.039-1.11 1.61-1.266 1.692-1.711.638-3.45.017-4.613.852-6.218.146-.28-3.81-3.662-2.1-4.929 2.983-2.208 12.187-5.388 14.478-5.835 7.366-1.435 17.155-1.717 24.304-2.13 1.911-.11-.137.025 2.036-.178 1.521-.142 2.856-2.056 4.568-2.183z"/>
    </defs>
    <g fill="none" fill-rule="evenodd">
        <g>
            <g>
                <g>
                    <g>
                        <path fill="#647780" d="M13.749 20.288L16.082 20.287 16.081 31.558 13.747 31.558z" transform="translate(-4220.000000, -771.000000) translate(4220.000000, 771.000000) translate(5.233256, 11.723139) translate(0.000000, 68.638874) translate(14.914763, 25.922892) rotate(11.000000) translate(-14.914763, -25.922892)"/>
                        <g fill-rule="nonzero">
                            <path fill="url(#5kopuranqa)" d="M36.734 10.054c-.37-.097-.764.01-1.035.28l-7.615 7.56L6.41 12.127c-.299-.08-.618-.028-.876.142-.258.17-.43.441-.473.745-.413 2.974-.02 5.962 1.137 8.69L0 27.831l1.607 11.903 3.908.273 9.535-9.515c6.195 2.594 13.422 1.218 18.21-3.536 4.248-4.217 5.872-10.409 4.239-16.158-.104-.365-.395-.649-.765-.745z" transform="translate(-4220.000000, -771.000000) translate(4220.000000, 771.000000) translate(5.233256, 11.723139) translate(0.000000, 68.638874) translate(21.297931, 20.398275) rotate(-94.000000) translate(-21.297931, -20.398275) translate(2.236285, 0.394255)"/>
                            <path fill="#647780" d="M24.814 21.055L14.71 18.398c-.556-.145-1.132.182-1.28.735l-1.025 3.82c-.071.267-.033.55.106.787.14.238.368.411.637.482l10.104 2.656c.09.024.18.036.27.036.462 0 .886-.307 1.01-.77l1.025-3.822c.071-.266.033-.549-.107-.786-.138-.238-.368-.41-.636-.481z" transform="translate(-4220.000000, -771.000000) translate(4220.000000, 771.000000) translate(5.233256, 11.723139) translate(0.000000, 68.638874) translate(21.297931, 20.398275) rotate(-94.000000) translate(-21.297931, -20.398275) translate(2.236285, 0.394255)"/>
                            <path fill="#324148" d="M18.022 23.231L18.539 21.279 19.967 21.659 19.45 23.611zM15.463 20.674L16.89 21.054 16.374 23.006 14.946 22.626zM22.887 24.63L21.46 24.25 21.976 22.298 23.404 22.678z" transform="translate(-4220.000000, -771.000000) translate(4220.000000, 771.000000) translate(5.233256, 11.723139) translate(0.000000, 68.638874) translate(21.297931, 20.398275) rotate(-94.000000) translate(-21.297931, -20.398275) translate(2.236285, 0.394255)"/>
                            <path fill="#C3CFD5" d="M28.203 1.382c-.096-.368-.378-.658-.743-.761-5.73-1.624-11.897-.008-16.097 4.214-1.343 1.35-2.436 2.921-3.247 4.67-.134.288-.134.62 0 .907.133.287.386.5.69.583l10.989 2.96c.092.024.184.036.276.036.28 0 .552-.11.755-.314.27-.271.375-.666.277-1.036l-.709-2.66 7.53-7.57c.269-.269.375-.66.279-1.029z" transform="translate(-4220.000000, -771.000000) translate(4220.000000, 771.000000) translate(5.233256, 11.723139) translate(0.000000, 68.638874) translate(21.297931, 20.398275) rotate(-94.000000) translate(-21.297931, -20.398275) translate(2.236285, 0.394255)"/>
                            <path fill="#C3CFD5" d="M18.587 8.457c-.27.261-.375.642-.276 1l.39 1.413-7.922-2.06c.616-1.031 1.363-1.975 2.23-2.816 3.207-3.112 7.73-4.54 12.159-3.922l-6.58 6.385z" transform="translate(-4220.000000, -771.000000) translate(4220.000000, 771.000000) translate(5.233256, 11.723139) translate(0.000000, 68.638874) translate(21.297931, 20.398275) rotate(-94.000000) translate(-21.297931, -20.398275) translate(2.236285, 0.394255)"/>
                        </g>
                    </g>
                    <g>
                        <path fill="url(#w7eyi2p3sb)" d="M24.519 0.287L24.519 14.005 20.196 14.005 20.196 3.678 24.109 0z" transform="translate(-4220.000000, -771.000000) translate(4220.000000, 771.000000) translate(5.233256, 11.723139) translate(104.331968, 94.502215) rotate(-125.000000) translate(-104.331968, -94.502215) translate(81.970856, 73.596468)"/>
                        <g fill="#3F5159" transform="translate(-4220.000000, -771.000000) translate(4220.000000, 771.000000) translate(5.233256, 11.723139) translate(104.331968, 94.502215) rotate(-125.000000) translate(-104.331968, -94.502215) translate(81.970856, 73.596468) translate(0.000000, 12.581487)">
                            <rect width="44.722" height="2.356" y="26.874" rx="1.178"/>
                            <path d="M19.643 9.21h5.435c9.756 0 17.665 7.908 17.665 17.664H1.978c0-9.756 7.909-17.665 17.665-17.665z"/>
                            <path d="M19.88 3.431h5.332c1.059 0 1.917.858 1.917 1.917v3.237c0 1.333 1.272 1.694 1.903 1.694-3.004 1.802-10.574 1.7-13.321 0 .643 0 2.253-.583 2.253-1.778V5.348c0-1.059.858-1.917 1.916-1.917z"/>
                            <path d="M21.375 0h1.932c1.058 0 1.916.858 1.916 1.916V5.72h-5.765V1.916C19.458.858 20.316 0 21.375 0z"/>
                        </g>
                    </g>
                    <g>
                        <g transform="translate(-4220.000000, -771.000000) translate(4220.000000, 771.000000) translate(5.233256, 11.723139) translate(64.374677, 26.751448) rotate(-3.000000) translate(-64.374677, -26.751448) translate(20.825125, 2.244141) translate(0.000000, -0.000000)">
                            <use fill="#F3F6F7" transform="translate(43.548588, 25.480875) rotate(8.000000) translate(-43.548588, -25.480875)" xlink:href="#r9htojnric"/>
                            <path fill="#FFF" d="M62.14 36.848c.945-.001 5.139-1.19 5.872-1.423 4.733-1.503 4.847-8.93 4.854-15.156.004-3.582.515-9.19 1.533-16.823.06-.449-.255-.86-.704-.92-.136-.018-.274-.002-.402.048-6.144 2.371-9.744 4.343-10.802 5.915-5.502 8.177-5.138 5.705-5.146 12.896-.005 4.221-.764 7.67.068 11.092.227.935 2.16 1.163 2.346 2.255.213 1.25.6 2.118 2.38 2.116z" transform="translate(65.803072, 19.465795) rotate(27.000000) translate(-65.803072, -19.465795)"/>
                            <path fill="#FFF" d="M64.01 41.96c7.048.01 9.863-12.465 9.852-21.209-.011-7.84.54-17.399-.152-17.545-.693-.147-8.319 2.421-9.048 2.42-7.048-.01-6.323 7.697-6.31 16.44.006 4.718-2.083 9.604-1.168 12.705.152.516.62.405.898.808.126.183.684 1.55.819 1.783 1.09 1.881 2.783 4.596 5.109 4.599z" transform="translate(65.505797, 22.580189) rotate(-39.000000) translate(-65.505797, -22.580189)"/>
                        </g>
                    </g>
                </g>
            </g>
        </g>
    </g>
</svg>
