<svg xmlns="http://www.w3.org/2000/svg" xmlns:xlink="http://www.w3.org/1999/xlink" width="140" height="171" viewBox="0 0 140 171">
    <defs>
        <path id="2dy43lco7a" d="M.567.295c7.37 3.791 14.739 5.686 22.103 5.686 7.352 0 14.51-1.888 21.478-5.665.189-.103.425-.032.527.156.031.057.047.121.047.186V25.26H0V.641C0 .426.174.252.389.252c.062 0 .123.015.178.043z"/>
    </defs>
    <g fill="none" fill-rule="evenodd">
        <g>
            <g>
                <g>
                    <g transform="translate(-1560.000000, -771.000000) translate(1560.000000, 771.000000) translate(31.500084, 2.438848)">
                        <path fill="#196CC7" d="M67.752 26.996l11.194.453c1.87.076 3.324 1.653 3.248 3.523-.041 1.012-.533 1.953-1.34 2.564l-5.797 4.388c-1.126.852-2.51 1.293-3.92 1.25l-9.17-.28c-2.011-.06-3.592-1.74-3.53-3.751.027-.886.375-1.73.98-2.378l3.568-3.814c1.23-1.314 2.97-2.028 4.767-1.955z" transform="translate(71.151775, 33.060965) rotate(16.000000) translate(-71.151775, -33.060965)"/>
                        <path fill="#0E7CF4" d="M37.533 0c37.462 0 38.69 27.777 38.69 37.736 0 7.016-8.715 5.686-21.336 4.287.291-.79.33-2.068.335-4.065v-.526c0-9.03-4.907-17.198-17.567-17.198s-17.043 7.31-17.043 16.341V37.6c.003 2.014.036 3.286.377 4.065C8.315 42.75 0 43.851 0 37.735v-.532C.018 28.113.82 0 37.533 0z"/>
                        <path stroke="#196CC7" stroke-width="1.944" d="M55.223 41.866c0-13.525-4.908-21.79-17.568-21.79s-16.657 7.58-16.657 21.79"/>
                        <path fill="#ADC3CD" d="M22.245 35.648h40.366c1.074 0 1.944.87 1.944 1.944v2.33c0 1.073-.87 1.944-1.944 1.944h-40.69l.324-6.218z"/>
                        <rect width="9.722" height="6.995" x="42.778" y="35.259" fill="#196CC7" rx=".778"/>
                    </g>
                    <g transform="translate(-1560.000000, -771.000000) translate(1560.000000, 771.000000) translate(31.500084, 2.438848) translate(15.944360, 107.156606)">
                        <mask id="ullww1458b" fill="#fff">
                            <use xlink:href="#2dy43lco7a"/>
                        </mask>
                        <use fill="#EEF8F7" xlink:href="#2dy43lco7a"/>
                        <ellipse cx="22.556" cy="-6.995" stroke="#0E7CF4" stroke-width="1.944" mask="url(#ullww1458b)" rx="29.464" ry="15.739"/>
                        <ellipse cx="22.167" cy="-4.664" stroke="#FF9779" stroke-width=".778" mask="url(#ullww1458b)" rx="30.048" ry="16.322"/>
                    </g>
                    <path stroke="#D7D7D7" stroke-linejoin="round" stroke-width="1.944" d="M4.804 78.197l.051-.198c-.943 3.148-1.023 4.82-.24 5.013.783.194 1.332-.385 1.647-1.738M71.65 78.197l-.05-.198c.943 3.148 1.023 4.82.24 5.013-.783.194-1.332-.385-1.647-1.738" transform="translate(-1560.000000, -771.000000) translate(1560.000000, 771.000000) translate(31.500084, 2.438848)"/>
                    <path stroke="#FFF" stroke-dasharray=".389 2.333" stroke-linecap="round" stroke-width="1.944" d="M14.027 115.377c1.094 10.347 9.141 15.52 24.14 15.52 15 0 23.158-5.173 24.475-15.52" transform="translate(-1560.000000, -771.000000) translate(1560.000000, 771.000000) translate(31.500084, 2.438848)"/>
                </g>
            </g>
        </g>
    </g>
</svg>
