<svg xmlns="http://www.w3.org/2000/svg" xmlns:xlink="http://www.w3.org/1999/xlink" width="140" height="171" viewBox="0 0 140 171">
    <defs>
        <path id="chy7zklzsa" d="M5.772 1.747c7.722 2.077 15.45 3.116 23.186 3.116 7.738 0 15.477-1.04 23.216-3.12 2.443-.656 4.957.792 5.613 3.236.105.388.157.788.157 1.19v18.365c0 2.295-1.257 4.405-3.276 5.496-8.496 4.594-17.035 6.89-25.615 6.89-8.585 0-17.17-2.299-25.755-6.897C1.268 28.936 0 26.82 0 24.516V6.17c0-2.53 2.051-4.582 4.582-4.582.402 0 .802.053 1.19.158z"/>
    </defs>
    <g fill="none" fill-rule="evenodd">
        <g>
            <g>
                <g>
                    <path d="M0 24.624H70.778V56.492H0z" transform="translate(-3840.000000, -771.000000) translate(3840.000000, 771.000000) translate(34.222222, 63.208112)"/>
                    <g>
                        <path stroke="#DCF2F1" stroke-linecap="round" stroke-linejoin="round" stroke-width="1.832" d="M0 20.374c.568 3.042 2.71 8.444 4.102 13.577 1.674 6.177 9.51 1.976 5.491 1.976-1.959 0-4.252-7.963-6.089-16.415C1.572 10.62.143 1.185 0 0M62.611 20.374c-.516 2.762-2.292 7.656-3.53 12.361-1.767 6.713-10.083 3.192-6.063 3.192 1.959 0 4.253-7.963 6.089-16.415C61.039 10.62 62.469 1.185 62.611 0" transform="translate(-3840.000000, -771.000000) translate(3840.000000, 771.000000) translate(34.222222, 63.208112) translate(3.797743, 0.000000)"/>
                        <g transform="translate(-3840.000000, -771.000000) translate(3840.000000, 771.000000) translate(34.222222, 63.208112) translate(3.797743, 0.000000) translate(2.813368, 9.078251)">
                            <mask id="ull3v3u51b" fill="#fff">
                                <use xlink:href="#chy7zklzsa"/>
                            </mask>
                            <use fill="#00F5B3" xlink:href="#chy7zklzsa"/>
                            <path fill="#29DAA1" d="M6.255 4.357c7.68 2.407 15.346 3.61 23 3.61 7.623 0 15.229-1.194 22.816-3.582 3.483-1.096 7.195.839 8.29 4.322.203.642.306 1.311.306 1.984v16.251c0 2.142-1.097 4.134-2.907 5.28-9.454 5.982-18.956 8.973-28.506 8.973-9.552 0-19.104-2.993-28.657-8.978-1.823-1.143-2.93-3.143-2.93-5.295V10.665c0-3.65 2.96-6.61 6.61-6.61.671 0 1.338.101 1.978.302z" mask="url(#ull3v3u51b)"/>
                            <g fill="#00F5B3" mask="url(#ull3v3u51b)">
                                <g>
                                    <path d="M.768 13.458c6.44 2.852 13.19 4.278 20.248 4.278 7.09 0 14.341-1.439 21.754-4.316.297-.115.631.032.746.329.026.066.04.137.04.209 0 .513-.317.974-.797 1.157-7.518 2.878-14.746 4.317-21.686 4.317-6.91 0-13.674-1.427-20.288-4.28C.309 14.945 0 14.475 0 13.957c0-.303.245-.547.547-.547.076 0 .152.016.221.047zM.768 6.955c6.44 2.852 13.19 4.278 20.248 4.278 7.09 0 14.341-1.439 21.754-4.316.297-.115.631.032.746.329.026.066.04.137.04.209 0 .513-.317.974-.797 1.157-7.518 2.878-14.746 4.317-21.686 4.317-6.91 0-13.674-1.427-20.288-4.28C.309 8.442 0 7.973 0 7.454c0-.302.245-.547.547-.547.076 0 .152.016.221.047zM.768.348c6.44 2.852 13.19 4.278 20.248 4.278 7.09 0 14.341-1.438 21.754-4.316.297-.115.631.032.746.33.026.066.04.136.04.208 0 .514-.317.974-.797 1.158-7.518 2.877-14.746 4.316-21.686 4.316-6.91 0-13.674-1.427-20.288-4.28C.309 1.835 0 1.366 0 .847 0 .546.245.3.547.3.623.3.699.317.768.348z" transform="translate(7.000000, 10.881818)"/>
                                </g>
                            </g>
                        </g>
                    </g>
                </g>
            </g>
        </g>
    </g>
</svg>
