<svg xmlns="http://www.w3.org/2000/svg" width="140" height="171" viewBox="0 0 140 171">
    <g fill="none" fill-rule="evenodd">
        <g>
            <g>
                <path d="M0 0H140V171H0z" transform="translate(-40.000000, -771.000000) translate(40.000000, 771.000000)"/>
                <g>
                    <g>
                        <path fill="#FFD8CD" d="M23.806 40.258C28.026 44.684 25.002.14 21.357.138c-3.645-.001-10.28 4.88-10.276 16.086.003 11.206 8.505 19.609 12.725 24.034z" transform="translate(-40.000000, -771.000000) translate(40.000000, 771.000000) translate(22.166667, 30.845558) translate(8.979890, 45.961160) translate(18.470199, 20.352793) rotate(-39.000000) translate(-18.470199, -20.352793)"/>
                        <path fill="#FFB7A2" d="M65.025 40.258C69.245 44.684 66.221.14 62.576.138 58.931.137 52.296 5.018 52.3 16.224c.003 11.206 8.505 19.609 12.725 24.034z" transform="translate(-40.000000, -771.000000) translate(40.000000, 771.000000) translate(22.166667, 30.845558) translate(8.979890, 45.961160) translate(59.689027, 20.352793) scale(-1, 1) rotate(-39.000000) translate(-59.689027, -20.352793)"/>
                    </g>
                    <path fill="#FFF" d="M67.55 59.69c.538 0 .973.435.973.972v1.943c0 .536-.434.971-.97.971h-.001c-.537 0-.972-.435-.973-.972v-1.942c0-.537.435-.972.971-.972z" transform="translate(-40.000000, -771.000000) translate(40.000000, 771.000000) translate(22.166667, 30.845558) translate(67.551310, 61.633097) rotate(-24.000000) translate(-67.551310, -61.633097)"/>
                    <path fill="#FFF" d="M25.163 62.022c.537 0 .972.434.972.971v1.943c0 .537-.436.972-.973.972-.537 0-.972-.435-.972-.971v-1.943c0-.537.436-.972.973-.972z" transform="translate(-40.000000, -771.000000) translate(40.000000, 771.000000) translate(22.166667, 30.845558) translate(25.162421, 63.964915) rotate(19.000000) translate(-25.162421, -63.964915)"/>
                    <path fill="#FFF" d="M29.44 60.078c.537 0 .972.436.972.973v1.942c0 .537-.434.972-.97.972h-.001c-.537 0-.973-.435-.973-.972V61.05c0-.536.435-.972.971-.972z" transform="translate(-40.000000, -771.000000) translate(40.000000, 771.000000) translate(22.166667, 30.845558) translate(29.440199, 62.021733) rotate(-25.000000) translate(-29.440199, -62.021733)"/>
                    <path fill="#FF5928" d="M42.238 44.65l1.634-.843c.764-.395 1.702-.096 2.096.668.135.26.193.553.168.844-.11 1.313-.151 2.035-.122 2.168.157.732.164 2.1.164 2.353 0 .108-.027.209-.079.302-.436.452-1.042.73-1.638.607l-1.585-.327c-.74-.152-1.263-.814-1.24-1.57.019-.655.028-1.116.029-1.381 0-.23-.066-.554-.197-.974-.225-.721.1-1.5.77-1.846z" transform="translate(-40.000000, -771.000000) translate(40.000000, 771.000000) translate(22.166667, 30.845558) translate(43.705085, 46.655678) rotate(34.000000) translate(-43.705085, -46.655678)"/>
                    <path fill="#FFF" d="M69.106.228c.537 0 .973.436.973.973v1.942c0 .537-.435.972-.971.972-.538 0-.973-.435-.973-.972V1.2c0-.536.434-.972.97-.972h.001z" transform="translate(-40.000000, -771.000000) translate(40.000000, 771.000000) translate(22.166667, 30.845558) translate(69.106865, 2.171733) rotate(-25.000000) translate(-69.106865, -2.171733)"/>
                    <path fill="#FFF" d="M25.531 77.973c1.957 0 2.537 8.923 22.279 8.923 19.741 0 20.132-8.923 21.848-8.923 7.312 2.48 14.43 12.928 21.356 31.34.907 2.413-.313 5.104-2.726 6.012l-.086.031c-9.382 3.319-22.909 4.978-40.58 4.978-17.815 0-31.41-1.687-40.784-5.06-2.369-.852-3.634-3.43-2.861-5.825 5.442-16.852 12.626-27.344 21.554-31.476z" transform="translate(-40.000000, -771.000000) translate(40.000000, 771.000000) translate(22.166667, 30.845558)"/>
                    <path fill="#FFF" d="M.724 74.118c6.891-1.932 11.58-2.768 14.065-2.507 7.377.773 10.878 2.567 10.878 3.37v6.24c-3.5.827-9.136 1.371-13.285 0-4.224-1.397-8.156-3.538-11.795-6.424-.168-.134-.196-.378-.063-.546.051-.065.121-.111.2-.133z" transform="translate(-40.000000, -771.000000) translate(40.000000, 771.000000) translate(22.166667, 30.845558)"/>
                    <path fill="#FFF" d="M70.335 74.118c6.891-1.932 11.58-2.768 14.066-2.507 7.376.773 10.877 2.567 10.877 3.37v6.24c-3.5.827-9.136 1.371-13.284 0-4.225-1.397-8.156-3.538-11.795-6.424-.169-.134-.197-.378-.064-.546.051-.065.121-.111.2-.133z" transform="translate(-40.000000, -771.000000) translate(40.000000, 771.000000) translate(22.166667, 30.845558) translate(82.444444, 76.810934) scale(-1, 1) translate(-82.444444, -76.810934)"/>
                </g>
            </g>
        </g>
    </g>
</svg>
