<svg xmlns="http://www.w3.org/2000/svg" width="140" height="171" viewBox="0 0 140 171">
    <g fill="none" fill-rule="evenodd">
        <g>
            <g>
                <g transform="translate(-3080.000000, -771.000000) translate(3080.000000, 771.000000) translate(12.793477, 81.221258)">
                    <g>
                        <path fill="#FBFBFB" d="M20.866 2.303C31.49 5.24 36.804 8.352 36.804 11.635v20.597l-13.326-3.977-2.612-25.952z" transform="translate(1.839145, 13.721773)"/>
                        <g transform="translate(1.839145, 13.721773) translate(15.952781, 19.284857) rotate(-8.000000) translate(-15.952781, -19.284857) translate(2.312528, 1.726244)">
                            <path fill="#FFF" d="M.058 7.135h27.223V28.78c0 .506-.165.997-.468 1.401-2.47 3.292-6.888 4.937-13.251 4.937-6.373 0-10.731-1.65-13.073-4.952-.28-.395-.43-.867-.43-1.35V7.135z"/>
                            <ellipse cx="13.611" cy="7.578" fill="#F3F6F7" rx="13.611" ry="7.578"/>
                            <ellipse cx="13.446" cy="7.359" fill="#E1A46A" rx="7.194" ry="3.886"/>
                        </g>
                        <path fill="#F3F6F7" d="M26.978 25.534c0-5.362 9.826-8.192 9.826-13.9L36.7 38.174c.608.566.22 2.895-1.166 6.987-2.308 6.82-5.36 4.118-5.36 4.118-.557-5.012-3.186-23.744-3.196-23.744z" transform="translate(1.839145, 13.721773)"/>
                        <path fill="#FFF" d="M26.978 25.534c0 7.648 13.567.86 28.419-7.087 9.9-5.298 25.152-6.594 45.753-3.889l-2.232 2.71 2.232 3.68-2.232 2.725 2.232 3.055-2.732 2.793 2.059 3.23-2.059 3.016 2.059 3.449c-18.078-2.73-31.04-1.72-38.887 3.03-12.807 7.753-30.404 13.532-31.684 5.338-.55-3.524-2.876-22.05-2.928-22.05z" transform="translate(1.839145, 13.721773)"/>
                    </g>
                    <g>
                        <path fill="#FEC602" d="M19.762 5.19c.669.91 2 1.561 3.996 1.956.21.042.348.247.306.457-.006.028-.014.055-.026.081-.78 1.777-.84 3.423-.183 4.937.62 1.43 1.65 2.633 3.09 3.61.177.12.223.362.102.54-.043.065-.106.115-.178.143-1.967.777-3.27 1.923-3.91 3.44-.378.895-.62 2.393-.726 4.494-.01.215-.193.38-.408.369-.032-.002-.064-.008-.095-.017-2.304-.712-3.989-1.069-5.054-1.069-1.328 0-2.88 1.019-4.655 3.056-.14.162-.386.179-.548.037-.045-.038-.08-.087-.103-.14-1.064-2.502-1.848-3.975-2.353-4.418-1.093-.96-2.686-1.496-4.78-1.608-.214-.011-.378-.195-.367-.409.003-.044.012-.087.029-.127.973-2.369 1.273-4.527.899-6.476-.366-1.903-1.248-3.423-2.647-4.56-.167-.136-.192-.38-.057-.547.024-.03.051-.055.082-.076 1.54-1.056 2.846-2.28 3.918-3.673C7.117 3.86 7.558 2.287 7.414.47c-.017-.214.143-.402.357-.419.083-.006.165.014.235.057 1.613.993 3.271 1.49 4.975 1.49 1.744 0 3.445-.52 5.102-1.56.182-.114.422-.06.536.122.037.06.057.127.06.196.064 2.328.425 3.94 1.083 4.834z" transform="translate(0.000000, -0.000000) translate(14.667399, 13.656847) rotate(-93.000000) translate(-14.667399, -13.656847)"/>
                        <path fill="#F72F2A" fill-rule="nonzero" d="M10.011 15.782c1.696 0 2.94-1.383 2.94-3.7 0-2.316-1.244-3.653-2.94-3.653s-2.924 1.337-2.924 3.654c0 2.316 1.228 3.7 2.924 3.7zm1.991 4.648l6.238-12h-1.587l-6.238 12h1.587zm-1.991-6.171c-.544 0-1.011-.56-1.011-2.176 0-1.617.467-2.13 1.011-2.13.544 0 1.011.513 1.011 2.13 0 1.616-.467 2.176-1.011 2.176zm8.618 6.171c1.68 0 2.924-1.383 2.924-3.7 0-2.316-1.244-3.668-2.924-3.668s-2.925 1.352-2.925 3.669c0 2.316 1.245 3.7 2.925 3.7zm0-1.539c-.545 0-1.011-.544-1.011-2.16 0-1.633.466-2.13 1.01-2.13.545 0 1.012.497 1.012 2.13 0 1.616-.467 2.16-1.011 2.16z" transform="translate(0.000000, -0.000000) translate(14.319856, 14.429924) rotate(-16.000000) translate(-14.319856, -14.429924)"/>
                    </g>
                    <ellipse cx="75.095" cy="17.881" fill="#324148" rx="1.556" ry="1.555"/>
                </g>
            </g>
        </g>
    </g>
</svg>
