<svg xmlns="http://www.w3.org/2000/svg" width="140" height="171" viewBox="0 0 140 171">
    <defs>
        <filter id="2wv8l1q9na">
            <feColorMatrix in="SourceGraphic" values="0 0 0 0 0.196078 0 0 0 0 0.254902 0 0 0 0 0.282353 0 0 0 1.000000 0"/>
        </filter>
        <filter id="h9expykizb">
            <feColorMatrix in="SourceGraphic" values="0 0 0 0 0.196078 0 0 0 0 0.254902 0 0 0 0 0.282353 0 0 0 1.000000 0"/>
        </filter>
    </defs>
    <g fill="none" fill-rule="evenodd">
        <g>
            <g>
                <g>
                    <g>
                        <path fill="#E1A46A" d="M12.93.909L86.315.04v62.205l-75.098-1.946V2.643c0-.95.764-1.723 1.713-1.734z" transform="translate(-2700.000000, -771.000000) translate(2700.000000, 771.000000) translate(71.750000, 32.451136) rotate(-180.000000) translate(-71.750000, -32.451136) translate(17.502317, 0.384662) translate(54.247683, 32.066474) rotate(181.000000) translate(-54.247683, -32.066474) translate(0.535543, 0.932055)"/>
                        <path fill="#CE935B" d="M2.708 51.969l70.656 1.608c.733.017 1.442.266 2.025.71l10.374 7.917L11.217 60.3 2.169 53.53c-.383-.287-.462-.83-.175-1.214.168-.224.434-.353.714-.347zM85.763 0l9.168 1.285c1.713.24 2.987 1.706 2.987 3.435v57.484H85.763V0z" transform="translate(-2700.000000, -771.000000) translate(2700.000000, 771.000000) translate(71.750000, 32.451136) rotate(-180.000000) translate(-71.750000, -32.451136) translate(17.502317, 0.384662) translate(54.247683, 32.066474) rotate(181.000000) translate(-54.247683, -32.066474) translate(0.535543, 0.932055)"/>
                        <path fill="#E1A46A" d="M94.62 55.357h10.236c.479 0 .867.388.867.867 0 .27-.126.526-.341.69l-7.027 5.355H85.72l6.559-6.002c.639-.585 1.474-.91 2.341-.91z" transform="translate(-2700.000000, -771.000000) translate(2700.000000, 771.000000) translate(71.750000, 32.451136) rotate(-180.000000) translate(-71.750000, -32.451136) translate(17.502317, 0.384662) translate(54.247683, 32.066474) rotate(181.000000) translate(-54.247683, -32.066474) translate(0.535543, 0.932055)"/>
                    </g>
                    <g filter="url(#2wv8l1q9na)" transform="translate(-2700.000000, -771.000000) translate(2700.000000, 771.000000) translate(71.750000, 32.451136) rotate(-180.000000) translate(-71.750000, -32.451136) translate(17.502317, 0.384662)">
                        <g fill="#324148" fill-rule="nonzero" transform="translate(30.893710, 32.226202)">
                            <path d="M15.953 14.196V7.344h1.44c.27 0 .49-.22.49-.492 0-.084-.02-.167-.062-.24L14.537.762c-.133-.236-.433-.32-.67-.187-.078.044-.143.11-.187.188l-3.285 5.849c-.133.236-.049.536.188.669.074.04.156.063.24.063h1.44v6.852c0 .271.22.491.492.491h2.707c.271 0 .491-.22.491-.491zM6.837 14.196V7.344h1.44c.27 0 .49-.22.49-.492 0-.084-.02-.167-.062-.24L5.421.762c-.133-.236-.433-.32-.67-.187-.078.044-.143.11-.187.188L1.279 6.612c-.133.236-.049.536.188.669.074.04.156.063.24.063h1.44v6.852c0 .271.22.491.492.491h2.707c.271 0 .491-.22.491-.491z"/>
                            <rect width="19.1" height="3.168" y="15.839" rx=".424"/>
                        </g>
                    </g>
                    <g filter="url(#h9expykizb)" transform="translate(-2700.000000, -771.000000) translate(2700.000000, 771.000000) translate(71.750000, 32.451136) rotate(-180.000000) translate(-71.750000, -32.451136) translate(17.502317, 0.384662)">
                        <g fill="#324148">
                            <path fill-rule="nonzero" d="M4.097 11.525c-1.18-.816-2.256.775-1.337 1.599 1.38 1.094 2.211 1.75 2.494 1.97.243.188.514.388.35.628-.163.24-.394.067-.706-.17l-2.5-2.07c-.68-.506-.734-1.621-.19-2.076V7.51C2.208 6.197 0 6.197 0 7.51v5.768c0 .438.191.853.524 1.137l4.116 3.513v.705c0 .207.167.374.373.374h2.808c.207 0 .374-.167.374-.374v-3.017c-.03-.692-.304-1.351-.829-1.742-.489-.365-2.688-1.948-3.269-2.349z" transform="translate(55.203043, 32.226202)"/>
                            <path fill-rule="nonzero" d="M14.569 11.525c-1.18-.816-2.257.775-1.338 1.599 1.38 1.094 2.211 1.75 2.494 1.97.244.188.514.388.35.628-.162.24-.394.067-.706-.17l-2.5-2.07c-.68-.506-.734-1.621-.19-2.076V7.51c0-1.313-2.208-1.313-2.208 0v5.768c0 .438.192.853.524 1.137l4.116 3.513v.705c0 .207.167.374.374.374h2.808c.206 0 .373-.167.373-.374v-3.017c-.03-.692-.304-1.351-.829-1.742-.489-.365-2.688-1.948-3.268-2.349z" transform="translate(55.203043, 32.226202) translate(14.568660, 12.765944) scale(-1, 1) translate(-14.568660, -12.765944)"/>
                            <g>
                                <path d="M6.146 0c3.395 0 6.146 2.735 6.146 6.11 0 3.373-2.751 6.109-6.146 6.109C2.752 12.219 0 9.483 0 6.109S2.752 0 6.146 0zm1.038 4.999H5.108c-.32 0-.586.236-.631.544l-.007.094v2.055c0 .321.236.586.544.632l.094.007h2.076c.32 0 .586-.236.631-.544l.007-.095V5.637c0-.353-.286-.638-.638-.638zm2.179-1.355c-.384 0-.695.373-.695.833 0 .46.31.833.695.833.383 0 .694-.373.694-.833 0-.46-.31-.833-.694-.833zm-6.432 0c-.383 0-.694.373-.694.833 0 .46.31.833.694.833.384 0 .695-.373.695-.833 0-.46-.31-.833-.695-.833z" transform="translate(55.203043, 32.226202) translate(9.333047, 6.109330) scale(-1, 1) translate(-9.333047, -6.109330) translate(3.186894, 0.000000)"/>
                            </g>
                        </g>
                    </g>
                </g>
            </g>
        </g>
    </g>
</svg>
