<svg xmlns="http://www.w3.org/2000/svg" xmlns:xlink="http://www.w3.org/1999/xlink" width="140" height="171" viewBox="0 0 140 171">
    <defs>
        <path id="rig7gnn93a" d="M38.61 5.153C46.204 3.111 55.198-1.078 67.474.258c13.72 1.494 26.914 9.732 29.134 14.054 2.44 4.75 1.222 20.776 5.888 23.853 7.73 5.097 9.603 7.338 17.186 12.722-2.769-.042-4.804.709-6.57 1.818l-2.46-3.773-1.029.666 2.475 3.799c-.659.484-1.29 1.01-1.923 1.553l-.415.359c-1.356 1.172-2.742 2.39-4.435 3.399l-5.308-8.146-1.029.666 5.26 8.07c-1.258.627-2.687 1.13-4.377 1.427l-4.762-7.31-1.716 1.111 4.206 6.455c-2.63.147-5.818-.16-9.79-1.134-2.317-.568-4.405-1.166-6.314-1.773l-5.1-7.829-.686.444 4.548 6.982c-9.29-3.093-14.21-6.29-20.93-6.784-12.59-.923-15.913 1.557-24.412 1.27l-5.111-7.842-.687.444 4.793 7.353c-1.821-.104-3.881-.333-6.303-.74l-5.309-8.147-1.03.666 4.685 7.186c-.32-.06-.647-.123-.98-.19-.88-.175-1.732-.436-2.558-.764l-5.026-7.713-1.029.666 3.93 6.033c-4.482-2.49-8.231-6.724-12.006-9.588l-3.166-4.856-1.03.666 1.631 2.5c-1.833-1-3.711-1.525-5.718-1.229 4.714-2.783 9.406-6.47 18.743-8.954C29.95 24.668 31.018 7.196 38.611 5.153z"/>
    </defs>
    <g fill="none" fill-rule="evenodd">
        <g>
            <g>
                <g>
                    <g>
                        <path fill="#FEC602" d="M0 11.949c3.14-5.607 8.606-5.962 16.398-1.065C24.191 15.781 18.725 16.136 0 11.95z" transform="translate(-1940.000000, -776.000000) translate(1940.000000, 776.000000) translate(8.559928, 5.052273) translate(21.384517, 97.472058)"/>
                        <path fill="#FA0" d="M2.872 9.357c3.185-5.43 8.726-5.776 16.624-1.036 7.898 4.74 2.356 5.086-16.624 1.036z" transform="translate(-1940.000000, -776.000000) translate(1940.000000, 776.000000) translate(8.559928, 5.052273) translate(21.384517, 97.472058) translate(12.924486, 8.581798) rotate(34.000000) translate(-12.924486, -8.581798)"/>
                        <path fill="#FA0" d="M9.585 15.611c2.152-9.229 5.898-9.812 11.24-1.751 5.34 8.06 1.594 8.645-11.24 1.751z" transform="translate(-1940.000000, -776.000000) translate(1940.000000, 776.000000) translate(8.559928, 5.052273) translate(21.384517, 97.472058) translate(16.381830, 14.299797) rotate(178.000000) translate(-16.381830, -14.299797)"/>
                        <path fill="#FA0" d="M4.047 13.945c1.908-3.258 5.232-3.463 9.973-.616 4.74 2.848 1.415 3.053-9.973.616z" transform="translate(-1940.000000, -776.000000) translate(1940.000000, 776.000000) translate(8.559928, 5.052273) translate(21.384517, 97.472058) translate(10.077887, 13.483948) rotate(-40.000000) translate(-10.077887, -13.483948)"/>
                        <path fill="#FEC602" d="M4.764 17.523c1.909-3.26 5.232-3.466 9.97-.62 4.737 2.847 1.414 3.053-9.97.62z" transform="translate(-1940.000000, -776.000000) translate(1940.000000, 776.000000) translate(8.559928, 5.052273) translate(21.384517, 97.472058) translate(10.792737, 17.058939) rotate(-95.000000) translate(-10.792737, -17.058939)"/>
                        <path fill="#FEC602" d="M14.061 9.655c1.91-3.257 5.234-3.463 9.975-.616 4.74 2.846 1.416 3.052-9.975.616z" transform="translate(-1940.000000, -776.000000) translate(1940.000000, 776.000000) translate(8.559928, 5.052273) translate(21.384517, 97.472058) translate(20.093622, 9.193558) rotate(-203.000000) translate(-20.093622, -9.193558)"/>
                        <path fill="#FEC602" d="M12.444 12.123c1.081-3.98 3.308-6.283 6.68-6.908.155-.029.313-.056.473-.082.953-.156 2.199-.416 3.736-.782l-10.889 7.772z" transform="translate(-1940.000000, -776.000000) translate(1940.000000, 776.000000) translate(8.559928, 5.052273) translate(21.384517, 97.472058)"/>
                    </g>
                    <g>
                        <path fill="#57A3F6" d="M0 11.932c3.14-5.606 8.606-5.961 16.398-1.064 7.793 4.897 2.327 5.251-16.398 1.064z" transform="translate(-1940.000000, -776.000000) translate(1940.000000, 776.000000) translate(8.559928, 5.052273) translate(34.388131, 116.109995) scale(-1, 1) translate(-34.388131, -116.109995) translate(21.224972, 104.484121)"/>
                        <path fill="#196CC7" d="M2.713 9.357c3.184-5.43 8.725-5.776 16.623-1.036 7.898 4.74 2.357 5.086-16.623 1.036z" transform="translate(-1940.000000, -776.000000) translate(1940.000000, 776.000000) translate(8.559928, 5.052273) translate(34.388131, 116.109995) scale(-1, 1) translate(-34.388131, -116.109995) translate(21.224972, 104.484121) translate(12.764941, 8.581798) rotate(34.000000) translate(-12.764941, -8.581798)"/>
                        <path fill="#196CC7" d="M9.425 15.611c2.152-9.229 5.899-9.812 11.24-1.751 5.341 8.06 1.595 8.645-11.24 1.751z" transform="translate(-1940.000000, -776.000000) translate(1940.000000, 776.000000) translate(8.559928, 5.052273) translate(34.388131, 116.109995) scale(-1, 1) translate(-34.388131, -116.109995) translate(21.224972, 104.484121) translate(16.222286, 14.299797) rotate(178.000000) translate(-16.222286, -14.299797)"/>
                        <path fill="#196CC7" d="M3.887 13.945c1.908-3.258 5.233-3.463 9.973-.616 4.74 2.848 1.416 3.053-9.973.616z" transform="translate(-1940.000000, -776.000000) translate(1940.000000, 776.000000) translate(8.559928, 5.052273) translate(34.388131, 116.109995) scale(-1, 1) translate(-34.388131, -116.109995) translate(21.224972, 104.484121) translate(9.918343, 13.483948) rotate(-40.000000) translate(-9.918343, -13.483948)"/>
                        <path fill="#57A3F6" d="M4.604 17.523c1.91-3.26 5.232-3.466 9.97-.62 4.737 2.847 1.414 3.053-9.97.62z" transform="translate(-1940.000000, -776.000000) translate(1940.000000, 776.000000) translate(8.559928, 5.052273) translate(34.388131, 116.109995) scale(-1, 1) translate(-34.388131, -116.109995) translate(21.224972, 104.484121) translate(10.633193, 17.058939) rotate(-95.000000) translate(-10.633193, -17.058939)"/>
                        <path fill="#57A3F6" d="M13.902 9.655c1.909-3.257 5.234-3.463 9.975-.616 4.74 2.846 1.415 3.052-9.975.616z" transform="translate(-1940.000000, -776.000000) translate(1940.000000, 776.000000) translate(8.559928, 5.052273) translate(34.388131, 116.109995) scale(-1, 1) translate(-34.388131, -116.109995) translate(21.224972, 104.484121) translate(19.934078, 9.193558) rotate(-203.000000) translate(-19.934078, -9.193558)"/>
                        <path fill="#57A3F6" d="M12.444 12.107c1.081-3.981 3.308-6.284 6.68-6.908.155-.03.313-.057.473-.083.953-.155 2.199-.416 3.736-.782l-10.889 7.773z" transform="translate(-1940.000000, -776.000000) translate(1940.000000, 776.000000) translate(8.559928, 5.052273) translate(34.388131, 116.109995) scale(-1, 1) translate(-34.388131, -116.109995) translate(21.224972, 104.484121)"/>
                    </g>
                    <g>
                        <path fill="#FFB7A2" d="M0 11.882c3.14-5.606 8.606-5.961 16.398-1.064C24.191 15.715 18.725 16.07 0 11.882z" transform="translate(-1940.000000, -776.000000) translate(1940.000000, 776.000000) translate(8.559928, 5.052273) translate(27.217850, 109.197582)"/>
                        <path fill="#FA7048" d="M2.713 9.357c3.184-5.43 8.725-5.776 16.623-1.036 7.898 4.74 2.357 5.086-16.623 1.036z" transform="translate(-1940.000000, -776.000000) translate(1940.000000, 776.000000) translate(8.559928, 5.052273) translate(27.217850, 109.197582) translate(12.764941, 8.581798) rotate(34.000000) translate(-12.764941, -8.581798)"/>
                        <path fill="#FA7048" d="M9.425 15.611c2.152-9.229 5.899-9.812 11.24-1.751 5.341 8.06 1.595 8.645-11.24 1.751z" transform="translate(-1940.000000, -776.000000) translate(1940.000000, 776.000000) translate(8.559928, 5.052273) translate(27.217850, 109.197582) translate(16.222286, 14.299797) rotate(178.000000) translate(-16.222286, -14.299797)"/>
                        <path fill="#FA7048" d="M3.887 13.945c1.908-3.258 5.233-3.463 9.973-.616 4.74 2.848 1.416 3.053-9.973.616z" transform="translate(-1940.000000, -776.000000) translate(1940.000000, 776.000000) translate(8.559928, 5.052273) translate(27.217850, 109.197582) translate(9.918343, 13.483948) rotate(-40.000000) translate(-9.918343, -13.483948)"/>
                        <path fill="#FFB7A2" d="M4.604 17.523c1.91-3.26 5.232-3.466 9.97-.62 4.737 2.847 1.414 3.053-9.97.62z" transform="translate(-1940.000000, -776.000000) translate(1940.000000, 776.000000) translate(8.559928, 5.052273) translate(27.217850, 109.197582) translate(10.633193, 17.058939) rotate(-95.000000) translate(-10.633193, -17.058939)"/>
                        <path fill="#FFB7A2" d="M13.902 9.655c1.909-3.257 5.234-3.463 9.975-.616 4.74 2.846 1.415 3.052-9.975.616z" transform="translate(-1940.000000, -776.000000) translate(1940.000000, 776.000000) translate(8.559928, 5.052273) translate(27.217850, 109.197582) translate(19.934078, 9.193558) rotate(-203.000000) translate(-19.934078, -9.193558)"/>
                        <path fill="#FFB7A2" d="M12.444 12.057c1.081-3.98 3.308-6.284 6.68-6.908.155-.029.313-.056.473-.083.953-.155 2.199-.416 3.736-.782l-10.889 7.773z" transform="translate(-1940.000000, -776.000000) translate(1940.000000, 776.000000) translate(8.559928, 5.052273) translate(27.217850, 109.197582)"/>
                    </g>
                    <g>
                        <path fill="#FEC602" d="M0 11.949c3.14-5.607 8.606-5.962 16.398-1.065C24.191 15.781 18.725 16.136 0 11.95z" transform="translate(-1940.000000, -776.000000) translate(1940.000000, 776.000000) translate(8.559928, 5.052273) translate(34.606739, 111.851603)"/>
                        <path fill="#FA0" d="M2.872 9.357c3.185-5.43 8.726-5.776 16.624-1.036 7.898 4.74 2.356 5.086-16.624 1.036z" transform="translate(-1940.000000, -776.000000) translate(1940.000000, 776.000000) translate(8.559928, 5.052273) translate(34.606739, 111.851603) translate(12.924486, 8.581798) rotate(34.000000) translate(-12.924486, -8.581798)"/>
                        <path fill="#FA0" d="M9.585 15.611c2.152-9.229 5.898-9.812 11.24-1.751 5.34 8.06 1.594 8.645-11.24 1.751z" transform="translate(-1940.000000, -776.000000) translate(1940.000000, 776.000000) translate(8.559928, 5.052273) translate(34.606739, 111.851603) translate(16.381830, 14.299797) rotate(178.000000) translate(-16.381830, -14.299797)"/>
                        <path fill="#FA0" d="M4.047 13.945c1.908-3.258 5.232-3.463 9.973-.616 4.74 2.848 1.415 3.053-9.973.616z" transform="translate(-1940.000000, -776.000000) translate(1940.000000, 776.000000) translate(8.559928, 5.052273) translate(34.606739, 111.851603) translate(10.077887, 13.483948) rotate(-40.000000) translate(-10.077887, -13.483948)"/>
                        <path fill="#FEC602" d="M4.764 17.523c1.909-3.26 5.232-3.466 9.97-.62 4.737 2.847 1.414 3.053-9.97.62z" transform="translate(-1940.000000, -776.000000) translate(1940.000000, 776.000000) translate(8.559928, 5.052273) translate(34.606739, 111.851603) translate(10.792737, 17.058939) rotate(-95.000000) translate(-10.792737, -17.058939)"/>
                        <path fill="#FEC602" d="M14.061 9.655c1.91-3.257 5.234-3.463 9.975-.616 4.74 2.846 1.416 3.052-9.975.616z" transform="translate(-1940.000000, -776.000000) translate(1940.000000, 776.000000) translate(8.559928, 5.052273) translate(34.606739, 111.851603) translate(20.093622, 9.193558) rotate(-203.000000) translate(-20.093622, -9.193558)"/>
                        <path fill="#FEC602" d="M12.444 12.123c1.081-3.98 3.308-6.283 6.68-6.908.155-.029.313-.056.473-.082.953-.156 2.199-.416 3.736-.782l-10.889 7.772z" transform="translate(-1940.000000, -776.000000) translate(1940.000000, 776.000000) translate(8.559928, 5.052273) translate(34.606739, 111.851603)"/>
                    </g>
                    <g>
                        <path fill="#9EDEDA" d="M0 11.899c3.14-5.607 8.606-5.961 16.398-1.064C24.191 15.73 18.725 16.086 0 11.899z" transform="translate(-1940.000000, -776.000000) translate(1940.000000, 776.000000) translate(8.559928, 5.052273) translate(59.905225, 124.693212) scale(1, -1) translate(-59.905225, -124.693212) translate(46.662294, 113.067337)"/>
                        <path fill="#107778" d="M2.872 9.357c3.185-5.43 8.726-5.776 16.624-1.036 7.898 4.74 2.356 5.086-16.624 1.036z" transform="translate(-1940.000000, -776.000000) translate(1940.000000, 776.000000) translate(8.559928, 5.052273) translate(59.905225, 124.693212) scale(1, -1) translate(-59.905225, -124.693212) translate(46.662294, 113.067337) translate(12.924486, 8.581798) rotate(34.000000) translate(-12.924486, -8.581798)"/>
                        <path fill="#107778" d="M9.585 15.611c2.152-9.229 5.898-9.812 11.24-1.751 5.34 8.06 1.594 8.645-11.24 1.751z" transform="translate(-1940.000000, -776.000000) translate(1940.000000, 776.000000) translate(8.559928, 5.052273) translate(59.905225, 124.693212) scale(1, -1) translate(-59.905225, -124.693212) translate(46.662294, 113.067337) translate(16.381830, 14.299797) rotate(178.000000) translate(-16.381830, -14.299797)"/>
                        <path fill="#107778" d="M4.047 13.945c1.908-3.258 5.232-3.463 9.973-.616 4.74 2.848 1.415 3.053-9.973.616z" transform="translate(-1940.000000, -776.000000) translate(1940.000000, 776.000000) translate(8.559928, 5.052273) translate(59.905225, 124.693212) scale(1, -1) translate(-59.905225, -124.693212) translate(46.662294, 113.067337) translate(10.077887, 13.483948) rotate(-40.000000) translate(-10.077887, -13.483948)"/>
                        <path fill="#9EDEDA" d="M4.764 17.523c1.909-3.26 5.232-3.466 9.97-.62 4.737 2.847 1.414 3.053-9.97.62z" transform="translate(-1940.000000, -776.000000) translate(1940.000000, 776.000000) translate(8.559928, 5.052273) translate(59.905225, 124.693212) scale(1, -1) translate(-59.905225, -124.693212) translate(46.662294, 113.067337) translate(10.792737, 17.058939) rotate(-95.000000) translate(-10.792737, -17.058939)"/>
                        <path fill="#9EDEDA" d="M14.061 9.655c1.91-3.257 5.234-3.463 9.975-.616 4.74 2.846 1.416 3.052-9.975.616z" transform="translate(-1940.000000, -776.000000) translate(1940.000000, 776.000000) translate(8.559928, 5.052273) translate(59.905225, 124.693212) scale(1, -1) translate(-59.905225, -124.693212) translate(46.662294, 113.067337) translate(20.093622, 9.193558) rotate(-203.000000) translate(-20.093622, -9.193558)"/>
                        <path fill="#9EDEDA" d="M12.444 12.074c1.081-3.981 3.308-6.284 6.68-6.909.155-.028.313-.056.473-.082.953-.155 2.199-.416 3.736-.782l-10.889 7.773z" transform="translate(-1940.000000, -776.000000) translate(1940.000000, 776.000000) translate(8.559928, 5.052273) translate(59.905225, 124.693212) scale(1, -1) translate(-59.905225, -124.693212) translate(46.662294, 113.067337)"/>
                    </g>
                    <g>
                        <path fill="#57A3F6" d="M0 11.932c3.14-5.606 8.606-5.961 16.398-1.064 7.793 4.897 2.327 5.251-16.398 1.064z" transform="translate(-1940.000000, -776.000000) translate(1940.000000, 776.000000) translate(8.559928, 5.052273) translate(74.443686, 124.271358) scale(-1, 1) translate(-74.443686, -124.271358) translate(61.280528, 112.645484)"/>
                        <path fill="#196CC7" d="M2.713 9.357c3.184-5.43 8.725-5.776 16.623-1.036 7.898 4.74 2.357 5.086-16.623 1.036z" transform="translate(-1940.000000, -776.000000) translate(1940.000000, 776.000000) translate(8.559928, 5.052273) translate(74.443686, 124.271358) scale(-1, 1) translate(-74.443686, -124.271358) translate(61.280528, 112.645484) translate(12.764941, 8.581798) rotate(34.000000) translate(-12.764941, -8.581798)"/>
                        <path fill="#196CC7" d="M9.425 15.611c2.152-9.229 5.899-9.812 11.24-1.751 5.341 8.06 1.595 8.645-11.24 1.751z" transform="translate(-1940.000000, -776.000000) translate(1940.000000, 776.000000) translate(8.559928, 5.052273) translate(74.443686, 124.271358) scale(-1, 1) translate(-74.443686, -124.271358) translate(61.280528, 112.645484) translate(16.222286, 14.299797) rotate(178.000000) translate(-16.222286, -14.299797)"/>
                        <path fill="#196CC7" d="M3.887 13.945c1.908-3.258 5.233-3.463 9.973-.616 4.74 2.848 1.416 3.053-9.973.616z" transform="translate(-1940.000000, -776.000000) translate(1940.000000, 776.000000) translate(8.559928, 5.052273) translate(74.443686, 124.271358) scale(-1, 1) translate(-74.443686, -124.271358) translate(61.280528, 112.645484) translate(9.918343, 13.483948) rotate(-40.000000) translate(-9.918343, -13.483948)"/>
                        <path fill="#57A3F6" d="M4.604 17.523c1.91-3.26 5.232-3.466 9.97-.62 4.737 2.847 1.414 3.053-9.97.62z" transform="translate(-1940.000000, -776.000000) translate(1940.000000, 776.000000) translate(8.559928, 5.052273) translate(74.443686, 124.271358) scale(-1, 1) translate(-74.443686, -124.271358) translate(61.280528, 112.645484) translate(10.633193, 17.058939) rotate(-95.000000) translate(-10.633193, -17.058939)"/>
                        <path fill="#57A3F6" d="M13.902 9.655c1.909-3.257 5.234-3.463 9.975-.616 4.74 2.846 1.415 3.052-9.975.616z" transform="translate(-1940.000000, -776.000000) translate(1940.000000, 776.000000) translate(8.559928, 5.052273) translate(74.443686, 124.271358) scale(-1, 1) translate(-74.443686, -124.271358) translate(61.280528, 112.645484) translate(19.934078, 9.193558) rotate(-203.000000) translate(-19.934078, -9.193558)"/>
                        <path fill="#57A3F6" d="M12.444 12.107c1.081-3.981 3.308-6.284 6.68-6.908.155-.03.313-.057.473-.083.953-.155 2.199-.416 3.736-.782l-10.889 7.773z" transform="translate(-1940.000000, -776.000000) translate(1940.000000, 776.000000) translate(8.559928, 5.052273) translate(74.443686, 124.271358) scale(-1, 1) translate(-74.443686, -124.271358) translate(61.280528, 112.645484)"/>
                    </g>
                    <g>
                        <path fill="#9EDEDA" d="M0 11.899c3.14-5.607 8.606-5.961 16.398-1.064C24.191 15.73 18.725 16.086 0 11.899z" transform="translate(-1940.000000, -776.000000) translate(1940.000000, 776.000000) translate(8.559928, 5.052273) translate(89.849669, 109.147757) scale(1, -1) translate(-89.849669, -109.147757) translate(76.606739, 97.521883)"/>
                        <path fill="#107778" d="M2.872 9.357c3.185-5.43 8.726-5.776 16.624-1.036 7.898 4.74 2.356 5.086-16.624 1.036z" transform="translate(-1940.000000, -776.000000) translate(1940.000000, 776.000000) translate(8.559928, 5.052273) translate(89.849669, 109.147757) scale(1, -1) translate(-89.849669, -109.147757) translate(76.606739, 97.521883) translate(12.924486, 8.581798) rotate(34.000000) translate(-12.924486, -8.581798)"/>
                        <path fill="#107778" d="M9.585 15.611c2.152-9.229 5.898-9.812 11.24-1.751 5.34 8.06 1.594 8.645-11.24 1.751z" transform="translate(-1940.000000, -776.000000) translate(1940.000000, 776.000000) translate(8.559928, 5.052273) translate(89.849669, 109.147757) scale(1, -1) translate(-89.849669, -109.147757) translate(76.606739, 97.521883) translate(16.381830, 14.299797) rotate(178.000000) translate(-16.381830, -14.299797)"/>
                        <path fill="#107778" d="M4.047 13.945c1.908-3.258 5.232-3.463 9.973-.616 4.74 2.848 1.415 3.053-9.973.616z" transform="translate(-1940.000000, -776.000000) translate(1940.000000, 776.000000) translate(8.559928, 5.052273) translate(89.849669, 109.147757) scale(1, -1) translate(-89.849669, -109.147757) translate(76.606739, 97.521883) translate(10.077887, 13.483948) rotate(-40.000000) translate(-10.077887, -13.483948)"/>
                        <path fill="#9EDEDA" d="M4.764 17.523c1.909-3.26 5.232-3.466 9.97-.62 4.737 2.847 1.414 3.053-9.97.62z" transform="translate(-1940.000000, -776.000000) translate(1940.000000, 776.000000) translate(8.559928, 5.052273) translate(89.849669, 109.147757) scale(1, -1) translate(-89.849669, -109.147757) translate(76.606739, 97.521883) translate(10.792737, 17.058939) rotate(-95.000000) translate(-10.792737, -17.058939)"/>
                        <path fill="#9EDEDA" d="M14.061 9.655c1.91-3.257 5.234-3.463 9.975-.616 4.74 2.846 1.416 3.052-9.975.616z" transform="translate(-1940.000000, -776.000000) translate(1940.000000, 776.000000) translate(8.559928, 5.052273) translate(89.849669, 109.147757) scale(1, -1) translate(-89.849669, -109.147757) translate(76.606739, 97.521883) translate(20.093622, 9.193558) rotate(-203.000000) translate(-20.093622, -9.193558)"/>
                        <path fill="#9EDEDA" d="M12.444 12.074c1.081-3.981 3.308-6.284 6.68-6.909.155-.028.313-.056.473-.082.953-.155 2.199-.416 3.736-.782l-10.889 7.773z" transform="translate(-1940.000000, -776.000000) translate(1940.000000, 776.000000) translate(8.559928, 5.052273) translate(89.849669, 109.147757) scale(1, -1) translate(-89.849669, -109.147757) translate(76.606739, 97.521883)"/>
                    </g>
                    <g>
                        <path fill="#FEC602" d="M0 11.949c3.14-5.607 8.606-5.962 16.398-1.065C24.191 15.781 18.725 16.136 0 11.95z" transform="translate(-1940.000000, -776.000000) translate(1940.000000, 776.000000) translate(8.559928, 5.052273) translate(74.662294, 105.633421)"/>
                        <path fill="#FA0" d="M2.872 9.357c3.185-5.43 8.726-5.776 16.624-1.036 7.898 4.74 2.356 5.086-16.624 1.036z" transform="translate(-1940.000000, -776.000000) translate(1940.000000, 776.000000) translate(8.559928, 5.052273) translate(74.662294, 105.633421) translate(12.924486, 8.581798) rotate(34.000000) translate(-12.924486, -8.581798)"/>
                        <path fill="#FA0" d="M9.585 15.611c2.152-9.229 5.898-9.812 11.24-1.751 5.34 8.06 1.594 8.645-11.24 1.751z" transform="translate(-1940.000000, -776.000000) translate(1940.000000, 776.000000) translate(8.559928, 5.052273) translate(74.662294, 105.633421) translate(16.381830, 14.299797) rotate(178.000000) translate(-16.381830, -14.299797)"/>
                        <path fill="#FA0" d="M4.047 13.945c1.908-3.258 5.232-3.463 9.973-.616 4.74 2.848 1.415 3.053-9.973.616z" transform="translate(-1940.000000, -776.000000) translate(1940.000000, 776.000000) translate(8.559928, 5.052273) translate(74.662294, 105.633421) translate(10.077887, 13.483948) rotate(-40.000000) translate(-10.077887, -13.483948)"/>
                        <path fill="#FEC602" d="M4.764 17.523c1.909-3.26 5.232-3.466 9.97-.62 4.737 2.847 1.414 3.053-9.97.62z" transform="translate(-1940.000000, -776.000000) translate(1940.000000, 776.000000) translate(8.559928, 5.052273) translate(74.662294, 105.633421) translate(10.792737, 17.058939) rotate(-95.000000) translate(-10.792737, -17.058939)"/>
                        <path fill="#FEC602" d="M14.061 9.655c1.91-3.257 5.234-3.463 9.975-.616 4.74 2.846 1.416 3.052-9.975.616z" transform="translate(-1940.000000, -776.000000) translate(1940.000000, 776.000000) translate(8.559928, 5.052273) translate(74.662294, 105.633421) translate(20.093622, 9.193558) rotate(-203.000000) translate(-20.093622, -9.193558)"/>
                        <path fill="#FEC602" d="M12.444 12.123c1.081-3.98 3.308-6.283 6.68-6.908.155-.029.313-.056.473-.082.953-.156 2.199-.416 3.736-.782l-10.889 7.772z" transform="translate(-1940.000000, -776.000000) translate(1940.000000, 776.000000) translate(8.559928, 5.052273) translate(74.662294, 105.633421)"/>
                    </g>
                    <g>
                        <path fill="#FFB7A2" d="M0 11.882c3.14-5.606 8.606-5.961 16.398-1.064C24.191 15.715 18.725 16.07 0 11.882z" transform="translate(-1940.000000, -776.000000) translate(1940.000000, 776.000000) translate(8.559928, 5.052273) translate(68.828961, 111.140764)"/>
                        <path fill="#FA7048" d="M2.713 9.357c3.184-5.43 8.725-5.776 16.623-1.036 7.898 4.74 2.357 5.086-16.623 1.036z" transform="translate(-1940.000000, -776.000000) translate(1940.000000, 776.000000) translate(8.559928, 5.052273) translate(68.828961, 111.140764) translate(12.764941, 8.581798) rotate(34.000000) translate(-12.764941, -8.581798)"/>
                        <path fill="#FA7048" d="M9.425 15.611c2.152-9.229 5.899-9.812 11.24-1.751 5.341 8.06 1.595 8.645-11.24 1.751z" transform="translate(-1940.000000, -776.000000) translate(1940.000000, 776.000000) translate(8.559928, 5.052273) translate(68.828961, 111.140764) translate(16.222286, 14.299797) rotate(178.000000) translate(-16.222286, -14.299797)"/>
                        <path fill="#FA7048" d="M3.887 13.945c1.908-3.258 5.233-3.463 9.973-.616 4.74 2.848 1.416 3.053-9.973.616z" transform="translate(-1940.000000, -776.000000) translate(1940.000000, 776.000000) translate(8.559928, 5.052273) translate(68.828961, 111.140764) translate(9.918343, 13.483948) rotate(-40.000000) translate(-9.918343, -13.483948)"/>
                        <path fill="#FFB7A2" d="M4.604 17.523c1.91-3.26 5.232-3.466 9.97-.62 4.737 2.847 1.414 3.053-9.97.62z" transform="translate(-1940.000000, -776.000000) translate(1940.000000, 776.000000) translate(8.559928, 5.052273) translate(68.828961, 111.140764) translate(10.633193, 17.058939) rotate(-95.000000) translate(-10.633193, -17.058939)"/>
                        <path fill="#FFB7A2" d="M13.902 9.655c1.909-3.257 5.234-3.463 9.975-.616 4.74 2.846 1.415 3.052-9.975.616z" transform="translate(-1940.000000, -776.000000) translate(1940.000000, 776.000000) translate(8.559928, 5.052273) translate(68.828961, 111.140764) translate(19.934078, 9.193558) rotate(-203.000000) translate(-19.934078, -9.193558)"/>
                        <path fill="#FFB7A2" d="M12.444 12.057c1.081-3.98 3.308-6.284 6.68-6.908.155-.029.313-.056.473-.083.953-.155 2.199-.416 3.736-.782l-10.889 7.773z" transform="translate(-1940.000000, -776.000000) translate(1940.000000, 776.000000) translate(8.559928, 5.052273) translate(68.828961, 111.140764)"/>
                    </g>
                    <g>
                        <path fill="#EAD4A8" d="M13.984 46.497c6.837-4.108 16.863-9.722 21.177-12.724 4.314-3.003-14.499 3.8-21.135 3.662-6.637-.138-9.543 4.343-11.835 8.428-2.293 4.084 4.956 4.742 11.793.634z" transform="translate(-1940.000000, -776.000000) translate(1940.000000, 776.000000) translate(8.559928, 5.052273) translate(18.777686, 41.138950) rotate(31.000000) translate(-18.777686, -41.138950)"/>
                        <path fill="#EAD4A8" d="M120.111 54.493c6.556-.022-3.15-8.835 1.183-11.98 4.334-3.144-5.115 1.182-11.67 1.204-6.556.022-9.266.55-17.372 6.153-4.7 4.729 21.304 4.644 27.86 4.623z" transform="translate(-1940.000000, -776.000000) translate(1940.000000, 776.000000) translate(8.559928, 5.052273) translate(107.074345, 47.932382) scale(-1, 1) rotate(-4.000000) translate(-107.074345, -47.932382)"/>
                        <g transform="translate(-1940.000000, -776.000000) translate(1940.000000, 776.000000) translate(8.559928, 5.052273) translate(1.949170, 0.000000)">
                            <mask id="lqjacvphdb" fill="#fff">
                                <use xlink:href="#rig7gnn93a"/>
                            </mask>
                            <use fill="#FFF3CA" xlink:href="#rig7gnn93a"/>
                            <path stroke="#FF9779" stroke-width="9.408" d="M20.29 18.85c8.147 3.4 22.426 6.506 42.838 9.317 20.412 2.811 36.561 4.675 48.45 5.593" mask="url(#lqjacvphdb)"/>
                            <path stroke="#647780" stroke-width="2.454" d="M20.29 22.935c8.147 3.4 22.426 6.507 42.838 9.318 20.412 2.81 36.561 4.675 48.45 5.592" mask="url(#lqjacvphdb)"/>
                        </g>
                    </g>
                    <g>
                        <path fill="#9EDEDA" d="M0 11.899c3.14-5.607 8.606-5.961 16.398-1.064C24.191 15.73 18.725 16.086 0 11.899z" transform="translate(-1940.000000, -776.000000) translate(1940.000000, 776.000000) translate(8.559928, 5.052273) translate(33.460780, 116.143212) scale(1, -1) translate(-33.460780, -116.143212) translate(20.217850, 104.517337)"/>
                        <path fill="#107778" d="M2.872 9.357c3.185-5.43 8.726-5.776 16.624-1.036 7.898 4.74 2.356 5.086-16.624 1.036z" transform="translate(-1940.000000, -776.000000) translate(1940.000000, 776.000000) translate(8.559928, 5.052273) translate(33.460780, 116.143212) scale(1, -1) translate(-33.460780, -116.143212) translate(20.217850, 104.517337) translate(12.924486, 8.581798) rotate(34.000000) translate(-12.924486, -8.581798)"/>
                        <path fill="#107778" d="M9.585 15.611c2.152-9.229 5.898-9.812 11.24-1.751 5.34 8.06 1.594 8.645-11.24 1.751z" transform="translate(-1940.000000, -776.000000) translate(1940.000000, 776.000000) translate(8.559928, 5.052273) translate(33.460780, 116.143212) scale(1, -1) translate(-33.460780, -116.143212) translate(20.217850, 104.517337) translate(16.381830, 14.299797) rotate(178.000000) translate(-16.381830, -14.299797)"/>
                        <path fill="#107778" d="M4.047 13.945c1.908-3.258 5.232-3.463 9.973-.616 4.74 2.848 1.415 3.053-9.973.616z" transform="translate(-1940.000000, -776.000000) translate(1940.000000, 776.000000) translate(8.559928, 5.052273) translate(33.460780, 116.143212) scale(1, -1) translate(-33.460780, -116.143212) translate(20.217850, 104.517337) translate(10.077887, 13.483948) rotate(-40.000000) translate(-10.077887, -13.483948)"/>
                        <path fill="#9EDEDA" d="M4.764 17.523c1.909-3.26 5.232-3.466 9.97-.62 4.737 2.847 1.414 3.053-9.97.62z" transform="translate(-1940.000000, -776.000000) translate(1940.000000, 776.000000) translate(8.559928, 5.052273) translate(33.460780, 116.143212) scale(1, -1) translate(-33.460780, -116.143212) translate(20.217850, 104.517337) translate(10.792737, 17.058939) rotate(-95.000000) translate(-10.792737, -17.058939)"/>
                        <path fill="#9EDEDA" d="M14.061 9.655c1.91-3.257 5.234-3.463 9.975-.616 4.74 2.846 1.416 3.052-9.975.616z" transform="translate(-1940.000000, -776.000000) translate(1940.000000, 776.000000) translate(8.559928, 5.052273) translate(33.460780, 116.143212) scale(1, -1) translate(-33.460780, -116.143212) translate(20.217850, 104.517337) translate(20.093622, 9.193558) rotate(-203.000000) translate(-20.093622, -9.193558)"/>
                        <path fill="#9EDEDA" d="M12.444 12.074c1.081-3.981 3.308-6.284 6.68-6.909.155-.028.313-.056.473-.082.953-.155 2.199-.416 3.736-.782l-10.889 7.773z" transform="translate(-1940.000000, -776.000000) translate(1940.000000, 776.000000) translate(8.559928, 5.052273) translate(33.460780, 116.143212) scale(1, -1) translate(-33.460780, -116.143212) translate(20.217850, 104.517337)"/>
                    </g>
                </g>
            </g>
        </g>
    </g>
</svg>
