<svg xmlns="http://www.w3.org/2000/svg" width="140" height="171" viewBox="0 0 140 171">
    <defs>
        <filter id="bzf4z0d4ra">
            <feColorMatrix in="SourceGraphic" values="0 0 0 0 1.000000 0 0 0 0 0.384314 0 0 0 0 0.368627 0 0 0 1.000000 0"/>
        </filter>
        <filter id="nocevptn1b">
            <feColorMatrix in="SourceGraphic" values="0 0 0 0 1.000000 0 0 0 0 0.384314 0 0 0 0 0.368627 0 0 0 1.000000 0"/>
        </filter>
        <filter id="fdvj4mpasc">
            <feColorMatrix in="SourceGraphic" values="0 0 0 0 1.000000 0 0 0 0 0.384314 0 0 0 0 0.368627 0 0 0 1.000000 0"/>
        </filter>
    </defs>
    <g fill="none" fill-rule="evenodd">
        <g>
            <g>
                <g>
                    <path fill="#324148" d="M41.997 8.365L43.163 8.365 43.166 20.414 40.668 20.532z" transform="translate(-2320.000000, -771.000000) translate(2320.000000, 771.000000) translate(40.150491, 91.021835) translate(41.917104, 14.448192) rotate(-26.000000) translate(-41.917104, -14.448192)"/>
                    <path fill="#324148" d="M52.724 -3.75L53.89 -3.75 55.024 8.085 52.725 8.305z" transform="translate(-2320.000000, -771.000000) translate(2320.000000, 771.000000) translate(40.150491, 91.021835) translate(53.874200, 2.277736) rotate(-79.000000) translate(-53.874200, -2.277736)"/>
                    <g filter="url(#bzf4z0d4ra)" transform="translate(-2320.000000, -771.000000) translate(2320.000000, 771.000000) translate(40.150491, 91.021835)">
                        <g>
                            <g fill="#FF625E" fill-rule="nonzero">
                                <path d="M3.358.565c.759-.753 1.99-.754 2.749-.001.76.752.49 1.907.002 2.726-.489.82-2.216 2.555-2.817 2.556l-.001-2.87v-.255l-.001-.266v.266l-.001 3.076v.049C2.688 5.846.96 4.109.472 3.29-.016 2.47-.286 1.316.474.564c.76-.753 1.99-.752 2.749.001l.067.068.068-.068z" transform="translate(45.699992, 7.293265) rotate(29.000000) translate(-45.699992, -7.293265) translate(42.005548, 3.601219) translate(0.404013, 0.923011)"/>
                            </g>
                        </g>
                    </g>
                    <g filter="url(#nocevptn1b)" transform="translate(-2320.000000, -771.000000) translate(2320.000000, 771.000000) translate(40.150491, 91.021835)">
                        <g>
                            <g fill="#FF625E" fill-rule="nonzero">
                                <path d="M5.368 3.523v.32l-.001 3.568V9.538c-.981-.001-3.8-2.834-4.596-4.17C-.026 4.03-.466 2.148.773.92 2.013-.308 4.02-.306 5.258.923l.11.11.111-.11C6.717-.307 8.725-.307 9.964.92c1.24 1.227.8 3.111.003 4.448-.797 1.336-3.615 4.169-4.596 4.17V9.52 6.792l-.001-.224-.001-3.713v-.347z" transform="translate(55.094216, 11.825207) rotate(29.000000) translate(-55.094216, -11.825207) translate(49.066438, 5.801344) translate(0.659180, 1.505966)"/>
                            </g>
                        </g>
                    </g>
                    <g filter="url(#fdvj4mpasc)" transform="translate(-2320.000000, -771.000000) translate(2320.000000, 771.000000) translate(40.150491, 91.021835)">
                        <g>
                            <g fill="#FF625E" fill-rule="nonzero">
                                <path d="M6.893 1.16c1.557-1.546 4.083-1.547 5.642-.003 1.56 1.544 1.006 3.914.004 5.596s-4.548 5.245-5.782 5.246v-.103-.045L6.756 9V5.417l-.001-.334-.001-3.369v.407l-.001 3.62v.317l-.001 3.37v.201L6.751 12C5.517 12 1.971 8.435.969 6.753-.032 5.07-.586 2.7.973 1.157c1.559-1.544 4.085-1.543 5.642.004l.14.138.138-.138z" transform="translate(67.720699, 17.728593) rotate(29.000000) translate(-67.720699, -17.728593) translate(60.137365, 10.150184) translate(0.829291, 1.894602)"/>
                            </g>
                        </g>
                    </g>
                    <g>
                        <path fill="#C3CFD5" d="M7.683 0L6.174 0.723 4.57 4.431 7.683 7.662z" transform="translate(-2320.000000, -771.000000) translate(2320.000000, 771.000000) translate(40.150491, 91.021835) translate(-0.000000, 19.290736)"/>
                        <path fill="#FFF" d="M6.174.723C3.395 3.226 1.337 5.54 0 7.662c3.904 9.466 7.361 17.995 10.371 25.586.159.4.61.595 1.01.436.087-.034.167-.084.236-.146l16.138-14.629c-8.22-5.185-13.701-8.935-16.445-11.247C8.565 5.349 6.854 3.037 6.174.723z" transform="translate(-2320.000000, -771.000000) translate(2320.000000, 771.000000) translate(40.150491, 91.021835) translate(-0.000000, 19.290736)"/>
                    </g>
                    <g>
                        <path fill="#C3CFD5" d="M7.588 0L6.079 0.723 4.475 4.431 7.588 7.662z" transform="translate(-2320.000000, -771.000000) translate(2320.000000, 771.000000) translate(40.150491, 91.021835) translate(45.282470, 36.493580) scale(-1, 1) translate(-45.282470, -36.493580) translate(31.405064, 19.290736)"/>
                        <path fill="#FFF" d="M6.174.837C3.395 3.34 1.337 5.653 0 7.776c3.91 9.478 7.489 18.016 10.74 25.614.168.395.625.579 1.02.41.082-.035.158-.084.223-.145l15.772-14.632c-8.22-5.186-13.701-8.935-16.445-11.247C8.565 5.463 6.854 3.15 6.174.837z" transform="translate(-2320.000000, -771.000000) translate(2320.000000, 771.000000) translate(40.150491, 91.021835) translate(45.282470, 36.493580) scale(-1, 1) translate(-45.282470, -36.493580) translate(31.405064, 19.290736)"/>
                    </g>
                    <g transform="translate(-2320.000000, -771.000000) translate(2320.000000, 771.000000) translate(40.150491, 91.021835) translate(13.127287, 34.119074)">
                        <g>
                            <path fill="#FF625E" d="M2.346.565l9.509 2.287C13.113 3.155 14 4.28 14 5.574v4.008c0 1.294-.887 2.42-2.145 2.723l-9.568 2.302c-.601.144-1.206-.226-1.35-.827-.06-.247-.034-.505.073-.735 1.375-2.955 2.063-4.831 2.063-5.629 0-.784-.665-2.541-1.995-5.272-.271-.556-.04-1.227.516-1.497.234-.114.5-.143.752-.082z"/>
                            <path fill="#F72F2A" d="M5.83 8.02l6.544.63c.287.028.507.27.507.558v.152c0 .288-.22.529-.506.557l-6.505.639c-.18.017-.34-.114-.357-.293-.013-.125.047-.245.153-.31l.386-.238c.264-.162.346-.507.184-.77-.051-.083-.123-.15-.208-.198l-.361-.198c-.137-.075-.187-.247-.112-.384.055-.1.163-.156.275-.145z" transform="translate(8.670644, 9.290900) rotate(-9.000000) translate(-8.670644, -9.290900)"/>
                            <path fill="#F72F2A" d="M5.83 5.21l6.545.637c.286.028.505.269.505.557v.151c0 .288-.218.53-.505.558l-6.505.634c-.18.018-.34-.114-.357-.293-.012-.125.048-.245.154-.31l.385-.237c.263-.162.346-.507.184-.77-.051-.083-.123-.151-.208-.198l-.362-.199c-.136-.075-.186-.247-.111-.384.054-.099.162-.156.275-.145z" transform="translate(8.670607, 6.481075) rotate(8.000000) translate(-8.670607, -6.481075)"/>
                        </g>
                        <g>
                            <path fill="#FF625E" d="M2.346.565l9.509 2.287C13.113 3.155 14 4.28 14 5.574v4.008c0 1.294-.887 2.42-2.145 2.723l-9.568 2.302c-.601.144-1.206-.226-1.35-.827-.06-.247-.034-.505.073-.735 1.375-2.955 2.063-4.831 2.063-5.629 0-.784-.665-2.541-1.995-5.272-.271-.556-.04-1.227.516-1.497.234-.114.5-.143.752-.082z" transform="translate(26.055556, 7.578409) scale(-1, 1) translate(-26.055556, -7.578409) translate(19.055556, 0.000000)"/>
                            <path fill="#F72F2A" d="M5.83 8.02l6.544.63c.287.028.507.27.507.558v.152c0 .288-.22.529-.506.557l-6.505.639c-.18.017-.34-.114-.357-.293-.013-.125.047-.245.153-.31l.386-.238c.264-.162.346-.507.184-.77-.051-.083-.123-.15-.208-.198l-.361-.198c-.137-.075-.187-.247-.112-.384.055-.1.163-.156.275-.145z" transform="translate(26.055556, 7.578409) scale(-1, 1) translate(-26.055556, -7.578409) translate(19.055556, 0.000000) translate(8.670644, 9.290900) rotate(-9.000000) translate(-8.670644, -9.290900)"/>
                            <path fill="#F72F2A" d="M5.83 5.21l6.545.637c.286.028.505.269.505.557v.151c0 .288-.218.53-.505.558l-6.505.634c-.18.018-.34-.114-.357-.293-.012-.125.048-.245.154-.31l.385-.237c.263-.162.346-.507.184-.77-.051-.083-.123-.151-.208-.198l-.362-.199c-.136-.075-.186-.247-.111-.384.054-.099.162-.156.275-.145z" transform="translate(26.055556, 7.578409) scale(-1, 1) translate(-26.055556, -7.578409) translate(19.055556, 0.000000) translate(8.670607, 6.481075) rotate(8.000000) translate(-8.670607, -6.481075)"/>
                        </g>
                        <rect width="6.611" height="6.607" x="13.222" y="4.275" fill="#FF625E" rx="2.333"/>
                    </g>
                </g>
            </g>
        </g>
    </g>
</svg>
