<svg xmlns="http://www.w3.org/2000/svg" xmlns:xlink="http://www.w3.org/1999/xlink" width="140" height="171" viewBox="0 0 140 171">
    <defs>
        <path id="dplw6ix5va" d="M26.32 2.065c-3.41-2.652-14.179-3.14-22.613.872-8.433 4.012-.266 16.02 2.81 17.763.57.25 1.403.484 2.405.685l.36.07.185.033.38.065.194.032.396.06.203.029.411.055.21.026.424.05.431.046.218.021.441.04.223.018.448.034.451.028.454.024c3.717.178 7.6-.13 9.328-1.316 5.407-3.544 6.173-15.889 2.642-18.635z"/>
        <path id="bswqpabndb" d="M48.184 28.457c7.385.765 12.285-.394 19.095-2.115 6.81-1.72 10.204.32 14.176-1.06 3.972-1.383 6.775.845 10.248-3.796 3.473-4.641 2.966-5.349 1.392-7.972-.934-1.558-4.067-1.797-3.137-4.521.514-1.506.514-5.059-.48-5.938C86.686.585 81.21.162 77.003.001c-1.486-.057.266 3.858-1.67 5.74-2.394 2.327-5.625 1.676-8.054 1.746-3.929.114-4.364 3.81-8.99 3.867-.17.003-8.027-2.893-8.188-2.893-3.05 0-4.334 2.562-7.74 2.045-2.048-.311-8.16-.91-9.932-1.513-5.518-1.878-4.93 1.484-8.89 1.513-3.16.023-6.522-3.019-10.001-3.019-4.412 0-5.674 1.722-7.872 3.019-3.301 1.948-4.433 1.044-5.488 4.221-1.198 3.61 3.885 4.883 8.043 6.759 2.209.996 4.02 3.971 6.774 4.856 2.702.869 13.864-2.442 17.434-1.958 6.415.87 8.371 3.307 15.755 4.073z"/>
    </defs>
    <g fill="none" fill-rule="evenodd">
        <g>
            <g>
                <g transform="translate(-3460.000000, -771.000000) translate(3460.000000, 771.000000) translate(15.015929, 29.728469)">
                    <g>
                        <path stroke="#463938" stroke-width="2.333" d="M1.437 1.144C3.394-.377 7.581-1.33 12.49-1.142c4.108.158 8.705 1.088 12.777 3.025 1.806.86 2.95 2.042 3.62 3.389.753 1.514.903 3.26.618 5.06-.784 4.957-4.94 10.23-6.973 11.383-3.399 1.502-14.948 2.316-18.398-.053-2.776-1.834-4.516-5.754-5.086-9.773-.318-2.24-.279-4.49.098-6.357.403-1.994 1.212-3.55 2.291-4.388zm49.935-2.286c4.91-.19 9.097.765 11.054 2.286 1.078.839 1.888 2.394 2.29 4.388.377 1.867.417 4.116.099 6.357-.571 4.03-2.319 7.959-5.108 9.787-3.475 2.351-14.984 1.538-18.27.092-2.14-1.206-6.295-6.479-7.08-11.437-.284-1.799-.134-3.545.619-5.06.67-1.346 1.813-2.529 3.62-3.388 4.072-1.937 8.668-2.867 12.776-3.025z" transform="translate(22.899900, 0.000000)"/>
                        <g>
                            <path fill="#682612" d="M2.153 2.065c3.411-2.652 14.18-3.14 22.613.872 8.434 4.012.267 16.02-2.81 17.763-3.077 1.354-13.916 2.228-17.161 0C-.612 17.156-1.378 4.811 2.153 2.065z" opacity=".948" transform="translate(22.899900, 0.000000)"/>
                            <g transform="translate(22.899900, 0.000000) translate(35.388889, 0.000000)">
                                <use fill="#682612" opacity=".948" xlink:href="#dplw6ix5va"/>
                                <path fill="#FFF" d="M23.54.786l4.934 8.072c0 .823-.039 1.547-.117 2.173-.077.626-.188 1.319-.333 2.078L20.202.15l.104.01.223.025.246.033.132.019.279.043.3.05.324.057.307.057.26.05.348.073.206.047.184.046.163.044.142.042.12.041zM17.767.005L23.51 9.305 21.37 9.305 15.613.049"/>
                            </g>
                        </g>
                        <path stroke="#463938" stroke-width="4.667" d="M29.745 7.97c.64-.26 1.401-.389 2.286-.389s1.679.13 2.38.389" transform="translate(22.899900, 0.000000)"/>
                    </g>
                    <path fill="#CE935B" d="M55.373 104.74c3.14 0 10.388-2.122 13.283-2.402 4.861-.47 8.737.59 12.079-.79 2.134-.883 4.65-.575 6.028-1.46 3.09-1.983 3.61-5.254 3.61-7.979 0-1.583-3.421-1.797-2.639-4.521.432-1.505.432-5.058-.403-5.937-2.35-2.47-6.956-2.894-10.495-3.055-1.25-.057.224 3.858-1.405 5.74-2.014 2.327-4.731 1.676-6.775 1.747-3.426.117-10.649.974-14.45.974-2.566 0-4.72-2.204-7.585-2.72-1.723-.312-4.248 1.286-5.739.683-4.641-1.878-6.636-7.506-9.967-7.477-2.659.023-7.758 2.192-9.17 3.795-1.128 1.281.078 3.539 0 5.453-.09 2.196-4.323 4.05-4.323 5.318 0 2.334 4.364 3.677 7.862 5.553 1.858.996 2.038 3 4.355 3.885 2.273.869 7.864 1.598 10.867 2.082 5.396.87 8.81 1.11 14.867 1.11z"/>
                    <g transform="translate(0.000000, 78.595457)">
                        <mask id="par6z7r3uc" fill="#fff">
                            <use xlink:href="#bswqpabndb"/>
                        </mask>
                        <use fill="#D99B5F" xlink:href="#bswqpabndb"/>
                        <path fill="#CE935B" d="M6.865 17.812c0 .36.407 1.387 1.077.988.67-.399 1.643-1.116 2.375-.757.733.358.634.413.634 1.09s-.179 1.205-.634 1.684c-.455.48-1.36.465-2.375 0s-3.096-.048-2.872-.48c.224-.43.408-1.537.408-1.537s-.125-.92-.408-1.936c-.284-1.015-2.907.093-2.395 1.179.512 1.085-.795 2.402.168 2.945.963.543.193 1.525 2.635 1.985 2.442.461 2.894.597 3.48.857.586.26.8.356 2.256-.561 1.455-.917 1.379-.487 2.222-2.742s2.138-3.087-.352-4.076c-2.489-.99-3.362-1.61-4.126-1.3-.763.31-1.793.374-1.793 1.3 0 .925-.3 1.003-.3 1.361zM59.754 11.594c0 .359.407 1.387 1.077.988.67-.399 1.643-1.116 2.375-.758.732.36.634.414.634 1.09 0 .678-.179 1.206-.634 1.685-.455.479-1.36.465-2.375 0-1.015-.466-3.096-.049-2.872-.48.223-.43.408-1.537.408-1.537s-.125-.92-.408-1.936c-.284-1.015-2.907.093-2.395 1.178.512 1.086-.795 2.403.168 2.946.963.543.193 1.524 2.635 1.985 2.442.46 2.894.597 3.48.857.586.26.8.355 2.255-.561 1.456-.917 1.38-.487 2.223-2.742.843-2.256 2.138-3.087-.352-4.076-2.49-.99-3.362-1.611-4.126-1.3-.763.31-1.793.374-1.793 1.3 0 .925-.3 1.002-.3 1.361z" mask="url(#par6z7r3uc)"/>
                        <path fill="#CE935B" d="M36.032 12.371c0 .36.406 1.388 1.077.989.67-.4 1.643-1.117 2.375-.758s.633.413.633 1.09-.178 1.205-.633 1.684c-.455.48-1.36.465-2.375 0-1.016-.465-3.096-.048-2.873-.48.224-.43.409-1.536.409-1.536s-.125-.92-.409-1.936c-.283-1.016-2.906.092-2.394 1.178.511 1.085-.795 2.402.168 2.945.963.543.192 1.525 2.635 1.985 2.442.461 2.894.597 3.48.857.586.26.8.356 2.255-.56 1.456-.918 1.38-.488 2.223-2.743S44.74 12 42.25 11.01c-2.49-.99-3.363-1.61-4.126-1.3-.764.31-1.793.374-1.793 1.3 0 .925-.3 1.003-.3 1.361z" mask="url(#par6z7r3uc)" transform="translate(37.672539, 14.098510) scale(1, -1) translate(-37.672539, -14.098510)"/>
                        <path fill="#CE935B" d="M82.72 21.76c0 .266.301 1.026.797.73.495-.294 1.214-.824 1.755-.56.542.266.468.306.468.807 0 .5-.131.89-.468 1.244-.336.355-1.005.344-1.755 0s-2.289-.035-2.123-.354c.165-.318.301-1.136.301-1.136s-.092-.68-.301-1.431c-.21-.75-2.149.068-1.77.87.378.803-.588 1.777.124 2.178s.142 1.127 1.947 1.467c1.806.34 2.14.441 2.573.633.433.192.591.263 1.667-.414 1.075-.678 1.02-.36 1.642-2.027.624-1.667 1.58-2.281-.26-3.013-1.84-.731-2.485-1.19-3.05-.96-.564.229-1.325.276-1.325.96 0 .684-.221.741-.221 1.007z" mask="url(#par6z7r3uc)" transform="translate(83.933408, 23.037146) scale(-1, -1) translate(-83.933408, -23.037146)"/>
                        <g fill="#CE935B" mask="url(#par6z7r3uc)">
                            <g>
                                <path d="M5.74 2.02c0 .476-.121.846-.43 1.182-.308.336-.92.326-1.609 0-.687-.326-2.097-.034-1.945-.336.151-.302.276-1.078.276-1.078S1.948 1.142 1.756.43c-.192-.713-1.97.064-1.623.826s-.538 1.685.114 2.066c.653.381.13 1.07 1.785 1.393 1.655.323 1.96.418 2.358.6.397.183.542.25 1.528-.393.985-.643.934-.342 1.505-1.924C7.994 1.417 8.871.834 7.185.14 5.499-.555 5.739 1.546 5.739 2.021z" transform="translate(22.317404, 18.760165)"/>
                                <path d="M3.444.11c.641-.132 1.2.078 1.603-.077.403-.156.86.279.776.493-.085.213-.092.673-.434.673-.342 0-.264-.25-.813-.182-.55.068-.472.538-.55.538-.078 0-.74-.01-.74-.426 0-.417-.483-.886.158-1.018z" transform="translate(22.317404, 18.760165)"/>
                            </g>
                        </g>
                        <g fill="#CE935B" mask="url(#par6z7r3uc)">
                            <g>
                                <path d="M5.74 2.02c0 .476-.121.846-.43 1.182-.308.336-.92.326-1.609 0-.687-.326-2.097-.034-1.945-.336.151-.302.276-1.078.276-1.078S1.948 1.142 1.756.43c-.192-.713-1.97.064-1.623.826s-.538 1.685.114 2.066c.653.381.13 1.07 1.785 1.393 1.655.323 1.96.418 2.358.6.397.183.542.25 1.528-.393.985-.643.934-.342 1.505-1.924C7.994 1.417 8.871.834 7.185.14 5.499-.555 5.739 1.546 5.739 2.021z" transform="translate(71.317404, 16.039710)"/>
                                <path d="M3.444.11c.641-.132 1.2.078 1.603-.077.403-.156.86.279.776.493-.085.213-.092.673-.434.673-.342 0-.264-.25-.813-.182-.55.068-.472.538-.55.538-.078 0-.74-.01-.74-.426 0-.417-.483-.886.158-1.018z" transform="translate(71.317404, 16.039710)"/>
                            </g>
                        </g>
                        <g fill="#CE935B" mask="url(#par6z7r3uc)">
                            <g>
                                <path d="M29.85 2.02c0 .476-.12.846-.428 1.182-.309.336-.921.326-1.61 0-.687-.326-2.097-.034-1.945-.336.151-.302.276-1.078.276-1.078s-.084-.646-.276-1.358c-.192-.713-1.97.064-1.622.826.346.762-.539 1.685.113 2.066.653.381.13 1.07 1.785 1.393 1.655.323 1.961.418 2.358.6.397.183.542.25 1.528-.393s.934-.342 1.505-1.924c.571-1.581 1.448-2.164-.238-2.859-1.686-.694-1.445 1.407-1.445 1.882z" transform="translate(59.650738, 9.432892)"/>
                                <path d="M5.74 15.234c0 .475-.121.846-.43 1.182-.308.336-.92.326-1.609 0-.687-.327-2.097-.034-1.945-.336.151-.303.276-1.079.276-1.079s-.084-.645-.276-1.358c-.192-.712-1.97.065-1.623.827.347.761-.538 1.685.114 2.066.653.38.13 1.07 1.785 1.392 1.655.323 1.96.419 2.358.601.397.182.542.25 1.528-.393.985-.643.934-.342 1.505-1.924.571-1.582 1.448-2.165-.238-2.859s-1.446 1.407-1.446 1.881z" transform="translate(59.650738, 9.432892) translate(4.083333, 15.934091) scale(-1, -1) translate(-4.083333, -15.934091)"/>
                                <path d="M27.555.11c.641-.132 1.2.078 1.603-.077.403-.156.861.279.776.493-.085.213-.092.673-.434.673-.342 0-.264-.25-.813-.182-.55.068-.471.538-.55.538-.078 0-.74-.01-.74-.426 0-.417-.483-.886.158-1.018z" transform="translate(59.650738, 9.432892)"/>
                            </g>
                        </g>
                        <g fill="#CE935B" mask="url(#par6z7r3uc)">
                            <g>
                                <path d="M10.66 3.753c0 .882-.226 1.57-.798 2.194-.572.624-1.71.606-2.988 0-1.277-.607-3.895-.063-3.614-.625.282-.56.514-2.002.514-2.002S3.617 2.12 3.26.798C2.904-.525-.396.918.248 2.332c.644 1.415-1 3.13.211 3.838 1.212.707.243 1.986 3.315 2.586 3.073.6 3.641.777 4.378 1.116.737.338 1.007.463 2.838-.731 1.83-1.194 1.735-.635 2.796-3.572 1.06-2.938 2.69-4.02-.442-5.31s-2.685 2.612-2.685 3.494z" transform="translate(82.400738, 2.437438) scale(1, -1) translate(-82.400738, -2.437438) translate(74.817404, -2.614835)"/>
                                <path d="M6.451.194C7.642-.038 8.681.33 9.43.058c.747-.272 1.598.488 1.44.862-.156.374-.17 1.179-.805 1.179s-.49-.44-1.511-.32c-1.02.12-.875.941-1.02.941-.146 0-1.376-.015-1.376-.744 0-.73-.897-1.55.294-1.782z" transform="translate(82.400738, 2.437438) scale(1, -1) translate(-82.400738, -2.437438) translate(74.817404, -2.614835)"/>
                            </g>
                        </g>
                        <g fill="#CE935B" mask="url(#par6z7r3uc)">
                            <g>
                                <path d="M9.02 3.175c0 .747-.19 1.329-.675 1.857-.484.528-1.447.513-2.528 0s-3.296-.053-3.058-.528c.238-.475.434-1.695.434-1.695S3.061 1.795 2.76.675C2.457-.445-.335.777.209 1.974.755 3.17-.636 4.622.39 5.22c1.025.598.205 1.68 2.804 2.188 2.6.507 3.081.658 3.705.944.624.286.852.392 2.401-.618 1.55-1.01 1.468-.537 2.366-3.023.897-2.486 2.276-3.402-.374-4.493-2.65-1.09-2.272 2.21-2.272 2.956z" transform="translate(46.234071, 23.812438) scale(-1, -1) translate(-46.234071, -23.812438) translate(39.817404, 19.537438)"/>
                                <path d="M5.578.166c1.008-.199 1.887.116 2.52-.117.632-.233 1.352.419 1.22.74-.134.32-.145 1.01-.683 1.01-.537 0-.415-.376-1.278-.274-.864.103-.74.807-.864.807-.122 0-1.163-.013-1.163-.638S4.57.364 5.578.166z" transform="translate(46.234071, 23.812438) scale(-1, -1) translate(-46.234071, -23.812438) translate(39.817404, 19.537438)"/>
                            </g>
                        </g>
                        <g fill="#CE935B" mask="url(#par6z7r3uc)">
                            <g>
                                <path d="M9.02 3.175c0 .747-.19 1.329-.675 1.857-.484.528-1.447.513-2.528 0s-3.296-.053-3.058-.528c.238-.475.434-1.695.434-1.695S3.061 1.795 2.76.675C2.457-.445-.335.777.209 1.974.755 3.17-.636 4.622.39 5.22c1.025.598.205 1.68 2.804 2.188 2.6.507 3.081.658 3.705.944.624.286.852.392 2.401-.618 1.55-1.01 1.468-.537 2.366-3.023.897-2.486 2.276-3.402-.374-4.493-2.65-1.09-2.272 2.21-2.272 2.956z" transform="translate(99.122960, 17.594256) scale(-1, -1) translate(-99.122960, -17.594256) translate(92.706293, 13.319256)"/>
                                <path d="M5.578.166c1.008-.199 1.887.116 2.52-.117.632-.233 1.352.419 1.22.74-.134.32-.145 1.01-.683 1.01-.537 0-.415-.376-1.278-.274-.864.103-.74.807-.864.807-.122 0-1.163-.013-1.163-.638S4.57.364 5.578.166z" transform="translate(99.122960, 17.594256) scale(-1, -1) translate(-99.122960, -17.594256) translate(92.706293, 13.319256)"/>
                            </g>
                        </g>
                        <path fill="#CE935B" d="M17.982 10.132c0 .219.247.845.655.602.409-.243 1-.68 1.446-.461.446.218.386.251.386.663 0 .412-.109.734-.386 1.025-.277.292-.827.284-1.446 0-.618-.283-1.884-.029-1.748-.291.136-.263.248-.936.248-.936s-.075-.56-.248-1.178c-.173-.619-1.77.056-1.458.717.312.66-.484 1.462.103 1.793.586.33.117.927 1.603 1.208 1.487.28 1.762.363 2.119.521.356.158.487.217 1.373-.341s.84-.297 1.352-1.67c.514-1.372 1.302-1.878-.214-2.48-1.515-.603-2.046-.98-2.511-.792-.465.19-1.092.228-1.092.792 0 .563-.182.61-.182.828z" mask="url(#par6z7r3uc)" transform="translate(18.980510, 11.183737) scale(-1, -1) translate(-18.980510, -11.183737)"/>
                    </g>
                    <ellipse cx="20.567" cy="48.97" fill="#FEC602" rx="1.75" ry="1.749"/>
                    <ellipse cx="87.845" cy="48.97" fill="#FEC602" rx="1.75" ry="1.749"/>
                </g>
            </g>
        </g>
    </g>
</svg>
