<svg xmlns="http://www.w3.org/2000/svg" xmlns:xlink="http://www.w3.org/1999/xlink" width="140" height="171" viewBox="0 0 140 171">
    <defs>
        <path id="ykbg1p7fha" d="M4.726 19.082c.237.87 2.842 1.588 5.67.058 1.73-.936 2.364-2.158 2.492-3.089l.016-.134.005-.065.005-.127c.002-.104-.003-.202-.013-.295l-.015-.107-.02-.1c-.043-.195-.112-.348-.193-.444-.115-.165-.246-.343-.39-.532l-.228-.292-.247-.307-.13-.158-.272-.327-.286-.338-.3-.347-.31-.355-.32-.36-.492-.55-.335-.37-.508-.553-.677-.731-.665-.71-1.09-1.152-1.457-1.53c-.593-.626-.63-1.487-.506-2.37l.038-.241.021-.121.047-.241.076-.36.128-.583.024-.113.045-.223c.16-.84.184-1.536-.376-1.846-.395-.218-.954.096-1.543.71l-.132.142c-.066.073-.132.15-.198.23l-.133.163-.132.171-.132.18-.066.091-.13.189-.066.097-.128.197-.064.1-.126.206-.062.104-.123.21-.12.215-.059.108-.115.219-.056.11C.234 5.174-.133 6.65.043 7.558l.031.148.041.172.05.196.06.218.068.24.077.258.13.422.095.302.102.316.166.5.118.348.188.54.2.56.138.38.143.385.146.388.15.391.153.391.235.586.159.387.16.384.162.378c.027.062.054.125.082.186l.163.368.082.18.163.355.082.173.163.337.163.325.08.157.162.304c.266.492.526.917.77 1.248z"/>
        <path id="t8zfgyv1qc" d="M4.726 19.082c.237.87 2.842 1.588 5.67.058 1.73-.936 2.364-2.158 2.492-3.089l.016-.134.005-.065.005-.127c.002-.104-.003-.202-.013-.295l-.015-.107-.02-.1c-.043-.195-.112-.348-.193-.444-.115-.165-.246-.343-.39-.532l-.228-.292-.247-.307-.13-.158-.272-.327-.286-.338-.3-.347-.31-.355-.32-.36-.492-.55-.335-.37-.508-.553-.677-.731-.665-.71-1.09-1.152-1.457-1.53c-.593-.626-.63-1.487-.506-2.37l.038-.241.021-.121.047-.241.076-.36.128-.583.024-.113.045-.223c.16-.84.184-1.536-.376-1.846-.395-.218-.954.096-1.543.71l-.132.142c-.066.073-.132.15-.198.23l-.133.163-.132.171-.132.18-.066.091-.13.189-.066.097-.128.197-.064.1-.126.206-.062.104-.123.21-.12.215-.059.108-.115.219-.056.11C.234 5.174-.133 6.65.043 7.558l.031.148.041.172.05.196.06.218.068.24.077.258.13.422.095.302.102.316.166.5.118.348.188.54.2.56.138.38.143.385.146.388.15.391.153.391.235.586.159.387.16.384.162.378c.027.062.054.125.082.186l.163.368.082.18.163.355.082.173.163.337.163.325.08.157.162.304c.266.492.526.917.77 1.248z"/>
    </defs>
    <g fill="none" fill-rule="evenodd">
        <g>
            <g>
                <g>
                    <g>
                        <path fill="#FFB7A2" d="M5.249 4.726c1.58-.824 5.64-2.444 7.25-3.346C14.11.478 14.2-.27 16.135.094c1.846.347-1.129 8.599-1.509 11.055-.38 2.456-2.172 10.502-5.386 13.137-3.855 3.158-6.221 4.377-8.858 4.377C-.92 16.454 1.526 9.407 1.526 7.957c.999 0 .77-1.69 3.723-3.231z" transform="translate(-5360.000000, -771.000000) translate(5360.000000, 771.000000) translate(21.921818, 12.784798) translate(77.599667, 42.134555)"/>
                        <path fill="#FF9779" d="M5.282 10.193c.888-1.308 4.199-3.289 5.314-3.914 1.115-.624 1.915-1.056 2.123-.904.168.123-.389 5.967-.652 7.667-.263 1.7-1.503 7.27-3.729 9.093-2.668 2.187-4.306 3.03-6.13 3.03-.902-8.45 1.643-12.861 3.074-14.972z" transform="translate(-5360.000000, -771.000000) translate(5360.000000, 771.000000) translate(21.921818, 12.784798) translate(77.599667, 42.134555)"/>
                    </g>
                    <path fill="#FFD8CD" d="M36.8 52.506H47.68899999999999V77.379H36.8z" transform="translate(-5360.000000, -771.000000) translate(5360.000000, 771.000000) translate(21.921818, 12.784798)"/>
                    <g>
                        <path fill="#FFD8CD" d="M5.249 5.176c1.58-.824 4.338-1.79 5.949-2.692 1.61-.903 2.56-3.239 4.424-2.24 2.536 1.357-.617 8.9-.997 11.355-.38 2.456-2.172 10.503-5.386 13.137-3.855 3.159-6.221 4.377-8.858 4.377C-.92 16.905 1.526 9.857 1.526 8.408c.999 0 .77-1.691 3.723-3.232z" transform="translate(-5360.000000, -771.000000) translate(5360.000000, 771.000000) translate(21.921818, 12.784798) translate(8.300111, 56.240752) scale(-1, 1) translate(-8.300111, -56.240752) translate(0.000000, 41.684220)"/>
                        <path fill="#FFB7A2" d="M5.282 10.644c.888-1.31 4.199-3.29 5.314-3.914 1.115-.625 1.915-1.057 2.123-.904.168.123-.389 5.966-.652 7.666-.263 1.7-1.503 7.27-3.729 9.094-2.668 2.186-4.306 3.03-6.13 3.03-.902-8.451 1.643-12.862 3.074-14.972z" transform="translate(-5360.000000, -771.000000) translate(5360.000000, 771.000000) translate(21.921818, 12.784798) translate(8.300111, 56.240752) scale(-1, 1) translate(-8.300111, -56.240752) translate(0.000000, 41.684220)"/>
                    </g>
                    <path fill="#FFF" d="M33.69 61.056c6.685 0 8.555-4.959 8.555-11.076 0-6.117-2.496-11.076-8.556-11.076-6.06 0-8.555 4.959-8.555 11.076 0 6.117 1.87 11.076 8.555 11.076zM60.912 61.056c6.686 0 8.555-4.959 8.555-11.076 0-6.117-2.496-11.076-8.555-11.076-6.06 0-8.556 4.959-8.556 11.076 0 6.117 1.87 11.076 8.556 11.076z" transform="translate(-5360.000000, -771.000000) translate(5360.000000, 771.000000) translate(21.921818, 12.784798)"/>
                    <path fill="#107778" d="M33.543 57.947c5.023 0 6.077-3.48 6.077-7.773 0-4.292-1.268-7.772-6.077-7.772-4.808 0-6.076 3.48-6.076 7.772 0 4.293 1.054 7.773 6.076 7.773zM60.766 57.947c5.022 0 6.076-3.48 6.076-7.773 0-4.292-1.268-7.772-6.076-7.772-4.809 0-6.077 3.48-6.077 7.772 0 4.293 1.055 7.773 6.077 7.773z" transform="translate(-5360.000000, -771.000000) translate(5360.000000, 771.000000) translate(21.921818, 12.784798)"/>
                    <path fill="#FFD8CD" d="M16.84 70.614c-.152 14.341 1.015 23.405 3.5 27.192.222.337.664.449 1.02.258l2.956-1.59c.28-.15.624-.115.868.09l2.123 1.78c.295.246.725.241 1.014-.013l1.93-1.7c.27-.238.666-.26.96-.054l2.657 1.863c.282.197.66.186.93-.027l2.328-1.843c.26-.206.624-.224.903-.044l2.912 1.873c.331.213.77.145 1.02-.158l1.226-1.483c.251-.304.69-.372 1.02-.158l2.188 1.41c.36.232.842.128 1.075-.233.08-.123.122-.267.124-.413l.072-6.827-16.813-.539c-7.923-10.93-12.595-17.39-14.014-19.384z" transform="translate(-5360.000000, -771.000000) translate(5360.000000, 771.000000) translate(21.921818, 12.784798)"/>
                    <path fill="#FFB7A2" d="M47.561 70.614c-.15 14.292 1.009 23.343 3.476 27.153.23.355.702.46 1.062.239l2.404-1.485c.285-.177.651-.15.908.065l2.097 1.757c.295.247.725.242 1.014-.012l1.93-1.7c.27-.238.666-.26.96-.054l2.657 1.863c.282.197.66.186.93-.027l2.328-1.843c.26-.206.624-.224.903-.044l2.912 1.873c.331.213.77.145 1.02-.158l1.226-1.483c.251-.304.69-.372 1.02-.158l2.188 1.41c.36.232.842.128 1.075-.233.08-.123.122-.267.124-.413l.072-6.827-16.813-.539c-7.576-10.93-12.073-17.39-13.493-19.384z" transform="translate(-5360.000000, -771.000000) translate(5360.000000, 771.000000) translate(21.921818, 12.784798) translate(62.707653, 84.693271) scale(-1, 1) translate(-62.707653, -84.693271)"/>
                    <path fill="#FFB7A2" d="M46.717 69.606c3.973 0 7.195-1.653 7.195-3.692s-3.222-3.692-7.195-3.692c-3.973 0-7.194.444-7.194 3.692 0 3.249 3.22 3.692 7.194 3.692z" transform="translate(-5360.000000, -771.000000) translate(5360.000000, 771.000000) translate(21.921818, 12.784798)"/>
                    <g transform="translate(-5360.000000, -771.000000) translate(5360.000000, 771.000000) translate(21.921818, 12.784798) translate(17.777966, 0.000000)">
                        <mask id="9dxrl03zpb" fill="#fff">
                            <use xlink:href="#ykbg1p7fha"/>
                        </mask>
                        <use fill="#FA0" xlink:href="#ykbg1p7fha"/>
                        <path fill="#196CC7" d="M-3.72 12.224c3.2.54 5.9.097 8.097-1.33 2.197-1.426 3.875-3.319 5.032-5.68l1.06 1.63c-1.136 2.32-2.809 4.198-5.019 5.632C3.24 13.91.537 14.37-2.66 13.854l-1.06-1.63z" mask="url(#9dxrl03zpb)"/>
                        <path fill="#196CC7" d="M-5.664 9.504c3.2.54 5.899.096 8.097-1.33 2.197-1.426 3.874-3.32 5.032-5.68l1.059 1.63C7.388 6.444 5.716 8.32 3.506 9.755c-2.21 1.435-4.914 1.894-8.11 1.379l-1.06-1.63z" mask="url(#9dxrl03zpb)"/>
                    </g>
                    <g transform="translate(-5360.000000, -771.000000) translate(5360.000000, 771.000000) translate(21.921818, 12.784798) translate(69.563811, 10.016721) scale(-1, 1) translate(-69.563811, -10.016721) translate(63.106728, 0.000000)">
                        <mask id="8tmitm5k1d" fill="#fff">
                            <use xlink:href="#t8zfgyv1qc"/>
                        </mask>
                        <use fill="#FA0" xlink:href="#t8zfgyv1qc"/>
                        <path fill="#196CC7" d="M-3.72 12.224c3.2.54 5.9.097 8.097-1.33 2.197-1.426 3.875-3.319 5.032-5.68l1.06 1.63c-1.136 2.32-2.809 4.198-5.019 5.632C3.24 13.91.537 14.37-2.66 13.854l-1.06-1.63z" mask="url(#8tmitm5k1d)"/>
                        <path fill="#196CC7" d="M-5.664 9.504c3.2.54 5.899.096 8.097-1.33 2.197-1.426 3.874-3.32 5.032-5.68l1.059 1.63C7.388 6.444 5.716 8.32 3.506 9.755c-2.21 1.435-4.914 1.894-8.11 1.379l-1.06-1.63z" mask="url(#8tmitm5k1d)"/>
                    </g>
                </g>
            </g>
        </g>
    </g>
</svg>
