<?xml version="1.0" encoding="utf-8"?>
<!-- Generator: Adobe Illustrator 24.1.0, SVG Export Plug-In . SVG Version: 6.00 Build 0)  -->
<svg version="1.1" id="piggy_full" xmlns="http://www.w3.org/2000/svg" xmlns:xlink="http://www.w3.org/1999/xlink" x="0px" y="0px"
	 viewBox="0 0 210 180" style="enable-background:new 0 0 210 180;" xml:space="preserve">
<style type="text/css">
	.ani-hand-swing {
		-webkit-animation: swing 4s infinite linear;
		transform-origin: 50% 50%;
	}
	@-webkit-keyframes swing {
		0%   {}
		4%   { transform: rotate(-10deg) translate(0, 5px);}
		8%   { transform: rotate(0) translate(0, 0);}
		15%  { transform: rotate(0) translate(0, 0);}
		17%  { transform: rotate(0deg) translate(0, -1px);}
		19%  { transform: rotate(0deg) translate(0, 0);}
		100% {}
	}
	.ani-coin {
		-webkit-animation: swing_coin 4s infinite linear;
        transform-origin: center;
		transform-box: fill-box;
	}
	@-webkit-keyframes swing_coin {
		0%   {}
		5%   { transform: translate(0, 0) rotate(0);}
		10%  { transform: translate(0, -20px) rotate(0); opacity: 1;}
		11%  { transform: translate(0, -20px) rotateX(90deg); opacity: .1;}
		13%  { transform: translate(0, -20px) rotateY(90deg); opacity: 1;}
		16%  { transform: translate(0, -20px) rotate(0);}
		18%  { transform: translate(0, 0) rotate(0);}
		100% {}
    }
	.ani-shadow {
		-webkit-animation: shadow 4s infinite linear;
		transform-origin: 50% 50%;
		transform-box: fill-box;
	}
	@-webkit-keyframes shadow {
		0%   {}
		2%   { opacity:0.4; transform: translate(0, 0) scale(1);}
		5%   { opacity:0; transform: translate(0, -5px) scale(1.1);}
		28%  { opacity:0; transform: translate(0, -5px) scale(1.1);}
        30%  { opacity:0.4; transform: translate(0, 0) scale(1);}
		100% {}
    }
    .ani-body {
		-webkit-animation: body_jump 4s infinite linear;
        transform-origin: 50% 50%;
        transform-box: fill-box;
	}
	@-webkit-keyframes body_jump {
		0%   {}
		36%  { transform: scaleY(0.99);}
		41%  { transform: scaleY(1.05); }
		44%  { transform: scaleY(1);}
		100% {}
	}
	.ani-mouth {
		-webkit-animation: mouth_close 4s infinite linear;
		opacity: 0;
	}
	@-webkit-keyframes mouth_close {
		0%   { opacity: 0; }
		40%  { opacity: 0; }
		42%  { opacity: 1; }
		50%  { opacity: 1; }
		52%  { opacity: 0; }
		100% { opacity: 0; }
	}
	.ani-nose-jump {
		-webkit-animation: nose-jump 4s infinite linear;
		transform-origin: 50% 50%;
        transform-box: fill-box;
	}
	@-webkit-keyframes nose-jump {
		0%   {}
		36%  { transform:translate(0,0); }
		41%  { transform:translate(-1px,0); }
		46%  { transform:translate(0,0);}
		100% {}
	}
	.ani-word {
		-webkit-animation: word-jump 4s infinite linear;
		transform-origin: 50% 50%;
		transform-box: fill-box;
		transform:scale(0) translate(0,10px);
		opacity: 0;
	}
	@-webkit-keyframes word-jump {
		0%   {}
		35%  { transform:scale(0) translate(0,0);}
		41%  { transform:scale(0) translate(0,10px); }
		43%  { transform:scale(1) translate(0,0); opacity:1; }
		60%  { transform:scale(1) translate(0,0); opacity:1;}
		65%  { transform:scale(1) translate(0,0); opacity:0;}
		100% {}
	}
	.ani-foot {
		-webkit-animation: foot 4s infinite linear;
		transform-origin: 50% 50%;
		transform-box: fill-box;
	}
	@-webkit-keyframes foot {
		0%   {}
		36%  { transform: skewX(0) translate(0, 0);}
		41%  { transform: skewX(-20deg) translate(0, 2px);}
		44%  { transform: skewX(0) translate(0, 0);}
		100% {}
	}
	.ani-hand {
		-webkit-animation: hand_move 4s infinite linear;
		transform-origin: 50% 50%;
		transform-box: fill-box;
	}
	@-webkit-keyframes hand_move {
		0%    {}
		60%   { transform: translate(0, 0);}
		67%   { transform: translate(0, 3px);}
		75%   { transform: translate(4px, 0px);}
		82%   { transform: translate(0, -2px);}
		90%   { transform: translate(0, 0);}
		100%  {}
	}
	.st0{opacity:0.3;}
	.st1{fill-rule:evenodd;clip-rule:evenodd;fill:url(#SVGID_1_);}
	.st2{fill:#095450;}
	.st3{fill-rule:evenodd;clip-rule:evenodd;fill:#F4BD29;}
	.st4{fill-rule:evenodd;clip-rule:evenodd;fill:#FAE737;}
	.st5{fill-rule:evenodd;clip-rule:evenodd;fill:#FAD537;}
	.st6{opacity:0.4;fill:#AFAFAF;}
	.st7{opacity:0.2;fill:#AFAFAF;}
	.st8{fill:#059393;}
	.st9{fill:#00888A;}
	.st10{fill:none;stroke:#ABC6C6;}
	.st11{fill:#ABC6C6;}
	.st12{opacity:0.5;fill:#DCE589;}
	.st13{opacity:0.8;fill:#FCD4FF;}
	.st14{opacity:0.3;fill:#936107;}
	.st15{opacity:0.5;fill:#F4BD29;}
	.st16{opacity:0.8;fill:#EDABF4;}
	.st17{fill:#e8b652;}
	.st18{fill:#915D00;}
	.st19{opacity:0.4;fill:#C6C3BD;}
	.st20{fill:#834918;}
	.st21{fill:#DDA84A;}
	.st22{fill:#FFD97B;}
	.st23{fill:#FCCB5E;}
	.st24{fill:#EFBB54;}
	.st25{fill:#AD761E;}
	.st26{fill:none;stroke:#CC9824;stroke-width:0.8883;stroke-linecap:round;stroke-miterlimit:10;}
	.st27{fill:none;stroke:#CC9824;stroke-width:0.7826;stroke-linecap:round;stroke-miterlimit:10;}
	.st28{fill:none;stroke:#CC9824;stroke-width:0.7536;stroke-linecap:round;stroke-miterlimit:10;}
	.st29{fill:none;stroke:#231F20;stroke-width:1.7194;stroke-linecap:round;stroke-linejoin:round;stroke-miterlimit:10;}
	.st30{fill:#231F20;}
	.st31{fill:#F995AB;}
	.st32{fill:#FFFFFF;}
	.st33{fill:#D35E24;}
	.st34{fill:#C01018;}
	.st35{fill:#700008;}
	.st36{opacity:0.15;fill:#AFAFAF;}
</style>
<g class="st0">
	
		<linearGradient id="SVGID_1_" gradientUnits="userSpaceOnUse" x1="100.1779" y1="34.4456" x2="96.7254" y2="13.6653" gradientTransform="matrix(1 0 0 -1 0 182)">
		<stop  offset="0" style="stop-color:#C7E8E8"/>
		<stop  offset="1" style="stop-color:#99C9C9"/>
	</linearGradient>
	<path class="st1" d="M190.57,159.43c0,5.45-32.62,9.87-72.86,9.87c-10.66,0-20.79-0.31-29.92-0.87c-8.2,2.91-21.73,4.82-37.04,4.82
		c-25.01,0-45.29-5.08-45.29-11.35c0-6.27,20.28-11.35,45.29-11.35c7.47,0,14.51,0.45,20.72,1.25c12.58-1.4,28.68-2.24,46.24-2.24
		C157.94,149.56,190.57,153.98,190.57,159.43z"/>
</g>
<g>
	<path class="st2" d="M80.57,143.43c0,4.1-16.76,8.31-37.4,8.31s-37.35-4.21-37.35-8.31c0-4.1,16.73-7.42,37.38-7.42
		S80.57,139.33,80.57,143.43z"/>
	<g>
		<g>
			<path class="st3" d="M9.72,149.02c1.39-2.97,6.35-5.12,12.22-5.06c5.82,0.06,10.7,2.28,12.09,5.23l0.38,0l0.02,1.67
				c0.05,3.77-5.47,6.82-12.4,6.81c-6.99-0.01-12.7-3.13-12.7-6.97v-1.7L9.72,149.02z"/>
			<path class="st4" d="M9.33,148.62c0,3.82,5.71,6.95,12.69,6.97c6.92,0.02,12.44-3.02,12.39-6.78c-0.05-3.74-5.61-6.83-12.48-6.91
				C14.99,141.81,9.33,144.81,9.33,148.62"/>
			<path class="st3" d="M9.72,145.62c1.39-2.96,6.34-5.09,12.2-5.01c5.81,0.07,10.68,2.3,12.07,5.24l0.38,0l0.02,1.67
				c0.05,3.75-5.46,6.79-12.38,6.76c-6.98-0.03-12.68-3.15-12.68-6.97v-1.7L9.72,145.62z"/>
			<path class="st4" d="M9.33,145.22c0,3.81,5.7,6.93,12.67,6.97c6.91,0.04,12.42-2.98,12.36-6.73c-0.05-3.73-5.6-6.82-12.46-6.92
				C14.98,138.44,9.33,141.43,9.33,145.22"/>
			<path class="st3" d="M9.72,142.23c1.39-2.95,6.33-5.06,12.17-4.97c5.8,0.09,10.66,2.31,12.05,5.25l0.38,0l0.02,1.66
				c0.05,3.74-5.45,6.75-12.35,6.71c-6.96-0.04-12.66-3.17-12.66-6.97v-1.69L9.72,142.23z"/>
			<path class="st4" d="M9.33,141.82c0,3.79,5.69,6.92,12.64,6.97c6.89,0.05,12.39-2.94,12.34-6.68c-0.05-3.72-5.59-6.81-12.44-6.92
				C14.97,135.09,9.33,138.05,9.33,141.82"/>
			<path class="st3" d="M9.72,138.85c1.39-2.93,6.32-5.02,12.15-4.92c5.79,0.1,10.64,2.33,12.03,5.26l0.38,0.01l0.02,1.66
				c0.05,3.73-5.44,6.71-12.33,6.66c-6.95-0.06-12.63-3.18-12.63-6.97v-1.68L9.72,138.85z"/>
			<path class="st4" d="M9.33,138.45c0,3.78,5.68,6.91,12.62,6.97c6.88,0.07,12.37-2.91,12.32-6.62c-0.05-3.7-5.58-6.79-12.41-6.92
				C14.96,131.75,9.33,134.68,9.33,138.45"/>
			<path class="st5" d="M16.64,135.41c0.49-0.2,1.05-0.3,1.7-0.29c0.41,0.01,0.82,0.06,1.24,0.15c0.36,0.09,0.72,0.26,1.05,0.47
				c0.31,0.22,0.62,0.52,0.88,0.87c0.26,0.37,0.47,0.82,0.68,1.35c0.82-0.03,1.61-0.08,2.38-0.12c0.74-0.03,1.48-0.08,2.25-0.16
				l0.18-0.01c0.02-0.12,0.05-0.25,0.05-0.38l0-0.36c0-0.14-0.03-0.3-0.03-0.46c-0.03-0.15-0.03-0.3-0.03-0.46
				c0-0.12,0.07-0.22,0.23-0.3c0.15-0.07,0.33-0.11,0.58-0.11c0.25,0,0.48,0.06,0.64,0.15c0.15,0.09,0.26,0.21,0.33,0.34
				c0.05,0.15,0.1,0.28,0.13,0.42l0.01,0.97l0.91-0.09c0.25-0.03,0.43-0.04,0.53-0.04c0.2,0,0.41,0.06,0.56,0.17
				c0.15,0.12,0.23,0.23,0.23,0.36c0,0.23-0.2,0.37-0.6,0.45c-0.1,0.03-0.3,0.05-0.61,0.08c-0.3,0.04-0.71,0.08-1.19,0.11
				c-0.1,0.35-0.2,0.68-0.32,1.01c-0.15,0.35-0.38,0.65-0.63,0.92c-0.33,0.37-0.78,0.66-1.34,0.86c-0.61,0.2-1.33,0.29-2.15,0.28
				c-0.46-0.01-0.92-0.07-1.39-0.21c-0.52-0.14-0.88-0.3-1.11-0.51c-0.31-0.24-0.57-0.53-0.75-0.86c-0.18-0.32-0.34-0.65-0.44-1
				c-0.82,0.05-1.62,0.06-2.34,0.08c-0.77,0.03-1.45,0.05-2.07,0.06c0.05,0.37,0.21,0.72,0.42,1.04c0.18,0.34,0.49,0.68,0.91,1.04
				c0.08,0.07,0.13,0.13,0.18,0.18c0.05,0.06,0.08,0.1,0.08,0.15c0,0.13-0.1,0.23-0.28,0.32c-0.21,0.09-0.44,0.13-0.7,0.12
				c-0.29,0-0.55-0.09-0.8-0.27c-0.29-0.18-0.57-0.43-0.83-0.76c-0.21-0.25-0.39-0.53-0.52-0.84c-0.16-0.29-0.26-0.62-0.34-0.96
				c-0.21,0.01-0.39,0.01-0.54,0.01l-0.39-0.01c-0.26,0-0.44-0.05-0.6-0.15c-0.16-0.09-0.24-0.21-0.24-0.36
				c0-0.15,0.08-0.26,0.23-0.38c0.15-0.09,0.34-0.14,0.6-0.14l0.34,0c0.13,0,0.31,0,0.52-0.01c0-0.31,0.1-0.64,0.31-1
				c0.21-0.35,0.46-0.68,0.82-0.99C15.72,135.87,16.13,135.61,16.64,135.41 M26.47,139.14c0.08-0.15,0.15-0.29,0.25-0.46l-1.97,0.13
				c-0.72,0.05-1.43,0.1-2.2,0.13c0.21,0.47,0.49,0.87,0.8,1.18c0.28,0.31,0.62,0.46,0.98,0.46c0.38,0,0.74-0.09,1.07-0.29
				c0.31-0.2,0.58-0.43,0.81-0.72C26.32,139.44,26.4,139.3,26.47,139.14 M19.17,136.44c-0.28-0.16-0.57-0.26-0.85-0.26
				c-0.36-0.01-0.64,0.06-0.9,0.17c-0.28,0.11-0.51,0.27-0.69,0.46c-0.21,0.19-0.33,0.39-0.44,0.62c-0.1,0.23-0.15,0.47-0.15,0.7
				c0.6-0.01,1.24-0.03,1.96-0.04l2.19-0.06c-0.08-0.19-0.15-0.38-0.21-0.56c-0.08-0.16-0.18-0.32-0.29-0.47
				C19.64,136.8,19.43,136.62,19.17,136.44"/>
		</g>
		<path class="st6" d="M32.96,139.61c0,0-3.39,4.16-3.43,4.88c-0.1,2.01-16.82,3.88-16.99,5.25s-0.2,6.16-0.2,6.16
			s12.1,5.77,19.45-0.89C35.07,152.06,32.96,139.61,32.96,139.61z"/>
		<g>
			<path class="st3" d="M44.42,153.96c1.33-2.89,6.14-4.97,11.85-4.88c5.67,0.08,10.45,2.27,11.83,5.15l0.37,0l0.04,1.63
				c0.09,3.67-5.27,6.63-12.01,6.59c-6.81-0.04-12.4-3.1-12.44-6.83l-0.02-1.66L44.42,153.96z"/>
			<path class="st4" d="M44.03,153.56c0.04,3.72,5.62,6.79,12.42,6.84c6.74,0.05,12.09-2.9,12-6.56c-0.09-3.65-5.53-6.68-12.22-6.78
				C49.49,146.95,44,149.86,44.03,153.56"/>
			<path class="st3" d="M44.39,150.65c1.33-2.88,6.12-4.93,11.83-4.84c5.66,0.09,10.43,2.28,11.81,5.15l0.37,0l0.04,1.62
				c0.09,3.66-5.26,6.59-11.99,6.54c-6.79-0.05-12.38-3.12-12.41-6.84l-0.02-1.65L44.39,150.65z"/>
			<path class="st4" d="M44,150.25c0.04,3.71,5.61,6.78,12.4,6.84c6.73,0.06,12.06-2.86,11.98-6.51c-0.09-3.63-5.52-6.67-12.2-6.79
				C49.44,143.67,43.97,146.56,44,150.25"/>
			<path class="st3" d="M44.35,147.34c1.32-2.86,6.11-4.9,11.81-4.79c5.65,0.11,10.41,2.3,11.79,5.16l0.37,0.01l0.04,1.62
				c0.09,3.64-5.25,6.55-11.97,6.49c-6.78-0.07-12.35-3.14-12.39-6.84l-0.02-1.65L44.35,147.34z"/>
			<path class="st4" d="M43.97,146.95c0.04,3.69,5.6,6.76,12.38,6.84c6.71,0.08,12.04-2.82,11.96-6.46
				c-0.08-3.62-5.51-6.65-12.18-6.79C49.4,140.41,43.93,143.27,43.97,146.95"/>
			<path class="st3" d="M44.32,144.05c1.32-2.85,6.1-4.87,11.79-4.75c5.64,0.12,10.39,2.31,11.77,5.17l0.37,0.01l0.04,1.61
				c0.09,3.63-5.24,6.52-11.95,6.44c-6.77-0.08-12.33-3.15-12.37-6.84l-0.02-1.64L44.32,144.05z"/>
			<path class="st4" d="M43.94,143.66c0.04,3.68,5.59,6.75,12.35,6.84c6.7,0.09,12.02-2.78,11.94-6.41
				c-0.08-3.61-5.5-6.64-12.16-6.79C49.36,137.15,43.9,139.99,43.94,143.66"/>
			<path class="st3" d="M44.29,140.77c1.32-2.84,6.09-4.84,11.76-4.71c5.63,0.13,10.37,2.32,11.74,5.17l0.37,0.01l0.04,1.61
				c0.08,3.62-5.23,6.48-11.93,6.39c-6.76-0.1-12.31-3.17-12.35-6.84l-0.02-1.63L44.29,140.77z"/>
			<path class="st4" d="M43.91,140.38c0.04,3.67,5.58,6.74,12.33,6.84c6.69,0.11,12-2.75,11.92-6.36
				c-0.08-3.59-5.49-6.63-12.13-6.79C49.32,133.91,43.87,136.73,43.91,140.38"/>
			<path class="st3" d="M44.25,137.51c1.32-2.82,6.08-4.81,11.74-4.66c5.62,0.14,10.35,2.34,11.72,5.18l0.37,0.01l0.04,1.6
				c0.08,3.6-5.22,6.45-11.91,6.34c-6.75-0.11-12.29-3.18-12.32-6.84l-0.02-1.63L44.25,137.51z"/>
			<path class="st4" d="M43.87,137.11c0.04,3.65,5.57,6.73,12.31,6.85c6.68,0.12,11.98-2.71,11.89-6.31
				c-0.08-3.58-5.48-6.62-12.11-6.79C49.28,130.68,43.84,133.47,43.87,137.11"/>
			<path class="st3" d="M44.22,134.25c1.31-2.81,6.07-4.78,11.72-4.62c5.61,0.15,10.33,2.35,11.7,5.19l0.36,0.01l0.04,1.6
				c0.08,3.59-5.21,6.41-11.89,6.29c-6.73-0.13-12.27-3.2-12.3-6.85l-0.02-1.62L44.22,134.25z"/>
			<path class="st4" d="M43.84,134.93c0.04,3.07,5.56,5.66,12.29,5.78c6.67,0.11,11.96-2.26,11.87-5.28
				c-0.08-3.01-5.47-5.57-12.09-5.73C49.23,129.54,43.81,131.87,43.84,134.93"/>
			<path class="st5" d="M50.9,130.77c0.47-0.18,1.02-0.28,1.64-0.27c0.4,0.01,0.8,0.06,1.2,0.16c0.35,0.09,0.7,0.26,1.03,0.46
				c0.3,0.22,0.6,0.51,0.86,0.85c0.25,0.36,0.46,0.8,0.67,1.31c0.79-0.02,1.56-0.06,2.3-0.1c0.72-0.02,1.43-0.06,2.17-0.13
				l0.17-0.01c0.02-0.11,0.05-0.24,0.04-0.36l-0.01-0.35c0-0.14-0.03-0.29-0.04-0.45c-0.03-0.14-0.03-0.29-0.03-0.45
				c0-0.11,0.07-0.21,0.22-0.29c0.15-0.07,0.32-0.1,0.56-0.1c0.25,0.01,0.47,0.07,0.62,0.16c0.15,0.09,0.25,0.2,0.33,0.33
				c0.05,0.14,0.1,0.27,0.13,0.41l0.02,0.93l0.88-0.08c0.25-0.02,0.42-0.03,0.52-0.03c0.2,0,0.4,0.07,0.54,0.17
				c0.15,0.11,0.23,0.23,0.23,0.35c0,0.22-0.19,0.36-0.58,0.43c-0.1,0.03-0.29,0.05-0.59,0.07c-0.29,0.03-0.69,0.07-1.15,0.1
				c-0.09,0.33-0.18,0.65-0.3,0.97c-0.14,0.33-0.36,0.62-0.6,0.88c-0.31,0.36-0.75,0.63-1.29,0.81c-0.59,0.18-1.28,0.27-2.08,0.25
				c-0.45-0.01-0.9-0.08-1.35-0.21c-0.5-0.14-0.85-0.3-1.08-0.5c-0.3-0.23-0.56-0.52-0.74-0.83c-0.18-0.31-0.33-0.63-0.44-0.97
				c-0.8,0.04-1.57,0.05-2.27,0.06c-0.75,0.02-1.4,0.04-2,0.04c0.05,0.35,0.21,0.7,0.41,1.01c0.18,0.33,0.48,0.66,0.89,1.01
				c0.08,0.07,0.13,0.13,0.18,0.17c0.05,0.06,0.08,0.1,0.08,0.14c0,0.13-0.1,0.22-0.27,0.31c-0.2,0.08-0.42,0.12-0.68,0.11
				c-0.28-0.01-0.53-0.1-0.78-0.27c-0.28-0.18-0.56-0.42-0.81-0.74c-0.2-0.25-0.38-0.52-0.51-0.82c-0.15-0.29-0.26-0.6-0.34-0.93
				c-0.2,0.01-0.38,0-0.53,0l-0.38-0.01c-0.25-0.01-0.43-0.05-0.58-0.15c-0.15-0.09-0.23-0.2-0.23-0.34c0-0.14,0.07-0.25,0.22-0.36
				c0.15-0.08,0.32-0.13,0.58-0.13l0.33,0.01c0.12,0,0.3,0.01,0.5,0c0-0.3,0.09-0.62,0.29-0.96c0.2-0.33,0.44-0.65,0.79-0.95
				C50.01,131.2,50.4,130.96,50.9,130.77 M60.45,134.46c0.07-0.14,0.14-0.28,0.24-0.44l-1.9,0.11c-0.69,0.04-1.39,0.08-2.13,0.1
				c0.21,0.45,0.49,0.84,0.79,1.14c0.28,0.3,0.6,0.45,0.95,0.46c0.37,0.01,0.72-0.08,1.03-0.27c0.29-0.19,0.56-0.41,0.78-0.68
				C60.31,134.75,60.38,134.61,60.45,134.46 M53.36,131.79c-0.28-0.16-0.55-0.25-0.83-0.26c-0.35-0.01-0.62,0.05-0.87,0.16
				c-0.27,0.11-0.5,0.25-0.67,0.43c-0.2,0.18-0.32,0.37-0.42,0.59c-0.1,0.22-0.14,0.45-0.14,0.67c0.58,0,1.2-0.01,1.9-0.02
				l2.12-0.03c-0.08-0.18-0.15-0.37-0.21-0.54c-0.08-0.16-0.18-0.31-0.28-0.46C53.81,132.14,53.61,131.97,53.36,131.79"/>
			<path class="st7" d="M59.02,129.36c0,0,3.11,3.12-0.97,9.56c-1.39,2.19,4.48,3.51,6.81,5.85c2.34,2.34,3.89,5.27,3.89,5.27
				l-1.27,9.19c0,0-8.85,4.86-14.5,3.3l-0.35-25.32L59.02,129.36z"/>
			<g>
				<path class="st3" d="M59.53,139.22c1.7-2.43,6.29-3.49,11.29-2.42c4.96,1.06,8.75,3.9,9.43,6.79l0.32,0.07l-0.27,1.51
					c-0.6,3.39-5.84,5.17-11.75,3.96c-5.96-1.22-10.31-5.02-9.65-8.45l0.29-1.53L59.53,139.22z"/>
				<path class="st4" d="M59.11,139.58c-0.56,2.99,3.85,6.43,9.8,7.66c5.9,1.22,11.06-0.21,11.57-3.16
					c0.51-2.94-3.79-6.32-9.64-7.58C64.94,135.23,59.67,136.6,59.11,139.58"/>
				<path class="st5" d="M66.31,138.12c0.39-0.08,0.82-0.08,1.29,0.02c0.3,0.06,0.6,0.16,0.89,0.3c0.25,0.12,0.49,0.31,0.71,0.52
					c0.2,0.22,0.38,0.49,0.52,0.81c0.14,0.32,0.22,0.71,0.3,1.15c0.61,0.09,1.2,0.17,1.77,0.25c0.55,0.08,1.11,0.15,1.68,0.2
					l0.13,0.02c0.04-0.09,0.07-0.18,0.09-0.29l0.05-0.28c0.02-0.11,0.02-0.24,0.05-0.37c0-0.12,0.02-0.24,0.05-0.37
					c0.02-0.09,0.09-0.16,0.21-0.2c0.12-0.03,0.26-0.04,0.45,0c0.19,0.04,0.35,0.12,0.45,0.21c0.1,0.09,0.16,0.2,0.2,0.31
					c0.02,0.12,0.04,0.23,0.03,0.35l-0.14,0.76l0.69,0.06c0.19,0.02,0.32,0.03,0.4,0.05c0.15,0.03,0.29,0.11,0.39,0.21
					c0.1,0.11,0.14,0.22,0.12,0.32c-0.03,0.18-0.2,0.26-0.51,0.27c-0.08,0.01-0.23,0-0.46-0.03c-0.23-0.01-0.54-0.04-0.9-0.08
					c-0.12,0.26-0.25,0.5-0.39,0.74c-0.16,0.25-0.37,0.45-0.6,0.63c-0.3,0.24-0.68,0.4-1.12,0.47c-0.48,0.06-1.02,0.03-1.63-0.09
					c-0.34-0.07-0.67-0.19-0.99-0.36c-0.36-0.18-0.6-0.36-0.74-0.56c-0.19-0.23-0.34-0.5-0.43-0.77c-0.09-0.28-0.15-0.55-0.18-0.84
					c-0.61-0.08-1.2-0.18-1.74-0.27c-0.57-0.09-1.07-0.17-1.53-0.25c-0.02,0.29,0.05,0.59,0.15,0.87c0.08,0.29,0.26,0.6,0.52,0.94
					c0.05,0.07,0.07,0.12,0.11,0.16c0.03,0.05,0.04,0.09,0.04,0.13c-0.02,0.1-0.11,0.17-0.26,0.21c-0.17,0.04-0.34,0.03-0.53-0.01
					c-0.21-0.04-0.39-0.15-0.55-0.33c-0.18-0.18-0.36-0.42-0.5-0.71c-0.12-0.23-0.21-0.47-0.26-0.73c-0.07-0.25-0.1-0.52-0.11-0.79
					c-0.15-0.02-0.29-0.05-0.4-0.07l-0.29-0.06c-0.19-0.04-0.32-0.1-0.42-0.21c-0.1-0.09-0.14-0.2-0.12-0.31
					c0.02-0.11,0.1-0.19,0.23-0.26c0.13-0.04,0.27-0.06,0.46-0.02l0.25,0.05c0.09,0.02,0.23,0.05,0.38,0.07
					c0.04-0.24,0.17-0.48,0.38-0.74c0.2-0.24,0.44-0.46,0.75-0.66C65.56,138.33,65.9,138.19,66.31,138.12 M73.01,142.43
					c0.08-0.1,0.15-0.2,0.25-0.32l-1.47-0.18c-0.54-0.07-1.07-0.13-1.64-0.22c0.08,0.4,0.24,0.75,0.42,1.03
					c0.16,0.28,0.39,0.45,0.65,0.5c0.28,0.06,0.56,0.04,0.83-0.07c0.26-0.11,0.49-0.25,0.7-0.44
					C72.85,142.65,72.93,142.55,73.01,142.43 M68.02,139.28c-0.18-0.17-0.38-0.28-0.59-0.33c-0.27-0.06-0.48-0.04-0.69,0.01
					c-0.23,0.05-0.42,0.14-0.58,0.26c-0.18,0.11-0.3,0.25-0.41,0.42c-0.11,0.17-0.18,0.34-0.22,0.52c0.44,0.08,0.92,0.16,1.45,0.25
					l1.62,0.27c-0.03-0.16-0.06-0.32-0.07-0.46c-0.03-0.14-0.09-0.28-0.14-0.41C68.31,139.63,68.19,139.46,68.02,139.28"/>
				<g>
					<path class="st7" d="M76.2,138.66c0,0,3.77,2.89,2.37,5.44c-1.41,2.55-14.5,3.43-14.5,3.43s-3.6-1.5-3.6-2.91
						C60.47,143.23,76.2,138.66,76.2,138.66z"/>
					<path class="st3" d="M53.69,135.77c1.61-2.68,6.38-4.18,11.73-3.47c5.31,0.7,9.51,3.36,10.44,6.32l0.34,0.04l-0.17,1.6
						c-0.38,3.59-5.78,5.9-12.1,5.12c-6.38-0.78-11.24-4.39-10.8-8.04l0.19-1.62L53.69,135.77z"/>
					<path class="st4" d="M53.25,136.28c-0.37,3.12,4.54,6.31,10.91,7.09c6.31,0.78,11.65-1.1,11.96-4.18
						c0.31-3.07-4.47-6.21-10.73-7.03C59.08,131.34,53.62,133.17,53.25,136.28"/>
					<path class="st5" d="M61.21,134.3c0.38-0.11,0.82-0.15,1.3-0.09c0.31,0.04,0.61,0.12,0.91,0.22c0.26,0.1,0.52,0.26,0.75,0.46
						c0.21,0.2,0.42,0.46,0.58,0.76c0.16,0.31,0.27,0.69,0.38,1.12c0.62,0.05,1.22,0.08,1.8,0.11c0.56,0.04,1.12,0.06,1.7,0.07
						l0.13,0.01c0.03-0.09,0.06-0.19,0.07-0.29l0.03-0.29c0.01-0.11,0.01-0.24,0.02-0.37c-0.01-0.12,0.01-0.24,0.02-0.37
						c0.01-0.09,0.08-0.16,0.2-0.22c0.12-0.04,0.26-0.06,0.45-0.03c0.19,0.02,0.36,0.09,0.46,0.18c0.11,0.08,0.17,0.18,0.22,0.29
						c0.02,0.12,0.05,0.23,0.06,0.34l-0.08,0.76l0.7,0.01c0.19,0,0.33,0.01,0.4,0.02c0.15,0.02,0.3,0.09,0.4,0.18
						c0.1,0.11,0.15,0.2,0.14,0.31c-0.02,0.18-0.18,0.28-0.5,0.31c-0.08,0.01-0.23,0.02-0.47,0.01c-0.23,0-0.54,0-0.91-0.01
						c-0.11,0.27-0.21,0.52-0.34,0.77c-0.15,0.26-0.34,0.48-0.56,0.67c-0.28,0.27-0.65,0.45-1.09,0.56
						c-0.48,0.1-1.03,0.11-1.64,0.04c-0.35-0.04-0.69-0.13-1.02-0.28c-0.37-0.15-0.63-0.31-0.78-0.5c-0.21-0.21-0.38-0.47-0.48-0.74
						c-0.11-0.27-0.19-0.54-0.24-0.82c-0.62-0.03-1.22-0.09-1.77-0.13c-0.58-0.04-1.09-0.08-1.55-0.13c0,0.29,0.09,0.58,0.21,0.86
						c0.11,0.28,0.31,0.58,0.58,0.89c0.05,0.06,0.08,0.12,0.12,0.16c0.03,0.05,0.05,0.09,0.05,0.12c-0.01,0.1-0.1,0.17-0.24,0.23
						c-0.16,0.05-0.34,0.06-0.54,0.04c-0.21-0.03-0.4-0.12-0.58-0.28c-0.2-0.17-0.39-0.39-0.55-0.67c-0.13-0.22-0.24-0.45-0.31-0.71
						c-0.09-0.25-0.14-0.51-0.17-0.78c-0.16-0.01-0.29-0.03-0.41-0.04l-0.29-0.04c-0.19-0.02-0.33-0.08-0.43-0.17
						c-0.11-0.08-0.16-0.18-0.14-0.3c0.01-0.12,0.08-0.2,0.21-0.28c0.12-0.05,0.26-0.08,0.46-0.06l0.25,0.03
						c0.1,0.01,0.23,0.03,0.39,0.04c0.03-0.24,0.14-0.5,0.33-0.76c0.19-0.26,0.41-0.49,0.71-0.71
						C60.47,134.58,60.8,134.41,61.21,134.3 M68.23,138.07c0.07-0.11,0.14-0.21,0.23-0.34l-1.49-0.06
						c-0.54-0.02-1.08-0.05-1.67-0.09c0.11,0.39,0.29,0.72,0.49,0.99c0.18,0.27,0.42,0.41,0.69,0.45c0.29,0.04,0.57-0.01,0.83-0.14
						c0.25-0.13,0.48-0.29,0.68-0.49C68.09,138.29,68.16,138.19,68.23,138.07 M63.01,135.32c-0.2-0.15-0.4-0.25-0.61-0.28
						c-0.27-0.04-0.49-0.01-0.69,0.06c-0.22,0.06-0.41,0.17-0.56,0.3c-0.17,0.13-0.29,0.28-0.39,0.45c-0.1,0.17-0.16,0.35-0.18,0.54
						c0.45,0.05,0.93,0.09,1.47,0.13l1.65,0.14c-0.04-0.16-0.08-0.31-0.1-0.46c-0.04-0.13-0.11-0.27-0.17-0.39
						C63.32,135.64,63.18,135.49,63.01,135.32"/>
				</g>
			</g>
		</g>
		<g>
			<path class="st3" d="M30.42,157.09c1.39-2.97,6.35-5.12,12.22-5.06c5.82,0.06,10.7,2.28,12.09,5.23l0.38,0l0.02,1.67
				c0.05,3.77-5.47,6.82-12.4,6.81c-6.99-0.01-12.7-3.13-12.7-6.97v-1.7L30.42,157.09z"/>
			<path class="st4" d="M30.03,156.69c0,3.82,5.71,6.95,12.69,6.97c6.92,0.02,12.44-3.02,12.39-6.78
				c-0.05-3.74-5.61-6.83-12.48-6.91C35.69,149.88,30.03,152.88,30.03,156.69"/>
			<path class="st3" d="M30.42,153.69c1.39-2.96,6.34-5.09,12.2-5.01c5.81,0.07,10.68,2.3,12.07,5.24l0.38,0l0.02,1.67
				c0.05,3.75-5.46,6.79-12.38,6.76c-6.98-0.03-12.68-3.15-12.68-6.97v-1.7L30.42,153.69z"/>
			<path class="st4" d="M30.03,153.28c0,3.81,5.7,6.93,12.67,6.97c6.91,0.04,12.42-2.98,12.36-6.73c-0.05-3.73-5.6-6.82-12.46-6.92
				C35.68,146.51,30.03,149.49,30.03,153.28"/>
			<path class="st3" d="M30.42,150.3c1.39-2.95,6.33-5.06,12.17-4.97c5.8,0.09,10.66,2.31,12.05,5.25l0.38,0l0.02,1.66
				c0.05,3.74-5.45,6.75-12.35,6.71c-6.96-0.04-12.66-3.17-12.66-6.97v-1.69L30.42,150.3z"/>
			<path class="st4" d="M30.03,149.89c0,3.79,5.69,6.92,12.64,6.97c6.89,0.05,12.39-2.94,12.34-6.68
				c-0.05-3.72-5.59-6.81-12.44-6.92C35.67,143.16,30.03,146.12,30.03,149.89"/>
			<path class="st3" d="M30.42,146.92c1.39-2.93,6.32-5.02,12.15-4.92c5.79,0.1,10.64,2.33,12.03,5.26l0.38,0.01l0.02,1.66
				c0.05,3.73-5.44,6.71-12.33,6.66c-6.95-0.06-12.63-3.18-12.63-6.97v-1.68L30.42,146.92z"/>
			<path class="st4" d="M30.03,146.52c0,3.78,5.68,6.91,12.62,6.97c6.88,0.07,12.37-2.91,12.32-6.62c-0.05-3.7-5.58-6.79-12.41-6.92
				C35.66,139.82,30.03,142.75,30.03,146.52"/>
			<path class="st3" d="M30.42,143.55c1.38-2.92,6.3-4.99,12.13-4.88c5.78,0.11,10.62,2.34,12.01,5.26l0.38,0.01l0.02,1.65
				c0.05,3.71-5.43,6.67-12.31,6.6c-6.94-0.07-12.61-3.2-12.61-6.97v-1.68L30.42,143.55z"/>
			<path class="st4" d="M30.03,144.05c0,3.28,5.67,6,12.6,6.07c6.87,0.07,12.35-2.5,12.3-5.72c-0.05-3.21-5.57-5.9-12.39-6.03
				C35.65,138.25,30.03,140.79,30.03,144.05"/>
		</g>
		<g>
			<path class="st3" d="M30.1,139.79c1.39-2.97,6.35-5.12,12.22-5.06c5.82,0.06,10.7,2.28,12.09,5.23l0.38,0l0.02,1.67
				c0.05,3.77-5.47,6.82-12.4,6.81c-6.99-0.01-12.7-3.13-12.7-6.97v-1.7L30.1,139.79z"/>
			<path class="st4" d="M29.71,139.38c0,3.82,5.71,6.95,12.69,6.97c6.92,0.02,12.44-3.02,12.39-6.78
				c-0.05-3.74-5.61-6.83-12.48-6.91C35.37,132.57,29.71,135.58,29.71,139.38"/>
			<path class="st3" d="M30.1,136.39c1.39-2.96,6.34-5.09,12.2-5.01c5.81,0.07,10.68,2.3,12.07,5.24l0.38,0l0.02,1.67
				c0.05,3.75-5.46,6.79-12.38,6.76c-6.98-0.03-12.68-3.15-12.68-6.97v-1.7L30.1,136.39z"/>
			<path class="st4" d="M29.71,135.98c0,3.81,5.7,6.93,12.67,6.97c6.91,0.04,12.42-2.98,12.36-6.73c-0.05-3.73-5.6-6.82-12.46-6.92
				C35.36,129.21,29.71,132.19,29.71,135.98"/>
			<path class="st3" d="M30.09,133c1.39-2.95,6.33-5.06,12.17-4.97c5.8,0.09,10.66,2.31,12.05,5.25l0.38,0l0.02,1.66
				c0.05,3.74-5.45,6.75-12.35,6.71c-6.96-0.04-12.66-3.17-12.66-6.97v-1.69L30.09,133z"/>
			<path class="st4" d="M29.71,132.59c0,3.79,5.69,6.92,12.64,6.97c6.89,0.05,12.39-2.94,12.34-6.68
				c-0.05-3.72-5.59-6.81-12.44-6.92C35.35,125.86,29.71,128.81,29.71,132.59"/>
			<path class="st3" d="M30.09,129.62c1.39-2.93,6.32-5.02,12.15-4.92c5.79,0.1,10.64,2.33,12.03,5.26l0.38,0.01l0.02,1.66
				c0.05,3.73-5.44,6.71-12.33,6.66c-6.95-0.06-12.63-3.18-12.63-6.97v-1.68L30.09,129.62z"/>
			<path class="st4" d="M29.71,129.21c0,3.78,5.68,6.91,12.62,6.97c6.88,0.07,12.37-2.91,12.32-6.62c-0.05-3.7-5.58-6.79-12.41-6.92
				C35.34,122.52,29.71,125.45,29.71,129.21"/>
			<path class="st5" d="M37.02,126.18c0.49-0.2,1.05-0.3,1.7-0.29c0.41,0.01,0.82,0.06,1.24,0.15c0.36,0.09,0.72,0.26,1.05,0.47
				c0.31,0.22,0.62,0.52,0.88,0.87c0.26,0.37,0.47,0.82,0.68,1.35c0.82-0.03,1.61-0.08,2.38-0.12c0.74-0.03,1.48-0.08,2.25-0.16
				l0.18-0.01c0.02-0.12,0.05-0.25,0.05-0.38l0-0.36c0-0.14-0.03-0.3-0.03-0.46c-0.03-0.15-0.03-0.3-0.03-0.46
				c0-0.12,0.07-0.22,0.23-0.3c0.15-0.07,0.33-0.11,0.58-0.11c0.25,0,0.48,0.06,0.64,0.15c0.15,0.09,0.26,0.21,0.33,0.34
				c0.05,0.15,0.1,0.28,0.13,0.42l0.01,0.97l0.91-0.09c0.25-0.03,0.43-0.04,0.53-0.04c0.2,0,0.41,0.06,0.56,0.17
				c0.15,0.12,0.23,0.23,0.23,0.36c0,0.23-0.2,0.37-0.6,0.45c-0.1,0.03-0.3,0.05-0.61,0.08c-0.3,0.04-0.71,0.08-1.19,0.11
				c-0.1,0.35-0.2,0.68-0.32,1.01c-0.15,0.35-0.38,0.65-0.63,0.92c-0.33,0.37-0.78,0.66-1.34,0.86c-0.61,0.2-1.33,0.29-2.15,0.28
				c-0.46-0.01-0.92-0.07-1.39-0.21c-0.52-0.14-0.88-0.3-1.11-0.51c-0.31-0.24-0.57-0.53-0.75-0.86c-0.18-0.32-0.34-0.65-0.44-1
				c-0.82,0.05-1.62,0.06-2.34,0.08c-0.77,0.03-1.45,0.05-2.07,0.06c0.05,0.37,0.21,0.72,0.42,1.04c0.18,0.34,0.49,0.68,0.91,1.04
				c0.08,0.07,0.13,0.13,0.18,0.18c0.05,0.06,0.08,0.1,0.08,0.15c0,0.13-0.1,0.23-0.28,0.32c-0.21,0.09-0.44,0.13-0.7,0.12
				c-0.29,0-0.55-0.09-0.8-0.27c-0.29-0.18-0.57-0.43-0.83-0.76c-0.21-0.25-0.39-0.53-0.52-0.84c-0.16-0.29-0.26-0.62-0.34-0.96
				c-0.21,0.01-0.39,0.01-0.54,0.01l-0.39-0.01c-0.26,0-0.44-0.05-0.6-0.15c-0.16-0.09-0.24-0.21-0.24-0.36
				c0-0.15,0.08-0.26,0.23-0.38c0.15-0.09,0.34-0.14,0.6-0.14l0.34,0c0.13,0,0.31,0,0.52-0.01c0-0.31,0.1-0.64,0.31-1
				c0.21-0.35,0.46-0.68,0.82-0.99C36.1,126.63,36.51,126.38,37.02,126.18 M46.85,129.9c0.08-0.15,0.15-0.29,0.25-0.46l-1.97,0.13
				c-0.72,0.05-1.43,0.1-2.2,0.13c0.21,0.47,0.49,0.87,0.8,1.18c0.28,0.31,0.62,0.46,0.98,0.46c0.38,0,0.74-0.09,1.07-0.29
				c0.31-0.2,0.58-0.43,0.81-0.72C46.7,130.21,46.77,130.06,46.85,129.9 M39.55,127.21c-0.28-0.16-0.57-0.26-0.85-0.26
				c-0.36-0.01-0.64,0.06-0.9,0.17c-0.28,0.11-0.51,0.27-0.69,0.46c-0.21,0.19-0.33,0.39-0.44,0.62c-0.1,0.23-0.15,0.47-0.15,0.7
				c0.6-0.01,1.24-0.03,1.96-0.04l2.19-0.06c-0.08-0.19-0.15-0.38-0.21-0.56c-0.08-0.16-0.18-0.32-0.29-0.47
				C40.02,127.57,39.81,127.39,39.55,127.21"/>
			<g>
				<path class="st3" d="M35.08,123.58c2.24-2.72,7.89-3.81,13.87-2.46c5.93,1.34,10.31,4.67,10.93,7.98l0.39,0.09l-0.43,1.71
					c-0.98,3.84-7.46,5.74-14.54,4.2c-7.14-1.55-12.12-5.98-11.08-9.87l0.47-1.73L35.08,123.58z"/>
				<path class="st4" d="M34.54,124.01c-0.91,3.38,4.18,7.4,11.31,8.94c7.07,1.53,13.43,0.04,14.28-3.3
					c0.84-3.32-4.11-7.27-11.11-8.85C41.95,119.22,35.45,120.64,34.54,124.01"/>
				<path class="st5" d="M42.95,122.32c0.55-0.07,1.16-0.05,1.82,0.1c0.42,0.09,0.83,0.23,1.24,0.4c0.35,0.16,0.68,0.39,0.97,0.65
					c0.27,0.27,0.51,0.6,0.69,0.98c0.18,0.39,0.28,0.85,0.37,1.37c0.85,0.15,1.68,0.27,2.48,0.4c0.77,0.13,1.54,0.24,2.35,0.34
					l0.19,0.03c0.05-0.1,0.11-0.21,0.14-0.33l0.08-0.33c0.03-0.13,0.04-0.28,0.08-0.43c0.01-0.14,0.05-0.28,0.08-0.43
					c0.03-0.11,0.13-0.18,0.31-0.22c0.17-0.03,0.36-0.03,0.63,0.03c0.26,0.06,0.48,0.16,0.62,0.28c0.14,0.11,0.21,0.24,0.26,0.38
					c0.02,0.14,0.04,0.27,0.03,0.41l-0.23,0.88l0.96,0.12c0.27,0.03,0.45,0.06,0.56,0.08c0.21,0.05,0.4,0.15,0.53,0.27
					c0.13,0.14,0.18,0.26,0.15,0.38c-0.05,0.21-0.29,0.3-0.73,0.28c-0.11,0-0.33-0.02-0.65-0.06c-0.32-0.03-0.75-0.08-1.26-0.15
					c-0.19,0.29-0.37,0.58-0.58,0.85c-0.24,0.28-0.55,0.51-0.87,0.7c-0.43,0.27-0.97,0.43-1.59,0.49c-0.68,0.05-1.44-0.02-2.28-0.2
					c-0.47-0.1-0.93-0.26-1.38-0.48c-0.5-0.23-0.83-0.46-1.02-0.7c-0.26-0.28-0.46-0.61-0.56-0.94c-0.11-0.33-0.19-0.66-0.21-1
					c-0.86-0.13-1.69-0.29-2.43-0.42c-0.8-0.14-1.5-0.26-2.14-0.39c-0.04,0.34,0.04,0.7,0.17,1.04c0.11,0.35,0.34,0.72,0.68,1.14
					c0.06,0.08,0.1,0.15,0.14,0.2c0.04,0.07,0.06,0.11,0.04,0.15c-0.03,0.12-0.16,0.19-0.37,0.23c-0.23,0.03-0.48,0.02-0.75-0.04
					c-0.29-0.06-0.54-0.2-0.76-0.42c-0.25-0.22-0.48-0.52-0.67-0.87c-0.15-0.27-0.27-0.57-0.33-0.88c-0.09-0.3-0.12-0.62-0.12-0.94
					c-0.22-0.03-0.4-0.07-0.56-0.11l-0.4-0.09c-0.27-0.06-0.44-0.14-0.58-0.27c-0.14-0.11-0.19-0.24-0.16-0.37
					c0.04-0.13,0.14-0.22,0.33-0.29c0.18-0.04,0.38-0.06,0.65,0l0.35,0.08c0.13,0.03,0.32,0.07,0.53,0.1
					c0.07-0.28,0.26-0.56,0.57-0.85c0.3-0.27,0.64-0.52,1.09-0.73C41.88,122.53,42.37,122.38,42.95,122.32 M52.16,127.8
					c0.11-0.12,0.23-0.23,0.37-0.37l-2.06-0.3c-0.75-0.11-1.5-0.22-2.3-0.35c0.1,0.47,0.3,0.89,0.54,1.24
					c0.22,0.34,0.52,0.55,0.89,0.63c0.39,0.09,0.79,0.07,1.17-0.04c0.36-0.12,0.71-0.27,1.01-0.48
					C51.93,128.04,52.04,127.93,52.16,127.8 M45.3,123.79c-0.25-0.21-0.52-0.35-0.81-0.42c-0.37-0.08-0.68-0.08-0.97-0.03
					c-0.32,0.04-0.59,0.13-0.83,0.27c-0.26,0.12-0.44,0.28-0.6,0.47c-0.16,0.19-0.27,0.39-0.33,0.6c0.61,0.12,1.28,0.24,2.03,0.38
					l2.27,0.42c-0.03-0.19-0.07-0.38-0.08-0.55c-0.04-0.16-0.11-0.33-0.18-0.49C45.69,124.21,45.52,124.01,45.3,123.79"/>
			</g>
		</g>
	</g>
	<path class="st8" d="M83.92,161.88l-0.01-0.07c-0.01-0.11-0.03-0.23-0.06-0.34l-3.28-17.83h-0.03c-0.57,4-17.07,8.02-37.35,8.02
		c-20.28,0-36.78-4.02-37.35-8.02H5.81l-3.28,17.83c-0.04,0.11-0.05,0.23-0.06,0.34l-0.01,0.07h0c0,0.01,0,0.02,0,0.02
		c0,4.1,18.24,8.23,40.73,8.23c22.5,0,40.73-4.13,40.73-8.23C83.92,161.9,83.92,161.89,83.92,161.88L83.92,161.88z"/>
	<path class="st9" d="M83.92,161.91c0-0.01,0-0.02,0-0.02h0l-0.01-0.07c-0.01-0.11-0.03-0.23-0.06-0.34l-3.28-17.83h-0.03
		c-0.4,2.79-8.58,5.6-20.39,7.03l-0.79,0.43c0,0,9.84,4.52-2.41,5.52c-12.25,1-15.83-0.44-16.61,3.46
		c-0.78,3.9,2.43,6.04-13.68,5.76c-14.47-0.25-21.13-4.11-23.5-7.81l-0.63,3.44c-0.04,0.11-0.05,0.23-0.06,0.34l-0.01,0.07h0
		c0,0.01,0,0.02,0,0.02c0,4.1,18.24,8.23,40.73,8.23C65.69,170.14,83.92,166.01,83.92,161.91z"/>
</g>
<g class="ani-word">
	<path class="st10" d="M98.71,51.73l-6.15,12.34"/>
	<path class="st10" d="M61.79,52.76l6.15,12.34"/>
	<path class="st11" d="M75.24,53.09v6.53h-1.89v-6.53H75.24z M76.32,51.99H72.3v10.2h1.05v-1.43h2.97V51.99z M84.2,62.29V61.4h-4.97
		v0.89h1.95v2.65h0.98v-2.65H84.2z M83.62,59.67c-0.36,0-0.41-0.05-0.41-0.3v-0.9h1.94v1.1c-0.03,0.07-0.1,0.1-0.33,0.1H83.62z
		 M86.23,57.47h-9.06v7.85h1.08v-6.84h1.9c-0.15,1.05-0.59,1.61-1.84,1.96c0.2,0.15,0.46,0.48,0.54,0.69
		c1.51-0.48,2.05-1.27,2.22-2.65h1.23v0.92c0,0.9,0.25,1.12,1.21,1.12h1.44c0.07,0,0.13,0,0.18,0v3.59c0,0.16-0.07,0.21-0.25,0.21
		c-0.18,0.02-0.75,0.02-1.39,0c0.13,0.28,0.26,0.72,0.31,1c0.94,0,1.53,0,1.92-0.18c0.39-0.16,0.49-0.48,0.49-1.04V57.47z
		 M84.1,55.63h-4.76v-1.68h4.76V55.63z M85.25,53.04h-7.01v3.52h7.01V53.04z M77.01,51.02v1.07h9.42v-1.07H77.01z"/>
</g>
<path class="st12" d="M70.06,132.45L70.06,132.45c-0.18-1.06-1.01-1.9-2.07-2.07l0,0c1.06-0.18,1.89-1.01,2.07-2.07l0,0
	c0.18,1.06,1.01,1.9,2.07,2.07l0,0C71.07,130.56,70.24,131.39,70.06,132.45z"/>
<path class="st13" d="M8.69,131.37L8.69,131.37c-0.2-1.2-1.13-2.14-2.33-2.33l0,0c1.19-0.2,2.13-1.14,2.33-2.33l0,0
	c0.2,1.2,1.13,2.14,2.33,2.33l0,0C9.83,129.23,8.89,130.17,8.69,131.37z"/>
<path class="st13" d="M77.75,137.25L77.75,137.25c-0.21-1.26-1.2-2.25-2.46-2.46l0,0c1.26-0.21,2.25-1.2,2.46-2.46l0,0
	c0.21,1.26,1.2,2.25,2.46,2.46l0,0C78.95,135,77.96,135.99,77.75,137.25z"/>
<g>
	<path class="st3" d="M79.82,133.03c-1.42-2.86-6.34-4.78-12.12-4.49c-5.74,0.28-10.52,2.64-11.85,5.58l-0.37,0.02l0,1.64
		c0.01,3.69,5.5,6.48,12.33,6.2c6.89-0.28,12.47-3.55,12.42-7.3l-0.03-1.67L79.82,133.03z"/>
	<path class="st4" d="M80.2,132.62c0.06,3.74-5.52,7.02-12.4,7.3c-6.82,0.28-12.31-2.49-12.32-6.17c-0.01-3.67,5.43-6.9,12.2-7.24
		C74.51,126.16,80.14,128.89,80.2,132.62"/>
</g>
<g>
	<path class="st3" d="M79.77,129.7c-1.42-2.85-6.33-4.75-12.1-4.45c-5.73,0.29-10.5,2.66-11.82,5.59l-0.37,0.02l0,1.63
		c0.01,3.68,5.49,6.44,12.31,6.15c6.88-0.29,12.45-3.57,12.39-7.3l-0.03-1.66L79.77,129.7z"/>
	<path class="st4" d="M80.15,129.29c0.06,3.73-5.51,7.01-12.38,7.3c-6.81,0.3-12.29-2.45-12.3-6.12c-0.01-3.65,5.42-6.89,12.18-7.25
		C74.47,122.87,80.09,125.58,80.15,129.29"/>
</g>
<g>
	<path class="st3" d="M79.72,126.38c-1.41-2.83-6.32-4.71-12.08-4.41c-5.72,0.3-10.48,2.67-11.8,5.6L55.5,128l-0.03,1.22
		c0.01,3.67,5.48,6.4,12.29,6.1c6.86-0.3,12.43-3.58,12.37-7.3l-0.03-1.65L79.72,126.38z"/>
	<path class="st4" d="M80.12,127.06c0.04,3.13-5.53,5.92-12.38,6.21c-6.8,0.29-12.26-1.99-12.25-5.07
		c0.01-3.07,5.44-5.82,12.18-6.16C74.48,121.7,80.08,123.94,80.12,127.06"/>
	<path class="st5" d="M72.81,123.01c0.51,0.17,0.92,0.41,1.28,0.69c0.36,0.3,0.62,0.62,0.83,0.95c0.21,0.35,0.32,0.67,0.32,0.98
		c0.2,0,0.38,0,0.51-0.01l0.33-0.02c0.26-0.01,0.44,0.04,0.59,0.11c0.16,0.11,0.23,0.22,0.24,0.36c0,0.14-0.07,0.26-0.23,0.36
		c-0.15,0.11-0.33,0.16-0.59,0.17l-0.38,0.02c-0.15,0.01-0.33,0.02-0.54,0.01c-0.07,0.33-0.17,0.66-0.32,0.95
		c-0.12,0.31-0.3,0.59-0.5,0.85c-0.25,0.33-0.53,0.59-0.81,0.77c-0.25,0.19-0.51,0.28-0.79,0.3c-0.26,0.01-0.49-0.02-0.69-0.1
		c-0.18-0.08-0.28-0.17-0.28-0.3c0-0.04,0.02-0.09,0.08-0.15c0.05-0.05,0.1-0.11,0.18-0.18c0.41-0.36,0.71-0.71,0.88-1.05
		c0.2-0.33,0.35-0.68,0.4-1.04c-0.61,0.02-1.28,0.02-2.04,0.01c-0.71,0.01-1.5,0.02-2.32,0c-0.1,0.35-0.25,0.67-0.42,1
		c-0.18,0.32-0.43,0.62-0.73,0.87c-0.23,0.21-0.58,0.39-1.09,0.54c-0.45,0.15-0.91,0.23-1.37,0.25c-0.81,0.04-1.52-0.03-2.13-0.2
		c-0.56-0.17-1.01-0.44-1.34-0.79c-0.25-0.26-0.48-0.55-0.63-0.88c-0.13-0.32-0.23-0.65-0.33-0.98c-0.48-0.02-0.88-0.04-1.18-0.07
		c-0.3-0.01-0.5-0.03-0.6-0.06c-0.4-0.06-0.6-0.2-0.6-0.42c0-0.13,0.07-0.25,0.22-0.37c0.15-0.11,0.35-0.17,0.55-0.18
		c0.1-0.01,0.28,0,0.53,0.02l0.9,0.05l0-0.95c0.02-0.14,0.07-0.27,0.12-0.42c0.08-0.13,0.17-0.25,0.33-0.34
		c0.15-0.09,0.38-0.16,0.63-0.17c0.25-0.01,0.43,0.02,0.58,0.08c0.15,0.08,0.23,0.17,0.23,0.29c0,0.16,0,0.31-0.02,0.46
		c0,0.16-0.03,0.31-0.02,0.46l0,0.36c0,0.13,0.03,0.25,0.05,0.37l0.18,0c0.76,0.05,1.49,0.07,2.22,0.07
		c0.76,0.02,1.54,0.04,2.35,0.04c0.2-0.53,0.4-0.98,0.65-1.35c0.25-0.36,0.55-0.66,0.85-0.89c0.33-0.22,0.68-0.39,1.03-0.5
		c0.41-0.11,0.81-0.17,1.22-0.19C71.77,122.75,72.33,122.83,72.81,123.01 M63.16,127.02c0.08,0.15,0.15,0.29,0.26,0.42
		c0.23,0.27,0.51,0.49,0.81,0.68c0.33,0.18,0.68,0.27,1.06,0.25c0.35-0.02,0.68-0.18,0.96-0.49c0.3-0.32,0.58-0.72,0.78-1.19
		c-0.76,0-1.47-0.03-2.18-0.05l-1.94-0.06C63.01,126.74,63.09,126.88,63.16,127.02 M70.33,124.11c-0.25,0.18-0.45,0.37-0.6,0.58
		c-0.1,0.15-0.2,0.31-0.28,0.47c-0.05,0.17-0.12,0.36-0.2,0.55l2.16-0.02c0.71-0.01,1.35-0.01,1.94-0.03c0-0.23-0.06-0.46-0.16-0.68
		c-0.1-0.22-0.23-0.42-0.44-0.59c-0.18-0.18-0.41-0.32-0.69-0.42c-0.26-0.1-0.54-0.16-0.89-0.14
		C70.89,123.84,70.61,123.94,70.33,124.11"/>
</g>
<path class="st14" d="M66.07,121.94c0,0-3.1,0.38-6.8,2c-3.7,1.61-3.73,4.39-3.73,4.39l0.03,15.13l-0.14,6.53
	c0,0,1.79,6.52,16.04,5.51l16.78-24.71L66.07,121.94z"/>
<g>
	<g>
		<path class="st3" d="M166.16,138.58c1.23-2.62,5.61-4.52,10.78-4.47c5.14,0.05,9.44,2.01,10.67,4.62l0.33,0l0.02,1.48
			c0.05,3.32-4.83,6.02-10.94,6.01c-6.17-0.01-11.21-2.77-11.21-6.15v-1.5L166.16,138.58z"/>
		<path class="st4" d="M165.81,138.23c0,3.37,5.04,6.13,11.2,6.15c6.1,0.02,10.98-2.67,10.93-5.98c-0.05-3.3-4.95-6.03-11.01-6.1
			C170.81,132.22,165.81,134.87,165.81,138.23"/>
	</g>
	<g>
		<path class="st3" d="M166.16,135.58c1.23-2.61,5.59-4.49,10.76-4.43c5.13,0.07,9.43,2.03,10.65,4.63l0.33,0l0.02,1.47
			c0.05,3.31-4.82,5.99-10.92,5.97c-6.16-0.02-11.19-2.78-11.19-6.15v-1.5L166.16,135.58z"/>
		<path class="st4" d="M165.81,135.22c0,3.36,5.03,6.12,11.18,6.15c6.09,0.03,10.96-2.63,10.91-5.94c-0.05-3.29-4.95-6.02-10.99-6.1
			C170.8,129.25,165.81,131.88,165.81,135.22"/>
	</g>
	<g>
		<path class="st3" d="M166.15,132.59c1.22-2.6,5.58-4.46,10.74-4.38c5.12,0.08,9.41,2.04,10.63,4.63l0.33,0l0.02,1.47
			c0.05,3.3-4.81,5.96-10.9,5.92c-6.15-0.04-11.17-2.8-11.17-6.15v-1.49L166.15,132.59z"/>
		<path class="st4" d="M165.81,132.23c0,3.35,5.02,6.11,11.16,6.15c6.08,0.04,10.94-2.6,10.89-5.89c-0.05-3.28-4.94-6.01-10.97-6.1
			C170.79,126.29,165.81,128.9,165.81,132.23"/>
	</g>
	<g>
		<path class="st3" d="M166.15,129.61c1.22-2.59,5.57-4.43,10.72-4.34c5.11,0.09,9.39,2.06,10.61,4.64l0.33,0l0.02,1.46
			c0.05,3.29-4.8,5.92-10.88,5.87c-6.13-0.05-11.15-2.81-11.15-6.15v-1.48L166.15,129.61z"/>
		<path class="st4" d="M165.81,129.25c0,3.33,5.01,6.1,11.14,6.15c6.07,0.06,10.92-2.56,10.87-5.84c-0.05-3.27-4.93-5.99-10.95-6.11
			C170.78,123.34,165.81,125.93,165.81,129.25"/>
	</g>
	<g>
		<path class="st3" d="M170.55,124.28c1.97-2.4,6.96-3.37,12.24-2.17c5.23,1.18,9.1,4.12,9.64,7.04l0.34,0.08l-0.38,1.51
			c-0.86,3.39-6.58,5.06-12.83,3.71c-6.3-1.36-10.7-5.27-9.78-8.71l0.41-1.53L170.55,124.28z"/>
		<path class="st4" d="M170.08,124.66c-0.8,2.98,3.69,6.53,9.98,7.89c6.24,1.35,11.86,0.04,12.6-2.91c0.74-2.93-3.63-6.42-9.81-7.81
			C176.62,120.43,170.88,121.69,170.08,124.66"/>
		<path class="st5" d="M177.5,123.16c0.49-0.07,1.02-0.04,1.61,0.08c0.37,0.08,0.74,0.2,1.09,0.35c0.31,0.14,0.6,0.34,0.86,0.57
			c0.23,0.24,0.45,0.53,0.61,0.86c0.16,0.34,0.25,0.75,0.32,1.21c0.75,0.13,1.48,0.24,2.19,0.35c0.68,0.11,1.36,0.22,2.07,0.3
			l0.16,0.02c0.05-0.09,0.1-0.19,0.13-0.29l0.07-0.29c0.03-0.12,0.04-0.25,0.07-0.38c0.01-0.12,0.04-0.25,0.07-0.38
			c0.02-0.09,0.11-0.16,0.27-0.2c0.15-0.03,0.32-0.03,0.55,0.03c0.23,0.05,0.42,0.14,0.55,0.24c0.12,0.1,0.19,0.21,0.23,0.33
			c0.01,0.13,0.04,0.24,0.03,0.36l-0.2,0.78l0.85,0.1c0.24,0.03,0.4,0.05,0.49,0.07c0.18,0.04,0.36,0.13,0.47,0.24
			c0.11,0.12,0.16,0.23,0.13,0.34c-0.05,0.19-0.26,0.26-0.65,0.25c-0.1,0-0.29-0.01-0.57-0.05c-0.28-0.03-0.66-0.07-1.11-0.13
			c-0.16,0.26-0.32,0.51-0.51,0.75c-0.21,0.25-0.48,0.45-0.77,0.62c-0.38,0.24-0.86,0.38-1.41,0.43c-0.6,0.04-1.27-0.02-2.01-0.18
			c-0.42-0.09-0.82-0.23-1.22-0.43c-0.44-0.21-0.73-0.41-0.9-0.62c-0.23-0.25-0.4-0.53-0.5-0.83c-0.1-0.29-0.17-0.58-0.19-0.88
			c-0.76-0.12-1.49-0.25-2.15-0.37c-0.71-0.12-1.33-0.23-1.89-0.34c-0.03,0.3,0.04,0.62,0.15,0.92c0.09,0.31,0.3,0.64,0.6,1
			c0.06,0.07,0.09,0.13,0.13,0.18c0.03,0.06,0.05,0.1,0.04,0.13c-0.03,0.11-0.14,0.17-0.33,0.2c-0.21,0.03-0.43,0.02-0.66-0.03
			c-0.26-0.06-0.48-0.18-0.67-0.37c-0.22-0.2-0.43-0.46-0.59-0.76c-0.13-0.24-0.24-0.5-0.29-0.77c-0.08-0.27-0.1-0.55-0.1-0.83
			c-0.19-0.03-0.35-0.07-0.5-0.1l-0.35-0.08c-0.24-0.05-0.39-0.12-0.51-0.24c-0.12-0.1-0.17-0.21-0.14-0.33
			c0.03-0.12,0.13-0.2,0.29-0.26c0.16-0.04,0.34-0.05,0.57,0l0.31,0.07c0.12,0.03,0.28,0.06,0.47,0.09c0.07-0.25,0.23-0.5,0.5-0.75
			c0.26-0.24,0.57-0.46,0.96-0.64C176.56,123.35,176.99,123.22,177.5,123.16 M185.62,128c0.1-0.1,0.2-0.2,0.33-0.32l-1.81-0.27
			c-0.66-0.1-1.32-0.19-2.03-0.31c0.09,0.42,0.26,0.79,0.48,1.1c0.19,0.3,0.46,0.49,0.79,0.56c0.35,0.08,0.69,0.07,1.04-0.03
			c0.32-0.1,0.62-0.23,0.89-0.42C185.42,128.22,185.52,128.12,185.62,128 M179.57,124.47c-0.22-0.18-0.46-0.31-0.72-0.37
			c-0.33-0.07-0.6-0.07-0.86-0.03c-0.28,0.04-0.52,0.12-0.73,0.24c-0.23,0.11-0.39,0.25-0.53,0.41c-0.14,0.17-0.24,0.34-0.29,0.53
			c0.54,0.11,1.13,0.21,1.79,0.33l2,0.37c-0.03-0.17-0.06-0.33-0.07-0.49c-0.04-0.14-0.1-0.29-0.16-0.43
			C179.92,124.84,179.77,124.66,179.57,124.47"/>
	</g>
</g>
<g>
	<path class="st3" d="M47.01,148.41c1.23-2.61,5.59-4.49,10.76-4.43c5.13,0.07,9.43,2.03,10.65,4.63l0.33,0l0.02,1.47
		c0.05,3.31-4.82,5.99-10.92,5.97c-6.16-0.02-11.19-2.78-11.19-6.15v-1.5L47.01,148.41z"/>
	<path class="st4" d="M46.67,148.05c0,3.36,5.03,6.12,11.18,6.15c6.09,0.03,10.96-2.63,10.91-5.94c-0.05-3.29-4.95-6.02-10.99-6.1
		C51.66,142.08,46.67,144.71,46.67,148.05"/>
</g>
<g>
	<path class="st3" d="M47.01,145.42c1.22-2.6,5.58-4.46,10.74-4.38c5.12,0.08,9.41,2.04,10.63,4.63l0.33,0l0.02,1.47
		c0.05,3.3-4.81,5.96-10.9,5.92c-6.15-0.04-11.17-2.8-11.17-6.15v-1.49L47.01,145.42z"/>
	<path class="st4" d="M46.67,145.06c0,3.35,5.02,6.11,11.16,6.15c6.08,0.04,10.94-2.6,10.89-5.89c-0.05-3.28-4.94-6.01-10.97-6.1
		C51.65,139.12,46.67,141.73,46.67,145.06"/>
</g>
<g>
	<path class="st3" d="M47.01,142.44c1.22-2.59,5.57-4.43,10.72-4.34c5.11,0.09,9.39,2.06,10.61,4.64l0.33,0l0.02,1.46
		c0.05,3.29-4.8,5.92-10.88,5.87c-6.13-0.05-11.15-2.81-11.15-6.15v-1.48L47.01,142.44z"/>
	<path class="st4" d="M46.67,142.08c0,3.33,5.01,6.1,11.14,6.15c6.07,0.06,10.92-2.56,10.87-5.84c-0.05-3.27-4.93-5.99-10.95-6.11
		C51.64,136.17,46.67,138.76,46.67,142.08"/>
	<path class="st5" d="M53.12,139.4c0.43-0.17,0.93-0.27,1.5-0.26c0.36,0.01,0.73,0.05,1.09,0.13c0.32,0.08,0.64,0.23,0.93,0.41
		c0.27,0.2,0.55,0.46,0.78,0.77c0.23,0.32,0.41,0.72,0.6,1.19c0.72-0.03,1.42-0.07,2.1-0.11c0.65-0.03,1.31-0.07,1.98-0.14
		l0.16-0.01c0.02-0.1,0.04-0.22,0.04-0.33l0-0.32c0-0.13-0.03-0.27-0.03-0.41c-0.02-0.13-0.02-0.27-0.03-0.41
		c0-0.1,0.07-0.19,0.2-0.27c0.13-0.06,0.29-0.1,0.51-0.09c0.22,0,0.43,0.06,0.56,0.14c0.14,0.08,0.23,0.18,0.3,0.3
		c0.04,0.13,0.09,0.24,0.11,0.37l0.01,0.85l0.81-0.08c0.22-0.02,0.38-0.03,0.47-0.03c0.18,0,0.36,0.06,0.49,0.15
		c0.14,0.1,0.2,0.21,0.21,0.32c0,0.2-0.17,0.33-0.53,0.4c-0.09,0.02-0.27,0.05-0.54,0.07c-0.27,0.03-0.63,0.07-1.05,0.1
		c-0.09,0.31-0.17,0.6-0.28,0.89c-0.13,0.3-0.33,0.57-0.55,0.81c-0.29,0.33-0.69,0.58-1.19,0.76c-0.54,0.17-1.17,0.26-1.9,0.25
		c-0.41,0-0.82-0.06-1.22-0.18c-0.46-0.12-0.77-0.27-0.98-0.45c-0.27-0.21-0.5-0.47-0.66-0.76c-0.16-0.29-0.3-0.57-0.39-0.88
		c-0.73,0.04-1.43,0.06-2.07,0.07c-0.68,0.03-1.28,0.05-1.82,0.05c0.05,0.32,0.19,0.63,0.37,0.92c0.16,0.3,0.44,0.6,0.8,0.91
		c0.07,0.07,0.11,0.12,0.16,0.16c0.05,0.05,0.07,0.09,0.07,0.13c0,0.12-0.09,0.21-0.25,0.28c-0.18,0.08-0.39,0.11-0.62,0.11
		c-0.25,0-0.48-0.08-0.71-0.24c-0.25-0.16-0.5-0.38-0.73-0.67c-0.18-0.22-0.34-0.47-0.46-0.74c-0.14-0.26-0.23-0.55-0.3-0.84
		c-0.18,0.01-0.34,0.01-0.48,0.01l-0.34,0c-0.23,0-0.39-0.04-0.53-0.14c-0.14-0.08-0.21-0.18-0.21-0.31c0-0.13,0.07-0.23,0.21-0.33
		c0.14-0.08,0.3-0.12,0.53-0.12l0.3,0c0.11,0,0.27,0,0.46-0.01c0-0.27,0.09-0.57,0.27-0.89c0.18-0.31,0.41-0.6,0.73-0.88
		C52.3,139.8,52.67,139.58,53.12,139.4 M61.79,142.69c0.07-0.13,0.13-0.25,0.22-0.41l-1.73,0.12c-0.63,0.04-1.26,0.09-1.94,0.11
		c0.18,0.41,0.44,0.76,0.71,1.04c0.25,0.27,0.55,0.41,0.86,0.41c0.34,0,0.65-0.08,0.95-0.26c0.27-0.18,0.52-0.38,0.72-0.63
		C61.66,142.96,61.73,142.83,61.79,142.69 M55.35,140.31c-0.25-0.14-0.5-0.23-0.75-0.23c-0.32,0-0.57,0.06-0.8,0.15
		c-0.25,0.1-0.45,0.24-0.61,0.4c-0.18,0.16-0.29,0.34-0.39,0.55c-0.09,0.21-0.14,0.41-0.14,0.62c0.53,0,1.09-0.02,1.73-0.04
		l1.93-0.05c-0.07-0.17-0.14-0.34-0.18-0.49c-0.07-0.14-0.16-0.28-0.25-0.41C55.76,140.63,55.58,140.47,55.35,140.31"/>
</g>
<g>
	<path class="st3" d="M51.41,137.11c1.97-2.4,6.96-3.37,12.24-2.17c5.23,1.18,9.1,4.12,9.64,7.04l0.34,0.08l-0.38,1.51
		c-0.86,3.39-6.58,5.06-12.83,3.71c-6.3-1.36-10.7-5.27-9.78-8.71l0.41-1.53L51.41,137.11z"/>
	<path class="st4" d="M50.93,137.49c-0.8,2.98,3.69,6.53,9.98,7.89c6.24,1.35,11.86,0.04,12.6-2.91c0.74-2.93-3.63-6.42-9.81-7.81
		C57.47,133.26,51.73,134.52,50.93,137.49"/>
	<path class="st5" d="M58.35,135.99c0.49-0.07,1.02-0.04,1.61,0.08c0.37,0.08,0.74,0.2,1.09,0.35c0.31,0.14,0.6,0.34,0.86,0.57
		c0.23,0.24,0.45,0.53,0.61,0.86c0.16,0.34,0.25,0.75,0.32,1.21c0.75,0.13,1.48,0.24,2.19,0.35c0.68,0.11,1.36,0.22,2.07,0.3
		l0.16,0.02c0.05-0.09,0.1-0.19,0.13-0.29l0.07-0.29c0.03-0.12,0.04-0.25,0.07-0.38c0.01-0.12,0.04-0.25,0.07-0.38
		c0.02-0.09,0.11-0.16,0.27-0.2c0.15-0.03,0.32-0.03,0.55,0.03c0.23,0.05,0.42,0.14,0.55,0.24c0.12,0.1,0.19,0.21,0.23,0.33
		c0.01,0.13,0.04,0.24,0.03,0.36l-0.2,0.78l0.85,0.1c0.24,0.03,0.4,0.05,0.49,0.07c0.18,0.04,0.36,0.13,0.47,0.24
		c0.11,0.12,0.16,0.23,0.13,0.34c-0.05,0.19-0.26,0.26-0.65,0.25c-0.1,0-0.29-0.01-0.57-0.05c-0.28-0.03-0.66-0.07-1.11-0.13
		c-0.16,0.26-0.32,0.51-0.51,0.75c-0.21,0.25-0.48,0.45-0.77,0.62c-0.38,0.24-0.86,0.38-1.41,0.43c-0.6,0.04-1.27-0.02-2.01-0.18
		c-0.42-0.09-0.82-0.23-1.22-0.43c-0.44-0.21-0.73-0.41-0.9-0.62c-0.23-0.25-0.4-0.53-0.5-0.83c-0.1-0.29-0.17-0.58-0.19-0.88
		c-0.76-0.12-1.49-0.25-2.15-0.37c-0.71-0.12-1.33-0.23-1.89-0.34c-0.03,0.3,0.04,0.62,0.15,0.92c0.09,0.31,0.3,0.64,0.6,1
		c0.06,0.07,0.09,0.13,0.13,0.18c0.03,0.06,0.05,0.1,0.04,0.13c-0.03,0.11-0.14,0.17-0.33,0.2c-0.21,0.03-0.43,0.02-0.66-0.03
		c-0.26-0.06-0.48-0.18-0.67-0.37c-0.22-0.2-0.43-0.46-0.59-0.76c-0.13-0.24-0.24-0.5-0.29-0.77c-0.08-0.27-0.1-0.55-0.1-0.83
		c-0.19-0.03-0.35-0.07-0.5-0.1l-0.35-0.08c-0.24-0.05-0.39-0.12-0.51-0.24c-0.12-0.1-0.17-0.21-0.14-0.33
		c0.03-0.12,0.13-0.2,0.29-0.26c0.16-0.04,0.34-0.05,0.57,0l0.31,0.07c0.12,0.03,0.28,0.06,0.47,0.09c0.07-0.25,0.23-0.5,0.5-0.75
		c0.26-0.24,0.57-0.46,0.96-0.64C57.41,136.18,57.84,136.05,58.35,135.99 M66.48,140.83c0.1-0.1,0.2-0.2,0.33-0.32l-1.81-0.27
		c-0.66-0.1-1.32-0.19-2.03-0.31c0.09,0.42,0.26,0.79,0.48,1.1c0.19,0.3,0.46,0.49,0.79,0.56c0.35,0.08,0.69,0.07,1.04-0.03
		c0.32-0.1,0.62-0.23,0.89-0.42C66.28,141.05,66.38,140.95,66.48,140.83 M60.43,137.3c-0.22-0.18-0.46-0.31-0.72-0.37
		c-0.33-0.07-0.6-0.07-0.86-0.03c-0.28,0.04-0.52,0.12-0.73,0.24c-0.23,0.11-0.39,0.25-0.53,0.41c-0.14,0.17-0.24,0.34-0.29,0.53
		c0.54,0.11,1.13,0.21,1.79,0.33l2,0.37c-0.03-0.17-0.06-0.33-0.07-0.49c-0.04-0.14-0.1-0.29-0.16-0.43
		C60.77,137.67,60.63,137.49,60.43,137.3"/>
</g>
<g>
	<path class="st3" d="M148.88,144.89c1.43-2.91,6.39-4.9,12.21-4.67c5.78,0.23,10.6,2.58,11.93,5.56l0.38,0.01l0,1.66
		c-0.01,3.75-5.55,6.62-12.42,6.41c-6.94-0.22-12.57-3.49-12.51-7.3l0.03-1.69L148.88,144.89z"/>
	<path class="st4" d="M148.5,144.48c-0.06,3.8,5.56,7.07,12.49,7.3c6.87,0.22,12.4-2.64,12.41-6.38c0.01-3.72-5.47-6.96-12.29-7.24
		C154.23,137.87,148.56,140.7,148.5,144.48"/>
	<path class="st3" d="M148.94,141.51c1.43-2.9,6.38-4.87,12.19-4.63c5.77,0.24,10.58,2.6,11.91,5.57l0.38,0.01l0,1.66
		c-0.01,3.73-5.54,6.58-12.4,6.36c-6.93-0.23-12.54-3.51-12.48-7.3l0.03-1.68L148.94,141.51z"/>
	<path class="st4" d="M148.56,141.1c-0.06,3.78,5.55,7.06,12.47,7.3c6.86,0.24,12.38-2.6,12.39-6.32c0.01-3.71-5.46-6.94-12.27-7.24
		C154.28,134.53,148.61,137.33,148.56,141.1"/>
	<path class="st3" d="M148.99,138.14c1.42-2.89,6.36-4.84,12.17-4.58c5.76,0.26,10.56,2.61,11.89,5.57l0.37,0.02l0,1.65
		c-0.01,3.72-5.53,6.55-12.38,6.3c-6.92-0.25-12.52-3.52-12.46-7.3l0.03-1.68L148.99,138.14z"/>
	<path class="st4" d="M148.61,137.73c-0.06,3.77,5.54,7.04,12.45,7.3c6.85,0.25,12.36-2.56,12.36-6.27
		c0.01-3.69-5.45-6.93-12.25-7.24C154.32,131.2,148.67,133.97,148.61,137.73"/>
	<path class="st3" d="M149.04,134.78c1.42-2.87,6.35-4.81,12.14-4.54c5.75,0.27,10.54,2.63,11.87,5.58l0.37,0.02l0,1.65
		c-0.01,3.71-5.51,6.51-12.36,6.25c-6.9-0.26-12.5-3.54-12.44-7.3l0.03-1.67L149.04,134.78z"/>
	<path class="st4" d="M148.66,134.37c-0.06,3.75,5.53,7.03,12.42,7.3c6.83,0.27,12.33-2.53,12.34-6.22
		c0.01-3.68-5.44-6.92-12.22-7.24C154.36,127.88,148.72,130.63,148.66,134.37"/>
	<path class="st3" d="M149.09,131.44c1.42-2.86,6.34-4.78,12.12-4.49c5.74,0.28,10.52,2.64,11.85,5.58l0.37,0.02l0,1.64
		c-0.01,3.69-5.5,6.48-12.33,6.2c-6.89-0.28-12.47-3.55-12.42-7.3l0.03-1.67L149.09,131.44z"/>
	<path class="st4" d="M148.71,131.02c-0.06,3.74,5.52,7.02,12.4,7.3c6.82,0.28,12.31-2.49,12.32-6.17c0.01-3.67-5.43-6.9-12.2-7.24
		C154.4,124.57,148.77,127.3,148.71,131.02"/>
	<path class="st3" d="M149.14,128.1c1.42-2.85,6.33-4.75,12.1-4.45c5.73,0.29,10.5,2.66,11.82,5.59l0.37,0.02l0,1.63
		c-0.01,3.68-5.49,6.44-12.31,6.15c-6.88-0.29-12.45-3.57-12.39-7.3l0.03-1.66L149.14,128.1z"/>
	<path class="st4" d="M148.77,127.69c-0.06,3.73,5.51,7.01,12.38,7.3c6.81,0.3,12.29-2.45,12.3-6.12c0.01-3.65-5.42-6.89-12.18-7.25
		C154.44,121.27,148.82,123.98,148.77,127.69"/>
	<path class="st3" d="M149.19,124.78c1.41-2.83,6.32-4.71,12.08-4.41c5.72,0.3,10.48,2.67,11.8,5.6l0.37,0.02l0,1.63
		c-0.01,3.67-5.48,6.4-12.29,6.1c-6.86-0.3-12.43-3.58-12.37-7.3l0.03-1.65L149.19,124.78z"/>
	<path class="st4" d="M148.79,125.47c-0.04,3.13,5.53,5.92,12.38,6.21c6.8,0.29,12.26-1.99,12.25-5.07
		c-0.01-3.07-5.44-5.82-12.18-6.16C154.43,120.1,148.83,122.35,148.79,125.47"/>
	<path class="st5" d="M156.1,121.41c0.49-0.18,1.05-0.26,1.68-0.23c0.41,0.02,0.81,0.09,1.22,0.19c0.35,0.1,0.71,0.28,1.03,0.5
		c0.3,0.23,0.6,0.53,0.85,0.89c0.25,0.37,0.45,0.82,0.65,1.35c0.81,0,1.59-0.02,2.35-0.04c0.73-0.01,1.47-0.03,2.22-0.07l0.18,0
		c0.03-0.11,0.05-0.24,0.05-0.37l0-0.36c0-0.14-0.03-0.3-0.02-0.46c-0.02-0.14-0.02-0.3-0.02-0.46c0-0.11,0.08-0.21,0.23-0.29
		c0.15-0.06,0.33-0.1,0.58-0.08c0.25,0.01,0.48,0.08,0.63,0.17c0.15,0.09,0.25,0.21,0.33,0.34c0.05,0.15,0.1,0.28,0.12,0.42l0,0.95
		l0.9-0.05c0.25-0.02,0.43-0.02,0.53-0.02c0.2,0.01,0.4,0.08,0.55,0.18c0.15,0.12,0.23,0.24,0.22,0.37c0,0.23-0.2,0.36-0.6,0.42
		c-0.1,0.02-0.3,0.04-0.6,0.06c-0.3,0.03-0.7,0.05-1.18,0.07c-0.1,0.34-0.2,0.66-0.33,0.98c-0.15,0.33-0.38,0.62-0.63,0.88
		c-0.33,0.36-0.79,0.62-1.34,0.79c-0.61,0.17-1.32,0.24-2.13,0.2c-0.46-0.02-0.91-0.1-1.37-0.25c-0.51-0.15-0.86-0.33-1.09-0.54
		c-0.3-0.24-0.55-0.54-0.73-0.87c-0.18-0.32-0.33-0.65-0.42-1c-0.81,0.02-1.6,0.01-2.32,0c-0.77,0-1.43,0-2.04-0.01
		c0.05,0.36,0.2,0.71,0.4,1.04c0.18,0.34,0.48,0.69,0.88,1.05c0.08,0.08,0.12,0.14,0.18,0.18c0.05,0.06,0.08,0.1,0.08,0.15
		c0,0.13-0.1,0.23-0.28,0.3c-0.21,0.08-0.44,0.11-0.69,0.1c-0.28-0.01-0.54-0.11-0.79-0.3c-0.28-0.19-0.56-0.45-0.81-0.77
		c-0.2-0.26-0.38-0.54-0.5-0.85c-0.15-0.3-0.25-0.62-0.32-0.95c-0.2,0-0.38-0.01-0.54-0.01l-0.38-0.02
		c-0.26-0.01-0.44-0.06-0.59-0.17c-0.15-0.09-0.23-0.21-0.23-0.36c0-0.14,0.08-0.25,0.24-0.36c0.15-0.08,0.33-0.13,0.59-0.11
		l0.33,0.02c0.13,0.01,0.31,0.02,0.51,0.01c0-0.3,0.11-0.63,0.32-0.98c0.21-0.33,0.47-0.65,0.83-0.95
		C155.17,121.82,155.58,121.58,156.1,121.41 M165.75,125.42c0.08-0.14,0.15-0.28,0.26-0.44l-1.94,0.06
		c-0.71,0.02-1.42,0.04-2.18,0.05c0.2,0.47,0.47,0.87,0.78,1.19c0.28,0.31,0.6,0.47,0.96,0.49c0.38,0.02,0.73-0.06,1.06-0.25
		c0.31-0.19,0.58-0.4,0.81-0.68C165.59,125.71,165.67,125.57,165.75,125.42 M158.58,122.51c-0.28-0.17-0.56-0.27-0.84-0.29
		c-0.36-0.02-0.64,0.04-0.89,0.14c-0.28,0.1-0.51,0.25-0.69,0.42c-0.21,0.18-0.34,0.37-0.44,0.59c-0.1,0.22-0.16,0.45-0.16,0.68
		c0.59,0.02,1.23,0.02,1.94,0.03l2.16,0.02c-0.07-0.19-0.15-0.38-0.2-0.55c-0.07-0.16-0.18-0.32-0.28-0.47
		C159.03,122.88,158.83,122.7,158.58,122.51"/>
	<path class="st14" d="M162.84,120.35c0,0,3.1,0.38,6.8,2s4.09,4.05,4.09,4.05l-0.39,15.47l0.14,6.53c0,0-1.79,6.52-16.04,5.51
		l-16.78-24.71L162.84,120.35z"/>
</g>
<path class="st15" d="M138.34,58.71L138.34,58.71c-0.26-1.58-1.49-2.81-3.07-3.07l0,0c1.57-0.26,2.81-1.5,3.07-3.07l0,0
	c0.26,1.58,1.49,2.81,3.07,3.07l0,0C139.83,55.9,138.6,57.13,138.34,58.71z"/>
<path class="st16" d="M109.85,67.93L109.85,67.93c-0.17-1.01-0.96-1.8-1.96-1.97l0,0c1.01-0.17,1.8-0.96,1.96-1.97l0,0
	c0.17,1.01,0.96,1.8,1.96,1.97l0,0C110.81,66.13,110.02,66.92,109.85,67.93z"/>
<path class="st16" d="M138.37,71.07L138.37,71.07c-0.2-1.21-1.14-2.15-2.35-2.35l0,0c1.2-0.2,2.15-1.14,2.35-2.35l0,0
	c0.2,1.21,1.14,2.15,2.35,2.35l0,0C139.52,68.92,138.57,69.86,138.37,71.07z"/>
<g>
	<path class="st3" d="M181.64,145.02c1.21-2.55,5.5-4.38,10.59-4.29c5.04,0.09,9.27,2.03,10.48,4.58l0.33,0l0.02,1.44
		c0.04,3.25-4.74,5.85-10.75,5.8c-6.06-0.05-11.01-2.78-11.01-6.08v-1.47L181.64,145.02z"/>
	<path class="st4" d="M181.31,144.67c0,3.29,4.95,6.02,11,6.08c5.99,0.06,10.78-2.53,10.73-5.77c-0.04-3.23-4.87-5.92-10.82-6.03
		C186.21,138.84,181.31,141.39,181.31,144.67"/>
	<path class="st5" d="M187.68,142.03c0.43-0.17,0.92-0.26,1.48-0.26c0.36,0.01,0.72,0.05,1.08,0.13c0.31,0.08,0.63,0.23,0.92,0.41
		c0.27,0.19,0.54,0.45,0.77,0.76c0.23,0.32,0.41,0.72,0.59,1.17c0.71-0.03,1.41-0.07,2.07-0.11c0.65-0.03,1.29-0.07,1.96-0.14
		l0.15-0.01c0.02-0.1,0.04-0.21,0.04-0.33l0-0.32c0-0.13-0.03-0.26-0.03-0.4c-0.02-0.13-0.02-0.27-0.03-0.4
		c0-0.1,0.06-0.19,0.2-0.26c0.13-0.06,0.29-0.1,0.51-0.09c0.22,0,0.42,0.06,0.55,0.13c0.13,0.08,0.22,0.18,0.29,0.29
		c0.04,0.13,0.09,0.24,0.11,0.37l0.01,0.84l0.8-0.08c0.22-0.02,0.38-0.03,0.46-0.03c0.18,0,0.36,0.06,0.49,0.15
		c0.13,0.1,0.2,0.2,0.2,0.32c0,0.2-0.17,0.33-0.53,0.4c-0.09,0.02-0.26,0.05-0.53,0.07c-0.27,0.03-0.62,0.07-1.04,0.1
		c-0.09,0.3-0.17,0.59-0.28,0.88c-0.13,0.3-0.33,0.56-0.55,0.8c-0.29,0.33-0.68,0.57-1.17,0.75c-0.53,0.17-1.16,0.25-1.87,0.24
		c-0.4,0-0.81-0.06-1.21-0.18c-0.45-0.12-0.76-0.26-0.97-0.44c-0.27-0.21-0.5-0.46-0.65-0.75c-0.16-0.28-0.3-0.56-0.39-0.87
		c-0.72,0.04-1.41,0.06-2.04,0.07c-0.67,0.03-1.26,0.05-1.8,0.05c0.04,0.32,0.18,0.63,0.36,0.91c0.16,0.3,0.43,0.59,0.79,0.9
		c0.07,0.06,0.11,0.12,0.16,0.16c0.05,0.05,0.07,0.09,0.07,0.13c0,0.12-0.09,0.2-0.25,0.28c-0.18,0.07-0.38,0.11-0.61,0.11
		c-0.25,0-0.48-0.08-0.7-0.24c-0.25-0.16-0.5-0.38-0.73-0.66c-0.18-0.22-0.34-0.46-0.45-0.73c-0.14-0.26-0.23-0.54-0.3-0.83
		c-0.18,0.01-0.34,0.01-0.47,0.01l-0.34,0c-0.23,0-0.39-0.04-0.52-0.13c-0.14-0.08-0.2-0.18-0.21-0.31c0-0.13,0.07-0.23,0.2-0.33
		c0.13-0.07,0.29-0.12,0.52-0.12l0.29,0c0.11,0,0.27,0,0.45-0.01c0-0.27,0.09-0.56,0.27-0.88c0.18-0.3,0.4-0.59,0.72-0.87
		C186.87,142.42,187.23,142.2,187.68,142.03 M196.24,145.27c0.07-0.13,0.13-0.25,0.22-0.4l-1.71,0.11
		c-0.62,0.04-1.25,0.08-1.92,0.11c0.18,0.41,0.43,0.75,0.7,1.03c0.25,0.27,0.54,0.4,0.85,0.4c0.33,0,0.65-0.08,0.93-0.25
		c0.27-0.17,0.51-0.37,0.71-0.62C196.11,145.54,196.18,145.41,196.24,145.27 M189.88,142.93c-0.25-0.14-0.49-0.22-0.74-0.23
		c-0.31,0-0.56,0.05-0.79,0.15c-0.25,0.1-0.45,0.23-0.6,0.4c-0.18,0.16-0.29,0.34-0.38,0.54c-0.09,0.2-0.13,0.41-0.13,0.61
		c0.52,0,1.08-0.02,1.71-0.04l1.91-0.05c-0.07-0.17-0.14-0.33-0.18-0.49c-0.07-0.14-0.16-0.28-0.25-0.41
		C190.29,143.24,190.11,143.08,189.88,142.93"/>
</g>
<g>
	<g>
		<g class="ani-foot">
			<path class="st21" d="M154.56,138.67c0,0,13.27-5.13,18.32-14.31l-3.49-8.87c0,0-10,1.19-17.6,3.57S154.56,138.67,154.56,138.67z
				"/>
			<path class="st18" d="M175,121.07l-0.87-2.22l-0.93-0.26l0.23-1.32l-0.87-2.22l-3.44,0.52l3.49,8.87
				C172.6,124.45,174.03,124.7,175,121.07z"/>
		</g>
		<g class="ani-body">
			<g class="ani-hand-swing">
				<g>
					<path class="st17" d="M125.15,97.34c0,0,5.36-11.55,2.91-20.6l-7.76-3.54c0,0-5.7,6.98-9.11,13.23
						C107.77,92.68,125.15,97.34,125.15,97.34z"/>
					<path class="st18" d="M127.37,73.3l-1.94-0.88l-0.76,0.41L124,71.84l-1.94-0.88l-1.89,2.47l7.76,3.54
						C127.93,76.97,129,76.24,127.37,73.3z"/>
				</g>
				<path class="st19 ani-shadow" d="M116.43,78.17c0,0,7.85,2.14,11.31-0.75c0.52-0.43,0.55-1.41,0.52-2.09l-0.86-2.1l-6.84-0.3L116.43,78.17z"/>
			</g>
			<g class="ani-coin">
				<path class="st3" d="M113.73,72.83c-0.4-3.41,2.4-7.98,7.02-11.04c4.59-3.04,9.52-3.63,12.09-1.71l0.3-0.2l0.86,1.49
					c1.93,3.36-0.86,9.04-6.29,12.71c-5.48,3.7-11.51,3.93-13.44,0.48l-0.85-1.53L113.73,72.83z"/>
				<path class="st4" d="M113.68,73.49c1.67,2.99,7.5,2.4,12.97-1.3c5.42-3.66,8.41-8.98,6.72-11.9c-1.68-2.9-7.38-2.36-12.78,1.23
					C115.13,65.15,112.02,70.51,113.68,73.49"/>
				<path class="st5" d="M117.8,66.66c0.29-0.42,0.69-0.81,1.2-1.15c0.33-0.22,0.67-0.4,1.04-0.55c0.32-0.12,0.68-0.18,1.04-0.19
					c0.34,0.01,0.72,0.08,1.08,0.23c0.37,0.15,0.73,0.41,1.13,0.72c0.63-0.47,1.23-0.93,1.81-1.39c0.57-0.43,1.12-0.86,1.69-1.34
					l0.13-0.11c-0.03-0.11-0.07-0.23-0.13-0.33l-0.17-0.29c-0.07-0.12-0.16-0.23-0.23-0.36c-0.09-0.1-0.16-0.23-0.23-0.36
					c-0.05-0.09-0.04-0.21,0.04-0.36c0.09-0.14,0.21-0.27,0.41-0.4c0.2-0.13,0.41-0.21,0.57-0.22c0.16-0.01,0.29,0.03,0.41,0.09
					c0.11,0.09,0.21,0.17,0.29,0.27l0.44,0.77l0.68-0.56c0.19-0.16,0.32-0.26,0.4-0.32c0.16-0.11,0.35-0.17,0.51-0.17
					c0.17,0.01,0.29,0.06,0.35,0.17c0.11,0.18,0.01,0.41-0.27,0.69c-0.07,0.08-0.21,0.21-0.44,0.39c-0.22,0.2-0.52,0.45-0.88,0.73
					c0.08,0.33,0.15,0.65,0.2,0.99c0.04,0.36,0,0.72-0.08,1.08c-0.09,0.48-0.32,0.95-0.67,1.41c-0.39,0.49-0.91,0.95-1.56,1.39
					c-0.36,0.25-0.76,0.44-1.18,0.58c-0.47,0.17-0.82,0.23-1.1,0.19c-0.35-0.02-0.68-0.12-0.97-0.28c-0.29-0.16-0.56-0.34-0.8-0.56
					c-0.62,0.48-1.24,0.93-1.8,1.33c-0.59,0.44-1.11,0.82-1.59,1.16c0.2,0.27,0.49,0.46,0.8,0.61c0.3,0.17,0.69,0.28,1.18,0.34
					c0.09,0.02,0.16,0.04,0.22,0.04c0.07,0.02,0.11,0.04,0.13,0.08c0.06,0.11,0.02,0.24-0.08,0.41c-0.12,0.18-0.29,0.34-0.49,0.48
					c-0.23,0.15-0.47,0.22-0.75,0.22c-0.3,0.01-0.64-0.04-0.99-0.16c-0.28-0.09-0.54-0.22-0.79-0.4c-0.26-0.15-0.48-0.36-0.7-0.58
					c-0.16,0.12-0.3,0.22-0.42,0.3l-0.31,0.21c-0.21,0.14-0.37,0.2-0.54,0.2c-0.16,0.01-0.28-0.04-0.34-0.16
					c-0.07-0.12-0.06-0.25,0.01-0.43c0.08-0.15,0.2-0.29,0.41-0.43l0.27-0.18c0.1-0.07,0.25-0.16,0.4-0.29
					c-0.14-0.25-0.21-0.57-0.21-0.97c0.01-0.39,0.06-0.8,0.2-1.24C117.28,67.52,117.49,67.09,117.8,66.66 M127.17,64.34
					c-0.01-0.16-0.01-0.31-0.01-0.51L125.68,65c-0.54,0.43-1.08,0.85-1.67,1.29c0.37,0.26,0.78,0.43,1.16,0.51
					c0.36,0.09,0.69,0.04,0.97-0.16c0.3-0.2,0.54-0.47,0.71-0.81c0.15-0.33,0.27-0.66,0.31-1.01
					C127.19,64.67,127.18,64.51,127.17,64.34 M120.25,66.12c-0.3,0.02-0.56,0.1-0.78,0.25c-0.29,0.19-0.48,0.4-0.63,0.63
					c-0.17,0.24-0.28,0.49-0.34,0.74c-0.08,0.26-0.09,0.49-0.06,0.73c0.02,0.24,0.09,0.46,0.19,0.64c0.46-0.33,0.96-0.69,1.52-1.1
					l1.69-1.23c-0.15-0.11-0.29-0.22-0.41-0.33c-0.13-0.09-0.29-0.16-0.43-0.22C120.77,66.16,120.53,66.12,120.25,66.12"/>
			</g>
			<path class="st18" d="M79.35,92c0,0,7.22-0.42,15.24-7.53c9.16-8.13,17.21-1.18,14.03,6.49c-3.39,8.19-14.4,7.28-19.69,5.76
			C83.98,95.3,79.35,92,79.35,92z"/>
			<g>
				<path class="st20" d="M72.9,115.75c0,0-6.29-1.49-11.87-6.88c-2.75-2.66-5.88-1.1-6.07,0.4
					C54.59,112.06,58.74,116.29,72.9,115.75z"/>
				<path class="st20" d="M68.7,116.58c0,0-12.13-10.47-7.35-14.2C64.4,100.01,64.85,110.47,68.7,116.58z"/>
			</g>
			<path class="st22" d="M93.53,159.78c-17.46-2.34-33.75-20.9-30.39-42.94c2.71-17.72,20.9-37.55,49.29-29.18
			c1.28,0.38,7.19-4.58,25.55-1.17c13.62,2.53,21.94,14.01,23.93,21.98c3.72,14.98-2.02,31.01-6.48,38.55
			c-10.77,18.22-18.96,14.91-31.67,14.9C111.83,161.92,104.68,161.27,93.53,159.78z"/>
			<path class="st23" d="M93.5,159.25c-16.65-2.21-33.07-21.4-29.83-42.36c2.6-16.85,20.54-35.95,47.93-27.39
			c1.22,0.38,6.88-3.21,24.39,0.01c12.98,2.39,20.34,13.46,22.79,20.87c4.98,15.06,2.96,25.36-1.3,32.53
			c-10.29,17.34-23.04,18.33-35.16,18.34C110.95,161.27,104.13,160.66,93.5,159.25z"/>
			<path class="st24" d="M156.34,145.36c2.27-3.84,4.43-8.55,5.43-15.21c-2.67,5.06-7.72,10.73-20.45,13.3
			c-7.42,1.5-11.08,1.56-14.79,0.88c-6.36-1.16-12.29,9.72-29.13,8.74c-28.93-1.69-33.11-26.42-34.71-30.18
			c0.12,19.3,15,34.76,30.83,36.88c11.14,1.5,18.29,2.34,30.22,2.35C136.46,162.13,145.57,163.58,156.34,145.36z"/>
			<g>
				<g>
					<path class="st27" d="M137.12,97.45c1.12,1.31,2.1,2.72,2.94,4.22"/>
					<path class="st27" d="M136.25,100.31c1.48-1.2,3.53-1.68,5.39-1.27"/>
				</g>
				<path class="st28" d="M133.36,98.68c0.24-1.54,1.62-2.6,3.01-2.87c2.05-0.39,4.27,0.25,5.8,1.67c1.77,1.65,2.38,4.22,2.21,6.56"
					/>
			</g>
			<path class="st25" d="M73.92,138.09c0,0-2.95,5.56-12.23,11.76c-9.84,6.58-3.67,14.52,8.24,13.77
			c10.03-0.63,6.59-15.21,5.95-18.56C75.38,142.49,73.92,138.09,73.92,138.09z"/>
			<path class="st18" d="M74,138.06c0,0-0.98,8.37-10.67,14.03c-9.77,5.71-3.09,12.44,7.3,11.45c9.03-0.86,6.39-12.27,5.91-15.3
			C76.04,145.06,74,138.06,74,138.06z"/>
			<line class="st29" x1="86.64" y1="121.41" x2="86.29" y2="131.43"/>
			<line class="st29" x1="96.35" y1="90.14" x2="93.24" y2="93.69"/>
			<g class="ani-hand">
				<path class="st26" d="M128.32,141.24c0,0-2.03,15.03-18.77,19.39"/>
				<path class="st23" d="M119.87,135.24c0,0-5.7,6.26-24.79,10.28c0,0-1.12,7.73,6.9,9c19.94,3.14,26.58-13.02,26.58-13.02
					l-8.53-5.78"/>
				<path class="st22" d="M119.52,135.48c0,0-15.88,7.25-21.66,7.92c0,0,20.79-1.04,25.6-5.05
					C128.26,134.34,119.52,135.48,119.52,135.48"/>
				<path class="st18" d="M124.16,133.95l2.2,1.75l-0.03,1.14l1.56,0.2l2.2,1.75l-1.39,3.47l-9.17-6.78
					C119.52,135.48,119.74,133.79,124.16,133.95z"/>
			</g>
		</g>
		<g class="ani-foot">
			<path class="st24" d="M120.66,161.11c0,0,31.08,2.58,39.92-3.05l1.2-9.45c0,0-9.34-3.76-17.15-5.33S120.66,161.11,120.66,161.11z
				"/>
			<path class="st18" d="M164.01,156.19l0.3-2.36l-0.69-0.68l0.83-1.04l0.3-2.36l-3.27-1.19l-1.2,9.45
				C160.29,158,161.42,158.9,164.01,156.19z"/>
		</g>
		<g>
			<g class="ani-mouth">
				<path class="st30" d="M97.83,111.88c0,0,7.64,4.91,11.48,0.65c3.85-4.26-5.57-12.54-5.57-12.54L97.83,111.88z"/>
				<path class="st31" d="M101.66,113.65c2.47,0.81,5.6,1.15,7.65-1.12c1.38-1.53,1.04-3.57,0.06-5.56
					C105.14,107.83,102.5,112.07,101.66,113.65z"/>
			</g>
			<path class="st32" d="M99.94,89.1c-0.1-0.77,0.89-1.25,1.41-0.68c1.36,1.48,3.35,4.93,3.07,6.47c-0.47,2.61-2.91,3.18-3.54,3.16
				c-0.63-0.02-1.79-0.97-1.18-1.93s1.44-0.58,1.59-2.26C101.35,93.1,100.08,90.15,99.94,89.1z"/>
			<g class="ani-nose-jump">
				<path class="st33" d="M90.26,114.85c2.64,1.43,6.59,1.8,8.93-0.17c3.27-2.76,2.95-9.48,2.95-9.48s2.79-2.36,3.22-6.58
					c0.25-2.53-1.41-4.86-4.1-5.79c-6.4-2.2-12.96,0.15-15.58,6.02C83.47,103.8,84.42,111.7,90.26,114.85z"/>
				<path class="st34" d="M90.66,114.98c2.3,1.73,6.34,1.72,8.6-0.19c3.15-2.68,3.1-10.17,3.1-10.17s2.26-0.73,2.68-4.82
					c0.25-2.45-0.64-5.09-3.2-6.04c-5.82-2.18-12.46-0.01-15,5.69C84.7,104.24,86.5,111.86,90.66,114.98z"/>
				<g>
					
						<ellipse transform="matrix(0.1737 -0.9848 0.9848 0.1737 -14.5805 177.7319)" class="st35" cx="98.62" cy="97.55" rx="2.16" ry="3.53"/>
					
						<ellipse transform="matrix(0.6755 -0.7374 0.7374 0.6755 -47.1645 104.4726)" class="st35" cx="95.12" cy="105.82" rx="2.5" ry="3.77"/>
				</g>
			</g>
			<path class="st32" d="M89.58,117.67c-0.74,0.35-0.57,1.44,0.24,1.55c2.13,0.29,6.38-0.01,7.57-1.1c2.03-1.85,1.07-4.19,0.68-4.7
				c-0.4-0.51-1.93-0.93-2.42,0.11c-0.5,1.05,0.35,1.52-1.05,2.58C93.96,116.59,90.59,117.2,89.58,117.67z"/>
		</g>
	</g>
</g>
<g>
	<path class="st3" d="M88.77,158.54c1.28-3,6-5.2,11.63-5.18c5.59,0.02,10.32,2.22,11.72,5.19l0.36,0l0.05,1.68
		c0.12,3.79-5.13,6.91-11.78,6.94c-6.71,0.04-12.26-3.07-12.33-6.92l-0.03-1.71L88.77,158.54z"/>
	<path class="st4" d="M88.39,159.02c0.07,3.35,5.61,6.06,12.31,6.03c6.64-0.03,11.89-2.74,11.77-6.04
		c-0.12-3.29-5.52-5.96-12.11-5.99C93.7,153.01,88.32,155.68,88.39,159.02"/>
	<path class="st5" d="M95.83,155.81c0.4-0.18,0.87-0.28,1.4-0.28c0.34,0,0.68,0.04,1.03,0.12c0.3,0.08,0.6,0.22,0.88,0.4
		c0.26,0.19,0.52,0.44,0.74,0.75c0.22,0.32,0.4,0.71,0.58,1.17c0.68-0.04,1.34-0.09,1.97-0.14c0.61-0.04,1.23-0.09,1.86-0.16
		l0.15-0.01c0.02-0.1,0.04-0.22,0.03-0.33l-0.01-0.32c0-0.13-0.03-0.27-0.03-0.4c-0.02-0.13-0.03-0.27-0.03-0.4
		c0-0.1,0.06-0.19,0.18-0.27c0.12-0.06,0.27-0.1,0.48-0.1c0.21,0,0.4,0.05,0.53,0.13c0.13,0.08,0.22,0.18,0.28,0.29
		c0.04,0.13,0.09,0.24,0.11,0.37l0.02,0.85l0.76-0.09c0.21-0.03,0.36-0.04,0.44-0.04c0.17,0,0.34,0.05,0.47,0.14
		c0.13,0.1,0.2,0.2,0.2,0.32c0.01,0.2-0.16,0.33-0.49,0.4c-0.08,0.03-0.25,0.05-0.5,0.08c-0.25,0.04-0.59,0.08-0.99,0.11
		c-0.08,0.3-0.15,0.6-0.25,0.89c-0.12,0.3-0.3,0.57-0.51,0.81c-0.27,0.33-0.64,0.58-1.1,0.76c-0.51,0.18-1.1,0.27-1.78,0.27
		c-0.38,0-0.77-0.05-1.15-0.16c-0.43-0.11-0.73-0.25-0.93-0.43c-0.26-0.2-0.48-0.46-0.64-0.74c-0.16-0.28-0.29-0.56-0.38-0.87
		c-0.68,0.05-1.34,0.08-1.94,0.1c-0.64,0.04-1.2,0.06-1.71,0.08c0.05,0.32,0.19,0.63,0.36,0.91c0.16,0.29,0.42,0.59,0.77,0.89
		c0.07,0.06,0.11,0.12,0.15,0.15c0.04,0.05,0.07,0.09,0.07,0.13c0,0.12-0.08,0.2-0.23,0.28c-0.17,0.08-0.36,0.11-0.58,0.12
		c-0.24,0-0.45-0.08-0.67-0.23c-0.24-0.15-0.48-0.37-0.7-0.65c-0.18-0.22-0.33-0.46-0.44-0.73c-0.13-0.26-0.23-0.54-0.3-0.83
		c-0.17,0.01-0.32,0.01-0.45,0.01l-0.32,0c-0.22,0-0.37-0.04-0.5-0.13c-0.13-0.08-0.2-0.18-0.2-0.31c0-0.13,0.06-0.23,0.19-0.33
		c0.13-0.08,0.28-0.13,0.49-0.13l0.28,0c0.11,0,0.26,0,0.43-0.01c-0.01-0.27,0.07-0.56,0.24-0.88c0.16-0.3,0.37-0.6,0.66-0.88
		C95.07,156.21,95.41,155.98,95.83,155.81 M104.04,158.94c0.06-0.13,0.12-0.25,0.2-0.41l-1.63,0.14c-0.59,0.05-1.19,0.1-1.82,0.14
		c0.18,0.41,0.42,0.75,0.69,1.02c0.24,0.27,0.52,0.39,0.82,0.39c0.32,0,0.61-0.09,0.88-0.27c0.25-0.18,0.48-0.38,0.66-0.64
		C103.92,159.21,103.98,159.08,104.04,158.94 M97.95,156.68c-0.24-0.14-0.47-0.22-0.71-0.22c-0.3,0-0.53,0.06-0.74,0.16
		c-0.23,0.1-0.42,0.24-0.57,0.41c-0.17,0.16-0.27,0.34-0.35,0.55c-0.08,0.2-0.12,0.41-0.11,0.61c0.49-0.01,1.03-0.04,1.62-0.06
		l1.81-0.07c-0.07-0.17-0.13-0.33-0.18-0.48c-0.07-0.14-0.16-0.28-0.24-0.41C98.34,156.98,98.16,156.83,97.95,156.68"/>
	<g>
		<path class="st36" d="M98.69,153.19c0,0,11.5-1.48,7.91,5.92c-2.11,4.35-9.15,5.91-9.15,5.91s-6.12,0.68-6.44-0.84
			C90.69,162.65,98.69,153.19,98.69,153.19z"/>
		<path class="st3" d="M76.82,159.67c0.86-3.34,5.43-6.43,11.3-7.37c5.83-0.94,11.1,0.54,13.02,3.38l0.38-0.06l0.32,1.74
			c0.73,3.92-4.25,8.05-11.17,9.23c-6.99,1.19-13.25-1.09-13.94-5.08l-0.3-1.77L76.82,159.67z"/>
		<path class="st4" d="M76.52,160.35c0.59,3.42,6.78,5.23,13.76,4.05c6.92-1.17,11.96-4.84,11.33-8.19
			c-0.63-3.34-6.67-5.15-13.54-4.04C81.12,153.29,75.93,156.95,76.52,160.35"/>
		<path class="st5" d="M84.3,155.75c0.37-0.24,0.82-0.42,1.35-0.5c0.34-0.05,0.68-0.07,1.04-0.05c0.31,0.03,0.63,0.12,0.93,0.25
			c0.29,0.15,0.58,0.35,0.85,0.62c0.27,0.28,0.5,0.64,0.75,1.06c0.67-0.15,1.31-0.3,1.93-0.46c0.6-0.14,1.2-0.29,1.82-0.46
			l0.14-0.04c0-0.1,0-0.22-0.02-0.33l-0.06-0.31c-0.02-0.12-0.07-0.26-0.09-0.39c-0.04-0.12-0.07-0.26-0.09-0.4
			c-0.02-0.1,0.03-0.2,0.14-0.29c0.11-0.08,0.25-0.14,0.46-0.18c0.21-0.03,0.41-0.02,0.55,0.04c0.14,0.05,0.24,0.14,0.32,0.24
			c0.06,0.12,0.13,0.22,0.17,0.34l0.15,0.83l0.74-0.21c0.21-0.06,0.35-0.1,0.43-0.11c0.17-0.03,0.34,0,0.48,0.06
			c0.14,0.08,0.22,0.17,0.25,0.28c0.04,0.2-0.11,0.35-0.43,0.48c-0.08,0.04-0.24,0.09-0.49,0.16c-0.24,0.08-0.57,0.17-0.96,0.27
			c-0.03,0.31-0.06,0.61-0.11,0.92c-0.07,0.32-0.21,0.61-0.38,0.89c-0.21,0.37-0.55,0.68-0.98,0.93c-0.47,0.26-1.05,0.44-1.72,0.56
			c-0.38,0.06-0.77,0.08-1.17,0.02c-0.44-0.04-0.76-0.13-0.98-0.28c-0.29-0.16-0.54-0.38-0.74-0.63c-0.2-0.25-0.37-0.51-0.51-0.79
			c-0.67,0.16-1.32,0.29-1.91,0.42c-0.63,0.14-1.18,0.26-1.68,0.35c0.1,0.31,0.28,0.59,0.5,0.84c0.2,0.27,0.5,0.51,0.9,0.76
			c0.07,0.05,0.13,0.1,0.18,0.13c0.05,0.04,0.08,0.08,0.09,0.12c0.02,0.11-0.05,0.22-0.18,0.32c-0.16,0.1-0.34,0.17-0.55,0.21
			c-0.23,0.04-0.46,0-0.7-0.12c-0.26-0.11-0.53-0.29-0.79-0.53c-0.21-0.19-0.4-0.4-0.55-0.65c-0.17-0.23-0.31-0.49-0.42-0.77
			c-0.17,0.04-0.32,0.06-0.44,0.09l-0.32,0.05c-0.21,0.04-0.37,0.02-0.51-0.05c-0.14-0.05-0.22-0.15-0.25-0.27
			c-0.02-0.13,0.02-0.24,0.14-0.36c0.11-0.1,0.25-0.17,0.47-0.2l0.28-0.05c0.11-0.02,0.25-0.04,0.42-0.08
			c-0.05-0.26-0.01-0.57,0.11-0.91c0.12-0.33,0.28-0.65,0.53-0.98C83.61,156.27,83.9,155.99,84.3,155.75 M92.91,157.51
			c0.04-0.14,0.08-0.27,0.14-0.43l-1.59,0.4c-0.58,0.15-1.16,0.29-1.79,0.43c0.24,0.37,0.53,0.67,0.83,0.9
			c0.28,0.22,0.58,0.31,0.87,0.26c0.32-0.05,0.59-0.19,0.84-0.41c0.22-0.22,0.42-0.46,0.56-0.74
			C92.83,157.8,92.87,157.66,92.91,157.51 M86.52,156.26c-0.26-0.1-0.5-0.14-0.73-0.1c-0.3,0.05-0.52,0.15-0.71,0.28
			c-0.22,0.14-0.38,0.31-0.5,0.5c-0.14,0.19-0.22,0.38-0.27,0.6c-0.05,0.22-0.06,0.42-0.02,0.62c0.49-0.09,1.01-0.2,1.6-0.33
			l1.79-0.37c-0.09-0.15-0.18-0.31-0.25-0.45c-0.09-0.13-0.2-0.25-0.3-0.36C86.96,156.5,86.76,156.38,86.52,156.26"/>
	</g>
</g>
</svg>
