<svg xmlns="http://www.w3.org/2000/svg" xmlns:xlink="http://www.w3.org/1999/xlink" width="360" height="440" viewBox="0 0 360 440">
    <defs>
        <path id="fgs19eer1a" d="M67.682 8.38C58.91 1.553 31.22.3 9.534 10.621c-21.687 10.322-.686 41.219 7.226 45.707 1.462.643 3.605 1.245 6.181 1.762l.927.178c.157.03.316.058.476.087l.976.167c.165.028.332.055.5.081l1.02.155c.171.026.345.05.519.075l1.058.142.538.067 1.09.128 1.11.118.562.055 1.134.103.571.047 1.152.085 1.161.074 1.168.062c9.558.456 19.542-.333 23.986-3.386 13.904-9.12 15.873-40.884 6.793-47.95z"/>
        <path id="vkbn91sk3b" d="M123.903 73.221c18.988 1.97 31.589-1.013 49.1-5.44 17.511-4.426 26.238.825 36.452-2.73 10.214-3.555 17.422 2.175 26.353-9.766 8.93-11.942 7.626-13.762 3.58-20.513-2.402-4.008-10.458-4.624-8.067-11.633 1.321-3.874 1.321-13.015-1.234-15.277-7.18-6.357-21.263-7.446-32.08-7.86-3.82-.147.686 9.927-4.294 14.77-6.156 5.987-14.463 4.312-20.71 4.493-10.102.293-11.222 9.805-23.118 9.951-.437.006-20.64-7.444-21.053-7.444-7.843 0-11.146 6.591-19.902 5.26-5.268-.8-20.984-2.341-25.542-3.893-14.188-4.831-12.677 3.82-22.86 3.894-8.127.06-16.77-7.768-25.717-7.768-11.343 0-14.59 4.43-20.242 7.768C6.08 32.045 3.169 29.72.459 37.894c-3.082 9.29 9.989 12.564 20.681 17.39 5.68 2.564 10.336 10.22 17.418 12.498 6.948 2.235 35.65-6.284 44.83-5.039 16.496 2.237 21.527 8.51 40.515 10.478z"/>
    </defs>
    <g fill="none" fill-rule="evenodd">
        <g>
            <g>
                <g transform="translate(-8.000000, -40.000000) translate(8.000000, 40.000000) translate(38.612389, 73.429486)">
                    <g>
                        <path stroke="#463938" stroke-width="6" d="M3.694 6.011C8.727 2.096 19.493-.359 32.118.13c10.564.407 22.384 2.8 32.856 7.784 4.643 2.21 7.585 5.254 9.307 8.718 1.936 3.897 2.322 8.389 1.59 13.016-2.017 12.757-12.703 26.325-17.932 29.291-8.738 3.864-38.437 5.958-47.308-.136C3.49 54.082-.984 43.997-2.45 33.657c-.817-5.767-.716-11.554.253-16.358C-1.16 12.17.921 8.17 3.694 6.011zM132.1.13c12.626-.487 23.391 1.967 28.424 5.882 2.773 2.158 4.855 6.158 5.89 11.288.97 4.804 1.07 10.591.253 16.358-1.469 10.366-5.962 20.476-13.133 25.18-8.937 6.051-38.533 3.957-46.983.237-5.501-3.102-16.187-16.67-18.204-29.427-.731-4.627-.346-9.12 1.59-13.016 1.723-3.464 4.664-6.508 9.307-8.718C109.716 2.929 121.536.536 132.1.129z" transform="translate(58.885456, 0.000000)"/>
                        <g>
                            <path fill="#682612" d="M5.537 8.38C14.308 1.553 41.998.3 63.685 10.621c21.687 10.322.686 41.219-7.226 45.707-7.912 3.483-35.785 5.733-44.13 0-13.903-9.12-15.873-40.884-6.792-47.95z" opacity=".948" transform="translate(58.885456, 0.000000)"/>
                            <g transform="translate(58.885456, 0.000000) translate(91.000000, 0.000000)">
                                <use fill="#682612" opacity=".948" xlink:href="#fgs19eer1a"/>
                                <path fill="#FFF" d="M60.533 5.088l12.687 20.77c-.001 2.117-.101 3.981-.3 5.592-.2 1.61-.486 3.392-.857 5.346L51.948 3.446l.266.027.576.065.632.084.338.049.717.11.775.13.83.146.79.147.667.13.897.188.529.12.474.118.42.113.364.11c.112.035.216.07.31.105zM45.688 3.078L60.453 27.007 54.953 27.007 40.147 3.191"/>
                            </g>
                        </g>
                        <path stroke="#463938" stroke-width="12" d="M76.487 23.571c1.644-.666 3.603-1 5.879-1 2.275 0 4.316.334 6.121 1" transform="translate(58.885456, 0.000000)"/>
                    </g>
                    <path fill="#CE935B" d="M142.388 272.57c8.075 0 26.71-5.46 34.157-6.18 12.499-1.21 22.467 1.52 31.059-2.034 5.489-2.271 11.955-1.478 15.5-3.754 7.947-5.104 9.284-13.52 9.284-20.531 0-4.075-8.797-4.624-6.786-11.634 1.112-3.873 1.112-13.014-1.038-15.276-6.04-6.357-17.886-7.447-26.986-7.86-3.213-.147.577 9.927-3.612 14.77-5.178 5.986-12.166 4.312-17.421 4.493-8.811.303-27.384 2.507-37.157 2.507-6.598 0-12.14-5.67-19.505-7-4.432-.801-10.923 3.31-14.757 1.759-11.935-4.832-17.065-19.314-25.63-19.24-6.837.06-19.95 5.64-23.581 9.767-2.9 3.296.202 9.105 0 14.03-.232 5.65-11.116 10.42-11.116 13.684 0 6.005 11.221 9.46 20.216 14.287 4.778 2.564 5.243 7.72 11.2 9.998 5.845 2.235 20.22 4.111 27.942 5.356 13.877 2.238 22.655 2.859 38.23 2.859z"/>
                    <g transform="translate(0.000000, 205.298745)">
                        <mask id="2nt2ywkaec" fill="#fff">
                            <use xlink:href="#vkbn91sk3b"/>
                        </mask>
                        <use fill="#D99B5F" xlink:href="#vkbn91sk3b"/>
                        <path fill="#CE935B" d="M17.653 45.833c0 .923 1.046 3.57 2.77 2.542 1.724-1.026 4.224-2.873 6.107-1.95 1.883.924 1.629 1.064 1.629 2.806s-.46 3.1-1.629 4.333c-1.17 1.233-3.496 1.197-6.107 0-2.612-1.197-7.962-.124-7.387-1.233.576-1.109 1.05-3.956 1.05-3.956s-.32-2.367-1.05-4.981c-.729-2.614-7.473.238-6.157 3.031 1.315 2.794-2.045 6.183.432 7.58 2.476 1.397.495 3.922 6.775 5.108 6.28 1.185 7.443 1.535 8.95 2.204 1.506.668 2.056.915 5.799-1.444 3.742-2.358 3.546-1.253 5.715-7.056 2.168-5.802 5.497-7.94-.904-10.488-6.402-2.546-8.647-4.144-10.61-3.345-1.964.799-4.612.964-4.612 3.345 0 2.382-.771 2.58-.771 3.504zM153.653 29.833c0 .923 1.046 3.57 2.77 2.542 1.724-1.026 4.224-2.873 6.107-1.95 1.883.924 1.629 1.064 1.629 2.806s-.46 3.1-1.629 4.333c-1.17 1.233-3.496 1.197-6.107 0-2.612-1.197-7.962-.124-7.387-1.233.576-1.109 1.05-3.956 1.05-3.956s-.32-2.367-1.05-4.981c-.729-2.614-7.473.238-6.157 3.031 1.315 2.794-2.045 6.183.432 7.58 2.476 1.397.495 3.922 6.775 5.108 6.28 1.185 7.443 1.535 8.95 2.204 1.506.668 2.056.915 5.799-1.444 3.742-2.358 3.546-1.253 5.715-7.056 2.168-5.802 5.497-7.94-.904-10.488-6.402-2.546-8.647-4.144-10.61-3.345-1.964.799-4.612.964-4.612 3.345 0 2.382-.771 2.58-.771 3.504z" mask="url(#2nt2ywkaec)"/>
                        <path fill="#CE935B" d="M92.653 31.833c0 .923 1.046 3.57 2.77 2.542 1.724-1.026 4.224-2.873 6.107-1.95 1.883.924 1.629 1.064 1.629 2.806s-.46 3.1-1.629 4.333c-1.17 1.233-3.496 1.197-6.107 0-2.612-1.197-7.962-.124-7.387-1.233.576-1.109 1.05-3.956 1.05-3.956s-.32-2.367-1.05-4.981c-.729-2.614-7.473.238-6.157 3.031 1.315 2.794-2.045 6.183.432 7.58 2.476 1.397.495 3.922 6.775 5.108 6.28 1.185 7.443 1.535 8.95 2.204 1.506.668 2.056.915 5.799-1.444 3.742-2.358 3.546-1.253 5.715-7.056 2.168-5.802 5.497-7.94-.904-10.488-6.402-2.546-8.647-4.144-10.61-3.345-1.964.799-4.612.964-4.612 3.345 0 2.382-.771 2.58-.771 3.504z" mask="url(#2nt2ywkaec)" transform="translate(96.872242, 36.276868) scale(1, -1) translate(-96.872242, -36.276868)"/>
                        <path fill="#CE935B" d="M212.71 55.992c0 .683.773 2.638 2.047 1.88 1.275-.76 3.123-2.124 4.515-1.442 1.391.683 1.203.786 1.203 2.074 0 1.287-.339 2.291-1.203 3.202-.865.912-2.584.886-4.515 0-1.93-.885-5.885-.091-5.46-.91.426-.82.777-2.925.777-2.925s-.237-1.75-.776-3.681c-.539-1.932-5.524.175-4.551 2.24.972 2.065-1.511 4.57.319 5.602 1.83 1.033.366 2.9 5.008 3.776 4.642.876 5.5 1.135 6.614 1.629 1.114.494 1.52.676 4.287-1.067 2.766-1.743 2.621-.927 4.224-5.215 1.603-4.29 4.063-5.87-.668-7.752-4.732-1.883-6.391-3.064-7.843-2.473-1.45.59-3.408.713-3.408 2.473 0 1.76-.57 1.907-.57 2.59z" mask="url(#2nt2ywkaec)" transform="translate(215.828764, 59.276868) scale(-1, -1) translate(-215.828764, -59.276868)"/>
                        <g fill="#CE935B" mask="url(#2nt2ywkaec)">
                            <g>
                                <path d="M14.759 5.2c0 1.222-.311 2.174-1.104 3.04-.792.864-2.368.839-4.137 0-1.769-.84-5.394-.088-5.004-.866.39-.777.712-2.774.712-2.774s-.218-1.661-.712-3.495C4.021-.728-.548 1.272.343 3.232c.891 1.96-1.385 4.336.293 5.316 1.677.98.335 2.752 4.59 3.583 4.254.832 5.041 1.077 6.062 1.546 1.02.469 1.393.642 3.929-1.012 2.535-1.655 2.402-.88 3.87-4.95 1.47-4.07 3.725-5.57-.611-7.356-4.337-1.787-3.717 3.619-3.717 4.84z" transform="translate(57.387611, 48.271769)"/>
                                <path d="M8.856.285c1.648-.341 3.087.2 4.122-.2 1.035-.4 2.214.717 1.996 1.268-.218.55-.237 1.733-1.116 1.733-.88 0-.68-.645-2.092-.47C10.353 2.793 10.554 4 10.353 4c-.201 0-1.904-.022-1.904-1.095 0-1.072-1.242-2.279.407-2.62z" transform="translate(57.387611, 48.271769)"/>
                            </g>
                        </g>
                        <g fill="#CE935B" mask="url(#2nt2ywkaec)">
                            <g>
                                <path d="M14.759 5.2c0 1.222-.311 2.174-1.104 3.04-.792.864-2.368.839-4.137 0-1.769-.84-5.394-.088-5.004-.866.39-.777.712-2.774.712-2.774s-.218-1.661-.712-3.495C4.021-.728-.548 1.272.343 3.232c.891 1.96-1.385 4.336.293 5.316 1.677.98.335 2.752 4.59 3.583 4.254.832 5.041 1.077 6.062 1.546 1.02.469 1.393.642 3.929-1.012 2.535-1.655 2.402-.88 3.87-4.95 1.47-4.07 3.725-5.57-.611-7.356-4.337-1.787-3.717 3.619-3.717 4.84z" transform="translate(183.387611, 41.271769)"/>
                                <path d="M8.856.285c1.648-.341 3.087.2 4.122-.2 1.035-.4 2.214.717 1.996 1.268-.218.55-.237 1.733-1.116 1.733-.88 0-.68-.645-2.092-.47C10.353 2.793 10.554 4 10.353 4c-.201 0-1.904-.022-1.904-1.095 0-1.072-1.242-2.279.407-2.62z" transform="translate(183.387611, 41.271769)"/>
                            </g>
                        </g>
                        <g fill="#CE935B" mask="url(#2nt2ywkaec)">
                            <g>
                                <path d="M76.759 5.2c0 1.222-.311 2.174-1.104 3.04-.792.864-2.368.839-4.137 0-1.769-.84-5.394-.088-5.004-.866.39-.777.712-2.774.712-2.774s-.218-1.661-.712-3.495c-.493-1.833-5.062.167-4.171 2.127.891 1.96-1.385 4.336.293 5.316 1.677.98.335 2.752 4.59 3.583 4.254.832 5.041 1.077 6.062 1.546 1.02.469 1.393.642 3.929-1.012 2.535-1.655 2.402-.88 3.87-4.95 1.47-4.07 3.725-5.57-.611-7.356-4.337-1.787-3.717 3.619-3.717 4.84z" transform="translate(153.387611, 24.271769)"/>
                                <path d="M14.759 39.2c0 1.222-.311 2.174-1.104 3.04-.792.864-2.368.839-4.137 0-1.769-.84-5.394-.088-5.004-.866.39-.777.712-2.774.712-2.774s-.218-1.661-.712-3.495c-.493-1.833-5.062.167-4.171 2.127.891 1.96-1.385 4.336.293 5.316 1.677.98.335 2.752 4.59 3.583 4.254.832 5.041 1.077 6.062 1.546 1.02.469 1.393.642 3.929-1.012 2.535-1.655 2.402-.88 3.87-4.95 1.47-4.07 3.725-5.57-.611-7.356-4.337-1.787-3.717 3.619-3.717 4.84z" transform="translate(153.387611, 24.271769) translate(10.500000, 41.000000) scale(-1, -1) translate(-10.500000, -41.000000)"/>
                                <path d="M70.856.285c1.648-.341 3.087.2 4.122-.2 1.035-.4 2.214.717 1.996 1.268-.218.55-.237 1.733-1.116 1.733-.88 0-.68-.645-2.092-.47C72.353 2.793 72.554 4 72.353 4c-.201 0-1.904-.022-1.904-1.095 0-1.072-1.242-2.279.407-2.62z" transform="translate(153.387611, 24.271769)"/>
                            </g>
                        </g>
                        <g fill="#CE935B" mask="url(#2nt2ywkaec)">
                            <g>
                                <path d="M27.409 9.656c0 2.27-.577 4.039-2.049 5.645-1.472 1.606-4.398 1.56-7.683 0-3.286-1.56-10.017-.162-9.293-1.606.724-1.444 1.32-5.153 1.32-5.153s-.403-3.084-1.32-6.49c-.917-3.404-9.402.31-7.747 3.95 1.655 3.639-2.572 8.053.544 9.874 3.115 1.82.623 5.109 8.524 6.653 7.9 1.545 9.363 2 11.258 2.872 1.896.87 2.588 1.192 7.296-1.88 4.709-3.073 4.462-1.634 7.19-9.193C38.177 6.77 42.365 3.983 34.312.666c-8.054-3.318-6.903 6.721-6.903 8.99z" transform="translate(211.887611, 6.271769) scale(1, -1) translate(-211.887611, -6.271769) translate(192.387611, -6.728231)"/>
                                <path d="M16.589.498c3.062-.597 5.734.35 7.656-.35 1.922-.7 4.11 1.256 3.706 2.219-.404.963-.439 3.033-2.072 3.033-1.634 0-1.262-1.129-3.886-.821C19.37 4.887 19.743 7 19.37 7c-.374 0-3.537-.039-3.537-1.915 0-1.877-2.306-3.99.756-4.587z" transform="translate(211.887611, 6.271769) scale(1, -1) translate(-211.887611, -6.271769) translate(192.387611, -6.728231)"/>
                            </g>
                        </g>
                        <g fill="#CE935B" mask="url(#2nt2ywkaec)">
                            <g>
                                <path d="M23.192 8.17c0 1.921-.488 3.418-1.734 4.777-1.245 1.36-3.721 1.32-6.501 0-2.78-1.32-8.476-.137-7.863-1.359.613-1.222 1.118-4.36 1.118-4.36s-.342-2.61-1.118-5.491S-.862 1.999.54 5.078c1.4 3.08-2.176 6.815.46 8.355s.527 4.324 7.213 5.63c6.685 1.307 7.922 1.693 9.526 2.43 1.604.736 2.19 1.009 6.174-1.591 3.984-2.6 3.775-1.382 6.083-7.778 2.308-6.396 5.853-8.753-.962-11.56-6.814-2.808-5.84 5.687-5.84 7.607z" transform="translate(118.887611, 61.271769) scale(-1, -1) translate(-118.887611, -61.271769) translate(102.387611, 50.271769)"/>
                                <path d="M14.344.427c2.592-.511 4.852.3 6.479-.3 1.626-.6 3.478 1.077 3.136 1.902-.343.825-.372 2.6-1.754 2.6-1.382 0-1.068-.968-3.288-.704C16.697 4.189 17.014 6 16.697 6c-.316 0-2.992-.033-2.992-1.642 0-1.608-1.952-3.419.64-3.93z" transform="translate(118.887611, 61.271769) scale(-1, -1) translate(-118.887611, -61.271769) translate(102.387611, 50.271769)"/>
                            </g>
                        </g>
                        <g fill="#CE935B" mask="url(#2nt2ywkaec)">
                            <g>
                                <path d="M23.192 8.17c0 1.921-.488 3.418-1.734 4.777-1.245 1.36-3.721 1.32-6.501 0-2.78-1.32-8.476-.137-7.863-1.359.613-1.222 1.118-4.36 1.118-4.36s-.342-2.61-1.118-5.491S-.862 1.999.54 5.078c1.4 3.08-2.176 6.815.46 8.355s.527 4.324 7.213 5.63c6.685 1.307 7.922 1.693 9.526 2.43 1.604.736 2.19 1.009 6.174-1.591 3.984-2.6 3.775-1.382 6.083-7.778 2.308-6.396 5.853-8.753-.962-11.56-6.814-2.808-5.84 5.687-5.84 7.607z" transform="translate(254.887611, 45.271769) scale(-1, -1) translate(-254.887611, -45.271769) translate(238.387611, 34.271769)"/>
                                <path d="M14.344.427c2.592-.511 4.852.3 6.479-.3 1.626-.6 3.478 1.077 3.136 1.902-.343.825-.372 2.6-1.754 2.6-1.382 0-1.068-.968-3.288-.704C16.697 4.189 17.014 6 16.697 6c-.316 0-2.992-.033-2.992-1.642 0-1.608-1.952-3.419.64-3.93z" transform="translate(254.887611, 45.271769) scale(-1, -1) translate(-254.887611, -45.271769) translate(238.387611, 34.271769)"/>
                            </g>
                        </g>
                        <path fill="#CE935B" d="M46.239 26.072c0 .562.636 2.172 1.686 1.547 1.05-.625 2.571-1.748 3.717-1.186 1.146.561.992.647.992 1.707s-.28 1.887-.992 2.638c-.712.75-2.128.729-3.717 0-1.59-.73-4.847-.076-4.496-.75.35-.676.639-2.409.639-2.409s-.196-1.44-.64-3.032c-.443-1.59-4.549.145-3.748 1.846.801 1.7-1.244 3.763.263 4.613 1.508.85.302 2.388 4.125 3.11 3.822.72 4.53.934 5.447 1.34.917.408 1.252.558 3.53-.878 2.278-1.435 2.159-.763 3.479-4.295 1.32-3.532 3.346-4.834-.55-6.384-3.897-1.55-5.264-2.522-6.459-2.036-1.195.486-2.807.587-2.807 2.036 0 1.45-.47 1.57-.47 2.133z" mask="url(#2nt2ywkaec)" transform="translate(48.807025, 28.776868) scale(-1, -1) translate(-48.807025, -28.776868)"/>
                    </g>
                    <circle cx="52.888" cy="129.071" r="4.5" fill="#FEC602"/>
                    <circle cx="225.888" cy="129.071" r="4.5" fill="#FEC602"/>
                </g>
            </g>
        </g>
    </g>
</svg>
