<svg xmlns="http://www.w3.org/2000/svg" width="360" height="440" viewBox="0 0 360 440">
    <defs>
        <filter id="n0qnpt5a4a" color-interpolation-filters="auto">
            <feColorMatrix in="SourceGraphic" values="0 0 0 0 1.000000 0 0 0 0 0.384314 0 0 0 0 0.368627 0 0 0 1.000000 0"/>
        </filter>
        <filter id="004ukxs8nb" color-interpolation-filters="auto">
            <feColorMatrix in="SourceGraphic" values="0 0 0 0 1.000000 0 0 0 0 0.384314 0 0 0 0 0.368627 0 0 0 1.000000 0"/>
        </filter>
        <filter id="rzjw1om5qc" color-interpolation-filters="auto">
            <feColorMatrix in="SourceGraphic" values="0 0 0 0 1.000000 0 0 0 0 0.384314 0 0 0 0 0.368627 0 0 0 1.000000 0"/>
        </filter>
    </defs>
    <g fill="none" fill-rule="evenodd">
        <g>
            <g>
                <g>
                    <path fill="#324148" d="M107.996 21.527L110.996 21.527 110.996 52.527 104.571 52.83z" transform="translate(-8 -40) translate(8 40) translate(103.244 234.208) rotate(-26 107.783 37.179)"/>
                    <path fill="#324148" d="M135.576 -9.639L138.576 -9.639 141.492 20.793 135.576 21.361z" transform="translate(-8 -40) translate(8 40) translate(103.244 234.208) rotate(-79 138.534 5.86)"/>
                    <g filter="url(#n0qnpt5a4a)" transform="translate(-8 -40) translate(8 40) translate(103.244 234.208) translate(108.014 9.266)">
                        <g>
                            <g fill="#FF625E" fill-rule="nonzero">
                                <path d="M8.635 1.455c1.95-1.938 5.115-1.94 7.068-.004 1.954 1.935 1.26 4.906.005 7.014-1.255 2.108-5.698 6.575-7.243 6.577l-.001-2.297v-.195l-.001-3.266v-.307l-.001-3.51V2.087l-.001.45v3.697l-.001.371-.001 3.553v.275l-.001 3.17v1.44c-1.546-.002-5.988-4.469-7.244-6.577C-.04 6.357-.734 3.386 1.22 1.451c1.953-1.936 5.117-1.934 7.068.004l.174.173.174-.173z" transform="rotate(29 9.5 9.5) translate(1.039 2.375)"/>
                            </g>
                        </g>
                    </g>
                    <g filter="url(#004ukxs8nb)" transform="translate(-8 -40) translate(8 40) translate(103.244 234.208) translate(126.17 14.927)">
                        <g>
                            <g fill="#FF625E" fill-rule="nonzero">
                                <path d="M13.805 2.926v3.839l-.001.484v3.63l-.001.423-.001 3.513v3.559l-.001.283-.001 3.27v.183l-.001 2.268V24.542c-2.522-.002-9.77-7.291-11.817-10.73-2.048-3.44-3.18-8.287.007-11.445 3.186-3.159 8.35-3.156 11.532.007l.284.282.284-.282c3.183-3.163 8.346-3.166 11.532-.007 3.187 3.158 2.055 8.005.008 11.445-2.048 3.439-9.296 10.728-11.818 10.73v-.214-.057l-.001-2.345v-3.269l-.001-.283-.001-3.56v-3.512l-.001-.424V7.25l-.001-.484-.001-3.84z" transform="rotate(29 15.5 15.5) translate(1.695 3.875)"/>
                            </g>
                        </g>
                    </g>
                    <g filter="url(#rzjw1om5qc)" transform="translate(-8 -40) translate(8 40) translate(103.244 234.208) translate(154.639 26.117)">
                        <g>
                            <g fill="#FF625E" fill-rule="nonzero">
                                <path d="M17.367 6.192v3.73l-.001.508v3.381l-.001.458-.001 3.842v.396l-.001 3.281v3.325l-.001.265-.001 3.054v.171l-.001 2.12v.152c-3.172-.003-12.29-9.172-14.867-13.5-2.577-4.326-4-10.424.009-14.397C6.51-.996 13.006-.992 17.01 2.986l.358.355.357-.355c4.004-3.978 10.5-3.982 14.508-.008 4.01 3.973 2.586 10.07.01 14.398-2.577 4.327-11.695 13.496-14.868 13.499v-.449-.078l-.001-2.468v-.196l-.001-3.12v-.283l-.001-3.178v-.352l-.001-3.45v-.414l-.001-3.54v-.47l-.001-3.469V5.635l-.001-.564z" transform="rotate(29 19.5 19.5) translate(2.132 4.875)"/>
                            </g>
                        </g>
                    </g>
                    <g>
                        <path fill="#C3CFD5" d="M19.756 0L15.877 1.862 11.75 11.402 19.756 19.715z" transform="translate(-8 -40) translate(8 40) translate(103.244 234.208) translate(0 49.637)"/>
                        <path fill="#FFF" d="M15.877 1.862C8.73 8.302 3.439 14.252 0 19.715 10.04 44.072 18.93 66.018 26.67 85.55c.406 1.027 1.569 1.53 2.596 1.123.223-.089.429-.217.607-.378l41.497-37.64c-21.135-13.343-35.231-22.99-42.288-28.94-7.056-5.95-11.458-11.902-13.205-17.853z" transform="translate(-8 -40) translate(8 40) translate(103.244 234.208) translate(0 49.637)"/>
                    </g>
                    <g>
                        <path fill="#C3CFD5" d="M19.512 0L15.633 1.862 11.506 11.402 19.512 19.715z" transform="translate(-8 -40) translate(8 40) translate(103.244 234.208) matrix(-1 0 0 1 152.125 49.637)"/>
                        <path fill="#FFF" d="M15.877 2.155C8.73 8.595 3.439 14.546 0 20.008c10.052 24.388 19.257 46.358 27.615 65.909.434 1.016 1.61 1.487 2.625 1.053.211-.09.406-.217.574-.373L71.37 48.948c-21.135-13.343-35.231-22.99-42.288-28.94-7.056-5.95-11.458-11.901-13.205-17.853z" transform="translate(-8 -40) translate(8 40) translate(103.244 234.208) matrix(-1 0 0 1 152.125 49.637)"/>
                    </g>
                    <g transform="translate(-8 -40) translate(8 40) translate(103.244 234.208) translate(33.756 87.792)">
                        <g>
                            <path fill="#FF625E" d="M6.033 1.452L30.485 7.34c3.235.779 5.515 3.673 5.515 7v10.322c0 3.327-2.28 6.221-5.515 7L5.88 37.584c-1.546.373-3.101-.58-3.474-2.126-.152-.632-.085-1.298.189-1.888 3.538-7.606 5.306-12.435 5.306-14.488 0-2.018-1.71-6.54-5.132-13.57-.696-1.43-.101-3.153 1.33-3.85.6-.292 1.284-.366 1.934-.21z"/>
                            <path fill="#F72F2A" d="M14.993 20.636l16.827 1.622c.739.072 1.302.692 1.302 1.434v.391c0 .74-.563 1.36-1.3 1.433l-16.728 1.646c-.462.045-.874-.292-.92-.754-.03-.32.123-.63.397-.798l.993-.612c.678-.417.889-1.304.472-1.981-.13-.213-.315-.387-.533-.508l-.93-.51c-.353-.194-.482-.636-.288-.989.14-.255.418-.402.708-.374z" transform="rotate(-9 22.296 23.907)"/>
                            <path fill="#F72F2A" d="M14.992 13.407l16.829 1.638c.737.072 1.3.692 1.3 1.433v.39c0 .742-.562 1.362-1.3 1.434l-16.727 1.631c-.462.045-.873-.293-.918-.755-.031-.32.123-.63.396-.798l.992-.61c.677-.416.889-1.303.472-1.98-.13-.213-.314-.388-.533-.508l-.932-.513c-.352-.193-.481-.636-.287-.988.14-.255.418-.402.708-.374z" transform="rotate(8 22.296 16.675)"/>
                        </g>
                        <g>
                            <path fill="#FF625E" d="M6.033 1.452L30.485 7.34c3.235.779 5.515 3.673 5.515 7v10.322c0 3.327-2.28 6.221-5.515 7L5.88 37.584c-1.546.373-3.101-.58-3.474-2.126-.152-.632-.085-1.298.189-1.888 3.538-7.606 5.306-12.435 5.306-14.488 0-2.018-1.71-6.54-5.132-13.57-.696-1.43-.101-3.153 1.33-3.85.6-.292 1.284-.366 1.934-.21z" transform="matrix(-1 0 0 1 85 0)"/>
                            <path fill="#F72F2A" d="M14.993 20.636l16.827 1.622c.739.072 1.302.692 1.302 1.434v.391c0 .74-.563 1.36-1.3 1.433l-16.728 1.646c-.462.045-.874-.292-.92-.754-.03-.32.123-.63.397-.798l.993-.612c.678-.417.889-1.304.472-1.981-.13-.213-.315-.387-.533-.508l-.93-.51c-.353-.194-.482-.636-.288-.989.14-.255.418-.402.708-.374z" transform="matrix(-1 0 0 1 85 0) rotate(-9 22.296 23.907)"/>
                            <path fill="#F72F2A" d="M14.992 13.407l16.829 1.638c.737.072 1.3.692 1.3 1.433v.39c0 .742-.562 1.362-1.3 1.434l-16.727 1.631c-.462.045-.873-.293-.918-.755-.031-.32.123-.63.396-.798l.992-.61c.677-.416.889-1.303.472-1.98-.13-.213-.314-.388-.533-.508l-.932-.513c-.352-.193-.481-.636-.287-.988.14-.255.418-.402.708-.374z" transform="matrix(-1 0 0 1 85 0) rotate(8 22.296 16.675)"/>
                        </g>
                        <rect width="17" height="17" x="34" y="11" fill="#FF625E" rx="6"/>
                    </g>
                </g>
            </g>
        </g>
    </g>
</svg>
