<svg xmlns="http://www.w3.org/2000/svg" width="360" height="440" viewBox="0 0 360 440">
    <defs>
        <filter id="mzpdg5oqwa" color-interpolation-filters="auto">
            <feColorMatrix in="SourceGraphic" values="0 0 0 0 0.196078 0 0 0 0 0.254902 0 0 0 0 0.282353 0 0 0 1.000000 0"/>
        </filter>
        <filter id="m2fp8nv2vb" color-interpolation-filters="auto">
            <feColorMatrix in="SourceGraphic" values="0 0 0 0 0.196078 0 0 0 0 0.254902 0 0 0 0 0.282353 0 0 0 1.000000 0"/>
        </filter>
    </defs>
    <g fill="none" fill-rule="evenodd">
        <g>
            <g>
                <g>
                    <g>
                        <path fill="#E1A46A" d="M33.25 2.338L221.954.104v160.057l-193.11-5.005V6.797c0-2.442 1.964-4.43 4.406-4.459z" transform="translate(-8 -40) translate(8 40) rotate(-180 161.997 83.005) rotate(-179 138.816 81.305)"/>
                        <path fill="#CE935B" d="M6.96 133.721l181.689 4.139c1.886.043 3.71.683 5.21 1.828l26.675 20.37-191.69-4.902-23.27-17.421c-.986-.738-1.187-2.135-.45-3.121.432-.577 1.116-.91 1.836-.893zM220.534 0l23.576 3.308c4.403.618 7.68 4.385 7.68 8.832v147.917h-31.256V0z" transform="translate(-8 -40) translate(8 40) rotate(-180 161.997 83.005) rotate(-179 138.816 81.305)"/>
                        <path fill="#E1A46A" d="M243.31 142.44h26.323c1.232 0 2.23.998 2.23 2.23 0 .695-.324 1.35-.877 1.772l-18.072 13.782h-32.492l16.865-15.443c1.645-1.506 3.794-2.341 6.023-2.341z" transform="translate(-8 -40) translate(8 40) rotate(-180 161.997 83.005) rotate(-179 138.816 81.305)"/>
                    </g>
                    <g filter="url(#mzpdg5oqwa)" transform="translate(-8 -40) translate(8 40) rotate(-180 161.997 83.005)">
                        <g fill="#324148" fill-rule="nonzero" transform="translate(79.441 82.921)">
                            <path d="M41.022 36.528V18.896h3.702c.698 0 1.264-.566 1.264-1.264 0-.216-.056-.43-.162-.618L37.38 1.964c-.342-.61-1.112-.826-1.72-.484-.203.113-.37.28-.484.483l-8.446 15.05c-.342.61-.125 1.38.483 1.721.189.106.402.162.618.162h3.703v17.632c0 .698.566 1.263 1.263 1.263h6.962c.697 0 1.263-.565 1.263-1.263zM17.58 36.528V18.896h3.703c.698 0 1.264-.566 1.264-1.264 0-.216-.056-.43-.162-.618L13.94 1.964c-.342-.61-1.112-.826-1.72-.484-.203.113-.37.28-.484.483l-8.446 15.05c-.342.61-.125 1.38.483 1.721.189.106.402.162.618.162h3.703v17.632c0 .698.565 1.263 1.263 1.263h6.961c.698 0 1.264-.565 1.264-1.263z"/>
                            <rect width="49.115" height="8.151" y="40.755" rx="1.09"/>
                        </g>
                    </g>
                    <g filter="url(#m2fp8nv2vb)" transform="translate(-8 -40) translate(8 40) rotate(-180 161.997 83.005)">
                        <g fill="#324148">
                            <path fill-rule="nonzero" d="M10.536 29.655c-3.035-2.098-5.801 1.995-3.439 4.114 3.548 2.815 5.686 4.504 6.413 5.068.626.486 1.321 1.001.902 1.618-.42.617-1.016.17-1.818-.439L6.167 34.69c-1.75-1.301-1.89-4.17-.489-5.34V19.324c0-3.379-5.678-3.379-5.678 0v14.845c0 1.123.492 2.19 1.346 2.92l10.585 9.042v1.815c0 .53.43.96.96.96h7.221c.53 0 .96-.43.96-.96v-7.765c-.076-1.779-.782-3.476-2.13-4.482-1.258-.938-6.913-5.01-8.406-6.044z" transform="translate(141.95 82.921)"/>
                            <path fill-rule="nonzero" d="M37.462 29.655c-3.035-2.098-5.801 1.995-3.439 4.114 3.548 2.815 5.686 4.504 6.413 5.068.626.486 1.321 1.001.902 1.618-.42.617-1.016.17-1.818-.439l-6.427-5.327c-1.75-1.301-1.89-4.17-.489-5.34V19.324c0-3.379-5.678-3.379-5.678 0v14.845c0 1.123.492 2.19 1.346 2.92l10.585 9.042v1.815c0 .53.43.96.96.96h7.221c.53 0 .96-.43.96-.96v-7.765c-.076-1.779-.782-3.476-2.13-4.482-1.258-.938-6.913-5.01-8.406-6.044z" transform="translate(141.95 82.921) matrix(-1 0 0 1 74.925 0)"/>
                            <g>
                                <path d="M15.804 0C24.533 0 31.61 7.038 31.61 15.72s-7.076 15.72-15.805 15.72C7.076 31.44 0 24.402 0 15.72S7.076 0 15.804 0zm2.669 12.862h-5.337c-.859 0-1.564.66-1.636 1.5l-.006.142v5.29c0 .86.66 1.564 1.5 1.636l.142.006h5.337c.859 0 1.564-.66 1.636-1.5l.006-.142v-5.29c0-.907-.735-1.642-1.642-1.642zm5.602-3.485c-.987 0-1.786.96-1.786 2.144 0 1.184.8 2.143 1.786 2.143.987 0 1.787-.96 1.787-2.143 0-1.184-.8-2.144-1.787-2.144zm-16.537 0c-.987 0-1.787.96-1.787 2.144 0 1.184.8 2.143 1.787 2.143.987 0 1.787-.96 1.787-2.143 0-1.184-.8-2.144-1.787-2.144z" transform="translate(141.95 82.921) matrix(-1 0 0 1 39.804 0)"/>
                            </g>
                        </g>
                    </g>
                </g>
            </g>
        </g>
    </g>
</svg>
