<svg xmlns="http://www.w3.org/2000/svg" xmlns:xlink="http://www.w3.org/1999/xlink" width="360" height="440" viewBox="0 0 360 440">
    <defs>
        <path id="xa0ixw4jqa" d="M11.538 2.64l148.648 34.022c.67.154 1.09.822.937 1.493-.071.31-.258.58-.522.757l-31.46 21.055L10.735 4.985c-.624-.29-.895-1.03-.605-1.655.247-.533.834-.82 1.408-.69z"/>
        <path id="qvq3mk1juc" d="M128.518 62.395v34.009c0 .688-.557 1.246-1.245 1.246-.275 0-.542-.091-.76-.259L9.64 7.421c-.545-.42-.647-1.202-.227-1.747.36-.468 1-.619 1.531-.36l117.574 57.081z"/>
        <path id="5269gq26je" d="M3.194 5.115l66.698 106.833c.364.584 1.133.762 1.716.397.063-.039.121-.083.176-.132l39.195-35.428L4.96 3.431c-.566-.391-1.342-.25-1.733.316-.283.409-.296.946-.032 1.368z"/>
    </defs>
    <g fill="none" fill-rule="evenodd">
        <g>
            <g>
                <g>
                    <g>
                        <g transform="translate(-8 -40) translate(8 36.959) translate(146.008) rotate(-9 161.997 12.75) translate(0 2.428)">
                            <mask id="76fatlqr7b" fill="#fff">
                                <use xlink:href="#xa0ixw4jqa"/>
                            </mask>
                            <use fill="#FFF" xlink:href="#xa0ixw4jqa"/>
                            <g mask="url(#76fatlqr7b)">
                                <g transform="rotate(144 70.699 40.932)">
                                    <g>
                                        <g fill="#C3CFD5" fill-rule="nonzero">
                                            <g>
                                                <path d="M14.102 35.798c.4.109.795.102 1.183-.02.388-.123.732-.34 1.033-.654.3-.313.488-.687.563-1.123.075-.408.106-.87.094-1.388-.013-.517-.019-.416-.019-.797.952-.245 1.853-.572 2.704-.98.852-.409 1.653-.967 2.404-1.674.5-.463.895-1.055 1.183-1.776.288-.722.463-1.477.526-2.267.063-.789.006-1.565-.169-2.327-.175-.762-.476-1.415-.901-1.96-.777-.98-1.647-1.728-2.61-2.246-.965-.517-1.998-1.007-3.1-1.47.026-.898.038-1.864.038-2.898v-2.9c.3.11.595.232.883.368.288.136.576.265.864.388.288.122.582.21.882.265.3.055.614.055.94 0 .55-.109.957-.32 1.22-.633s.407-.66.432-1.04c.025-.382-.056-.783-.244-1.205-.188-.422-.457-.796-.808-1.123-.55-.544-1.202-.953-1.953-1.225-.751-.272-1.477-.504-2.178-.694-.075-1.515-.188-2.472-.338-2.871-.15-.381-.357-.687-.62-.919-.263-.231-.545-.388-.845-.47-.3-.081-.614-.074-.939.021-.326.095-.613.306-.864.633-.225.272-.394.585-.507.94-.113.353-.188.72-.225 1.102-.025.254-.044.72-.057 1.4-.926.164-1.853.552-2.779 1.164-.926.613-1.703 1.361-2.329 2.246-.626.885-1.02 1.85-1.183 2.899-.162 1.048.044 2.103.62 3.164.626 1.144 1.452 2.055 2.479 2.736 1.026.68 2.078 1.293 3.155 1.837 0 .953-.006 1.98-.019 3.083l-.008.813c-.007.799-.01 1.555-.01 2.27-.126-.055-.276-.13-.451-.225-.176-.095-.326-.183-.451-.265-.225-.163-.445-.354-.657-.572-.213-.217-.432-.435-.658-.653-.225-.218-.457-.408-.695-.572-.237-.163-.507-.258-.807-.285-.55-.082-1.002-.007-1.352.224-.35.231-.614.545-.789.94-.175.394-.244.83-.206 1.306.037.476.169.918.394 1.327.726.953 1.565 1.77 2.516 2.45.952.68 1.99 1.17 3.118 1.47 0 .626-.007.756-.02 1.49-.012.736.17 1.376.546 1.92.275.408.613.667 1.014.776zm-1.465-20.56c-.45-.326-.808-.605-1.07-.837-.264-.231-.47-.442-.62-.633-.15-.19-.456-.746-.393-1.166.062-.42.324-.657.637-.957.313-.3.795-.449 1.446-.449v4.042zm4.32 11.841c0-.707.005-1.483.018-2.327l.008-.62c.007-.608.01-1.177.01-1.707.577.326 1.065.667 1.465 1.02.401.354.664.722.79 1.103.124.38.074.762-.151 1.143-.225.381-.701.749-1.427 1.103-.125.054-.244.102-.357.142-.113.041-.232.089-.357.143z" transform="translate(26.224 18.396) rotate(-25 15.064 18.989)"/>
                                            </g>
                                        </g>
                                    </g>
                                    <rect width="43.671" height="3.752" x="59.796" y="30.876" fill="#ECEFF1" rx="1.876"/>
                                    <rect width="46.166" height="3.752" x="31.804" y="58.302" fill="#ECEFF1" rx="1.876"/>
                                    <path fill="#ECEFF1" d="M2.53.038l26.97.41c.863.013 1.658.473 2.1 1.215l5.153 8.638c.705 1.182.319 2.711-.863 3.416-.392.234-.842.356-1.299.352L2.47 13.78C1.102 13.769 0 12.657 0 11.29V2.53C0 1.154 1.115.038 2.491.038h.038z"/>
                                    <rect width="33.689" height="3.752" x="2.39" y="9.471" fill="#ECEFF1" rx="1.876"/>
                                    <rect width="21.211" height="3.752" x="30.981" y="76.178" fill="#ECEFF1" rx="1.876"/>
                                    <rect width="36.184" height="3.752" x="30.713" y="93.494" fill="#ECEFF1" rx="1.876"/>
                                    <rect width="12.477" height="3.752" x="57.195" y="40.495" fill="#ECEFF1" rx="1.876"/>
                                </g>
                            </g>
                        </g>
                        <g transform="translate(-8 -40) translate(8 36.959) translate(146.008) rotate(-9 161.997 12.75) translate(.623)">
                            <mask id="hgwegvbw1d" fill="#fff">
                                <use xlink:href="#qvq3mk1juc"/>
                            </mask>
                            <use fill="#ECEFF1" xlink:href="#qvq3mk1juc"/>
                            <path fill="#C3CFD5" d="M61.591 46.53l26.448-.798c1.003-.03 1.84.758 1.87 1.76v.056c0 1.044-.827 1.9-1.87 1.938l-25.22.896c-1.045.038-2.003-.582-2.397-1.552l-.126-.311c-.3-.74.055-1.583.795-1.883.159-.065.328-.1.5-.106z" mask="url(#hgwegvbw1d)" opacity=".383" transform="rotate(100 74.712 48.06)"/>
                            <path fill="#C3CFD5" d="M43.61 37.688l26.88-1.349c.982-.049 1.818.707 1.867 1.688l.002.09c0 1.052-.82 1.921-1.869 1.985l-25.633 1.547c-1.073.065-2.066-.565-2.464-1.563l-.124-.31c-.312-.782.07-1.669.852-1.981.155-.062.32-.098.488-.107z" mask="url(#hgwegvbw1d)" opacity=".383" transform="rotate(100 56.92 39.002)"/>
                            <path fill="#C3CFD5" d="M67.83 60.289l26.448-.798c1.002-.03 1.84.758 1.87 1.76v.056c0 1.044-.827 1.9-1.871 1.938l-25.22.896c-1.045.037-2.002-.583-2.396-1.552l-.127-.312c-.3-.74.056-1.582.795-1.882.16-.065.329-.1.5-.106z" mask="url(#hgwegvbw1d)" opacity=".383" transform="rotate(100 80.95 61.819)"/>
                            <path fill="#C3CFD5" fill-rule="nonzero" d="M101.305 85.426c.4.11.795.103 1.183-.02.388-.122.732-.34 1.033-.653.3-.313.488-.688.563-1.123.075-.408.107-.871.094-1.388-.012-.518-.019-.416-.019-.798.952-.245 1.853-.571 2.705-.98.851-.408 1.652-.966 2.403-1.674.501-.462.896-1.054 1.184-1.776.288-.721.463-1.476.525-2.266.063-.79.007-1.565-.169-2.327-.175-.762-.475-1.416-.901-1.96-.776-.98-1.646-1.729-2.61-2.246-.964-.517-1.997-1.007-3.099-1.47.025-.898.038-1.864.038-2.899v-2.899c.3.11.594.232.882.368.288.136.576.265.864.388.288.122.582.21.883.265.3.055.613.055.939 0 .55-.109.957-.32 1.22-.633s.407-.66.432-1.041c.025-.381-.056-.783-.244-1.205-.188-.421-.457-.796-.807-1.122-.551-.545-1.202-.953-1.953-1.225-.752-.273-1.478-.504-2.179-.694-.075-1.515-.188-2.472-.338-2.871-.15-.381-.357-.688-.62-.919-.263-.231-.544-.388-.845-.47-.3-.081-.613-.074-.939.02-.325.096-.613.307-.864.634-.225.272-.394.585-.507.939-.112.354-.187.721-.225 1.102-.025.254-.044.721-.056 1.401-.927.164-1.853.551-2.78 1.164-.926.612-1.702 1.361-2.328 2.246-.626.884-1.02 1.85-1.183 2.899-.163 1.048.043 2.102.62 3.164.625 1.143 1.452 2.055 2.478 2.736 1.027.68 2.078 1.293 3.155 1.837 0 .953-.006 1.98-.019 3.083l-.008.813c-.007.798-.01 1.555-.01 2.27-.126-.055-.276-.13-.451-.225s-.326-.184-.45-.265c-.226-.164-.445-.354-.658-.572-.213-.218-.432-.436-.657-.653-.226-.218-.457-.409-.695-.572-.238-.163-.507-.259-.808-.286-.55-.081-1.001-.007-1.352.225-.35.231-.613.544-.789.939-.175.395-.244.83-.206 1.306.037.477.169.92.394 1.328.726.952 1.565 1.769 2.517 2.45.951.68 1.99 1.17 3.117 1.47 0 .625-.006.756-.019 1.49-.012.736.17 1.375.545 1.92.275.408.613.667 1.014.775zM99.84 64.867c-.45-.327-.807-.606-1.07-.837-.263-.231-.47-.442-.62-.633-.15-.19-.455-.746-.393-1.166.063-.42.324-.658.637-.957.313-.3.795-.45 1.446-.45v4.043zm4.32 11.841c0-.708.006-1.483.018-2.327l.008-.62c.007-.608.011-1.177.011-1.708.576.327 1.064.667 1.465 1.021.4.354.663.721.789 1.103.125.38.075.762-.15 1.143-.226.38-.702.748-1.428 1.102-.125.055-.244.102-.357.143-.112.041-.231.089-.357.143z" mask="url(#hgwegvbw1d)" transform="rotate(-93 102.267 68.618)"/>
                        </g>
                        <path fill="#C3CFD5" d="M117.933 78.803l10.814 16.922c.37.58.2 1.35-.38 1.72-.436.28-1 .259-1.416-.052l-97.776-73.14c-.551-.413-.664-1.193-.252-1.744.393-.525 1.124-.656 1.674-.3l86.962 56.219c.15.096.278.224.374.375z" transform="translate(-8 -40) translate(8 36.959) translate(146.008) rotate(-9 161.997 12.75)"/>
                        <g transform="translate(-8 -40) translate(8 36.959) translate(146.008) rotate(-9 161.997 12.75) translate(6.808 1.79)">
                            <mask id="tnwoi1wqlf" fill="#fff">
                                <use xlink:href="#5269gq26je"/>
                            </mask>
                            <use fill="#FFF" xlink:href="#5269gq26je"/>
                            <g mask="url(#tnwoi1wqlf)">
                                <g transform="scale(1 -1) rotate(41 171.26 35.986)">
                                    <g>
                                        <g fill="#C3CFD5" fill-rule="nonzero">
                                            <g>
                                                <g>
                                                    <g>
                                                        <g>
                                                            <path d="M7.772 33.695c.4.108.795.102 1.183-.02.388-.123.733-.341 1.033-.654.3-.313.488-.687.564-1.123.075-.408.106-.871.093-1.388-.012-.517-.018-.416-.018-.797.951-.245 1.853-.572 2.704-.98.851-.409 1.652-.967 2.404-1.674.5-.463.895-1.055 1.183-1.777.288-.72.463-1.476.526-2.266.062-.79.006-1.565-.17-2.327-.175-.762-.475-1.416-.9-1.96-.777-.98-1.647-1.728-2.611-2.246-.964-.517-1.997-1.007-3.099-1.47.025-.898.038-1.864.038-2.899V9.215c.3.11.594.232.882.368.288.136.576.265.864.388.288.122.582.21.883.265.3.055.613.055.939 0 .55-.109.958-.32 1.22-.633.263-.313.407-.66.432-1.04.025-.382-.056-.783-.244-1.205-.188-.422-.457-.797-.807-1.123-.551-.545-1.202-.953-1.953-1.225-.751-.272-1.478-.504-2.179-.694-.075-1.515-.187-2.472-.338-2.871-.15-.381-.357-.688-.62-.919-.262-.231-.544-.388-.845-.47-.3-.081-.613-.074-.939.021-.325.095-.613.306-.863.633-.226.272-.395.585-.507.939-.113.354-.188.721-.226 1.102-.025.254-.044.721-.056 1.401-.927.164-1.853.552-2.78 1.164-.926.613-1.702 1.361-2.328 2.246C.61 8.446.217 9.412.054 10.46c-.163 1.048.044 2.103.62 3.164.625 1.143 1.452 2.055 2.478 2.736 1.027.68 2.079 1.293 3.155 1.837 0 .953-.006 1.98-.018 3.083l-.009.813c-.007.799-.01 1.555-.01 2.27-.125-.055-.276-.13-.45-.225-.176-.095-.326-.184-.452-.265-.225-.164-.444-.354-.657-.572-.213-.218-.432-.435-.657-.653-.226-.218-.457-.408-.695-.572-.238-.163-.507-.258-.808-.286-.55-.081-1.001-.006-1.352.225-.35.231-.613.544-.788.939-.176.395-.245.83-.207 1.307.038.476.169.918.394 1.327.727.952 1.565 1.769 2.517 2.45.951.68 1.99 1.17 3.117 1.47 0 .625-.006.756-.019 1.49-.012.736.17 1.375.545 1.92.275.408.614.667 1.014.776zm-1.465-20.56c-.45-.326-.807-.605-1.07-.837-.263-.231-.47-.442-.62-.633-.15-.19-.455-.746-.393-1.166.063-.42.324-.657.637-.957.313-.3.795-.45 1.446-.45v4.043zm4.32 11.841c0-.708.006-1.483.018-2.327l.009-.62c.007-.608.01-1.177.01-1.708.576.327 1.064.667 1.465 1.021.4.354.664.722.789 1.103.125.38.075.762-.15 1.143-.226.381-.702.748-1.428 1.102-.125.055-.244.102-.357.143-.112.041-.231.089-.356.143z" transform="translate(4.593)"/>
                                                        </g>
                                                    </g>
                                                </g>
                                            </g>
                                        </g>
                                    </g>
                                    <rect width="43.671" height="3.752" x="29.083" y="9.918" fill="#ECEFF1" rx="1.876"/>
                                    <rect width="33.689" height="3.752" x=".453" y="44.609" fill="#ECEFF1" rx="1.876"/>
                                    <rect width="21.211" height="3.752" x=".268" y="55.22" fill="#ECEFF1" rx="1.876"/>
                                    <rect width="36.184" height="3.752" y="72.536" fill="#ECEFF1" rx="1.876"/>
                                    <rect width="9.982" height="3.752" x="28.977" y="19.537" fill="#ECEFF1" rx="1.876"/>
                                </g>
                            </g>
                        </g>
                    </g>
                    <path stroke="#ADC3CD" stroke-dasharray="6" stroke-linecap="round" stroke-linejoin="round" stroke-width="4" d="M147.16 105.599c18.342 9.27 27.513 22.01 27.513 38.223 0 27.315-25.773 46.98 6.341 64.114" transform="translate(-8 -40) translate(8 36.959) translate(146.008)"/>
                </g>
            </g>
        </g>
    </g>
</svg>
