<svg xmlns="http://www.w3.org/2000/svg" xmlns:xlink="http://www.w3.org/1999/xlink" width="360" height="440" viewBox="0 0 360 440">
    <defs>
        <path id="74n3sxatxa" d="M14.844 4.495c19.857 5.345 39.73 8.018 59.619 8.018 19.899 0 39.798-2.676 59.696-8.026 6.284-1.69 12.747 2.034 14.437 8.317.268.998.404 2.027.404 3.06v47.275c0 5.899-3.233 11.323-8.42 14.13C118.73 89.089 96.772 95 74.707 95 52.63 95 30.554 89.084 8.476 77.25 3.257 74.455 0 69.013 0 63.09V15.872C0 9.364 5.275 4.09 11.781 4.09c1.034 0 2.064.136 3.063.405z"/>
    </defs>
    <g fill="none" fill-rule="evenodd">
        <g>
            <g>
                <g>
                    <path d="M0 63.359H182V145.359H0z" transform="translate(-8 -40) translate(8 40) translate(88 162.64)"/>
                    <g>
                        <path stroke="#DCF2F1" stroke-linecap="round" stroke-linejoin="round" stroke-width="4.71" d="M0 52.424c1.46 7.829 6.97 21.728 10.547 34.935 4.305 15.895 24.457 5.085 14.121 5.085-5.036 0-10.935-20.489-15.657-42.237C4.04 27.323.366 3.049 0 0M161 52.424c-1.326 7.108-5.894 19.701-9.078 31.807-4.543 17.272-25.926 8.213-15.59 8.213 5.036 0 10.935-20.489 15.657-42.237C156.96 27.323 160.634 3.049 161 0" transform="translate(-8 -40) translate(8 40) translate(88 162.64) translate(9.766)"/>
                        <g transform="translate(-8 -40) translate(8 40) translate(88 162.64) translate(9.766) translate(7.234 23.36)">
                            <mask id="r4wxraagzb" fill="#fff">
                                <use xlink:href="#74n3sxatxa"/>
                            </mask>
                            <use fill="#00F5B3" xlink:href="#74n3sxatxa"/>
                            <path fill="#29DAA1" d="M16.087 11.212C35.833 17.404 55.546 20.5 75.226 20.5c19.603 0 39.159-3.072 58.668-9.215 8.955-2.82 18.501 2.153 21.321 11.109.52 1.652.785 3.374.785 5.106v41.833c0 5.506-2.819 10.628-7.47 13.573C124.218 98.302 99.784 106 75.226 106c-24.565 0-49.13-7.702-73.695-23.106C-3.155 79.956-6 74.814-6 69.283v-41.85c0-9.389 7.611-17 17-17 1.725 0 3.44.262 5.087.779z" mask="url(#r4wxraagzb)"/>
                            <g fill="#00F5B3" mask="url(#r4wxraagzb)">
                                <g>
                                    <path d="M1.977 34.628c16.559 7.34 33.914 11.009 52.064 11.009 18.23 0 36.877-3.702 55.938-11.106.764-.297 1.624.082 1.92.846.067.171.101.353.101.537 0 1.322-.815 2.507-2.05 2.98C90.62 46.297 72.033 50 54.189 50c-17.77 0-35.16-3.671-52.168-11.014C.794 38.456 0 37.249 0 35.914c0-.777.63-1.407 1.407-1.407.196 0 .39.041.57.12zM1.977 17.895c16.559 7.34 33.914 11.01 52.064 11.01 18.23 0 36.877-3.703 55.938-11.107.764-.296 1.624.082 1.92.846.067.172.101.354.101.538 0 1.321-.815 2.506-2.05 2.979-19.33 7.404-37.918 11.106-55.762 11.106-17.77 0-35.16-3.671-52.168-11.014C.794 21.724 0 20.517 0 19.182c0-.777.63-1.407 1.407-1.407.196 0 .39.04.57.12zM1.977.895c16.559 7.34 33.914 11.01 52.064 11.01 18.23 0 36.877-3.703 55.938-11.107.764-.296 1.624.082 1.92.846.067.172.101.354.101.538 0 1.321-.815 2.506-2.05 2.979-19.33 7.404-37.918 11.106-55.762 11.106-17.77 0-35.16-3.671-52.168-11.014C.794 4.724 0 3.517 0 2.182 0 1.405.63.775 1.407.775c.196 0 .39.04.57.12z" transform="translate(18 28)"/>
                                </g>
                            </g>
                        </g>
                    </g>
                </g>
            </g>
        </g>
    </g>
</svg>
