<svg xmlns="http://www.w3.org/2000/svg" xmlns:xlink="http://www.w3.org/1999/xlink" width="360" height="440" viewBox="0 0 360 440">
    <defs>
        <path id="4wia7yojxa" d="M15.302 51.886c.611 2.239 7.31 4.088 14.58.152 4.45-2.409 6.08-5.553 6.41-7.949l.04-.345.012-.168.013-.327c.005-.267-.008-.52-.034-.757l-.038-.276-.05-.26c-.111-.5-.29-.893-.497-1.14-.295-.424-.632-.882-1.005-1.37l-.585-.75-.634-.79-.334-.408-.699-.84-.736-.87-.77-.893-.798-.913-.822-.928-1.268-1.414-.861-.95-1.306-1.426-1.742-1.88-1.709-1.827-2.803-2.964-3.747-3.938c-1.525-1.61-1.621-3.824-1.3-6.097l.097-.621.055-.311.12-.62.195-.925.33-1.5.062-.292.114-.573c.412-2.162.475-3.954-.964-4.75-1.017-.562-2.454.246-3.97 1.827l-.338.364c-.17.188-.34.385-.51.59l-.341.421-.34.441-.34.46-.17.237-.336.486-.166.249-.331.508-.164.259-.324.527-.16.268-.315.543-.308.551-.152.279-.296.562-.145.283c-2.17 4.284-3.114 8.081-2.66 10.417l.08.38.105.443.13.504.153.562.175.616.196.665.333 1.086.245.776.264.815.427 1.286.304.895.483 1.39.512 1.438.357.98.367.99.377 1 .385 1.005.394 1.007.602 1.507.409.997.413.986.416.973.21.48.42.946.21.465.42.91c.07.15.14.299.211.446l.42.869.418.835.208.405.413.78c.686 1.267 1.354 2.361 1.983 3.211z"/>
        <path id="lad81in2tc" d="M15.302 51.886c.611 2.239 7.31 4.088 14.58.152 4.45-2.409 6.08-5.553 6.41-7.949l.04-.345.012-.168.013-.327c.005-.267-.008-.52-.034-.757l-.038-.276-.05-.26c-.111-.5-.29-.893-.497-1.14-.295-.424-.632-.882-1.005-1.37l-.585-.75-.634-.79-.334-.408-.699-.84-.736-.87-.77-.893-.798-.913-.822-.928-1.268-1.414-.861-.95-1.306-1.426-1.742-1.88-1.709-1.827-2.803-2.964-3.747-3.938c-1.525-1.61-1.621-3.824-1.3-6.097l.097-.621.055-.311.12-.62.195-.925.33-1.5.062-.292.114-.573c.412-2.162.475-3.954-.964-4.75-1.017-.562-2.454.246-3.97 1.827l-.338.364c-.17.188-.34.385-.51.59l-.341.421-.34.441-.34.46-.17.237-.336.486-.166.249-.331.508-.164.259-.324.527-.16.268-.315.543-.308.551-.152.279-.296.562-.145.283c-2.17 4.284-3.114 8.081-2.66 10.417l.08.38.105.443.13.504.153.562.175.616.196.665.333 1.086.245.776.264.815.427 1.286.304.895.483 1.39.512 1.438.357.98.367.99.377 1 .385 1.005.394 1.007.602 1.507.409.997.413.986.416.973.21.48.42.946.21.465.42.91c.07.15.14.299.211.446l.42.869.418.835.208.405.413.78c.686 1.267 1.354 2.361 1.983 3.211z"/>
    </defs>
    <g fill="none" fill-rule="evenodd">
        <g>
            <g>
                <g>
                    <g>
                        <path fill="#FFB7A2" d="M13.496 12.16C17.558 10.04 28 5.873 32.142 3.55c4.142-2.32 4.373-4.244 9.346-3.308 4.745.893-2.903 22.126-3.88 28.445-.978 6.32-5.585 27.024-13.851 33.803C13.845 70.617 7.76 73.752.98 73.752-2.366 42.34 3.925 24.205 3.925 20.475c2.568 0 1.98-4.351 9.571-8.315z" transform="translate(-8.000000, -40.000000) translate(8.000000, 40.000000) translate(56.370389, 30.108828) translate(199.542000, 111.204128)"/>
                        <path fill="#FF9779" d="M13.583 26.229c2.283-3.368 10.796-8.464 13.663-10.071 2.867-1.607 4.925-2.719 5.46-2.327.431.317-1 15.352-1.677 19.726-.676 4.375-3.866 18.707-9.588 23.4-6.86 5.625-11.072 7.795-15.765 7.795-2.317-21.745 4.226-33.094 7.907-38.523z" transform="translate(-8.000000, -40.000000) translate(8.000000, 40.000000) translate(56.370389, 30.108828) translate(199.542000, 111.204128)"/>
                    </g>
                    <path fill="#FFD8CD" d="M94.63 137.891H122.63V201.891H94.63z" transform="translate(-8.000000, -40.000000) translate(8.000000, 40.000000) translate(56.370389, 30.108828)"/>
                    <g>
                        <path fill="#FFD8CD" d="M13.496 13.319c4.062-2.121 11.157-4.607 15.298-6.928 4.142-2.322 6.584-8.333 11.378-5.765 6.52 3.494-1.587 22.9-2.565 29.22-.977 6.32-5.584 27.024-13.85 33.802C13.845 71.776 7.76 74.911.98 74.911c-3.347-31.413 2.944-49.547 2.944-53.277 2.568 0 1.98-4.351 9.571-8.315z" transform="translate(-8.000000, -40.000000) translate(8.000000, 40.000000) translate(56.370389, 30.108828) translate(21.343142, 147.500776) scale(-1, 1) translate(-21.343142, -147.500776) translate(0.000000, 110.045370)"/>
                        <path fill="#FFB7A2" d="M13.583 27.387c2.283-3.367 10.796-8.463 13.663-10.07 2.867-1.608 4.925-2.72 5.46-2.327.431.316-1 15.352-1.677 19.726-.676 4.374-3.866 18.707-9.588 23.399-6.86 5.626-11.072 7.796-15.765 7.796-2.317-21.745 4.226-33.094 7.907-38.524z" transform="translate(-8.000000, -40.000000) translate(8.000000, 40.000000) translate(56.370389, 30.108828) translate(21.343142, 147.500776) scale(-1, 1) translate(-21.343142, -147.500776) translate(0.000000, 110.045370)"/>
                    </g>
                    <path fill="#FFF" d="M86.63 159.891c17.192 0 22-12.76 22-28.5s-6.42-28.5-22-28.5c-15.582 0-22 12.76-22 28.5s4.807 28.5 22 28.5zM156.63 159.891c17.192 0 22-12.76 22-28.5s-6.42-28.5-22-28.5c-15.582 0-22 12.76-22 28.5s4.807 28.5 22 28.5z" transform="translate(-8.000000, -40.000000) translate(8.000000, 40.000000) translate(56.370389, 30.108828)"/>
                    <path fill="#107778" d="M86.255 151.891c12.914 0 15.625-8.954 15.625-20s-3.261-20-15.625-20c-12.365 0-15.625 8.954-15.625 20s2.71 20 15.625 20zM156.255 151.891c12.914 0 15.625-8.954 15.625-20s-3.261-20-15.625-20c-12.365 0-15.625 8.954-15.625 20s2.71 20 15.625 20z" transform="translate(-8.000000, -40.000000) translate(8.000000, 40.000000) translate(56.370389, 30.108828)"/>
                    <path fill="#FFD8CD" d="M43.3 184.484c-.387 36.901 2.614 60.224 9.005 69.968.569.867 1.706 1.155 2.62.664l7.6-4.089c.721-.387 1.606-.297 2.233.23l5.46 4.578c.757.635 1.866.621 2.608-.033l4.961-4.375c.694-.611 1.715-.668 2.472-.137l6.83 4.793c.725.508 1.697.48 2.39-.07l5.987-4.74c.67-.53 1.605-.577 2.324-.114l7.486 4.82c.852.548 1.98.373 2.625-.408l3.151-3.815c.646-.782 1.774-.957 2.626-.407l5.623 3.626c.928.599 2.166.332 2.764-.596.205-.318.316-.686.32-1.063l.184-17.567-43.232-1.387c-20.375-28.123-32.387-44.749-36.036-49.878z" transform="translate(-8.000000, -40.000000) translate(8.000000, 40.000000) translate(56.370389, 30.108828)"/>
                    <path fill="#FFB7A2" d="M122.3 184.484c-.386 36.775 2.593 60.064 8.94 69.867.59.914 1.804 1.187 2.73.614l6.18-3.82c.734-.453 1.676-.385 2.337.169l5.39 4.52c.758.636 1.866.622 2.608-.032l4.962-4.375c.693-.611 1.715-.668 2.472-.137l6.83 4.793c.724.508 1.697.48 2.39-.07l5.986-4.74c.671-.53 1.605-.577 2.325-.114l7.486 4.82c.852.548 1.98.373 2.624-.408l3.152-3.815c.646-.782 1.774-.957 2.626-.407l5.622 3.626c.929.599 2.166.332 2.765-.596.205-.318.315-.686.32-1.063l.184-17.567-43.232-1.387c-19.481-28.123-31.047-44.749-34.696-49.878z" transform="translate(-8.000000, -40.000000) translate(8.000000, 40.000000) translate(56.370389, 30.108828) translate(161.248251, 220.711935) scale(-1, 1) translate(-161.248251, -220.711935)"/>
                    <path fill="#FFB7A2" d="M120.13 181.891c10.217 0 18.5-4.253 18.5-9.5s-8.283-9.5-18.5-9.5c-10.218 0-18.5 1.142-18.5 9.5 0 8.359 8.282 9.5 18.5 9.5z" transform="translate(-8.000000, -40.000000) translate(8.000000, 40.000000) translate(56.370389, 30.108828)"/>
                    <g transform="translate(-8.000000, -40.000000) translate(8.000000, 40.000000) translate(56.370389, 30.108828) translate(42.564420, 0.000000)">
                        <mask id="olwbbp6djb" fill="#fff">
                            <use xlink:href="#4wia7yojxa"/>
                        </mask>
                        <use fill="#FA0" xlink:href="#4wia7yojxa"/>
                        <path fill="#196CC7" d="M-6.414 34.242c8.229 1.388 15.169.248 20.82-3.422 5.65-3.67 9.963-8.541 12.939-14.614l2.723 4.193c-2.919 5.97-7.22 10.8-12.902 14.49-5.683 3.69-12.635 4.873-20.857 3.547l-2.723-4.194z" mask="url(#olwbbp6djb)"/>
                        <path fill="#196CC7" d="M-11.414 27.242c8.229 1.388 15.169.248 20.82-3.422 5.65-3.67 9.963-8.541 12.939-14.614l2.723 4.193c-2.919 5.97-7.22 10.8-12.902 14.49C6.483 31.58-.47 32.763-8.691 31.437l-2.723-4.194z" mask="url(#olwbbp6djb)"/>
                    </g>
                    <g transform="translate(-8.000000, -40.000000) translate(8.000000, 40.000000) translate(56.370389, 30.108828) translate(179.598534, 28.417986) scale(-1, 1) translate(-179.598534, -28.417986) translate(160.564420, 0.000000)">
                        <mask id="r43hzezv8d" fill="#fff">
                            <use xlink:href="#lad81in2tc"/>
                        </mask>
                        <use fill="#FA0" xlink:href="#lad81in2tc"/>
                        <path fill="#196CC7" d="M-6.414 34.242c8.229 1.388 15.169.248 20.82-3.422 5.65-3.67 9.963-8.541 12.939-14.614l2.723 4.193c-2.919 5.97-7.22 10.8-12.902 14.49-5.683 3.69-12.635 4.873-20.857 3.547l-2.723-4.194z" mask="url(#r43hzezv8d)"/>
                        <path fill="#196CC7" d="M-11.414 27.242c8.229 1.388 15.169.248 20.82-3.422 5.65-3.67 9.963-8.541 12.939-14.614l2.723 4.193c-2.919 5.97-7.22 10.8-12.902 14.49C6.483 31.58-.47 32.763-8.691 31.437l-2.723-4.194z" mask="url(#r43hzezv8d)"/>
                    </g>
                </g>
            </g>
        </g>
    </g>
</svg>
