<svg xmlns="http://www.w3.org/2000/svg" width="360" height="440" viewBox="0 0 360 440">
    <g fill="none" fill-rule="evenodd">
        <g>
            <g>
                <g transform="translate(-8 -40) translate(8 40) translate(32.898 208.99)">
                    <g>
                        <path fill="#FBFBFB" d="M53.655 5.926c27.322 7.56 40.983 15.564 40.983 24.011v53L60.373 72.701 53.655 5.926z" transform="translate(4.73 35.307)"/>
                        <g transform="translate(4.73 35.307) rotate(-8 69.809 4.881)">
                            <path fill="#FFF" d="M.15 18.36h70v55.695c0 1.298-.421 2.562-1.2 3.6-6.354 8.47-17.713 12.705-34.077 12.705-16.39 0-27.595-4.248-33.618-12.745C.536 76.601.15 75.388.15 74.145V18.36z"/>
                            <ellipse cx="35" cy="19.5" fill="#F3F6F7" rx="35" ry="19.5"/>
                            <ellipse cx="34.574" cy="18.935" fill="#E1A46A" rx="18.5" ry="10"/>
                        </g>
                        <path fill="#F3F6F7" d="M69.371 65.702c0-13.799 25.267-21.079 25.267-35.765l-.267 68.286c1.563 1.457.564 7.45-2.998 17.98-5.936 17.546-13.782 10.594-13.782 10.594-1.433-12.895-8.194-61.095-8.22-61.095z" transform="translate(4.73 35.307)"/>
                        <path fill="#FFF" d="M69.373 65.702c0 19.68 34.885 2.214 73.075-18.235C167.908 33.835 207.126 30.5 260.1 37.46l-5.738 6.97 5.738 9.47-5.738 7.012 5.738 7.861-7.024 7.188 5.293 8.309-5.293 7.76 5.293 8.876c-46.486-7.026-79.817-4.427-99.995 7.796-32.931 19.95-78.182 34.821-81.472 13.737-1.415-9.07-7.395-56.737-7.528-56.737z" transform="translate(4.73 35.307)"/>
                    </g>
                    <g>
                        <path fill="#FEC602" d="M50.824 13.368c1.722 2.34 5.15 4.017 10.283 5.032.542.107.894.634.787 1.175-.014.072-.036.142-.066.208-2.007 4.57-2.164 8.802-.472 12.695 1.598 3.675 4.248 6.77 7.95 9.282.457.31.576.932.266 1.39-.113.166-.274.294-.46.368-5.06 1.996-8.414 4.945-10.061 8.847-.972 2.3-1.594 6.15-1.867 11.554-.028.551-.497.976-1.049.948-.083-.004-.165-.019-.245-.043-5.928-1.833-10.263-2.749-13.005-2.749-3.418 0-7.41 2.62-11.977 7.857-.363.417-.995.46-1.41.097-.115-.1-.205-.223-.264-.362-2.738-6.434-4.756-10.221-6.055-11.36-2.813-2.47-6.913-3.847-12.299-4.136-.551-.03-.974-.5-.945-1.052.006-.112.031-.222.074-.326 2.503-6.09 3.274-11.642 2.312-16.653-.94-4.894-3.21-8.803-6.81-11.726-.43-.348-.495-.978-.147-1.407.06-.074.132-.14.211-.194 3.962-2.716 7.322-5.864 10.08-9.445 2.634-3.42 3.766-7.466 3.397-12.139-.043-.55.368-1.032.918-1.075.212-.017.423.034.603.145 4.15 2.554 8.419 3.832 12.804 3.832 4.487 0 8.863-1.337 13.127-4.012.468-.293 1.085-.152 1.378.316.095.152.148.325.153.504.167 5.987 1.097 10.13 2.79 12.43z" transform="rotate(-93 37.716 35.14)"/>
                        <path fill="#F72F2A" fill-rule="nonzero" d="M25.742 40.61c4.36 0 7.56-3.56 7.56-9.52 0-5.96-3.2-9.4-7.56-9.4-4.36 0-7.52 3.44-7.52 9.4 0 5.96 3.16 9.52 7.52 9.52zm5.12 11.96l16.04-30.88h-4.08l-16.04 30.88h4.08zm-5.12-15.88c-1.4 0-2.6-1.44-2.6-5.6s1.2-5.48 2.6-5.48c1.4 0 2.6 1.32 2.6 5.48s-1.2 5.6-2.6 5.6zm22.16 15.88c4.32 0 7.52-3.56 7.52-9.52 0-5.96-3.2-9.44-7.52-9.44-4.32 0-7.52 3.48-7.52 9.44 0 5.96 3.2 9.52 7.52 9.52zm0-3.96c-1.4 0-2.6-1.4-2.6-5.56 0-4.2 1.2-5.48 2.6-5.48 1.4 0 2.6 1.28 2.6 5.48 0 4.16-1.2 5.56-2.6 5.56z" transform="rotate(-16 36.822 37.13)"/>
                    </g>
                    <circle cx="193.102" cy="46.01" r="4" fill="#324148"/>
                </g>
            </g>
        </g>
    </g>
</svg>
