<svg xmlns="http://www.w3.org/2000/svg" width="360" height="440" viewBox="0 0 360 440">
    <g fill="none" fill-rule="evenodd">
        <g>
            <g>
                <path d="M0 0H360V440H0z" transform="translate(-8 -40) translate(8 40)"/>
                <g transform="translate(-8 -40) translate(8 40) translate(57 79.369)">
                    <g>
                        <path fill="#FFD8CD" d="M61.202 103.574C72.053 114.954 64.311.369 54.936.369S28.49 12.93 28.49 41.758c0 28.827 21.861 50.435 32.712 61.816z" transform="translate(23.091 118.263) rotate(-39 47.49 52.369)"/>
                        <path fill="#FFB7A2" d="M167.202 103.574C178.053 114.954 170.311.369 160.936.369S134.49 12.93 134.49 41.758c0 28.827 21.861 50.435 32.712 61.816z" transform="translate(23.091 118.263) scale(-1 1) rotate(-39 0 485.812)"/>
                    </g>
                    <rect width="5" height="10" x="171.203" y="153.588" fill="#FFF" rx="2.5" transform="rotate(-24 173.703 158.588)"/>
                    <rect width="5" height="10" x="62.203" y="159.588" fill="#FFF" rx="2.5" transform="rotate(19 64.703 164.588)"/>
                    <rect width="5" height="10" x="73.203" y="154.588" fill="#FFF" rx="2.5" transform="rotate(-25 75.703 159.588)"/>
                    <path fill="#FF5928" d="M108.611 114.89l4.204-2.172c1.963-1.014 4.376-.245 5.39 1.718.345.668.495 1.42.432 2.17-.284 3.38-.389 5.241-.315 5.584.405 1.881.423 5.4.423 6.052 0 1.193-1.228 2.022-3.686 2.487l-4.807-.993c-1.901-.392-3.246-2.093-3.19-4.034.05-1.69.075-2.876.075-3.558 0-.59-.17-1.425-.508-2.507-.58-1.854.256-3.856 1.982-4.748z" transform="rotate(34 112.382 120.05)"/>
                    <rect width="5" height="10" x="175.203" y=".588" fill="#FFF" rx="2.5" transform="rotate(-25 177.703 5.588)"/>
                    <path fill="#FFF" d="M65.652 200.631c5.03 0 6.524 22.96 57.288 22.96 50.763 0 51.768-22.96 56.18-22.96 18.805 6.385 37.111 33.27 54.92 80.656 2.33 6.204-.808 13.123-7.012 15.454l-.217.08c-24.125 8.54-58.91 12.81-104.353 12.81-45.815 0-80.775-4.34-104.88-13.021-6.089-2.193-9.342-8.817-7.355-14.975 13.993-43.37 32.47-70.37 55.429-81.004z"/>
                    <path fill="#FFF" d="M1.86 190.713c17.72-4.972 29.777-7.122 36.17-6.451 18.968 1.99 27.97 6.606 27.97 8.673v16.054c-9 2.128-23.493 3.529-34.16 0-10.862-3.593-20.973-9.103-30.33-16.53-.433-.344-.506-.973-.163-1.405.131-.165.311-.285.514-.341z"/>
                    <path fill="#FFF" d="M180.86 190.713c17.72-4.972 29.777-7.122 36.17-6.451 18.968 1.99 27.97 6.606 27.97 8.673v16.054c-9 2.128-23.493 3.529-34.16 0-10.862-3.593-20.973-9.103-30.33-16.53-.433-.344-.506-.973-.163-1.405.131-.165.311-.285.514-.341z" transform="matrix(-1 0 0 1 424 0)"/>
                </g>
            </g>
        </g>
    </g>
</svg>
