<svg xmlns="http://www.w3.org/2000/svg" xmlns:xlink="http://www.w3.org/1999/xlink" width="360" height="440" viewBox="0 0 360 440">
    <defs>
        <path id="5z9o80m7ua" d="M99.284 13.26c19.523-5.255 42.65-16.035 74.22-12.596 35.28 3.843 69.206 25.042 74.914 36.161 6.275 12.223 3.141 53.46 15.14 61.377 19.876 13.116 24.694 18.882 44.193 32.737-7.12-.11-12.353 1.822-16.895 4.676l-6.324-9.708-2.646 1.713 6.365 9.775c-5.69 4.184-10.584 9.59-17.417 13.667l-13.65-20.96-2.646 1.714 13.523 20.764c-3.233 1.614-6.907 2.909-11.251 3.67l-12.248-18.806-4.41 2.857 10.817 16.61c-6.764.377-14.961-.413-25.178-2.92-5.954-1.46-11.324-2.998-16.23-4.559l-13.12-20.146-1.764 1.143 11.7 17.966c-23.893-7.96-36.543-16.188-53.824-17.457-32.373-2.376-40.918 4.006-62.775 3.27l-13.143-20.181-1.764 1.142 12.321 18.92c-4.681-.267-9.976-.856-16.202-1.902l-13.655-20.965-2.646 1.714 12.041 18.49c-.822-.155-1.66-.317-2.514-.488-2.267-.452-4.456-1.121-6.579-1.966l-12.924-19.848-2.646 1.714 10.11 15.527c-11.528-6.406-21.172-17.306-30.881-24.674l-8.138-12.495-2.647 1.713 4.189 6.43C9.987 94.767 5.159 93.42 0 94.181c12.123-7.161 24.188-16.65 48.197-23.04 28.815-7.67 31.565-52.625 51.087-57.88z"/>
    </defs>
    <g fill="none" fill-rule="evenodd">
        <g>
            <g>
                <g>
                    <g>
                        <path fill="#FEC602" d="M0 30.745c8.073-14.426 22.13-15.339 42.167-2.738C62.205 40.607 48.15 41.519 0 30.745z" transform="translate(-8 -40) translate(8 40) translate(22 13) translate(55 250.805)"/>
                        <path fill="#FA0" d="M7.38 24.07c8.186-13.97 22.437-14.853 42.754-2.652 20.316 12.2 6.065 13.084-42.754 2.651z" transform="translate(-8 -40) translate(8 40) translate(22 13) translate(55 250.805) rotate(34 33.235 22.084)"/>
                        <path fill="#FA0" d="M24.647 40.17c5.534-23.747 15.168-25.25 28.902-4.508 13.734 20.742 4.1 22.244-28.902 4.508z" transform="translate(-8 -40) translate(8 40) translate(22 13) translate(55 250.805) rotate(178 42.125 36.795)"/>
                        <path fill="#FA0" d="M10.4 35.886c4.912-8.38 13.463-8.911 25.653-1.59 12.19 7.32 3.639 7.85-25.653 1.59z" transform="translate(-8 -40) translate(8 40) translate(22 13) translate(55 250.805) rotate(-40 25.913 34.695)"/>
                        <path fill="#FEC602" d="M12.24 45.085c4.912-8.38 13.462-8.911 25.652-1.59 12.19 7.32 3.64 7.85-25.652 1.59z" transform="translate(-8 -40) translate(8 40) translate(22 13) translate(55 250.805) rotate(-95 27.753 43.894)"/>
                        <path fill="#FEC602" d="M36.157 24.848c4.912-8.382 13.463-8.912 25.653-1.591 12.19 7.32 3.639 7.85-25.653 1.59z" transform="translate(-8 -40) translate(8 40) translate(22 13) translate(55 250.805) rotate(157 51.67 23.656)"/>
                        <path fill="#FEC602" d="M32 31.195c2.78-10.243 8.505-16.169 17.176-17.776.399-.074.804-.144 1.217-.212 2.45-.4 5.653-1.07 9.607-2.012l-28 20z" transform="translate(-8 -40) translate(8 40) translate(22 13) translate(55 250.805)"/>
                    </g>
                    <g>
                        <path fill="#57A3F6" d="M.41 30.702c8.074-14.426 22.13-15.338 42.168-2.738S48.56 41.477.41 30.702z" transform="translate(-8 -40) translate(8 40) translate(22 13) matrix(-1 0 0 1 122.696 268.848)"/>
                        <path fill="#196CC7" d="M7.38 24.07c8.186-13.97 22.437-14.853 42.754-2.652 20.316 12.2 6.065 13.084-42.754 2.651z" transform="translate(-8 -40) translate(8 40) translate(22 13) matrix(-1 0 0 1 122.696 268.848) rotate(34 33.235 22.084)"/>
                        <path fill="#196CC7" d="M24.647 40.17c5.534-23.747 15.168-25.25 28.902-4.508 13.734 20.742 4.1 22.244-28.902 4.508z" transform="translate(-8 -40) translate(8 40) translate(22 13) matrix(-1 0 0 1 122.696 268.848) rotate(178 42.125 36.795)"/>
                        <path fill="#196CC7" d="M10.4 35.886c4.912-8.38 13.463-8.911 25.653-1.59 12.19 7.32 3.639 7.85-25.653 1.59z" transform="translate(-8 -40) translate(8 40) translate(22 13) matrix(-1 0 0 1 122.696 268.848) rotate(-40 25.913 34.695)"/>
                        <path fill="#57A3F6" d="M12.24 45.085c4.912-8.38 13.462-8.911 25.652-1.59 12.19 7.32 3.64 7.85-25.652 1.59z" transform="translate(-8 -40) translate(8 40) translate(22 13) matrix(-1 0 0 1 122.696 268.848) rotate(-95 27.753 43.894)"/>
                        <path fill="#57A3F6" d="M36.157 24.848c4.912-8.382 13.463-8.912 25.653-1.591 12.19 7.32 3.639 7.85-25.653 1.59z" transform="translate(-8 -40) translate(8 40) translate(22 13) matrix(-1 0 0 1 122.696 268.848) rotate(157 51.67 23.656)"/>
                        <path fill="#57A3F6" d="M32.41 31.152c2.78-10.243 8.505-16.168 17.177-17.776.398-.073.804-.144 1.216-.211 2.45-.4 5.653-1.071 9.607-2.013l-28 20z" transform="translate(-8 -40) translate(8 40) translate(22 13) matrix(-1 0 0 1 122.696 268.848)"/>
                    </g>
                    <g>
                        <path fill="#FFB7A2" d="M.41 30.574c8.074-14.426 22.13-15.339 42.168-2.738C62.616 40.436 48.56 41.349.41 30.574z" transform="translate(-8 -40) translate(8 40) translate(22 13) translate(69.59 280.976)"/>
                        <path fill="#FA7048" d="M7.38 24.07c8.186-13.97 22.437-14.853 42.754-2.652 20.316 12.2 6.065 13.084-42.754 2.651z" transform="translate(-8 -40) translate(8 40) translate(22 13) translate(69.59 280.976) rotate(34 33.235 22.084)"/>
                        <path fill="#FA7048" d="M24.647 40.17c5.534-23.747 15.168-25.25 28.902-4.508 13.734 20.742 4.1 22.244-28.902 4.508z" transform="translate(-8 -40) translate(8 40) translate(22 13) translate(69.59 280.976) rotate(178 42.125 36.795)"/>
                        <path fill="#FA7048" d="M10.4 35.886c4.912-8.38 13.463-8.911 25.653-1.59 12.19 7.32 3.639 7.85-25.653 1.59z" transform="translate(-8 -40) translate(8 40) translate(22 13) translate(69.59 280.976) rotate(-40 25.913 34.695)"/>
                        <path fill="#FFB7A2" d="M12.24 45.085c4.912-8.38 13.462-8.911 25.652-1.59 12.19 7.32 3.64 7.85-25.652 1.59z" transform="translate(-8 -40) translate(8 40) translate(22 13) translate(69.59 280.976) rotate(-95 27.753 43.894)"/>
                        <path fill="#FFB7A2" d="M36.157 24.848c4.912-8.382 13.463-8.912 25.653-1.591 12.19 7.32 3.639 7.85-25.653 1.59z" transform="translate(-8 -40) translate(8 40) translate(22 13) translate(69.59 280.976) rotate(157 51.67 23.656)"/>
                        <path fill="#FFB7A2" d="M32.41 31.024c2.78-10.243 8.505-16.168 17.177-17.776.398-.074.804-.144 1.216-.212 2.45-.4 5.653-1.07 9.607-2.012l-28 20z" transform="translate(-8 -40) translate(8 40) translate(22 13) translate(69.59 280.976)"/>
                    </g>
                    <g>
                        <path fill="#FEC602" d="M0 30.745c8.073-14.426 22.13-15.339 42.167-2.738C62.205 40.607 48.15 41.519 0 30.745z" transform="translate(-8 -40) translate(8 40) translate(22 13) translate(89 287.805)"/>
                        <path fill="#FA0" d="M7.38 24.07c8.186-13.97 22.437-14.853 42.754-2.652 20.316 12.2 6.065 13.084-42.754 2.651z" transform="translate(-8 -40) translate(8 40) translate(22 13) translate(89 287.805) rotate(34 33.235 22.084)"/>
                        <path fill="#FA0" d="M24.647 40.17c5.534-23.747 15.168-25.25 28.902-4.508 13.734 20.742 4.1 22.244-28.902 4.508z" transform="translate(-8 -40) translate(8 40) translate(22 13) translate(89 287.805) rotate(178 42.125 36.795)"/>
                        <path fill="#FA0" d="M10.4 35.886c4.912-8.38 13.463-8.911 25.653-1.59 12.19 7.32 3.639 7.85-25.653 1.59z" transform="translate(-8 -40) translate(8 40) translate(22 13) translate(89 287.805) rotate(-40 25.913 34.695)"/>
                        <path fill="#FEC602" d="M12.24 45.085c4.912-8.38 13.462-8.911 25.652-1.59 12.19 7.32 3.64 7.85-25.652 1.59z" transform="translate(-8 -40) translate(8 40) translate(22 13) translate(89 287.805) rotate(-95 27.753 43.894)"/>
                        <path fill="#FEC602" d="M36.157 24.848c4.912-8.382 13.463-8.912 25.653-1.591 12.19 7.32 3.639 7.85-25.653 1.59z" transform="translate(-8 -40) translate(8 40) translate(22 13) translate(89 287.805) rotate(157 51.67 23.656)"/>
                        <path fill="#FEC602" d="M32 31.195c2.78-10.243 8.505-16.169 17.176-17.776.399-.074.804-.144 1.217-.212 2.45-.4 5.653-1.07 9.607-2.012l-28 20z" transform="translate(-8 -40) translate(8 40) translate(22 13) translate(89 287.805)"/>
                    </g>
                    <g>
                        <path fill="#9EDEDA" d="M0 30.617c8.073-14.426 22.13-15.339 42.167-2.739C62.205 40.478 48.15 41.391 0 30.617z" transform="translate(-8 -40) translate(8 40) translate(22 13) matrix(1 0 0 -1 120 350.763)"/>
                        <path fill="#107778" d="M7.38 24.07c8.186-13.97 22.437-14.853 42.754-2.652 20.316 12.2 6.065 13.084-42.754 2.651z" transform="translate(-8 -40) translate(8 40) translate(22 13) matrix(1 0 0 -1 120 350.763) rotate(34 33.235 22.084)"/>
                        <path fill="#107778" d="M24.647 40.17c5.534-23.747 15.168-25.25 28.902-4.508 13.734 20.742 4.1 22.244-28.902 4.508z" transform="translate(-8 -40) translate(8 40) translate(22 13) matrix(1 0 0 -1 120 350.763) rotate(178 42.125 36.795)"/>
                        <path fill="#107778" d="M10.4 35.886c4.912-8.38 13.463-8.911 25.653-1.59 12.19 7.32 3.639 7.85-25.653 1.59z" transform="translate(-8 -40) translate(8 40) translate(22 13) matrix(1 0 0 -1 120 350.763) rotate(-40 25.913 34.695)"/>
                        <path fill="#9EDEDA" d="M12.24 45.085c4.912-8.38 13.462-8.911 25.652-1.59 12.19 7.32 3.64 7.85-25.652 1.59z" transform="translate(-8 -40) translate(8 40) translate(22 13) matrix(1 0 0 -1 120 350.763) rotate(-95 27.753 43.894)"/>
                        <path fill="#9EDEDA" d="M36.157 24.848c4.912-8.382 13.463-8.912 25.653-1.591 12.19 7.32 3.639 7.85-25.653 1.59z" transform="translate(-8 -40) translate(8 40) translate(22 13) matrix(1 0 0 -1 120 350.763) rotate(157 51.67 23.656)"/>
                        <path fill="#9EDEDA" d="M32 31.067c2.78-10.244 8.505-16.169 17.176-17.776.399-.074.804-.145 1.217-.212 2.45-.4 5.653-1.07 9.607-2.013l-28 20z" transform="translate(-8 -40) translate(8 40) translate(22 13) matrix(1 0 0 -1 120 350.763)"/>
                    </g>
                    <g>
                        <path fill="#57A3F6" d="M.41 30.702c8.074-14.426 22.13-15.338 42.168-2.738S48.56 41.477.41 30.702z" transform="translate(-8 -40) translate(8 40) translate(22 13) matrix(-1 0 0 1 225.696 289.848)"/>
                        <path fill="#196CC7" d="M7.38 24.07c8.186-13.97 22.437-14.853 42.754-2.652 20.316 12.2 6.065 13.084-42.754 2.651z" transform="translate(-8 -40) translate(8 40) translate(22 13) matrix(-1 0 0 1 225.696 289.848) rotate(34 33.235 22.084)"/>
                        <path fill="#196CC7" d="M24.647 40.17c5.534-23.747 15.168-25.25 28.902-4.508 13.734 20.742 4.1 22.244-28.902 4.508z" transform="translate(-8 -40) translate(8 40) translate(22 13) matrix(-1 0 0 1 225.696 289.848) rotate(178 42.125 36.795)"/>
                        <path fill="#196CC7" d="M10.4 35.886c4.912-8.38 13.463-8.911 25.653-1.59 12.19 7.32 3.639 7.85-25.653 1.59z" transform="translate(-8 -40) translate(8 40) translate(22 13) matrix(-1 0 0 1 225.696 289.848) rotate(-40 25.913 34.695)"/>
                        <path fill="#57A3F6" d="M12.24 45.085c4.912-8.38 13.462-8.911 25.652-1.59 12.19 7.32 3.64 7.85-25.652 1.59z" transform="translate(-8 -40) translate(8 40) translate(22 13) matrix(-1 0 0 1 225.696 289.848) rotate(-95 27.753 43.894)"/>
                        <path fill="#57A3F6" d="M36.157 24.848c4.912-8.382 13.463-8.912 25.653-1.591 12.19 7.32 3.639 7.85-25.653 1.59z" transform="translate(-8 -40) translate(8 40) translate(22 13) matrix(-1 0 0 1 225.696 289.848) rotate(157 51.67 23.656)"/>
                        <path fill="#57A3F6" d="M32.41 31.152c2.78-10.243 8.505-16.168 17.177-17.776.398-.073.804-.144 1.216-.211 2.45-.4 5.653-1.071 9.607-2.013l-28 20z" transform="translate(-8 -40) translate(8 40) translate(22 13) matrix(-1 0 0 1 225.696 289.848)"/>
                    </g>
                    <g>
                        <path fill="#9EDEDA" d="M0 30.617c8.073-14.426 22.13-15.339 42.167-2.739C62.205 40.478 48.15 41.391 0 30.617z" transform="translate(-8 -40) translate(8 40) translate(22 13) matrix(1 0 0 -1 197 310.763)"/>
                        <path fill="#107778" d="M7.38 24.07c8.186-13.97 22.437-14.853 42.754-2.652 20.316 12.2 6.065 13.084-42.754 2.651z" transform="translate(-8 -40) translate(8 40) translate(22 13) matrix(1 0 0 -1 197 310.763) rotate(34 33.235 22.084)"/>
                        <path fill="#107778" d="M24.647 40.17c5.534-23.747 15.168-25.25 28.902-4.508 13.734 20.742 4.1 22.244-28.902 4.508z" transform="translate(-8 -40) translate(8 40) translate(22 13) matrix(1 0 0 -1 197 310.763) rotate(178 42.125 36.795)"/>
                        <path fill="#107778" d="M10.4 35.886c4.912-8.38 13.463-8.911 25.653-1.59 12.19 7.32 3.639 7.85-25.653 1.59z" transform="translate(-8 -40) translate(8 40) translate(22 13) matrix(1 0 0 -1 197 310.763) rotate(-40 25.913 34.695)"/>
                        <path fill="#9EDEDA" d="M12.24 45.085c4.912-8.38 13.462-8.911 25.652-1.59 12.19 7.32 3.64 7.85-25.652 1.59z" transform="translate(-8 -40) translate(8 40) translate(22 13) matrix(1 0 0 -1 197 310.763) rotate(-95 27.753 43.894)"/>
                        <path fill="#9EDEDA" d="M36.157 24.848c4.912-8.382 13.463-8.912 25.653-1.591 12.19 7.32 3.639 7.85-25.653 1.59z" transform="translate(-8 -40) translate(8 40) translate(22 13) matrix(1 0 0 -1 197 310.763) rotate(157 51.67 23.656)"/>
                        <path fill="#9EDEDA" d="M32 31.067c2.78-10.244 8.505-16.169 17.176-17.776.399-.074.804-.145 1.217-.212 2.45-.4 5.653-1.07 9.607-2.013l-28 20z" transform="translate(-8 -40) translate(8 40) translate(22 13) matrix(1 0 0 -1 197 310.763)"/>
                    </g>
                    <g>
                        <path fill="#FEC602" d="M0 30.745c8.073-14.426 22.13-15.339 42.167-2.738C62.205 40.607 48.15 41.519 0 30.745z" transform="translate(-8 -40) translate(8 40) translate(22 13) translate(192 271.805)"/>
                        <path fill="#FA0" d="M7.38 24.07c8.186-13.97 22.437-14.853 42.754-2.652 20.316 12.2 6.065 13.084-42.754 2.651z" transform="translate(-8 -40) translate(8 40) translate(22 13) translate(192 271.805) rotate(34 33.235 22.084)"/>
                        <path fill="#FA0" d="M24.647 40.17c5.534-23.747 15.168-25.25 28.902-4.508 13.734 20.742 4.1 22.244-28.902 4.508z" transform="translate(-8 -40) translate(8 40) translate(22 13) translate(192 271.805) rotate(178 42.125 36.795)"/>
                        <path fill="#FA0" d="M10.4 35.886c4.912-8.38 13.463-8.911 25.653-1.59 12.19 7.32 3.639 7.85-25.653 1.59z" transform="translate(-8 -40) translate(8 40) translate(22 13) translate(192 271.805) rotate(-40 25.913 34.695)"/>
                        <path fill="#FEC602" d="M12.24 45.085c4.912-8.38 13.462-8.911 25.652-1.59 12.19 7.32 3.64 7.85-25.652 1.59z" transform="translate(-8 -40) translate(8 40) translate(22 13) translate(192 271.805) rotate(-95 27.753 43.894)"/>
                        <path fill="#FEC602" d="M36.157 24.848c4.912-8.382 13.463-8.912 25.653-1.591 12.19 7.32 3.639 7.85-25.653 1.59z" transform="translate(-8 -40) translate(8 40) translate(22 13) translate(192 271.805) rotate(157 51.67 23.656)"/>
                        <path fill="#FEC602" d="M32 31.195c2.78-10.243 8.505-16.169 17.176-17.776.399-.074.804-.144 1.217-.212 2.45-.4 5.653-1.07 9.607-2.012l-28 20z" transform="translate(-8 -40) translate(8 40) translate(22 13) translate(192 271.805)"/>
                    </g>
                    <g>
                        <path fill="#FFB7A2" d="M.41 30.574c8.074-14.426 22.13-15.339 42.168-2.738C62.616 40.436 48.56 41.349.41 30.574z" transform="translate(-8 -40) translate(8 40) translate(22 13) translate(176.59 285.976)"/>
                        <path fill="#FA7048" d="M7.38 24.07c8.186-13.97 22.437-14.853 42.754-2.652 20.316 12.2 6.065 13.084-42.754 2.651z" transform="translate(-8 -40) translate(8 40) translate(22 13) translate(176.59 285.976) rotate(34 33.235 22.084)"/>
                        <path fill="#FA7048" d="M24.647 40.17c5.534-23.747 15.168-25.25 28.902-4.508 13.734 20.742 4.1 22.244-28.902 4.508z" transform="translate(-8 -40) translate(8 40) translate(22 13) translate(176.59 285.976) rotate(178 42.125 36.795)"/>
                        <path fill="#FA7048" d="M10.4 35.886c4.912-8.38 13.463-8.911 25.653-1.59 12.19 7.32 3.639 7.85-25.653 1.59z" transform="translate(-8 -40) translate(8 40) translate(22 13) translate(176.59 285.976) rotate(-40 25.913 34.695)"/>
                        <path fill="#FFB7A2" d="M12.24 45.085c4.912-8.38 13.462-8.911 25.652-1.59 12.19 7.32 3.64 7.85-25.652 1.59z" transform="translate(-8 -40) translate(8 40) translate(22 13) translate(176.59 285.976) rotate(-95 27.753 43.894)"/>
                        <path fill="#FFB7A2" d="M36.157 24.848c4.912-8.382 13.463-8.912 25.653-1.591 12.19 7.32 3.639 7.85-25.653 1.59z" transform="translate(-8 -40) translate(8 40) translate(22 13) translate(176.59 285.976) rotate(157 51.67 23.656)"/>
                        <path fill="#FFB7A2" d="M32.41 31.024c2.78-10.243 8.505-16.168 17.177-17.776.398-.074.804-.144 1.216-.212 2.45-.4 5.653-1.07 9.607-2.012l-28 20z" transform="translate(-8 -40) translate(8 40) translate(22 13) translate(176.59 285.976)"/>
                    </g>
                    <g>
                        <path fill="#EAD4A8" d="M35.97 119.636c17.581-10.564 43.364-25 54.457-32.72 11.092-7.722-37.286 9.765-54.355 9.405-17.07-.36-24.54 11.167-30.432 21.673-5.892 10.507 12.75 12.205 30.33 1.642z" transform="translate(-8 -40) translate(8 40) translate(22 13) rotate(31 48.296 105.855)"/>
                        <path fill="#EAD4A8" d="M308.87 140.214c16.856-.057-8.1-22.732 3.043-30.824 11.143-8.093-13.154 3.04-30.011 3.098-16.857.056-23.825 1.415-44.671 15.835-12.085 12.168 54.781 11.947 71.638 11.89z" transform="translate(-8 -40) translate(8 40) translate(22 13) scale(-1 1) rotate(-4 0 8008.206)"/>
                        <g transform="translate(-8 -40) translate(8 40) translate(22 13) translate(5.023)">
                            <mask id="sw6kvw1gpb" fill="#fff">
                                <use xlink:href="#5z9o80m7ua"/>
                            </mask>
                            <use fill="#FFF3CA" xlink:href="#5z9o80m7ua"/>
                            <path stroke="#FF9779" stroke-width="24.192" d="M52.172 48.501c20.951 8.752 57.67 16.744 110.157 23.976 52.487 7.233 94.015 12.03 124.584 14.39" mask="url(#sw6kvw1gpb)"/>
                            <path stroke="#647780" stroke-width="6.311" d="M52.172 59.013c20.951 8.751 57.67 16.743 110.157 23.976 52.487 7.232 94.015 12.03 124.584 14.39" mask="url(#sw6kvw1gpb)"/>
                        </g>
                    </g>
                    <g>
                        <path fill="#9EDEDA" d="M0 30.617c8.073-14.426 22.13-15.339 42.167-2.739C62.205 40.478 48.15 41.391 0 30.617z" transform="translate(-8 -40) translate(8 40) translate(22 13) matrix(1 0 0 -1 52 328.763)"/>
                        <path fill="#107778" d="M7.38 24.07c8.186-13.97 22.437-14.853 42.754-2.652 20.316 12.2 6.065 13.084-42.754 2.651z" transform="translate(-8 -40) translate(8 40) translate(22 13) matrix(1 0 0 -1 52 328.763) rotate(34 33.235 22.084)"/>
                        <path fill="#107778" d="M24.647 40.17c5.534-23.747 15.168-25.25 28.902-4.508 13.734 20.742 4.1 22.244-28.902 4.508z" transform="translate(-8 -40) translate(8 40) translate(22 13) matrix(1 0 0 -1 52 328.763) rotate(178 42.125 36.795)"/>
                        <path fill="#107778" d="M10.4 35.886c4.912-8.38 13.463-8.911 25.653-1.59 12.19 7.32 3.639 7.85-25.653 1.59z" transform="translate(-8 -40) translate(8 40) translate(22 13) matrix(1 0 0 -1 52 328.763) rotate(-40 25.913 34.695)"/>
                        <path fill="#9EDEDA" d="M12.24 45.085c4.912-8.38 13.462-8.911 25.652-1.59 12.19 7.32 3.64 7.85-25.652 1.59z" transform="translate(-8 -40) translate(8 40) translate(22 13) matrix(1 0 0 -1 52 328.763) rotate(-95 27.753 43.894)"/>
                        <path fill="#9EDEDA" d="M36.157 24.848c4.912-8.382 13.463-8.912 25.653-1.591 12.19 7.32 3.639 7.85-25.653 1.59z" transform="translate(-8 -40) translate(8 40) translate(22 13) matrix(1 0 0 -1 52 328.763) rotate(157 51.67 23.656)"/>
                        <path fill="#9EDEDA" d="M32 31.067c2.78-10.244 8.505-16.169 17.176-17.776.399-.074.804-.145 1.217-.212 2.45-.4 5.653-1.07 9.607-2.013l-28 20z" transform="translate(-8 -40) translate(8 40) translate(22 13) matrix(1 0 0 -1 52 328.763)"/>
                    </g>
                </g>
            </g>
        </g>
    </g>
</svg>
