<svg xmlns="http://www.w3.org/2000/svg" xmlns:xlink="http://www.w3.org/1999/xlink" width="360" height="440" viewBox="0 0 360 440">
    <defs>
        <path id="5mvuzzhc9a" d="M1.458.76c18.954 9.754 37.9 14.63 56.837 14.63 18.903 0 37.313-4.859 55.228-14.577.486-.264 1.093-.083 1.356.402.08.146.121.31.121.477V65H0V1.649c0-.552.448-1 1-1 .16 0 .316.038.458.11z"/>
    </defs>
    <g fill="none" fill-rule="evenodd">
        <g>
            <g>
                <g>
                    <g>
                        <g transform="translate(-8 -40) translate(8 40) translate(81 6.275)">
                            <path fill="#196CC7" d="M174.22 69.463L203 70.633c4.811.196 8.553 4.255 8.357 9.066-.105 2.604-1.37 5.024-3.447 6.597L193.009 97.58c-2.896 2.194-6.456 3.33-10.087 3.218l-23.575-.723c-5.175-.158-9.241-4.482-9.083-9.657.07-2.277.967-4.45 2.522-6.114l9.171-9.811c3.16-3.382 7.638-5.218 12.263-5.03z" transform="rotate(16 182.962 85.068)"/>
                            <path fill="#0E7CF4" d="M96.514 0C192.844 0 196 71.472 196 97.098c0 18.052-22.407 14.63-54.86 11.03.81-2.204.861-5.89.861-11.81 0-23.238-12.62-44.253-45.174-44.253S53.002 70.874 53.002 94.111v2.006c.002 5.551.058 9.007.97 11.092C21.383 109.996 0 112.834 0 97.098l.001-1.37C.046 72.335 2.111 0 96.514 0z"/>
                            <path stroke="#196CC7" stroke-width="5" d="M142.001 107.725c0-34.801-12.62-56.068-45.174-56.068s-42.831 19.507-42.831 56.068"/>
                            <path fill="#ADC3CD" d="M57.203 91.725H161c2.761 0 5 2.238 5 5v6c0 2.761-2.239 5-5 5H56.367l.836-16z"/>
                            <rect width="25" height="18" x="110" y="90.725" fill="#196CC7" rx="2"/>
                        </g>
                        <g transform="translate(-8 -40) translate(8 40) translate(81 6.275) translate(41 275.725)">
                            <mask id="7tx49rcbqb" fill="#fff">
                                <use xlink:href="#5mvuzzhc9a"/>
                            </mask>
                            <use fill="#EEF8F7" xlink:href="#5mvuzzhc9a"/>
                            <ellipse cx="58" cy="-18" stroke="#0E7CF4" stroke-width="5" mask="url(#7tx49rcbqb)" rx="75.765" ry="40.5"/>
                            <ellipse cx="57" cy="-12" stroke="#FF9779" stroke-width="2" mask="url(#7tx49rcbqb)" rx="77.265" ry="42"/>
                        </g>
                        <path stroke="#D7D7D7" stroke-linejoin="round" stroke-width="5" d="M12.354 201.208l.13-.508c-2.425 8.1-2.631 12.4-.618 12.899 2.014.5 3.426-.991 4.236-4.473M184.244 201.208l-.13-.508c2.425 8.1 2.631 12.4.618 12.899-2.014.5-3.426-.991-4.236-4.473" transform="translate(-8 -40) translate(8 40) translate(81 6.275)"/>
                        <path stroke="#FFF" stroke-dasharray="1 6" stroke-linecap="round" stroke-width="5" d="M36.07 296.875c2.814 26.624 23.505 39.936 62.075 39.936 38.57 0 59.548-13.312 62.935-39.936" transform="translate(-8 -40) translate(8 40) translate(81 6.275)"/>
                    </g>
                </g>
            </g>
        </g>
    </g>
</svg>
