<svg xmlns="http://www.w3.org/2000/svg" xmlns:xlink="http://www.w3.org/1999/xlink" width="360" height="440" viewBox="0 0 360 440">
    <defs>
        <linearGradient id="qcxixeokqa" x1="9.553%" x2="50%" y1="64.052%" y2="39.023%">
            <stop offset="0%" stop-color="#D6E3E8" stop-opacity="0"/>
            <stop offset="100%" stop-color="#ADC3CD"/>
        </linearGradient>
        <linearGradient id="z2lwmpw3ub" x1="50%" x2="50%" y1="17.105%" y2="100%">
            <stop offset="0%" stop-color="#23C6A4" stop-opacity="0"/>
            <stop offset="100%" stop-color="#0F946A"/>
        </linearGradient>
        <path id="jj3j3fn6yc" d="M123.584 19.355c5.934-.44 29.756 4.796 36.158 5.007 2.064.069-1.752 3.139.275 3.145 11.063.033 27.185-3.699 33.69-2.951 9.919 1.139 12.826 4.456 14.486 6.508 1.746 2.16-2.491 6.243.13 15.672.475 1.707 1.065 3.377 1.716 4.987 3.094 7.652 7.562 13.931 7.505 16.208-.063 2.555-1.15 3.612-.828 6.926.242 2.503-2.077 3.203-1.442 6.496.635 3.292 5.747 2.768 1.88 10.873-2.561 5.37-15.444-7.438-44.562-12.847-1.53-.284.02-7.615-2.515-7.29-5.347.685-15.745 9.604-19.395 9.21-7.466-.807-13.38-3.565-21.971-3.273-4.526.154-10.467 3.048-15.27 3.569-3.712.402-8.576 3.53-12.128 4.028-21.852 3.06-47.94 11.384-78.264 24.972-1.482.664-3.214.416-4.45-.637-5.533-4.714-8.53-8.28-8.992-10.698-.774-4.055 1.475-3.234 1.006-5.691-.396-2.072-4.786-2.635-5.189-4.743-.402-2.108 3.598-3.592 3.27-5.315-.37-1.938-3.053-1.66-2.954-4.514.099-2.853 4.138-3.256 4.35-4.402 1.64-8.874.043-11.867 2.19-15.997.374-.722-9.797-9.425-5.4-12.683 7.669-5.683 31.336-13.863 37.226-15.01 18.942-3.691 44.114-4.417 62.497-5.475 4.914-.283-.352.062 5.234-.459 3.914-.365 7.344-5.29 11.747-5.616z"/>
    </defs>
    <g fill="none" fill-rule="evenodd">
        <g>
            <g>
                <g>
                    <g>
                        <path fill="#647780" d="M35.352 52.202H41.352V81.202H35.352z" transform="translate(-8.000000, -40.000000) translate(8.000000, 40.000000) translate(13.456943, 30.224712) translate(0.000000, 176.554737) translate(38.352247, 66.702178) rotate(11.000000) translate(-38.352247, -66.702178)"/>
                        <g fill-rule="nonzero">
                            <path fill="url(#qcxixeokqa)" d="M94.458 25.87c-.952-.248-1.964.025-2.661.718L72.216 46.041 16.482 31.205c-.767-.205-1.588-.071-2.252.366-.664.437-1.106 1.136-1.216 1.918-1.063 7.653-.053 15.34 2.925 22.358L0 71.615l4.131 30.627 10.05.703L38.7 78.462c15.93 6.673 34.514 3.132 46.826-9.1 10.921-10.85 15.098-26.781 10.9-41.574-.267-.94-1.016-1.67-1.969-1.918z" transform="translate(-8.000000, -40.000000) translate(8.000000, 40.000000) translate(13.456943, 30.224712) translate(0.000000, 176.554737) translate(54.766108, 52.486790) rotate(-94.000000) translate(-54.766108, -52.486790) translate(5.750447, 1.014458)"/>
                            <path fill="#647780" d="M63.808 54.176L37.826 47.34c-1.43-.374-2.91.47-3.292 1.892l-2.636 9.83c-.182.684-.084 1.412.273 2.023.359.612.947 1.058 1.638 1.24l25.982 6.836c.231.06.463.09.692.09 1.19 0 2.28-.79 2.6-1.982l2.636-9.832c.183-.685.084-1.412-.275-2.024-.357-.611-.947-1.056-1.636-1.237z" transform="translate(-8.000000, -40.000000) translate(8.000000, 40.000000) translate(13.456943, 30.224712) translate(0.000000, 176.554737) translate(54.766108, 52.486790) rotate(-94.000000) translate(-54.766108, -52.486790) translate(5.750447, 1.014458)"/>
                            <path fill="#324148" d="M46.343 59.775L47.673 54.753 51.343 55.73 50.014 60.753zM39.762 53.197L43.433 54.175 42.104 59.197 38.433 58.219zM58.853 63.375L55.182 62.398 56.511 57.375 60.182 58.353z" transform="translate(-8.000000, -40.000000) translate(8.000000, 40.000000) translate(13.456943, 30.224712) translate(0.000000, 176.554737) translate(54.766108, 52.486790) rotate(-94.000000) translate(-54.766108, -52.486790) translate(5.750447, 1.014458)"/>
                            <path fill="#C3CFD5" d="M72.521 3.556c-.245-.947-.97-1.693-1.91-1.96C55.879-2.58 40.02 1.577 29.22 12.442c-3.454 3.474-6.264 7.516-8.351 12.017-.344.74-.344 1.593 0 2.333.344.74.993 1.288 1.776 1.5l28.256 7.615c.236.065.474.094.711.094.72 0 1.418-.283 1.941-.808.694-.697.964-1.713.712-2.666l-1.822-6.843L71.806 6.206c.69-.694.962-1.7.715-2.65z" transform="translate(-8.000000, -40.000000) translate(8.000000, 40.000000) translate(13.456943, 30.224712) translate(0.000000, 176.554737) translate(54.766108, 52.486790) rotate(-94.000000) translate(-54.766108, -52.486790) translate(5.750447, 1.014458)"/>
                            <path fill="#C3CFD5" d="M47.796 21.76c-.694.673-.964 1.654-.712 2.574l1.003 3.635-20.37-5.3c1.584-2.654 3.506-5.083 5.735-7.246 8.245-8.007 19.876-11.68 31.265-10.091L47.796 21.76z" transform="translate(-8.000000, -40.000000) translate(8.000000, 40.000000) translate(13.456943, 30.224712) translate(0.000000, 176.554737) translate(54.766108, 52.486790) rotate(-94.000000) translate(-54.766108, -52.486790) translate(5.750447, 1.014458)"/>
                        </g>
                    </g>
                    <g>
                        <path fill="url(#z2lwmpw3ub)" d="M63.05 0.738L63.05 36.037 51.932 36.037 51.932 9.464 61.996 0z" transform="translate(-8.000000, -40.000000) translate(8.000000, 40.000000) translate(13.456943, 30.224712) translate(268.282202, 243.103685) rotate(-125.000000) translate(-268.282202, -243.103685) translate(210.782202, 189.311120)"/>
                        <g fill="#3F5159" transform="translate(-8.000000, -40.000000) translate(8.000000, 40.000000) translate(13.456943, 30.224712) translate(268.282202, 243.103685) rotate(-125.000000) translate(-268.282202, -243.103685) translate(210.782202, 189.311120) translate(0.000000, 32.373416)">
                            <rect width="115" height="6.063" y="69.149" rx="3.031"/>
                            <path d="M50.54 23.696h13.917c25.103 0 45.453 20.35 45.453 45.453H5.087c0-25.103 20.35-45.453 45.453-45.453z"/>
                            <path d="M51.121 8.829h13.71c2.722 0 4.928 2.206 4.928 4.928v8.333c0 3.43 3.271 4.36 4.894 4.36-7.723 4.635-27.19 4.374-34.255 0 1.655 0 5.796-1.502 5.796-4.575v-8.118c0-2.722 2.206-4.928 4.927-4.928z"/>
                            <path d="M54.963 0h4.97c2.72 0 4.927 2.206 4.927 4.928v9.79H50.036v-9.79C50.036 2.206 52.242 0 54.963 0z"/>
                        </g>
                    </g>
                    <g>
                        <g transform="translate(-8.000000, -40.000000) translate(8.000000, 40.000000) translate(13.456943, 30.224712) translate(165.543057, 68.775288) rotate(-3.000000) translate(-165.543057, -68.775288) translate(53.543057, 5.775288) translate(0.000000, -0.000000)">
                            <use fill="#F3F6F7" transform="translate(111.991893, 65.500377) rotate(8.000000) translate(-111.991893, -65.500377)" xlink:href="#jj3j3fn6yc"/>
                            <path fill="#FFF" d="M159.804 94.741c2.433-.002 13.217-3.057 15.103-3.656 12.171-3.863 12.46-22.972 12.473-38.99.008-9.215 1.318-23.643 3.93-43.284.153-1.152-.656-2.21-1.809-2.363-.35-.047-.706-.005-1.035.122-15.798 6.097-25.057 11.168-27.777 15.212-14.145 21.033-13.21 14.675-13.226 33.175-.01 10.86-1.958 19.732.182 28.536.585 2.406 5.557 2.995 6.037 5.803.548 3.216 1.542 5.45 6.122 5.445z" transform="translate(169.212026, 50.026505) rotate(27.000000) translate(-169.212026, -50.026505)"/>
                            <path fill="#FFF" d="M164.585 107.895c18.13.02 25.38-32.074 25.357-54.568-.021-20.166 1.405-44.757-.377-45.134-1.782-.377-21.397 6.235-23.273 6.233-18.13-.019-16.269 19.804-16.245 42.297.012 12.136-5.363 24.707-3.014 32.682.391 1.328 1.593 1.042 2.31 2.08.324.47 1.76 3.988 2.105 4.585 2.803 4.838 7.155 11.82 13.137 11.825z" transform="translate(168.450775, 58.036381) rotate(-39.000000) translate(-168.450775, -58.036381)"/>
                        </g>
                    </g>
                </g>
            </g>
        </g>
    </g>
</svg>
