<svg xmlns="http://www.w3.org/2000/svg" xmlns:xlink="http://www.w3.org/1999/xlink" width="32" height="32" viewBox="0 0 32 32">
    <defs>
        <path id="tvn1mg2tra" d="M0 0L25 0 25 24.913 0 24.913z"/>
    </defs>
    <g fill="none" fill-rule="evenodd">
        <g>
            <g>
                <g>
                    <g transform="translate(-350.000000, -280.000000) translate(350.000000, 280.000000) translate(3.500000, 4.000000)">
                        <mask id="lc7bjp4eqb" fill="#fff">
                            <use xlink:href="#tvn1mg2tra"/>
                        </mask>
                        <path fill="#00F5B3" d="M12.5 2.773L23.298.042c.734-.186 1.478.266 1.661 1.008.027.11.041.224.041.337v19.281c0 .636-.429 1.191-1.038 1.345l-11.462 2.9-11.462-2.9C.428 21.859 0 21.304 0 20.668V1.387C0 .62.613 0 1.37 0c.112 0 .224.014.332.042L12.5 2.773z" mask="url(#lc7bjp4eqb)"/>
                    </g>
                    <path fill="#27E5A8" d="M12.5 24.98c.71 0 1.284-.575 1.284-1.284V3.664c0-.71-.575-1.284-1.284-1.284-.71 0-1.284.575-1.284 1.284v20.032c0 .71.575 1.284 1.284 1.284z" transform="translate(-350.000000, -280.000000) translate(350.000000, 280.000000) translate(3.500000, 4.000000)"/>
                    <path fill="#24A09A" d="M16.863 5.775l5.48-1.492c.181-.049.37.06.42.245.007.03.01.06.01.09v2.358c0 .157-.104.295-.253.335l-5.48 1.492c-.182.049-.37-.06-.419-.245-.007-.03-.012-.06-.012-.09V6.11c0-.157.104-.294.254-.335" transform="translate(-350.000000, -280.000000) translate(350.000000, 280.000000) translate(3.500000, 4.000000)"/>
                </g>
            </g>
        </g>
    </g>
</svg>
