<svg xmlns="http://www.w3.org/2000/svg" xmlns:xlink="http://www.w3.org/1999/xlink" width="32" height="32" viewBox="0 0 32 32">
    <defs>
        <path id="fiu352gmda" d="M0 0L26.941 0 26.941 20.998 0 20.998z"/>
    </defs>
    <g fill="none" fill-rule="evenodd">
        <g>
            <g>
                <g>
                    <g transform="translate(-790.000000, -280.000000) translate(790.000000, 280.000000) translate(2.500000, 1.730046) translate(0.000000, 7.536348)">
                        <mask id="q2sicjjnlb" fill="#fff">
                            <use xlink:href="#fiu352gmda"/>
                        </mask>
                        <path fill="#FFA300" d="M16.65 20.998h-6.36c-7.008 0-11.963-5.695-9.762-11.222l5.704-7.33C7.288 1.03 8.456 0 10.307 0h6.327c1.851 0 2.857.905 4.075 2.445l5.704 7.331c2.2 5.527-2.755 11.222-9.762 11.222" mask="url(#q2sicjjnlb)"/>
                    </g>
                    <path fill="#E8CC23" d="M12.952 24.073c.17.027.343.04.519.04h-.519v-.04zM13.47 24.118c.25 0 .494-.028.731-.082v.082h-.73z" transform="translate(-790.000000, -280.000000) translate(790.000000, 280.000000) translate(2.500000, 1.730046)"/>
                    <path fill="#FFA300" d="M19.78 2.043l-1.892 2.431c-.705.793-1.357 1.493-2.487 1.493H11.54c-1.13 0-1.726-.65-2.488-1.493L7.16 2.043C6.475 1.162 7.236 0 8.5 0h9.941c1.263 0 2.025 1.162 1.34 2.043" transform="translate(-790.000000, -280.000000) translate(790.000000, 280.000000) translate(2.500000, 1.730046)"/>
                    <path fill="#107778" d="M13.885 21.164c0 .163 0 .333-.473.333-.374 0-.746-.157-1.208-.509l-.255-.195-.987 1.518.188.17c.482.438 1.13.687 1.655.793v1.984c-2.677-.328-4.75-2.61-4.75-5.374 0-2.765 2.073-5.047 4.75-5.375v1.837c-.945.284-1.502 1.05-1.502 2.09 0 1.199 1.012 1.715 1.752 2.091.407.208.83.422.83.637" transform="translate(-790.000000, -280.000000) translate(790.000000, 280.000000) translate(2.500000, 1.730046)"/>
                    <path fill="#107778" d="M18.885 19.884c0 2.67-1.932 4.89-4.475 5.334v-2.02c.968-.302 1.536-1.088 1.536-2.146 0-1.29-1.054-1.79-1.822-2.156-.36-.17-.768-.364-.768-.53 0-.167 0-.298.402-.298.298 0 .54.114.864.407l.226.203 1.131-1.31-.178-.196c-.407-.443-.865-.724-1.391-.854V14.55c2.543.444 4.475 2.664 4.475 5.334" transform="translate(-790.000000, -280.000000) translate(790.000000, 280.000000) translate(2.500000, 1.730046)"/>
                    <path fill="#E8CC23" d="M12.952 25.034h.519c-.176 0-.349-.17-.519-.5v.5zm.519 0h.73v-1c-.237.66-.481 1-.73 1z" transform="translate(-790.000000, -280.000000) translate(790.000000, 280.000000) translate(2.500000, 1.730046)"/>
                </g>
            </g>
        </g>
    </g>
</svg>
