<svg xmlns="http://www.w3.org/2000/svg" xmlns:xlink="http://www.w3.org/1999/xlink" width="32" height="32" viewBox="0 0 32 32">
    <defs>
        <path id="yfuyq3qi8a" d="M0 0L28 0 28 21 0 21z"/>
    </defs>
    <g fill="none" fill-rule="evenodd">
        <g>
            <g>
                <g>
                    <g transform="translate(-830.000000, -280.000000) translate(830.000000, 280.000000) translate(2.000000, 5.500000)">
                        <mask id="h9ylohzo4b" fill="#fff">
                            <use xlink:href="#yfuyq3qi8a"/>
                        </mask>
                        <path fill="#FF6628" d="M28 6.757v7.486C28 17.96 24.972 21 21.27 21H6.73C3.028 21 0 17.96 0 14.243V6.757C0 3.04 3.028 0 6.73 0h14.54C24.972 0 28 3.04 28 6.757" mask="url(#h9ylohzo4b)"/>
                    </g>
                    <path fill="#FFB7A2" d="M10.645 12.387c0 1.12-.905 2.03-2.022 2.03-1.116 0-2.02-.91-2.02-2.03 0-1.121.904-2.03 2.02-2.03 1.117 0 2.022.909 2.022 2.03" transform="translate(-830.000000, -280.000000) translate(830.000000, 280.000000) translate(2.000000, 5.500000)"/>
                    <path fill="#0E7CF4" d="M15.361 7.775c0 1.315-1.061 2.38-2.37 2.38-1.31 0-2.372-1.065-2.372-2.38s1.062-2.38 2.371-2.38c1.31 0 2.371 1.065 2.371 2.38" transform="translate(-830.000000, -280.000000) translate(830.000000, 280.000000) translate(2.000000, 5.500000)"/>
                    <path fill="#107778" d="M15.011 12.981c0 .793-.64 1.435-1.429 1.435-.79 0-1.43-.642-1.43-1.435 0-.792.64-1.435 1.43-1.435.79 0 1.43.643 1.43 1.435" transform="translate(-830.000000, -280.000000) translate(830.000000, 280.000000) translate(2.000000, 5.500000)"/>
                    <path fill="#FFED0F" d="M21.546 11.77c0 1.462-1.18 2.646-2.635 2.646-1.455 0-2.635-1.184-2.635-2.645s1.18-2.646 2.635-2.646c1.455 0 2.635 1.185 2.635 2.646" transform="translate(-830.000000, -280.000000) translate(830.000000, 280.000000) translate(2.000000, 5.500000)"/>
                </g>
            </g>
        </g>
    </g>
</svg>
