<svg xmlns="http://www.w3.org/2000/svg" xmlns:xlink="http://www.w3.org/1999/xlink" width="32" height="32" viewBox="0 0 32 32">
    <defs>
        <path id="q65crltpsa" d="M0 0L11.315 0 11.315 11.297 0 11.297z"/>
        <path id="o1jxk2t6lc" d="M0 0L26 0 26 14.703 0 14.703z"/>
    </defs>
    <g fill="none" fill-rule="evenodd">
        <g>
            <g>
                <g>
                    <path fill="#51638C" d="M5.688 1.723L0 11.297 0 12.915 26 12.915 26 11.297 21.126 2.086 19.1 1.723z" transform="translate(-550.000000, -280.000000) translate(550.000000, 280.000000) translate(3.000000, 3.000000)"/>
                    <g>
                        <path fill="#196CC7" d="M12.634 2.761v7.497c0 .573-.463 1.039-1.035 1.039H0l4.775-9.023c.18-.34.53-.551.913-.551H11.6c.572 0 1.035.465 1.035 1.038" transform="translate(-550.000000, -280.000000) translate(550.000000, 280.000000) translate(3.000000, 3.000000) translate(0.000007, 0.000000)"/>
                        <g transform="translate(-550.000000, -280.000000) translate(550.000000, 280.000000) translate(3.000000, 3.000000) translate(0.000007, 0.000000) translate(14.685027, 0.000000)">
                            <mask id="twmukiiqwb" fill="#fff">
                                <use xlink:href="#q65crltpsa"/>
                            </mask>
                            <path fill="#00CDC3" d="M11.315 11.297L.843 9.322C.355 9.23 0 8.801 0 8.301V1.04C0 .328.697-.173 1.368.056L5.86 1.59c.25.086.458.263.58.496l4.875 9.21z" mask="url(#twmukiiqwb)"/>
                        </g>
                        <g transform="translate(-550.000000, -280.000000) translate(550.000000, 280.000000) translate(3.000000, 3.000000) translate(0.000007, 0.000000) translate(0.000116, 11.296564)">
                            <mask id="q9jnvvdfed" fill="#fff">
                                <use xlink:href="#o1jxk2t6lc"/>
                            </mask>
                            <path fill="#6A80CE" d="M26 0v13.252c0 .802-.647 1.451-1.445 1.451H1.445c-.798 0-1.445-.65-1.445-1.451V0h26z" mask="url(#q9jnvvdfed)"/>
                        </g>
                        <path fill="#51638C" d="M13.563 20.52c0 .046-.004.09-.012.134-.063.337-.357.592-.71.592H3.659c-.353 0-.647-.255-.71-.592-.009-.044-.013-.088-.013-.134 0-.059.007-.115.02-.169.075-.32.362-.558.703-.558h9.182c.34 0 .627.238.702.558.013.054.02.11.02.169M10.303 18.03c0 .046-.005.09-.013.134-.062.338-.356.593-.71.593H3.66c-.354 0-.648-.255-.712-.593-.008-.043-.012-.088-.012-.134 0-.058.007-.115.02-.169.075-.32.362-.557.703-.557h5.92c.342 0 .628.237.704.557.013.054.02.11.02.169" transform="translate(-550.000000, -280.000000) translate(550.000000, 280.000000) translate(3.000000, 3.000000) translate(0.000007, 0.000000)"/>
                    </g>
                </g>
            </g>
        </g>
    </g>
</svg>
