<svg xmlns="http://www.w3.org/2000/svg" xmlns:xlink="http://www.w3.org/1999/xlink" width="32" height="32" viewBox="0 0 32 32">
    <defs>
        <path id="jhzj5z73ga" d="M0 0L27 0 27 27 0 27z"/>
    </defs>
    <g fill="none" fill-rule="evenodd">
        <g>
            <g>
                <g>
                    <g transform="translate(-270.000000, -280.000000) translate(270.000000, 280.000000) translate(2.500000, 2.500000)">
                        <mask id="dw2u3xwngb" fill="#fff">
                            <use xlink:href="#jhzj5z73ga"/>
                        </mask>
                        <path fill="#FF625E" d="M12.998 1.876l-1.27.461.924 2.537 1.27-.461-.924-2.537zm6.125 1.409l-.971.938 1.876 1.942.97-.938-1.875-1.942zm-11.037-.07L6.902 5.644l1.213.591L9.3 3.807l-1.213-.591zm9.864 2.476l-2.567.834.416 1.284 2.568-.834-.417-1.284zm-7.52 1.26L7.942 8.007l.528 1.242 2.486-1.053-.528-1.243zm-6.47.523l-.734 1.132 2.264 1.47.735-1.132-2.265-1.47zm16.82.474l-.97 2.52 1.262.484.967-2.52-1.26-.484zm4.5 3.054l-2.487 1.054.528 1.242 2.486-1.053-.528-1.243zm-20.066.862l-2.631.606.303 1.316 2.63-.606-.302-1.316zM13.5 9.45c-2.237 0-4.05 1.814-4.05 4.05 0 2.236 1.813 4.05 4.05 4.05 2.236 0 4.05-1.814 4.05-4.05 0-2.236-1.814-4.05-4.05-4.05zm0-9.45C20.956 0 27 6.044 27 13.5S20.956 27 13.5 27 0 20.956 0 13.5 6.044 0 13.5 0z" mask="url(#dw2u3xwngb)"/>
                    </g>
                    <path fill="#FF84FE" d="M17.95 5.691L18.367 6.975 15.799 7.809 15.383 6.525zM8.085 3.216L9.298 3.807 8.115 6.234 6.902 5.642z" transform="translate(-270.000000, -280.000000) translate(270.000000, 280.000000) translate(2.500000, 2.500000)"/>
                    <path fill="#00CDC3" d="M25.279 11.001L25.807 12.244 23.321 13.299 22.793 12.056zM10.429 6.951L10.957 8.194 8.471 9.249 7.943 8.006z" transform="translate(-270.000000, -280.000000) translate(270.000000, 280.000000) translate(2.500000, 2.500000)"/>
                    <path fill="#FF84FE" d="M2.886 13.787L2.583 12.471 5.214 11.863 5.517 13.179z" transform="translate(-270.000000, -280.000000) translate(270.000000, 280.000000) translate(2.500000, 2.500000)"/>
                    <path fill="#00CDC3" d="M20.998 5.227L20.027 6.165 18.152 4.223 19.123 3.285z" transform="translate(-270.000000, -280.000000) translate(270.000000, 280.000000) translate(2.500000, 2.500000)"/>
                    <path fill="#FFED0F" d="M20.779 7.948L22.039 8.431 21.071 10.952 19.811 10.469zM3.225 8.606L3.96 7.474 6.225 8.944 5.49 10.076zM13.921 4.413L12.652 4.874 11.729 2.337 12.998 1.875z" transform="translate(-270.000000, -280.000000) translate(270.000000, 280.000000) translate(2.500000, 2.500000)"/>
                </g>
            </g>
        </g>
    </g>
</svg>
