<svg xmlns="http://www.w3.org/2000/svg" width="32" height="32" viewBox="0 0 32 32">
    <g fill="none" fill-rule="evenodd">
        <g>
            <g>
                <g>
                    <path fill="#0E7CF4" d="M8.85 10.13l2.718 1.114c.175-.127.368-.237.571-.327l.207-.084.361-3.021c-1.583.219-2.96 1.083-3.856 2.318zm5.457-2.316l.347 3.02c.211.076.412.174.598.288l.18.122 2.717-1.114c-.893-1.23-2.265-2.094-3.842-2.316zm4.587 3.714l-2.322 1.562c.021.134.042.27.042.41 0 .092-.01.183-.021.275l-.02.134 2.321 1.56c.225-.614.348-1.277.348-1.97 0-.692-.123-1.356-.348-1.97zM7.76 13.5c0 .693.122 1.356.347 1.97l2.322-1.56c-.02-.134-.041-.27-.041-.41 0-.093.009-.184.021-.274l.02-.135-2.322-1.562c-.225.615-.347 1.279-.347 1.971zm3.809 2.255L8.85 16.87c.893 1.231 2.265 2.094 3.842 2.315l-.347-3.02c-.21-.076-.412-.172-.598-.288l-.18-.122zm3.864 0c-.175.128-.368.238-.571.327l-.207.084-.361 3.021c1.583-.219 2.96-1.082 3.856-2.317l-2.717-1.115zM13.5 0C20.955 0 27 6.044 27 13.5 27 20.954 20.955 27 13.5 27S0 20.954 0 13.5C0 6.043 6.045 0 13.5 0z" transform="translate(-310.000000, -280.000000) translate(310.000000, 280.000000) translate(2.500000, 2.500000)"/>
                    <path fill="#107678" d="M13.382 6.631c-3.722 0-6.75 3.029-6.75 6.75 0 3.723 3.028 6.75 6.75 6.75s6.75-3.027 6.75-6.75c0-3.721-3.028-6.75-6.75-6.75m0 15.632c-4.898 0-8.882-3.984-8.882-8.882C4.5 8.484 8.484 4.5 13.382 4.5c4.897 0 8.881 3.984 8.881 8.881 0 4.898-3.984 8.882-8.88 8.882" transform="translate(-310.000000, -280.000000) translate(310.000000, 280.000000) translate(2.500000, 2.500000)"/>
                    <path fill="#006C6D" d="M13.498 12.12c.761 0 1.378.617 1.378 1.378 0 .761-.617 1.379-1.378 1.379-.761 0-1.378-.618-1.378-1.38 0-.76.617-1.377 1.378-1.377" transform="translate(-310.000000, -280.000000) translate(310.000000, 280.000000) translate(2.500000, 2.500000)"/>
                </g>
            </g>
        </g>
    </g>
</svg>
