<svg xmlns="http://www.w3.org/2000/svg" xmlns:xlink="http://www.w3.org/1999/xlink" width="32" height="32" viewBox="0 0 32 32">
    <defs>
        <path id="l82vkpcwya" d="M0 0L28 0 28 22 0 22z"/>
    </defs>
    <g fill="none" fill-rule="evenodd">
        <g>
            <g>
                <g>
                    <g transform="translate(-390.000000, -280.000000) translate(390.000000, 280.000000) translate(2.000000, 5.000000)">
                        <path fill="#FEC602" d="M20.65 6.875c-.739 0-1.338.589-1.338 1.314 0 .727.599 1.315 1.339 1.315.738 0 1.337-.588 1.337-1.315 0-.725-.599-1.314-1.337-1.314zm3.213 3.154c-.74 0-1.34.59-1.34 1.315 0 .726.6 1.314 1.34 1.314.738 0 1.338-.588 1.338-1.314 0-.725-.6-1.315-1.338-1.315zm-6.424 0c-.74 0-1.34.59-1.34 1.315 0 .726.6 1.314 1.34 1.314.738 0 1.338-.588 1.338-1.314 0-.725-.6-1.315-1.338-1.315zm3.212 3.155c-.74 0-1.339.588-1.339 1.314 0 .726.599 1.315 1.339 1.315.738 0 1.337-.589 1.337-1.315s-.599-1.314-1.337-1.314zM9.799 6.875H6.3l-.001 2.75h-2.8v3.438h2.8l.001 2.75h3.5v-2.75h2.8V9.625H9.8v-2.75zM11 0h6.188c6.075 0 11 4.925 11 11s-4.925 11-11 11H11C4.925 22 0 17.075 0 11S4.925 0 11 0z"/>
                    </g>
                    <path fill="#196CC7" d="M20.65 6.875c.74 0 1.338.589 1.338 1.314 0 .727-.599 1.315-1.337 1.315-.74 0-1.339-.588-1.339-1.315 0-.725.599-1.314 1.339-1.314" transform="translate(-390.000000, -280.000000) translate(390.000000, 280.000000) translate(2.000000, 5.000000)"/>
                    <path fill="#FFED0F" d="M20.65 13.184c.74 0 1.338.588 1.338 1.314 0 .726-.599 1.315-1.337 1.315-.74 0-1.339-.589-1.339-1.315s.599-1.314 1.339-1.314" transform="translate(-390.000000, -280.000000) translate(390.000000, 280.000000) translate(2.000000, 5.000000)"/>
                    <path fill="#00CDC3" d="M17.438 10.03c.739 0 1.338.588 1.338 1.314 0 .726-.6 1.314-1.338 1.314-.739 0-1.338-.588-1.338-1.314 0-.726.6-1.315 1.338-1.315" transform="translate(-390.000000, -280.000000) translate(390.000000, 280.000000) translate(2.000000, 5.000000)"/>
                    <path fill="#FF625E" d="M23.862 10.03c.739 0 1.338.588 1.338 1.314 0 .726-.6 1.314-1.338 1.314-.739 0-1.338-.588-1.338-1.314 0-.726.6-1.315 1.338-1.315" transform="translate(-390.000000, -280.000000) translate(390.000000, 280.000000) translate(2.000000, 5.000000)"/>
                    <path fill="#107778" d="M9.8 6.875L9.8 9.624 12.6 9.625 12.6 13.063 9.8 13.063 9.8 15.813 6.3 15.813 6.299 13.063 3.5 13.063 3.5 9.625 6.299 9.624 6.3 6.875z" transform="translate(-390.000000, -280.000000) translate(390.000000, 280.000000) translate(2.000000, 5.000000)"/>
                </g>
            </g>
        </g>
    </g>
</svg>
