<svg xmlns="http://www.w3.org/2000/svg" xmlns:xlink="http://www.w3.org/1999/xlink" width="32" height="32" viewBox="0 0 32 32">
    <defs>
        <path id="ekvcwremia" d="M0 0L27.957 0 27.957 27.203 0 27.203z"/>
    </defs>
    <g fill="none" fill-rule="evenodd">
        <g>
            <g>
                <g>
                    <g transform="translate(-430.000000, -280.000000) translate(430.000000, 280.000000) translate(2.000000, 2.721953)">
                        <mask id="5svxmaxrzb" fill="#fff">
                            <use xlink:href="#ekvcwremia"/>
                        </mask>
                        <path fill="#FF9779" d="M27.957 14.657c0 .445-.369.807-.825.807h-3.459c-.455 0-.823.36-.823.805v10.127c0 .446-.37.807-.825.807H5.933c-.454 0-.825-.361-.825-.807V16.27c0-.445-.368-.805-.824-.805H.825c-.456 0-.825-.362-.825-.807l.748-8.626c0-.256.122-.495.333-.647l4.51-3.27.026-.017.002-.001L7.538.8l.222-.15.927-.594c.09-.058.204-.07.304-.032l.4.154 1.142.436 2.449.934.997.372 1.105-.377L17.763.52l.902-.344.405-.154c.034-.013.07-.022.106-.022h.01c.06 0 .12.02.171.053l.922.59.182.117 1.953 1.388 4.462 3.236c.21.152.334.391.334.647l.747 8.626z" mask="url(#5svxmaxrzb)"/>
                    </g>
                    <path fill="#0E7CF4" d="M15.395 10.112c0 .046-.002.091-.007.135l-.008.067c-.004.022-.007.044-.012.065-.007.038-.017.075-.027.112l-.018.054-.02.053-.021.052c-.207.463-.672.787-1.212.787-.732 0-1.324-.593-1.324-1.325 0-.686.52-1.25 1.189-1.318.044-.004.09-.007.135-.007.045 0 .089.003.132.007.022.002.045.005.067.009.036.005.071.012.106.02.034.008.069.017.102.029.017.005.033.01.05.017.364.133.653.422.786.785l.018.051c.01.034.02.068.028.102.008.035.015.07.02.106l.01.067c.004.044.006.088.006.132" transform="translate(-430.000000, -280.000000) translate(430.000000, 280.000000) translate(2.000000, 2.721953)"/>
                    <path fill="#FFED0F" d="M15.395 14.396c0 .046-.002.09-.007.135-.003.04-.01.078-.017.116l-.005.028-.01.044-.023.078c-.005.019-.012.037-.018.054-.015.041-.032.081-.05.12l-.03.056-.031.055-.026.04-.02.03-.026.036-.04.05c-.015.019-.03.037-.047.054-.018.02-.037.04-.056.058l-.046.043-.055.045c-.225.178-.51.283-.818.283-.732 0-1.324-.594-1.324-1.325 0-.732.592-1.325 1.324-1.325.352 0 .672.137.91.362l.023.022.047.049v.001c.04.044.077.09.111.14.075.108.134.228.175.357.019.062.034.126.044.192.01.066.015.133.015.202" transform="translate(-430.000000, -280.000000) translate(430.000000, 280.000000) translate(2.000000, 2.721953)"/>
                    <path fill="#29DAA1" d="M15.395 18.677c0 .046-.002.091-.007.135-.003.04-.01.078-.017.115v.007l-.006.026-.01.04-.012.046-.012.037c-.003.012-.007.025-.012.037-.035.1-.082.194-.14.28-.007.013-.016.025-.024.037l-.029.04c-.01.013-.02.027-.032.04l-.043.05-.044.047c-.03.03-.062.058-.095.085l-.044.035c-.221.168-.498.267-.798.267-.732 0-1.324-.592-1.324-1.324 0-.732.592-1.325 1.324-1.325.408 0 .773.185 1.017.475-.001 0 0 0 0 0 .018.022.036.045.053.069.018.023.034.048.05.072l.045.076v.002c.03.056.057.114.08.175l.026.08c.016.053.028.108.037.165.011.068.017.14.017.211" transform="translate(-430.000000, -280.000000) translate(430.000000, 280.000000) translate(2.000000, 2.721953)"/>
                    <path fill="#FD414A" d="M22.414 2.148c-.12-.087-.283-.086-.401.003l-5.494 4.101c-.12.09-.286.09-.406-.001l-1.884-1.425c-.12-.091-.287-.091-.408 0l-1.884 1.425c-.12.091-.286.091-.407.001L5.991 2.117c-.108-.082-.256-.09-.372-.021L7.538.8c-.148.14-.14.388.03.515l3.955 2.953c.121.09.287.09.407-.001l1.12-.847c.084-.064.134-.163.134-.268l.008-1.21h.007v-.077c0-.14-.087-.267-.217-.317l.997.372 1.105-.377c-.131.05-.218.176-.218.317l.002 1.292c0 .106.05.205.134.27l1.118.845c.12.09.286.091.406 0l3.955-2.952c.19-.142.179-.428-.02-.556l1.953 1.388z" transform="translate(-430.000000, -280.000000) translate(430.000000, 280.000000) translate(2.000000, 2.721953)"/>
                </g>
            </g>
        </g>
    </g>
</svg>
