<svg xmlns="http://www.w3.org/2000/svg" xmlns:xlink="http://www.w3.org/1999/xlink" width="32" height="32" viewBox="0 0 32 32">
    <defs>
        <path id="elvuk116ja" d="M0 0L26 0 26 19.035 0 19.035z"/>
    </defs>
    <g fill="none" fill-rule="evenodd">
        <g>
            <g>
                <g>
                    <g transform="translate(-630.000000, -280.000000) translate(630.000000, 280.000000) translate(3.000000, 3.000000) translate(0.000000, 6.964894)">
                        <mask id="ixqzvf61nb" fill="#fff">
                            <use xlink:href="#elvuk116ja"/>
                        </mask>
                        <path fill="#6AD0EF" d="M26 16.362c0 1.47-1.184 2.673-2.63 2.673H2.63c-1.447 0-2.63-1.203-2.63-2.673l.97-13.69C.97 1.203 2.152 0 3.6 0h18.8c1.446 0 2.63 1.203 2.63 2.673L26 16.362z" mask="url(#ixqzvf61nb)"/>
                    </g>
                    <path fill="#6A80CE" d="M16.712 10.477c0 2.08-1.665 3.771-3.712 3.771s-3.712-1.692-3.712-3.771c0-.309.246-.559.55-.559.303 0 .55.25.55.559 0 1.463 1.172 2.654 2.612 2.654 1.44 0 2.612-1.19 2.612-2.654 0-.309.246-.559.55-.559.304 0 .55.25.55.559" transform="translate(-630.000000, -280.000000) translate(630.000000, 280.000000) translate(3.000000, 3.000000)"/>
                    <path fill="#00CDC3" d="M17.754 5.237c-.295.203-.63.3-.962.3-.551 0-1.093-.268-1.425-.767-.533-.8-1.418-1.277-2.367-1.277-.95 0-1.834.477-2.367 1.277-.533.799-1.6 1.008-2.387.467-.786-.54-.992-1.627-.459-2.425C8.96 1.052 10.909 0 13 0s4.04 1.051 5.213 2.812c.533.798.327 1.884-.46 2.425" transform="translate(-630.000000, -280.000000) translate(630.000000, 280.000000) translate(3.000000, 3.000000)"/>
                </g>
            </g>
        </g>
    </g>
</svg>
