<svg xmlns="http://www.w3.org/2000/svg" xmlns:xlink="http://www.w3.org/1999/xlink" width="32" height="32" viewBox="0 0 32 32">
    <defs>
        <path id="9st2rdap0a" d="M0 0L26.998 0 26.998 17.518 0 17.518z"/>
    </defs>
    <g fill="none" fill-rule="evenodd">
        <g>
            <g>
                <g>
                    <g transform="translate(-590.000000, -280.000000) translate(590.000000, 280.000000) translate(2.500000, 3.690022) translate(0.000000, 7.037624)">
                        <mask id="o8sm42mq3b" fill="#fff">
                            <use xlink:href="#9st2rdap0a"/>
                        </mask>
                        <path fill="#FF99B9" d="M26.998 2.46l-2.307 12.598c0 1.354-1.107 2.46-2.46 2.46H4.767c-1.353 0-2.46-1.107-2.46-2.46L0 2.46C0 1.107 1.107 0 2.46 0h22.078c1.353 0 2.46 1.107 2.46 2.46" mask="url(#o8sm42mq3b)"/>
                    </g>
                    <path fill="#107778" d="M12.106.45l.072-.062-.025.022-.047.04M14.258.388l.072.062c-.015-.014-.032-.027-.048-.04l-.024-.022M19.818 9.148l-.072.062.024-.022.048-.04" transform="translate(-590.000000, -280.000000) translate(590.000000, 280.000000) translate(2.500000, 3.690022)"/>
                    <path fill="#FF625E" d="M12.178.388l-.024.022c-.016.013-.033.026-.048.04l.072-.062zm2.08 0l.072.062-.048-.04-.024-.022zm5.649 6.369L14.525.586C14.18.19 13.69-.01 13.2 0c-.49-.009-.98.19-1.325.586l-5.381 6.17c-.617.708-.549 1.787.15 2.41.61.508 1.477.522 2.1.075.107-.075.205-.164.293-.266L13.2 4.203l4.162 4.772c.089.102.187.191.293.266.624.447 1.492.433 2.101-.074.699-.624.767-1.703.15-2.41z" transform="translate(-590.000000, -280.000000) translate(590.000000, 280.000000) translate(2.500000, 3.690022)"/>
                    <path fill="#107778" d="M6.666 9.188l.024.022-.072-.062.048.04M12.106.45l.072-.062-.025.022-.047.04M14.33.45l-.048-.04-.024-.022.072.062z" transform="translate(-590.000000, -280.000000) translate(590.000000, 280.000000) translate(2.500000, 3.690022)"/>
                    <path fill="#C082E8" d="M6.894 9.37c-.101-.07-.19-.15-.28-.229l.36.31c-.03-.02-.05-.05-.08-.08m0 0c-.101-.07-.19-.15-.28-.23l.36.31c-.03-.02-.05-.05-.08-.08m0 0c-.101-.07-.19-.15-.28-.23l.36.31c-.03-.02-.05-.05-.08-.08" transform="translate(-590.000000, -280.000000) translate(590.000000, 280.000000) translate(2.500000, 3.690022)"/>
                    <path fill="#00CDC3" d="M11.192 20.504c0 1.178-.955 2.132-2.132 2.132-1.178 0-2.132-.954-2.132-2.132 0-1.177.954-2.132 2.132-2.132 1.177 0 2.132.955 2.132 2.132" transform="translate(-590.000000, -280.000000) translate(590.000000, 280.000000) translate(2.500000, 3.690022)"/>
                    <path fill="#FFED0F" d="M14.393 21.256c0 .642-.52 1.163-1.162 1.163-.642 0-1.163-.52-1.163-1.163 0-.642.52-1.162 1.163-1.162.642 0 1.162.52 1.162 1.162" transform="translate(-590.000000, -280.000000) translate(590.000000, 280.000000) translate(2.500000, 3.690022)"/>
                    <path fill="#196CC7" d="M20.372 19.58c0 1.568-1.271 2.839-2.839 2.839-1.567 0-2.838-1.271-2.838-2.839 0-1.567 1.27-2.838 2.838-2.838s2.839 1.27 2.839 2.838" transform="translate(-590.000000, -280.000000) translate(590.000000, 280.000000) translate(2.500000, 3.690022)"/>
                </g>
            </g>
        </g>
    </g>
</svg>
