<svg xmlns="http://www.w3.org/2000/svg" xmlns:xlink="http://www.w3.org/1999/xlink" width="32" height="32" viewBox="0 0 32 32">
    <defs>
        <path id="pr76kdi1ya" d="M1.488 1.604C5.129.534 8.774 0 12.422 0c3.65 0 7.298.535 10.947 1.605.882.259 1.488 1.068 1.488 1.988v13.25c0 1.268-.844 2.38-2.065 2.721-3.427.957-6.87 1.436-10.329 1.436C9 21 5.535 20.52 2.07 19.56.847 19.22 0 18.107 0 16.838V3.592c0-.92.606-1.729 1.488-1.988z"/>
    </defs>
    <g fill="none" fill-rule="evenodd">
        <g>
            <g>
                <path d="M0 0H32V32H0z" transform="translate(-670.000000, -280.000000) translate(670.000000, 280.000000)"/>
                <g transform="translate(-670.000000, -280.000000) translate(670.000000, 280.000000) translate(1.500000, 5.500000)">
                    <ellipse cx="3.625" cy="10.685" stroke="#8DCBC7" stroke-width="1.883" rx="3.625" ry="3.562"/>
                    <ellipse cx="25.375" cy="10.685" stroke="#8DCBC7" stroke-width="1.883" rx="3.625" ry="3.562"/>
                    <g transform="translate(2.071429, 0.000000)">
                        <mask id="s9othb553b" fill="#fff">
                            <use xlink:href="#pr76kdi1ya"/>
                        </mask>
                        <use fill="#00F5B3" xlink:href="#pr76kdi1ya"/>
                        <path fill="#00C1B3" d="M1.18 4.419C4.95 3.29 8.712 2.727 12.467 2.727c3.75 0 7.488.562 11.217 1.687 1.312.395 2.21 1.604 2.21 2.974v10.816c0 1.432-1.072 2.637-2.494 2.805-3.628.428-7.272.643-10.933.643-3.668 0-7.337-.215-11.006-.646-1.423-.166-2.496-1.372-2.496-2.805V7.395c0-1.373.901-2.583 2.217-2.976z" mask="url(#s9othb553b)"/>
                        <g fill="#00F5B3" mask="url(#s9othb553b)">
                            <g transform="translate(3.107143, 7.632158)">
                                <path d="M.509 0h17.625c.281 0 .509.228.509.509 0 .28-.228.509-.509.509H.509C.228 1.018 0 .79 0 .508 0 .229.228 0 .509 0z"/>
                                <rect width="18.643" height="1.018" y="3.562" rx=".509"/>
                                <rect width="18.643" height="1.018" y="7.123" rx=".509"/>
                            </g>
                        </g>
                    </g>
                </g>
            </g>
        </g>
    </g>
</svg>
