<svg xmlns="http://www.w3.org/2000/svg" width="32" height="32" viewBox="0 0 32 32">
    <g fill="none" fill-rule="evenodd">
        <g fill-rule="nonzero">
            <g>
                <g>
                    <g transform="translate(-510.000000, -280.000000) translate(510.000000, 280.000000) translate(4.000000, 6.000000) translate(0.000000, 0.000000)">
                        <g stroke="#F72F2A" stroke-width="2.526">
                            <path d="M1.071-1.263c1.43.16 3.092 2.158 4.114 4.24.286.584.537 1.203.734 1.816-.616.06-1.289.064-1.986-.001-1.121-.106-2.147-.375-2.951-.735-1.09-.487-1.78-1.168-2.054-1.816-.13-.34-.303-.836-.102-1.542.097-.342.294-.762.723-1.24.717-.68 1.215-.722 1.522-.722z" transform="translate(6.141818, 0.000000)"/>
                            <path d="M8.702-1.263c1.43.16 3.092 2.158 4.114 4.24.286.584.537 1.203.734 1.816-.616.06-1.289.064-1.986-.001-1.121-.106-2.147-.375-2.951-.735-1.09-.487-1.78-1.168-2.054-1.816-.13-.34-.303-.836-.102-1.542.097-.342.293-.762.723-1.24.717-.68 1.215-.722 1.522-.722z" transform="translate(6.141818, 0.000000) translate(9.656485, 1.766981) scale(-1, 1) translate(-9.656485, -1.766981)"/>
                        </g>
                        <path fill="#E06088" d="M.876 10.478h.963v11.698c0 .494.35.824.876.824h18.57c.525 0 .876-.33.876-.824V10.478h.963c.526 0 .876-.33.876-.823v-4.12c0-.494-.35-.823-.876-.823H18.57.876c-.526 0-.876.33-.876.824v4.119c0 .494.35.823.876.823z"/>
                        <path fill="#E06088" d="M3.591 10.478L8.934 10.478 8.934 21.352 3.591 21.352z"/>
                        <path fill="#FD414A" d="M10.686 21.352L10.686 10.478 13.314 10.478 13.314 21.352z"/>
                        <path fill="#E06088" d="M20.409 21.352L15.066 21.352 15.066 10.478 20.409 10.478z"/>
                        <path fill="#00CDC3" d="M1.752 6.442L8.934 6.442 8.934 8.913 2.715 8.913 1.752 8.913z"/>
                        <rect width="24" height="7.068" y="4.152" fill="#FF99B9" rx="1.263"/>
                        <path fill="#F72F2A" d="M13.319 4.061L13.319 22.994 10.691 22.994 10.691 4.061z"/>
                    </g>
                </g>
            </g>
        </g>
    </g>
</svg>
