<svg xmlns="http://www.w3.org/2000/svg" width="32" height="32" viewBox="0 0 32 32">
    <g fill="none" fill-rule="evenodd">
        <g>
            <g>
                <path d="M0 0H32V32H0z" transform="translate(-750.000000, -280.000000) translate(750.000000, 280.000000)"/>
                <g>
                    <path fill="#107778" d="M1.923 0H5.77v5.786H0V1.923C0 .861.861 0 1.923 0z" transform="translate(-750.000000, -280.000000) translate(750.000000, 280.000000) translate(4.000000, 3.000000)"/>
                    <g transform="translate(-750.000000, -280.000000) translate(750.000000, 280.000000) translate(4.000000, 3.000000) translate(1.923077, 0.000000)">
                        <path fill="#28E8D9" d="M0 0h21.154c1.062 0 1.923.861 1.923 1.923V26.5c0 .106-.086.192-.192.192-.055 0-.107-.023-.143-.064l-1.92-2.129c-.178-.197-.482-.213-.68-.035-.01.01-.021.02-.031.032l-1.95 2.119c-.18.195-.484.208-.679.028l-.029-.029-1.945-2.12c-.18-.196-.483-.21-.68-.03l-.028.03-1.944 2.118c-.18.196-.484.21-.68.03l-.03-.03-1.926-2.115c-.18-.197-.483-.21-.68-.032l-.03.031-1.933 2.116c-.18.196-.483.21-.68.03l-.03-.03-1.94-2.118c-.179-.196-.483-.209-.679-.03l-.03.03-1.96 2.141c-.073.079-.194.084-.273.012-.04-.036-.062-.088-.062-.142V1.974C1.923.658 1.283 0 0 0z"/>
                        <rect width="15.385" height="1.929" x="4.808" y="14.223" fill="#107778" rx=".962"/>
                        <rect width="10.577" height="1.929" x="4.808" y="18.08" fill="#107778" rx=".962"/>
                        <g fill="#107778">
                            <path d="M4.14 4.776c0 .117 0 .239-.335.239-.266 0-.53-.113-.859-.365l-.18-.14-.701 1.089.133.122c.342.314.803.493 1.175.569v1.424C1.472 7.48 0 5.842 0 3.857 0 1.873 1.472.236 3.373 0v1.318c-.67.204-1.067.753-1.067 1.5 0 .86.72 1.23 1.245 1.5.29.15.59.303.59.458" transform="translate(4.807692, 2.892857)"/>
                            <path d="M7.692 3.857c0 1.916-1.372 3.51-3.179 3.828v-1.45c.688-.216 1.092-.78 1.092-1.54 0-.925-.749-1.284-1.294-1.547-.256-.122-.546-.26-.546-.38s0-.214.286-.214c.211 0 .383.082.613.292l.16.146.804-.94-.127-.14c-.288-.319-.614-.521-.988-.614V.029c1.807.319 3.18 1.912 3.18 3.828" transform="translate(4.807692, 2.892857)"/>
                        </g>
                    </g>
                </g>
            </g>
        </g>
    </g>
</svg>
