<svg xmlns="http://www.w3.org/2000/svg" xmlns:xlink="http://www.w3.org/1999/xlink" width="80" height="100" viewBox="0 0 80 100">
    <defs>
        <path id="2qeilrjkva" d="M15.762 29.043h49.274l-.821 23.946c-.44 12.836-10.973 23.013-23.816 23.013-12.843 0-23.376-10.177-23.816-23.013l-.821-23.946z"/>
    </defs>
    <g fill="none" fill-rule="evenodd">
        <g>
            <g transform="translate(-298.000000, -1590.000000) translate(298.000000, 1590.000000)">
                <path fill="#324148" d="M6.57 83.987C6.57 62.815-.44 5.885 39.72 5.885c40.158 0 33.64 57.252 33.64 78.102s-66.79 21.172-66.79 0z"/>
                <path fill="#FFD8CD" d="M25.745 66.997H56.662000000000006V85.652H25.745z"/>
                <use fill="#FFD8CD" xlink:href="#2qeilrjkva"/>
                <path fill="#324148" d="M16.54 46.063c-.113-3.842.221-8.872 1.003-15.09l.714 9.327H61.82l.396-9.327c1.541 3.824 2.312 8.854 2.312 15.09 0 6.236.265-.435.796-20.014H15.726c.657 17.185.928 23.856.815 20.014z"/>
            </g>
        </g>
    </g>
</svg>
