<svg xmlns="http://www.w3.org/2000/svg" xmlns:xlink="http://www.w3.org/1999/xlink" width="80" height="101" viewBox="0 0 80 101">
    <defs>
        <path id="dhnnre9h2a" d="M15.551 30.787c1.084-8.857 9.646-13.286 25.685-13.286 16.04 0 24.06 4.429 24.06 13.286l-2.809 27C61.312 69.09 51.786 77.675 40.423 77.675c-11.362 0-20.888-8.586-22.063-19.888l-2.809-27z"/>
        <path id="1xplm1p17b" d="M15.684 44.97l1.516-9.503 3.16-3.335c.395 2.158.621 3.2.68 3.125 2.07 0 4.66-.813 7.767-2.44l-.354 2.645c4.189-.01 7.757-1.12 10.703-3.33l.534 3.335c3.52.297 7.777-1.033 12.771-3.99.02-.019.157 1.032.411 3.152 2.37-.069 4.654-.847 6.854-2.336.08-.065.894 1.003 2.444 3.203l1.581 9.636c1.819-9.035 2.73-13.617 2.736-13.746 0-8.335-.6-19.766-13.708-19.766-1.085.264-.64-2.885-12.464-2.885-16.666 0-25.643 7.28-26.931 21.84l2.3 14.396z"/>
    </defs>
    <g fill="none" fill-rule="evenodd">
        <g>
            <g>
                <g transform="translate(-2578.000000, -1589.000000) translate(2578.000000, 1589.000000) translate(0.000000, 0.900000)">
                    <path fill="#FFD8CD" d="M25.63 66.542H56.842V85.169H25.63z"/>
                    <use fill="#FFD8CD" xlink:href="#dhnnre9h2a"/>
                    <use fill="#324148" xlink:href="#1xplm1p17b"/>
                </g>
            </g>
        </g>
    </g>
</svg>
