<svg xmlns="http://www.w3.org/2000/svg" xmlns:xlink="http://www.w3.org/1999/xlink" width="80" height="100" viewBox="0 0 80 100">
    <defs>
        <path id="ulk8q6pu0a" d="M15.762 29.043c2.464-5.526 10.525-8.288 24.183-8.288s22.021 2.762 25.091 8.288l-.821 23.946c-.44 12.836-10.973 23.013-23.816 23.013-12.843 0-23.376-10.177-23.816-23.013l-.821-23.946z"/>
    </defs>
    <g fill="none" fill-rule="evenodd">
        <g>
            <g transform="translate(-1058.000000, -1590.000000) translate(1058.000000, 1590.000000)">
                <g>
                    <path fill="#324148" d="M1.351 71.148c0-6.872 4.22-12.222 1.256-13.888-2.964-1.666-4.261-8.796 3.033-21.693 2.925-5.17.919-7.794 3.364-13.817 2.445-6.022 3.026-4.942 6.277-9.415 3.466-4.768 5.67-8.963 12.123-10.878 6.452-1.916 6.103 0 9.708 0 1.285 0 2.39-1.457 5.244-1.457 8.094 0 17.15 11.605 19.931 15.523 1.223 2.595 2.352 6.118 3.272 11.645 1.237 7.433 4.465 11.636 4.465 14.162 0 2.527-1.74 7.053-2.193 9.508-.967 5.253-.967 5.253 0 9.65.968 4.397 4.727 11.494.578 25.382-.333 1.116-1.31 2.578-2.932 4.385H5.64c-.8-1.996-1.202-4.83-1.202-8.502 0-3.622-3.087-4.625-3.087-10.605z" transform="translate(4.000000, 2.000000)"/>
                    <path stroke="#324148" stroke-width=".833" d="M63.322 23.586c1.675 4.362 3.23 7.282 4.661 8.76 2.148 2.218 5.248 7.863-1.025 11.155M3.748 55.075c-.698 4.5-1.386 7.519-2.063 9.059-1.016 2.31-2.393 8.148.922 11.41" transform="translate(4.000000, 2.000000)"/>
                </g>
                <path fill="#FFD8CD" d="M25.745 66.997H56.662000000000006V85.652H25.745z"/>
                <use fill="#FFD8CD" xlink:href="#ulk8q6pu0a"/>
                <g>
                    <path fill="#324148" d="M27.744 8.315c6.663-.607 13.824 4.163 16.222 8.809 3.007 5.826 6.346 10.096 12.537 12.763 2.261-1.034 1.113-7.777-3.444-20.231C46.729 3.219 38.249 0 27.621 0 16.993 0 8.84 2.772 3.163 8.315c-4.217 24.353-4.217 35.383 0 33.091-.493-6.048-.461-7.278 2.661-8.904 12.307-6.411 7.177-18.268 13.262-22.846 2.589-1.948 7.843-1.266 8.658-1.34z" transform="translate(12.000000, 13.000000)"/>
                    <path stroke="#324148" stroke-width=".833" d="M24.393 7.812c-2.145-.615-6.52 1.438-7.414 4.554-.894 3.116.339 11.912-8.875 12.014" transform="translate(12.000000, 13.000000)"/>
                </g>
            </g>
        </g>
    </g>
</svg>
