<svg xmlns="http://www.w3.org/2000/svg" xmlns:xlink="http://www.w3.org/1999/xlink" width="80" height="100" viewBox="0 0 80 100">
    <defs>
        <path id="nx8wtogcoa" d="M15.762 28.137C27.789 24.046 36.809 22 42.822 22c6.013 0 13.418 2.046 22.214 6.137l-.827 24.338c-.437 12.834-10.968 23.013-23.81 23.013-12.842 0-23.373-10.179-23.81-23.013l-.827-24.338z"/>
    </defs>
    <g fill="none" fill-rule="evenodd">
        <g>
            <g transform="translate(-1438.000000, -1590.000000) translate(1438.000000, 1590.000000)">
                <path fill="#324148" d="M48.02 5.648c3.415 0 9.43 2.88 12.775 5.524 9.383 7.398 12.632 25.897 10.325 49.274-1.306 7.417-1.92 9.893-2.474 11.971l-.072.27-.072.266c-.203.755-.406 1.51-.64 2.493h-.308c-1.029.001-1.55.01-1.997.023l-.126.003-.124.004-.124.004-.127.003-.132.004c-.675.02-1.618.038-4.088.042H58.84c-3.253-.004-8.327-.026-16.485-.083-13.868-.097-24.83 1.149-32.392 1.42L8.055 66.142l1.059 10.749c-.608.016-1.193.025-1.753.025-.82-4.442-2.136-15.473-.768-29.264C7.962 33.862 9.2 27.43 14.221 19.62c5.358-8.337 9.324-12.644 19.778-14.948 5.43-1.197 10.555-.748 14.02.976z"/>
                <path fill="#FFD8CD" d="M25.745 66.407H56.662000000000006V85.21799999999999H25.745z"/>
                <use fill="#FFD8CD" xlink:href="#nx8wtogcoa"/>
                <path fill="#324148" d="M8.604 64c4.96-3.46 6.388-15.985 17.542-25.022l20.51-16.613c9.869 6.088 15.922 12.73 18.16 19.923 0 0 .361-6.763 1.086-20.288H14.687C5.093 48.191 3.066 62.191 8.604 64z"/>
            </g>
        </g>
    </g>
</svg>
