<svg xmlns="http://www.w3.org/2000/svg" xmlns:xlink="http://www.w3.org/1999/xlink" width="80" height="100" viewBox="0 0 80 100">
    <defs>
        <path id="63ucio6isa" d="M15.762 28.137h49.274l-.827 24.338c-.437 12.834-10.968 23.013-23.81 23.013-12.842 0-23.373-10.179-23.81-23.013l-.827-24.338z"/>
    </defs>
    <g fill="none" fill-rule="evenodd">
        <g>
            <g transform="translate(-678.000000, -1590.000000) translate(678.000000, 1590.000000)">
                <path fill="#324148" d="M7.56 69.146C3.415 43.496 5.47 4 39.72 4c34.252 0 36.83 39.501 32.685 65.146-.389 2.401-14.474 4.974-32.001 4.85-18.011-.128-32.366-1.894-32.844-4.85z"/>
                <path fill="#FFD8CD" d="M25.745 66.407H56.662000000000006V85.21799999999999H25.745z"/>
                <use fill="#FFD8CD" xlink:href="#63ucio6isa"/>
                <path fill="#324148" d="M16.54 45.299c-.113-3.874.221-8.946 1.003-15.216l.714 9.405H61.82l.396-9.405c1.541 3.855 2.312 8.928 2.312 15.216 0 6.288.265-.439.796-20.182H15.726c.657 17.329.928 24.056.815 20.182z"/>
            </g>
        </g>
    </g>
</svg>
