<svg xmlns="http://www.w3.org/2000/svg" xmlns:xlink="http://www.w3.org/1999/xlink" width="80" height="101" viewBox="0 0 80 101">
    <defs>
        <path id="mollco0xoa" d="M17.593 28.464c4.324-12.504 2.835-10.963 23.643-10.963s19.648 2.402 22.012 11.573c1.347 4.078 1.25 13.508-.289 28.29-1.202 11.543-10.93 20.311-22.536 20.311-11.895 0-21.92-8.876-23.36-20.684-1.623-13.302-1.446-22.811.53-28.527z"/>
        <path id="99om188iyb" d="M16.897 44.54c1.125-2.857 1.813-5.399 2.063-7.624.207-1.83.218-4.807.035-8.93-.02-.473.255-.91.691-1.095 3.64-1.544 10.716-2.317 21.228-2.317 8.875-.007 15.655.549 20.34 1.667.533.127.9.615.871 1.162-.226 4.459-.31 7.53-.248 9.212.101 2.781.746 5.62 1.934 8.517 5.131-21.997-2.136-33.415-21.8-34.256-21.618-.081-29.99 11.14-25.114 33.664z"/>
        <linearGradient id="k0ewxpydlc" x1="50%" x2="50%" y1="20.676%" y2="83.818%">
            <stop offset="0%" stop-color="#647780" stop-opacity="0"/>
            <stop offset="100%" stop-color="#9E9997"/>
        </linearGradient>
    </defs>
    <g fill="none" fill-rule="evenodd">
        <g>
            <g>
                <g transform="translate(-2198.000000, -1589.000000) translate(2198.000000, 1589.000000) translate(0.000000, 0.900000)">
                    <path fill="#FFD8CD" d="M25.63 66.542H56.842V85.169H25.63z"/>
                    <use fill="#FFD8CD" xlink:href="#mollco0xoa"/>
                    <g>
                        <use fill="#324148" xlink:href="#99om188iyb"/>
                        <use fill="url(#k0ewxpydlc)" xlink:href="#99om188iyb"/>
                    </g>
                </g>
            </g>
        </g>
    </g>
</svg>
