<svg xmlns="http://www.w3.org/2000/svg" xmlns:xlink="http://www.w3.org/1999/xlink" width="80" height="101" viewBox="0 0 80 101">
    <defs>
        <path id="b5r0yck1ja" d="M15.551 30.787c1.084-8.857 9.646-13.286 25.685-13.286 16.04 0 24.06 4.429 24.06 13.286l-2.809 27C61.312 69.09 51.786 77.675 40.423 77.675c-11.362 0-20.888-8.586-22.063-19.888l-2.809-27z"/>
        <path id="khlk106hyb" d="M17.504 48c.654-.502 2.334-3.64 2.307-5.202 8.092 0 16.04-7.376 16.267-6.932.227.444-4.292 4.511-6.376 5.5.458 1.432 19.221-1.58 23.917-9.932.028-.028-1.772 4.283-5.076 7.357 1.072 1.93 9.332-2.208 11.253-6.282.114-.093 2.09 14.8 3.733 15.491.169-.37.526-1.824 1.073-4.36.242.08.612.218 1.11.414.994-5.527 1.838-12.503 1.843-12.62.516-6.522-2.953-16.812-10.877-19.8-.64-.24.658-.899.015-1.2-1.643-.774-3.677-1.217-6.193-1.217-.835.204-4.302-3.458-10.13-4.212-.802-.104.567 1.487.523 2.107-.033.469-1.353 0-2.297 0-2.546 0-4.904.18-7.074.536-1.375.227.59 1.642-.695 2.233-.705.323-5.557 1.15-6.404 1.753-.353.251 1.097.676.704.87-8.311 4.094-10.49 15.671-10.49 18.154.35 4.734 1.126 9.767 1.462 13.625.396-.213.743-.372 1.04-.477.144 1.79.266 3.188.365 4.194z"/>
    </defs>
    <g fill="none" fill-rule="evenodd">
        <g>
            <g>
                <g transform="translate(-3338.000000, -1589.000000) translate(3338.000000, 1589.000000) translate(0.000000, 0.900000)">
                    <path fill="#FFD8CD" d="M25.63 66.542H56.842V85.169H25.63z"/>
                    <use fill="#FFD8CD" xlink:href="#b5r0yck1ja"/>
                    <use fill="#324148" xlink:href="#khlk106hyb"/>
                </g>
            </g>
        </g>
    </g>
</svg>
