<svg xmlns="http://www.w3.org/2000/svg" xmlns:xlink="http://www.w3.org/1999/xlink" width="80" height="100" viewBox="0 0 80 100">
    <defs>
        <path id="03tc2prk5a" d="M13.551 30.787c1.084-8.857 9.646-13.286 25.685-13.286 16.04 0 24.06 4.429 24.06 13.286l-2.809 27C59.312 69.09 49.786 77.675 38.423 77.675c-11.362 0-20.888-8.586-22.063-19.888l-2.809-27z"/>
        <path id="nz7w5ehd1b" d="M14.505 47.757c.773-6.192 1.201-11.475 1.285-15.85.16-.094 5.292-4.318 24.35-3.594 6.697 0 13.396 1.198 20.099 3.594.803 1.828 1.204 7.306 1.204 16.434.049.221 4.958-13.803 5.171-20.028.214-6.226-1.436-6.226-4.258-11.546-1.882-3.547-6.209-8.524-12.98-14.932l-.778 1.879L45.742.1l-9.233 4.53V2.437c-11.629 5.473-19.006 10.807-22.13 16-3.125 5.193-4.454 8.256-3.988 9.187l4.114 20.132z"/>
    </defs>
    <g fill="none" fill-rule="evenodd">
        <g>
            <g transform="translate(-2958.000000, -1590.000000) translate(2958.000000, 1590.000000)">
                <path fill="#FFD8CD" d="M23.63 66.542H54.842V85.169H23.63z"/>
                <use fill="#FFD8CD" xlink:href="#03tc2prk5a"/>
                <use fill="#324148" xlink:href="#nz7w5ehd1b"/>
            </g>
        </g>
    </g>
</svg>
