<svg xmlns="http://www.w3.org/2000/svg" xmlns:xlink="http://www.w3.org/1999/xlink" width="80" height="101" viewBox="0 0 80 101">
    <defs>
        <path id="paocpu7e3a" d="M15.551 30.787c1.084-8.857 9.646-13.286 25.685-13.286 16.04 0 24.06 4.429 24.06 13.286l-2.809 27C61.312 69.09 51.786 77.675 40.423 77.675c-11.362 0-20.888-8.586-22.063-19.888l-2.809-27z"/>
    </defs>
    <g fill="none" fill-rule="evenodd">
        <g>
            <g>
                <g transform="translate(-3718.000000, -1589.000000) translate(3718.000000, 1589.000000) translate(0.000000, 0.900000)">
                    <path fill="#324148" d="M15.551 41.917c-3.251-13.51-1.173-19.942 2.261-24.416 3.66-4.768 8.202-8.881 15.017-10.797 6.815-1.916 9.884.686 13.69.686 1.358 0 4.295-.028 7.129.65 5.712 1.366 9.314 4.915 12.449 10.228 3.134 5.313.883 16.813-.802 23.65 0 0-48.367.169-49.744 0z"/>
                    <path fill="#FFD8CD" d="M25.63 66.542H56.842V85.169H25.63z"/>
                    <use fill="#FFD8CD" xlink:href="#paocpu7e3a"/>
                    <path fill="#324148" d="M46.827 23.793c10.146-1.62 12.744 3.91 14.455 8.952 1.088 3.205.358 10.141 1.001 10.141 1.815-2.883 1.045-6.152 1.595-6.406.046 4.967.367 4.967.57 5.054.976-1.381 1.92-6.95 2.831-16.708C60.92 18.276 52.12 15 40.88 15c-11.238 0-19.905 2.931-26 8.793.888 8.979 1.455 14.892 1.7 17.74 2.932-1.621 2.134-4.658 2.894-4.658 0 4.539-1.321 4.659-1.643 6.011 5.205.95 7.507-4.204 9.32-9.464 1.08-3.137 1.382-6.368 3.695-8.211 3.812-3.038 10.576-3.915 15.982-1.418z"/>
                </g>
            </g>
        </g>
    </g>
</svg>
