<svg xmlns="http://www.w3.org/2000/svg" xmlns:xlink="http://www.w3.org/1999/xlink" width="80" height="100" viewBox="0 0 80 100">
    <defs>
        <path id="lzxsqdsf7a" d="M15.762 28.137C27.789 24.046 36.809 22 42.822 22c6.013 0 13.418 2.046 22.214 6.137l-.827 24.338c-.437 12.834-10.968 23.013-23.81 23.013-12.842 0-23.373-10.179-23.81-23.013l-.827-24.338z"/>
    </defs>
    <g fill="none" fill-rule="evenodd">
        <g>
            <g transform="translate(-1818.000000, -1590.000000) translate(1818.000000, 1590.000000)">
                <path fill="#324148" d="M11.696 90.015c-1.696-6.175 1.12-13.318.97-23.782C12.516 55.768 10 51.462 10 46.01c0-9.177.12-19.215 5.083-26.899 5.297-8.2 8.8-12.183 19.134-14.45 5.369-1.178 10.434-.736 13.86.96 3.376 0 9.322 2.834 12.628 5.433 9.275 7.278 9.712 25.943 9.712 34.388 0 8.445-2.571 13.644-2.571 20.79 0 7.147 2.57 10.595 2.57 23.783-5.316 0-1.058.224-27.938.038-15.371-.106-23.322-.038-30.782-.038z"/>
                <path fill="#FFD8CD" d="M25.745 66.407H56.662000000000006V85.21799999999999H25.745z"/>
                <use fill="#FFD8CD" xlink:href="#lzxsqdsf7a"/>
                <path fill="#324148" d="M50.781 23.54c6.62 8.112 10.383 13.264 11.287 15.453.127.308 3.76 7.156 2.962 14.323.39.013.73.013.798 0 .703-5.545.703-10.32 0-14.323V24.438c-10.79-5.408-19.084-8.112-24.88-8.112-5.797 0-14.492 2.404-26.086 7.213-.935 9.16-1.207 14.438-.815 15.83.155.553-1.318 7.468 0 13.947 0 0 .719-.011.815 0 .528-13.115 2.38-12.264 2.38-12.264s16.93.896 21.197-3.325c2.845-2.814 4.792-6.15 5.84-10.009-.861 4.178-2.173 8.062-3.934 11.651 1.25 1.122 4.728-4.154 10.436-15.83z"/>
            </g>
        </g>
    </g>
</svg>
