<svg xmlns="http://www.w3.org/2000/svg" xmlns:xlink="http://www.w3.org/1999/xlink" width="120" height="120" viewBox="0 0 120 120">
    <defs>
        <path id="a" d="M.271.555h2.605v2.603H.271z"/>
        <path id="c" d="M.04.555h2.605v2.603H.04z"/>
    </defs>
    <g fill="none" fill-rule="evenodd">
        <path fill="#989899" d="M18.682 61.457s-4.888 2.368-5.33 12.432c-.498 11.241 9.625 19.982 20.436 22.941L18.682 61.457zM100.997 61.457s4.886 2.368 5.331 12.432c.497 11.241-9.625 19.982-20.437 22.941l15.106-35.373z"/>
        <path fill="#EC8822" d="M51.498 111.57c-.404 0-.803-.181-1.068-.527l-2.299-3.008-2.556 3.054a1.343 1.343 0 0 1-2.06-1.721l3.634-4.343a1.343 1.343 0 0 1 2.097.046l3.318 4.343a1.341 1.341 0 0 1-1.066 2.157M75.612 111.57c-.405 0-.804-.181-1.069-.527l-2.299-3.008-2.555 3.054a1.343 1.343 0 0 1-2.061-1.721l3.634-4.343a1.344 1.344 0 0 1 2.098.046l3.318 4.343a1.341 1.341 0 0 1-1.066 2.157"/>
        <path fill="#E7E4E2" d="M59.702 16.217c-22.74 0-41.175 18.155-41.175 40.55 0 23.501 10.402 40.534 25.216 47.56 3.135 1.488 6.774 1.235 9.825-.416a12.848 12.848 0 0 1 6.134-1.55c2.223 0 4.31.563 6.134 1.55 3.052 1.651 6.69 1.904 9.826.417 14.813-7.027 25.216-24.06 25.216-47.56 0-22.396-18.435-40.551-41.176-40.551"/>
        <path fill="#FFF" d="M77.748 25.99a21.472 21.472 0 0 0-11.229 2.273 15.016 15.016 0 0 1-13.65 0A21.472 21.472 0 0 0 41.64 25.99c-10.608.718-19.208 9.3-19.939 19.9-.866 12.548 9.064 22.996 21.435 22.996 3.558 0 6.913-.865 9.868-2.394a14.566 14.566 0 0 1 13.378 0 21.41 21.41 0 0 0 9.868 2.394c12.371 0 22.3-10.448 21.435-22.996-.732-10.6-9.332-19.182-19.938-19.9"/>
        <path fill="#989899" d="M33.668 78.809a5.872 5.872 0 0 1-3.65-3.978c-.786 2.46.482 5.117 2.911 6.002 2.43.886 5.112-.33 6.097-2.72a5.88 5.88 0 0 1-5.358.696M43.948 91.577a5.871 5.871 0 0 1-3.652-3.977c-.785 2.46.484 5.117 2.913 6.003 2.43.884 5.111-.332 6.096-2.72-1.523 1.045-3.5 1.372-5.357.694M61.37 94.201a5.874 5.874 0 0 1-4.688-2.679c0 2.583 2.017 4.729 4.601 4.833 2.584.104 4.768-1.87 4.978-4.445a5.875 5.875 0 0 1-4.89 2.291M77.018 91.046a5.872 5.872 0 0 0 3.651-3.978c.786 2.46-.482 5.117-2.912 6.002-2.43.886-5.112-.331-6.096-2.719 1.523 1.045 3.5 1.372 5.357.695M49.544 82.176a5.875 5.875 0 0 1-4.218-3.371c-.4 2.55 1.262 4.981 3.799 5.485 2.535.503 5-1.11 5.607-3.62a5.877 5.877 0 0 1-5.188 1.506M85.512 78.809a5.872 5.872 0 0 0 3.651-3.978c.786 2.46-.483 5.117-2.912 6.002-2.43.886-5.112-.33-6.096-2.72 1.523 1.047 3.5 1.373 5.357.696M69.636 82.176a5.876 5.876 0 0 0 4.218-3.371c.4 2.55-1.262 4.981-3.798 5.485-2.537.503-5-1.11-5.607-3.62a5.877 5.877 0 0 0 5.187 1.506M60.83 21.32s3.123-3.665 7.64-4.822c3.825-.98 2.315-3.703-1.195-1.731C64.4 16.38 60.83 21.32 60.83 21.32M58.51 20.317s-.694-4.282-3.59-6.712c-2.07-1.738-.827-3.463.233-3.588 1.968-.231 3.59 2.662 3.358 10.3M56.542 19.738s-6.093-7.17-9.958-5.323c-2.664 1.273 5.673 2.546 9.958 5.323"/>
        <path fill="#231F20" d="M84.446 46.452a6.27 6.27 0 0 1-6.272 6.268 6.27 6.27 0 0 1-6.272-6.268 6.27 6.27 0 0 1 6.272-6.268 6.27 6.27 0 0 1 6.272 6.268"/>
        <path fill="#FFF" d="M79.322 45.988a2.231 2.231 0 1 1-4.462 0 2.231 2.231 0 0 1 4.462 0"/>
        <g transform="translate(79.137 46.481)">
            <mask id="b" fill="#fff">
                <use xlink:href="#a"/>
            </mask>
            <path fill="#FFF" d="M2.876 1.856a1.302 1.302 0 1 1-2.604-.001 1.302 1.302 0 0 1 2.604.001" mask="url(#b)"/>
        </g>
        <g>
            <path fill="#231F20" d="M47.284 46.452a6.27 6.27 0 0 1-6.272 6.268 6.27 6.27 0 0 1-6.272-6.268 6.27 6.27 0 0 1 6.272-6.268 6.27 6.27 0 0 1 6.272 6.268"/>
            <path fill="#FFF" d="M42.159 45.988a2.231 2.231 0 1 1-2.231-2.23 2.23 2.23 0 0 1 2.231 2.23"/>
        </g>
        <g transform="translate(42.206 46.481)">
            <mask id="d" fill="#fff">
                <use xlink:href="#c"/>
            </mask>
            <path fill="#FFF" d="M2.645 1.856A1.302 1.302 0 1 1 .04 1.855a1.302 1.302 0 0 1 2.604.001" mask="url(#d)"/>
        </g>
        <g>
            <path fill="#EC8822" d="M56.285 49.178l3.599 7.043 3.125-7.043s-3.278-1.937-6.724 0"/>
            <path fill="#FFF" d="M72.46 40.233s5.418 4.164 13.49 5.195c0 0-1.298-4.589-5.13-6.263-3.833-1.674-8.36 1.068-8.36 1.068M46.02 40.233s-5.419 4.164-13.491 5.195c0 0 1.3-4.589 5.131-6.263 3.833-1.674 8.36 1.068 8.36 1.068"/>
            <path fill="#ABE3FF" d="M80.148 48.264s1.884 1.859 2.96 4.93c1.398 3.988 6.276 1.653 4.531-1.785-1.768-3.48-7.49-3.145-7.49-3.145"/>
            <path fill="#CFF1FF" d="M82.013 48.338c1.55.443 4.505 1.634 5.17 4.379.325 1.341-.097 2.039-.714 2.4 1.22-.481 2.063-1.949 1.17-3.707-1.112-2.192-3.793-2.87-5.626-3.072"/>
        </g>
    </g>
</svg>
