<svg width="50" height="8" viewBox="0 0 50 8" fill="none" xmlns="http://www.w3.org/2000/svg">
<path d="M6.3335 6.35107L6.98096 5.16406L4.79785 4.15967L6.98096 3.14697L6.3335 1.94336L4.34131 3.37109L4.54883 0.938965H3.2207L3.42822 3.37109L1.43604 1.94336L0.788574 3.14697L2.97998 4.15967L0.788574 5.16406L1.43604 6.35107L3.42822 4.95654L3.2207 7.35547H4.54883L4.34131 4.96484L6.3335 6.35107ZM14.8999 6.35107L15.5474 5.16406L13.3643 4.15967L15.5474 3.14697L14.8999 1.94336L12.9077 3.37109L13.1152 0.938965H11.7871L11.9946 3.37109L10.0024 1.94336L9.35498 3.14697L11.5464 4.15967L9.35498 5.16406L10.0024 6.35107L11.9946 4.95654L11.7871 7.35547H13.1152L12.9077 4.96484L14.8999 6.35107ZM23.4663 6.35107L24.1138 5.16406L21.9307 4.15967L24.1138 3.14697L23.4663 1.94336L21.4741 3.37109L21.6816 0.938965H20.3535L20.561 3.37109L18.5688 1.94336L17.9214 3.14697L20.1128 4.15967L17.9214 5.16406L18.5688 6.35107L20.561 4.95654L20.3535 7.35547H21.6816L21.4741 4.96484L23.4663 6.35107ZM32.0327 6.35107L32.6802 5.16406L30.4971 4.15967L32.6802 3.14697L32.0327 1.94336L30.0405 3.37109L30.248 0.938965H28.9199L29.1274 3.37109L27.1353 1.94336L26.4878 3.14697L28.6792 4.15967L26.4878 5.16406L27.1353 6.35107L29.1274 4.95654L28.9199 7.35547H30.248L30.0405 4.96484L32.0327 6.35107ZM40.5991 6.35107L41.2466 5.16406L39.0635 4.15967L41.2466 3.14697L40.5991 1.94336L38.6069 3.37109L38.8145 0.938965H37.4863L37.6938 3.37109L35.7017 1.94336L35.0542 3.14697L37.2456 4.15967L35.0542 5.16406L35.7017 6.35107L37.6938 4.95654L37.4863 7.35547H38.8145L38.6069 4.96484L40.5991 6.35107ZM49.1655 6.35107L49.813 5.16406L47.6299 4.15967L49.813 3.14697L49.1655 1.94336L47.1733 3.37109L47.3809 0.938965H46.0527L46.2603 3.37109L44.2681 1.94336L43.6206 3.14697L45.812 4.15967L43.6206 5.16406L44.2681 6.35107L46.2603 4.95654L46.0527 7.35547H47.3809L47.1733 4.96484L49.1655 6.35107Z" fill="#9F9F9F"/>
</svg>
