<svg xmlns="http://www.w3.org/2000/svg" width="18.596" height="18.821">
    <g data-name="组 1234">
        <path data-name="路径 3119" d="m455.9 467.039 10.533-10.115a.625.625 0 0 1 .88.031l4.493 4.773a.636.636 0 0 1-.007.877L461.276 473.3a.622.622 0 0 1-.488.189l-4.729-.083a.63.63 0 0 1-.588-.619l.227-5.267a.633.633 0 0 1 .202-.481z" style="fill:none;stroke:#24a09a;stroke-miterlimit:10;stroke-width:2px" transform="translate(-454.472 -455.667)"/>
        <path data-name="路径 3120" d="M468.493 460.106c.06.09 5.322 5.518 5.322 5.518l-1.962 2.159-5.59-5.608z" transform="translate(-458.023 -456.769)" style="fill:#24a09a"/>
    </g>
</svg>
