<svg id="loupe" xmlns="http://www.w3.org/2000/svg" width="16" height="16">
    <defs>
        <style>
            .cls-1{fill:#324148}
        </style>
    </defs>
    <g id="组_1382" data-name="组 1382" transform="translate(5.333 2.667)">
        <g id="组_1381" data-name="组 1381">
            <path id="路径_3145" data-name="路径 3145" class="cls-1" d="M173.8 86.332a3.372 3.372 0 0 0-2.4-.994.727.727 0 1 0 0 1.455 1.94 1.94 0 0 1 1.94 1.939.727.727 0 0 0 .727.727.727.727 0 0 0 .727-.727 3.372 3.372 0 0 0-.994-2.4z" transform="translate(-170.671 -85.338)"/>
        </g>
    </g>
    <g id="组_1384" data-name="组 1384">
        <g id="组_1383" data-name="组 1383">
            <path id="路径_3146" data-name="路径 3146" class="cls-1" d="M15.787 14.759 10.828 9.8A6.058 6.058 0 0 0 6.061 0a6.061 6.061 0 0 0 0 12.122A6.031 6.031 0 0 0 9.8 10.828l4.959 4.959a.727.727 0 0 0 1.029-1.029zm-9.726-4.092a4.606 4.606 0 1 1 4.606-4.606 4.612 4.612 0 0 1-4.606 4.606z"/>
        </g>
    </g>
</svg>
