<svg width="24" height="24" viewBox="0 0 24 24" fill="none" xmlns="http://www.w3.org/2000/svg">
<path d="M11.9999 5C7.71143 5 3.83537 8.07261 2.01772 11.5624C3.45021 14.3036 7.14771 18.1249 11.9999 18.1249C16.2885 18.1249 20.1646 15.0523 21.9822 11.5625C20.1838 8.10997 16.3185 5 11.9999 5Z" fill="#EFFFFE" stroke="#009891" stroke-width="2"/>
<circle cx="13.5" cy="12.5" r="3.5" fill="#C9EBE9"/>
<path d="M16.9999 12C16.9999 15.4639 14.6222 18 11.9999 18C9.37752 18 6.99988 15.4639 6.99988 12C6.99988 8.53612 9.37752 6 11.9999 6C14.6222 6 16.9999 8.53612 16.9999 12Z" stroke="#009891" stroke-width="2"/>
<path d="M11.9999 7C8.88653 7 6.49791 8.01377 4.74342 9.82437C7.04042 9.16344 9.58934 8.89484 12.0881 8.93765C14.6194 8.98101 17.1576 9.34488 19.4043 9.98272C17.6468 8.08679 15.2151 7 11.9999 7Z" fill="#009891" stroke="#009891" stroke-width="2"/>
<path d="M5 3L7 6" stroke="#009891" stroke-width="2" stroke-linecap="round"/>
<path d="M12 2V5.5" stroke="#009891" stroke-width="2" stroke-linecap="round"/>
<path d="M19 3L17 6" stroke="#009891" stroke-width="2" stroke-linecap="round"/>
</svg>
