<svg width="100" height="31" viewBox="0 0 100 31" fill="none" xmlns="http://www.w3.org/2000/svg">
<path d="M32.8808 12.6823C38.888 9.4876 42.7601 0 42.7601 0C44.7213 4.72434 45.7354 10.7588 44.6245 15.8634C43.8416 17.1017 42.2758 17.9052 42.2758 17.9052H44.233C43.1142 20.219 40.5856 23.5746 38.0566 24.8276C34.8315 26.4255 31.4281 28.264 28.9854 26.2067C25.9213 23.6261 26.8737 15.8771 32.8808 12.6823Z" fill="#989899"/>
<path d="M42.1228 5.17236C41.1022 9.87 38.5639 11.9397 36.0753 14.8275C28.5761 23.5299 30.0279 27.2413 29.356 29.9999" stroke="#B4B4B4" stroke-linecap="round"/>
<path d="M5.59483 12.6823C11.602 9.4876 15.4741 0 15.4741 0C17.4353 4.72434 18.4494 10.7588 17.3385 15.8634C16.5556 17.1017 14.9898 17.9052 14.9898 17.9052H16.947C15.8282 20.219 13.2996 23.5746 10.7706 24.8276C7.5455 26.4255 4.14207 28.264 1.69937 26.2067C-1.36471 23.6261 -0.412326 15.8771 5.59483 12.6823Z" fill="#989899"/>
<path d="M14.8367 5.17236C13.8161 9.87 11.2778 11.9397 8.78926 14.8275C1.29006 23.5299 2.74182 27.2413 2.06989 29.9999" stroke="#B4B4B4" stroke-linecap="round"/>
<path d="M60.3963 12.6823C66.4035 9.4876 70.2756 0 70.2756 0C72.2368 4.72434 73.2509 10.7588 72.14 15.8634C71.3571 17.1017 69.7913 17.9052 69.7913 17.9052H71.7485C70.6297 20.219 68.1011 23.5746 65.5721 24.8276C62.347 26.4255 58.9436 28.264 56.5009 26.2067C53.4368 23.6261 54.3892 15.8771 60.3963 12.6823Z" fill="#989899"/>
<path d="M69.6381 5.17236C68.6176 9.87 66.0793 11.9397 63.5907 14.8275C56.0915 23.5299 57.5433 27.2413 56.8713 29.9999" stroke="#B4B4B4" stroke-linecap="round"/>
<path d="M87.7971 12.6823C93.8043 9.4876 97.6764 0 97.6764 0C99.6376 4.72434 100.652 10.7588 99.5407 15.8634C98.7579 17.1017 97.1921 17.9052 97.1921 17.9052H99.1493C98.0304 20.219 95.5019 23.5746 92.9728 24.8276C89.7478 26.4255 86.3443 28.264 83.9016 26.2067C80.8376 23.6261 81.7899 15.8771 87.7971 12.6823Z" fill="#989899"/>
<path d="M97.0388 5.17236C96.0183 9.87 93.48 11.9397 90.9914 14.8275C83.4922 23.5299 84.944 27.2413 84.272 29.9999" stroke="#B4B4B4" stroke-linecap="round"/>
</svg>
