<svg width="71" height="27" viewBox="0 0 71 27" fill="none" xmlns="http://www.w3.org/2000/svg">
<path d="M14.8744 7.99985C14.936 6.79784 9.65293 7.3796 7.00372 7.45208C8.28138 6.51755 12.2688 4.35779 11.4778 3.74026C10.2924 2.81492 6.7048 5.55243 4.93565 7.45208C2.98807 7.69517 0.581356 6.84989 0.472671 7.99985C0.363986 9.14982 3.24239 8.75837 4.93565 8.69815C6.74379 10.3401 10.7735 13.4957 11.4778 12.4584C12.0608 11.5995 8.68916 10.1393 6.73601 8.69815C9.42313 9.08083 14.8128 9.20187 14.8744 7.99985Z" fill="#9F9F9F"/>
<path d="M52.8744 5.99985C52.936 4.79784 47.6529 5.3796 45.0037 5.45208C46.2814 4.51755 50.2688 2.35779 49.4778 1.74026C48.2924 0.814924 44.7048 3.55243 42.9357 5.45208C40.9881 5.69517 38.5814 4.84989 38.4727 5.99985C38.364 7.14982 41.2424 6.75837 42.9357 6.69815C44.7438 8.34013 48.7735 11.4957 49.4778 10.4584C50.0608 9.59955 46.6892 8.13935 44.736 6.69815C47.4231 7.08083 52.8128 7.20187 52.8744 5.99985Z" fill="#9F9F9F"/>
<path d="M34.8744 20.9999C34.936 19.7978 29.6529 20.3796 27.0037 20.4521C28.2814 19.5175 32.2688 17.3578 31.4778 16.7403C30.2924 15.8149 26.7048 18.5524 24.9357 20.4521C22.9881 20.6952 20.5814 19.8499 20.4727 20.9999C20.364 22.1498 23.2424 21.7584 24.9357 21.6982C26.7438 23.3401 30.7735 26.4957 31.4778 25.4584C32.0608 24.5995 28.6892 23.1393 26.736 21.6982C29.4231 22.0808 34.8128 22.2019 34.8744 20.9999Z" fill="#9F9F9F"/>
<path d="M69.8744 19.9999C69.936 18.7978 64.6529 19.3796 62.0037 19.4521C63.2814 18.5175 67.2688 16.3578 66.4778 15.7403C65.2924 14.8149 61.7048 17.5524 59.9357 19.4521C57.9881 19.6952 55.5814 18.8499 55.4727 19.9999C55.364 21.1498 58.2424 20.7584 59.9357 20.6982C61.7438 22.3401 65.7735 25.4957 66.4778 24.4584C67.0608 23.5995 63.6892 22.1393 61.736 20.6982C64.4231 21.0808 69.8128 21.2019 69.8744 19.9999Z" fill="#9F9F9F"/>
</svg>
