<svg xmlns="http://www.w3.org/2000/svg" width="26.814" height="29.758" viewBox="0 0 26.814 29.758">
    <g>
        <path fill="#566d77" fill-rule="evenodd" stroke="#8ea0ab" stroke-width="0.5px" d="M24.959-44.4a.6.6 0 0 0-.6-.55H18.7v-.95a4.123 4.123 0 0 0-4.11-4.1h-1.6a4.123 4.123 0 0 0-4.108 4.1v.95H3.62a.6.6 0 0 0-.6.5L.013-21.892a.6.6 0 0 0 .2.55.64.64 0 0 0 .6.1l1.9-.65 1.6 1.05h.05a.713.713 0 0 0 .3.1h21.048a.612.612 0 0 0 .451-.2.7.7 0 0 0 .15-.45zM17.5-45.949V-45h-5.815v-.95a2.905 2.905 0 0 1 2.905-2.9 2.938 2.938 0 0 1 2.91 2.901zm-7.364 0a2.92 2.92 0 0 1 1-2.151 4.021 4.021 0 0 0-.651 2.151V-45h-.351zM2.668-23.142l-1.252.45 2.805-21.056h1.152L4.121-22.442l-.952-.65a.461.461 0 0 0-.501-.05zm2.655 1.15l1.252-21.756h3.907v.95a.578.578 0 0 0 .6.6.578.578 0 0 0 .6-.6v-.95H17.5v.8a.578.578 0 0 0 .6.6.578.578 0 0 0 .6-.6v-.8h5.109l1.251 21.756z" transform="translate(-300.747 -148.75) translate(301 199)"/>
    </g>
</svg>
