<?xml version="1.0"?>
<svg xmlns="http://www.w3.org/2000/svg" xmlns:xlink="http://www.w3.org/1999/xlink" xmlns:svgjs="http://svgjs.com/svgjs" version="1.1" width="512" height="512" x="0" y="0" viewBox="0 0 512 512" style="enable-background:new 0 0 512 512" xml:space="preserve" class=""><g>
<g xmlns="http://www.w3.org/2000/svg" id="XMLID_708_">
	<path id="XMLID_709_" d="M490.455,370.262c-13.537-8.715-30.356-9.916-44.993-3.212l-37.076,16.981   c-7.67-18.804-18.757-35.769-33.045-50.495c-2.884-2.972-7.632-3.044-10.605-0.16c-2.973,2.884-3.044,7.632-0.16,10.605   c13.087,13.489,23.209,29.048,30.16,46.302l-50.399,23.083c-1.907,0.873-3.937,1.316-6.034,1.316h-37.461   c-2.879-33.094-30.737-59.146-64.565-59.146h-66.688c-3.161-4.464-6.714-8.553-10.587-12.248   c25.173-25.574,59.175-40.873,94.946-42.756v17.302c0,4.142,3.358,7.5,7.5,7.5s7.5-3.358,7.5-7.5V300.55   c24.975,1.292,49.076,9.001,70.115,22.533c3.483,2.239,8.124,1.233,10.365-2.251c2.241-3.484,1.233-8.125-2.251-10.365   c-23.464-15.091-50.368-23.631-78.229-24.936v-23.414c8.955,5.457,19.178,8.321,29.568,8.321c6.2,0,12.458-1.016,18.533-3.098l0,0   c20.11-6.891,34.622-24.235,37.872-45.264c0.87-5.633-1.083-11.333-5.227-15.246c-15.469-14.614-37.566-19.412-57.673-12.521   c-8.975,3.076-16.831,8.24-23.073,14.88v-28.347c0.793-0.518,1.542-1.117,2.228-1.803l74.734-74.733   c11.433-11.432,17.729-26.633,17.729-42.801c0-16.168-6.296-31.369-17.729-42.802c-23.225-23.224-60.78-23.596-84.461-1.112   c-23.683-22.484-61.237-22.112-84.462,1.112c-11.433,11.433-17.729,26.633-17.729,42.801c0,16.168,6.296,31.369,17.729,42.801   l19.06,19.06c2.929,2.929,7.678,2.929,10.606,0c2.929-2.929,2.929-7.678,0-10.606l-19.06-19.06   c-8.6-8.599-13.335-20.033-13.335-32.194s4.736-23.596,13.335-32.195c17.753-17.751,46.638-17.751,64.39,0l4.163,4.163   c1.407,1.407,3.314,2.197,5.303,2.197c1.989,0,3.897-0.791,5.304-2.197l4.162-4.163c17.753-17.752,46.639-17.751,64.39,0   c8.6,8.6,13.335,20.033,13.335,32.195s-4.736,23.595-13.335,32.194l-73.855,73.854l-30.385-30.384   c-2.929-2.929-7.678-2.929-10.606,0c-2.929,2.929-2.929,7.678,0,10.606l31.263,31.263c0.686,0.686,1.435,1.285,2.228,1.803v17.741   c-6.242-6.641-14.098-11.805-23.074-14.881c-20.105-6.891-42.204-2.092-57.671,12.521c-4.144,3.914-6.097,9.613-5.227,15.246   c3.25,21.028,17.761,38.372,37.871,45.264c6.076,2.083,12.332,3.097,18.533,3.097c10.389,0,20.613-2.864,29.568-8.321v34.01   c-40.323,1.922-78.676,19.266-106.763,48.386c-13.335-8.734-29.09-13.562-45.63-13.562h-5.726   c-2.59-6.777-9.142-11.611-16.819-11.611H18.016C8.082,308.734,0,316.816,0,326.75v166.23c0,9.934,8.082,18.016,18.016,18.016   H79.01c7.826,0,14.483-5.024,16.965-12.009h39.912c4.142,0,7.5-3.358,7.5-7.5s-3.358-7.5-7.5-7.5H97.027V335.345h4.528   c23.488,0,45.063,11.858,57.714,31.72c1.376,2.162,3.762,3.471,6.326,3.471h70.682c27.465,0,49.81,22.345,49.81,49.81   c0,0.142-0.019,0.32-0.056,0.531c-0.006,0.032-0.006,0.064-0.012,0.096c-0.29,1.363-1.501,2.389-2.948,2.389h-86.021   c-14.293,0-27.731,5.566-37.837,15.673c-2.929,2.929-2.929,7.678,0,10.606c1.464,1.464,3.384,2.197,5.303,2.197   s3.839-0.732,5.303-2.197c7.274-7.273,16.944-11.279,27.231-11.279h86.021c6.514,0,12.215-3.487,15.379-8.681h39.853   c4.267,0,8.398-0.901,12.279-2.678l101.126-46.316c9.962-4.563,21.412-3.746,30.627,2.187c9.213,5.932,14.696,16.018,14.666,26.98   c-0.005,1.762-1.072,3.387-2.719,4.142l-147.058,67.353c-3.823,1.751-7.893,2.639-12.097,2.639H170.41c-4.142,0-7.5,3.358-7.5,7.5   s3.358,7.5,7.5,7.5h164.716c6.375,0,12.547-1.346,18.343-4.001l147.058-67.353c6.948-3.182,11.452-10.145,11.473-17.738   C512.044,393.793,503.99,378.977,490.455,370.262z M268.973,241.866c2.399-15.504,13.094-28.29,27.909-33.367   c4.475-1.534,9.082-2.281,13.649-2.281c10.558,0,20.9,3.996,28.86,11.516c0.549,0.519,0.818,1.305,0.703,2.051   c-2.396,15.501-13.09,28.286-27.91,33.364c0,0,0,0,0,0c-14.82,5.079-31.108,1.541-42.507-9.232   C269.127,243.399,268.858,242.612,268.973,241.866z M253.217,233.313c-11.4,10.773-27.688,14.31-42.508,9.232   c-14.82-5.079-25.515-17.864-27.91-33.365c-0.115-0.747,0.154-1.533,0.703-2.052c11.405-10.774,27.694-14.311,42.509-9.235   c14.816,5.078,25.51,17.863,27.909,33.367C254.036,232.007,253.766,232.794,253.217,233.313z M82.027,492.981   c0,1.663-1.353,3.016-3.017,3.016H18.016c-1.663,0-3.016-1.353-3.016-3.016V326.75c0-1.663,1.353-3.016,3.016-3.016H79.01   c1.664,0,3.017,1.353,3.017,3.016V492.981z" fill="#566d77" data-original="#000000" style="" class=""/>
	<path id="XMLID_714_" d="M304.625,32.61c-0.014,0-0.027,0-0.041,0c-4.123,0-7.477,3.332-7.499,7.46l-0.014,2.602   c-0.021,4.142,3.318,7.518,7.46,7.54c0.014,0,0.027,0,0.041,0c4.123,0,7.477-3.332,7.499-7.46l0.014-2.602   C312.106,36.007,308.767,32.632,304.625,32.61z" fill="#566d77" data-original="#000000" style="" class=""/>
	<path id="XMLID_715_" d="M304.535,60.992c-0.013,0-0.026,0-0.039,0c-4.124,0-7.478,3.333-7.499,7.462l-0.013,2.602   c-0.021,4.142,3.32,7.517,7.462,7.538c0.013,0,0.026,0,0.039,0c4.124,0,7.478-3.333,7.499-7.462l0.013-2.602   C312.018,64.388,308.677,61.013,304.535,60.992z" fill="#566d77" data-original="#000000" style="" class=""/>
	<path id="XMLID_716_" d="M317.386,63.14l2.602,0.013c0.013,0,0.026,0,0.039,0c4.124,0,7.478-3.333,7.499-7.462   c0.021-4.142-3.32-7.517-7.462-7.538l-2.602-0.013c-0.013,0-0.026,0-0.039,0c-4.124,0-7.478,3.333-7.499,7.462   C309.903,59.744,313.244,63.119,317.386,63.14z" fill="#566d77" data-original="#000000" style="" class=""/>
	<path id="XMLID_717_" d="M291.682,48.065l-2.602-0.013c-0.013,0-0.026,0-0.039,0c-4.124,0-7.478,3.333-7.499,7.462   c-0.021,4.142,3.32,7.517,7.462,7.538l2.602,0.013c0.013,0,0.026,0,0.039,0c4.124,0,7.478-3.333,7.499-7.462   C299.165,51.461,295.824,48.086,291.682,48.065z" fill="#566d77" data-original="#000000" style="" class=""/>
</g>















</g></svg>
