<svg xmlns="http://www.w3.org/2000/svg" width="35.693" height="25.952" viewBox="0 0 35.693 25.952">
  <g id="组_496" data-name="组 496" transform="translate(-0.13 26.619)">
    <path id="路径_53" data-name="路径 53" d="M35.432-4.389h0c0-.611-.52-.611-1.041,0a5.714,5.714,0,0,1-4.258,1.833c-1.561,0-3.17-1.833-3.17-1.833h0V-5H25.924v.611a1.941,1.941,0,0,1-1.088.611h0a6.651,6.651,0,0,1-3.17,1.222c-1.561,0-2.649-1.833-3.17-1.833h0V-5H17.456v.611h0c-3.69,3.722-7.427,0-7.427,0h0C9.509-5,8.988-5,8.988-4.389c-1.041.611-2.129,1.833-3.17,1.833h0a5.47,5.47,0,0,1-4.21-1.833C1.041-5,.52-5,.52-4.389c-.52,0-.52.611,0,1.222,0,0,2.129,2.5,4.778,2.5h0a1.739,1.739,0,0,0,1.561-.611c1.088,0,2.129-1.278,2.649-1.889,2.129,1.889,5.3,3.111,8.468.611a4.423,4.423,0,0,0,3.69,1.889h0a5.5,5.5,0,0,0,4.258-1.889h0a.543.543,0,0,0,.52-.611c.52,1.222,2.129,1.889,3.69,2.5a7.021,7.021,0,0,0,5.3-2.5c.52-.611.52-1.222,0-1.222" fill="#566d77" fill-rule="evenodd"/>
    <path id="路径_54" data-name="路径 54" d="M2.528-5.047h.528l10.755-5.243A3.906,3.906,0,0,0,15.4-11.834a6.755,6.755,0,0,0-.528-3.183c-1.056-1.545-1.584-3.651-2.689-5.2v-1.077c0-.515.576-.515,1.1-.515l14.452-3.651c.576,0,1.632.515,1.632,1.03v.515c0,1.077-.528,1.077-.528,1.077L18.084-20.728c-.528.515-1.056.515-1.056,1.03-.528,1.03-.528,1.545,0,2.06L23.462-6.077c.528.515.528.515,1.056.515a1.639,1.639,0,0,0,.528-1.077L18.084-18.153v-.515c0-.515,0-.515.528-.515l10.227-2.106c.528-.515,2.113-1.03,2.113-2.621v-.515a3.044,3.044,0,0,0-3.745-2.06L12.755-23.4A1.722,1.722,0,0,0,11.123-21.8a1.6,1.6,0,0,0,0,2.106c.528,1.545,1.632,3.651,2.161,5.243a3.813,3.813,0,0,1,.528,2.06,1.129,1.129,0,0,1-1.056,1.077L2.528-6.077C2-6.077,2-5.562,2-5.047h.528" fill="#566d77" fill-rule="evenodd"/>
    <path id="路径_55" data-name="路径 55" d="M28.4-17.486h0l-1.124.561a4.311,4.311,0,0,0-2.2,5.748C26.2-9.121,28.4-8.047,30.551-9.121l1.076-.514a4.272,4.272,0,0,0,2.2-5.748C32.751-17.486,30.551-18,28.4-17.486Zm4.351,3.178h0a2.309,2.309,0,0,1-1.662,3.131l-1.076.514A3.754,3.754,0,0,1,26.2-11.692a2.7,2.7,0,0,1,1.613-3.692l1.124-.514C30.013-16.411,31.627-15.9,32.751-14.308Z" fill="#566d77" fill-rule="evenodd"/>
  </g>
</svg>
