<svg xmlns="http://www.w3.org/2000/svg" width="23.273" height="32" viewBox="0 0 23.273 32">
    <g>
        <path fill="#367577" fill-rule="evenodd" d="M11.794-12a10.036 10.036 0 0 1-7.2-3.009.465.465 0 0 1-.095-.1 9.6 9.6 0 0 1-2.667-6.634 9.8 9.8 0 0 1 5.327-8.632l-1.7-1.159C2.313-32.112 0-33.222 0-34.825s2.326-2.707 5.446-3.286l8.46-5.789a.641.641 0 0 1 .359-.1h3.278a.624.624 0 0 1 .625.622.609.609 0 0 1-.146.389l-3.952 4.532a22.291 22.291 0 0 1 4.784.919l1.475-2.54a.633.633 0 0 1 .549-.314h1.733a.624.624 0 0 1 .63.617l.032.9-.032 9.02a.624.624 0 0 1-.63.617h-1.154a.635.635 0 0 1-.5-.247l-2.036-2.633a21.689 21.689 0 0 1-4.728.931 9.846 9.846 0 0 1 7.564 8.632v.8a9.671 9.671 0 0 1-3.965 7.781.832.832 0 0 1-.12.086A10.089 10.089 0 0 1 11.794-12zm-5.566-3.2a8.862 8.862 0 0 0 9.871.851 3.606 3.606 0 0 1-.882-5.1 3.736 3.736 0 0 1 1.983-1.386 2.927 2.927 0 0 1 2.767-2.429h.385a8.6 8.6 0 0 0-4.677-6.092l2.345 2.688a.607.607 0 0 1-.069.869.639.639 0 0 1-.41.148h-3.276a.6.6 0 0 1-.359-.111l-5.56-3.792a8.671 8.671 0 0 0-3.706 2.99 3.882 3.882 0 0 1 2.16 1.419 3.637 3.637 0 0 1 2.679 1.134 3.788 3.788 0 0 1-.01 5.441 3.954 3.954 0 0 1-1.73.984A3.764 3.764 0 0 1 6.228-15.2zM20.1-22.038h-.088a1.687 1.687 0 0 0-1.607 1.7.621.621 0 0 1-.529.617 2.481 2.481 0 0 0-2.112 2.509 2.466 2.466 0 0 0 1.462 2.109 8.428 8.428 0 0 0 3.246-6.628v-.259a1.786 1.786 0 0 0-.321-.043zM3.94-25.429a8.332 8.332 0 0 0 1.261 9.3c.845-.2 1.2-1.375 1.336-2.1a.624.624 0 0 1 .523-.493 2.622 2.622 0 0 0 2.215-3 2.594 2.594 0 0 0-.746-1.431 2.4 2.4 0 0 0-1.829-.753h-.226a.635.635 0 0 1-.58-.3 2.652 2.652 0 0 0-1.929-1.227zm10.5-1.455h1.71l-2.881-3.3a.577.577 0 0 1-.176-.21l-.63-.684a33.749 33.749 0 0 1-4.324-.086l.561.382.076.055zm7.312-3.6h.214v-8.669h-.756L19.673-36.5a.659.659 0 0 1-.214.241.642.642 0 0 1-.586.068 23.552 23.552 0 0 0-7.9-1.159c-5.944 0-9.745 1.5-9.745 2.534s3.782 2.534 9.745 2.534c.573 0 1.128 0 1.683-.043h.139a21.055 21.055 0 0 0 6.083-1.1.642.642 0 0 1 .586.062.667.667 0 0 1 .177.173zm-7.279-12.277l-6.3 4.316a36.248 36.248 0 0 1 4.331-.086l3.669-4.205z" transform="translate(-389 -149) translate(389 193)"/>
    </g>
</svg>
