<?xml version="1.0"?>
<svg xmlns="http://www.w3.org/2000/svg" xmlns:xlink="http://www.w3.org/1999/xlink" xmlns:svgjs="http://svgjs.com/svgjs" version="1.1" width="512" height="512" x="0" y="0" viewBox="0 0 63.665 63.664" style="enable-background:new 0 0 512 512" xml:space="preserve" class=""><g>
<g xmlns="http://www.w3.org/2000/svg">
	<g>
		<path d="M4.167,52.145h55.331c2.298,0,4.167-1.895,4.167-4.222V15.741c0-2.328-1.869-4.222-4.167-4.222H4.167    C1.869,11.52,0,13.413,0,15.741v32.182C0,50.25,1.869,52.145,4.167,52.145z M61.582,47.923c0,1.179-0.936,2.139-2.084,2.139H4.167    c-1.149,0-2.083-0.96-2.083-2.139v-2.462h59.499V47.923z M2.083,15.741c0-1.179,0.935-2.138,2.083-2.138h55.331    c1.148,0,2.084,0.959,2.084,2.138v19.302H2.083V15.741z" fill="#566d77" data-original="#000000" style=""/>
	</g>
</g>
<g xmlns="http://www.w3.org/2000/svg">
</g>
<g xmlns="http://www.w3.org/2000/svg">
</g>
<g xmlns="http://www.w3.org/2000/svg">
</g>
<g xmlns="http://www.w3.org/2000/svg">
</g>
<g xmlns="http://www.w3.org/2000/svg">
</g>
<g xmlns="http://www.w3.org/2000/svg">
</g>
<g xmlns="http://www.w3.org/2000/svg">
</g>
<g xmlns="http://www.w3.org/2000/svg">
</g>
<g xmlns="http://www.w3.org/2000/svg">
</g>
<g xmlns="http://www.w3.org/2000/svg">
</g>
<g xmlns="http://www.w3.org/2000/svg">
</g>
<g xmlns="http://www.w3.org/2000/svg">
</g>
<g xmlns="http://www.w3.org/2000/svg">
</g>
<g xmlns="http://www.w3.org/2000/svg">
</g>
<g xmlns="http://www.w3.org/2000/svg">
</g>
</g></svg>
