<svg xmlns="http://www.w3.org/2000/svg" width="36.996" height="26.53" viewBox="0 0 36.996 26.53">
    <defs>
        <style>
            .cls-1{fill:#5b6d76;fill-rule:evenodd}
        </style>
    </defs>
    <g id="组_1476" transform="translate(-38 -149)">
        <path id="路径_2" d="M27.549-20.309a.725.725 0 0 0-.756.75v4.378H1.513v-7.88a1.421 1.421 0 0 1 1.45-1.439h12.8a.725.725 0 0 0 .757-.75.725.725 0 0 0-.76-.75H2.963A2.948 2.948 0 0 0 0-23.061v11.195a2.948 2.948 0 0 0 2.963 2.939h22.442a2.948 2.948 0 0 0 2.963-2.939v-7.692a.873.873 0 0 0-.819-.751zm-2.206 9.881H2.9a1.421 1.421 0 0 1-1.45-1.438v-1.814h25.279v1.814a1.334 1.334 0 0 1-1.387 1.439z" class="cls-1" transform="translate(38 184.456)"/>
        <path id="路径_3" d="M39.031-39.488h-5a.751.751 0 0 0-.76.63l-.127.693-9.627-1.635a14.557 14.557 0 0 0-6.4.378 5.555 5.555 0 0 0-1.393.63l-6.4 4.224a.819.819 0 0 0-.317.819.817.817 0 0 0 .76.567h9.435a1.824 1.824 0 0 1 1.963 1.009 3.122 3.122 0 0 1-.443 3.278l-2.976 3.656a2.484 2.484 0 0 0-.76 1.765 2.285 2.285 0 0 0 .76 1.765 2.506 2.506 0 0 0 1.773.756 2.3 2.3 0 0 0 1.773-.756l4.433-4.413a1.207 1.207 0 0 1 .823-.315 8.3 8.3 0 0 0 3.483-.82l1.773-.946-.063.63a1.212 1.212 0 0 0 .19.63.689.689 0 0 0 .57.252h6.649a.73.73 0 0 0 .76-.756v-11.474a1.3 1.3 0 0 0-.879-.567zm-9.815 11.1a5.883 5.883 0 0 1-2.786.693 2.688 2.688 0 0 0-1.9.756L20.1-22.53a1 1 0 0 1-1.393 0 1.011 1.011 0 0 1-.317-.693 1.088 1.088 0 0 1 .38-.757l3.037-3.72a4.682 4.682 0 0 0 .633-4.917 3.252 3.252 0 0 0-3.356-1.828h-6.9l4.306-2.837a2.917 2.917 0 0 1 1.013-.441 12.67 12.67 0 0 1 5.762-.378l9.688 1.639L32-29.654zm9.055.378h-5l1.33-9.141.127-.82h3.609v9.96z" class="cls-1" transform="translate(35.079 189)"/>
    </g>
</svg>
