<?xml version="1.0"?>
<svg xmlns="http://www.w3.org/2000/svg" xmlns:xlink="http://www.w3.org/1999/xlink" xmlns:svgjs="http://svgjs.com/svgjs" version="1.1" width="512" height="512" x="0" y="0" viewBox="0 0 512 512" style="enable-background:new 0 0 512 512" xml:space="preserve" class=""><g>
<g xmlns="http://www.w3.org/2000/svg">
	<g>
		<path d="M503.915,153.88c4.467,0,8.085-3.619,8.085-8.084v-31.459c0-20.619-16.775-37.394-37.395-37.394H37.395    C16.775,76.943,0,93.718,0,114.337v283.325c0,20.62,16.775,37.395,37.395,37.395h437.209c20.62,0,37.395-16.776,37.395-37.395    V172.026c0-4.465-3.618-8.084-8.084-8.084s-8.084,3.62-8.084,8.084V357.8H16.168V153.88H503.915z M16.168,114.337    c0-11.704,9.522-21.226,21.227-21.226h437.209c11.705,0,21.227,9.522,21.227,21.226v23.375H16.168V114.337z M495.832,373.968    v23.693c0,11.705-9.522,21.227-21.227,21.227H37.395c-11.705,0-21.227-9.522-21.227-21.227v-23.693H495.832z" fill="#566d77" data-original="#000000" style="" class=""/>
	</g>
</g>
<g xmlns="http://www.w3.org/2000/svg">
	<g>
		<path d="M247.995,187.737c-1.536-1.821-3.796-2.872-6.179-2.872h-34.488c-2.956,0-5.589,1.599-7,4.038    c-0.061-0.103-0.113-0.212-0.18-0.315c-1.496-2.271-4.032-3.638-6.752-3.638h-36.501c-3.328,0-6.315,2.039-7.528,5.138    l-24.222,61.892l-10.738-51.509c-0.026-0.125-0.055-0.249-0.087-0.372c-1.836-7.107-7.231-15.711-22.504-16.352    c-0.112-0.004-0.225-0.006-0.338-0.006H38.099c-3.893,0-7.234,2.774-7.947,6.602l-0.475,2.551    c-0.787,4.224,1.867,8.327,6.043,9.339c10.152,2.461,19.59,5.898,28.17,10.187c-0.216,1.205-0.163,2.467,0.196,3.694    L94.93,321.538c1.008,3.446,4.169,5.814,7.759,5.814c0.003,0,0.006,0,0.01,0l36.469-0.042c3.227-0.004,6.143-1.926,7.418-4.891    l50.504-117.497l-19.27,113.073c-0.4,2.348,0.255,4.753,1.791,6.573c1.536,1.819,3.796,2.869,6.177,2.869h34.431    c3.94,0,7.305-2.84,7.969-6.723l21.597-126.403C250.186,191.962,249.532,189.558,247.995,187.737z M91.299,199.91    c6.153,0.289,6.83,2.175,7.321,4.052l3.25,15.591c-7.757-7.554-16.819-14.157-26.984-19.643H91.299z M133.828,311.148    l-25.086,0.028L86.688,235.8c12.059,11.415,21.261,24.052,25.218,33.117l3.455,12.49c0.928,3.353,3.899,5.738,7.375,5.918    c3.472,0.18,6.676-1.885,7.945-5.128l31.731-81.079h18.709L133.828,311.148z M213.4,311.269h-18.032l18.783-110.236h18.083    L213.4,311.269z" fill="#566d77" data-original="#000000" style="" class=""/>
	</g>
</g>
<g xmlns="http://www.w3.org/2000/svg">
	<g>
		<path d="M469.205,317.059l-27.773-125.725c-0.818-3.704-4.101-6.34-7.893-6.34h-26.607c-4.618,0-18.672,0-25.435,15.286    l-33.29,75.362c-0.845-16.501-11.834-29.368-33.527-39.267c-4.477-2.167-12.429-6.022-14.455-8.29    c0.99-0.939,4.271-2.826,11.405-2.826c0.041,0,0.083-0.001,0.124-0.001c10.163-0.147,17.358,2.155,22.471,4.193l2.933,1.345    c2.284,1.048,4.922,0.973,7.145-0.2c2.222-1.173,3.77-3.312,4.194-5.788l4.674-27.384c0.652-3.825-1.505-7.575-5.142-8.934    c-7.072-2.642-18.662-5.789-33.716-5.789c-38.786,0-66.055,20.444-66.313,49.692c-0.301,25.473,26.181,37.747,34.9,41.789    c11.678,5.375,12.972,7.63,13.113,8.022c0,0.001,0.011,0.051,0.008,0.213c-0.017,1.741-5.277,4.326-12.508,4.326    c-12.799,0-19.124-1.755-29.21-5.951l-4.274-1.963c-2.282-1.048-4.925-0.974-7.146,0.196c-2.223,1.173-3.773,3.311-4.196,5.788    l-4.84,28.325c-0.626,3.664,1.326,7.282,4.732,8.77c9.985,4.363,26.288,7.264,41.536,7.391c0.023,0,0.045,0,0.068,0    c19.474,0,36.143-4.586,48.203-13.262c1.054-0.758,2.054-1.558,3.03-2.375l-1.091,2.469c-1.105,2.5-0.872,5.39,0.62,7.679    c1.493,2.291,4.04,3.671,6.773,3.671h36.211c3.363,0,6.375-2.083,7.563-5.228c0.042-0.112,3.037-8.039,5.215-13.759    c3.775,0.004,8.951,0.01,14.3,0.016c6.376,0.006,13,0.014,17.807,0.018c1.254,5.65,2.737,12.484,2.759,12.583    c0.806,3.718,4.096,6.369,7.9,6.369h31.97c0.005,0,0.014,0,0.02,0c4.466,0,8.084-3.618,8.084-8.084    C469.547,318.583,469.428,317.8,469.205,317.059z M280.214,313.13c-11.338-0.098-21.985-1.897-29.281-3.989l1.965-11.503    c9.408,3.565,17.411,5.273,30.615,5.273c16.762,0,28.553-8.36,28.675-20.288c0.178-11.699-10.554-17.616-22.506-23.119    c-17.768-8.236-25.637-16.537-25.514-26.943c0.175-19.836,20.796-33.691,50.145-33.691c8.934,0,16.371,1.346,21.736,2.77    l-1.817,10.65c-5.83-1.826-13.228-3.335-22.662-3.198c-19.02,0.022-27.709,9.786-27.748,18.881    c-0.128,11.371,11.009,16.759,23.9,22.998c0.057,0.027,0.114,0.054,0.17,0.08c21.584,9.827,24.275,19.542,24.207,26.901    C331.886,299.643,312.005,313.121,280.214,313.13z M435.982,311.313c-0.988-4.514-2.242-10.193-2.838-12.719    c-0.861-3.65-4.119-6.228-7.869-6.228c-2.659,0-13.792-0.013-24.251-0.023c-9.275-0.011-18.023-0.021-19.874-0.021    c-3.328,0-6.314,2.038-7.527,5.136c-0.849,2.169-3.435,8.984-5.279,13.855h-18.216l46.158-104.495    c1.694-3.831,3.721-5.655,10.647-5.655h20.112l24.331,110.15H435.982z" fill="#566d77" data-original="#000000" style="" class=""/>
	</g>
</g>
<g xmlns="http://www.w3.org/2000/svg">
	<g>
		<path d="M427.548,272.807c-1.384-6.313-7.952-36.476-7.953-36.477l-2.337-10.901c-0.755-3.525-3.752-6.122-7.348-6.37    c-3.602-0.242-6.922,1.915-8.154,5.302c-1.057,2.911-2.663,7.061-3.623,9.54c-0.316,0.818-0.622,1.61-0.872,2.389l-0.032-0.013    c-0.109,0.28-10.881,28.138-13.698,35.304c-0.978,2.488-0.662,5.299,0.843,7.51c1.509,2.209,4.01,3.532,6.683,3.532h28.595    c2.448,0,4.764-1.109,6.299-3.017C427.486,277.699,428.073,275.198,427.548,272.807z M402.882,266.454    c1.392-3.587,2.908-7.498,4.309-11.115c0.813,3.733,1.664,7.641,2.422,11.115H402.882z" fill="#566d77" data-original="#000000" style="" class=""/>
	</g>
</g>
<g xmlns="http://www.w3.org/2000/svg">
</g>
<g xmlns="http://www.w3.org/2000/svg">
</g>
<g xmlns="http://www.w3.org/2000/svg">
</g>
<g xmlns="http://www.w3.org/2000/svg">
</g>
<g xmlns="http://www.w3.org/2000/svg">
</g>
<g xmlns="http://www.w3.org/2000/svg">
</g>
<g xmlns="http://www.w3.org/2000/svg">
</g>
<g xmlns="http://www.w3.org/2000/svg">
</g>
<g xmlns="http://www.w3.org/2000/svg">
</g>
<g xmlns="http://www.w3.org/2000/svg">
</g>
<g xmlns="http://www.w3.org/2000/svg">
</g>
<g xmlns="http://www.w3.org/2000/svg">
</g>
<g xmlns="http://www.w3.org/2000/svg">
</g>
<g xmlns="http://www.w3.org/2000/svg">
</g>
<g xmlns="http://www.w3.org/2000/svg">
</g>
</g></svg>
