<svg xmlns="http://www.w3.org/2000/svg" width="22.864" height="30.085" viewBox="0 0 22.864 30.085">
    <g>
        <path fill="#566d77" fill-rule="evenodd" stroke="#8ea0ab" stroke-width="0.5px" d="M16.773-23.394v5.057a1.917 1.917 0 0 1-1.914 1.922H1.914A1.917 1.917 0 0 1 0-18.337v-25.741A1.917 1.917 0 0 1 1.914-46h12.945a1.917 1.917 0 0 1 1.914 1.922v5.057a.583.583 0 0 1-.6.607.583.583 0 0 1-.6-.607v-5.057a.69.69 0 0 0-.705-.708H1.914a.69.69 0 0 0-.705.708v25.742a.69.69 0 0 0 .705.708h12.945a.69.69 0 0 0 .705-.708v-5.057a.583.583 0 0 1 .6-.607.614.614 0 0 1 .609.606zM4.533-43.825a.583.583 0 0 0-.6.607.583.583 0 0 0 .6.607h7.757a.583.583 0 0 0 .6-.607.583.583 0 0 0-.6-.607zm4.533 25.286a.583.583 0 0 0 .6-.607.583.583 0 0 0-.6-.607H7.757a.583.583 0 0 0-.6.607.583.583 0 0 0 .6.607zm13.3-16.992v8.749a1.444 1.444 0 0 1-1.41 1.416H7.1a1.336 1.336 0 0 1-1.31-1.315v-8.85a1.444 1.444 0 0 1 1.41-1.417h13.753a1.444 1.444 0 0 1 1.411 1.417zm-15.413 0v.556h14.2v-.556a.217.217 0 0 0-.2-.2H7.2a.231.231 0 0 0-.249.2zm14.2 8.749v-6.928H6.951v7.03a.109.109 0 0 0 .1.1H20.9a.231.231 0 0 0 .255-.202zm-1.36-1.972h-1.61a.583.583 0 0 0-.6.607.583.583 0 0 0 .6.607h1.612a.583.583 0 0 0 .6-.607.583.583 0 0 0-.6-.608z" transform="translate(-214.75 -148.75) translate(215 195)"/>
    </g>
</svg>
