<svg xmlns="http://www.w3.org/2000/svg" width="12.741" height="12" viewBox="0 0 12.741 12">
    <path fill="#fec602" d="M424.708 576.829c-.243.246-.479.492-.725.728-.661.635-1.33 1.265-1.995 1.9-.105.1-.217.195-.313.3a.24.24 0 0 0-.052.178q.362 2.1.734 4.208a.074.074 0 0 1 0 .023c0 .013-.064-.009-.139-.047-.258-.13-.511-.26-.765-.391l-3.008-1.549a.212.212 0 0 0-.222.015q-1.881.968-3.763 1.934c-.022.012-.043.021-.067.031s-.057-.036-.042-.117c.057-.331.111-.654.168-.975.184-1.052.374-2.1.555-3.155a.218.218 0 0 0-.067-.162c-.651-.625-1.31-1.241-1.955-1.872-.352-.345-.687-.708-1.016-1.054-.057-.059-.037-.118.046-.131.173-.026.375-.056.577-.084l2.644-.377c.3-.043.59-.092.887-.122a.234.234 0 0 0 .213-.151q.922-1.836 1.851-3.669c.013-.027.028-.053.044-.081.025-.044.063-.052.086-.016a.724.724 0 0 1 .04.067q.937 1.853 1.872 3.71a.23.23 0 0 0 .2.142c1.293.18 2.585.367 3.878.552l.293.04c.083.008.1.065.045.125z" transform="translate(-412 -572.17)"/>
</svg>
