<svg xmlns="http://www.w3.org/2000/svg" id="组_1346" width="15.17" height="18.297" viewBox="0 0 15.17 18.297">
    <defs>
        <style>
            .cls-1{fill:#24a09a}
        </style>
    </defs>
    <rect id="矩形_51" width="15.17" height="1.635" class="cls-1" rx=".817" transform="translate(0 1.867)"/>
    <path id="路径_23" d="M227.737 264.246v-11.115c.35-1.313 1.576-.526 1.576 0v11.115c0 .525.058 1.458-1.663 1.4-2.011-.068-10.677 0-10.677 0a1.662 1.662 0 0 1-1.663-1.663c0-.875.058-10.531.058-10.969 0-.759 1.517-1.109 1.6.029s0 11.2 0 11.2z" class="cls-1" transform="translate(-214.551 -247.355)"/>
    <rect id="矩形_52" width="1.699" height="11.027" class="cls-1" rx=".849" transform="translate(5.157 5.339)"/>
    <rect id="矩形_53" width="1.699" height="11.027" class="cls-1" rx=".849" transform="translate(8.832 5.339)"/>
    <rect id="矩形_54" width="4.69" height="2.305" class="cls-1" rx="1.024" transform="translate(5.547 0)"/>
    <rect id="矩形_55" width="1.663" height="12.505" class="cls-1" rx=".831" transform="translate(0.758 4.901)"/>
    <rect id="矩形_56" width="1.663" height="12.614" class="cls-1" rx=".831" transform="translate(13.098 5.098)"/>
</svg>
